<?xml version="1.0" encoding="UTF-8"?>
<svg id="Livello_2" data-name="Livello 2" xmlns="http://www.w3.org/2000/svg" xmlns:xlink="http://www.w3.org/1999/xlink" viewBox="0 0 955.39 888.03">
  <defs>
    <style>
      .cls-1 {
        fill: none;
      }

      .cls-2 {
        clip-path: url(#clippath-1);
      }

      .cls-3 {
        clip-path: url(#clippath-3);
      }

      .cls-4 {
        clip-path: url(#clippath-4);
      }

      .cls-5 {
        clip-path: url(#clippath-2);
      }

      .cls-6 {
        clip-path: url(#clippath-7);
      }

      .cls-7 {
        clip-path: url(#clippath-6);
      }

      .cls-8 {
        clip-path: url(#clippath-9);
      }

      .cls-9 {
        clip-path: url(#clippath-8);
      }

      .cls-10 {
        clip-path: url(#clippath-5);
      }

      .cls-11 {
        fill: #fff;
      }

      .cls-12 {
        clip-path: url(#clippath);
      }
    </style>
    <clipPath id="clippath">
      <rect class="cls-1" width="955.39" height="888.03"/>
    </clipPath>
    <clipPath id="clippath-1">
      <rect class="cls-1" width="955.39" height="888.03"/>
    </clipPath>
    <clipPath id="clippath-2">
      <rect class="cls-1" width="955.39" height="888.03"/>
    </clipPath>
    <clipPath id="clippath-3">
      <rect class="cls-1" width="955.39" height="888.03"/>
    </clipPath>
    <clipPath id="clippath-4">
      <rect class="cls-1" width="955.39" height="888.03"/>
    </clipPath>
    <clipPath id="clippath-5">
      <rect class="cls-1" width="955.39" height="888.03"/>
    </clipPath>
    <clipPath id="clippath-6">
      <rect class="cls-1" width="955.39" height="888.03"/>
    </clipPath>
    <clipPath id="clippath-7">
      <rect class="cls-1" width="955.39" height="888.03"/>
    </clipPath>
    <clipPath id="clippath-8">
      <rect class="cls-1" width="955.39" height="888.03"/>
    </clipPath>
    <clipPath id="clippath-9">
      <rect class="cls-1" width="955.39" height="888.03"/>
    </clipPath>
  </defs>
  <g id="Livello_1-2" data-name="Livello 1">
    <g>
      <g class="cls-12">
        <path class="cls-11" d="M42.38,795.17c-6.14,0-12.82,1.33-18.16,4.41C9.25,808.47,0,824.85,0,842.16c0,22.04,17.77,45.86,41.28,45.86,7.92,0,16.86-2.38,22.86-7.61l5.52,6.39h2.91v-27.27h-3.73c-3.73,13.89-11,25.15-26.31,25.15-.54,0-1.1,0-1.61-.03-10.16-.51-16.46-6.2-19.01-14.74-2.52-8.66-2.23-19.04-2.23-26.59,0-10.81-1.3-26.23,4.95-35.79,4.7-7.24,9.05-9.08,17.62-9.08,13.1,0,23.28,9.19,25.29,23.68h3.85v-25.66h-2.94l-5.35,5.6c-5.86-4.78-13.24-6.9-20.71-6.9"/>
        <path class="cls-11" d="M109.95,885.32c-11.91,0-12.16-7.47-12.16-24.75,0-15.02-.93-25.38,12.16-25.38s12.19,10.35,12.19,25.38c0,17.34-.28,24.75-12.19,24.75M109.95,832.56c-15.11,0-28.09,13.15-28.09,28.04s12.99,27.44,28.09,27.44,28.09-12.5,28.09-27.44-12.99-28.04-28.09-28.04"/>
        <path class="cls-11" d="M217.9,832.54c-7.72,0-13.49,4.53-17.37,11.03-2.38-7.04-8.01-11.03-15.36-11.03-9.08,0-15.25,5.04-18.56,13.04h-.25v-12.76c-6.85.2-13.47.59-19.35.59-1.41,0-2.77-.03-4.07-.08v3.34h9.25v46.03h-8.71v3.31h30.21v-3.31h-7.33v-25.38c0-9.87,6.68-19.97,13.24-19.97,8.01,0,6.39,7.44,6.39,13.55v31.8h-6.96v3.31h28.46v-3.31h-7.33v-25.66c0-8.12,3.99-19.69,13.98-19.69,6.31,0,5.63,6.08,5.63,9.82v35.53h-7.04v3.31h29.79v-3.31h-8.57v-25.66c0-13.75,1.47-24.5-16.04-24.5"/>
        <path class="cls-11" d="M300.94,832.81c-6.48.2-13.04.62-19.58.62-1.61,0-3.17-.03-4.75-.08v3.31h10.13v25.66c0,15.93-10.67,21.42-15.62,21.42-6.82,0-6.42-4.07-6.42-9.56v-41.36c-6.45.2-13.04.62-18.81.62-1.39,0-2.74-.03-4.05-.08v3.31h8.71v38.45c0,6.28,3.34,12.9,16.15,12.9,8.71,0,15.96-5.18,19.66-12.62h.42v11.71c5.04-.96,10.13-1.13,15.25-1.13,2.74,0,5.52.03,8.29.03v-3.31h-9.39v-49.88Z"/>
        <path class="cls-11" d="M357.09,832.54c-9.65,0-15.62,4.53-19.92,12.76h-.28v-12.53c-6.68.23-13.32.62-19.21.62-1.39,0-2.72-.03-4.02-.11v3.37h9.08v46h-9.08v3.31h31.66v-3.31h-8.43v-17.51c0-6.28,0-12.39,1.78-16.8,2.01-4.95,7.21-11,12.96-11,8.97,0,7.61,9,7.61,21.39v23.93h-8.43v3.31h31.01v-3.31h-8.4v-24.58c0-13.13,1.47-25.52-16.32-25.52"/>
        <path class="cls-11" d="M402.38,853.31c0-8.37-1.22-18.08,9.87-18.08,11.91,0,9.65,9.17,9.65,18.08h-19.52ZM413.11,832.49c-14.57,0-26.59,13.35-26.59,27.98,0,13.58,10.55,27.53,25.12,27.53,12.93,0,22.18-5.69,25.63-18.62h-3.31c-2.66,9.02-10.04,15.96-19.66,15.96-11.34,0-11.91-8.77-11.91-18.08v-10.67l.03-.06h31.29c.48,0,.91.03,1.3.03,1.3,0,2.07-.23,2.07-2.38,0-13.18-11.51-21.7-23.96-21.7"/>
        <path class="cls-11" d="M495.55,885.33c-7.36,0-9.65-5.57-9.65-11.97h.03v-23.68c0-7.58,1.05-14.48,9.9-14.48,10.27,0,15.76,11.03,15.76,19.41v14.09c0,7.98-7.89,16.63-16.04,16.63M525.99,795.14c-6.87,1.3-13.86,2.04-20.91,2.04-1.08,0-2.12,0-3.14-.03v3.31h9.62v43.4h-.28c-1.61-6.28-7.47-11.32-16.18-11.32-13.89,0-25.52,14.91-25.52,28.04,0,6.96,2.66,15.81,8.06,20.51,5.09,4.38,8.66,6.9,15.76,6.9,8.4,0,14.71-3.99,17.88-11.03h.28v10.1c5.52-.96,10.69-1.13,15.79-1.13,2.8,0,5.54.06,8.29.06v-3.34h-9.65v-87.5Z"/>
        <path class="cls-11" d="M561.7,832.81c-6.62.2-13.18.62-19.69.62-1.5,0-3-.03-4.5-.08v3.31h9.73v46.03h-9.73v3.34h34.06v-3.34h-9.87v-49.88ZM553.39,801.15c-3.62,0-7.21,3.59-7.21,7.16,0,3.85,3.08,7.98,7.21,7.98,4.53,0,7.89-3.42,7.89-7.98,0-3.99-4.02-7.16-7.89-7.16"/>
        <path class="cls-11" d="M631.72,842.37v-41.9h15.62c14.97,0,15.67,11.43,15.67,20.99,0,10.95-2.69,20.91-15.67,20.91h-15.62ZM644.54,797.16h-43.17v3.31h13.24v82.18h-13.24v3.31h44.5v-3.31h-14.15v-36.98h15.25c15.33,0,34.85-5.46,34.85-24.1,0-20.96-20.28-24.41-37.29-24.41"/>
        <path class="cls-11" d="M705.56,881.48c-6.31,0-8.71-4.38-8.71-10.24,0-10.78,11.09-11.83,19.38-11.83v7.3c0,2.52-.14,4.92-.91,6.93-1.61,4.27-5.09,7.84-9.76,7.84M707.77,832.56c-8.12,0-21.22,3.62-21.22,13.69,0,4.22,3.2,6.22,6.93,6.22,3.06,0,6.39-2.4,6.39-5.86,0-2.49-1.05-5.29-1.84-6.39-1.98-2.52,4.27-5.04,9.36-5.04,2.32,0,8.83,1.33,8.83,4.81v16.61c-.91-.03-1.9-.06-2.94-.06-12.28,0-30.47,3.96-30.47,18.56,0,8.52,5.88,12.93,13.89,12.93,7.53,0,14.71-3.59,19.52-9.45.82,5.86,4.81,9.45,10.41,9.45s9.25-2.8,12.73-7.07l-1.64-1.84c-1.08,1.08-3.08,3.08-4.67,3.08s-3.23-.85-3.23-2.55v-35.36c0-4.16-1.19-6.28-4.92-8.12-5.23-2.66-11.4-3.62-17.14-3.62"/>
        <path class="cls-11" d="M783.21,832.54c-9.73,0-14.43,7.69-18.7,15.02l-.03.03v-14.74c-6.62.2-13.21.62-19.18.62-1.39,0-2.77-.06-4.1-.11v3.34h8.85v46.03h-7.89v3.31h34.34v-3.31h-12.02v-12.39c0-17.4,3.2-24.58,8.29-29.65,1.75-1.7,3.11-3.06,5.63-3.06,1.47,0,1.33.82.91,2.91-.11.65-.23,1.44-.23,1.98,0,3.31,3.17,6.11,6.39,6.11,4.81,0,8.43-2.23,8.43-7.44,0-6-5.46-8.66-10.69-8.66"/>
        <path class="cls-11" d="M871.14,832.54c-7.72,0-13.47,4.53-17.37,11.03-2.38-7.04-8.01-11.03-15.36-11.03-9.05,0-15.25,5.04-18.56,13.04h-.31v-12.76c-6.82.2-13.44.59-19.32.59-1.41,0-2.77-.03-4.07-.08v3.34h9.25v46.03h-8.71v3.31h30.21v-3.31h-7.36v-25.38c0-9.87,6.7-19.97,13.24-19.97,8.03,0,6.42,7.44,6.42,13.55v31.8h-6.96v3.31h28.49v-3.31h-7.36v-25.66c0-8.12,4.02-19.69,14-19.69,6.31,0,5.63,6.08,5.63,9.82v35.53h-7.04v3.31h29.79v-3.31h-8.57v-25.66c0-13.75,1.5-24.5-16.04-24.5"/>
        <path class="cls-11" d="M921.58,881.48c-6.31,0-8.69-4.38-8.69-10.24,0-10.78,11.09-11.83,19.38-11.83v7.3c0,2.52-.14,4.92-.93,6.93-1.61,4.27-5.06,7.84-9.76,7.84M923.84,832.56c-8.15,0-21.25,3.62-21.25,13.69,0,4.22,3.2,6.22,6.9,6.22,3.08,0,6.42-2.4,6.42-5.86,0-2.49-1.02-5.29-1.84-6.39-1.98-2.52,4.27-5.04,9.34-5.04,2.35,0,8.85,1.33,8.85,4.81v16.61c-.93-.03-1.92-.06-2.94-.06-12.25,0-30.47,3.96-30.47,18.56,0,8.52,5.88,12.93,13.89,12.93,7.5,0,14.71-3.59,19.52-9.45.79,5.86,4.81,9.45,10.41,9.45s9.25-2.8,12.73-7.07l-1.61-1.84c-1.1,1.08-3.11,3.08-4.72,3.08s-3.2-.85-3.2-2.55v-35.36c0-4.16-1.19-6.28-4.95-8.12-5.18-2.66-11.34-3.62-17.09-3.62"/>
      </g>
      <polygon class="cls-11" points="223.52 511.64 208.11 522.47 207.85 522.84 207.99 523.24 209.78 525.76 210.17 526.07 210.65 525.95 216.85 521.62 217.02 521.57 217.27 521.68 217.27 521.71 220.61 526.38 220.67 526.66 220.5 526.83 214.3 531.16 214.05 531.58 214.19 532.04 216 534.58 216.73 534.67 232.15 523.83 232.32 523.18 230.31 520.35 229.72 520.35 224.09 524.28 223.5 524.23 220.27 519.64 220.38 519.08 226.01 515.12 226.18 514.52 224.17 511.64 223.52 511.64"/>
      <g class="cls-2">
        <path class="cls-11" d="M228.27,543.43c-.99,0-1.87-.45-2.57-1.33-.91-1.1-1.08-2.18-.62-3.34.48-1.13,1.61-2.43,3.51-3.96,1.92-1.53,3.48-2.43,4.78-2.6.23-.03.42-.06.59-.06,1.02,0,1.87.42,2.57,1.33.88,1.02,1.02,2.15.54,3.31-.48,1.19-1.73,2.55-3.62,4.05-1.9,1.47-3.45,2.32-4.64,2.55v.03c-.2.03-.34.03-.54.03M233.03,528.35c-.71,0-1.47.11-2.26.31-1.58.42-3.25,1.33-4.89,2.63-1.64,1.27-2.83,2.69-3.62,4.16-.79,1.41-1.08,2.94-.96,4.44l-.03.03c.14,1.47.76,2.86,1.84,4.22,1.08,1.33,2.32,2.18,3.73,2.66.74.28,1.53.4,2.35.4.71,0,1.41-.11,2.21-.31,1.64-.45,3.28-1.3,4.89-2.6,1.64-1.3,2.86-2.66,3.65-4.16.74-1.53,1.08-3,.96-4.5-.14-1.47-.74-2.91-1.75-4.19-1.05-1.33-2.29-2.23-3.76-2.72-.74-.23-1.53-.37-2.35-.37"/>
        <path class="cls-11" d="M244.72,541.54c-.31,0-.62.03-.88.08-1.1.2-2.09.62-2.91,1.39-.99.88-1.58,1.9-1.84,3.17-.23,1.22-.06,2.52.54,3.85l1.61,3.51c.28.74.37,1.27.34,1.75-.03.48-.2.85-.57,1.19-.42.34-.82.51-1.3.51-.23,0-.37-.03-.62-.08-.65-.2-1.41-.74-2.12-1.56-.68-.71-1.08-1.44-1.22-2.18-.17-.68-.11-1.56.14-2.55l-.08-.42-.4-.23-2.32-.48-.51.14-.23.31c-.4,1.16-.4,2.46.06,3.85.4,1.39,1.16,2.72,2.26,3.96.99,1.08,2.04,1.9,3.14,2.38.82.34,1.64.51,2.46.51.28,0,.54,0,.82-.03,1.08-.17,2.09-.68,3.03-1.53.99-.85,1.64-1.92,1.9-3.08.23-1.19.06-2.46-.59-3.82l-1.64-3.65c-.57-1.3-.51-2.21.23-2.83.34-.34.74-.51,1.22-.51.14,0,.28,0,.45.03.65.14,1.3.59,1.92,1.33.59.62.96,1.27,1.1,1.9l.11-.08c.17.59.17,1.19.06,1.9l.03.51.25.06,2.57.45.31-.11.17-.37c.25-1.02.17-2.15-.2-3.31-.37-1.16-1.02-2.29-1.95-3.28-.91-1.02-1.9-1.73-3-2.18-.79-.31-1.56-.48-2.35-.48"/>
      </g>
      <polygon class="cls-11" points="254.84 550.72 254.9 550.78 253.12 552.5 253.14 553.13 256.43 556.46 256.54 556.69 256.34 556.92 245.17 567.89 245.05 568.46 247.57 570.95 248.17 570.89 259.4 559.83 259.76 559.83 262.96 563.11 263.61 563.11 265.37 561.33 265.37 560.71 255.52 550.78 255.21 550.58 254.84 550.72"/>
      <polygon class="cls-11" points="266.73 562.56 253.8 576.22 253.61 576.65 253.8 577.02 256.01 579.08 256.46 579.34 256.94 579.05 269.84 565.45 269.87 564.82 269.93 564.82 267.38 562.45 266.73 562.56"/>
      <g class="cls-5">
        <path class="cls-11" d="M272.41,569.09c-.54,0-1.1.06-1.61.23-1.02.28-1.95.88-2.69,1.75-.82.96-1.3,2.09-1.39,3.34-.11,1.27.23,2.52.99,3.76l2.04,3.31c.37.65.57,1.19.57,1.67s-.11.85-.45,1.22c-.42.48-.91.71-1.44.71-.11,0-.25,0-.37-.03-.71-.11-1.47-.57-2.29-1.3-.79-.62-1.3-1.33-1.5-2.01-.25-.65-.28-1.53-.17-2.55l-.14-.42-.45-.17-2.35-.17-.48.17-.17.34c-.23,1.22-.06,2.49.54,3.85.59,1.27,1.5,2.55,2.77,3.59,1.08.99,2.26,1.64,3.42,1.98.57.23,1.19.28,1.73.28s1.05-.06,1.53-.2c1.08-.31,2.04-.93,2.8-1.9.91-1.02,1.41-2.09,1.5-3.31.11-1.22-.23-2.43-1.05-3.71l-2.12-3.45c-.71-1.16-.74-2.12-.14-2.8.42-.48.91-.68,1.47-.68h.14c.65.03,1.36.42,2.12,1.08.62.54,1.08,1.16,1.3,1.73l.06.03c.23.59.31,1.22.31,1.9l.08.42.25.08,2.63.08.31-.14.14-.34c.11-1.05-.11-2.09-.62-3.25-.51-1.13-1.3-2.15-2.32-3.06-1.08-.91-2.12-1.53-3.28-1.81-.57-.17-1.13-.23-1.67-.23"/>
        <path class="cls-11" d="M280,582.88c-.45,0-.91.11-1.36.31-.57.2-1.02.57-1.44,1.05-.4.48-.65.99-.74,1.61-.14.57-.11,1.16.08,1.7l.06-.03c.11.57.45,1.02.91,1.39.45.34.96.57,1.53.62.11.03.25.03.34.03.48,0,.93-.08,1.39-.31.54-.2,1.02-.57,1.39-1.05.42-.48.65-1.02.79-1.61.08-.59.06-1.19-.11-1.7-.2-.54-.51-.99-.91-1.36-.45-.34-.99-.54-1.58-.62-.08-.03-.23-.03-.34-.03"/>
      </g>
      <polygon class="cls-11" points="288.81 581.71 288.78 581.76 287.31 583.72 287.45 584.34 291.21 587.14 291.32 587.34 291.24 587.59 281.82 600.1 281.82 600.69 284.62 602.76 285.27 602.59 294.69 590 295.06 589.94 298.74 592.66 299.33 592.63 300.83 590.62 300.69 589.94 289.49 581.57 289.12 581.51 288.81 581.71"/>
      <g class="cls-3">
        <path class="cls-11" d="M315.13,599.84l-.03.06.03.03v-.08ZM301.69,590.84l-.28.2-.06.2-5.57,18.76c-.08.4,0,.68.34.91l2.55,1.67.93-.06,15.31-12.28.2-.34-.17-.34-2.29-1.53-.71.08-10.75,9.08-.28.06v-.23l4.24-13.49-.17-.68-2.94-1.95-.34-.06Z"/>
        <path class="cls-11" d="M320.65,612.13c-.54,0-1.13-.2-1.75-.59l-2.6-1.5-.17-.23.08-.34,2.23-3.73.25-.23.4.11,2.57,1.5c.74.42,1.16.99,1.39,1.64.2.59.06,1.33-.4,2.04-.4.71-.93,1.16-1.58,1.3-.14.03-.28.03-.42.03M316.98,600.7l-.59.23-9.62,16.21-.08.42.25.34,2.66,1.56.54.14.37-.34,3.76-6.39.14-.11h.25l2.01,1.19.34.31.03.37-1.53,7.78.2.68,3.11,1.81h.34l.28-.2h.03l.03-.25,1.33-8.52.31-.31c.28.03.51.06.79.06.79,0,1.53-.17,2.29-.54.99-.45,1.84-1.27,2.52-2.38.88-1.5,1.05-2.97.51-4.38-.57-1.41-1.81-2.69-3.68-3.79l-6.59-3.88Z"/>
        <path class="cls-11" d="M329.73,627.09l-2.4-1.24-.17-.23.11-.37,1.98-3.79.28-.28.37.11,2.4,1.22c.82.42,1.39.96,1.64,1.61.28.68.23,1.36-.11,2.07-.4.74-.93,1.22-1.64,1.39-.17.03-.37.06-.57.06-.54,0-1.16-.2-1.87-.54h-.03ZM333.89,619.64l-2.57-1.33-.17-.25.08-.34,1.9-3.65.28-.23.37.06,2.23,1.13c.76.42,1.33.93,1.58,1.61.31.68.25,1.36-.14,2.07-.37.74-.85,1.13-1.53,1.24-.17.03-.34.06-.48.06-.54,0-1.05-.14-1.56-.4v.03ZM331.09,609.06l-.31.31-8.69,16.72-.08.34-.06.03.23.28,6.2,3.2c1.87.96,3.51,1.44,4.89,1.44.25,0,.48,0,.71-.06,1.53-.23,2.69-1.13,3.54-2.74.57-1.08.74-2.09.57-2.97-.17-.96-.71-1.87-1.58-2.91v-.11l.08-.08c.17.03.34.03.51.03,1.05,0,1.9-.17,2.49-.51.76-.37,1.39-1.02,1.84-1.9.82-1.5.88-2.94.14-4.3-.71-1.41-2.12-2.6-4.24-3.73l-5.88-3-.34-.03Z"/>
      </g>
      <polygon class="cls-11" points="345.74 617 337.93 634.08 337.87 634.51 338.21 634.82 349.42 639.88 350.04 639.63 351.11 637.37 350.86 636.8 343.25 633.38 343.08 633.18 343.14 632.9 344.89 629.11 345.34 628.96 350.1 631.11 350.58 630.94 351.71 628.6 351.45 628 346.76 625.88 346.62 625.31 348.23 621.75 348.85 621.61 355.95 624.8 356.66 624.52 357.65 622.34 357.56 621.72 346.3 616.69 345.74 617"/>
      <polygon class="cls-11" points="358.95 622.52 358.67 622.78 358.7 622.78 357.82 625.12 358.08 625.66 362.46 627.33 362.63 627.53 362.6 627.78 356.83 642.38 356.97 642.95 360.25 644.22 360.79 643.88 366.59 629.28 366.93 629.14 371.17 630.81 371.71 630.58 372.62 628.26 372.33 627.64 359.35 622.52 358.95 622.52"/>
      <g class="cls-4">
        <path class="cls-11" d="M373.85,628.22h-.34l-.25.28v.2l-.4,19.52c0,.4.2.65.57.76l2.91.96.93-.31,11.49-15.84.14-.42h-.03l-.28-.25-2.63-.91-.65.28-7.98,11.6-.23.14-.08-.23.51-14.09-.34-.59-3.34-1.1Z"/>
        <path class="cls-11" d="M396.86,643.93c-.34,0-.76-.08-1.16-.17l-2.91-.79-.23-.14v-.37l1.13-4.22.17-.31h.37l2.91.79c.79.17,1.39.59,1.73,1.16.37.59.45,1.24.2,2.09-.2.82-.59,1.33-1.19,1.64l.06.06c-.34.17-.68.25-1.08.25M390.75,633.72l-.48.37-4.98,18.16v.4l.37.23,3,.79h.54l.25-.42,1.95-7.13.14-.17h.23l2.26.59.42.23.14.28.59,7.92.4.62,3.45.96.34-.08.2-.31-.06-.03v-.23l-.99-8.57.2-.37c1.02-.11,1.98-.51,2.83-1.24.82-.71,1.44-1.67,1.78-2.91.48-1.73.23-3.17-.68-4.38-.93-1.24-2.43-2.15-4.55-2.72l-7.36-1.98Z"/>
        <path class="cls-11" d="M407.04,644.48c-.34,0-.65.06-1.02.17-.51.2-.99.51-1.41.99-.4.48-.68.99-.82,1.61-.17.59-.17,1.16,0,1.75.14.62.45,1.13.88,1.5.4.42.88.71,1.41.82.25.08.45.08.68.08.34,0,.65-.03.99-.17.57-.23.99-.51,1.41-.99.4-.45.68-.99.82-1.61.17-.57.17-1.19,0-1.78-.17-.57-.45-1.08-.85-1.5-.42-.4-.91-.68-1.44-.82-.2-.03-.45-.06-.65-.06"/>
        <path class="cls-11" d="M419.35,657.65c-.25,0-.54-.03-.79-.06-1.33-.25-2.21-.96-2.63-2.12l-.03-.03c-.37-1.16-.37-2.94.03-5.26.48-2.4,1.13-4.07,1.95-5.09.68-.82,1.5-1.19,2.49-1.19.23,0,.48,0,.71.06,1.33.28,2.23.99,2.63,2.23.4,1.22.37,3-.03,5.38-.45,2.4-1.1,4.05-1.92,4.95-.65.76-1.47,1.13-2.4,1.13M420.06,640.59c-1.02,0-2.01.2-2.91.59-1.41.59-2.57,1.56-3.54,3v-.06c-.99,1.41-1.64,3.11-2.01,5.18-.37,2.04-.37,3.88,0,5.49.4,1.58,1.13,2.91,2.21,3.96,1.13,1.05,2.49,1.7,4.22,2.01.51.08,1.08.2,1.75.2l.34.17c1.08,2.32,2.6,3.65,4.58,4.02h.71l.31-.51.42-2.21-.28-.42c-.59-.2-1.13-.54-1.61-1.02-.42-.45-.65-.79-.59-1.05l.08-.2c2.26-1.39,3.65-3.88,4.33-7.38.42-2.04.42-3.93,0-5.54-.4-1.64-1.16-2.97-2.21-4.05-1.13-1.02-2.46-1.7-4.13-2.01-.57-.11-1.13-.17-1.67-.17"/>
        <path class="cls-11" d="M430.13,642.54l-.34.06-.14.31v.25l3.34,19.21c.11.4.31.59.74.68l3.03.4.79-.48,8.26-17.74.03-.42-.34-.25-2.74-.37-.54.37-5.63,12.93-.2.17-.11-.17-2.21-13.95-.45-.51-3.48-.48Z"/>
      </g>
      <polygon class="cls-11" points="447.53 645.16 445.83 663.86 445.89 664.34 446.32 664.48 449.4 664.76 449.85 664.65 450.11 664.17 451.8 645.55 451.46 645.02 448.01 644.7 447.53 645.16"/>
      <path class="cls-11" d="M459.2,657.37l-.25-.23.08-.23,2.38-6.14.14-.17.23.17,1.7,6.31v.25l-.28.23-3.99-.2ZM459.88,645.77l-.28.4-6.99,18.22-.06.28-.03.03.34.51,2.8.08.51-.31,1.5-3.88.34-.25,5.97.31.2.03.11.25,1.05,3.93.45.4,3.62.2.23-.11.14-.34-.03-.25-5.15-18.84-.23-.42-.4-.17-3.71-.17-.4.11Z"/>
      <g class="cls-10">
        <path class="cls-11" d="M474.72,652.41c-.57,0-1.13.14-1.61.45-.48.28-.88.68-1.19,1.22-.28.54-.42,1.13-.42,1.73,0,.68.11,1.24.4,1.75.28.54.65.96,1.16,1.3.45.34.99.48,1.56.48.59,0,1.1-.11,1.58-.42.51-.28.88-.71,1.19-1.24.31-.51.48-1.1.48-1.75s-.14-1.19-.4-1.73c-.28-.57-.71-.93-1.19-1.27-.42-.34-.96-.51-1.56-.51"/>
        <path class="cls-11" d="M484.77,654.93l-.28-.11-.11-.37-.11-4.58.08-.34.34-.14,2.72-.06h.17c.82,0,1.5.2,2.01.62l.03-.08c.57.48.88,1.16.88,2.07s-.2,1.61-.71,2.07c-.48.51-1.13.82-2.01.82l-3,.11ZM487.8,645.99h-.28l-7.3.2-.37.51.54,18.81.11.4.4.11,3.14-.08c.42-.03.62-.23.62-.62l-.2-6.7.25-.31,3.71-.08c1.98-.08,3.54-.62,4.72-1.75l-.03.03c1.16-1.08,1.75-2.57,1.67-4.53-.03-1.33-.4-2.46-1.02-3.37-.65-.91-1.53-1.58-2.6-2.04-1.02-.37-2.09-.57-3.37-.57"/>
      </g>
      <path class="cls-11" d="M500.33,656.88v-.25l1.61-6.37.17-.23.14.14,2.52,6.08.06.23-.2.23v.08l-3.99.28-.31-.2ZM500.19,645.31l-.42.14-.2.48-4.61,18.9v.37l.42.42,2.77-.23.45-.37.99-4.07.31-.28,5.94-.48.2.03.14.25,1.56,3.79.51.34,3.59-.28.2-.17.08-.34-.08-.28-7.41-17.96-.31-.4-.51-.14-3.62.28Z"/>
      <g class="cls-7">
        <path class="cls-11" d="M517.86,651.93l-.28-.06-.14-.34-.57-4.3.06-.31.34-.14,2.97-.4c.2-.03.37-.03.59-.03.57,0,1.08.11,1.5.42.57.34.88.99,1.02,1.84.08.79-.03,1.47-.48,1.98-.45.48-1.1.79-2.04.93l-2.97.4ZM521.88,643.1c-.54,0-1.13.03-1.73.11l-7.55,1.02-.34.57,2.52,18.61.17.37.42.06,3.06-.4.48-.23.11-.45-1.02-7.38.03-.2.2-.14,2.29-.25h.48l.25.25,3.62,7.07.62.4,3.59-.48.25-.17.08-.37v-.03l-.08-.25-4.3-7.47.03-.4c.93-.48,1.64-1.27,2.15-2.26.48-.96.65-2.12.48-3.39-.2-1.73-.99-2.97-2.32-3.76-.91-.54-2.09-.82-3.51-.82"/>
        <path class="cls-11" d="M547.69,638.29l-5.15,1.02c-.28.03-.42.28-.42.74l-1.27,11.46-.11.23-.2-.17-5.86-10.27-.25-.23h-.42l-4.95.99-.28.57,3.68,18.36.23.37.11.08.4.06,2.43-.48.34-.17v-.4l-2.6-12.9.06-.28.17.17,6.79,12.11.57.31,2.01-.4.42-.48,1.5-14,.11-.23.08.17,2.63,13.04.2.4.42.03,3.08-.59.45-.25.03-.48-3.71-18.33-.48-.42Z"/>
      </g>
      <path class="cls-11" d="M558.18,647.35v-.23l.4-6.56.11-.25.2.17,3.62,5.46.08.2-.11.28h-.08l-3.9,1.08-.31-.14ZM559.56,635.07l-3.54.91-.4.25-.08.48-1.02,19.46.03.37v-.06l.48.37,2.69-.74.45-.51.17-4.13.23-.34,5.71-1.53h.28l.2.17,2.23,3.45.57.2,3.45-.91.17-.23v-.37l-.08-.2-10.67-16.32-.4-.34h-.48Z"/>
      <g class="cls-6">
        <path class="cls-11" d="M585.98,626.61l-4.98,1.7c-.23.11-.34.4-.31.79l.28,11.54-.11.25-.23-.14-7.13-9.36-.31-.25-.42.06-4.81,1.64-.2.59,6.08,17.71.25.37.03-.06h.42l2.35-.82.31-.2-.03-.42-4.27-12.36v-.28l.2.17,8.35,11.12.59.23,1.95-.68.34-.57-.34-14.06.06-.23.14.14,4.36,12.62.23.37h.4l3-.99.42-.31v-.51l-6.11-17.71-.51-.34Z"/>
        <path class="cls-11" d="M594.28,630.26c-.37,0-.74.06-1.13.2-.54.2-.99.54-1.33,1.02-.31.48-.51.99-.57,1.61-.08.62,0,1.19.23,1.78.2.57.59,1.08,1.02,1.41.45.4.99.65,1.58.76l.06.03c.17.03.34.03.51.03.37,0,.76-.06,1.13-.2.51-.2.96-.54,1.3-.99.31-.48.51-1.02.57-1.64.06-.57-.03-1.19-.25-1.75-.23-.57-.57-1.05-1.05-1.44-.45-.42-.96-.68-1.56-.79-.17-.03-.34-.03-.51-.03"/>
      </g>
      <polygon class="cls-11" points="609.19 616.59 606.67 617.69 606.36 618.32 608.37 632.23 608.31 632.52 608.08 632.38 598.86 621.63 598.27 621.43 595.04 622.9 594.81 623.12 594.81 623.49 594.93 623.61 607.91 638.29 608.85 638.49 611.65 637.27 612.13 636.45 609.84 617.04 609.67 616.67 609.58 616.59 609.19 616.59"/>
      <polygon class="cls-11" points="611.43 615.44 611.26 616.09 619.69 632.9 619.97 633.27 620.45 633.18 623.2 631.88 623.56 631.48 623.53 630.95 615.13 614.2 614.57 613.94 614.57 613.89 611.43 615.44"/>
      <g class="cls-9">
        <path class="cls-11" d="M625.11,617.79l-.25-.28-2.07-3.76-.08-.37.28-.25,2.63-1.44c.51-.28,1.05-.45,1.53-.45.17,0,.37.06.54.08.68.17,1.24.65,1.61,1.39.4.74.51,1.44.28,2.07v-.06c-.25.62-.74,1.16-1.58,1.61l-2.63,1.44-.25.03ZM628.65,607.52c-1.3,0-2.72.45-4.3,1.3l-6.68,3.62-.11.59,9.05,16.52.25.31.42-.08,2.72-1.44.4-.4-.11-.51-3.59-6.51v-.17l.14-.17,2.04-1.13.42-.17.34.17,5.94,5.32.71.17,3.14-1.7.2-.28-.06-.34.03-.03-.17-.2-6.68-5.49-.11-.4c.68-.82,1.1-1.75,1.19-2.86.11-1.1-.11-2.26-.76-3.37-.88-1.56-2.04-2.43-3.56-2.72-.25-.03-.54-.06-.85-.06"/>
        <path class="cls-11" d="M642.48,599.17c-.23,0-.48,0-.71.03-1.22.11-2.32.48-3.39,1.13-1.41.88-2.4,2.01-3.06,3.42-.62,1.36-.85,2.89-.62,4.55.25,1.7.88,3.45,1.98,5.18,1.1,1.73,2.32,3.06,3.68,4.02,1.39.91,2.8,1.41,4.3,1.5h-.06.31c1.39,0,2.69-.42,4.02-1.22,1.1-.68,1.84-1.44,2.26-2.23.4-.82.68-1.73.74-2.66l.2-.14,1.61,1.3h.79l.68-.42.17-.23-.08-.31-4.81-7.64-.37-.31-.54.14-5.57,3.37-.14.57,1.08,1.7.25.23.31-.06,2.55-1.53.37.06.06.14.37.65c.31.85.4,1.67.2,2.46-.2.82-.71,1.44-1.56,1.98-.57.37-1.19.54-1.81.54-.51,0-1.02-.11-1.53-.37-1.16-.57-2.38-1.9-3.71-4.02-1.24-2.01-1.92-3.65-1.92-4.92-.03-1.27.48-2.21,1.53-2.89.59-.37,1.22-.54,1.78-.54.25,0,.48.03.68.06.85.23,1.58.65,2.23,1.39l.23.2.28-.08,2.46-2.09.08-.45-.2-.31c-.68-.74-1.53-1.3-2.57-1.7-.79-.34-1.67-.48-2.55-.48"/>
        <path class="cls-11" d="M660.76,605.52c-.42,0-.91-.11-1.36-.31-1.13-.54-2.38-1.78-3.76-3.71-1.41-2.04-2.21-3.65-2.35-4.95-.08-1.27.34-2.32,1.47-3.08.62-.42,1.27-.68,1.92-.68.48,0,.96.14,1.44.37,1.19.57,2.46,1.81,3.88,3.82,1.39,1.95,2.12,3.56,2.23,4.78v.08c.14,1.19-.34,2.21-1.47,2.97-.62.45-1.3.71-2.01.71M657.4,589.28h-.17c-1.5.03-2.94.54-4.3,1.5-1.39.99-2.38,2.15-2.89,3.54-.59,1.44-.71,2.97-.37,4.61.37,1.64,1.1,3.34,2.35,5.09,1.19,1.67,2.52,2.97,3.9,3.82,1.33.79,2.66,1.19,4.07,1.19h.34l.03-.06c1.47-.03,2.94-.59,4.33-1.56,1.41-.93,2.35-2.15,2.91-3.51.54-1.39.68-2.89.34-4.53-.34-1.64-1.1-3.28-2.29-5.01-1.24-1.73-2.52-2.97-3.99-3.88-1.36-.82-2.8-1.22-4.27-1.22"/>
        <path class="cls-11" d="M669.02,587.89c-.11,0-.2,0-.31.03-.57.08-1.08.25-1.53.59-.45.34-.79.82-.99,1.36-.25.51-.28,1.08-.17,1.7.08.59.31,1.16.71,1.64.42.48.91.82,1.41,1.1.45.23.91.34,1.39.34.11,0,.23,0,.34-.03.59-.08,1.1-.28,1.53-.59.48-.37.79-.82.99-1.36.23-.57.25-1.1.14-1.73-.11-.59-.34-1.1-.71-1.61-.42-.48-.88-.85-1.41-1.13-.42-.17-.91-.31-1.39-.31"/>
      </g>
      <polygon class="cls-11" points="667.08 580.66 666.86 581.03 667 581.37 667 581.31 668.56 583.27 669.18 583.27 672.8 580.27 673.05 580.18 673.25 580.35 683.3 592.43 683.86 592.57 686.58 590.31 686.58 589.72 676.48 577.61 676.53 577.24 680.04 574.33 680.15 573.73 678.54 571.81 677.86 571.72 667.08 580.66"/>
      <polygon class="cls-11" points="690.84 560.19 690.44 560.31 688.44 562.2 688.38 562.88 694.74 575.38 694.74 575.67 694.49 575.64 682.32 568.37 681.65 568.37 679.07 570.75 678.93 571.06 679.07 571.37 679.24 571.48 696.24 581.24 697.15 581.16 699.38 579.06 699.61 578.13 691.15 560.48 690.87 560.14 690.84 560.19"/>
      <polygon class="cls-11" points="692.14 558.56 692.2 558.59 692.28 559.19 705.77 572.34 706.2 572.54 706.54 572.34 715.17 563.51 715.17 562.89 713.36 561.11 712.73 561.11 706.91 567.05 706.74 567.14 706.48 567.02 703.43 564.11 703.43 563.66 707.08 559.95 707.08 559.38 705.21 557.6 704.59 557.6 700.99 561.28 700.4 561.22 697.6 558.48 697.6 557.88 703.03 552.28 703.03 551.55 701.3 549.82 700.71 549.76 692.14 558.56"/>
      <polygon class="cls-11" points="711.36 537.89 702.08 548.38 701.97 548.72 702.11 549.06 702.08 549.09 703.98 550.73 704.57 550.68 707.68 547.14 707.88 547.03 708.17 547.2 719.93 557.55 720.53 557.55 722.82 554.92 722.71 554.33 710.88 543.89 710.88 543.52 713.91 540.12 713.91 539.5 712.01 537.86 711.36 537.89"/>
      <g class="cls-8">
        <path class="cls-11" d="M722.47,524.34l-.37.17-1.73,2.15v.68l8.23,11.43.06.28h-.23l-13.13-5.29-.68.14-2.21,2.74-.08.34.17.31.2.08,18.3,7.02c.08.03.23.06.34.06.23,0,.42-.11.59-.34l1.9-2.38v-.93l-11.09-16.15-.34-.28.06-.03Z"/>
        <path class="cls-11" d="M732.49,524.11l-.34-.14-3.59-2.49-.2-.28.14-.31,1.73-2.43c.48-.71,1.02-1.13,1.7-1.27.17,0,.31-.03.45-.03.54,0,1.08.2,1.61.57.68.51,1.08,1.1,1.16,1.73v-.08c.06.65-.17,1.36-.74,2.12l-1.7,2.46-.23.17ZM733.2,512.88c-.45,0-.88.06-1.33.17-1.47.45-2.83,1.58-4.1,3.34l-4.39,6.22.2.57,15.45,10.86.37.14.37-.25,1.81-2.52.17-.48-.31-.42-6.11-4.24-.14-.17.06-.25,1.33-1.87.37-.34h.37l7.69,2.18.71-.17,2.04-2.89.06-.31-.2-.31-.06-.08-.23-.08-8.43-1.98-.25-.31c.25-.96.2-2.01-.2-3.03-.42-1.08-1.13-1.95-2.21-2.72-.99-.71-2.01-1.05-3.03-1.05"/>
        <path class="cls-11" d="M477.7,593.61l-39.63-22.8c-55.36-31.83-89.77-91.07-89.77-154.78v-195.29h258.8v195.29c0,63.65-34.4,122.95-89.77,154.78l-39.63,22.8ZM613.86,214.01h-272.32v202.02c0,66.06,35.7,127.59,93.19,160.58l42.97,24.7,42.97-24.7c57.49-32.99,93.19-94.49,93.19-160.58v-202.02Z"/>
        <path class="cls-11" d="M357.96,427.81c.08-6.93,5.43-12.45,12.25-12.45h69.96v134.66c0,3.42-1.36,6.62-3.76,8.97-45.49-28.86-74.63-77.77-78.39-131.18h-.06ZM519.02,559c-2.43-2.35-3.79-5.6-3.79-8.97v-134.66h69.93c6.79,0,12.16,5.52,12.22,12.45-3.73,53.38-32.93,102.33-78.36,131.18M370.21,340.74c-6.99,0-12.65-5.66-12.65-12.59v-98.2h69.99c6.96,0,12.62,5.63,12.62,12.56v98.22h-69.96ZM515.23,340.74v-98.22c0-6.93,5.66-12.56,12.62-12.56h69.99v98.17l-.03.03c0,6.93-5.66,12.59-12.65,12.59h-69.93ZM599.5,226.59h-243.61c-.96,0-1.7.76-1.7,1.7v187.73c0,61.56,33.24,118.93,86.82,149.68l35.82,20.6.85.23.82-.23,35.84-20.6c53.55-30.75,86.82-88.12,86.82-149.68v-187.73c0-.93-.74-1.7-1.67-1.7"/>
        <path class="cls-11" d="M245.51,509.58c-.34-.42-.68-.91-.99-1.36h1.87c-.25.48-.57.93-.88,1.36M771.14,511.5c-.51-.62-1.13-1.13-1.84-1.53l-2.97-1.75h10.5c-1.81,1.19-3.73,2.21-5.69,3.28M204.15,499.59l-1.78-.65h2.91l-1.13.65ZM243.64,504.88l-1.08-5.97h8.32c-.82,2.07-1.67,4.05-2.66,5.97h-4.58ZM717.05,499.31l.06-.4h.2l-.25.4ZM760.5,504.88l-4.53-2.6,9.34-3.37h22.89c-2.04,2.12-4.24,4.1-6.68,5.97h-21.02ZM477.54,632.75c50.89,0,100.91-13.21,144.82-38.25,42.52-24.27,78.53-59.1,104.16-100.71.4-.68,1.13-1.1,1.87-1.1l1.02.28,1.61.96-3.08,5.23c-.42.82-.14,1.87.62,2.29l.85.25c.59,0,1.13-.31,1.44-.85l3.06-5.26,3.28,1.87-1.27,2.18c-.45.79-.17,1.81.59,2.29l.85.2c.59,0,1.16-.25,1.44-.82l1.3-2.18,3.31,1.9-1.3,2.18c-.45.82-.2,1.81.62,2.29l.85.23c.57,0,1.13-.31,1.44-.85l1.27-2.18,3.28,1.87-1.3,2.18c-.48.82-.2,1.81.62,2.29l.85.25c.54,0,1.13-.31,1.44-.88l1.3-2.18,3.23,1.92-1.24,2.15c-.48.82-.23,1.81.57,2.26l.85.25c.59,0,1.16-.31,1.47-.82l1.27-2.18,3.31,1.87-3.08,5.26c-.48.82-.2,1.84.62,2.29l.85.23c.54,0,1.13-.31,1.44-.85l3.06-5.26,1.7.96c.68.4.91,1.02.99,1.33.11.37.14.93-.2,1.5h.25c-29.7,48.69-71.6,89.37-121.17,117.77-51.12,29.25-109.43,44.73-168.72,44.73s-117.6-15.47-168.72-44.73c-49.56-28.4-91.46-69.08-121.17-117.77-.34-.57-.28-1.13-.2-1.5.08-.34.34-.96,1.02-1.33l1.67-.96,3.08,5.26c.31.54.88.85,1.44.85l.85-.23c.82-.48,1.08-1.47.59-2.29l-3.06-5.26,3.28-1.87,1.24,2.18c.31.51.91.82,1.47.82l.85-.25c.79-.45,1.08-1.44.59-2.26l-1.27-2.15,3.28-1.92,1.27,2.18c.31.57.88.88,1.47.88l.79-.25c.82-.48,1.1-1.5.62-2.29l-1.24-2.18,3.23-1.87,1.3,2.18c.31.54.88.85,1.44.85l.85-.23c.82-.48,1.08-1.47.59-2.29l-1.27-2.18,3.31-1.9,1.27,2.18c.31.57.88.82,1.44.82l.85-.2c.82-.48,1.08-1.5.62-2.29l-1.3-2.18,3.28-1.87,3.06,5.26c.31.54.88.85,1.44.85l.85-.25c.82-.48,1.1-1.47.62-2.29l-3.06-5.23,1.58-.96,1.02-.28c.79,0,1.44.42,1.9,1.1,25.6,41.62,61.64,76.44,104.16,100.71,43.91,25.04,93.92,38.25,144.79,38.25M193.14,495.57l-16.49-5.97h39.55l1.02.57c.28.48.54.96.82,1.44l-6.9,3.99v-.03h-17.99ZM241.91,495.57l-1.02-5.97h12.79c-.45,2.04-.99,4.02-1.64,5.97h-10.13ZM717.73,495.57l1.05-5.97h4.78c-.48.42-.88.91-1.24,1.47-.91,1.5-1.87,3-2.86,4.5h-1.73ZM184.23,511.53c-11.4-5.97-20.45-14.48-25.29-23.88l40.46,14.63-13.3,7.69c-.74.37-1.33.93-1.87,1.56M774.56,495.57l21.9-7.92c-1.41,2.69-3.17,5.35-5.23,7.92h-16.66ZM240.27,486.21l-1.05-5.97h16.04c-.25,2.01-.51,4.05-.91,5.97h-14.09ZM719.37,486.21l1.05-5.97h17.71c-.82,2.07-1.75,4.05-2.66,5.97h-16.1ZM167.37,486.21l-6.96-2.49c5.91-2.49,12.82-3.73,20.14-3.73,7.89,0,16.27,1.44,24.41,4.39,1.53.59,3.08,1.24,4.53,1.84h-42.12ZM751.22,499.59l-13.86-7.98c.28-.48.57-.96.82-1.44,3.79-2.21,7.92-4.19,12.25-5.8,8.18-2.94,16.52-4.39,24.44-4.39,7.33,0,14.23,1.24,20.11,3.73h-.03l-43.74,15.87ZM208.39,475.88l-4.16-4.95h1.75c.79,1.64,1.58,3.28,2.4,4.95M238.63,476.9l-1.05-5.97h18.19c0,2.01-.08,3.99-.2,5.97h-16.95ZM721.04,476.9l1.05-5.97h19.18c-.54,2.01-1.16,4.02-1.87,5.97h-18.36ZM751.65,476.9l5.01-5.97h17.94c-2.15,1.87-4.33,3.62-6.62,5.18-1.84.17-3.68.45-5.52.79h-10.81ZM759.51,467.62l5.01-5.97h19.01c-.37.45-.74.96-1.16,1.44-1.36,1.56-2.72,3.06-4.19,4.53h-18.67ZM201.43,467.59l-5.04-5.97h5.49-.03c.85,2.01,1.73,3.99,2.63,5.97h-3.06ZM236.99,467.59l-1.02-5.97h19.35c.2,2.01.34,3.99.42,5.97h-18.76ZM722.62,467.59h.06l1.05-5.97h19.69l-.08.34c-.34,1.9-.74,3.79-1.22,5.63h-19.49ZM193.54,458.26l-5.01-6h9.53c.79,2.04,1.58,3.99,2.38,6h-6.9ZM235.38,458.26l-1.08-6h19.63c.14.76.28,1.53.42,2.23.25,1.24.42,2.52.59,3.76h-19.58ZM724.35,458.26l1.02-6h19.15c-.14,1.98-.37,3.96-.59,6h-19.58ZM767.32,458.26l5.04-6h17.51c-1.19,2.04-2.4,4.05-3.85,6h.03-18.73ZM185.7,448.92l-5.04-5.97h14.06c.68,1.98,1.41,3.99,2.15,5.97h-11.17ZM233.65,448.92l-1.02-5.97h18.9c.62,1.95,1.16,3.96,1.61,5.97h-19.49ZM725.99,448.92l1.05-5.97h17.68c.06,1.98.03,3.96,0,5.97h-18.73ZM775.21,448.92l5.01-5.97h14.17c-.76,2.01-1.67,3.99-2.72,5.97h.06-16.52ZM177.84,439.64l-5.04-5.97h17.94l-.03-.03c.48.37.96.82,1.39,1.27.48,1.56.99,3.11,1.5,4.72h-15.76ZM232.07,439.61l-1.08-5.97h17.06c.85,1.95,1.67,3.93,2.35,5.97h-18.33ZM727.6,439.61l1.05-5.97h15.28c.23,1.95.45,3.96.59,5.97h.03-16.95ZM783.05,439.61l5.06-5.97h9.08c-.42,1.98-.93,3.96-1.58,5.97h-12.56ZM169.97,430.28l-5.04-5.97h12.19c3.23,1.61,6.45,3.65,9.48,5.97h-16.63ZM230.4,430.28l-1.08-5.97h13.92c1.16,1.9,2.23,3.9,3.25,5.97h-16.1ZM729.3,430.28l1.02-5.97h11.77c.51,1.92.96,3.9,1.33,5.97h-14.12ZM173.03,463.09c-10.72-12.73-16.58-28.18-15.9-41.45l49.79,59.01-.51-.23c-6.25-2.26-12.7-3.68-18.98-4.3-5.15-3.54-10.07-7.98-14.37-13.04h-.03ZM790.91,430.28l7.33-8.63c.14,2.8,0,5.69-.45,8.63h-6.87ZM162.08,420.94l-1.7-2.01c2.89.4,5.83,1.02,8.71,2.01h.06-7.07ZM747.01,475.88c6.62-13.41,12.02-27.1,16.3-40.96,9.62-8.88,20.99-14.65,31.69-15.98l-47.98,56.95ZM228.73,420.94l-1.05-5.97h8.97c1.58,1.9,3.08,3.88,4.5,5.97h-12.42ZM732.01,414.97h6.82c.85,1.92,1.61,3.93,2.29,5.97h-10.16l1.05-5.97h-.03.03ZM227.09,411.63l-1.08-5.97h.96c2.32,1.78,4.58,3.76,6.68,5.97h-6.56ZM221.66,489.52c-4.5-8.2-7.86-17.57-9.62-27.55-3.73-21.22-.03-42.29,9.68-56.44l16.63,93.84c-1.84-2.74-3.59-5.46-5.29-8.26-1.41-2.23-3.76-3.48-6.2-3.48-1.22,0-2.4.31-3.54.91l-1.67.99ZM732.61,411.66l1.05-6.14c1.33,1.92,2.52,3.96,3.62,6.14h-4.67ZM709.86,509.63c-9.05-14.15-12.48-34.57-8.83-55.11v-.03c3.76-21.16,14.48-39.72,28.49-49.68l-18.25,102.86c-.45.59-.93,1.24-1.41,1.95M209.72,471.07c-11.03-23.2-18.64-47.87-22.75-73.24l.06-.08c.4,0,.85,0,1.3-.06h.37l.2-.06.25-.08h.06c1.19-.54,2.35-1.16,3.45-1.81.42,2.29.91,4.61,1.39,6.93.06.45.14.93.28,1.33l.06.2c.93,4.36,1.98,8.69,3.14,13.01,2.52,9.28,5.46,18.39,8.83,27.24-.08,6.03.42,12.16,1.5,18.33.54,2.83,1.13,5.54,1.87,8.29M745.71,470.73c.71-2.63,1.3-5.32,1.75-8.06,1.1-6.17,1.61-12.31,1.53-18.3,3.37-8.88,6.25-17.99,8.83-27.27,1.13-4.33,2.18-8.63,3.14-12.99l.06-.17c.14-.45.2-.93.28-1.39.51-2.32.99-4.61,1.39-6.9,1.13.59,2.29,1.24,3.42,1.81h.14l.25.06.17.06h.4c.4.06.85.06,1.3.08-4.07,25.32-11.66,49.9-22.66,73.07M772.04,393.59l6.62-6.54h14.8c-7.07,3.93-14.46,6.2-21.42,6.54M191.61,391.41l1.16-4.39h4.95c-1.98,1.61-4.02,3.08-6.11,4.39M179.31,383.66l-6-5.97h5.04c.48,2.04,1.08,4.05,1.73,5.97h-.76ZM193.71,383.66l1.61-5.97h11.46c-1.67,2.12-3.48,4.13-5.32,5.97h-7.75ZM767.83,390.36l-3.39-12.67h8.32c-1.16,4.55-2.8,8.85-4.87,12.67h-.06ZM782.03,383.66l6-5.97h18.28c-2.38,2.21-4.89,4.16-7.44,5.97h-16.83ZM791.4,374.35l6-5.97h17.29c-1.5,2.04-3.2,4.07-5.01,5.97h-18.28ZM169.91,374.32l-5.97-5.97h12.87c.2,2.01.48,4.02.82,5.97h-7.72ZM196.2,374.32l1.61-5.97h15.25c-1.19,2.07-2.43,4.07-3.79,5.97h-13.07ZM763.53,374.32l-1.64-5.97h12.14l.4-.06c-.2,2.04-.51,4.07-.91,6.03h-9.99ZM160.58,365.01l-6-5.97h17.94c1.44,1.67,2.74,3.37,3.93,5.12l.06.85h-15.93ZM198.71,365.01l1.61-5.97h17.26c-.85,2.04-1.73,4.02-2.72,5.97h-16.15ZM761.01,365.01l-1.61-5.97h15.39c.06,2.04,0,4.07-.11,6.11l-.65-.14h-13.01ZM800.76,365.01l6.03-5.97h13.69c-1.02,2.01-2.15,4.02-3.42,5.97h-16.3ZM151.19,355.73v-.03l-6-6.03h17.74c1.95,1.58,3.85,3.25,5.69,5.06l.91.99h-18.33ZM176.59,354.49l-1.27-4.81h1.78-.03c-.23,1.64-.4,3.23-.48,4.81M201.26,355.7l1.61-6.03h17.94c-.59,2.07-1.24,4.05-1.9,6.03h-17.65ZM758.49,355.7l-1.61-6.03h17.2c.28,2.07.48,3.99.54,6.03h-16.13ZM783.95,351.66l.51-1.98h1.53c-.68.65-1.36,1.3-2.04,1.98M810.15,355.7l5.97-6.03h8.06c-.59,2.04-1.3,3.99-2.18,6.03h-11.85ZM141.85,346.34l-6-5.97h11.15c3.82,1.5,7.67,3.51,11.37,5.97h-16.52ZM174.36,346.34h.03l-1.61-5.97h5.97c-.48,1.98-.88,3.99-1.22,5.97h-3.17ZM203.75,346.34l1.64-5.97h17.46c-.34,1.98-.68,3.99-1.16,5.97h-17.94ZM756.03,346.34l-1.61-5.97h17.88c.54,1.98.93,3.99,1.3,5.97h-17.57ZM785.34,346.34l1.61-5.97h11.17l-.28.57c-2.72,1.58-5.38,3.39-7.92,5.4h-4.58ZM819.46,346.34l6.31-6.28h.06c-.11,2.07-.42,4.19-.88,6.28h-5.49ZM147.31,375.93c-10.61-10.55-17.14-23.93-17.71-35.9l53.78,53.53c-12.05-.62-25.46-7.07-36.04-17.62h-.03ZM775.02,384.73c2.32-6.28,3.56-13.24,3.9-20.57,2.29-3.28,4.89-6.48,7.89-9.42,10.61-10.58,23.99-17.03,36.01-17.6l-47.81,47.58ZM171.89,337.03l-1.64-5.97h11.23c-.68,1.95-1.33,3.96-1.87,5.97h-7.72ZM206.27,337.03l1.64-5.97h15.96c-.08,1.98-.25,3.96-.54,5.97h-17.06ZM753.49,337.03l-1.61-5.97h17.51c.74,1.95,1.39,3.96,2.01,5.97h-17.91ZM787.86,337.03l1.61-5.97h13.04c-.76,2.04-1.61,4.05-2.6,5.97h-12.05ZM790.4,327.73l1.58-5.97h13.35c-.2.99-.45,1.98-.68,2.89-.28,1.08-.62,2.07-.96,3.08h-13.3ZM169.38,327.73l-1.64-6h13.21c.37,2.04.68,3.99.88,6h-12.45ZM208.76,327.73l1.64-6h13.38c.11,1.92.2,3.99.2,6h-15.22ZM750.94,327.73h.06l-1.61-6h15.9c.99,1.92,1.95,3.93,2.8,6h-17.14ZM166.89,318.36l-1.64-5.97h13.24c.51,1.47.99,2.97,1.41,4.47.11.51.23.99.37,1.5h-13.38ZM211.25,318.36l1.64-5.97h9.56c.4,1.95.74,3.93.99,5.97h-12.19ZM748.45,318.36l-1.58-5.97h12.67c1.33,1.92,2.66,3.9,3.9,5.97h-14.99ZM792.89,318.36l1.58-5.97h12.25c-.17,1.98-.4,3.96-.74,5.97h-13.1ZM164.34,309.05l-1.61-5.97h11.74c.99,1.92,1.92,3.93,2.8,5.97h-12.93ZM213.79,309.05l1.61-5.97h4.27c.74,1.92,1.41,3.93,1.98,5.97h-7.86ZM745.96,309.05l-1.64-5.97h7.19c1.9,1.81,3.71,3.82,5.49,5.97h-11.03ZM795.41,309.05l1.61-5.97h9.79c.14,1.95.17,3.96.14,5.97h-11.54ZM216.34,299.72l.65-2.43c.42.79.85,1.61,1.24,2.43h-1.9ZM734.33,348.8c-5.04-18.76-3.45-37.97,4.1-51.54l25.32,94.15c-13.32-8.01-24.36-23.88-29.42-42.63v.03ZM187.54,390.36c-7.53-13.58-9.11-32.82-4.05-51.6,5.06-18.76,16.13-34.66,29.42-42.66l-25.38,94.26ZM743.44,299.72l-.99-3.62c1.75,1.08,3.51,2.29,5.18,3.62h-4.19ZM161.82,299.72l-1.58-5.97h8.18c1.47,1.84,2.89,3.88,4.16,5.97h-10.75ZM797.9,299.72l1.61-5.97h5.74c.51,1.9.91,3.9,1.19,5.97h-8.54ZM171.41,351.66c-4.27-4.22-9-7.84-13.92-10.72-2.86-4.92-5.21-10.41-6.82-16.3h.03c-3.85-14.43-2.8-29.2,2.72-39.86l17.99,66.88ZM800.42,290.41l1.53-5.63c.91,1.75,1.7,3.65,2.38,5.63h-3.9ZM778.83,354.49c-.42-5.54-1.33-11.17-2.83-16.78-.76-2.77-1.61-5.49-2.6-8.12.31-4.16.99-8.46,2.12-12.73,3.88-14.43,12.25-26.71,22.38-33.18l-19.07,70.81ZM159.28,290.41l-1.81-6.76c2.83,1.84,5.49,4.07,7.98,6.76h.06-6.22ZM185.64,321.25c2.07-16.97,5.69-33.75,10.72-50.13h.03l.23.08c-3.76,14.46-6.28,29.17-7.67,44.02-1.19,1.95-2.26,3.96-3.31,6.03M769.72,321.25c-.99-2.09-2.12-4.1-3.28-6.03-1.39-14.82-3.93-29.56-7.67-44.02h.03l.2-.08c5.04,16.38,8.66,33.16,10.72,50.13M211.56,269.14c-3.9,0-7.64-.37-11.17-1.22l3.73-2.15h27.84c-6.9,2.26-13.86,3.37-20.4,3.37M209.97,262.43l10.38-5.97h30.86c-1.39.93-2.83,1.84-4.3,2.69-2.09,1.19-4.22,2.29-6.37,3.28h-30.58ZM757.11,264.3l-13.66-7.84h10.44c1.3,2.57,2.4,5.18,3.23,7.84M762.37,263.54v-7.07h4.98c-1.41,2.63-3.08,5.01-4.98,7.07M197.21,253.1v-5.97h5.09c-1.41,1.95-2.63,3.96-3.76,5.97h-1.33ZM226.18,253.1l10.38-5.97h26.2c-2.12,2.09-4.44,4.1-6.85,5.97h-29.73ZM737.62,253.1l-10.38-5.97h20.65c1.53,1.95,2.89,3.93,4.13,5.97h-14.4ZM762.37,253.1v-5.97h8.91c-.65,2.09-1.41,4.07-2.29,5.97h-6.62ZM197.21,237.79h.06-.06ZM197.27,237.79h10.95c-.14.85-.28,1.7-.42,2.57-1.05,1.1-2.01,2.26-2.94,3.39h-7.58v-5.97ZM242.39,243.76l10.38-5.97h17.82c-1.39,2.07-3,4.02-4.7,5.97h.03-23.54ZM721.4,243.76l-10.38-5.97h28.06c2.18,1.92,4.16,3.9,6,5.97h-23.68ZM762.34,243.76v-5.97h11.03c-.31,2.07-.68,4.02-1.16,5.97h-9.87ZM197.21,234.45v-5.97h11.57v.71c0,1.78-.11,3.51-.23,5.26h-11.34ZM214.95,233.46l2.91-4.98h3.68-.03c-2.29,1.56-4.5,3.2-6.56,4.98M258.66,234.45l10.41-5.97h6.9c-.88,2.01-1.92,3.99-3.11,5.97h-14.2ZM705.17,234.45l-10.41-5.97h31.26l.2.11c3.11,1.75,6.03,3.73,8.77,5.86h-29.82ZM762.34,234.45v-5.97h11.63v.71c0,1.78-.06,3.51-.23,5.26h-11.4ZM274.87,225.15l2.94-1.73c-.17.59-.37,1.13-.54,1.73h-2.4ZM743.75,269.14c-11.37,0-23.88-3.39-35.31-9.96v-.03c-15.36-8.83-26.79-22.18-30.86-35.73l77.4,44.5c-3.56.85-7.36,1.22-11.23,1.22M197.21,225.15v-5.97h10.78c.34,1.92.54,3.96.65,5.97h-11.43ZM219.79,225.15l3.48-5.97h12.65c-.62.74-1.22,1.5-1.87,2.21-2.38,1.05-4.7,2.21-6.96,3.59l-.28.17h-7.02ZM742.4,228.4l-5.4-9.22h6.17c-.45,3-.74,6.08-.76,9.22M762.37,225.15v-5.97h10.81c.34,1.92.54,3.96.68,5.97h-11.49ZM198.29,264.3c4.07-13.49,15.56-26.88,30.89-35.7,11.43-6.59,23.96-10.04,35.33-10.04,3.9,0,7.67.4,11.2,1.22l-77.43,44.53ZM688.93,225.15l-9.28-5.38c3.54-.82,7.3-1.22,11.17-1.22h.06c9.14,0,18.98,2.29,28.43,6.59h-30.38ZM225.17,215.81l3.48-5.97h13.35c-.37.65-.71,1.33-1.08,1.95l.03-.03c-.82,1.44-1.7,2.77-2.57,4.05h-13.21ZM197.21,215.78v-5.97h8.46c.65,1.92,1.22,3.93,1.7,5.97h-10.16ZM735.01,215.78l-3.48-5.97h11.8c.37,1.13.71,2.18.96,3.31l.03-.03c-.2.85-.37,1.81-.57,2.69h-8.74ZM762.34,215.78v-5.97h8.49c.71,1.92,1.22,3.93,1.67,5.97h-10.16ZM197.21,206.47v-5.97h4.13c1.13,1.87,2.12,3.85,3.03,5.97h-7.16ZM230.6,206.47l3.48-5.97h12c-.68,2.01-1.5,3.99-2.38,5.97h-13.1ZM729.67,206.47l-3.48-5.97h13.27c1.02,1.98,1.9,3.96,2.72,5.97h-12.5ZM762.37,206.47v-5.97h4.16c1.1,1.87,2.12,3.85,3.03,5.97h-7.19ZM193,263.54c-7.24-8.09-11.6-20.82-11.6-34.34s4.36-26.23,11.6-34.37v68.72ZM197.21,197.17v-2.35c.65.71,1.27,1.53,1.9,2.35h-1.9ZM762.37,197.17v-2.35c.71.71,1.3,1.53,1.9,2.35h-1.9ZM758.13,255.56c-2.6-5.32-6.2-10.47-10.55-15.25-.65-3.56-1.02-7.33-1.02-11.15,0-13.55,4.33-26.23,11.57-34.4v60.8ZM236.03,197.17l3.42-5.97h8.88c-.31,1.98-.76,3.96-1.3,5.97h-11ZM724.23,197.17l-3.48-5.97h12.73c1.47,1.87,2.83,3.88,4.1,5.97h.03-13.38ZM241.43,187.8l3.45-5.97h3.96c.11,1.95.06,3.93-.11,5.97h-7.3ZM718.8,187.8l-3.48-5.97h9.14c2.21,1.78,4.27,3.79,6.22,5.97h-11.88ZM246.84,178.49l1.3-2.29h.03c.14.76.28,1.53.37,2.29h-1.7ZM740.42,233.46c-3.73-3.11-7.75-6-12.16-8.46-2.26-1.33-4.58-2.52-6.96-3.59-2.52-2.94-4.89-6.14-6.9-9.65-6.79-11.71-9.39-24.84-7.21-35.56h.03l33.21,57.26ZM217.19,198.13c6.82-11.71,16.95-20.54,27.33-24.02l-31.49,54.29c-.08-5.26-.76-10.47-1.98-15.31,1.3-5.09,3.34-10.13,6.14-15.02v.06ZM713.43,178.49l-2.57-4.39c3,1.02,6.05,2.52,8.97,4.39h.06-6.45ZM248.84,168.68c-.11,0-.23,0-.34.03-13.1,2.29-26.51,12.7-34.91,27.22-1.95,3.28-3.48,6.73-4.78,10.16-2.86-7.3-7.04-13.55-12.25-17.94l-.03-.03-.08-.06-.37-.25c-.25-.11-.57-.17-.88-.17-.51,0-.99.14-1.36.48-10.21,8.52-16.58,24.19-16.58,40.99s6.17,32,16.13,40.54c-.17.57-.34,1.13-.51,1.67l-.2-.42c-1.24-2.15-3.25-3.65-5.63-4.3-.79-.2-1.61-.31-2.4-.31-1.58,0-3.2.4-4.64,1.22-2.15,1.27-3.68,3.25-4.33,5.63-1.3,4.89,1.64,10.01,6.56,11.29.82.23,1.58.37,2.4.37,1.61,0,3.23-.42,4.61-1.27l.2-.11c-2.57,10.01-4.58,20.14-6.05,30.3-5.01-16.58-15.67-30.33-28.18-36.15h-.06l-.17-.03-.34-.14h-.34c-.68,0-1.33.31-1.73.88-8.29,11.74-10.52,29.93-5.8,47.47,1.08,4.16,2.63,8.12,4.36,11.85-6.82-3.06-13.81-4.7-20.4-4.7-1.1,0-2.15.03-3.23.14h-.06l-.37.08h-.17c-.79.28-1.33.96-1.36,1.78-1.3,14.29,5.88,31.15,18.81,43.96,11.46,11.4,26.08,18.33,39.27,18.87.11.62.23,1.27.31,1.9-1.67-1.22-3.71-1.87-5.91-1.87-5.74,0-10.47,4.64-10.47,10.41s4.72,10.44,10.47,10.44c3.59,0,6.82-1.84,8.69-4.64,1.02,4.58,2.15,9.17,3.37,13.72-10.78-8.35-23.03-13.27-34.32-13.27h-.08l-.4.06h-.17c-.79.2-1.39.91-1.53,1.64-2.77,15.42,3.48,34.43,16.27,49.65,3.14,3.71,6.62,7.04,10.27,10.04-9.7.08-18.76,2.21-26,6.34l-.03.03-.2.14-.25.17c-.54.57-.74,1.44-.48,2.18,4.41,12.11,15.31,23.31,29.45,30.67-.17,1.47.11,3,.96,4.41,56.84,93.19,157.15,157.18,272.92,164.25l-25.97,14.91h28.6l18.64-10.72,18.62,10.72h28.6l-25.97-14.91c115.76-7.07,216.08-71.07,272.92-164.25.88-1.41,1.13-2.94.96-4.41,14.17-7.36,25.07-18.56,29.48-30.67.25-.76.03-1.61-.51-2.18l-.23-.17-.23-.14h-.03c-7.27-4.16-16.3-6.25-26-6.31,3.65-3,7.13-6.31,10.27-10.07,12.79-15.22,19.04-34.17,16.27-49.65-.11-.76-.74-1.41-1.53-1.61h-.17l-.37-.08h-.08c-11.29,0-23.54,4.89-34.32,13.27,1.24-4.53,2.35-9.11,3.39-13.69,1.87,2.77,5.06,4.61,8.66,4.61,5.77,0,10.5-4.67,10.5-10.44s-4.7-10.38-10.5-10.38c-2.18,0-4.24.68-5.91,1.84.08-.65.17-1.3.28-1.9,13.24-.51,27.84-7.47,39.3-18.84l-.11.03c12.93-12.87,20.11-29.68,18.81-43.99-.06-.82-.57-1.5-1.36-1.75h-.17l-.37-.11h-.08c-1.07-.08-2.18-.14-3.28-.14-6.56,0-13.52,1.64-20.31,4.72,1.75-3.79,3.25-7.75,4.36-11.88,4.7-17.54,2.49-35.7-5.8-47.44-.37-.59-1.05-.91-1.73-.91-.11,0-.25,0-.37.03l-.34.08-.17.06h-.03c-12.5,5.86-23.17,19.58-28.18,36.13-1.47-10.16-3.51-20.26-6.08-30.24l.17.08c1.44.85,3,1.27,4.64,1.27.82,0,1.61-.11,2.43-.34,4.92-1.3,7.89-6.39,6.59-11.29-.65-2.4-2.18-4.38-4.33-5.6-1.44-.85-3.06-1.27-4.67-1.27-.82,0-1.58.11-2.38.31-2.38.65-4.41,2.18-5.63,4.3l-.2.45c-.17-.54-.34-1.13-.51-1.67,9.93-8.57,16.13-24.05,16.13-40.57s-6.34-32.48-16.58-40.96c-.37-.34-.88-.48-1.36-.48-.31,0-.62.03-.91.17l-.34.23-.08.08-.03.03c-5.23,4.36-9.42,10.61-12.25,17.91-1.3-3.45-2.86-6.85-4.78-10.13-8.43-14.54-21.81-24.95-34.91-27.22-.14-.06-.23-.06-.34-.06-.71,0-1.36.34-1.75.91l-.08.17-.17.31v.03c-4.58,12.45-2.15,29.2,6.25,43.65.88,1.56,1.84,3.06,2.86,4.53-7.72-2.6-15.5-3.93-22.86-3.93-6.11,0-11.94.91-17.17,2.83-.79.23-1.33.96-1.39,1.78v.54c2.86,16.21,15.93,32.76,34.03,43.17,12.08,6.93,25.35,10.58,37.51,10.58,4.02,0,7.95-.42,11.63-1.27.28,1.08.54,2.09.82,3.2l-.79-.54c-1.39-.82-3-1.24-4.55-1.24-.82,0-1.64.11-2.46.31-2.4.65-4.38,2.18-5.63,4.3-1.24,2.15-1.58,4.64-.93,7.02.65,2.4,2.18,4.39,4.33,5.6,1.41.82,3.03,1.24,4.61,1.24.82,0,1.64-.11,2.43-.31,2.38-.65,4.38-2.15,5.63-4.3,1.44,7.21,2.55,14.48,3.39,21.78-6.31-8.52-13.95-15.16-22.26-19.01-.28-.14-.59-.2-.88-.2-.48,0-1.02.14-1.39.48l-.08.11-.28.31v.03c-10.27,14.6-13.01,37.17-7.16,59.01,5.06,18.84,15.98,34.97,29.31,43.88-.08.4-.17.88-.25,1.33-1.36-1.84-3.34-3.25-5.71-3.9-.91-.23-1.81-.37-2.72-.37-4.58,0-8.85,3.08-10.1,7.72-.71,2.69-.37,5.49,1.05,7.89,1.39,2.43,3.65,4.13,6.37,4.89.93.23,1.81.37,2.69.37,1.81,0,3.59-.51,5.12-1.36-2.09,8.6-4.64,17.12-7.55,25.52-1.56-14.4-6.56-27.39-14.46-36.72-.4-.45-1.02-.74-1.61-.74-.2,0-.37.03-.54.06l-.11.08-.4.14h-.03c-16.95,9.7-30.13,30.84-34.43,55.17-3.96,22.21.08,44.36,10.35,59.41-52.28,69.45-135.62,114.43-229.58,114.43s-177.27-44.98-229.55-114.43c10.3-15.05,14.29-37.2,10.33-59.41-4.3-24.33-17.46-45.46-34.4-55.17h-.06l-.37-.14-.14-.08c-.17-.03-.34-.06-.51-.06-.62,0-1.22.28-1.64.74-7.86,9.31-12.84,22.32-14.43,36.72-2.91-8.4-5.46-16.89-7.58-25.52,1.53.88,3.31,1.36,5.12,1.36.93,0,1.78-.08,2.72-.37,2.69-.71,4.92-2.46,6.37-4.89,1.36-2.4,1.75-5.21,1.02-7.89-1.22-4.64-5.46-7.72-10.07-7.72-.91,0-1.81.14-2.72.37-2.4.65-4.33,2.07-5.74,3.9-.08-.45-.17-.93-.23-1.33,13.3-8.94,24.22-25.04,29.28-43.88,5.86-21.84,3.14-44.42-7.13-59.01v-.06l-.28-.31-.11-.11c-.37-.34-.88-.48-1.36-.48-.28,0-.57.03-.85.17-8.32,3.82-15.98,10.52-22.29,19.04.88-7.3,1.98-14.57,3.42-21.78,1.22,2.15,3.23,3.65,5.63,4.3.79.17,1.61.28,2.43.28,1.58,0,3.2-.37,4.58-1.22,2.15-1.22,3.71-3.2,4.36-5.6.59-2.38.28-4.87-.93-7.02-1.27-2.15-3.25-3.65-5.63-4.3-.79-.2-1.61-.31-2.38-.31-1.64,0-3.23.4-4.64,1.22l-.76.57c.28-1.1.54-2.12.82-3.23,3.68.88,7.61,1.3,11.63,1.3,12.16,0,25.43-3.65,37.51-10.58,18.11-10.44,31.15-26.99,34-43.17v-.57c-.06-.82-.57-1.53-1.36-1.75-5.23-1.92-11.06-2.83-17.17-2.83-7.36,0-15.14,1.33-22.86,3.9,1.02-1.41,1.98-2.97,2.89-4.5,8.4-14.48,10.78-31.2,6.22-43.65v-.08l-.17-.31-.08-.17c-.42-.54-1.08-.88-1.75-.88"/>
        <path class="cls-11" d="M610.88.09h-.03.03ZM348.26,162.76h.03v-6.17h110.39c2.66,2.69,5.94,4.81,9.53,6.17h-119.95ZM487.17,162.76c3.62-1.36,6.85-3.42,9.51-6.17h110.39v6.17h.03-119.92ZM348.29,127.57v-5.18h107.7c-3.2,4.36-5.06,9.7-5.06,15.47s1.84,11.06,4.95,15.39h-107.59v-5.23h10.64c.96,0,1.73-.74,1.73-1.67s-.76-1.67-1.73-1.67h-10.64v-5.21h5.91c.96,0,1.67-.74,1.67-1.67s-.71-1.67-1.67-1.67h-5.91v-5.21h10.64c.96,0,1.73-.74,1.73-1.67s-.76-1.7-1.73-1.7h-10.64ZM499.5,153.25c3.11-4.36,5.01-9.7,5.01-15.39s-1.92-11.12-5.09-15.47h107.67v5.18h-10.64c-.93,0-1.67.74-1.67,1.7s.74,1.67,1.67,1.67h10.64v5.21h-5.86c-.96,0-1.73.74-1.73,1.67s.76,1.67,1.73,1.67h5.86v5.21h-10.64c-.93,0-1.67.74-1.67,1.67s.74,1.67,1.67,1.67h10.64v5.23h-107.59ZM477.66,161.15c-.96,0-2.01-.08-3.03-.2-10.41-1.33-18.84-9.68-20.11-20.06-1.84-14.17,9.28-26.34,23.23-26.34.99,0,1.98.08,3,.23,10.41,1.3,18.84,9.68,20.17,20.06,1.81,14.17-9.31,26.31-23.25,26.31M496.59,119.02c-2.74-2.72-6.05-4.81-9.76-6.14h120.26v6.14h-110.5ZM348.29,118.99v-6.14h120.32c-3.73,1.33-7.07,3.45-9.79,6.14h-110.53ZM510.93,72c12.14,0,24.24-5.86,31.26-17.48v-.03c.74-1.19,1.36-2.4,1.95-3.62.57,1.22,1.27,2.43,1.98,3.62v.03c6.96,11.6,19.12,17.48,31.29,17.48,11.34,0,22.69-5.12,29.76-15.33v9.87h-.08c-8.01,7.98-18.84,11.85-29.68,11.85-12.59,0-25.18-5.23-33.33-15.47-8.32,10.3-20.77,15.47-33.21,15.47s-24.87-5.18-33.21-15.47c-8.29,10.3-20.74,15.47-33.18,15.47s-24.87-5.18-33.18-15.47c-8.15,10.18-20.71,15.47-33.33,15.47-10.84,0-21.7-3.88-29.7-11.85v-9.87c6.65,9.28,17.54,15.39,29.82,15.39h.2c12.53,0,24.61-6.9,31.06-17.54v-.03c.71-1.19,1.36-2.4,1.95-3.62.57,1.22,1.24,2.43,1.95,3.62v.03c7.04,11.63,19.15,17.48,31.26,17.48s24.24-5.86,31.26-17.48v-.03c.71-1.19,1.36-2.4,1.95-3.62.57,1.22,1.24,2.43,1.98,3.62v.03c6.99,11.63,19.12,17.48,31.23,17.48M477.75,0c-6.59,0-11.91,5.32-11.91,11.88,0,4.44,2.35,8.29,5.94,10.33.88.51,1.19,1.64.68,2.52-.34.59-.96.91-1.61.91-.28,0-.62-.08-.91-.25-1.9-1.05-3.93-1.58-5.97-1.58-4.16,0-8.23,2.21-10.41,6.11-3.08,5.43-1.16,12.67,4.19,15.93,1.95,1.16,4.1,1.73,6.22,1.73,3.99,0,7.92-2.01,10.16-5.63l.48-.23.59.57v.11c-3.08,14-15.62,24.53-30.61,24.53s-27.55-10.52-30.61-24.53v-.08l.57-.57.51.23c2.26,3.62,6.17,5.63,10.18,5.63,2.12,0,4.22-.57,6.17-1.73,5.4-3.25,7.27-10.47,4.24-15.93-2.21-3.9-6.25-6.11-10.44-6.11-2.04,0-4.07.51-5.97,1.58-.28.2-.59.25-.93.25-.62,0-1.27-.31-1.61-.88-.48-.91-.2-2.04.68-2.55,3.54-1.98,5.8-5.63,6-9.87.23-6.45-5.04-12.08-11.54-12.33h-.42c-6.56,0-11.91,5.32-11.91,11.88,0,4.44,2.38,8.29,5.94,10.33.91.51,1.22,1.64.68,2.55-.34.57-.93.88-1.58.88-.31,0-.62-.06-.93-.25-1.87-1.08-3.93-1.58-5.97-1.58-4.16,0-8.23,2.21-10.41,6.11-3.06,5.46-1.16,12.67,4.24,15.93,1.9,1.16,4.05,1.73,6.17,1.73,3.99,0,7.92-2.01,10.18-5.63l.45-.23.59.57v.11c-3.08,14.03-15.59,24.5-30.61,24.5-13.95,0-25.72-9.11-29.82-21.67-.14-.4-.23-.85-.37-1.3-.14-.48-.28-.88-.4-1.36l-.03-.17v-.11l.59-.57.48.23c2.23,3.62,6.14,5.63,10.16,5.63,2.12,0,4.24-.57,6.17-1.73,5.4-3.25,7.27-10.47,4.24-15.93-2.18-3.9-6.25-6.11-10.44-6.11-2.01,0-4.07.51-5.94,1.58-.31.2-.62.25-.93.25-.65,0-1.27-.31-1.64-.88-.45-.91-.2-2.04.71-2.55,3.65-2.07,6.03-6,5.97-10.47-.25-6.54-5.91-11.68-12.5-11.68h-2.97v169.4h272.29V.09h-2.94c-6.62,0-12.25,5.15-12.36,11.68-.06,4.5,2.32,8.43,5.94,10.47.91.51,1.19,1.64.68,2.55-.34.57-.93.88-1.58.88-.31,0-.65-.06-.93-.25-1.87-1.08-3.93-1.58-5.97-1.58-4.16,0-8.23,2.21-10.41,6.11-3.06,5.46-1.16,12.67,4.22,15.93,1.92,1.16,4.07,1.73,6.2,1.73,3.99,0,7.89-2.01,10.16-5.63l.45-.23.59.57v.11l-.06.17c-.08.48-.23.93-.37,1.36-.14.45-.23.91-.37,1.3-4.02,12.56-15.87,21.67-29.82,21.67-14.99,0-27.53-10.52-30.61-24.53v-.08l.59-.57.51.23c2.23,3.62,6.14,5.63,10.16,5.63,2.12,0,4.22-.57,6.17-1.73,5.4-3.25,7.27-10.47,4.22-15.93-2.15-3.9-6.22-6.11-10.41-6.11-2.01,0-4.07.51-5.97,1.58-.28.2-.59.25-.93.25-.62,0-1.24-.31-1.61-.88-.51-.91-.2-2.04.71-2.55,3.48-1.98,5.8-5.63,5.97-9.87.23-6.45-5.04-12.08-11.54-12.33h-.4c-6.59,0-11.91,5.32-11.91,11.88,0,4.44,2.35,8.29,5.91,10.33.91.51,1.22,1.64.71,2.55-.34.57-.96.88-1.61.88-.31,0-.62-.06-.93-.25-1.87-1.08-3.9-1.58-5.97-1.58-4.16,0-8.2,2.21-10.41,6.11-3.06,5.46-1.16,12.67,4.22,15.93,1.95,1.16,4.1,1.73,6.2,1.73,3.99,0,7.92-2.01,10.18-5.63l.48-.23.57.57v.11c-3.06,14.03-15.59,24.5-30.61,24.5s-27.53-10.52-30.61-24.53v-.11l.59-.57.51.23c2.26,3.62,6.14,5.63,10.16,5.63,2.12,0,4.24-.57,6.2-1.73,5.38-3.25,7.27-10.5,4.19-15.93-2.15-3.9-6.22-6.11-10.41-6.11-2.01,0-4.05.54-5.97,1.58-.25.17-.57.25-.88.25-.65,0-1.3-.31-1.64-.91-.48-.88-.2-2.01.68-2.52,3.51-1.98,5.8-5.63,5.97-9.9.25-6.45-5.01-12.08-11.54-12.31h-.4"/>
      </g>
    </g>
  </g>
</svg>