<?xml version="1.0" encoding="UTF-8"?>
<svg id="Livello_2" data-name="Livello 2" xmlns="http://www.w3.org/2000/svg" xmlns:xlink="http://www.w3.org/1999/xlink" viewBox="0 0 523.73 622.01">
  <defs>
    <style>
      .cls-1 {
        fill: none;
      }

      .cls-2 {
        clip-path: url(#clippath-1);
      }

      .cls-3 {
        fill: #fff;
      }

      .cls-4 {
        clip-path: url(#clippath);
      }
    </style>
    <clipPath id="clippath">
      <rect class="cls-1" width="523.73" height="622.01"/>
    </clipPath>
    <clipPath id="clippath-1">
      <rect class="cls-1" width="523.73" height="622.01"/>
    </clipPath>
  </defs>
  <g id="Livello_1-2" data-name="Livello 1">
    <g>
      <g class="cls-4">
        <path class="cls-3" d="M34.92,34.92h453.86v106.15c-37.54,14.69-66.5,17.62-97.46,18.5-31.44.89-78.91-3.07-113.16-13.42-34.27-10.37-79.94-20.86-128.52-21.1-41.04-.22-98.14,11.23-114.72,14.81V34.92ZM34.92,488.74v-226.75l439.37,226.75H34.92ZM523.7,0H0v523.63h523.7V0Z"/>
      </g>
      <rect class="cls-3" y="534.74" width="523.73" height="12.48"/>
      <g class="cls-2">
        <path class="cls-3" d="M514.43,609.55c.94.72,2.16,1.08,3.72,1.08,1.94,0,3.34-.62,4.25-1.85.89-1.25,1.32-3.22,1.32-5.9v-2.23h-2.54c0,.29,0,.65.02,1.1,0,.46.02.77.02.98,0,1.39-.1,2.38-.26,2.93-.19.58-.53.86-.94.86-.36,0-.62-.1-.77-.31-.12-.22-.24-.65-.24-1.34v-19.01c0-3.58-.84-6.29-2.52-8.09-1.66-1.78-4.2-2.66-7.61-2.66-3.05,0-5.54.84-7.49,2.54-1.92,1.68-2.88,3.82-2.88,6.43,0,1.51.41,2.69,1.22,3.55s1.9,1.3,3.31,1.3c1.13,0,2.06-.34,2.78-1.01.7-.62,1.06-1.49,1.06-2.57,0-1.15-.29-2.04-.82-2.64-.53-.62-1.3-.91-2.3-.91-.34,0-.58,0-.77.02l-.53.07c.36-.94.96-1.73,1.8-2.28.84-.5,1.85-.82,3-.82,1.56,0,2.81.5,3.74,1.51.91,1.01,1.34,2.35,1.34,4.06,0,1.39-.36,2.59-1.1,3.62-.77,1.06-2.09,2.09-3.91,3.1-.38.24-.98.53-1.85.94-2.35,1.18-4.1,2.28-5.28,3.31-.84.77-1.46,1.75-1.9,2.88-.41,1.1-.62,2.4-.62,3.86,0,2.64.65,4.73,1.99,6.26,1.32,1.51,3.12,2.3,5.38,2.3,1.61,0,3-.36,4.13-1.06,1.18-.72,2.23-1.82,3.17-3.36.46,1.51,1.13,2.62,2.09,3.34M512.06,597.74c0,2.47-.31,4.3-.96,5.45-.62,1.13-1.66,1.7-3.05,1.7-.94,0-1.75-.34-2.42-1.03-.65-.67-.98-1.51-.98-2.5,0-1.85,1.34-3.94,4.08-6.22,1.49-1.2,2.62-2.26,3.36-3.07v5.64l-.02.02ZM480.06,588.41c0-2.59.34-4.56,1.08-5.78.72-1.25,1.82-1.87,3.31-1.87.89,0,1.54.29,1.97.91.46.62.7,1.54.7,2.74v18.53c0,1.2-.19,1.97-.53,2.33-.36.34-1.1.5-2.18.5v3.91h12.74v-3.91c-1.27,0-2.11-.14-2.47-.48-.38-.34-.58-1.1-.58-2.35v-17.59c0-3.62-.53-6.24-1.56-7.85-1.06-1.58-2.76-2.4-5.16-2.4-1.56,0-2.93.38-4.18,1.22-1.25.82-2.4,2.09-3.48,3.82v-4.08h-9.7v3.96c1.27,0,2.06.14,2.45.46.36.34.53,1.08.53,2.3v20.14c0,1.22-.17,1.99-.55,2.33-.36.34-1.18.48-2.42.48v3.91h12.74v-3.91c-1.13-.05-1.87-.19-2.21-.53-.31-.31-.48-1.08-.48-2.28v-14.52l-.02.02ZM444.45,600.58c-.74,1.15-1.13,2.5-1.13,3.98s.36,2.62,1.03,3.62c.7,1.01,1.75,1.87,3.22,2.57-1.63.67-2.88,1.39-3.67,2.23-.79.82-1.15,1.73-1.15,2.76,0,1.9,1.06,3.41,3.26,4.54,2.18,1.15,5.09,1.73,8.83,1.73,4.46,0,7.9-.86,10.27-2.57,2.38-1.75,3.58-4.22,3.58-7.49,0-1.54-.29-2.86-.82-3.98-.55-1.1-1.37-2.02-2.45-2.69-.82-.55-3.1-.91-6.84-1.18-1.15-.1-2.06-.14-2.71-.19-3.22-.24-5.28-.55-6.19-.89s-1.34-.86-1.34-1.56c0-.36.14-.72.41-1.1.26-.41.7-.89,1.32-1.44.79.31,1.56.55,2.33.74.74.14,1.42.24,2.11.24,3.31,0,5.81-1.1,7.51-3.31,1.7-2.21,2.54-5.47,2.54-9.74,0-2.28-.36-4.22-1.06-5.86-.67-1.61-1.68-2.88-3.02-3.79.5-1.03,1.08-1.8,1.68-2.33.62-.5,1.27-.79,1.97-.79.17,0,.43.05.72.12l.12.02c-.55.14-.96.41-1.22.79-.31.41-.43.89-.43,1.42,0,.77.22,1.37.67,1.82.43.43,1.08.65,1.85.65.89,0,1.61-.26,2.14-.84.48-.55.79-1.32.79-2.3,0-1.32-.43-2.35-1.3-3.14-.86-.79-2.02-1.2-3.46-1.2-1.13,0-2.28.38-3.36,1.1-1.13.7-2.16,1.78-3.14,3.17-.62-.22-1.25-.36-1.85-.46s-1.22-.14-1.87-.14c-2.88,0-5.21,1.18-6.96,3.55-1.75,2.35-2.64,5.52-2.64,9.53,0,2.14.29,4.01.89,5.52.55,1.51,1.46,2.81,2.71,3.79-1.51.86-2.64,1.87-3.38,3.1M460.77,612.5c.41,0,.7.02.77.02,1.08.14,1.82.36,2.23.65.38.31.55.77.55,1.46,0,1.15-.72,2.09-2.14,2.78-1.46.67-3.41,1.03-5.93,1.03-2.66,0-4.73-.36-6.14-1.06-1.44-.72-2.18-1.7-2.18-3.02,0-.6.14-1.15.43-1.61.29-.48.72-.86,1.3-1.2,3.84.43,7.56.72,11.11.94M451.84,594.12c-.5-1.25-.77-3.41-.77-6.6s.26-5.42.77-6.65c.53-1.25,1.37-1.85,2.59-1.85s2.09.58,2.54,1.85c.5,1.22.77,3.43.77,6.65s-.26,5.33-.77,6.58c-.48,1.2-1.34,1.82-2.54,1.82s-2.06-.62-2.59-1.8M432.83,609.55c.94.72,2.18,1.08,3.72,1.08,1.94,0,3.34-.62,4.22-1.85.91-1.25,1.34-3.22,1.34-5.9v-2.23h-2.52v1.1c0,.46.02.77.02.98,0,1.39-.07,2.38-.26,2.93-.22.58-.5.86-.96.86-.34,0-.6-.1-.72-.31-.17-.22-.24-.65-.24-1.34v-19.01c0-3.58-.84-6.29-2.5-8.09-1.68-1.78-4.22-2.66-7.63-2.66-3.05,0-5.54.84-7.44,2.54-1.92,1.68-2.9,3.82-2.9,6.43,0,1.51.41,2.69,1.22,3.55.82.86,1.9,1.3,3.31,1.3,1.15,0,2.06-.34,2.78-1.01.7-.62,1.06-1.49,1.06-2.57,0-1.15-.29-2.04-.84-2.64-.48-.62-1.27-.91-2.28-.91-.34,0-.58,0-.77.02l-.53.07c.36-.94.96-1.73,1.8-2.28.84-.5,1.85-.82,3-.82,1.56,0,2.81.5,3.77,1.51.91,1.01,1.37,2.35,1.37,4.06,0,1.39-.38,2.59-1.15,3.62-.74,1.06-2.06,2.09-3.89,3.1-.43.24-1.01.53-1.87.94-2.38,1.18-4.13,2.28-5.3,3.31-.84.77-1.49,1.75-1.9,2.88-.43,1.1-.62,2.4-.62,3.86,0,2.64.65,4.73,1.99,6.26,1.32,1.51,3.12,2.3,5.4,2.3,1.58,0,2.98-.36,4.15-1.06,1.15-.72,2.21-1.82,3.17-3.36.43,1.51,1.1,2.62,2.06,3.34M430.46,597.74c0,2.47-.34,4.3-.94,5.45-.65,1.13-1.68,1.7-3.07,1.7-.94,0-1.75-.34-2.4-1.03-.67-.67-.98-1.51-.98-2.5,0-1.85,1.34-3.94,4.08-6.22,1.46-1.2,2.59-2.26,3.34-3.07v5.64l-.02.02ZM395.87,576.5c-1.13-.96-2.5-1.42-4.06-1.42-1.46,0-2.81.41-4.03,1.25-1.22.82-2.35,2.11-3.43,3.79v-4.08h-9.74v3.96c1.27,0,2.09.14,2.42.46.36.34.55,1.08.55,2.3v20.14c0,1.22-.19,1.99-.55,2.33-.36.34-1.15.48-2.42.48v3.91h12.43v-3.91c-1.01,0-1.7-.17-2.02-.53-.34-.29-.53-1.08-.53-2.3v-14.52c0-2.54.36-4.44,1.1-5.74.72-1.3,1.78-1.92,3.19-1.92.94,0,1.63.29,2.09.91.48.6.7,1.54.7,2.74v18.53c0,1.15-.14,1.92-.48,2.28-.38.36-1.06.53-2.09.55v3.91h12.05v-3.91c-1.08,0-1.73-.17-2.11-.53-.31-.31-.48-1.08-.48-2.28v-14.52c0-2.54.36-4.46,1.06-5.74.72-1.3,1.78-1.92,3.22-1.92.91,0,1.63.29,2.06.91.48.6.72,1.54.72,2.74v18.53c0,1.18-.17,1.94-.46,2.28-.31.34-1.01.5-2.04.55v3.91h12.38v-3.91c-1.25,0-2.06-.14-2.45-.48-.36-.34-.55-1.1-.55-2.33v-17.62c0-3.6-.53-6.22-1.56-7.82-1.01-1.58-2.74-2.4-5.04-2.4-1.51,0-2.9.43-4.2,1.32-1.25.89-2.35,2.23-3.36,4.06-.38-1.68-1.18-2.98-2.28-3.96M372.54,606.74c1.61-2.57,2.4-7.2,2.4-13.9s-.79-11.33-2.42-13.92c-1.61-2.57-4.39-3.84-8.35-3.84s-6.62,1.27-8.26,3.84c-1.61,2.59-2.4,7.2-2.4,13.92s.79,11.4,2.38,13.94c1.61,2.54,4.39,3.86,8.28,3.86s6.77-1.32,8.38-3.89M361.58,603.94c-.48-1.44-.72-5.14-.72-11.09s.24-9.6.72-11.04c.5-1.44,1.39-2.18,2.69-2.18s2.11.74,2.59,2.18c.46,1.44.72,5.09.72,11.04s-.26,9.65-.72,11.09c-.48,1.44-1.34,2.18-2.62,2.18s-2.21-.74-2.69-2.18M331.12,564.62h2.3c2.66,0,4.46.62,5.42,1.8.98,1.22,1.44,3.36,1.44,6.48s-.5,5.23-1.61,6.55c-1.08,1.32-2.86,1.94-5.38,1.94h-2.21v-16.78h.02ZM331.12,586.8l.53-.05h.77c2.11,0,3.62.6,4.51,1.73.89,1.15,1.42,3.24,1.51,6.24,0,.72.02,1.73.05,3.07.1,4.7.6,7.97,1.49,9.74.6,1.18,1.37,2.02,2.28,2.54.94.55,2.11.79,3.55.79,2.4,0,4.13-.77,5.18-2.33,1.1-1.56,1.63-4.13,1.63-7.66v-2.11h-2.71v3.46c0,.89-.14,1.58-.48,2.14-.29.55-.67.82-1.2.82-1.01,0-1.61-1.9-1.82-5.71-.05-.91-.07-1.56-.1-2.02-.29-4.25-.94-7.22-1.92-8.88-.96-1.68-2.59-2.76-4.9-3.29,2.78-.46,4.9-1.8,6.38-3.98s2.23-5.04,2.23-8.59c0-4.44-1.15-7.7-3.43-9.82-2.3-2.11-5.88-3.19-10.7-3.19h-14.42v4.94c1.22,0,2.11.26,2.64.79.53.55.77,1.49.77,2.81v32.81c0,1.39-.24,2.3-.77,2.86-.53.55-1.42.82-2.64.82v4.97h15.22v-4.97h-.24c-1.25,0-2.14-.26-2.64-.82s-.77-1.46-.77-2.86v-14.26ZM319.91,589.63h-10.01v5.64h10.01v-5.64ZM300.64,609.55c.94.72,2.16,1.08,3.72,1.08,1.92,0,3.34-.62,4.22-1.85.89-1.25,1.34-3.22,1.34-5.9v-2.23h-2.54c0,.29,0,.65.02,1.1,0,.46.02.77.02.98,0,1.39-.1,2.38-.26,2.93-.22.58-.5.86-.96.86-.34,0-.6-.1-.74-.31-.14-.22-.22-.65-.22-1.34v-19.01c0-3.58-.84-6.29-2.52-8.09-1.66-1.78-4.2-2.66-7.61-2.66-3.05,0-5.57.84-7.46,2.54-1.92,1.68-2.88,3.82-2.88,6.43,0,1.51.41,2.69,1.22,3.55s1.92,1.3,3.31,1.3c1.13,0,2.06-.34,2.78-1.01.7-.62,1.03-1.49,1.03-2.57,0-1.15-.26-2.04-.82-2.64-.5-.62-1.27-.91-2.28-.91-.34,0-.58,0-.77.02l-.53.07c.34-.94.96-1.73,1.8-2.28.84-.5,1.82-.82,2.98-.82,1.56,0,2.83.5,3.72,1.51.96,1.01,1.39,2.35,1.39,4.06,0,1.39-.36,2.59-1.13,3.62-.74,1.06-2.06,2.09-3.91,3.1-.41.24-.98.53-1.82.94-2.38,1.18-4.13,2.28-5.3,3.31-.84.77-1.49,1.75-1.9,2.88-.43,1.1-.62,2.4-.62,3.86,0,2.64.65,4.73,1.97,6.26,1.34,1.51,3.12,2.3,5.4,2.3,1.61,0,3-.36,4.13-1.06,1.18-.72,2.23-1.82,3.19-3.36.43,1.51,1.08,2.62,2.06,3.34M298.26,597.74c0,2.47-.34,4.3-.98,5.45-.6,1.13-1.63,1.7-3.02,1.7-.94,0-1.75-.34-2.42-1.03-.65-.67-1.01-1.51-1.01-2.5,0-1.85,1.39-3.94,4.13-6.22,1.44-1.2,2.57-2.26,3.34-3.07v5.64l-.02.02ZM273.47,571.99c.82.77,1.8,1.18,2.98,1.18s2.11-.38,2.88-1.15c.74-.77,1.15-1.73,1.15-2.95,0-1.1-.41-2.06-1.2-2.86-.82-.82-1.73-1.22-2.83-1.22s-2.09.41-2.9,1.27c-.82.82-1.22,1.75-1.22,2.81,0,1.18.38,2.16,1.18,2.93M280.34,576.07h-10.08v3.96c1.3,0,2.09.14,2.45.46.36.34.55,1.08.55,2.28v20.16c0,1.22-.19,1.99-.58,2.33-.36.34-1.15.48-2.42.48v3.91h13.03v-3.91c-1.22,0-2.04-.14-2.42-.46-.36-.34-.53-1.1-.53-2.35v-26.88.02ZM265.65,564.14h-10.03v3.96c1.27,0,2.06.14,2.42.48.36.31.55,1.06.55,2.28v32.06c0,1.22-.19,1.99-.58,2.33-.36.34-1.15.48-2.4.48v3.91h13.01v-3.91c-1.22,0-2.04-.14-2.45-.46-.36-.34-.53-1.1-.53-2.35v-38.81.02ZM243.78,571.99c.82.77,1.78,1.18,2.95,1.18s2.11-.38,2.9-1.15c.74-.77,1.1-1.73,1.1-2.95,0-1.1-.38-2.06-1.15-2.86-.82-.82-1.75-1.22-2.86-1.22s-2.06.41-2.88,1.27c-.82.82-1.25,1.75-1.25,2.81,0,1.18.41,2.16,1.2,2.93M250.6,576.07h-10.03v3.96c1.27,0,2.06.14,2.45.46.34.34.55,1.08.55,2.28v20.16c0,1.22-.22,1.99-.58,2.33-.38.34-1.18.48-2.42.48v3.91h13.03v-3.91c-1.25,0-2.06-.14-2.42-.46-.38-.34-.58-1.1-.58-2.35v-26.88.02ZM219.4,576.5c-1.13-.96-2.5-1.42-4.08-1.42-1.46,0-2.81.41-4.03,1.25-1.22.82-2.38,2.11-3.38,3.79v-4.08h-9.77v3.96c1.25,0,2.09.14,2.45.46.34.34.55,1.08.55,2.3v20.14c0,1.22-.22,1.99-.58,2.33-.38.34-1.2.48-2.42.48v3.91h12.41v-3.91c-1.01,0-1.68-.17-2.02-.53-.34-.29-.53-1.08-.53-2.3v-14.52c0-2.54.36-4.44,1.08-5.74s1.78-1.92,3.22-1.92c.91,0,1.63.29,2.11.91.43.6.7,1.54.7,2.74v18.53c0,1.15-.19,1.92-.53,2.28s-1.03.53-2.06.55v3.91h12.02v-3.91c-1.03,0-1.75-.17-2.06-.53-.36-.31-.53-1.08-.53-2.28v-14.52c0-2.54.36-4.46,1.06-5.74.7-1.3,1.78-1.92,3.22-1.92.91,0,1.61.29,2.09.91.46.6.72,1.54.72,2.74v18.53c0,1.18-.19,1.94-.48,2.28-.31.34-.98.5-2.02.55l-.05,3.91h12.41v-3.91c-1.27,0-2.09-.14-2.47-.48s-.55-1.1-.55-2.33v-17.62c0-3.6-.53-6.22-1.56-7.82-1.03-1.58-2.71-2.4-5.04-2.4-1.54,0-2.93.43-4.18,1.32-1.27.89-2.4,2.23-3.36,4.06-.43-1.68-1.2-2.98-2.3-3.96M196.41,609.65v-19.13h-3.79c-.12,5.59-.89,9.38-2.33,11.3-1.44,1.94-4.22,2.88-8.33,2.88h-2.21v-18.34h.84c1.9,0,3.22.5,4.03,1.56.79,1.08,1.18,2.88,1.18,5.42v.34h3.58v-19.63h-3.58v.38c0,2.54-.38,4.32-1.18,5.4-.79,1.06-2.11,1.56-4.06,1.56h-.84v-16.8h1.56c4.08,0,6.84.79,8.28,2.42,1.46,1.61,2.26,4.66,2.42,9.1h3.82v-16.46h-27.62v4.94c1.25,0,2.14.26,2.64.79.53.53.77,1.49.77,2.81v32.83c0,1.37-.24,2.3-.77,2.83-.5.55-1.39.84-2.64.84v4.94h28.22ZM150.81,585.55c0-2.26.26-3.89.79-4.94.5-1.03,1.32-1.49,2.42-1.49,1.18,0,2.02.46,2.52,1.37.48.94.74,2.62.74,4.97v4.01h-6.48v-3.91ZM163.79,593.47v-3.89c0-2.59-.12-4.49-.29-5.71-.19-1.22-.5-2.3-.98-3.31-.89-1.78-2.02-3.12-3.41-4.08-1.39-.94-3-1.39-4.82-1.39-3.65,0-6.38,1.44-8.16,4.39-1.75,2.93-2.66,7.44-2.66,13.63s.86,10.85,2.54,13.49c1.68,2.66,4.49,3.98,8.45,3.98,3.12,0,5.47-1.03,7.01-3.12,1.56-2.09,2.35-5.18,2.35-9.31,0-.12,0-.36-.02-.72,0-.31-.02-.6-.02-.79h-4.46c0,3.41-.31,5.83-.96,7.32-.65,1.51-1.68,2.26-3.12,2.26-1.58,0-2.69-.79-3.38-2.4-.67-1.58-1.01-4.44-1.01-8.47v-1.85h13.01l-.05-.02ZM126.52,588.41c0-2.59.36-4.56,1.08-5.78.74-1.25,1.82-1.87,3.34-1.87.86,0,1.54.29,1.99.91.43.62.67,1.54.67,2.74v18.53c0,1.2-.19,1.97-.55,2.33-.34.34-1.06.5-2.18.5v3.91h12.74v-3.91c-1.27,0-2.09-.14-2.45-.48-.41-.34-.58-1.1-.58-2.35v-17.59c0-3.62-.53-6.24-1.58-7.85-1.03-1.58-2.76-2.4-5.14-2.4-1.54,0-2.95.38-4.18,1.22-1.27.82-2.4,2.09-3.48,3.82v-4.08h-9.72v3.96c1.27,0,2.09.14,2.45.46.34.34.53,1.08.53,2.3v20.14c0,1.22-.19,1.99-.55,2.33-.38.34-1.18.48-2.42.48v3.91h12.74v-3.91c-1.15-.05-1.87-.19-2.21-.53-.34-.31-.5-1.08-.5-2.28v-14.52.02ZM113.9,606.74c1.63-2.57,2.4-7.2,2.4-13.9s-.77-11.33-2.4-13.92c-1.63-2.57-4.39-3.84-8.35-3.84s-6.65,1.27-8.26,3.84c-1.61,2.59-2.4,7.2-2.4,13.92s.79,11.4,2.38,13.94c1.61,2.54,4.37,3.86,8.28,3.86s6.77-1.32,8.35-3.89M102.95,603.94c-.5-1.44-.72-5.14-.72-11.09s.22-9.6.72-11.04c.5-1.44,1.39-2.18,2.69-2.18s2.14.74,2.62,2.18c.46,1.44.7,5.09.7,11.04s-.24,9.65-.67,11.09c-.48,1.44-1.34,2.18-2.64,2.18s-2.18-.74-2.69-2.18M85.07,571.99c.79.77,1.78,1.18,2.98,1.18s2.09-.38,2.86-1.15c.77-.77,1.18-1.73,1.18-2.95,0-1.1-.41-2.06-1.22-2.86-.79-.82-1.73-1.22-2.81-1.22s-2.09.41-2.9,1.27c-.82.82-1.22,1.75-1.22,2.81,0,1.18.38,2.16,1.18,2.93M91.89,576.07h-10.03v3.96c1.27,0,2.09.14,2.45.46.36.34.55,1.08.55,2.28v20.16c0,1.22-.19,1.99-.58,2.33-.36.34-1.18.48-2.42.48v3.91h13.03v-3.91c-1.25,0-2.04-.14-2.42-.46-.36-.34-.58-1.1-.58-2.35v-26.88.02ZM56.39,600.58c-.77,1.15-1.13,2.5-1.13,3.98s.34,2.62,1.03,3.62c.67,1.01,1.75,1.87,3.22,2.57-1.63.67-2.88,1.39-3.67,2.23-.79.82-1.15,1.73-1.15,2.76,0,1.9,1.06,3.41,3.24,4.54,2.21,1.15,5.11,1.73,8.83,1.73,4.46,0,7.9-.86,10.27-2.57,2.35-1.75,3.55-4.22,3.55-7.49,0-1.54-.29-2.86-.82-3.98-.55-1.1-1.37-2.02-2.45-2.69-.82-.55-3.1-.91-6.84-1.18-1.15-.1-2.06-.14-2.71-.19-3.22-.24-5.28-.55-6.19-.89s-1.34-.86-1.34-1.56c0-.36.14-.72.38-1.1.29-.41.74-.89,1.37-1.44.79.31,1.56.55,2.33.74.74.14,1.42.24,2.11.24,3.31,0,5.81-1.1,7.49-3.31,1.7-2.21,2.54-5.47,2.54-9.74,0-2.28-.34-4.22-1.03-5.86-.67-1.61-1.68-2.88-3.02-3.79.5-1.03,1.06-1.8,1.68-2.33.6-.5,1.25-.79,1.97-.79.14,0,.38.05.72.12l.12.02c-.55.14-.96.41-1.22.79-.31.41-.43.89-.43,1.42,0,.77.22,1.37.67,1.82.43.43,1.08.65,1.85.65.89,0,1.61-.26,2.11-.84.53-.55.82-1.32.82-2.3,0-1.32-.43-2.35-1.3-3.14-.89-.79-2.02-1.2-3.46-1.2-1.13,0-2.28.38-3.38,1.1-1.1.7-2.14,1.78-3.12,3.17-.62-.22-1.25-.36-1.85-.46s-1.22-.14-1.87-.14c-2.88,0-5.21,1.18-6.96,3.55-1.78,2.35-2.64,5.52-2.64,9.53,0,2.14.29,4.01.86,5.52.58,1.51,1.46,2.81,2.74,3.79-1.51.86-2.64,1.87-3.38,3.1M72.74,612.5c.43,0,.7.02.74.02,1.1.14,1.82.36,2.26.65.38.31.55.77.55,1.46,0,1.15-.7,2.09-2.14,2.78-1.46.67-3.43,1.03-5.93,1.03-2.66,0-4.73-.36-6.17-1.06-1.44-.72-2.16-1.7-2.16-3.02,0-.6.14-1.15.43-1.61.29-.48.72-.86,1.27-1.2,3.86.43,7.58.72,11.14.94M63.78,594.12c-.5-1.25-.77-3.41-.77-6.6s.26-5.42.77-6.65c.53-1.25,1.37-1.85,2.57-1.85s2.06.58,2.54,1.85c.5,1.22.77,3.43.77,6.65s-.26,5.33-.77,6.58c-.48,1.2-1.34,1.82-2.54,1.82s-2.06-.62-2.57-1.8M41.25,585.55c0-2.26.26-3.89.77-4.94.53-1.03,1.34-1.49,2.45-1.49,1.18,0,2.02.46,2.5,1.37.5.94.77,2.62.77,4.97v4.01h-6.48v-3.91ZM54.23,593.47v-3.89c0-2.59-.07-4.49-.26-5.71-.19-1.22-.53-2.3-.98-3.31-.89-1.78-2.02-3.12-3.41-4.08-1.39-.94-3.02-1.39-4.85-1.39-3.67,0-6.38,1.44-8.14,4.39-1.8,2.93-2.66,7.44-2.66,13.63s.84,10.85,2.54,13.49c1.7,2.66,4.49,3.98,8.45,3.98,3.12,0,5.45-1.03,6.98-3.12,1.56-2.09,2.35-5.18,2.35-9.31,0-.12,0-.36-.02-.72,0-.31-.02-.6-.02-.79h-4.44c0,3.41-.31,5.83-.96,7.32-.62,1.51-1.68,2.26-3.12,2.26-1.56,0-2.69-.79-3.36-2.4-.7-1.58-1.03-4.44-1.03-8.47v-1.85h12.98l-.05-.02ZM11.58,564.62h2.33c2.64,0,4.44.62,5.4,1.8.98,1.22,1.46,3.36,1.46,6.48s-.53,5.23-1.63,6.55c-1.08,1.32-2.86,1.94-5.38,1.94h-2.21v-16.78h.02ZM11.58,586.8l.53-.05h.72c2.14,0,3.65.6,4.54,1.73.89,1.15,1.42,3.24,1.51,6.24,0,.72.05,1.73.07,3.07.07,4.7.58,7.97,1.46,9.74.6,1.18,1.34,2.02,2.28,2.54.94.55,2.11.79,3.58.79,2.38,0,4.13-.77,5.16-2.33,1.08-1.56,1.63-4.13,1.63-7.66v-2.11h-2.69v3.46c0,.89-.14,1.58-.46,2.14s-.7.82-1.22.82c-1.01,0-1.61-1.9-1.85-5.71-.05-.91-.07-1.56-.07-2.02-.31-4.25-.94-7.22-1.92-8.88-.98-1.68-2.64-2.76-4.92-3.29,2.78-.46,4.9-1.8,6.38-3.98,1.51-2.18,2.26-5.04,2.26-8.59,0-4.44-1.18-7.7-3.46-9.82-2.3-2.11-5.88-3.19-10.7-3.19H.02v4.94c1.22,0,2.11.26,2.64.79.53.55.77,1.49.77,2.81v32.81c0,1.39-.24,2.3-.77,2.86-.53.55-1.39.82-2.64.82v4.97h15.26v-4.97h-.29c-1.25,0-2.16-.26-2.66-.82-.5-.55-.74-1.46-.74-2.86v-14.26Z"/>
      </g>
    </g>
  </g>
</svg>