<svg preserveAspectRatio="none" width="100%" height="100%" overflow="visible" style="display: block;" viewBox="0 0 78 59" fill="none" xmlns="http://www.w3.org/2000/svg">
<g id="Livello_1" clip-path="url(#clip0_4006_2037)">
<path id="Vector" d="M41.8507 16.9947V25.566C44.8242 25.369 48.3384 23.4725 51.1645 23.2015C51.5085 23.1769 51.6314 23.103 51.9017 23.4232C52.0737 23.6449 53.0567 26.2556 53.1796 26.699C53.2533 26.9699 53.4991 27.0438 53.1059 27.2901L43.7183 29.827L49.3459 37.1914L45.242 39.4327L39.3195 32.7826L33.397 39.7283L29.5388 36.9697L35.1418 29.827L25.7543 27.4133L27.2533 23.1523L36.7391 25.5414V17.3642L37.1323 16.9701H41.8261L41.8507 16.9947Z" fill="var(--fill-0, #E94D34)"/>
<path id="Vector_2" d="M11.8696 0H0V58.7427H11.8696V0Z" fill="var(--fill-0, #E94D34)"/>
<path id="Vector_3" d="M78.0246 0H66.155V58.7427H78.0246V0Z" fill="var(--fill-0, #E94D34)"/>
</g>
<defs>
<clipPath id="clip0_4006_2037">
<rect width="78" height="58.7427" fill="white"/>
</clipPath>
</defs>
</svg>
