<svg preserveAspectRatio="none" width="100%" height="100%" overflow="visible" style="display: block;" viewBox="0 0 183 67" fill="none" xmlns="http://www.w3.org/2000/svg">
<g id="Livello_1" clip-path="url(#clip0_4006_2000)">
<path id="Vector" d="M4.93149 0V2.59588C5.84467 2.53016 6.92387 1.95513 7.78724 1.87298C7.88685 1.87298 7.93666 1.84012 8.00308 1.9387C8.05289 2.00441 8.36835 2.79304 8.40155 2.9409C8.41816 3.02305 8.50117 3.03948 8.38495 3.12163L5.5126 3.89382L7.23933 6.12825L5.97749 6.80186L4.16775 4.79745L2.358 6.90044L1.17918 6.06253L2.8893 3.89382L0.0169578 3.15449L0.481846 1.85655L3.3874 2.57945V0.115007L3.50362 0H4.9481H4.93149Z" fill="var(--fill-0, #E94D34)"/>
<g id="Group">
<path id="Vector_2" d="M50.8887 4.76459V7.26189H40.1298V11.8786H49.9423V14.3759H40.1298V19.1077L40.2461 19.2227H50.8887V21.6378H36.7428V4.76459H50.8887Z" fill="var(--fill-0, #E94D34)"/>
<path id="Vector_3" d="M161.316 21.6378H157.962L156.02 17.6454H147.453L145.56 21.6378H142.14L149.777 4.79745L153.563 4.76459L153.778 4.84674L161.316 21.6378ZM148.548 15.0824H154.891L151.819 7.96837L151.637 8.01766L148.548 15.0988V15.0824Z" fill="var(--fill-0, #E94D34)"/>
<path id="Vector_4" d="M73.469 9.46346H70.0819C69.7997 6.67043 66.1304 6.45684 64.0052 7.13046C61.88 7.80407 61.5147 9.70991 63.4407 10.8436C66.3296 12.5522 74.2327 12.3058 73.9006 17.169C73.5686 22.1143 66.2466 22.5743 62.5939 21.4899C60.2861 20.7999 58.5593 19.1898 58.4597 16.7089H61.8136C61.9962 17.1361 62.0294 17.5304 62.2784 17.974C63.5237 20.1427 69.0691 20.192 70.1981 18.089C70.9619 16.6925 70.1151 15.7396 68.8699 15.1645C66.1304 13.8995 59.1737 13.653 58.825 9.77562C58.4929 6.07896 62.2452 4.64958 65.35 4.46886C68.8699 4.2717 73.3361 5.20819 73.469 9.44703V9.46346Z" fill="var(--fill-0, #E94D34)"/>
<path id="Vector_5" d="M118.713 4.76459L125.055 18.4998L131.148 4.76459H134.552L126.931 21.6378L122.946 21.6214L115.425 4.76459H118.713Z" fill="var(--fill-0, #E94D34)"/>
<path id="Vector_6" d="M29.1551 7.26189H18.4129V12.3879H28.2254V14.8031H18.4129V21.6378H14.9428V4.8796L15.0591 4.76459H29.0555L29.1551 4.8796V7.26189Z" fill="var(--fill-0, #E94D34)"/>
<path id="Vector_7" d="M96.8628 4.76459V7.26189H90.9521V21.6378H87.482V7.26189H81.5049V4.76459H96.8628Z" fill="var(--fill-0, #E94D34)"/>
<path id="Vector_8" d="M172.291 19.2227H182.618V21.6378H168.904V4.76459H172.191L172.291 4.8796V19.2227Z" fill="var(--fill-0, #E94D34)"/>
<path id="Vector_9" d="M107.838 4.76459H104.45V21.6378H107.838V4.76459Z" fill="var(--fill-0, #E94D34)"/>
<g id="Group_2">
<path id="Vector_10" d="M18.8446 26.8624C21.3351 30.5427 23.7923 34.2558 26.3658 37.8867C26.5817 38.1989 26.8307 38.5932 27.0631 38.8889C27.1296 38.9711 27.0631 39.0861 27.3122 39.0204V26.8624H30.749V43.7685H27.0465L18.6121 31.6927L18.3133 31.512V43.7685H15.0425L14.8764 43.6042V26.8624H18.8446Z" fill="var(--fill-0, #E94D34)"/>
<path id="Vector_11" d="M162.263 39.0039V26.846H165.7V43.5878L165.533 43.7521H161.997C161.997 43.7521 161.781 43.6206 161.731 43.5714L153.679 31.8899L153.264 31.4956V43.5878L153.098 43.7521H149.993L149.827 43.5878V26.846H153.629L161.897 38.7739L162.263 38.9875V39.0039Z" fill="var(--fill-0, #E94D34)"/>
<path id="Vector_12" d="M62.843 26.8624C65.3998 27.1089 67.7907 28.5218 68.0397 31.2491C68.2888 33.9765 66.7945 36.063 63.972 36.5888L67.9401 43.7685H64.5697L60.6015 36.9009H56.3677V43.7685H53.0969L52.9309 43.6042V26.8624H62.843ZM56.5172 29.294L56.3511 29.4583V34.3215L56.5172 34.4858H61.2325C61.4317 34.4858 62.212 34.3872 62.4777 34.3379C65.2172 33.845 65.3666 30.2798 62.9094 29.5733C62.5773 29.4747 61.7638 29.3104 61.4649 29.3104H56.5338L56.5172 29.294Z" fill="var(--fill-0, #E94D34)"/>
<path id="Vector_13" d="M80.3095 26.8624C82.5841 27.0596 84.9252 28.2097 85.4565 30.5591C86.1372 33.5329 84.5931 36.0466 81.5381 36.5888L85.4565 43.5549L85.3402 43.7685H82.1192L78.1511 36.9009H73.9173V43.6042L73.7512 43.7685H70.6464L70.4804 43.6042V26.8624H80.2929H80.3095ZM73.9339 29.294V34.3051L74.0999 34.4693H78.7156C79.0974 34.4693 80.0936 34.3379 80.4921 34.2065C82.6837 33.5 82.7501 30.3619 80.6581 29.6062C80.3261 29.4912 79.3631 29.294 79.0476 29.294H73.9505H73.9339Z" fill="var(--fill-0, #E94D34)"/>
<path id="Vector_14" d="M147.718 35.2908C147.718 40.2361 143.651 44.245 138.636 44.245C133.622 44.245 129.554 40.2361 129.554 35.2908C129.554 30.3455 133.622 26.3367 138.636 26.3367C143.651 26.3367 147.718 30.3455 147.718 35.2908ZM138.005 28.9983C130.584 29.7212 131.663 43.5714 140.247 41.3534C146.124 39.8418 145.527 28.259 138.005 28.9983Z" fill="var(--fill-0, #E94D34)"/>
<path id="Vector_15" d="M182.95 26.8624V29.294H172.274L172.125 29.4419V33.9436H181.921L182.087 34.0915V36.3095L181.921 36.4738H172.125V41.2219H182.95V43.6042L182.784 43.7685H168.854L168.688 43.6042V26.8624H182.95Z" fill="var(--fill-0, #E94D34)"/>
<path id="Vector_16" d="M101.96 43.7685L100.1 39.8254L91.3672 39.7597L89.4246 43.7849H86.0542L93.6584 26.9282C93.8244 26.8296 97.0621 26.8296 97.4771 26.8624C97.5934 26.8624 97.7096 26.8624 97.7926 26.9774L105.181 43.7849H101.96V43.7685ZM92.4796 37.2131H98.8054L95.6508 30.0334L92.4796 37.2131Z" fill="var(--fill-0, #E94D34)"/>
<path id="Vector_17" d="M51.3204 43.7685H48.0495L46.19 39.809L37.4567 39.7597L35.3979 43.7521H32.1271L39.7812 26.846C40.96 26.961 42.4045 26.6981 43.5501 26.846C43.6663 26.846 43.7825 26.846 43.8655 26.961L51.3204 43.7685ZM38.5691 37.2131H44.8949L41.84 30.0333L38.5691 37.2131Z" fill="var(--fill-0, #E94D34)"/>
<path id="Vector_18" d="M121.635 26.8624V29.3433C118.447 32.9578 115.076 36.408 111.822 39.9568C111.573 40.2361 111.175 40.6469 110.959 40.9098C110.876 41.0083 110.76 41.0412 110.793 41.2219H121.734V43.7521H106.991L106.825 43.5878V41.1562L117.484 29.8033L117.75 29.2776H106.924V26.846H121.602L121.635 26.8624Z" fill="var(--fill-0, #E94D34)"/>
<path id="Vector_19" d="M127.429 26.8624H123.992V43.7685H127.429V26.8624Z" fill="var(--fill-0, #E94D34)"/>
</g>
<g id="Group_3">
<path id="Vector_20" d="M33.2561 61.9068V49.7653H36.693V66.5071L36.5269 66.655H32.8743L24.6723 54.7928L24.2572 54.3985V66.5071L24.0912 66.655H20.8204V49.7653H24.6225L32.9573 61.7261L33.2561 61.9068Z" fill="var(--fill-0, #E94D34)"/>
<path id="Vector_21" d="M39.6815 49.7653H48.8465C52.1339 49.7653 55.2885 53.0677 55.9194 56.1072C57.1647 62.104 53.5286 66.3592 47.4518 66.6714C45.5093 66.77 41.9064 66.885 40.0468 66.6714C39.8974 66.655 39.7646 66.6714 39.6815 66.5071V49.7653ZM43.1184 52.3448V63.9605L43.2844 64.1248H47.6843C48.1824 64.1248 49.5438 63.6319 50.0253 63.3691C53.6946 61.3482 53.6448 54.7764 49.8759 52.887C48.4148 52.164 45.144 51.9998 43.5003 52.1805C43.3508 52.1969 43.218 52.1805 43.135 52.3448H43.1184Z" fill="var(--fill-0, #E94D34)"/>
<path id="Vector_22" d="M124.69 66.655H121.419L117.451 59.7874H113.217V66.4907L113.051 66.655H109.78V49.7489H119.593C120.589 49.7489 122.531 50.5047 123.328 51.1454C125.487 52.887 125.37 56.8465 123.112 58.5059C122.398 59.0316 121.635 59.2124 120.821 59.5245L124.673 66.655H124.69ZM113.217 57.3558H117.982C118.198 57.3558 118.945 57.2408 119.227 57.2079C120.273 57.0272 121.236 56.4029 121.369 55.3021C121.519 53.9549 121.137 52.887 119.759 52.4598C119.443 52.3612 118.596 52.1969 118.314 52.1969H113.217V57.3722V57.3558Z" fill="var(--fill-0, #E94D34)"/>
<path id="Vector_23" d="M183 49.7653V52.1805H172.175V56.8301H182.037V59.3767H172.175V64.1248H183V66.5071L182.834 66.655H168.904L168.738 66.5071V49.7653H183Z" fill="var(--fill-0, #E94D34)"/>
<path id="Vector_24" d="M148.001 66.655L146.141 62.7119L137.408 62.6462L135.465 66.6714H132.244L132.128 66.4578L139.633 49.8803C139.716 49.7653 139.832 49.7818 139.948 49.7653C140.679 49.6832 142.771 49.6832 143.501 49.7653C143.617 49.7653 143.734 49.7653 143.817 49.8803L151.205 66.6714H147.984L148.001 66.655ZM144.846 60.116L141.691 52.9362L138.52 60.116H144.846Z" fill="var(--fill-0, #E94D34)"/>
<path id="Vector_25" d="M91.5664 54.3985H88.1296C88.0964 51.1783 82.0196 51.0961 80.6249 52.9691C79.5789 54.3821 80.8242 55.5157 82.086 56.0743C85.0912 57.4051 92.297 57.5365 91.9815 62.1697C91.6162 67.4272 82.8664 67.8379 79.2635 65.9321C77.6862 65.1106 76.4907 63.5005 76.5572 61.6932H79.828C80.1766 62.4983 80.2929 63.1226 81.0068 63.6976C82.6837 65.0449 87.7311 65.0284 88.4616 62.5969C89.0261 60.7075 86.9673 60.0667 85.5561 59.6395C82.3849 58.6537 76.2583 58.1773 76.9058 53.5441C77.2711 50.9318 80.4755 49.6339 82.8331 49.4532C86.5357 49.1739 91.3838 49.8968 91.5664 54.4149V54.3985Z" fill="var(--fill-0, #E94D34)"/>
<path id="Vector_26" d="M61.6641 49.7653V60.4939C61.6641 64.9956 69.1355 66.1457 70.5302 61.5125C70.58 61.3318 70.7793 60.6089 70.7793 60.4939V49.7653H74.2161C74.0833 53.0184 74.3988 56.4029 74.2161 59.6395C73.9173 65.127 69.9325 67.6736 64.5365 66.8357C61.3155 66.3428 58.2439 63.8127 58.2439 60.3624V49.7489H61.6807L61.6641 49.7653Z" fill="var(--fill-0, #E94D34)"/>
<path id="Vector_27" d="M107.854 49.7653V52.1805H102.026L101.86 52.3448V66.655H98.5896L98.4235 66.5071V52.1805H92.4298V49.7653H107.854Z" fill="var(--fill-0, #E94D34)"/>
<path id="Vector_28" d="M156.418 49.7653V64.1248H166.712V66.655H152.982V49.7653H156.418Z" fill="var(--fill-0, #E94D34)"/>
<path id="Vector_29" d="M130.8 49.7653H127.263V66.6714H130.8V49.7653Z" fill="var(--fill-0, #E94D34)"/>
<path id="Vector_30" d="M17.7156 49.7653H14.2787V66.6714H17.7156V49.7653Z" fill="var(--fill-0, #E94D34)"/>
</g>
</g>
</g>
<defs>
<clipPath id="clip0_4006_2000">
<rect width="183" height="67" fill="white"/>
</clipPath>
</defs>
</svg>
