<svg width="182" height="67" viewBox="0 0 182 67" fill="none" xmlns="http://www.w3.org/2000/svg">
<g clip-path="url(#clip0_1_2601)">
<path d="M4.90526 0V2.59588C5.81344 2.53016 6.88675 1.95512 7.7454 1.87298C7.84447 1.87298 7.89401 1.84012 7.96006 1.9387C8.00959 2.00441 8.32333 2.79304 8.35635 2.9409C8.37287 3.02305 8.45543 3.03948 8.33984 3.12163L5.48319 3.89382L7.20048 6.12825L5.94554 6.80186L4.14569 4.79745L2.34583 6.90044L1.17345 6.06253L2.87423 3.89382L0.0175781 3.15449L0.479926 1.85655L3.3696 2.57945V0.115007L3.48519 0H4.92177H4.90526Z" fill="#E94D34"/>
<path d="M50.6116 4.76459V7.26189H39.9115V11.8786H49.6704V14.3759H39.9115V19.1076L40.0271 19.2227H50.6116V21.6378H36.543V4.76459H50.6116Z" fill="#E94D34"/>
<path d="M160.435 21.6378H157.1L155.168 17.6454H146.647L144.765 21.6378H141.363L148.959 4.79745L152.724 4.76459L152.938 4.84674L160.435 21.6378ZM147.737 15.0824H154.045L150.99 7.96836L150.808 8.01765L147.737 15.0988V15.0824Z" fill="#E94D34"/>
<path d="M73.0679 9.46346H69.6993C69.4186 6.67042 65.7694 6.45684 63.6558 7.13045C61.5422 7.80407 61.1789 9.7099 63.0944 10.8435C65.9675 12.5522 73.8274 12.3058 73.4972 17.169C73.1669 22.1143 65.885 22.5743 62.2522 21.4899C59.957 20.7999 58.2397 19.1898 58.1406 16.7089H61.4761C61.6578 17.1361 61.6908 17.5304 61.9385 17.974C63.1769 20.1427 68.6921 20.192 69.8149 18.089C70.5745 16.6925 69.7324 15.7396 68.4939 15.1645C65.7694 13.8995 58.8507 13.653 58.5039 9.77562C58.1737 6.07896 61.9055 4.64958 64.9933 4.46886C68.4939 4.2717 72.9358 5.20819 73.0679 9.44703V9.46346Z" fill="#E94D34"/>
<path d="M118.064 4.76459L124.372 18.4998L130.432 4.76459H133.817L126.238 21.6378L122.275 21.6214L114.795 4.76459H118.064Z" fill="#E94D34"/>
<path d="M28.996 7.26189H18.3124V12.3879H28.0713V14.8031H18.3124V21.6378H14.8613V4.87959L14.9769 4.76459H28.8969L28.996 4.87959V7.26189Z" fill="#E94D34"/>
<path d="M96.3345 4.76459V7.26189H90.4561V21.6378H87.005V7.26189H81.0605V4.76459H96.3345Z" fill="#E94D34"/>
<path d="M171.349 19.2227H181.62V21.6378H167.98V4.76459H171.25L171.349 4.87959V19.2227Z" fill="#E94D34"/>
<path d="M107.249 4.76459H103.881V21.6378H107.249V4.76459Z" fill="#E94D34"/>
<path d="M18.7414 26.8624C21.2183 30.5427 23.6621 34.2558 26.2215 37.8867C26.4362 38.1989 26.6839 38.5932 26.915 38.8889C26.9811 38.9711 26.915 39.0861 27.1627 39.0203V26.8624H30.5808V43.7685H26.8985L18.5102 31.6927L18.213 31.512V43.7685H14.96L14.7949 43.6042V26.8624H18.7414Z" fill="#E94D34"/>
<path d="M161.376 39.0039V26.846H164.794V43.5878L164.629 43.7521H161.111C161.111 43.7521 160.897 43.6206 160.847 43.5714L152.839 31.8899L152.426 31.4956V43.5878L152.261 43.7521H149.173L149.008 43.5878V26.846H152.789L161.012 38.7739L161.376 38.9875V39.0039Z" fill="#E94D34"/>
<path d="M62.4985 26.8624C65.0415 27.1089 67.4192 28.5218 67.6669 31.2491C67.9146 33.9765 66.4285 36.063 63.6214 36.5888L67.5679 43.7685H64.2158L60.2694 36.9009H56.0587V43.7685H52.8057L52.6406 43.6042V26.8624H62.4985ZM56.2073 29.294L56.0422 29.4583V34.3215L56.2073 34.4858H60.8968C61.095 34.4858 61.8711 34.3872 62.1353 34.3379C64.8598 33.845 65.0084 30.2798 62.5646 29.5733C62.2343 29.4747 61.4252 29.3104 61.128 29.3104H56.2238L56.2073 29.294Z" fill="#E94D34"/>
<path d="M79.8711 26.8624C82.1333 27.0596 84.4615 28.2097 84.9899 30.5591C85.6669 33.5329 84.1313 36.0466 81.093 36.5888L84.9899 43.5549L84.8743 43.7685H81.6709L77.7244 36.9009H73.5138V43.6042L73.3486 43.7685H70.2608L70.0957 43.6042V26.8624H79.8545H79.8711ZM73.5303 29.294V34.305L73.6954 34.4693H78.2859C78.6657 34.4693 79.6564 34.3379 80.0527 34.2065C82.2323 33.5 82.2984 30.3619 80.2178 29.6062C79.8876 29.4912 78.9299 29.294 78.6161 29.294H73.5468H73.5303Z" fill="#E94D34"/>
<path d="M146.91 35.2908C146.91 40.2361 142.865 44.245 137.878 44.245C132.891 44.245 128.846 40.2361 128.846 35.2908C128.846 30.3455 132.891 26.3367 137.878 26.3367C142.865 26.3367 146.91 30.3455 146.91 35.2908ZM137.251 28.9983C129.869 29.7212 130.943 43.5714 139.48 41.3534C145.325 39.8418 144.731 28.2589 137.251 28.9983Z" fill="#E94D34"/>
<path d="M181.95 26.8624V29.294H171.332L171.184 29.4419V33.9436H180.926L181.091 34.0915V36.3095L180.926 36.4738H171.184V41.2219H181.95V43.6042L181.785 43.7685H167.931L167.766 43.6042V26.8624H181.95Z" fill="#E94D34"/>
<path d="M101.403 43.7685L99.5535 39.8254L90.868 39.7597L88.936 43.7849H85.584L93.1467 26.9282C93.3118 26.8296 96.5317 26.8296 96.9445 26.8624C97.0601 26.8624 97.1757 26.8624 97.2583 26.9774L104.606 43.7849H101.403V43.7685ZM91.9743 37.2131H98.2655L95.1282 30.0334L91.9743 37.2131Z" fill="#E94D34"/>
<path d="M51.0395 43.7685H47.7866L45.9372 39.809L37.2517 39.7597L35.2041 43.7521H31.9512L39.5634 26.846C40.7358 26.961 42.1724 26.6981 43.3117 26.846C43.4273 26.846 43.5429 26.846 43.6255 26.961L51.0395 43.7685ZM38.358 37.2131H44.6492L41.6109 30.0333L38.358 37.2131Z" fill="#E94D34"/>
<path d="M120.969 26.8624V29.3433C117.799 32.9578 114.447 36.408 111.21 39.9568C110.963 40.2361 110.567 40.6469 110.352 40.9098C110.269 41.0083 110.154 41.0412 110.187 41.2219H121.068V43.7521H106.405L106.24 43.5878V41.1562L116.841 29.8033L117.105 29.2776H106.339V26.846H120.936L120.969 26.8624Z" fill="#E94D34"/>
<path d="M126.733 26.8624H123.314V43.7685H126.733V26.8624Z" fill="#E94D34"/>
<path d="M33.0748 61.9068V49.7653H36.4929V66.5071L36.3278 66.655H32.6951L24.5379 54.7928L24.1251 54.3985V66.5071L23.96 66.655H20.707V49.7653H24.4884L32.7776 61.7261L33.0748 61.9068Z" fill="#E94D34"/>
<path d="M39.4648 49.7653H48.5797C51.8492 49.7653 54.9865 53.0677 55.614 56.1072C56.8524 62.104 53.2362 66.3592 47.1927 66.6714C45.2607 66.77 41.6775 66.885 39.8281 66.6714C39.6795 66.655 39.5474 66.6714 39.4648 66.5071V49.7653ZM42.8829 52.3448V63.9605L43.048 64.1248H47.4238C47.9192 64.1248 49.2732 63.6319 49.7521 63.3691C53.4013 61.3482 53.3518 54.7764 49.6035 52.887C48.1504 52.164 44.8974 51.9998 43.2627 52.1805C43.1141 52.1969 42.982 52.1805 42.8994 52.3448H42.8829Z" fill="#E94D34"/>
<path d="M124.01 66.655H120.757L116.81 59.7874H112.6V66.4907L112.435 66.655H109.182V49.7489H118.94C119.931 49.7489 121.863 50.5047 122.656 51.1454C124.802 52.887 124.687 56.8465 122.441 58.5059C121.731 59.0316 120.972 59.2124 120.162 59.5245L123.993 66.655H124.01ZM112.6 57.3558H117.339C117.553 57.3558 118.296 57.2408 118.577 57.2079C119.617 57.0272 120.575 56.4029 120.707 55.3021C120.856 53.9549 120.476 52.887 119.106 52.4598C118.792 52.3612 117.95 52.1969 117.669 52.1969H112.6V57.3722V57.3558Z" fill="#E94D34"/>
<path d="M182.001 49.7653V52.1805H171.234V56.8301H181.043V59.3767H171.234V64.1248H182.001V66.5071L181.835 66.655H167.982L167.816 66.5071V49.7653H182.001Z" fill="#E94D34"/>
<path d="M147.192 66.655L145.343 62.7119L136.657 62.6462L134.725 66.6714H131.522L131.406 66.4578L138.87 49.8803C138.952 49.7653 139.068 49.7818 139.184 49.7653C139.91 49.6832 141.991 49.6832 142.717 49.7653C142.833 49.7653 142.948 49.7653 143.031 49.8803L150.379 66.6714H147.176L147.192 66.655ZM144.055 60.116L140.917 52.9362L137.764 60.116H144.055Z" fill="#E94D34"/>
<path d="M91.0666 54.3985H87.6485C87.6155 51.1783 81.5719 51.0961 80.1849 52.9691C79.1446 54.3821 80.383 55.5157 81.638 56.0743C84.6267 57.4051 91.7931 57.5365 91.4794 62.1697C91.1161 67.4272 82.4141 67.8379 78.8309 65.9321C77.2622 65.1106 76.0733 63.5005 76.1393 61.6932H79.3923C79.7391 62.4983 79.8546 63.1226 80.5647 63.6976C82.2324 65.0449 87.2522 65.0284 87.9788 62.5969C88.5402 60.7075 86.4926 60.0667 85.0891 59.6395C81.9352 58.6537 75.8421 58.1773 76.4861 53.5441C76.8494 50.9318 80.0363 49.6339 82.381 49.4532C86.0633 49.1739 90.8849 49.8968 91.0666 54.4149V54.3985Z" fill="#E94D34"/>
<path d="M61.3273 49.7653V60.4939C61.3273 64.9956 68.7579 66.1457 70.145 61.5125C70.1945 61.3318 70.3927 60.6089 70.3927 60.4939V49.7653H73.8107C73.6786 53.0184 73.9924 56.4029 73.8107 59.6395C73.5135 65.127 69.5505 67.6736 64.184 66.8357C60.9806 66.3428 57.9258 63.8127 57.9258 60.3624V49.7489H61.3439L61.3273 49.7653Z" fill="#E94D34"/>
<path d="M107.266 49.7653V52.1805H101.47L101.305 52.3448V66.655H98.0519L97.8868 66.5071V52.1805H91.9258V49.7653H107.266Z" fill="#E94D34"/>
<path d="M155.565 49.7653V64.1248H165.802V66.655H152.146V49.7653H155.565Z" fill="#E94D34"/>
<path d="M130.086 49.7653H126.568V66.6714H130.086V49.7653Z" fill="#E94D34"/>
<path d="M17.6192 49.7653H14.2012V66.6714H17.6192V49.7653Z" fill="#E94D34"/>
</g>
<defs>
<clipPath id="clip0_1_2601">
<rect width="182" height="67" fill="white"/>
</clipPath>
</defs>
</svg>
