<svg width="183" height="67" viewBox="0 0 183 67" fill="none" xmlns="http://www.w3.org/2000/svg">
<g clip-path="url(#clip0_1_506)">
<path d="M4.93138 0V2.59588C5.84455 2.53016 6.92376 1.95512 7.78712 1.87298C7.88674 1.87298 7.93655 1.84012 8.00296 1.9387C8.05277 2.00441 8.36823 2.79304 8.40144 2.9409C8.41804 3.02305 8.50106 3.03948 8.38484 3.12163L5.51249 3.89382L7.23922 6.12825L5.97738 6.80186L4.16764 4.79745L2.35789 6.90044L1.17907 6.06253L2.88919 3.89382L0.0168457 3.15449L0.481734 1.85655L3.38729 2.57945V0.115007L3.50351 0H4.94798H4.93138Z" fill="#E94D34"/>
<path d="M50.8888 4.76465V7.26195H40.13V11.8787H49.9424V14.376H40.13V19.1077L40.2462 19.2227H50.8888V21.6379H36.7429V4.76465H50.8888Z" fill="#E94D34"/>
<path d="M161.316 21.6379H157.963L156.02 17.6455H147.453L145.56 21.6379H142.14L149.777 4.79751L153.563 4.76465L153.779 4.8468L161.316 21.6379ZM148.549 15.0825H154.891L151.819 7.96842L151.637 8.01771L148.549 15.0989V15.0825Z" fill="#E94D34"/>
<path d="M73.469 9.46338H70.0819C69.7997 6.67035 66.1304 6.45676 64.0052 7.13038C61.88 7.80399 61.5147 9.70983 63.4407 10.8435C66.3296 12.5522 74.2327 12.3057 73.9007 17.1689C73.5686 22.1142 66.2466 22.5742 62.5939 21.4899C60.2861 20.7998 58.5593 19.1897 58.4597 16.7088H61.8136C61.9962 17.136 62.0294 17.5303 62.2784 17.9739C63.5237 20.1426 69.0691 20.1919 70.1981 18.0889C70.9619 16.6924 70.1151 15.7395 68.8699 15.1645C66.1304 13.8994 59.1737 13.6529 58.825 9.77555C58.4929 6.07888 62.2452 4.6495 65.35 4.46878C68.8699 4.27162 73.3361 5.20811 73.469 9.44695V9.46338Z" fill="#E94D34"/>
<path d="M118.713 4.76465L125.055 18.4998L131.148 4.76465H134.552L126.931 21.6379L122.947 21.6214L115.425 4.76465H118.713Z" fill="#E94D34"/>
<path d="M29.1552 7.26195H18.4129V12.388H28.2254V14.8031H18.4129V21.6379H14.9429V4.87966L15.0591 4.76465H29.0556L29.1552 4.87966V7.26195Z" fill="#E94D34"/>
<path d="M96.8629 4.76465V7.26195H90.9522V21.6379H87.4821V7.26195H81.505V4.76465H96.8629Z" fill="#E94D34"/>
<path d="M172.291 19.2227H182.618V21.6379H168.904V4.76465H172.191L172.291 4.87966V19.2227Z" fill="#E94D34"/>
<path d="M107.838 4.76465H104.451V21.6379H107.838V4.76465Z" fill="#E94D34"/>
<path d="M18.8446 26.8623C21.3351 30.5425 23.7924 34.2556 26.3658 37.8866C26.5817 38.1987 26.8307 38.5931 27.0632 38.8888C27.1296 38.9709 27.0632 39.0859 27.3122 39.0202V26.8623H30.7491V43.7684H27.0466L18.6122 31.6926L18.3133 31.5119V43.7684H15.0425L14.8765 43.6041V26.8623H18.8446Z" fill="#E94D34"/>
<path d="M162.263 39.0046V26.8467H165.7V43.5885L165.533 43.7528H161.997C161.997 43.7528 161.781 43.6213 161.731 43.572L153.679 31.8906L153.264 31.4963V43.5885L153.098 43.7528H149.993L149.827 43.5885V26.8467H153.629L161.897 38.7746L162.263 38.9882V39.0046Z" fill="#E94D34"/>
<path d="M62.843 26.8623C65.3999 27.1087 67.7907 28.5217 68.0398 31.249C68.2888 33.9763 66.7945 36.0629 63.972 36.5886L67.9402 43.7684H64.5697L60.6016 36.9008H56.3678V43.7684H53.0969L52.9309 43.6041V26.8623H62.843ZM56.5172 29.2939L56.3512 29.4582V34.3214L56.5172 34.4856H61.2325C61.4317 34.4856 62.2121 34.3871 62.4777 34.3378C65.2172 33.8449 65.3667 30.2797 62.9094 29.5732C62.5773 29.4746 61.7638 29.3103 61.4649 29.3103H56.5338L56.5172 29.2939Z" fill="#E94D34"/>
<path d="M80.3095 26.8623C82.5842 27.0595 84.9252 28.2095 85.4565 30.559C86.1372 33.5327 84.5932 36.0465 81.5382 36.5886L85.4565 43.5548L85.3403 43.7684H82.1193L78.1511 36.9008H73.9173V43.6041L73.7513 43.7684H70.6465L70.4805 43.6041V26.8623H80.2929H80.3095ZM73.9339 29.2939V34.3049L74.1 34.4692H78.7156C79.0975 34.4692 80.0937 34.3378 80.4922 34.2063C82.6838 33.4999 82.7502 30.3618 80.6582 29.6061C80.3261 29.491 79.3632 29.2939 79.0477 29.2939H73.9505H73.9339Z" fill="#E94D34"/>
<path d="M147.718 35.2911C147.718 40.2364 143.651 44.2452 138.636 44.2452C133.622 44.2452 129.554 40.2364 129.554 35.2911C129.554 30.3457 133.622 26.3369 138.636 26.3369C143.651 26.3369 147.718 30.3457 147.718 35.2911ZM138.005 28.9985C130.584 29.7214 131.663 43.5716 140.247 41.3536C146.124 39.8421 145.527 28.2592 138.005 28.9985Z" fill="#E94D34"/>
<path d="M182.95 26.8623V29.2939H172.274L172.125 29.4418V33.9435H181.921L182.087 34.0913V36.3093L181.921 36.4736H172.125V41.2218H182.95V43.6041L182.784 43.7684H168.854L168.688 43.6041V26.8623H182.95Z" fill="#E94D34"/>
<path d="M101.96 43.7685L100.1 39.8254L91.3672 39.7597L89.4246 43.7849H86.0542L93.6584 26.9281C93.8245 26.8296 97.0621 26.8296 97.4772 26.8624C97.5934 26.8624 97.7096 26.8624 97.7926 26.9774L105.181 43.7849H101.96V43.7685ZM92.4796 37.2131H98.8054L95.6508 30.0333L92.4796 37.2131Z" fill="#E94D34"/>
<path d="M51.3204 43.7688H48.0496L46.1901 39.8092L37.4568 39.7599L35.398 43.7523H32.1272L39.7813 26.8462C40.9601 26.9613 42.4046 26.6984 43.5502 26.8462C43.6664 26.8462 43.7826 26.8462 43.8656 26.9613L51.3204 43.7688ZM38.5692 37.2133H44.895L41.84 30.0336L38.5692 37.2133Z" fill="#E94D34"/>
<path d="M121.635 26.8631V29.344C118.447 32.9585 115.076 36.4087 111.822 39.9575C111.573 40.2368 111.175 40.6476 110.959 40.9104C110.876 41.009 110.76 41.0419 110.793 41.2226H121.734V43.7528H106.991L106.825 43.5885V41.1569L117.484 29.804L117.75 29.2783H106.924V26.8467H121.602L121.635 26.8631Z" fill="#E94D34"/>
<path d="M127.429 26.8623H123.992V43.7684H127.429V26.8623Z" fill="#E94D34"/>
<path d="M33.2563 61.9061V49.7646H36.6932V66.5064L36.5271 66.6543H32.8744L24.6725 54.7921L24.2574 54.3978V66.5064L24.0914 66.6543H20.8206V49.7646H24.6227L32.9575 61.7254L33.2563 61.9061Z" fill="#E94D34"/>
<path d="M39.6816 49.7646H48.8466C52.134 49.7646 55.2886 53.067 55.9195 56.1065C57.1648 62.1033 53.5287 66.3586 47.4519 66.6707C45.5093 66.7693 41.9065 66.8843 40.0469 66.6707C39.8975 66.6543 39.7647 66.6707 39.6816 66.5064V49.7646ZM43.1185 52.3441V63.9598L43.2845 64.1241H47.6844C48.1825 64.1241 49.5439 63.6312 50.0254 63.3684C53.6947 61.3475 53.6449 54.7757 49.876 52.8863C48.4149 52.1634 45.1441 51.9991 43.5004 52.1798C43.3509 52.1962 43.2181 52.1798 43.1351 52.3441H43.1185Z" fill="#E94D34"/>
<path d="M124.69 66.6551H121.419L117.451 59.7875H113.217V66.4908L113.051 66.6551H109.78V49.749H119.593C120.589 49.749 122.531 50.5048 123.328 51.1455C125.487 52.8871 125.371 56.8466 123.112 58.506C122.399 59.0318 121.635 59.2125 120.821 59.5246L124.673 66.6551H124.69ZM113.217 57.3559H117.982C118.198 57.3559 118.945 57.2409 119.227 57.2081C120.273 57.0273 121.236 56.403 121.369 55.3022C121.519 53.955 121.137 52.8871 119.759 52.4599C119.443 52.3613 118.596 52.197 118.314 52.197H113.217V57.3724V57.3559Z" fill="#E94D34"/>
<path d="M183 49.7646V52.1798H172.175V56.8294H182.037V59.376H172.175V64.1241H183V66.5064L182.834 66.6543H168.904L168.738 66.5064V49.7646H183Z" fill="#E94D34"/>
<path d="M148.001 66.6544L146.141 62.7113L137.408 62.6456L135.465 66.6708H132.244L132.128 66.4572L139.633 49.8797C139.716 49.7647 139.832 49.7812 139.948 49.7647C140.679 49.6826 142.771 49.6826 143.501 49.7647C143.617 49.7647 143.734 49.7647 143.817 49.8797L151.205 66.6708H147.984L148.001 66.6544ZM144.846 60.1154L141.691 52.9357L138.52 60.1154H144.846Z" fill="#E94D34"/>
<path d="M91.5665 54.3981H88.1296C88.0964 51.1779 82.0196 51.0958 80.625 52.9688C79.579 54.3817 80.8242 55.5154 82.0861 56.074C85.0912 57.4048 92.297 57.5362 91.9815 62.1693C91.6163 67.4268 82.8664 67.8376 79.2635 65.9317C77.6862 65.1103 76.4908 63.5001 76.5572 61.6929H79.828C80.1767 62.4979 80.2929 63.1223 81.0069 63.6973C82.6838 65.0445 87.7311 65.0281 88.4617 62.5965C89.0262 60.7071 86.9674 60.0664 85.5561 59.6392C82.3849 58.6534 76.2583 58.1769 76.9059 53.5438C77.2711 50.9315 80.4755 49.6335 82.8332 49.4528C86.5357 49.1735 91.3838 49.8964 91.5665 54.4146V54.3981Z" fill="#E94D34"/>
<path d="M61.6641 49.7655V60.494C61.6641 64.9957 69.1356 66.1458 70.5302 61.5126C70.58 61.3319 70.7793 60.609 70.7793 60.494V49.7655H74.2161C74.0833 53.0185 74.3988 56.403 74.2161 59.6397C73.9173 65.1271 69.9325 67.6737 64.5365 66.8358C61.3155 66.3429 58.2439 63.8128 58.2439 60.3626V49.749H61.6807L61.6641 49.7655Z" fill="#E94D34"/>
<path d="M107.854 49.7646V52.1798H102.027L101.861 52.3441V66.6543H98.5897L98.4237 66.5064V52.1798H92.4299V49.7646H107.854Z" fill="#E94D34"/>
<path d="M156.418 49.7646V64.1241H166.712V66.6543H152.982V49.7646H156.418Z" fill="#E94D34"/>
<path d="M130.8 49.7646H127.263V66.6707H130.8V49.7646Z" fill="#E94D34"/>
<path d="M17.7157 49.7646H14.2788V66.6707H17.7157V49.7646Z" fill="#E94D34"/>
</g>
<defs>
<clipPath id="clip0_1_506">
<rect width="183" height="67" fill="white"/>
</clipPath>
</defs>
</svg>
