<svg width="78" height="59" viewBox="0 0 78 59" fill="none" xmlns="http://www.w3.org/2000/svg">
<g clip-path="url(#clip0_43_3063)">
<path d="M41.8503 16.9948V25.5661C44.8239 25.3691 48.338 23.4726 51.1641 23.2016C51.5082 23.177 51.631 23.1031 51.9014 23.4233C52.0734 23.645 53.0564 26.2558 53.1792 26.6991C53.253 26.97 53.4987 27.0439 53.1055 27.2902L43.718 29.8271L49.3456 37.1915L45.2416 39.4328L39.3191 32.7827L33.3966 39.7284L29.5384 36.9698L35.1414 29.8271L25.7539 27.4134L27.253 23.1524L36.7388 25.5415V17.3643L37.132 16.9702H41.8257L41.8503 16.9948Z" fill="#E94D34"/>
<path d="M11.8696 0H0V58.7427H11.8696V0Z" fill="#E94D34"/>
<path d="M78.0239 0H66.1543V58.7427H78.0239V0Z" fill="#E94D34"/>
</g>
<defs>
<clipPath id="clip0_43_3063">
<rect width="78" height="58.7427" fill="white"/>
</clipPath>
</defs>
</svg>
