<svg preserveAspectRatio="none" width="100%" height="100%" overflow="visible" style="display: block;" viewBox="0 0 86 32" fill="none" xmlns="http://www.w3.org/2000/svg">
<g id="_&#208;&#161;&#208;&#187;&#208;&#190;&#208;&#185;_1" clip-path="url(#clip0_4006_1993)">
<g id="Group">
<path id="Vector" d="M78.662 5.71454C77.6516 5.71454 76.8327 6.55439 76.8327 7.5908C76.8327 8.62721 77.6516 9.46705 78.662 9.46705C79.6725 9.46705 80.4913 8.62721 80.4913 7.5908C80.4913 6.55439 79.6725 5.71454 78.662 5.71454Z" fill="var(--fill-0, #E94D34)"/>
<path id="Vector_2" d="M70.5296 8.11972C66.2927 8.11972 62.8467 11.6542 62.8467 16C62.8467 20.3458 66.2927 23.8803 70.5296 23.8803C74.7665 23.8803 78.2125 20.3458 78.2125 16C78.2125 11.6542 74.7665 8.11972 70.5296 8.11972ZM70.5296 21.0498C67.8153 21.0498 65.6063 18.784 65.6063 16C65.6063 13.216 67.8153 10.9538 70.5296 10.9538C73.2439 10.9538 75.4495 13.2196 75.4495 16C75.4495 18.7804 73.2404 21.0498 70.5296 21.0498Z" fill="var(--fill-0, #E94D34)"/>
<path id="Vector_3" d="M76.6307 32H64.1742C59.007 32 54.8014 27.69 54.8014 22.3864V9.61358C54.8014 4.3136 59.0035 0 64.1742 0H76.6307C81.7979 0 86.0035 4.31003 86.0035 9.61358V22.39C86.0035 27.69 81.7979 32.0036 76.6307 32.0036V32ZM64.1742 3.00916C60.6237 3.00916 57.7387 5.97186 57.7387 9.61001V22.3864C57.7387 26.0281 60.6272 28.9873 64.1742 28.9873H76.6307C80.1812 28.9873 83.0662 26.0246 83.0662 22.3864V9.61358C83.0662 5.97186 80.1777 3.01273 76.6307 3.01273H64.1742V3.00916Z" fill="var(--fill-0, #E94D34)"/>
</g>
<path id="Vector_4" d="M15.6167 18.0013L16.4843 12.2082H11.0662V8.44851C11.0662 6.86531 11.8223 5.32142 14.2509 5.32142H16.7143V0.389547C16.7143 0.389547 14.4774 0 12.3415 0C7.87456 0 4.95819 2.77329 4.95819 7.79451V12.2082H0V18.0013H4.95819V32H11.0627V18.0013H15.6132H15.6167Z" fill="var(--fill-0, #E94D34)"/>
</g>
<defs>
<clipPath id="clip0_4006_1993">
<rect width="86" height="32" fill="white"/>
</clipPath>
</defs>
</svg>
