<?xml version="1.0" encoding="UTF-8"?>
<svg id="Livello_2" data-name="Livello 2" xmlns="http://www.w3.org/2000/svg" xmlns:xlink="http://www.w3.org/1999/xlink" viewBox="0 0 978.94 359.54">
  <defs>
    <style>
      .cls-1 {
        fill: none;
      }

      .cls-2 {
        clip-path: url(#clippath-1);
      }

      .cls-3 {
        clip-path: url(#clippath-3);
      }

      .cls-4 {
        clip-path: url(#clippath-4);
      }

      .cls-5 {
        clip-path: url(#clippath-2);
      }

      .cls-6 {
        clip-path: url(#clippath-7);
      }

      .cls-7 {
        clip-path: url(#clippath-6);
      }

      .cls-8 {
        clip-path: url(#clippath-8);
      }

      .cls-9 {
        clip-path: url(#clippath-5);
      }

      .cls-10 {
        fill: #fff;
      }

      .cls-11 {
        clip-path: url(#clippath);
      }
    </style>
    <clipPath id="clippath">
      <rect class="cls-1" width="978.94" height="359.54"/>
    </clipPath>
    <clipPath id="clippath-1">
      <rect class="cls-1" width="978.94" height="359.54"/>
    </clipPath>
    <clipPath id="clippath-2">
      <rect class="cls-1" width="978.94" height="359.54"/>
    </clipPath>
    <clipPath id="clippath-3">
      <rect class="cls-1" width="978.94" height="359.54"/>
    </clipPath>
    <clipPath id="clippath-4">
      <rect class="cls-1" width="978.94" height="359.54"/>
    </clipPath>
    <clipPath id="clippath-5">
      <rect class="cls-1" width="978.94" height="359.54"/>
    </clipPath>
    <clipPath id="clippath-6">
      <rect class="cls-1" width="978.94" height="359.54"/>
    </clipPath>
    <clipPath id="clippath-7">
      <rect class="cls-1" width="978.94" height="359.54"/>
    </clipPath>
    <clipPath id="clippath-8">
      <rect class="cls-1" width="978.94" height="359.54"/>
    </clipPath>
  </defs>
  <g id="Livello_1-2" data-name="Livello 1">
    <g>
      <g class="cls-11">
        <path class="cls-10" d="M163.92,80.49c-8.92,0-16.77,3.04-22.68,8.8l-.33.33c-5.66,5.93-8.67,13.77-8.67,22.7v21.39l-93.99.21c-9.05,0-16.93,3.16-22.84,9.13-5.78,5.82-8.84,13.67-8.84,22.7v105.74c0,8.82,2.93,16.6,8.51,22.51l.67.71-.77.6c-7.82,6.03-12.29,15.1-12.29,24.88v5.24c0,17.33,14.1,31.45,31.45,31.45h296.24c12.69,0,24.09-7.59,29.02-19.31l.37-.89.85.44c9.03,4.81,19.56,7.24,31.31,7.24,31.97,0,46.81-15.87,53.63-29.19,2.35-4.64,4.16-10.07,5.37-16.14l.29-1.39,1.14.87c3.56,2.79,7.82,4.24,12.32,4.24h10.03c2.56,0,5.06-.48,7.45-1.44l1.19-.48.04,1.29c.02,1.21.12,2.27.29,3.22,2.33,12.48,8.82,22.55,18.79,29.12,9.94,6.55,21.99,9.88,35.82,9.88,31.97,0,46.81-15.87,53.63-29.19,2.39-4.74,4.24-10.28,5.45-16.46l.29-1.46,1.14.94c3.43,2.79,7.74,4.33,12.15,4.33h10.84c6.01,0,11.59-2.77,15.29-7.57l.37-.48.58.17c7.97,2.31,16.48,2.29,24.4-.04l.48-.15.37.33c8.88,7.97,20.43,12.17,33.41,12.17,10.38,0,20.12-2.29,28.9-6.82.35-.17.69-.35,1.04-.52l.48-.27.46.33c5.39,3.97,12.21,6.1,19.72,6.1,3.2,0,5.74-.15,7.99-.46.25-.06.35-.08.44-.08l1.02-.17v16.81c0,11.09,9.03,20.1,20.12,20.1h9.76c11.09,0,20.1-9.01,20.1-20.1v-16.95l1.06.21c3.41.62,7.05.94,10.8.94,13.38,0,25.3-4.2,35.47-12.48,2.68-2.21,5.22-4.7,7.49-7.45l1.21-1.44.35,1.83c1.83,9.4,10.13,16.25,19.72,16.25h9.76c6.03,0,11.71-2.7,15.54-7.39l.35-.44.56.12c6.7,1.69,13.79,1.73,20.6.1l.52-.12.35.42c3.85,4.64,9.49,7.3,15.48,7.3h10.24c11.07,0,20.1-9.03,20.1-20.12v-59.68c0-12.27-2-22.45-5.95-30.27-5.6-11-17.77-24.09-43.92-24.09-4.43,0-8.72.42-12.69,1.25l-1.08.23v-16c0-11.09-9.01-20.1-20.1-20.1h-9.76c-11.09,0-20.1,9.01-20.1,20.1v34.66l-1.56-1.69.35-.6h-.1l-.42.4c-10.92-11.94-25.03-18.24-40.8-18.24-8.63,0-16.58,1.75-23.63,5.24l-.42.21-.4-.23c-2.91-1.56-6.2-2.39-9.51-2.39h-9.38c-8.7,0-16.37,5.58-19.1,13.85l-.5,1.52-1.02-1.23c-2.79-3.37-6.16-6.3-10.05-8.67-9.99-6.1-22.53-9.2-37.32-9.2-13.29,0-25.3,3.31-35.66,9.84-.56.35-1.14.75-1.73,1.16l-.81.56-.48-.85c-1.08-1.93-2.43-3.62-4.06-4.99-3.31-2.81-7.53-4.37-11.92-4.37-.46,0-.94.02-1.37.06h-.37c-.79-.06-1.37-.1-1.85-.1-6.82,0-13.27,1.62-19.2,4.78l-.44.23-.44-.25c-2.91-1.66-6.22-2.56-9.59-2.56h-10.01c-6.03,0-11.61,2.77-15.31,7.59l-.67.85-.71-.81c-3.83-4.43-9.36-6.97-15.17-6.97h-8.47c-3.25,0-6.34.77-9.22,2.25l-.37.21-.4-.19c-6.95-3.27-14.71-4.93-23.03-4.93-16.06,0-30.41,6.76-41.54,19.51l-1.25,1.41-.31-1.87c-.5-3.14-1.79-6.16-3.7-8.74l-.4-.52.4-.54c2.62-3.49,3.99-7.66,3.99-11.98v-11.96c0-11.09-9.01-20.1-20.1-20.1h-10.03c-11.09,0-20.12,9.01-20.12,20.1v11.96c0,3.02.69,5.93,2,8.67l1.69,3.49-3.02-2.41c-3.6-2.85-7.93-4.37-12.48-4.37h-8.47c-3.25,0-6.35.77-9.22,2.25l-.4.21-.4-.19c-6.93-3.27-14.69-4.91-23.01-4.91-16.06,0-30.44,6.74-41.54,19.49l-1.25,1.41-.31-1.87c-.52-3.14-1.79-6.16-3.7-8.74l-.42-.52.42-.54c2.6-3.49,3.99-7.66,3.99-11.98v-11.96c0-11.09-9.01-20.1-20.1-20.1h-10.05c-5.62,0-11.05,2.41-14.85,6.62l-.69.75-.64-.77c-3.85-4.49-9.4-7.05-15.27-7.05h-9.13c-11.07,0-20.1,9.01-20.1,20.1v16.31l-1.04-.19c-3.49-.64-7.2-.96-11.05-.96-18.99,0-34.55,7.93-44.96,22.93-2.54,3.64-4.78,7.59-6.66,11.69l-.79,1.71-.81-1.66c-1.48-3.02-3.41-5.7-5.72-7.99-.98-1-2.06-1.93-3.43-2.97l-.96-.73.96-.71c1.37-1.02,2.45-1.93,3.41-2.89,5.89-5.95,9.01-13.85,9.01-22.88v-53.42c0-9.01-3.12-16.93-9.01-22.88-5.82-5.87-13.65-8.95-22.65-8.95M330.36,358.66H34.13c-18.33,0-33.24-14.92-33.24-33.22v-5.24c0-10.03,4.45-19.33,12.23-25.69-5.45-6.14-8.32-14.08-8.32-23.01v-105.74c0-9.51,3.22-17.79,9.34-23.94,6.24-6.32,14.58-9.67,24.09-9.67l92.24-.19v-19.62c0-9.38,3.16-17.66,9.15-23.92.12-.12.25-.25.4-.37,6.24-6.1,14.5-9.32,23.9-9.32s17.75,3.29,23.92,9.49c6.22,6.3,9.53,14.65,9.53,24.13v53.42c0,9.51-3.31,17.85-9.53,24.13-.81.79-1.66,1.56-2.7,2.37,1.04.83,1.91,1.62,2.7,2.43,2.04,2.02,3.79,4.31,5.22,6.84,1.75-3.62,3.79-7.09,6.03-10.36,10.78-15.5,26.82-23.69,46.43-23.69,3.56,0,7.03.27,10.32.81v-14.19c0-12.07,9.82-21.89,21.86-21.89h9.13c6.05,0,11.82,2.54,15.96,6.95,4.1-4.14,9.69-6.49,15.5-6.49h10.05c12.07,0,21.86,9.82,21.86,21.89v11.96c0,4.51-1.37,8.82-3.97,12.52,1.54,2.18,2.66,4.64,3.31,7.22,11.3-12.29,25.67-18.79,41.71-18.79,8.43,0,16.29,1.64,23.38,4.91,2.97-1.48,6.28-2.25,9.63-2.25h8.47c3.95,0,7.74,1.04,11.11,3.04-.71-2.14-1.06-4.37-1.06-6.66v-11.96c0-12.07,9.82-21.89,21.89-21.89h10.03c12.07,0,21.89,9.82,21.89,21.89v11.96c0,4.51-1.37,8.82-3.97,12.52,1.52,2.18,2.64,4.64,3.29,7.22,11.3-12.29,25.69-18.79,41.71-18.79,8.45,0,16.31,1.64,23.38,4.91,2.97-1.48,6.3-2.25,9.63-2.25h8.47c5.97,0,11.67,2.45,15.81,6.78,4.02-4.74,9.8-7.45,16.04-7.45h10.01c3.52,0,6.97.87,10.05,2.54,6.07-3.14,12.67-4.74,19.62-4.74.52,0,1.16.02,1.91.1l.25-.02c.42-.02.94-.04,1.44-.04,4.81,0,9.44,1.71,13.06,4.78,1.54,1.31,2.87,2.87,3.97,4.64.33-.23.69-.46,1.02-.67,10.65-6.72,22.97-10.11,36.59-10.11,15.12,0,27.98,3.16,38.26,9.44,3.6,2.21,6.78,4.87,9.49,7.88,3.33-8.2,11.28-13.61,20.24-13.61h9.38c3.45,0,6.89.83,9.94,2.39,7.2-3.47,15.27-5.24,24.01-5.24,15.64,0,29.69,6.01,40.73,17.39v-30.12c0-12.07,9.82-21.89,21.89-21.89h9.76c12.07,0,21.89,9.82,21.89,21.89v13.81c3.79-.71,7.82-1.08,11.98-1.08,27.04,0,39.67,13.63,45.5,25.07,4.08,8.07,6.14,18.54,6.14,31.08v59.68c0,12.07-9.8,21.89-21.86,21.89h-10.24c-6.32,0-12.32-2.73-16.48-7.51-6.74,1.52-13.71,1.48-20.37-.08-4.18,4.83-10.17,7.59-16.56,7.59h-9.76c-9.84,0-18.43-6.62-21.05-15.94-2.04,2.31-4.26,4.43-6.59,6.35-10.48,8.55-22.8,12.9-36.59,12.9-3.47,0-6.87-.27-10.09-.81v14.83c0,12.07-9.8,21.86-21.86,21.86h-9.76c-12.07,0-21.89-9.8-21.89-21.86v-14.73c-2.21.27-4.66.4-7.68.4-7.68,0-14.69-2.1-20.32-6.12-.19.1-.37.21-.56.29-9.05,4.66-19.04,7.01-29.71,7.01-13.25,0-25.07-4.24-34.24-12.29-7.93,2.25-16.39,2.29-24.36.08-4.04,4.95-9.94,7.78-16.31,7.78h-10.84c-4.33,0-8.59-1.35-12.13-3.85-1.25,5.78-3.04,11-5.33,15.54-7.05,13.75-22.34,30.14-55.21,30.14-14.19,0-26.57-3.41-36.8-10.17-10.38-6.82-17.14-17.31-19.56-30.27-.12-.73-.21-1.48-.27-2.29-2.25.75-4.58,1.14-6.95,1.14h-10.03c-4.43,0-8.65-1.31-12.29-3.81-1.23,5.68-3,10.8-5.24,15.25-7.05,13.75-22.34,30.14-55.21,30.14-11.67,0-22.2-2.35-31.29-6.99-5.41,11.88-17.18,19.51-30.27,19.51"/>
        <path class="cls-10" d="M159.82,79.82h-.02.02M159.78,79.82h-.02.02M173.74,80.92s.06,0,.08.02c-.02-.02-.06-.02-.08-.02M159.76,79.82c-7.45.81-14,3.83-19.12,8.82-.12.12-.25.25-.37.37-.35.37-.69.75-1.02,1.12.33-.37.67-.75,1.02-1.12l.35-.35c5.14-5.01,11.69-8.03,19.14-8.84M173.82,80.95c5.12,1.46,9.65,4.12,13.38,7.86,3.37,3.41,5.85,7.43,7.41,11.9-1.56-4.47-4.04-8.49-7.41-11.9-3.72-3.74-8.26-6.41-13.38-7.86M194.6,100.73s0,.02.02.02c-.02,0-.02-.02-.02-.02M131.38,111.19v.02-.02M196.47,111.88v.44-.44M131.36,112.32v20.51l-93.01.19,93.01-.19v-20.51ZM286.84,133.1h.04-.04ZM318.3,133.56h-.02.02ZM318.26,133.56h-.02.02ZM37.41,133.04c-7.47.15-14.15,2.43-19.58,6.66,5.43-4.22,12.11-6.51,19.58-6.66M301.61,139.22c.4.4.79.81,1.16,1.27.37-.42.77-.81,1.16-1.21-.17.17-.33.35-.52.52l-.64.64-.62-.67c-.19-.19-.37-.37-.54-.56M10.91,147.16v.02-.02M10.91,147.18c-3.43,5.24-5.24,11.57-5.24,18.56,0-6.99,1.81-13.31,5.24-18.56M196.47,112.32v53.42-53.42ZM349.34,154.55v11.98-11.98ZM495.69,154.55v11.98-11.98ZM196.47,166.36v.23-.23M443.68,166.61v.02-.02ZM196.45,166.86v.08-.08M820.18,167.72h.04-.04ZM926.42,167.72h-.04.04ZM820.18,167.72h-.04.04ZM820.24,167.72h.02-.02ZM926.36,167.72h-.04.04ZM820.1,167.72h-.02.02ZM820.3,167.72h.02-.02ZM926.3,167.72h-.02.02ZM820.05,167.72h-.02.02ZM820.34,167.72h.02-.02ZM926.25,167.72h-.04.04ZM819.99,167.72h-.02.02ZM820.39,167.72h.02-.02ZM926.19,167.72h-.02.02ZM819.95,167.72h-.02.02M926.15,167.72h-.02.02ZM819.89,167.72h-.02.02ZM926.09,167.72h-.02.02ZM819.85,167.72h-.02.02ZM926.05,167.72h-.02.02ZM819.8,167.72h-.04.04ZM819.74,167.72h-.02.02ZM819.64,167.72h-.02.02ZM819.6,167.72h-.02.02ZM819.53,167.72h-.02.02ZM819.49,167.72h-.02.02ZM819.39,167.72h-.02.02ZM819.33,167.72v.02-.02M819.28,167.74h-.02.02ZM650.61,168.15h-.04.04ZM650.51,168.15h-.02.02ZM650.47,168.15h-.02.02ZM650.42,168.15h-.02.02ZM650.38,168.15h-.02.02ZM650.34,168.15h-.02.02ZM650.3,168.15h-.02.02ZM650.26,168.15h-.02.02ZM650.22,168.15h-.02.02ZM650.17,168.15h-.02.02M654.13,168.19h-.21.21M652.13,168.22c.12,0,.25.02.4.04-.12-.02-.27-.04-.4-.04M537.61,168.36h.04-.04ZM537.61,168.36h-.04.04ZM537.54,168.36h-.04.04ZM537.67,168.36h.04-.04ZM537.48,168.36h-.02.02ZM537.71,168.36h.04-.04ZM537.44,168.36h-.02.02ZM537.77,168.36h.02-.02ZM537.82,168.36h.04-.04ZM537.88,168.36h.02-.02ZM391.26,168.36h.04-.04ZM391.26,168.36h-.06.06ZM245.53,168.36h.08-.08ZM391.19,168.36h-.04.04ZM391.32,168.36h.02-.02ZM391.13,168.36h-.02.02ZM391.36,168.36h.04-.04ZM245.65,168.36h.04-.04ZM391.42,168.36h.02-.02ZM537.98,168.36h.02-.02ZM391.46,168.36h.04-.04ZM245.74,168.36h.06-.06M391.53,168.36h.02-.02ZM245.84,168.36h.04-.04ZM391.57,168.36h.02-.02ZM391.63,168.36h.02-.02ZM245.92,168.36h.04-.04M538.13,168.36h.02-.02ZM391.67,168.36h.02-.02ZM246.01,168.36h.04-.04ZM246.09,168.36h.04-.04ZM538.27,168.36h.02-.02ZM251.81,168.67h.04-.04M251.89,168.67h.04-.04M913.54,154.09v14.92c.29-.06.58-.12.89-.19l-.89.17v-14.9ZM251.98,168.67c1.62.17,3.2.4,4.76.67l-1.04-.17c-1.23-.21-2.45-.37-3.72-.5M610.94,170.36h-.04.04ZM620.95,170.36h.04-.04ZM610.88,170.36h-.02.02ZM621.01,170.36h.02-.02ZM621.05,170.36h.02-.02ZM621.09,170.36h.02-.02ZM786.23,170.57h.04-.04ZM786.29,170.57h.02-.02ZM776.74,170.57h-.02.02ZM786.33,170.57h.02-.02ZM776.7,170.57h-.02.02ZM786.37,170.57h.02-.02ZM776.64,170.57h-.02.02ZM776.6,170.57h-.02.02ZM802.04,170.61l-.02.02.02-.02M424.27,171.02h-.04.04ZM432.78,171.02h.02-.02ZM432.82,171.02h.02-.02ZM579.09,171.02h.04-.04ZM570.62,171.02h-.04.04ZM579.15,171.02h.02-.02ZM409.6,171.32s.02.02.02.02c0,0,0-.02-.02-.02M630.62,172.83c.12.06.25.12.35.19h.02c1.81-.96,3.68-1.79,5.6-2.48-1.77.62-3.49,1.39-5.18,2.27l-.42.21-.37-.19ZM795.82,172.88c.1.06.23.12.33.19,1.89-.94,3.85-1.75,5.87-2.43-1.87.64-3.7,1.39-5.47,2.25l-.4.19-.33-.19ZM665.05,171.5c.56.4,1.12.81,1.66,1.27.21.17.42.35.62.54-.21-.19-.42-.37-.62-.54-.54-.46-1.1-.87-1.66-1.27M667.34,173.33h.02-.02M555.35,171.11c1.93.64,3.83,1.39,5.66,2.25.08-.04.17-.08.27-.12l-.27.12-.4-.17c-1.71-.79-3.47-1.48-5.26-2.08M409.65,171.34c1.71.58,3.37,1.27,4.99,2.02.15-.06.29-.12.44-.21-.02.02-.04.02-.06.02l-.37.19-.37-.17c-1.5-.71-3.04-1.31-4.62-1.85M432.86,171.02c3.6.02,7.07.96,10.15,2.7-3.12-1.77-6.53-2.68-10.15-2.7M443.47,174c.79.48,1.56,1,2.29,1.58-.64-1.35-1.14-2.73-1.5-4.14.12.5.27.98.42,1.46l.73,2.25-1.93-1.14ZM239.87,168.61c-9.32.79-17.7,3.6-24.94,8.28,7.24-4.68,15.62-7.49,24.94-8.28M214.89,176.91s-.06.04-.08.06c.02-.02.06-.04.08-.06M214.72,177.02s-.04.02-.04.04c0-.02.02-.02.04-.04M214.57,177.12s-.04.02-.06.04c.02-.02.04-.02.06-.04M214.12,177.41s-.02.02-.04.04c.02-.02.04-.02.04-.04M739.9,172.65c2.37,1.04,4.62,2.21,6.76,3.52.71.44,1.39.87,2.08,1.35-.69-.48-1.37-.92-2.08-1.35-2.14-1.31-4.39-2.48-6.76-3.52M748.74,177.51s0,.02.02.02t-.02-.02M670.54,177.29c.15.23.29.48.42.71.6-.42,1.19-.81,1.77-1.19,10.53-6.62,22.68-9.96,36.14-9.96-13.46,0-25.61,3.35-36.14,9.96-.31.21-.64.44-.98.67l-.77.52-.44-.71ZM593.34,176.64c.56.5,1.08,1.06,1.58,1.64.19-.23.37-.46.54-.67l-.54.62-.67-.71c-.29-.31-.6-.6-.92-.89M491.51,179.03h0c.1.15.19.27.29.4l-.27-.4.35-.5c.27-.4.54-.79.77-1.21-.35.58-.73,1.16-1.14,1.71M753.92,181.8h.02-.02M776.57,170.57c-7.84.1-14.85,4.49-18.39,11.4,3.52-6.87,10.53-11.3,18.39-11.4M492.34,180.24c.89,1.39,1.62,2.91,2.18,4.47-.56-1.56-1.27-3.06-2.18-4.47M753.96,181.82c1.04,1.02,2.02,2.08,2.95,3.2.12-.42.27-.81.44-1.21l-.48,1.12-.94-1.06c-.64-.71-1.29-1.39-1.98-2.06M498.08,185.25l-.02.02.02-.02M857.54,182.17c1.19,1.08,2.35,2.23,3.47,3.43h.02l-.75-.77c-.89-.92-1.81-1.81-2.75-2.66M495.09,186.71c.12.48.23.96.31,1.46.87-1,1.75-1.96,2.66-2.89-.5.52-1.02,1.04-1.5,1.58l-1.12,1.23-.35-1.37ZM345.16,179.03h0c2,2.68,3.33,5.85,3.87,9.13.37-.42.75-.83,1.12-1.25l-1.06,1.16-.4-1.6c-.62-2.5-1.71-4.83-3.18-6.93l-.35-.52.29-.4c-.1.15-.21.27-.29.4M183.68,192.24c.29.21.56.42.83.62l-.79-.62.81-.64c-.27.21-.56.42-.85.64M191.63,200.88c.54.85,1.02,1.73,1.48,2.64.21-.48.44-.96.67-1.41l-.64,1.33-.83-1.48c-.21-.35-.44-.73-.67-1.08M970.38,190.91c.27.46.5.94.75,1.39,2.64,5.22,4.41,11.48,5.33,18.68-.92-7.2-2.68-13.46-5.33-18.68-.23-.46-.48-.92-.75-1.39M976.45,210.99v.02-.02M5.67,271.48v.06-.06ZM5.67,271.57v.02-.02ZM5.67,271.63v.02-.02ZM5.67,271.73v.02-.02ZM12.12,291.87c.52.71,1.08,1.39,1.66,2.04l.62.69-.73.58c-.25.21-.48.42-.73.62.48-.42.96-.81,1.46-1.21h.02-.02c-.81-.85-1.58-1.77-2.29-2.73M637.78,295.51c-.08.1-.17.21-.25.31l.25-.31.44.12c-.15-.04-.29-.08-.44-.12M12.95,295.8l-.02.02.02-.02M908.78,295.95c-.27.33-.54.67-.83.98.17-.19.33-.37.5-.56l.35-.42.31.08c-.1-.02-.21-.04-.33-.08M662.68,295.45l.37.31c.46.42.94.81,1.41,1.21-.6-.5-1.21-1-1.79-1.52-.4.12-.81.23-1.23.33.25-.06.52-.12.77-.21l.46-.12ZM664.47,296.97s.02.02.04.02t-.04-.02M664.53,297.03h.02-.02M929.79,296.05l.35.4c.31.35.62.69.96,1.02-.46-.44-.89-.92-1.29-1.41-.6.12-1.19.27-1.79.37.42-.08.83-.17,1.25-.27l.52-.1ZM931.1,297.49h.02-.02M598.23,298.94l1.1.77c.19.15.37.27.58.4-.58-.37-1.14-.79-1.69-1.23-.08.4-.15.77-.23,1.14l.23-1.08ZM727.04,300.4h0c-.21.08-.4.19-.58.29l.58-.29.31.23c-.1-.08-.21-.17-.31-.23M451.79,299.28l1.1.73c.46.33.96.64,1.46.92-.89-.5-1.75-1.06-2.56-1.71-.08.42-.17.83-.25,1.25l.25-1.19ZM482.46,302.19l.06,1.1c-.02-.35-.04-.75-.04-1.14-.33.12-.69.27-1.02.37l1-.33ZM621.86,303.42h-.02.02ZM610.94,303.42h10.88-10.88ZM474.82,303.65h-.02.02ZM474.76,303.65h-.02.02ZM464.67,303.65h10.07-10.07ZM882.67,303.67h.02-.02ZM945.89,303.67h.02-.02ZM892.64,303.67h-.02.02ZM882.73,303.67h.02-.02ZM882.78,303.67h9.82-9.82ZM945.93,303.67h10.26c11.57,0,20.99-9.42,20.99-20.99v-59.71,59.71c0,11.57-9.42,20.99-20.99,20.99h-10.26ZM450.19,305.75s0,.02-.02.02t.02-.02M450.17,305.81v.04-.04M450.15,305.87v.04-.04M450.13,305.93v.04-.04M747.05,306.66h.02-.02ZM755.85,306.1l-.29.06c-2.43.33-4.97.48-8.13.5,2.93-.02,5.28-.12,7.43-.4l1-.17ZM747.43,306.66h-.02.02ZM747.2,306.66h.02-.02ZM747.39,306.66h-.02.02ZM747.24,306.66h.08-.08ZM812.46,306.68h.04-.04M812.54,306.68h.02-.02M812.63,306.68h.02-.02M817.97,306.95h.02-.02ZM818.06,306.95h.04-.04ZM818.14,306.95h.04-.04ZM818.22,306.95h.04-.04ZM818.31,306.95h.04-.04ZM818.39,306.95h.06-.06ZM818.47,306.95h.08c13.58,0,25.69-4.26,36.03-12.69,2.29-1.87,4.47-3.97,6.49-6.24l1.08-1.23.37,1.35c-.12-.48-.23-.96-.33-1.44-2.31,2.77-4.89,5.33-7.61,7.55-10.34,8.43-22.45,12.69-36.03,12.69h-.08ZM696.38,307.85h.04-.04ZM696.46,307.85h.04-.04ZM696.54,307.85h.04-.04ZM696.63,307.85h.06c7.66,0,14.96-1.23,21.8-3.66-6.84,2.43-14.15,3.66-21.8,3.66h-.06ZM1.78,320.08v.02-.02ZM1.78,320.14v.04-.04ZM596.4,306.25c-1.02,3.37-2.27,6.49-3.7,9.34-1.56,3.06-3.56,6.26-6.07,9.36,2.52-3.1,4.51-6.3,6.07-9.36,1.44-2.85,2.68-5.97,3.7-9.34M495.36,329.9c2,1.96,4.2,3.74,6.62,5.33,1.5,1,3.04,1.91,4.64,2.75-1.6-.83-3.14-1.75-4.64-2.75-2.41-1.58-4.62-3.37-6.62-5.33M360.2,337.91c-.12.29-.25.56-.37.85l.37-.83.6.31c-.19-.1-.4-.21-.6-.33M450.11,305.97c-1.04,3.47-2.29,6.7-3.77,9.61-5.28,10.32-15.31,22.16-34.16,27.19,18.85-5.03,28.87-16.87,34.16-27.19,1.48-2.91,2.73-6.12,3.77-9.61M412.16,342.78s-.02.02-.04.02c.02,0,.02-.02.04-.02M412.06,342.82h-.02.02M755.85,321.87c0,11.59,9.4,20.99,20.99,20.99h9.76c11.57,0,20.99-9.4,20.99-20.99v-15.85l1.02.17c1.25.21,2.52.35,3.81.48-1.64-.15-3.27-.37-4.83-.67v15.87c0,11.59-9.42,20.99-20.99,20.99h-9.76c-11.59,0-20.99-9.4-20.99-20.99M390.9,345.25h.02-.02ZM391.11,345.25h.02-.02M391.17,345.25h.02-.02ZM391.24,345.25h.02-.02ZM391.32,345.25h.02-.02ZM391.38,345.25h.02-.02ZM391.44,345.25h.02-.02M391.51,345.25h.04-.04ZM391.59,345.25h.02-.02ZM391.65,345.25h.04-.04M391.71,345.25h.04-.04ZM391.8,345.25h.02-.02ZM391.86,345.25h.67-.67M163.92,81.38c-8.7,0-16.31,2.95-22.05,8.55l-.33.31c-5.49,5.76-8.4,13.4-8.4,22.07v22.28l-94.88.21c-8.8,0-16.48,3.06-22.22,8.86-5.62,5.66-8.57,13.29-8.57,22.07v105.74c0,8.59,2.85,16.16,8.26,21.91l1.33,1.41-1.54,1.21c-7.59,5.87-11.96,14.67-11.96,24.17v5.24c0,16.85,13.73,30.56,30.58,30.56h296.24c12.34,0,23.4-7.36,28.19-18.76l.75-1.79,1.73.92c8.9,4.72,19.31,7.14,30.89,7.14,31.52,0,46.12-15.62,52.84-28.71,2.31-4.58,4.1-9.92,5.3-15.91l.56-2.81,2.27,1.77c3.41,2.66,7.47,4.06,11.77,4.06h10.03c2.43,0,4.83-.46,7.11-1.37l2.39-.96.04,2.56c.04,1.16.12,2.18.29,3.1,2.27,12.23,8.63,22.11,18.41,28.54,9.78,6.45,21.68,9.72,35.32,9.72,31.54,0,46.14-15.6,52.84-28.69,2.37-4.66,4.18-10.13,5.37-16.23l.58-2.89,2.29,1.85c3.27,2.66,7.39,4.12,11.59,4.12h10.84c5.74,0,11.05-2.62,14.58-7.2l.75-.98,1.16.35c7.82,2.27,16.1,2.25,23.9-.06l.96-.29.73.67c8.72,7.82,20.08,11.96,32.83,11.96,10.26,0,19.83-2.27,28.48-6.72.35-.19.69-.35,1.02-.54l1-.52.89.67c5.24,3.87,11.88,5.91,19.2,5.91,3.16,0,5.66-.12,7.88-.44.23-.04.31-.06.4-.08l2.06-.33v17.85c0,10.59,8.61,19.22,19.22,19.22h9.76c10.59,0,19.2-8.63,19.2-19.22v-17.99l2.1.37c3.37.62,6.95.94,10.65.94,13.17,0,24.9-4.14,34.91-12.29,2.64-2.16,5.14-4.64,7.39-7.32l2.39-2.87.71,3.66c1.75,8.99,9.67,15.52,18.85,15.52h9.76c5.76,0,11.19-2.56,14.85-7.05l.73-.87,1.08.27c6.57,1.64,13.56,1.66,20.18.1l1.06-.27.71.85c3.68,4.43,9.07,6.97,14.79,6.97h10.24c10.59,0,19.2-8.61,19.2-19.2v-59.71c0-12.13-1.98-22.18-5.85-29.87-5.49-10.76-17.43-23.59-43.13-23.59-4.37,0-8.59.42-12.5,1.23l-2.14.46v-17.1c0-10.59-8.63-19.2-19.22-19.2h-9.76c-10.59,0-19.22,8.61-19.22,19.2v36.97l-3.52-3.87c-10.69-11.59-24.49-17.68-39.88-17.68-8.49,0-16.31,1.73-23.24,5.14l-.83.42-.79-.44c-2.79-1.5-5.93-2.29-9.09-2.29h-9.38c-8.32,0-15.64,5.33-18.24,13.23l-1.02,3.06-2.04-2.48c-2.73-3.29-6.03-6.14-9.82-8.49-9.84-6.01-22.24-9.05-36.86-9.05-13.13,0-24.96,3.27-35.18,9.69-.56.35-1.12.75-1.71,1.14l-1.62,1.14-.96-1.73c-1-1.85-2.31-3.43-3.85-4.74-3.47-2.95-8.13-4.43-12.65-4.1h-.44c-.83-.06-1.39-.08-1.85-.08-6.68,0-12.98,1.56-18.79,4.66l-.87.46-.85-.5c-2.77-1.58-5.93-2.43-9.15-2.43h-10.01c-5.74,0-11.07,2.64-14.6,7.24l-1.31,1.73-1.44-1.64c-3.66-4.22-8.95-6.66-14.5-6.66h-8.47c-3.1,0-6.05.73-8.8,2.14l-.77.42-.81-.37c-6.82-3.2-14.44-4.83-22.63-4.83-15.79,0-29.94,6.62-40.88,19.18l-2.48,2.85-.62-3.72c-.48-3.02-1.71-5.91-3.54-8.36l-.79-1.06.79-1.06c2.5-3.35,3.83-7.3,3.83-11.44v-11.98c0-10.59-8.63-19.2-19.22-19.2h-10.03c-10.61,0-19.22,8.61-19.22,19.2v11.98c0,2.85.64,5.66,1.91,8.28l3.37,6.99-6.07-4.83c-3.43-2.73-7.55-4.18-11.92-4.18h-8.47c-3.1,0-6.07.73-8.8,2.14l-.79.42-.79-.37c-6.82-3.2-14.44-4.83-22.63-4.83-15.81,0-29.94,6.64-40.88,19.18l-2.5,2.85-.6-3.72c-.5-3.02-1.73-5.91-3.56-8.36l-.79-1.06.79-1.06c2.52-3.35,3.83-7.3,3.83-11.44v-11.98c0-10.59-8.61-19.2-19.2-19.2h-10.05c-5.37,0-10.55,2.31-14.21,6.32l-1.35,1.5-1.31-1.54c-3.66-4.29-8.99-6.74-14.58-6.74h-9.13c-10.59,0-19.2,8.61-19.2,19.2v17.39l-2.1-.4c-3.43-.62-7.09-.94-10.88-.94-18.7,0-33.99,7.78-44.23,22.53-2.52,3.62-4.72,7.51-6.57,11.59l-1.56,3.39-1.66-3.35c-1.41-2.91-3.29-5.51-5.53-7.74-.96-.98-2.02-1.89-3.35-2.91l-1.89-1.44,1.89-1.41c1.35-.98,2.39-1.87,3.33-2.81,5.72-5.78,8.76-13.46,8.76-22.26v-53.42c0-8.76-3.04-16.46-8.76-22.24-5.66-5.7-13.27-8.7-22.03-8.7M1.78,325.43c0,17.83,14.5,32.35,32.35,32.35h296.24H34.13c-17.85,0-32.35-14.52-32.35-32.35M330.36,359.54H34.13C15.3,359.54,0,344.23,0,325.43v-5.24c0-9.92,4.31-19.28,11.86-25.78-5.22-6.22-7.97-14.13-7.97-22.93v-105.74c0-9.74,3.33-18.22,9.61-24.57,6.41-6.49,14.96-9.92,24.71-9.92l91.35-.19v-18.74c0-9.61,3.27-18.1,9.42-24.53.12-.12.25-.27.4-.42,6.41-6.24,14.9-9.55,24.53-9.55s18.2,3.37,24.55,9.74c6.41,6.47,9.78,15.04,9.78,24.76v53.42c0,9.76-3.37,18.31-9.78,24.76-.58.6-1.23,1.16-1.91,1.77.71.58,1.35,1.19,1.93,1.81,1.69,1.66,3.2,3.56,4.49,5.6,1.6-3.14,3.41-6.16,5.39-9.01,10.94-15.75,27.25-24.07,47.16-24.07,3.25,0,6.41.23,9.42.67v-13.17c0-12.54,10.21-22.76,22.76-22.76h9.13c5.95,0,11.73,2.39,15.98,6.57,4.2-3.89,9.8-6.12,15.48-6.12h10.05c12.54,0,22.76,10.21,22.76,22.76v11.98c0,4.45-1.31,8.78-3.79,12.5,1.12,1.71,2.02,3.54,2.64,5.49,11.3-11.75,25.55-17.93,41.29-17.93,8.4,0,16.27,1.62,23.36,4.81,3-1.41,6.32-2.14,9.65-2.14h8.47c3.37,0,6.7.75,9.69,2.18-.35-1.62-.54-3.27-.54-4.91v-11.98c0-12.54,10.21-22.76,22.78-22.76h10.03c12.54,0,22.76,10.21,22.76,22.76v11.98c0,4.45-1.31,8.78-3.79,12.5,1.12,1.71,2.02,3.54,2.64,5.49,11.32-11.75,25.55-17.93,41.29-17.93,8.4,0,16.27,1.62,23.36,4.81,3.02-1.41,6.32-2.14,9.65-2.14h8.47c5.85,0,11.55,2.31,15.77,6.37,4.14-4.49,9.96-7.03,16.08-7.03h10.01c3.49,0,6.97.83,10.05,2.43,6.1-3.08,12.69-4.64,19.62-4.64.54,0,1.21.02,2,.08h.17c.37-.02.89-.04,1.44-.04,5.01,0,9.86,1.77,13.65,4.99,1.37,1.16,2.6,2.54,3.64,4.08.1-.06.19-.12.29-.19,10.8-6.8,23.28-10.26,37.07-10.26,15.29,0,28.31,3.22,38.71,9.59,3.27,2,6.2,4.37,8.76,7.05,3.77-7.88,11.67-12.9,20.51-12.9h9.38c3.43,0,6.87.79,9.94,2.29,7.22-3.41,15.29-5.14,24.01-5.14,15.14,0,28.87,5.58,39.86,16.12v-27.98c0-12.54,10.21-22.76,22.76-22.76h9.76c12.54,0,22.76,10.21,22.76,22.76v12.77c3.54-.6,7.28-.92,11.11-.92,27.5,0,40.34,13.9,46.29,25.55,4.14,8.2,6.24,18.79,6.24,31.48v59.71c0,12.54-10.21,22.76-22.76,22.76h-10.24c-6.39,0-12.48-2.7-16.79-7.43-6.49,1.39-13.29,1.35-19.74-.08-4.31,4.78-10.44,7.51-16.87,7.51h-9.76c-9.63,0-18.22-6.14-21.43-15.1-1.79,1.91-3.68,3.7-5.66,5.3-10.65,8.7-23.15,13.11-37.15,13.11-3.16,0-6.24-.23-9.2-.64v13.77c0,12.57-10.21,22.76-22.76,22.76h-9.76c-12.57,0-22.78-10.19-22.78-22.76v-13.73c-1.98.21-4.16.29-6.78.29-7.66,0-14.69-2.06-20.39-5.97l-.1.06c-9.15,4.7-19.28,7.09-30.1,7.09-13.27,0-25.19-4.2-34.45-12.19-7.8,2.12-16.02,2.14-23.82.1-4.2,4.87-10.24,7.66-16.64,7.66h-10.84c-4.04,0-8.09-1.16-11.55-3.29-1.23,5.37-2.95,10.24-5.12,14.48-7.16,13.98-22.68,30.64-56,30.64-14.35,0-26.9-3.47-37.28-10.32-10.59-6.97-17.5-17.64-19.95-30.85-.06-.42-.12-.83-.19-1.29-2,.58-4.08.87-6.16.87h-10.03c-4.16,0-8.18-1.12-11.69-3.27-1.25,5.26-2.95,10.05-5.06,14.21-7.16,13.98-22.7,30.64-56,30.64-11.46,0-21.84-2.25-30.87-6.68-5.7,11.69-17.64,19.2-30.68,19.2"/>
        <path class="cls-10" d="M733.9,91.27c.17-1.33.27-2.68.27-4.08,0-15.5-12.48-26.25-27.96-28.81v-.37c15.87-5.1,23.59-14.96,23.59-27.54,0-16.23-15.25-29.54-42.81-29.54-16.64,0-32.12,4.37-39.84,8.92l6.14,20.08c5.35-2.91,16.46-7.11,26.96-7.11,12.69,0,19.03,5.28,19.03,12.4,0,10.03-12.9,13.5-23.01,13.69h-11.69v19.87h12.29c13.29,0,25.96,5.3,25.96,16.98,0,8.95-7.93,15.87-23.59,15.87-12.27,0-24.57-4.74-29.94-7.3l-6.14,20.8c7.53,4.37,21.61,8.38,38.26,8.38,1.25,0,2.43-.06,3.64-.1,4.81-4.24,16.25-14.17,22.2-17.93,8.57-5.39,17.47-10.07,26.63-14.19"/>
        <path class="cls-10" d="M644.26,114.66c7.05,3.89,20.3,7.93,37.18,7.93.94,0,1.83-.04,2.73-.08l.56-.02c4.85-4.26,16.14-14.06,22.07-17.79,8.05-5.08,16.89-9.8,26.25-14.04.15-1.19.21-2.33.21-3.47,0-14-10.92-25.23-27.19-27.92l-.75-.12v-1.79l.62-.21c15.02-4.85,22.97-14.06,22.97-26.67,0-17.14-16.85-28.65-41.92-28.65-16.43,0-31.14,4.18-38.78,8.45l5.62,18.33c5.33-2.7,15.94-6.7,26.42-6.7,12.29,0,19.93,5.1,19.93,13.29,0,10.46-12.86,14.4-23.88,14.6h-10.8v18.06h11.38c13.38,0,26.88,5.53,26.88,17.87,0,8.11-6.43,16.79-24.51,16.79-12.86,0-25.28-5.1-29.35-6.95l-5.64,19.1ZM681.44,124.4c-17.75,0-31.64-4.39-38.71-8.51l-.62-.37,6.66-22.49.96.46c2.52,1.21,15.81,7.2,29.54,7.2s22.7-5.72,22.7-14.96c0-11.84-13.5-16.04-25.07-16.04h-13.21v-21.72h12.61c10.19-.17,22.09-3.64,22.09-12.77,0-7.18-6.78-11.48-18.12-11.48s-21.76,4.41-26.52,7.01l-.98.52-6.7-21.8.62-.37C654.33,4.55,669.77,0,686.99,0c30.21,0,43.73,15.31,43.73,30.48,0,12.73-7.49,22.22-21.7,27.52,15.71,3.58,26.07,15.04,26.07,29.19,0,1.37-.1,2.75-.29,4.2l-.06.5-.46.21c-9.49,4.26-18.39,9.03-26.52,14.15-5.91,3.72-17.41,13.71-22.07,17.83l-.25.21-1.21.06c-.92.02-1.83.06-2.79.06"/>
        <path class="cls-10" d="M773.61,62.38c-.21-27.54,7.34-40.48,18.43-40.48,12.11,0,18.24,13.85,18.24,40.11,0,3.54-.12,6.82-.33,9.9,9.99-.83,20.01-1.08,30.02-.67.27-3.1.46-6.28.46-9.59,0-32.47-13.5-60.75-47.99-60.75s-49.16,27.19-49.16,61.47c.04,8.4,1,16.46,2.93,23.76,9.22-3.49,18.64-6.37,28.23-8.63-.58-4.45-.87-9.44-.83-15.12"/>
        <path class="cls-10" d="M792.45,1.83c-35.59,0-48.26,31.27-48.26,60.56.04,8.09.94,15.69,2.66,22.55,8.57-3.2,17.52-5.95,26.59-8.13-.52-4.39-.77-9.24-.73-14.42-.12-18.04,3.08-30.87,9.28-37.11,2.83-2.85,6.22-4.31,10.07-4.31,12.69,0,19.14,13.81,19.14,41.04,0,3.08-.08,6.05-.25,8.88,9.57-.73,19.06-.94,28.21-.58.25-3.18.35-5.95.35-8.65,0-54.01-32.91-59.83-47.06-59.83M745.6,87.36l-.25-.98c-1.93-7.26-2.93-15.33-2.97-23.99C742.38,23.91,761.56,0,792.45,0s48.89,23.05,48.89,61.66c0,3-.15,6.07-.46,9.67l-.06.87-.87-.04c-9.67-.42-19.74-.19-29.92.64l-1.06.08.08-1.06c.21-3.1.33-6.41.33-9.82,0-17.89-3.02-39.21-17.33-39.21-3.35,0-6.3,1.27-8.78,3.77-5.85,5.89-8.88,18.27-8.76,35.8v.02c-.04,5.43.25,10.48.83,15l.1.81-.81.19c-9.61,2.29-19.06,5.18-28.11,8.61l-.94.35Z"/>
        <path class="cls-10" d="M748.02,149.97h-3v-10.24h-3.49v-2c.94-.04,1.58-.1,1.93-.19.6-.12,1.08-.4,1.44-.77.25-.27.46-.62.58-1.08.06-.25.1-.46.1-.58h2.43v14.85Z"/>
        <path class="cls-10" d="M756.18,137.86c-.56.44-.85,1.16-.85,2.23,0,.87.19,1.54.54,1.98.35.44.92.67,1.66.67.4,0,.77-.12,1.12-.35.67-.42,1-1.16,1-2.21,0-.83-.19-1.5-.58-2-.4-.5-.94-.73-1.62-.73-.5,0-.92.12-1.27.42M757.2,150.4c-1.12,0-2.12-.33-3-.98-.89-.67-1.39-1.62-1.54-2.89h2.91c.06.44.25.79.56,1.06.29.27.69.42,1.19.42.98,0,1.64-.54,2.04-1.6.21-.58.35-1.44.4-2.58-.27.33-.54.6-.85.77-.54.33-1.21.5-2.02.5-1.19,0-2.23-.42-3.14-1.23-.92-.81-1.37-2-1.37-3.54s.46-2.87,1.37-3.85c.92-1,2.12-1.5,3.58-1.5,2.27,0,3.83,1,4.66,3.02.48,1.12.71,2.62.71,4.47s-.23,3.29-.69,4.49c-.87,2.29-2.48,3.43-4.81,3.43"/>
        <path class="cls-10" d="M767.85,137.86c-.56.44-.85,1.16-.85,2.23,0,.87.19,1.54.54,1.98.35.44.92.67,1.66.67.4,0,.77-.12,1.14-.35.64-.42.98-1.16.98-2.21,0-.83-.19-1.5-.58-2-.4-.5-.94-.73-1.62-.73-.5,0-.92.12-1.27.42M768.87,150.4c-1.12,0-2.12-.33-3-.98-.89-.67-1.39-1.62-1.54-2.89h2.91c.06.44.25.79.56,1.06.29.27.69.42,1.21.42.96,0,1.62-.54,2.02-1.6.21-.58.35-1.44.4-2.58-.27.33-.54.6-.85.77-.54.33-1.21.5-2.02.5-1.19,0-2.23-.42-3.14-1.23-.92-.81-1.37-2-1.37-3.54s.46-2.87,1.37-3.85c.92-1,2.12-1.5,3.6-1.5,2.25,0,3.81,1,4.64,3.02.48,1.12.73,2.62.73,4.47s-.23,3.29-.69,4.49c-.87,2.29-2.5,3.43-4.83,3.43"/>
        <path class="cls-10" d="M780.68,142.59c-.35,0-.67.04-.92.12-.46.17-.81.48-1.04.92l-2.62-.12,1.04-8.2h8.2v2.48h-6.07l-.54,3.25c.46-.29.79-.48,1.06-.58.42-.15.94-.23,1.54-.23,1.23,0,2.31.42,3.22,1.23.92.83,1.37,2.04,1.37,3.62,0,1.37-.44,2.6-1.33,3.66-.87,1.08-2.18,1.62-3.95,1.62-1.41,0-2.58-.37-3.47-1.12-.92-.77-1.41-1.85-1.52-3.22h2.91c.1.62.33,1.12.67,1.46.31.35.79.52,1.44.52.71,0,1.27-.25,1.64-.77.37-.5.56-1.14.56-1.91s-.17-1.39-.52-1.91c-.35-.52-.92-.79-1.66-.79"/>
      </g>
      <rect class="cls-10" x="787.22" y="142.73" width="5.89" height="2.77"/>
      <g class="cls-2">
        <path class="cls-10" d="M801.04,138.14c-.35-.42-.85-.62-1.5-.62-.89,0-1.5.33-1.81,1-.19.37-.29.98-.33,1.81h-2.83c.04-1.25.27-2.27.69-3.06.77-1.48,2.16-2.23,4.14-2.23,1.58,0,2.83.44,3.74,1.31.94.87,1.39,2.02,1.39,3.45,0,1.1-.31,2.08-.98,2.93-.44.56-1.14,1.21-2.12,1.89l-1.16.83c-.73.52-1.23.89-1.5,1.12s-.5.5-.69.81h6.49v2.58h-10.17c.02-1.06.25-2.04.69-2.93.42-.98,1.39-2.02,2.95-3.14,1.33-.96,2.21-1.64,2.6-2.06.6-.64.92-1.37.92-2.14,0-.62-.17-1.14-.52-1.56"/>
        <path class="cls-10" d="M812.89,146.59c.27-.89.4-2.21.4-3.91s-.12-3.12-.4-3.97-.83-1.29-1.71-1.29-1.44.44-1.73,1.29c-.27.85-.42,2.18-.42,3.97s.15,3.02.42,3.91c.29.92.85,1.37,1.73,1.37s1.44-.46,1.71-1.37M811.19,150.34c-1.89,0-3.22-.67-3.97-2-.77-1.31-1.14-3.2-1.14-5.66s.37-4.35,1.14-5.68c.75-1.33,2.08-2,3.97-2s3.22.67,3.99,2c.75,1.33,1.12,3.22,1.12,5.68s-.37,4.35-1.14,5.66c-.75,1.33-2.08,2-3.97,2"/>
        <path class="cls-10" d="M824.37,138.14c-.35-.42-.85-.62-1.5-.62-.89,0-1.5.33-1.81,1-.19.37-.29.98-.33,1.81h-2.83c.04-1.25.27-2.27.69-3.06.77-1.48,2.16-2.23,4.14-2.23,1.58,0,2.83.44,3.74,1.31.94.87,1.39,2.02,1.39,3.45,0,1.1-.31,2.08-.98,2.93-.44.56-1.14,1.21-2.12,1.89l-1.16.83c-.73.52-1.23.89-1.5,1.12s-.5.5-.69.81h6.49v2.58h-10.17c.02-1.06.25-2.04.69-2.93.42-.98,1.39-2.02,2.95-3.14,1.33-.96,2.21-1.64,2.6-2.06.6-.64.92-1.37.92-2.14,0-.62-.17-1.14-.52-1.56"/>
        <path class="cls-10" d="M834.34,142.59c-.35,0-.67.04-.92.12-.46.17-.81.48-1.04.92l-2.62-.12,1.04-8.2h8.2v2.48h-6.1l-.52,3.25c.44-.29.79-.48,1.06-.58.42-.15.94-.23,1.54-.23,1.23,0,2.31.42,3.22,1.23.92.83,1.37,2.04,1.37,3.62,0,1.37-.46,2.6-1.33,3.66-.87,1.08-2.21,1.62-3.95,1.62-1.41,0-2.58-.37-3.49-1.12-.89-.77-1.39-1.85-1.5-3.22h2.89c.12.62.35,1.12.67,1.46.33.35.81.52,1.46.52.71,0,1.27-.25,1.64-.77.37-.5.56-1.14.56-1.91s-.17-1.39-.52-1.91c-.35-.52-.92-.79-1.66-.79"/>
      </g>
      <polygon class="cls-10" points="778.35 111.76 775.33 118.34 772.21 111.76 768.49 111.76 773.71 121.19 773.71 126.87 776.87 126.87 776.87 121.19 781.93 111.76 778.35 111.76"/>
      <polygon class="cls-10" points="783.82 111.76 783.82 126.87 795.26 126.87 795.26 124.16 786.9 124.16 786.9 120.27 794.22 120.27 794.22 117.65 786.9 117.65 786.9 114.45 794.89 114.45 794.89 111.76 783.82 111.76"/>
      <path class="cls-10" d="M803.8,115.24l1.89,5.93h-3.85l1.96-5.93ZM802.04,111.76l-5.39,15.1h3.31l1.04-3.1h5.58l.98,3.1h3.39l-5.33-15.1h-3.58Z"/>
      <g class="cls-5">
        <path class="cls-10" d="M821.2,118.2c.62-.29.94-.85.94-1.71,0-.92-.29-1.52-.89-1.83-.35-.19-.85-.27-1.54-.27h-3.68v4.06h3.58c.71,0,1.25-.08,1.6-.25M819.28,120.95h-3.27v5.93h-3.08v-15.1h7.41c1.06.02,1.87.15,2.45.37.56.25,1.04.6,1.44,1.06.33.4.6.81.79,1.27.19.48.29,1,.29,1.6,0,.71-.19,1.41-.56,2.1-.35.71-.96,1.19-1.79,1.48.71.27,1.19.69,1.48,1.19.29.52.44,1.31.44,2.37v1.02c0,.69.04,1.14.08,1.39.08.4.27.69.58.85v.4h-3.47c-.1-.33-.17-.6-.21-.81-.08-.44-.12-.85-.12-1.31l-.02-1.39c-.02-.98-.19-1.6-.54-1.93-.33-.31-.96-.48-1.89-.48"/>
        <path class="cls-10" d="M833.5,124.68c.75,0,1.35-.08,1.81-.25.89-.31,1.33-.89,1.33-1.75,0-.5-.23-.89-.67-1.16-.44-.25-1.12-.5-2.06-.71l-1.6-.35c-1.56-.35-2.64-.75-3.25-1.16-1.02-.69-1.54-1.77-1.54-3.27,0-1.35.5-2.48,1.48-3.37,1-.89,2.43-1.33,4.35-1.33,1.58,0,2.93.42,4.06,1.27,1.12.83,1.73,2.06,1.77,3.66h-3.02c-.06-.89-.46-1.54-1.21-1.93-.48-.25-1.1-.37-1.83-.37-.81,0-1.46.17-1.93.5-.5.31-.73.77-.73,1.37,0,.52.23.94.71,1.21.31.17.96.37,1.98.62l2.6.62c1.14.27,2,.62,2.58,1.08.89.73,1.35,1.75,1.35,3.1s-.52,2.52-1.58,3.43c-1.06.92-2.54,1.37-4.47,1.37s-3.52-.46-4.64-1.35-1.69-2.14-1.69-3.7h3c.1.69.29,1.21.56,1.54.52.62,1.39.94,2.64.94"/>
        <path class="cls-10" d="M844.39,75.66c-10.03-.42-20.05-.17-30.02.64-11.98.98-23.86,2.83-35.53,5.62-9.57,2.27-18.99,5.14-28.21,8.63-4.16,1.58-8.26,3.29-12.32,5.12-9.15,4.12-18.08,8.8-26.63,14.19-5.95,3.74-17.39,13.69-22.2,17.93-1.37,1.21-2.23,1.98-2.23,1.98l-20.64,20.78-.04,3.06c11.3-10.53,24.36-19.68,37.95-27.09.67-.37,1.33-.69,2-1.04,6.3-3.33,12.75-6.3,19.33-8.97,10.19-4.1,20.68-7.41,31.37-9.88,9.49-2.21,19.12-3.77,28.83-4.7,7.2-.73,14.46-1.08,21.7-1.12,9.96-.04,19.93.52,29.83,1.73,3.62.42,7.22.92,10.8,1.52l41.07-22.36c-14.81-3.39-29.92-5.41-45.06-6.03"/>
        <path class="cls-10" d="M272.47,236.93c0,11.69-2.31,20.72-6.84,26.82-4.45,5.97-9.92,8.86-16.77,8.86-8.97,0-15.27-3.1-19.26-9.47-4.16-6.66-6.28-15.1-6.28-25.11,0-11.73,2.41-20.66,7.18-26.52,4.68-5.8,10.63-8.61,18.18-8.61,6.72,0,12.23,2.62,16.81,8.05,4.64,5.49,6.99,14.23,6.99,25.98M286.85,148.21h-9.13c-3.25,0-5.89,2.64-5.89,5.89v37.59c0,.5-.33.73-.52.81-.25.1-.58.15-.92-.17-1.62-1.52-3.2-2.77-4.68-3.7-5.45-3.43-12.23-5.16-20.18-5.16-14.33,0-25.55,5.66-33.29,16.81-7.55,10.88-11.38,23.9-11.38,38.67,0,15.85,4.22,28.77,12.59,38.4,8.45,9.76,18.62,14.69,30.25,14.69,7.14,0,13.58-1.46,19.16-4.31,3.08-1.58,5.95-3.7,8.55-6.32.31-.31.64-.27.87-.19.17.08.56.29.56.83v.62c0,3.22,2.64,5.87,5.89,5.87h8.11c3.25,0,5.89-2.64,5.89-5.87v-128.59c0-3.25-2.64-5.89-5.89-5.89"/>
        <path class="cls-10" d="M248.67,203.77c-7.28,0-13,2.73-17.5,8.3-4.64,5.72-6.97,14.44-6.97,25.96,0,9.84,2.06,18.12,6.14,24.63,3.83,6.1,9.88,9.07,18.51,9.07,6.53,0,11.77-2.79,16.04-8.51,4.43-5.95,6.68-14.79,6.68-26.3s-2.27-20.1-6.76-25.4c-4.43-5.22-9.69-7.76-16.14-7.76M248.86,273.5c-9.3,0-15.85-3.22-20.01-9.88-4.26-6.8-6.43-15.42-6.43-25.59,0-11.94,2.5-21.05,7.36-27.09,4.87-6.01,11.05-8.95,18.89-8.95,6.99,0,12.71,2.75,17.5,8.38,4.76,5.64,7.2,14.56,7.2,26.55s-2.37,21.09-7.03,27.36c-4.62,6.2-10.34,9.22-17.47,9.22M245.53,184.36c-14.04,0-24.98,5.53-32.56,16.43-7.45,10.73-11.23,23.57-11.23,38.15,0,15.62,4.16,28.35,12.38,37.84,8.28,9.53,18.22,14.38,29.58,14.38,6.99,0,13.29-1.44,18.76-4.22,2.97-1.54,5.78-3.6,8.32-6.16.5-.52,1.16-.64,1.83-.37.69.29,1.12.92,1.12,1.64v.62c0,2.75,2.23,4.99,4.99,4.99h8.11c2.75,0,4.99-2.25,4.99-4.99v-128.59c0-2.75-2.25-4.99-4.99-4.99h-9.13c-2.75,0-4.99,2.25-4.99,4.99v37.59c0,.73-.4,1.33-1.08,1.62-.64.29-1.35.17-1.87-.31-1.56-1.5-3.1-2.7-4.54-3.62-5.3-3.33-11.94-5.01-19.7-5.01M243.7,292.93c-11.9,0-22.3-5.03-30.91-14.98-8.51-9.82-12.81-22.95-12.81-39.01,0-14.96,3.87-28.15,11.53-39.17,7.93-11.4,19.39-17.2,34.03-17.2,8.11,0,15.06,1.79,20.64,5.3,1.54.96,3.16,2.25,4.83,3.83l-.04-37.61c0-3.72,3.04-6.78,6.76-6.78h9.13c3.72,0,6.76,3.06,6.76,6.78v128.59c0,3.72-3.04,6.76-6.76,6.76h-8.11c-3.74,0-6.78-3.04-6.78-6.76v-.62c-2.58,2.66-5.53,4.85-8.67,6.47-5.72,2.93-12.29,4.41-19.58,4.41"/>
        <path class="cls-10" d="M328.35,148.66h-10.05c-3.25,0-5.89,2.64-5.89,5.89v11.96c0,3.25,2.64,5.89,5.89,5.89h10.05c3.25,0,5.89-2.64,5.89-5.89v-11.96c0-3.25-2.64-5.89-5.89-5.89"/>
        <path class="cls-10" d="M318.3,149.56c-2.75,0-4.99,2.23-4.99,4.99v11.96c0,2.77,2.25,5.01,4.99,5.01h10.05c2.75,0,4.99-2.25,4.99-5.01v-11.96c0-2.77-2.25-4.99-4.99-4.99h-10.05ZM328.35,173.3h-10.05c-3.72,0-6.76-3.04-6.76-6.78v-11.96c0-3.74,3.04-6.78,6.76-6.78h10.05c3.74,0,6.78,3.04,6.78,6.78v11.96c0,3.74-3.04,6.78-6.78,6.78"/>
        <path class="cls-10" d="M328.35,185.67h-10.05c-3.25,0-5.89,2.64-5.89,5.89v91.12c0,3.25,2.64,5.89,5.89,5.89h10.05c3.25,0,5.89-2.64,5.89-5.89v-91.12c0-3.25-2.64-5.89-5.89-5.89"/>
        <path class="cls-10" d="M318.3,186.55c-2.75,0-4.99,2.25-4.99,5.01v91.1c0,2.77,2.25,5.01,4.99,5.01h10.05c2.75,0,4.99-2.25,4.99-5.01v-91.1c0-2.77-2.25-5.01-4.99-5.01h-10.05ZM328.35,289.44h-10.05c-3.72,0-6.76-3.04-6.76-6.78v-91.1c0-3.74,3.04-6.78,6.76-6.78h10.05c3.74,0,6.78,3.04,6.78,6.78v91.1c0,3.74-3.04,6.78-6.78,6.78"/>
        <path class="cls-10" d="M418.36,236.47c0,7.7-1.27,14.48-3.79,20.18-4.41,9.82-11.82,14.58-22.65,14.58-6.8,0-12.05-2.52-16.06-7.7-4.1-5.3-6.2-13.29-6.2-23.76,0-9.07,1.08-16.46,3.22-21.95,3.87-9.92,10.88-14.75,21.41-14.75,7.03,0,12.65,2.58,17.18,7.93,4.58,5.39,6.89,13.96,6.89,25.46M432.74,186.13h-8.49c-3.25,0-5.89,2.64-5.89,5.89v.27c0,.37-.15.64-.48.79-.17.06-.62.21-1.06-.21-1.35-1.25-2.7-2.35-4.04-3.27l-.04-.02c-6.12-4.06-13.36-6.12-21.51-6.12-12.05,0-22.45,4.95-30.91,14.73-8.4,9.67-12.65,23.2-12.65,40.21,0,18.06,4.29,31.29,12.71,39.32,8.4,7.97,18.35,12.02,29.58,12.02,7.99,0,14.58-1.33,19.56-3.95,2.39-1.29,4.66-2.89,6.72-4.78.23-.23.52-.25.83-.1.15.06.58.31.56.87-.33,8.15-1.29,14.15-2.89,17.77-3.49,8.01-10.84,11.9-22.45,11.9-7.26,0-12.57-1.6-15.77-4.76-1.6-1.6-2.79-3.85-3.56-6.68-.69-2.5-3.02-4.24-5.64-4.24h-10.24c-1.77,0-3.41.77-4.54,2.12-1.14,1.37-1.6,3.14-1.27,4.89,1.6,8.72,5.87,15.39,12.63,19.85,7.57,4.99,17,7.53,28,7.53,19.89,0,33.66-7.2,40.94-21.39,3.83-7.55,5.76-17.87,5.76-30.71v-86.04c0-3.25-2.64-5.89-5.89-5.89"/>
        <path class="cls-10" d="M394.3,203.97c-10.11,0-16.85,4.64-20.6,14.17-2.08,5.39-3.14,12.67-3.14,21.64,0,10.26,2.02,18.08,6.01,23.22,3.83,4.95,8.84,7.36,15.35,7.36,10.44,0,17.6-4.6,21.84-14.06,2.48-5.58,3.72-12.25,3.72-19.83,0-11.3-2.25-19.66-6.68-24.88-4.37-5.14-9.76-7.61-16.52-7.61M391.92,272.12c-7.09,0-12.57-2.62-16.77-8.05-4.22-5.45-6.37-13.63-6.37-24.3,0-9.17,1.1-16.68,3.27-22.28,4.04-10.3,11.3-15.31,22.24-15.31,7.3,0,13.15,2.7,17.87,8.24,4.7,5.55,7.09,14.31,7.09,26.05,0,7.82-1.29,14.73-3.87,20.55-4.58,10.17-12.25,15.1-23.47,15.1M357.1,296.65c-1.5,0-2.89.64-3.85,1.81-.98,1.14-1.37,2.66-1.08,4.14,1.56,8.47,5.68,14.96,12.23,19.28,7.45,4.89,16.71,7.39,27.52,7.39,19.53,0,33.06-7.05,40.15-20.91,3.77-7.43,5.66-17.62,5.66-30.31v-86.04c0-2.75-2.23-4.99-4.99-4.99h-8.47c-2.77,0-5.01,2.25-5.01,4.99v.29c0,.73-.37,1.29-1.02,1.58-.52.23-1.33.27-2.02-.35-1.31-1.23-2.64-2.31-3.93-3.2-6.01-3.97-13.06-5.97-21.03-5.97-11.8,0-21.97,4.85-30.27,14.42-8.24,9.51-12.42,22.84-12.42,39.63,0,17.83,4.18,30.83,12.44,38.67,8.22,7.82,17.97,11.8,28.96,11.8,7.84,0,14.29-1.31,19.14-3.87,2.33-1.23,4.54-2.79,6.53-4.64.5-.46,1.16-.56,1.81-.27.54.25,1.1.83,1.06,1.73-.31,8.28-1.31,14.35-2.95,18.1-3.64,8.36-11.25,12.42-23.26,12.42-7.49,0-13-1.69-16.39-5.01-1.71-1.73-2.97-4.12-3.79-7.07-.58-2.12-2.56-3.6-4.78-3.6h-10.24ZM391.92,331.04c-11.17,0-20.76-2.58-28.5-7.68-6.97-4.6-11.34-11.46-13-20.43-.37-2,.15-4.06,1.46-5.62,1.29-1.56,3.2-2.45,5.22-2.45h10.24c3.04,0,5.7,2.02,6.49,4.91.73,2.68,1.85,4.78,3.35,6.28,3.02,3,8.11,4.51,15.12,4.51,11.21,0,18.31-3.72,21.64-11.36,1.56-3.54,2.5-9.4,2.81-17.47-2.02,1.89-4.35,3.54-6.8,4.83-5.12,2.7-11.82,4.08-19.97,4.08-11.46,0-21.61-4.14-30.19-12.27-8.61-8.2-13-21.64-13-39.96,0-17.23,4.33-30.96,12.86-40.8,8.65-9.96,19.31-15.02,31.62-15.02,8.32,0,15.71,2.1,21.99,6.24,1.41.98,2.81,2.1,4.18,3.39l.06-.21c0-3.72,3.04-6.76,6.78-6.76h8.47c3.74,0,6.78,3.04,6.78,6.76v86.04c0,12.98-1.98,23.45-5.87,31.1-7.43,14.52-21.47,21.89-41.73,21.89"/>
        <path class="cls-10" d="M474.7,148.66h-10.05c-3.25,0-5.89,2.64-5.89,5.89v11.96c0,3.25,2.64,5.89,5.89,5.89h10.05c3.25,0,5.89-2.64,5.89-5.89v-11.96c0-3.25-2.64-5.89-5.89-5.89"/>
        <path class="cls-10" d="M464.65,149.56c-2.75,0-4.99,2.23-4.99,4.99v11.96c0,2.77,2.25,5.01,4.99,5.01h10.05c2.77,0,4.99-2.25,4.99-5.01v-11.96c0-2.77-2.23-4.99-4.99-4.99h-10.05ZM474.7,173.3h-10.05c-3.72,0-6.76-3.04-6.76-6.78v-11.96c0-3.74,3.04-6.78,6.76-6.78h10.05c3.74,0,6.78,3.04,6.78,6.78v11.96c0,3.74-3.04,6.78-6.78,6.78"/>
        <path class="cls-10" d="M474.7,185.67h-10.05c-3.25,0-5.89,2.64-5.89,5.89v91.12c0,3.25,2.64,5.89,5.89,5.89h10.05c3.25,0,5.89-2.64,5.89-5.89v-91.12c0-3.25-2.64-5.89-5.89-5.89"/>
        <path class="cls-10" d="M464.65,186.55c-2.75,0-4.99,2.25-4.99,5.01v91.1c0,2.77,2.25,5.01,4.99,5.01h10.05c2.77,0,4.99-2.25,4.99-5.01v-91.1c0-2.77-2.23-5.01-4.99-5.01h-10.05ZM474.7,289.44h-10.05c-3.72,0-6.76-3.04-6.76-6.78v-91.1c0-3.74,3.04-6.78,6.76-6.78h10.05c3.74,0,6.78,3.04,6.78,6.78v91.1c0,3.74-3.04,6.78-6.78,6.78"/>
        <path class="cls-10" d="M564.72,236.47c0,7.7-1.27,14.48-3.79,20.18-4.41,9.82-11.82,14.58-22.65,14.58-6.8,0-12.05-2.52-16.06-7.7-4.1-5.3-6.2-13.29-6.2-23.76,0-9.07,1.08-16.46,3.22-21.95,3.87-9.92,10.88-14.75,21.41-14.75,7.03,0,12.65,2.58,17.18,7.93,4.58,5.39,6.89,13.96,6.89,25.46M579.1,186.13h-8.49c-3.25,0-5.89,2.64-5.89,5.89v.27c0,.37-.15.64-.48.79-.17.06-.62.19-1.06-.21-1.35-1.25-2.7-2.35-4.04-3.27l-.04-.02c-6.12-4.06-13.36-6.12-21.51-6.12-12.05,0-22.45,4.95-30.91,14.73-8.4,9.67-12.65,23.2-12.65,40.21,0,18.06,4.29,31.29,12.71,39.32,8.4,7.97,18.35,12.02,29.58,12.02,7.99,0,14.58-1.33,19.56-3.97,2.39-1.27,4.66-2.87,6.72-4.76.23-.23.5-.25.83-.1.12.06.58.31.56.87-.33,8.15-1.29,14.15-2.89,17.77-3.49,8.01-10.84,11.9-22.45,11.9-7.26,0-12.57-1.6-15.77-4.76-1.6-1.6-2.79-3.85-3.56-6.68-.69-2.5-3-4.24-5.64-4.24h-10.24c-1.77,0-3.41.77-4.54,2.12-1.14,1.37-1.6,3.14-1.27,4.89,1.6,8.72,5.87,15.39,12.63,19.85,7.57,4.99,17,7.53,28,7.53,19.89,0,33.68-7.2,40.94-21.39,3.83-7.55,5.76-17.87,5.76-30.71v-86.04c0-3.25-2.64-5.89-5.89-5.89"/>
        <path class="cls-10" d="M540.65,203.97c-10.11,0-16.85,4.64-20.6,14.17-2.08,5.41-3.14,12.67-3.14,21.64,0,10.26,2.02,18.08,6.01,23.22,3.83,4.95,8.84,7.36,15.35,7.36,10.44,0,17.6-4.6,21.84-14.06,2.48-5.58,3.72-12.25,3.72-19.83,0-11.3-2.25-19.66-6.68-24.88-4.37-5.14-9.76-7.61-16.52-7.61M538.28,272.12c-7.09,0-12.57-2.62-16.77-8.05-4.22-5.45-6.37-13.65-6.37-24.3,0-9.17,1.1-16.66,3.27-22.26,4.04-10.32,11.3-15.33,22.24-15.33,7.3,0,13.15,2.7,17.87,8.26,4.7,5.53,7.09,14.29,7.09,26.02,0,7.82-1.31,14.73-3.87,20.55-4.58,10.17-12.25,15.1-23.47,15.1M503.45,296.65c-1.5,0-2.89.67-3.85,1.81-.98,1.14-1.37,2.66-1.08,4.14,1.56,8.49,5.68,14.96,12.23,19.28,7.45,4.89,16.71,7.39,27.52,7.39,19.53,0,33.06-7.05,40.15-20.91,3.77-7.43,5.66-17.62,5.66-30.31v-86.04c0-2.75-2.25-4.99-4.99-4.99h-8.49c-2.75,0-4.99,2.25-4.99,4.99v.29c0,.73-.37,1.29-1.02,1.58-.52.23-1.33.27-2.02-.37-1.31-1.21-2.64-2.29-3.93-3.18-6.01-3.97-13.09-5.97-21.05-5.97-11.77,0-21.95,4.85-30.25,14.42-8.24,9.51-12.42,22.84-12.42,39.63,0,17.83,4.18,30.83,12.44,38.67,8.22,7.82,17.97,11.8,28.96,11.8,7.84,0,14.29-1.31,19.14-3.87,2.33-1.23,4.54-2.79,6.53-4.64.5-.46,1.16-.56,1.81-.27.54.25,1.1.83,1.06,1.73-.31,8.28-1.31,14.35-2.95,18.1-3.64,8.36-11.25,12.42-23.26,12.42-7.49,0-13-1.69-16.39-5.01-1.71-1.73-2.97-4.12-3.79-7.07-.58-2.12-2.56-3.6-4.78-3.6h-10.24ZM538.28,331.04c-11.17,0-20.76-2.58-28.5-7.68-6.97-4.6-11.34-11.46-13-20.43-.37-2,.17-4.06,1.46-5.62,1.31-1.56,3.2-2.45,5.22-2.45h10.24c3.04,0,5.7,2.02,6.49,4.91.73,2.68,1.85,4.78,3.35,6.28,3.02,3,8.11,4.51,15.12,4.51,11.21,0,18.31-3.72,21.64-11.36,1.54-3.54,2.5-9.4,2.81-17.45-2.1,1.91-4.39,3.54-6.8,4.81-5.12,2.7-11.84,4.08-19.97,4.08-11.46,0-21.61-4.14-30.19-12.27-8.61-8.2-13-21.64-13-39.96,0-17.23,4.33-30.96,12.86-40.8,8.65-9.96,19.31-15.02,31.6-15.02,8.32,0,15.73,2.1,22.01,6.24,1.41.98,2.81,2.1,4.18,3.39l.06-.21c0-3.72,3.04-6.76,6.76-6.76h8.49c3.74,0,6.78,3.04,6.78,6.76v86.04c0,12.98-1.98,23.45-5.87,31.1-7.43,14.52-21.47,21.89-41.73,21.89"/>
        <path class="cls-10" d="M840.81,236.29c0,12.21-2.39,21.43-7.14,27.42-4.68,5.87-10.34,8.74-17.35,8.74-10.4,0-17.37-4.49-21.28-13.73-2.12-4.97-3.2-11.17-3.2-18.39,0-9.09,1.1-16.64,3.25-22.45,3.87-10.46,10.82-15.54,21.24-15.54s17.35,4.81,21.26,14.69c2.14,5.3,3.22,11.8,3.22,19.26M820.18,182.82c-8.01,0-15.1,2-21.03,5.89-1.89,1.19-3.74,2.62-5.51,4.24-.44.37-.85.25-1.02.19-.33-.15-.5-.4-.5-.77v-.81c0-3.25-2.64-5.89-5.87-5.89h-9.4c-3.25,0-5.89,2.64-5.89,5.89v130.31c0,3.25,2.64,5.89,5.89,5.89h9.76c3.25,0,5.89-2.64,5.89-5.89v-38.19c0-.5.33-.71.52-.79.21-.08.58-.19.94.15,1.56,1.46,3.12,2.66,4.54,3.56,5.45,3.49,12.19,5.26,20.08,5.26,10.01,0,18.93-3.12,26.48-9.28,11.8-9.63,17.79-25.73,17.79-47.85,0-16.43-4.16-29.31-12.36-38.28-8.26-9.05-18.45-13.63-30.29-13.63"/>
        <path class="cls-10" d="M816.33,203.23c-10.01,0-16.66,4.89-20.41,14.96-2.12,5.7-3.18,13.15-3.18,22.13,0,7.11,1.04,13.17,3.12,18.06,3.77,8.86,10.46,13.17,20.47,13.17,6.72,0,12.17-2.75,16.64-8.4,4.62-5.8,6.97-14.83,6.97-26.86,0-7.36-1.08-13.73-3.16-18.93-3.79-9.51-10.46-14.13-20.45-14.13M816.33,273.33c-10.8,0-18.04-4.68-22.09-14.27-2.18-5.1-3.29-11.4-3.29-18.74,0-9.2,1.12-16.85,3.31-22.76,4.02-10.84,11.23-16.1,22.07-16.1s18.02,4.97,22.09,15.25c2.18,5.39,3.29,11.98,3.29,19.58,0,12.42-2.48,21.82-7.34,27.96-4.85,6.12-10.73,9.09-18.04,9.09M776.82,186.56c-2.75,0-4.99,2.23-4.99,4.99v130.31c0,2.77,2.25,5.01,4.99,5.01h9.78c2.75,0,4.99-2.25,4.99-5.01v-38.19c0-.71.4-1.31,1.06-1.6.67-.29,1.37-.17,1.89.31,1.52,1.41,3.02,2.6,4.41,3.45,5.3,3.41,11.88,5.14,19.6,5.14,9.8,0,18.51-3.06,25.92-9.09,11.59-9.47,17.45-25.32,17.45-47.16,0-16.18-4.08-28.87-12.11-37.67-8.09-8.84-18.06-13.33-29.64-13.33-7.84,0-14.75,1.93-20.53,5.74-1.87,1.16-3.68,2.56-5.41,4.14-.58.52-1.31.64-2,.35-.64-.29-1-.85-1-1.58v-.81c0-2.77-2.25-4.99-5.01-4.99h-9.4ZM786.6,328.65h-9.78c-3.72,0-6.76-3.04-6.76-6.78v-130.31c0-3.74,3.04-6.78,6.76-6.78h9.4c3.74,0,6.78,3.04,6.78,6.78v.81c1.83-1.73,3.72-3.18,5.68-4.41,6.05-3.99,13.29-6.03,21.49-6.03,12.11,0,22.53,4.7,30.96,13.92,8.34,9.15,12.57,22.24,12.57,38.88,0,22.38-6.1,38.71-18.1,48.53-7.72,6.3-16.83,9.49-27.04,9.49-8.05,0-14.98-1.81-20.55-5.41-1.48-.92-3.06-2.14-4.68-3.66l.06,38.19c0,3.74-3.04,6.78-6.78,6.78"/>
        <path class="cls-10" d="M957.67,199.16c-5.51-10.84-16.04-16.33-31.25-16.33-8.4,0-15.58,1.89-21.28,5.64-1.66,1.06-3.43,2.52-5.26,4.33-.31.29-.64.25-.87.15-.17-.06-.56-.29-.56-.81v-38.03c0-3.25-2.64-5.89-5.89-5.89h-9.76c-3.25,0-5.89,2.64-5.89,5.89v128.56c0,3.25,2.64,5.89,5.89,5.89h9.76c3.25,0,5.89-2.64,5.89-5.89v-48.76c0-12.27,2.52-20.62,7.47-24.8,5.16-4.37,10.71-6.49,17.02-6.49,7.36,0,12.17,2.23,14.71,6.78,1.62,2.97,2.43,7.93,2.43,14.69v58.58c0,3.25,2.64,5.89,5.89,5.89h10.24c3.25,0,5.89-2.64,5.89-5.89v-59.68c0-10.03-1.48-18.04-4.41-23.82"/>
        <path class="cls-10" d="M922.94,201.74c7.7,0,12.75,2.35,15.46,7.22,1.71,3.12,2.56,8.2,2.56,15.12v58.58c0,2.77,2.25,5.01,5.01,5.01h10.21c2.77,0,4.99-2.25,4.99-5.01v-59.68c0-9.88-1.44-17.77-4.31-23.42-5.35-10.51-15.6-15.85-30.46-15.85-8.24,0-15.23,1.85-20.78,5.49-1.62,1.04-3.35,2.45-5.14,4.22-.5.5-1.17.62-1.83.35-.69-.29-1.1-.92-1.1-1.64v-38.03c0-2.77-2.25-5.01-5.01-5.01h-9.76c-2.75,0-4.99,2.25-4.99,5.01v128.56c0,2.77,2.25,5.01,4.99,5.01h9.76c2.77,0,5.01-2.25,5.01-5.01v-48.76c0-12.54,2.62-21.12,7.78-25.48,5.3-4.49,11.07-6.68,17.6-6.68M956.18,289.44h-10.21c-3.74,0-6.78-3.04-6.78-6.78v-58.58c0-6.62-.79-11.42-2.33-14.27-2.37-4.24-6.93-6.3-13.92-6.3-6.1,0-11.48,2.04-16.46,6.26-4.74,4.02-7.16,12.13-7.16,24.13v48.76c0,3.74-3.04,6.78-6.78,6.78h-9.76c-3.72,0-6.78-3.04-6.78-6.78v-128.56c0-3.74,3.06-6.78,6.78-6.78h9.76c3.74,0,6.78,3.04,6.78,6.78v38.03c1.81-1.81,3.62-3.31,5.33-4.41,5.85-3.85,13.17-5.78,21.76-5.78,15.58,0,26.36,5.66,32.04,16.83,3,5.91,4.51,14.04,4.51,24.22v59.68c0,3.74-3.04,6.78-6.78,6.78"/>
        <path class="cls-10" d="M653.51,183.35c-.06,0-.12.02-.23.02-.29-.02-.67-.04-1.14-.02-.35,0-.64-.02-.87-.06-.27-.02-.48-.04-.67-.04-7.11,0-13.46,2.62-18.89,7.74-2.23,2.1-4.12,4.1-5.66,5.95v-6.39c0-2.81-2.29-5.1-5.1-5.1h-10.03c-2.81,0-5.1,2.29-5.1,5.1v92.66c0,2.81,2.29,5.1,5.1,5.1h10.86c2.81,0,5.1-2.29,5.1-5.1v-53.61c0-1.79.15-3.29.46-4.64,3.06-13.29,10.63-19.74,23.17-19.74.92,0,1.77.02,2.54.08.27.02.54,0,.79-.06,1.04.1,2.08-.23,2.89-.89.92-.75,1.46-1.87,1.46-3.08v-14.31c0-1.02-.48-2-1.27-2.68-.92-.77-2.18-1.12-3.41-.92"/>
        <path class="cls-10" d="M610.94,186.34c-2.33,0-4.22,1.89-4.22,4.2v92.66c0,2.33,1.89,4.22,4.22,4.22h10.84c2.33,0,4.2-1.89,4.2-4.22v-53.61c0-1.85.17-3.43.5-4.85,3.16-13.73,11.03-20.43,24.03-20.43.94,0,1.81.04,2.6.1.19,0,.35-.02.52-.04l.15-.04h.17c.79.1,1.58-.15,2.23-.69.73-.58,1.12-1.46,1.12-2.39v-14.31c0-.75-.33-1.5-.96-2-.71-.62-1.71-.87-2.68-.73-.08.02-.17.02-.29.04-.42-.02-.77-.04-1.21-.02-.42-.02-.73-.04-.98-.06-.23-.02-.42-.04-.58-.04-6.87,0-13.02,2.52-18.29,7.49-2.18,2.08-4.06,4.06-5.58,5.89l-1.56,1.89v-8.86c0-2.31-1.89-4.2-4.22-4.2h-10.01ZM621.78,289.19h-10.84c-3.31,0-5.99-2.68-5.99-5.99v-92.66c0-3.29,2.68-5.97,5.99-5.97h10.01c3.31,0,5.99,2.68,5.99,5.97v4.02c1.23-1.35,2.62-2.77,4.16-4.22,5.6-5.28,12.15-7.97,19.49-7.97.21,0,.46.02.75.04.21.02.48.04.81.04.48,0,.87.02,1.19.04l.17.85-.15-.87c1.48-.25,3.02.17,4.14,1.12,1,.85,1.58,2.08,1.58,3.35v14.31c0,1.48-.64,2.85-1.79,3.77-.98.81-2.16,1.19-3.39,1.1-.29.06-.58.08-.89.06-.77-.06-1.6-.08-2.5-.08-12.07,0-19.35,6.22-22.3,19.06-.29,1.27-.44,2.73-.44,4.43v53.61c0,3.31-2.68,5.99-5.99,5.99"/>
        <path class="cls-10" d="M727.83,241.43v7.93c0,8.82-3.89,15-11.88,18.87-4.95,2.45-10.13,3.68-15.39,3.68-4.04,0-7.41-1.1-10.3-3.39-2.66-2.08-3.95-4.89-3.95-8.59,0-5.01,1.96-8.55,5.97-10.8,2.6-1.48,6.72-2.6,12.25-3.35l9.96-1.27c3.18-.4,6.49-1.04,9.82-1.93,1.27-.35,2.48-.73,3.52-1.14M755.16,271.3c-.5,0-.92.04-1.25.1-.19.02-.37.04-.67.04-1.06,0-1.56-.15-1.73-.21-.19-.35-.4-.98-.4-2.08v-56.65c0-10.53-4.14-18.41-12.34-23.47-7.74-4.72-17.79-7.11-29.94-7.11-10.57,0-20.01,2.58-28.08,7.66-7.63,4.83-12.07,12.94-13.13,24.17-.19,1.91.46,3.83,1.75,5.24s3.1,2.23,5.01,2.23h8.92c3.27,0,6.05-2.29,6.64-5.45.6-3.25,1.58-5.74,2.89-7.41,2.91-3.79,8.18-5.7,15.64-5.7,6.76,0,11.92,1.1,15.35,3.29,2.97,1.91,4.43,4.99,4.43,9.44,0,2.77-.42,4.18-.77,4.91-.77,1.58-2.39,2.52-4.99,2.85l-26.34,3.31c-9.9,1.25-18.04,4.64-24.24,10.09-6.43,5.66-9.69,13.65-9.69,23.72,0,9.24,3.29,17.06,9.74,23.24,6.41,6.12,14.73,9.24,24.69,9.24,8.11,0,15.64-1.77,22.41-5.24,4.29-2.21,8.03-4.72,11.09-7.49,0,.02.02.04.04.08.5,1.44,1.1,2.73,1.81,3.83,3.22,5.06,8.34,7.61,15.25,7.61,2.52,0,4.47-.08,6.03-.31,3.31-.46,6.2-2.6,7.78-5.85.06-.15.12-.27.17-.4.37-.85.6-1.81.71-2.83.15-1,.21-2.1.23-3.35.27-2.62-.25-4.62-1.54-5.91-1.23-1.27-3.18-1.81-5.49-1.6"/>
        <path class="cls-10" d="M726.94,242.71c-.73.25-1.52.48-2.39.71-3.37.92-6.72,1.58-9.96,1.98l-9.94,1.27c-5.41.73-9.42,1.81-11.94,3.25-3.7,2.08-5.49,5.35-5.49,10.01,0,3.41,1.16,5.99,3.6,7.91,2.73,2.16,5.93,3.2,9.74,3.2,5.14,0,10.17-1.21,15-3.58,7.68-3.72,11.4-9.65,11.4-18.08v-6.66ZM700.54,272.81c-4.22,0-7.78-1.19-10.84-3.6-2.87-2.27-4.29-5.3-4.29-9.3,0-5.37,2.1-9.13,6.41-11.57,2.7-1.54,6.95-2.68,12.59-3.45l9.96-1.27c3.16-.37,6.43-1.02,9.72-1.91,1.33-.35,2.45-.73,3.39-1.1l1.23-.5v9.26c0,9.17-4.06,15.62-12.38,19.66-5.08,2.52-10.38,3.79-15.79,3.79M708.49,201.79c6.93,0,12.25,1.14,15.83,3.43,3.27,2.08,4.85,5.41,4.85,10.19,0,2.35-.29,4.14-.85,5.28-.89,1.87-2.75,2.97-5.66,3.35l-26.38,3.31c-9.69,1.21-17.68,4.54-23.74,9.86-6.22,5.49-9.38,13.25-9.38,23.07,0,8.99,3.18,16.58,9.44,22.57,6.24,5.97,14.35,9.01,24.09,9.01,7.95,0,15.35-1.75,21.99-5.16,4.22-2.16,7.88-4.64,10.9-7.34l.64-.6.73.79.1.27c.48,1.35,1.06,2.58,1.73,3.62,3.04,4.78,7.93,7.22,14.5,7.22,2.45,0,4.39-.1,5.91-.29,3.06-.44,5.64-2.39,7.09-5.37.06-.12.1-.23.15-.33.33-.81.56-1.69.64-2.6.15-1,.21-2.06.23-3.27.25-2.43-.19-4.18-1.27-5.28-1.04-1.04-2.75-1.52-4.78-1.33h-.08c-.44,0-.83.04-1.12.08-.21.04-.44.08-.79.08-1.14,0-1.75-.17-2.06-.29l-.31-.12-.15-.27c-.33-.6-.5-1.46-.5-2.52v-56.65c0-10.19-4.02-17.83-11.92-22.72-7.57-4.62-17.5-6.97-29.46-6.97-10.4,0-19.7,2.54-27.61,7.53-7.41,4.66-11.69,12.57-12.73,23.49-.17,1.66.4,3.33,1.52,4.58,1.12,1.23,2.7,1.91,4.35,1.91h8.95c2.83,0,5.24-1.98,5.76-4.72.62-3.37,1.66-5.99,3.06-7.78,3.08-3.99,8.57-6.03,16.33-6.03M696.69,293.64c-10.21,0-18.72-3.18-25.32-9.49-6.64-6.35-10.01-14.38-10.01-23.86,0-10.36,3.37-18.56,10.01-24.4,6.32-5.55,14.62-9.03,24.69-10.3l26.36-3.31c2.27-.29,3.66-1.06,4.29-2.35.25-.52.69-1.79.69-4.51,0-4.12-1.31-6.97-4.04-8.7-3.29-2.1-8.28-3.16-14.87-3.16-7.18,0-12.19,1.81-14.94,5.35-1.23,1.58-2.12,3.93-2.7,7.03-.67,3.58-3.83,6.18-7.51,6.18h-8.95c-2.14,0-4.2-.92-5.66-2.52-1.46-1.6-2.18-3.77-1.98-5.93,1.1-11.5,5.66-19.87,13.54-24.84,8.22-5.16,17.83-7.78,28.56-7.78,12.29,0,22.51,2.43,30.39,7.24,8.47,5.22,12.77,13.38,12.77,24.22v56.65c0,.64.06,1.08.15,1.35.23.02.56.06,1.08.06.23,0,.37-.02.5-.04.4-.06.83-.1,1.35-.1,2.58-.23,4.78.44,6.18,1.85,1.48,1.5,2.08,3.72,1.79,6.64,0,1.21-.08,2.33-.23,3.37-.1,1.06-.37,2.1-.77,3.06-.04.12-.12.29-.21.46-1.66,3.45-4.83,5.82-8.45,6.32-1.58.23-3.6.33-6.14.33-7.22,0-12.61-2.7-16.02-8.05-.54-.85-1.02-1.83-1.46-2.89-2.93,2.5-6.39,4.76-10.32,6.78-6.89,3.56-14.56,5.35-22.8,5.35"/>
        <path class="cls-10" d="M163.91,289.12c-5.22,0-9.49-1.58-12.75-4.76-3.12-3.29-4.7-7.57-4.7-12.86v-26.44c0-5.89-2.89-8.82-8.72-8.82h-29.69c-5.24,0-9.49-1.58-12.73-4.76-3.14-3.29-4.72-7.57-4.72-12.86s1.58-9.51,4.72-12.69c3.25-3.29,7.49-4.93,12.73-4.93h55.86c5.24,0,9.42,1.64,12.57,4.93,3.27,3.18,4.89,7.41,4.89,12.69v52.88c0,5.28-1.62,9.57-4.89,12.86-3.14,3.18-7.32,4.76-12.57,4.76"/>
        <path class="cls-10" d="M108.06,201.88c-4.95,0-9.03,1.58-12.11,4.68-2.95,2.97-4.45,7.03-4.45,12.05s1.5,9.15,4.45,12.25c3.06,2.97,7.14,4.49,12.11,4.49h29.69c6.28,0,9.61,3.35,9.61,9.69v26.44c0,5.03,1.5,9.15,4.45,12.25,3.06,2.97,7.14,4.49,12.11,4.49s8.99-1.52,11.94-4.51c3.08-3.1,4.64-7.2,4.64-12.23v-52.88c0-5.01-1.56-9.05-4.62-12.05-3-3.12-7.01-4.68-11.96-4.68h-55.86ZM163.91,290c-5.45,0-9.94-1.69-13.36-5.01-3.31-3.45-4.99-7.99-4.99-13.5v-26.44c0-5.41-2.48-7.93-7.82-7.93h-29.69c-5.45,0-9.94-1.69-13.36-5.01-3.31-3.45-4.99-7.99-4.99-13.5s1.69-9.96,4.97-13.29c3.43-3.45,7.93-5.2,13.38-5.2h55.86c5.47,0,9.9,1.75,13.21,5.2,3.41,3.31,5.14,7.8,5.14,13.29v52.88c0,5.51-1.73,10.05-5.14,13.48-3.31,3.35-7.74,5.03-13.21,5.03"/>
        <path class="cls-10" d="M111.55,289.12H38.24c-5.24,0-9.49-1.58-12.75-4.76-3.14-3.29-4.7-7.57-4.7-12.86v-105.74c0-5.3,1.56-9.53,4.7-12.69,3.27-3.31,7.51-4.95,12.75-4.95l99.5-.19c5.8,0,8.72-2.93,8.72-8.8v-26.79c0-5.28,1.58-9.59,4.72-12.88,3.25-3.16,7.51-4.76,12.73-4.76s9.42,1.6,12.57,4.76c3.27,3.29,4.89,7.59,4.89,12.88v53.42c0,5.28-1.62,9.57-4.89,12.86-3.14,3.18-7.32,4.76-12.57,4.76h-99.5c-5.82,0-8.72,2.93-8.72,8.8v52.88c0,5.87,2.89,8.8,8.72,8.8h47.14c5.24,0,9.42,1.66,12.57,4.95,3.27,3.16,4.89,7.39,4.89,12.69s-1.62,9.57-4.89,12.86c-3.14,3.18-7.32,4.76-12.57,4.76"/>
        <path class="cls-10" d="M163.91,95.58c-4.97,0-9.05,1.52-12.11,4.51-2.95,3.08-4.45,7.2-4.45,12.23v26.79c0,6.34-3.33,9.69-9.61,9.69l-99.5.21c-4.97,0-9.05,1.56-12.13,4.66-2.95,2.97-4.45,7.05-4.45,12.07v105.74c0,5.03,1.52,9.15,4.47,12.25,3.04,2.97,7.14,4.49,12.11,4.49h73.31c4.97,0,8.99-1.52,11.94-4.51,3.06-3.08,4.62-7.2,4.62-12.23s-1.54-9.07-4.62-12.05c-2.97-3.12-6.99-4.7-11.94-4.7h-47.14c-6.28,0-9.61-3.35-9.61-9.69v-52.86c0-6.34,3.33-9.72,9.61-9.72h99.5c5.03,0,8.95-1.46,11.94-4.49,3.08-3.1,4.64-7.22,4.64-12.23v-53.42c0-5.01-1.56-9.13-4.64-12.23-3-3.04-6.91-4.51-11.94-4.51M111.55,290H38.24c-5.45,0-9.96-1.69-13.38-5.01-3.31-3.45-4.97-7.99-4.97-13.5v-105.74c0-5.51,1.66-9.99,4.97-13.31,3.41-3.45,7.91-5.2,13.38-5.2l99.5-.21c5.35,0,7.82-2.52,7.82-7.91v-26.79c0-5.49,1.69-10.03,4.97-13.48,3.43-3.35,7.93-5.03,13.38-5.03s9.9,1.69,13.21,5.03c3.41,3.43,5.14,7.97,5.14,13.48v53.42c0,5.51-1.73,10.05-5.14,13.48-3.31,3.35-7.76,5.03-13.21,5.03h-99.5c-5.35,0-7.84,2.52-7.84,7.93v52.86c0,5.41,2.5,7.93,7.84,7.93h47.14c5.47,0,9.9,1.77,13.21,5.22,3.39,3.29,5.14,7.78,5.14,13.29s-1.75,10.05-5.16,13.5c-3.29,3.33-7.72,5.01-13.19,5.01"/>
        <path class="cls-10" d="M30.09,321.14c-.54-.89-1.58-1.35-3.16-1.35h-3.2v10.84h3.2c1.64,0,2.77-.79,3.43-2.41.33-.89.52-1.96.52-3.16,0-1.71-.27-3-.79-3.91M27.51,333.52h-7.16v-16.62h7.16c1.02.02,1.89.15,2.58.37,1.14.37,2.1,1.08,2.81,2.1.58.83.98,1.73,1.19,2.68s.33,1.87.33,2.75c0,2.21-.46,4.08-1.33,5.62-1.21,2.06-3.06,3.1-5.58,3.1"/>
      </g>
      <rect class="cls-10" x="37.28" y="316.92" width="3.45" height="16.6"/>
      <g class="cls-3">
        <path class="cls-10" d="M54.68,333.11c-.92.56-2.04.85-3.39.85-2.18,0-3.99-.77-5.41-2.29-1.46-1.54-2.18-3.64-2.18-6.3s.73-4.85,2.21-6.47c1.5-1.62,3.45-2.43,5.89-2.43,2.1,0,3.81.54,5.08,1.6,1.29,1.08,2.02,2.41,2.21,4.02h-3.41c-.25-1.12-.89-1.91-1.93-2.37-.56-.25-1.21-.37-1.89-.37-1.33,0-2.43.5-3.31,1.52-.85,1-1.29,2.52-1.29,4.56s.48,3.49,1.41,4.35c.92.83,1.98,1.27,3.16,1.27s2.12-.33,2.87-1.02c.75-.67,1.21-1.54,1.37-2.64h-3.85v-2.77h6.93v8.9h-2.29l-.35-2.06c-.67.79-1.27,1.33-1.81,1.66"/>
      </g>
      <rect class="cls-10" x="62.7" y="316.92" width="3.45" height="16.6"/>
      <polygon class="cls-10" points="68.53 316.91 68.53 319.84 73.52 319.84 73.52 333.51 77.03 333.51 77.03 319.84 81.99 319.84 81.99 316.91 68.53 316.91"/>
      <path class="cls-10" d="M89.54,320.72l2.08,6.53h-4.22l2.14-6.53ZM87.6,316.91l-5.93,16.6h3.62l1.16-3.39h6.12l1.08,3.39h3.77l-5.89-16.6h-3.93Z"/>
      <polygon class="cls-10" points="100.06 316.91 100.06 333.51 111.75 333.51 111.75 330.54 103.53 330.54 103.53 316.91 100.06 316.91"/>
      <g class="cls-4">
        <path class="cls-10" d="M129.9,324.09c.46-.4.69-1.04.69-1.89s-.23-1.48-.69-1.85-1.1-.56-1.91-.56h-3.25v4.89h3.25c.81,0,1.46-.19,1.91-.58M128.28,327.55h-3.54v5.97h-3.43v-16.6h7.22c1.69,0,3.02.42,3.99,1.27,1,.85,1.5,2.18,1.5,3.99,0,1.96-.5,3.33-1.5,4.14-.98.81-2.39,1.23-4.24,1.23"/>
        <path class="cls-10" d="M146.31,323.99c.71-.31,1.04-.94,1.04-1.87,0-1.02-.33-1.69-1-2.04-.37-.19-.94-.29-1.69-.29h-4.04v4.47h3.93c.77,0,1.37-.1,1.75-.27M144.21,327.01h-3.58v6.51h-3.39v-16.6h8.13c1.16.02,2.06.17,2.7.42.62.27,1.14.64,1.58,1.16.37.42.64.89.85,1.39.23.52.33,1.1.33,1.75,0,.79-.21,1.56-.6,2.33-.4.77-1.06,1.31-1.98,1.62.77.31,1.31.75,1.62,1.31.33.56.48,1.44.48,2.6v1.1c0,.77.04,1.29.1,1.56.08.42.29.73.62.94v.42h-3.83c-.1-.37-.17-.67-.21-.89-.1-.46-.15-.94-.17-1.41l-.02-1.56c0-1.06-.21-1.77-.56-2.1-.37-.37-1.08-.54-2.1-.54"/>
      </g>
      <rect class="cls-10" x="154.07" y="316.92" width="3.47" height="16.6"/>
      <polygon class="cls-10" points="171.48 316.91 171.48 328.5 164.87 316.91 161.25 316.91 161.25 333.51 164.45 333.51 164.45 321.72 171.25 333.51 174.73 333.51 174.73 316.91 171.48 316.91"/>
      <polygon class="cls-10" points="177.1 316.91 177.1 319.84 182.09 319.84 182.09 333.51 185.61 333.51 185.61 319.84 190.56 319.84 190.56 316.91 177.1 316.91"/>
      <g class="cls-9">
        <path class="cls-10" d="M210.71,329.51c.79-1,1.21-2.45,1.21-4.33s-.42-3.29-1.23-4.31c-.79-1.02-1.89-1.54-3.27-1.54s-2.48.52-3.29,1.52c-.83,1.02-1.23,2.45-1.23,4.33s.4,3.33,1.23,4.33c.81,1.02,1.91,1.54,3.29,1.54s2.48-.52,3.29-1.54M207.42,333.98c-2.37,0-4.18-.64-5.45-1.93-1.69-1.58-2.52-3.87-2.52-6.87s.83-5.33,2.52-6.84c1.27-1.29,3.08-1.93,5.45-1.93s4.18.64,5.45,1.93c1.66,1.52,2.52,3.81,2.52,6.84s-.85,5.28-2.52,6.87c-1.27,1.29-3.08,1.93-5.45,1.93"/>
      </g>
      <polygon class="cls-10" points="228.76 316.91 228.76 328.5 222.14 316.91 218.5 316.91 218.5 333.51 221.75 333.51 221.75 321.72 228.51 333.51 232 333.51 232 316.91 228.76 316.91"/>
      <g class="cls-7">
        <path class="cls-10" d="M252.44,321.14c-.54-.89-1.58-1.35-3.16-1.35h-3.2v10.84h3.2c1.64,0,2.77-.79,3.43-2.41.33-.89.52-1.96.52-3.16,0-1.71-.27-3-.79-3.91M249.86,333.52h-7.16v-16.62h7.16c1.02.02,1.89.15,2.58.37,1.14.37,2.1,1.08,2.81,2.1.58.83.98,1.73,1.19,2.68s.33,1.87.33,2.75c0,2.21-.46,4.08-1.33,5.62-1.21,2.06-3.06,3.1-5.58,3.1"/>
      </g>
      <polygon class="cls-10" points="260.01 316.91 260.01 333.51 272.59 333.51 272.59 330.54 263.4 330.54 263.4 326.25 271.47 326.25 271.47 323.38 263.4 323.38 263.4 319.84 272.2 319.84 272.2 316.91 260.01 316.91"/>
      <g class="cls-6">
        <path class="cls-10" d="M279.01,333.52h-3.22v-16.62h5.03l3.02,13.06,3-13.06h5.01v16.62h-3.25v-11.23c0-.33,0-.77.02-1.35v-1.35l-3.14,13.94h-3.37l-3.12-13.94v1.35c.02.58.02,1.02.02,1.35v11.23Z"/>
      </g>
      <path class="cls-10" d="M302.29,320.72l2.06,6.53h-4.22l2.16-6.53ZM300.35,316.91l-5.93,16.6h3.62l1.14-3.39h6.12l1.08,3.39h3.77l-5.89-16.6h-3.91Z"/>
      <polygon class="cls-10" points="322.99 316.91 322.99 328.5 316.37 316.91 312.73 316.91 312.73 333.51 315.98 333.51 315.98 321.72 322.74 333.51 326.24 333.51 326.24 316.91 322.99 316.91"/>
      <g class="cls-8">
        <path class="cls-10" d="M339.73,321.14c-.54-.89-1.58-1.35-3.16-1.35h-3.2v10.84h3.2c1.64,0,2.77-.79,3.43-2.41.33-.89.52-1.96.52-3.16,0-1.71-.27-3-.79-3.91M337.15,333.52h-7.16v-16.62h7.16c1.02.02,1.89.15,2.58.37,1.14.37,2.1,1.08,2.81,2.1.58.83.98,1.73,1.19,2.68.23.96.33,1.87.33,2.75,0,2.21-.46,4.08-1.33,5.62-1.21,2.06-3.06,3.1-5.58,3.1"/>
      </g>
    </g>
  </g>
</svg>