<?xml version="1.0" encoding="UTF-8"?>
<svg id="Livello_2" data-name="Livello 2" xmlns="http://www.w3.org/2000/svg" xmlns:xlink="http://www.w3.org/1999/xlink" viewBox="0 0 1462.52 243.06">
  <defs>
    <style>
      .cls-1 {
        fill: none;
      }

      .cls-2 {
        clip-path: url(#clippath-1);
      }

      .cls-3 {
        clip-path: url(#clippath-3);
      }

      .cls-4 {
        clip-path: url(#clippath-4);
      }

      .cls-5 {
        clip-path: url(#clippath-2);
      }

      .cls-6 {
        clip-path: url(#clippath-7);
      }

      .cls-7 {
        clip-path: url(#clippath-6);
      }

      .cls-8 {
        clip-path: url(#clippath-8);
      }

      .cls-9 {
        clip-path: url(#clippath-5);
      }

      .cls-10 {
        fill: #fff;
      }

      .cls-11 {
        clip-path: url(#clippath);
      }
    </style>
    <clipPath id="clippath">
      <path class="cls-1" d="M99.51,28.62H.6v110.56c5.53,49.75,47.69,88.43,98.91,88.43,54.94,0,99.48-44.54,99.48-99.51V28.62h-99.48Z"/>
    </clipPath>
    <clipPath id="clippath-1">
      <rect class="cls-1" width="1462.52" height="243.06"/>
    </clipPath>
    <clipPath id="clippath-2">
      <rect class="cls-1" width="1462.52" height="243.06"/>
    </clipPath>
    <clipPath id="clippath-3">
      <rect class="cls-1" width="1462.52" height="243.06"/>
    </clipPath>
    <clipPath id="clippath-4">
      <rect class="cls-1" width="1462.52" height="243.06"/>
    </clipPath>
    <clipPath id="clippath-5">
      <rect class="cls-1" width="1462.52" height="243.06"/>
    </clipPath>
    <clipPath id="clippath-6">
      <rect class="cls-1" width="1462.52" height="243.06"/>
    </clipPath>
    <clipPath id="clippath-7">
      <rect class="cls-1" width="1462.52" height="243.06"/>
    </clipPath>
    <clipPath id="clippath-8">
      <rect class="cls-1" width="1462.52" height="243.06"/>
    </clipPath>
  </defs>
  <g id="Livello_1-2" data-name="Livello 1">
    <g>
      <g class="cls-11">
        <rect class="cls-10" x="-.03" y="85.77" width="28.43" height="28.43"/>
        <rect class="cls-10" x="-.02" y="28.92" width="28.43" height="28.43"/>
        <rect class="cls-10" x="56.84" y="28.93" width="28.43" height="28.43"/>
        <rect class="cls-10" x="85.28" y="114.18" width="28.43" height="28.43"/>
        <polygon class="cls-10" points="113.73 114.19 142.14 114.19 142.14 142.63 170.57 142.63 170.57 114.19 142.17 114.19 142.17 85.76 113.73 85.76 113.73 114.19"/>
        <rect class="cls-10" x="85.28" y="57.34" width="28.43" height="28.43"/>
        <rect class="cls-10" x="113.68" y="28.62" width="28.43" height="28.43"/>
        <rect class="cls-10" x="170.56" y="28.62" width="28.43" height="28.43"/>
        <polygon class="cls-10" points="56.86 114.19 85.27 114.19 85.27 85.76 56.86 85.76 56.86 57.35 28.42 57.35 28.42 85.76 56.86 85.76 56.86 114.19 28.42 114.19 28.42 142.63 56.86 142.63 56.86 114.19"/>
        <polygon class="cls-10" points="170.57 114.19 199.01 114.19 199.01 85.76 170.57 85.76 170.57 57.35 142.16 57.35 142.16 85.76 170.57 85.76 170.57 114.19"/>
        <polygon class="cls-10" points="28.44 199.77 56.84 199.77 56.84 228.21 56.87 228.21 85.28 228.21 85.28 199.77 56.87 199.77 56.87 171.34 28.44 171.34 28.44 199.77"/>
        <rect class="cls-10" y="142.93" width="28.43" height="28.43"/>
        <rect class="cls-10" x="56.87" y="142.93" width="28.43" height="28.43"/>
        <polygon class="cls-10" points="113.73 228.2 142.14 228.2 142.17 228.2 142.17 199.76 113.73 199.76 113.73 228.2"/>
        <rect class="cls-10" x="85.3" y="171.33" width="28.43" height="28.43"/>
        <polygon class="cls-10" points="142.16 199.77 170.56 199.77 170.59 199.77 170.59 171.34 142.16 171.34 142.16 199.77"/>
        <rect class="cls-10" x="113.71" y="142.61" width="28.43" height="28.43"/>
        <rect class="cls-10" x="170.57" y="142.62" width="28.43" height="28.43"/>
      </g>
      <path class="cls-10" d="M259.94,129.55l-12.38-6.2v-6.39l12.38,6.2v6.39ZM259.94,119.29l-12.38-6.2v-6.36l12.38,6.18v6.39ZM259.94,109.02l-12.38-6.2v-6.36l12.38,6.18v6.39ZM259.94,98.75l-12.38-6.2v-6.36l12.38,6.18v6.39ZM259.94,88.48l-12.38-6.2v-6.36l12.38,6.2v6.36ZM259.94,78.21l-12.38-6.2v-2.81l3.52-1.77,8.86,4.43v6.36ZM259.94,67.94l-5.13-2.48,5.13-2.48v4.95ZM247.56,127.23l27.24,13.63-4.4,4.07-22.83-11.31v-6.39ZM247.56,137.32l19.99,10.09-4.43,4.09-15.56-7.79v-6.39ZM247.56,147.41l12.9,6.57-4.4,4.07-8.5-4.25v-6.39ZM247.56,157.68l5.66,2.84-5.66,5.32v-8.16ZM247.56,172.56l105.47-96.64v96.64l-12.38,6.18v-71.85l-79.13,72.58-13.97-6.91ZM329.13,124.24l6.57-6.02v9.2l-6.57-3.18ZM323.29,129.71l3.18-3,9.23,4.59v6.39l-12.41-6.2v-1.77ZM323.29,135.39l12.41,6.36v6.2l-12.41-6.2v-6.36ZM323.29,145.66l12.41,6.18v6.39l-12.41-6.2v-6.36ZM323.29,156.09l12.41,6.02v6.39l-12.41-6.2v-6.2ZM323.29,166.17l12.41,6.2v6.36l-12.41-6.18v-6.39ZM353.03,69.19l-3.36,3-13.81-6.91,3.21-3,13.97,6.91ZM333.04,67.76l13.97,6.91-4.43,4.09-13.97-6.91,4.43-4.09ZM325.77,74.51l14,6.88-4.43,4.09-14-6.91,4.43-4.07ZM318.53,81.05l13.97,6.91-4.43,4.07-13.97-6.91,4.43-4.07ZM311.44,87.59l13.81,7.09-4.43,4.07-13.81-7.09,4.43-4.07ZM304.19,94.32l13.79,6.91-4.4,4.07-13.81-6.91,4.43-4.07ZM297.1,100.86l13.81,6.91-4.61,4.25-13.81-6.91,4.61-4.25ZM289.86,107.58l13.79,6.91-4.59,4.09-13.63-6.91,4.43-4.09ZM282.59,114.15l13.81,6.91-4.43,4.07-13.81-6.91,4.43-4.07ZM277.27,112.2l-12.38,11.52v-60.73l12.38,6.2v43ZM270.91,124.94l4.43-4.07,13.81,6.91-4.61,4.07-13.63-6.91ZM281.88,134.32l-4.43,4.07-13.79-6.91,4.4-4.07,13.81,6.91ZM262.41,56.27l-19.83,9.9v109.38l19.83,9.93,55.93-51.34v41.41l19.83,9.93,19.81-9.93v-109.38l-19.81-9.9-55.93,51.5v-41.6l-19.83-9.9Z"/>
      <g class="cls-2">
        <path class="cls-10" d="M608.3,135.88h-7.43v-7.43h7.43v7.43ZM600.85,113.31h7.43v7.45h-7.43v-7.45ZM593.18,113.2h-7.48v-7.43h7.48v7.43ZM593.16,143.46h-7.48v-7.45h7.48v7.45ZM585.68,120.86h7.48v7.45h-7.48v-7.45ZM578.02,120.73h-7.48v-7.43h7.48v7.43ZM578.02,135.9h-7.43v-7.43h7.43v7.43M638.61,113.33v7.4h-15.17v-7.53h-7.45v-15.12h-15.22v-7.56h-7.48v-15.19h7.43v-7.43h-22.6v7.51h7.4v15.17h-7.51v7.53h-15.19c.03.39.08.76.08,1.12v14.02h-7.61v7.51h-15.09v-7.43h-7.48v22.54h7.51v-7.4h15.17v7.48h7.51v15.25c3.13-.03,6.28-.03,9.41-.08,1.95-.03,3.88-.08,5.84-.16v7.71h7.38v15.14h-7.4v7.48h22.62v-7.53h-7.43v-15.12h7.38v-4.69s-.05.05-.1.08v-2.89h15.4v-15.22h7.48v-7.45h15.19v7.4h7.48v-22.54h-7.53Z"/>
        <rect class="cls-10" x="555.44" y="90.59" width=".03" height=".03"/>
        <path class="cls-10" d="M547.84,83.06v7.61c2.53-.03,5.06-.05,7.61-.08.03-2.5.03-5.03.05-7.53h-7.66Z"/>
        <path class="cls-10" d="M631.01,83.06h-7.69c.03,2.5.05,5.03.08,7.53,2.55.03,5.08.03,7.61.05v-7.58"/>
        <path class="cls-10" d="M547.83,166.17h7.66c-.03-2.5-.03-5.03-.05-7.53-2.53-.03-5.08-.03-7.61-.05v7.58Z"/>
        <path class="cls-10" d="M631.01,166.17v-7.58c-2.55.03-5.08.05-7.61.05-.03,2.53-.05,5.03-.05,7.53h7.66Z"/>
      </g>
      <rect class="cls-10" x="623.36" y="158.62" width=".03" height=".05"/>
      <g class="cls-5">
        <rect class="cls-10" x="631.02" y="90.65" width=".03" height=".03"/>
        <path class="cls-10" d="M638.57,98v-7.32h-7.53v7.32h7.53Z"/>
      </g>
      <rect class="cls-10" x="623.31" y="83.04" width=".03" height=".03"/>
      <g class="cls-3">
        <path class="cls-10" d="M623.4,75.44h-7.43v7.61h7.32c.08-2.14.13-4.27.18-6.41,0-.42-.05-.81-.08-1.2"/>
        <path class="cls-10" d="M540.25,90.54v7.48h7.56v-7.32c-1.64-.05-3.28-.1-4.93-.16-.86-.03-1.75,0-2.63,0"/>
        <rect class="cls-10" x="547.81" y="90.67" width=".03" height=".03"/>
        <path class="cls-10" d="M615.98,173.75h7.51c0-1.54,0-2.97-.03-4.43,0-1.04-.1-2.08-.16-3.1h-7.32v7.53Z"/>
        <polyline class="cls-10" points="623.31 166.2 623.34 166.2 623.34 166.18 623.31 166.18 623.31 166.2"/>
      </g>
      <rect class="cls-10" x="540.25" y="151.19" width="7.56" height="7.38"/>
      <rect class="cls-10" x="547.81" y="158.56" width=".03" height=".03"/>
      <rect class="cls-10" x="631.03" y="158.54" width=".03" height=".05"/>
      <g class="cls-4">
        <path class="cls-10" d="M638.56,151.19h-7.51v7.38h7.51v-7.38Z"/>
        <path class="cls-10" d="M562.82,75.43h-7.45c0,1.72-.03,3.36,0,5.03.03.86.1,1.72.16,2.58h7.3v-7.61Z"/>
        <polyline class="cls-10" points="555.53 83.04 555.5 83.04 555.5 83.07 555.53 83.07 555.53 83.04"/>
        <rect class="cls-10" x="555.49" y="166.18" width=".03" height=".03"/>
        <path class="cls-10" d="M555.36,173.77h7.48v-7.56h-7.32c-.05.47-.16.94-.16,1.41v6.15"/>
        <path class="cls-10" d="M623.39,90.62h-7.38v7.43h7.38v-7.43Z"/>
      </g>
      <rect class="cls-10" x="623.39" y="90.59" width=".03" height=".03"/>
      <rect class="cls-10" x="615.99" y="98.05" width=".03" height=".03"/>
      <g class="cls-9">
        <rect class="cls-10" x="562.79" y="98.08" width=".03" height=".03"/>
        <path class="cls-10" d="M555.46,90.62v7.48h7.32v-7.48h-7.32"/>
      </g>
      <rect class="cls-10" x="555.44" y="158.62" width=".03" height=".03"/>
      <g class="cls-7">
        <path class="cls-10" d="M555.46,158.61h7.43v-7.38h-7.43v7.38Z"/>
      </g>
      <rect class="cls-10" x="562.87" y="151.21" width=".03" height=".03"/>
      <rect class="cls-10" x="615.99" y="151.16" width=".03" height=".03"/>
      <g class="cls-6">
        <path class="cls-10" d="M623.37,158.63v-7.45h-7.35v7.45h7.35Z"/>
        <path class="cls-10" d="M1107.04,93.51l-.18-.44-17.7-41.65,1.28.34c19,5.03,33.62,20.02,38.16,39.15l.18.73-21.74,1.88ZM1056.87,97.86l19.7-47.93h.96l.08.39,18.24,44.15-38.99,3.39ZM1023.74,100.73l.03-.76c1.38-23.12,17.38-42.56,39.85-48.32l1.28-.34-20.22,47.59-20.93,1.82ZM1122.65,130.2l-10.82-25.44,18.19-1.59v.73c-.13,8.81-2.45,17.49-6.72,25.15l-.65,1.15ZM1031.22,130.49l-.63-1.12c-2.92-5.11-4.95-10.58-6.02-16.34l-.13-.7,15.06-1.3-8.29,19.47ZM1076.83,156.37c-14.1,0-27.39-5.5-37.45-15.46l-.29-.31.16-.39,4.3-10.5,1.38-2.81,6.96-16.94.39-.03,48.22-4.2,9.04,21.89,1.17,3.02,4.04,9.83-.31.31c-10.06,10.03-23.4,15.59-37.61,15.59M1134.61,188.79h12.95l-19.55-45.97.23-.29c8.78-11.47,13.45-25.07,13.45-39.38l-.03-.16v-.83l33.91-2.92-1.02-11.6-34.09,2.97-.1-.57c-5.68-27.55-28.28-48.16-56.24-51.32l-.39-.05-6.72-15.87-6.72,15.82-.39.05c-31.98,3.41-56.84,30.28-57.81,62.5l-.03.57-23.3,2.01.99,11.6,23.12-2.01.08.57c1.77,10.5,6.15,20.49,12.69,28.88l.23.31-.16.34-19.26,45.35h12.93l14.99-36.7.7.57c11.68,9.88,26.53,15.32,41.75,15.32s30.21-5.5,41.96-15.48l.68-.57,15.14,36.85Z"/>
        <path class="cls-10" d="M443.83,243.06h13.92l-.03-28.46,3.36-.47c11.57-1.59,21.63-6.78,29.97-15.46,10.56-11.05,15.9-24.81,15.9-40.89,0-13.42-4.07-24.39-12.46-33.49-6.41-6.98-16.86-13.4-31.09-19.08l-14.62-5.73c-8.86-3.41-15.27-6.83-19.52-10.37-5.99-4.95-9.02-11.36-9.02-19.05,0-6.96,2.37-12.82,7.04-17.38,5.99-5.86,14.2-8.86,24.39-8.86,9.49,0,17.41,2.63,23.56,7.79,3.26,2.87,5.92,6.07,7.95,9.62l17.15-9.85c-3.88-6.67-9.12-12.54-15.59-17.49-6.93-5.03-14.83-7.98-23.46-8.68l-3.57-.29V0h-13.89v24.99l-3.34.47c-11.26,1.62-20.9,6.1-28.67,13.34-9.2,8.65-13.68,19.83-13.68,34.12,0,10.32,3.65,18.97,11.15,26.51,6.62,6.49,15.48,12.09,26.3,16.65l18.71,7.71c10.01,4.3,16.84,8.42,20.93,12.64,6.36,6.44,9.62,14.41,9.62,23.64,0,10.42-3.47,19.08-10.27,25.72-6.72,6.8-15.46,10.27-25.85,10.27-11.91,0-21.5-4.33-28.49-12.87-5.08-6.57-8.03-13.97-8.86-22.07l-21.63,4.61c1.77,11.99,6.8,22.6,14.99,31.59,9.75,10.82,21.37,16.58,35.5,17.64l3.6.29v27.81Z"/>
        <path class="cls-10" d="M946.43,180.77c-14.83,17.62-42.35,20.85-63.49,14.67-14.36-4.2-23.4-14.83-28.9-28.25-3.91-9.62-7.35-20.43-7.38-30.94-.03-4.07.47-8.7,4.48-10.66,2.14-1.04,7.53-2.08,8.52.57.03.68.03,1.38.08,2.06.05.39,0,1.02.1,1.49.1,2.37.5,4.27.6,6.67.05,1.17,1.28,2.16,2.42,2.01,1.25-.16,2.09-1.17,2.03-2.42-.13-2.84-.65-8.76-.7-9.49-.31-6.18.73-12.74,3.67-18.22,4.07-7.56,14.33-13.06,22.34-7.92,5.53,3.54,9.02,10.19,11.23,17.12.99,4.61,2.01,9.23,3.08,13.81.31,1.3,1.36,1.64,2.35,1.36.1,0,.16-.03.23-.03,1.04-.18,1.95-.96,1.75-2.29-.6-4.25-1.59-9.23-3.15-14.15-2.87-13.45-5.21-27.03-6.44-40.74-1.07-12.17-3.34-27.76,1.56-39.15,4.46-10.37,16.39-13.29,23.22-3,2.68,4.12,3.05,8.05,3.39,12.77.91,12.15,1.17,24.37,1.49,36.54.1,3.7.13,22.83.6,27.73.26,2.89,4.48,2.45,4.46-.42-.08-3.88-.1-7.79-.13-11.7,18.9,3.96,25.02,24,25.78,41.86.63,14.33-3.88,29.69-13.19,40.71M886.95,209.49c-5.76-1.33-10.63-4.51-14.67-8.76-2.68-2.79-5.47-6.02-7.19-9.62,9.15,7.56,21.01,10.58,32.68,11.18,5.71.29,11.52.13,17.23-.63-7.53,6.88-17.83,10.22-28.04,7.82M933.79,93.69c-.16-17.33-.39-34.79-2.24-51.94-1.46-13.66-16.26-26.43-28.85-15.72-11.57,9.85-9.23,28.2-8.47,41.8.63,11.36,2.14,22.65,4.12,33.83-2.58-3.15-5.71-5.66-9.51-6.93-8.89-2.97-18.87,1.98-23.77,9.51-3.15,4.85-4.77,10.71-5.26,16.58-3.08-1.04-7.12-.68-10.19.55-8.68,3.47-7.9,15.09-6.75,22.67,2.06,13.66,6.91,29.5,16.13,40.79.05,7.14,4.74,13.19,9.38,18.22,4.67,5.08,10.19,8.86,16.91,10.63,13.34,3.54,27.24-1.9,36.07-12.15.31-.36.44-.76.5-1.15,5.58-1.3,10.97-3.31,15.95-6.33,16.55-10.06,25.28-29.53,26.27-48.37,1.12-21.48-6.8-47.88-30.28-51.99"/>
        <path class="cls-10" d="M935.52,162.35c-.6-.31-2.74-1.15-3.65,1.43-1.49,4.22-3.57,9.12-4.56,11.81-.39,1.07-.39,2.03.94,2.79.99.57,2.14.31,2.89-.55,1.88-2.16,3.44-4.61,4.64-7.22,1.2-2.55,3.02-6.49-.26-8.26"/>
        <path class="cls-10" d="M918.89,156.39c-.89-.16-4.22-.05-3.94,3.28,1.07,11.68-.36,12.93-.76,16.6-.16,1.46.36,2.66,2.35,3.05,1.46.31,2.79-.52,3.36-1.88,1.43-3.47,2.35-7.17,2.76-10.89.42-3.7,1.04-9.33-3.78-10.16"/>
        <path class="cls-10" d="M903.87,162.89c-.6.03-2.55.39-2.03,2.74.81,3.81,1.51,8.37,1.98,10.82.21.96.65,1.67,1.98,1.64.99-.03,1.75-.76,1.9-1.72.39-2.48.44-5,.16-7.48-.29-2.45-.76-6.18-3.99-5.99"/>
        <path class="cls-10" d="M1255.78,213.46h0c2.35.91,4.9,1.36,7.61,1.36s5.5-.44,8.47-1.3c1.02-.31,1.56-1.41,1.25-2.5-.29-1.02-1.2-1.56-2.22-1.28-5.24,1.54-9.9,1.54-13.84.03-.94-.36-1.93.13-2.32,1.12-.42,1.07.05,2.19,1.04,2.58"/>
        <path class="cls-10" d="M1214.47,211.47c3.21.08,6.41.13,9.62.13,2.42,0,4.46-.36,5.58-2.76,1.12-2.42,1.59-5.29,2.08-7.9.13-.65.18-1.28.29-1.93l15.85-.91c3.34-.18,6.67-.39,10.01-.63,8.94-.57,18.17-1.17,27.21-1.25,12.3-.1,22.94,1.72,32.34,5.55,8.91,3.65,16.97,9.02,23.51,15.66-7.12-.39-14.52-.18-22.54.55l-5.73.55c-6.98.68-14.2,1.38-21.32,1.85l-4.35.34c-2.74.21-5.45.42-8.18.55-4.35.21-8.84-.1-13.14-.39l-1.82-.13c-4.8-.31-9.59-.55-14.39-.78-4.48-.21-8.94-.44-13.4-.73-10.95-.7-20.56-1.49-29.35-2.37.05-.83.1-1.9.16-3,.05-.99.1-1.95.13-2.81,2.5.13,4.98.34,7.45.42M1214.47,186.29c3.62,0,6.59,2.95,6.59,6.59s-2.97,6.59-6.59,6.59-6.59-2.95-6.59-6.59,2.95-6.59,6.59-6.59M1347.34,218.48h0c-6.65-7.87-15.3-14.41-25.05-18.95-9.85-4.59-20.98-7.04-33.13-7.3-6.59-.13-13.08.23-19.36.6l-37.24,2.14c.13-1.12.23-2.24.31-3.36.39-6.15.18-12.33-.13-18.5-.65-12.56-2.22-24.97-3.73-37.43-.76-6.28-1.3-12.59-.91-18.9.31-5.5,1.3-10.97,2.89-16.26,3.39-11.23,9.56-21.79,18.43-29.58.16-.16.29-.47.21-.7-1.33-4.38-5.11-6.67-9.41-7.56-2.29-.47-4.61-.57-6.93-.65-3.47-.1-6.93-.21-10.37-.34-3.47-.1-6.93-.21-10.4-.31-1.64-.05-3.31-.1-4.95-.16-1.2-.05-2.53-.23-3.7.18-2.71.96-2.11,4.43-2.11,6.7.03,3.57.05,7.14.03,10.71-.05,27.97-.99,55.93-3.02,83.82-1.12,15.72-2.61,31.38-4.4,47.02-.05.31.13.55.36.65.08.05.18.08.29.08,2.68.23,5.34.29,8.03.47-.05.83-.1,1.82-.13,2.81-.1,2.11-.21,4.2-.23,4.9-.03.68.26,1.28.73,1.62.31.29.68.44,1.09.47,17.77,1.9,35.63,2.89,55.46,3.88,1.77.1,3.54.21,5.32.34,3.23.23,6.54.47,9.85.47.16,0,.29.03.44.03,3.15,0,6.36-.26,9.43-.5l3.21-.23c10.16-.7,18.48-1.41,26.17-2.22,12.43-1.28,22.07-1.49,31.28-.63.76.03,1.54-.34,1.93-1.04.39-.76.29-1.64-.23-2.27"/>
        <path class="cls-10" d="M752.16,181.84l-.81-.21c-15.32-3.65-27.5-10.76-36.15-21.08l-.42-.5.47-.42c8.86-7.87,15.01-14.44,18.3-19.52,4.38-6.96,6.59-15.3,6.59-24.76v-47.04l12.01-9.77v123.3ZM724.27,55.98c-13.84,5.37-25.07,14.99-33.41,28.62-8.34,13.76-12.56,29.37-12.56,46.42,0,14.41,3.39,27.78,10.11,39.72,6.02,10.45,15.06,18.82,26.82,24.86,10.95,5.24,22.99,7.9,35.76,7.9,2.97,0,5.84-.13,8.52-.39,2.71-.23,5.32-.52,7.82-.86,21.01-3.39,37.87-17.23,50.09-41.15l-.1-.03c-5.21,3.88-9.23,6.91-12.09,9.02-3,2.24-4.64,3.41-5.13,3.75-9.83,6.52-20.17,9.8-30.68,9.8-1.38,0-3.41-.21-6.07-.63-2.63-.39-4.61-.6-5.86-.6h-.65V63l.83.26c5.84,1.95,11.75,4.01,17.57,6.1,5.5,2.01,10.95,4.09,16.13,6.2l20.09-21.97c-16.29-.29-32.16-4.98-47.2-14.02l-47.67,40.29v58.88c0,8.37-1.2,14.83-3.54,19.21l-.5.89-.6-.81c-10.16-13.32-15.3-27.76-15.3-42.9,0-23.04,9.28-42.92,27.63-59.14"/>
      </g>
      <polygon class="cls-10" points="1427.55 82.39 1451.74 82.39 1451.74 64.9 1431.46 43.77 1371.67 43.77 1351.63 64.9 1351.63 103.71 1371.67 124.64 1417.31 124.64 1427.55 135.58 1427.55 160.27 1417.31 170.77 1385.83 170.77 1375.58 160.27 1375.58 149.97 1351.63 149.97 1351.63 166.78 1371.67 187.92 1431.46 187.92 1451.74 166.76 1451.74 128.86 1431.46 107.7 1385.83 107.7 1375.58 96.99 1375.58 71.65 1385.8 60.71 1417.31 60.71 1427.55 71.65 1427.55 82.39"/>
      <g class="cls-8">
        <path class="cls-10" d="M1414.63,68.11h-25.88l-6.12,6.31v19.81c1.15,1.28,2.14,2.29,2.95,3.02.78.73,1.85,1.82,3.18,3.28h45.64l.13.13,24.06,25.18v43.94l-24.19,25.31h-65.42l-.1-.1-24.08-25.2v-26.97h37.84v14.7c1.15,1.28,2.14,2.24,2.92,2.89.81.68,1.9,1.75,3.21,3.18h25.85c1.2-1.3,2.11-2.27,2.87-2.95.7-.65,1.77-1.67,3.26-3.15v-19.1l-6.1-6.33h-45.66l-.1-.1-24.08-25.44v-44.59l24.19-25.33h65.42l.13.13,24.06,25.2v27.65h-37.84v-15.14l-6.1-6.31ZM1462.53,93.75v-33.57l-26.45-27.81h-68.8l-26.45,27.81v48.27l26.45,27.57h45.43l4.07,4.3v15.19l-.1.1c-.76.94-1.46,1.67-2.06,2.19-.6.52-1.17,1.07-1.8,1.69l-.13.1h-22.26l-.1-.13c-.76-.89-1.43-1.64-2.01-2.24-.6-.6-1.15-1.12-1.59-1.59l-.1-.1v-16.94h-45.79v32.89l26.45,27.78h68.8l26.45-27.78v-47.38l-26.45-27.78h-45.66l-.1-.13c-.73-.89-1.41-1.59-2.01-2.11-.63-.55-1.17-1.15-1.62-1.75l-.08-.1v-15.87l.1-.1,3.7-4.2h22.28l4.07,4.3v17.38h45.77Z"/>
      </g>
    </g>
  </g>
</svg>