<svg width="294" height="28" viewBox="0 0 294 28" fill="none" xmlns="http://www.w3.org/2000/svg">
<g clip-path="url(#clip0_1_2477)">
<path d="M154.301 20.204V0.212267L154.503 0H159.738V28H153.64L140.93 8.22054L140.342 7.796V28H135.016V0H140.93L153.915 19.9724L154.301 20.204Z" fill="#E94D34"/>
<path d="M22.2057 0V3.97519L22.0036 4.18746H5.32642V12.5431H20.7363V16.5762H5.51009L5.32642 16.7884V28H0V0H22.2057Z" fill="#E94D34"/>
<path d="M294 0H288.545V28H294V0Z" fill="#E94D34"/>
<path d="M105.996 16.8661V12.3506L44.3749 12.3506V16.8661L105.996 16.8661Z" fill="#E94D34"/>
<path d="M249.846 16.8651V12.3496L188.225 12.3496V16.8651L249.846 16.8651Z" fill="#E94D34"/>
</g>
<defs>
<clipPath id="clip0_1_2477">
<rect width="294" height="28" fill="white"/>
</clipPath>
</defs>
</svg>
