<svg preserveAspectRatio="none" width="100%" height="100%" overflow="visible" style="display: block;" viewBox="0 0 294 28" fill="none" xmlns="http://www.w3.org/2000/svg">
<g id="Livello_1" clip-path="url(#clip0_4105_150)">
<path id="Vector" d="M154.301 20.204V0.212267L154.503 0H159.737V28H153.64L140.93 8.22054L140.342 7.796V28H135.016V0H140.93L153.915 19.9724L154.301 20.204Z" fill="var(--fill-0, #E94D34)"/>
<path id="Vector_2" d="M22.2057 0V3.97519L22.0036 4.18746H5.32642V12.5431H20.7363V16.5762H5.51009L5.32642 16.7884V28H0V0H22.2057Z" fill="var(--fill-0, #E94D34)"/>
<path id="Vector_3" d="M294 0H288.545V28H294V0Z" fill="var(--fill-0, #E94D34)"/>
<path id="Vector_4" d="M105.996 16.8656V12.3501L44.3746 12.3501V16.8656L105.996 16.8656Z" fill="var(--fill-0, #E94D34)"/>
<path id="Vector_5" d="M249.846 16.8656V12.3501L188.225 12.3501V16.8656L249.846 16.8656Z" fill="var(--fill-0, #E94D34)"/>
</g>
<defs>
<clipPath id="clip0_4105_150">
<rect width="294" height="28" fill="white"/>
</clipPath>
</defs>
</svg>
