<svg preserveAspectRatio="none" width="100%" height="100%" overflow="visible" style="display: block;" viewBox="0 0 133 136" fill="none" xmlns="http://www.w3.org/2000/svg">
<g id="FNI">
<g id="Group">
<path id="Vector" d="M123.814 28.4379V0.59782L124.114 0.315H131.793V39.3088H122.843L104.272 11.7692L103.425 11.1682V39.3088H95.64V0.315H104.29L123.267 28.1197L123.814 28.4379Z" fill="var(--fill-0, #FCDDD5)" stroke="var(--stroke-0, #FCDDD5)" stroke-width="0.63" stroke-miterlimit="10"/>
<path id="Vector_2" d="M32.7608 1.48178V6.99677L32.4607 7.29727H8.08222V18.9459H30.6248V24.567H8.36466L8.08222 24.8498V40.4756H0.315V1.48178H32.7608Z" fill="var(--fill-0, #FCDDD5)" stroke="var(--stroke-0, #FCDDD5)" stroke-width="0.63" stroke-miterlimit="10"/>
<path id="Vector_3" d="M71.6675 96.4559H63.7061V135.467H71.6675V96.4559Z" fill="var(--fill-0, #FCDDD5)" stroke="var(--stroke-0, #FCDDD5)" stroke-width="0.63" stroke-miterlimit="10"/>
<path id="Vector_4" d="M86.3546 1.18115H42.4522V7.47389H86.3546V1.18115Z" fill="var(--fill-0, #FCDDD5)" stroke="var(--stroke-0, #FCDDD5)" stroke-width="0.63" stroke-miterlimit="10"/>
<path id="Vector_5" d="M7.14663 48.8717H0.862245V135.185H7.14663V48.8717Z" fill="var(--fill-0, #FCDDD5)" stroke="var(--stroke-0, #FCDDD5)" stroke-width="0.63" stroke-miterlimit="10"/>
<path id="Vector_6" d="M132.005 49.7379H125.72V134.619H132.005V49.7379Z" fill="var(--fill-0, #FCDDD5)" stroke="var(--stroke-0, #FCDDD5)" stroke-width="0.63" stroke-miterlimit="10"/>
</g>
<path id="Vector_7" d="M50.2016 128.945H1.65654V135.238H50.2016V128.945Z" fill="var(--fill-0, #FCDDD5)" stroke="var(--stroke-0, #FCDDD5)" stroke-width="0.63" stroke-miterlimit="10"/>
<path id="Vector_8" d="M130.027 128.945H82.6475V135.238H130.027V128.945Z" fill="var(--fill-0, #FCDDD5)" stroke="var(--stroke-0, #FCDDD5)" stroke-width="0.63" stroke-miterlimit="10"/>
</g>
</svg>
