<svg width="95" height="97" viewBox="0 0 95 97" fill="none" xmlns="http://www.w3.org/2000/svg">
<path d="M88.4443 20.1404V0.202543L88.6592 0H94.1586V27.9256H87.749L74.4495 8.203L73.8426 7.77259V27.9256H68.2675V0H74.4621L88.0524 19.9125L88.4443 20.1404Z" fill="#E94D34"/>
<path d="M23.2362 0.835449V4.78504L23.0213 5.00024H5.56254V13.3425H21.7065V17.368H5.76481L5.56254 17.5706V28.7611H0V0.835449H23.2362Z" fill="#E94D34"/>
<path d="M51.0996 68.8518H45.3979V96.7901H51.0996V68.8518Z" fill="#E94D34"/>
<path d="M61.6178 0.620361H30.1768V5.12695H61.6178V0.620361Z" fill="#E94D34"/>
<path d="M4.89245 34.7742H0.391846V96.5878H4.89245V34.7742Z" fill="#E94D34"/>
<path d="M94.3103 35.3945H89.8097V96.1828H94.3103V35.3945Z" fill="#E94D34"/>
<path d="M35.7266 92.1194H0.960693V96.626H35.7266V92.1194Z" fill="#E94D34"/>
<path d="M92.8944 92.1194H58.9629V96.626H92.8944V92.1194Z" fill="#E94D34"/>
</svg>
