<svg preserveAspectRatio="none" width="100%" height="100%" overflow="visible" style="display: block;" viewBox="0 0 119 44" fill="none" xmlns="http://www.w3.org/2000/svg">
<g id="_&#208;&#161;&#208;&#187;&#208;&#190;&#208;&#185;_1" clip-path="url(#clip0_4141_1679)">
<g id="Group">
<path id="Vector" d="M108.846 7.85749C107.448 7.85749 106.315 9.01228 106.315 10.4373C106.315 11.8624 107.448 13.0172 108.846 13.0172C110.244 13.0172 111.377 11.8624 111.377 10.4373C111.377 9.01228 110.244 7.85749 108.846 7.85749Z" fill="var(--fill-0, #E94D34)"/>
<path id="Vector_2" d="M97.5933 11.1646C91.7306 11.1646 86.9623 16.0246 86.9623 22C86.9623 27.9754 91.7306 32.8354 97.5933 32.8354C103.456 32.8354 108.224 27.9754 108.224 22C108.224 16.0246 103.456 11.1646 97.5933 11.1646ZM97.5933 28.9435C93.8375 28.9435 90.7808 25.828 90.7808 22C90.7808 18.172 93.8375 15.0614 97.5933 15.0614C101.349 15.0614 104.401 18.1769 104.401 22C104.401 25.8231 101.344 28.9435 97.5933 28.9435Z" fill="var(--fill-0, #E94D34)"/>
<path id="Vector_3" d="M106.035 44H88.7992C81.6492 44 75.8298 38.0737 75.8298 30.7813V13.2187C75.8298 5.9312 81.6444 0 88.7992 0H106.035C113.185 0 119.005 5.92629 119.005 13.2187V30.7862C119.005 38.0737 113.185 44.0049 106.035 44.0049V44ZM88.7992 4.13759C83.8863 4.13759 79.8942 8.2113 79.8942 13.2138V30.7813C79.8942 35.7887 83.8911 39.8575 88.7992 39.8575H106.035C110.948 39.8575 114.94 35.7838 114.94 30.7813V13.2187C114.94 8.2113 110.944 4.14251 106.035 4.14251H88.7992V4.13759Z" fill="var(--fill-0, #E94D34)"/>
</g>
<path id="Vector_4" d="M21.6092 24.7518L22.8097 16.7862H15.3125V11.6167C15.3125 9.4398 16.3588 7.31695 19.7192 7.31695H23.1279V0.535627C23.1279 0.535627 20.0326 0 17.0771 0C10.8962 0 6.86075 3.81327 6.86075 10.7174V16.7862H0V24.7518H6.86075V44H15.3077V24.7518H21.6044H21.6092Z" fill="var(--fill-0, #E94D34)"/>
</g>
<defs>
<clipPath id="clip0_4141_1679">
<rect width="119" height="44" fill="white"/>
</clipPath>
</defs>
</svg>
