<svg preserveAspectRatio="none" width="100%" height="100%" overflow="visible" style="display: block;" viewBox="0 0 95 97" fill="none" xmlns="http://www.w3.org/2000/svg">
<g id="FNI">
<g id="Group">
<path id="Vector" d="M88.4444 20.1404V0.202562L88.6593 1.90572e-05H94.1586V27.9257H87.7491L74.4496 8.20302L73.8427 7.77261V27.9257H68.2675V1.90572e-05H74.4622L88.0525 19.9125L88.4444 20.1404Z" fill="var(--fill-0, #E94D34)"/>
<path id="Vector_2" d="M23.2362 0.835593V4.78518L23.0213 5.00039H5.56254V13.3426H21.7065V17.3682H5.76481L5.56254 17.5707V28.7612H0V0.835593H23.2362Z" fill="var(--fill-0, #E94D34)"/>
<path id="Vector_3" d="M51.0995 68.852H45.3979V96.7903H51.0995V68.852Z" fill="var(--fill-0, #E94D34)"/>
<path id="Vector_4" d="M61.6178 0.620361H30.1768V5.12695H61.6178V0.620361Z" fill="var(--fill-0, #E94D34)"/>
<path id="Vector_5" d="M4.89251 34.7742H0.39191V96.5879H4.89251V34.7742Z" fill="var(--fill-0, #E94D34)"/>
<path id="Vector_6" d="M94.3104 35.3945H89.8098V96.1828H94.3104V35.3945Z" fill="var(--fill-0, #E94D34)"/>
</g>
<path id="Vector_7" d="M35.7267 92.1194H0.960807V96.626H35.7267V92.1194Z" fill="var(--fill-0, #E94D34)"/>
<path id="Vector_8" d="M92.8945 92.1194H58.963V96.626H92.8945V92.1194Z" fill="var(--fill-0, #E94D34)"/>
</g>
</svg>
