<svg preserveAspectRatio="none" width="100%" height="100%" overflow="visible" style="display: block;" viewBox="0 0 61 46" fill="none" xmlns="http://www.w3.org/2000/svg">
<g id="Livello_1" clip-path="url(#clip0_4097_53)">
<path id="Vector" d="M32.7294 13.2501V19.9328C35.0548 19.7792 37.8031 18.3006 40.0132 18.0893C40.2823 18.0701 40.3784 18.0125 40.5898 18.2622C40.7243 18.435 41.4931 20.4705 41.5892 20.8162C41.6468 21.0274 41.839 21.085 41.5315 21.277L34.19 23.255L38.5911 28.9967L35.3815 30.7442L30.7498 25.5593L26.1181 30.9746L23.1008 28.8239L27.4827 23.255L20.1411 21.3731L21.3135 18.0509L28.7319 19.9136V13.5382L29.0394 13.2309H32.7101L32.7294 13.2501Z" fill="var(--fill-0, #F7F4F4)"/>
<path id="Vector_2" d="M9.28261 0H0V45.7994H9.28261V0Z" fill="var(--fill-0, #F7F4F4)"/>
<path id="Vector_3" d="M61.0192 0H51.7366V45.7994H61.0192V0Z" fill="var(--fill-0, #F7F4F4)"/>
</g>
<defs>
<clipPath id="clip0_4097_53">
<rect width="61" height="45.7994" fill="white"/>
</clipPath>
</defs>
</svg>
