<svg width="78" height="59" viewBox="0 0 78 59" fill="none" xmlns="http://www.w3.org/2000/svg">
<g clip-path="url(#clip0_1_1750)">
<path d="M41.8503 17.0692V25.678C44.8239 25.4801 48.338 23.5753 51.1641 23.3031C51.5082 23.2784 51.631 23.2042 51.9014 23.5258C52.0734 23.7484 53.0564 26.3706 53.1792 26.8159C53.253 27.088 53.4987 27.1623 53.1055 27.4096L43.718 29.9576L49.3456 37.3543L45.2416 39.6054L39.3191 32.9262L33.3966 39.9023L29.5384 37.1316L35.1414 29.9576L25.7539 27.5333L27.253 23.2537L36.7388 25.6532V17.4402L37.132 17.0444H41.8257L41.8503 17.0692Z" fill="#E94D34"/>
<path d="M11.8696 0H0V59H11.8696V0Z" fill="#E94D34"/>
<path d="M78.0248 0H66.1553V59H78.0248V0Z" fill="#E94D34"/>
</g>
<defs>
<clipPath id="clip0_1_1750">
<rect width="78" height="59" fill="white"/>
</clipPath>
</defs>
</svg>
