<svg preserveAspectRatio="none" width="100%" height="100%" overflow="visible" style="display: block;" viewBox="0 0 232 34" fill="none" xmlns="http://www.w3.org/2000/svg">
<g id="Group">
<path id="Vector" d="M59.0708 0.602627V5.43046H38.4409V14.4041H57.2574V19.232H38.4409V28.4031L38.6564 28.6005H59.0708V33.3027H31.9413V0.602627H59.0708Z" fill="var(--fill-0, #E94D34)"/>
<path id="Vector_2" d="M203.067 33.3027H196.639L192.905 25.5674H176.458L172.832 33.3027H166.26L180.929 0.674416L188.201 0.602627L188.614 0.746206L203.067 33.3027ZM178.577 20.6139H190.75L184.861 6.81241L184.502 6.90215L178.559 20.6139H178.577Z" fill="var(--fill-0, #E94D34)"/>
<path id="Vector_3" d="M90.9224 9.70193H84.4228C83.8662 4.29978 76.846 3.88699 72.7702 5.19715C68.6945 6.5073 67.9763 10.1865 71.693 12.394C77.223 15.6963 92.3947 15.2297 91.7663 24.67C91.1199 34.2539 77.0973 35.1513 70.077 33.0514C65.6422 31.7233 62.3206 28.6005 62.159 23.7727H68.5868C68.9459 24.6162 68.9998 25.37 69.4666 26.2135C71.8366 30.4132 82.5017 30.5029 84.6742 26.4289C86.1285 23.7188 84.5305 21.8702 82.1246 20.7575C76.8819 18.3167 63.5236 17.8321 62.8413 10.3121C62.1949 3.16909 69.4127 0.369308 75.3737 0.0462554C82.1246 -0.330639 90.7069 1.48204 90.9404 9.70193H90.9224Z" fill="var(--fill-0, #E94D34)"/>
<path id="Vector_4" d="M144.355 0.602627L156.529 27.2365L168.235 0.602627H174.735L160.138 33.3027L152.471 33.2848L138.053 0.602627H144.355Z" fill="var(--fill-0, #E94D34)"/>
<path id="Vector_5" d="M27.2552 5.43046H6.64323V15.3733H25.4597V20.0576H6.64323V33.3027H0V0.817995L0.197502 0.602627H27.0577L27.2552 0.817995V5.43046Z" fill="var(--fill-0, #E94D34)"/>
<path id="Vector_6" d="M122.612 0.602627V5.43046H111.265V33.3027H104.622V5.43046H93.1308V0.602627H122.612Z" fill="var(--fill-0, #E94D34)"/>
<path id="Vector_7" d="M212.17 28.6005H231.956V33.3027H205.671V0.602627H211.955L212.17 0.817995V28.6005Z" fill="var(--fill-0, #E94D34)"/>
<path id="Vector_8" d="M133.69 0.602627H127.191V33.3027H133.69V0.602627Z" fill="var(--fill-0, #E94D34)"/>
</g>
</svg>
