<svg preserveAspectRatio="none" width="100%" height="100%" overflow="visible" style="display: block;" viewBox="0 0 323 35" fill="none" xmlns="http://www.w3.org/2000/svg">
<g id="Group">
<path id="Vector" d="M7.57687 1.00498C12.3349 8.14803 17.0749 15.3449 22.0124 22.3623C22.4433 22.9726 22.9101 23.7443 23.359 24.2827C23.4847 24.4442 23.359 24.6596 23.8258 24.534V0.987042H30.4152V33.741H23.3231L7.14595 10.3376L6.57141 9.99662V33.741H0.305226L0 33.4359V0.987042H7.61278L7.57687 1.00498Z" fill="var(--fill-0, #E94D34)"/>
<path id="Vector_2" d="M282.732 24.5519V1.00498H289.321V33.4538L289.016 33.7589H282.229C282.122 33.7589 281.798 33.5256 281.709 33.4L266.25 10.7504L265.46 9.99662V33.4359L265.154 33.741H259.193L258.888 33.4359V0.987042H266.196L282.05 24.1032L282.75 24.534L282.732 24.5519Z" fill="var(--fill-0, #E94D34)"/>
<path id="Vector_3" d="M91.9997 1.00503C96.9193 1.47166 101.516 4.21761 101.965 9.51208C102.449 15.0219 99.5766 18.8447 94.1543 19.8497L101.767 33.7769H95.2854L87.6726 20.46H79.5571V33.7769H73.2909L72.9857 33.4718V1.02299H91.9997V1.00503ZM79.8623 5.72519L79.5571 6.03029V15.4527L79.8623 15.7578H88.9115C89.3065 15.7578 90.7967 15.5424 91.2815 15.4527C96.5422 14.5014 96.8115 7.59171 92.0895 6.22771C91.461 6.04824 89.881 5.70725 89.3065 5.70725H79.8444L79.8623 5.72519Z" fill="var(--fill-0, #E94D34)"/>
<path id="Vector_4" d="M125.521 1.00503C129.884 1.38192 134.373 3.6074 135.396 8.16603C136.689 13.9271 133.726 18.8088 127.873 19.8497L135.378 33.3641L135.163 33.7769H128.986L121.374 20.46H113.258V33.4539L112.953 33.7589H106.992L106.687 33.4539V1.00503H125.503H125.521ZM113.276 5.72519V15.4527L113.581 15.7578H122.433C123.169 15.7578 125.09 15.4885 125.826 15.2552C130.046 13.8912 130.153 7.82502 126.149 6.33539C125.503 6.10208 123.672 5.72519 123.061 5.72519H113.294H113.276Z" fill="var(--fill-0, #E94D34)"/>
<path id="Vector_5" d="M254.831 17.3551C254.831 26.939 247.038 34.7102 237.415 34.7102C227.791 34.7102 219.998 26.939 219.998 17.3551C219.998 7.7712 227.791 0 237.415 0C247.038 0 254.831 7.7712 254.831 17.3551ZM236.212 5.16885C221.973 6.56874 224.038 33.418 240.521 29.1286C251.796 26.2032 250.647 3.75101 236.212 5.16885Z" fill="var(--fill-0, #E94D34)"/>
<path id="Vector_6" d="M322.412 1.00503V5.72519H301.962L301.656 6.03029V14.7348H320.473L320.778 15.0399V19.3293L320.473 19.6344H301.656V28.8594H322.412V33.4718L322.107 33.7769H295.372L295.067 33.4718V1.00503H322.412Z" fill="var(--fill-0, #E94D34)"/>
<path id="Vector_7" d="M167.05 33.777L163.477 26.1314L146.725 25.9878L142.991 33.777H136.509L151.106 1.11281C151.412 0.915387 157.642 0.915364 158.414 1.0051C158.647 1.041 158.863 1.00512 159.024 1.22049L173.209 33.777H167.032H167.05ZM148.862 21.0703H160.999L154.931 7.14312L148.862 21.0703Z" fill="var(--fill-0, #E94D34)"/>
<path id="Vector_8" d="M69.8795 33.7769H63.6134L60.0404 26.1134L43.2887 26.0236L39.3566 33.7769H33.0904L47.7773 1.00502C50.0396 1.23834 52.7867 0.735811 54.9951 1.00502C55.2285 1.04092 55.4619 1.00504 55.6056 1.22041L69.8975 33.7769H69.8795ZM45.4253 21.0702H57.5626L51.6915 7.14304L45.4253 21.0702Z" fill="var(--fill-0, #E94D34)"/>
<path id="Vector_9" d="M204.791 1.00503V5.81493C198.668 12.8144 192.205 19.5088 185.974 26.3826C185.49 26.921 184.736 27.7107 184.323 28.2312C184.161 28.4286 183.928 28.4824 184.017 28.8414H204.988V33.7589H176.71L176.405 33.4539V28.7516L196.873 6.7482L197.376 5.72519H176.602V1.02299H204.773L204.791 1.00503Z" fill="var(--fill-0, #E94D34)"/>
<path id="Vector_10" d="M215.905 1.00503H209.315V33.7589H215.905V1.00503Z" fill="var(--fill-0, #E94D34)"/>
</g>
</svg>
