<svg preserveAspectRatio="none" width="100%" height="100%" overflow="visible" style="display: block;" viewBox="0 0 324 35" fill="none" xmlns="http://www.w3.org/2000/svg">
<g id="Group">
<path id="Vector" d="M36.3941 24.2586V0.72961H42.9835V33.1605L42.6782 33.4835H35.6759L19.9117 10.475L19.1217 9.73922V33.1605L18.8165 33.4835H12.5503V0.72961H19.8399L35.8195 23.9176L36.3941 24.2586Z" fill="var(--fill-0, #E94D34)"/>
<path id="Vector_2" d="M48.7469 0.729589H66.3245C72.6266 0.729589 78.6953 7.11879 79.8983 13.0055C82.2862 24.6354 75.3019 32.8733 63.6493 33.4835C59.9147 33.6809 53.0022 33.8963 49.4471 33.4835C49.1419 33.4476 48.9265 33.4656 48.729 33.1605V0.711624L48.7469 0.729589ZM55.3183 5.73686V28.2608L55.6235 28.566H64.0622C65.0318 28.566 67.6352 27.5968 68.5509 27.0943C75.5891 23.1817 75.4994 10.4212 68.2636 6.7958C65.4447 5.37796 59.1786 5.05489 56.0365 5.43179C55.7313 5.46768 55.5158 5.44972 55.3183 5.75483V5.73686Z" fill="var(--fill-0, #E94D34)"/>
<path id="Vector_3" d="M211.811 33.4835H205.545L197.932 20.1845H189.817V33.1785L189.511 33.4835H183.245V0.72961H202.062C203.983 0.72961 207.7 2.20129 209.226 3.42171C213.373 6.79581 213.122 14.4773 208.813 17.6719C207.448 18.677 205.976 19.0359 204.432 19.664L211.829 33.4835H211.811ZM189.817 15.4643H198.974C199.369 15.4643 200.841 15.249 201.344 15.1592C203.355 14.8182 205.204 13.6158 205.455 11.4621C205.742 8.84178 205.006 6.7778 202.367 5.93428C201.774 5.73685 200.159 5.41384 199.602 5.41384H189.835V15.4465L189.817 15.4643Z" fill="var(--fill-0, #E94D34)"/>
<path id="Vector_4" d="M323.687 0.72961V5.43181H302.913V14.4414H321.837V19.359H302.913V28.566H323.687V33.1605L323.381 33.4835H296.647L296.342 33.1605V0.72961H323.687Z" fill="var(--fill-0, #E94D34)"/>
<path id="Vector_5" d="M256.536 33.4835L252.963 25.838L236.212 25.6943L232.477 33.4835H226.301L226.085 33.0708L240.485 0.944982C240.646 0.729613 240.862 0.765517 241.095 0.729622C242.496 0.568096 246.5 0.568096 247.9 0.729622C248.133 0.747569 248.349 0.729613 248.51 0.944982L262.695 33.5015H256.518L256.536 33.4835ZM250.485 20.7768L244.417 6.84962L238.348 20.7768H250.485Z" fill="var(--fill-0, #E94D34)"/>
<path id="Vector_6" d="M148.27 9.73924H141.68C141.608 3.51151 129.974 3.33196 127.281 6.97528C125.252 9.72122 127.64 11.8929 130.082 12.9877C135.863 15.5721 149.67 15.8233 149.078 24.779C148.377 34.9911 131.572 35.7449 124.677 32.0836C121.661 30.4863 119.345 27.3635 119.47 23.8638H125.737C126.401 25.4252 126.616 26.6276 127.999 27.7404C131.213 30.3427 140.89 30.3248 142.291 25.6046C143.386 21.9254 139.436 20.7229 136.725 19.8615C130.62 17.9411 118.878 17.0258 120.117 8.03422C120.817 2.99101 126.957 0.442409 131.482 0.10141C138.574 -0.437011 147.893 0.945019 148.234 9.72127L148.27 9.73924Z" fill="var(--fill-0, #E94D34)"/>
<path id="Vector_7" d="M90.9045 0.72961V21.5127C90.9045 30.2351 105.232 32.4785 107.908 23.5048C108.015 23.1459 108.374 21.7639 108.374 21.5127V0.72961H114.964C114.712 7.02913 115.305 13.5978 114.964 19.8794C114.389 30.5222 106.74 35.4578 96.3986 33.8425C90.2401 32.8733 84.3151 27.9916 84.3151 21.3152V0.747574H90.9045V0.72961Z" fill="var(--fill-0, #E94D34)"/>
<path id="Vector_8" d="M179.529 0.72961V5.43181H168.325L168.02 5.73688V33.4835H161.736L161.43 33.1605V5.43181H149.921V0.72961H179.529Z" fill="var(--fill-0, #E94D34)"/>
<path id="Vector_9" d="M272.677 0.72961V28.566H292.428V33.4835H266.106V0.72961H272.677Z" fill="var(--fill-0, #E94D34)"/>
<path id="Vector_10" d="M223.536 0.72961H216.749V33.4835H223.536V0.72961Z" fill="var(--fill-0, #E94D34)"/>
<path id="Vector_11" d="M6.58936 0.72961H0V33.4835H6.58936V0.72961Z" fill="var(--fill-0, #E94D34)"/>
</g>
</svg>
