<svg width="133" height="136" viewBox="0 0 133 136" fill="none" xmlns="http://www.w3.org/2000/svg">
<path d="M123.814 28.4378V0.597761L124.114 0.314941H131.793V39.3087H122.843L104.272 11.7691L103.425 11.1682V39.3087H95.6399V0.314941H104.29L123.266 28.1197L123.814 28.4378Z" fill="#FCDDD5" stroke="#FCDDD5" stroke-width="0.63" stroke-miterlimit="10"/>
<path d="M32.7607 1.48145V6.99643L32.4606 7.29693H8.08216V18.9456H30.6247V24.5666H8.3646L8.08216 24.8494V40.4752H0.314941V1.48145H32.7607Z" fill="#FCDDD5" stroke="#FCDDD5" stroke-width="0.63" stroke-miterlimit="10"/>
<path d="M71.6675 96.4556H63.7061V135.467H71.6675V96.4556Z" fill="#FCDDD5" stroke="#FCDDD5" stroke-width="0.63" stroke-miterlimit="10"/>
<path d="M86.3546 1.18115H42.4521V7.47389H86.3546V1.18115Z" fill="#FCDDD5" stroke="#FCDDD5" stroke-width="0.63" stroke-miterlimit="10"/>
<path d="M7.14657 48.8716H0.862183V135.185H7.14657V48.8716Z" fill="#FCDDD5" stroke="#FCDDD5" stroke-width="0.63" stroke-miterlimit="10"/>
<path d="M132.005 49.7378H125.72V134.619H132.005V49.7378Z" fill="#FCDDD5" stroke="#FCDDD5" stroke-width="0.63" stroke-miterlimit="10"/>
<path d="M50.2016 128.945H1.65649V135.238H50.2016V128.945Z" fill="#FCDDD5" stroke="#FCDDD5" stroke-width="0.63" stroke-miterlimit="10"/>
<path d="M130.027 128.945H82.6475V135.238H130.027V128.945Z" fill="#FCDDD5" stroke="#FCDDD5" stroke-width="0.63" stroke-miterlimit="10"/>
</svg>
