<svg preserveAspectRatio="none" width="100%" height="100%" overflow="visible" style="display: block;" viewBox="0 0 182 67" fill="none" xmlns="http://www.w3.org/2000/svg">
<g id="Livello_1" clip-path="url(#clip0_4095_17)">
<path id="Vector" d="M4.90454 0V2.59588C5.81273 2.53016 6.88604 1.95513 7.74468 1.87298C7.84376 1.87298 7.89329 1.84012 7.95934 1.9387C8.00888 2.00441 8.32262 2.79304 8.35564 2.9409C8.37215 3.02305 8.45472 3.03948 8.33913 3.12163L5.48248 3.89382L7.19977 6.12825L5.94483 6.80186L4.14497 4.79745L2.34512 6.90044L1.17274 6.06253L2.87352 3.89382L0.0168651 3.15449L0.479213 1.85655L3.36889 2.57945V0.115007L3.48448 0H4.92106H4.90454Z" fill="var(--fill-0, #E94D34)"/>
<g id="Group">
<path id="Vector_2" d="M50.6106 4.76459V7.26189H39.9105V11.8786H49.6694V14.3759H39.9105V19.1077L40.0261 19.2227H50.6106V21.6378H36.542V4.76459H50.6106Z" fill="var(--fill-0, #E94D34)"/>
<path id="Vector_3" d="M160.435 21.6378H157.099L155.167 17.6454H146.647L144.764 21.6378H141.363L148.959 4.79745L152.723 4.76459L152.938 4.84674L160.435 21.6378ZM147.737 15.0824H154.044L150.99 7.96837L150.808 8.01766L147.737 15.0988V15.0824Z" fill="var(--fill-0, #E94D34)"/>
<path id="Vector_4" d="M73.0675 9.46346H69.699C69.4183 6.67043 65.769 6.45684 63.6554 7.13046C61.5418 7.80407 61.1785 9.70991 63.094 10.8436C65.9672 12.5522 73.8271 12.3058 73.4968 17.169C73.1666 22.1143 65.8846 22.5743 62.2519 21.4899C59.9566 20.7999 58.2393 19.1898 58.1403 16.7089H61.4758C61.6574 17.1361 61.6904 17.5304 61.9381 17.974C63.1766 20.1427 68.6917 20.192 69.8145 18.089C70.5741 16.6925 69.732 15.7396 68.4936 15.1645C65.769 13.8995 58.8503 13.653 58.5035 9.77562C58.1733 6.07896 61.9051 4.64958 64.9929 4.46886C68.4936 4.2717 72.9354 5.20819 73.0675 9.44703V9.46346Z" fill="var(--fill-0, #E94D34)"/>
<path id="Vector_5" d="M118.064 4.76459L124.372 18.4998L130.432 4.76459H133.817L126.238 21.6378L122.275 21.6214L114.794 4.76459H118.064Z" fill="var(--fill-0, #E94D34)"/>
<path id="Vector_6" d="M28.9958 7.26189H18.3123V12.3879H28.0711V14.8031H18.3123V21.6378H14.8612V4.8796L14.9768 4.76459H28.8968L28.9958 4.8796V7.26189Z" fill="var(--fill-0, #E94D34)"/>
<path id="Vector_7" d="M96.3335 4.76459V7.26189H90.4551V21.6378H87.004V7.26189H81.0595V4.76459H96.3335Z" fill="var(--fill-0, #E94D34)"/>
<path id="Vector_8" d="M171.349 19.2227H181.62V21.6378H167.981V4.76459H171.25L171.349 4.8796V19.2227Z" fill="var(--fill-0, #E94D34)"/>
<path id="Vector_9" d="M107.248 4.76459H103.88V21.6378H107.248V4.76459Z" fill="var(--fill-0, #E94D34)"/>
<g id="Group_2">
<path id="Vector_10" d="M18.7416 26.8624C21.2185 30.5427 23.6623 34.2558 26.2217 37.8867C26.4364 38.1989 26.6841 38.5932 26.9153 38.8889C26.9813 38.9711 26.9153 39.0861 27.1629 39.0204V26.8624H30.581V43.7685H26.8987L18.5104 31.6927L18.2132 31.512V43.7685H14.9603L14.7951 43.6042V26.8624H18.7416Z" fill="var(--fill-0, #E94D34)"/>
<path id="Vector_11" d="M161.376 39.0039V26.846H164.794V43.5878L164.629 43.7521H161.112C161.112 43.7521 160.897 43.6206 160.848 43.5714L152.839 31.8899L152.426 31.4956V43.5878L152.261 43.7521H149.173L149.008 43.5878V26.846H152.79L161.013 38.7739L161.376 38.9875V39.0039Z" fill="var(--fill-0, #E94D34)"/>
<path id="Vector_12" d="M62.4995 26.8624C65.0425 27.1089 67.4202 28.5218 67.6679 31.2491C67.9156 33.9765 66.4295 36.063 63.6224 36.5888L67.5689 43.7685H64.2168L60.2704 36.9009H56.0597V43.7685H52.8067L52.6416 43.6042V26.8624H62.4995ZM56.2083 29.294L56.0432 29.4583V34.3215L56.2083 34.4858H60.8978C61.096 34.4858 61.8721 34.3872 62.1363 34.3379C64.8608 33.845 65.0094 30.2798 62.5656 29.5733C62.2353 29.4747 61.4262 29.3104 61.129 29.3104H56.2248L56.2083 29.294Z" fill="var(--fill-0, #E94D34)"/>
<path id="Vector_13" d="M79.8706 26.8624C82.1328 27.0596 84.4611 28.2097 84.9895 30.5591C85.6665 33.5329 84.1308 36.0466 81.0925 36.5888L84.9895 43.5549L84.8739 43.7685H81.6705L77.724 36.9009H73.5133V43.6042L73.3482 43.7685H70.2604L70.0953 43.6042V26.8624H79.8541H79.8706ZM73.5299 29.294V34.3051L73.695 34.4693H78.2854C78.6652 34.4693 79.656 34.3379 80.0523 34.2065C82.2319 33.5 82.298 30.3619 80.2174 29.6062C79.8871 29.4912 78.9294 29.294 78.6157 29.294H73.5464H73.5299Z" fill="var(--fill-0, #E94D34)"/>
<path id="Vector_14" d="M146.911 35.2908C146.911 40.2361 142.866 44.245 137.879 44.245C132.892 44.245 128.846 40.2361 128.846 35.2908C128.846 30.3455 132.892 26.3367 137.879 26.3367C142.866 26.3367 146.911 30.3455 146.911 35.2908ZM137.251 28.9983C129.87 29.7212 130.944 43.5714 139.481 41.3534C145.326 39.8418 144.731 28.259 137.251 28.9983Z" fill="var(--fill-0, #E94D34)"/>
<path id="Vector_15" d="M181.95 26.8624V29.294H171.333L171.184 29.4419V33.9436H180.927L181.092 34.0915V36.3095L180.927 36.4738H171.184V41.2219H181.95V43.6042L181.785 43.7685H167.931L167.766 43.6042V26.8624H181.95Z" fill="var(--fill-0, #E94D34)"/>
<path id="Vector_16" d="M101.403 43.7685L99.5534 39.8254L90.8679 39.7597L88.9359 43.7849H85.5839L93.1466 26.9282C93.3117 26.8296 96.5317 26.8296 96.9445 26.8624C97.0601 26.8624 97.1756 26.8624 97.2582 26.9774L104.606 43.7849H101.403V43.7685ZM91.9742 37.2131H98.2655L95.1281 30.0334L91.9742 37.2131Z" fill="var(--fill-0, #E94D34)"/>
<path id="Vector_17" d="M51.0399 43.7685H47.787L45.9376 39.809L37.252 39.7597L35.2045 43.7521H31.9515L39.5638 26.846C40.7362 26.961 42.1727 26.6981 43.3121 26.846C43.4277 26.846 43.5433 26.846 43.6258 26.961L51.0399 43.7685ZM38.3584 37.2131H44.6496L41.6113 30.0333L38.3584 37.2131Z" fill="var(--fill-0, #E94D34)"/>
<path id="Vector_18" d="M120.97 26.8624V29.3433C117.8 32.9578 114.448 36.408 111.211 39.9568C110.964 40.2361 110.567 40.6469 110.353 40.9098C110.27 41.0083 110.154 41.0412 110.187 41.2219H121.069V43.7521H106.406L106.241 43.5878V41.1562L116.842 29.8033L117.106 29.2776H106.34V26.846H120.937L120.97 26.8624Z" fill="var(--fill-0, #E94D34)"/>
<path id="Vector_19" d="M126.733 26.8624H123.315V43.7685H126.733V26.8624Z" fill="var(--fill-0, #E94D34)"/>
</g>
<g id="Group_3">
<path id="Vector_20" d="M33.0744 61.9068V49.7653H36.4925V66.5071L36.3273 66.655H32.6946L24.5375 54.7928L24.1247 54.3985V66.5071L23.9595 66.655H20.7066V49.7653H24.4879L32.7772 61.7261L33.0744 61.9068Z" fill="var(--fill-0, #E94D34)"/>
<path id="Vector_21" d="M39.4647 49.7653H48.5796C51.849 49.7653 54.9864 53.0677 55.6139 56.1072C56.8523 62.104 53.2361 66.3592 47.1925 66.6714C45.2606 66.77 41.6774 66.885 39.828 66.6714C39.6794 66.655 39.5473 66.6714 39.4647 66.5071V49.7653ZM42.8828 52.3448V63.9605L43.0479 64.1248H47.4237C47.9191 64.1248 49.2731 63.6319 49.7519 63.3691C53.4012 61.3482 53.3517 54.7764 49.6033 52.887C48.1502 52.164 44.8973 51.9998 43.2626 52.1805C43.114 52.1969 42.9819 52.1805 42.8993 52.3448H42.8828Z" fill="var(--fill-0, #E94D34)"/>
<path id="Vector_22" d="M124.008 66.655H120.755L116.809 59.7874H112.598V66.4907L112.433 66.655H109.18V49.7489H118.939C119.93 49.7489 121.862 50.5047 122.654 51.1454C124.801 52.887 124.685 56.8465 122.44 58.5059C121.73 59.0316 120.97 59.2124 120.161 59.5245L123.992 66.655H124.008ZM112.598 57.3558H117.337C117.552 57.3558 118.295 57.2408 118.576 57.2079C119.616 57.0272 120.574 56.4029 120.706 55.3021C120.854 53.9549 120.475 52.887 119.104 52.4598C118.79 52.3612 117.948 52.1969 117.668 52.1969H112.598V57.3722V57.3558Z" fill="var(--fill-0, #E94D34)"/>
<path id="Vector_23" d="M182 49.7653V52.1805H171.234V56.8301H181.042V59.3767H171.234V64.1248H182V66.5071L181.835 66.655H167.981L167.816 66.5071V49.7653H182Z" fill="var(--fill-0, #E94D34)"/>
<path id="Vector_24" d="M147.192 66.655L145.342 62.7119L136.657 62.6462L134.725 66.6714H131.522L131.406 66.4578L138.87 49.8803C138.952 49.7653 139.068 49.7818 139.183 49.7653C139.91 49.6832 141.99 49.6832 142.717 49.7653C142.833 49.7653 142.948 49.7653 143.031 49.8803L150.379 66.6714H147.175L147.192 66.655ZM144.054 60.116L140.917 52.9362L137.763 60.116H144.054Z" fill="var(--fill-0, #E94D34)"/>
<path id="Vector_25" d="M91.0661 54.3985H87.648C87.615 51.1783 81.5714 51.0961 80.1844 52.9691C79.1441 54.3821 80.3825 55.5157 81.6375 56.0743C84.6262 57.4051 91.7926 57.5365 91.4789 62.1697C91.1156 67.4272 82.4135 67.8379 78.8303 65.9321C77.2617 65.1106 76.0728 63.5005 76.1388 61.6932H79.3918C79.7385 62.4983 79.8541 63.1226 80.5641 63.6976C82.2319 65.0449 87.2517 65.0284 87.9782 62.5969C88.5396 60.7075 86.4921 60.0667 85.0886 59.6395C81.9347 58.6537 75.8416 58.1773 76.4856 53.5441C76.8488 50.9318 80.0357 49.6339 82.3805 49.4532C86.0628 49.1739 90.8844 49.8968 91.0661 54.4149V54.3985Z" fill="var(--fill-0, #E94D34)"/>
<path id="Vector_26" d="M61.3272 49.7653V60.4939C61.3272 64.9956 68.7578 66.1457 70.1448 61.5125C70.1943 61.3318 70.3925 60.6089 70.3925 60.4939V49.7653H73.8106C73.6785 53.0184 73.9922 56.4029 73.8106 59.6395C73.5133 65.127 69.5504 67.6736 64.1838 66.8357C60.9804 66.3428 57.9256 63.8127 57.9256 60.3624V49.7489H61.3437L61.3272 49.7653Z" fill="var(--fill-0, #E94D34)"/>
<path id="Vector_27" d="M107.265 49.7653V52.1805H101.469L101.304 52.3448V66.655H98.0508L97.8857 66.5071V52.1805H91.9247V49.7653H107.265Z" fill="var(--fill-0, #E94D34)"/>
<path id="Vector_28" d="M155.564 49.7653V64.1248H165.801V66.655H152.146V49.7653H155.564Z" fill="var(--fill-0, #E94D34)"/>
<path id="Vector_29" d="M130.085 49.7653H126.568V66.6714H130.085V49.7653Z" fill="var(--fill-0, #E94D34)"/>
<path id="Vector_30" d="M17.6188 49.7653H14.2007V66.6714H17.6188V49.7653Z" fill="var(--fill-0, #E94D34)"/>
</g>
</g>
</g>
<defs>
<clipPath id="clip0_4095_17">
<rect width="182" height="67" fill="white"/>
</clipPath>
</defs>
</svg>
