<svg preserveAspectRatio="none" width="100%" height="100%" overflow="visible" style="display: block;" viewBox="0 0 1920 210" fill="none" xmlns="http://www.w3.org/2000/svg">
<g id="Group 123">
<path id="Vector" d="M1920 0H0V209.084H1920V0Z" fill="var(--fill-0, #E94D34)"/>
<g id="Group">
<path id="Vector_2" d="M499.32 109.724V115.774H473.364V127.02H497.038V133.07H473.364V144.563L473.635 144.833H499.32V150.703H465.187V109.724H499.32Z" fill="var(--fill-0, #FCDDD5)"/>
<path id="Vector_3" d="M680.488 150.703H672.401L667.702 141.009H647.01L642.447 150.703H634.179L652.635 109.814L661.784 109.724L662.303 109.904L680.488 150.703ZM649.676 134.802H664.991L657.582 117.506L657.13 117.619L649.653 134.802H649.676Z" fill="var(--fill-0, #FCDDD5)"/>
<path id="Vector_4" d="M539.394 121.15H531.216C530.516 114.38 521.683 113.862 516.556 115.504C511.428 117.146 510.524 121.757 515.2 124.523C522.158 128.662 541.246 128.077 540.455 139.907C539.642 151.917 522 153.042 513.167 150.41C507.587 148.746 503.408 144.833 503.205 138.783H511.292C511.744 139.84 511.812 140.784 512.399 141.841C515.381 147.104 528.799 147.217 531.532 142.111C533.362 138.715 531.352 136.399 528.325 135.004C521.729 131.945 504.922 131.338 504.063 121.914C503.25 112.963 512.331 109.454 519.831 109.049C528.325 108.577 539.123 110.849 539.416 121.15H539.394Z" fill="var(--fill-0, #FCDDD5)"/>
<path id="Vector_5" d="M606.62 109.724L621.936 143.101L636.664 109.724H644.842L626.476 150.726L616.831 150.681L598.691 109.724H606.62Z" fill="var(--fill-0, #FCDDD5)"/>
<path id="Vector_6" d="M459.291 115.774H433.358V128.234H457.032V134.105H433.358V150.703H425V109.994L425.248 109.724H459.042L459.291 109.994V115.774Z" fill="var(--fill-0, #FCDDD5)"/>
<path id="Vector_7" d="M579.264 109.724V115.774H564.987V150.703H556.629V115.774H542.172V109.724H579.264Z" fill="var(--fill-0, #FCDDD5)"/>
<path id="Vector_8" d="M691.941 144.833H716.834V150.703H683.763V109.724H691.67L691.941 109.994V144.833Z" fill="var(--fill-0, #FCDDD5)"/>
<path id="Vector_9" d="M593.202 109.724H585.024V150.703H593.202V109.724Z" fill="var(--fill-0, #FCDDD5)"/>
<g id="Group_2">
<path id="Vector_10" d="M753.836 109.298C759.823 118.249 765.786 127.268 771.998 136.062C772.541 136.827 773.128 137.794 773.693 138.469C773.851 138.671 773.693 138.941 774.28 138.784V109.275H782.57V150.322H773.647L753.294 120.993L752.571 120.566V150.322H744.688L744.304 149.939V109.275H753.882L753.836 109.298Z" fill="var(--fill-0, #FCDDD5)"/>
<path id="Vector_11" d="M1100 138.806V109.298H1108.29V149.962L1107.91 150.344H1099.37C1099.23 150.344 1098.82 150.052 1098.71 149.894L1079.26 121.511L1078.27 120.566V149.939L1077.88 150.322H1070.38L1070 149.939V109.275H1079.19L1099.14 138.244L1100.02 138.784L1100 138.806Z" fill="var(--fill-0, #FCDDD5)"/>
<path id="Vector_12" d="M860.03 109.298C866.22 109.883 872.002 113.324 872.567 119.959C873.177 126.863 869.563 131.654 862.741 132.914L872.319 150.367H864.164L854.586 133.678H844.375V150.367H836.492L836.108 149.984V109.32H860.03V109.298ZM844.782 115.191L844.398 115.573V127.381L844.782 127.763H856.167C856.664 127.763 858.539 127.493 859.149 127.381C865.768 126.189 866.107 117.53 860.165 115.82C859.375 115.595 857.387 115.168 856.664 115.168H844.759L844.782 115.191Z" fill="var(--fill-0, #FCDDD5)"/>
<path id="Vector_13" d="M902.205 109.298C907.694 109.77 913.341 112.559 914.629 118.272C916.255 125.492 912.528 131.609 905.164 132.914L914.606 149.849L914.335 150.367H906.564L896.986 133.678H886.776V149.962L886.392 150.344H878.892L878.508 149.962V109.298H902.182H902.205ZM886.821 115.191V127.381L887.205 127.763H898.342C899.268 127.763 901.685 127.426 902.611 127.133C907.92 125.424 908.055 117.822 903.018 115.955C902.205 115.663 899.9 115.191 899.132 115.191H886.844H886.821Z" fill="var(--fill-0, #FCDDD5)"/>
<path id="Vector_14" d="M1064.89 129.786C1064.89 141.797 1055.09 151.535 1042.98 151.535C1030.88 151.535 1021.07 141.797 1021.07 129.786C1021.07 117.776 1030.88 108.038 1042.98 108.038C1055.09 108.038 1064.89 117.776 1064.89 129.786ZM1041.49 114.515C1023.58 116.269 1026.18 149.916 1046.91 144.541C1061.1 140.875 1059.65 112.738 1041.49 114.515Z" fill="var(--fill-0, #FCDDD5)"/>
<path id="Vector_15" d="M1149.94 109.298V115.191H1124.19L1123.81 115.595V126.481H1147.48L1147.87 126.863V132.261L1147.48 132.644H1123.81V144.204H1149.94V149.962L1149.56 150.344H1115.92L1115.54 149.962V109.298H1149.94Z" fill="var(--fill-0, #FCDDD5)"/>
<path id="Vector_16" d="M954.477 150.344L949.982 140.763L928.906 140.583L924.207 150.344H916.052L934.418 109.41C934.802 109.163 942.64 109.163 943.611 109.275C943.905 109.32 944.176 109.275 944.38 109.545L962.225 150.344H954.455H954.477ZM931.571 134.443H946.842L939.207 116.99L931.571 134.443Z" fill="var(--fill-0, #FCDDD5)"/>
<path id="Vector_17" d="M832.222 150.344H824.338L819.843 140.74L798.767 140.628L793.82 150.344H785.936L804.414 109.275C807.261 109.567 810.717 108.938 813.495 109.275C813.789 109.32 814.083 109.275 814.263 109.545L832.245 150.344H832.222ZM801.432 134.442H816.703L809.316 116.989L801.432 134.442Z" fill="var(--fill-0, #FCDDD5)"/>
<path id="Vector_18" d="M1001.96 109.298V115.326C994.257 124.097 986.125 132.486 978.286 141.1C977.676 141.775 976.728 142.765 976.208 143.417C976.005 143.664 975.711 143.732 975.824 144.182H1002.21V150.344H966.63L966.246 149.962V144.069L991.998 116.495L992.631 115.213H966.495V109.32H1001.94L1001.96 109.298Z" fill="var(--fill-0, #FCDDD5)"/>
<path id="Vector_19" d="M1015.94 109.298H1007.65V150.344H1015.94V109.298Z" fill="var(--fill-0, #FCDDD5)"/>
</g>
<g id="Group_3">
<path id="Vector_20" d="M1221.71 138.491V108.982H1229.98V149.646L1229.6 150.029H1220.81L1200.95 121.217L1199.98 120.273V149.646L1199.57 150.029H1191.69V108.982H1200.88L1220.97 138.063L1221.71 138.491Z" fill="var(--fill-0, #FCDDD5)"/>
<path id="Vector_21" d="M1237.23 108.982H1259.35C1267.27 108.982 1274.91 116.989 1276.42 124.366C1279.43 138.94 1270.64 149.264 1255.98 150.028C1251.28 150.276 1242.58 150.546 1238.11 150.028C1237.73 149.984 1237.46 150.006 1237.21 149.624V108.96L1237.23 108.982ZM1245.5 115.28V143.506L1245.88 143.888H1256.5C1257.72 143.888 1261 142.674 1262.15 142.044C1271 137.141 1270.89 121.15 1261.79 116.607C1258.24 114.83 1250.36 114.425 1246.4 114.897C1246.02 114.942 1245.75 114.92 1245.5 115.302V115.28Z" fill="var(--fill-0, #FCDDD5)"/>
<path id="Vector_22" d="M1442.39 150.029H1434.51L1424.93 133.363H1414.72V149.646L1414.33 150.029H1406.45V108.982H1430.12C1432.54 108.982 1437.22 110.827 1439.14 112.356C1444.35 116.584 1444.04 126.211 1438.62 130.214C1436.9 131.473 1435.05 131.923 1433.11 132.71L1442.41 150.029H1442.39ZM1414.72 127.448H1426.24C1426.73 127.448 1428.59 127.178 1429.22 127.065C1431.75 126.638 1434.08 125.131 1434.39 122.432C1434.75 119.148 1433.83 116.562 1430.51 115.505C1429.76 115.257 1427.73 114.853 1427.03 114.853H1414.74V127.425L1414.72 127.448Z" fill="var(--fill-0, #FCDDD5)"/>
<path id="Vector_23" d="M1583.15 108.982V114.898H1557.01V126.166H1580.82V132.328H1557.01V143.866H1583.15V149.646L1582.76 150.029H1549.13L1548.74 149.646V108.982H1583.15Z" fill="var(--fill-0, #FCDDD5)"/>
<path id="Vector_24" d="M1498.68 150.03L1494.19 140.449L1473.11 140.269L1468.41 150.03H1460.64L1460.37 149.512L1478.49 109.253C1478.69 108.984 1478.96 109.029 1479.26 108.984C1481.02 108.781 1486.05 108.781 1487.82 108.984C1488.11 109.006 1488.38 108.984 1488.58 109.253L1506.43 150.052H1498.66L1498.68 150.03ZM1491.05 134.129L1483.41 116.676L1475.78 134.129H1491.05Z" fill="var(--fill-0, #FCDDD5)"/>
<path id="Vector_25" d="M1362.44 120.272H1354.15C1354.06 112.468 1339.43 112.243 1336.04 116.809C1333.48 120.25 1336.49 122.971 1339.56 124.343C1346.84 127.582 1364.21 127.897 1363.46 139.12C1362.58 151.917 1341.44 152.862 1332.76 148.274C1328.97 146.272 1326.05 142.359 1326.21 137.973H1334.09C1334.93 139.93 1335.2 141.437 1336.94 142.831C1340.98 146.092 1353.16 146.07 1354.92 140.155C1356.3 135.544 1351.33 134.037 1347.92 132.957C1340.24 130.551 1325.47 129.404 1327.02 118.136C1327.91 111.816 1335.63 108.622 1341.32 108.195C1350.25 107.52 1361.97 109.252 1362.4 120.25L1362.44 120.272Z" fill="var(--fill-0, #FCDDD5)"/>
<path id="Vector_26" d="M1290.27 108.982V135.027C1290.27 145.958 1308.3 148.769 1311.66 137.524C1311.8 137.074 1312.25 135.342 1312.25 135.027V108.982H1320.54C1320.22 116.877 1320.97 125.108 1320.54 132.98C1319.82 146.318 1310.2 152.503 1297.18 150.478C1289.44 149.264 1281.98 143.146 1281.98 134.78V109.005H1290.27V108.982Z" fill="var(--fill-0, #FCDDD5)"/>
<path id="Vector_27" d="M1401.77 108.982V114.898H1387.68L1387.29 115.28V150.029H1379.41L1379 149.646V114.898H1364.52V108.982H1401.77Z" fill="var(--fill-0, #FCDDD5)"/>
<path id="Vector_28" d="M1518.99 108.982V143.866H1543.82V150.029H1510.7V108.982H1518.99Z" fill="var(--fill-0, #FCDDD5)"/>
<path id="Vector_29" d="M1457.14 108.982H1448.6V150.029H1457.14V108.982Z" fill="var(--fill-0, #FCDDD5)"/>
<path id="Vector_30" d="M1184.19 108.982H1175.9V150.029H1184.19V108.982Z" fill="var(--fill-0, #FCDDD5)"/>
</g>
<path id="Vector_31" d="M968.302 83.9932V58.016L968.573 57.7461H975.779V94.1367H967.398L949.981 68.4519L949.168 67.8896V94.1367H941.872V57.7461H949.981L967.782 83.7008L968.302 83.9932Z" fill="var(--fill-0, #FCDDD5)"/>
<path id="Vector_32" d="M456.806 57.7461V62.919L456.535 63.1889H433.674V74.0296H454.818V79.2925H433.945L433.674 79.5624V94.1367H426.378V57.7461H456.806Z" fill="var(--fill-0, #FCDDD5)"/>
<path id="Vector_33" d="M1577.9 57.7461H1570.43V94.1142H1577.9V57.7461Z" fill="var(--fill-0, #FCDDD5)"/>
<path id="Vector_34" d="M920.254 79.7017V73.8281L468.214 73.8281V79.7017L920.254 79.7017Z" fill="var(--fill-0, #FCDDD5)"/>
<path id="Vector_35" d="M1536.23 79.7017V73.8281L999.837 73.8281V79.7017L1536.23 79.7017Z" fill="var(--fill-0, #FCDDD5)"/>
</g>
</g>
</svg>
