<svg preserveAspectRatio="none" width="100%" height="100%" overflow="visible" style="display: block;" viewBox="0 0 1539 154" fill="none" xmlns="http://www.w3.org/2000/svg">
<g id="Group 2">
<g id="FNI GRANDE">
<path id="Vector" d="M128.139 0V21.749L126.997 22.8872H30.6908V68.6616H119.707V90.7783H31.8503L30.6908 91.9165V153.328H0V0H128.139Z" fill="var(--fill-0, #E94D34)"/>
<path id="Vector_2" d="M812.949 110.619V1.13823L814.108 0H844.413V153.328H809.119L735.774 45.0564L732.383 42.7274V153.328H701.692V0H735.826L810.77 109.34L812.949 110.619Z" fill="var(--fill-0, #E94D34)"/>
<path id="Vector_3" d="M1538.46 0H1507V153.328H1538.46V0Z" fill="var(--fill-0, #E94D34)"/>
</g>
<path id="Vector_4" d="M1426 92.5945V67.7035L926 67.7035V92.5945L1426 92.5945Z" fill="var(--fill-0, #E94D34)"/>
<path id="Vector_5" d="M618 92.5945V67.7035L200 67.7035V92.5945L618 92.5945Z" fill="var(--fill-0, #E94D34)"/>
</g>
</svg>
