<svg width="1159" height="94" viewBox="0 0 1159 94" fill="none" xmlns="http://www.w3.org/2000/svg">
<path d="M74.3204 51.9783V58.0284H48.3649V69.2739H72.0388V75.324H48.3649V86.8169L48.636 87.0868H74.3204V92.957H40.1875V51.9783H74.3204Z" fill="#FCDDD5"/>
<path d="M255.488 92.957H247.401L242.703 83.2634H222.011L217.447 92.957H209.18L227.635 52.0682L236.784 51.9783L237.304 52.1582L255.488 92.957ZM224.676 77.0558H239.992L232.582 59.7602L232.131 59.8726L224.653 77.0558H224.676Z" fill="#FCDDD5"/>
<path d="M114.394 63.4035H106.216C105.516 56.6337 96.6834 56.1164 91.5555 57.7583C86.4277 59.4001 85.5241 64.0108 90.2001 66.7772C97.1577 70.9155 116.246 70.3308 115.455 82.1611C114.642 94.1713 96.9996 95.2959 88.1671 92.6644C82.5875 91.0001 78.4084 87.0866 78.2051 81.0365H86.2922C86.7439 82.0936 86.8117 83.0382 87.399 84.0953C90.3808 89.3582 103.799 89.4707 106.532 84.3652C108.362 80.969 106.352 78.6525 103.325 77.258C96.7285 74.1992 79.9219 73.592 79.0635 64.1682C78.2503 55.2168 87.3313 51.7082 94.831 51.3033C103.325 50.831 114.123 53.1026 114.416 63.4035H114.394Z" fill="#FCDDD5"/>
<path d="M181.62 51.9783L196.936 85.355L211.664 51.9783H219.842L201.477 92.9795L191.831 92.9345L173.691 51.9783H181.62Z" fill="#FCDDD5"/>
<path d="M34.291 58.0284H8.35814V70.4884H32.032V76.3586H8.35814V92.957H0V52.2482L0.248487 51.9783H34.0425L34.291 52.2482V58.0284Z" fill="#FCDDD5"/>
<path d="M154.264 51.9783V58.0284H139.987V92.957H131.629V58.0284H117.172V51.9783H154.264Z" fill="#FCDDD5"/>
<path d="M266.941 87.0868H291.835V92.957H258.764V51.9783H266.67L266.941 52.2482V87.0868Z" fill="#FCDDD5"/>
<path d="M168.201 51.9783H160.023V92.957H168.201V51.9783Z" fill="#FCDDD5"/>
<path d="M328.836 51.5518C334.822 60.5032 340.785 69.5221 346.998 78.3162C347.54 79.0809 348.127 80.048 348.692 80.7227C348.85 80.9251 348.692 81.195 349.279 81.0376V51.5293H357.569V92.5755H348.647L328.293 63.2471L327.57 62.8198V92.5755H319.687L319.303 92.1932V51.5293H328.881L328.836 51.5518Z" fill="#FCDDD5"/>
<path d="M674.999 81.0601V51.5518H683.289V92.2156L682.905 92.598H674.366C674.231 92.598 673.824 92.3056 673.711 92.1482L654.262 63.7644L653.268 62.8198V92.1932L652.884 92.5755H645.384L645 92.1932V51.5293H654.194L674.141 80.4978L675.022 81.0376L674.999 81.0601Z" fill="#FCDDD5"/>
<path d="M435.03 51.552C441.219 52.1368 447.002 55.5779 447.567 62.2128C448.177 69.1175 444.563 73.9081 437.741 75.1676L447.319 92.6207H439.164L429.586 75.9323H419.375V92.6207H411.491L411.107 92.2384V51.5745H435.03V51.552ZM419.782 57.4447L419.398 57.827V69.6348L419.782 70.0172H431.167C431.664 70.0172 433.539 69.7473 434.149 69.6348C440.768 68.4428 441.106 59.7837 435.165 58.0744C434.375 57.8495 432.387 57.4222 431.664 57.4222H419.759L419.782 57.4447Z" fill="#FCDDD5"/>
<path d="M477.204 51.552C482.694 52.0243 488.341 54.8132 489.629 60.526C491.255 67.7456 487.528 73.8631 480.164 75.1676L489.606 92.1034L489.335 92.6207H481.564L471.986 75.9323H461.776V92.2159L461.392 92.5982H453.892L453.508 92.2159V51.552H477.182H477.204ZM461.821 57.4447V69.6348L462.205 70.0172H473.342C474.268 70.0172 476.685 69.6798 477.611 69.3874C482.919 67.6781 483.055 60.0761 478.018 58.2094C477.204 57.917 474.9 57.4447 474.132 57.4447H461.843H461.821Z" fill="#FCDDD5"/>
<path d="M639.894 72.0404C639.894 84.0506 630.09 93.7892 617.982 93.7892C605.874 93.7892 596.07 84.0506 596.07 72.0404C596.07 60.0301 605.874 50.2915 617.982 50.2915C630.09 50.2915 639.894 60.0301 639.894 72.0404ZM616.491 56.7689C598.578 58.5232 601.176 92.1699 621.913 86.7945C636.099 83.1285 634.653 54.9921 616.491 56.7689Z" fill="#FCDDD5"/>
<path d="M724.943 51.552V57.4447H699.191L698.807 57.8495V68.7352H722.481L722.865 69.1175V74.5154L722.481 74.8977H698.807V86.4582H724.943V92.2159L724.559 92.5982H690.923L690.539 92.2159V51.552H724.943Z" fill="#FCDDD5"/>
<path d="M529.476 92.5978L524.98 83.0166L503.904 82.8367L499.206 92.5978H491.051L509.416 51.6641C509.8 51.4167 517.639 51.4167 518.61 51.5291C518.904 51.5741 519.175 51.5291 519.378 51.799L537.224 92.5978H529.453H529.476ZM506.57 76.6966H521.84L514.205 59.2436L506.57 76.6966Z" fill="#FCDDD5"/>
<path d="M407.222 92.5976H399.338L394.843 82.9939L373.766 82.8814L368.819 92.5976H360.936L379.414 51.5289C382.26 51.8213 385.716 51.1915 388.495 51.5289C388.788 51.5739 389.082 51.5289 389.263 51.7988L407.244 92.5976H407.222ZM376.432 76.6964H391.703L384.316 59.2433L376.432 76.6964Z" fill="#FCDDD5"/>
<path d="M576.96 51.552V57.5796C569.257 66.3511 561.125 74.7403 553.286 83.3544C552.676 84.0291 551.728 85.0187 551.208 85.671C551.005 85.9184 550.711 85.9858 550.824 86.4357H577.209V92.5982H541.63L541.246 92.2159V86.3232L566.998 58.7492L567.631 57.4672H541.495V51.5745H576.938L576.96 51.552Z" fill="#FCDDD5"/>
<path d="M590.943 51.552H582.652V92.5982H590.943V51.552Z" fill="#FCDDD5"/>
<path d="M796.711 80.7444V51.2361H804.979V91.8999L804.595 92.2823H795.807L775.951 63.4712L774.98 62.5266V91.8999L774.573 92.2823H766.689V51.2361H775.883L795.966 80.317L796.711 80.7444Z" fill="#FCDDD5"/>
<path d="M812.231 51.2361H834.347C842.276 51.2361 849.911 59.2429 851.424 66.62C854.429 81.1942 845.642 91.5176 830.981 92.2823C826.282 92.5297 817.585 92.7996 813.112 92.2823C812.728 92.2373 812.457 92.2598 812.209 91.8775V51.2136L812.231 51.2361ZM820.499 57.5336V85.7599L820.883 86.1423H831.5C832.72 86.1423 835.996 84.9277 837.148 84.298C846.003 79.3949 845.89 63.4038 836.786 58.8606C833.24 57.0838 825.356 56.679 821.403 57.1513C821.019 57.1963 820.748 57.1738 820.499 57.5561V57.5336Z" fill="#FCDDD5"/>
<path d="M1017.39 92.2823H1009.51L999.927 75.6164H989.717V91.8999L989.333 92.2823H981.449V51.2361H1005.12C1007.54 51.2361 1012.22 53.0803 1014.14 54.6097C1019.35 58.8381 1019.04 68.4642 1013.62 72.4677C1011.9 73.7272 1010.05 74.177 1008.1 74.9642L1017.41 92.2823H1017.39ZM989.717 69.7013H1001.24C1001.73 69.7013 1003.59 69.4314 1004.22 69.3189C1006.75 68.8916 1009.08 67.3847 1009.39 64.6857C1009.75 61.4021 1008.83 58.8156 1005.51 57.7585C1004.76 57.5111 1002.73 57.1062 1002.03 57.1062H989.74V69.6788L989.717 69.7013Z" fill="#FCDDD5"/>
<path d="M1158.15 51.2361V57.1512H1132.01V68.4193H1155.82V74.5818H1132.01V86.1197H1158.15V91.8999L1157.76 92.2823H1124.13L1123.74 91.8999V51.2361H1158.15Z" fill="#FCDDD5"/>
<path d="M1073.68 92.2837L1069.19 82.7025L1048.11 82.5226L1043.41 92.2837H1035.64L1035.37 91.7664L1053.49 51.5074C1053.69 51.2375 1053.96 51.2825 1054.26 51.2375C1056.02 51.0351 1061.06 51.0351 1062.82 51.2375C1063.11 51.26 1063.38 51.2375 1063.59 51.5074L1081.43 92.3062H1073.66L1073.68 92.2837ZM1066.05 76.3825L1058.41 58.9295L1050.78 76.3825H1066.05Z" fill="#FCDDD5"/>
<path d="M937.445 62.5263H929.155C929.064 54.7219 914.426 54.497 911.038 59.0627C908.485 62.5038 911.49 65.2253 914.562 66.5972C921.836 69.8359 939.207 70.1508 938.461 81.3738C937.58 94.1713 916.437 95.1159 907.762 90.5277C903.967 88.526 901.053 84.6125 901.211 80.2268H909.095C909.931 82.1835 910.202 83.6904 911.941 85.0849C915.985 88.3461 928.161 88.3236 929.923 82.4084C931.301 77.7978 926.331 76.2909 922.92 75.2113C915.239 72.8047 900.466 71.6577 902.024 60.3897C902.905 54.0697 910.631 50.876 916.324 50.4486C925.247 49.7739 936.971 51.5057 937.4 62.5038L937.445 62.5263Z" fill="#FCDDD5"/>
<path d="M865.271 51.2361V77.2808C865.271 88.2114 883.297 91.0228 886.663 79.7773C886.799 79.3274 887.251 77.5956 887.251 77.2808V51.2361H895.541C895.225 59.1305 895.97 67.3622 895.541 75.2341C894.818 88.5713 885.195 94.7563 872.183 92.7321C864.435 91.5176 856.98 85.4 856.98 77.0333V51.2586H865.271V51.2361Z" fill="#FCDDD5"/>
<path d="M976.774 51.2361V57.1512H962.678L962.294 57.5336V92.2823H954.41L954.003 91.8999V57.1512H939.523V51.2361H976.774Z" fill="#FCDDD5"/>
<path d="M1093.99 51.2361V86.1197H1118.82V92.2823H1085.7V51.2361H1093.99Z" fill="#FCDDD5"/>
<path d="M1032.14 51.2361H1023.6V92.2823H1032.14V51.2361Z" fill="#FCDDD5"/>
<path d="M759.191 51.2361H750.9V92.2823H759.191V51.2361Z" fill="#FCDDD5"/>
<path d="M543.301 26.2471V0.269899L543.572 0H550.778V36.3906H542.397L524.981 10.7058L524.168 10.1435V36.3906H516.871V0H524.981L542.781 25.9547L543.301 26.2471Z" fill="#FCDDD5"/>
<path d="M31.8051 0V5.17295L31.534 5.44284H8.67338V16.2835H29.8172V21.5465H8.94444L8.67338 21.8163V36.3906H1.37695V0H31.8051Z" fill="#FCDDD5"/>
<path d="M1152.9 0H1145.43V36.3681H1152.9V0Z" fill="#FCDDD5"/>
<path d="M495.254 21.9557V16.082L43.2139 16.082V21.9557L495.254 21.9557Z" fill="#FCDDD5"/>
<path d="M1111.23 21.9556V16.082L574.837 16.082V21.9556L1111.23 21.9556Z" fill="#FCDDD5"/>
</svg>
