<?xml version="1.0" encoding="UTF-8"?>
<svg id="Livello_2" data-name="Livello 2" xmlns="http://www.w3.org/2000/svg" xmlns:xlink="http://www.w3.org/1999/xlink" viewBox="0 0 448.77 162.06">
  <defs>
    <style>
      .cls-1 {
        fill: none;
      }

      .cls-2 {
        fill: #fff;
      }

      .cls-3 {
        clip-path: url(#clippath);
      }
    </style>
    <clipPath id="clippath">
      <rect class="cls-1" width="448.77" height="162.06"/>
    </clipPath>
  </defs>
  <g id="Livello_1-2" data-name="Livello 1">
    <g class="cls-3">
      <path class="cls-2" d="M231.21,32.55c5.3-1.8,14.23-3.37,28.44-2.05,0,0,2.9.24,5.16,1.12,0,0,2.28.83,1.49,3.96,0,0-1.06,3.87-1.86,5.54-.59,1.43-1.57,2.5-2.85,2.1-2.39-.58-5.04-.88-7.83-.83-2.68.05-5.21.4-7.5,1.02-3.24.84-5.88,3.38-6.89,6.58l-18.27,59.71c-.58,1.88-2.31,3.24-4.36,3.24h-17.72c-1.2,0-2.19-1-2.19-2.22,0-.23.04-.44.09-.65l17.97-58.68c3.22-10.3,8.92-16.23,16.14-18.8l.18-.06h0Z"/>
      <path class="cls-2" d="M140.97,60.24c15.81-3.22,35.28-1.19,35.28-1.19.5,0,.93-.33,1.06-.79l1.62-5.32c2.85-9.22-7.19-10.02-7.19-10.02-1.85-.19-3.64-.3-5.33-.37h-.04c-13.84-.37-24.61,1.02-28.33,1.71,0,0-3.09.56-3.38.61l-.66.13c-1.5.4-1.83-.65-1.57-2.05v-.02s.69-3.64,3.4-7.37c1.24-1.71,2.44-3.19,6.55-3.99,4.69-.91,22.11-3.47,42.96-1.31,0,0,24.01,2.06,17.28,23.89l-17.01,55.56c-.57,1.88-2.3,3.24-4.36,3.24h-16.17c-1.45,0-2.63-1.19-2.63-2.66,0,0,0-.28.05-.49l.37-1.84v-.09c0-.25-.2-.45-.45-.45-.09,0-.18.04-.25.08-10.23,4.97-21.3,5.93-21.3,5.93-25.72,2.65-28.06-8.46-28.33-12.79-.56-8.7,3.7-25.95,13.56-34.3,3.84-3.25,8.92-4.89,14.89-6.1M172.99,72.4c.04-.11.05-.21.05-.32,0-.53-.37-.96-.85-1.08h-.01s-20.15-1.67-26.6,3.66c-6.86,5.66-7.9,17.91-7.68,18.9,0,0-1.23,8.43,13.64,6.38,0,0,1.49-.13,3.68-.66l.04-.02c6.24-1.39,10.64-4.27,12.7-10.45l5.03-16.4h0Z"/>
      <path class="cls-2" d="M385.91,60.24c15.81-3.22,35.3-1.19,35.3-1.19.49,0,.92-.33,1.05-.79l1.63-5.32c2.84-9.22-7.2-10.02-7.2-10.02-1.84-.19-3.64-.3-5.33-.37h-.04c-13.84-.37-24.61,1.02-28.33,1.71,0,0-3.09.56-3.38.61l-.67.13c-1.5.4-1.83-.65-1.57-2.05v-.02s.69-3.64,3.4-7.37c1.24-1.71,2.45-3.19,6.56-3.99,4.69-.91,22.11-3.47,42.96-1.31,0,0,24.01,2.06,17.28,23.89l-17.01,55.56c-.57,1.88-2.3,3.24-4.36,3.24h-16.17c-1.45,0-2.63-1.19-2.63-2.66,0,0,.01-.28.05-.49l.37-1.84v-.09c0-.25-.2-.45-.45-.45-.09,0-.18.04-.25.08-10.24,4.97-21.31,5.93-21.31,5.93-25.72,2.65-28.05-8.46-28.33-12.79-.55-8.7,3.7-25.95,13.56-34.3,3.84-3.25,8.92-4.89,14.88-6.1M417.94,72.4c.04-.11.05-.21.05-.32,0-.53-.35-.96-.85-1.08h-.01s-20.16-1.67-26.6,3.66c-6.86,5.66-7.9,17.91-7.67,18.9,0,0-1.24,8.43,13.64,6.38,0,0,1.48-.13,3.68-.66l.04-.02c6.24-1.39,10.64-4.27,12.7-10.45l5.03-16.4Z"/>
      <path class="cls-2" d="M104.23,3.76h-38.89c-10.14-.01-17.15,1.41-21.77,2.98l-.21.08c-8.48,3.01-15.16,9.96-18.95,22.05L.16,108.11c-.11.35-.16.71-.16,1.11,0,2.06,1.66,3.74,3.71,3.74h70.07c35.72-1.42,36.5-41.25,36.5-41.25,0-7.19-4.51-13.32-10.84-15.66l-.06-.02c-.2-.08-.32-.28-.32-.5,0-.24.16-.45.37-.52,4.68-1.46,8.72-3.34,11.99-6.86l.04-.04c9.44-10.47,9.77-27.18,9.77-27.18,0-9.47-7.61-17.15-17.01-17.15M76.4,89.26c-3.02,5.61-8.9,9.36-15.69,9.36h-27.86c-.64,0-1.14-.52-1.14-1.15,0-.12.02-.23.06-.35l10.16-33.19c.15-.47.58-.81,1.09-.81h33.19c2.81,0,5.15,2.01,5.69,4.68,0,0,1.93,7.88-5.5,21.45M89.62,40.66c-2.61,4.84-7.69,8.14-13.55,8.14h-27.97c-.64,0-1.14-.51-1.14-1.14,0-.12.02-.25.06-.36l.2-.65,5.97-19.47c1.38-5.23,6.1-9.08,11.72-9.08h24.54c2.43,0,4.46,1.74,4.92,4.05,0,0,1.67,6.8-4.74,18.52"/>
      <path class="cls-2" d="M272.18,109.72c-.57,1.89-2.32,3.24-4.36,3.24h-17.72c-1.2,0-2.18-1-2.18-2.21,0-.23.03-.45.09-.65l23.19-75.79c.58-1.89,2.31-3.24,4.36-3.24h17.71c1.22,0,2.2,1,2.2,2.22,0,.23-.03.44-.09.65l-23.19,75.79h0Z"/>
      <path class="cls-2" d="M288.43,23.21c2.13,0,4-.17,5.62-.46h.04c2.72-.51,4.99-2.3,6.17-4.74v-.04c.59-1.24,1.13-2.64,1.62-4.24l1.84-6.05c.39-1.31.64-2.45.77-3.45v-.03c.23-1.96-.74-3.41-2.7-3.81h-.04c-1.17-.25-2.6-.38-4.32-.39h-5.56c-2.13,0-3.99.18-5.61.47h-.04c-2.73.51-4.99,2.3-6.17,4.72v.04c-.6,1.23-1.14,2.64-1.63,4.25l-1.84,6.05c-.4,1.3-.64,2.44-.77,3.45v.02c-.23,1.97.73,3.43,2.7,3.82h.03c1.17.25,2.6.39,4.32.39h5.56Z"/>
      <path class="cls-2" d="M331.99.35h-11.31c-2.06,0-3.79,1.36-4.36,3.24l-32.59,106.49c-.06.21-.1.43-.1.65,0,1.23.98,2.22,2.2,2.22h17.72c2.05,0,3.79-1.36,4.36-3.23l30.83-100.75c2.22-7.31-3.67-8.46-6.74-8.62"/>
      <path class="cls-2" d="M368.43.35h-11.32c-2.04,0-3.77,1.36-4.36,3.24l-32.59,106.49c-.06.21-.09.43-.09.65,0,1.23.97,2.22,2.2,2.22h17.72c2.05,0,3.78-1.36,4.36-3.23l30.82-100.75c2.22-7.31-3.67-8.46-6.74-8.62"/>
      <path class="cls-2" d="M.02,138.84h4.92v16.42h3.02v-16.42h4.21l.61-2.7H.02v2.7ZM21.81,140.73c-1.82,0-3.14.75-4.46,1.84v-7.58h-2.92v20.27h2.92v-10.06c.95-.87,2.18-1.67,3.47-1.67,1.85,0,2.16,1.65,2.16,3.29v8.45h2.92v-9.32c0-4.06-2.12-5.21-4.08-5.21M34.6,140.73c-3.59,0-5.83,3.29-5.83,7.32s2.03,7.51,6.48,7.51c1.57,0,3.35-.4,4.68-1.33l-.81-2.11c-1.05.52-2.15.87-3.32.87-2.4,0-3.97-1.74-4-4.1h8.55v-.87c0-4.41-2.18-7.3-5.75-7.3M31.77,146.6c0-1.77,1.05-3.45,2.8-3.45,1.84,0,2.7,1.81,2.73,3.45h-5.54,0ZM77.08,145.76c0-3.66-1.94-5.03-5.04-5.03-1.79,0-3.45.4-5.13,1.33l.93,2.21c.86-.44,2.3-1,3.62-1,1.54,0,2.68.65,2.68,2.64v.4l-2.49.09c-3.47.16-5.54,1.77-5.54,4.69,0,2.73,1.94,4.47,4.27,4.47,1.85,0,3.11-.81,3.94-1.65l.59,1.33h2.43c-.19-.59-.25-1.61-.25-4.32v-5.18ZM74.1,151.91c-.49.47-1.36,1.12-2.73,1.12-1.54,0-2.31-.9-2.31-2.17,0-1.33.86-2.08,2.86-2.15l2.18-.06v3.26h0ZM84.67,152.75c-.73,0-.95-.35-.95-1.49v-16.26h-2.96v17.6c0,1.68.81,2.98,2.8,2.98.76,0,1.5-.16,2.33-.62l-.37-2.33c-.37.13-.67.13-.86.13M88.8,155.26h2.92v-14.15h-2.92v14.15ZM90.24,135.37c-1.08,0-1.88.87-1.88,1.96s.8,1.96,1.88,1.96,1.87-.9,1.87-1.96c0-1.12-.83-1.96-1.87-1.96M105.92,145.76c0-3.66-1.94-5.03-5.04-5.03-1.79,0-3.44.4-5.13,1.33l.93,2.21c.86-.44,2.31-1,3.62-1,1.54,0,2.68.65,2.68,2.64v.4l-2.49.09c-3.47.16-5.54,1.77-5.54,4.69,0,2.73,1.94,4.47,4.28,4.47,1.84,0,3.1-.81,3.93-1.65l.58,1.33h2.43c-.19-.59-.25-1.61-.25-4.32v-5.18h0ZM102.94,151.91c-.49.47-1.36,1.12-2.73,1.12-1.53,0-2.31-.9-2.31-2.17,0-1.33.86-2.08,2.87-2.15l2.18-.06v3.26h0ZM117.24,140.73c-1.84,0-3.23.71-4.71,1.86l-.34-1.52h-2.43v14.18h2.92v-10.11c1.04-.87,2.27-1.62,3.57-1.62,1.82,0,2.09,1.74,2.09,3.26v8.47h2.95v-9.46c0-3.67-2.09-5.06-4.06-5.06M130.89,155.26h2.98v-7.94h5.72v-2.7h-5.72v-5.78h6.83l.89-2.7h-10.7v19.12ZM148.54,140.73c-1.82,0-3.41.71-4.52,1.96-1.23,1.33-1.94,3.29-1.94,5.53s.71,4.29,2.03,5.61c1.07,1.12,2.61,1.74,4.43,1.74,1.91,0,3.47-.75,4.61-1.98,1.23-1.3,1.91-3.23,1.91-5.47s-.64-4.1-1.82-5.4c-1.14-1.27-2.73-1.98-4.7-1.98M148.57,153.06c-2.16,0-3.47-1.96-3.47-4.9s1.17-4.9,3.44-4.9,3.51,1.95,3.51,4.9-1.2,4.9-3.47,4.9M163.34,140.73c-1.82,0-3.41.71-4.52,1.96-1.23,1.33-1.94,3.29-1.94,5.53s.71,4.29,2.03,5.61c1.07,1.12,2.61,1.74,4.43,1.74,1.91,0,3.47-.75,4.61-1.98,1.23-1.3,1.91-3.23,1.91-5.47s-.64-4.1-1.82-5.4c-1.14-1.27-2.73-1.98-4.7-1.98M163.38,153.06c-2.15,0-3.47-1.96-3.47-4.9s1.17-4.9,3.44-4.9,3.5,1.95,3.5,4.9-1.2,4.9-3.47,4.9M181.2,140.93c-.52-.09-1.07-.19-1.87-.19-4.15,0-7.22,3.2-7.22,7.57,0,4.84,3.23,7.27,7.17,7.27,2.09,0,3.74-.47,4.86-1.12v-19.46h-2.92v5.93h0ZM181.2,152.68c-.4.16-1.04.28-1.62.28-2.92,0-4.52-2.05-4.52-4.81,0-3.02,1.91-4.84,4.39-4.84.83,0,1.26.09,1.75.25v9.12ZM201.63,152.72c-3.54,0-5.5-3.14-5.5-6.98,0-3.54,2.06-6.92,5.72-6.92,1.69,0,2.98.37,4.36,1.12l.07-3.16c-1.08-.37-2.53-.78-4.46-.78-5.32,0-8.89,4.2-8.89,9.97,0,5.47,3.2,9.63,8.4,9.63,1.91,0,3.57-.4,5.29-1.3l-.83-2.43c-1.32.53-2.58.87-4.15.87M214.61,140.73c-1.82,0-3.42.71-4.53,1.96-1.23,1.33-1.94,3.29-1.94,5.53s.71,4.29,2.03,5.61c1.07,1.12,2.61,1.74,4.43,1.74,1.91,0,3.47-.75,4.61-1.98,1.23-1.3,1.91-3.23,1.91-5.47s-.64-4.1-1.82-5.4c-1.14-1.27-2.74-1.98-4.7-1.98M214.64,153.06c-2.15,0-3.47-1.96-3.47-4.9s1.17-4.9,3.45-4.9,3.5,1.95,3.5,4.9-1.2,4.9-3.47,4.9M239.64,140.73c-1.57,0-3.2.75-4.74,2.18-.52-1.36-1.75-2.18-3.41-2.18-1.48,0-3.02.62-4.56,1.89l-.34-1.55h-2.46v14.19h2.95v-10.15c.96-.84,2.09-1.65,3.47-1.65,1.69,0,2,1.33,2,3.01v8.79h2.95v-10.18c.92-.81,2.09-1.62,3.47-1.62,1.69,0,1.97,1.27,1.97,2.95v8.84h2.98v-9.75c0-3.64-2.09-4.78-4.3-4.78M252.68,140.73c-2.09,0-3.69.53-4.89.97v20.05h2.92v-6.55c.59.22,1.2.37,2,.37,3.81,0,6.95-2.95,6.95-7.61,0-4.41-2.49-7.24-6.98-7.24M252.58,153.03c-.76,0-1.26-.16-1.87-.4v-8.97c.49-.16,1.01-.25,1.82-.25,2.25,0,4.12,1.49,4.12,4.72,0,2.98-1.54,4.91-4.06,4.91M272.87,145.76c0-3.66-1.94-5.03-5.04-5.03-1.79,0-3.44.4-5.13,1.33l.93,2.21c.86-.44,2.31-1,3.63-1,1.53,0,2.68.65,2.68,2.64v.4l-2.49.09c-3.47.16-5.54,1.77-5.54,4.69,0,2.73,1.94,4.47,4.28,4.47,1.84,0,3.1-.81,3.93-1.65l.59,1.33h2.43c-.18-.59-.25-1.61-.25-4.32v-5.18h0ZM269.89,151.91c-.49.47-1.35,1.12-2.73,1.12-1.53,0-2.31-.9-2.31-2.17,0-1.33.86-2.08,2.86-2.15l2.18-.06v3.26h0ZM284.2,140.73c-1.84,0-3.23.71-4.71,1.86l-.34-1.52h-2.43v14.18h2.92v-10.11c1.04-.87,2.27-1.62,3.57-1.62,1.82,0,2.09,1.74,2.09,3.26v8.47h2.95v-9.46c0-3.67-2.08-5.06-4.05-5.06M300.3,141.08l-3.11,10.77h-.06l-3.75-10.77h-3.14l5.47,14.46c-.95,3.04-1.72,4-3.04,4-.73,0-1.2-.06-1.84-.34l-.73,2.36c.8.34,1.66.49,2.67.49,2.58,0,4.22-1.33,5.73-6.02l4.77-14.96h-2.95ZM304.67,151.57c-1.02,0-1.82.87-1.82,1.99s.8,2.01,1.82,2.01,1.84-.87,1.84-2.01-.79-1.99-1.84-1.99M321.68,145.05c-2.31-1.39-4.49-2.36-4.49-4.15,0-1.55,1.23-2.24,2.86-2.24,1.54,0,3.14.47,4.4,1.15l.18-2.95c-.95-.44-2.74-.87-4.71-.87-3.44,0-5.78,2.08-5.78,5.25,0,2.98,2.34,4.39,4.58,5.69,2.18,1.27,3.29,1.96,3.29,3.32,0,1.53-1.24,2.61-2.83,2.61-1.45,0-3.26-.59-4.43-1.14l-.92,2.61c1.57.77,3.41,1.27,5.51,1.27,3.41,0,5.84-2.14,5.84-5.49,0-2.51-1.29-3.69-3.5-5.03M328.47,155.26h2.92v-14.15h-2.92v14.15ZM329.92,135.37c-1.08,0-1.88.87-1.88,1.96s.8,1.96,1.88,1.96,1.87-.9,1.87-1.96c0-1.12-.83-1.96-1.87-1.96M342.86,140.73c-1.84,0-3.23.71-4.7,1.86l-.34-1.52h-2.43v14.18h2.92v-10.11c1.04-.87,2.27-1.62,3.56-1.62,1.82,0,2.09,1.74,2.09,3.26v8.47h2.95v-9.46c0-3.67-2.1-5.06-4.06-5.06M356.45,152.84c-2.65,0-3.74-2.39-3.74-4.75,0-2.55,1.35-4.69,3.81-4.69,1.26,0,2.22.25,3.17.72l.08-2.8c-.83-.31-1.99-.59-3.47-.59-3.88,0-6.52,3.35-6.52,7.54,0,3.94,2.15,7.3,6.12,7.3,1.82,0,3.29-.49,4.37-1.18l-.68-2.29c-.93.43-1.96.74-3.14.74M367.8,140.73c-3.6,0-5.84,3.29-5.84,7.32s2.03,7.51,6.48,7.51c1.57,0,3.35-.4,4.68-1.33l-.8-2.11c-1.05.52-2.15.87-3.32.87-2.4,0-3.96-1.74-4-4.1h8.55v-.87c0-4.41-2.18-7.3-5.75-7.3M364.97,146.6c0-1.77,1.05-3.45,2.8-3.45,1.84,0,2.7,1.81,2.73,3.45h-5.54ZM380.56,139.28l.83,2.32,4.44-1.98v15.64h2.86v-18.93h-2.22l-5.9,2.95ZM401.99,145.42v-.09c1.29-.91,2.74-2.18,2.74-4.32,0-2.98-2.22-5.04-6-5.04s-6.09,2.33-6.09,5.1c0,2.01,1.07,3.32,2.58,4.32v.09c-1.51.81-3.11,2.23-3.11,4.81,0,3.2,2.34,5.28,6.46,5.28s6.52-2.14,6.52-5.4c0-2.32-1.08-3.76-3.11-4.75M398.67,138.56c1.79,0,3.07,1.12,3.07,2.52,0,1.67-1.35,2.76-2.27,3.38-2.09-.47-3.91-1.55-3.91-3.44,0-1.37,1.41-2.46,3.1-2.46M398.79,152.99c-2.03,0-3.69-1.02-3.69-2.92s1.57-3.14,2.58-3.48c2.27.44,4.4,1.49,4.4,3.7,0,1.74-1.42,2.7-3.29,2.7M407.1,139.03l7.32-.15c-2.22,3.35-4.74,9.24-5.72,16.48h3.02c1.1-6.95,2.61-12.23,6.24-17.44v-1.58h-11.38l.52,2.7ZM430.56,136.33h-11.38l.52,2.7,7.32-.16c-2.22,3.35-4.74,9.25-5.72,16.48h3.02c1.11-6.95,2.61-12.23,6.24-17.44v-1.58ZM430.74,151.57c-1.02,0-1.82.87-1.82,1.99s.8,2.01,1.82,2.01,1.84-.87,1.84-2.01-.79-1.99-1.84-1.99M61.34,152.94c-.89,0-1.32-.57-1.32-1.68v-7.73h3.23l.93-2.42h-4.15v-4.16l-2.92.96v3.2h-2.31v2.42h2.31v8.85c0,1.86.92,3.2,3.14,3.2,1.26,0,2.89-.5,4.18-1.49l-.83-2.02c-.52.37-1.38.87-2.25.87M49.11,155.26h2.95v-19.12h-2.95v19.12Z"/>
    </g>
  </g>
</svg>