<?xml version="1.0" encoding="UTF-8"?>
<svg id="Livello_2" data-name="Livello 2" xmlns="http://www.w3.org/2000/svg" xmlns:xlink="http://www.w3.org/1999/xlink" viewBox="0 0 1569.93 1515.62">
  <defs>
    <style>
      .cls-1 {
        fill: none;
      }

      .cls-2 {
        clip-path: url(#clippath-1);
      }

      .cls-3 {
        clip-path: url(#clippath-3);
      }

      .cls-4 {
        clip-path: url(#clippath-2);
      }

      .cls-5 {
        fill: #fff;
      }

      .cls-6 {
        clip-path: url(#clippath);
      }
    </style>
    <clipPath id="clippath">
      <rect class="cls-1" width="1569.92" height="1515.62"/>
    </clipPath>
    <clipPath id="clippath-1">
      <rect class="cls-1" width="1569.92" height="1515.62"/>
    </clipPath>
    <clipPath id="clippath-2">
      <rect class="cls-1" width="1569.92" height="1515.62"/>
    </clipPath>
    <clipPath id="clippath-3">
      <rect class="cls-1" width="1569.92" height="1515.62"/>
    </clipPath>
  </defs>
  <g id="Livello_1-2" data-name="Livello 1">
    <g>
      <g>
        <path class="cls-5" d="M1523.78,1100.49c10.79-8.33,18.46-10.35,32.14-3.55,25.63,12.6,10.28,41.99-.51,59.22-49.3,78.7-142.4,109.83-230.73,125.1-4.2-1.09-13.18-3.04-6.88,0-27.29,4.56-54.59,10.64-82.46,11.44,1.01-2.75.22-2.75-2.24,0-20.27,3.98-43.51,4.05-64.07,4.63-2.68-4.2-7.46-4.49-14.62-.8-91.87,3.55-192.21,1.74-287.63-2.1-.29,0,5.79.07,4.63,2.9l-284.23-.72c-31.35,1.23-41.34-44.38-13.25-56.47,121.41-.51,244.27.14,368.35,1.59,15.49,5.28,17.81,4.71,6.95-1.59,54.73.07,108.88,2.97,163.83,2.39,10.06-.14,21.72-2.17,33.01-2.39l2.17,2.46c14.26-.14,28.52-.72,42.86-1.52.58,0-9.12,1.09-10.64-.94l115.18-11.87,54.23-11.08c4.63,1.67,14.26,2.32,6.81,0,10.35-4.13,21.36-6.95,32.07-10.43,32.65-10.43,73.55-29.32,99.91-56.69,11.8-12.16,19.69-32,30.55-45.03,1.16.51,4.13-1.16,4.56-4.56"/>
        <path class="cls-5" d="M1528.36,1345.37c8.62,5.07,8.98,7.38,11.44,16.07v16c-3.33,11.8-6.3,14.7-18.32,18.24-310.87,2.17-634.27,2.17-945.28,0-18.53-5.86-20.63-19.55-16-36.56,2.61,1.09,2.53-4.27,2.32-6.88,3.4-5,4.49-3.04,6.81-4.56l8.62-2.97c311.88-1.09,624.06-1.67,936.38-1.67l14.04,2.32Z"/>
        <path class="cls-5" d="M1528.36,1345.37l-959.04,2.32c6.3-4.27,9.56-8.47,19.33-7.02h924.94c5.57-.36,10.21,2.03,14.77,4.71"/>
        <path class="cls-5" d="M1521.5,1395.72c-1.74.43-4.34,3.69-7.75,2.46h-929.86c-3.4,1.23-5.94-1.95-7.75-2.46h945.36Z"/>
        <path class="cls-5" d="M871.45,1297.31c-.43,0-3.62-2.39-7.75-2.46-46.91-.94-94.12,1.09-141.03.14l26.35-4.05c3.76.29,7.38,1.88,11.37,1.88,116.99.07,233.33,4.05,350.4,2.32,12.16-.22,30.7,1.52,41.19.07,4.42-.65,3.11-4.78,4.63-4.85,12.02-.43,28.89,5.43,43.15-.07l24.18,2.39c-17.16-.14-34.24,1.09-51.26,2.53-1.88.14-3.26,2.03-3.69,2.1-96.07,7.24-200.83,1.95-297.55,0"/>
        <path class="cls-5" d="M949.29,1240.09c.43.07,10.06,2.53,9.12,4.56-123.65-4.13-247.89-.94-371.97-2.24-3.84,0-10.14,1.52-12.52-2.32,3.62-1.59,8.54-2.03,12.45-2.39,69.72-5.86,153.7,1.59,224.36,2.46,42.71.58,97.81-4.71,138.57-.07"/>
        <path class="cls-5" d="M532.71,4.28c185.41-.94,370.82-.94,556.15,0,13.61.43,28.02.58,41.27,4.56-10.14-.65-22.15.22-33.09-2.39l-571.21.14c2.17-1.16,4.34-2.1,6.88-2.32"/>
        <path class="cls-5" d="M1088.9,4.28c-185.05-5.57-371.03,4.2-556.15,0h556.15Z"/>
        <path class="cls-5" d="M974.46,1189.75c-142.55,2.17-285.46-1.59-428.01,0l-3.48-2.32c139.65,1.16,279.31-1.52,418.89,0,3.91,0,10.21-1.52,12.6,2.32"/>
        <path class="cls-5" d="M976.75,1510.14c-.43,0-3.48-2.46-7.75-2.46-96.29.22-192.43.22-288.72.14l-7.96-2.24h340.99v2.24c-9.48.29-19.11-.29-28.74-.07-2.97.07-5.21,2.39-5.5,2.39h-2.32Z"/>
        <path class="cls-5" d="M1480.29,1439.2c-2.39,3.84-8.69,2.32-12.6,2.32-43,.43-86.22,0-129.3,0-2.03-.72-1.95-1.45,0-2.32,47.2.14,94.69-.72,141.9,0"/>
        <path class="cls-5" d="M1180.46,1240.09c7.24.07,14.55-.29,21.79,0,2.75.14,8.47-1.67,7.96,2.24-22.73-2.24-44.96,4.56-67.47,2.32l3.4-4.56c11.37-.22,22.88-.07,34.32,0"/>
        <path class="cls-5" d="M491.51,1340.79c.22,2.24-.22,4.63,0,6.88l2.32,13.76c.58,6.15,2.03,12.09,2.24,18.24-10.86-25.92-9.12-54.59-9.12-82.32,4.05-.58,2.17,5.14,2.24,7.96.43,9.92-.58,20.05-.07,29.97.14,2.97,2.32,5.07,2.39,5.5"/>
        <path class="cls-5" d="M1338.38,1439.2v2.32c-23.24,0-46.62.29-69.86,0-3.84,0-10.14,1.52-12.52-2.32,27.44.07,54.95-.07,82.39,0"/>
        <path class="cls-5" d="M1404.76,326.97c-3.84-13.1-3.84-32.43,0-45.75,1.09,17.01,1.01,28.81,0,45.75"/>
        <path class="cls-5" d="M422.83,1343.08c-.87-16.07-.87-36.56,0-52.63,3.84,15.57,3.84,37.07,0,52.63"/>
        <path class="cls-5" d="M1455.12,855.61c-3.84-12.31-3.84-30.99,0-43.44.58,14.84.65,28.6,0,43.44"/>
        <path class="cls-5" d="M546.44,1512.42c-1.3-6.95,3.55-4.42,7.89-4.56,7.67-.36,15.35.22,23.02,0,3.69,3.19-2.61,2.24-4.49,2.24-6.23.22-12.38-.22-18.61-.07-3.04.07-5.21,2.39-5.5,2.39h-2.32Z"/>
        <path class="cls-5" d="M459.46,1459.79c-3.55-5.72-4.34-8.98-6.88-13.76,4.49-3.33,7.75,8.83,9.05,12.45l-2.17,1.3Z"/>
        <path class="cls-5" d="M1125.51,1180.6c-4.42.58-8.47,1.67-13.76,2.32-2.46-6.95,9.77-6.23,13.76-2.32"/>
        <path class="cls-5" d="M491.51,1285.87c.07,3.04,0,6.15,0,9.19-3.76-2.39-2.32-8.69-2.32-12.6,0-2.75-1.67-10.64,2.32-10.35.14,4.56-.14,9.19,0,13.76"/>
        <path class="cls-5" d="M1182.74,1171.44c-2.03.29-4.71,0-6.88,0-3.04,0-6.08.07-9.12,0v-2.24c5.86.22,12.24-3.98,16,2.24"/>
        <path class="cls-5" d="M1233.1,1292.72c-1.67-7.53,6.01-3.91,11.44-4.56v2.24c-3.91-1.3-6.73,1.74-9.12,2.32-.72.22-1.59-.14-2.32,0"/>
        <path class="cls-5" d="M1395.61,386.48c.07,2.1.36,5,0,6.88-4.13-2.75-1.88-9.56-2.24-13.76h2.24c.07,2.32-.07,4.56,0,6.88"/>
        <path class="cls-5" d="M493.8,1361.39c-3.91-3.98-1.81-9.12-2.32-13.76,4.05,2.61,1.88,9.48,2.32,13.76"/>
        <path class="cls-5" d="M562.46,1352.23l1.74,1.38c-.36,7.02-3.84,15.64-4.05,5.5.58-2.24.94-4.92,2.32-6.88"/>
        <path class="cls-5" d="M1356.7,1217.21h4.56v2.24c-3.55-.22-9.41,1.59-11.44-2.24h6.88Z"/>
        <path class="cls-5" d="M434.27,1221.78c3.84,2.03,2.03,7.89,2.24,11.44h-2.24c-.07-2.24,0-4.56,0-6.88v-4.56Z"/>
        <path class="cls-5" d="M1324.65,1281.29c-2.1.36-4.78-.36-6.88,0-11.22-.14.94-6.01,6.88,0"/>
        <path class="cls-5" d="M1441.4,933.44c-.29,2.17.36,4.85,0,6.88-3.84-2.03-2.03-7.89-2.24-11.44h2.24v4.56Z"/>
        <path class="cls-5" d="M1452.83,782.39c-3.76-1.95-2.17-7.75-2.32-11.44.58,3.55,1.67,6.37,2.32,11.44"/>
        <path class="cls-5" d="M1441.4,734.33v4.56h-2.24c.22-3.55-1.59-9.41,2.24-11.44.36,2.03-.29,4.71,0,6.88"/>
        <path class="cls-5" d="M434.27,1407.16v-11.44h2.24c-.22,3.55,1.59,9.41-2.24,11.44"/>
        <path class="cls-5" d="M1395.61,226.28c0,2.32.07,4.56,0,6.88h-2.24c.22-3.55-1.59-9.41,2.24-11.44v4.56Z"/>
        <path class="cls-5" d="M1546.67,1466.64c-4.2-35.26-40.25-27-66.39-27.44-45.97,1.23-93.25,1.95-141.9,2.32-28.31-.15-55.75-.87-82.39-2.32-236.88-.43-473.76,3.48-710.72,2.32-23.02-2.61-28.02-17.16-37.43-35.76-3.55-6.88-8.69-18.68-11.8-26.06-5-14.26-6.52-27.22-4.56-38.88-.07-15.28.14-30.55,0-45.83-1.52-2.9-2.24-12.67,0-9.12,3.62-15.35,5.36-31.06,9.77-46.26,3.84-13.1,11.22-35.84,23.75-42.64,6.88-3.84,15.2-2.61,21.43-7.24-8.9-5.94-1.81-6.3,21.21-1.16,137.63-.58,273.23-.22,406.8,1.16,19.98-.29,41.41-2.24,60.67-2.24h41.19c8.83,0,25.41-3.48,35.47-4.63,3.84-4.13,8.54-3.26,13.76-2.24,16.65-2.32,34.39-3.19,50.39-9.19-16.43-1.45-.36-2.97,6.81,0,50.17-7.02,127.06-47.42,164.85-81.16,34.97-31.27,85.07-103.02,93.83-149.93-1.81-3.26-1.81-5.57,0-6.88,10.14-24.54,12.52-51.55,13.76-77.83-1.67-14.41-1.67-29.1,0-43.51-.51-10.57-1.09-19.26-2.39-29.68-1.52-3.62-2.24-7.46-2.17-11.44-2.1-12.02-2.61-26.14-9.19-36.71-2.32,7.53-1.67-2.1,0-6.88-7.6-39.09-51.76-105.55-81.3-132.56l-65.16-47.06c13.54-13.97,28.74-26.28,41.34-41.19,20.34-24.11,53.36-79.64,59.29-113.23-1.01-2.53-2.39-9.48,0-6.88,6.59-18.97,7.96-39.67,9.19-59.51-1.45-15.2-1.45-30.55,0-45.75-1.23-18.46-2.53-37.36-9.19-54.88-2.24,3.84-1.23-2.17,0-4.63-32.65-115.91-151.6-205.82-265.48-212.85l-33.01-3.33c-190.48-1.16-380.88-.72-571.21,1.01-10.64,5.43-18.82,21.36-18.39,33.16l.15,1088.99c-41.77,16.07-62.48,51.4-73.34,93.1,1.09,2.24,2.24,6.3,0,4.56-6.3,20.56-10.28,42.57-11.44,64.07,1.52,17.52,1.45,35.19,0,52.63,1.09,19.62,4.85,41.05,11.44,59.51,2.17-11.29,1.88-1.59,0,4.56,3.33,14.41,11.73,26.42,18.32,38.95,4.49,2.75,6.81,8.83,6.88,13.76,19.33,30.84,48.72,51.47,86.95,52.63,1.23-1.59,2.03-1.74,2.24,0l428.08-2.32-.22-2.61c-33.84-.14-67.6-.32-101.33-.51,46.72-.14,93.1-.61,138.18-1.44-11.37.65-23.17,1.45-35.4,2.17l1.01,2.39c177.95-3.04,356.26-2.32,534.5-2.24,16.07-2.82,30.7-10.14,33.16-27.51-1.59-4.49-1.59-9.27,0-13.76ZM578.51,70.65c163.98-.65,328.03-.65,492.08,0,2.75.07,10.06,2.1,16.07,2.32,7.02-1.81,13.9-1.81,20.49,0,3.11,3.84,11.15,2.32,16.07,2.24h2.32c20.05,5.29,40.61,9.05,60.09,16.58,44.16,17.16,93.46,53.14,118.44,93.25,2.75.22,3.26,2.03,2.24,4.63,29.47,50.32,35.47,100.2,27.51,157.9,1.3,4.13,1.96,9.7-2.32,11.44-10.57,52.99-38.88,101.57-81.37,134.95-15.71,12.38-49.59,25.99-54.37,43.94-9.48,35.98,21.57,41.99,44.96,57.27,66.68,43.51,110.26,72.83,134.37,153.99,39.24,132.56-16.8,276.92-141.97,333.02-3.84,4.92-13.1,11-18.32,9.19-9.48,3.33-28.6,8.69-38.95,11.37-1.59,1.59-3.91,1.59-6.88,0-11.29,2.9-12.89,3.91-23.38,5.21-10.5,1.38-13.68,6.23-14.55,6.3-3.91.22-12.67-6.23-17.01,0-1.3,1.67-2.75.94-4.56,0-6.73.15-11.95,1.95-16,2.24-26.21,1.88-52.92,1.01-78.84,4.71l-436.12-.07V70.65Z"/>
        <path class="cls-5" d="M509.81,1127.96V36.36h2.32v1085.88c0,1.09,4.05,4.05-2.32,5.72"/>
        <path class="cls-5" d="M578.48,70.65h492.08c-163.76-4.13-328.17,3.04-492.08,0"/>
      </g>
      <rect class="cls-5" x="578.45" y="1123.38" width="428.08" height="2.24"/>
      <rect class="cls-5" x="1338.4" y="278.87" width="2.24" height="50.39"/>
      <g class="cls-6">
        <path class="cls-5" d="M1233.1,1082.19c-.36,8.76-11.8,8.54-17.23,13.76l-1.09-4.56c3.76-1.38,13.03-6.81,18.32-9.19"/>
        <path class="cls-5" d="M1086.6,72.94c10.64-5.14,25.05-.94,36.63-2.24-1.3,4.27-12.16,2.17-16,2.24-6.81.14-13.83.22-20.63,0"/>
        <path class="cls-5" d="M1123.23,75.22c4.34-3.91,11.58-6.95,13.76,0-3.84.14-7.6-.14-11.44,0h-2.32Z"/>
        <path class="cls-5" d="M1333.81,347.56c3.98,3.91,4.34,13.68-2.32,11.44.8-3.91,1.81-7.38,2.32-11.44"/>
        <path class="cls-5" d="M1114.08,1114.22c3.04.14,6.15-.14,9.12,0v2.24c-4.13-.36-10.93,1.88-13.68-2.24,1.52-.07,3.04-.07,4.56,0"/>
        <path class="cls-5" d="M1093.48,1116.52h11.44v2.24c-3.98-.51-10.79,1.81-11.44-2.24"/>
        <path class="cls-5" d="M1175.88,1102.78c11.22.14-.94,6.01-6.88,0,1.88-.51,5,.51,6.88,0"/>
        <path class="cls-5" d="M1306.35,189.65c-.87-1.45-1.45-3.11-2.32-4.56-.51-8.9,3.76-3.76,4.13,3.19l-1.81,1.38Z"/>
        <path class="cls-5" d="M267.2,1391.76v30.19c-4.85,3.55-8.47,7.82-10.93,12.81-2.39,4.85-3.62,10.5-3.62,16.87,0,5,.94,9.92,2.82,14.48,1.95,4.56,4.71,8.54,8.33,12.09,3.84,3.76,8.25,6.66,13.25,8.69,5,2.03,10.14,3.11,15.42,3.11,11.51,0,21.28-3.69,29.1-11.08,7.82-7.53,11.73-16.58,11.73-27.29,0-6.23-1.23-11.8-3.4-16.72-2.39-4.92-5.72-8.9-10.14-12.02v-30.26c12.89,5.86,22.59,13.76,29.1,23.6,6.44,9.77,9.63,21.5,9.63,35.18,0,9.48-1.74,18.24-5.43,26.28-3.62,7.96-9.05,15.13-16.22,21.5-5.94,5.43-12.67,9.48-20.34,12.24-7.6,2.75-15.78,4.2-24.4,4.2s-17.16-1.74-25.05-5.07c-7.89-3.4-15.06-8.25-21.57-14.77-5.94-6.08-10.5-12.89-13.61-20.34-3.11-7.53-4.63-15.64-4.63-24.18,0-13.9,3.33-25.63,9.92-35.4,6.59-9.85,16.58-17.81,30.04-24.11"/>
        <path class="cls-5" d="M307.9,1383.3c-6.73,0-13.03-1.23-19.11-3.69-6.08-2.46-11.44-6.08-16.14-10.79-4.78-4.71-8.4-10.14-11-16.14-2.61-6.01-3.91-12.24-3.91-18.75,0-6.88,1.16-13.25,3.4-19.04,2.32-5.79,5.72-11.15,10.28-16,4.85-5,10.35-8.76,16.65-11.51,6.3-2.75,12.67-4.05,19.26-4.05,7.31,0,13.97,1.16,20.05,3.48,5.94,2.39,11.37,5.94,16.22,10.71,5,4.78,8.62,10.14,11.15,16.14,2.53,6.15,3.84,12.74,3.84,19.84s-1.3,13.76-3.91,19.62c-2.46,5.86-6.3,11.22-11.44,16.07-4.92,4.63-10.35,8.18-16.36,10.57-6.01,2.39-12.31,3.55-18.97,3.55M307.68,1360.35c8.83,0,15.93-2.39,21.07-7.24,5.21-4.85,7.75-11.44,7.75-19.76s-2.61-14.77-7.96-19.69c-5.28-4.85-12.31-7.31-21.36-7.31-7.96,0-14.62,2.61-19.84,7.67-5.14,5.14-7.75,11.58-7.75,19.33s2.68,14.41,7.89,19.47c5.21,5,11.95,7.53,20.2,7.53"/>
        <path class="cls-5" d="M260.61,1247.56h10.79c-4.27-3.26-7.53-6.95-9.56-11.15-2.1-4.13-3.11-8.98-3.11-14.33,0-7.67,1.38-14.26,4.05-19.76,2.75-5.43,6.95-10.14,12.74-14.04-5.65-3.76-9.85-7.96-12.67-12.67-2.75-4.71-4.13-9.85-4.13-15.49,0-11.73,3.62-20.71,11-26.93,7.31-6.23,17.81-9.34,31.56-9.34h54.66v21.86h-42.13c-13.03,0-21.79,1.38-26.5,4.27-4.63,2.82-6.95,7.82-6.95,14.91s2.61,12.52,7.89,15.71c5.21,3.11,14.19,4.71,26.93,4.71h40.76v22.01h-42.13c-12.96,0-21.72,1.52-26.42,4.42-4.71,2.9-7.02,8.04-7.02,15.28s2.61,12.74,7.89,15.93c5.21,3.26,14.19,4.92,26.93,4.92h40.76v21.43h-95.35v-21.72Z"/>
        <path class="cls-5" d="M356.01,1042.47h-10.35c4.34,3.26,7.6,6.95,9.7,11.15,2.1,4.13,3.19,8.98,3.19,14.33,0,12.02-3.69,21.14-11,27.58-7.38,6.44-17.95,9.63-31.64,9.63h-55.24v-22.44h42.79c12.89,0,21.72-1.52,26.42-4.42,4.78-2.97,7.17-8.11,7.17-15.28s-2.68-12.74-7.96-15.93c-5.36-3.19-14.33-4.85-27.08-4.85h-41.34v-21.79h95.35v22.01Z"/>
        <path class="cls-5" d="M260.61,979.16h10.79c-4.27-3.26-7.53-6.95-9.56-11.15-2.1-4.13-3.11-8.98-3.11-14.33,0-6.88,1.3-12.89,3.84-17.95,2.68-5.21,6.52-9.41,11.73-12.81,3.48-2.24,7.38-3.76,11.87-4.78,4.42-.94,10.93-1.38,19.33-1.38h50.46v22.15h-42.13c-12.81,0-21.57,1.52-26.35,4.42-4.71,2.97-7.09,8.11-7.09,15.28s2.61,12.74,7.89,15.93c5.21,3.26,14.19,4.92,26.93,4.92h40.76v21.43h-95.35v-21.72Z"/>
        <path class="cls-5" d="M315.31,880.13c6.88-.72,12.31-3.48,16.29-8.25,3.91-4.63,5.94-10.71,5.94-18.17,0-5-1.01-9.48-3.19-13.39-2.03-3.98-4.92-7.09-8.69-9.41v-23.96c10.43,4.05,18.53,10.06,24.25,18.17,5.79,8.11,8.62,17.45,8.62,27.95,0,7.17-1.3,13.68-3.84,19.69-2.39,5.94-6.15,11.37-11.08,16-4.71,4.56-10.14,8.04-16.22,10.57-6.23,2.46-12.52,3.76-18.97,3.76s-12.96-1.16-18.82-3.47c-5.86-2.24-11.15-5.65-15.85-10.06-5.07-4.92-9.12-10.35-11.8-16.51-2.82-6.15-4.2-12.45-4.2-19.04,0-8.18,1.88-15.93,5.65-23.09,3.76-7.24,9.05-13.25,15.85-18.32,4.13-3.04,8.76-5.36,13.76-6.81,5.14-1.45,11-2.24,17.59-2.24.51,0,1.23.07,2.39.07,1.09.07,1.81.14,2.32.14v76.38ZM297.72,827.49c-6.3,1.88-11.15,5.07-14.48,9.56-3.33,4.49-5.07,10.14-5.07,16.94,0,5.94,1.88,11.22,5.43,15.93,3.55,4.63,8.25,7.82,14.12,9.48v-51.91Z"/>
        <path class="cls-5" d="M268.25,663.96h-38.52v-21.86h126.26v21.86h-7.75c3.48,4.42,6.01,9.05,7.75,13.83,1.67,4.85,2.53,10.21,2.53,15.78,0,6.01-.94,11.73-2.9,17.01-1.88,5.36-4.71,10.06-8.25,14.33-5,5.79-10.93,10.28-17.74,13.32-6.81,3.11-13.97,4.63-21.57,4.63-7.02,0-13.83-1.45-20.27-4.34-6.52-2.82-12.16-6.81-16.87-12.09-4.13-4.27-7.24-9.27-9.34-14.91-2.17-5.57-3.19-11.51-3.19-17.95,0-6.08.72-11.51,2.39-16.29,1.52-4.71,4.05-9.19,7.46-13.32M308.72,664.91c-8.11,0-14.91,2.61-20.34,7.75-5.43,5.14-8.18,11.66-8.18,19.4s2.82,14.12,8.33,19.55c5.57,5.43,12.16,8.11,19.84,8.11s14.77-2.68,20.05-8.18c5.43-5.43,8.04-12.31,8.04-20.49,0-7.31-2.61-13.47-8.04-18.53-5.36-5.07-11.95-7.6-19.69-7.6"/>
      </g>
      <path class="cls-5" d="M229.71,623.62h21.14v-21.72h-21.14v21.72ZM260.63,623.62h95.35v-21.72h-95.35v21.72Z"/>
      <g class="cls-2">
        <path class="cls-5" d="M356.01,505.17v24.69h-126.26v-31.35c0-7.96.43-14.26,1.3-18.82.87-4.63,2.24-8.4,4.13-11.15,3.55-5.28,8.18-9.34,13.97-12.31,5.79-2.97,11.95-4.42,18.53-4.42,12.16,0,21.79,3.91,29.03,11.95,7.17,7.96,10.79,18.68,10.79,32.22v9.19h48.51ZM286.22,505.17v-6.52c0-6.88-1.52-12.09-4.49-15.78-2.97-3.69-7.24-5.5-12.81-5.5s-9.99,1.74-12.74,5.28c-2.82,3.55-4.27,8.98-4.27,16.22v6.3h34.32Z"/>
        <path class="cls-5" d="M356.02,365.71h-11.73c4.78,2.68,8.25,6.44,10.5,11.22,2.24,4.85,3.4,11,3.4,18.53,0,14.12-4.85,25.92-14.41,35.33-9.7,9.48-21.65,14.19-35.91,14.19-6.66,0-13.1-1.16-19.04-3.55-6.01-2.39-11.29-5.72-15.85-10.14-5.07-4.78-8.76-9.99-11.15-15.78-2.46-5.79-3.62-12.31-3.62-19.55s1.16-12.89,3.48-17.88c2.32-5,5.79-9.05,10.43-12.09h-11.44v-21.72h95.35v21.43ZM307.51,422.25c8.04,0,14.77-2.68,20.2-8.04,5.36-5.28,8.11-11.8,8.11-19.47,0-7.02-2.75-13.18-8.18-18.53-5.43-5.28-11.73-7.96-19.04-7.96-7.75,0-14.41,2.68-19.98,8.04-5.57,5.36-8.4,11.66-8.4,18.75,0,7.53,2.68,13.97,7.89,19.26,5.36,5.28,11.8,7.96,19.4,7.96"/>
        <path class="cls-5" d="M279.96,280.32c.65,8.62,2.9,14.62,6.73,18.03,3.91,3.4,10.71,5.14,20.71,5.14h48.58v22.23h-95.35v-20.85h11c-4.27-3.33-7.38-7.02-9.41-11-2.03-4.05-3.04-8.54-3.04-13.54h20.78Z"/>
        <path class="cls-5" d="M260.61,249.62h10.79c-4.27-3.26-7.53-6.95-9.56-11.15-2.1-4.13-3.11-8.98-3.11-14.33,0-7.67,1.38-14.26,4.05-19.76,2.75-5.43,6.95-10.14,12.74-14.04-5.65-3.76-9.85-7.96-12.67-12.67-2.75-4.71-4.13-9.85-4.13-15.49,0-11.73,3.62-20.71,11-26.93,7.31-6.23,17.81-9.34,31.56-9.34h54.66v21.86h-42.13c-13.03,0-21.79,1.45-26.5,4.27-4.63,2.82-6.95,7.82-6.95,14.91s2.61,12.52,7.89,15.71c5.21,3.19,14.19,4.71,26.93,4.71h40.76v22.01h-42.13c-12.96,0-21.72,1.52-26.42,4.42-4.71,2.9-7.02,8.04-7.02,15.28s2.61,12.74,7.89,15.93c5.21,3.26,14.19,4.92,26.93,4.92h40.76v21.43h-95.35v-21.72Z"/>
        <path class="cls-5" d="M356.02,33.08h-11.73c4.78,2.68,8.25,6.44,10.5,11.22,2.24,4.85,3.4,11.08,3.4,18.53,0,14.12-4.85,25.92-14.41,35.33-9.7,9.48-21.65,14.19-35.91,14.19-6.66,0-13.1-1.16-19.04-3.55-6.01-2.39-11.29-5.72-15.85-10.14-5.07-4.78-8.76-9.99-11.15-15.78-2.46-5.79-3.62-12.31-3.62-19.55s1.16-12.89,3.48-17.88c2.32-5,5.79-9.05,10.43-12.09h-11.44V11.65h95.35v21.43ZM307.51,89.62c8.04,0,14.77-2.68,20.2-8.04,5.36-5.28,8.11-11.8,8.11-19.47,0-7.02-2.75-13.25-8.18-18.53-5.43-5.28-11.73-7.96-19.04-7.96-7.75,0-14.41,2.68-19.98,8.04-5.57,5.28-8.4,11.66-8.4,18.75,0,7.53,2.68,13.97,7.89,19.26,5.36,5.28,11.8,7.96,19.4,7.96"/>
        <path class="cls-5" d="M6.83,1492.25v-73.99c0-18.17,5.07-32.58,14.12-41.63,7.24-7.24,16.14-10.93,27.08-10.93h.43c17.95,0,28.02,9.56,34.39,21,7.02-18.46,17.74-29.83,39.17-29.83h.43c29.18,0,43.73,23.6,43.73,59.58v75.8H6.83ZM71.27,1425.79c0-15.49-5.07-25.27-16.87-25.27h-.43c-10.43,0-16.36,8.18-16.36,23.02v34.53h33.66v-32.29ZM135.41,1416.46c0-15.42-5.43-24.83-17.3-24.83h-.43c-10.71,0-17.3,8.04-17.3,25.99v40.47h35.04v-41.63Z"/>
      </g>
      <path class="cls-5" d="M44.16,1309.44h121.99v-34.53H44.16v34.53ZM0,1310.45h30.7v-36.49H0v36.49Z"/>
      <g class="cls-4">
        <path class="cls-5" d="M150.19,1187.35h15.93v34.61H-.03v-34.61h61.75c-11.44-8.47-19.84-20.05-19.84-38.08,0-28.38,22.3-55.46,62.99-55.46h.51c40.76,0,63.06,26.57,63.06,55.46,0,18.46-8.4,29.9-18.24,38.08M105.38,1128.42h-.51c-20.2,0-33.66,13.61-33.66,29.76s13.47,29.61,33.66,29.61h.51c20.27,0,33.66-13.47,33.66-29.61s-13.18-29.76-33.66-29.76"/>
      </g>
      <rect class="cls-5" y="1011.6" width="166.15" height="34.68"/>
      <path class="cls-5" d="M44.16,957.01h121.99v-34.61H44.16v34.61ZM0,957.95h30.7v-36.42H0v36.42Z"/>
      <g class="cls-3">
        <path class="cls-5" d="M105.83,875.37h-.43c-35.04,0-63.49-28.23-63.49-66.24s27.95-65.74,63.06-65.74h.43c34.97,0,63.49,28.23,63.49,66.17s-28.02,65.81-63.06,65.81M105.83,777.49h-.43c-18.03,0-33.74,12.96-33.74,32.07s15.28,31.64,33.3,31.64h.43c17.95,0,33.66-12.89,33.66-32.07s-15.28-31.64-33.23-31.64"/>
        <path class="cls-5" d="M131.54,692.21h-57.84v14.55h-29.54v-14.55H12.96v-34.61h31.2v-28.67h29.54v28.67h52.13c7.96,0,11.87-3.4,11.87-11.15,0-6.37-1.59-12.09-4.34-17.01h27.8c4.27,7.24,7.02,15.64,7.02,27.29,0,21.14-8.4,35.47-36.63,35.47"/>
        <path class="cls-5" d="M105.84,592.34h-.51c-34.82,0-63.42-24.83-63.42-60.31,0-40.76,31.64-59.44,66.17-59.44,2.75,0,5.94.29,9.12.51v84.85c15.71-3.4,23.89-14.33,23.89-29.75,0-11.66-3.62-20.05-12.52-29.61l17.52-19.76c14.12,11.29,22.8,27.73,22.8,49.74,0,36.71-25.7,63.78-63.06,63.78M95.56,506.26c-15.42,2.1-25.92,11.15-25.92,25.77s10.28,23.6,25.92,26.35v-52.13Z"/>
        <path class="cls-5" d="M105.83,432.35h-.43c-34.9,0-63.49-26.57-63.49-63.93,0-23.02,7.75-37.36,20.49-48.72l22.73,21.21c-8.18,7.75-13.47,15.49-13.47,27.73,0,17.3,15.28,29.54,33.3,29.54h.43c18.68,0,33.66-12.02,33.66-30.91,0-11.58-5-19.62-12.96-27.95l20.49-20.27c12.89,11.8,22.3,25.48,22.3,49.81,0,36.63-28.23,63.49-63.06,63.49"/>
        <path class="cls-5" d="M.01,276.02v-34.61h61.39c-10.21-7.96-19.47-18.17-19.47-35.69,0-26.21,17.23-41.48,45.25-41.48h78.91v34.68h-67.98c-16.43,0-24.83,7.75-24.83,20.92s8.4,21.57,24.83,21.57h67.98v34.61H.01Z"/>
        <path class="cls-5" d="M105.84,119.68h-.51c-34.82,0-63.42-24.76-63.42-60.23C41.91,18.69,73.55,0,108.08,0c2.75,0,5.94.29,9.12.51v84.85c15.71-3.4,23.89-14.33,23.89-29.83,0-11.58-3.62-20.05-12.52-29.54l17.52-19.84c14.12,11.37,22.8,27.8,22.8,49.81,0,36.71-25.7,63.71-63.06,63.71M95.56,33.67c-15.42,2.1-25.92,11.15-25.92,25.77s10.28,23.6,25.92,26.35v-52.13Z"/>
      </g>
    </g>
  </g>
</svg>