<?xml version="1.0" encoding="UTF-8"?>
<svg id="Livello_2" data-name="Livello 2" xmlns="http://www.w3.org/2000/svg" xmlns:xlink="http://www.w3.org/1999/xlink" viewBox="0 0 1050.15 281.26">
  <defs>
    <style>
      .cls-1 {
        fill: none;
      }

      .cls-2 {
        fill: #fff;
      }

      .cls-3 {
        clip-path: url(#clippath);
      }
    </style>
    <clipPath id="clippath">
      <rect class="cls-1" x=".02" y=".02" width="1050.14" height="281.23"/>
    </clipPath>
  </defs>
  <g id="Livello_1-2" data-name="Livello 1">
    <g>
      <path class="cls-2" d="M191.25,178.02c0-3.85-14.09,1.99-15.75-8.57l-.07-146.9c.03-3.26-3.22-11.53-6.71-11.53h-72.47v36.42c0,.96,13.92-3.02,15.78,6.71l-.6,117.16c-3.12,7.54-15.18,4.05-15.18,4.88v35.22h95v-33.39Z"/>
      <path class="cls-2" d="M676.03,80.25c.17-6.05-2.86-20.63-10.37-20.63h-66.39v37.65c0,1,13.46-3.42,14.69,9.04,1.99,20.07-1.4,43.73-.33,64.19-1.86,8.17-10,3.69-14.35,7.54v33.39h93.8v-35.22h-15.85v-65.59c15.68-3.02,31.5-4.39,47.51-3.65v-47.35c-20.73-5.42-36.65,4.98-48.71,20.63"/>
      <path class="cls-2" d="M79.21,170.71c-1.96-30.7,2.53-64.36-.03-94.7-.47-5.28-1.86-16.41-9.14-16.41H0v37.65c0,1.1,14.55-4.49,15.92,10.27.96,10.5,1.66,53-.33,61.77-2.26,10.13-14.35,6.05-14.35,6.91v35.22h92.57v-35.22c-5.02.3-13.39.66-14.59-5.48"/>
      <path class="cls-2" d="M18.83,35.38c5.02,23.66,48.11,25.29,56.09,1.13C82.36,14.01,63.35-2.8,41.12.39,23.22,2.98,15.21,18.4,18.83,35.38"/>
      <path class="cls-2" d="M335.57,91.19c8.31,0,14.95-12.66,15.28-20.1.9-21.43-15.32-23.79-32.93-22.43v42.53h17.64ZM317.93,126.41v48.58c23.59,1.2,37.81-3.22,35.35-29.8-.96-10.73-6.81-17.31-17.71-18.77-5.38-.73-12.06.53-17.64,0M235.1,11.02h115.1c51.6-2.19,94.33,54.23,42.86,88.88l-17.88,7.04c25.88,3.22,45.55,17.94,46.32,45.52,1.16,40.87-37.45,56.78-72.47,59.01-37.05,2.36-76.62-1.86-113.93-.03v-35.25c0-.93,14.05,2.56,15.82-6.68l-.63-117.16c-3.12-7.54-15.18-4.05-15.18-4.88V11.02Z"/>
      <path class="cls-2" d="M780.46,166.18c-6.71-1.16-8.21-5.48-8.21-11.83,31.63,6.81,92.3,3.02,97.29-38.41.53-4.32-.86-11.7.76-15.05,2.29-4.79,11.1-3.22,11.56-3.66,1.3-1.23,0-30.97,0-35.82,0-1.33-2.96-1.73-4.19-1.89-15.25-1.76-35.25.66-51.27.13-26.91-.93-47.81-6.88-73.56,7.94-25.05,14.42-31.8,52.07-10.5,72.2,1.99,1.89,8.61,5.42,9.17,6.64,1,2.09-8.31,5.32-9.14,7.84-13.22,13.56-11.26,33.23,4.29,43.76-30.54,7.77-39.24,45.22-6.71,58.35,40.01,16.15,136.56,13.36,141.75-44.52,5.85-65.06-64.03-39.07-101.24-45.69ZM795.04,89.02c24.12-5.45,23.86,29.14,13.72,36.75-22.83,17.15-30.24-33.03-13.72-36.75ZM824.7,224.25c-7.11,7.48-43.89,9.2-51.17,2.29-3.16-2.99-3.65-11.03-2.49-15.12h49.31c5.75,0,9.07,7.84,4.35,12.83Z"/>
      <path class="cls-2" d="M500.38,57.53c-52.17,4.88-83.7,47.91-72.23,99.25,17.44,78.12,151.98,77.19,167.16-3.39,11.53-61.24-36.02-101.37-94.93-95.86ZM522.5,173.12c-8.34,6.55-20.17,4.29-26.05-4.29-9.84-14.29-11.5-65.66,9.93-70.07,13.32-2.76,20.67,4.62,24.12,16.68,3.89,13.69,4.25,48.08-8.01,57.68Z"/>
      <path class="cls-2" d="M953.48,57.51c-51.8,5.02-83.1,46.92-72.23,98.05,17.01,80.14,153.28,77.78,167.33-1.99,10.8-61.5-35.45-101.81-95.1-96.06ZM981.57,164.48c-8.54,18.74-29.14,15.65-35.49-3.12-4.98-14.69-6.65-58.48,13.42-62.6,31.33-6.51,30.3,47.65,22.06,65.72Z"/>
      <path class="cls-2" d="M289.9,239.36v29.77c0,7.08,9.93,11.86,16.45,11.63,6.18-.2,15.22-6.41,15.22-12.86v-28.54h-7.31v27.31c0,5.42-7.28,10.17-12.86,6.78-.83-.5-4.19-4.98-4.19-5.55v-28.54h-7.31Z"/>
      <path class="cls-2" d="M386.13,239.36v29.77c0,7.08,9.93,11.86,16.45,11.63,6.18-.2,15.22-6.41,15.22-12.86v-28.54h-7.31v27.31c0,5.42-7.28,10.17-12.86,6.78-.83-.5-4.19-4.98-4.19-5.55v-28.54h-7.31Z"/>
      <rect class="cls-1" x=".02" y=".02" width="1050.14" height="281.23"/>
      <polygon class="cls-2" points="531.09 239.36 531.09 280.66 555.44 280.66 555.44 274.58 538.4 274.58 538.4 262.45 554.24 262.45 554.24 257.07 538.4 256.37 538.4 245.44 554.24 245.44 554.24 239.36 531.09 239.36"/>
      <g class="cls-3">
        <path class="cls-2" d="M283.82,279.44l-1.23-6.08c-24.09,10.5-32.1-26.91-9.07-27.98,6.45-.3,10.07,4.95,10.3-4.78-41.8-10.27-42.96,49.81,0,38.84"/>
        <path class="cls-2" d="M36.56,279.44l-1.23-6.08c-24.09,10.5-32.1-26.91-9.07-27.98,6.45-.3,10.07,4.95,10.3-4.78-41.8-10.27-42.96,49.81,0,38.84"/>
        <path class="cls-2" d="M123.04,279.44l-1.23-6.08c-24.09,10.5-32.1-26.91-9.07-27.98,6.45-.3,10.07,4.95,10.3-4.78-41.8-10.27-42.96,49.81,0,38.84"/>
      </g>
      <polygon class="cls-2" points="350.82 239.36 350.79 245.44 361.75 245.44 361.75 280.66 369.1 280.66 369.1 245.44 381.26 245.44 381.26 239.36 350.82 239.36"/>
      <polygon class="cls-2" points="330.1 239.36 330.1 280.66 354.45 280.66 354.45 274.58 337.41 274.58 337.41 239.36 330.1 239.36"/>
      <polygon class="cls-2" points="500.61 239.36 500.61 280.66 525 280.66 525 274.58 507.96 274.58 507.96 239.36 500.61 239.36"/>
      <polygon class="cls-2" points="170.53 239.36 170.53 280.66 194.89 280.66 194.89 274.58 177.84 274.58 177.84 239.36 170.53 239.36"/>
      <rect class="cls-2" x="43.84" y="239.35" width="7.34" height="41.3"/>
      <path class="cls-2" d="M481,239.49c-.8-.73-8.91-.53-10.23,1.06-4.22,5.08-8.41,32.5-12.76,40.1,11.23,3.46,7.97-9.07,12.16-11.56,1.66-1,11.46-1.16,12.33.13,3.26,4.82-.96,13.89,10.8,11.43-1.86-5.08-10.67-39.77-12.29-41.17ZM470.17,263.64l4.88-16.98,6.08,16.98h-10.97Z"/>
      <path class="cls-2" d="M125.4,261.85c.17,4.15,2.43,10.6,5.35,13.52,9.87,9.87,29.61,5.18,32.2-8.97,6.58-35.75-38.84-35.05-37.55-4.55ZM146.68,274.56c-16.35,2.09-17.78-25.95-4.49-28.87,17.11-3.79,17.91,27.18,4.49,28.87Z"/>
      <path class="cls-2" d="M196.05,261.85c.17,4.15,2.43,10.6,5.35,13.52,9.87,9.87,29.61,5.18,32.2-8.97,6.58-35.75-38.84-35.05-37.55-4.55ZM217.33,274.56c-16.35,2.09-17.78-25.95-4.49-28.87,17.14-3.79,17.91,27.18,4.49,28.87Z"/>
      <path class="cls-2" d="M84.12,266.64c-.86-2.16-3.56-4.32-3.69-4.85-.4-1.83,4.92-3.95,5.75-7.54,3.59-15.78-15.68-16.78-26.48-13.66v40.07h7.31v-17.01c16.81-3.46,5.22,20.43,20.7,17.01.66-.63-2.79-12.09-3.59-14.02ZM67.01,258.79c.9-5.78-3.36-15.28,5.18-14.32,12.83,1.46,6.75,17.11-5.18,14.32Z"/>
      <path class="cls-2" d="M451.97,266.64c-.86-2.16-3.56-4.32-3.69-4.85-.4-1.83,4.92-3.95,5.75-7.54,3.59-15.78-15.68-16.78-26.48-13.66v40.07h7.31v-17.01c16.81-3.46,5.22,20.43,20.7,17.01.66-.63-2.79-12.09-3.59-14.02ZM434.85,258.79c.9-5.78-3.36-15.28,5.18-14.32,12.83,1.46,6.75,17.11-5.18,14.32Z"/>
    </g>
  </g>
</svg>