<?xml version="1.0" encoding="UTF-8"?>
<svg id="Livello_2" data-name="Livello 2" xmlns="http://www.w3.org/2000/svg" xmlns:xlink="http://www.w3.org/1999/xlink" viewBox="0 0 387.23 388.24">
  <defs>
    <style>
      .cls-1 {
        fill: none;
      }

      .cls-2 {
        fill: #fff;
      }

      .cls-3 {
        clip-path: url(#clippath);
      }
    </style>
    <clipPath id="clippath">
      <rect class="cls-1" width="387.23" height="388.24"/>
    </clipPath>
  </defs>
  <g id="Livello_1-2" data-name="Livello 1">
    <g class="cls-3">
      <path class="cls-2" d="M73.17,33.15c-.06.02-.11.03-.18.03-.02.06-.02.1-.02.16l.19-.19Z"/>
      <path class="cls-2" d="M64.04,49.43c.86-1.18,1.8-2.36,2.85-3.54.13-.53.19-1.31.19-2.36.4-.13.84-.32,1.37-.57v-.21c-.13-.13-.26-.19-.38-.19-.14,0-.27-.06-.4-.19.26-.53.59-.99.99-1.39.38-.38.72-.78.97-1.16-.26-.14-.53-.33-.78-.59v-.21l1.08-1.07c.32-.33.75-.69,1.27-1.08.25-.78.51-1.37.78-1.77-.13,0-.27-.06-.4-.19,0-.27.13-.4.4-.4h-.19c.13-.65.22-1,.29-1.07.06-.06.37-.14.89-.25.05-.41.24-.64.57-.64.27-.38.46-.84.59-1.37.13-.49.49-.86,1.07-1.13.13-.21.29-.41.51-.64.13-.25.22-.59.29-.97.06-.4.16-.72.3-.99.25-.65.41-1.34.48-2.06.06-.72.18-1.4.3-2.06-.27-.4-.33-.8-.19-1.18.13-.4.19-.78.19-1.18s-.06-.65-.19-.78c-.27-.65-.49-1.24-.69-1.77-.21-.53-.43-1.05-.7-1.56-.38-.27-.72-.53-.97-.8-.27-.25-.53-.51-.78-.78,0-1.69-.73-3.08-2.17-4.11l-.78.38c-.65-.78-1.31-1.53-1.96-2.25-.65-.72-1.31-1.21-1.96-1.48-2.23-1.04-4.45-2.06-6.68-3.03-2.22-.99-4.57-1.67-7.06-2.07-1.96-.38-3.89-.84-5.79-1.37-1.9-.53-3.89-.84-5.98-.97-1.05-.13-2.17-.24-3.33-.3-1.18-.06-2.3-.1-3.35-.1-1.69,0-3.36.1-5,.3-1.63.19-3.24.41-4.8.69-1.71.25-3.33.57-4.91.97-1.56.4-3.14.92-4.7,1.58-.53.25-1.02.48-1.48.69-.45.19-.94.41-1.47.69-1.43-.4-2.95-.65-4.51-.8-1.56-.13-3.14-.32-4.7-.57-.92.38-1.48.97-1.67,1.75-.19.8-.49,1.51-.88,2.17.26.38.59.78.97,1.18.27,1.43.27,2.74,0,3.92-.13,1.05-.26,2.09-.38,3.14-.14,1.05-.14,2.09,0,3.14,0,.65.02,1.27.1,1.85.06.61-.03,1.15-.3,1.67-.13,1.58-.13,3.01,0,4.32,0,.65.03,1.34.1,2.06s.03,1.4-.1,2.06c0,.67-.06,1.31-.19,1.96-.13.67-.27,1.32-.4,1.98.27.78.4,1.31.4,1.56-.27.78-.4,1.55-.4,2.26v2.25c.13.65.21,1.37.21,2.17v2.34c-.4.78-.49,1.58-.3,2.36.19.78.43,1.5.69,2.15-.26.53-.41.99-.49,1.39-.06.38-.22.84-.48,1.37.25.25.38.59.38.97.13,1.18.22,2.36.3,3.54.06,1.18.16,2.42.29,3.73-.26.91-.37,1.8-.29,2.65.06.84.1,1.74.1,2.65v2.55c0,.78.06,1.64.19,2.55-.26.38-.29.81-.1,1.28.19.46.16.88-.1,1.27-.27.4-.22.81.1,1.27.32.46.37.88.1,1.27.53,1.05.65,2.06.4,3.04-.27.97-.19,1.99.19,3.03v.4c-.26.65-.37,1.37-.29,2.17.06.78.1,1.56.1,2.34-.4.78-.59,1.37-.59,1.77.26,1.83.41,3.52.49,5.1.06,1.58.03,3.14-.1,4.7.13,0,.26.08.38.21l.59,4.11c.25.65.46,1.27.59,1.86.13.59.32,1.21.59,1.86.26.65.53,1.37.78,2.15.27.8.53,1.64.8,2.55l-.8.8c.27.13.43.26.49.38.06.14.22.21.49.21,1.04.53,2.47.97,4.3,1.37.53.26,1.55.37,3.04.29,1.51-.06,2.52-.1,3.04-.1.78-.13,1.58-.13,2.36,0,.51,0,.97.03,1.37.1.4.08.72.1.97.1.65-.38,1.27-.75,1.86-1.07.59-.33,1.21-.69,1.86-1.08.65-.25,1.27-.53,1.86-.78.59-.27,1.15-.65,1.67-1.18.53-.4,1.12-.62,1.77-.69.65-.06,1.16-.43,1.56-1.08v-1.96c.53-.26.96-.53,1.27-.78.32-.27.62-.72.89-1.37v-.99c0-.91-.08-1.83-.21-2.74-.13-.92-.06-1.83.21-2.76.26-1.56.26-3.19,0-4.89v-2.65c0-.86.13-1.67.38-2.45.13-.92.13-1.8,0-2.65-.13-.86-.19-1.67-.19-2.45.25-.53.32-1.02.19-1.48-.13-.45-.19-.94-.19-1.47.13-.53.19-1.04.19-1.56s.13-1.05.4-1.58v-.38c-.27-.27-.37-.53-.3-.8.06-.26.1-.51.1-.78-.13-.65-.16-1.24-.1-1.77.06-.51.1-1.1.1-1.77-.13-.25-.19-.51-.19-.78,0-.25-.06-.51-.19-.78.78-.65,1.83-1.21,3.14-1.67,1.31-.45,2.47-.75,3.52-.88.13-.26.24-.41.3-.49.06-.06.16-.22.29-.48h1.18c0,.38-.06.72-.19.97,1.56-.26,2.8-.53,3.73-.78.65-.4,1.16-.84,1.56-1.37.4-.53.78-1.05,1.18-1.58.26-.13.46-.19.59-.19s.25-.06.38-.19c.65-.8,1.31-1.39,1.98-1.77.65-.53,1.34-.99,2.06-1.37.72-.4,1.4-.86,2.06-1.37,0-.4-.06-.65-.19-.8.38-.26.81-.41,1.28-.48.45-.08.88-.24,1.27-.49.91-.27,1.43-.59,1.56-.99.4-.65.86-1.15,1.37-1.47.53-.33,1.12-.75,1.77-1.27.53-1.43,1.21-2.76,2.06-3.92M58.06,20.99c-.65.78-1.37,1.55-2.15,2.25-.8.73-1.71,1.29-2.76,1.67-1.31,1.05-2.68,1.93-4.11,2.65-1.45.73-2.88,1.55-4.32,2.45-.78.53-1.61,1.05-2.45,1.58-.84.51-1.74,1.04-2.65,1.56-.27.27-.56.43-.88.49-.33.06-.62.22-.89.49-.91.51-1.8,1-2.65,1.47s-1.8.94-2.84,1.47c-.27-.65-.43-1.24-.49-1.77-.06-.51-.24-1.04-.49-1.56-.65-1.43-1.21-2.85-1.67-4.22-.45-1.37-1-2.77-1.66-4.21-.27-.65-.56-1.24-.89-1.77-.32-.53-.75-1.12-1.26-1.77-.8-1.04-1.39-2.09-1.77-3.14.38-.13.75-.29,1.07-.49.33-.19.62-.29.89-.29.65,0,1.24-.06,1.75-.19.53-.13,1.12-.21,1.77-.21s1.24-.06,1.77-.19c.53-.13,1.12-.26,1.77-.38.65-.13,1.24-.21,1.77-.21h1.75c.65,0,1.24-.03,1.77-.1.53-.06,1.12-.1,1.77-.1h2.95c.91,0,1.82.13,2.74.4.78.25,1.56.38,2.36.38s1.56.13,2.34.4c.78.25,1.58.43,2.36.48.78.08,1.56.24,2.36.49.51.27,1.04.46,1.56.59.53.13,1.05.46,1.58.99l-.4.78Z"/>
      <path class="cls-2" d="M75.32,30.01s-.06.03-.11.05c-.02.05-.06.1-.08.14l.19-.19Z"/>
      <path class="cls-2" d="M356.82,44.33c-.25,0-.46-.13-.59-.38-.13-.27-.26-.4-.38-.4-.4-.13-.73-.13-.99,0-.27.13-.84.53-1.77,1.18-1.83,1.18-3.2,2.84-4.11,5-.92,2.15-1.71,4.35-2.36,6.57-.65,1.83-1.21,3.73-1.67,5.69-.45,1.96-1,3.92-1.66,5.88-.13.53-.24,1.05-.3,1.58-.06.53-.16,1.04-.29,1.56-.27.78-.4,1.58-.4,2.36s-.06,1.56-.19,2.36c-.27,1.43-.53,2.84-.78,4.21-.27,1.37-.59,2.79-.99,4.22-.25.53-.38.99-.38,1.37,0,.65-.11,1.24-.3,1.77-.19.53-.43,1.12-.69,1.77l-.59,2.34c-1.05,3.92-2.42,7.65-4.11,11.19-.27.25-.43.53-.49.78-.06.27-.24.53-.49.78l-.78.4c-.13-.65-.06-1.31.19-1.96.27-.65.27-1.31,0-1.96-.13-.65-.19-1.27-.19-1.86v-1.86c0-.65-.13-1.31-.4-1.96-.26-.65-.38-1.37-.38-2.17.38-1.16.32-2.47-.21-3.92-.38-1.04-.46-2.22-.19-3.52.26-1.31.37-2.58.29-3.82-.06-1.24-.16-2.52-.29-3.83-.13-.65-.13-1.21,0-1.67.13-.46.26-.94.4-1.47-.67-1.05-.86-2.3-.59-3.73.13-.65.19-1.27.19-1.86v-1.86c-.13-.65-.19-1.24-.19-1.77v-1.77c-.14-1.04-.18-2.09-.1-3.12.06-1.05.16-2.1.29-3.14.13-1.31.22-2.58.29-3.82.08-1.24.03-2.52-.1-3.83v-1.18c.53-1.18.53-2.49,0-3.92-.78-.8-1.83-1.31-3.14-1.58-1.56-.13-3.08-.1-4.51.1-1.43.21-2.87.11-4.32-.29-.65.26-1.21.46-1.66.59-.46.13-.88.26-1.27.38-.53.27-.89.62-1.08,1.08-.19.46-.43.81-.69,1.08-.53.78-1.18,1.43-1.96,1.96v1.77c-.53.53-.84,1.15-.97,1.86-.14.72-.27,1.4-.4,2.06-.27,1.05-.46,1.77-.59,2.15-.27.65-.56,1.27-.88,1.86-.33.59-.77,1.21-1.29,1.86-.51.78-1,1.61-1.47,2.45s-1.02,1.59-1.66,2.26c-.27,1.04-.69,1.96-1.27,2.74-.59.78-1.21,1.63-1.86,2.55-1.05,1.56-2.04,3.14-2.95,4.7-.91,1.58-1.77,3.2-2.55,4.91-.27.38-.49.81-.69,1.27-.19.46-.43.88-.69,1.27-.11.22-.4.46-.81.69-.24-.88-.26-1.74-.08-2.55.21-.84.43-1.74.7-2.65.25-.91.59-1.8.97-2.65.4-.86.72-1.8.99-2.85.91-2.61,1.83-5.16,2.74-7.65.91-2.49,1.9-5.04,2.95-7.65.26-.26.45-.53.59-.78.13-.26.32-.53.57-.78.27-.27.53-.8.8-1.58.25-.25.41-.59.48-.97.06-.4.24-.72.49-.99.65-1.04,1.24-2.15,1.77-3.33.53-1.18,1.12-2.29,1.77-3.33l2.36-3.54c.65-.91,1.2-1.77,1.66-2.55.46-.78,1.02-1.56,1.67-2.36.51-.38,1-.81,1.47-1.27.46-.45.88-.81,1.27-1.07.78-.27,1.5-.3,2.15-.11.67.21,1.32.3,1.98.3h2.25c.72,0,1.47.06,2.26.19.13-.51.45-.81.97-.88.53-.06.84-.43.99-1.08l-.4-.38c-.65-.27-1.24-.53-1.77-.8-.51-.26-1.04-.51-1.56-.78-1.31.13-2.55.1-3.73-.1-1.18-.19-2.42-.22-3.73-.1-1.31.13-2.58.19-3.82.19s-2.45.06-3.63.19l-1.75,1.18c-.27.27-.49.53-.69.78-.21.27-.43.53-.69.8-.67.78-1.39,1.53-2.17,2.25-.78.72-1.5,1.55-2.15,2.45-.53.78-1.12,1.55-1.77,2.26-.65.72-1.31,1.4-1.96,2.06-.65.91-1.34,1.77-2.06,2.55-.35.37-.67.77-.96,1.16-.05,0-.1.02-.13.02-.27,0-.65.53-1.18,1.56-.4.53-.72.99-.99,1.37l-.06.61c-.11.16-.22.32-.32.48-.53.86-.99,1.8-1.37,2.84-.27.53-.49,1.02-.69,1.48-.21.46-.43.88-.7,1.27-.51,1.31-.97,2.23-1.37,2.74-.26.53-.45,1.05-.59,1.58-.13.53-.38.91-.78,1.18-.53.38-.78.81-.78,1.27s-.13.94-.4,1.47c-.78,1.31-1.4,2.61-1.86,3.92-.45,1.31-1,2.68-1.66,4.11-.27.67-.53,1.64-.78,2.95-.4,3.27-.99,6.28-1.77,9.02l-1.18,1.18c.13.27.19.53.19.78,0,.27.06.53.19.8l-.97.97c.25,1.58.56,3.11.89,4.61.03.18.06.37.11.53-.08.13-.14.24-.22.37-.91,1.43-1.96,2.84-3.14,4.21-1.16,1.39-2.42,2.66-3.73,3.82-.26.14-.45.24-.59.3-.13.06-.32.22-.57.49-.14-.92-.33-1.74-.59-2.45-.27-.72-.4-1.48-.4-2.26.13-.78.19-1.56.19-2.34v-2.17c.27-.4.33-.81.21-1.27-.14-.45-.08-.88.19-1.27-.27-.51-.29-.97-.1-1.37.19-.4.16-.78-.1-1.18.26-.53.35-.97.29-1.37s-.1-.84-.1-1.37v-1.18c0-.4.03-.78.1-1.18.06-.4.1-.78.1-1.18s.03-.81.1-1.27c.06-.45.03-.88-.1-1.27,0-.51.03-1,.1-1.47.06-.46.11-.88.11-1.27,0-.25.02-.46.1-.59.06-.13.1-.32.1-.59,0-.53-.03-1-.1-1.47-.08-.46-.1-.96-.1-1.48.13-.51.19-1.43.19-2.74.13-.53.13-1,0-1.47-.13-.46-.06-.88.19-1.27-.26-.26-.37-.59-.29-.99.06-.38.1-.72.1-.97.13-.65.06-1.37-.19-2.17,0-.25-.08-.51-.21-.78-.13-.26-.06-.53.21-.78-.27-.4-.33-.78-.21-1.18.13-.38.13-.78,0-1.18,0-1.18.06-2.09.21-2.74.13-.65.06-1.37-.21-2.15-.38-.92-.59-1.83-.59-2.76,0-.78-.1-1.56-.29-2.34-.19-.8-.37-1.58-.49-2.36,0-.4-.1-.8-.29-1.18-.21-.4-.37-.84-.49-1.37-.27-.4-.46-.8-.59-1.18-.13-.4-.33-.72-.59-.99-.27-.38-.46-.81-.59-1.27-.13-.45-.33-.88-.59-1.27-.38-.51-.75-1.04-1.08-1.56-.32-.53-.61-.91-.88-1.18-.65-.25-1.15-.49-1.47-.69-.33-.19-.69-.41-1.08-.69-.38-.26-.81-.49-1.27-.69-.46-.21-.96-.37-1.47-.49-.27-.13-.56-.16-.89-.1-.32.06-.62.1-.88.1-1.05-.4-2.09-.49-3.14-.29-1.05.19-2.09.48-3.14.88-.78.4-1.53.78-2.25,1.18-.73.38-1.42.91-2.07,1.56-3.01,2.36-5.69,4.72-8.03,7.06l-1.18,1.18c-.27.27-.49.53-.69.78-.21.27-.43.46-.69.59-.4-.26-.65-.54-.8-.88-.13-.32-.32-.69-.57-1.08-.53-1.31-1.45-2.61-2.76-3.92-.13-.13-.29-.26-.49-.38-.19-.14-.35-.33-.48-.59-.53-.65-1.31-1.12-2.36-1.39-1.05-.26-2.14-.57-3.24-.97-1.12-.4-2.26-.46-3.44-.19-.25,0-.45-.03-.57-.11-.14-.06-.33-.1-.59-.1-.53.27-.99.43-1.37.49-.4.06-.86.22-1.39.49-2.49,1.05-4.45,2.55-5.88,4.51-.65.91-1.34,1.77-2.06,2.55-.72.78-1.47,1.64-2.26,2.55-.65-.91-1.05-1.9-1.18-2.95-.26-1.31-.72-2.28-1.37-2.93-.38-.65-.78-1.21-1.18-1.67-.38-.46-.78-.94-1.16-1.47-.53-.27-.99-.46-1.39-.59-.38-.13-.84-.33-1.37-.59l-.97-.99c-4.84-1.96-8.57-1.75-11.19.59,0,.13-.03.27-.1.4-.06.13-.1.25-.1.4.25.25.56.41.88.48.33.08.62.24.89.49.13,1.31.29,2.58.48,3.83.21,1.24.16,2.58-.1,4.02-.13.27-.16.53-.1.8.06.26.1.53.1.78v3.33c-.13.53-.22.99-.29,1.37-.06.4-.1.86-.1,1.37.13,1.45.1,2.82-.11,4.13-.19,1.31-.35,2.68-.48,4.11-.11,1.21-.25,2.45-.41,3.71-.16.43-.29.89-.37,1.39-.14.67-.43,1.35-.89,2.07-.46.72-.81,1.4-1.07,2.06-.27.53-.4,1.02-.4,1.47s-.13.96-.4,1.47c0,.53-.06.92-.19,1.18-.13.27-.22.46-.3.59-.06.13-.16.33-.29.59-.13.27-.19.46-.19.59,0,.27-.03.46-.1.59-.08.13-.11.33-.11.59-.26,1.05-.48,2.12-.69,3.24-.19,1.12-.48,2.2-.88,3.24-.13.27-.22.53-.3.78-.06.27-.16.53-.29.8-.26,1.31-.59,2.55-.97,3.71-.4,1.18-.86,2.36-1.39,3.54-.38,1.05-.81,2.06-1.27,3.04-.45.97-.88,1.99-1.27,3.04-.53,1.31-1.12,2.52-1.75,3.62-.67,1.12-1.31,2.26-1.96,3.44-.27.51-.49,1-.7,1.47-.19.46-.56.81-1.07,1.08-.27,0-.59.03-.99.1-.38.06-.84-.03-1.37-.3l-1.18-2.34c0-.13.03-.24.1-.3s.11-.22.11-.49c-.27-.64-.37-1.27-.3-1.86.06-.57.03-1.2-.1-1.85-.14-.27-.27-.53-.4-.8-.13-.26-.25-.51-.38-.78,0-.91-.08-1.56-.21-1.96v-.38c-1.18-1.83-1.75-3.6-1.75-5.31v-.19c-.27-.92-.49-1.83-.7-2.76-.19-.91-.41-1.75-.69-2.55-.25-.91-.46-1.75-.59-2.53-.13-.8-.25-1.64-.38-2.57-.13-1.31-.3-2.53-.49-3.71-.19-1.18-.43-2.42-.69-3.73-.26-1.05-.33-1.77-.19-2.17.38-1.43.32-2.68-.21-3.71-.25-.65-.19-1.24.21-1.77l.59-2.95c.13-2.49.51-5.16,1.16-8.05.27-.65.46-1.23.59-1.75.14-.53.4-1.05.78-1.58.27-.4.53-.75.8-1.07.26-.33.51-.7.78-1.08,0-.13-.06-.27-.19-.4h-.21c-.25-.78-.45-1.37-.57-1.77-.27-.13-.43-.22-.49-.29-.06-.06-.24-.16-.49-.29-.25-.27-.43-.53-.49-.8-.06-.25-.22-.51-.49-.78-1.43-.25-2.96-.49-4.61-.69-1.64-.19-3.24-.22-4.8-.1h-5.69c-.65,0-1.31.13-1.96.38-.53-.26-.99-.45-1.39-.59.65-.64,1.21-1.27,1.67-1.85.46-.59.88-1.21,1.27-1.86,1.18-1.83,2.15-3.67,2.95-5.5.13-.26.25-.53.38-.78.13-.27.21-.53.21-.8.13-.91.29-1.78.48-2.65.21-.84.18-1.79-.1-2.84-.13-.27-.22-.49-.29-.69-.06-.19-.18-.43-.3-.69-.26-.27-.49-.46-.69-.59s-.35-.27-.49-.4c-.25-.13-.51-.19-.78-.19-.38,0-.75-.06-1.07-.21-.33-.13-.62-.13-.89,0-.38.14-.72.11-.97-.1-.27-.19-.59-.29-.99-.29-.27.13-.46.16-.59.1-.13-.06-.26-.03-.4.1-.51.27-.97.37-1.37.3-.38-.06-.72-.03-.97.1-.78.26-1.51.53-2.17.78-.65.27-1.24.53-1.75.78-.4.53-.86,1.18-1.39,1.96-.51.67-1,1.27-1.47,1.86-.46.59-.88,1.21-1.27,1.86-.38.53-.72,1.48-.97,2.85-.27,1.37-.49,2.77-.69,4.21-.21,1.45-.3,2.82-.3,4.13,0,1,.13,1.71.35,2.09-.51.7-.96,1.47-1.32,2.33-.92,2.15-1.71,4.35-2.36,6.57-.65,1.83-1.21,3.73-1.67,5.69-.46,1.96-1,3.92-1.66,5.88-.14.53-.24,1.05-.3,1.58-.06.53-.16,1.04-.29,1.56-.27.78-.4,1.58-.4,2.36s-.06,1.56-.19,2.36c-.27,1.43-.53,2.84-.78,4.21-.27,1.37-.59,2.79-.99,4.22-.26.53-.4.99-.4,1.37,0,.65-.1,1.24-.29,1.77-.19.53-.43,1.12-.69,1.77l-.59,2.34c-1.05,3.92-2.42,7.65-4.13,11.19-.26.25-.41.53-.48.78-.08.27-.24.53-.49.78l-.78.4c-.14-.65-.06-1.31.19-1.96.27-.65.27-1.31,0-1.96-.13-.65-.19-1.27-.19-1.86v-1.86c0-.65-.14-1.31-.4-1.96s-.38-1.37-.38-2.17c.38-1.16.32-2.47-.21-3.92-.38-1.04-.46-2.22-.19-3.52.25-1.31.35-2.58.29-3.82-.06-1.24-.16-2.52-.29-3.83-.13-.65-.13-1.21,0-1.67.13-.46.25-.94.4-1.47-.67-1.05-.86-2.3-.59-3.73.13-.65.19-1.27.19-1.86v-1.86c-.13-.65-.19-1.24-.19-1.77v-1.77c-.14-1.04-.18-2.09-.11-3.12.06-1.05.18-2.1.3-3.14.13-1.31.22-2.58.29-3.82.06-1.24.03-2.52-.1-3.83v-1.18c.53-1.18.53-2.49,0-3.92-.78-.8-1.83-1.31-3.14-1.58-1.56-.13-3.08-.1-4.51.1-1.43.21-2.87.11-4.32-.29-.65.26-1.21.46-1.66.59-.46.13-.89.26-1.27.38-.53.27-.89.62-1.08,1.08-.19.46-.43.81-.69,1.08-.53.78-1.18,1.43-1.96,1.96v1.77c-.53.53-.86,1.15-.99,1.86-.13.72-.25,1.4-.38,2.06-.27,1.05-.46,1.77-.59,2.15-.27.65-.56,1.27-.89,1.86-.32.59-.75,1.21-1.27,1.86-.53.78-1,1.61-1.47,2.45-.46.84-1.02,1.59-1.67,2.26-.25,1.04-.69,1.96-1.27,2.74-.57.78-1.21,1.63-1.86,2.55-1.04,1.56-2.02,3.14-2.93,4.7-.91,1.58-1.77,3.2-2.55,4.91-.27.38-.49.81-.69,1.27-.19.46-.43.88-.69,1.27-.11.22-.4.46-.81.69-.24-.88-.25-1.74-.08-2.55.21-.84.43-1.74.69-2.65.27-.91.59-1.8.99-2.65.4-.86.72-1.8.99-2.85.91-2.61,1.82-5.16,2.74-7.65.91-2.49,1.9-5.04,2.95-7.65.25-.26.45-.53.57-.78.13-.26.33-.53.59-.78.27-.27.53-.8.8-1.58.25-.25.41-.59.48-.97.06-.4.24-.72.49-.99.65-1.04,1.24-2.15,1.77-3.33.53-1.18,1.1-2.29,1.77-3.33l2.34-3.54c.65-.91,1.21-1.77,1.67-2.55.46-.78,1-1.56,1.67-2.36.51-.38,1-.81,1.47-1.27.46-.45.88-.81,1.27-1.07.78-.27,1.5-.3,2.15-.11.65.21,1.31.3,1.96.3h2.26c.72,0,1.47.06,2.25.19.14-.51.46-.81.99-.88.53-.06.84-.43.99-1.08l-.4-.38c-.65-.27-1.24-.53-1.77-.8-.53-.26-1.05-.51-1.56-.78-1.31.13-2.55.1-3.73-.1-1.18-.19-2.42-.22-3.73-.1-1.31.13-2.58.19-3.82.19s-2.45.06-3.63.19l-1.75,1.18c-.27.27-.49.53-.7.78-.19.27-.41.53-.69.8-.65.78-1.37,1.53-2.15,2.25-.78.72-1.51,1.55-2.17,2.45-.51.78-1.1,1.55-1.75,2.26-.65.72-1.31,1.4-1.96,2.06-.65.91-1.34,1.77-2.07,2.55-.72.78-1.34,1.64-1.85,2.55-.67.91-1.26,1.8-1.77,2.65-.53.86-.99,1.8-1.39,2.84-.25.53-.48,1.02-.67,1.48-.21.46-.43.88-.7,1.27-.51,1.31-.97,2.23-1.37,2.74-.25.53-.46,1.05-.59,1.58-.13.53-.38.91-.78,1.18-.53.38-.78.81-.78,1.27s-.13.94-.4,1.47c-.78,1.31-1.4,2.61-1.86,3.92-.45,1.31-1,2.68-1.66,4.11-.27.67-.53,1.64-.8,2.95-.38,3.27-.97,6.28-1.75,9.02l-1.18,1.18c.13.27.19.53.19.78,0,.27.06.53.19.8l-.97.97c.26,1.58.56,3.11.88,4.61.33,1.51.69,3.11,1.08,4.81.53.53,1.18,1.31,1.96,2.36,1.83,1.04,3.73,1.69,5.69,1.96,1.96.25,3.86.53,5.69.78.65.13,1.24.13,1.77,0,.51-.13,1.18-.26,1.96-.4.91.27,1.77.21,2.55-.19.53-.13,1.43-.32,2.74-.59.53-.26.91-.53,1.18-.78.25-.4.53-.78.78-1.18.27-.38.53-.78.78-1.18l2.36-2.93c.4-.65.81-1.18,1.27-1.58.46-.4.81-.91,1.08-1.56.65-.4,1.15-.89,1.47-1.48.33-.59.69-1.2,1.08-1.86.53-.78.97-1.5,1.37-2.15.53,1.05.84,1.83.99,2.36.13.26.19.72.19,1.37.13.65.16,1.27.1,1.86-.06.59.03,1.21.3,1.86.38.78.57,1.56.57,2.34s.06,1.58.21,2.36c.13.78.25,1.61.38,2.45.13.84.27,1.67.4,2.45.13.53.19,1.05.19,1.56s.06,1.12.21,1.77c.38,2.23,1.04,4.26,1.96,6.09,1.56,2.61,3.65,3.86,6.28,3.71.64-.13,1.29-.19,1.96-.19h1.96c1.04-.13,1.99-.26,2.84-.38.86-.13,1.67-.46,2.45-.99.53-.4,1.02-.81,1.47-1.27.46-.46.89-.81,1.27-1.08.65-.78,1.18-1.47,1.58-2.06.38-.59.84-1.21,1.37-1.86.13-.26.25-.49.4-.69.13-.19.25-.41.38-.69.4-1.31,1.12-2.61,2.17-3.92.51-1.05.91-1.9,1.18-2.55.51-1.31.94-2.61,1.26-3.92.33-1.31.83-2.68,1.48-4.13.53-1.18.91-2.31,1.18-3.43.25-1.12.25-2.33,0-3.63,0-.13.03-.22.1-.3.06-.05.1-.02.1.11.25-.65.46-1.15.59-1.48.13-.32.25-.69.38-1.07.27-.53.43-.99.49-1.37.06-.4.22-.8.49-1.18-.13-.92-.06-2.02.19-3.35.27-1.04.53-1.98.8-2.84.25-.84.51-1.74.78-2.65.53-1.31.72-2.61.59-3.92-.14-.4-.18-.83-.1-1.27.06-.46.1-.89.1-1.27.13-.53.22-1.05.29-1.58.06-.51.16-1.1.3-1.77.51-1.04.78-2.15.78-3.33.13-1.83.53-3.65,1.18-5.5.02-.08.06-.19.08-.29.43.24.86.48,1.29.69,1.04.53,1.77.92,2.15,1.18v.99c-.25,1.04-.56,2.06-.88,3.03-.33.99-.69,2.01-1.08,3.04-.53,1.45-.94,2.85-1.27,4.22-.32,1.37-.49,2.77-.49,4.21,0,.8-.06,1.39-.19,1.77-.13.27-.19.72-.19,1.37.13,1.32.16,2.58.1,3.82-.06,1.24.1,2.52.49,3.82,0,.8.06,1.58.19,2.36.13.78.25,1.58.4,2.36.13,1.18.29,2.33.48,3.43.21,1.12.43,2.26.69,3.43.27.92.46,1.85.59,2.76.14.91.33,1.83.59,2.74.27.53.43,1.05.49,1.58.06.53.22,1.04.49,1.56.53,1.18,1,2.33,1.47,3.43.46,1.12.96,2.2,1.47,3.25,0,.13.03.19.11.19.06,0,.1.06.1.19.65.65,1.18,1.4,1.56,2.26.4.84.86,1.59,1.37,2.25.13.14.33.59.59,1.37.53.4,1.02.8,1.48,1.18.45.4.94.86,1.47,1.37,1.18,1.18,2.8,2.23,4.91,3.14.26.14.45.21.59.21.13,0,.32.06.57.19,2.63,1.05,5.31,1.24,8.05.59,1.43-.25,2.77-.72,4.02-1.37,1.24-.65,2.45-1.43,3.63-2.36.53-.4,1.05-.78,1.58-1.18.51-.38.91-.84,1.18-1.37.78-1.05,1.43-1.77,1.96-2.15.51-.8.84-1.24.97-1.37.53-.8.84-1.24.99-1.39.51-1.31,1-2.52,1.47-3.62.46-1.12.81-2.2,1.08-3.24.26-.65.45-1.29.59-1.86.13-.59.32-1.21.59-1.86.13-.65.29-1.24.48-1.77.21-.53.37-1.12.49-1.77.25-.91.53-1.77.78-2.55.27-.78.33-1.63.21-2.55.25-.65.51-1.24.78-1.77.25-.51.53-1.1.78-1.75l.19-.4c-.13-1.05-.13-1.8,0-2.26.13-.45.4-1.2.8-2.25.02-.11.06-.27.13-.43.03.27.06.54.06.81,0,.92.06,1.77.19,2.57.13.78.06,1.56-.19,2.34-.14.27-.18.49-.1.69.06.19.1.43.1.69,0,.53.06.99.19,1.39.13.38.32.84.59,1.37.25.65.46,1.34.59,2.06.13.72.45,1.4.97,2.06.27,0,.53.03.8.1.26.08.51.1.78.1.26.53.38.67.38.4,1.45.65,2.88,1.02,4.32,1.08,1.45.06,2.88.22,4.32.49.53-.27.72-.33.59-.21h2.74c.4-.38.72-.78.99-1.18.26-.38.53-.78.78-1.16.25-.8.46-1.31.59-1.58.65-.53,1.21-.94,1.67-1.27.45-.32.94-.69,1.47-1.08.13-.78.25-1.53.4-2.25.13-.72.38-1.34.78-1.86-.13-.65-.18-1.18-.1-1.56.06-.4.03-.86-.1-1.39-.14-1.18-.24-2.37-.3-3.63-.06-1.23-.16-2.44-.29-3.62v-7.84c0-.53.06-1.12.19-1.77,0-.65-.13-1.27-.4-1.86-.25-.59-.25-1.21,0-1.86-.25-.4-.35-.84-.29-1.37.06-.53-.03-1.05-.3-1.58-.13-.26-.19-.54-.19-.88v-.88c.26-.65.37-1.31.3-1.98-.08-.65-.11-1.31-.11-1.96.14-.26.33-.51.59-.78.4-.91.86-1.77,1.37-2.55.53-.78.92-1.69,1.18-2.74.13-.92.72-1.71,1.77-2.36.53-.13,1.05-.59,1.58-1.37l2.34-2.36,2.36-.59c.13.27.25.43.4.49.13.06.25.16.38.29.25.92.3,1.8.1,2.66-.19.84-.22,1.59-.1,2.25-.13.65-.32,1.37-.59,2.17v2.06c0,.59-.06,1.21-.19,1.86-.13.65-.19,1.34-.19,2.06v2.06c0,.92-.1,1.77-.3,2.55-.19.8-.16,1.64.1,2.55-.25.65-.35,1.24-.29,1.77.06.53.1,1.12.1,1.77v1.77c0,.53-.06,1.1-.19,1.75,0,1.05.03,2.04.1,2.95.06.92-.03,1.83-.3,2.74-.13.8-.19,1.55-.19,2.26s.13,1.4.4,2.06c.25.65.45,1.34.59,2.06.13.73.38,1.35.78,1.86.25.14.53.33.78.59-.91.65-1.5,1.24-1.77,1.77l.59.59c.13,0,.27.06.4.19.91-.13,1.8-.13,2.65,0,.84.14,1.74.33,2.65.59.27.27.59.33.99.19.51,0,.97.08,1.37.21.4.13.84.19,1.37.19s1.02.06,1.47.19c.46.14.96.21,1.48.21.38-.4.84-.72,1.37-.99.38-.13,1.05-.19,1.96-.19.25-.53.78-1.31,1.56-2.36-.13-.25-.19-.49-.19-.69s-.06-.41-.19-.69c.38-.4.65-.59.78-.59-.27-.78-.4-1.12-.4-.99l.59-5.29c.27-.78.33-1.37.21-1.77-.14-.64-.11-1.2.1-1.66.19-.46.16-1.02-.1-1.67.13-.53.25-1.04.38-1.56.13-.53.27-1.05.4-1.58.13-.65.25-1.24.4-1.75.13-.53.32-1.12.57-1.77-.13-.27-.19-.46-.19-.59s-.06-.27-.19-.4c0-.26.03-.46.1-.59.06-.13.1-.32.1-.59.27-1.18.49-2.31.69-3.43.21-1.12.43-2.18.69-3.24.27-.65.43-1.31.49-1.96s.22-1.31.49-1.96c.78-2.49,2.09-4.78,3.92-6.87.91-.91,1.58-1.77,1.96-2.55l.59-.59c.65-.53,1.27-.96,1.86-1.27.59-.32,1.21-.81,1.86-1.47h.38v2.34c.14.92,0,2.04-.38,3.33-.27.8-.43,1.58-.49,2.36-.06.8-.22,1.58-.49,2.36-.26,1.56-.48,3.14-.69,4.7-.19,1.58-.43,3.22-.69,4.91-.13.92-.25,1.8-.38,2.65-.14.86-.27,1.8-.4,2.85-.13,1.04-.24,2.15-.3,3.33-.06,1.18-.16,2.3-.29,3.33,0,.27-.03.56-.1.89-.06.32-.1.62-.1.88-.14,1.43-.24,2.82-.3,4.13-.06,1.31-.22,2.68-.48,4.11v.59c.11.65.16,1.34.1,2.06-.08.72-.18,1.4-.3,2.06,0,.65.06,1.35.21,2.07.11.72.06,1.4-.21,2.06.13,1.69.21,3.33.21,4.89s.32,3.16.97,4.72c.25.65.53,1.5.78,2.55-.25.78-.38,1.37-.38,1.77.25.25.45.53.59.78.13.27.26.53.38.78.13.13.19.4.19.78s-.16.72-.48.99c-.33.25-.37.59-.1.97.13,0,.22-.02.29-.1.06-.06.22-.1.49-.1.26.27.51.49.78.69.25.21.53.43.78.69l-.78.8c0,.26.06.45.19.57,1.58,1.05,3.14,1.77,4.72,2.17.51.13,1.04.22,1.56.29.53.08,1.12.24,1.77.49.4-.13,1.31-.19,2.74-.19.53.13,1.02.13,1.48,0,.45-.13.88-.25,1.27-.4.78-.26,1.53-.41,2.25-.49.72-.06,1.4-.22,2.06-.48,1.05-.65,1.74-1.08,2.07-1.27.32-.21.81-.81,1.47-1.86.26-.27.4-.46.4-.59.64-.65,1.16-1.27,1.56-1.86.4-.59.78-1.21,1.18-1.86.4-.65.72-1.12.97-1.37,1.31-.4,1.98-1.37,1.98-2.95,0-.53.16-.91.48-1.18.33-.25.62-.59.89-.97.03-.16.1-.32.14-.49.25.33.53.69.83,1.08,1.83,1.04,3.73,1.69,5.69,1.96,1.96.25,3.86.53,5.69.78.65.13,1.24.13,1.77,0,.53-.13,1.18-.26,1.96-.4.91.27,1.77.21,2.55-.19.53-.13,1.43-.32,2.74-.59.53-.26.92-.53,1.18-.78.25-.4.53-.78.78-1.18.27-.38.53-.78.8-1.18l2.34-2.93c.4-.65.81-1.18,1.27-1.58.46-.4.81-.91,1.08-1.56.65-.4,1.15-.89,1.47-1.48.33-.59.69-1.2,1.08-1.86.53-.78.99-1.5,1.37-2.15.53,1.05.84,1.83.99,2.36.13.26.19.72.19,1.37.13.65.16,1.27.1,1.86-.06.59.03,1.21.3,1.86.38.78.59,1.56.59,2.34s.06,1.58.19,2.36c.13.78.25,1.61.4,2.45.13.84.25,1.67.38,2.45.13.53.19,1.05.19,1.56s.06,1.12.21,1.77c.38,2.23,1.04,4.26,1.96,6.09,1.56,2.61,3.65,3.86,6.28,3.71.65-.13,1.31-.19,1.96-.19h1.96c1.04-.13,1.99-.26,2.84-.38.86-.13,1.67-.46,2.45-.99.53-.4,1.02-.81,1.47-1.27.46-.46.89-.81,1.27-1.08.65-.78,1.18-1.47,1.58-2.06.4-.59.84-1.21,1.37-1.86.13-.26.27-.49.4-.69.13-.19.26-.41.38-.69.4-1.31,1.12-2.61,2.17-3.92.51-1.05.91-1.9,1.18-2.55.51-1.31.94-2.61,1.27-3.92.32-1.31.81-2.68,1.47-4.13.53-1.18.91-2.31,1.18-3.43.26-1.12.26-2.33,0-3.63,0-.13.03-.22.1-.3.06-.05.1-.02.1.11.26-.65.46-1.15.59-1.48.13-.32.25-.69.4-1.07.25-.53.41-.99.48-1.37.06-.4.22-.8.49-1.18-.13-.92-.06-2.02.21-3.35.26-1.04.51-1.98.78-2.84.26-.84.51-1.74.78-2.65.53-1.31.72-2.61.59-3.92-.13-.4-.18-.83-.1-1.27.06-.46.1-.89.1-1.27.13-.53.22-1.05.29-1.58.06-.51.16-1.1.3-1.77.51-1.04.78-2.15.78-3.33.13-1.83.53-3.65,1.18-5.5.26-.91.59-1.88.97-2.93.27-.53.46-1.18.59-1.96,0-.4.06-.78.21-1.18.13-.4.19-.84.19-1.37-.4-.65-.78-.99-1.18-.99M76.7,82.97c-.27-.26-.33-.4-.19-.4.08,0,.22-.03.37-.1-.02.21-.06.38-.18.49M144.77,35.5c-1.31,2.36-2.68,4.45-4.13,6.28-.26-.13-.32-.38-.19-.78.25-.4.49-.81.69-1.27.19-.46.37-.94.49-1.47.13-.78.46-1.64.97-2.55.53-.65.99-1.51,1.39-2.55.25-.4.78-.99,1.56-1.77.25.13.4.46.4.97-.27,1.18-.67,2.23-1.18,3.14M294.44,82.97c-.26-.26-.33-.4-.19-.4.08,0,.22-.03.38-.1-.02.21-.08.38-.19.49"/>
      <path class="cls-2" d="M387.23,105.33c-.4-.51-.59-.99-.59-1.37,0-1.31-.03-2.5-.1-3.62-.08-1.12-.03-2.2.1-3.24,0-.53-.1-.99-.3-1.37-.19-.4-.16-.84.11-1.37,0-.4-.14-.59-.4-.59-.27-.25-.49-.56-.69-.88-.19-.33-.43-.62-.69-.89-.4-.4-.65-.72-.78-.97-.65-.26-1.24-.43-1.77-.49-.53-.06-.97-.29-1.37-.69-.13-.13-.26-.18-.38-.1-.14.06-.27.03-.4-.1-1.18-.26-2.34-.4-3.52-.4s-2.29-.19-3.33-.59h-.61c-.65-.13-1.34-.19-2.04-.19s-1.55-.06-2.47-.21c-.26.14-.91.33-1.94.59-.27,0-.53-.14-.8-.48-.26-.32-.57-.3-.97.1,0,.38.06.72.19.99.27.26.53.41.78.48.27.08.53.24.8.49.13.53.38,1.05.78,1.56v1.96c0,.92-.06,1.83-.21,2.74-.13.92-.06,1.83.21,2.74-.27.65-.43,1.34-.49,2.06s-.1,1.42-.1,2.07v5.58c0,1.9.13,3.76.38,5.58.27,1.58.49,3.14.69,4.72.21,1.56.49,3.06.91,4.49.37,1.45.76,2.92,1.15,4.41.41,1.5,1.13,2.96,2.18,4.4.26.14.48.27.67.4.21.13.41.25.7.38.65-.26,1.27-.41,1.85-.48.59-.06,1.02-.16,1.27-.3,1.43-1.04,2.58-2.18,3.43-3.43.86-1.24,1.74-2.5,2.65-3.81-.38-.53-.41-1.02-.1-1.48.32-.45.37-.94.1-1.47.4-.26.69-.48.89-.69.19-.19.41-.35.69-.48.26-1.83.7-3.54,1.37-5.1.64-1.58,1.29-3.2,1.94-4.91-.38-.51-.48-1-.29-1.47.19-.45.16-1-.1-1.66-.27-.53-.27-1.02,0-1.47.26-.48.45-.96.59-1.48"/>
      <path class="cls-2" d="M63.58,144.88c.13.78.37,1.56.69,2.36.33.78.69,1.5,1.08,2.15.38.78.91,1.51,1.56,2.17.53.65,1.15,1.1,1.86,1.37.72.25,1.4.53,2.06.78,1.05.25,2.04.59,2.95.97.65,0,1.37.05,2.15.1.8.08,1.58-.02,2.36-.29.26-.38.56-.75.89-1.08.32-.32.61-.69.88-1.07v-2.17c-.27-.51-.53-.97-.78-1.37-.27-.38-.53-.91-.8-1.56.14-1.18-.06-2.55-.57-4.13-.53,0-.99-.32-1.39-.97-.38-.8-.94-1.39-1.66-1.77-.72-.4-1.48-.72-2.26-.99-.65-.25-1.64-.51-2.93-.78-.67-.13-1.71-.19-3.14-.19-.14,0-.46.13-.99.38-.53.27-1.02.56-1.47.89-.46.32-.89.62-1.28.88.13.65.26,1.34.38,2.07.13.72.27,1.47.4,2.25"/>
      <path class="cls-2" d="M261.96,144.88c.13.78.35,1.56.69,2.36.32.78.69,1.5,1.08,2.15.38.78.91,1.51,1.56,2.17.53.65,1.15,1.1,1.86,1.37.72.25,1.4.53,2.06.78,1.05.25,2.02.59,2.95.97.65,0,1.37.05,2.15.1.8.08,1.58-.02,2.36-.29.25-.38.56-.75.88-1.08.33-.32.62-.69.89-1.07v-2.17c-.27-.51-.53-.97-.78-1.37-.27-.38-.53-.91-.8-1.56.13-1.18-.06-2.55-.59-4.13-.51,0-.97-.32-1.37-.97-.38-.8-.94-1.39-1.66-1.77-.73-.4-1.48-.72-2.26-.99-.65-.25-1.64-.51-2.95-.78-.65-.13-1.69-.19-3.14-.19-.13,0-.45.13-.97.38-.53.27-1.02.56-1.47.89-.46.32-.89.62-1.27.88.13.65.25,1.34.38,2.07.13.72.25,1.47.4,2.25"/>
      <path class="cls-2" d="M198.41,222.17c0-.13-.06-.19-.19-.19v.19h.19Z"/>
      <path class="cls-2" d="M198.99,222.76h.19c0-.13-.06-.19-.19-.19v.19Z"/>
      <path class="cls-2" d="M318.94,162.64c-.32-.59-1-.37-2.04.69-.14.27-.3.46-.49.59-.19.13-.37.32-.49.59-.25.65-.45,1.18-.59,1.56-.13.4-.19.92-.19,1.58,0,.25-.06.43-.19.49-.13.06-.19.22-.19.48-.4,1.45-.81,2.92-1.27,4.41-.45,1.51-1,2.98-1.66,4.41-.38,1.05-.75,2.14-1.07,3.24-.32,1.12-.69,2.2-1.07,3.24-.4,1.05-.86,2.07-1.37,3.04-.53.99-.91,1.99-1.18,3.04,0,.13-.13.46-.38.97-.26.8-.46,1.32-.59,1.58-.38.65-.75,1.34-1.07,2.06-.33.72-.69,1.4-1.07,2.06-1.18,1.98-2.39,3.97-3.62,5.99-1.24,2.02-2.5,4.02-3.81,5.98-.51.65-.97,1.31-1.35,1.96-.4.65-.84,1.31-1.37,1.96-1.04,1.18-2.06,2.33-3.03,3.44-.97,1.12-1.98,2.18-3.01,3.24-.65.65-1.27,1.24-1.86,1.77-.59.53-1.2,1.1-1.85,1.75-.26.27-.49.43-.69.49-.19.06-.43.18-.69.3-.13,0-.21-.06-.21-.21.67-2.22.92-4.24.8-6.07,0-.13.03-.22.1-.3.06-.06.1-.22.1-.48.13-.65.26-1.31.4-1.96.13-.65.13-1.31,0-1.98,0-.25-.14-.65-.4-1.16,0-.27.06-.49.19-.7.14-.19.21-.41.21-.69-.02-.05-.03-.08-.03-.13.03.11.08.19.13.24.06.06.1-.18.1-.69v-1.58c0-.4.06-.81.19-1.27s.21-.94.21-1.47c.13-1.45.32-2.82.59-4.13.25-1.31.32-2.68.19-4.11.13-.53.19-1.4.19-2.65v-3.83c0-1.31-.06-2.55-.19-3.73-.13-1.18-.19-2.09-.19-2.76,0-.38-.03-.75-.11-1.07-.06-.33-.16-.69-.29-1.08-.4-1.31-.78-3.24-1.18-5.79-.38-2.55-.78-4.48-1.18-5.79-1.18-1.05-2.02-2.23-2.55-3.54-.53-1.31-1.31-2.47-2.36-3.52-.38-.27-.78-.43-1.16-.49-.4-.06-.8-.22-1.18-.49-.78.13-1.74.13-2.85,0-1.12-.13-2.15-.22-3.14-.29-.97-.06-1.86-.18-2.65-.3-.78-.13-1.18-.13-1.18,0-1.31.53-2.22.92-2.74,1.18-.26,0-.59.86-.97,2.55-.4,1.71-.67,3.01-.8,3.92-.13.4-.22,1.08-.29,2.06-.06.99-.13,2.07-.19,3.25-.08,1.16-.11,2.25-.11,3.24v2.06c0,.91-.1,1.43-.29,1.56-.19.14-.16.65.1,1.58,0,.53-.06.91-.19,1.18-.13.65-.19,1.63-.19,2.93,0,.18,0,.46.03.84l-.33.33c-1.77,1.71-3.55,3.33-5.39,4.91-1.18,1.05-2.33,2.06-3.44,3.04-1.12.97-2.25,1.99-3.43,3.03-1.58,1.32-2.98,2.69-4.22,4.13-1.24,1.43-2.77,2.68-4.61,3.73-.27.13-.53.32-.78.59-1.05.91-2.04,1.8-2.95,2.65-.91.84-1.9,1.59-2.95,2.25l-.38.4c-.65.27-1.34.49-2.06.69-.73.19-1.42.49-2.07.89-.65.25-1.37.51-2.15.78-.78.25-1.64.46-2.55.59-1.05-.53-1.83-.86-2.36-.99-.65-.65-1.21-1.24-1.66-1.77-.46-.51-.89-1.04-1.27-1.56-.4-.78-.72-1.5-.99-2.15-.26-.67-.72-1.24-1.37-1.77-.13-.4-.19-.92-.19-1.58-.14-.38-.24-.75-.3-1.07-.06-.33-.16-.7-.29-1.08.51-.65.65-1.71.38-3.14-.26-1.18-.26-2.49,0-3.92,0-.13-.06-.22-.19-.3-.13-.06-.13-.16,0-.29.26-.4.4-.81.4-1.27v-1.27c0-.27.06-.49.19-.69.13-.21.19-.43.19-.69.27-.8.43-1.58.49-2.36.06-.78.22-1.58.49-2.36,0-.13-.03-.22-.1-.29-.08-.06-.1-.16-.1-.3v-.19c.65-2.61,1.43-5.23,2.34-7.84.27-.65.46-1.37.59-2.17.13-.78.4-1.5.78-2.15,1.45-2.61,2.92-5.16,4.41-7.65,1.51-2.49,3.17-4.85,5-7.06.65-.65,1.24-1.31,1.77-1.96.53-.65,1.12-1.31,1.77-1.96.25-.27.59-.49.97-.7.4-.19.8-.41,1.18-.69.78.8,1.53,1.58,2.26,2.36.72.78,1.47,1.58,2.25,2.36.4,2.23-.38,4.64-2.36,7.25l.99,1.96c.78.53,1.43.99,1.96,1.37.53.4.99.73,1.37.99h1.96c1.05-.78,1.77-1.37,2.17-1.77-.13-.25-.27-.56-.4-.88-.13-.33-.19-.69-.19-1.08,0-1.04-.03-2.06-.1-3.04-.08-.97.03-1.99.29-3.03.27-1.05.4-2.14.4-3.25s.06-2.25.19-3.43c-1.05-1.43-2.09-2.81-3.14-4.11-1.05-1.31-2.61-2.09-4.7-2.36-1.31.27-2.42.4-3.33.4-1.05-.13-2.04-.06-2.95.19-.92.25-1.9.46-2.95.59-1.96,1.05-3.89,2.06-5.79,3.04-1.9.97-3.49,2.44-4.8,4.41-.8.78-1.39,1.31-1.77,1.56-1.31,1.05-2.52,2.2-3.63,3.43-1.12,1.24-2.2,2.53-3.24,3.83-1.05,1.18-1.99,2.39-2.84,3.63-.86,1.24-1.74,2.52-2.66,3.82,0,.78-.19,1.43-.59,1.96-.38.53-.72,1.12-.97,1.77-.53.78-1.02,1.56-1.47,2.36-.46.78-.89,1.63-1.27,2.55-.8,1.56-1.58,3.14-2.36,4.7-.78,1.58-1.51,3.2-2.15,4.91-.53,1.18-1.02,2.34-1.48,3.52-.46,1.18-.62,2.49-.49,3.94-.26.25-.38.45-.38.57-.13.67-.21,1.24-.21,1.77v1.77c-.25,1.31-.38,2.15-.38,2.55.13.65.22,1.27.29,1.86.06.59.1,1.21.1,1.86.13.25.16.59.1.97-.06.4-.03.73.11.99,0,.13.05.25.18.4h.96c-.13.65-.25,1.21-.38,1.66-.13.46-.25.88-.38,1.27,1.27,2.23,2.68,4.32,4.19,6.28.26.27.45.56.57.88.13.33.38.49.77.49.13-.13.22-.19.29-.19s.16-.06.29-.19c0,.13.03.22.1.29s.1.16.1.29v.02l.61.57h-.4l.59.59v-.59c0,.27.14.4.4.4-.13.13-.26.19-.4.19v.21l.1-.11c1.18,1.13,2.5,2.06,3.98,2.76,1.51.72,3.08,1.4,4.67,2.06,2.9,1.05,5.61,1.51,8.11,1.37h1.37c2.23.14,4.22-.1,5.99-.69,1.75-.59,3.55-1.4,5.39-2.45,1.05-.26,2.02-.59,2.95-.97.91-.4,1.83-.86,2.74-1.37.4-.27.81-.53,1.27-.8.46-.25.94-.51,1.47-.78.27-.26.43-.49.49-.69s.22-.43.49-.69c1.04-.4,1.96-.88,2.74-1.47.78-.59,1.58-1.21,2.36-1.86l.59-.59.38-.4c.4-.25.72-.59.99-.97.25-.4.59-.72.99-.99,1.82-1.56,3.46-3.2,4.89-4.91,1.43-1.69,2.88-3.39,4.32-5.1.78-.91,1.5-1.75,2.15-2.55.33-.38.67-.78,1.02-1.21.05.27.1.54.16.83.13.38.13.81,0,1.27-.13.46-.13.88,0,1.27v1.37c0,.25-.03.53-.1.78-.03.13-.05.27-.03.4-.02.32,0,.65.03.97.03.3.03.61.05.91-.05.25-.03.53.03.78,0,.1.02.19.02.27.13,1.45.22,2.82.3,4.13.06,1.31.22,2.61.48,3.92-.13.53-.13.99,0,1.37.14.4.27.78.4,1.18-.4,1.05-.4,1.99,0,2.85.4.84.65,1.78.78,2.84.53.78.89,1.61,1.08,2.45.19.84.49,1.67.88,2.45-.26.25-.13.69.4,1.27.53.59.84.81.97.69.27.38.59.78.99,1.18,1.31.65,3.01.84,5.1.57h1.27c.46,0,.94.08,1.47.21,1.31,0,2.23-.06,2.76-.21.51-.25,1-.38,1.47-.38s.88-.13,1.27-.4c.26,0,.49-.03.69-.1.19-.06.43-.1.69-.1.65-.25,1.27-.49,1.86-.69.59-.19,1.21-.43,1.86-.69.65,0,1.37-.4,2.17-1.18,1.69-1.31,3.25-2.87,4.7-4.7.78-1.05,1.53-1.99,2.25-2.85.72-.84,1.34-1.53,1.86-2.06,1.05-1.71,1.93-3.17,2.65-4.41.72-1.24,1.42-2.39,2.07-3.44.51-.91,1.04-1.79,1.56-2.65.53-.84,1.05-1.72,1.58-2.65.26-.51.45-.97.59-1.37.25-.53.41-1,.48-1.47.06-.46.24-.96.49-1.48.26-.51.53-1,.78-1.47.27-.45.53-.94.78-1.47.27-.4.43-.78.49-1.18.06-.4.22-.78.49-1.18l.59-1.18c.65-.91,1.59-2.55,2.85-4.89,1.23-2.36,2.18-4,2.84-4.91v-.19c0-1.05.19-1.98.59-2.76.38-.78.78-1.63,1.18-2.55,0-.38.13-.84.38-1.37.27-.91.49-1.83.69-2.74.21-.92.49-1.83.89-2.76,0-.13.03-.25.1-.38.06-.13.1-.33.1-.59,0-1.05.3-2.36.89-3.92l.73-2.76c.24-.51.29-.97.18-1.37-.13-.38-.06-.78.18-1.18,0-.38.06-.69.19-.88s.13-.41,0-.69c0-.25-.18-.69-.49-1.27"/>
      <path class="cls-2" d="M198.59,222.17c.25,0,.4.13.4.4v-.4h-.4Z"/>
      <path class="cls-2" d="M172.45,166.85c-.4-.13-.72-.06-.99.19-.25.27-.51.33-.78.19-.78.53-1.31.86-1.56.99-1.45.27-2.68.59-3.73.99-1.05.38-2.23.78-3.54,1.16-1.04.27-2.18.37-3.43.3-1.24-.06-2.39-.16-3.43-.3-.67-.51-1.15-1.1-1.48-1.75-.32-.65-.62-1.31-.88-1.96-.13-.27-.27-.59-.4-.99-.13-.38-.32-.72-.59-.99-.65-.38-1.12-.88-1.37-1.47-.25-.59-.46-1.21-.59-1.86-.78-.25-1.37-.65-1.77-1.16-.38-.53-.78-.99-1.16-1.39-.67-.38-1.28-.69-1.86-.88-.59-.19-1.21-.43-1.86-.69-1.71-.13-3.24.03-4.61.49-1.39.45-2.79.88-4.22,1.27-.26.78-.49,1.53-.69,2.25-.21.72-.43,1.4-.69,2.06-.27.92-.3,1.77-.1,2.55.19.8.41,1.51.69,2.17.25.65.41,1.24.48,1.77.08.51.3.97.69,1.37.65.65,1.18,1.27,1.58,1.86.4.59,1.1,1,2.15,1.28.27.13.62.25,1.08.38.46.14.81.27,1.08.4,1.18.25,2.36.38,3.52.38s2.42.08,3.73.21c.13,0,.22.03.3.1.06.06.16.1.29.1v3.54c0,1.16-.06,2.34-.19,3.52-.27.65-.53,1.37-.78,2.17-.27.78-.53,1.56-.8,2.34-.53,1.45-.91,2.95-1.16,4.53-.27,1.56-.73,3.06-1.39,4.51-.13,1.04-.38,1.96-.78,2.74-.38.78-.78,1.64-1.18,2.55l-2.34,5.88c-.92,2.36-2.14,4.45-3.63,6.28-1.51,1.83-3.44,3.27-5.79,4.32-.14.13-.4.19-.78.19-1.71-1.05-2.98-2.33-3.84-3.83-.84-1.5-1.66-2.98-2.44-4.41-.14-.38-.21-.78-.21-1.18s-.13-.78-.38-1.18c-.8-2.09-1.18-4.38-1.18-6.85.53-1.31.84-2.3.97-2.95,0-.25-.03-.46-.1-.59s-.1-.32-.1-.59c.25-1.56.72-2.87,1.37-3.92,0-1.43.06-2.45.21-3.04.13-.59.45-1.59.97-3.04.53-1.04.84-1.88.99-2.55,0-.65.1-1.27.29-1.86.19-.59.43-1.2.69-1.86.13-.25.16-.45.1-.57-.06-.13-.03-.33.1-.59,0-.27.08-.53.21-.8.13-.25.26-.51.38-.78.13-.25.21-.59.21-.97,0-.65-.08-1.05-.21-1.18.27-.13.59-.4.99-.78-.13-.53-.19-.99-.19-1.39s-.08-.72-.21-.97c-.13-.13-.26-.22-.38-.3-.14-.05-.27-.16-.4-.29-.13-.4-.1-.62.1-.69.21-.06.37-.22.49-.49v-.4c.25-.64.46-1.2.59-1.66.13-.46.32-.96.59-1.48-.13-.38-.21-.84-.21-1.37-.51-.38-.97-.78-1.37-1.18-.38-.38-.91-.7-1.56-.97-.65-.26-1.24-.49-1.77-.69s-1.12-.43-1.77-.69c-.65-.25-1.24-.49-1.75-.69-.53-.21-1.12-.3-1.77-.3-.65.4-1.24.83-1.77,1.27-.53.46-1.05.89-1.56,1.27-.27.27-.62.96-1.08,2.07-.46,1.1-.62,1.79-.49,2.06-.65.78-1.21,1.53-1.66,2.25-.46.73-.89,1.48-1.27,2.26-.4.65-.8,1.27-1.18,1.86-.4.59-.92,1.15-1.58,1.66,0,.67-.25,1.45-.78,2.36-.53.92-.92,1.5-1.18,1.77-.13,0-.33-.06-.59-.19-.26.38-.59.78-.97,1.18-.27.78-.33,1.5-.21,2.15.13.65-.06,1.31-.59,1.96-.25,0-.45-.06-.59-.19-.13.26-.25.41-.38.48-.13.08-.27.18-.4.3h-.78c-.13.13-.19.25-.19.38,0,1.05.03,2.1.1,3.14.06,1.05-.18,2.1-.69,3.14-.14.27-.18.49-.1.69.06.21.1.43.1.69.25.67.32,1.29.19,1.86-.13.59-.26,1.15-.4,1.67.4,1.45.62,2.88.7,4.32.02.49.06,1,.1,1.5-1.12,1.82-2.25,3.6-3.41,5.37-.53.65-.97,1.31-1.37,1.96-.38.65-.84,1.31-1.35,1.96-1.05,1.18-2.06,2.33-3.03,3.43-.97,1.12-1.99,2.2-3.03,3.24-.64.67-1.27,1.24-1.85,1.77-.59.53-1.21,1.12-1.85,1.77-.27.25-.49.43-.69.49-.21.06-.43.16-.7.29-.13,0-.19-.06-.19-.19.65-2.23.92-4.26.78-6.09,0-.13.03-.22.11-.29.06-.06.1-.22.1-.49.13-.65.26-1.31.38-1.96s.13-1.31,0-1.96c0-.27-.13-.65-.38-1.18,0-.25.06-.49.19-.69.13-.19.19-.43.19-.69,0-.05-.02-.1-.03-.13.05.1.1.18.13.22.06.06.11-.16.11-.69v-1.58c0-.38.06-.81.19-1.27.13-.45.19-.94.19-1.47.13-1.43.33-2.81.59-4.11.27-1.31.33-2.68.19-4.13.14-.53.21-1.4.21-2.65v-3.82c0-1.31-.06-2.55-.21-3.73-.13-1.18-.19-2.09-.19-2.74,0-.4-.03-.75-.1-1.08-.06-.32-.16-.69-.29-1.08-.4-1.29-.8-3.24-1.18-5.79-.4-2.55-.8-4.48-1.18-5.79-1.18-1.05-2.02-2.22-2.55-3.52s-1.31-2.49-2.36-3.54c-.4-.25-.78-.41-1.18-.49-.38-.06-.78-.22-1.18-.48-.78.13-1.72.13-2.84,0-1.12-.14-2.15-.24-3.14-.3s-1.86-.16-2.65-.29c-.78-.13-1.18-.13-1.18,0-1.31.53-2.23.91-2.74,1.18-.27,0-.59.84-.99,2.55-.4,1.69-.65,3-.78,3.92-.13.38-.22,1.07-.3,2.06-.06.97-.13,2.06-.19,3.24-.06,1.18-.1,2.25-.1,3.24v2.06c0,.92-.1,1.45-.29,1.58-.21.13-.18.65.1,1.56,0,.53-.06.92-.21,1.18-.13.65-.19,1.64-.19,2.95,0,.26.03.81.1,1.66.06.86.1,1.77.1,2.76s-.03,1.9-.1,2.74c-.06.86-.16,1.4-.29,1.67.13,1.04.1,2.06-.1,3.03-.21.99-.18,1.99.1,3.04.13.4.13.81,0,1.27-.14.46-.14.89,0,1.27v1.37c0,.27-.03.53-.1.8-.05.13-.05.26-.03.38-.02.33-.02.65.03.99.03.3.03.61.03.89-.03.27-.03.53.05.78,0,.1.02.19.02.29.13,1.43.22,2.8.29,4.11.06,1.31.24,2.63.49,3.92-.13.53-.13.99,0,1.39.13.38.25.78.4,1.16-.4,1.05-.4,2.01,0,2.85.38.84.65,1.8.78,2.84.53.8.88,1.61,1.08,2.45.19.86.48,1.67.88,2.45-.27.27-.13.69.4,1.27.51.59.84.81.97.69.25.4.59.78.99,1.18,1.31.65,3,.84,5.1.59h1.27c.45,0,.94.06,1.47.19,1.31,0,2.22-.06,2.74-.19.53-.25,1.02-.4,1.48-.4s.88-.13,1.27-.38c.26,0,.48-.03.69-.1.19-.06.41-.11.69-.11.65-.26,1.27-.48,1.86-.69.59-.19,1.21-.41,1.86-.69.65,0,1.37-.38,2.15-1.18,1.71-1.29,3.27-2.87,4.7-4.7.8-1.05,1.55-1.99,2.26-2.84.72-.86,1.34-1.55,1.86-2.07,1.05-1.69,1.93-3.17,2.65-4.41.72-1.24,1.4-2.37,2.06-3.43.51-.88,1-1.71,1.5-2.52.05.27.08.53.08.75,0,.53.06.99.19,1.37.13.4.25.86.4,1.39.26,1.04.65,1.96,1.18,2.74.51.65.65,1.56.38,2.74h.78c0-.13.06-.25.21-.38.13.26.06.38-.21.38,0,.27.11.4.3.4s.41.13.69.38c.13.4.46.99.97,1.77.27.27.56.53.89.78.32.27.62.53.88.8.27.25.53.48.8.69.25.19.45.48.59.88l-.4.4c.13.26.29.49.49.69.19.19.35.41.48.69.27.78,1.05,1.43,2.36,1.96.91.27,1.83.59,2.74.99.92.38,1.83.72,2.76.97h.78c1.43,0,2.87-.03,4.32-.1,1.43-.06,2.87-.3,4.3-.69.14.13.33.19.61.19.78-.25,1.37-.38,1.75-.38,1.83-.27,3.47-.83,4.91-1.67s2.87-1.8,4.32-2.85c.38-.25,1.1-.78,2.15-1.56.26-.13.46-.29.59-.49.13-.19.33-.41.59-.69,1.18-1.56,2.42-3.01,3.73-4.32.38-.38.84-.97,1.37-1.75.78-1.31,1.58-2.58,2.36-3.82.78-1.24,1.43-2.58,1.96-4.03-.4-1.18-.33-2.68.19-4.51.26-1.04.53-2.02.78-2.95.27-.91.27-1.88,0-2.93,0-.13.03-.27.1-.4.06-.13.11-.25.11-.38.13-.4.19-.8.19-1.18s.06-.78.19-1.18c.13-.4.27-.78.4-1.18.13-.4.13-.84,0-1.37.25-.65.32-1.31.19-1.96-.13-.65-.13-1.31,0-1.96.13-.65.19-1.34.19-2.07v-2.06c-.13-.91-.13-1.78,0-2.65.14-.84.27-1.74.4-2.65.26-1.05.19-2.02-.19-2.95-.13-.26-.21-.45-.21-.59,0-.13.14-.32.4-.59h4.51c1.43,0,2.82-.25,4.13-.78.65-.26.91-.38.78-.38h.38c1.18-.13,2.2-.56,3.04-1.27.86-.72,1.86-1.4,3.04-2.07.13-.25.3-.69.49-1.27.19-.59.41-1,.69-1.27-.13-.38-.19-.78-.19-1.18s-.14-.7-.4-.97"/>
      <path class="cls-2" d="M110.47,226.68c.13,0,.19-.06.19-.19h-.19v.19Z"/>
      <path class="cls-2" d="M136.36,342.14v-1.37c.14-.13.14-.46,0-.99-.13-.51-.29-1.07-.48-1.66-.21-.59-.43-1.12-.7-1.58-.25-.45-.45-.69-.57-.69-.14-.25-.27-.41-.4-.49-.13-.06-.19-.22-.19-.48-.4-2.1-1.31-4.19-2.76-6.28-.38-.4-.57-.72-.57-.99-.27-.51-.61-1.04-.99-1.56-.65-.78-1.31-1.55-1.96-2.26-.65-.72-1.5-1.4-2.55-2.06-.27-.26-.46-.53-.59-.78-.4-.4-.86-.78-1.37-1.18-.53-.4-1.05-.78-1.58-1.18-.53-.4-1.04-.75-1.56-1.08-.53-.32-.99-.75-1.37-1.27-.53-.51-1.02-.97-1.48-1.37-.45-.38-.94-.78-1.47-1.18-.4-.38-.78-.75-1.18-1.07-.38-.33-.84-.69-1.37-1.08-.13-.13-.22-.19-.29-.19-.08,0-.18-.06-.3-.21l-4.11-2.34-4.13-2.36c-.38-.26-.78-.56-1.18-.88-.38-.33-.84-.62-1.37-.89-.13-1.43-.99-2.81-2.55-4.11l-.59-.59c-.13-.13-.25-.33-.38-.59.13-.25.19-.53.19-.78,0-.27.06-.53.19-.8-.25-.65-.38-1.04-.38-1.18,0-.13.26-.45.78-.97.65-.13,1.27-.3,1.86-.49.59-.19,1.27-.22,2.06-.1.78.53,1.58.86,2.36.99.25,0,.65.13,1.18.38.38.27.78.49,1.18.69.38.21.7.43.97.69.25.67.46,1.18.59,1.58.13.38.32.78.59,1.18.13.38.25.78.38,1.18.13.38.27.78.4,1.16.13.27.26.56.4.89.13.32.06.62-.21.88-.25.13-.19.56.21,1.27.38.72.45,1.15.19,1.27.53-.25,1.05-.35,1.56-.29.53.06,1.12.16,1.77.29,1.05-.13,2.3-.46,3.73-.97.26-.13.49-.27.69-.4s.43-.32.69-.59c.53-.53.92-1.24,1.18-2.15.65-2.09.78-4.38.4-6.87-.65-1.05-1.21-1.99-1.67-2.85-.46-.84-.96-1.66-1.47-2.44-1.96-1.58-4-2.55-6.09-2.95-2.09-.4-4.26-.46-6.47-.19-1.18.13-2.36.35-3.52.69-1.2.32-2.36.62-3.54.88-2.1.65-4.11,1.34-6.09,2.06-1.96.73-3.92,1.55-5.88,2.45-1.18.65-2.28,1.18-3.33,1.58-.65.13-1.18.53-1.58,1.16-.13.27-.16.49-.1.7.06.19.03.41-.1.69-.26.26-.32.48-.19.69.13.19.19.43.19.69-.26.38-.32.75-.19,1.08.13.32.19.69.19,1.07,0,.92.19,1.77.59,2.55.25.53.43,1.02.49,1.48.06.45.22.94.49,1.47.91,2.23,1.88,4.05,2.93,5.48.91,1.18,1.71,2.36,2.36,3.54.25.65.78,1.5,1.56,2.55.65.65,1.24,1.37,1.77,2.15.53.8,1.12,1.51,1.77,2.17,1.18,1.43,2.15,2.81,2.95,4.11.51.8.91,1.31,1.16,1.58.65.65,1.21,1.37,1.67,2.15.46.78.94,1.58,1.47,2.36.27.65.53,1.21.8,1.67.26.45.51,1,.78,1.66.25.53.41,1.05.48,1.58.08.51.24,1.1.49,1.75v.59c.8,1.45,1.34,2.95,1.67,4.51.32,1.58.69,3.14,1.08,4.72-.67.65-1.37,1.08-2.17,1.28-.78.19-1.56.56-2.34,1.07-.67.4-1.39.8-2.17,1.18-.78.4-1.5.8-2.15,1.18-.65.4-1.37.75-2.17,1.08-.78.33-1.5.81-2.15,1.47h-.19c-1.18.65-2.17,1.24-2.95,1.77-1.71,1.18-3.39,2.49-5.1,3.92-1.05.78-1.96,1.64-2.74,2.55-.8.92-1.51,1.71-2.17,2.36-.38.65-.72,1.24-.97,1.77-.27.51-.53.97-.78,1.37-.27.53-.43,1-.49,1.47-.06.46-.3.88-.69,1.27v2.15c.13.4.16.8.1,1.18-.08.4.03.8.29,1.18.13.4.21,1.05.21,1.96.26.4.51.86.78,1.37v2.17c.4.53.81.81,1.27.88.46.06.81.24,1.08.49.51.53.88,1.12,1.07,1.77.21.65.56,1.24,1.08,1.77h.78c.65-.27,1.71-.4,3.14-.4,1.31,0,2.55-.06,3.73-.19,1.18-.13,2.42-.4,3.73-.8,1.04-.25,2.15-.51,3.33-.78,1.18-.26,2.3-.65,3.33-1.18.27-.26.53-.38.8-.38,1.04-.27,1.96-.62,2.74-1.08.78-.46,1.63-.88,2.55-1.28.65-.13,1.5-.59,2.55-1.37.53-.4,1.05-.75,1.56-1.08.53-.32,1.05-.62,1.58-.88.65-.4,1.31-.8,1.96-1.18.65-.4,1.18-.91,1.56-1.58,1.18-.65,2.14-1.23,2.85-1.75s1.59-1.24,2.65-2.17c.53-.38,1-.81,1.47-1.28.46-.46.96-.88,1.48-1.27,1.83-1.31,2.81-2.68,2.93-4.11,1.05-1.18,1.96-2.33,2.74-3.44.8-1.1,1.71-2.18,2.76-3.24.26-.65.65-1.5,1.18-2.55.25-.51.38-.97.38-1.37,0-.53.1-.97.3-1.37.19-.4.35-.84.48-1.37.14-.4.27-.75.4-1.08.13-.32.26-.69.4-1.07.25-.67.49-1.35.69-2.07.19-.72.16-1.47-.1-2.25.25-.92.19-2.1-.21-3.54M104.98,358.62c-.65,1.71-1.24,3.36-1.77,5-.51,1.64-1.1,3.24-1.75,4.81,0,.26-.14.38-.4.38-.4.27-.72.69-.99,1.28-.25.59-.45,1.08-.59,1.47-.65.4-1.26.8-1.85,1.18-.59.4-1.23.86-1.86,1.37-.65.4-1.42.67-2.26.8-.84.13-1.67.45-2.45.97h-4.3c-.4-.25-1.12-.65-2.17-1.18-.4-1.82,0-3.46,1.18-4.89.91-.8,1.8-1.64,2.65-2.55.84-.92,1.8-1.71,2.85-2.36,1.16-.78,2.34-1.61,3.52-2.45,1.18-.84,2.42-1.59,3.73-2.26.65-.38,1.27-.75,1.86-1.07.59-.33,1.21-.69,1.86-1.08.51-.4,1.43-.84,2.74-1.37.13.78.13,1.43,0,1.96"/>
      <path class="cls-2" d="M190.7,364.31c.13,0,.19-.06.19-.19h-.19v.19Z"/>
      <path class="cls-2" d="M286.43,296.24c0-.78.03-1.55.1-2.26.06-.72.03-1.4-.1-2.06-.13-1.69-.24-3.36-.3-5-.06-1.63-.16-3.24-.29-4.8,0-.92-.03-1.77-.1-2.55-.06-.8.1-1.64.49-2.55.25-.4.25-.92,0-1.58,0-2.22-.21-4.64-.59-7.25-.53-.27-1.18-.65-1.96-1.18-.67-.4-1.32-.72-1.96-.99-.67-.25-1.32-.64-1.96-1.18-1.71-1.16-3.6-1.82-5.71-1.96-.51-.26-1.04-.38-1.56-.38-1.05-.4-2.15-.72-3.33-.99-1.18-.25-2.23-.78-3.14-1.56-.53,0-.99-.03-1.37-.1-.4-.06-.86-.16-1.37-.3-.14.14-.27.19-.4.19s-.27.08-.4.21c-.65-.13-1.31-.22-1.96-.3-.65-.06-1.37-.16-2.15-.29-.4-.25-.89-.56-1.47-.88-.59-.33-1.29-.24-2.07.29-.13.78.13,1.34.78,1.67.65.32,1.12.94,1.39,1.86,0,.38.06.91.19,1.56.13.65.06,1.31-.19,1.96-.4,1.71-.46,3.73-.21,6.09.13,1.56.11,3.14-.1,4.7-.19,1.56-.22,3.14-.1,4.72v.57c-.27.53-.38,1.05-.38,1.58v1.77c0,.78.02,1.59.1,2.44.06.86-.05,1.67-.3,2.45-.13.27-.16.49-.1.69.06.21.1.43.1.7.25,2.49.43,4.92.49,7.35.06,2.42.16,4.81.29,7.16.13,1.96.27,3.9.4,5.79.13,1.9.25,3.82.4,5.8.26,3.52.41,7.03.48,10.49.06,3.47.24,6.96.49,10.5.13.91.25,1.78.4,2.65.13.84.32,1.74.59,2.65.38,1.43.84,2.87,1.37,4.32.51,1.43,1.12,2.87,1.77,4.3,2.87,2.49,6.53,3.22,10.98,2.17.25.13.56.19.88.19.33,0,.62.06.89.19.51-.51.84-.91.97-1.16.27-.65.56-1.29.88-1.86.33-.59.62-1.21.89-1.86-.4-.92-.78-1.71-1.18-2.36.25-.53.43-.99.49-1.37.06-.4.16-.72.29-.99.13-1.69.06-3.33-.19-4.89-.25-1.58-.53-3.08-.78-4.53.38-1.29.81-2.55,1.27-3.71.46-1.18.75-2.36.88-3.54l-.59-1.18c.27-.78.53-1.69.78-2.74.14-.4.21-.81.21-1.27s.06-1.02.19-1.67c.53-.78.84-1.31.99-1.56v-1.58c1.04-1.82,1.99-3.65,2.84-5.48.84-1.83,1.27-3.86,1.27-6.09,0-.13.13-.32.4-.59.53-1.04.78-2.06.78-3.04s.13-1.99.4-3.03c.38-1.31.45-2.76.19-4.32"/>
      <path class="cls-2" d="M171.08,331.74v-.4c-.13,0-.19.08-.19.21l.19.19Z"/>
      <path class="cls-2" d="M278.38,368.82c-.78-1.18-1.67-2.33-2.65-3.44-.99-1.1-1.67-2.37-2.07-3.81-.65-.14-1.5-.33-2.55-.59-.38,0-.84.13-1.37.38-.65.27-1.31.27-1.96,0-.65-.26-1.31-.26-1.96,0-.26.14-.59.14-.97,0-.4-.13-.73-.26-.99-.38-.91-.27-1.8-.46-2.65-.59-.86-.13-1.8-.27-2.85-.4-.91.65-1.43,1.43-1.56,2.36-.13.91-.33,1.77-.59,2.55,0,1.31.06,2.28.19,2.93,0,.14.13.59.4,1.39.4,1.43.94,2.77,1.67,4.02.72,1.24,1.53,2.39,2.44,3.43,3.01,3.54,6.74,5.04,11.19,4.51.78.27,1.47.24,2.06-.1.59-.32,1.21-.48,1.86-.48.65-.65,1.18-1.31,1.58-1.98.38-.65.84-1.29,1.37-1.96.25-1.18.45-1.82.59-1.96-.27-1.18-.46-2.22-.59-3.14-.13-.91-.33-1.83-.59-2.74"/>
      <path class="cls-2" d="M252.69,304.47c-.4-.13-.72-.06-.97.19-.27.27-.53.33-.8.21-.78.51-1.31.84-1.56.97-1.45.27-2.68.59-3.73.99-1.05.38-2.23.78-3.54,1.18-1.04.25-2.18.35-3.43.29-1.24-.06-2.39-.16-3.43-.29-.67-.53-1.15-1.12-1.48-1.77-.32-.65-.62-1.31-.88-1.96-.13-.27-.25-.59-.4-.99-.13-.38-.32-.72-.59-.97-.65-.4-1.12-.89-1.37-1.48-.25-.59-.46-1.2-.59-1.86-.78-.26-1.37-.64-1.75-1.18-.4-.51-.8-.97-1.18-1.37-.67-.38-1.28-.69-1.86-.88s-1.21-.43-1.86-.69c-1.71-.13-3.24.03-4.61.49-1.37.46-2.79.88-4.22,1.27-.27.78-.49,1.53-.69,2.25-.21.72-.43,1.4-.69,2.06-.27.92-.3,1.77-.1,2.55.19.8.41,1.51.69,2.17.25.65.41,1.24.48,1.77.08.51.3.97.7,1.37.65.65,1.16,1.27,1.56,1.86.4.59,1.12,1,2.15,1.27.27.13.62.26,1.08.38.46.14.81.27,1.08.4,1.18.27,2.36.4,3.52.4s2.42.06,3.73.19c.13,0,.22.03.3.1.06.06.16.1.29.1v3.54c0,1.18-.06,2.34-.19,3.52-.27.67-.53,1.37-.78,2.17-.27.78-.53,1.56-.8,2.34-.53,1.45-.91,2.95-1.18,4.51-.25,1.58-.72,3.08-1.37,4.53-.13,1.04-.38,1.96-.78,2.74-.38.78-.78,1.64-1.18,2.55l-2.34,5.88c-.92,2.36-2.14,4.45-3.63,6.28-1.5,1.83-3.44,3.27-5.79,4.32-.13.13-.4.19-.78.19-1.71-1.05-2.98-2.31-3.82-3.82-.86-1.5-1.67-2.98-2.45-4.41-.14-.38-.21-.78-.21-1.18s-.13-.78-.38-1.18c-.78-2.09-1.18-4.37-1.18-6.85.53-1.31.84-2.29.97-2.95,0-.26-.03-.46-.1-.59-.06-.13-.1-.32-.1-.59.27-1.56.72-2.87,1.37-3.92,0-1.43.06-2.45.21-3.04.13-.59.45-1.59.97-3.04.53-1.04.84-1.88.99-2.55,0-.65.1-1.28.29-1.85.19-.59.43-1.21.69-1.86.13-.27.16-.46.1-.59-.06-.13-.03-.33.11-.59,0-.26.05-.53.19-.8.13-.25.26-.51.38-.78.13-.26.21-.59.21-.97,0-.65-.08-1.05-.21-1.18.27-.13.59-.4.99-.78-.13-.53-.19-.99-.19-1.39s-.06-.7-.21-.97c-.13-.13-.26-.22-.38-.3-.13-.05-.27-.16-.4-.29-.13-.38-.1-.62.1-.69.21-.06.37-.22.49-.49v-.38c.27-.65.46-1.21.59-1.67.13-.46.32-.96.59-1.47-.13-.4-.19-.86-.19-1.39-.53-.38-.99-.78-1.39-1.16-.38-.4-.91-.72-1.56-.99-.65-.25-1.24-.49-1.77-.69-.53-.19-1.12-.41-1.77-.69-.65-.25-1.24-.49-1.75-.69-.53-.19-1.12-.3-1.77-.3-.65.4-1.24.83-1.77,1.27-.53.46-1.05.89-1.56,1.27-.27.27-.62.96-1.08,2.07-.46,1.1-.62,1.78-.49,2.06-.32.4-.62.78-.91,1.15-.03.02-.05.02-.06.03v.06c-.25.35-.48.69-.69,1-.46.73-.89,1.48-1.29,2.26-.38.65-.78,1.27-1.16,1.86-.4.59-.92,1.15-1.58,1.66,0,.67-.26,1.45-.78,2.36-.53.92-.92,1.51-1.18,1.77-.13,0-.33-.06-.59-.19-.26.38-.59.78-.97,1.18-.27.78-.33,1.5-.21,2.15.14.65-.06,1.31-.59,1.96-.26,0-.45-.06-.59-.19-.13.26-.25.41-.38.48-.13.08-.27.18-.4.3h-.78c-.13.13-.19.25-.19.4,0,1.04.03,2.09.1,3.12.06,1.05-.18,2.1-.69,3.14-.13.27-.16.49-.1.69.06.21.1.43.1.7.24.61.3,1.18.21,1.72-.96,2.04-1.94,4.08-2.96,6.12-.26.4-.48.81-.69,1.27-.19.46-.41.88-.69,1.28l-2.34,4.11c-.65,1.45-1.35,2.82-2.07,4.13-.72,1.31-1.47,2.68-2.25,4.11-.4-.51-.59-.97-.59-1.37-.13-.26-.19-.59-.19-.97v-7.76c0-.72.13-1.4.38-2.06.13-.26.06-.72-.19-1.37-.13-.53-.19-1.31-.19-2.36,0-.65.02-1.34.1-2.06.06-.72.16-1.4.29-2.06.27-1.05.33-2.06.19-3.04-.13-.99,0-1.99.4-3.04v-.38c-.13-.53-.16-1.02-.1-1.48.06-.45.1-.94.1-1.47v-2.15c0-.8-.13-1.58-.4-2.36.27-.53.27-.99,0-1.37-.25-.4-.25-.78,0-1.18.27-.53.37-1.02.3-1.47-.06-.46-.1-.96-.1-1.48.25-1.18.35-2.31.29-3.43-.06-1.12-.1-2.25-.1-3.43,0-1.05.03-1.99.1-2.85.06-.84.1-1.8.1-2.84.27-.53.37-1.05.3-1.58-.06-.51-.03-1.04.1-1.56v-14.61c0-1.77.06-2.92.19-3.44-.13-.51-.22-1.04-.29-1.56s-.03-.99.1-1.37c.25-.78.46-1.96.59-3.54.13-1.56.25-2.8.4-3.73.25-.26.45-.41.59-.48.13-.06.25-.18.38-.3-.13-.13-.25-.22-.38-.3-.14-.05-.27-.16-.4-.29,0-.13.03-.22.1-.29s.1-.16.1-.3c.65-.13,1.24-.22,1.77-.29.53-.06,1.12-.24,1.77-.49.91-.26,1.77-.56,2.55-.88.78-.33,1.5-.77,2.15-1.27.53-.27,1.05-.53,1.58-.8.51-.25,1.1-.59,1.75-.97.27-.27.56-.49.89-.69.32-.21.62-.62.88-1.27-.65-.27-1.24-.37-1.77-.3-.53.06-1.04.18-1.56.3-1.31.38-2.61.69-3.92.88-1.31.19-2.68.43-4.13.69-.13,0-.29.1-.49.3-.19.19-.41.16-.69-.1.27-.92.46-1.77.59-2.57.14-.78.4-1.43.8-1.96-.14-.78-.21-1.47-.21-2.06v-1.86c-.25-.38-.51-.84-.77-1.37-.25.13-.48.27-.67.4-.19.13-.41.26-.67.38-.25-.78-.51-1.43-.77-1.96-.51-.51-1.02-1.04-1.53-1.56-.51-.53-.96-1.05-1.34-1.58-.38-.13-.7-.22-.96-.29-.25-.06-.51-.16-.77-.3,0-.38-.06-.72-.19-.97-.59-.53-1.12-.92-1.56-1.18h-.4c-.65-.13-1.24-.4-1.77-.78-.53-.4-1.12-.65-1.75-.78-.27-.14-.43-.27-.49-.4-.08-.13-.16-.25-.3-.4-.25,0-.45-.06-.59-.19-.26.13-.56.19-.88.19-.33,0-.62.06-.88.21-.4-.14-.77-.27-1.08-.4-.33-.13-.69-.25-1.08-.4-1.31-.51-2.42-.65-3.33-.38-.27,0-.46.06-.59.19,0,.65.06,1.18.19,1.58-.13.26-.19.57-.19.97s-.06.78-.19,1.18c-.27.26-.49.43-.69.49-.21.06-.43.22-.69.48.25.27.41.46.48.59.08.14.18.27.3.4v2.55c0,.13-.13.33-.4.59v1.77c0,.53-.06,1.1-.19,1.75-.27.53-.37,1.08-.29,1.67.05.59.1,1.15.1,1.67,0,.65-.08,1.27-.21,1.86-.13.59-.25,1.21-.38,1.86-.27.65-.43,1.24-.49,1.75-.06.53-.22,1.12-.49,1.77-1.05,0-2.02.1-2.95.3-.91.19-1.88.29-2.93.29-1.31.27-2.36.53-3.14.78-.65.14-1.24.3-1.77.49-.53.19-1.12.43-1.77.69-.25.53-.45.99-.59,1.37h5c1.64,0,3.32.14,5,.4.78-.4,1.71-.4,2.76,0v.99c0,.25-.08.45-.21.57-.13.14-.13.27,0,.4.27.65.3,1.21.1,1.67-.19.46-.35.94-.48,1.47-.53,1.18-.8,2.68-.8,4.51-.13.27-.19.65-.19,1.18-.26.53-.4,1.02-.4,1.47s-.06.96-.19,1.47v2.17c-.13.38-.16.78-.1,1.18.06.38-.03.78-.3,1.18v2.25c0,1.12-.03,2.33-.08,3.63-.08,1.31-.14,2.55-.21,3.73-.06,1.18-.1,1.9-.1,2.15-.27,1.05-.4,1.9-.4,2.55,0,.4.03.78.11,1.18.05.4-.05.72-.3.97.13.27.19.53.19.8,0,.26.06.53.21.78-.27,1.31-.49,2.58-.7,3.82-.19,1.24-.41,2.52-.69,3.83.14.27.27.43.4.49s.25.22.4.48c-.27.27-.4.54-.4.8-.13.78-.26,1.56-.4,2.34-.13.8-.19,1.58-.19,2.36s.03,1.61.1,2.45c.06.86-.03,1.67-.29,2.45-.13.65-.24,1.31-.3,1.96s-.1,1.31-.1,1.96c0,.53.03,1.05.1,1.58.06.51.03.97-.1,1.37-.25.78-.41,1.53-.49,2.25-.06.72-.1,1.4-.1,2.06,0,.92-.06,1.58-.19,1.98-.27.78-.37,1.59-.3,2.44.08.86.18,1.74.3,2.66.13,1.04.22,2.15.29,3.33.08,1.18-.1,2.36-.48,3.52v.99c.25.65.32,1.34.19,2.06-.13.72-.06,1.4.19,2.06.13.27.21.8.21,1.58-.14,1.04-.11,1.99.1,2.84.19.86.41,1.74.69,2.66.25.91.59,1.72.97,2.44.4.73.8,1.48,1.18,2.26.53,1.18,1.18,2.02,1.96,2.55,1.05,1.18,2.3,2.22,3.73,3.14,2.49,1.71,5.5,2.15,9.02,1.37,1.31-.4,2.52-.81,3.63-1.27s2.18-1.15,3.24-2.06c.13-.13.25-.24.4-.3.13-.06.25-.16.38-.29.27,0,.53-.03.8-.1.25-.06.51-.1.78-.1.65-.4,1.15-.89,1.47-1.48.32-.59.81-1.07,1.48-1.47.65-.4,1.2-.96,1.66-1.67.46-.72.81-1.47,1.08-2.25.38-1.05.84-2.1,1.37-3.14.53-1.05,1.12-2.1,1.77-3.14.65-1.05,1.2-2.06,1.66-3.04.46-.99.83-2.06,1.08-3.24.4-1.4.91-2.77,1.45-4.13.21.69.32,1.29.32,1.77,0,.53.06.99.19,1.37.13.4.27.86.4,1.39.25,1.04.65,1.96,1.18,2.74.51.65.65,1.56.38,2.74h.78c0,.27.11.4.3.4s.41.13.69.38c.13.4.46.99.99,1.77.25.27.54.53.88.78.32.27.62.53.88.8.27.26.53.49.8.69.25.19.45.49.57.88l-.38.4c.13.25.29.49.49.69.19.19.35.43.49.69.26.78,1.04,1.43,2.34,1.96.91.27,1.83.59,2.76.99.91.38,1.82.72,2.74.97h.78c1.43,0,2.88-.03,4.32-.1,1.43-.06,2.87-.29,4.32-.69.13.13.32.19.59.19.78-.26,1.37-.38,1.75-.38,1.83-.27,3.47-.83,4.91-1.67,1.43-.84,2.88-1.8,4.32-2.84.4-.27,1.1-.8,2.15-1.58.26-.13.46-.29.59-.49.13-.19.32-.41.59-.69,1.18-1.56,2.42-3.01,3.73-4.32.4-.38.84-.97,1.37-1.75.78-1.31,1.58-2.58,2.36-3.82.78-1.24,1.43-2.58,1.96-4.03-.4-1.18-.33-2.68.19-4.51.26-1.04.53-2.02.78-2.93.27-.92.27-1.9,0-2.95,0-.13.03-.27.11-.4.06-.13.1-.26.1-.38.13-.4.19-.8.19-1.18s.06-.78.19-1.18c.13-.4.27-.78.4-1.18.13-.38.13-.84,0-1.37.25-.65.32-1.31.19-1.96-.13-.65-.13-1.31,0-1.96s.21-1.34.21-2.07v-2.06c-.14-.91-.14-1.78,0-2.65.13-.84.25-1.74.38-2.65.26-1.04.21-2.02-.19-2.95-.13-.25-.19-.45-.19-.59,0-.13.13-.32.38-.59h4.51c1.45,0,2.82-.26,4.13-.78.65-.25.91-.38.78-.38h.4c1.16-.13,2.18-.56,3.03-1.27.86-.72,1.86-1.4,3.04-2.06.13-.27.3-.7.49-1.29.19-.57.41-1,.69-1.27-.13-.38-.19-.78-.19-1.16s-.14-.73-.4-.99"/>
    </g>
  </g>
</svg>