<?xml version="1.0" encoding="UTF-8"?>
<svg id="Livello_2" data-name="Livello 2" xmlns="http://www.w3.org/2000/svg" xmlns:xlink="http://www.w3.org/1999/xlink" viewBox="0 0 1061.28 343.88">
  <defs>
    <style>
      .cls-1 {
        fill: none;
      }

      .cls-2 {
        fill: #fff;
      }

      .cls-3 {
        clip-path: url(#clippath);
      }
    </style>
    <clipPath id="clippath">
      <rect class="cls-1" width="1061.28" height="343.88"/>
    </clipPath>
  </defs>
  <g id="Livello_1-2" data-name="Livello 1">
    <g class="cls-3">
      <path class="cls-2" d="M424.73,66.06c.46-1.24.95-2.45,1.46-3.63.49-1.19,1.04-2.34,1.64-3.45l30.62-55.71c.55-1.06,1.17-1.7,1.84-1.92s1.57-.33,2.72-.33h9.84v92.33h-11.63V26.95c0-.95.02-1.95.07-3.03.04-1.06.11-2.17.18-3.27l-31,56.73c-.46.99-1.13,1.75-1.97,2.26-.84.51-1.77.77-2.79.77h-1.88c-2.19,0-3.78-1.02-4.82-3.03l-31.66-57c.09,1.15.18,2.3.27,3.4.09,1.13.13,2.17.13,3.16v66.39h-11.65V1.02h9.86c1.15,0,2.06.11,2.72.33.66.22,1.28.86,1.84,1.92l31.2,55.85c1.08,2.14,2.08,4.44,3.03,6.94"/>
      <rect class="cls-2" x="496.51" y="1.04" width="13.31" height="92.3"/>
      <path class="cls-2" d="M543.06,1.41c.57.27,1.24.88,1.97,1.86l52.55,68.14c-.09-1.17-.15-2.32-.22-3.47-.07-1.17-.11-2.23-.11-3.23V1.04h11.65v92.3h-6.68c-1.04,0-1.9-.18-2.61-.55-.71-.35-1.41-.97-2.1-1.84l-52.62-68.12c.09,1.11.15,2.21.22,3.32.07,1.08.09,2.1.09,3.05v64.14h-11.63V1.04h6.88c1.15,0,2.03.11,2.61.38"/>
      <rect class="cls-2" x="632.64" y="1.04" width="13.31" height="92.3"/>
      <path class="cls-2" d="M717.23,15.89c-.38.69-.8,1.19-1.26,1.5-.44.33-1.04.49-1.77.49-.77,0-1.64-.35-2.63-1.06-.99-.71-2.21-1.5-3.69-2.37-1.48-.88-3.25-1.68-5.31-2.39-2.06-.71-4.53-1.06-7.41-1.06s-5.15.35-7.23,1.06c-2.08.71-3.82,1.68-5.22,2.92-1.39,1.26-2.43,2.72-3.14,4.42-.71,1.68-1.06,3.52-1.06,5.48,0,2.54.62,4.62,1.88,6.26,1.28,1.61,2.94,3.03,5,4.2,2.06,1.19,4.4,2.21,7.05,3.05,2.63.86,5.31,1.77,8.07,2.72,2.74.93,5.42,1.99,8.07,3.18,2.63,1.17,4.97,2.68,7.03,4.49,2.06,1.84,3.74,4.07,5,6.7,1.26,2.63,1.9,5.86,1.9,9.68,0,4.07-.71,7.87-2.1,11.41-1.39,3.54-3.4,6.63-6.08,9.26-2.65,2.65-5.93,4.73-9.77,6.26-3.87,1.5-8.27,2.28-13.2,2.28-2.94,0-5.81-.29-8.58-.86-2.76-.6-5.37-1.39-7.85-2.45-2.48-1.06-4.78-2.32-6.94-3.8-2.17-1.48-4.11-3.14-5.84-4.97l3.87-6.3c.35-.53.77-.95,1.33-1.26.53-.33,1.13-.49,1.77-.49.88,0,1.95.46,3.12,1.41,1.17.95,2.63,1.99,4.38,3.12,1.72,1.15,3.82,2.19,6.26,3.12,2.45.95,5.42,1.41,8.89,1.41,2.87,0,5.44-.38,7.72-1.15,2.28-.77,4.2-1.86,5.77-3.27,1.55-1.41,2.74-3.14,3.56-5.15.82-2.01,1.22-4.24,1.22-6.7,0-2.74-.62-4.97-1.9-6.72-1.26-1.72-2.92-3.18-4.97-4.33-2.06-1.17-4.4-2.14-7.01-2.96-2.61-.82-5.31-1.66-8.07-2.54-2.79-.88-5.46-1.9-8.09-3.05-2.61-1.17-4.95-2.68-7.01-4.53-2.06-1.88-3.71-4.2-4.97-6.99-1.26-2.79-1.9-6.23-1.9-10.37,0-3.25.64-6.43,1.92-9.51,1.3-3.1,3.16-5.81,5.59-8.18,2.45-2.34,5.46-4.24,9.04-5.68,3.58-1.44,7.69-2.17,12.31-2.17,5.2,0,9.95.82,14.26,2.45,4.31,1.64,8.07,3.98,11.28,7.07l-3.27,6.37Z"/>
      <polygon class="cls-2" points="803.04 1.03 803.04 12.15 773.52 12.15 773.52 93.33 760.26 93.33 760.26 12.15 730.68 12.15 730.68 1.03 803.04 1.03"/>
      <polygon class="cls-2" points="874.19 1.03 874.19 11.84 830.37 11.84 830.37 41.55 865.7 41.55 865.7 51.96 830.37 51.96 830.37 82.54 874.25 82.54 874.19 93.33 817.06 93.33 817.06 1.03 874.19 1.03"/>
      <path class="cls-2" d="M905.19,45.55h12.73c3.56,0,6.7-.44,9.4-1.3,2.7-.84,4.95-2.08,6.77-3.65,1.79-1.59,3.16-3.47,4.07-5.64.93-2.17,1.39-4.58,1.39-7.23,0-5.37-1.77-9.42-5.28-12.16-3.52-2.74-8.8-4.13-15.87-4.13h-13.2v34.11ZM905.19,55.26v38.09h-13.24V1.02h26.44c5.9,0,11.01.6,15.3,1.81,4.29,1.19,7.85,2.92,10.66,5.17,2.81,2.26,4.86,4.95,6.21,8.14,1.33,3.16,1.99,6.72,1.99,10.61,0,3.25-.51,6.3-1.53,9.13-.99,2.83-2.45,5.37-4.38,7.63-1.9,2.26-4.24,4.2-7.01,5.81-2.76,1.64-5.9,2.85-9.42,3.67,1.68.99,3.12,2.39,4.31,4.18l26.31,36.17h-11.83c-2.41,0-4.18-.95-5.28-2.85l-23.15-32.34c-.73-1.04-1.53-1.77-2.39-2.21-.86-.46-2.14-.69-3.87-.69h-9.13Z"/>
      <path class="cls-2" d="M1044.66,47.15c0-5.53-.75-10.5-2.26-14.92-1.5-4.42-3.65-8.16-6.46-11.23-2.81-3.05-6.19-5.42-10.13-7.03-3.96-1.64-8.38-2.45-13.27-2.45s-9.31.82-13.29,2.45c-3.96,1.61-7.34,3.98-10.15,7.03-2.81,3.07-4.97,6.81-6.5,11.23-1.53,4.42-2.3,9.4-2.3,14.92s.77,10.57,2.3,14.99c1.53,4.42,3.69,8.16,6.5,11.19,2.81,3.05,6.19,5.39,10.15,7.01,3.98,1.64,8.4,2.45,13.29,2.45s9.31-.82,13.27-2.45c3.94-1.61,7.32-3.96,10.13-7.01,2.81-3.03,4.95-6.77,6.46-11.19,1.5-4.42,2.26-9.42,2.26-14.99M1058.23,47.15c0,6.9-1.11,13.24-3.32,19.04-2.21,5.79-5.31,10.77-9.29,14.92-4,4.18-8.8,7.41-14.41,9.73-5.62,2.3-11.83,3.47-18.66,3.47s-13.02-1.17-18.62-3.47c-5.59-2.32-10.41-5.55-14.44-9.73-4.05-4.16-7.16-9.13-9.37-14.92-2.21-5.79-3.32-12.14-3.32-19.04s1.11-13.18,3.32-18.97c2.21-5.79,5.33-10.77,9.37-14.92,4.02-4.18,8.84-7.41,14.44-9.75C999.53,1.17,1005.74,0,1012.55,0s13.04,1.17,18.66,3.52c5.62,2.34,10.41,5.57,14.41,9.75,3.98,4.16,7.07,9.13,9.29,14.92,2.21,5.79,3.32,12.12,3.32,18.97"/>
      <path class="cls-2" d="M431.56,165.57c0-4.6-.62-8.73-1.86-12.38-1.26-3.67-3.05-6.74-5.39-9.26-2.34-2.52-5.15-4.44-8.45-5.79-3.32-1.33-6.99-1.99-11.05-1.99h-17.71v58.92h17.71c4.07,0,7.74-.66,11.05-2.01,3.29-1.33,6.1-3.27,8.45-5.77,2.34-2.52,4.13-5.62,5.39-9.26,1.24-3.67,1.86-7.8,1.86-12.45M442.86,165.57c0,5.75-.93,10.99-2.76,15.7-1.84,4.73-4.42,8.78-7.76,12.16-3.34,3.36-7.34,5.97-12,7.8-4.69,1.86-9.86,2.76-15.52,2.76h-28.79v-76.81h28.79c5.66,0,10.83.93,15.52,2.79,4.66,1.86,8.67,4.47,12,7.83,3.34,3.34,5.93,7.38,7.76,12.12s2.76,9.95,2.76,15.65"/>
      <polygon class="cls-2" points="504.94 127.2 504.94 136.2 468.51 136.2 468.51 160.91 497.89 160.91 497.89 169.58 468.51 169.58 468.51 195 504.99 195 504.94 204 457.41 204 457.41 127.2 504.94 127.2"/>
      <polygon class="cls-2" points="530.2 194.68 563.01 194.68 563.01 203.99 519.17 203.99 519.17 127.21 530.2 127.21 530.2 194.68"/>
      <polygon class="cls-2" points="585.27 194.68 618.08 194.68 618.08 203.99 574.24 203.99 574.24 127.21 585.27 127.21 585.27 194.68"/>
      <path class="cls-2" d="M642.11,175.41h27.99l-11.61-30.22c-.4-.97-.8-2.08-1.22-3.36-.4-1.26-.8-2.63-1.19-4.13-.4,1.5-.8,2.87-1.17,4.18-.4,1.28-.8,2.39-1.19,3.36l-11.61,30.18ZM692.36,204h-8.56c-.97,0-1.75-.24-2.37-.73-.6-.46-1.06-1.11-1.39-1.9l-6.9-18.02h-34.09l-6.9,18.02c-.22.69-.66,1.28-1.3,1.84-.66.53-1.46.8-2.39.8h-8.58l30.62-76.81h11.19l30.66,76.81Z"/>
      <path class="cls-2" d="M450.92,320.14c.82,0,1.55.31,2.19.95l5.97,6.54c-4.29,5-9.48,8.89-15.61,11.65-6.15,2.76-13.51,4.13-22.09,4.13-7.58,0-14.44-1.3-20.56-3.91-6.15-2.63-11.39-6.3-15.72-11.01-4.33-4.69-7.69-10.32-10.04-16.87-2.37-6.54-3.54-13.75-3.54-21.62s1.24-15.06,3.71-21.6c2.48-6.54,5.97-12.16,10.48-16.85,4.51-4.69,9.9-8.33,16.18-10.94,6.28-2.63,13.22-3.94,20.78-3.94s14.02,1.22,19.77,3.63c5.75,2.43,10.74,5.66,15.01,9.68l-4.95,6.99c-.33.49-.73.88-1.19,1.19-.46.33-1.11.49-1.92.49-.93,0-2.01-.46-3.25-1.39-1.24-.91-2.85-1.95-4.86-3.1-2.01-1.13-4.53-2.17-7.54-3.07-3.01-.93-6.72-1.39-11.12-1.39-5.24,0-10.06.93-14.46,2.76-4.38,1.86-8.16,4.49-11.3,7.94-3.16,3.45-5.62,7.67-7.36,12.67-1.75,5-2.61,10.63-2.61,16.94s.91,12.12,2.72,17.13c1.81,5.04,4.31,9.26,7.49,12.71,3.18,3.45,6.92,6.08,11.25,7.89,4.31,1.81,8.93,2.72,13.88,2.72,3.05,0,5.79-.18,8.22-.53,2.43-.38,4.66-.91,6.74-1.64,2.06-.73,3.98-1.68,5.77-2.85,1.79-1.15,3.6-2.54,5.39-4.13.38-.35.77-.62,1.19-.84.42-.22.86-.33,1.35-.33"/>
      <path class="cls-2" d="M523.39,330.25c4.22,0,7.98-.71,11.32-2.14,3.32-1.44,6.12-3.43,8.45-6.01,2.3-2.56,4.05-5.64,5.26-9.2s1.84-7.52,1.84-11.83v-63.23h14.99v63.23c0,6.08-.97,11.7-2.92,16.89-1.95,5.2-4.71,9.68-8.29,13.46-3.6,3.78-7.98,6.74-13.18,8.87-5.2,2.14-11.01,3.21-17.47,3.21s-12.34-1.06-17.51-3.21c-5.15-2.12-9.55-5.08-13.15-8.87-3.63-3.78-6.39-8.27-8.33-13.46-1.95-5.2-2.92-10.81-2.92-16.89v-63.23h14.99v63.23c0,4.27.62,8.18,1.84,11.76,1.19,3.56,2.96,6.63,5.26,9.24,2.3,2.59,5.13,4.6,8.49,6.04,3.34,1.44,7.12,2.14,11.34,2.14"/>
      <polygon class="cls-2" points="612.9 329.6 657.51 329.6 657.51 342.26 597.91 342.26 597.91 237.85 612.9 237.85 612.9 329.6"/>
      <polygon class="cls-2" points="737.98 237.84 737.98 250.42 704.58 250.42 704.58 342.26 689.59 342.26 689.59 250.42 656.11 250.42 656.11 237.84 737.98 237.84"/>
      <path class="cls-2" d="M801.58,330.25c4.22,0,7.98-.71,11.32-2.14,3.32-1.44,6.12-3.43,8.45-6.01,2.3-2.56,4.05-5.64,5.26-9.2,1.22-3.56,1.81-7.52,1.81-11.83v-63.23h14.99v63.23c0,6.08-.97,11.7-2.9,16.89-1.95,5.2-4.71,9.68-8.29,13.46-3.6,3.78-7.98,6.74-13.18,8.87-5.2,2.14-11.01,3.21-17.47,3.21s-12.34-1.06-17.51-3.21c-5.15-2.12-9.55-5.08-13.15-8.87-3.63-3.78-6.39-8.27-8.33-13.46s-2.92-10.81-2.92-16.89v-63.23h14.99v63.23c0,4.27.62,8.18,1.81,11.76,1.22,3.56,2.98,6.63,5.28,9.24,2.3,2.59,5.13,4.6,8.47,6.04,3.36,1.44,7.14,2.14,11.36,2.14"/>
      <path class="cls-2" d="M891.08,288.19h14.41c4.02,0,7.56-.49,10.61-1.46,3.07-.97,5.62-2.34,7.65-4.13,2.03-1.81,3.58-3.94,4.62-6.37,1.04-2.45,1.57-5.2,1.57-8.2,0-6.06-1.99-10.63-5.97-13.75-3.98-3.1-9.97-4.64-17.97-4.64h-14.92v38.56ZM891.08,299.18v43.07h-14.99v-104.42h29.91c6.7,0,12.47.69,17.31,2.06,4.84,1.35,8.87,3.29,12.05,5.86,3.16,2.54,5.51,5.62,7.01,9.2,1.5,3.58,2.28,7.58,2.28,12,0,3.69-.57,7.14-1.72,10.32-1.13,3.21-2.79,6.08-4.95,8.62-2.14,2.56-4.8,4.75-7.91,6.59-3.14,1.86-6.7,3.23-10.68,4.16,1.9,1.11,3.54,2.7,4.89,4.73l29.76,40.88h-13.4c-2.72,0-4.69-1.06-5.95-3.18l-26.2-36.61c-.84-1.17-1.72-1.99-2.7-2.5-.97-.51-2.43-.77-4.36-.77h-10.35Z"/>
      <path class="cls-2" d="M992.94,303.39h38.07l-15.79-41.1c-.53-1.3-1.08-2.83-1.64-4.55-.57-1.72-1.11-3.6-1.64-5.64-.55,2.03-1.08,3.94-1.61,5.68-.53,1.75-1.06,3.27-1.59,4.58l-15.81,41.03ZM1061.27,342.26h-11.65c-1.3,0-2.37-.33-3.18-.97-.84-.66-1.46-1.53-1.9-2.59l-9.4-24.52h-46.34l-9.4,24.52c-.29.91-.88,1.75-1.77,2.48-.91.73-1.99,1.08-3.25,1.08h-11.63l41.61-104.42h15.21l41.7,104.42Z"/>
      <path class="cls-2" d="M108.72,134.36c-.07-.95-.18-1.28-.66-1.79-.62-.66-2.68-.95-3.58-.46-.95.49-1.55,2.01-1.3,3.38.27,1.48,1.06,2.28,2.32,2.28,1.08,0,1.79-.27,2.45-.88.66-.66.84-1.26.77-2.52M127.6,129.76c-.2-.86-.53-1.11-2.3-1.66-3.94-1.24-6.35-2.28-8.18-3.52-3.27-2.19-5.37-4.91-6.59-8.56-.69-2.08-.95-3.76-1.04-6.79-.02-1.83-.11-2.63-.22-2.87-.2-.35-.27-.4-.62-.13-.35.27-.71.99-1.5,3.21-.88,2.48-1.97,4.73-2.92,5.95-1.35,1.79-1.5,2.01-1.86,2.98-.33.84-.38,1.04-.27,1.35.13.46,4.22,4.53,6.52,6.54,3.8,3.34,7.89,6.08,10.7,7.21,2.63,1.06,5.06,1.35,6.35.8,1.59-.71,2.37-2.54,1.92-4.51M132.09,122.09c-.38-2.83-2.12-5.97-4.8-8.64-.69-.73-1.64-1.55-2.06-1.79-1.59-1.04-3.67-1.57-4.42-1.17-.15.11-.44.46-.6.8l-.31.62.24.27c.15.15.84.57,1.46.93,1.66.95,3.16,2.08,4.44,3.47,1.39,1.41,2.03,2.32,3.01,4.18,1.04,1.88,1.48,2.54,2.14,3.03.99.77,1.19.42.88-1.68M184.06,119.09c-.11-.09-.49-.18-.84-.2-.6-.04-.77,0-1.64.44-1.53.8-3.69,2.03-4.86,2.79-1.55.93-2.32,1.68-2.81,2.68-.86,1.7-.64,2.7.64,2.9.38.07.66-.09,2.83-1.57,5.02-3.36,5.59-3.82,6.57-5.51.35-.6.4-1.28.11-1.53M211.94,52.63c-.93-1.15-2.1-1.59-2.87-1.13-.49.33-1.04,1.17-1.22,1.95-.13.57-.09,1.92.07,2.34.13.38.66.53,1.81.53,1.08,0,1.19-.02,1.61-.33.62-.51.95-1.17.97-2.12,0-.71-.04-.84-.38-1.24M219.59,109.53c-.29-.04-.82.04-1.15.15-1.37.51-2.79,1.64-3.29,2.72-.24.49-.29.75-.29,1.3l.07.69.42.04c.4.04.57-.09,2.23-1.41,2.56-2.01,2.52-1.99,2.54-2.81v-.69h-.53ZM240.91,64.21c-.09-.6-.2-.86-.46-1.08-.4-.46-.71-.42-1.15,0-.38.38-1.95,2.87-3.07,4.86-.82,1.48-1.48,3.1-1.81,4.44-.33,1.28-.31,1.33.6,1.77.71.38,1.28.46,1.72.31.51-.2,2.3-2.08,2.94-3.07,1.35-2.21,1.75-4.38,1.24-7.23M277.74,159.81c-1.64-3.34-3.21-4.47-7.25-5.24-1.46-.27-5.51-.31-7.1-.09-2.45.33-5.33,1.08-7.41,1.88-2.72,1.08-6.17,3.07-9,5.22-2.3,1.75-10.97,8.8-15.25,12.47-2.81,2.37-3.56,2.92-4.86,3.6-2.61,1.33-5.51,1.72-8.22,1.13-1.06-.27-1.53-.64-2.1-1.81-.4-.8-.42-.97-.49-2.14-.02-.69.04-2.23.18-3.4.29-3.82.2-4.95-.55-5.88-.71-.86-1.9-1.24-3.03-.93-.31.07-1.11.38-1.79.66-1.22.55-1.92.64-2.56.44-.15-.09-.64-.42-1.06-.75-1.06-.86-1.83-1.06-3.78-1.06s-2.37.15-2.65.8c-.11.24-.2.73-.22,1.11,0,.55.07.84.62,1.95.2.49.49,1.11.69,1.61.11.24.2.46.29.62.75,1.92,1.3,2.76,4.73,7.07,1.48,1.84,3.43,4.36,4.38,5.53.91,1.19,1.92,2.34,2.17,2.61.97.82,2.3,1.26,3.16,1.06.15-.04.8-.57,1.39-1.15.57-.55,1.28-1.17,1.53-1.35.64-.44,1.37-.4,2.01.07.04.02.11.09.18.15.07.04.13.11.2.18.4.51.38.91-.11,2.34-.55,1.59-.73,2.72-.64,4.44.07,1.88.24,2.23,1.3,2.87,1.55.91,3.69,1.57,5.53,1.68,1.17.09,3.14-.04,5.64-.33,1.26-.13,2.68-.31,4.2-.55,3.67-.6,4.47-.51,7.32.82,2.39,1.13,3.07,1.22,5.11.84,4.13-.77,8-2.74,10.97-5.68,1.3-1.24,1.35-1.37,1.37-5.11.02-3.67-.04-3.43,1.48-4.05,3.96-1.5,7.83-4,10.94-6.99,1.72-1.66,2.76-2.98,3.38-4.2.62-1.24.8-1.99.91-3.49.13-2.37-.33-4.42-1.57-6.94M239.8,176.21c-4.55,3.49-4.84,3.69-5.7,3.69-.62,0-2.03-.44-2.39-.73-.07-.09-.13-.38-.13-.73v-.6l1.83-1.9c2.45-2.54,6.35-6.26,7.23-6.92.4-.27,1.46-.88,2.32-1.35,1.41-.75,1.64-.82,2.14-.8.33.04.75.18,1.04.38,1.26.82,1.35,2.9.15,4-.24.22-.95.8-1.57,1.24s-2.83,2.1-4.93,3.71M252.87,175.11c-.29.6-1.77,2.03-4.16,4.02-1.99,1.64-2.17,1.75-2.61,1.66-.51-.09-1.15-.51-1.35-.88-.07-.15-.15-.53-.15-.77,0-.46.11-.57,1.66-2.26.88-.97,2.28-2.39,3.01-3.12l1.37-1.37.86-.07q1.19-.11,1.41.46c.31.77.29,1.61-.04,2.32M279.33,342.43c.71-4.18,1.26-8.42,1.64-12.71.49-5.17.73-10.39.73-15.67,0-2.65-.07-5.31-.18-7.91.75-.62,1.72-1.37,2.43-1.79.4-.24,2.08-1.19,4.55-2.59,1.92-1.06,4.33-2.41,6.99-3.87,2.87-1.57,5.73-3.23,6.41-3.69,5.46-3.69,9.26-9.11,11.41-16.1.66-2.14,1.13-4.36,1.13-5.37,0-1.11-.38-2.85-.73-3.34-.31-.44-.91-.77-1.57-.93l-.55-.07-.29.95c-.15.53-.46,1.66-.69,2.5-1.26,5.24-3.82,8.36-8.89,10.77-3.25,1.59-6.77,2.48-10.06,2.61-.84.04-1.66.02-2.45-.04-4.29-.33-7.19-2.1-8.84-5.33-1.77-3.47-2.65-10.39-1.88-15.37.33-1.99.53-2.7,1.08-3.78.84-1.61,2.68-3.03,4.47-3.38,1.55-.31,3.8.02,5.15.82,1.41.8,2.83,2.79,3.36,4.78.33,1.19.88,2.1,1.64,2.7.29.22.57.4.91.57,1.55.73,3.67.2,8.49-2.12l2.72-1.35h1.02c.95,0,1.06.04,2.19.57,1.9.88,2.06.93,2.12.71.04-.11.09-.44.09-.77,0-.55-.04-.64-.55-1.08-1.95-1.75-2.32-2.17-2.72-2.98-.69-1.39-.77-3.03-.18-4.18.24-.51.6-.86,1.37-1.37.99-.66,1.35-1.44,1.59-3.47.13-1.17.04-2.14-.35-3.25-.46-1.35-.97-2.17-2.85-4.49-1.22-1.55-1.41-1.97-1.41-3.03,0-1.41.57-2.74,1.72-4.09,1.59-1.84,2.12-3.05,2.12-5.04,0-1.5-.11-1.86-1.17-3.45-.35-.51-.73-1.22-.84-1.53-.46-1.3-.13-3.18.69-4.05.55-.57,3.32-1.68,6.3-2.48,4.36-1.17,5.9-2.98,6.17-7.16.09-1.3-.07-1.81-.69-2.14-.31-.18-.35-.15-.88.15-2.28,1.33-3.6,1.75-7.74,2.45-5.06.84-7.54,1.77-12.98,4.82-1.75,1.02-3.05,1.7-4.07,2.26-1.79.88-2.7,1.17-3.65,1.35-1.97.31-3.82-.57-5.33-2.54-.82-1.11-1.64-1.9-2.3-2.21-.71-.35-1.77-.46-2.17-.18-.46.29-.88,1.11-1.17,2.17-.33,1.35-.22,1.68.84,2.68.44.4,1.5,1.17,2.32,1.68,2.17,1.33,3.14,2.1,4.62,3.65,1.86,1.9,2.59,2.23,5.02,2.41.66.02,1.37.11,2.12.24,1.79.29,3.63.73,4.11,1.06.18.07.42.4.6.71,1.22,2.01-.33,5.66-3.82,9.22-.27.29-.55.53-.82.77-1.66,1.5-3.52,2.7-5.51,3.52-1.57.62-2.19.77-4.22.84-3.23.13-3.87.33-6.37,1.95-.84.51-1.88,1.17-2.37,1.41-.99.53-3.03,1.26-4.11,1.41-1.57.27-3.21-.29-4.69-1.53-.42-.35-.82-.77-1.22-1.24-1.9-2.26-4.02-3.27-7.67-3.67-.84-.11-1.99-.29-2.56-.44-.55-.11-6.48-2.08-13.18-4.33-21.6-7.3-20.94-7.05-28.23-10.13-7.05-2.98-9.26-4.42-11.39-7.19-1.35-1.81-2.03-3.49-2.9-6.94-1.06-4.36-1.48-7.63-1.37-10.99.07-3.18.4-4.73,1.17-5.42.95-.86,1.79-.82,3.89.15,1.41.66,1.5.69,2.48.71.88,0,1.11-.07,1.86-.4,1.44-.69,2.01-.75,5.62-.82l3.29-.07-.27-.38c-.11-.2-1.79-2.19-3.69-4.38-1.86-2.26-3.82-4.6-4.33-5.26-1.24-1.57-1.35-1.66-2.94-1.5-1.77.13-3.4.11-5.04-.15-2.32-.29-7.45-1.35-7.74-1.55-.35-.2-.64-.84-.64-1.37s.04-.57,2.56-1.41c1.86-.6,1.92-.64,2.59-1.28.86-.86,1.15-1.72,1.22-3.67.11-2.52-.4-4.16-2.3-7.49-.62-1.13-1.11-1.95-1.48-2.65-.75-1.48-1.02-2.34-1.37-3.96-.38-1.57-.38-1.84.11-2.17.93-.6,4.07-.73,5.99-.22,1.44.35,3.4.64,4.31.6.73-.04.91-.11,1.59-.57.49-.31,1.19-.88,1.64-1.26.42-.4,1.44-1.04,2.14-1.48,1.84-1.04,3.69-2.34,6.23-4.36,1.13-.88,3.27-2.56,4.73-3.67,4.49-3.45,7.14-5.53,9-7.1,5.48-4.62,10.15-9.64,13.6-14.57,1.19-1.7,1.59-2.54,2.32-4.71.66-2.01,1.41-3.52,2.39-4.86.4-.55,1.92-2.17,3.47-3.71,1.55-1.55,2.96-3.03,3.25-3.47.71-1.06,1.26-2.32,1.59-3.54.49-2.01.27-6.57-.4-7.94-.27-.53-.84-.97-1.57-1.24-.53-.13-1.92-.18-2.39,0-.57.24-1.77,1.13-2.52,1.97-.97,1.02-1.59,2.12-2.3,3.91-.31.82-.8,1.88-1.06,2.39-.64,1.13-2.03,2.61-3.47,3.76-.62.44-1.88,1.53-2.85,2.41-2.61,2.26-2.94,2.52-4.53,3.58-3.07,2.03-3.76,2.87-3.21,3.89.09.18.71.86,1.35,1.53,1.46,1.41,1.48,1.57.69,2.34-1.37,1.35-2.14,1.33-7.16-.29-2.98-.97-3.65-.93-5.64.42-1.53,1.04-1.97,1.3-4.44,2.56l-2.14,1.08-1.81.09c-1.88.09-2.45.22-2.54.64-.02.11.18.62.44,1.17.53,1.06.57,1.22.31,1.57-.62.88-5.48,1.46-8.58.99-.62-.07-1.81-.13-2.63-.13-1.84,0-2.7.24-4.6,1.3-2.39,1.33-4.33,1.97-5.81,1.9-.84-.04-.91-.07-1.26-.49-.22-.24-.62-1.04-.97-1.77-1.15-2.7-2.1-3.65-3.56-3.65-1.61,0-3.58,1.9-4.13,4.05-.27.99-.22,1.77.11,2.08.15.15,1.44.84,2.87,1.57,1.46.73,2.98,1.61,3.49,1.99,1.64,1.19,2.87,1.77,5.08,2.34,1.81.46,3.07.99,3.6,1.55l.44.42-.2.35c-.13.2-.42.55-.69.8l-.44.42-2.1-.07c-2.37-.07-3.36-.27-4.84-.97-1.02-.49-1.61-.86-2.63-1.75-.86-.77-1.55-1.06-2.5-1.06-.86,0-1.37.15-2.72.8-1.84.84-3.1,1.08-6.79,1.39-2.61.22-3.05.44-3.32,1.61-.13.6.02,1.9.35,2.5.24.44.77.97,1.44,1.41.77.53,3.58,2.9,3.76,3.18.4.57.15,2.41-.49,4-.07.15-.11.31-.18.44-.44.97-1.26,2.01-2.21,2.85-.84.77-1.13,1.24-1.13,2.03s.22,1.41.69,1.95c.6.69,1.19.88,2.61.8,1.7-.11,3.03-.51,5.84-1.84,1.81-.86,3.45-1.37,4.91-1.57,2.59-.33,4.69.38,6.57,2.08.77.71,1.41,1.48,1.92,2.34,1.15,1.79,1.75,3.94,1.88,6.43l.07,1.44-.4.46c-.22.27-1.17,1.28-2.14,2.32-2.74,2.92-5.02,5.51-5.88,6.61-1.77,2.3-1.99,2.43-4.44,2.74-2.01.27-2.83.53-3.74,1.13-.64.4-1.53,1.48-1.84,2.19-.11.35-.11.38.49,1.02.35.4.88.91,1.13,1.15.64.57.82.99.73,1.86-.11,1.55-1.28,3.18-2.79,3.96-1.9.99-5.24,2.12-7.78,2.63-2.17.42-3.87.6-6.17.51-3.52-.13-6.32-.77-9.68-2.23-1.15-.51-4.2-2.12-5.31-2.81-.84-.55-2.21-1.86-2.5-2.43-.46-.93-.2-1.86.71-2.52.66-.49,1.24-.4,2.9.4,1.64.82,2.76,1.13,4.93,1.37,3.58.4,6.83.35,9.75-.18,2.1-.38,2.26-.53,2.94-2.59.6-1.81,1.86-4.44,3.32-6.88,1.39-2.34,1.48-2.7,1.48-4.84,0-1.53-.02-1.72-.24-2.01-.49-.69-.88-.77-2.65-.69-1.9.09-3.47.38-6.94,1.28-3.1.84-4.53,1.11-7.16,1.26-4.6.31-9.26-.27-13.62-1.66-2.65-.88-4.16-1.79-5.99-3.6-2.5-2.54-4.58-5.64-5.57-8.42-.77-2.12-.95-2.48-1.61-3.49-1.08-1.64-2.61-2.9-4.44-3.74-.44-.22-1.72-.71-2.85-1.08-4.84-1.61-6.57-2.37-8.31-3.69-1.88-1.44-3.78-3.49-5.44-5.97-.38-.55-.57-.91-.77-1.35-.18-.42-.31-.91-.57-1.81-.31-1.02-.82-1.61-1.5-1.75-.53-.09-.64.02-1.22,1.15-.42.8-.66,1.66-.69,2.56-.07.69.02,1.39.2,2.12.29,1.15.75,1.92,1.9,3.18.95,1.02,1.26,1.66,1.37,2.83.18,1.72-2.41,6.3-5.17,9.09-1.13,1.15-1.68,1.39-2.83,1.39-.91,0-1.66-.38-2.63-1.33-1.19-1.15-1.86-1.26-3.91-.62-1.44.46-2.1.38-3.07-.4-1.37-1.11-2.74-7.41-2.92-13.46-.02-.35-.02-.73-.02-1.08-.02-4.05.53-7.3,1.66-9.51.4-.82.71-1.24,1.5-2.03.86-.86,1.24-1.13,2.37-1.7,1.66-.86,3.29-1.92,3.78-2.5,1.02-1.13,1.19-2.12.64-3.76-.2-.6-.4-1.44-.51-1.81-.18-.95-.18-3.23,0-4.33.29-1.59.69-2.17,2.41-3.58.38-.29.69-.69.95-1.24l.42-.82.04-3.49.07-3.49.31-.6c.49-.97,1.24-1.59,3.03-2.48,1.17-.6,2.48-.99,3.69-1.15.62-.04,1.24-.2,1.41-.27.46-.27.91-.75,1.26-1.5.69-1.39,1.64-2.52,3.14-3.71,1.59-1.26,2.81-1.66,4.33-1.39.42.07,1.64.42,2.7.75,1.77.57,2.01.62,3.07.62s1.17-.02,1.59-.33c.95-.6,1.13-1.19,1.99-7.19.24-1.61.49-3.12.57-3.38.15-.69,1.06-1.48,2.5-2.19.71-.35,1.57-.69,2.1-.82,1.19-.24,2.81-.13,4.18.29,2.14.6,3.89.62,5.48.02,2.23-.8,3.12-.93,3.69-.51.71.53.99,1.37,1.57,4.82.64,3.78,1.11,5.17,2.08,6.59,1.92,2.65,2.34,5.22,1.86,10.63-.46,4.91-.46,4.73-.09,5.37.75,1.26,2.06,2.26,5.22,4.05,1.19.66,3.87,2.5,5.77,3.98,2.37,1.81,5.13,2.3,7.67,1.37.8-.33,1.95-1.11,3.8-2.54,2.81-2.19,3.1-2.32,6.37-2.45,1.28-.07,3.21-.18,4.18-.27,1.79-.18,1.88-.18,3.18-.77,1.75-.77,2.45-1.22,3.63-2.43,2.23-2.19,4.13-3.21,8.51-4.38,3.6-.99,5.97-2.63,7.76-5.35,1.46-2.21,2.23-2.83,7.3-5.86,1.33-.8,2.83-1.75,3.29-2.1,1.9-1.44,4.82-4.73,5.68-6.5.49-.86.49-1.75.13-2.52-.42-.86-1.28-1.5-3.52-2.61-1.13-.57-2.06-1.08-2.06-1.15,0-.24.46-.88.86-1.17.69-.51,2.1-.95,4.89-1.5.49-.13.8-.24,1.04-.49.33-.33.33-.35.33-1.75,0-.75-.07-1.9-.2-2.52-.09-.62-.2-1.72-.22-2.48-.09-1.19-.02-1.55.2-2.32.35-1.33.82-2.14,2.92-5.11,1.95-2.72,2.72-3.98,3.07-5.2.4-1.37.13-4.11-.49-5.04-.62-.95-1.84-1.39-2.52-.97-.49.31-.64.71-1.35,2.98-.71,2.32-1.35,3.94-2.23,5.64-.53,1.04-.82,1.46-1.57,2.21-1.53,1.53-2.39,1.72-3.94.99-1.75-.84-2.87-.86-6.59-.07-1.26.27-2.52.49-2.81.49-1.48,0-2.74-.55-4.82-2.1-2.94-2.23-4.55-3.85-6.08-6.19-.84-1.28-1.5-1.92-2.26-2.32-.66-.31-1.64-.55-5.02-1.11-3.18-.53-3.54-.55-5.64-.55-2.43,0-3.43.13-6.57.88-1.86.44-2.59.75-4.93,2.1-4.47,2.52-6.41,3.23-8.89,3.23s-3.29-1.55-3.29-5.57c0-1.72,0-1.9.29-2.85.71-2.1,1.72-3.63,3.54-5.37,2.28-2.21,5.31-3.82,9.24-5,1.86-.51,2.19-.6,5.33-.97,2.43-.27,5.24-.4,6.46-.2.29,0,1.61.18,2.96.38,2.12.24,2.94.31,5.39.31,4.2,0,4.62-.11,5.55-1.86,1.17-2.1,3.29-4.6,4.84-5.7,2.17-1.55,4.13-2.17,8.4-2.63,3.36-.35,5.66-.86,8.47-1.88,3.82-1.41,5.68-1.37,10.21.18,4.47,1.53,6.06,1.7,9.77,1.13,1.04-.18,2.59-.44,3.45-.55,1.9-.31,3.76-.31,4.73-.04,1.64.44,2.83,1.35,4.97,3.71,1.72,1.95,1.72,1.99,1.5,3.96-.18,1.64-.42,2.43-1.04,3.76-.69,1.46-1.81,2.59-3.18,3.32-.99.46-1.41.57-4.29,1.26-3.01.66-3.71,1.15-3.8,2.59-.11,1.44.42,2.32,1.72,3.03.99.51,1.86.69,3.94.86,4.55.27,5.11.46,6.72,2.14,1.15,1.19,1.39,1.57,1.35,2.41,0,.82-.22,1.57-1.04,3.23-.62,1.24-.75,1.48-2.1,2.87-.84.84-1.53,1.66-1.57,1.83-.09.4.02.82.44,1.41.57.84,1.39,2.65,1.66,3.63.22.88.33,1.81.57,4.44.2,2.21.8,2.9,3.6,4.22,3.63,1.72,7.21,3.85,13.02,7.56,3.89,2.54,4.84,3.34,5.33,4.55.35.95.35,1.84,0,2.34-.8,1.19-2.01,1.22-4.47.11-3.8-1.7-4.62-2.01-5.39-2.14-2.26-.38-3.67.88-3.67,3.29,0,.64.07.88.31,1.3.8,1.37,1.3,3.1,1.66,5.59.62,4.49,1.28,6.06,4.47,10.61,6.35,9.09,9.42,13.62,10.9,16.05,2.23,3.67,3.87,7.47,4.95,11.16.6,2.12.77,3.16,1.08,6.52.11,1.53.46,5.59.75,9.06.77,8.69,1.08,11.72,1.35,12.49.53,1.53,1.79,3.58,4.2,6.74,1.66,2.19,3.89,4.91,6.74,8.31,3.1,3.71,4.29,4.89,5.42,5.48,1.02.55,1.22.49.99-.22-.11-.29-.57-.97-1.33-1.81-2.06-2.3-2.61-3.12-2.79-4.05-.33-1.72,2.39-3.03,5.62-2.7.07,0,.18.02.24.02,11.83,4.38,23.3,9.44,34.4,15.17.29.13.55.29.84.42v150.09M290.43,253.04c.49-.97,3.21-3.4,4.84-4.4.04-.02.09-.04.11-.07,1.64-.95,2.5-1.17,3.38-.8.62.24,1.06.71,1.46,1.48.75,1.48.62,1.92-.95,3.47-1.64,1.59-2.85,2.45-4.27,2.92-.75.24-1.55.38-2.52.44-.99.04-1.17.02-1.48-.18-.71-.44-1.02-2.01-.57-2.87M62.27,241.15c-.42.46-1.17.84-1.66.86-.15,0-.49-.09-.71-.22-2.01-1.17-2.72-1.37-4.84-1.37-1.81.02-3.45.27-7.8,1.19-1.39.31-2.68.51-2.81.49-.49-.13-1.04-.71-1.33-1.33-.64-1.46-.51-1.9.82-2.61,2.21-1.17,3.16-1.41,5.35-1.33,2.52.13,2.63.07,5.37-2.48l1.5-1.37.57.04c.31.02.95.24,1.5.51,1.24.64,2.85,2.21,3.54,3.56.55,1.08.86,2.17.86,3.01,0,.51-.07.69-.38,1.04M50.06,231.62c.13-.49,1.15-1.84,1.5-1.99.33-.15,1.39-.27,1.64-.2.15.04.35.15.44.22.27.22.77,1.3.95,1.97.31,1.26-.29,2.01-2.12,2.59-.84.29-1.15.33-1.37.22-.73-.24-1.3-1.84-1.04-2.81M67.2,246.05c-2.08,1.04-3.47.11-2.32-1.53.11-.18.46-.82.77-1.39,1.28-2.52,3.23-4.02,4.05-3.12.18.2.22.46.27,1.17.11,2.21-.88,3.96-2.76,4.86M100.01,222.77c-.8-.09-1.48-.27-1.79-.42-.84-.44-1.28-1.33-1.22-2.59.02-.15.13-.38.27-.53.24-.22.31-.24,2.76-.18,1.39.04,3.12.15,3.87.24,3.6.49,6.39,1.41,8.42,2.74,1.04.69,1.7,1.44,2.23,2.54.71,1.55.62,2.54-.38,3.36-1.13.91-1.81,1.06-3.07.69-1.57-.49-3.21-1.46-5.59-3.36-2.06-1.66-3.29-2.21-5.51-2.5M123.62,167.97c.2-.2.46-.42.6-.49.31-.18,1.15-.18,1.57-.02.73.29,1.35,1.15,1.5,2.1.13.62-.11.99-.73,1.33-1.04.53-1.75.42-2.5-.42-.95-1.02-1.11-1.9-.44-2.5M118.2,182.89c.13-.18.35-.35.53-.42.44-.09,1.46-.09,2.12.07,1.59.33,2.52,2.34,1.59,3.32-.71.8-2.28,1.06-3.03.53-.46-.33-1.13-1.55-1.33-2.5-.11-.62-.11-.73.11-.99M116.46,174.16c0,.71-.22,1.26-.55,1.46-.38.2-2.14.6-2.61.6-.6,0-1.33-.51-1.84-1.26-.62-.99-.69-1.77-.2-2.23.18-.15,1.06-.44,1.68-.51,0,0,.69.11,1.46.29,1.22.27,1.46.33,1.75.64.27.31.31.46.31,1.02M107.13,163.1c.99-1.08,2.59-1.5,4.6-1.22,2.28.35,3.45,1.19,3.45,2.54,0,.71-.33,1.3-1.04,1.95-1.37,1.28-3.96,1.81-5.93,1.19-.95-.31-1.39-.69-1.57-1.44-.38-1.28-.18-2.28.49-3.03M88.33,193.64c4,.15,4.44.13,4.71-.02.15-.11.35-.29.4-.44.09-.13.62-2.08,1.19-4.31,1.59-5.9,1.66-6.1,2.48-6.68.51-.33,1.33-.35,2.28-.09.91.29,1.41.84,1.9,2.06.49,1.3.53,2.01.13,2.45-.2.18-.51.38-.73.49-.38.15-1.55,1.19-1.55,1.37,0,.02.35.24.82.51,2.32,1.17,4.29,1.26,9.79.44,2.34-.35,3.94-.33,7.54.11,3.23.33,4.36.31,6.35-.35,1.37-.44,2.7-.44,3.65,0,.86.4,1.28.8,2.21,2.01,1.99,2.61,4.42,3.74,8.78,4.11,2.94.29,5.22.66,5.59.91.49.33.84,1.02.75,1.53-.13.73-.8,1.64-1.55,2.19-3.63,2.5-8.11,3.8-11.85,3.47-1.46-.15-3.36-.55-4.24-.93-.86-.4-3.58-1.97-4.71-2.79-2.96-2.12-5.37-2.94-8.6-2.94-2.28,0-3.16.2-9.75,2.1-4.4,1.26-4.33,1.26-6.88.35-1.64-.57-3.27-.51-4.58.11-4.36,2.19-6.12,7.1-4.64,12.93.93,3.6,2.92,7.67,4.82,9.79.95,1.06,1.35,2.52.8,3.01-.77.71-1.64.69-3.58-.04-1.81-.64-5.73-2.59-7.61-3.71-3.43-2.06-4.02-2.54-6.23-4.71-1.13-1.15-2.81-2.96-3.71-4-.93-1.04-1.97-2.19-2.39-2.56-1.46-1.48-3.56-2.59-5.55-3.01-1.72-.38-5.42-.24-6.37.22-.77.44-1.64,1.72-1.64,2.52,0,.38.07.53.38.84.46.42,2.7,2.14,3.78,2.9q1.35.99,1.35,2.45c0,1.22-.02,1.33-.29,1.61-.55.57-.77.6-6.17.51-5.46-.09-5.75-.07-6.43.53-.66.53-.84.93-.93,2.39-.09,1.17-.13,1.35-.42,1.59-.27.29-.4.33-1.06.33-.73,0-.77-.02-1.22-.46-.4-.38-.44-.51-.42-.99,0-1.04.38-2.3,1.15-3.82,1.06-2.06,1.33-2.76,1.81-4.62.71-2.74,1.66-4.33,3.87-6.54,1.84-1.81,3.71-3.23,5.66-4.18,1.86-.95,3.38-1.37,5.81-1.68.86-.09,2.08-.33,2.7-.46,1.22-.33,3.4-1.19,4.33-1.7.71-.4,2.92-1.57,5.31-2.76,2.56-1.35,4.62-1.92,7.14-2.08.66-.04,3.18,0,5.62.07M84.93,163.88c.46,1.19.49,1.35.38,1.77-.09.27-.38.69-.69.99-.49.49-.57.51-1.15.51-.51,0-.86-.13-1.95-.66-1.64-.84-2.12-.88-2.65-.33-.49.53-.82,1.7-.82,2.83s.38,3.4.73,4.2c.46,1.13,1.48,2.5,3.4,4.58,2.26,2.43,2.92,3.27,3.47,4.44.75,1.53,1.13,3.21.91,4.02-.29,1.08-3.23,2.45-5.24,2.45-2.61,0-4.91-1.5-7.63-4.97-1.66-2.12-3.21-5.13-4.2-8.09-.97-2.92-.93-4.2.2-5.84,1.15-1.72,1.44-2.7,1.08-3.82-.11-.33-.6-1.11-1.15-1.84-1.06-1.39-1.35-2.08-1.35-3.14.02-.88.4-1.77,1.55-3.54,1.13-1.72,1.72-2.45,3.12-3.91,1.28-1.3,5.44-5.13,5.86-5.37.35-.2,1.13-.15,1.66.07.6.29,1.11.77,1.17,1.17.18.82.31,3.14.31,5.08.02,3.14.42,4.64,1.86,6.99.35.57.84,1.66,1.13,2.41M171.26,67.77c.4-.84,1.7-2.08,2.61-2.52,1.19-.57,1.84-.66,4.38-.69,2.56-.02,3.43-.15,5.04-.77.53-.2,1.24-.53,1.55-.73,1.79-1.13,1.88-1.17,2.45-1.17.33,0,.77.11,1.02.22.55.31.8.55,1.08,1.22.51,1.13.42,2.52-.15,2.92-.33.2-1.08.35-5.11.97-4.42.71-5.37,1.06-7.23,2.72-.33.29-.95.69-1.37.88-.66.33-.93.38-1.9.42-1.39.04-1.72-.11-2.19-1.11-.46-.93-.51-1.68-.18-2.37M164.26,91.69c2.48-.42,3.74-.84,6.37-2.08,2.74-1.3,3.54-1.53,7.43-2.3,6.63-1.3,10.61-2.68,13.93-4.8,1.26-.82,1.7-.88,3.67-.64.66.09,1.26.24,1.75.46,1.35.66,2.28,2.08,2.28,3.49,0,.55-.02.69-.38,1.08-.53.6-.97.8-2.08.86-.8.09-1.04.13-1.28.35-.15.18-.29.38-.29.49,0,.33-.38.55-1.97,1.08-2.01.73-3.87,1.15-5.37,1.28-.71.07-1.46.18-1.7.29-.69.27-1.72,1.04-2.81,2.08-.62.6-1.3,1.11-1.79,1.33-.73.4-.84.4-2.12.4s-1.44-.02-2.79-.51c-1.88-.66-4.11-1.33-4.49-1.33-.13,0-.73.29-1.26.66-2.76,1.84-5.73,2.83-8.8,2.96-1.35.09-1.39.07-1.68-.2-.27-.29-.55-1.19-.55-1.79,0-1.55,1.5-2.74,3.94-3.18M159.99,59.99c.29.29.66,1.88.53,2.39-.02.24-.31.55-.8.97-.4.33-1.11.99-1.57,1.46-1.39,1.37-2.1,3.21-1.7,4.38.22.66,1.35,2.17,2.39,3.12,1.26,1.17,1.68,2.03,1.72,3.47.07,1.41-.2,2.03-.99,2.39-.49.2-.69.22-1.75.18-1.86-.15-3.1-.75-4-1.92-.64-.84-.88-1.66-1.08-3.47-.18-1.64-.38-2.26-.88-2.79-.62-.62-1.24-.64-2.76-.09-.8.29-2.17.33-3.78.07-.75-.13-2.08-.18-3.89-.18-3.67,0-3.71.02-4.22,1.84-.77,2.65-2.61,5.02-5,6.46-1.44.88-4.05,1.61-4.75,1.37-.71-.27-1.22-2.06-.88-3.07.2-.6.88-1.33,1.57-1.68.69-.33,1.41-.55,3.69-1.06,1.02-.2,1.99-.46,2.17-.57.77-.53.64-1.35-.42-2.48-.82-.88-.95-1.13-.95-1.66s.69-1.64,1.5-2.48c.93-.95,2.32-1.61,4.42-2.17,2.87-.77,4.4-1.39,5.77-2.45.44-.33,1.04-.73,1.3-.84.64-.29,2.5-.42,4.13-.33,1.24.09,4.11-.02,5.9-.24.57-.07,1.5-.27,2.08-.46,1.24-.42,1.95-.44,2.26-.13M275.66,98.79c-.73,1.44-2.81,1.46-4.49.04-.33-.27-.4-.42-.4-.75,0-.46.27-1.06.64-1.41.22-.22.35-.24,1.39-.18.62.02,1.46.15,1.86.24,1.13.27,1.48,1.02.99,2.06"/>
      <path class="cls-2" d="M108.98,272.55c.82.82,1.77,1.46,2.87,1.95,1.08.49,2.26.71,3.49.71s2.48-.22,3.58-.71c1.13-.49,2.1-1.13,2.94-1.95.82-.82,1.48-1.75,1.99-2.83.51-1.08.75-2.26.75-3.47,0-1.28-.24-2.48-.75-3.6-.51-1.11-1.17-2.08-1.99-2.9-.84-.8-1.81-1.46-2.94-1.92-1.11-.49-2.3-.73-3.58-.73s-2.41.24-3.49.73c-1.11.46-2.06,1.13-2.87,1.92-.82.82-1.46,1.79-1.95,2.9-.49,1.13-.71,2.32-.71,3.6,0,1.22.22,2.39.71,3.47.49,1.08,1.13,2.01,1.95,2.83"/>
      <path class="cls-2" d="M343.5.22H0v343.5h171.03c1.28.09,2.56.15,3.89.15,1.44,0,2.81-.07,4.16-.15h164.42V.22ZM14.01,285.49c-.07-1.22-.18-2.45-.33-3.74l25.65,47.64c.6,1.08,1.35,1.92,2.28,2.52.91.6,1.99.91,3.23.91h2.14c1.24,0,2.32-.31,3.25-.91.93-.6,1.68-1.44,2.26-2.52l25.29-47.47c-.11,1.24-.2,2.45-.27,3.65-.04,1.19-.09,2.3-.09,3.29v50.43H14.1v-50.43c0-1.04-.04-2.17-.09-3.38M339.08,339.3h-143.88c3.91-2.14,7.3-4.95,10.13-8.45l-6.15-6.65c-.62-.66-1.35-.99-2.19-.99-.51,0-.97.11-1.39.33-.42.2-.84.49-1.22.84-1.28,1.15-2.56,2.12-3.85,2.92-1.3.8-2.68,1.44-4.11,1.95-1.46.49-3.03.86-4.75,1.08-1.72.24-3.63.35-5.75.35-3.56,0-6.88-.66-9.97-1.99-3.1-1.35-5.77-3.25-8.05-5.77-2.28-2.5-4.07-5.59-5.42-9.26-1.33-3.67-1.99-7.85-1.99-12.56s.66-8.67,1.99-12.31c1.35-3.65,3.18-6.74,5.57-9.29,2.37-2.54,5.2-4.51,8.51-5.88,3.29-1.37,6.92-2.06,10.86-2.06,3.36,0,6.12.35,8.29,1.06,2.19.69,4,1.44,5.42,2.26,1.44.8,2.61,1.55,3.54,2.26.93.69,1.84,1.04,2.72,1.04s1.53-.18,1.99-.53c.49-.33.88-.75,1.19-1.22l5.22-7.23c-3.32-3.27-7.32-5.9-11.96-7.89-4.64-1.99-10.08-2.98-16.29-2.98s-12.18,1.04-17.47,3.14c-5.26,2.12-9.79,5.06-13.57,8.84-3.78,3.78-6.7,8.29-8.8,13.51-2.08,5.24-3.12,10.99-3.12,17.29s.93,11.94,2.81,17.2c1.88,5.24,4.55,9.75,8.07,13.53,2.81,3.03,6.08,5.51,9.82,7.47h-32.79v-55.76h-14.3v55.76h-17.02v-80.06h-11.76c-.69,0-1.28.02-1.79.04-.49.04-.95.13-1.35.29-.42.15-.77.42-1.11.75-.33.35-.64.82-.95,1.39l-24.78,46.38c-.66,1.24-1.28,2.52-1.86,3.87-.57,1.35-1.13,2.72-1.68,4.11-.53-1.35-1.08-2.7-1.64-4.02-.57-1.33-1.17-2.61-1.83-3.85l-25-46.49c-.31-.57-.64-1.04-.99-1.39-.33-.33-.71-.6-1.13-.75-.4-.15-.84-.24-1.35-.29-.51-.02-1.11-.04-1.79-.04h-7.72V4.64h334.66v334.66Z"/>
    </g>
  </g>
</svg>