<?xml version="1.0" encoding="UTF-8"?>
<svg id="Livello_2" data-name="Livello 2" xmlns="http://www.w3.org/2000/svg" xmlns:xlink="http://www.w3.org/1999/xlink" viewBox="0 0 1922.58 740.3">
  <defs>
    <style>
      .cls-1 {
        fill: none;
      }

      .cls-2 {
        fill: #fff;
      }

      .cls-3 {
        clip-path: url(#clippath);
      }
    </style>
    <clipPath id="clippath">
      <rect class="cls-1" width="1922.58" height="740.3"/>
    </clipPath>
  </defs>
  <g id="Livello_1-2" data-name="Livello 1">
    <g class="cls-3">
      <path class="cls-2" d="M221.1,739.51h-41.67v-145.77c0-1.18-11.73-18.67-12.74-19.29-13.93-8.51-35.3,6.54-35.3,19.29v145.77h-41.67v-145.77c0-1.3-12.01-19.34-14.94-20.3-9.19-3.16-25.94,1.07-36.32-.56v166.63H-.01v-211.47h91.35c3.5,0,16.3,28.76,19.23,28.76,8.01-6.43,9.87-25.15,19.79-28.14,5.92-1.8,48.1-1.69,52.33.9,3.16,1.97,38.4,60.39,38.4,64.17v145.77Z"/>
      <path class="cls-2" d="M943.67,528.03c4.91,1.58,13.7,24.47,19.23,28.82,1.86.9,11.5-25.66,19.85-28.2,5.3-1.64,45.23-1.75,50.13-.11,3.44,1.13,35.53,54.98,37.95,61.41,2.37,6.26,2.31,15.9,2.71,22.78,2.26,39.64-1.47,81.65-.56,121.52-3.21,9.92-32.09,3.5-41.17,5.24v-145.77c0-1.24-12.41-19.57-13.48-20.19-2.59-1.47-22.22-1.52-24.47-.11-1.24.73-9.64,22.44-11.84,26.56l1.24,134.27c-3.21,9.92-32.14,3.5-41.17,5.24v-145.77c0-1.24-13.42-19.85-14.94-20.36-9.3-3.05-25.88,1.13-36.37-.45v166.58h-38.4v-211.47c22.33,4.4,72.69-5.92,91.3,0"/>
      <path class="cls-2" d="M462.44,651.87c-2.65-1.75-31.69-34.06-32.42-36.37-2.03-6.82-1.75-49.29,1.02-55.38,1.24-2.76,33.21-33.83,35.86-34.62,7.11-2.14,65.36-1.75,71.39,1.02,2.31,1.02,34.62,33.16,35.07,35.58.51,2.99-20.58,27.35-23.57,26.67-7.84-3.89-23.68-23.01-29.72-24.81-22.44-6.71-62.65,2.26-53.63,31.75,8.91,29.1,60.28,7.33,80.07,18.67,2.82,1.64,32.14,32.2,32.82,34.45,2.03,6.82,1.75,49.29-1.02,55.38-1.24,2.76-33.21,33.89-35.86,34.68-6.43,1.92-65.92,1.92-72.35,0-8.68-2.59-28.2-29.89-37.44-36.2,35.75-46.13,32.65-8.4,53.46-2.26,37.39,11.05,80.53-14.61,40.6-46.64-16.35,1.97-50.7,6.99-64.29-1.92"/>
      <path class="cls-2" d="M1642.86,525.48c7.78-2.31,60.28-1.75,68.4.79,5.19,1.58,33.72,28.82,34.74,32.88,2.03,8.01-14.32,24.59-20.92,29.55-6.65,1.13-20.02-22.84-35.02-25.26-23.8-3.78-58.42.79-48.78,32.82,7.84,26.11,54.7,10.04,73.98,15.73,2.59.79,34.57,31.92,35.81,34.68,2.76,6.09,3.05,48.55,1.02,55.32-1.07,3.55-33.27,35.81-36.82,36.88-6.43,1.92-65.98,1.92-72.41,0-8.63-2.59-28.14-29.89-37.44-36.2l27.18-27.18c8.63,6.2,18.95,23.63,28.93,25.49,14.72,2.82,49.12,4,52.67-14.38,9.98-51.65-43.03-21.82-72.24-33.33-5.98-2.37-37.67-32.88-39.14-37.78-1.8-6.09-1.8-43.87,0-49.96,1.02-3.55,36.48-38.97,40.04-40.04"/>
      <path class="cls-2" d="M746.6,531.23v35.24h-96.15v48.04h78.5c7.16,0,7.16,38.46,0,38.46h-78.5c.45,16.07-1.97,32.59,3.21,48.1h92.93v38.46h-110.53c-2.2,0-24.08-34.68-24.08-36.88v-171.43h134.6Z"/>
      <path class="cls-2" d="M1570.11,531.23v35.24h-96.15v48.04h80.13v38.46h-80.13c.45,16.07-1.97,32.59,3.21,48.1h92.93v38.46h-110.53c-2.26,0-24.08-34.68-24.08-36.88v-171.43h134.6Z"/>
      <path class="cls-2" d="M291.59,528.03v148.98c0,1.35,15.11,19.68,17.42,21.03,7.67,4.4,19.23,4.79,27.41,1.35,1.35-.56,19.23-17.82,19.23-19.17v-152.2c9.08,1.75,38.01-4.68,41.22,5.24l-1.18,161.33c-13.65,10.26-35.41,42.97-51.03,45.06-7.89,1.07-40.54.96-46.58-1.8-11.73-5.36-32.26-33.38-44.94-41.62v-168.21h38.46Z"/>
      <path class="cls-2" d="M820.3,739.51h-41.67v-211.47c7.22.79,41.67-3.05,41.67,4.79v206.67Z"/>
      <path class="cls-2" d="M397.33,218.82c0-2.14-17.31-32.09-20.81-36.77-7.73,2.76-33.61,31.01-40.04,25.54l-35.41-76.75c-4.79-3.38-25.71,10.15-25.43,17.54,3.1,42.07-4.34,90.23-.28,131.5.56,5.36-.39,10.66,4.85,14.38l117.12,73.53v-148.98ZM565.55,297.32l1.8-158.8-3.44-9.42-132.41-85.77-8.35-.85-102.91,64.4,19.45,46.24c4.96,3.78,36.32-31.35,44.66-25.49,1.47,16.52,41.79,75.34,41.79,84.76v168.21c48.33-23.57,93.38-55.15,139.4-83.29M598.54,105.7l.17,213.55-166.35,101.45-11.62-.85-172.44-109.68V105.03L427.22.03l171.31,105.68Z"/>
      <path class="cls-2" d="M1840.82,576.08c-1.13,1.02-13.82,25.15-14.21,27.41-2.03,11,1.13,25.21-.17,36.71h57.69v-67.27c-11.28,1.75-35.36-4-43.31,3.16M1922.58,528.03v211.47h-38.46v-60.85h-57.69v56.05c0,7.84-34.4,4-41.62,4.79v-145.77c0-3.83,36.26-56,40.04-65.7h97.73Z"/>
      <path class="cls-2" d="M1310.56,566.51v51.26c79.29,14.66,79.12-65.98,0-51.26M1365.03,739.51v-56.05c0-1.75-19.74-26.17-21.37-26.73-9.14-3.16-25.94,1.07-36.32-.51v83.29h-38.46v-211.47h97.73c2.76,0,34.74,34.29,36.2,40.71,1.69,7.61,2.03,36.37,0,43.48-2.76,9.64-21.32,20.13-21.94,26.33-1.3,12.01,19.06,28.76,21.88,42.41,1.52,7.33,2.03,51.65-.68,55.54-4.34,6.2-28.59,1.69-37.05,2.99"/>
      <path class="cls-2" d="M1201.51,596.75c2.26-33.72-35.07-27.41-57.57-27.07v51.26c21.65.11,55.54,6.2,57.57-24.19M1143.94,659.4v80.13h-38.46v-208.31h97.73c2.14,0,29.49,28.36,30.62,30.28,4.23,7.27,4.91,48.83,2.37,57.18-.73,2.54-30.34,40.71-32.99,40.71h-59.27Z"/>
    </g>
  </g>
</svg>