<?xml version="1.0" encoding="UTF-8"?>
<svg id="Livello_2" data-name="Livello 2" xmlns="http://www.w3.org/2000/svg" xmlns:xlink="http://www.w3.org/1999/xlink" viewBox="0 0 865.31 290.42">
  <defs>
    <style>
      .cls-1 {
        fill: none;
      }

      .cls-2 {
        clip-path: url(#clippath-1);
      }

      .cls-3 {
        clip-path: url(#clippath-3);
      }

      .cls-4 {
        clip-path: url(#clippath-2);
      }

      .cls-5 {
        fill: #fff;
      }

      .cls-6 {
        clip-path: url(#clippath);
      }
    </style>
    <clipPath id="clippath">
      <rect class="cls-1" x="0" y=".02" width="865.28" height="290.39"/>
    </clipPath>
    <clipPath id="clippath-1">
      <rect class="cls-1" x="0" y=".02" width="865.28" height="290.39"/>
    </clipPath>
    <clipPath id="clippath-2">
      <rect class="cls-1" x="0" y=".02" width="865.28" height="290.39"/>
    </clipPath>
    <clipPath id="clippath-3">
      <rect class="cls-1" x="0" y=".02" width="865.28" height="290.39"/>
    </clipPath>
  </defs>
  <g id="Livello_1-2" data-name="Livello 1">
    <g>
      <g class="cls-6">
        <path class="cls-5" d="M481.5.01l.02,53.25c3.61-2.53,5.16-8.52,8.24-11.7,13.13-13.49,50.43-15.11,59.26,3.94.57,1.24,3.32,9.46,3.32,9.98v83.57h-23.61v-74.69c0-2.65-4.87-9.98-7.45-11.77-11.68-8.19-28.01-2.48-35.12,9.05-1.15,1.86-4.66,10.1-4.66,11.58v65.83h-23.61V.01h23.61Z"/>
      </g>
      <rect class="cls-5" x="568.59" width="25.07" height="22.21"/>
      <g class="cls-2">
        <path class="cls-5" d="M751.63.01v22.18h-25.09c.6-7.26-1.5-15.45,1.48-22.18h23.61Z"/>
        <path class="cls-5" d="M530.21,161.23l2.96,19.24c-19.65.93-40.26-3.41-59.86-1.58-1.96.19-3.92,0-4.73,2.24l2.6,25.93,56.56-.05,3.94,19.29h-56.83c-.64,0-2.48,2.32-2.15,3.53l4.25,34.26,70.06.55,5.32,22.28h-106.28l-5.9-125.71h90.04Z"/>
      </g>
      <polygon class="cls-5" points="401.04 161.24 361.22 263.27 333.88 161.24 304.36 161.24 337.03 286.77 378.98 287.08 429.84 161.24 401.04 161.24"/>
      <polygon class="cls-5" points="170.03 161.24 125.74 286.96 224.66 286.96 229.08 263.29 165.61 263.29 196.61 161.24 170.03 161.24"/>
      <polygon class="cls-5" points="540.55 161.24 545.18 180.25 583.17 180.66 609.91 286.96 640.93 286.96 611.39 180.47 649.79 180.47 645.35 161.24 540.55 161.24"/>
      <polygon class="cls-5" points="655.69 161.24 661.83 178.75 700.75 180.42 742.77 286.96 775.27 286.96 728.64 181.99 730.21 178.98 766.39 178.98 756.79 161.24 655.69 161.24"/>
      <g class="cls-4">
        <path class="cls-5" d="M441.64,68.04l-21.94,1.29c-2.41-23.3-35.93-30.49-46.54-10-7.55,14.59-8.81,54.18,7.88,62.8,16.55,8.55,35.77.67,38.63-18.41l21.97,1.31c-.74,44.48-73.83,48.42-91.26,15.26-9.36-17.79-8.72-53.84,2.96-70.46,20.68-29.44,86.89-24.88,88.3,18.22"/>
      </g>
      <polygon class="cls-5" points="632.06 35.51 660.86 119.84 690.37 35.51 714.73 35.51 675.66 137.61 647.51 139.14 606.97 35.51 632.06 35.51"/>
      <polygon class="cls-5" points="265.25 161.24 237.94 286.96 271.89 286.96 291.09 161.24 265.25 161.24"/>
      <polygon class="cls-5" points="769.35 161.24 835.03 286.96 865.31 286.96 795.18 161.24 769.35 161.24"/>
      <g class="cls-3">
        <path class="cls-5" d="M283.7,56.22l11.08-17.74c19.22-15.33,46.7-5.06,41.9,22.04l-16.79,4.61c-2.03-17.91-22.13-17.36-30.06-3.51-1.22,2.1-4.66,12.77-4.66,14.57v62.87h-23.61V35.52h22.13v20.7Z"/>
        <path class="cls-5" d="M593.68,35.51v101.31l-2.44,1.98c-7.07-.38-17.05,2.46-22.66-1.98V35.51h25.09Z"/>
      </g>
      <rect class="cls-5" x="728" y="35.51" width="23.61" height="103.53"/>
      <path class="cls-5" d="M76.71,158.69C41.39,165.66,4,211.67.28,247.01c-.33,3.08-.41,8.86,0,11.84,6.38,48.26,74.64,32.78,101.14,8.91,41.57-37.42,57.28-125.31-24.71-109.07ZM109.09,205.91c-5.3,19.6-30.09,55.47-51.93,57.45-66.76,6.06-2.63-78.27,22.44-82.54,19.48-3.32,35.39,3.22,29.49,25.1Z"/>
      <rect class="cls-1" x="0" y=".02" width="865.28" height="290.39"/>
      <path class="cls-5" d="M197.42,1.38l-34.05,1.58-47.95,136.1h25.07l11.77-33.33,57.64.05,13.99,33.28h24.38L197.42,1.38ZM158.21,87.28l23.61-68.03,22.16,68.03h-45.77Z"/>
    </g>
  </g>
</svg>