<?xml version="1.0" encoding="UTF-8"?>
<svg id="Livello_2" data-name="Livello 2" xmlns="http://www.w3.org/2000/svg" xmlns:xlink="http://www.w3.org/1999/xlink" viewBox="0 0 1765.89 1542.42">
  <defs>
    <style>
      .cls-1 {
        fill: none;
      }

      .cls-2 {
        fill: #fff;
      }

      .cls-3 {
        clip-path: url(#clippath);
      }
    </style>
    <clipPath id="clippath">
      <rect class="cls-1" width="1765.89" height="1542.42"/>
    </clipPath>
  </defs>
  <g id="Livello_1-2" data-name="Livello 1">
    <g>
      <g class="cls-3">
        <path class="cls-2" d="M1421.15,691.77h24.98v-130.15h-24.98v130.15ZM1400.71,561.61h-115.94v19.63h45.48v110.52h24.98v-110.52h45.48v-19.63ZM1281.25,561.61h-115.94v19.63h45.48v110.52h24.98v-110.52h45.48v-19.63ZM1084.74,635.08h63.5v-19.63h-63.5v-34.2h65.26v-19.63h-90.24v130.15h91.99v-19.63h-67.02v-37.06ZM1039.26,561.61h-115.87v19.63h45.48v110.52h24.98v-110.52h45.41v-19.63ZM877.91,691.77h24.98v-130.15h-24.98v130.15ZM815.5,615.45h-64.16v-53.83h-24.98v130.15h24.98v-56.69h64.16v56.69h24.98v-130.15h-24.98v53.83ZM672.39,653.61c-1.46,13.55-11.28,22.12-26.07,22.12-20.14,0-31.57-15.01-31.57-49.07s11.43-49,31.57-49c17.29,0,25.49,9.08,26.73,25.71h25.85c-.88-27.47-21.17-45.34-52-45.34-39.4,0-57.94,27.83-57.94,68.63s18.53,68.7,57.94,68.7c29.37,0,49.22-16.04,51.49-41.75h-26ZM483.05,581.24h30.62c17.14,0,24.83,5.71,24.83,18.68s-7.69,18.75-24.83,18.75h-30.62v-37.43ZM559.15,650.97c-2.12-14.14-6.96-20.87-22.85-23.22,18.6-4.1,28.05-16.04,28.05-33.33,0-19.63-16.77-32.81-43.87-32.81h-62.4v130.15h24.98v-53.47h28.49c16.77,0,21.9,6.37,23.14,15.16l2.56,18.53c.88,6.59,1.9,13.18,4.25,19.78h25.12c-2.49-7.32-3.52-14.65-4.61-21.9l-2.86-18.9ZM366.96,583.73l23.88,57.42h-47.97l24.1-57.42ZM438.45,691.77l-55.96-130.15h-31.2l-56.03,130.15h26.59l12.82-31.06h64.38l12.82,31.06h26.59Z"/>
        <path class="cls-2" d="M1185.92,377.88h63.5v-19.63h-63.5v-34.2h65.26v-19.63h-90.24v130.15h91.99v-19.56h-67.02v-37.13ZM1100.37,406.22l-55.66-101.81h-37.06v130.15h23.14v-107.52l58.52,107.52h34.2v-130.15h-23.14v101.81ZM945.24,434.57h24.98v-130.15h-24.98v130.15ZM823.66,415.01v-90.97h23c31.35,0,44.75,14.8,44.75,45.26s-13.4,45.7-44.75,45.7h-23ZM852.37,304.41h-53.69v130.15h52.44c41.68,0,66.14-24.76,66.14-65.26s-23.88-64.31-64.89-64.89M685.09,324.04h30.69c17.14,0,24.76,5.71,24.76,18.75s-7.62,18.68-24.76,18.68h-30.69v-37.43ZM761.26,393.77c-2.12-14.06-6.96-20.87-22.85-23.22,18.53-4.1,27.98-16.04,27.98-33.33,0-19.63-16.7-32.81-43.8-32.81h-62.4v130.15h24.9v-53.47h28.56c16.77,0,21.9,6.45,23.14,15.16l2.49,18.53c.95,6.59,1.98,13.18,4.32,19.78h25.12c-2.49-7.25-3.59-14.58-4.61-21.9l-2.86-18.9ZM567.97,418.53c-24.76,0-37.43-16.92-37.43-49s12.67-49.07,37.43-49.07,37.43,16.99,37.43,49.07-12.67,49-37.43,49M567.97,438.15c39.4,0,63.28-26,63.28-68.63s-23.88-68.63-63.28-68.63-63.28,26-63.28,68.63,23.88,68.63,63.28,68.63"/>
        <path class="cls-2" d="M1177.75,1128.68l23.95,57.42h-47.97l24.02-57.42ZM1249.31,1236.72l-56.03-130.15h-31.2l-55.96,130.15h26.59l12.82-31.06h64.38l12.82,31.06h26.59ZM1086.49,1106.56h-41.02l-31.2,100.34-31.2-100.34h-41.02v130.15h24.98v-107.67l34.28,107.67h26l34.2-107.67v107.67h24.98v-130.15ZM828.53,1126.19h30.62c17.14,0,24.83,5.71,24.83,18.68s-7.69,18.75-24.83,18.75h-30.62v-37.43ZM904.63,1195.85c-2.12-14.06-6.96-20.8-22.78-23.14,18.53-4.1,27.98-16.04,27.98-33.33,0-19.63-16.77-32.81-43.87-32.81h-62.4v130.15h24.98v-53.47h28.49c16.77,0,21.97,6.37,23.22,15.16l2.49,18.53c.88,6.59,1.98,13.18,4.25,19.78h25.12c-2.49-7.32-3.52-14.65-4.61-21.97l-2.86-18.9ZM712.44,1128.68l23.88,57.42h-47.97l24.1-57.42ZM783.93,1236.72l-55.96-130.15h-31.2l-56.03,130.15h26.59l12.82-31.06h64.38l12.89,31.06h26.51ZM567.86,1165.38v-39.18h17.29c15.16,0,23,6.59,23,19.41s-7.84,19.78-23,19.78h-17.29ZM634,1145.6c0-24.98-15.53-39.04-44.39-39.04h-46.73v130.15h24.98v-51.71h23c28.2-.37,43.14-14.65,43.14-39.4"/>
      </g>
      <rect class="cls-2" x="179.32" y="886.05" width="1407.21" height="32.47"/>
      <rect class="cls-2" x="80.25" y="85.67" width="32.47" height="1371.09"/>
      <rect class="cls-2" x="1653.19" y="85.67" width="32.33" height="1371.09"/>
      <rect class="cls-2" x="179.32" y="80.24" width="1407.21" height="32.47"/>
      <rect class="cls-2" x="179.32" y="1429.73" width="1407.21" height="32.47"/>
    </g>
  </g>
</svg>