<?xml version="1.0" encoding="UTF-8"?>
<svg id="Livello_2" data-name="Livello 2" xmlns="http://www.w3.org/2000/svg" xmlns:xlink="http://www.w3.org/1999/xlink" viewBox="0 0 570.33 530.38">
  <defs>
    <style>
      .cls-1 {
        fill: none;
      }

      .cls-2 {
        clip-path: url(#clippath-1);
      }

      .cls-3 {
        clip-path: url(#clippath-3);
      }

      .cls-4 {
        clip-path: url(#clippath-4);
      }

      .cls-5 {
        clip-path: url(#clippath-2);
      }

      .cls-6 {
        clip-path: url(#clippath-6);
      }

      .cls-7 {
        clip-path: url(#clippath-5);
      }

      .cls-8 {
        fill: #fff;
      }

      .cls-9 {
        clip-path: url(#clippath);
      }
    </style>
    <clipPath id="clippath">
      <rect class="cls-1" y="2.52" width="570.33" height="527.86"/>
    </clipPath>
    <clipPath id="clippath-1">
      <rect class="cls-1" width="570.33" height="530.38"/>
    </clipPath>
    <clipPath id="clippath-2">
      <rect class="cls-1" width="570.33" height="530.38"/>
    </clipPath>
    <clipPath id="clippath-3">
      <rect class="cls-1" y="2.52" width="570.33" height="527.86"/>
    </clipPath>
    <clipPath id="clippath-4">
      <rect class="cls-1" width="570.33" height="530.38"/>
    </clipPath>
    <clipPath id="clippath-5">
      <rect class="cls-1" y="2.52" width="570.33" height="527.86"/>
    </clipPath>
    <clipPath id="clippath-6">
      <rect class="cls-1" width="570.33" height="530.38"/>
    </clipPath>
  </defs>
  <g id="Livello_1-2" data-name="Livello 1">
    <g>
      <polygon class="cls-8" points="311.8 0 310.82 .06 308.84 4.42 312.94 2.24 311.8 0"/>
      <polygon class="cls-8" points="365.41 17.77 367.49 16.05 362.77 12.37 365.41 17.77"/>
      <polygon class="cls-8" points="374.07 29.15 376.99 26.81 374.75 24.13 374.07 29.15"/>
      <g class="cls-9">
        <path class="cls-8" d="M303.38,56.06l3.68.14,9.78,18.92c-2.3.2-1.24.56-3.36.56-1.32,0-9.04-17.24-10.1-19.62M262.95,77.34l-3.18-.78,11.68-20.36,4.4-.74-12.9,21.88ZM232.17,63.34c-1.3,0-1.68-.38-1.68-1.68v-.56c0-5.24,45.11-12.32,56.07-12.32h7.86c10,0,53.83,7.06,53.83,12.32,0,1.5-.8,1.66-1.68,2.24-8.12-1.88-16.26-5.58-25.64-7.42-8.98-1.78-19.5-3.22-30.43-3.22h-4.5c-9.94,0-20.04,1.62-28.25,3.7-3.98,1-24.58,6.94-25.58,6.94M381.89,54.94c-1.28,0-1.68-.4-1.68-1.68v-2.24c0-2.78,3.02-10.1,5.04-10.1,1.74,0,2.26,1.64,2.26,3.38v1.1c0,4.04-2.62,9.54-5.62,9.54M224.33,39.8c2.5-.2,10.82-3.52,14.12-4.36,5.28-1.34,8.98-2.6,14.98-3.54,10.56-1.66,20.34-3.86,33.13-3.86h10.66c6.72,0,24.3,2.86,29.83,4.38,4.32,1.18,9.68,2.38,13.48,3.34,5.06,1.28,8.82,3,13.32,4.04-.84,3.2-6.72,7.04-6.72,13.46v3.36c-1.08-.08-11.26-3.32-12.9-3.92-2.92-1.04-10.46-2.78-13.58-3.24-10.48-1.58-19.1-2.92-31.27-2.92h-5.62c-9.86,0-19.8,1.86-28.27,3.7-6.56,1.42-21.04,6.62-25,6.94,0-11.84-2.64-10.66-6.16-17.38M190.66,43.72h-1.1c-1.32,0-2.82-1.48-2.82-2.8,0-4.14,3.76-9.02,6.18-10.64.8,1.22,1.68,1.86,1.68,3.92v2.24c0,2.58-1.62,7.28-3.94,7.28M340.97-19.63h-2.8c-3.32,2.88-9.54,5.78-9.54,11.78V-3.39l-6.72,1.7c1.46-2.18,4.48-3.76,4.48-7.28,0-3.14-1.1-7.84-3.92-7.84h-.56c-4.48,0-9.2,6.26-10.1,10.08-2.28-1.68-1.9-5.04-6.16-5.04-4.6,0-7.86,7.44-7.86,12.32v1.14c0,4.08,1.18,5.96,2.8,8.4-.98,1.46-7.24,8.4-8.96,8.4h-6.18c-.44,0-11.56-7.86-16.26-8.96.92-3.42,7.3-6.66,7.3-11.22v-1.68c0-3.44-3.12-7.84-6.18-7.84-3.54,0-7.84,7.44-7.84,11.2v1.12c0,2.66.62,4.06,1.1,6.26l-7.82-2.32c.26-3.34,2.8-7.48,2.8-12.34v-1.12c0-3.5-3.12-5.6-6.74-5.6h-1.12c-2.04,0-4.48,3.88-4.48,6.16V-1.69c0,1.3,1.2,4.06,1.66,5.22l-7.82-.74c.28-3.46,2.8-5.3,2.8-10.64v-1.12c0-3.3-2.68-6.16-6.18-6.16-2.84,0-6.16,3.3-6.16,6.16v1.12c0,6.62,1.4,6.88,3.92,10.64h-7.28c-1.32-5.64-4.58-14.56-11.22-14.56h-2.24c-2.18,0-5.04,2.14-5.04,3.92v1.12c0,7.82,6.72,8.28,10.08,11.16l-4.48,1.18c-2.86-1.92-7.56-7.86-11.78-7.86h-1.68c-4.44,0-8.96,1.9-8.96,6.16v2.26c0,3.08,6.34,5.6,10.2,5.72l-1.8,1.56c-2.78-1.86-7.72-3.92-12.34-3.92s-9.52,3.52-9.52,7.84v1.68c0,3.88,3.3,5.04,7.28,5.04-3.12,2.18-14.58,2.48-14.58,10.66,0,2.28,3.1,6.16,5.06,6.16,3.28,0,8.12-4.06,9.62-6.26l.46.66c.1.1-.24.12-.26.3-.06.36-.38.46-.48.64-.34.66-.18.22-.5,1.18-.26.84-.44,1.5-.44,2.92v1.68c0,1.8,2.86,3.94,5.06,3.94h1.1c4.32,0,5.88-5.86,6.74-9.54,1.56,1.06,2.36,1.68,5.04,1.68,4.56,0,5.82-5.28,6.18-9.52,2.22,1.48,2.18,2.8,6.16,2.8h.56c3.62,0,5.6-7,5.6-11.22,0-4.64-2.04-5.56-2.82-8.5l7.88-1.02c-1.1,2.06-4.5,7.34-4.5,10.08v5.06c0,1.34.92,1.64,1.7,2.8h2.8c-1.84,2.5-10.1,2.48-10.1,6.72v1.12c0,3.54,2.5,5.04,6.04,5.18l2.38,2.1c-1.44,2.14-3.94,3.06-3.94,6.18v.56c0,2.76,2.28,5.04,5.06,5.04h2.8v7.28c0,4.16,24.06,10.66,30.29,10.66-.38,1.6-1.68,3.26-1.68,3.36,0,1.88,5.56,2.96,7.2,3.32l2.88-5.02,20.76,1.14,5.62.22,16.84-1.36,1.68,4.04,7.92-2.92-.68-2.78c7.78,0,31.41-6.08,31.41-12.34v-1.12c0-1.94-1.12-.86-1.12-2.8v-1.68c4.16,0,7.3-1.02,7.3-5.04v-1.12c0-2.82-1.6-3.26-2.94-5.18l3.5-3.24h2.8c1.88-1.26,2.8-2.44,2.8-5.6,0-3.96-12.1-6.42-15.7-7.84-2.4-.94-6.6-2.08-9.08-2.7-1.56-.38-3.28-.9-4.52-1.1-4.5-.7-2.66.62-2.66-2.36v-1.7c1.26.3,1.3.56,2.8.56h3.36c2.4,0,3.42-.9,3.94-2.8,3.3.28,3.94,2.24,7.84,2.24h2.82c1.08,4.7,5.3,8.98,11.2,8.98,1.56,2.92,3.2,6.38,7.3,6.72-.46,1.96-1.12,1.88-1.12,3.92v3.38c0,2.3,3.08,3.36,5.6,3.36,3.94,0,6.42-5.36,6.92-9.08l1.48,2.9c-1.98,2.96-5.04,5.38-5.04,10.66v2.8c0,1.88.98,3.92,2.8,3.92h1.12c3.46,0,7.86-5.52,7.86-8.96v-4.5c0-2.6-1.12-1.76-1.12-5.6.5.26,3.6,1.68,3.92,1.68h2.24c2.06,0,4.48-1.54,4.48-3.36v-2.8c0-6.32-10.16-12.32-17.32-12.36l-2.3-3.34c2,.46,3.92,1.68,5.6,1.68h3.38c2.76,0,5.04-2.26,5.04-5.04v-1.12c0-5.5-10.24-8.4-16.26-8.4h-1.12c-2.06,0-5.42,1.92-6.56,2.6l-2.98-2.6c5.76,0,12.34-.7,12.34-6.18v-2.24c0-2.96-5.8-3.36-8.96-3.36-2.64,0-6.8,1.12-8.52,2.34l-.46-.66c-.1-.1.3-.32.34-.22.08.18.46-.38.56-.54.14-.2.56-1,.6-1.1.38-.9.74-2.2.74-3.18,0-1.96-.8-4.48-2.8-4.48h-3.92c-5.38,0-12.78,5.08-12.9,10.64h-7.3c2.42-2.1,7.3-4.74,7.3-8.96v-1.12c0-3.26-1.12-4.14-2.8-5.62M374.61,43.72h-.56c-1.32,0-2.8-1.48-2.8-2.8,0-4.1,4.24-10.94,7.28-11.76.86,3.66,1.52,14.56-3.92,14.56M202.44,35.88c-2.62,0-3.92-1.3-3.92-3.92v-.56c0-3.26,2.58-8.08,3.92-10.08,2.1,1.38,3.36,2.66,3.36,6.16v3.36c0,1.92-1.44,5.04-3.36,5.04M365.07,24.09c0-2.8,2.22-5.02,3.94-6.16,1.26.92,2.8,3.46,2.8,5.62v5.04c0,1.74-1.04,3.24-1.68,4.48-2.58-.6-5.06-3.28-5.06-6.16v-2.82ZM176.66,38.12h-.56c-1.74,0-2.26-1.64-2.26-3.36,0-5.18,8.02-7.84,13.46-7.84-.96,4.14-5.82,11.2-10.64,11.2M194.6,28.04c0-.54,1.08-1.36,1.54-1.82.56-.58.34-.3.82-.86.12-.12.24-.88.44-.68l.66.46c-.94,1.3-1.22,1.94-1.22,4.02,0,1.6-.18,1.02-1.12,1.68-.64-2.38-1.12-.98-1.12-2.8M218.14,35.88c0-3.7,26.88-9.64,32.41-10.78,11.54-2.4,23.98-4.36,38.27-4.36h6.72c11.58,0,65.05,9.38,65.05,15.14,0,1.32-.74,2.8-2.24,2.8h-.56c-1.52,0-12.36-4.3-15.12-5.06-5.46-1.5-10.8-2.64-16.42-3.76-11.38-2.26-22.88-4.06-36.31-4.06h-10.66c-8.34,0-23.44,3.02-31.19,4.7-4.62,1-27.02,8.18-27.14,8.18h-.56c-1.3,0-2.24-.92-2.24-2.24v-.56ZM384.13,23.55c5.26.42,12.9,6.18,12.9,11.76,0,1.32-.92,2.24-2.24,2.24h-.56c-6.44,0-7.9-9.12-10.1-14M244.51,15.13c0-2.04-.5-1.34-.56-3.92l7.86,1.02c-2.4,2.18-7.86,5.52-7.86,9.62v2.24l-2.78.68c.76-3.08,3.34-3.66,3.34-9.64M223.75,22.41c0-3.5,2.5-8.62,4.5-10.08,1.24,2.36,1.68,5.34,1.68,8.98v.54c0,2.06-1.54,4.5-3.36,4.5h-1.12c-1.3,0-1.7-.4-1.7-1.68v-2.26ZM210.86,22.41c0-3.28,3.54-7.02,5.6-8.4.6,1.12,2.24,4.66,2.24,6.16v1.14c0,2.96-1.76,7.84-4.48,7.84-1.42,0-3.36-1.22-3.36-2.8v-3.94ZM353.85,14.57c0-3.04,1.06-4.38,2.26-6.16,1.94,1.3,7.28,8.2,7.28,11.2v.56c0,2.08-1,4.76-1.68,6.18-3.26-1.58-7.86-2.84-7.86-7.86v-3.92ZM257.97,14.01l.22-.52,12.38,5.5-13.16,2.36c.28-1.3.56-1.34.56-2.86v-4.48ZM246.19,22.99c.36-4.38,5.82-8.68,9.54-9.54v4.48c0,2.06-.88,2.72-1.7,3.92l-7.84,1.14ZM311.62,12.11l3.32,8.16-11.26-1.54,7.94-6.62ZM232.73,21.31c0-3.28,6.3-8.84,8.98-9.54.28,1.26.56,1.28.56,2.8v1.68c0,2.36-3.32,8.42-5.62,8.42h-1.68c-1.3,0-2.24-.94-2.24-2.26v-1.1ZM212.02,14.07l.62.4c-1.3.98-4.02,4.72-4.02,6.84v2.78h-1.12l-3.44-5.16,7.96-4.86ZM180.58,17.93c0-3.1,3.24-5.6,6.16-5.6h2.82c3.28,0,6.24,1.1,8.4,2.24-1.3,1.94-6.48,6.74-9.54,6.74h-5.6c-1.32,0-2.24-.94-2.24-2.26v-1.12ZM328.62,20.73c0,.8-.76,1.12-1.68,1.12h-2.24c-6.82,0-10.52-5.04-10.66-11.2,5.62.12,14.58,4.86,14.58,10.08M338.73,16.25c0,1.3-.4,1.68-1.7,1.68h-3.36c-3.2,0-7.84-5.14-7.84-8.4v-3.36h1.68c4.04,0,11.22,5.98,11.22,10.08M230.51,10.65h7.82l-6.54,5.56-1.28-5.56ZM379.09,7.29c3.74,0,12.34,3.2,12.34,6.16v1.12c0,1.3-1.5,2.8-2.8,2.8h-1.7c-5.46,0-12.88-5.06-15.12-8.4,1.9-1.02,3.78-1.68,6.72-1.68h.56ZM338.73,3.91c5.86.5,11.76,6.48,11.76,13.46-7.54,0-11.76-3.66-11.76-11.2v-2.26ZM322.86,5.85l.8,4.78-6.94-1.94,6.14-2.84ZM189.56,28.6c.1-5.12,11.9-13.6,15.92-16.04,6.16-3.72,14.86-7.5,24.44-7.5h7.28c11.56,0,41.41,7.54,43.75,14h-4.48c-1.88,0-11.66-5.72-17.06-7.06-6.48-1.58-12.64-3.58-20.5-3.58h-12.34c-20.48,0-33.49,19.88-37.01,20.18M201.32-.07c2.9-.36,8.84,4.9,10.1,6.8-2.78,1.46-4.7,2.24-8.98,2.24h-3.92c-1.26,0-4.48-2.32-4.48-3.92,0-2.56,1.2-2.94,2.26-4.38l5.02-.74ZM352.03,11.15l-5.56-6.2.56-.56,6.82,2.38-1.82,4.38ZM330.2,4.11l6.26-.2.1,3.78-6.36-3.58ZM296.1,19.05c.86-3.26,13.1-12.44,16.62-14.2,6.88-3.42,13.66-6.54,23.74-6.54h2.82c19.92,0,47.09,21.8,47.09,40.37-2.76-.3-3.18-4.74-4.28-6.92-1.38-2.72-2.26-4.36-3.74-6.9-2.26-3.92-6.94-8.8-10.36-11.5-7.84-6.18-17.16-12.24-30.97-12.24-8.4,0-15.96,2.52-21.28,5.62-3.58,2.08-13.56,8.48-14.6,12.32h-5.04ZM359.47,0c0-1.92,6.82-4.48,9.54-4.48,2.48,0,7.84-.08,7.84,2.24v1.12c0,2.3-3.08,3.38-5.6,3.38h-2.82c-2.62,0-8.96.28-8.96-2.26M264.69,1.11c0-3.16,2.9-9.52,5.6-9.52h.56c2.32,0,3.38,3.08,3.38,5.6v1.12c0,2.66-5.66,7.82-7.86,8.98-.84-1.62-1.68-3.14-1.68-5.6v-.58ZM300.02,0c0-3.16,2.92-9.52,5.62-9.52,1.98,0,3.92,3.48,3.92,5.6,0,4.06-4.74,10.08-7.3,11.78-1.72-1.28-2.24-3.74-2.24-6.74V0ZM248.43-7.29c0-2.04,1.54-4.48,3.36-4.48h1.68c1.32,0,2.26.92,2.26,2.24v4.48c0,3.32-1.56,8.2-3.38,9.52-2.24-1.5-3.92-3.52-3.92-7.28v-4.48ZM210.86-7.29c0-.6,1.64-2.24,2.8-2.24h1.12c5.44,0,9.1,6.64,9.54,11.78-6.76,0-13.46-3.1-13.46-9.54M232.73-8.97c0-1.36,2.58-3.92,3.92-3.92,2.2,0,3.94,2.08,3.94,4.48,0,4.84-1.96,6.46-2.82,10.1-3-.82-5.04-4.02-5.04-7.86v-2.8ZM313.48-2.25c0-6.58,3.6-11.08,8.98-12.32.66,1.24,1.68,2.72,1.68,4.48v.56c0,3.82-10.66,12.9-10.66,7.84v-.56ZM346.01-3.37c.12-5.66,6.96-8.96,12.9-8.96h.56c1.3,0,1.68.38,1.68,1.68v.56c0,5.8-9.1,6.72-15.14,6.72M330.3-5.61c0-4.82,5.02-11.2,9.54-11.2.68,0,1.68,1.14,1.68,2.24v1.12c0,4.1-11.22,12.42-11.22,7.84"/>
      </g>
      <g class="cls-2">
        <path class="cls-8" d="M279.27,37.56v.56c0,2.1,4.78,5.6,7.3,5.6h4.48c3.22,0,7.84-2.56,7.84-5.04v-1.68c0-3.36-4.3-6.16-7.28-6.16h-2.8c-4.62,0-9.54,2.4-9.54,6.72"/>
        <path class="cls-8" d="M321.9,42.61c0,3.88,5,6.72,8.98,6.72h3.36c2.94,0,6.16-2.5,6.16-5.6,0-4.5-5.9-7.28-10.64-7.28-2.98,0-7.86,2.44-7.86,5.04v1.12Z"/>
        <path class="cls-8" d="M244.51,49.9c4.82,0,10.66-2.8,10.66-7.28,0-3.12-3.24-5.62-6.18-5.62h-2.8c-3.78,0-9.52,3.36-9.52,6.74,0,4.08,3.18,6.16,7.28,6.16h.56Z"/>
        <path class="cls-8" d="M356.1,142.4v1.12c0,.84,1.56,3.36,2.24,3.36,2.06,0,1.68-2.24,5.04-2.24,1.6,0,3.94,1.12,3.94,2.24,0,3.02-1.68,2.66-1.68,4.48,0,1,1.7,3.12,2.24,3.94-.82,1.2-1.68,1.86-1.68,3.92v1.12c0,2.74,2.2,1.16,3.36.56.44.3,1.38,1.12,1.68,1.12,1.26,0,1.22-.44,2.24-1.12.68.38.6.56,1.68.56,1.3,0,1.68-.4,1.68-1.68v-.56c0-2.06-.86-2.72-1.68-3.92.54-.82,2.24-2.94,2.24-3.94,0-1.72-1.68-1.84-1.68-3.92,0-.96,2.68-2.8,3.92-2.8,2.82,0,3.26,1.6,5.06,2.8,1.52-1.02,2.24-2.6,2.24-5.04,0-5.28-4.22-6.38-8.32-7.94-1.66-.62-1.92-3.78-2.88-5.52-.88-1.58-2.76-2.72-3.94-4.48-4.22,2.82-6.24,9.44-6.96,9.86-2.96,1.68-8.74,1.88-8.74,8.08"/>
        <path class="cls-8" d="M324.14,143.52c0,2.28.88,3.02,2.24,3.92,1.8-1.2,2.24-2.8,5.06-2.8h.56c1.2,0,3.36,2.24,3.36,2.8,0,1.74-1.7,1.86-1.7,3.92,0,1.78,1.7,2.76,1.7,3.38,0,1.66-1.12,1.48-1.12,3.92l.02,2.94,3.4-.78,1.64,1.22,2.2-1,2.82.42v-3.92c0-1.86-1.12-1.18-1.12-2.24,0-1,1.7-3.12,2.24-3.94-.22-.34-2.24-3.28-2.24-3.36,0-1.58,2.34-3.36,3.92-3.36,2.64,0,4.62,2.24,5.06,2.24,1.72,0,2.24-1.64,2.24-3.36v-2.24c0-3.98-4.82-6.72-8.98-6.72-.32-4-3.52-8.34-6.16-10.1-3.9,2.62-5.48,9.5-6.82,10-5.14,1.92-8.32,1.64-8.32,9.06"/>
        <path class="cls-8" d="M292.17,141.28v3.36c0,1.08,1,2.24,1.68,2.24,1.76,0,1.92-2.24,5.6-2.24,1.26,0,3.94,1.84,3.94,2.8,0,1.54-2.24,3.16-2.24,3.94,0,.98,1.7,3.12,2.24,3.92-.68,1-1.12.98-1.12,2.24l-.02,3.86,4.5.06c2.48-.1,5.6.38,5.6-1.68v-1.12c0-2.14-1.12-2.8-1.12-3.36,0-2.08,1.68-2.2,1.68-3.92s-1.68-1.86-1.68-3.94c0-.54,2.16-2.8,3.36-2.8h.56c2.82,0,3.26,1.6,5.06,2.8,1.36-.9,2.24-1.64,2.24-3.92v-1.68c0-6.38-6-5.86-8.74-7.52-.54-.32-2.92-7.54-6.4-9.86-5.5,3.68-3.86,6.34-6.36,9.34-1.26,1.52-8.78,1.56-8.78,7.48"/>
        <path class="cls-8" d="M339.28,214.73c0,2.74.58,3.94,2.24,5.04,1.3-.88,2.92-2.24,5.06-2.24h.56c1.2,0,3.36,2.26,3.36,2.8,0,2.08-1.68,2.2-1.68,3.92,0,.84,1.2,2.48,1.68,3.38-.48,2-1.12,2.62-1.12,5.04,0,1.98,3.32,1.68,5.6,1.68,1.08,0,1-.18,1.68-.56,1.14.6,3.36,2.18,3.36-.56v-1.12c0-3.02-1.68-2.66-1.68-4.48,0-1.12,2.24-1.4,2.24-3.38,0-1.82-1.68-1.46-1.68-4.48,0-.92,2.24-2.24,3.36-2.24,3.7,0,3.86,2.24,5.62,2.24,1.12,0,2.24-2.32,2.24-3.92,0-4.18-3.9-8.4-7.86-8.4h-1.68c-.34-4.14-3.48-8.3-6.16-10.1-4.52,3.02-4.7,8.8-6.52,9.74-3.4,1.74-8.62,1.82-8.62,7.64"/>
        <path class="cls-8" d="M309.56,219.77c.1,0,2.9-2.24,5.6-2.24.9,0,3.36,1.9,3.36,3.36,0,.08-2,3.02-2.24,3.36.24.36,2.24,3.3,2.24,3.38,0,1.66-1.1,1.48-1.1,3.92v2.8l5.02-.28,5.06.2v-2.72c0-2.44-1.12-2.26-1.12-3.92,0-.08,2.02-3.02,2.24-3.38-.76-1.12-2.24-2.26-2.24-3.92,0-.96,2.68-2.8,3.92-2.8,2.28,0,4.4,2.24,5.62,2.24,1.04,0,1.68-2.06,1.68-3.36v-1.12c0-4.98-3.92-7.86-8.98-7.86-2.1-4.36-1.94-7.24-6.16-10.08-3.94,2.64-5.92,9.6-6.4,9.86-2.36,1.36-8.74,1.16-8.74,6.96v2.24c0,1.72.52,3.36,2.24,3.36"/>
        <path class="cls-8" d="M326.38,293.22c.92,0,1.36-2.24,4.48-2.24h1.12c1.56,0,2.72,1.82,3.36,2.8-.52.8-2.24,2.92-2.24,3.92,0,.78,2.24,2.4,2.24,3.92,0,1.08-1.12.38-1.12,2.26v3.92l2.92-.82c.9.38.88.82,2.14.82s1.22-.44,2.24-1.12l2.74,1.3.06-4.1c0-1.96-1.12-.86-1.12-2.8,0-.78,2.24-2.4,2.24-3.94,0-.08-2-3.02-2.24-3.36.66-.98,1.82-2.8,3.36-2.8h1.12c3.38,0,3,2.24,5.06,2.24,1.04,0,1.68-2.06,1.68-3.36v-2.24c0-3.84-5.08-7.2-8.98-7.3l.54-.32-6.08-9.6-1.2.02-6.12,9.58.52.32c-3.9.1-8.96,3.46-8.96,7.3v2.24c0,1.72.52,3.36,2.24,3.36"/>
        <path class="cls-8" d="M257.96,332.46v-98.1h30.29v119.4c-1.56-.4-10.42-9.54-13.9-11.88-2.72-1.8-4.88-3.56-7.96-4.94-1.74-.76-8.42-2.48-8.42-4.48M290.48,99.24h97.58v189.49c0,25.84-14.56,40.65-39.79,41.51-13.58.46-25.38,1.42-34.79,6.16-4.56,2.28-8.66,4.48-12.5,7.68-3.4,2.84-7.58,7.74-10.5,9.68V99.24ZM190.11,234.92h30.29v94.18c-9.8-.22-19.64-7.88-23.56-14.56-5.24-8.9-6.72-16.84-6.72-30.85v-48.77ZM190.11,99.24h30.29v97.56h-30.29v-97.56ZM257.96,99.24h29.73v97h-29.73v-97ZM187.86,285.93c0,30.03,12.24,44.59,40.39,46.53,15.58,1.08,25.6.84,37.21,6.54,11.68,5.72,15.78,14.38,23.9,19.82,3.46-5.18,16.68-16.2,22.8-19.26,11.36-5.66,19.54-6.04,34.97-7.1,13.44-.92,24-3.5,31.27-10.78,5.86-5.88,11.92-18.54,11.92-30.15V97h-202.46v188.93Z"/>
        <path class="cls-8" d="M182.81,91.94h212.54v202.96c0,11.44-7.68,25.38-13.6,31.27-7.22,7.16-19.38,11.4-32.93,11.92-15.96.62-26.48,1.62-37.01,7.84-4.92,2.92-8.48,5.92-12.5,9.94-2.78,2.78-8.28,9.86-10.5,11.36-5.64-8.42-14.56-16.76-23.54-21.88-4.96-2.84-10.44-4.44-17.04-5.94-6.6-1.52-14.42-.42-20.88-1.56-17.74-3.14-21.2-2.64-32.05-13.36-6.34-6.28-12.48-20.46-12.48-32.95V91.94ZM180.57,291.54c0,14.12,5.92,26.24,12.48,34.07,7.26,8.62,18.16,13.34,32.95,14.14,15.44.86,28.63,1.96,39.07,8.04,6.76,3.92,20.26,16.78,23.74,23.36,1.66-1.12,8.24-9.64,10.78-12.2,3.92-3.92,8.04-7.9,12.76-10.78,3.64-2.22,12.24-5.58,17.4-6.16,3.26-.36,6.84-.86,10.3-1.46,3.62-.64,7.7.2,11.32-.46,14.76-2.68,25.66-3.84,33.43-13.68,6.94-8.8,12.78-18.74,12.78-34.31V89.7h-217.02v201.84Z"/>
        <path class="cls-8" d="M281.52,401.43c1.68.14,2.8.4,2.8,2.24v45.97c0,2.68-1.8.6-2.8,3.36h20.74c-1-2.76-2.8-.68-2.8-3.36v-46.53c0-1.86,1-1.64,2.8-1.68v-1.68h-20.74v1.68Z"/>
        <path class="cls-8" d="M104.3,422.17h-18.5v-10.64h18.5c2.84,0,5.62,2.02,5.62,5.04v.56c0,3.02-2.78,5.04-5.62,5.04M67.3,401.43c1.8.04,2.8-.18,2.8,1.68v46.53c0,1.88-1,1.64-2.8,1.7v1.68h20.74c-.82-2.26-2.24-1.14-2.24-3.38v-16.24h8.42c1.7,0,12.3,14.88,12.74,17.2l-2.1,2.42h21.32c-.04-.12-13.04-17.32-14.58-19.62,6.12-2.94,14-5.26,14-14.02v-5.04c0-11.28-10.46-14.58-21.86-14.58h-36.45v1.68Z"/>
      </g>
      <polygon class="cls-8" points="230.17 451.22 228.25 453 249.55 453 249.55 451.32 247.67 451.24 268.33 402.21 269.73 399.75 252.35 399.75 252.35 401.43 253.47 401.43 254.13 401.71 240.17 432.46 226.57 402.55 228.25 399.75 207.56 399.71 230.17 451.22"/>
      <g class="cls-5">
        <path class="cls-8" d="M18.5,411.51h17.38c2.84,0,5.6,2.04,5.6,5.06v1.68c0,2.48-3.86,4.48-6.72,4.48h-16.26v-11.22ZM0,401.43c1.8.04,2.8-.18,2.8,1.68v46.53c0,1.88-1,1.64-2.8,1.68v1.68h21.3v-1.68c-1.8-.04-2.8.2-2.8-1.68v-15.68h17.38c9.64,0,19.62-5.64,19.62-14.58v-5.04c0-9.24-10.18-14.58-20.16-14.6-11.78,0-23.56.02-35.35.02v1.68Z"/>
        <path class="cls-8" d="M152.54,423.3c0-5.2,7.92-11.22,13.46-11.22h3.92c8.5,0,15.14,6.42,15.14,15.14,0,8.1-8.28,14.02-16.82,14.02-6.94,0-15.7-5.46-15.7-11.78v-6.16ZM136.84,426.1c0,17.12,13.08,27.47,30.29,27.47h6.16c13.44,0,26.92-11.88,26.92-25.78v-2.24c0-16.06-14.58-26.34-30.85-26.34-17.82,0-32.53,9.54-32.53,26.9"/>
        <path class="cls-8" d="M319.09,401.43c1.8.04,2.8-.18,2.8,1.68v46.53c0,2.24-1.42,1.1-2.24,3.36h19.06l.32-.5-3.12-1.74.22-31.59,29.37,31.77-.4.48-2.26.48v1.1h19.06v-1.1c-1.68-.16-2.8-.42-2.8-2.26v-45.97c0-1.84,1.12-2.1,2.8-2.24v-1.68l-18.86.22,2.04,2.02v26.9c-2.98-1.98-22.86-23.92-23.24-26.56l2.32-2.14-.38-.44h-24.68v1.68Z"/>
        <path class="cls-8" d="M395.36,426.09c0,15.56,14.38,27.47,29.73,27.47h7.28c8.12,0,20.78-5.18,22.98-4.92l2.8-.1-10.08-16.28c-2.5.68-1.62.68-1.12,2.82-4.02,2.68-10.2,5.04-16.82,5.04-9.08,0-18.5-4.14-18.5-12.9v-.56c0-8.74,7.66-13.46,16.26-13.46h6.16c3.52,0,12.34,1.66,12.34,4.5v1.68c2.22-.6,9.44-14.02,10.1-16.82-2.22.18-1.36.56-2.8.56-2.36,0-8.12-2.14-10.8-2.68-3.74-.74-7.92-1.24-12.2-1.24-18.38,0-35.33,9.18-35.33,26.9"/>
        <path class="cls-8" d="M536.24,411.01l1-.06,8.76,22.28-18,.06,8.24-22.28ZM526.02,402.55c-1.76,7.52-6.9,18.02-9.6,25.7-1.44,4.08-3.08,8.36-4.8,12.6-.94,2.3-1.62,4.22-2.5,6.46-1.04,2.66-3.02,4.68-3.28,5.7l18.16-.26-1.98-2.02,2.88-8.94h24.1c.5,2.08,3.38,8.26,3.38,8.96,0,1.34-.88.02-1.7,2.26h19.64c-.48-1.78-1.96-2.66-3.2-5.78-.92-2.34-1.64-4.06-2.58-6.38-1.8-4.48-3.42-8.2-5.2-12.74-2.88-7.28-8.7-19.1-10.06-25.9l1.4-2.46-26.68.28,2.02,2.52Z"/>
        <path class="cls-8" d="M471.62,401.43c1.8.04,2.8-.18,2.8,1.68v46.53c0,1.88-1,1.64-2.8,1.68v1.68h20.74c-.8-2.26-2.24-1.12-2.24-3.36v-47.63l2.8-.58v-1.68h-21.3v1.68Z"/>
      </g>
      <polygon class="cls-8" points="198.52 500.13 216.47 499.53 199.08 499.53 199.08 488.89 215.89 488.89 198.52 488.33 198.52 500.13"/>
      <g class="cls-3">
        <path class="cls-8" d="M216.47,499.54l-17.94.6v-11.8l17.38.54c2.7,0,5.6.98,5.6,3.38v2.24c0,3.02-2.18,4.8-5.04,5.04M183.38,480.48v45.97c0,1.84-1.14,2.1-2.8,2.26v1.68h20.74v-1.68c-1.68-.16-2.8-.42-2.8-2.26v-15.68h20.74c9.34,0,16.82-7.44,16.82-17.38v-1.12c0-7.38-8.2-15.14-15.7-15.14h-39.81c1,2.76,2.8.68,2.8,3.36"/>
      </g>
      <g class="cls-4">
        <path class="cls-8" d="M390.31,480.48v45.97c0,3.1-2.4.2-2.8,3.92h17.94v-1.68c-4.2-.08-2.8-2.68-2.8-7.28v-10.08c0-6.92,0-13.84.2-20.84l17.54,38.69,17.58-37.47v29.71c0,4.6,1.4,7.2-2.8,7.28v1.68h20.74c-.4-3.72-2.8-.82-2.8-3.92v-45.97c0-1.86,1-1.64,2.8-1.68v-1.68h-27.49c.72,1.96,2.26,1.68,2.26,2.8,0,1.9-9,19.94-10.1,20.74l-9.52-21.62h.7l2.1-1.92h-26.36c1,2.76,2.8.68,2.8,3.36"/>
      </g>
      <g class="cls-7">
        <path class="cls-8" d="M268.74,487.82l9.64,22.28-18.06.14,8.42-22.42ZM258.62,479.26c-1.6,6.58-7.04,19.08-9.7,25.8-1.64,4.16-3.22,8.76-4.98,12.98-.88,2.14-1.54,4.14-2.46,6.5-1.1,2.78-2.98,4.44-3.14,5.82h17.94v-1.66l-1.94-.1,3.06-10h24.12c.2,2.5,2.8,7.02,2.8,8.4,0,3.1-1.26-.5-1.68,3.36h20.18c-.1-.98-2.28-3.84-3.18-5.78-1.02-2.22-1.68-4.1-2.6-6.38-1.82-4.54-3.64-8.78-5.36-13.14-1.88-4.8-9.84-22.32-10.16-26.26h1.68v-1.68l-26.58.24,2,1.9Z"/>
        <path class="cls-8" d="M111.6,478.8c1.8.04,2.8-.18,2.8,1.68v45.97c0,3.1-2.4.2-2.8,3.94h21.3l-.02-1.58-2.78-.68v-47.65c0-2.22,1.42-1.1,2.24-3.36h-20.74v1.68Z"/>
      </g>
      <g class="cls-6">
        <path class="cls-8" d="M333.11,488.32h17.94c2.06,0,6.16,1.78,6.16,3.94v3.36c0,1.82-2.42,3.36-4.48,3.36h-19.62v-10.66ZM317.97,480.48v45.97c0,1.84-1.14,2.1-2.8,2.24v1.68h20.74v-1.68c-1.66-.14-2.8-.4-2.8-2.24v-16.26h8.4c1.58,0,12.9,15.02,12.9,17.38,0,2.18-1.26-.9-1.68,2.8h21.32v-1.68c-2.82-.22-14.04-16.1-14.58-18.5,7.66-1.78,14.02-7.34,14.02-16.8,0-9.98-6.58-16.26-16.28-16.26h-42.05c1,2.76,2.8.68,2.8,3.36"/>
        <path class="cls-8" d="M498.21,487.86l.9-.1,8.84,22.48-18.04-.14,8.3-22.24ZM486.21,478.8h1.68c-.3,3.64-7.8,22.16-9.54,26.34-1.74,4.22-3.32,8.82-4.96,12.98-.88,2.26-1.56,4.14-2.48,6.48-1.26,3.14-3.02,4.1-3.2,5.76l18.28-.26-2.02-1.96c.48-2.1,2.42-9.54,4.48-9.54l22.3.06,3.5,8.92-1.68,2.78h19.62c0-.1-9.66-21.9-10.88-24.98-1.26-3.16-10.44-24.88-10.44-26.02,0-1.32.88-.02,1.7-2.24h-26.36v1.68Z"/>
        <path class="cls-8" d="M56.08,488.9h14.58c7.52,0,12.9,6.9,12.9,15.12v1.68c0,6.2-6.16,12.34-12.34,12.34h-15.14v-29.15ZM37.57,478.24l2.8.56v48.21c0,1.86-1,1.64-2.8,1.68v1.68h30.85c9.86,0,14.34-1.84,20.42-5.92,3.8-2.56,9.86-11.46,9.86-17.06v-3.36c0-16.1-9.3-26.9-25.24-26.9h-35.89v1.12Z"/>
      </g>
    </g>
  </g>
</svg>