<?xml version="1.0" encoding="UTF-8"?>
<svg id="Livello_2" data-name="Livello 2" xmlns="http://www.w3.org/2000/svg" xmlns:xlink="http://www.w3.org/1999/xlink" viewBox="0 0 774.05 673.17">
  <defs>
    <style>
      .cls-1 {
        fill: none;
      }

      .cls-2 {
        clip-path: url(#clippath-1);
      }

      .cls-3 {
        clip-path: url(#clippath-3);
      }

      .cls-4 {
        clip-path: url(#clippath-4);
      }

      .cls-5 {
        clip-path: url(#clippath-2);
      }

      .cls-6 {
        clip-path: url(#clippath-5);
      }

      .cls-7 {
        fill: #fff;
      }

      .cls-8 {
        clip-path: url(#clippath);
      }
    </style>
    <clipPath id="clippath">
      <rect class="cls-1" width="774.04" height="673.16"/>
    </clipPath>
    <clipPath id="clippath-1">
      <rect class="cls-1" width="774.04" height="673.16"/>
    </clipPath>
    <clipPath id="clippath-2">
      <rect class="cls-1" width="774.04" height="673.16"/>
    </clipPath>
    <clipPath id="clippath-3">
      <rect class="cls-1" width="774.04" height="673.16"/>
    </clipPath>
    <clipPath id="clippath-4">
      <rect class="cls-1" width="774.04" height="673.16"/>
    </clipPath>
    <clipPath id="clippath-5">
      <rect class="cls-1" width="774.04" height="673.16"/>
    </clipPath>
  </defs>
  <g id="Livello_1-2" data-name="Livello 1">
    <g>
      <g class="cls-8">
        <path class="cls-7" d="M35.85,540.06c-21.71,0-35.85-12.85-35.85-36.21v-54.93h17.17v54c0,13.63,6.22,22.2,18.82,22.2s19.1-8.05,19.1-21.81v-54.39h17.27v54.54c0,23.75-14.79,36.6-36.5,36.6"/>
      </g>
      <polygon class="cls-7" points="154.94 538.5 112.72 476.81 112.72 538.5 96.76 538.5 96.76 448.9 113 448.9 153.27 507.57 153.27 448.9 169.24 448.9 169.24 538.5 154.94 538.5"/>
      <rect class="cls-7" x="195.32" y="448.93" width="17.27" height="89.57"/>
      <polygon class="cls-7" points="281.69 538.89 264.81 538.89 231.82 451.1 250.02 448 273.9 516.69 297.39 448.88 315.33 448.88 281.69 538.89"/>
      <polygon class="cls-7" points="334.03 538.5 334.03 448.9 386.12 448.9 386.12 463.44 351.04 463.44 351.04 484.5 378.04 484.5 380.39 499.29 351.04 499.29 351.04 523.94 387.41 523.94 387.41 538.5 334.03 538.5"/>
      <g class="cls-2">
        <path class="cls-7" d="M473.65,536.16l-17.53,3.25-23.39-35.21h-7.8v34.28h-17.14v-89.57h27.8c19.98,0,32.06,9.47,32.06,26.87,0,12.98-6.89,21.17-17.91,25.19l23.9,35.18ZM434.28,462.67h-9.47v28.42h8.7c10.63,0,17.29-5.03,17.29-14.4s-5.73-14.02-16.52-14.02"/>
        <path class="cls-7" d="M515.72,539.54c-10.89,0-20.26-2.48-28.16-6.22l2.56-15.72c7.54,4.41,16.91,7.92,25.86,7.92,7.92,0,13.37-3.79,13.37-10.89,0-6.66-3.12-9.37-16.11-14.95-17.4-7.15-24.42-12.88-24.42-26.74,0-15.87,12.24-25.09,28.96-25.09,10.17,0,17.17,2.06,23.64,5.47l-2.58,15.59c-6.5-4.31-14.15-7.02-21.17-7.02-8.57,0-12.36,4.16-12.36,9.63s2.87,8.41,15.33,13.6c18.46,7.54,25.22,13.91,25.22,27.77,0,17.55-12.88,26.64-30.15,26.64"/>
      </g>
      <rect class="cls-7" x="567.64" y="448.93" width="17.29" height="89.57"/>
      <polygon class="cls-7" points="649.09 463.83 649.09 538.51 631.82 538.51 631.82 463.83 605.18 463.83 605.18 448.88 674.8 448.88 677.25 463.83 649.09 463.83"/>
      <path class="cls-7" d="M731.28,467.2l12.24,34.56h-24.42l12.18-34.56ZM722.84,448.49l-33.63,90.03h17.04l8.16-22.74h33.89l8.6,23.62,17.17-3.12-32.91-87.79h-18.3ZM708.44,425.77l18.3,16.13h10.27l-9.47-19.64-19.1,3.51Z"/>
      <g class="cls-5">
        <path class="cls-7" d="M102.01,672.25h-28.45v-89.6h28.45c31.18,0,47.26,18.33,47.26,44.66s-16.73,44.94-47.26,44.94M101.88,596.8h-11.15v61.3h10.89c18.84,0,30.15-9.63,30.15-30.64s-11.95-30.67-29.89-30.67"/>
      </g>
      <rect class="cls-7" x="172.14" y="582.64" width="17.32" height="89.62"/>
      <g class="cls-3">
        <path class="cls-7" d="M274.48,639.26h-7.64v32.99h-17.17v-89.6h26.25c20.52,0,32.86,9.47,32.86,27.52,0,19.33-13.78,29.09-34.3,29.09M275.02,596.42h-8.18v28.96h7.51c11.05,0,17.55-4.54,17.55-14.82,0-9.32-5.86-14.15-16.88-14.15"/>
      </g>
      <path class="cls-7" d="M354.75,600.97l12.21,34.51h-24.42l12.21-34.51ZM346.31,582.26l-33.63,90.01h17.01l8.16-22.74h33.89l8.6,23.64,17.17-3.12-32.91-87.79h-18.28Z"/>
      <g class="cls-4">
        <path class="cls-7" d="M482.02,669.91l-17.53,3.25-23.39-35.21h-7.8v34.28h-17.14v-89.57h27.8c19.98,0,32.06,9.47,32.06,26.87,0,12.98-6.89,21.17-17.89,25.19l23.88,35.18ZM442.66,596.42h-9.47v28.42h8.7c10.63,0,17.29-5.03,17.29-14.4s-5.73-14.02-16.52-14.02"/>
      </g>
      <polygon class="cls-7" points="571.26 582.66 548.62 650.31 525.9 582.66 504.07 582.66 497.23 672.25 512.66 672.25 517.21 606.79 539.95 672.51 554.99 672.51 577.61 606.79 582.41 672.25 599.52 672.25 592.66 582.66 571.26 582.66"/>
      <path class="cls-7" d="M657.73,600.97l12.21,34.51h-24.42l12.21-34.51ZM649.27,582.26l-33.63,90.01h17.04l8.16-22.74h33.89l8.57,23.64,17.19-3.12-32.91-87.79h-18.3Z"/>
      <g class="cls-6">
        <path class="cls-7" d="M554.95,204.72c0-93.18-75.58-168.76-168.79-168.76s-168.79,75.58-168.79,168.76c0,75.42,49.53,139.28,117.86,160.89.23,9.11.98,19.02,3.07,23.18.1.15.21.31.31.41,9.55,10.04,42.46.88,67.24-6.25.44,3.46,1.94,10.51,6.74,12.93,1.19.59,2.5.8,3.85.8,4.31,0,8.78-2.45,9.4-2.79.72-.44,1.06-1.26.88-2.09-.21-.77-.9-1.37-1.73-1.39-.1,0-2.27-.13-2.99-2.87,2.68-.26,5.63-.26,7.98-.08h.15c2.79-.05,5.29-1.68,6.43-4.13.21-.46.34-.9.44-1.39,0-.03.03-.08.03-.13.15-.88.13-1.76-.1-2.56l-.75-13.37c68.79-21.3,118.79-85.39,118.79-161.17M546.46,243.82c-25.68-17.01-26.04-39.13-25.86-49.46,5.63,9.47,10.04,11.8,15.98,11.8.57,0,1.16-.05,1.73-.08,1.08-.05,1.86-.98,1.81-2.01-.1-1.03-.98-1.88-2.01-1.76-4.96.28-9.24.54-17.42-15.77,3.92-2.32,8.91-7.25,11.59-11.05,1.32,1.19,2.66,2.01,3.98,2.12.05.03.1.03.15.03.98,0,1.81-.72,1.88-1.7.13-1.06-.65-1.99-1.68-2.06-.77-.1-1.88-1.08-3.15-2.58-.05-.05-.1-.15-.15-.21-2.22-2.68-4.83-6.97-6.79-11.05-.23-.46-.67-.83-1.21-.98-.52-.13-1.11-.05-1.57.26l-.44.31-2.32-11.51c-.13-.67-.62-1.24-1.26-1.45-.65-.21-1.37-.08-1.88.36l-7.61,6.79c1.29-4.16,2.27-8.72,2.99-12.75,7.46-.31,21.06,3.02,28.86,9.86l.13.13c5.83,16.83,9.01,34.9,9.01,53.66,0,13.47-1.65,26.59-4.72,39.11M320.29,258.2l4.44-3.05.72,42.56c0,.05-.03.1-.03.18s.03.15.03.23l.05,3.28c.03,1.06.88,1.88,1.91,1.88h.03c1.03-.03,1.88-.9,1.88-1.94l-.03-1.42c12.57,1.29,15.56,8.65,18.84,17.22-6.38-2.97-13.42-6.97-21.14-11.43-2.5-1.45-4.8-3.3-6.89-5.42.15-13.11.39-34.67.18-42.1M353.04,319.22c-.44-1.03-.83-2.04-1.21-3.1-3.36-8.72-7.12-18.58-22.64-20l-.26-17.53c2.84,1.76,6.58,3.43,11.33,3.43,1.21,0,2.48-.1,3.79-.36,8.41,3.92,12.8,9.6,16.29,15.18.03.03.05.1.08.13,1.21,1.96,2.32,3.95,3.48,5.96,4.21,7.43,8.52,15.05,17.09,21.19-11.46-1.11-21.17-2.84-27.95-4.9M360.12,289.85c-2.66-3.46-6.04-6.84-10.79-9.68,3.28-1.26,6.89-3.3,10.89-6.3,0,5.01-.05,10.53-.1,15.98M389.62,324.82c-12.39-6.04-17.5-15.05-22.41-23.75-1.08-1.94-2.19-3.87-3.33-5.73.15-14.74.15-32.01,0-38.13l4.41-3.05.36,19.95.39,22.66s-.03.05-.03.08c0,.08.03.1.03.13l.05,3.43c0,1.06.88,1.86,1.91,1.86h.03c1.03,0,1.88-.88,1.86-1.94l-.05-1.42c12.8,1.32,15.69,8.88,19.02,17.58,1.11,2.92,2.27,5.91,3.87,8.67-2.06-.1-4.08-.21-6.12-.36M400.36,325.39c-2.17-2.99-3.51-6.5-4.93-10.27-3.38-8.7-7.15-18.56-22.64-20l-.28-17.45c2.87,1.73,6.56,3.38,11.33,3.38,1.29,0,2.66-.13,4.13-.41,10.61,4.96,15.33,12.91,20.29,21.32,4.8,8.16,9.76,16.52,20.11,22.9-7.38.67-17.32.88-28.01.54M434.74,324.02c-12.62-6.09-18.02-15.2-23.21-23.98-4.49-7.64-9.14-15.49-18.35-20.96,3.38-1.37,7.15-3.51,11.33-6.76.57-.44.85-1.26.67-1.99-.23-.72-.85-1.29-1.6-1.37-14.64-1.88-20.62-8.85-21.32-10.32-.18-.93-.98-1.57-1.96-1.5-1.06.08-1.83.98-1.78,2.01.13,1.96,5.7,9.73,20,12.78-13.47,8.88-21.19,4.52-26.1,1.16l-.39-22.56c0-.7-.39-1.29-1.01-1.65-.65-.28-1.37-.23-1.96.15l-1.6,1.08c-2.17-3.38-3.79-7.67-1.73-11.2,2.22-3.85,8.03-5.42,11.31-5.09,4.26.46,5.06,8.13,5.65,13.73.08.77.15,1.5.23,2.19-1.68.39-4.75.57-7.59-2.25-.75-.72-1.96-.72-2.68.03s-.72,1.94,0,2.71c4.85,4.75,10.76,3.72,13.19,2.48.77-.36,1.19-1.16,1.06-1.99-.18-1.03-.28-2.25-.44-3.56-.72-6.89-1.7-16.34-8.98-17.11-4.34-.44-11.82,1.39-15.02,6.94-1.78,2.99-2.76,8.05,1.86,15.28l-3.43,2.37c-.57.39-.88,1.01-.85,1.65.1,2.22.13,7.33.18,13.68-.1,0-.15-.03-.23-.05-14.64-1.86-20.6-8.83-21.3-10.32-.21-.88-1.11-1.52-1.99-1.47-1.06.05-1.83.96-1.76,2.01.13,1.94,5.73,9.71,19.98,12.78-13.53,8.91-21.24,4.44-26.1,1.11l-.36-22.48c-.03-.7-.41-1.34-1.03-1.65-.62-.34-1.37-.28-1.96.1l-1.6,1.11c-2.12-3.41-3.77-7.69-1.73-11.2,2.25-3.87,8-5.45,11.33-5.09,4.26.46,5.06,8.13,5.65,13.73.05.77.13,1.5.23,2.17-1.7.41-4.78.59-7.61-2.22-.72-.75-1.94-.72-2.68,0-.72.77-.72,1.96.03,2.71,4.83,4.78,10.74,3.72,13.22,2.5.72-.39,1.14-1.16,1.01-1.99-.15-1.03-.28-2.27-.44-3.59-.7-6.89-1.68-16.31-8.98-17.09-4.28-.46-11.8,1.39-15.02,6.94-1.76,2.99-2.74,8.03,1.86,15.28l-3.43,2.37c-.54.36-.85.98-.83,1.63.23,5.58.03,25.99-.13,38.51-10.48-14.89-10.33-37.27-8.54-47.8.46-2.76,1.37-5.99,2.4-9.73,3.12-11.1,7.38-26.33,4.18-44.89-.44-2.71-1.08-5.27-1.86-7.64,7.59-2.25,19.13-.1,28.32,5.34,5.73,3.43,15.51,11.13,16.86,24.57.1.98.93,1.7,1.91,1.7h.18c1.06-.13,1.81-1.03,1.68-2.09-.62-6.43-3.12-12.42-7.23-17.55,13.73-2.27,23.88.85,30.15,9.32-1.03,3.72-1.26,6.69-1.32,7.77-.05,1.03.75,1.94,1.78,1.99h.13c1.01,0,1.83-.77,1.86-1.81.08-1.06.31-4.03,1.37-7.64v-.05c.62-1.99,1.47-4.21,2.68-6.4.05-.05.08-.13.13-.21,1.39-2.48,3.28-4.9,5.83-7,6.04-4.93,14.4-6.61,24.96-5.03,1.03.15,1.99-.57,2.14-1.6.15-1.03-.54-1.99-1.6-2.17-1.68-.23-3.33-.41-4.9-.49,1.88-5.96,7.33-13.89,22.74-14.38-.26,2.53-.15,4.36-.13,5.06.08.98.88,1.78,1.91,1.78h.1c1.06-.08,1.86-.98,1.78-2.01-.18-2.89-.21-12.98,6.74-21.3.08-.08.15-.15.23-.23,4.31-5.03,11.23-9.32,22.28-11,1.39,1.03,2.92,1.94,4.52,2.66-16.93,9.65-23.57,24.13-20.31,44.22.8,4.83,1.83,9.06,3.1,12.65l-5.11,1.55c-5.73,1.73-12.13,3.67-16.08,4.83-.26-.7-.46-1.42-.7-2.12-.15-.52-.31-1.03-.49-1.52,0-.03-.03-.03-.03-.08-.36-1.11-.77-1.99-1.21-2.74-1.65-2.61-3.74-4.13-6.14-4.57-3.07-.57-6.48.65-10.4,3.61-4.23,3.2-5.06,9.06-2.43,16.93.75,2.14,1.6,4.13,2.37,5.6,0-.03-.03-.03-.03-.05-.59-.75-1.68-.98-2.48-.52,0,0-2.94,1.73-7.12,4.36-1.96,1.24-3.85,2.43-5.63,3.64l2.58-10.51c.26-1.03-.39-2.06-1.42-2.3-1.01-.26-2.04.36-2.3,1.37l-3.72,15.33v.05c-.03.05-.03.15-.03.21-.03.05-.03.1-.03.15s0,.15.03.21v.15c.03.05.03.13.05.21.03.05.03.1.05.15.03.08.05.13.08.15.05.08.08.13.1.18.03,0,.03.05.03.08.03.03.05.03.08.05.03.05.08.1.13.15v.03s7.3,7.28,12.8,12.73c-4.26,6.07-11.15,24.5,1.45,41.69.36.52.96.8,1.55.8.36,0,.75-.13,1.08-.39.49-.36.77-.88.8-1.42,5.52,11.31,13.81,17.71,16.52,19.62l.05,8.47c0,1.03.83,1.91,1.86,1.91h.03c1.06,0,1.88-.88,1.88-1.91v-9.5l-.05-62.91c8.52,1.83,19.57,4.18,20.19,4.36,1.01.23,2.06-.39,2.32-1.39.28-1.01-.34-2.04-1.34-2.32-.72-.15-19-4.05-22.64-4.85-.57-.1-1.16.03-1.6.41-.46.34-.72.88-.72,1.45l.03,61.49c-4.67-3.85-13.71-12.85-16.86-27.1-3.87-17.48,7.18-23.93,12.47-27,.52-.31.98-.57,1.34-.83.9-.57,1.16-1.73.62-2.61-.57-.9-1.73-1.16-2.63-.62-.34.23-.75.49-1.24.77-1.78,1.03-4.36,2.53-6.89,4.75-.59-.59-1.81-1.78-4.31-4.31-4.08-4.05-9.65-9.65-12.39-12.36,2.43-1.63,4.98-3.3,7.69-5.01,2.37-1.5,4.31-2.66,5.52-3.43,3.95,5.45,6.76,9.86,8,11.9-1.19.88-2.19,1.78-3.12,2.63-.77.7-.83,1.91-.13,2.66.36.41.9.65,1.39.65.44,0,.93-.18,1.29-.49,3.92-3.56,8.83-7.95,19.85-4.49.98.31,2.04-.23,2.37-1.24.31-1.01-.23-2.09-1.26-2.4-7.8-2.45-13.22-1.39-17.17.65-1.19-1.88-3.56-5.68-6.94-10.4.23.08.46.13.72.13h.15c3.87-.31,11.64-2.99,13.37-10.94.23-1.01-.41-2.04-1.45-2.25-1.01-.21-2.06.44-2.27,1.45-1.24,5.63-6.5,7.3-8.88,7.8-.44-.88-1.14-2.22-1.81-3.87,2.97-.59,5.27-1.83,6.87-3.79,1.88-2.3,2.3-5.01,2.32-6.92.05,0,.1,0,.18-.03.88-.03,2.01-.1,3.38-.44.36,1.16.75,2.43,1.37,3.69.03.03.03.05.03.08.05,0,.05.03.05.08,1.37,2.74,3.46,4.7,6.4,5.96,6.22,2.66,10.97,7.28,14.09,13.76.34.67,1.01,1.06,1.73,1.06.28,0,.54-.05.83-.18.93-.46,1.32-1.6.88-2.53-3.56-7.33-8.96-12.6-16.03-15.62-1.32-.57-2.35-1.26-3.2-2.22,4-1.14,9.91-2.94,15.31-4.57l5.39-1.63c1.39,3.1,3.05,5.55,4.9,7.41.13,9.83.28,21.97.52,34.25.18,9.94.34,20,.52,29.01.28,15.28.52,27.44.57,30.87-8.08,6.07-17.35,12.73-31.05,16.49-.72.21-1.6.39-2.53.57M360.63,152.68c.31,1.91.88,3.74,1.65,5.39-1.26-.21-2.4-.7-3.02-1.73-.13-.52.08-2.04,1.37-3.67M364.01,162.03c.46,0,.93-.03,1.47-.08.08.03.15.03.26.03.18,0,.39-.03.57-.1,3.2-.36,7-1.45,11.31-3.2,4.16-1.73,8-3.74,11.23-5.52l2.19-1.21c6.3-3.41,12.75-6.97,21.68-10.04,15.46-5.39,21.79-15.31,19.26-30.28,1.7.39,3.48,1.76,6.45,4.72,1.19,1.24,2.4,2.81,3.56,4.65,1.73,10.92.67,18.53-3.25,23.31-5.29,6.43-15.51,6.74-24.55,7-4.96.18-9.63.31-13.37,1.39-4.57,1.29-7.41,4.54-8.31,9.32-.31,1.78-.34,3.72-.18,5.7-4.49.13-9.19.52-14.04,1.16-1.03.15-1.99.26-2.92.31h-.03c-2.3.15-4.23.05-5.89-.26h-.08c-5.34-.98-7.38-4.03-8.54-7.25.9.23,1.96.36,3.17.36M409.24,125.84c-6.19-.49-13.4-7.28-17.35-15.75,4.98,3.12,11.36,6.61,18.4,6.89.08,0,.15.03.23.03.03,0,.05-.03.08-.03.21,0,.39.03.57.03,2.94,0,5.78-.59,8.41-1.76,3.54-1.57,6.32-2.81,8.57-3.38,1.7,9.5-.39,16.37-6.69,21.3-1.86-3.23-4.31-6.63-12.24-7.33M386.81,103.17c-2.61-.65-7.8-1.68-14.4-1.68h-.34c-.39-2.01-.85-5.03-1.24-7.56-.1-.83-.21-1.55-.31-2.22,2.3.72,5.6.96,9.99-.96,1.86,1.42,5.11,2.68,9.52,1.91l-3.23,10.51ZM411.56,113.21c-3.9-6.35-2.99-11.41-1.6-14.35,1.39,3.87,4.18,9.09,10.84,11.72-.88.36-1.81.75-2.76,1.19-2.06.93-4.18,1.42-6.48,1.45M429.68,107.72h-.03c-.18,0-.34.03-.49.05-.7.1-1.39.26-2.14.46-10.33-1.32-12.93-8.34-14.07-12.57,2.14-1.01,5.73-2.22,9.24-.15.93.57,1.94,1.26,2.92,2.25.03.03.05.1.1.13,1.88,1.88,3.72,4.88,4.85,9.81-.13,0-.26.03-.39.03M425.89,93.44c-.62-.44-1.21-.83-1.76-1.16-5.78-3.48-11.49-.77-13.81.46l-2.12-7.3c3.82.39,6.56-.13,10.58-1.88,2.04,1.78,5.68,4.03,9.63,4.34-.8,1.83-1.81,3.98-2.53,5.55M447.44,151.52c-3.92,4.9-5.81,10.27-6.69,14.69-19.67.39-25.53,11.77-27.23,18.12-3.74.08-7.2.59-10.32,1.68-1.94-2.43-5.73-9.81-6.84-16.78-.05-.05-.05-.1-.05-.15-.36-2.25-.41-4.44-.05-6.38.62-3.38,2.45-5.47,5.6-6.38,3.33-.93,7.74-1.06,12.47-1.21,9.83-.31,20.96-.65,27.36-8.41,3.1-3.77,4.72-8.88,4.85-15.46,1.86,6.14,2.66,13.35.9,20.29M388.97,196.82c-10.87-11.18-11.18-17.81-11.43-23.7,0-.1-.03-.21-.03-.34.41-.05.85-.08,1.29-.13,4.9-.67,9.63-1.06,14.12-1.19,1.32,6.27,4.26,12.6,6.66,15.98-1.83.93-3.54,2.01-5.14,3.33-2.25,1.83-4.05,3.87-5.47,6.04M373.33,173.05h.39v.28c.31,6.32.67,14.2,13.27,26.87-.46.88-.85,1.76-1.19,2.58-5.47-6.2-12.98-9.4-22.48-9.58,5.21-5.55,7.82-12.34,7.8-20.24.7.05,1.42.08,2.22.08M497.33,187.19c-.21.85-.44,1.63-.62,2.43-8.39-1.83-12.44-7.51-13.81-9.96.85-.85,1.63-1.83,2.3-2.97.13-.1.23-.28.28-.44.75-1.26,1.47-2.68,2.06-4.36l11.31,4.03c-.05,2.25-.31,6.97-1.52,11.28M478.29,158.59c.39,2.12,1.6,7.82,3.48,16.47-1.91,2.87-4.44,4.57-8.08,5.45-1.03.23-1.65,1.26-1.42,2.27.21.85,1.01,1.45,1.83,1.45.15,0,.31,0,.46-.03,2.01-.49,3.77-1.21,5.34-2.14,1.91,3.17,6.61,9.16,15.64,11.2-3.51,10.22-8.39,15-11.95,17.19-4.31,2.63-8.13,3.25-11.28,1.78-5.27-2.4-9.14-10.58-11.28-23.64-3.12-19.33,3.82-32.99,21.19-41.79,2.35,3.95,5.24,8,8.65,12.24-3.51-1.01-7.28-2.01-10.35-2.66-.62-.1-1.24.08-1.68.52-.49.44-.67,1.08-.57,1.7M511.14,119.46c.7,2.92.67,6.35-.15,10.38-.08.67-.15,1.37-.23,2.06l-14.2-4.18c-.54-.15-1.11-.08-1.6.26l-13.45,9.09c-2.06-5.01-3.02-9.5-2.84-13.5.52-9.22,5.68-14.53,15.31-15.82.13-.03,14.3-.03,17.17,11.72M497.52,161.02c-6.35-7.25-11.18-14.15-14.38-20.5l13.19-8.91,13.89,4.1c-1.57,10.48-3.85,19.02-6.3,23.67l-3.07,2.71c-.75-.26-1.94-.62-3.33-1.08M493.49,103.95c-11.38,1.55-17.97,8.44-18.58,19.41-.28,5.09,1.06,10.89,4,17.17.03.1.08.18.1.26.15.28.28.57.44.88-1.68-.75-3.2-1.68-4.65-2.79-.05-.05-.13-.08-.18-.13-5.29-4.13-8.75-10.53-9.19-17.73-.41-6.43,1.57-12.62,5.63-17.42,4.03-4.75,9.58-7.61,15.67-7.98,6.07-.39,11.95,1.73,16.55,5.96,2.27,2.07,4.08,4.57,5.39,7.3-5.89-4.65-13.68-5.11-15.18-4.93M427.51,206.68c.18,1.06.31,3.79-1.37,5.83-1.08,1.34-2.84,2.22-5.19,2.58-1.16-4.08-1.6-8.85,1.57-11.25,2.99-2.25,5.5-3.23,7.43-2.89,1.34.23,2.5,1.19,3.59,2.87.03.03.05.1.08.13-.85.15-1.6.21-2.27.26-.96.05-1.86.1-2.71.49-.77.34-1.24,1.16-1.14,1.99M414.19,278.41c.77,3.36,1.81,6.48,3.05,9.27-10.25-14.87-4.54-30.56-1.16-35.75,1.29,1.32,2.3,2.32,2.84,2.81-4.18,4.88-7.23,12.29-4.72,23.67M471.01,244.21c-.18-10.17-.34-20.13-.46-28.63.05.05.13.08.21.1,1.63.75,3.36,1.14,5.16,1.14,3.02,0,6.27-1.06,9.68-3.15,3.64-2.22,8.36-6.66,12.11-15.38l3.41,1.11c-.15.62-.36,1.29-.57,2.04-2.68,10.2-8.85,33.56-29.53,42.77M499.06,194.76c.28-.77.52-1.57.77-2.4.41-1.37.83-2.76,1.16-4.18,1.81-6.32,1.68-13.32,1.68-13.6,0-.8-.52-1.5-1.26-1.78l-14.35-5.14c-.46-.18-1.01-.15-1.47.08-.46.21-.8.62-.98,1.11-.08.21-.13.36-.18.57-.8-3.64-1.42-6.58-1.86-8.67,7.77,1.88,18.02,5.24,18.15,5.32.65.18,1.34.05,1.83-.41l4.1-3.64h.03l11.2-9.91,1.99,9.83c-2.99,2.01-6.76,4.52-9.68,6.35-.75.52-1.06,1.47-.72,2.35,2.58,6.35,4.85,11.56,6.97,15.93.57,1.19,1.11,2.32,1.68,3.36h-.03s-.08.03-.13.05c-.03.03-.08.05-.15.08-.05.03-.1.05-.18.1h-.03l-9.99,7.33-8.54-2.71ZM519.02,183.14c-1.68-3.56-3.48-7.69-5.47-12.49,3.1-1.99,6.79-4.44,9.47-6.3h.03l1.03-.7c1.26,2.48,3.3,6.04,5.58,8.96-2.12,3.28-7.05,8.31-10.63,10.53M386.16,39.78c69.82,0,129.6,43.55,153.69,104.9-8.36-5.14-19.18-7.49-26.02-7.43.15-.93.28-1.81.39-2.63.21-1.47.41-2.97.54-4.21.88-4.31.93-8.21.1-11.62,0-.31-.03-.62-.03-.93-.46-7.41-3.67-14.15-8.98-19.1-5.37-4.93-12.26-7.43-19.39-6.94-7.12.46-13.63,3.77-18.3,9.34-4.67,5.55-7.02,12.67-6.53,20.06.44,6.97,3.3,13.27,7.8,17.91-7.56,1.57-13.22,4.36-17.37,7.8.9-10.63-2.66-21.04-6.56-27.44-.05-.13-.13-.28-.21-.39-1.32-2.14-2.74-3.95-4.18-5.42-2.43-2.45-4.57-4.41-7.05-5.37-1.14-5.83-3.12-9.6-5.27-12.11,1.08-2.35,3.51-7.51,4.31-9.73.26-.67.13-1.39-.36-1.94-.44-.52-1.16-.72-1.86-.57-4.31,1.06-9.24-2.74-10.25-3.92-.57-.65-1.45-.88-2.25-.49-5.06,2.35-7.28,2.66-12.49,1.7-.65-.13-1.32.1-1.78.62-.44.46-.57,1.14-.41,1.78l3.56,12.16c-2.25,3.59-3.72,9.68-.28,16.93-5.81-1.19-11.18-4.62-15.28-7.25-.46-.28-.93-.59-1.37-.88l4.36-14.17c.21-.7.03-1.47-.52-1.94-.54-.49-1.32-.65-1.99-.39-6.89,2.63-9.83-.83-9.86-.85-.59-.7-1.55-.88-2.35-.46-6.22,3.12-9.34.98-10.69.08l-.28-.21c-.67-.44-1.57-.41-2.19.1-.65.46-.93,1.32-.67,2.06.18.57.59,3.36.93,5.63.52,3.54,1.11,7.51,1.68,9.45.21.85.98,1.45,1.88,1.42,7.74-.23,13.73,1.11,15.95,1.7,3.74,11.82,13.58,21.86,22.33,22.59,6.19.54,7.67,2.66,9.37,5.63-1.99,1.14-4.26,2.14-6.81,3.05-6.61,2.25-11.93,4.78-16.73,7.33,4.96-8.8,3.05-16,2.5-17.63-.21-.67-.8-1.14-1.47-1.29-.7-.1-1.42.18-1.83.72-4.67,6.14-13.22,8-20.78,9.65l-.75.13c-1.01.23-1.68,1.24-1.45,2.27.21,1.03,1.26,1.68,2.27,1.47l.75-.18c6.94-1.5,14.71-3.2,20.26-8.13.23,3.87-.77,10.3-7.51,17.29-3.79,2.09-7.1,3.77-10.58,5.19-3.69,1.52-6.87,2.48-9.6,2.89-3.2-4.9-2.61-11.02-1.94-14.35,1.29-6.32,4.34-11.05,6.07-12,.62-.34.98-1.01.96-1.7,0-.7-.44-1.34-1.08-1.65-2.71-1.32-4.44-3.25-5.21-5.76-.96-3.17,0-6.45.85-7.9,1.6-2.68,5.5-3.2,8.57-2.76,5.16.7,9.09,8.54,10.09,12.31-2.94,2.17-6.25,2.66-10.3,1.5-1.01-.28-2.06.31-2.32,1.32-.28,1.01.28,2.07,1.32,2.35,5.7,1.6,10.51.65,14.64-2.97.49-.41.72-1.03.62-1.68-.41-3.2-4.9-15.44-13.5-16.6-5.5-.75-10.22,1.01-12.36,4.57-1.5,2.5-2.43,6.84-1.24,10.94.83,2.68,2.48,4.96,4.85,6.69-2.4,2.79-4.62,7.61-5.63,12.6-.34,1.65-.54,3.28-.59,4.88-4.36,3.05-5.6,7.72-4.57,10.09.15.49.31,1.03.44,1.63,1.16,4.31,2.87,10.74,11.07,12.83.21,8.57-3.1,15.67-9.81,21.11-1.99.18-4.05.52-6.22.96-2.43-2.45-5.27-4.67-8.49-6.58-10.25-6.12-22.87-8.31-31.54-5.68-4.93-12.16-14.17-19.77-27.59-22.72l.05-3.25c1.26-1.34,6.58-5.14,20-12.6.34,5.34,1.57,13.71,9.19,15.98.18.08.34.13.52.15,1.08.28,2.3.44,3.56.44.34,0,.7,0,1.08-.05.13-.03.21-.03.31-.05.05,0,2.12-.49,4.75-.9-.28.23-.59.54-.96.88-3.85,3.87-3.23,10.56,1.55,16.6.39.44.93.7,1.5.7.39,0,.77-.1,1.14-.36.83-.62,1.01-1.78.41-2.63-1.47-2.01-.26-3.43,4.34-6.94,1.94-1.45,3.9-2.94,5.29-4.75.1-.05.15-.15.23-.26l.03-.03v-.03s.05-.05.08-.1h.05c.1-.13.18-.28.28-.41,3.51-5.37,1.6-12.39.26-16.52,13.78-6.19,15.72-9.78,16.47-15.59v-.05c.03-.05,0-.08,0-.13,0-.1.03-.15.03-.21-.03,0,0-.03,0-.03,0,0-1.29-13.45-2.61-26.35v-.03c-.7-6.66-1.65-15.54-2.27-20.11-.03-.26-.1-.52-.26-.75-8.31-13.68-23.02-8-33.25-2.61-1.86.8-3.82,1.76-6.01,2.84-11.25,5.73-21.71,13.09-26.72,16.65l-.9.65c-.52.36-.83.9-.83,1.52-.05,2.61-.23,11.25-.46,23.82l-.1,4.93c-3.51-7.77-8.88-13.99-12.26-15.87-.67-.39-1.52-.31-2.14.21-.18.15-19,16.21-14.84,36.52,0,.03.03.08.03.1.44,2.19,1.14,4.34,2.06,6.4.75,1.55,1.5,2.89,2.25,4.08-6.66,2.5-23.72,10.3-29.37,26.79-4.98,14.53-10.04,58.62,16.98,74.16.23,7.33-.34,14.51-1.68,21.48-12.91-23.49-20.21-50.39-20.21-79.01,0-90.96,74-164.94,164.97-164.94M282.08,240.5l.26-13.37c4.39-1.19,9.14-2.58,12.75-5.96.49,9.29-.96,16.49-13.01,19.33M264.92,208.62l.34-.26c3.56-2.66,8.31-6.22,13.76-7.41l-.46,24.65v.03l-.31,17.14v.03l-1.34,71.32c-8.78-6.61-7.9-20.26-6.53-41.71.18-3.17.41-6.56.62-10.07,1.01-18.15-2.5-38.9-6.07-53.72M260.07,161.2c-.05-.1-.1-.15-.18-.23-1.14-1.39-2.19-3.2-3.17-5.34-.7-1.52-1.26-3.12-1.65-4.78,2.89-3.15,6.48-5.83,12.75-5.55,4.62.52,9.99,2.58,11.28,5.99-2.17,7.43-7.1,13.04-11.95,13.45-2.56.23-4.93-.98-7.07-3.54M267.37,118.07c4.49,3.67,13.5,16.21,12.65,28.16-3.07-2.79-7.85-4.26-11.93-4.72-6.38-.34-10.58,1.88-13.71,4.7-.75-13.76,9.58-24.88,12.98-28.14M324.86,162.72c1.32-1.32,2.12-1.86,2.68-2.3.85-.54,1.39-1.03,1.81-1.88,3.05-.03,4.18.52,4.34.77.03.03.03.34-.21.93-1.14,1.42-2.92,2.79-4.7,4.16-1.68,1.26-3.67,2.79-4.98,4.52-.67-2.35-.54-4.62,1.06-6.19M335.13,155.73c-1.57-.8-3.92-1.14-7.25-.96-4.47.26-9.27,1.34-10.22,1.57-.98.05-1.91,0-2.76-.18-.13-.39-.08-.65-.03-.72.31-1.01,2.12-2.07,3.25-2.45,6.32-2.35,11.46-4.36,15.69-6.14.77,2.4,1.65,5.76,1.32,8.88M316.85,149.4c-.46.15-4.54,1.68-5.6,4.83-.03.08-.03.13-.05.18-3.38-3.12-3.67-9.24-3.82-12.88,7.51-4.08,15.38-8.11,18.95-9.71,13.55-6.04,19.28-5.27,21.48-4.28,1.03.46,1.73,1.19,2.12,2.17-.77,5.34-3.28,8.67-33.07,19.69M299.3,116.75c2.84-1.7,6.14-3.67,10.04-5.96.46,13.86.8,21.66,1.06,24.81-1.94,1.06-3.92,2.12-5.89,3.2-9.91,5.45-16.83,9.58-20.75,12.47l.46-25.32c2.76-1.94,7.1-4.49,15.07-9.19M349.33,124.08c-4.9-2.22-13.16-.75-24.55,4.28-2.3,1.01-6.22,2.97-10.71,5.29-.34-5.76-.8-18.64-1.03-25.06l1.78-1.08c19.13-11.46,27-9.81,32.65-3.56.77,7.54,1.5,15.23,2.01,20.19-.05-.03-.1-.03-.15-.05M312.88,104.23l-.13-4.36c-.23-6.3-.41-11.74-.54-14.74,1.7-.83,3.25-1.57,4.85-2.25,18.12-9.58,24.44-5.06,28.16.8.39,2.99.93,8,1.65,14.66-7.77-5.52-18.09-3.61-34,5.89M308.49,87.07c.1,3.12.28,7.74.44,12.93l.23,6.45c-4.62,2.79-8.52,5.09-11.8,7.05-6.17,3.61-10.2,5.99-13.01,7.82.15-9.4.31-16.16.39-19.18l.1-.1c4.54-3.2,13.63-9.63,23.64-14.97M279.09,197.08c-6.14,1.06-11.23,4.62-15.15,7.54-1.63-6.19-3.15-10.97-4.18-13.6,6.5-4.03,13.06-6.5,19.59-7.41l-.26,13.47ZM282.39,223.17l.36-18.2c4.16,1.21,10.09,4.49,11.72,11.05-2.74,4.23-7.36,5.86-12.08,7.15M244.22,288.66c2.14-8.88,3.02-18.15,2.63-27.57v-.05c-.03-.1-.03-.18-.08-.26v-.08c-.52-11.1-2.68-19.72-3.82-24.37-.28-1.08-.52-1.96-.62-2.56-.21-1.01-1.19-1.65-2.19-1.45-1.01.18-1.65,1.16-1.45,2.17.13.67.36,1.57.65,2.74,1.01,4.05,2.81,11.23,3.51,20.44-11.28-7.77-15.18-21.55-16.44-32.16-1.6-13.73.52-28.06,3.28-36.19,5.52-16.06,23.23-23.15,28.26-24.88,3.2,3.33,6.4,4.1,8.67,4.1.28,0,.57-.03.83-.05,4.67-.36,9.22-3.95,12.36-9.32l-.03,1.76-.36,18.84c-7.74.9-15.49,3.92-23.08,8.88-.03.03-.05.05-.08.05-.08.05-.1.08-.15.15-.03.03-.08.05-.1.08-11.31,7.51-19.39,17.48-23.18,22.82-.59.8-.44,1.99.41,2.58.34.21.7.34,1.08.34.57,0,1.16-.26,1.5-.77,3.51-4.88,10.69-13.78,20.68-20.8,3.17,8.7,12.24,41.04,10.66,69.02-.21,3.51-.39,6.87-.62,10.04-1.55,24.32-2.48,39.26,10.27,46.44l-.18,9.37c-12.73-11.33-23.7-24.6-32.42-39.31M341.5,386.85c-2.58-5.65-2.79-24.55-2.61-35.21.05.03.1.08.18.1,2.97,1.68,6.58,2.3,11.43,1.96,6.14-.46,13.5-2.4,22.84-4.83,7.72-2.01,16.39-4.31,26.38-6.25,25.66-4.98,30.87,1.76,31.52,2.81l.88,15.93c0,.15.03.26.1.39,0,.05-.03.1-.03.15l.75,13.19c-2.61-1.11-6.79-1.47-13.6.23-3.41.83-7.8,2.09-12.85,3.56-21.14,6.07-56.43,16.21-65,7.95M340.08,348c1.78-.23,4.85-.28,8.11-.08l-.44,2.17c-2.81-.08-5.03-.57-6.87-1.57-.31-.21-.59-.36-.8-.52M414.24,392.56c-.1-.05-.23-.15-.36-.23-.57-1.34-.23-1.91-.08-2.14.65-.98,2.32-1.65,4.49-2.12.41,1.88,1.26,3.2,2.25,4.1-2.14.75-4.62,1.21-6.3.39M433.16,381.82c-.41.85-1.45,1.91-3.05,1.96-2.79-.21-15.62-.83-19.28,4.16-.77-2.09-1.21-4.41-1.37-6.01,4.21-1.24,7.87-2.27,10.79-2.99,9.4-2.32,12.08-.15,12.67.57.13.15.23.34.31.49l.08,1.39c-.05.18-.1.31-.15.44M435.93,361.99v-.31c-.03-.13-.05-.28-.08-.39v-.15l-.93-16.24c0-.18-.03-.34-.08-.52-.44-1.19-4.85-11.41-35.8-5.39-10.09,1.94-18.87,4.26-26.61,6.3-8.47,2.22-15.28,4-20.86,4.57l.62-3.28c.1-.54-.03-1.08-.34-1.5-.31-.39-.77-.67-1.32-.72-13.09-1.16-14.64,1.11-15.02,2.22-.13.21-.21.46-.21.75-.05,1.39-.23,7.25-.15,14.25-20.26-6.61-38.8-17.01-54.77-30.38l.23-13.68,1.39-73.13c18.61-3.9,17.42-17.48,16.65-26.54-.05-.65-.18-1.29-.28-1.88,0-.1-.03-.15-.05-.23-1.88-9.16-10.33-13.4-15.51-14.66l.05-2.32.67-35.44c15.28,3.59,24.16,13.65,27.1,30.69,3.05,17.76-1.08,32.5-4.08,43.26-1.11,3.85-2.01,7.15-2.5,10.12-2.04,12.16-2.01,39.31,12.75,54.98v.03h.05c2.45,2.66,5.24,4.85,8.23,6.61,9.58,5.55,18.12,10.38,25.79,13.5.03.03.05.03.08.03,0,0,.03.03.05.03h.03s0,.03.05.03c8.6,2.79,22.07,4.93,37.89,6.01,3.43.23,6.92.41,10.33.54h.08c3.85.15,7.59.21,11.2.21,9.86,0,18.51-.52,24.19-1.5h.05c1.37-.21,2.48-.46,3.43-.72,14.74-4.03,24.83-11.51,32.94-17.55.15-.08.28-.18.44-.28,28.34-21.22,38.07-48.17,41.76-58.31l.46-1.34c.36-.98-.13-2.09-1.11-2.45s-2.09.15-2.45,1.14l-.46,1.37c-3.46,9.5-12.42,34.23-37.76,54.44-.08-5.14-.28-15.05-.52-27,7.64-4.47,27.9-19,32.01-49.33.13-1.03-.57-1.99-1.65-2.14-1.03-.13-1.99.59-2.12,1.63-3.59,26.46-20.16,40.19-28.32,45.43-.13-7.69-.28-16.06-.41-24.39,23.54-9.47,30.28-34.92,33.17-45.89.18-.7.36-1.32.49-1.88l2.63.83c.21.08.39.1.59.1.39,0,.77-.13,1.11-.36l7.72-5.63c-.1,11.54,1.14,34.59,28.7,52.24-4.59,16.93-11.8,32.76-21.17,47.06-2.43-12.73-.41-27.52.96-37.58.36-2.66.7-5.06.9-7.05.1-1.03-.65-1.99-1.7-2.06-1.01-.1-1.96.65-2.09,1.68-.18,1.96-.49,4.31-.85,6.92-1.55,11.28-3.87,28.29-.13,42.41-20.6,29.4-50.54,51.81-85.47,62.91"/>
        <path class="cls-7" d="M356.32,364.58c-.08-.15-.23-.26-.41-.23-.65.03-1.29.05-1.96.05-.15,0-.34.1-.41.28-1.86,4.62-3.74,9.11-5.6,13.47-.08.15-.03.31.05.44.08.15.21.23.36.26.67.05,1.32.1,1.99.15.21.03.36-.1.41-.26.52-1.26,1.01-2.53,1.52-3.79,1.76.03,3.51-.03,5.27-.15.54,1.29,1.06,2.56,1.57,3.79.08.18.26.26.41.26.05-.03.1-.03.13-.03.62-.21,1.26-.41,1.86-.65.15-.05.26-.13.31-.28.05-.13.1-.28.03-.39-1.83-4.23-3.67-8.52-5.52-12.93M356.53,372.3c-1.08.05-2.17.08-3.25.1.54-1.37,1.08-2.71,1.63-4.1.54,1.34,1.06,2.68,1.63,4"/>
        <path class="cls-7" d="M372.6,361.49c-1.37.36-2.76.72-4.13,1.03-.26.05-.46.31-.46.57v13.71c0,.26.21.41.46.36,1.34-.31,2.71-.67,4.05-1.03,4.98-1.34,8.08-5.19,8.08-9.68s-3.07-6.3-8-4.96M377.69,367.35c0,3.12-1.7,5.24-5.09,6.14-.57.15-1.14.31-1.73.46v-9.37c.59-.18,1.21-.36,1.78-.49,3.23-.88,5.03.23,5.03,3.25"/>
        <path class="cls-7" d="M395.56,354.47c-3.05.9-5.27,3.69-5.27,6.53s1.86,4.08,4.83,3.2c.88-.28,1.78-.7,2.61-1.29-.85,1.88-2.61,3.51-5.24,4.85-.23.1-.39.39-.36.65.1.52.18,1.01.26,1.47.05.15.1.23.21.26.08.03.18.03.26,0,.03,0,.05-.03.08-.03,5.19-2.66,8.16-6.53,8.16-11.02,0-3.77-2.12-5.6-5.52-4.62M395.53,356.97c1.68-.49,2.81.65,2.84,2.87-.9.85-1.83,1.45-2.87,1.73-1.65.52-2.45.03-2.45-1.52s.9-2.61,2.48-3.07"/>
        <path class="cls-7" d="M408.21,356.9c-.98.15-1.86.52-2.74,1.08.75-1.88,2.45-3.38,5.19-4.44.23-.08.36-.34.34-.54-.1-.54-.18-1.03-.26-1.57-.03-.1-.08-.23-.18-.28-.13-.05-.23-.05-.39,0-5.19,2.01-7.92,5.81-7.92,10.25,0,3.79,2.09,5.6,5.5,4.98,3.05-.54,5.29-2.76,5.29-5.58s-1.91-4.41-4.83-3.9M407.8,363.87c-1.68.31-2.74-.77-2.84-2.92.88-.8,1.83-1.32,2.84-1.47,1.68-.31,2.43.26,2.43,1.76,0,1.37-.9,2.37-2.43,2.63"/>
        <path class="cls-7" d="M423.63,363.21c-.03-.23-.23-.41-.44-.44-1.78-.18-3.54-.23-5.34-.21,1.08-1.03,2.14-2.04,3.2-3.02,1.73-1.63,2.63-2.74,2.63-4.54,0-2.58-1.91-4.52-4.85-4.52-2.06,0-3.59.98-4.47,1.76-.13.15-.18.31-.15.46.08.59.18,1.14.26,1.7.03.18.13.31.31.34.13.05.31.03.44-.1,1.19-1.08,2.32-1.57,3.51-1.57,1.88,0,2.09,1.06,2.09,1.86,0,.85-.41,1.55-1.68,2.81-1.73,1.7-3.43,3.51-5.19,5.39-.08.08-.13.21-.13.34v1.37c0,.26.21.44.44.41,3.07-.23,6.12-.23,9.16.05.15.03.26-.03.34-.1.1-.1.15-.26.13-.36-.08-.57-.18-1.08-.26-1.63"/>
        <path class="cls-7" d="M381.2,370.91c-.75.23-1.34,1.03-1.34,1.78s.59,1.19,1.34.96,1.34-1.06,1.34-1.78-.59-1.19-1.34-.96"/>
        <path class="cls-7" d="M363.88,375.41c-.75.13-1.34.83-1.34,1.6s.59,1.26,1.34,1.11c.75-.1,1.34-.83,1.34-1.6s-.59-1.24-1.34-1.11"/>
        <path class="cls-7" d="M266.08,337.7c-.1-.1-.23-.18-.39-.18-.08,0-.15.05-.23.08l-7.12,3.17-6.94-6.94,3.38-7.38c.1-.23.03-.54-.21-.7l-2.92-1.86c-.08-.08-.18-.1-.31-.1-.05,0-.1,0-.15.03-.15.08-.28.18-.34.31l-10.94,24.81c-.08.21-.05.46.1.62l2.48,2.48c.1.1.26.15.39.15.08,0,.15-.03.23-.05l25.32-11.05c.15-.05.26-.21.31-.39.03-.15-.05-.36-.15-.49l-2.5-2.5ZM254.23,342.61l-8.47,3.82,3.82-8.47,4.65,4.65Z"/>
        <path class="cls-7" d="M249.06,319.89c.03-.13-.03-.28-.1-.41l-8.08-10.45c-.1-.13-.26-.21-.41-.21h-.05c-.13,0-.26.05-.39.18l-2.25,2.32c-.15.18-.18.49-.03.72l5.32,6.87-17.29,13.35c-.26.18-.28.52-.13.77l2.14,2.79c.1.1.21.18.39.18,0,0,.03.03.05.03.1,0,.26-.05.34-.13l20.26-15.64c.15-.08.21-.23.23-.36"/>
        <path class="cls-7" d="M238.1,306.07c.05-.13.03-.31-.05-.44l-1.6-2.84c-.08-.21-.28-.31-.46-.31-.1,0-.18.03-.23.05l-16.34,7.59,12.39-15.18c.13-.21.13-.41.03-.65l-1.26-2.27c-.13-.21-.31-.31-.52-.31h-.05l-19.46,2.66,15-10.04c.23-.13.31-.46.18-.72l-1.63-2.92c-.08-.13-.23-.21-.36-.23-.03-.03-.08-.03-.15-.03-.1,0-.18.03-.31.08l-21.32,14.3c-.26.13-.34.46-.21.72l2.12,3.72c.08.18.28.28.46.28h.1l20.75-3.12-13.45,16.13c-.15.15-.18.41-.08.62l2.12,3.74c.1.18.28.28.49.28.08,0,.15-.03.21-.05l23.33-10.74c.13-.05.26-.21.31-.34"/>
        <path class="cls-7" d="M222,277.51c.15,0,.34-.08.44-.23.13-.15.15-.34.08-.52l-1.19-3.33c-.05-.21-.28-.36-.52-.36l-7.82-.13-3.3-9.22,6.17-5.29c.23-.15.26-.46.1-.7l-1.81-2.94c-.08-.13-.23-.21-.41-.26h-.08c-.13,0-.28.05-.36.15l-20.44,17.76c-.15.18-.23.41-.15.62l1.16,3.28c.1.23.28.36.52.36l27.59.8h.03ZM199.23,272.68l7.07-6.07,2.19,6.25-9.27-.18Z"/>
        <path class="cls-7" d="M197.97,214.9c6.53,0,10.63-3.98,10.69-10.38.03-3.17-.98-5.89-2.87-7.77-1.91-1.86-4.65-2.87-7.95-2.89l-15.77-.13c-.31,0-.52.26-.54.57v3.48c-.03.31.21.54.52.54l15.59.15c3.1,0,6.76,1.06,6.71,5.99-.05,4.83-3.72,5.83-6.79,5.83h-.13l-15.46-.13c-.31,0-.57.23-.57.54l-.03,3.48c0,.15.05.31.18.41.08.08.21.15.39.15l15.9.13h.13Z"/>
        <path class="cls-7" d="M182.89,184.18l25.3,4s.05.03.08.03c.1,0,.26-.05.34-.1.1-.08.21-.23.23-.36l.49-3.2c.05-.31-.15-.59-.46-.65l-17.94-2.84,20.31-9.99c.15-.1.28-.23.31-.39l.39-2.61c.05-.31-.13-.59-.44-.65l-25.3-4.03s-.05-.03-.08-.03c-.1,0-.26.05-.34.13-.1.08-.21.21-.23.36l-.49,3.17c-.05.31.15.59.46.65l17.22,2.74-19.51,9.63c-.15.1-.28.23-.31.41l-.49,3.07c0,.13.03.31.1.41.08.13.23.21.36.23"/>
        <path class="cls-7" d="M188.55,154.4l24.68,6.84c.05,0,.1.03.15.03.1,0,.18-.03.26-.08.13-.08.23-.21.28-.34l.93-3.38c.08-.26-.08-.57-.39-.67l-24.68-6.84c-.05-.03-.13-.03-.18-.03-.21,0-.44.18-.52.44l-.93,3.36c-.03.13-.03.28.05.41.08.13.21.23.34.26"/>
        <path class="cls-7" d="M192.11,143.35h0l27.1-.13c.23,0,.44-.15.52-.39l1.11-2.89c.1-.23.03-.46-.13-.62l-20.42-18.56c-.1-.08-.26-.15-.39-.15-.03,0-.08,0-.1.05-.21.03-.36.15-.41.34l-1.32,3.41c-.08.23-.03.46.15.62l15.72,13.86-21.27-.15c-.28,0-.52.18-.57.44l-.57,3.54c-.03.18.03.34.15.44.1.13.23.21.41.21"/>
        <path class="cls-7" d="M203.52,114.09l22.51,12.18c.08.03.21.08.28.08.21,0,.39-.13.46-.28l6.76-12.49c.13-.26.03-.59-.23-.75l-2.79-1.5c-.08-.08-.18-.1-.28-.1-.05,0-.1,0-.13.03-.15.03-.28.15-.34.28l-4.83,8.91-6.61-3.59,3.79-7c.08-.13.08-.31.03-.46-.05-.15-.15-.26-.34-.31l-3.05-1.08c-.05-.03-.1-.03-.18-.03-.18,0-.39.13-.49.28l-3.54,6.56-5.55-2.99,4.62-8.57c.08-.15.08-.28.05-.41-.05-.15-.13-.26-.28-.36l-2.79-1.5c-.08-.05-.18-.08-.26-.08-.21,0-.39.1-.52.28l-6.56,12.16c-.13.28-.05.62.23.75"/>
        <path class="cls-7" d="M235.68,109.03c.1.08.21.13.31.13.21,0,.36-.08.49-.26l1.99-2.87c.08-.1.13-.23.1-.39-.03-.15-.1-.28-.26-.36l-8.34-5.91,1.01-1.47,13.29-.03c.21,0,.41-.13.49-.34l1.39-3.33c.05-.15.05-.36-.05-.52-.1-.15-.28-.26-.46-.26l-12.39.05c.98-3.48-.05-6.5-2.99-8.54-1.47-1.06-2.99-1.55-4.49-1.55-2.61,0-5.11,1.52-7.12,4.41l-4.03,5.7c-.1.13-.13.28-.1.41.03.15.13.28.23.36l20.93,14.74ZM225.51,87.99c.72,0,1.47.28,2.25.83,1.01.7,1.55,1.57,1.6,2.68.03,1.06-.44,2.3-1.32,3.59l-1.39,1.96-6.27-4.44,1.6-2.27c1.08-1.57,2.3-2.35,3.54-2.35"/>
        <path class="cls-7" d="M234.05,78.92c1.47,1.29,2.84,1.88,4.47,1.88,1.5,0,3.3-.52,6.14-1.76,2.12-.96,3.33-1.32,4.26-1.32.77,0,1.39.28,2.14.96.8.7,1.16,1.52,1.11,2.45-.05.93-.49,1.88-1.29,2.76-1.88,2.12-4.47,2.99-5.86,3.38-.18.05-.31.18-.36.36-.08.18-.05.39.08.52l2.3,2.79c.1.13.28.18.41.18.08,0,.15,0,.21-.03,2.25-.8,4.47-2.37,6.25-4.36,1.68-1.86,2.58-3.92,2.61-5.99.03-2.14-.88-4.08-2.58-5.63-1.6-1.42-3.05-2.06-4.8-2.06-1.52,0-3.36.52-6.07,1.7-2.19.96-3.46,1.34-4.36,1.34-.67,0-1.19-.21-1.78-.75-1.37-1.24-1.26-2.94.31-4.67,1.14-1.26,2.84-2.22,4.67-2.56.21-.03.36-.18.41-.36.1-.18.08-.39-.08-.54l-2.22-2.74c-.1-.15-.26-.21-.41-.21-.08,0-.13,0-.21.03-1.91.62-3.64,1.78-5.21,3.51-3.33,3.72-3.38,8.18-.13,11.1"/>
        <path class="cls-7" d="M262.94,76.18c.1.1.26.15.39.15.18,0,.28-.05.39-.13l2.56-2.37c.23-.21.26-.57.03-.8l-17.45-18.71c-.08-.1-.23-.18-.36-.21h-.03c-.15,0-.28.08-.41.18l-2.53,2.37c-.23.21-.23.57-.05.77l17.48,18.74Z"/>
        <path class="cls-7" d="M266.48,44.61l6.22-4.78c.13-.08.21-.23.23-.41,0-.13-.05-.31-.21-.41l-2.32-2.22c-.1-.1-.26-.15-.39-.15-.1,0-.26.05-.34.13l-15.51,11.85c-.13.1-.18.23-.23.36-.03.15.05.28.13.41l1.94,2.53c.1.15.28.23.44.23.1,0,.23-.05.34-.1l6.07-4.62,13.27,17.35c.08.1.21.18.36.21h.08c.1,0,.26-.03.34-.1l2.76-2.12c.26-.18.28-.54.13-.8l-13.29-17.35Z"/>
        <path class="cls-7" d="M284.74,27.76c-.13-.08-.23-.1-.34-.1-.13,0-.21.03-.28.08l-3.05,1.76c-.18.13-.26.34-.23.57l4.41,27.23c.03.21.15.34.31.44.08.03.18.05.26.05s.21-.03.28-.08l3.02-1.81c.21-.1.31-.34.28-.57l-1.34-7.69,8.44-4.98,6.32,5.06c.08.08.23.1.34.1.15,0,.28-.05.39-.13l2.53-2.35c.1-.13.21-.28.18-.44,0-.15-.1-.34-.21-.41l-21.32-16.73ZM293,39.84l-5.68,3.36-1.57-9.14,7.25,5.78Z"/>
        <path class="cls-7" d="M311.84,26.26c-4.28-.1-5.19-.59-5.81-2.04-.34-.77-.34-1.52-.03-2.19.34-.77,1.14-1.42,2.27-1.94.96-.39,2.01-.62,3.15-.62.72,0,1.47.13,2.17.28.08,0,.1.03.15.03.13,0,.28-.05.39-.15.15-.15.21-.34.15-.54l-.85-3.41c-.05-.23-.26-.41-.46-.44-.46-.05-.88-.08-1.32-.08-1.63,0-3.2.36-4.93,1.06-4.59,1.96-6.53,6.01-4.78,10.02,1.6,3.74,4.34,4.49,9.52,4.59,4.34.08,5.24.62,5.99,2.37.41.96.41,1.86-.03,2.68-.41.8-1.24,1.5-2.35,1.99-1.26.52-2.68.8-4.26.8-.8,0-1.65-.08-2.48-.23-.03-.03-.05-.03-.08-.03-.15,0-.31.1-.41.21-.15.13-.18.34-.15.49l.93,3.48c.05.23.28.39.52.41.36.05.72.05,1.08.05,2.12,0,4.31-.46,6.43-1.37,2.3-.98,3.98-2.48,4.88-4.34.93-1.94.93-4.05.03-6.19-1.73-4-4.52-4.8-9.73-4.9"/>
        <path class="cls-7" d="M371.06,11.78c-4.08-1.42-4.75-2.17-4.88-3.77-.08-.8.13-1.52.65-2.06.57-.65,1.52-1.01,2.74-1.11.23-.03.44-.03.65-.03,1.55,0,3.17.46,4.54,1.34.1.05.21.08.28.08.13,0,.21-.03.26-.05.21-.08.31-.26.31-.46l.26-3.51c.03-.23-.13-.46-.31-.57-1.52-.67-3.12-1.03-4.9-1.03-.44,0-.88.03-1.32.08-2.43.21-4.44,1.06-5.81,2.48-1.45,1.45-2.09,3.36-1.88,5.55.36,4.05,2.76,5.6,7.67,7.3,4.1,1.42,4.78,2.22,4.96,4.13.08,1.03-.21,1.86-.88,2.5-.65.65-1.63,1.03-2.84,1.16-.23.03-.52.03-.8.03-2.5,0-4.7-.96-5.78-1.55-.05-.05-.15-.08-.26-.08-.08,0-.18.03-.26.08-.15.08-.26.26-.28.46l-.21,3.59c0,.23.1.46.34.54,1.76.75,3.85,1.16,6.01,1.16.49,0,1.03-.03,1.52-.08,2.53-.23,4.57-1.14,6.01-2.66,1.47-1.5,2.14-3.54,1.94-5.86-.41-4.34-2.79-5.94-7.72-7.67"/>
        <path class="cls-7" d="M402.77.6L383.25,0c-.15,0-.31.05-.39.15-.1.1-.18.23-.18.39l-.1,3.2c0,.28.23.54.54.54l7.61.23-.67,21.86c-.03.31.23.57.54.57l3.46.1h.03c.15,0,.28-.05.39-.13.1-.13.18-.26.18-.41l.67-21.84,7.82.23c.18,0,.31-.05.44-.15.1-.15.15-.31.13-.46l-.41-3.2c-.03-.26-.26-.49-.54-.49"/>
        <path class="cls-7" d="M431.36,4.85l-3.43-.59h-.1c-.1,0-.23.03-.31.08-.13.1-.21.23-.26.39l-2.61,15.36c-.67,3.82-2.53,5.76-5.63,5.76-.44,0-.93-.03-1.39-.1-4.8-.85-5.16-4.67-4.62-7.77l2.61-15.26c.03-.13,0-.28-.1-.41-.08-.1-.21-.21-.36-.23l-3.43-.57h-.08c-.28,0-.52.15-.57.44l-2.71,15.69c-1.08,6.5,2.17,11.23,8.54,12.34.77.13,1.55.18,2.3.18,5.27,0,8.96-3.41,9.94-9.16l2.66-15.49c.08-.31-.13-.59-.44-.65"/>
        <path class="cls-7" d="M448.82,9.75l-7.07-2.32c-.05,0-.1-.03-.15-.03-.1,0-.18.03-.26.08-.13.05-.23.18-.28.31l-7.98,24.34c-.1.26.08.62.34.7l6.94,2.27c1.94.65,3.82.96,5.6.96,5.73,0,10.09-3.38,12.03-9.27,2.61-7.92-.83-14.27-9.16-17.04M453.49,25.37c-1.39,4.26-3.98,6.43-7.72,6.43-1.19,0-2.56-.23-3.98-.72l-3.2-1.06,5.68-17.27,3.3,1.11c5.58,1.81,7.72,6.01,5.91,11.51"/>
        <path class="cls-7" d="M473.68,19.56c-.05-.13-.18-.26-.28-.31l-3.2-1.42c-.05-.03-.13-.05-.21-.05-.23,0-.44.1-.52.34l-10.53,23.31c-.15.28,0,.62.28.75l3.15,1.45c.1.03.15.03.23.03s.13,0,.21-.03c.13-.05.23-.15.31-.28l10.53-23.36c.08-.13.08-.28.03-.41"/>
        <path class="cls-7" d="M492.45,28.77c-2.06-1.21-4.18-1.83-6.35-1.83-4.41,0-8.6,2.68-11.41,7.41-4.23,7.12-2.79,14.4,3.54,18.15,2.04,1.24,4.18,1.86,6.3,1.86,4.47,0,8.65-2.71,11.46-7.43,4.28-7.2,2.87-14.33-3.54-18.15M491.91,44.54c-2.06,3.48-4.8,5.37-7.69,5.37-1.26,0-2.53-.36-3.77-1.08-4.05-2.4-4.67-7.07-1.68-12.11,2.06-3.48,4.78-5.39,7.67-5.39,1.26,0,2.56.39,3.77,1.11,4.05,2.4,4.7,7.07,1.7,12.11"/>
        <path class="cls-7" d="M517.74,57.22c1.55-1.91,2.14-4.03,1.73-6.09-.41-2.01-1.73-3.98-3.85-5.7l-5.42-4.39c-.1-.08-.23-.1-.36-.1h-.05c-.15.03-.28.08-.36.18l-16.08,19.93c-.13.13-.15.26-.13.44,0,.13.08.26.21.36l2.71,2.17c.08.1.23.15.34.15.03,0,.03-.03.05-.03.15,0,.28-.08.39-.21l6.43-7.95,1.39,1.11-.83,13.24c-.03.21.1.44.31.52l3.23,1.63c.08.03.15.05.26.05s.18-.03.26-.08c.18-.08.26-.26.28-.44l.75-12.36c1.03.34,2.01.54,2.92.54,2.25,0,4.28-1.06,5.83-2.97M514.05,54.46c-.75.93-1.65,1.39-2.71,1.39s-2.35-.49-3.56-1.5l-1.88-1.52,4.83-5.99,2.14,1.76c1.21.96,1.91,1.96,2.09,2.97.18.96-.13,1.94-.9,2.89"/>
        <path class="cls-7" d="M516.64,83.31c2.25,2.37,4.85,3.61,7.56,3.61s5.27-1.19,7.64-3.38l11.46-10.79c.23-.23.23-.57.03-.8l-2.43-2.56c-.08-.1-.21-.15-.39-.15-.13,0-.28.05-.39.13l-11.36,10.71c-1.65,1.55-3.28,2.35-4.85,2.35-1.45,0-2.84-.7-4.13-2.06-3.36-3.54-1.32-6.84.98-9.01l11.25-10.58c.1-.1.18-.26.18-.39,0-.15-.05-.28-.18-.39l-2.37-2.56c-.1-.13-.26-.18-.39-.18-.15,0-.28.05-.41.15l-11.59,10.92c-4.8,4.54-5.06,10.25-.62,14.97"/>
        <path class="cls-7" d="M527.79,94.29c-.03.13,0,.31.08.44l1.81,2.74c.1.13.28.23.46.23.1,0,.21-.03.28-.08l15.69-8.8-11.18,16.11c-.13.18-.13.44,0,.59l1.47,2.22c.1.15.26.26.44.26.05,0,.08-.03.13-.03l19.18-4.13-14.17,11.15c-.23.18-.28.52-.13.75l1.86,2.76c.08.15.23.23.36.26h.08c.15,0,.26-.03.36-.1l20.19-15.87c.26-.18.28-.52.15-.72l-2.37-3.56c-.1-.18-.28-.26-.46-.26h-.13l-20.47,4.67,12.18-17.09c.15-.15.15-.41.05-.62l-2.4-3.59c-.1-.15-.28-.26-.46-.26-.1,0-.18.03-.28.1l-22.43,12.47c-.13.08-.26.23-.28.36"/>
        <path class="cls-7" d="M559.51,157.55c-.08.13-.13.28-.05.41l.77,3.41c.05.23.31.41.57.41h.1l9.58-2.27.49,2.09c.59,2.45,1.57,4.39,2.92,5.73,1.42,1.45,3.2,2.19,5.24,2.19.72,0,1.5-.1,2.27-.28,4.85-1.16,6.94-5.19,5.6-10.82l-1.57-6.63c-.03-.13-.1-.23-.23-.34-.1-.05-.21-.08-.28-.08s-.1,0-.15.03l-24.91,5.89c-.15.03-.26.15-.34.26M574.56,158.56l7.74-1.86.59,2.5c.36,1.57.34,2.84-.13,3.77-.44.88-1.29,1.5-2.56,1.78-.41.1-.83.18-1.21.18-1.94,0-3.25-1.39-3.9-4.1l-.54-2.27Z"/>
        <path class="cls-7" d="M563.91,173.31c-.13,0-.26.05-.36.13-.15.1-.21.31-.21.46l.39,3.51c.05.23.21.44.44.49l7.59,1.91,1.14,9.73-7.25,3.72c-.21.13-.34.41-.23.67l1.11,3.28c.05.13.15.28.31.34.08.03.13.03.18.03.13,0,.21,0,.28-.05l23.95-12.67c.23-.08.34-.31.31-.54l-.41-3.46c0-.23-.18-.44-.41-.49l-26.69-7.02c-.05-.03-.08-.03-.13-.03M585.1,183.22l-8.23,4.26-.77-6.56,9.01,2.3Z"/>
        <path class="cls-7" d="M592.51,202.49c-.13-.13-.26-.18-.41-.18l-25.58-.59h-.03c-.28,0-.54.23-.57.54l-.05,3.48c-.03.15.03.31.13.41.13.08.26.15.41.15l10.22.23-.03,1.81-11.02,7.41c-.15.13-.28.34-.23.57l.72,3.54c.03.18.15.34.34.41.05.03.13.03.18.03.13,0,.23-.03.31-.08l10.3-6.92c1.11,3.41,3.67,5.34,7.25,5.39.08.03.15.03.26.03,4.72,0,7.64-3.33,7.8-8.88l.13-6.97c.03-.15-.03-.28-.13-.39M588.38,206.83l-.08,2.76c-.05,3.02-1.34,4.52-3.79,4.52h-.13c-3.38-.05-3.79-3.17-3.74-5.03l.03-2.43,7.72.18Z"/>
        <path class="cls-7" d="M590.98,229.72l-24.81-6.61h-.18c-.08,0-.18.03-.26.08-.15.08-.23.23-.26.36l-.59,3.23c-.05.28.1.57.39.62l17.45,4.59-19.23,3.82c-.23.03-.41.21-.46.44l-.46,2.58c-.03.23.08.44.26.57l16.67,10.35-17.94-1.83h-.05c-.28,0-.52.18-.57.46l-.59,3.28c-.03.15,0,.31.1.41.1.15.23.23.36.23l25.58,2.63h.05c.26,0,.52-.18.54-.44l.77-4.21c.03-.23-.08-.46-.28-.59l-17.97-10.84,20.68-3.82c.21-.05.39-.21.44-.44l.75-4.23c.05-.28-.1-.57-.39-.65"/>
        <path class="cls-7" d="M583.11,265.6l-24.26-8.26c-.05-.03-.1-.03-.15-.03-.23,0-.44.13-.54.39l-4.57,13.4c-.05.13-.03.31.03.41.08.15.18.26.34.28l3.02,1.03c.05.03.1.03.18.03.23,0,.46-.13.52-.36l3.28-9.58,7.1,2.4-2.58,7.54c-.05.18-.03.34.05.49.08.13.23.21.39.23l3.17.57h.1c.23,0,.46-.13.54-.36l2.4-7.07,5.96,2.04-3.15,9.24c-.05.13-.03.28.03.41.08.15.21.23.31.28l3.02,1.03c.05,0,.15.03.21.03.21,0,.44-.13.52-.39l4.44-13.06c.1-.28-.05-.59-.34-.7"/>
        <path class="cls-7" d="M575.34,287.25l-22.95-11.36c-.1-.03-.18-.05-.26-.05-.21,0-.39.1-.52.31l-1.42,2.92c-.05.1-.05.28-.03.41.05.15.15.26.28.31l16.31,8.05-22.38,3.54c-.21.03-.34.13-.41.31l-1.19,2.35c-.1.28,0,.62.26.72l22.95,11.36c.1.05.18.05.26.05.23,0,.41-.1.52-.31l1.42-2.89c.05-.13.08-.28.03-.41-.05-.15-.13-.26-.28-.34l-15.64-7.72,21.5-3.41c.18-.03.34-.15.44-.31l1.37-2.79c.13-.26.03-.62-.26-.75"/>
        <path class="cls-7" d="M556.16,309.92c-1.32-.9-2.53-1.32-3.82-1.32-1.99,0-4.1,1.06-6.69,2.66-2.27,1.39-3.48,1.94-4.47,1.94-.59,0-1.14-.21-1.86-.67-1.7-1.16-1.91-3.15-.52-5.19,1.55-2.35,4-3.61,5.29-4.16.21-.08.31-.23.34-.41.05-.21-.03-.39-.18-.52l-2.66-2.43c-.1-.08-.23-.13-.36-.13-.1,0-.18.03-.28.05-2.09,1.14-4.08,2.99-5.58,5.21-2.89,4.28-2.25,8.91,1.63,11.49,1.47.98,2.79,1.45,4.13,1.45,1.76,0,3.69-.75,6.69-2.61,2.32-1.42,3.56-1.96,4.49-1.96.52,0,.96.15,1.52.52,1.52,1.03,1.65,2.74.34,4.67-.96,1.45-2.53,2.58-4.28,3.2-.18.05-.31.21-.36.39-.03.21.03.41.15.54l2.61,2.4c.08.1.23.15.36.15.08,0,.18,0,.26-.05,1.86-.9,3.36-2.27,4.65-4.21,1.37-2.01,1.96-4.13,1.73-6.09-.23-2.01-1.34-3.72-3.12-4.93"/>
        <path class="cls-7" d="M527.95,316.68c-.1-.08-.23-.1-.36-.1-.15,0-.31.05-.44.18l-2.17,2.74c-.13.1-.15.23-.15.39.03.13.13.28.23.36l19.9,16.11c.08.08.23.15.34.15h.05c.18-.03.28-.13.41-.23l2.17-2.68c.21-.26.18-.59-.08-.8l-19.9-16.11Z"/>
        <path class="cls-7" d="M530.57,335.97c-1.5,0-3.2.44-5.94,1.52-2.09.83-3.3,1.16-4.21,1.16-.85,0-1.47-.31-2.25-1.03-1.5-1.42-1.32-3.41.39-5.21,1.96-2.01,4.57-2.84,5.99-3.15.15-.05.31-.15.39-.36.08-.15.03-.36-.1-.52l-2.17-2.84c-.13-.13-.28-.23-.46-.23-.05,0-.1,0-.15.03-2.27.75-4.54,2.22-6.43,4.13-1.73,1.81-2.71,3.85-2.79,5.91-.13,2.12.7,4.1,2.37,5.7,1.6,1.55,3.12,2.25,4.96,2.25,1.5,0,3.25-.46,5.89-1.5,2.17-.83,3.41-1.19,4.28-1.19.75,0,1.26.26,1.88.85,1.32,1.26,1.16,2.97-.46,4.65-1.21,1.24-2.94,2.12-4.8,2.37-.21.05-.36.18-.41.36-.1.15-.08.39.05.52l2.12,2.84c.1.13.26.23.46.23.03,0,.08,0,.13-.05,1.96-.54,3.74-1.65,5.37-3.3,3.43-3.59,3.67-8.03.52-11.1-1.45-1.39-2.89-2.04-4.62-2.04"/>
        <path class="cls-7" d="M193.73,237.91c0,2.06,1.68,3.77,3.77,3.77s3.74-1.7,3.74-3.77-1.68-3.77-3.74-3.77-3.77,1.7-3.77,3.77"/>
        <path class="cls-7" d="M341.99,16.25c-.65-.44-1.37-.67-2.14-.67-1.21,0-2.37.59-3.07,1.6-1.21,1.7-.8,4.03.93,5.24.65.41,1.37.67,2.12.67,1.24,0,2.4-.62,3.1-1.63,1.21-1.68.77-4.03-.93-5.21"/>
        <path class="cls-7" d="M564.37,128.67c-.46,0-.96.08-1.39.28-1.94.77-2.87,2.97-2.09,4.88.59,1.42,1.94,2.35,3.48,2.35.46,0,.96-.1,1.42-.28,1.91-.77,2.84-2.97,2.06-4.9-.59-1.39-1.94-2.32-3.48-2.32"/>
      </g>
    </g>
  </g>
</svg>