<?xml version="1.0" encoding="UTF-8"?>
<svg id="Livello_2" data-name="Livello 2" xmlns="http://www.w3.org/2000/svg" xmlns:xlink="http://www.w3.org/1999/xlink" viewBox="0 0 1862.9 654.5">
  <defs>
    <style>
      .cls-1 {
        fill: none;
      }

      .cls-2 {
        clip-path: url(#clippath-1);
      }

      .cls-3 {
        clip-path: url(#clippath-3);
      }

      .cls-4 {
        clip-path: url(#clippath-2);
      }

      .cls-5 {
        fill: #fff;
      }

      .cls-6 {
        clip-path: url(#clippath);
      }
    </style>
    <clipPath id="clippath">
      <rect class="cls-1" width="1862.9" height="654.46"/>
    </clipPath>
    <clipPath id="clippath-1">
      <rect class="cls-1" width="1862.9" height="654.46"/>
    </clipPath>
    <clipPath id="clippath-2">
      <rect class="cls-1" width="1862.9" height="654.46"/>
    </clipPath>
    <clipPath id="clippath-3">
      <rect class="cls-1" width="1862.9" height="654.46"/>
    </clipPath>
  </defs>
  <g id="Livello_1-2" data-name="Livello 1">
    <g>
      <path class="cls-5" d="M1492.14,87.74l85.52,148.7h-173.53l88-148.7ZM1386.53.19l-257.77,395.49h179.54l51-83.87h261.45l48.59,83.87h193.53L1605.57.19h-219.03Z"/>
      <rect class="cls-5" x="774.88" y=".15" width="181.42" height="395.49"/>
      <g class="cls-6">
        <path class="cls-5" d="M177.81,71.12v88.23h55.21c24.3.6,48.59-1.88,72.81-7.37,4.29-.6,8.5-2.41,12.79-4.21,7.9-2.48,14.52-6.84,20.08-12.34,5.42-6.09,8.5-14.07,8.5-21.96,0-8.57-3.69-15.87-10.3-21.44-4.89-4.89-10.3-7.97-16.4-10.38-14.52-4.89-29.71-8.65-45.51-9.18-10.91-1.28-22.41-1.28-33.4-1.28h-63.63l-.15-.08ZM177.81,229.07v93.72h71.61c23.69.6,47.39-2.48,70.4-7.97,4.81-1.2,9.1-2.41,13.99-4.29,7.3-3.08,13.92-7.9,20.01-13.46,5.57-6.09,8.57-13.99,8.57-22.04,0-10.38-4.89-20.23-13.39-26.33-3.69-3.01-8.57-5.49-13.39-7.9-13.99-5.49-29.79-9.18-44.9-9.78-10.91-1.2-22.41-1.88-33.32-1.88h-79.5l-.08-.08ZM0,.19h278.45c52.2-1.2,105,4.29,155.32,15.87,10.38,1.81,20.68,4.96,30.39,9.18,17.07,6.17,32.19,16.55,44.3,28.88,12.19,13.39,18.28,30.54,18.28,48.29s-7.9,36.71-22.41,48.97c-3.08,2.41-6.69,4.96-10.3,7.97-19.41,12.26-40.69,21.44-63.11,26.33-10.38,2.48-20.68,4.29-31.59,6.17,31.59,2.41,62.51,9.7,91.01,22.57,5.49,3.08,11.51,6.24,16.4,9.25,13.39,7.9,24.3,19.56,31.52,33.62,3.69,8.57,6.09,18.95,6.09,28.73.6,23.32-10.3,45.88-29.11,60.02-11.51,9.78-24.9,17.15-39.41,22.04-35.2,12.86-71.61,20.76-108.61,22.57-34,3.69-67.92,4.96-102.52,4.96H0V.19Z"/>
      </g>
      <polygon class="cls-5" points="39.33 554.95 39.33 595.04 25.34 595.04 25.34 554.95 5.78 554.95 5.78 652.66 25.34 652.66 25.34 609.03 39.33 609.03 39.33 652.66 59.04 652.66 59.04 554.95 39.33 554.95"/>
      <g class="cls-2">
        <path class="cls-5" d="M204.42,624.94v-42.2c0-9.63-2.93-14.37-8.8-14.37-1.73,0-3.23.45-4.44,1.35-1.28.83-2.11,2.03-2.71,3.61-.6,1.58-.98,3.01-1.2,4.51-.23,1.58-.38,3.16-.38,4.96v42.2c0,9.55,3.01,14.37,8.73,14.37s8.8-4.81,8.8-14.37v-.08ZM167.34,620.5v-32.87c0-23.09,9.4-34.6,28.28-34.6s28.36,11.51,28.36,34.6v32.34c0,3.91-.23,7.45-.83,10.83-.6,3.23-1.58,6.39-2.93,9.4-1.43,3.01-3.16,5.42-5.34,7.6-2.11,2.03-4.81,3.69-8.05,4.89-3.31,1.2-7.07,1.81-11.21,1.81s-7.9-.6-11.13-1.81c-3.23-1.13-5.94-2.71-8.05-4.74-2.18-1.96-3.91-4.51-5.19-7.37-1.43-2.93-2.41-6.02-3.01-9.25-.53-3.31-.83-6.92-.83-10.83h-.08Z"/>
        <path class="cls-5" d="M332.24,652.66v-97.71h23.47l10.3,65.14,11.13-65.14h22.64v97.71h-14.37l-.45-68.67c-1.13,7.07-2.93,18.43-5.72,34.37-2.63,15.8-4.51,27.3-5.57,34.37h-14.59l-11.88-69.2-.45,69.2h-14.52v-.08Z"/>
      </g>
      <polygon class="cls-5" points="509.27 554.95 509.27 652.66 549.74 652.66 549.74 639.04 528.9 639.04 528.9 608.96 543.65 608.96 543.65 595.12 528.9 595.12 528.9 568.56 549.74 568.56 549.74 554.95 509.27 554.95"/>
      <g class="cls-4">
        <path class="cls-5" d="M796.38,592.63c1.73-2.48,3.16-5.42,4.29-8.65,1.13-3.23,1.73-6.32,1.73-9.25,0-2.11-.45-3.99-1.28-5.57-.75-1.58-2.11-2.41-3.99-2.41-3.08,0-4.59,2.71-4.59,8.12s1.28,11.58,3.84,17.75M801.65,635.66c-4.44-7.3-7.67-13.01-9.78-17.07-.68.68-1.28,2.18-1.73,4.44-.45,2.26-.75,4.66-.75,7.15,0,3.01.38,5.49,1.13,7.52.75,1.96,1.88,3.01,3.46,3.01,2.56,0,5.11-1.65,7.67-5.04ZM829.78,638.44v15.49l-3.23.3c-4.21,0-9.1-2.71-14.74-8.12-2.33,2.63-5.11,4.59-8.2,6.09-3.16,1.35-6.47,2.11-10,2.11-6.54,0-11.66-2.18-15.42-6.47-3.69-4.29-5.57-9.7-5.57-16.32,0-9.48,4.06-18.88,12.26-28.06-5.72-12.86-8.57-22.34-8.57-28.66s1.73-11.36,5.19-15.42c3.54-4.21,8.27-6.24,14.44-6.24s11.51,1.88,15.34,5.64c3.99,3.76,5.94,8.88,5.94,15.19,0,5.87-1.35,11.36-3.99,16.25-2.63,4.96-6.24,10-11.06,14.89l10.08,16.92c1.43-3.91,2.18-9.48,2.18-16.77h14.89c0,6.54-.68,11.96-1.88,16.1s-3.31,8.35-6.24,12.71c1.05,1.2,2.33,2.11,3.91,2.93,1.5.75,3.08,1.28,4.66,1.35v.08Z"/>
        <path class="cls-5" d="M1057.84,626.53v-39.56c0-19.33,8.12-29.03,24.37-29.03,2.56,0,4.89.3,7,.9,2.03.6,3.84,1.35,5.34,2.33,1.43.98,2.71,2.26,3.76,3.84,1.13,1.58,2.03,3.16,2.63,4.89.68,1.65,1.2,3.54,1.58,5.87.38,2.18.6,4.36.83,6.39.08,2.03.23,4.36.23,7v.6h-8.27v-7.45c0-1.28-.23-3.16-.45-5.34-.23-2.26-.6-3.91-1.13-5.11l-2.26-3.69c-.98-1.28-2.18-2.18-3.76-2.71-1.58-.6-3.46-.9-5.64-.9-3.01,0-5.57.53-7.67,1.58-2.18,1.05-3.84,2.48-5.04,4.36-1.2,1.88-2.03,3.84-2.56,5.94s-.75,4.44-.75,7.07v46.63c0,2.41.23,4.59.6,6.47.38,1.88,1.2,3.69,2.26,5.42,1.05,1.73,2.63,3.01,4.74,4.06,2.11.9,4.74,1.43,7.82,1.43,2.86,0,5.27-.53,7.3-1.5,2.03-.98,3.54-2.41,4.51-4.14,1.05-1.81,1.73-3.61,2.11-5.49.45-1.88.68-3.99.68-6.32v-15.72h-11.36v-6.32h19.48v44.6h-3.61l-2.48-9.18c-1.2,3.23-3.31,5.79-6.47,7.75-3.08,1.88-6.54,2.86-10.23,2.86-2.48,0-4.74-.23-6.77-.68-2.11-.45-3.84-.98-5.34-1.73-1.5-.68-2.86-1.65-4.06-2.71l-2.93-3.38-2.03-3.99-1.28-3.99-.75-4.06c-.08-1.5-.23-2.71-.23-3.69v-3.23l-.15-.08Z"/>
      </g>
      <path class="cls-5" d="M1234.34,567.79l9.7,55.06h-19.41l9.7-55.06ZM1229.08,559.22l-18.35,93.42h8.27l4.66-24.3h21.36l4.66,24.3h8.27l-18.28-93.42h-10.61Z"/>
      <g class="cls-3">
        <path class="cls-5" d="M1374.57,600.45h16.4c2.33,0,4.29-.45,5.94-1.43,1.65-.9,2.78-2.26,3.61-3.99.83-1.81,1.43-3.61,1.81-5.42.3-1.88.45-3.99.45-6.39,0-2.03-.15-3.84-.3-5.42-.23-1.58-.53-3.16-1.13-4.66-.53-1.5-1.2-2.78-2.03-3.84l-3.38-2.48c-1.43-.6-3.01-.9-4.89-.9h-16.47v34.52ZM1366.37,652.65v-93.42h24.67c3.16,0,5.87.45,8.27,1.35,2.33.83,4.29,1.96,5.64,3.46,1.43,1.43,2.63,3.23,3.54,5.34.9,2.11,1.5,4.21,1.81,6.54.38,2.33.53,4.74.53,7.52,0,11.88-4.29,19.48-12.86,22.64l14.22,46.56h-8.65l-13.54-45.58h-15.57v45.58h-8.2.15Z"/>
        <path class="cls-5" d="M1529.97,646.03h12.64c10.3,0,15.42-6.39,15.42-19.11v-41.67c0-12.94-5.11-19.33-15.42-19.33h-12.64v80.11ZM1521.77,652.65v-93.42h20.84c3.54,0,6.62.45,9.33,1.5,2.78.9,5.04,2.26,6.77,3.91,1.81,1.58,3.31,3.69,4.36,6.02,1.13,2.41,1.96,4.96,2.48,7.6.45,2.63.75,5.64.75,8.88v37.98c0,18.43-7.9,27.6-23.62,27.6h-20.84l-.08-.08Z"/>
      </g>
      <polygon class="cls-5" points="1678.23 559.22 1678.23 652.63 1710.43 652.63 1710.43 646.09 1686.36 646.09 1686.36 607.58 1703.58 607.58 1703.58 601.26 1686.36 601.26 1686.36 565.91 1710.43 565.91 1710.43 559.22 1678.23 559.22"/>
      <polygon class="cls-5" points="1854.58 559.22 1854.58 633.23 1825.32 559.22 1819 559.22 1819 652.63 1826 652.63 1826 580.28 1855.41 652.63 1861.57 652.63 1861.57 559.22 1854.58 559.22"/>
      <rect class="cls-5" y="476.05" width="1862.82" height="5.79"/>
    </g>
  </g>
</svg>