<?xml version="1.0" encoding="UTF-8"?>
<svg id="Livello_2" data-name="Livello 2" xmlns="http://www.w3.org/2000/svg" xmlns:xlink="http://www.w3.org/1999/xlink" viewBox="0 0 1136.25 267.36">
  <defs>
    <style>
      .cls-1 {
        fill: none;
      }

      .cls-2 {
        fill: #fff;
      }

      .cls-3 {
        clip-path: url(#clippath);
      }
    </style>
    <clipPath id="clippath">
      <rect class="cls-1" y=".01" width="1136.24" height="267.35"/>
    </clipPath>
  </defs>
  <g id="Livello_1-2" data-name="Livello 1">
    <g class="cls-3">
      <path class="cls-2" d="M303.09,132.79l-61.62-107.15-26.69,46.49,21.46,37.31h-56.74c7.37,6.35,11.9,15.02,11.9,24.58s-4.38,17.91-11.48,24.23h56.18l-21.3,37.15,26.66,46.38,61.62-107.2c.32-.56.32-1.23,0-1.79Z"/>
      <path class="cls-2" d="M200,221.15l-.03.05h-100.56l-50.25-87.4,50.25-87.43h100.56L226.61,0H87.49c-8.97,0-17.27,4.83-21.75,12.62L3.38,121.08c-4.48,7.79-4.48,17.4,0,25.22l62.53,108.75c4.38,7.61,12.49,12.3,21.24,12.3h139.41l-26.55-46.19Z"/>
      <path class="cls-2" d="M149.89,156.46c12.41,0,22.47-10.09,22.47-22.55s-10.06-22.55-22.47-22.55-22.47,10.09-22.47,22.55,10.06,22.55,22.47,22.55"/>
      <path class="cls-2" d="M405.08,242.2c-34.29-.29-50.57-4.27-60.23-11.4-9.66-7.15-14.62-18.87-14.92-35.23-.16-9.37,1.2-21.96,4.11-37.73l9.26-48.44c3.26-16.89,7.63-30.69,13.16-41.39,5.52-10.7,12.33-19.05,20.47-25.06,8.11-6,17.85-10.25,29.22-12.68,11.37-2.46,25.19-3.66,41.47-3.66,14.2,0,25.38.27,33.52.83,8.14.56,15.32,2.08,21.54,4.51,6.22,2.46,11.05,6.43,14.52,11.98,3.47,5.52,5.28,13.18,5.44,22.95.11,6-.43,12.86-1.6,20.55l-2.32,11.56h-40.4l2.32-11.56c.85-4.32,1.28-7.87,1.23-10.7-.11-6.75-2.99-11.02-8.65-12.81-5.63-1.79-16.41-2.67-32.29-2.67-11.05,0-19.64.59-25.78,1.81-6.16,1.23-11.16,3.5-15.02,6.75-3.87,3.31-7.02,7.98-9.45,14.09-2.4,6.11-4.75,14.6-6.99,25.49l-8.99,46.75c-2.4,12.6-3.55,21.78-3.44,27.59.16,9.02,3.15,15.08,8.99,18.17,5.87,3.1,16.65,4.64,32.34,4.64,9.74,0,14.76-.29,20.18-.85,5.39-.56,10.14-1.12,14.22-3.02,4.08-1.87,7.45-4.27,10.09-8.51,2.64-4.22,4.72-10.09,6.27-17.59l2.05-11.56h40.38l-2.56,13.8c-2.72,14.65-6.7,26.18-11.88,34.64-5.18,8.43-11.53,15.24-19.03,19.08-7.5,3.84-15.64,6.38-24.42,7.61-8.75,1.23-20.9,2.21-37.52,2.03h-5.28Z"/>
      <path class="cls-2" d="M716.21,241.33h-35.71l26.95-138.13c1.28-6.54,6.97-11.24,13.61-11.24h24.28l-29.14,149.36Z"/>
      <path class="cls-2" d="M862.1,147.41c1.71-8.54,2.56-12.86,2.56-16.84,0-6.08-2-9.95-5.95-11.69-3.98-1.71-11.74-2.56-23.24-2.56-7.95,0-14.17.48-18.71,1.44-4.54.93-8.09,2.62-10.62,4.96-2.56,2.38-4.59,5.55-6.08,9.55-1.52,3.98-3.04,7.74-4.56,15.13h66.61ZM888.73,192.59c-2.46,11.37-5.95,20.44-10.49,27.17-4.54,6.75-10.11,11.66-16.71,14.81-6.62,3.12-13.9,5.1-21.83,5.95-7.93.85-18.23,1.28-30.9,1.28-21.16,0-36.03-2.88-44.62-8.67-8.59-5.76-12.92-15.88-12.92-30.29,0-8.91,1.71-21.24,5.12-36.99,3.02-14.62,6.32-26.55,9.9-35.87,3.6-9.29,8.41-16.97,14.46-23.03,6.03-6.08,13.88-10.59,23.51-13.53,9.66-2.94,21.94-4.4,36.85-4.4,21.91,0,37.12,2.7,45.63,8.11,8.49,5.39,12.73,15.21,12.73,29.44,0,10.06-2.16,25.25-6.51,45.53h-102.29c-2.67,12.52-3.98,20.98-3.98,25.33,0,6.24,1.97,10.67,5.95,13.24,3.98,2.56,11.24,3.84,21.83,3.84,12.28,0,21.19-1.2,26.77-3.55,5.58-2.38,9.5-8.49,11.77-18.36h35.71Z"/>
      <path class="cls-2" d="M1020.46,134.12c.67-2.67,2.46-7.55,2.38-9.47-.13-3.34-1.52-5.12-5.12-6.35-3.58-1.2-10.25-1.89-19.99-2.08-11.85-.19-20.5.72-25.91,2.72-5.42,2.03-9.23,4.27-11.45,13.24-.69,2.7-1.04,4.88-1.09,6.59-.16,4.03,1.76,6.67,5.74,7.87,3.98,1.23,12.81,2.24,26.55,3.07l7.74.43c9.13.53,16.33,1.15,21.56,1.81,5.23.67,10.11,2.05,14.62,4.14,4.54,2.08,8.03,5.23,10.57,9.39s3.68,9.69,3.44,16.6c-.16,4.99-1.04,10.51-2.59,16.63-2.43,9.74-6.19,17.59-11.29,23.54-5.07,5.95-11.1,10.41-18.09,13.34-6.99,2.94-14.6,4.83-22.84,5.63-8.25.83-17.91,1.15-28.98.93-11.29-.19-20.15-.53-26.63-1.04-6.48-.51-12.28-1.73-17.35-3.76-5.1-2-8.99-5.18-11.72-9.55-2.72-4.35-3.95-10.17-3.71-17.45.19-5.18,1.79-10.67,3.58-17.75h36.11c-.93,4.59-2.11,8.25-2.16,10.91-.08,4,1.57,6.24,5.34,7.93,3.76,1.71,11.29,2.67,22.55,2.86,13.18.24,22.44-.72,27.78-2.83,5.31-2.11,9.1-4.4,11.32-13.4.91-3.63,1.36-6.3,1.44-8.03.13-4.19-2.08-7.31-6.7-9.31-4.62-2-13.61-3.2-26.98-3.63-22.34-.77-37.55-3.02-45.63-6.7-8.09-3.71-11.96-10.73-11.61-21.06.19-4.99,1.36-11.69,3.58-20.1,2.46-9.93,6.06-17.77,10.86-23.54,4.78-5.76,10.51-9.87,17.19-12.36,6.7-2.46,13.82-3.98,21.4-4.51,7.55-.53,17.35-.69,29.41-.48,8.78.13,16.12.51,22.02,1.09,5.9.59,11.56,1.89,16.92,3.9,5.39,2,9.63,5.15,12.73,9.42,3.1,4.3,4.54,9.95,4.27,17.05-.13,3.84-2.03,9.93-3.12,14.3h-36.11Z"/>
      <path class="cls-2" d="M1095.07,241.33h-35.71l26.85-137.62c1.33-6.83,7.29-11.74,14.22-11.74h23.78l-29.14,149.36Z"/>
      <path class="cls-2" d="M639.39,134.78c.67-4.59-1.25-16.07-14.38-16.65-6.14-.27-44.65-5.71-50.14,14.94l-21.11,108.32h-35.71l39.28-201.46c1.55-8.01,8.54-13.77,16.68-13.77h21.72l-14.22,72.91c15.37-9.31,31.65-8.19,44.06-8.19,15.13,0,29.89,3.02,36.59,8.03,6.7,5.04,12.28,11.66,12.49,22.68.08,5.87-.64,14.49-2.21,22.63l-18.57,97.17h-35.12l20.66-106.61Z"/>
      <path class="cls-2" d="M756.87,45.43c.27,10.46-8.38,19.85-19.32,20.95-10.97,1.09-20.07-6.51-20.34-16.97-.27-10.49,8.38-19.85,19.32-20.95,10.97-1.09,20.07,6.51,20.34,16.97"/>
      <path class="cls-2" d="M1136.24,45.14c.27,10.46-8.38,19.85-19.32,20.95-10.97,1.09-20.04-6.51-20.34-16.97-.27-10.49,8.38-19.85,19.32-20.95,10.97-1.09,20.07,6.51,20.34,16.97"/>
    </g>
  </g>
</svg>