<?xml version="1.0" encoding="UTF-8"?>
<svg id="Livello_2" data-name="Livello 2" xmlns="http://www.w3.org/2000/svg" xmlns:xlink="http://www.w3.org/1999/xlink" viewBox="0 0 930.28 403.29">
  <defs>
    <style>
      .cls-1 {
        fill: none;
      }

      .cls-2 {
        fill: #fff;
      }

      .cls-3 {
        clip-path: url(#clippath);
      }
    </style>
    <clipPath id="clippath">
      <rect class="cls-1" x=".01" width="930.27" height="403.29"/>
    </clipPath>
  </defs>
  <g id="Livello_1-2" data-name="Livello 1">
    <g class="cls-3">
      <path class="cls-2" d="M31.52,234.9C6.28,214.22,0,187.14,0,164.56c0-15.92,6.01-43.73,29.18-64.88,15.63-14.26,39.32-25.43,79.43-25.43,10.43,0,25.01.71,37.77,2.84,9.88,1.65,18.2,3.1,26.56,3.57,2.86.24,3.36,1.18,3.36,2.63,0,1.89-.79,4.73-1.29,13.29-.53,7.85-.53,20.91-.79,24.48-.29,3.57-.81,4.99-2.36,4.99-1.81,0-2.08-1.65-2.08-4.99,0-9.27-4.18-19.02-10.95-24.24-9.11-7.14-29.18-13.53-52.09-13.53-34.65,0-50.8,9.27-59.91,17.34-19.02,16.63-23.46,37.77-23.46,62.01,0,45.39,38.3,86.97,94.01,86.97,19.52,0,34.91-2.13,45.31-11.87,5.49-5.2,8.85-15.68,9.64-19.96.53-2.63,1.05-3.55,2.63-3.55,1.29,0,1.81,1.65,1.81,3.55,0,1.65-3.13,22.35-5.73,30.42-1.55,4.49-2.08,4.99-6.78,6.91-10.43,3.81-30.18,5.46-46.86,5.46-39.08,0-65.35-8.8-85.94-25.66h.05Z"/>
      <path class="cls-2" d="M261.24,188.33c0,22.83,0,41.58,1.31,51.56.79,6.91,2.34,12.13,10.14,13.05,3.65.47,9.38.95,11.71.95,1.55,0,2.08.74,2.08,1.44,0,1.18-1.31,1.89-4.18,1.89-14.32,0-30.73-.71-32.02-.71s-17.7.71-25.5.71c-2.86,0-4.18-.45-4.18-1.89,0-.71.53-1.44,2.1-1.44,2.34,0,5.46-.47,7.83-.95,5.2-.92,6.49-6.17,7.54-13.05,1.29-9.98,1.29-28.74,1.29-51.56v-41.82c0-37.06,0-43.71-.5-51.32-.53-8.09-3.13-12.11-8.85-13.29-2.86-.74-6.28-.95-8.06-.95-1.05,0-2.1-.47-2.1-1.44,0-1.42,1.31-1.89,4.18-1.89,8.59,0,24.98.71,26.29.71s17.7-.71,25.53-.71c2.84,0,4.15.47,4.15,1.89,0,.95-1.02,1.44-2.1,1.44-1.81,0-3.36.24-6.49.71-7.04,1.18-9.14,5.23-9.64,13.53-.53,7.62-.53,14.26-.53,51.32v41.82Z"/>
      <path class="cls-2" d="M337.29,254.15c-3.65-1.65-3.89-2.63-3.89-9.04,0-11.87,1.02-21.38,1.29-25.19.29-2.63.79-3.81,2.08-3.81,1.55,0,1.84.71,1.84,2.63,0,2.13,0,5.46.79,8.77,3.89,17.6,21.09,24.27,38.53,24.27,25.01,0,37.25-16.42,37.25-31.6,0-16.42-7.54-25.92-29.94-42.79l-11.71-8.77c-27.61-20.7-33.86-35.41-33.86-51.59,0-25.43,20.83-42.76,53.92-42.76,10.17,0,17.7.95,24.19,2.36,4.96.95,7.04,1.18,9.14,1.18s2.6.47,2.6,1.68-1.02,9.01-1.02,25.16c0,3.83-.53,5.49-1.84,5.49-1.55,0-1.81-1.21-2.08-3.1-.29-2.84-1.84-9.27-3.39-11.87-1.55-2.63-8.62-12.61-32.57-12.61-17.97,0-32.02,10.22-32.02,27.58,0,13.53,6.78,22.09,31.78,39.9l7.3,5.23c30.71,22.09,38.01,36.83,38.01,55.84,0,9.74-4.18,27.82-22.14,39.43-11.19,7.14-25.27,9.98-39.32,9.98-12.24,0-24.22-1.65-34.91-6.41l-.03.03Z"/>
      <path class="cls-2" d="M524.29,188.33c0,22.83,0,41.58,1.31,51.56.79,6.91,2.34,12.13,10.14,13.05,3.65.47,9.38.95,11.71.95,1.55,0,2.1.74,2.1,1.44,0,1.18-1.31,1.89-4.18,1.89-14.32,0-30.71-.71-32.02-.71s-17.7.71-25.5.71c-2.86,0-4.18-.45-4.18-1.89,0-.71.53-1.44,2.1-1.44,2.34,0,5.46-.47,7.8-.95,5.2-.92,6.51-6.17,7.56-13.05,1.29-9.98,1.29-28.74,1.29-51.56v-41.82c0-37.06,0-43.71-.5-51.32-.53-8.09-3.15-12.11-8.85-13.29-2.86-.74-6.28-.95-8.06-.95-1.05,0-2.07-.47-2.07-1.44,0-1.42,1.31-1.89,4.18-1.89,8.59,0,24.98.71,26.29.71s17.7-.71,25.5-.71c2.89,0,4.18.47,4.18,1.89,0,.95-1.02,1.44-2.08,1.44-1.81,0-3.36.24-6.49.71-7.04,1.18-9.14,5.23-9.64,13.53-.53,7.62-.53,14.26-.53,51.32v41.82h-.08Z"/>
      <path class="cls-2" d="M672.48,188.33c0,22.83,0,41.58,1.31,51.56.79,6.91,2.34,12.13,10.17,13.05,3.62.47,9.35.95,11.69.95,1.55,0,2.1.74,2.1,1.44,0,1.18-1.31,1.89-4.18,1.89-14.32,0-30.71-.71-32.02-.71s-17.7.71-25.5.71c-2.86,0-4.18-.45-4.18-1.89,0-.71.53-1.44,2.1-1.44,2.34,0,5.46-.47,7.8-.95,5.2-.92,6.51-6.17,7.56-13.05,1.29-9.98,1.29-28.74,1.29-51.56v-100.49l-38.53.47c-16.13.24-22.38,1.89-26.56,7.59-2.84,4.02-3.62,5.7-4.41,7.35-.79,1.92-1.58,2.39-2.63,2.39-.79,0-1.31-.71-1.31-2.13,0-2.39,5.2-22.83,5.73-24.72.53-1.44,1.55-4.52,2.63-4.52,1.81,0,4.41,2.39,11.45,2.86,7.54.71,17.44,1.18,20.59,1.18h97.63c8.35,0,14.34-.47,18.49-1.18,3.91-.47,6.28-1.18,7.3-1.18,1.31,0,1.31,1.42,1.31,2.84,0,7.12-.79,23.53-.79,26.13,0,2.13-.79,3.07-1.84,3.07-1.29,0-1.81-.71-2.08-4.02l-.29-2.63c-.79-7.12-7.01-12.61-32.02-13.05l-32.81-.47v100.49h-.03Z"/>
      <path class="cls-2" d="M849.82,178.58c1.31,0,1.31-.71,1.05-1.65l-24.74-64.17c-1.31-3.55-2.63-3.55-3.91,0l-22.93,64.17c-.5,1.18,0,1.65.79,1.65h49.75ZM822.74,83.55c3.13-7.85,4.18-9.27,5.73-9.27s2.6,1.18,5.7,8.56c3.91,9.01,44.81,107.14,60.68,143.28,9.38,21.14,16.94,24.93,22.41,26.37,3.89,1.18,7.8,1.44,10.43,1.44,1.55,0,2.6.24,2.6,1.42,0,1.44-2.34,1.92-5.2,1.92-3.89,0-22.93,0-40.87-.47-4.96-.26-7.83-.26-7.83-1.65,0-.95.79-1.44,1.84-1.65,1.55-.47,3.13-2.63,1.55-6.41l-24.22-58.47c-.5-.95-1.02-1.44-2.34-1.44h-55.97c-1.31,0-2.1.71-2.63,1.92l-15.63,42.05c-2.34,5.94-3.65,11.66-3.65,15.92,0,4.75,5.46,6.88,9.88,6.88h2.63c1.81,0,2.6.47,2.6,1.44,0,1.44-1.55,1.92-3.89,1.92-6.25,0-17.44-.74-20.3-.74s-17.18.74-29.44.74c-3.39,0-4.96-.47-4.96-1.92,0-.95,1.05-1.44,2.36-1.44,1.81,0,5.46-.24,7.54-.45,11.98-1.44,17.18-10.48,21.85-22.35l59.13-147.56.03-.03Z"/>
      <path class="cls-2" d="M198.82,304.27c0-9.77,0-11.58-.13-13.63-.11-2.18-.6-3.2-2.6-3.65-.5-.13-1.52-.21-2.36-.21-.68,0-1.05-.13-1.05-.58s.42-.55,1.34-.55c3.23,0,7.07.18,8.77.18,2.5,0,6.04-.18,8.83-.18,7.62,0,10.35,2.68,11.32,3.65,1.34,1.37,3.05,4.26,3.05,7.64,0,9.14-6.33,15.58-14.97,15.58l-1.29-.08-.74-.58c0-.53.42-.71,1.68-.71,3.41,0,8.17-4.07,8.17-10.61,0-2.13-.16-6.44-3.6-9.67-2.18-2.13-4.68-2.5-6.09-2.5-.89,0-1.81.08-2.36.26-.29.11-.5.5-.5,1.21v25.71c0,5.94,0,11.03.32,13.76.16,1.81.53,3.23,2.36,3.47.87.13,2.18.26,3.1.26.66,0,.97.18.97.5,0,.45-.5.66-1.16.66-4.02,0-7.88-.21-9.46-.21-1.39,0-5.23.21-7.67.21-.79,0-1.21-.21-1.21-.66,0-.32.26-.5,1-.5.89,0,1.65-.13,2.18-.26,1.21-.24,1.52-1.68,1.79-3.55.29-2.68.29-7.77.29-13.68v-11.35l.03.05Z"/>
      <path class="cls-2" d="M326.62,314.25l.29-.42-5.46-15.86-.29-.58-.37.58-5.59,15.84.24.45h11.22-.03ZM314.19,317.46l-.55.53-3.28,9.19c-.6,1.6-.89,3.15-.89,3.94,0,1.16.53,2,2.44,2h.89c.76,0,.92.13.92.53,0,.53-.37.66-1.02.66-1.94,0-4.57-.21-6.46-.21-.68,0-4.02.21-7.17.21-.79,0-1.16-.13-1.16-.66l.74-.53,1.89-.11c2.81-.42,3.97-2.57,5.17-5.8l15.29-40.4c.74-1.86,1.08-2.57,1.71-2.57.53,0,.92.58,1.52,2.05,1.44,3.55,11.19,29.79,15.1,39.56,2.34,5.8,4.1,6.7,5.36,7.01.92.18,1.81.24,2.57.24l.79.53c0,.53-.55.66-2.81.66s-6.65,0-11.53-.13c-1.08-.08-1.81-.08-1.81-.53,0-.39.24-.53.87-.58.42-.11.87-.71.53-1.47l-4.86-13.63-.63-.45h-13.58l-.03-.03Z"/>
      <path class="cls-2" d="M434.65,309.34c0,.71.13.97.55,1.16,1.29.45,3.1.66,4.62.66,2.44,0,3.23-.26,4.31-1.1,1.84-1.39,3.6-4.36,3.6-9.64,0-9.14-5.7-11.77-9.3-11.77-1.55,0-2.63.05-3.23.24l-.55.89v19.57ZM427.45,304.27c0-9.77,0-11.58-.13-13.63-.11-2.18-.6-3.2-2.6-3.65-.5-.13-1.52-.21-2.36-.21-.68,0-1.05-.13-1.05-.58s.42-.55,1.34-.55c3.23,0,7.07.18,8.33.18,2.07,0,6.7-.18,8.59-.18,3.83,0,7.91.39,11.19,2.76,1.71,1.21,4.15,4.52,4.15,8.83,0,4.73-1.92,9.11-8.04,14.39,5.41,7.2,9.61,12.92,13.21,16.92,3.39,3.73,5.91,4.18,6.83,4.39.66.13,1.21.18,1.68.18l.76.53c0,.53-.42.66-1.16.66h-5.8c-3.41,0-4.94-.34-6.51-1.23-2.6-1.47-4.94-4.49-8.33-9.43-2.44-3.55-5.23-7.93-6.04-8.9l-1.08-.42-5.31-.13-.5.53v.87c0,5.99,0,11.08.29,13.76.18,1.86.55,3.31,2.39,3.55.89.13,2.23.24,2.97.24l.74.53c0,.45-.42.66-1.21.66-3.52,0-8.04-.21-8.93-.21-1.18,0-5.02.21-7.43.21-.79,0-1.21-.21-1.21-.66,0-.32.24-.53,1-.53.89,0,1.63-.11,2.18-.24,1.21-.24,1.52-1.68,1.79-3.55.29-2.68.29-7.77.29-13.71v-11.32l-.03-.03Z"/>
      <path class="cls-2" d="M548.77,285.86c.18-1.08.55-1.68,1.02-1.68.5,0,.87.32,1.65,2l16.63,36.3,16.57-36.75c.47-1.02.79-1.52,1.31-1.52.55,0,.92.63,1.1,2l5.54,39.77c.53,4.05,1.16,5.91,2.97,6.51,1.79.55,2.99.63,3.78.63l1,.45c0,.53-.76.71-1.6.71-1.52,0-9.93-.18-12.35-.39-1.39-.11-1.76-.32-1.76-.71l.66-.71c.37-.13.55-.97.29-2.78l-3.65-28.29h-.24l-13.26,29.18c-1.42,3.02-1.71,3.62-2.26,3.62s-1.16-1.29-2.13-3.23c-1.44-2.97-6.25-12.79-7.01-14.6-.53-1.34-4.18-9.43-6.33-14.26h-.24l-3.15,25.61c-.13,1.16-.18,2-.18,3.02,0,1.21.79,1.81,1.81,2.05,1.1.24,1.97.32,2.57.32l.92.45c0,.58-.55.74-1.47.74-2.55,0-5.28-.21-6.38-.21s-4.07.21-6.04.21c-.6,0-1.1-.13-1.1-.74,0-.32.37-.45,1-.45.47,0,.89,0,1.81-.18,1.71-.39,2.21-2.92,2.5-5.07l6.04-41.95-.03-.03Z"/>
      <path class="cls-2" d="M697.94,314.25l.29-.42-5.46-15.86-.29-.58-.37.58-5.59,15.84.24.45h11.22-.03ZM685.52,317.46l-.55.53-3.28,9.19c-.6,1.6-.89,3.15-.89,3.94,0,1.16.53,2,2.44,2h.89c.76,0,.92.13.92.53,0,.53-.37.66-1.02.66-1.94,0-4.57-.21-6.46-.21-.68,0-4.02.21-7.2.21-.79,0-1.16-.13-1.16-.66l.74-.53,1.89-.11c2.81-.42,3.97-2.57,5.17-5.8l15.29-40.4c.74-1.86,1.08-2.57,1.71-2.57.55,0,.92.58,1.52,2.05,1.44,3.55,11.22,29.79,15.1,39.56,2.34,5.8,4.1,6.7,5.36,7.01.92.18,1.81.24,2.57.24l.79.53c0,.53-.55.66-2.81.66s-6.65,0-11.53-.13c-1.1-.08-1.81-.08-1.81-.53,0-.39.24-.53.87-.58.42-.11.87-.71.55-1.47l-4.89-13.63-.63-.45h-13.58v-.03Z"/>
      <path class="cls-2" d="M39.7,48.21c-.71-.34-.87-.6-.87-1.73,0-2.73.21-5.88.26-6.7,0-.76.18-1.31.53-1.31l.45.84c0,.63.16,1.73.39,2.63.97,3.73,4.26,4.99,7.07,4.99,3.81,0,6.12-2.84,6.12-6.41,0-2.21-.45-4.41-4.36-7.12l-2.55-1.79c-5.23-3.62-6.93-7.01-6.93-11.45,0-6.2,5.02-10.14,11.16-10.14,2.86,0,5.12.45,6.28.84l.6.63c0,.66-.16,2.08-.16,6.07,0,1.05-.18,1.6-.53,1.6-.32,0-.45-.29-.45-.89,0-.47-.21-2.02-1.16-3.31-.68-.95-2.08-2.36-4.94-2.36-3.18,0-6.04,1.94-6.04,5.38,0,2.26.71,4.02,4.68,6.65l1.81,1.21c5.83,3.81,7.64,7.67,7.64,12.21,0,3.73-1.21,6.78-4.41,9.46-2.13,1.76-5.04,2.08-7.41,2.08-2.57,0-5.28-.32-7.2-1.31v-.05Z"/>
      <path class="cls-2" d="M63.94,15.6c-1-2.78-1.65-3.26-3.28-3.73-.66-.18-1.34-.18-1.71-.18l-.47-.55c0-.42.45-.45,1.1-.45,2.36,0,4.89.11,6.44.11,1.1,0,3.41-.11,5.62-.11l1.05.45-.71.55c-.71,0-1.37.05-1.71.34l-.45,1.02c0,.63.39,2.02,1.02,3.81l7.43,22.64h.16c1.89-5.23,7.59-21.51,8.64-24.82.21-.63.39-1.42.39-1.84l-.58-.87-1.76-.26-.76-.55c0-.37.39-.45,1.26-.45,2.21,0,4.18.11,4.73.11.76,0,2.81-.11,4.18-.11l.92.45-.74.55c-.47,0-1.39-.05-2.15.6-.55.47-1.16,1.23-2.34,4.44-1.73,4.75-2.89,7.49-5.31,13.66-2.81,7.38-4.89,12.9-5.91,15.44-1.1,2.92-1.5,3.68-2.1,3.68s-.97-.63-1.81-3.02l-11.16-30.86v-.05Z"/>
      <path class="cls-2" d="M99.14,25.28c0-7.67,0-9.09-.05-10.69-.11-1.73-.55-2.31-1.5-2.68l-1.6-.24-.71-.6c0-.29.34-.42,1.05-.42,1.65,0,4.68.13,5.94.13,1.1,0,3.97-.13,5.7-.13l.92.42-.71.6-1.31.16c-1.21.26-1.55.95-1.65,2.73-.11,1.6-.11,3.02-.11,10.69v8.9c0,4.89,0,8.9.21,11.03.13,1.37.45,2.13,1.73,2.39.63.11,1.6.16,2.29.16l.71.55-.87.55c-2.92,0-5.94-.18-7.14-.18-1.02,0-4.02.18-5.8.18l-.87-.55.74-.55c.66,0,1.16-.05,1.55-.16.89-.26,1.16-.95,1.29-2.44.21-2.08.21-6.09.21-10.98v-8.9.03Z"/>
      <path class="cls-2" d="M124.54,34.21c0,6.49,0,9.67.97,10.64.76.76,2.44,1.08,5.88,1.08,2.36,0,4.07-.05,5.17-1.44.55-.66,1.02-2.08,1.1-3.02l.5-.76c.29,0,.39.55.39,1.13s-.29,4.33-.66,5.83c-.32,1.13-.5,1.34-2.81,1.34-3.18,0-5.75-.05-7.96-.16-2.21-.05-4.04-.13-5.88-.13-.5,0-1.44.05-2.52.05-1.05.05-2.15.13-3.05.13l-.87-.55.71-.55c.68,0,1.18-.05,1.58-.16.89-.26,1.16-1.21,1.29-2.68.21-2.13.21-6.12.21-10.74v-8.9c0-7.67,0-9.09-.05-10.69-.11-1.73-.5-2.26-1.92-2.73l-1.47-.16-.76-.55c0-.37.32-.47.97-.47,2.08,0,4.89.13,6.09.13,1.05,0,4.68-.13,6.38-.13.66,0,.95.13.95.47l-.81.55-1.68.16c-1.21.26-1.55.95-1.65,2.73-.11,1.6-.11,3.02-.11,10.69v8.9Z"/>
      <path class="cls-2" d="M142.46,25.28c0-7.67.05-9.09-.05-10.69-.11-1.79-.5-2.26-1.92-2.73-.34-.11-1.1-.16-1.71-.16l-.76-.55c0-.37.29-.47.97-.47,2.36,0,5.31.13,6.62.13,1.1,0,4.07-.13,5.7-.13.66,0,.97.13.97.47l-.74.55-1.29.16c-1.18.26-1.52.95-1.6,2.73-.11,1.6-.11,3.02-.11,10.69v7.07c0,7.38,1.21,10.22,3.36,12.24,1.97,1.81,4.07,2.02,5.59,2.02,1.92,0,4.15-.63,5.94-2.68,2.47-2.71,2.55-7.12,2.55-12.29v-6.36c0-7.67-.05-9.09-.08-10.69-.11-1.73-.45-2.26-1.86-2.73l-1.6-.16-.76-.55c0-.37.29-.47.92-.47,2.26,0,5.23.13,5.28.13.47,0,3.47-.13,5.17-.13.58,0,.89.13.89.47l-.76.55-1.29.16c-1.21.26-1.52.95-1.6,2.73-.05,1.6-.11,3.02-.11,10.69v5.38c0,5.65-.5,11.58-4.23,15.21-3.13,3.07-6.46,3.6-9.32,3.6-2.34,0-6.88-.11-10.11-3.44-2.26-2.31-4.02-6.04-4.02-13.34v-7.43l-.05.03Z"/>
      <path class="cls-2" d="M180.57,25.28c0-7.67,0-9.09-.05-10.69-.11-1.73-.5-2.26-1.92-2.73-.34-.11-1.1-.16-1.76-.16l-.76-.55c0-.37.34-.47,1.02-.47,2.31,0,5.12.13,6.38.13,1.79,0,5.33-.13,7.33-.13,5.54,0,7.56,2.13,8.27,2.86.95,1.05,2.21,3.31,2.21,6.04,0,7.14-4.83,12.24-11.11,12.24l-1.31-.05-.53-.55c0-.42.47-.63,1.44-.63,2.47,0,5.94-3.02,5.94-8.2,0-1.65-.13-4.99-2.6-7.49-1.6-1.65-3.44-1.89-4.44-1.89-.68,0-1.5.05-1.89.24l-.37.95v20.01c0,4.62,0,8.62.21,10.82.16,1.42.39,2.36,1.71,2.63.66.11,1.6.16,2.26.16l.71.55-.81.55c-2.94,0-6.09-.18-7.25-.18-1,0-3.81.18-5.57.18l-.87-.55.74-.55c.66,0,1.16-.05,1.55-.16.89-.26,1.16-1.21,1.29-2.68.21-2.13.21-6.12.21-10.74v-8.9l-.03-.05Z"/>
      <path class="cls-2" d="M209.54,25.28c0-7.67,0-9.09-.05-10.69-.11-1.73-.5-2.26-1.92-2.73-.34-.11-1.1-.16-1.76-.16l-.76-.55c0-.37.34-.47,1.02-.47,2.31,0,5.12.13,6.38.13,1.79,0,5.31-.13,7.33-.13,5.54,0,7.56,2.13,8.27,2.86.95,1.05,2.21,3.31,2.21,6.04,0,7.14-4.83,12.24-11.11,12.24l-1.31-.05-.53-.55c0-.42.47-.63,1.44-.63,2.47,0,5.94-3.02,5.94-8.2,0-1.65-.13-4.99-2.6-7.49-1.6-1.65-3.44-1.89-4.44-1.89-.68,0-1.5.05-1.89.24l-.37.95v20.01c0,4.62,0,8.62.21,10.82.16,1.42.39,2.36,1.71,2.63.66.11,1.6.16,2.26.16l.71.55-.81.55c-2.94,0-6.09-.18-7.25-.18-1,0-3.81.18-5.57.18l-.87-.55.74-.55c.66,0,1.16-.05,1.55-.16.89-.26,1.16-1.21,1.29-2.68.21-2.13.21-6.12.21-10.74v-8.9l-.03-.05Z"/>
      <path class="cls-2" d="M263.75,30.7c0-11.16-5.7-18.07-12.82-18.07-4.94,0-10.72,3.1-10.72,15.58,0,10.38,5.02,18.57,13.37,18.57,3.13,0,10.17-1.73,10.17-16.07M233.67,29.73c0-8.62,5.12-19.78,18.57-19.78,11.16,0,18.1,7.3,18.1,18.89s-7.17,20.67-18.57,20.67c-12.87,0-18.1-10.82-18.1-19.78"/>
      <path class="cls-2" d="M298.81,29.22l.39.89c.97.34,2.26.47,3.39.47,1.73,0,2.36-.18,3.1-.84,1.34-1.16,2.86-3.34,2.86-7.49,0-7.12-4.12-8.96-6.75-8.96-1.1,0-2.15.05-2.6.18l-.39.71v15.02ZM293.16,25.28c0-7.67,0-9.09-.05-10.69-.11-1.73-.5-2.26-1.92-2.73-.34-.11-1.1-.16-1.76-.16l-.76-.55c0-.37.34-.47,1.02-.47,2.31,0,5.12.13,6.04.13,1.5,0,5.52-.13,6.86-.13,2.81,0,6.04.32,8.43,2.13,1.23,1.02,3.1,3.57,3.1,6.96,0,3.73-1.81,7.07-6.15,11.16,3.91,5.67,7.07,10.27,9.72,13.4,2.47,2.92,4.02,3.15,4.73,3.34l1.05.11.55.55-.87.55h-4.2c-2.47,0-3.68-.32-4.83-1.02-1.89-1.13-3.57-3.52-6.04-7.41-1.76-2.73-3.62-6.12-4.18-6.88l-.81-.37-3.97-.11-.34.42v.71c0,4.7.05,8.62.24,10.74.16,1.47.37,2.42,1.71,2.68.66.11,1.6.16,2.18.16l.53.55-.89.55c-2.57,0-6.25-.18-6.88-.18-.87,0-3.68.18-5.44.18l-.87-.55.74-.55c.66,0,1.16-.05,1.55-.16.92-.26,1.16-1.21,1.31-2.68.18-2.13.18-6.12.18-10.74v-8.9l.03-.03Z"/>
      <path class="cls-2" d="M326.67,25.28c0-7.67,0-9.09-.05-10.69-.11-1.73-.53-2.31-1.5-2.68l-1.6-.24-.71-.6c0-.29.34-.42,1.05-.42,1.65,0,4.68.13,5.94.13,1.1,0,3.97-.13,5.7-.13l.92.42-.71.6-1.31.16c-1.21.26-1.55.95-1.65,2.73-.11,1.6-.11,3.02-.11,10.69v8.9c0,4.89,0,8.9.21,11.03.13,1.37.45,2.13,1.73,2.39.63.11,1.6.16,2.29.16l.71.55-.87.55c-2.92,0-5.94-.18-7.14-.18-1.02,0-4.02.18-5.8.18l-.87-.55.74-.55c.63,0,1.16-.05,1.55-.16.92-.26,1.16-.95,1.31-2.44.18-2.08.18-6.09.18-10.98v-8.9.03Z"/>
      <path class="cls-2" d="M343.73,48.21c-.71-.34-.87-.6-.87-1.73,0-2.73.21-5.88.26-6.7,0-.76.18-1.31.53-1.31l.45.84c0,.63.16,1.73.39,2.63.97,3.73,4.26,4.99,7.07,4.99,3.81,0,6.12-2.84,6.12-6.41,0-2.21-.45-4.41-4.36-7.12l-2.57-1.79c-5.2-3.62-6.93-7.01-6.93-11.45,0-6.2,5.02-10.14,11.16-10.14,2.86,0,5.12.45,6.28.84l.63.63c0,.66-.16,2.08-.16,6.07,0,1.05-.18,1.6-.53,1.6-.32,0-.45-.29-.45-.89,0-.47-.21-2.02-1.16-3.31-.68-.95-2.08-2.36-4.94-2.36-3.18,0-6.04,1.94-6.04,5.38,0,2.26.71,4.02,4.68,6.65l1.81,1.21c5.83,3.81,7.64,7.67,7.64,12.21,0,3.73-1.21,6.78-4.41,9.46-2.13,1.76-5.04,2.08-7.41,2.08-2.57,0-5.28-.32-7.2-1.31v-.05Z"/>
      <path class="cls-2" d="M397.52,30.7c0-11.16-5.67-18.07-12.82-18.07-4.94,0-10.69,3.1-10.69,15.58,0,10.38,5.02,18.57,13.37,18.57,3.15,0,10.17-1.73,10.17-16.07h-.03ZM367.47,29.73c0-8.62,5.12-19.78,18.57-19.78,11.16,0,18.1,7.3,18.1,18.89s-7.17,20.67-18.57,20.67c-12.87,0-18.1-10.82-18.1-19.78"/>
      <path class="cls-2" d="M417,29.22l.39.89c.97.34,2.26.47,3.39.47,1.73,0,2.36-.18,3.1-.84,1.34-1.16,2.86-3.34,2.86-7.49,0-7.12-4.12-8.96-6.75-8.96-1.1,0-2.15.05-2.6.18l-.39.71v15.02ZM411.35,25.28c0-7.67,0-9.09-.05-10.69-.11-1.73-.5-2.26-1.89-2.73-.34-.11-1.1-.16-1.76-.16l-.76-.55c0-.37.34-.47,1.02-.47,2.31,0,5.12.13,6.04.13,1.5,0,5.52-.13,6.86-.13,2.81,0,6.04.32,8.41,2.13,1.26,1.02,3.15,3.57,3.15,6.96,0,3.73-1.81,7.07-6.15,11.16,3.91,5.67,7.04,10.27,9.72,13.4,2.47,2.92,4.02,3.15,4.73,3.34l1.05.11.55.55-.87.55h-4.2c-2.47,0-3.68-.32-4.83-1.02-1.94-1.13-3.57-3.52-6.04-7.41-1.76-2.73-3.62-6.12-4.18-6.88l-.81-.37-3.97-.11-.34.42v.71c0,4.7.05,8.62.24,10.74.16,1.47.34,2.42,1.71,2.68.63.11,1.6.16,2.18.16l.53.55-.89.55c-2.57,0-6.25-.18-6.88-.18-.87,0-3.68.18-5.44.18l-.87-.55.74-.55c.63,0,1.16-.05,1.55-.16.89-.26,1.16-1.21,1.29-2.68.21-2.13.21-6.12.21-10.74v-8.9l-.03-.03Z"/>
      <path class="cls-2" d="M441.7,48.21c-.71-.34-.87-.6-.87-1.73,0-2.73.21-5.88.26-6.7,0-.76.18-1.31.53-1.31l.45.84c0,.63.16,1.73.39,2.63.97,3.73,4.26,4.99,7.07,4.99,3.81,0,6.12-2.84,6.12-6.41,0-2.21-.45-4.41-4.36-7.12l-2.57-1.79c-5.2-3.62-6.93-7.01-6.93-11.45,0-6.2,5.02-10.14,11.16-10.14,2.86,0,5.12.45,6.28.84l.63.63c0,.66-.16,2.08-.16,6.07,0,1.05-.18,1.6-.55,1.6-.29,0-.42-.29-.42-.89,0-.47-.21-2.02-1.16-3.31-.68-.95-2.08-2.36-4.94-2.36-3.18,0-6.04,1.94-6.04,5.38,0,2.26.71,4.02,4.68,6.65l1.81,1.21c5.83,3.81,7.64,7.67,7.64,12.21,0,3.73-1.21,6.78-4.41,9.46-2.13,1.76-5.04,2.08-7.41,2.08-2.57,0-5.28-.32-7.2-1.31v-.05Z"/>
      <path class="cls-2" d="M469.24,25.28c0-7.67,0-9.09-.05-10.69-.11-1.73-.5-2.26-1.89-2.73-.34-.11-1.1-.16-1.76-.16l-.76-.55c0-.37.34-.47,1.02-.47,2.31,0,5.12.13,6.38.13,1.39,0,11.22.05,12.08,0,.81-.05,1.5-.24,1.84-.29l.71-.26.29.47c0,.34-.24.95-.34,3.26-.05.55-.13,2.73-.24,3.34l-.5.84-.34-.66c0-.34-.05-1.23-.29-1.81-.34-.89-.71-1.63-2.92-1.84-.76-.13-6.04-.26-6.96-.26l-.29.47v12.48l.29.55c1.02,0,6.75,0,7.75-.13,1.08-.13,1.71-.24,2.13-.76l.71-.66.34.55c0,.29-.11,1.13-.34,3.68-.11,1.02-.18,3.02-.18,3.39l-.45,1.16-.39-.42c-.05-.55-.05-1.18-.16-1.84-.24-1.02-.81-1.79-2.47-1.94-.81-.13-5.83-.26-6.96-.26l-.24.55v4.05c0,1.71-.05,5.99,0,7.46.11,3.44,1.44,4.2,5.99,4.2,1.16,0,3.02-.05,4.18-.63,1.1-.6,1.6-1.65,1.92-3.76l.5-.76.39,1.18c0,1.16-.34,4.6-.63,5.59-.29,1.31-.71,1.31-2.36,1.31-3.34,0-5.99-.05-8.14-.16-2.18-.05-3.83-.13-5.15-.13-.5,0-1.44.05-2.5.05-1.08.05-2.18.13-3.07.13l-.87-.55c0-.26.16-.55.74-.55.66,0,1.16-.05,1.55-.16.89-.26,1.16-1.21,1.29-2.68.21-2.13.21-6.12.21-10.74v-8.9l-.05-.08Z"/>
      <path class="cls-2" d="M511.3,25.28c0-7.67,0-9.09-.05-10.69-.11-1.73-.5-2.26-1.89-2.73-.34-.11-1.1-.16-1.76-.16l-.76-.55c0-.37.34-.47,1.02-.47,2.31,0,5.12.13,6.38.13,1.79,0,5.31-.13,7.33-.13,5.54,0,7.56,2.13,8.27,2.86.95,1.05,2.21,3.31,2.21,6.04,0,7.14-4.83,12.24-11.11,12.24l-1.31-.05-.53-.55c0-.42.47-.63,1.44-.63,2.47,0,5.94-3.02,5.94-8.2,0-1.65-.13-4.99-2.6-7.49-1.6-1.65-3.44-1.89-4.41-1.89-.68,0-1.52.05-1.94.24l-.34.95v20.01c0,4.62,0,8.62.21,10.82.13,1.42.39,2.36,1.71,2.63.66.11,1.6.16,2.26.16l.71.55-.81.55c-2.94,0-6.09-.18-7.25-.18-1,0-3.81.18-5.57.18l-.87-.55c0-.26.16-.55.74-.55.66,0,1.16-.05,1.55-.16.89-.26,1.16-1.21,1.29-2.68.21-2.13.21-6.12.21-10.74v-8.9l-.05-.05Z"/>
      <path class="cls-2" d="M540.26,25.28c0-7.67,0-9.09-.05-10.69-.11-1.73-.5-2.26-1.89-2.73-.34-.11-1.1-.16-1.76-.16l-.76-.55c0-.37.34-.47,1.02-.47,2.31,0,5.12.13,6.38.13,1.39,0,11.22.05,12.08,0,.81-.05,1.5-.24,1.84-.29l.71-.26.29.47c0,.34-.24.95-.34,3.26-.05.55-.13,2.73-.24,3.34l-.5.84-.34-.66c0-.34-.05-1.23-.29-1.81-.34-.89-.71-1.63-2.92-1.84-.76-.13-6.04-.26-6.96-.26l-.29.47v12.48l.29.55c1.02,0,6.75,0,7.75-.13,1.05-.13,1.71-.24,2.13-.76l.71-.66.34.55c0,.29-.11,1.13-.34,3.68-.11,1.02-.18,3.02-.18,3.39l-.45,1.16-.39-.42c-.05-.55-.05-1.18-.16-1.84-.24-1.02-.81-1.79-2.47-1.94-.81-.13-5.83-.26-6.96-.26l-.24.55v4.05c0,1.71-.05,5.99,0,7.46.11,3.44,1.44,4.2,5.99,4.2,1.16,0,3.02-.05,4.18-.63,1.1-.6,1.6-1.65,1.92-3.76l.5-.76.39,1.18c0,1.16-.34,4.6-.63,5.59-.29,1.31-.71,1.31-2.36,1.31-3.34,0-5.99-.05-8.14-.16-2.18-.05-3.83-.13-5.15-.13-.5,0-1.44.05-2.5.05-1.08.05-2.18.13-3.07.13l-.87-.55c0-.26.16-.55.74-.55.66,0,1.16-.05,1.55-.16.89-.26,1.16-1.21,1.29-2.68.21-2.13.21-6.12.21-10.74v-8.9l-.05-.08Z"/>
      <path class="cls-2" d="M572.86,29.22l.39.89c.97.34,2.26.47,3.39.47,1.73,0,2.36-.18,3.1-.84,1.34-1.16,2.86-3.34,2.86-7.49,0-7.12-4.12-8.96-6.75-8.96-1.1,0-2.15.05-2.6.18l-.39.71v15.02ZM567.21,25.28c0-7.67,0-9.09-.05-10.69-.11-1.73-.5-2.26-1.89-2.73-.34-.11-1.1-.16-1.76-.16l-.76-.55c0-.37.34-.47,1.02-.47,2.31,0,5.12.13,6.04.13,1.5,0,5.52-.13,6.86-.13,2.81,0,6.04.32,8.41,2.13,1.26,1.02,3.15,3.57,3.15,6.96,0,3.73-1.81,7.07-6.15,11.16,3.91,5.67,7.04,10.27,9.72,13.4,2.47,2.92,4.02,3.15,4.73,3.34l1.05.11.55.55-.87.55h-4.2c-2.47,0-3.68-.32-4.83-1.02-1.94-1.13-3.57-3.52-6.04-7.41-1.76-2.73-3.62-6.12-4.18-6.88l-.81-.37-3.97-.11-.34.42v.71c0,4.7.05,8.62.24,10.74.16,1.47.34,2.42,1.71,2.68.63.11,1.6.16,2.18.16l.53.55c0,.34-.34.55-.89.55-2.57,0-6.25-.18-6.88-.18-.87,0-3.68.18-5.44.18l-.87-.55c0-.24.16-.55.71-.55.66,0,1.18-.05,1.58-.16.89-.26,1.16-1.21,1.29-2.68.21-2.13.21-6.12.21-10.74v-8.9l-.03-.03Z"/>
      <path class="cls-2" d="M620.73,34.21c0,6.49,0,9.67.97,10.64.76.76,2.47,1.08,5.88,1.08,2.36,0,4.07-.05,5.17-1.44.55-.66,1.02-2.08,1.1-3.02l.5-.76c.29,0,.39.55.39,1.13s-.29,4.33-.66,5.83c-.32,1.13-.5,1.34-2.81,1.34-3.18,0-5.75-.05-7.96-.16-2.21-.05-4.05-.13-5.88-.13-.5,0-1.44.05-2.52.05-1.05.05-2.15.13-3.05.13l-.87-.55c0-.26.16-.55.74-.55.66,0,1.16-.05,1.52-.16.92-.26,1.18-1.21,1.31-2.68.21-2.13.21-6.12.21-10.74v-8.9c0-7.67,0-9.09-.05-10.69-.11-1.73-.5-2.26-1.89-2.73l-1.47-.16-.76-.55c0-.37.29-.47.97-.47,2.08,0,4.89.13,6.09.13,1.05,0,4.68-.13,6.38-.13.66,0,.95.13.95.47l-.81.55-1.68.16c-1.21.26-1.58.95-1.65,2.73-.11,1.6-.11,3.02-.11,10.69v8.9h-.03Z"/>
      <path class="cls-2" d="M636.46,1.52c-.5-.6-.55-.76-.55-1.05L636.46,0c1.02,0,3.23.76,4.18,1.13,1.26.42,1.44.84,1.44,1.73,0,3.6-3.28,9.95-5.52,12.71l-.81.47-.29-.34.24-.76c.92-2.1,1.94-5.59,1.94-9.27,0-1.94-.76-3.55-1.21-4.1l.03-.05Z"/>
      <path class="cls-2" d="M661.86,33.38l.21-.32-4.18-12.82-.18-.47-.26.47-4.26,12.77.16.37h8.54-.03ZM652.41,36.17l-.39.34-2.36,6.78c-.45,1.23-.66,2.5-.66,3.1,0,.89.39,1.44,1.76,1.44h.63l.68.53-.71.55c-1.47,0-3.55-.16-4.94-.16-.45,0-2.81.16-5.12.16l-.81-.55.5-.53,1.29-.05c2.02-.34,2.76-1.92,3.68-4.47l11.56-31.76c.5-1.44.87-2.05,1.31-2.05.66,0,.87.47,1.31,1.63,1.05,2.78,8.46,23.46,11.27,31.13,1.68,4.57,2.94,5.2,3.76,5.38.66.13,1.16.18,1.65.18l.63.53c0,.42-.26.55-1.92.55s-4.81,0-8.51-.13c-.81-.03-1.31-.03-1.31-.42l.55-.53c.29-.05.6-.55.39-1.16l-3.44-10.14-.45-.34h-10.4l.05-.03Z"/>
      <path class="cls-2" d="M694.76,45.66c4.54,0,6.09-1.05,6.83-2.63.34-.76.66-1.6.81-2.31l.5-.84c.34,0,.45.34.45,1.52,0,1.65-.55,4.91-.87,6.17-.26.89-.55,1.31-1.37,1.31-7.38,0-14.89-.24-23.82-.24l-.79-.55c0-.29.05-.58.55-1.47,6.23-11.11,12.69-22.51,18.62-32.91h-8.38c-2.26,0-4.86,0-6.28.89-1.44.95-2.26,2.68-2.36,3.86-.11.71-.29.89-.53.89-.32,0-.45-.26-.45-.84,0-1.21.66-5.78.89-7.3.05-.74.26-.95.5-.95.39,0,.66.29,1.76.34,4.2.18,6.33.13,8.12.13h13.66l.74.42-.24.95c-6.15,11.32-12.77,22.85-18.99,33.49h10.59l.05.05Z"/>
      <path class="cls-2" d="M711.7,25.28c0-7.67,0-9.09-.05-10.69-.11-1.73-.53-2.31-1.5-2.68l-1.6-.24-.71-.6c0-.29.34-.42,1.05-.42,1.65,0,4.68.13,5.94.13,1.1,0,3.97-.13,5.7-.13l.92.42-.71.6-1.31.16c-1.21.26-1.55.95-1.65,2.73-.11,1.6-.11,3.02-.11,10.69v8.9c0,4.89,0,8.9.21,11.03.13,1.37.45,2.13,1.73,2.39.63.11,1.6.16,2.29.16l.71.55-.87.55c-2.92,0-5.94-.18-7.14-.18-1.02,0-4.02.18-5.8.18l-.87-.55c0-.24.16-.55.74-.55.66,0,1.16-.05,1.55-.16.92-.26,1.16-.95,1.31-2.44.18-2.08.18-6.09.18-10.98v-8.9.03Z"/>
      <path class="cls-2" d="M731.18,25.28c0-7.67,0-9.09-.05-10.69-.11-1.73-.5-2.26-1.89-2.73-.34-.11-1.1-.16-1.76-.16l-.76-.55c0-.37.34-.47,1.02-.47,2.31,0,5.12.13,6.38.13,1.39,0,11.22.05,12.08,0,.81-.05,1.5-.24,1.84-.29l.71-.26.29.47c0,.34-.24.95-.34,3.26-.05.55-.13,2.73-.24,3.34l-.5.84-.34-.66c0-.34-.05-1.23-.29-1.81-.34-.89-.71-1.63-2.92-1.84-.76-.13-6.04-.26-6.96-.26l-.29.47v12.48l.29.55c1.02,0,6.75,0,7.75-.13,1.05-.13,1.71-.24,2.13-.76l.71-.66.34.55c0,.29-.11,1.13-.34,3.68-.11,1.02-.18,3.02-.18,3.39l-.45,1.16-.39-.42c-.05-.55-.05-1.18-.16-1.84-.24-1.02-.81-1.79-2.47-1.94-.81-.13-5.83-.26-6.96-.26l-.24.55v4.05c0,1.71-.05,5.99,0,7.46.11,3.44,1.44,4.2,5.99,4.2,1.16,0,3.02-.05,4.18-.63,1.1-.6,1.6-1.65,1.92-3.76l.5-.76.39,1.18c0,1.16-.34,4.6-.63,5.59-.29,1.31-.71,1.31-2.36,1.31-3.34,0-5.99-.05-8.14-.16-2.18-.05-3.83-.13-5.15-.13-.5,0-1.44.05-2.5.05-1.08.05-2.18.13-3.07.13l-.87-.55c0-.26.16-.55.74-.55.66,0,1.16-.05,1.55-.16.89-.26,1.16-1.21,1.29-2.68.21-2.13.21-6.12.21-10.74v-8.9l-.05-.08Z"/>
      <path class="cls-2" d="M760.88,41.98c.11,3.91.66,5.1,1.5,5.46.76.29,1.6.34,2.34.34l.76.55c0,.42-.39.55-1.02.55-2.86,0-4.94-.18-5.75-.18-.39,0-2.5.18-4.78.18-.58,0-1-.05-1-.55l.71-.55c.63,0,1.42-.05,2.02-.24,1.16-.34,1.31-1.73,1.37-6.12l.39-29.94c0-1,.29-1.71.76-1.71.53,0,1.16.76,1.92,1.65.55.63,7.2,8.64,13.63,16.07,3.02,3.52,8.9,10.64,9.56,11.32h.21l-.45-22.43c-.05-3.1-.45-3.99-1.5-4.47-.66-.29-1.71-.29-2.34-.29l-.71-.55c0-.42.45-.45,1.1-.45,2.34,0,4.7.11,5.62.11.5,0,2.18-.11,4.33-.11.6,0,1,.03,1,.45l-.76.55-1.37.18c-1.21.42-1.55,1.31-1.6,4.15l-.47,31.83c0,1.16-.37,1.63-.74,1.63-.76,0-1.34-.55-1.79-1.08-2.76-3.02-8.3-9.25-12.92-14.55-4.83-5.46-9.51-11.58-10.35-12.48h-.16l.5,20.62-.03.03Z"/>
      <path class="cls-2" d="M805.35,30.87c0,5.33.05,9.19.11,10.22.05,1.23.16,3.02.5,3.57.53.92,2.31,2.02,5.78,2.02,4.02,0,7.01-.84,9.67-3.44,2.86-2.81,3.78-7.3,3.78-12.53,0-6.41-2.18-10.56-4.12-12.58-4.07-4.28-8.9-4.81-12.37-4.81-.92,0-2.36.13-2.71.34-.42.18-.55.42-.55,1.02-.05,1.73-.05,5.88-.05,9.85v6.36l-.03-.03ZM799.42,25.28c0-7.67,0-9.09-.05-10.69-.11-1.73-.5-2.26-1.89-2.73-.34-.11-1.13-.16-1.76-.16l-.76-.55c0-.37.34-.47,1-.47,2.34,0,5.15.13,6.41.13,1.34,0,4.52-.13,7.2-.13,5.52,0,12.95,0,17.78,5.78,2.23,2.63,4.18,6.83,4.18,12.82,0,6.36-2.31,11.16-4.83,14.08-2.02,2.36-6.67,5.94-14.84,5.94-1.6,0-3.52-.18-5.28-.32-1.73-.16-3.36-.29-4.49-.29-.47,0-1.44.05-2.5.05-1.08.05-2.18.13-3.07.13l-.87-.55.71-.55c.66,0,1.18-.05,1.58-.16.89-.26,1.16-1.21,1.29-2.68.21-2.13.21-6.12.21-10.74v-8.9Z"/>
      <path class="cls-2" d="M851.54,33.38l.21-.32-4.18-12.82-.18-.47-.24.47-4.28,12.77.16.37h8.54-.03ZM842.11,36.17l-.39.34-2.36,6.78c-.45,1.23-.63,2.5-.63,3.1,0,.89.39,1.44,1.73,1.44h.66l.66.53-.71.55c-1.47,0-3.55-.16-4.94-.16-.45,0-2.81.16-5.12.16l-.81-.55.5-.53,1.29-.05c2.02-.34,2.76-1.92,3.68-4.47l11.56-31.76c.5-1.44.87-2.05,1.31-2.05.66,0,.87.47,1.31,1.63,1.05,2.78,8.46,23.46,11.27,31.13,1.71,4.57,2.94,5.2,3.76,5.38.66.13,1.16.18,1.65.18l.63.53c0,.42-.26.55-1.94.55-1.55,0-4.78,0-8.48-.13-.81-.03-1.31-.03-1.31-.42l.55-.53c.29-.05.6-.55.39-1.16l-3.44-10.14-.45-.34h-10.4l.05-.03Z"/>
      <path class="cls-2" d="M49.1,327.85c105.64,36.64,246.09,58.94,400.09,58.84,162.56,0,309.6-24.74,416.95-64.9l.74.08c-99.23,49.7-248.37,81.37-415.35,81.43-161.56,0-306.76-29.68-405.94-76.64l3.49,1.23.03-.03Z"/>
    </g>
  </g>
</svg>