<?xml version="1.0" encoding="UTF-8"?>
<svg id="Livello_2" data-name="Livello 2" xmlns="http://www.w3.org/2000/svg" xmlns:xlink="http://www.w3.org/1999/xlink" viewBox="0 0 1330.66 191.24">
  <defs>
    <style>
      .cls-1 {
        fill: none;
      }

      .cls-2 {
        clip-path: url(#clippath-1);
      }

      .cls-3 {
        clip-path: url(#clippath-2);
      }

      .cls-4 {
        fill: #fff;
      }

      .cls-5 {
        clip-path: url(#clippath);
      }
    </style>
    <clipPath id="clippath">
      <rect class="cls-1" x=".01" width="1330.64" height="191.23"/>
    </clipPath>
    <clipPath id="clippath-1">
      <rect class="cls-1" x=".01" width="1330.64" height="191.23"/>
    </clipPath>
    <clipPath id="clippath-2">
      <rect class="cls-1" x=".01" width="1330.64" height="191.23"/>
    </clipPath>
  </defs>
  <g id="Livello_1-2" data-name="Livello 1">
    <g>
      <g class="cls-5">
        <path class="cls-4" d="M419.32,134.41c-7.1-3.83-12.66-9.11-16.74-15.86-4.06-6.75-6.08-14.4-6.08-22.93s2.02-16.16,6.08-22.93c4.06-6.75,9.65-12.03,16.74-15.84,7.1-3.83,15.07-5.75,23.95-5.75,7.47,0,14.21,1.32,20.27,3.94,6.05,2.64,11.11,6.42,15.19,11.32l-12.8,11.8c-5.84-6.72-13.03-10.09-21.68-10.09-5.33,0-10.09,1.18-14.28,3.5-4.2,2.32-7.42,5.61-9.79,9.79-2.34,4.17-3.52,8.93-3.52,14.26s1.18,10.09,3.52,14.26c2.32,4.2,5.59,7.42,9.79,9.79,4.2,2.34,8.95,3.5,14.28,3.5,8.63,0,15.84-3.39,21.68-10.2l12.8,11.8c-4.1,4.99-9.18,8.79-15.26,11.43-6.08,2.62-12.82,3.94-20.29,3.94-8.79,0-16.72-1.88-23.81-5.7l-.05-.02ZM333.78,134.41c-7.1-3.83-12.68-9.11-16.76-15.86-4.06-6.75-6.08-14.4-6.08-22.93s2.02-16.16,6.08-22.93c4.06-6.75,9.67-12.03,16.76-15.84,7.1-3.83,15.05-5.75,23.93-5.75,7.47,0,14.24,1.32,20.27,3.94,6.05,2.64,11.13,6.42,15.21,11.32l-12.8,11.8c-5.84-6.72-13.03-10.09-21.68-10.09-5.33,0-10.11,1.18-14.28,3.5-4.2,2.32-7.44,5.61-9.81,9.79-2.32,4.17-3.5,8.93-3.5,14.26s1.18,10.09,3.5,14.26c2.34,4.2,5.61,7.42,9.81,9.79,4.17,2.34,8.95,3.5,14.28,3.5,8.6,0,15.84-3.39,21.68-10.2l12.8,11.8c-4.13,4.99-9.18,8.79-15.28,11.43-6.08,2.62-12.82,3.94-20.29,3.94-8.79,0-16.72-1.88-23.81-5.7l-.02-.02ZM279.97,121.05c2.67-1.72,3.99-4.38,3.99-8,0-7.12-5.29-10.69-15.86-10.69h-23.28v21.29h23.28c5.26,0,9.21-.88,11.87-2.6M244.81,67.6v20.27h19.83c4.94,0,8.65-.88,11.22-2.6,2.53-1.74,3.8-4.27,3.8-7.63s-1.28-5.87-3.8-7.56c-2.55-1.69-6.28-2.53-11.22-2.53h-19.83v.05ZM299.86,101.69c2.81,3.64,4.2,8.12,4.2,13.45,0,7.56-2.94,13.33-8.81,17.41-5.89,4.03-14.42,6.08-25.67,6.08h-44.57V52.58h42.13c10.5,0,18.57,2.04,24.18,6.05,5.61,4.01,8.44,9.46,8.44,16.35,0,4.17-1.02,7.93-3.01,11.2-2.02,3.27-4.82,5.87-8.44,7.74,4.94,1.55,8.79,4.15,11.59,7.79l-.05-.02ZM95.76,172.06c-10.78,0-20.03-9.07-26.09-25.55,8.32,1.11,17.07,1.65,26.09,1.65s17.76-.58,26.06-1.65c-6.03,16.49-15.28,25.55-26.06,25.55M44.75,121.65c-16.46-6.03-25.6-15.28-25.6-26.04s9.09-19.99,25.6-26.04c-1.11,8.3-1.65,17.04-1.65,26.04s.58,17.74,1.65,26.04M95.76,19.12c10.78,0,20.03,9.09,26.06,25.58-8.3-1.11-17.04-1.65-26.06-1.65s-17.76.56-26.09,1.65c6.05-16.46,15.3-25.58,26.09-25.58M146.73,121.65c.6-4.48,1.04-9.14,1.32-13.89-5.98-1.25-12.36-2.27-18.99-3.04-.3,7.95-1.07,15.3-2.18,21.98-9.21,1.53-19.59,2.37-31.14,2.37s-21.96-.83-31.14-2.37c-1.53-9.16-2.37-19.59-2.37-31.09s.83-21.91,2.37-31.09c9.18-1.51,19.57-2.37,31.14-2.37s21.94.86,31.14,2.37c1.11,6.68,1.85,14.03,2.18,21.98,6.63-.77,13.01-1.81,18.99-3.01-.28-4.78-.72-9.39-1.32-13.91,7.3,2.67,13.1,5.94,17.37,9.72,7.26-2.32,13.4-5.08,18.04-8.23-8.56-9.97-22.45-17.51-39.6-22.21C134.58,19.74,118.46.01,95.76.01s-38.82,19.73-46.84,48.83C19.78,56.87,0,72.91,0,95.61s19.78,38.75,48.93,46.77c8.02,29.08,24.14,48.86,46.84,48.86s38.82-19.73,46.84-48.86c17.14-4.71,31.05-12.2,39.58-22.21-4.61-3.13-10.81-5.87-18.02-8.23-4.27,3.78-10.11,7.05-17.37,9.72h-.07Z"/>
      </g>
      <polygon class="cls-4" points="631.54 122.66 631.54 138.62 564.9 138.62 564.9 52.68 629.91 52.68 629.91 68.64 584.7 68.64 584.7 87.28 624.65 87.28 624.65 102.77 584.7 102.77 584.7 122.66 631.54 122.66"/>
      <polygon class="cls-4" points="724.46 138.61 724.32 87.05 699 129.5 690 129.5 664.82 88.14 664.82 138.59 646.13 138.59 646.13 52.68 662.62 52.68 694.82 106.06 726.54 52.68 742.89 52.68 743.12 138.61 724.46 138.61"/>
      <rect class="cls-4" x="762.35" y="52.68" width="19.92" height="85.93"/>
      <polygon class="cls-4" points="801.43 52.68 821.35 52.68 821.35 122.43 864.52 122.43 864.52 138.62 801.45 138.62 801.45 52.68 801.43 52.68"/>
      <g class="cls-2">
        <path class="cls-4" d="M929.32,121.08c2.69-1.72,3.99-4.38,3.99-8,0-7.12-5.29-10.69-15.86-10.69h-23.23v21.24h23.23c5.24,0,9.18-.83,11.85-2.55h.02ZM894.24,67.66v20.27h19.8c4.92,0,8.65-.83,11.18-2.55,2.53-1.74,3.8-4.27,3.8-7.63s-1.28-5.87-3.8-7.56c-2.53-1.69-6.28-2.53-11.18-2.53h-19.8ZM949.19,101.72c2.81,3.64,4.2,8.14,4.2,13.45,0,7.54-2.94,13.33-8.79,17.37-5.84,4.06-14.4,6.08-25.65,6.08h-44.5V52.68h42.04c10.5,0,18.55,2.02,24.14,6.01,5.61,4.01,8.42,9.44,8.42,16.32,0,4.17-1,7.88-2.99,11.15-2.04,3.29-4.85,5.89-8.42,7.74,4.94,1.53,8.79,4.13,11.55,7.79v.02Z"/>
      </g>
      <path class="cls-4" d="M1017.7,105.08l-13.66-32.88-13.63,32.88h27.29ZM1023.94,120.2h-39.95l-7.63,18.41h-20.4l38.38-85.93h19.64l38.47,85.93h-20.89l-7.63-18.41h.02Z"/>
      <polygon class="cls-4" points="1139.14 52.68 1139.14 138.62 1122.8 138.62 1079.9 86.45 1079.9 138.62 1060.24 138.62 1060.24 52.68 1076.72 52.68 1119.53 104.86 1119.53 52.68 1139.17 52.68 1139.14 52.68"/>
      <g class="cls-3">
        <path class="cls-4" d="M1175.72,134.4c-7.1-3.8-12.66-9.07-16.72-15.86-4.06-6.77-6.08-14.35-6.08-22.89s2.02-16.16,6.08-22.91c4.06-6.75,9.62-12.03,16.72-15.84,7.1-3.83,15.07-5.7,23.91-5.7,7.47,0,14.19,1.32,20.24,3.94,6.05,2.62,11.08,6.38,15.19,11.29l-12.8,11.78c-5.8-6.72-13.03-10.06-21.63-10.06-5.33,0-10.11,1.18-14.26,3.52-4.2,2.32-7.42,5.59-9.76,9.74-2.32,4.17-3.52,8.9-3.52,14.24s1.21,10.09,3.52,14.24c2.34,4.15,5.61,7.42,9.76,9.74,4.2,2.32,8.93,3.5,14.26,3.5,8.6,0,15.79-3.41,21.63-10.18l12.8,11.78c-4.08,4.99-9.18,8.79-15.23,11.43-6.08,2.62-12.82,3.9-20.29,3.9-8.79,0-16.72-1.88-23.79-5.68l-.02.02Z"/>
      </g>
      <path class="cls-4" d="M1282.24,72.2l13.66,32.9h-27.29l13.63-32.9ZM1272.53,52.68l-38.38,85.93h20.4l7.65-18.41h39.91l7.63,18.41h20.92l-38.47-85.93h-19.66Z"/>
    </g>
  </g>
</svg>