<?xml version="1.0" encoding="UTF-8"?>
<svg id="Livello_2" data-name="Livello 2" xmlns="http://www.w3.org/2000/svg" xmlns:xlink="http://www.w3.org/1999/xlink" viewBox="0 0 807.8 302.08">
  <defs>
    <style>
      .cls-1 {
        fill: none;
      }

      .cls-2 {
        clip-path: url(#clippath-1);
      }

      .cls-3 {
        clip-path: url(#clippath-2);
      }

      .cls-4 {
        fill: #fff;
      }

      .cls-5 {
        clip-path: url(#clippath);
      }
    </style>
    <clipPath id="clippath">
      <rect class="cls-1" y="0" width="807.8" height="302.08"/>
    </clipPath>
    <clipPath id="clippath-1">
      <rect class="cls-1" y="0" width="807.8" height="302.08"/>
    </clipPath>
    <clipPath id="clippath-2">
      <rect class="cls-1" y="0" width="807.8" height="302.08"/>
    </clipPath>
  </defs>
  <g id="Livello_1-2" data-name="Livello 1">
    <g>
      <g class="cls-5">
        <path class="cls-4" d="M464.62,145.8h-109.16l-2.58-2.58v-24.86h139.26v42.04c0,.69-2.1,11.55-2.54,12.92-4.69,15.37-20.84,28.2-36.59,30.37-45.86-2.17-97.04,4.39-142.3.5-23.21-1.99-40.5-17.56-43.29-40.85-2.86-23.92-2.63-74.74-.53-99.08,1.85-21.52,13.7-36.59,34.33-42.93l186.63-.75,4.05,2.81-.5,23.03-186.6,2.49c-7.09,5.58-9.56,9.72-10.41,18.78-1.99,21.16-2.31,70.17.07,90.96,1.19,10.38,7.39,16.79,18,18.07,41.53,4.99,93.11-3.68,135.69-.21,16.33-2.31,17.61-16.92,16.49-30.72"/>
        <path class="cls-4" d="M609.02,60.89c-2.97,14.91,2.2,38.9,0,54.89l2.58,2.58h165.01l2.58-2.58v-51.46c0-8.46-9.88-15.62-17.98-16.38-43.66-4-93.36,3.22-137.68.02-5.83.05-13.52,7.87-14.52,12.92M779.2,204.13v-58.32h-170.18v58.32h-27.51V57.46c0-14.96,22.02-35.4,37.12-36.73,46.95,2.97,99.76-4.44,146.03-.21,26.69,2.42,39.93,22.28,42.01,47.27,3.52,41.83-2.63,88.1.11,130.41l-2.65,5.92h-24.93Z"/>
      </g>
      <rect class="cls-4" x="523.06" y="20.59" width="27.51" height="183.54"/>
      <g class="cls-2">
        <path class="cls-4" d="M141.59,140.56c6.15.98,10.15-7.8,13.63-9.4,6.4-2.93,7.5,5.58,13.72,6.11,2.01,2.93-15.55,17.27-18.69,17.95-5.49,1.19-13.2-2.42-22.12.48-12.14,3.98-13.54,17.22-17.06,19.42-4.76,2.93-15.71,1.78-21.2,4.99l1.94-16.92,14.48-3.54.98-17.02,26.44-13.81,7.87,11.76Z"/>
        <path class="cls-4" d="M60.64,235v6.86H11.65c-6.59,0-4.78,28.91-2.58,34.31h42.13l2.56-8.58h-29.21v-6.86h36.09l-.37,15.94c-2.7,5.67-8.49,7.41-14.25,8.07-9.31,1.05-38.45,2.04-43.66-6.18-3.89-6.11-3.66-43.57,5.85-43.57h52.42Z"/>
        <path class="cls-4" d="M158.63,104.61l10.47-25.52,17.13-.94,1.78-12.81,15.3-3.59c4.37,19.33-6.15,17.59-13.77,28.29-10.25,14.43,1.24,18.05-.27,25.32-.34,1.72-12.01,17.06-13.45,17.66l-11.92-8.85,8.46-13.49-13.75-6.06Z"/>
        <path class="cls-4" d="M669.18,255.59h-40.39l-2.56,4.25,2.56,2.61h40.39v-6.86ZM628.79,284.75c-12.83-2.72-12.65-32.84-3.11-35.7,4.35-1.28,42.56-.87,46.57.82,5.69,2.4,3.41,14.55,3.82,19.44h-47.27l-2.56,2.61,2.56,4.25h47.27v8.58c-13.56-1.97-34.76,2.68-47.27,0"/>
        <path class="cls-4" d="M799.82,262.45l-.75-5.24c-1.88-2.56-39.52-2.65-41.44,0l-.78,5.24h42.97ZM806.71,269.31h-49.86c-.69,1.99.75,6.86,2.58,6.86h44.69c3.25,0,3.25,8.58,0,8.58h-44.69c-.41,0-7-3.57-7.3-3.87-3.93-4.05-4.67-29.25,4.23-31.79,3.77-1.1,40.16-1.1,43.96,0,8.23,2.36,6.45,13.61,6.38,20.22"/>
        <path class="cls-4" d="M559.15,255.59h-41.26v20.58h41.26v-20.58ZM560.02,248.73c8.33,1.51,7.64,27.72,4.46,31.88-5.74,7.5-37.03,2.81-46.59,4.14l-1.74,17.15c-1.9.71-6.84-.75-6.84-2.56v-50.61c15.09,1.92,36.46-2.58,50.7,0"/>
        <path class="cls-4" d="M739.66,248.73v6.86h-45.56l-2.56,4.25,2.56,2.61h41.26c3.91,0,8.62,13.52,3.84,18.43-.27.3-6.86,3.87-7.27,3.87h-42.97c-3.25,0-3.25-8.58,0-8.58h45.56l-.78-5.24c-3.43-4.71-36.25,1.17-43.94-2.47-8.39-3.98-4.55-19.74.87-19.74h48.99Z"/>
        <path class="cls-4" d="M186.13,276.17h40.39c3.52-2.65,3.04-8.69,2.68-12.94-.14-1.6.14-3.25-.37-4.8l-2.31-2.84h-40.39v20.58ZM186.13,284.75v17.15h-6.88v-53.17h50.73c8.44,0,9.83,36.02-3.45,36.02h-40.39Z"/>
        <path class="cls-4" d="M251.46,276.17h40.39c3.52-2.65,3.04-8.69,2.68-12.94-.14-1.6.14-3.25-.37-4.8l-2.31-2.84h-40.39v20.58ZM251.46,284.75v17.15h-6.88v-53.17h50.73c6.7,0,8.21,25.18,3.57,31.01-.8.98-6.4,5.01-7.02,5.01h-40.39Z"/>
        <path class="cls-4" d="M134.12,161.61c27.54-5.35,26.92,38.35,1.24,39.16-25.34.8-21.86-35.15-1.24-39.16"/>
        <path class="cls-4" d="M494.7,248.73c2.01.34,6.02,4.07,6.02,6.02v30.01c-1.99.69-6.88-.75-6.88-2.56v-26.6h-26.64l-2.56,2.58v26.58c-2.01.69-6.88-.75-6.88-2.56v-26.6h-29.23v29.16h-6.86v-36.02h73.05Z"/>
        <path class="cls-4" d="M70.97,162.95l13.75.02-1.72,17.15-19.53-1.67c-1.33-15.96-12.62-20.95-26.05-12.56l-7.46-10.41,9.19-9.65,6.88,6.79,11.98-11.98,17.38,6.79-4.44,15.51Z"/>
        <path class="cls-4" d="M316.79,276.17h40.39c3.52-2.63,3.04-8.69,2.68-12.94-.14-1.58.11-3.22-.37-4.78l-2.31-2.86h-40.39v20.58ZM312.03,250.85c2.88-2.86,45.15-3.32,49.45-1.26,7.59,3.59,7.39,27.22-.05,32.55-5.53,3.96-40.96,4-46.91.57-7.2-4.16-5.51-24.61-2.49-31.86"/>
        <path class="cls-4" d="M208.01,84.45c35.04-7.25,31.47,32.5,1.53,30.42-21.43-1.51-20.68-26.46-1.53-30.42"/>
        <path class="cls-4" d="M201.4,56.41l-12.78,3.22-5.17-9.81-16.22,5.08c-.09-4.6-4-11.48-8.58-12.05l-.02-3.36c3.66-.96,14.34-6.77,9.31-10.5l-5.88-2.4c4.69-6.45,10.7-10.41,17.24-3.43,3.2,3.43-1.46,9.24,2.61,14.5,5.37,6.93,23.67,1.49,19.49,18.75"/>
        <path class="cls-4" d="M120.81,248.73v24.88c1.51,2.45,3.43,2.36,5.92,2.65,6.04.71,27.24.91,32.75-.09,1.92-.34,3.22-.87,4.3-2.56v-24.88h6.88v28.31c0,9.95-36.52,8.6-43.89,7.75-4.46-.53-12.85-4.94-12.85-9.47v-26.6h6.88Z"/>
        <path class="cls-4" d="M42.97,170.16c24.27-5.42,11.92,38.01-8.62,31.93-10.22-3.04-4.07-29.09,8.62-31.93"/>
        <path class="cls-4" d="M33.14,101.22l-1.72,8.55,10.29-3.43c.66,11.96,6.38,19.58-8.28,24.31,1.83,11.78,4.28,11.85-6.31,20.26-12.65-12.19,12.37-28.06-5.85-36.75,2.74-6.88,1.92-14.64,11.87-12.94"/>
        <path class="cls-4" d="M188.1,34.07c-7.91-12.69,23.58-25.48,29.48-13.01,5.12,10.77-24.95,20.26-29.48,13.01"/>
        <path class="cls-4" d="M120.81,30.86l1.72-6.84-10.29,1.72c-1.26-7.2,9.31-10.18,14.64-9.51,2.56.3,4.73,4.35,10.25,4.44,8.35.11,18.34-10.7,26.64-2.65-4.28,9.58-14.11,3.48-17.18,5.03-2.58,1.33-3.22,6.52-6.29,7.57-4.87,1.67-13.95-.59-19.49.25"/>
        <path class="cls-4" d="M612.46,248.73v6.86h-28.36l-2.58,2.58v26.58l-5.26-.75c-3.45-2.52-2.93-35.27,4.39-35.27h31.81Z"/>
        <path class="cls-4" d="M107.06,248.73l-.75,5.24-2.1,1.35c-7.98,2.47-21.29-3.18-28.09,2.86v26.58l-5.26-.75c-3.45-2.52-2.93-35.27,4.39-35.27h31.81Z"/>
        <path class="cls-4" d="M53.77,65.16l6.86,2.58c-5.35,2.72-7.09,10.77-10.2,13.84-3.54,3.54-7.48,1.6-10.43,3.32-3.57,2.1-3.91,14.18-13.75,11.14,2.26-10.41,12.56-13.63,17.63-21,4.55-6.63,4.25-17.34,11.57-21.04,2.68-1.35,5.19.62,5.15,1.74-.05,1.3-8.87,6.56-6.84,9.42"/>
        <path class="cls-4" d="M106.56,26.96c-1.99,1.99-8.97,3.18-9.56,4.19-1.12,1.92.62,5.72-.62,7.96-.8,1.51-15.37,7.66-17.7,10.61l-3.45-5.15-7.78,6.11-6.79-.96,10.73-8.97c17.36-.27,21.54-16.97,37.37-20.17.82,1.03-1.07,5.26-2.2,6.38"/>
      </g>
      <rect class="cls-4" x="406.16" y="235" width="6.88" height="49.74"/>
      <g class="cls-3">
        <path class="cls-4" d="M22.63,122c1.78,10.86-7.41,22.99-18.8,21.36-8.39-6.06,8.74-28.63,18.8-21.36"/>
        <path class="cls-4" d="M155.17,0c4.28,9.74-19.9,20.86-22.32,12.81-3.25-10.89,18.41-8.03,22.32-12.81"/>
        <path class="cls-4" d="M24.55,80.61c-2.17-5.92,8.37-16.12,13.24-16.88,13.47-2.06-2.95,22.09-13.24,16.88"/>
        <path class="cls-4" d="M72.68,34.3c-2.01-7.64,17.27-18.71,18.89-11.12.94,4.37-13.43,14.73-18.89,11.12"/>
      </g>
    </g>
  </g>
</svg>