<?xml version="1.0" encoding="UTF-8"?>
<svg id="Livello_2" data-name="Livello 2" xmlns="http://www.w3.org/2000/svg" xmlns:xlink="http://www.w3.org/1999/xlink" viewBox="0 0 1184.18 429.07">
  <defs>
    <style>
      .cls-1 {
        fill: none;
      }

      .cls-2 {
        fill: #fff;
      }

      .cls-3 {
        clip-path: url(#clippath);
      }
    </style>
    <clipPath id="clippath">
      <rect class="cls-1" x="0" width="1184.17" height="429.07"/>
    </clipPath>
  </defs>
  <g id="Livello_1-2" data-name="Livello 1">
    <g class="cls-3">
      <path class="cls-2" d="M41.73,211.27l14.34-8.49V32.61l14.36,8.46v153.25l13.04-7.18V48.25l14.34,8.49v121.92l14.34-8.46v-105l13.06,9.79v80.21c13.98-14.08,13.6-36.31,11.73-54.77l3.27,3.91c3.22,72.46,3.22,146.62,0,219.1l-3.27,3.91c1.92-18.37,1.49-37.07-8.82-53.09-.83-1.28.14-2.32-2.92-1.68v81.51l-13.06,9.79v-106.3l-14.34-8.46v123.25l-14.34,8.46v-140.19l-13.04-8.49v155.86l-14.36,8.49v-173.47l-14.34-6.52v188.45l-13.04,7.18V16.94l13.04,7.18v187.15Z"/>
      <path class="cls-2" d="M0,429.07V0c4.69,3.01,13.72,4.76,14.43,11v407.07c-.71,6.21-9.74,7.96-14.43,11"/>
      <path class="cls-2" d="M235.4,229.53l18.91,61.29,20.86-61.29h35.22c1.26,5.45-11.68,1.23-13.06,2.61v85.33l13.06.76v3.91h-43.68l-1.97-3.91h14.34v-82.17l-27.3,82.91c-1.11,4.46-5.71,4.55-6.57-.12l-27.42-82.79v80.21c1.97,3.93,13.2.88,14.34,1.97l-1.94,3.91h-29.34v-3.91l13.06-.76-.02-85.33c-1.35-1.37-14.29,2.84-13.04-2.61h34.56Z"/>
      <path class="cls-2" d="M1014.65,229.53l18.27,61.29,20.86-61.29h35.2c1.26,5.45-11.68,1.23-13.04,2.61l-.02,85.33,13.08.76-.02,3.91h-43.68l-1.94-3.91h14.34v-82.17l-27.3,82.91-3.34,3.2-3.37-3.2-27.28-82.91v82.17h14.34c.4,2.51-1.04,3.48-3.27,3.89-4.53.83-18.44.5-23.54.09-2.3-.19-4.27.26-5.78-2.06-.62-3.15,2.54-1.85,4.53-1.92,3.27-.14,6.57.09,9.81,0l.02-85.33c-.43-2.84-15.52,2.42-14.39-3.37h36.52Z"/>
      <path class="cls-2" d="M914.22,269.96c16.73.73,28.75,1.42,28.75-18.91s-12.02-19.65-28.75-18.91v37.83ZM943.57,229.53c21.64,3.06,24.89,30.12,5.05,38.97-4.72,2.09-10.57,1.92-13.53,5.36,13.2.17,21.43,10.93,23.16,23.18,1.75,12.61-4.31,24.15,14.67,21.19v3.91c-11.9,2.11-27.94,2.61-32.28-11.4-5.45-17.59,5.05-39.49-26.4-36.86v44.35h13.04v3.91h-44.35v-3.91l13.08-.76-.02-85.33c-1.37-1.37-14.29,2.84-13.06-2.61,18.77,1.9,42.52-2.56,60.65,0"/>
      <path class="cls-2" d="M545.15,112.81v82.15c7.18,4.38,23.73,1.85,29.86-4.03,11.59-11.12,11.8-52.12,6.35-66.08-2.28-5.78-4.5-9.39-10.71-11.47-4.17-1.4-24.18-4.93-25.5-.57M513.84,199.53c-2.11-1.59.02-2.37,1.94-2.61,2.3-.31,11.97.45,12.42,0v-86.08h-14.36c-.28-4.15,2.87-3.72,5.81-3.98,39.11-3.25,89.05.64,84.02,52.74-1.49,15.55-17.35,39.94-34.39,39.94h-55.44Z"/>
      <path class="cls-2" d="M333.5,109.83c-8.08,1.66-12.56,10.14-13.65,17.66-1.52,10.64-1.61,41.05-.21,51.72,2.11,16.14,13.98,21.31,29.15,18.94,19.65-3.08,17.37-43.14,16.45-58.02-1.35-21.19-6.97-35.32-31.74-30.29M334.83,105.95c59.66-9.39,66.81,90.02,12.59,96.06-58.28,6.47-65.01-87.81-12.59-96.06"/>
      <path class="cls-2" d="M913.37,113.89c-1.37,1.33-3.34,5.12-4.1,7.02-4.34,11.07-4.46,52.69-.66,64.02,6.33,18.77,35.17,18.27,41.48.26,3.41-9.76,3.15-51.27,0-61.29-1.87-5.97-5.78-12.23-12.3-13.79-6.71-1.59-19.2-1.28-24.41,3.79M923.04,105.97c15.88-2.3,29.91,5.07,39.42,17.3,26.17,33.63-2.7,92.41-47.62,76.29-40.96-14.67-36.69-87.1,8.2-93.6"/>
      <path class="cls-2" d="M355.7,231.15c-9.13,1.66-13.84,11.85-14.98,20.24-1.54,11.52-1.59,47.81,2.92,57.71,6.07,13.37,28.75,14.55,37.16,3.22,7.21-9.67,6.45-47.07,5.07-59.8-1.92-17.89-12.63-24.58-30.17-21.38M357,227.23c32.35-5.17,54.44,29.22,48.26,58.68-10.81,51.6-75.77,49.63-84.28-2.42-3.84-23.63,10.43-52.19,36.03-56.27"/>
      <path class="cls-2" d="M687.3,229.53l1.3,24.79-4.03-.78c-1.23-8.44-9.27-21.4-18.8-21.4h-22.82v40.43c11.73-.12,20.17-4.27,20.88-16.97l3.91.02v37.8l-4.03-.76c-.85-12.87-8.34-17.75-20.76-17.49v43.04h24.13c10.86,0,18.89-15.17,19.6-24.77l4.53-1.33-1.3,30.01h-77.6c-.78,0-2.51-2.7-1.94-3.91h14.34l.02-85.33c-.43-2.84-15.52,2.42-14.36-3.37h76.93Z"/>
      <path class="cls-2" d="M1178.97,106.94c-.43,1.28,1.3,2.82,1.3,3.27v22.8l-3.89.02c-.31-9.2-9.01-22.18-18.94-22.18h-22.82v40.43c11.64-.59,21.31-3.32,20.88-16.97l3.91.02v37.8h-3.91c.07-13.68-7.77-19.1-20.88-18.25v43.04h25.43c1.47,0,9.6-4.36,11.09-5.88,4.6-4.62,6.3-13.32,7.7-19.46l4.03-.76-1.3,28.7h-78.24c-1.26-5.45,11.68-1.26,13.04-2.61l.02-85.33-13.08-.76.02-3.91h75.63Z"/>
      <path class="cls-2" d="M438.85,106.94l41.07,59.99v-56.08h-13.04l1.97-3.91h29.34v3.91h-13.06v91.3l-4.93-.28-58.97-87.1v80.21c2.01,3.96,13.11.85,14.34,1.97v2.61h-31.29c-1.26-5.45,11.68-1.26,13.04-2.61l.02-85.33-13.06-.76v-3.91h34.56Z"/>
      <path class="cls-2" d="M492.97,288.22v-56.08h-13.04v-2.61h31.29v2.61h-14.34v91.3l-5.24-1.94-57.36-85.44v82.17h13.04v3.91h-31.29l-.02-3.91,13.08-.76-.02-85.33c-1.35-1.37-14.29,2.84-13.04-2.61h35.86l41.07,58.68Z"/>
      <path class="cls-2" d="M1068.12,166.93v-56.08h-13.06l.02-3.91h29.34l1.94,3.91h-14.34v91.3l-5.24-1.94-57.36-85.44v82.17h13.04v2.61h-31.29c-.69-5.59,9.74-.85,13.11-3.18l1.23-82.27-2.13-3.06-12.21-.19c-.36-1.8.45-3.15,2.18-3.7,2.63-.83,26.12-.78,29.82-.28,1.45.19,2.84.14,3.96,1.28l40.98,58.78Z"/>
      <path class="cls-2" d="M735.55,232.13v42.4c5.17,3.53,20.15,2.68,25.46-.62,9.13-5.69,9.98-31.31,2.63-37.92-.92-.83-7.18-3.86-7.87-3.86h-20.22ZM735.55,318.21h15.64c.4,2.51-1.02,3.51-3.27,3.91-6.83,1.23-30.15.71-37.87.07-2.28-.19-4.27.26-5.78-2.04-.62-3.18,2.54-1.85,4.53-1.94,3.27-.14,6.57.09,9.81,0l.02-85.33c-.43-2.82-15.52,2.42-14.39-3.37h59.35c1.47,0,11.42,3.84,13.32,4.95,12.56,7.32,15.15,26.38,4.34,36.19-2.99,2.73-15.26,8.41-18.96,8.41h-24.77l-1.97,1.97v37.16Z"/>
      <path class="cls-2" d="M800.76,106.94l-.71,6.47-52.76,83.52h29.34c.47,0,6.61-2.25,7.68-2.75,8.67-4.15,11.92-14.29,12.54-23.35h3.91v28.7h-73.02l.71-5.17,52.76-83.52h-25.43c-2.63,0-11.02,4.24-13.11,6.45-3.1,3.29-6.33,16.21-9.05,15.71l-.73-13.75,1.37-12.32h66.51Z"/>
      <path class="cls-2" d="M277.79,106.94l1.3,28.7-4.03-.78c-1.21-9.31-7.8-24.01-18.8-24.01h-24.13v38.47l3.25,1.99c10.5-.97,17.7-4.1,18.27-15.69l4.57-1.28v37.8l-4.57-1.3c-1.02-3.1-.81-6.45-2.25-9.48-3.29-6.94-19.27-9.88-19.27-5.52v41.1h14.34v2.61h-45.63c-1.16-5.78,13.94-.52,14.36-3.37l-.02-85.33h-14.34c-.57-1.23,1.16-3.91,1.94-3.91h74.99Z"/>
      <path class="cls-2" d="M599.92,229.53l1.3,28.7-5.19-.02c.26-16.4-10.76-27.92-27.42-26.07v86.08h14.36v3.91h-45.01l-1.94-3.91h14.34v-86.08c-17.23-1.66-26,10.17-27.4,26.1h-3.89l1.28-28.7h79.57Z"/>
      <path class="cls-2" d="M1143.75,289.51c-3.2-10.31-5.95-23.65-10.36-33.3-.59-1.3-.88-3.06-2.65-3.2l-13.06,36.5h26.07ZM1093.55,322.12c-1.09-.31-2.37-2.51-1.94-3.91l11.85-.81,34.41-90.59,4.36,2.28,30.36,88.95c1.73,1.52,11.5-2.3,11.59,2.11-1.52,2.3-3.51,1.85-5.78,2.04-5.48.45-32.71.85-36.38-.31-1.71-.52-2.51-1.87-2.16-3.67h14.32l-7.99-24.6-30.5,1.11-8.44,23.46,14.34.02v3.91h-28.04Z"/>
      <path class="cls-2" d="M835.97,289.51l-11.76-36.5c-2.8,1.49-3.77,5.95-4.86,8.79-3.53,9.03-6.4,18.53-9.46,27.71h26.07ZM783.81,322.12v-3.91l11.59-.17,31.67-88.95,4.36-2.28,33.11,90.59,10.57.81v3.91h-43.04v-3.91l14.34-.02-7.94-24.63-31.03.02-7.96,24.63h14.32c.57,1.23-1.14,3.91-1.94,3.91h-28.04Z"/>
      <path class="cls-2" d="M646.88,168.22h26.07l-12.4-36.52-5.55,11.42-8.13,25.1ZM620.78,199.53c-.71-5.83,9.6.19,11.61-4.67l32.21-89.31,5.59.21,30.79,89.85c2.99,3.63,11.87-1.75,11.09,3.91h-44.35c-.17-3.06-.45-2.3,1.92-2.61,2.35-.31,11.92.45,12.42,0l-7.16-23.49-30.46-1.07-8.03,24.55c1.49,1.4,14.27-2.87,13.06,2.61h-28.7Z"/>
      <path class="cls-2" d="M864.01,106.94c1.09.31,2.37,2.51,1.94,3.91h-14.34l-.02,85.33c.43,2.84,15.52-2.42,14.39,3.37h-45.65c-.85-5.33,9.08-1.3,12.21-2.8l1.94-1.97-.38-82.69-13.79-1.23.02-3.91h43.68Z"/>
    </g>
  </g>
</svg>