<?xml version="1.0" encoding="UTF-8"?>
<svg id="Livello_2" data-name="Livello 2" xmlns="http://www.w3.org/2000/svg" xmlns:xlink="http://www.w3.org/1999/xlink" viewBox="0 0 804.97 351.16">
  <defs>
    <style>
      .cls-1 {
        fill: none;
      }

      .cls-2 {
        clip-path: url(#clippath-1);
      }

      .cls-3 {
        clip-path: url(#clippath-3);
      }

      .cls-4 {
        clip-path: url(#clippath-4);
      }

      .cls-5 {
        clip-path: url(#clippath-2);
      }

      .cls-6 {
        clip-path: url(#clippath-7);
      }

      .cls-7 {
        clip-path: url(#clippath-6);
      }

      .cls-8 {
        clip-path: url(#clippath-8);
      }

      .cls-9 {
        clip-path: url(#clippath-5);
      }

      .cls-10 {
        fill: #fff;
      }

      .cls-11 {
        clip-path: url(#clippath);
      }
    </style>
    <clipPath id="clippath">
      <rect class="cls-1" width="804.96" height="351.16"/>
    </clipPath>
    <clipPath id="clippath-1">
      <rect class="cls-1" width="804.96" height="351.16"/>
    </clipPath>
    <clipPath id="clippath-2">
      <rect class="cls-1" width="804.96" height="351.16"/>
    </clipPath>
    <clipPath id="clippath-3">
      <rect class="cls-1" width="804.96" height="351.16"/>
    </clipPath>
    <clipPath id="clippath-4">
      <rect class="cls-1" width="804.96" height="351.16"/>
    </clipPath>
    <clipPath id="clippath-5">
      <rect class="cls-1" width="804.96" height="351.16"/>
    </clipPath>
    <clipPath id="clippath-6">
      <rect class="cls-1" width="804.96" height="351.16"/>
    </clipPath>
    <clipPath id="clippath-7">
      <rect class="cls-1" width="804.96" height="351.16"/>
    </clipPath>
    <clipPath id="clippath-8">
      <rect class="cls-1" width="804.96" height="351.16"/>
    </clipPath>
  </defs>
  <g id="Livello_1-2" data-name="Livello 1">
    <g>
      <rect class="cls-10" x="195.21" y=".02" width="1" height="283.94"/>
      <g class="cls-11">
        <path class="cls-10" d="M12.46,141.48C12.46,67.3,71.25,6.89,144.76,4.27V.27C66.49.27,3.06,63.75,3.06,142.05s63.44,141.76,141.71,141.76v-5.14c-73.51-2.6-132.28-63.03-132.28-137.21"/>
      </g>
      <polygon class="cls-10" points="0 323.5 0 350.59 25.65 350.59 25.65 347.38 5.19 347.38 5.19 337.31 25.65 337.31 25.65 334.12 5.19 334.12 5.19 326.71 25.65 326.71 25.65 323.5 0 323.5"/>
      <polygon class="cls-10" points="60.05 323.5 49.33 334.5 38.86 323.5 32.88 323.5 46.14 337.07 32.55 350.59 38.21 350.59 49.1 339.43 59.72 350.59 65.72 350.59 52.29 336.88 65.72 323.5 60.05 323.5"/>
      <g class="cls-2">
        <path class="cls-10" d="M94.94,331.78c0-.93-.21-1.76-.69-2.45-.48-.67-1.19-1.24-2.14-1.69-.83-.36-1.81-.64-2.86-.81-1.07-.17-2.43-.24-4.07-.24h-5.14v10.83h4.38c2.07,0,3.79-.14,5.1-.4,1.31-.26,2.38-.69,3.19-1.24.83-.6,1.4-1.19,1.74-1.86.33-.64.5-1.38.5-2.17M100.34,331.68c0,1.21-.31,2.31-.9,3.33-.6,1.02-1.45,1.93-2.52,2.67-1.33.93-2.93,1.64-4.76,2.1-1.81.48-4.14.71-6.93.71h-5.17v10.1h-5.19v-27.1h10.57c2.33,0,4.31.14,5.95.43,1.62.26,3.05.69,4.31,1.26,1.48.69,2.64,1.57,3.43,2.6.81,1.05,1.24,2.33,1.24,3.93"/>
      </g>
      <polygon class="cls-10" points="109.32 323.5 109.32 350.59 134.97 350.59 134.97 347.38 114.49 347.38 114.49 337.31 134.97 337.31 134.97 334.12 114.49 334.12 114.49 326.71 134.97 326.71 134.97 323.5 109.32 323.5"/>
      <g class="cls-5">
        <path class="cls-10" d="M165.43,331.11c0-.79-.19-1.45-.6-2.05-.38-.6-1.02-1.12-1.95-1.52-.74-.36-1.64-.6-2.64-.74-1.05-.14-2.26-.21-3.64-.21h-6.1v10.22h5.21c1.64,0,3.07-.1,4.31-.29,1.21-.21,2.24-.6,3.1-1.12.79-.5,1.36-1.1,1.74-1.76.38-.64.57-1.5.57-2.5M177.55,350.58h-6.72l-13.03-10.76h-7.31v10.76h-5.17v-27.1h10.91c2.36,0,4.31.12,5.88.31,1.57.21,2.98.6,4.24,1.14,1.4.62,2.5,1.4,3.31,2.33.79.95,1.17,2.14,1.17,3.6,0,1.95-.69,3.57-2.1,4.91-1.43,1.31-3.36,2.31-5.86,2.98l14.64,11.83h.02Z"/>
      </g>
      <polygon class="cls-10" points="177.92 323.5 177.92 326.71 191.83 326.71 191.83 350.59 197.02 350.59 197.02 326.71 210.93 326.71 210.93 323.5 177.92 323.5"/>
      <g class="cls-3">
        <path class="cls-10" d="M259.38,331.78c0-.93-.24-1.76-.71-2.45-.48-.67-1.19-1.24-2.14-1.69-.83-.36-1.81-.64-2.86-.81-1.07-.17-2.43-.24-4.07-.24h-5.12v10.83h4.36c2.1,0,3.81-.14,5.12-.4,1.31-.26,2.38-.69,3.19-1.24.83-.6,1.4-1.19,1.74-1.86.33-.64.5-1.38.5-2.17M264.76,331.68c0,1.21-.31,2.31-.9,3.33-.6,1.02-1.45,1.93-2.52,2.67-1.33.93-2.93,1.64-4.76,2.1-1.81.48-4.14.71-6.93.71h-5.17v10.1h-5.19v-27.1h10.57c2.33,0,4.31.14,5.95.43,1.62.26,3.05.69,4.31,1.26,1.48.69,2.64,1.57,3.43,2.6.81,1.05,1.24,2.33,1.24,3.93"/>
      </g>
      <path class="cls-10" d="M285.37,326.64l6.83,13.31h-13.69l6.86-13.31ZM282.04,323.5l-14.19,27.1h5.26l3.83-7.55h16.84l3.83,7.55h5.52l-14.19-27.1h-6.91Z"/>
      <g class="cls-4">
        <path class="cls-10" d="M341.27,348.62c-.95.29-1.83.57-2.6.83-.79.24-1.81.5-3.05.79-1.07.24-2.24.43-3.48.6-1.26.17-2.62.26-4.12.26-2.81,0-5.41-.29-7.72-.83-2.31-.55-4.31-1.4-6.02-2.6-1.67-1.14-3-2.62-3.93-4.38-.95-1.79-1.43-3.83-1.43-6.19s.48-4.24,1.36-5.98c.93-1.76,2.21-3.26,3.93-4.48,1.67-1.17,3.67-2.07,6-2.69,2.36-.62,4.95-.93,7.81-.93,2.1,0,4.17.17,6.26.52,2.1.36,4.41.98,6.95,1.86v4.26h-.4c-2.14-1.24-4.29-2.17-6.38-2.71-2.12-.57-4.38-.86-6.79-.86-1.95,0-3.74.21-5.31.67-1.6.45-2.98,1.12-4.21,2.07-1.21.9-2.14,2.05-2.83,3.43-.67,1.38-1,3-1,4.81s.38,3.55,1.12,4.93c.74,1.36,1.69,2.48,2.86,3.33,1.21.9,2.67,1.57,4.29,2s3.36.64,5.17.64c2.5,0,4.83-.31,7-.9,2.19-.6,4.21-1.48,6.12-2.67h.38v4.24l.02-.02Z"/>
      </g>
      <polygon class="cls-10" points="374.96 323.5 356.05 337.64 356.05 323.5 350.86 323.5 350.86 350.59 356.05 350.59 356.05 341.38 359.91 338.54 375.32 350.59 382.03 350.59 363.84 336.23 381.25 323.5 374.96 323.5"/>
      <path class="cls-10" d="M402.94,326.64l6.83,13.31h-13.67l6.83-13.31ZM399.63,323.5l-14.19,27.1h5.26l3.83-7.55h16.84l3.81,7.55h5.55l-14.19-27.1h-6.91Z"/>
      <g class="cls-9">
        <path class="cls-10" d="M461.25,348.59c-2.14.69-4.45,1.26-6.98,1.76-2.52.5-4.95.76-7.31.76-3.02,0-5.83-.29-8.36-.88-2.52-.57-4.67-1.45-6.45-2.62-1.79-1.17-3.19-2.64-4.17-4.41-.98-1.76-1.45-3.83-1.45-6.19,0-4.33,1.81-7.76,5.45-10.26,3.64-2.48,8.62-3.76,14.98-3.76,2.21,0,4.48.19,6.79.55,2.31.38,4.79,1,7.45,1.88v4.29h-.48c-.55-.29-1.31-.67-2.33-1.14-1.05-.48-2.05-.86-3.05-1.19-1.19-.38-2.55-.69-4.1-.95-1.52-.24-3.26-.36-5.19-.36-4.36,0-7.79.98-10.33,2.93-2.55,1.95-3.81,4.6-3.81,7.91,0,3.5,1.31,6.24,3.98,8.17,2.64,1.95,6.26,2.93,10.83,2.93,1.67,0,3.33-.1,5-.36,1.67-.21,3.12-.52,4.38-.88v-6.64h-10.45v-3.17h15.57v11.62l.02.02Z"/>
      </g>
      <polygon class="cls-10" points="470.78 323.5 470.78 326.26 475.9 326.26 475.9 347.81 470.78 347.81 470.78 350.59 486.16 350.59 486.16 347.81 481.07 347.81 481.07 326.26 486.16 326.26 486.16 323.5 470.78 323.5"/>
      <polygon class="cls-10" points="522 323.5 522 345.62 505.17 323.5 497.12 323.5 497.12 350.59 501.97 350.59 501.97 326.35 520.43 350.59 526.83 350.59 526.83 323.5 522 323.5"/>
      <g class="cls-7">
        <path class="cls-10" d="M571.84,348.59c-2.12.69-4.45,1.26-6.98,1.76-2.52.5-4.95.76-7.31.76-3.02,0-5.81-.29-8.36-.88-2.52-.57-4.67-1.45-6.45-2.62-1.79-1.17-3.19-2.64-4.17-4.41s-1.45-3.83-1.45-6.19c0-4.33,1.81-7.76,5.45-10.26,3.64-2.48,8.62-3.76,14.98-3.76,2.21,0,4.48.19,6.79.55,2.33.38,4.81,1,7.48,1.88v4.29h-.48c-.52-.29-1.33-.67-2.36-1.14-1.02-.48-2.02-.86-3.02-1.19-1.21-.38-2.57-.69-4.1-.95-1.52-.24-3.26-.36-5.19-.36-4.36,0-7.81.98-10.36,2.93-2.52,1.95-3.81,4.6-3.81,7.91,0,3.5,1.33,6.24,3.98,8.17,2.67,1.95,6.26,2.93,10.83,2.93,1.69,0,3.33-.1,5.02-.36,1.67-.21,3.12-.52,4.38-.88v-6.64h-10.43v-3.17h15.57v11.62l-.02.02Z"/>
        <path class="cls-10" d="M636.49,348.59c-2.12.69-4.45,1.26-6.98,1.76-2.52.5-4.95.76-7.31.76-3.02,0-5.83-.29-8.36-.88-2.52-.57-4.67-1.45-6.45-2.62-1.81-1.17-3.19-2.64-4.17-4.41s-1.45-3.83-1.45-6.19c0-4.33,1.83-7.76,5.45-10.26,3.64-2.48,8.62-3.76,14.98-3.76,2.21,0,4.48.19,6.79.55,2.33.38,4.81,1,7.48,1.88v4.29h-.48c-.55-.29-1.33-.67-2.36-1.14-1.02-.48-2.02-.86-3.02-1.19-1.21-.38-2.57-.69-4.1-.95-1.52-.24-3.26-.36-5.19-.36-4.36,0-7.81.98-10.36,2.93-2.52,1.95-3.81,4.6-3.81,7.91,0,3.5,1.33,6.24,3.98,8.17,2.67,1.95,6.26,2.93,10.83,2.93,1.69,0,3.36-.1,5.02-.36,1.67-.21,3.12-.52,4.38-.88v-6.64h-10.43v-3.17h15.57v11.62l-.02.02Z"/>
        <path class="cls-10" d="M667.81,331.11c0-.79-.19-1.45-.6-2.05-.38-.6-1.02-1.12-1.95-1.52-.74-.36-1.64-.6-2.67-.74-1.02-.14-2.24-.21-3.62-.21h-6.1v10.22h5.21c1.64,0,3.07-.1,4.29-.29,1.21-.21,2.26-.6,3.12-1.12.79-.5,1.36-1.1,1.74-1.76.38-.64.55-1.5.55-2.5M679.91,350.58h-6.72l-13.03-10.76h-7.31v10.76h-5.17v-27.1h10.91c2.33,0,4.31.12,5.88.31,1.57.21,2.98.6,4.24,1.14,1.4.62,2.5,1.4,3.31,2.33.79.95,1.19,2.14,1.19,3.6,0,1.95-.71,3.57-2.12,4.91-1.43,1.31-3.36,2.31-5.83,2.98l14.62,11.83h.02Z"/>
        <path class="cls-10" d="M715.66,337.04c0-3.5-1.14-6.22-3.41-8.12-2.26-1.91-5.36-2.88-9.29-2.88s-7.05.98-9.31,2.88c-2.26,1.9-3.38,4.62-3.38,8.12s1.14,6.29,3.45,8.17,5.41,2.81,9.26,2.81,6.95-.93,9.24-2.81c2.29-1.91,3.45-4.6,3.45-8.17M716.11,326.61c1.57,1.21,2.81,2.69,3.67,4.45.83,1.74,1.26,3.74,1.26,5.98s-.43,4.24-1.31,6c-.86,1.76-2.07,3.24-3.62,4.43-1.6,1.21-3.5,2.14-5.69,2.76-2.19.62-4.69.93-7.5.93s-5.21-.31-7.45-.95c-2.24-.62-4.14-1.55-5.71-2.74s-2.76-2.69-3.62-4.41c-.86-1.76-1.26-3.76-1.26-6s.4-4.19,1.24-5.95c.83-1.74,2.07-3.24,3.67-4.48,1.52-1.19,3.43-2.12,5.71-2.74,2.26-.64,4.74-.95,7.43-.95s5.29.33,7.52.98c2.21.64,4.12,1.52,5.67,2.71"/>
        <path class="cls-10" d="M760.72,339.7c0,1.98-.31,3.67-.93,5.14-.62,1.45-1.64,2.67-3.05,3.64-1.33.93-2.91,1.6-4.71,2.02-1.79.43-3.88.64-6.26.64s-4.57-.24-6.38-.69c-1.83-.43-3.36-1.1-4.57-1.98-1.43-.98-2.43-2.19-3.05-3.6-.64-1.4-.93-3.14-.93-5.17v-16.22h5.17v16.38c0,1.48.14,2.62.43,3.48.29.86.79,1.62,1.45,2.33.76.79,1.81,1.38,3.12,1.76,1.31.4,2.91.6,4.76.6s3.43-.19,4.74-.6c1.31-.38,2.38-.98,3.14-1.79.69-.69,1.17-1.48,1.45-2.38.29-.88.43-2,.43-3.31v-16.5h5.17v16.22h.02Z"/>
        <path class="cls-10" d="M792.82,331.78c0-.93-.24-1.76-.69-2.45-.48-.67-1.19-1.24-2.14-1.69-.83-.36-1.81-.64-2.86-.81-1.07-.17-2.43-.24-4.07-.24h-5.14v10.83h4.38c2.07,0,3.79-.14,5.1-.4,1.31-.26,2.36-.69,3.19-1.24.81-.6,1.4-1.19,1.74-1.86.33-.64.5-1.38.5-2.17M798.23,331.68c0,1.21-.31,2.31-.9,3.33-.6,1.02-1.45,1.93-2.52,2.67-1.33.93-2.93,1.64-4.76,2.1-1.81.48-4.14.71-6.93.71h-5.17v10.1h-5.19v-27.1h10.57c2.33,0,4.31.14,5.95.43,1.62.26,3.05.69,4.31,1.26,1.48.69,2.64,1.57,3.43,2.6.81,1.05,1.24,2.33,1.24,3.93"/>
      </g>
      <path class="cls-10" d="M69.48,241.71l-.02-.1.02.1Z"/>
      <g class="cls-6">
        <path class="cls-10" d="M112.76,44.32c10,.52,20.91.62,31.86-.12V14.93c-4.81.19-9.55.64-14.22,1.33-2.64,2.91-10.17,11.98-17.65,28.05"/>
        <path class="cls-10" d="M94.25,26.98c-7.74,3.57-15.03,7.91-21.81,12.83,1.88.31,4.57.79,8,1.29,5.12-6.05,9.98-10.76,13.81-14.14v.02Z"/>
        <path class="cls-10" d="M46.16,135.01c0-16.29,2.52-30.77,6.48-43.53-10.38-.9-18.1-1.69-20.84-1.98-7.07,15.5-11.07,32.67-11.26,50.77h25.67c-.02-1.74-.07-3.48-.07-5.29l.02.02Z"/>
        <path class="cls-10" d="M78.66,43.23c-4.5-.69-7.6-1.24-8.83-1.48-15.69,12.07-28.41,27.62-36.98,45.48,3.33.36,10.81,1.1,20.53,1.95,6.41-19.53,16.17-34.79,25.29-45.96"/>
        <path class="cls-10" d="M97.9,94.64c-1.9,11.98-3.07,25.38-3.07,40.36,0,1.81.02,3.52.05,5.29h49.74v-45.72c-5.6.57-12.48.81-20.1.81-8.29,0-17.43-.29-26.65-.74h.02Z"/>
        <path class="cls-10" d="M111.7,46.63c-5.19,11.69-10.24,26.79-13.43,45.67,17.57.83,34.81,1.07,46.34-.14v-45.6c-5.52.36-11.03.52-16.43.52s-11.22-.17-16.5-.48l.02.02Z"/>
        <path class="cls-10" d="M112.45,237.88c6.67,15.31,13.64,24.24,17.74,28.67,4.76.74,9.55,1.29,14.43,1.52v-30.1c-11.05-.74-22.07-.62-32.15-.1h-.02Z"/>
        <path class="cls-10" d="M98.95,189.84c3.12,19.12,7.69,34.12,12.5,45.7,10.36-.57,21.76-.71,33.17.05v-45.6c-11.41-1.19-28.31-.98-45.67-.17v.02Z"/>
        <path class="cls-10" d="M98.57,187.49c17.43-.83,34.48-1.07,46.05.12v-44.96h-49.72c.31,16.95,1.67,31.81,3.67,44.84"/>
        <path class="cls-10" d="M46.27,142.65h-25.69c.17,17.43,4,34.41,11.17,50.01,2.71-.29,10.53-1.07,20.98-2-3.55-13.24-5.95-29.05-6.45-48.01"/>
        <path class="cls-10" d="M80.14,238.73c7.07-1.05,17.15-2.26,28.62-3.02-4.81-11.74-9.26-26.74-12.29-45.74-14.43.71-28.96,1.83-40.67,2.81,6.22,21.57,15.53,35.96,24.34,45.96"/>
        <path class="cls-10" d="M48.53,135.01c0,1.81.02,3.52.07,5.26h43.89c0-1.74-.02-3.48-.02-5.26,0-15,1.17-28.46,3.07-40.48-14.43-.74-28.88-1.83-40.51-2.83-3.98,12.67-6.52,27.1-6.52,43.31h.02Z"/>
        <path class="cls-10" d="M83.2,41.5c7.07.98,16.48,2.05,27.03,2.69,6.38-13.98,12.91-22.96,16.55-27.36-8.57,1.5-16.86,3.79-24.74,6.83-3.19,2.38-10.55,8.29-18.86,17.84h.02Z"/>
        <path class="cls-10" d="M53.39,192.99c-9.79.86-17.29,1.6-20.57,1.93,5.95,12.36,14,23.84,24,33.96,4.1,4.17,8.45,8,13,11.55,1.1-.21,3.71-.69,7.55-1.29-8.76-10.19-17.86-24.69-23.98-46.15"/>
        <path class="cls-10" d="M55.79,89.38c11.55,1,25.86,2.07,40.1,2.79,3.17-18.76,8.14-33.89,13.31-45.7-11.05-.69-20.74-1.83-27.81-2.86-9.14,10.95-19.05,26.17-25.57,45.77h-.02Z"/>
        <path class="cls-10" d="M82.06,240.85c5.24,5.64,10.22,9.76,14.12,13.03,2.21,1.83,4.12,3.43,5.62,4.91,7.93,3.14,16.17,5.55,24.65,7.14-4.79-5.55-10.95-14.43-16.72-27.88-10.93.67-20.57,1.81-27.69,2.83l.02-.02Z"/>
        <path class="cls-10" d="M79.22,241.26c-2.91.45-5.21.83-6.83,1.12,6.95,5.12,14.38,9.55,22.17,13.22-4.21-3.5-9.64-8.05-15.34-14.34"/>
        <path class="cls-10" d="M48.63,142.65c.52,18.93,2.93,34.65,6.5,47.82,11.74-1,26.38-2.12,40.98-2.86-2-13.07-3.31-27.96-3.6-44.96h-43.89Z"/>
      </g>
      <polygon class="cls-10" points="550.51 33.43 658.98 47.08 659.24 86.15 595.23 78.03 595.5 118.23 659.43 118.09 659.67 156.28 595.73 156.45 596.04 203.69 659.93 197.81 660.17 236.86 551.87 249.82 550.51 33.43"/>
      <polygon class="cls-10" points="673.5 235.88 711.67 231.29 711.1 142.78 739.46 191.24 767.46 142.66 767.99 224.53 804.97 220.17 803.99 65.17 771.58 61.2 742.2 118.2 716.08 54.22 672.33 48.72 673.5 235.88"/>
      <g class="cls-8">
        <path class="cls-10" d="M496.75,129.07l-.36-57.17c-.02-3.55-3.38-6.88-8.38-7.5l-28.77-3.6.48,78.91,28.74-1.86c4.45-.31,8.31-3.74,8.29-8.76M512.1,28.46c17.57,2.19,25.07,18.31,25.17,32.84l.57,90.84c.07,10.26-6.64,21.5-16.69,22.81l-61.15,7.26.48,78.11-44.41,5.31-1.57-249.46,97.61,12.31v-.02Z"/>
        <path class="cls-10" d="M360.2,227.11l-1.07-168.81c-.05-6.29-4.41-10.81-8.43-11.29l-37.12-4.74-.67-.02c-4.07,0-8.91,4.48-8.88,9.83l1.14,178.07c.02,3.98,4.41,8.98,9.33,8.95l37.39-3.79c5.24-.48,8.33-4.21,8.31-8.22M377.25,11.39c13.98,1.76,23.67,14.1,23.79,33.62l1.24,197.64c.07,11.86-7.1,24.91-23.38,26.84-27.38,3.29-54.84,6.55-82.2,9.91-2.33.26-4.55.4-6.64.4-21.62.05-29.62-13.84-29.69-23.22l-1.38-221.22c-.14-22.62,13.19-34.58,30.69-34.62,1.71,0,3.48.1,5.26.33l82.32,10.31Z"/>
      </g>
    </g>
  </g>
</svg>