<?xml version="1.0" encoding="UTF-8"?>
<svg id="Livello_2" data-name="Livello 2" xmlns="http://www.w3.org/2000/svg" xmlns:xlink="http://www.w3.org/1999/xlink" viewBox="0 0 1196.67 283.14">
  <defs>
    <style>
      .cls-1 {
        fill: none;
      }

      .cls-2 {
        fill: #fff;
      }

      .cls-3 {
        clip-path: url(#clippath);
      }
    </style>
    <clipPath id="clippath">
      <rect class="cls-1" x="0" y=".01" width="1196.67" height="283.12"/>
    </clipPath>
  </defs>
  <g id="Livello_1-2" data-name="Livello 1">
    <g class="cls-3">
      <path class="cls-2" d="M760.8,47.27l-94.24,95.58c-7.27,7.94-17.7,12.94-29.24,12.94s-22.02-5.02-29.29-12.94l-108.16-109.32c-9.96-9.6-23.52-15.65-38.27-15.65l-.05-17.88c19.56,0,37.54,8.07,50.61,20.67l108.62,109.79c4.09,4.48,10.09,7.43,16.53,7.43s12.39-2.92,16.48-7.4l93.05-94.39,13.95,11.18Z"/>
      <path class="cls-2" d="M746.85,36.1l10.01-10.14c-8.33-5.1-17.98-8.05-28.33-8.05-14.75,0-28.38,6.03-38.35,15.65l-108.16,109.3c-7.25,7.92-17.72,12.94-29.26,12.94s-21.99-4.97-29.26-12.94l-116.75-118.43C423.51,9.73,438.34,0,461.73,0l-.16,17.91c-10.35,0-20.05,2.95-28.36,8.05l103.06,104.53c4.06,4.48,10.01,7.43,16.48,7.43s12.45-2.98,16.51-7.45l108.62-109.79C690.96,8.08,708.96,0,728.5,0c23.39,0,38.04,9.73,54.8,24.43l-22.51,22.85-13.97-11.18h.03Z"/>
      <path class="cls-2" d="M76.33,256.38c1.45,2.35,4.06,3.91,6.99,3.91s5.54-1.55,7.01-3.91l49.29-76.23h26.99l-57.49,89.01c-5.56,8.41-15.03,13.97-25.8,13.97s-20.67-5.85-26.13-14.62L0,180.1h26.99l49.34,76.28ZM1196.64,261.79v20.57h-69.99c-27.45,0-50.2-22.51-50.2-50.82s22.25-51.08,50.2-51.34h70.02v20.67h-70.02c-7.61,0-14.23,2.77-19.3,7.32-3.83,3.34-6.81,7.61-8.62,12.47h89.89v20.13h-90.3c3.7,10.04,10.97,17,20.03,19.72,2.61.83,5.41,1.27,8.31,1.27h70.02-.03ZM941.98,239.69v-59.62h21.06v59.72c0,11.82,9.47,21.37,21.14,21.37h26.39c11.67,0,21.11-9.57,21.11-21.37v-59.72h21.09v59.62c0,23.6-18.89,42.72-42.2,42.72h-26.42c-23.31,0-42.2-19.12-42.2-42.72h.03ZM839.72,282.41c-27.51,0-50.3-22.54-50.3-50.9s22.28-51.18,50.3-51.44h75.14v21.35h-75.14c-7.48,0-13.97,2.72-18.94,7.19-6.21,5.41-10.19,13.38-10.3,22.3,0,13.89,8.9,25.38,21.09,29.06,2.56.8,5.28,1.22,8.15,1.22h54.03v-20.08h-27.32v-19.64h48.44v60.96h-75.14v-.03ZM660.9,207.5v74.91h-21.09v-102.34h20.62l81.14,75.04v-75.01h21.09v102.31h-20.36l-81.4-74.91ZM586.2,180.08h21.09v102.34h-21.09v-102.34ZM566.53,282.41h-49.86c-23.31,0-42.23-19.12-42.23-42.72l-.03-59.62h21.09l.05,59.72c0,11.82,9.44,21.37,21.11,21.37h49.86v21.24ZM345.74,200.98v27.19h67.61c7.4,0,13.38-6.18,13.38-13.66s-5.98-13.53-13.38-13.53h-67.61ZM400.91,248.9h-55.17v33.59l-20.67-.13v-102.28h88.31c18.73,0,33.95,15.4,33.95,34.36,0,14.52-8.9,27.04-21.48,32.09l24.66,35.84h-25.56l-24.01-33.46h-.03ZM291.84,261.79v20.57h-70.02c-27.45,0-50.2-22.51-50.2-50.82s22.25-51.08,50.22-51.34h69.99v20.67h-69.99c-7.61,0-14.23,2.77-19.3,7.32-3.83,3.34-6.83,7.61-8.62,12.47h89.86v20.13h-90.28c3.7,10.04,10.97,17,20.03,19.72,2.59.83,5.38,1.27,8.31,1.27h69.99Z"/>
    </g>
  </g>
</svg>