<svg preserveAspectRatio="none" width="100%" height="100%" overflow="visible" style="display: block;" viewBox="0 0 278 100" fill="none" xmlns="http://www.w3.org/2000/svg">
<g id="barilla" opacity="0.85" clip-path="url(#clip0_4004_1828)">
<path id="Vector" d="M143.226 20.0788C146.505 18.9663 152.041 17.9998 160.844 18.8131C160.844 18.8131 162.64 18.9627 164.04 19.5061C164.04 19.5061 165.451 20.0168 164.962 21.9535C164.962 21.9535 164.305 24.3389 163.812 25.3748C163.445 26.2538 162.836 26.9176 162.045 26.6732C160.565 26.3158 158.926 26.1298 157.195 26.1626C155.534 26.1918 153.97 26.4106 152.548 26.7936C150.539 27.3115 148.903 28.8799 148.279 30.8531L136.961 67.6989C136.602 68.8587 135.529 69.7013 134.259 69.7013H123.282C122.535 69.7013 121.922 69.0849 121.922 68.3299C121.922 68.1913 121.944 68.0563 121.98 67.9287L133.109 31.7175C135.104 25.3602 138.637 21.7055 143.114 20.1189L143.222 20.0788H143.226Z" fill="var(--fill-0, #282828)"/>
<path id="Vector_2" d="M107.162 44.673C107.184 44.6074 107.191 44.5417 107.191 44.4724C107.191 44.1478 106.966 43.8779 106.665 43.8049H106.654C106.654 43.8049 94.1721 42.7764 90.1782 46.0627C85.9269 49.5605 85.2812 57.1142 85.4227 57.727C85.4227 57.727 84.6609 62.9281 93.8746 61.6625C93.8746 61.6625 94.796 61.5786 96.1563 61.254L96.178 61.243C100.041 60.3859 102.765 58.606 104.042 54.7945L107.158 44.673H107.162ZM87.3307 37.1667C97.1212 35.1826 109.19 36.4299 109.19 36.4299C109.498 36.4299 109.759 36.2257 109.843 35.9449L110.847 32.6622C112.61 26.9687 106.393 26.4799 106.393 26.4799C105.247 26.3596 104.137 26.2903 103.088 26.2501H103.067C94.4913 26.024 87.8204 26.8775 85.5134 27.3042C85.5134 27.3042 83.5981 27.6507 83.4167 27.6872L83.0068 27.7674C82.0818 28.0118 81.875 27.3662 82.031 26.5055V26.4909C82.031 26.4909 82.459 24.2441 84.1385 21.9389C84.9076 20.8849 85.6548 19.9694 88.2013 19.477C91.1069 18.9153 101.899 17.3396 114.816 18.6673C114.816 18.6673 129.688 19.9365 125.52 33.4136L114.986 67.6952C114.631 68.8551 113.557 69.6976 112.284 69.6976H102.265C101.365 69.6976 100.633 68.9645 100.633 68.0563C100.633 68.0563 100.64 67.8812 100.665 67.7536L100.894 66.6192C100.894 66.6192 100.894 66.5828 100.894 66.5645C100.894 66.4077 100.767 66.2837 100.614 66.2837C100.556 66.2837 100.502 66.3092 100.455 66.3311C94.114 69.4022 87.2582 69.9894 87.2582 69.9894C71.3264 71.6234 69.8791 64.7664 69.705 62.0965C69.3603 56.7276 71.9975 46.0809 78.1061 40.9345C80.4857 38.9284 83.6307 37.9181 87.3307 37.1704" fill="var(--fill-0, #282828)"/>
<path id="Vector_3" d="M258.902 44.673C258.923 44.6074 258.934 44.5417 258.934 44.4724C258.934 44.1478 258.713 43.8779 258.408 43.8049H258.397C258.397 43.8049 245.912 42.7764 241.918 46.0627C237.67 49.5605 237.024 57.1142 237.166 57.727C237.166 57.727 236.4 62.9281 245.618 61.6625C245.618 61.6625 246.539 61.5786 247.9 61.254L247.921 61.243C251.788 60.3859 254.509 58.606 255.786 54.7945L258.902 44.673ZM239.067 37.1667C248.857 35.1826 260.929 36.4299 260.929 36.4299C261.238 36.4299 261.499 36.2257 261.582 35.9449L262.594 32.6622C264.354 26.9687 258.133 26.4799 258.133 26.4799C256.99 26.3596 255.88 26.2903 254.832 26.2501H254.806C246.231 26.024 239.56 26.8775 237.257 27.3042C237.257 27.3042 235.341 27.6507 235.16 27.6872L234.746 27.7674C233.821 28.0118 233.615 27.3662 233.774 26.5055V26.4909C233.774 26.4909 234.199 24.2441 235.882 21.9389C236.647 20.8849 237.398 19.9694 239.945 19.477C242.85 18.9153 253.642 17.3396 266.559 18.6673C266.559 18.6673 281.432 19.9365 277.264 33.4136L266.73 67.6952C266.374 68.8551 265.3 69.6976 264.031 69.6976H254.012C253.109 69.6976 252.376 68.9645 252.376 68.0563C252.376 68.0563 252.387 67.8812 252.408 67.7536L252.637 66.6192C252.637 66.6192 252.637 66.5828 252.637 66.5645C252.637 66.4077 252.51 66.2837 252.358 66.2837C252.3 66.2837 252.245 66.3092 252.198 66.3311C245.857 69.4022 239.001 69.9894 239.001 69.9894C223.066 71.6234 221.622 64.7664 221.448 62.0965C221.104 56.7276 223.737 46.0809 229.849 40.9345C232.225 38.9284 235.374 37.9181 239.067 37.1704" fill="var(--fill-0, #282828)"/>
<path id="Vector_4" d="M55.518 25.0866C53.9002 28.0775 50.7516 30.1091 47.1277 30.1091H29.7958C29.4041 30.1091 29.0885 29.7917 29.0885 29.4015C29.0885 29.3249 29.103 29.2483 29.1247 29.179L29.2444 28.7778L32.9408 16.7633C33.7969 13.5354 36.7242 11.161 40.2066 11.161H55.4092C56.9146 11.161 58.1697 12.2333 58.4599 13.6594C58.4599 13.6594 59.4901 17.8575 55.5216 25.0866M47.3273 55.0753C45.4591 58.5367 41.8135 60.8527 37.613 60.8527H20.35C19.9582 60.8527 19.6426 60.5354 19.6426 60.1415C19.6426 60.0686 19.6571 59.9993 19.6789 59.93L25.9689 39.45C26.0596 39.1618 26.328 38.9539 26.6436 38.9539H47.2003C48.9415 38.9503 50.3924 40.1904 50.7262 41.8426C50.7262 41.8426 51.9232 46.7082 47.32 55.0789M64.5649 2.31608H40.4786C34.1923 2.30514 29.8539 3.1878 26.9918 4.15436L26.8612 4.20177C21.6087 6.05828 17.4661 10.3476 15.1228 17.8101L0.097941 66.7068C0.032647 66.9183 0 67.1481 0 67.3888C0 68.6654 1.02657 69.7013 2.2998 69.7013H33.8187H45.7094C67.8332 68.8259 68.3193 44.2463 68.3193 44.2463C68.3193 39.8074 65.5225 36.0251 61.6049 34.5844L61.5686 34.5698C61.4453 34.5187 61.3655 34.3984 61.3655 34.2598C61.3655 34.1102 61.4634 33.9826 61.5976 33.9388C64.4959 33.0379 66.9989 31.878 69.0266 29.7078L69.052 29.6823C74.8958 23.2228 75.099 12.9117 75.099 12.9117C75.099 7.06496 70.3833 2.32338 64.5649 2.32338" fill="var(--fill-0, #282828)"/>
<path id="Vector_5" d="M168.607 67.6989C168.252 68.8624 167.174 69.7013 165.905 69.7013H154.928C154.181 69.7013 153.575 69.0849 153.575 68.3335C153.575 68.1949 153.593 68.0563 153.629 67.9323L167.994 21.1657C168.353 20.0058 169.427 19.1669 170.7 19.1669H181.673C182.428 19.1669 183.034 19.7797 183.034 20.5347C183.034 20.6733 183.015 20.8083 182.976 20.9359L168.611 67.7025L168.607 67.6989Z" fill="var(--fill-0, #282828)"/>
<path id="Vector_6" d="M178.673 14.3159C179.994 14.3159 181.147 14.2102 182.156 14.0314L182.181 14.0241C183.868 13.7178 185.275 12.6126 186.004 11.1099V11.088C186.374 10.3257 186.708 9.45763 187.013 8.46555L188.155 4.73064C188.395 3.92457 188.547 3.22063 188.631 2.60787V2.58963C188.776 1.37506 188.174 0.481453 186.958 0.233432H186.94C186.211 0.0838895 185.33 -1.46718e-10 184.263 -0.00364737H180.821C179.504 -0.00364737 178.35 0.102126 177.346 0.284495H177.317C175.63 0.594522 174.222 1.69968 173.493 3.19875L173.486 3.22063C173.123 3.97928 172.786 4.851 172.485 5.84309L171.339 9.578C171.096 10.3804 170.943 11.0844 170.863 11.7044V11.719C170.718 12.9336 171.317 13.8308 172.536 14.0752L172.554 14.0825C173.279 14.2284 174.164 14.3159 175.231 14.3159H178.67H178.673Z" fill="var(--fill-0, #282828)"/>
<path id="Vector_7" d="M205.662 0.211548H204.653C204.628 0.211548 204.602 0.211548 204.595 0.211548H198.657C197.384 0.211548 196.31 1.05409 195.954 2.21031L175.768 67.925C175.728 68.0527 175.706 68.1876 175.706 68.3262C175.706 69.0812 176.316 69.694 177.066 69.694H188.043C189.313 69.694 190.386 68.8551 190.742 67.6952L209.837 5.52577C211.215 1.01397 207.566 0.302732 205.662 0.2079" fill="var(--fill-0, #282828)"/>
<path id="Vector_8" d="M228.231 0.211548H227.223C227.198 0.211548 227.176 0.211548 227.169 0.211548H221.22C219.954 0.211548 218.88 1.05409 218.521 2.21031L198.334 67.925C198.294 68.0527 198.276 68.1876 198.276 68.3262C198.276 69.0812 198.882 69.694 199.636 69.694H210.613C211.883 69.694 212.953 68.8551 213.312 67.6952L232.407 5.52577C233.781 1.01397 230.132 0.302732 228.231 0.2079" fill="var(--fill-0, #282828)"/>
<path id="Vector_9" d="M30.4238 95.8055H32.252V84.0063H30.4238V95.8055ZM37.9979 94.3685C37.4465 94.3685 37.1781 94.022 37.1781 93.3326V88.5655H39.1768L39.75 87.0701H37.1781V84.5023L35.368 85.0968V87.0701H33.9388V88.5655H35.368V94.0256C35.368 95.1745 35.9375 95.9988 37.3087 95.9988C38.0886 95.9988 39.1007 95.6925 39.8987 95.0797L39.3836 93.8359C39.0608 94.0657 38.5275 94.3721 37.9943 94.3721M266.835 93.5259C266.204 93.5259 265.711 94.0621 265.711 94.7514C265.711 95.4408 266.204 95.9952 266.835 95.9952C267.466 95.9952 267.978 95.459 267.978 94.7514C267.978 94.0438 267.485 93.5259 266.835 93.5259ZM266.719 84.123H259.671L259.994 85.7898L264.528 85.695C263.157 87.7631 261.594 91.4031 260.984 95.8639H262.852C263.538 91.5746 264.47 88.3175 266.719 85.1005V84.123ZM252.188 85.7862L256.722 85.6914C255.351 87.7594 253.787 91.3995 253.178 95.8602H255.046C255.732 91.5709 256.664 88.3138 258.913 85.0968V84.1193H251.865L252.188 85.7862ZM247.04 94.4049C245.785 94.4049 244.755 93.7739 244.755 92.6031C244.755 91.4323 245.727 90.67 246.355 90.4585C247.762 90.7284 249.079 91.3776 249.079 92.7381C249.079 93.8104 248.201 94.4049 247.04 94.4049ZM246.968 85.4981C248.074 85.4981 248.872 86.1874 248.872 87.0518C248.872 88.0877 248.034 88.7552 247.461 89.1381C246.166 88.85 245.042 88.1789 245.042 87.0117C245.042 86.1692 245.919 85.4981 246.964 85.4981M249.024 89.7327V89.6743C249.822 89.1162 250.718 88.3321 250.718 87.0117C250.718 85.1734 249.347 83.9078 247.008 83.9078C244.668 83.9078 243.235 85.3449 243.235 87.0518C243.235 88.2956 243.903 89.1017 244.835 89.7144V89.7728C243.899 90.2688 242.912 91.1515 242.912 92.7417C242.912 94.715 244.36 95.9988 246.91 95.9988C249.46 95.9988 250.947 94.6785 250.947 92.6651C250.947 91.2317 250.28 90.3491 249.024 89.7363M235.748 85.9394L236.263 87.3764L239.009 86.1509V95.8055H240.779V84.123H239.404L235.748 85.943V85.9394ZM226.092 90.4621C226.092 89.3716 226.741 88.3357 227.826 88.3357C228.968 88.3357 229.502 89.4482 229.52 90.4621H226.092ZM227.844 86.8403C225.613 86.8403 224.224 88.8719 224.224 91.3594C224.224 93.8469 225.482 95.9952 228.243 95.9952C229.215 95.9952 230.318 95.7472 231.138 95.1709L230.644 93.8688C229.995 94.1934 229.309 94.4049 228.587 94.4049C227.1 94.4049 226.132 93.3326 226.11 91.8773H231.406V91.3411C231.406 88.6238 230.053 86.8403 227.844 86.8403ZM220.814 94.3101C219.174 94.3101 218.492 92.8366 218.492 91.3813C218.492 89.8092 219.33 88.4889 220.854 88.4889C221.634 88.4889 222.225 88.6421 222.816 88.9302L222.871 87.205C222.356 87.0117 221.634 86.8403 220.72 86.8403C218.318 86.8403 216.682 88.9083 216.682 91.4943C216.682 93.9271 218.017 95.9952 220.473 95.9952C221.597 95.9952 222.511 95.6888 223.179 95.2694L222.762 93.8542C222.189 94.1204 221.543 94.3137 220.817 94.3137M212.395 86.8403C211.252 86.8403 210.396 87.2816 209.482 87.9892L209.271 87.0518H207.766V95.8055H209.576V89.5612C210.222 89.0251 210.983 88.5655 211.782 88.5655C212.906 88.5655 213.077 89.6378 213.077 90.5752V95.8055H214.905V89.9624C214.905 87.7011 213.61 86.8403 212.391 86.8403M204.374 83.5285C203.707 83.5285 203.21 84.0646 203.21 84.7358C203.21 85.4069 203.707 85.943 204.374 85.943C205.042 85.943 205.535 85.385 205.535 84.7358C205.535 84.0464 205.02 83.5285 204.374 83.5285ZM203.478 95.8055H205.288V87.0737H203.478V95.8055ZM199.27 89.5029C197.841 88.6421 196.488 88.0476 196.488 86.9388C196.488 85.9795 197.25 85.5601 198.258 85.5601C199.212 85.5601 200.203 85.8482 200.983 86.2676L201.095 84.4476C200.504 84.1777 199.397 83.9114 198.179 83.9114C196.046 83.9114 194.598 85.1953 194.598 87.1503C194.598 88.9886 196.046 89.853 197.435 90.6554C198.788 91.4396 199.474 91.8627 199.474 92.7053C199.474 93.6463 198.712 94.3137 197.722 94.3137C196.826 94.3137 195.705 93.949 194.979 93.6062L194.41 95.2146C195.382 95.6925 196.524 95.9988 197.819 95.9988C199.934 95.9988 201.44 94.6785 201.44 92.6104C201.44 91.0566 200.642 90.3308 199.27 89.5065M188.736 93.5259C188.105 93.5259 187.612 94.0621 187.612 94.7514C187.612 95.4408 188.105 95.9952 188.736 95.9952C189.368 95.9952 189.879 95.459 189.879 94.7514C189.879 94.0438 189.386 93.5259 188.736 93.5259ZM186.03 87.0518L184.104 93.6973H184.068L181.746 87.0518H179.802L183.19 95.977C182.599 97.8554 182.124 98.4462 181.304 98.4462C180.847 98.4462 180.56 98.4097 180.161 98.2347L179.704 99.69C180.201 99.9015 180.734 99.9964 181.362 99.9964C182.961 99.9964 183.97 99.172 184.906 96.2797L187.859 87.0482H186.03V87.0518ZM176.051 86.8403C174.909 86.8403 174.049 87.2816 173.135 87.9892L172.924 87.0518H171.419V95.8055H173.229V89.5612C173.875 89.0251 174.636 88.5655 175.438 88.5655C176.563 88.5655 176.733 89.6378 176.733 90.5752V95.8055H178.561V89.9624C178.561 87.7011 177.266 86.8403 176.048 86.8403M167.189 93.7338C166.885 94.022 166.351 94.4232 165.495 94.4232C164.545 94.4232 164.066 93.8651 164.066 93.0846C164.066 92.2603 164.599 91.8007 165.836 91.7606L167.189 91.7205V93.7302V93.7338ZM169.039 89.9442C169.039 87.6828 167.839 86.8403 165.916 86.8403C164.81 86.8403 163.783 87.0883 162.735 87.6646L163.308 89.0251C163.841 88.7588 164.737 88.4123 165.557 88.4123C166.507 88.4123 167.215 88.8135 167.215 90.0427V90.2907L165.669 90.3491C163.518 90.4439 162.241 91.4396 162.241 93.2414C162.241 94.9265 163.442 95.9988 164.89 95.9988C166.032 95.9988 166.812 95.4991 167.327 94.9812L167.69 95.8055H169.195C169.083 95.4408 169.043 94.8098 169.043 93.1429V89.9442H169.039ZM156.467 94.4268C155.991 94.4268 155.687 94.332 155.306 94.1788V88.6421C155.611 88.5473 155.933 88.4889 156.43 88.4889C157.823 88.4889 158.984 89.408 158.984 91.3995C158.984 93.2378 158.03 94.4268 156.47 94.4268M156.525 86.8403C155.23 86.8403 154.239 87.1649 153.496 87.4348V99.8103H155.306V95.7691C155.669 95.904 156.049 95.9988 156.543 95.9988C158.904 95.9988 160.849 94.1788 160.849 91.3047C160.849 88.5874 159.307 86.8403 156.525 86.8403ZM148.45 86.8403C147.478 86.8403 146.469 87.2999 145.515 88.1825C145.192 87.34 144.431 86.8403 143.401 86.8403C142.486 86.8403 141.532 87.2233 140.578 88.0074L140.368 87.0482H138.844V95.8019H140.673V89.5393C141.264 89.0214 141.968 88.5217 142.824 88.5217C143.872 88.5217 144.061 89.346 144.061 90.3782V95.7982H145.889V89.5138C146.458 89.0178 147.184 88.5181 148.04 88.5181C149.088 88.5181 149.259 89.3023 149.259 90.3381V95.7946H151.105V89.7801C151.105 87.5369 149.81 86.8293 148.439 86.8293M132.961 94.4451C131.626 94.4451 130.81 93.2378 130.81 91.4214C130.81 89.605 131.532 88.3941 132.943 88.3941C134.354 88.3941 135.115 89.5977 135.115 91.4214C135.115 93.2451 134.372 94.4451 132.964 94.4451M132.943 86.8403C131.818 86.8403 130.828 87.2816 130.142 88.0476C129.38 88.8719 128.942 90.0792 128.942 91.4579C128.942 92.8366 129.38 94.1022 130.2 94.9229C130.868 95.6122 131.818 95.9952 132.943 95.9952C134.125 95.9952 135.097 95.5356 135.801 94.7697C136.563 93.9672 136.984 92.7782 136.984 91.3995C136.984 90.0208 136.585 88.8719 135.859 88.0658C135.155 87.2816 134.161 86.8403 132.943 86.8403ZM124.904 94.2335C122.713 94.2335 121.494 92.3004 121.494 89.926C121.494 87.7412 122.771 85.6549 125.038 85.6549C126.087 85.6549 126.885 85.8847 127.744 86.3442L127.784 84.3892C127.117 84.1595 126.221 83.9114 125.02 83.9114C121.727 83.9114 119.514 86.4974 119.514 90.0609C119.514 93.4311 121.494 95.9988 124.716 95.9988C125.898 95.9988 126.925 95.7508 127.991 95.1964L127.476 93.701C126.656 94.0256 125.876 94.2372 124.904 94.2372M112.248 94.2153C112.001 94.3101 111.602 94.3867 111.24 94.3867C109.43 94.3867 108.439 93.1247 108.439 91.4177C108.439 89.5576 109.622 88.4305 111.163 88.4305C111.679 88.4305 111.943 88.4889 112.248 88.5837V94.2153ZM112.248 86.957C111.925 86.8986 111.581 86.8403 111.087 86.8403C108.515 86.8403 106.611 88.8135 106.611 91.5126C106.611 94.4998 108.61 95.9952 111.051 95.9952C112.346 95.9952 113.373 95.707 114.062 95.3058V83.295H112.252V86.9534L112.248 86.957ZM101.206 94.4451C99.8748 94.4451 99.055 93.2378 99.055 91.4214C99.055 89.605 99.7769 88.3941 101.188 88.3941C102.599 88.3941 103.357 89.5977 103.357 91.4214C103.357 93.2451 102.614 94.4451 101.206 94.4451ZM101.188 86.8403C100.063 86.8403 99.0732 87.2816 98.3876 88.0476C97.6258 88.8719 97.1869 90.0792 97.1869 91.4579C97.1869 92.8366 97.6258 94.1022 98.442 94.9229C99.1095 95.6122 100.06 95.9952 101.184 95.9952C102.367 95.9952 103.335 95.5356 104.043 94.7697C104.805 93.9672 105.225 92.7782 105.225 91.3995C105.225 90.0208 104.826 88.8719 104.101 88.0658C103.397 87.2816 102.407 86.8403 101.188 86.8403ZM92.0359 94.4451C90.701 94.4451 89.8849 93.2378 89.8849 91.4214C89.8849 89.605 90.6104 88.3941 92.0178 88.3941C93.4253 88.3941 94.1906 89.5977 94.1906 91.4214C94.1906 93.2451 93.447 94.4451 92.0359 94.4451ZM92.0178 86.8403C90.8933 86.8403 89.903 87.2816 89.2174 88.0476C88.4557 88.8719 88.0167 90.0792 88.0167 91.4579C88.0167 92.8366 88.4557 94.1022 89.2718 94.9229C89.9393 95.6122 90.8897 95.9952 92.0142 95.9952C93.1967 95.9952 94.1653 95.5356 94.8726 94.7697C95.6344 93.9672 96.0551 92.7782 96.0551 91.3995C96.0551 90.0208 95.6561 88.8719 94.9306 88.0658C94.2269 87.2816 93.2366 86.8403 92.0142 86.8403M81.0847 95.8055H82.9311V90.9035H86.4751V89.2366H82.9311V85.6731H87.1607L87.712 84.0063H81.0811V95.8055H81.0847ZM72.6255 86.8403C71.4829 86.8403 70.6268 87.2816 69.709 87.9892L69.4986 87.0518H67.9933V95.8055H69.8033V89.5612C70.449 89.0251 71.2108 88.5655 72.0125 88.5655C73.137 88.5655 73.3075 89.6378 73.3075 90.5752V95.8055H75.1357V89.9624C75.1357 87.7011 73.8407 86.8403 72.6219 86.8403M63.7709 93.7338C63.4662 94.022 62.933 94.4232 62.0769 94.4232C61.1265 94.4232 60.6477 93.8651 60.6477 93.0846C60.6477 92.2603 61.1809 91.8007 62.4215 91.7606L63.7745 91.7205V93.7302L63.7709 93.7338ZM65.6173 89.9442C65.6173 87.6828 64.4166 86.8403 62.494 86.8403C61.3877 86.8403 60.3611 87.0883 59.3128 87.6646L59.8859 89.0251C60.4191 88.7588 61.3151 88.4123 62.1313 88.4123C63.0853 88.4123 63.789 88.8135 63.789 90.0427V90.2907L62.2438 90.3491C60.0927 90.4439 58.8158 91.4396 58.8158 93.2414C58.8158 94.9265 60.0165 95.9988 61.4639 95.9988C62.6065 95.9988 63.3864 95.4991 63.9015 94.9812L64.2606 95.8055H65.766C65.6499 95.4408 65.6137 94.8098 65.6137 93.1429V89.9442H65.6173ZM55.903 83.5285C55.2355 83.5285 54.7386 84.0646 54.7386 84.7358C54.7386 85.4069 55.2355 85.943 55.903 85.943C56.5704 85.943 57.0638 85.385 57.0638 84.7358C57.0638 84.0464 56.5487 83.5285 55.903 83.5285ZM55.007 95.8055H56.8171V87.0737H55.007V95.8055ZM52.4533 94.2517C51.9962 94.2517 51.862 94.0402 51.862 93.3326V83.295H50.0302V94.1569C50.0302 95.1928 50.5271 95.9952 51.7641 95.9952C52.2393 95.9952 52.6963 95.9004 53.2114 95.6122L52.9829 94.1752C52.7544 94.2517 52.5657 94.2517 52.4497 94.2517M45.9021 93.7338C45.5974 94.022 45.0642 94.4232 44.2081 94.4232C43.2541 94.4232 42.7789 93.8651 42.7789 93.0846C42.7789 92.2603 43.3121 91.8007 44.5491 91.7606L45.9021 91.7205V93.7302V93.7338ZM47.7485 89.9442C47.7485 87.6828 46.5478 86.8403 44.6253 86.8403C43.5189 86.8403 42.4923 87.0883 41.444 87.6646L42.0171 89.0251C42.5504 88.7588 43.4463 88.4123 44.2625 88.4123C45.2165 88.4123 45.9203 88.8135 45.9203 90.0427V90.2907L44.375 90.3491C42.2239 90.4439 40.947 91.4396 40.947 93.2414C40.947 94.9265 42.1477 95.9988 43.5951 95.9988C44.7377 95.9988 45.5176 95.4991 46.0327 94.9812L46.3955 95.8055H47.9008C47.7848 95.4408 47.7485 94.8098 47.7485 93.1429V89.9442ZM19.683 90.4621C19.683 89.3716 20.3323 88.3357 21.4169 88.3357C22.5595 88.3357 23.0928 89.4482 23.1109 90.4621H19.6793H19.683ZM21.435 86.8403C19.2078 86.8403 17.8184 88.8719 17.8184 91.3594C17.8184 93.8469 19.0735 95.9952 21.8377 95.9952C22.8098 95.9952 23.9162 95.7472 24.736 95.1709L24.239 93.8688C23.5897 94.1934 22.9078 94.4049 22.1823 94.4049C20.695 94.4049 19.7229 93.3326 19.7047 91.8773H25.0008V91.3411C25.0008 88.6238 23.6478 86.8403 21.4386 86.8403M13.509 86.8403C12.3845 86.8403 11.5684 87.2999 10.7486 87.971V83.295H8.93847V95.8019H10.7486V89.594C11.3398 89.0579 12.1016 88.5618 12.8996 88.5618C14.0423 88.5618 14.2345 89.5758 14.2345 90.5934V95.8019H16.0446V90.0573C16.0446 87.5479 14.7315 86.8403 13.5127 86.8403M0.0149569 85.6731H3.06201V95.8055H4.93014V85.6731H7.53827L7.91916 84.0063H0.0149569V85.6731Z" fill="var(--fill-0, #282828)"/>
</g>
<defs>
<clipPath id="clip0_4004_1828">
<rect width="278" height="100" fill="white"/>
</clipPath>
</defs>
</svg>
