<svg width="278" height="100" viewBox="0 0 278 100" fill="none" xmlns="http://www.w3.org/2000/svg">
<g opacity="0.85" clip-path="url(#clip0_1_542)">
<path d="M143.226 20.0786C146.505 18.9661 152.041 17.9996 160.844 18.8129C160.844 18.8129 162.64 18.9625 164.04 19.5059C164.04 19.5059 165.451 20.0166 164.962 21.9533C164.962 21.9533 164.305 24.3387 163.812 25.3745C163.445 26.2536 162.836 26.9174 162.045 26.673C160.565 26.3156 158.926 26.1295 157.195 26.1624C155.534 26.1916 153.97 26.4104 152.549 26.7934C150.539 27.3113 148.903 28.8797 148.279 30.8529L136.961 67.6986C136.602 68.8585 135.529 69.701 134.259 69.701H123.282C122.535 69.701 121.922 69.0846 121.922 68.3296C121.922 68.191 121.944 68.0561 121.98 67.9284L133.109 31.7173C135.104 25.36 138.637 21.7053 143.114 20.1187L143.222 20.0786H143.226Z" fill="#282828"/>
<path d="M107.162 44.6731C107.184 44.6074 107.191 44.5418 107.191 44.4725C107.191 44.1479 106.966 43.8779 106.665 43.805H106.654C106.654 43.805 94.1721 42.7764 90.1782 46.0627C85.9269 49.5606 85.2812 57.1143 85.4227 57.727C85.4227 57.727 84.6609 62.9282 93.8746 61.6625C93.8746 61.6625 94.796 61.5786 96.1563 61.254L96.178 61.2431C100.041 60.386 102.765 58.606 104.042 54.7945L107.158 44.6731H107.162ZM87.3307 37.1668C97.1212 35.1826 109.19 36.43 109.19 36.43C109.498 36.43 109.759 36.2258 109.843 35.9449L110.847 32.6623C112.61 26.9687 106.393 26.48 106.393 26.48C105.247 26.3596 104.137 26.2903 103.088 26.2502H103.067C94.4913 26.0241 87.8204 26.8775 85.5133 27.3043C85.5133 27.3043 83.5981 27.6508 83.4167 27.6873L83.0068 27.7675C82.0818 28.0119 81.875 27.3663 82.031 26.5055V26.4909C82.031 26.4909 82.459 24.2441 84.1385 21.939C84.9076 20.8849 85.6548 19.9694 88.2013 19.477C91.1069 18.9153 101.899 17.3397 114.816 18.6673C114.816 18.6673 129.688 19.9366 125.52 33.4136L114.986 67.6953C114.631 68.8551 113.557 69.6977 112.284 69.6977H102.265C101.365 69.6977 100.633 68.9646 100.633 68.0564C100.633 68.0564 100.64 67.8813 100.665 67.7536L100.894 66.6193C100.894 66.6193 100.894 66.5828 100.894 66.5646C100.894 66.4078 100.767 66.2837 100.614 66.2837C100.556 66.2837 100.502 66.3093 100.455 66.3312C94.114 69.4022 87.2581 69.9895 87.2581 69.9895C71.3264 71.6235 69.8791 64.7664 69.7049 62.0966C69.3603 56.7276 71.9975 46.081 78.1061 40.9345C80.4857 38.9285 83.6307 37.9181 87.3307 37.1704" fill="#282828"/>
<path d="M258.901 44.6731C258.923 44.6074 258.934 44.5418 258.934 44.4725C258.934 44.1479 258.713 43.8779 258.408 43.805H258.397C258.397 43.805 245.912 42.7764 241.918 46.0627C237.67 49.5606 237.024 57.1143 237.166 57.727C237.166 57.727 236.4 62.9282 245.618 61.6625C245.618 61.6625 246.539 61.5786 247.899 61.254L247.921 61.2431C251.788 60.386 254.509 58.606 255.786 54.7945L258.901 44.6731ZM239.067 37.1668C248.857 35.1826 260.929 36.43 260.929 36.43C261.238 36.43 261.499 36.2258 261.582 35.9449L262.594 32.6623C264.354 26.9687 258.132 26.48 258.132 26.48C256.99 26.3596 255.88 26.2903 254.832 26.2502H254.806C246.231 26.0241 239.56 26.8775 237.257 27.3043C237.257 27.3043 235.341 27.6508 235.16 27.6873L234.746 27.7675C233.821 28.0119 233.615 27.3663 233.774 26.5055V26.4909C233.774 26.4909 234.199 24.2441 235.882 21.939C236.647 20.8849 237.398 19.9694 239.944 19.477C242.85 18.9153 253.642 17.3397 266.559 18.6673C266.559 18.6673 281.432 19.9366 277.264 33.4136L266.73 67.6953C266.374 68.8551 265.3 69.6977 264.031 69.6977H254.012C253.108 69.6977 252.376 68.9646 252.376 68.0564C252.376 68.0564 252.387 67.8813 252.408 67.7536L252.637 66.6193C252.637 66.6193 252.637 66.5828 252.637 66.5646C252.637 66.4078 252.51 66.2837 252.358 66.2837C252.3 66.2837 252.245 66.3093 252.198 66.3312C245.857 69.4022 239.001 69.9895 239.001 69.9895C223.066 71.6235 221.622 64.7664 221.448 62.0966C221.104 56.7276 223.737 46.081 229.849 40.9345C232.225 38.9285 235.374 37.9181 239.067 37.1704" fill="#282828"/>
<path d="M55.518 25.0866C53.9002 28.0774 50.7516 30.109 47.1277 30.109H29.7958C29.4041 30.109 29.0885 29.7917 29.0885 29.4014C29.0885 29.3248 29.103 29.2482 29.1247 29.1789L29.2444 28.7777L32.9408 16.7633C33.7969 13.5353 36.7242 11.1609 40.2066 11.1609H55.4092C56.9146 11.1609 58.1697 12.2332 58.4599 13.6593C58.4599 13.6593 59.4901 17.8575 55.5216 25.0866M47.3273 55.0752C45.4591 58.5366 41.8135 60.8527 37.613 60.8527H20.35C19.9582 60.8527 19.6426 60.5354 19.6426 60.1414C19.6426 60.0685 19.6571 59.9992 19.6789 59.9299L25.9689 39.4499C26.0596 39.1618 26.328 38.9539 26.6436 38.9539H47.2003C48.9415 38.9502 50.3924 40.1903 50.7262 41.8426C50.7262 41.8426 51.9232 46.7082 47.32 55.0789M64.5649 2.31602H40.4786C34.1923 2.30508 29.8539 3.18774 26.9918 4.15429L26.8612 4.20171C21.6087 6.05822 17.4661 10.3475 15.1228 17.8101L0.097941 66.7067C0.032647 66.9183 0 67.148 0 67.3888C0 68.6653 1.02657 69.7012 2.2998 69.7012H33.8187H45.7094C67.8332 68.8258 68.3193 44.2462 68.3193 44.2462C68.3193 39.8073 65.5225 36.025 61.6049 34.5843L61.5686 34.5697C61.4453 34.5187 61.3655 34.3983 61.3655 34.2597C61.3655 34.1102 61.4634 33.9825 61.5976 33.9387C64.4959 33.0378 66.9989 31.878 69.0266 29.7078L69.052 29.6822C74.8958 23.2227 75.099 12.9116 75.099 12.9116C75.099 7.0649 70.3833 2.32331 64.5649 2.32331" fill="#282828"/>
<path d="M168.607 67.6989C168.252 68.8624 167.174 69.7013 165.905 69.7013H154.928C154.181 69.7013 153.575 69.0849 153.575 68.3336C153.575 68.195 153.593 68.0564 153.629 67.9324L167.994 21.1658C168.353 20.0059 169.427 19.167 170.7 19.167H181.673C182.428 19.167 183.034 19.7798 183.034 20.5348C183.034 20.6734 183.015 20.8083 182.976 20.936L168.611 67.7026L168.607 67.6989Z" fill="#282828"/>
<path d="M178.673 14.3162C179.994 14.3162 181.147 14.2104 182.156 14.0317L182.181 14.0244C183.868 13.718 185.275 12.6128 186.004 11.1101V11.0882C186.374 10.3259 186.708 9.45786 187.013 8.46578L188.155 4.73087C188.395 3.9248 188.547 3.22086 188.631 2.6081V2.58986C188.776 1.37529 188.174 0.481682 186.958 0.233661H186.94C186.211 0.0841189 185.33 0.000229403 184.263 -0.00341797H180.821C179.504 -0.00341797 178.35 0.102356 177.346 0.284724H177.317C175.63 0.594751 174.222 1.6999 173.493 3.19897L173.486 3.22086C173.123 3.97951 172.786 4.85123 172.485 5.84332L171.339 9.57823C171.096 10.3806 170.943 11.0846 170.863 11.7046V11.7192C170.718 12.9338 171.317 13.8311 172.536 14.0754L172.554 14.0827C173.279 14.2286 174.164 14.3162 175.231 14.3162H178.67H178.673Z" fill="#282828"/>
<path d="M205.661 0.211655H204.653C204.628 0.211655 204.602 0.211655 204.595 0.211655H198.657C197.384 0.211655 196.31 1.0542 195.954 2.21041L175.768 67.9251C175.728 68.0528 175.706 68.1877 175.706 68.3263C175.706 69.0813 176.315 69.6941 177.066 69.6941H188.043C189.313 69.6941 190.386 68.8552 190.742 67.6953L209.837 5.52588C211.215 1.01408 207.566 0.302839 205.661 0.208008" fill="#282828"/>
<path d="M228.231 0.211655H227.223C227.198 0.211655 227.176 0.211655 227.169 0.211655H221.22C219.954 0.211655 218.88 1.0542 218.521 2.21041L198.334 67.9251C198.294 68.0528 198.276 68.1877 198.276 68.3263C198.276 69.0813 198.882 69.6941 199.636 69.6941H210.613C211.883 69.6941 212.953 68.8552 213.312 67.6953L232.407 5.52588C233.781 1.01408 230.132 0.302839 228.231 0.208008" fill="#282828"/>
<path d="M30.4239 95.8054H32.2521V84.0062H30.4239V95.8054ZM37.998 94.3683C37.4466 94.3683 37.1782 94.0218 37.1782 93.3325V88.5654H39.1769L39.75 87.07H37.1782V84.5022L35.3681 85.0967V87.07H33.9389V88.5654H35.3681V94.0255C35.3681 95.1744 35.9376 95.9987 37.3088 95.9987C38.0887 95.9987 39.1007 95.6923 39.8988 95.0796L39.3837 93.8358C39.0608 94.0656 38.5276 94.372 37.9943 94.372M266.835 93.5258C266.204 93.5258 265.711 94.062 265.711 94.7513C265.711 95.4407 266.204 95.9951 266.835 95.9951C267.466 95.9951 267.978 95.4589 267.978 94.7513C267.978 94.0437 267.485 93.5258 266.835 93.5258ZM266.719 84.1229H259.671L259.994 85.7897L264.528 85.6949C263.157 87.763 261.594 91.403 260.984 95.8638H262.852C263.538 91.5745 264.47 88.3174 266.719 85.1004V84.1229ZM252.188 85.7861L256.722 85.6912C255.351 87.7593 253.787 91.3994 253.178 95.8601H255.046C255.732 91.5708 256.664 88.3137 258.913 85.0967V84.1192H251.865L252.188 85.7861ZM247.04 94.4048C245.785 94.4048 244.755 93.7738 244.755 92.603C244.755 91.4322 245.727 90.6699 246.355 90.4584C247.762 90.7283 249.079 91.3775 249.079 92.738C249.079 93.8103 248.201 94.4048 247.04 94.4048ZM246.968 85.4979C248.074 85.4979 248.872 86.1873 248.872 87.0517C248.872 88.0876 248.034 88.755 247.461 89.138C246.166 88.8499 245.042 88.1788 245.042 87.0116C245.042 86.1691 245.919 85.4979 246.964 85.4979M249.025 89.7325V89.6742C249.823 89.1161 250.719 88.3319 250.719 87.0116C250.719 85.1733 249.347 83.9077 247.008 83.9077C244.668 83.9077 243.235 85.3447 243.235 87.0517C243.235 88.2955 243.903 89.1015 244.835 89.7143V89.7727C243.899 90.2687 242.912 91.1514 242.912 92.7416C242.912 94.7148 244.36 95.9987 246.91 95.9987C249.46 95.9987 250.947 94.6784 250.947 92.665C250.947 91.2316 250.28 90.3489 249.025 89.7362M235.748 85.9393L236.263 87.3763L239.009 86.1508V95.8054H240.779V84.1229H239.405L235.748 85.9429V85.9393ZM226.092 90.462C226.092 89.3714 226.741 88.3356 227.826 88.3356C228.968 88.3356 229.502 89.448 229.52 90.462H226.092ZM227.844 86.8402C225.613 86.8402 224.224 88.8718 224.224 91.3593C224.224 93.8468 225.482 95.9951 228.243 95.9951C229.215 95.9951 230.318 95.747 231.138 95.1708L230.644 93.8687C229.995 94.1933 229.309 94.4048 228.587 94.4048C227.1 94.4048 226.132 93.3325 226.11 91.8772H231.406V91.341C231.406 88.6237 230.053 86.8402 227.844 86.8402ZM220.814 94.31C219.174 94.31 218.492 92.8364 218.492 91.3811C218.492 89.8091 219.33 88.4888 220.854 88.4888C221.634 88.4888 222.225 88.642 222.816 88.9301L222.871 87.2049C222.356 87.0116 221.634 86.8402 220.72 86.8402C218.318 86.8402 216.682 88.9082 216.682 91.4942C216.682 93.927 218.017 95.9951 220.473 95.9951C221.597 95.9951 222.512 95.6887 223.179 95.2693L222.762 93.8541C222.189 94.1203 221.543 94.3136 220.818 94.3136M212.395 86.8402C211.252 86.8402 210.396 87.2815 209.482 87.9891L209.271 87.0517H207.766V95.8054H209.576V89.5611C210.222 89.0249 210.984 88.5654 211.782 88.5654C212.906 88.5654 213.077 89.6377 213.077 90.5751V95.8054H214.905V89.9623C214.905 87.7009 213.61 86.8402 212.391 86.8402M204.374 83.5284C203.707 83.5284 203.21 84.0645 203.21 84.7356C203.21 85.4068 203.707 85.9429 204.374 85.9429C205.042 85.9429 205.535 85.3849 205.535 84.7356C205.535 84.0463 205.02 83.5284 204.374 83.5284ZM203.478 95.8054H205.288V87.0736H203.478V95.8054ZM199.271 89.5028C197.841 88.642 196.488 88.0474 196.488 86.9386C196.488 85.9794 197.25 85.5599 198.258 85.5599C199.212 85.5599 200.203 85.8481 200.983 86.2675L201.095 84.4475C200.504 84.1776 199.397 83.9113 198.179 83.9113C196.046 83.9113 194.598 85.1952 194.598 87.1502C194.598 88.9885 196.046 89.8529 197.435 90.6553C198.788 91.4395 199.474 91.8626 199.474 92.7051C199.474 93.6462 198.712 94.3136 197.722 94.3136C196.826 94.3136 195.705 93.9489 194.979 93.606L194.41 95.2145C195.382 95.6923 196.525 95.9987 197.82 95.9987C199.934 95.9987 201.44 94.6784 201.44 92.6103C201.44 91.0565 200.642 90.3307 199.271 89.5064M188.736 93.5258C188.105 93.5258 187.612 94.062 187.612 94.7513C187.612 95.4407 188.105 95.9951 188.736 95.9951C189.368 95.9951 189.879 95.4589 189.879 94.7513C189.879 94.0437 189.386 93.5258 188.736 93.5258ZM186.03 87.0517L184.104 93.6972H184.068L181.746 87.0517H179.802L183.19 95.9768C182.599 97.8552 182.124 98.4461 181.304 98.4461C180.847 98.4461 180.56 98.4096 180.161 98.2346L179.704 99.6899C180.201 99.9014 180.734 99.9962 181.362 99.9962C182.962 99.9962 183.97 99.1719 184.906 96.2796L187.859 87.0481H186.03V87.0517ZM176.051 86.8402C174.909 86.8402 174.049 87.2815 173.135 87.9891L172.924 87.0517H171.419V95.8054H173.229V89.5611C173.875 89.0249 174.637 88.5654 175.438 88.5654C176.563 88.5654 176.733 89.6377 176.733 90.5751V95.8054H178.561V89.9623C178.561 87.7009 177.266 86.8402 176.048 86.8402M167.189 93.7337C166.885 94.0218 166.351 94.4231 165.495 94.4231C164.545 94.4231 164.066 93.865 164.066 93.0845C164.066 92.2602 164.599 91.8006 165.836 91.7605L167.189 91.7204V93.7301V93.7337ZM169.039 89.9441C169.039 87.6827 167.839 86.8402 165.916 86.8402C164.81 86.8402 163.783 87.0882 162.735 87.6645L163.308 89.0249C163.841 88.7587 164.737 88.4122 165.557 88.4122C166.507 88.4122 167.215 88.8134 167.215 90.0426V90.2906L165.669 90.3489C163.518 90.4438 162.242 91.4395 162.242 93.2413C162.242 94.9264 163.442 95.9987 164.89 95.9987C166.032 95.9987 166.812 95.499 167.327 94.9811L167.69 95.8054H169.195C169.083 95.4407 169.043 94.8097 169.043 93.1428V89.9441H169.039ZM156.467 94.4267C155.991 94.4267 155.687 94.3319 155.306 94.1787V88.642C155.611 88.5471 155.933 88.4888 156.43 88.4888C157.823 88.4888 158.984 89.4079 158.984 91.3994C158.984 93.2377 158.03 94.4267 156.47 94.4267M156.525 86.8402C155.23 86.8402 154.239 87.1648 153.496 87.4347V99.8102H155.306V95.7689C155.669 95.9039 156.049 95.9987 156.543 95.9987C158.904 95.9987 160.849 94.1787 160.849 91.3046C160.849 88.5873 159.307 86.8402 156.525 86.8402ZM148.45 86.8402C147.478 86.8402 146.469 87.2997 145.515 88.1824C145.193 87.3399 144.431 86.8402 143.401 86.8402C142.486 86.8402 141.532 87.2231 140.578 88.0073L140.368 87.0481H138.845V95.8018H140.673V89.5392C141.264 89.0213 141.968 88.5216 142.824 88.5216C143.872 88.5216 144.061 89.3459 144.061 90.3781V95.7981H145.889V89.5137C146.459 89.0176 147.184 88.518 148.04 88.518C149.088 88.518 149.259 89.3021 149.259 90.338V95.7945H151.105V89.7799C151.105 87.5368 149.81 86.8292 148.439 86.8292M132.961 94.4449C131.626 94.4449 130.81 93.2377 130.81 91.4213C130.81 89.6049 131.532 88.394 132.943 88.394C134.354 88.394 135.116 89.5976 135.116 91.4213C135.116 93.245 134.372 94.4449 132.964 94.4449M132.943 86.8402C131.818 86.8402 130.828 87.2815 130.142 88.0474C129.381 88.8718 128.942 90.079 128.942 91.4577C128.942 92.8364 129.381 94.1021 130.2 94.9227C130.868 95.6121 131.818 95.9951 132.943 95.9951C134.125 95.9951 135.097 95.5355 135.801 94.7696C136.563 93.9671 136.984 92.7781 136.984 91.3994C136.984 90.0207 136.585 88.8718 135.859 88.0657C135.155 87.2815 134.161 86.8402 132.943 86.8402ZM124.904 94.2334C122.713 94.2334 121.494 92.3003 121.494 89.9258C121.494 87.7411 122.771 85.6548 125.038 85.6548C126.087 85.6548 126.885 85.8846 127.745 86.3441L127.784 84.3891C127.117 84.1593 126.221 83.9113 125.02 83.9113C121.727 83.9113 119.514 86.4973 119.514 90.0608C119.514 93.431 121.494 95.9987 124.716 95.9987C125.898 95.9987 126.925 95.7507 127.991 95.1963L127.476 93.7009C126.656 94.0255 125.876 94.237 124.904 94.237M112.248 94.2152C112.001 94.31 111.602 94.3866 111.24 94.3866C109.43 94.3866 108.439 93.1246 108.439 91.4176C108.439 89.5575 109.622 88.4304 111.164 88.4304C111.679 88.4304 111.943 88.4888 112.248 88.5836V94.2152ZM112.248 86.9569C111.925 86.8985 111.581 86.8402 111.087 86.8402C108.515 86.8402 106.611 88.8134 106.611 91.5125C106.611 94.4996 108.61 95.9951 111.051 95.9951C112.346 95.9951 113.373 95.7069 114.062 95.3057V83.2949H112.252V86.9532L112.248 86.9569ZM101.206 94.4449C99.8749 94.4449 99.0551 93.2377 99.0551 91.4213C99.0551 89.6049 99.777 88.394 101.188 88.394C102.599 88.394 103.357 89.5976 103.357 91.4213C103.357 93.245 102.614 94.4449 101.206 94.4449ZM101.188 86.8402C100.064 86.8402 99.0732 87.2815 98.3877 88.0474C97.6259 88.8718 97.187 90.079 97.187 91.4577C97.187 92.8364 97.6259 94.1021 98.4421 94.9227C99.1095 95.6121 100.06 95.9951 101.184 95.9951C102.367 95.9951 103.335 95.5355 104.043 94.7696C104.805 93.9671 105.225 92.7781 105.225 91.3994C105.225 90.0207 104.826 88.8718 104.101 88.0657C103.397 87.2815 102.407 86.8402 101.188 86.8402ZM92.036 94.4449C90.7011 94.4449 89.8849 93.2377 89.8849 91.4213C89.8849 89.6049 90.6104 88.394 92.0179 88.394C93.4253 88.394 94.1907 89.5976 94.1907 91.4213C94.1907 93.245 93.4471 94.4449 92.036 94.4449ZM92.0179 86.8402C90.8934 86.8402 89.9031 87.2815 89.2175 88.0474C88.4557 88.8718 88.0168 90.079 88.0168 91.4577C88.0168 92.8364 88.4557 94.1021 89.2719 94.9227C89.9393 95.6121 90.8897 95.9951 92.0142 95.9951C93.1968 95.9951 94.1653 95.5355 94.8727 94.7696C95.6344 93.9671 96.0552 92.7781 96.0552 91.3994C96.0552 90.0207 95.6562 88.8718 94.9307 88.0657C94.227 87.2815 93.2367 86.8402 92.0142 86.8402M81.0848 95.8054H82.9311V90.9033H86.4751V89.2365H82.9311V85.673H87.1607L87.7121 84.0062H81.0811V95.8054H81.0848ZM72.6256 86.8402C71.4829 86.8402 70.6268 87.2815 69.7091 87.9891L69.4987 87.0517H67.9933V95.8054H69.8034V89.5611C70.4491 89.0249 71.2109 88.5654 72.0125 88.5654C73.137 88.5654 73.3075 89.6377 73.3075 90.5751V95.8054H75.1357V89.9623C75.1357 87.7009 73.8408 86.8402 72.6219 86.8402M63.771 93.7337C63.4663 94.0218 62.933 94.4231 62.077 94.4231C61.1266 94.4231 60.6477 93.865 60.6477 93.0845C60.6477 92.2602 61.181 91.8006 62.4216 91.7605L63.7746 91.7204V93.7301L63.771 93.7337ZM65.6173 89.9441C65.6173 87.6827 64.4166 86.8402 62.4941 86.8402C61.3877 86.8402 60.3612 87.0882 59.3128 87.6645L59.886 89.0249C60.4192 88.7587 61.3152 88.4122 62.1314 88.4122C63.0854 88.4122 63.7891 88.8134 63.7891 90.0426V90.2906L62.2438 90.3489C60.0927 90.4438 58.8159 91.4395 58.8159 93.2413C58.8159 94.9264 60.0166 95.9987 61.4639 95.9987C62.6066 95.9987 63.3865 95.499 63.9016 94.9811L64.2607 95.8054H65.7661C65.65 95.4407 65.6137 94.8097 65.6137 93.1428V89.9441H65.6173ZM55.903 83.5284C55.2356 83.5284 54.7386 84.0645 54.7386 84.7356C54.7386 85.4068 55.2356 85.9429 55.903 85.9429C56.5705 85.9429 57.0638 85.3849 57.0638 84.7356C57.0638 84.0463 56.5487 83.5284 55.903 83.5284ZM55.0071 95.8054H56.8172V87.0736H55.0071V95.8054ZM52.4533 94.2516C51.9963 94.2516 51.8621 94.0401 51.8621 93.3325V83.2949H50.0302V94.1568C50.0302 95.1926 50.5272 95.9951 51.7641 95.9951C52.2393 95.9951 52.6964 95.9002 53.2115 95.6121L52.9829 94.175C52.7544 94.2516 52.5658 94.2516 52.4497 94.2516M45.9022 93.7337C45.5975 94.0218 45.0642 94.4231 44.2082 94.4231C43.2541 94.4231 42.7789 93.865 42.7789 93.0845C42.7789 92.2602 43.3122 91.8006 44.5491 91.7605L45.9022 91.7204V93.7301V93.7337ZM47.7486 89.9441C47.7486 87.6827 46.5479 86.8402 44.6253 86.8402C43.5189 86.8402 42.4924 87.0882 41.444 87.6645L42.0172 89.0249C42.5504 88.7587 43.4464 88.4122 44.2626 88.4122C45.2166 88.4122 45.9203 88.8134 45.9203 90.0426V90.2906L44.375 90.3489C42.2239 90.4438 40.9471 91.4395 40.9471 93.2413C40.9471 94.9264 42.1478 95.9987 43.5951 95.9987C44.7378 95.9987 45.5177 95.499 46.0328 94.9811L46.3955 95.8054H47.9009C47.7848 95.4407 47.7486 94.8097 47.7486 93.1428V89.9441ZM19.683 90.462C19.683 89.3714 20.3323 88.3356 21.4169 88.3356C22.5596 88.3356 23.0928 89.448 23.1109 90.462H19.6794H19.683ZM21.4351 86.8402C19.2078 86.8402 17.8185 88.8718 17.8185 91.3593C17.8185 93.8468 19.0736 95.9951 21.8377 95.9951C22.8099 95.9951 23.9162 95.747 24.736 95.1708L24.2391 93.8687C23.5898 94.1933 22.9078 94.4048 22.1823 94.4048C20.6951 94.4048 19.7229 93.3325 19.7048 91.8772H25.0008V91.341C25.0008 88.6237 23.6478 86.8402 21.4387 86.8402M13.5091 86.8402C12.3846 86.8402 11.5684 87.2997 10.7486 87.9709V83.2949H8.93853V95.8018H10.7486V89.5939C11.3399 89.0578 12.1017 88.5617 12.8997 88.5617C14.0423 88.5617 14.2346 89.5757 14.2346 90.5933V95.8018H16.0447V90.0572C16.0447 87.5478 14.7316 86.8402 13.5127 86.8402M0.0150146 85.673H3.06207V95.8054H4.9302V85.673H7.53833L7.91921 84.0062H0.0150146V85.673Z" fill="#282828"/>
</g>
<defs>
<clipPath id="clip0_1_542">
<rect width="278" height="100" fill="white"/>
</clipPath>
</defs>
</svg>
