<svg width="140" height="55" viewBox="0 0 140 55" fill="none" xmlns="http://www.w3.org/2000/svg">
<path d="M42.7806 34.9947C42.9579 33.7044 43.0859 32.3655 43.1647 30.9975C41.4216 30.6386 39.5603 30.3475 37.63 30.1244C37.5414 32.414 37.3149 34.529 36.9899 36.45C34.3112 36.8866 31.2779 37.1291 27.9098 37.1291C24.5418 37.1291 21.5085 36.8866 18.8298 36.45C18.3866 33.8111 18.1404 30.8132 18.1404 27.5049C18.1404 24.1965 18.3866 21.1986 18.8298 18.5597C21.5085 18.1231 24.5418 17.8806 27.9098 17.8806C31.2779 17.8806 34.3112 18.1231 36.9899 18.5597C37.3149 20.4807 37.5315 22.5957 37.63 24.8853C39.5603 24.6622 41.4216 24.3614 43.1647 24.0122C43.0859 22.6442 42.9579 21.3151 42.7806 20.015C44.9079 20.7814 46.6018 21.7225 47.8426 22.8091C49.96 22.1397 51.7524 21.3442 53.1016 20.4419C50.61 17.5701 46.5624 15.4066 41.5595 14.0483C39.2353 5.6756 34.5377 0 27.9197 0C21.3017 0 16.6041 5.6756 14.2602 14.0483C5.76121 16.3574 0 20.9755 0 27.5049C0 34.0342 5.76121 38.6523 14.2602 40.9614C16.6041 49.3244 21.3017 55.0097 27.9197 55.0097C34.5377 55.0097 39.2353 49.3341 41.5792 40.9614C46.5722 39.6031 50.6297 37.4493 53.1213 34.5678C51.7721 33.6656 49.9698 32.8797 47.8623 32.2006C46.6214 33.2872 44.9177 34.2283 42.8003 34.9947H42.7806ZM27.9197 5.50097C31.0613 5.50097 33.7597 8.11078 35.5225 12.855C33.0998 12.5348 30.5492 12.3796 27.9197 12.3796C25.2902 12.3796 22.7395 12.5445 20.3169 12.855C22.0797 8.12048 24.7781 5.50097 27.9197 5.50097ZM13.0489 34.9947C8.24296 33.2581 5.58394 30.5998 5.58394 27.5049C5.58394 24.41 8.23311 21.7516 13.0489 20.015C12.7239 22.4017 12.5663 24.9145 12.5663 27.5049C12.5663 30.0953 12.7337 32.608 13.0489 34.9947ZM27.9197 49.499C24.7781 49.499 22.0797 46.8892 20.3169 42.145C22.7395 42.4652 25.2902 42.6204 27.9197 42.6204C30.5492 42.6204 33.0998 42.4555 35.5225 42.145C33.7597 46.8892 31.0613 49.499 27.9197 49.499ZM87.4324 29.2512C88.2499 30.299 88.6536 31.5893 88.6536 33.1222C88.6536 35.2955 87.7968 36.9545 86.0833 38.1284C84.3697 39.2927 81.8781 39.8748 78.5986 39.8748H65.6088V15.1252H77.8895C80.9523 15.1252 83.3061 15.7074 84.9409 16.8619C86.5757 18.0164 87.4029 19.5881 87.4029 21.5673C87.4029 22.7703 87.1075 23.8472 86.5264 24.7883C85.9355 25.7294 85.1181 26.4765 84.0644 27.0198C85.5022 27.466 86.6249 28.2131 87.4423 29.2609L87.4324 29.2512ZM71.3799 19.4426V25.2734H77.1608C78.5986 25.2734 79.6819 25.0212 80.4304 24.5264C81.169 24.0316 81.5432 23.3039 81.5432 22.3337C81.5432 21.3636 81.169 20.6456 80.4304 20.1605C79.6918 19.6754 78.5986 19.4329 77.1608 19.4329H71.3799V19.4426ZM81.6319 34.8201C82.4099 34.3253 82.7939 33.5588 82.7939 32.5207C82.7939 30.4736 81.2478 29.4452 78.1653 29.4452H71.3799V35.5671H78.1653C79.7016 35.5671 80.8538 35.3149 81.6319 34.8201ZM97.3201 38.662C95.2519 37.5657 93.627 36.0425 92.4353 34.1021C91.2536 32.1618 90.6627 29.9594 90.6627 27.5049C90.6627 25.0503 91.2536 22.8577 92.4353 20.9076C93.6171 18.9672 95.2519 17.444 97.3201 16.3477C99.3882 15.2514 101.712 14.6984 104.302 14.6984C106.479 14.6984 108.449 15.0767 110.211 15.8335C111.974 16.5902 113.451 17.6768 114.643 19.0836L110.911 22.4793C109.207 20.5486 107.109 19.5784 104.588 19.5784C103.032 19.5784 101.643 19.918 100.422 20.5874C99.2011 21.2568 98.2556 22.1979 97.5663 23.401C96.8867 24.604 96.5421 25.972 96.5421 27.5049C96.5421 29.0378 96.8867 30.4057 97.5663 31.6088C98.2458 32.8118 99.2011 33.7432 100.422 34.4223C101.643 35.0917 103.032 35.4313 104.588 35.4313C107.099 35.4313 109.207 34.4514 110.911 32.4916L114.643 35.8873C113.442 37.3232 111.964 38.4195 110.192 39.1762C108.419 39.933 106.449 40.3113 104.273 40.3113C101.712 40.3113 99.398 39.768 97.3299 38.6717L97.3201 38.662ZM122.266 38.662C120.197 37.5657 118.573 36.0425 117.381 34.1021C116.199 32.1618 115.608 29.9594 115.608 27.5049C115.608 25.0503 116.199 22.8577 117.381 20.9076C118.563 18.9672 120.197 17.444 122.266 16.3477C124.334 15.2514 126.658 14.6984 129.248 14.6984C131.424 14.6984 133.394 15.0767 135.157 15.8335C136.92 16.5902 138.397 17.6768 139.589 19.0836L135.856 22.4793C134.152 20.5486 132.055 19.5784 129.534 19.5784C127.978 19.5784 126.589 19.918 125.368 20.5874C124.147 21.2568 123.201 22.1979 122.512 23.401C121.832 24.604 121.488 25.972 121.488 27.5049C121.488 29.0378 121.832 30.4057 122.512 31.6088C123.191 32.8118 124.147 33.7432 125.368 34.4223C126.589 35.0917 127.978 35.4313 129.534 35.4313C132.045 35.4313 134.152 34.4514 135.856 32.4916L139.589 35.8873C138.387 37.3232 136.91 38.4195 135.137 39.1762C133.365 39.933 131.395 40.3113 129.218 40.3113C126.658 40.3113 124.344 39.768 122.275 38.6717L122.266 38.662Z" fill="#282828"/>
</svg>
