<svg width="98" height="33" viewBox="0 0 98 33" fill="none" xmlns="http://www.w3.org/2000/svg">
<path fill-rule="evenodd" clip-rule="evenodd" d="M72.9414 0.00830078H84.4664L98.0031 19.9492H87.8193L85.265 15.7199H71.5088L68.8295 19.9492H59.3804L72.9414 0.00830078ZM78.4982 4.42029L73.8681 11.921H82.9941L78.4951 4.42029H78.4982Z" fill="#282828"/>
<path d="M50.3092 0.00830078H40.7655V19.9492H50.3092V0.00830078Z" fill="#282828"/>
<path fill-rule="evenodd" clip-rule="evenodd" d="M0 0.00849902H14.6492C17.3956 -0.0533926 20.1724 0.223646 22.8212 0.810142C23.3638 0.901506 23.9064 1.05771 24.4185 1.27286C25.3146 1.58231 26.1102 2.10692 26.7503 2.72583C27.3904 3.40369 27.7104 4.26723 27.7104 5.16318C27.7104 6.05914 27.2959 7.01404 26.5308 7.63001C26.3693 7.75379 26.1772 7.88052 25.9882 8.03377C24.9671 8.64974 23.8485 9.11246 22.6688 9.36002C22.1232 9.48381 21.5807 9.57812 21.0076 9.66948C22.6688 9.79326 24.2965 10.1617 25.7962 10.8101C26.0827 10.9633 26.3997 11.1225 26.6588 11.2757C27.3629 11.6736 27.936 12.2601 28.317 12.9704C28.509 13.4036 28.6371 13.9253 28.6371 14.4204C28.6675 15.5934 28.0945 16.734 27.1039 17.4442C26.5003 17.9394 25.7962 18.3107 25.0311 18.5553C23.1809 19.2037 21.2637 19.6046 19.319 19.6959C17.5297 19.8816 15.7435 19.9464 13.9238 19.9464H0V0.00849902ZM9.35467 11.5498V16.2742H13.1221C14.3688 16.3037 15.6125 16.1504 16.8256 15.8734C17.0786 15.8115 17.3042 15.7496 17.5602 15.6553C17.9443 15.502 18.2948 15.2574 18.6148 14.9774C18.9044 14.668 19.0629 14.2701 19.0629 13.8663C19.0629 13.3417 18.8069 12.8466 18.3588 12.5401C18.1668 12.3868 17.9107 12.2601 17.6547 12.1392C16.9201 11.8622 16.091 11.6765 15.2954 11.6471C14.7194 11.5852 14.1128 11.5528 13.5397 11.5528H9.35772L9.35467 11.5498ZM9.35467 3.58642V8.03377H12.2595C13.5367 8.06325 14.8138 7.93946 16.091 7.66243C16.3135 7.63001 16.536 7.53864 16.7616 7.44728C17.1761 7.32349 17.5267 7.1054 17.8162 6.82836C18.1028 6.5189 18.2643 6.11808 18.2643 5.72021C18.2643 5.28697 18.0723 4.91856 17.7218 4.63858C17.4657 4.39101 17.1792 4.23776 16.8622 4.11397C16.0971 3.86936 15.2985 3.68073 14.4664 3.65126C13.8933 3.58937 13.2867 3.58937 12.7106 3.58937H9.36077L9.35467 3.58642Z" fill="#282828"/>
<path d="M0.301758 32.9053V27.9805H1.33202V29.9993H2.06967V27.9805H3.10603V32.9053H2.06967V30.7066H1.33202V32.9053H0.301758Z" fill="#282828"/>
<path d="M8.80298 31.2844V29.6281C8.80298 28.4639 9.29677 27.8833 10.2905 27.8833C11.2841 27.8833 11.784 28.4639 11.784 29.6281V31.2579C11.784 31.4553 11.7688 31.6351 11.7383 31.8031C11.7078 31.9681 11.656 32.1273 11.5829 32.2776C11.5097 32.4279 11.4183 32.5517 11.3055 32.6607C11.1927 32.7639 11.0525 32.8464 10.8787 32.9083C10.7081 32.9673 10.5099 32.9967 10.2905 32.9967C10.071 32.9967 9.87592 32.9673 9.70522 32.9083C9.53453 32.8523 9.39431 32.7698 9.28153 32.6696C9.16875 32.5694 9.07731 32.4426 9.0072 32.2982C8.93405 32.1509 8.88223 31.9947 8.85175 31.8296C8.82127 31.6646 8.80603 31.4819 8.80603 31.2844H8.80298ZM10.7538 31.5084V29.3805C10.7538 28.8971 10.5983 28.6555 10.2905 28.6555C10.199 28.6555 10.1198 28.679 10.0588 28.7233C9.99174 28.7675 9.94602 28.8264 9.91554 28.906C9.88506 28.9856 9.86372 29.0592 9.85153 29.1359C9.83934 29.2125 9.83324 29.295 9.83324 29.3834V31.5113C9.83324 31.9947 9.9887 32.2363 10.2905 32.2363C10.5922 32.2363 10.7538 31.9947 10.7538 31.5113V31.5084Z" fill="#282828"/>
<path d="M17.4779 32.9053V27.9805H18.7124L19.255 31.2637L19.8402 27.9805H21.032V32.9053H20.2761L20.2517 29.4423C20.1938 29.7989 20.0962 30.3736 19.953 31.1753C19.8128 31.9739 19.7152 32.5516 19.6573 32.9082H18.8892L18.2643 29.4217L18.2399 32.9082H17.4779V32.9053Z" fill="#282828"/>
<path d="M26.793 32.9053V27.9805H28.9206V28.6642H27.8232V30.0023H28.6005V30.7037H27.8232V32.2186H28.9206V32.9053H26.793Z" fill="#282828"/>
<path d="M43.652 32.1892V32.9702C43.5972 32.979 43.5393 32.9849 43.4814 32.9849C43.2619 32.9849 43.0028 32.8493 42.7071 32.5752C42.5852 32.7079 42.4389 32.8081 42.2743 32.8817C42.1097 32.9525 41.9329 32.9878 41.75 32.9878C41.4056 32.9878 41.1343 32.8788 40.9392 32.6637C40.7441 32.4485 40.6436 32.1744 40.6436 31.8414C40.6436 31.3639 40.8569 30.8894 41.2898 30.4267C40.988 29.7783 40.8386 29.2979 40.8386 28.9826C40.8386 28.6672 40.9301 28.4079 41.113 28.2016C41.2959 27.9923 41.5488 27.8892 41.8719 27.8892C42.195 27.8892 42.4755 27.9835 42.6797 28.175C42.887 28.3637 42.9906 28.6201 42.9906 28.9384C42.9906 29.236 42.9205 29.5101 42.7833 29.7577C42.6431 30.0082 42.4511 30.2617 42.1981 30.5092L42.7285 31.361C42.8047 31.1665 42.8443 30.8835 42.8443 30.5151H43.6277C43.6277 30.8482 43.5941 31.1193 43.5301 31.3286C43.4661 31.5378 43.3564 31.75 43.2009 31.9681C43.2558 32.03 43.3228 32.0772 43.4051 32.1155C43.4874 32.1538 43.5698 32.1803 43.652 32.1862V32.1892ZM42.1737 32.0477C41.939 31.6793 41.7683 31.3934 41.6586 31.1871C41.622 31.2225 41.5915 31.2961 41.5671 31.4111C41.5427 31.526 41.5275 31.6469 41.5275 31.7736C41.5275 31.9239 41.5458 32.0477 41.5854 32.1508C41.625 32.251 41.686 32.3011 41.7683 32.3011C41.9024 32.3011 42.0365 32.2186 42.1707 32.0506L42.1737 32.0477ZM41.8933 29.8815C41.9847 29.7547 42.0609 29.6074 42.1219 29.4423C42.1798 29.2802 42.2103 29.124 42.2103 28.9767C42.2103 28.8706 42.189 28.7763 42.1463 28.6967C42.1036 28.6171 42.0335 28.5759 41.936 28.5759C41.7714 28.5759 41.6921 28.7114 41.6921 28.9855C41.6921 29.2596 41.7592 29.5691 41.8933 29.8815Z" fill="#282828"/>
<path d="M55.6495 31.5879V29.5927C55.6495 28.6201 56.0762 28.1309 56.9297 28.1309C57.0668 28.1309 57.1888 28.1456 57.2985 28.1751C57.4082 28.2045 57.5027 28.2429 57.5789 28.293C57.6551 28.3431 57.7222 28.4079 57.7801 28.4875C57.838 28.5641 57.8837 28.6466 57.9173 28.7321C57.9508 28.8146 57.9782 28.9119 57.9996 29.0268C58.0179 29.1388 58.0331 29.2479 58.0422 29.351C58.0483 29.4542 58.0544 29.572 58.0544 29.7017V29.7341H57.6216V29.6634C57.6216 29.5308 57.6216 29.4276 57.6186 29.3599C57.6186 29.2921 57.6094 29.2007 57.5972 29.0887C57.585 28.9767 57.5637 28.8912 57.5363 28.8323C57.5058 28.7734 57.4631 28.7115 57.4174 28.6466C57.3686 28.5818 57.3016 28.5346 57.2193 28.5081C57.137 28.4786 57.0394 28.4639 56.9236 28.4639C56.7651 28.4639 56.631 28.4904 56.5182 28.5435C56.4054 28.5965 56.317 28.6673 56.253 28.7616C56.192 28.8559 56.1463 28.9561 56.1189 29.0622C56.0914 29.1683 56.0793 29.2862 56.0793 29.4188V31.7707C56.0793 31.8915 56.0914 32.0006 56.1128 32.0949C56.1341 32.1921 56.1737 32.2835 56.2317 32.369C56.2865 32.4574 56.3688 32.5222 56.4816 32.5723C56.5913 32.6195 56.7285 32.646 56.8931 32.646C57.0425 32.646 57.1674 32.6195 57.2741 32.5694C57.3808 32.5193 57.4601 32.4485 57.5119 32.3601C57.5667 32.2717 57.6033 32.1803 57.6247 32.0831C57.646 31.9888 57.6582 31.8827 57.6582 31.7677V30.972H57.0607V30.6566H58.088V32.9024H57.8959L57.7679 32.4426C57.7039 32.6047 57.5911 32.7344 57.4265 32.8317C57.2619 32.926 57.0821 32.9761 56.887 32.9761C56.7559 32.9761 56.6371 32.9643 56.5304 32.9437C56.4206 32.9201 56.3292 32.8906 56.2499 32.8553C56.1707 32.8199 56.1006 32.7727 56.0366 32.7167C55.9726 32.6578 55.9208 32.6018 55.8811 32.5458C55.8415 32.4868 55.8049 32.422 55.7744 32.3483C55.744 32.2746 55.7196 32.2069 55.7074 32.145C55.6921 32.086 55.68 32.0153 55.6708 31.9416C55.6647 31.865 55.6586 31.8031 55.6556 31.7559C55.6556 31.7088 55.6556 31.6528 55.6556 31.5909L55.6495 31.5879Z" fill="#282828"/>
<path d="M64.1263 32.9055H63.6934L64.6566 28.1958H65.2175L66.1776 32.9055H65.7418L65.4979 31.6794H64.3731L64.1263 32.9055ZM64.428 31.4024H65.4461L64.934 28.629L64.428 31.4024Z" fill="#282828"/>
<path d="M71.8807 32.9055V28.1958H73.1792C73.3438 28.1958 73.487 28.2194 73.612 28.2636C73.737 28.3048 73.8376 28.3638 73.9107 28.4375C73.9869 28.5112 74.0479 28.5996 74.0966 28.7057C74.1424 28.8118 74.1759 28.9208 74.1911 29.0387C74.2094 29.1536 74.2186 29.2774 74.2186 29.4159C74.2186 30.0142 73.993 30.3974 73.5419 30.5565L74.2917 32.9055H73.8345L73.1243 30.6066H72.3044V32.9055H71.8746H71.8807ZM72.3105 30.2736H73.1761C73.298 30.2736 73.4017 30.25 73.487 30.2029C73.5724 30.1557 73.6333 30.0879 73.6791 29.9995C73.7217 29.9111 73.7522 29.8197 73.7705 29.7284C73.7888 29.634 73.7949 29.525 73.7949 29.4042C73.7949 29.304 73.7888 29.2126 73.7796 29.133C73.7675 29.0534 73.7522 28.9739 73.7217 28.8972C73.6943 28.8206 73.6577 28.7558 73.615 28.7027C73.5693 28.6497 73.5114 28.6084 73.4352 28.5789C73.3621 28.5465 73.2767 28.5318 73.1792 28.5318H72.3135V30.2736H72.3105Z" fill="#282828"/>
<path d="M80.0557 32.9055V28.1958H81.153C81.339 28.1958 81.5005 28.2194 81.6438 28.2695C81.7871 28.3166 81.9059 28.3844 82.0004 28.4669C82.0919 28.5495 82.1711 28.6526 82.229 28.7735C82.2869 28.8913 82.3296 29.021 82.357 29.1566C82.3814 29.2892 82.3967 29.4395 82.3967 29.6016V31.5173C82.3967 32.4457 81.9821 32.9084 81.1561 32.9084H80.0588L80.0557 32.9055ZM80.4886 32.5724H81.153C81.6926 32.5724 81.9638 32.2512 81.9638 31.6087V29.5073C81.9638 28.856 81.6956 28.5318 81.153 28.5318H80.4886V32.5724Z" fill="#282828"/>
<path d="M88.2856 32.9055V28.1958H89.9834V28.5318H88.7154V30.3149H89.6207V30.6302H88.7154V32.5724H89.9834V32.9055H88.2856Z" fill="#282828"/>
<path d="M95.6926 32.9055V28.1958H96.0248L97.5641 31.924V28.1958H97.9299V32.9055H97.6068L96.0614 29.2568V32.9055H95.6926Z" fill="#282828"/>
<path d="M98 23.9985H0V24.2933H98V23.9985Z" fill="#282828"/>
</svg>
