<svg preserveAspectRatio="none" width="100%" height="100%" overflow="visible" style="display: block;" viewBox="0 0 143 30" fill="none" xmlns="http://www.w3.org/2000/svg">
<g id="Casappa">
<path id="Vector" d="M26.9075 0.29834H8.96706L8.80626 0.304687L8.64546 0.320555L8.48781 0.345944L8.33016 0.384027L8.17566 0.428457L8.02747 0.485582L7.87928 0.552228L7.7374 0.628394L7.60182 0.714081L7.47255 0.809289L7.34643 0.910844L7.22977 1.02192L0.718878 7.57857L0.608524 7.69916L0.507629 7.82293L0.41304 7.95305L0.327909 8.09269L0.252238 8.2355L0.186025 8.38149L0.129272 8.53382L0.0819773 8.68933L0.0472946 8.84483L0.0220708 9.00669L0.00630595 9.16537L0 9.32722V11.4821L8.22926 3.19583L8.34592 3.08476L8.47204 2.9832L8.60131 2.88799L8.74005 2.80231L8.87878 2.72614L9.02697 2.6595L9.17831 2.60237L9.32965 2.55477L9.4873 2.51668L9.64495 2.49129L9.80575 2.47543L9.96655 2.46908H24.7824L24.8612 2.47543L24.9369 2.49129L25.0094 2.51986L25.0788 2.55477L25.1418 2.5992L25.1954 2.65315L25.2459 2.71662L25.2837 2.78327L25.3121 2.85626L25.331 2.93242L25.3405 3.00859L25.3373 3.08793L25.3247 3.1641L25.3026 3.23709L25.2711 3.30691L25.227 3.37355L25.1765 3.43068L17.9688 10.6062L17.8742 10.695L17.7702 10.7744L17.663 10.8474L17.5463 10.9108L17.4296 10.968L17.3067 11.0124L17.1806 11.0473L17.0513 11.0727L16.922 11.0886L16.7927 11.0949H9.95079L9.83413 11.0981L9.71747 11.114L9.60396 11.1393L9.49045 11.1743L9.38325 11.2187L9.2792 11.2726L9.18146 11.3361L9.09003 11.4091L9.00174 11.4884L8.92292 11.5741L8.85355 11.6693L8.79049 11.7677L8.73689 11.8724L8.6896 11.9803L8.65492 12.0914L8.62969 12.2088L8.61393 12.3231L8.61077 12.4405V18.975L8.60447 19.1082L8.5887 19.2384L8.56348 19.3685L8.5288 19.4954L8.4815 19.6192L8.4279 19.7398L8.36484 19.854L8.28917 19.9651L8.21035 20.0698L8.11891 20.165L0.14819 28.1879L0.20179 28.3307L0.26485 28.4703L0.337368 28.6036L0.416193 28.7338L0.507629 28.8575L0.605371 28.975L0.709419 29.0829L0.822926 29.1876L0.939586 29.2796L1.06571 29.3685L1.19498 29.4446L1.33056 29.5145L1.47244 29.5716L1.61432 29.6224L1.76251 29.6604L1.9107 29.689L9.88142 21.6662L9.97916 21.5741L10.0832 21.4948L10.1904 21.4186L10.3071 21.3551L10.4269 21.3012L10.5499 21.2536L10.676 21.2187L10.8052 21.1933L10.9345 21.1774L11.0669 21.1711H25.5706L25.6494 21.1774L25.7251 21.1933L25.7976 21.2187L25.867 21.2568L25.9269 21.3012L25.9837 21.3551L26.031 21.4154L26.0719 21.4821L26.1003 21.5551L26.1192 21.6313L26.1287 21.7074V21.7868L26.1161 21.8629L26.0909 21.9359L26.0593 22.0057L26.0183 22.0724L25.9679 22.1295L18.2337 29.9143H20.3745L20.5353 29.908L20.6961 29.8921L20.8538 29.8667L21.0083 29.8286L21.1628 29.7842L21.3141 29.7271L21.4591 29.6604L21.601 29.5843L21.7398 29.4986L21.869 29.4034L21.992 29.3018L22.1118 29.1908L27.866 23.3958L27.9763 23.2783L28.0772 23.1514L28.1718 23.0213L28.257 22.8816L28.3326 22.7388L28.3988 22.5928L28.4524 22.4405L28.4997 22.285L28.5376 22.1263L28.5628 21.9677L28.5754 21.8058L28.5817 21.6439V1.98987L28.5754 1.85975L28.5628 1.72646L28.5376 1.59634L28.4997 1.4694L28.4556 1.34245L28.402 1.22186L28.3389 1.10761L28.2633 0.996531L28.1813 0.891802L28.093 0.793421L27.9984 0.70456L27.8944 0.622047L27.784 0.549054L27.6705 0.482408L27.5507 0.428457L27.4246 0.380853L27.2985 0.345944L27.1692 0.320555L27.0399 0.304687L26.9075 0.29834Z" fill="var(--fill-0, #282828)"/>
<path id="Vector_2" d="M57.5954 7.15013L58.9764 14.0178H56.2175L57.5985 7.15013H57.5954ZM55.0604 0.29834L49.7603 20.2507H54.7483L55.341 17.7404H59.8529L60.4457 20.2507H65.4337L60.1304 0.29834H55.0604Z" fill="var(--fill-0, #282828)"/>
<path id="Vector_3" d="M88.1193 7.15013L89.5003 14.0178H86.7415L88.1193 7.15013ZM85.5843 0.29834L80.2842 20.2507H85.2722L85.8649 17.7404H90.3769L90.9696 20.2507H95.9576L90.6543 0.29834H85.5843Z" fill="var(--fill-0, #282828)"/>
<path id="Vector_4" d="M133.727 7.15013L135.108 14.0178H132.349L133.73 7.15013H133.727ZM131.192 0.29834L125.892 20.2507H130.88L131.473 17.7404H135.985L136.577 20.2507H141.565L136.262 0.29834H131.192Z" fill="var(--fill-0, #282828)"/>
<path id="Vector_5" d="M35.02 26.1758H37.5802V26.8645H35.8745V27.7784H37.0884V28.4322H35.8745V29.9301H35.02V26.1758Z" fill="var(--fill-0, #282828)"/>
<path id="Vector_6" d="M40.954 26.1758H41.8084V29.2605H43.5142V29.9301H40.954V26.1758Z" fill="var(--fill-0, #282828)"/>
<path id="Vector_7" d="M54.4392 26.1758H53.5911V29.9301H54.4392V26.1758Z" fill="var(--fill-0, #282828)"/>
<path id="Vector_8" d="M90.38 26.1758H93.0222V26.8645H91.2345V27.6737H92.5303V28.3275H91.2345V29.2605H93.1168V29.9301H90.38V26.1758Z" fill="var(--fill-0, #282828)"/>
<path id="Vector_9" d="M114.131 26.1758H116.774V26.8645H114.986V27.6737H116.279V28.3275H114.986V29.2605H116.868V29.9301H114.131V26.1758Z" fill="var(--fill-0, #282828)"/>
<path id="Vector_10" d="M127.689 26.1758H126.841V29.9301H127.689V26.1758Z" fill="var(--fill-0, #282828)"/>
<path id="Vector_11" d="M106.766 7.43893C106.766 8.45131 105.968 9.27327 104.985 9.27327H102.979V4.77628H104.985C105.968 4.77628 106.766 5.59824 106.766 6.61062V7.43893ZM106.555 0.304687C103.976 0.304687 97.9377 0.29834 97.9377 0.29834V20.2507H102.96V14.4684C102.96 14.4684 103.723 14.478 106.309 14.478C108.579 14.478 111.432 12.377 111.432 8.21329V6.52493C111.432 2.96099 109.159 0.301513 106.555 0.301513" fill="var(--fill-0, #282828)"/>
<path id="Vector_12" d="M122.197 7.43893C122.197 8.45131 121.399 9.27327 120.415 9.27327H118.41V4.77628H120.415C121.399 4.77628 122.197 5.59824 122.197 6.61062V7.43893ZM121.982 0.304687C119.403 0.304687 113.365 0.29834 113.365 0.29834V20.2507H118.388V14.4684C118.388 14.4684 119.151 14.478 121.736 14.478C124.007 14.478 126.86 12.377 126.86 8.21329V6.52493C126.86 2.96099 124.587 0.301513 121.982 0.301513" fill="var(--fill-0, #282828)"/>
<path id="Vector_13" d="M66.0107 14.0273H70.8915C70.8915 14.8112 71.4181 16.1885 72.8149 16.1885C73.5148 16.1885 74.5427 15.8204 74.6499 14.881C75.0093 11.7106 66.5688 11.6534 66.3796 6.30911C66.2188 1.76452 68.8074 0 72.8149 0C76.8223 0 79.0956 2.71025 79.0956 6.19803H74.3346C74.3346 4.95398 74.0571 4.27166 72.7833 4.27166C72.2505 4.27166 71.2132 4.49064 71.2983 5.35068C71.5284 7.70549 79.5874 8.57188 79.5874 14.3351C79.5874 18.1022 77.0714 20.4824 72.7518 20.4824C68.4322 20.4824 66.0107 17.569 66.0107 14.0241" fill="var(--fill-0, #282828)"/>
<path id="Vector_14" d="M35.285 5.41709C35.285 5.41709 33.3049 10.3266 35.2819 15.3536C35.2819 15.3536 36.8016 21.5231 44.1323 20.2981C49.3063 18.9937 49.2275 14.0556 49.2275 14.0556H44.4665C44.4665 14.0556 44.3782 16.074 42.4486 16.074C40.519 16.074 39.4532 14.2206 39.4532 10.1807C39.4532 6.14067 40.787 4.51579 42.5306 4.51579C44.2741 4.51579 44.4696 6.1851 44.4696 6.1851H49.2306C49.2306 6.1851 49.3788 1.12322 44.1417 0.183833C38.9046 -0.755551 36.3539 2.399 35.2913 5.41709" fill="var(--fill-0, #282828)"/>
<path id="Vector_15" d="M46.8217 28.4957V26.1758H47.6761V28.4735C47.6761 29.0161 47.8905 29.3208 48.3981 29.3208C48.9058 29.3208 49.1107 29.0225 49.1107 28.4735V26.1758H49.9494V28.4893C49.9494 29.4128 49.467 29.9904 48.3887 29.9904C47.3104 29.9904 46.8217 29.4128 46.8217 28.4957Z" fill="var(--fill-0, #282828)"/>
<path id="Vector_16" d="M140.333 2.82462H140.679C140.998 2.82462 141.165 2.65959 141.165 2.35493C141.165 2.05026 140.998 1.90428 140.683 1.90428H140.333V2.82145V2.82462ZM140.613 3.07534H140.333V3.93538H140.008V1.65674H140.683C141.203 1.65674 141.493 1.91063 141.493 2.34858C141.493 2.72307 141.291 2.97061 140.944 3.05312L141.584 3.93855H141.219L140.616 3.07851L140.613 3.07534Z" fill="var(--fill-0, #282828)"/>
<path id="Vector_17" d="M140.695 0.805886C139.589 0.805886 138.693 1.71036 138.693 2.82429C138.693 3.93822 139.592 4.83953 140.695 4.83953C141.799 4.83953 142.697 3.93505 142.697 2.82429C142.697 1.71353 141.799 0.805886 140.695 0.805886ZM140.695 5.14102C139.425 5.14102 138.394 4.10008 138.394 2.82429C138.394 1.54851 139.428 0.504395 140.695 0.504395C141.963 0.504395 142.997 1.54533 142.997 2.82429C142.997 4.10325 141.963 5.14102 140.695 5.14102Z" fill="var(--fill-0, #282828)"/>
<path id="Vector_18" d="M59.3863 29.2605C60.2313 29.2605 60.5497 28.8956 60.5497 28.0419C60.5497 27.2389 60.225 26.8645 59.3768 26.8645H58.989V29.2573H59.3863V29.2605ZM58.1409 26.1758H59.3295C60.5151 26.1758 61.4042 26.6645 61.4042 28.0323C61.4042 29.4002 60.4961 29.9301 59.3295 29.9301H58.1409V26.1758Z" fill="var(--fill-0, #282828)"/>
<path id="Vector_19" d="M70.5825 27.9562C71.1122 27.9562 71.3108 27.7594 71.3108 27.3976C71.3108 27.0358 71.1185 26.8486 70.5825 26.8486H69.9992V27.953H70.5825V27.9562ZM69.1542 26.1758H70.5636C71.3928 26.1758 72.1463 26.3884 72.1463 27.3786C72.1463 28.3687 71.3297 28.5972 70.5541 28.5972H70.0023V29.9301H69.1542V26.1758Z" fill="var(--fill-0, #282828)"/>
<path id="Vector_20" d="M78.178 28.0516C78.178 27.2646 77.7996 26.7885 77.2037 26.7885C76.6078 26.7885 76.2295 27.2646 76.2295 28.0516C76.2295 28.8387 76.6015 29.3337 77.2037 29.3337C77.8059 29.3337 78.178 28.8355 78.178 28.0516ZM75.375 28.0516C75.375 26.7314 76.2673 26.103 77.2037 26.103C78.1402 26.103 79.0261 26.7314 79.0261 28.0516C79.0261 29.3718 78.1339 30.0002 77.2037 30.0002C76.2736 30.0002 75.375 29.3718 75.375 28.0516Z" fill="var(--fill-0, #282828)"/>
<path id="Vector_21" d="M82.2201 26.1758H83.0809L83.4907 27.8863C83.5633 28.1593 83.6263 28.3878 83.6799 28.7083H83.6894C83.7367 28.4005 83.7997 28.1593 83.8691 27.8927L84.2632 26.179H85.0483L85.4677 27.9022C85.5402 28.2005 85.6001 28.3751 85.6505 28.7083H85.66C85.7136 28.3687 85.7609 28.2164 85.8334 27.9117L86.2275 26.1758H87.0126L86.0005 29.9301H85.2722L84.6573 27.3183H84.6479L83.9921 29.9301H83.2543L82.2201 26.1758Z" fill="var(--fill-0, #282828)"/>
<path id="Vector_22" d="M97.9818 27.8739C98.4737 27.8739 98.7101 27.7374 98.7101 27.3566C98.7101 26.9758 98.4737 26.8488 97.9818 26.8488H97.3985V27.8739H97.9818ZM96.5598 26.176H98.0165C98.9687 26.176 99.5425 26.5061 99.5425 27.3376C99.5425 27.931 99.2556 28.2547 98.7354 28.4071L99.5993 29.9272H98.6975L97.8904 28.5118H97.3985V29.9272H96.5598V26.1729V26.176Z" fill="var(--fill-0, #282828)"/>
<path id="Vector_23" d="M108.639 29.2605C109.484 29.2605 109.802 28.8956 109.802 28.0419C109.802 27.2389 109.478 26.8645 108.629 26.8645H108.242V29.2573H108.639V29.2605ZM107.39 26.1758H108.579C109.765 26.1758 110.654 26.6645 110.654 28.0323C110.654 29.4002 109.746 29.9301 108.579 29.9301H107.39V26.1758Z" fill="var(--fill-0, #282828)"/>
<path id="Vector_24" d="M120.1 29.0767L120.743 28.7054C120.958 29.1179 121.345 29.3433 121.79 29.3433C122.184 29.3433 122.465 29.2005 122.465 28.9117C122.465 28.6229 122.187 28.5054 121.68 28.369C120.986 28.1817 120.264 28.0072 120.264 27.2233C120.264 26.5251 120.828 26.103 121.664 26.103C122.499 26.103 122.931 26.4743 123.206 26.8742L122.613 27.3122C122.408 26.9916 122.036 26.779 121.658 26.779C121.279 26.779 121.096 26.9313 121.096 27.1535C121.096 27.4518 121.383 27.5597 121.894 27.6962C122.575 27.8739 123.297 28.0802 123.297 28.8577C123.297 29.4607 122.824 30.0002 121.746 30.0002C120.907 30.0002 120.384 29.6162 120.094 29.0767" fill="var(--fill-0, #282828)"/>
<path id="Vector_25" d="M131.208 28.0387C131.208 26.8613 131.886 26.106 132.974 26.106C133.708 26.106 134.295 26.3884 134.541 27.3088L133.759 27.515C133.595 26.9914 133.349 26.7883 132.967 26.7883C132.652 26.7883 132.065 26.966 132.065 28.0228C132.065 29.0796 132.589 29.3367 133.005 29.3367C133.421 29.3367 133.724 29.0796 133.803 28.6639H133.128V28.0514H134.616V29.9333H133.929V29.416H133.919C133.834 29.6382 133.494 30.0031 132.907 30.0031C131.734 30.0031 131.208 29.1716 131.208 28.0387Z" fill="var(--fill-0, #282828)"/>
<path id="Vector_26" d="M138.242 26.1758H139.097L140.72 28.5718H140.733V26.1758H141.518V29.9301H140.733L139.04 27.515H139.027V29.9301H138.242V26.1758Z" fill="var(--fill-0, #282828)"/>
</g>
</svg>
