<svg preserveAspectRatio="none" width="100%" height="100%" overflow="visible" style="display: block;" viewBox="0 0 187 44" fill="none" xmlns="http://www.w3.org/2000/svg">
<g id="Chiesi_Colour" clip-path="url(#clip0_4005_1842)">
<g id="Group">
<path id="Vector" d="M49.8648 21.8451L39.7284 4.21858L35.3365 11.8645L38.8678 18.0027H29.5342C30.7431 19.0468 31.4903 20.4734 31.4903 22.0474C31.4903 23.6215 30.7715 24.9943 29.6024 26.0332H38.8468L35.3428 32.1471L39.7252 39.7762L49.8669 22.1401C49.9194 22.0485 49.9194 21.9368 49.8669 21.8451H49.8648Z" fill="var(--fill-0, #282828)"/>
<path id="Vector_2" d="M32.9052 36.3826L32.8999 36.3921H16.3588L8.0882 22.0106L16.3588 7.62905H32.8999V7.63116L37.2834 0H14.3942C12.9177 0 11.5534 0.791246 10.8157 2.07452L0.554325 19.9181C-0.183426 21.2014 -0.183426 22.7828 0.554325 24.0661L10.843 41.9571C11.5639 43.2109 12.8967 43.9842 14.3397 43.9842H37.2729L32.9052 36.3815V36.3826Z" fill="var(--fill-0, #282828)"/>
</g>
<path id="Vector_3" d="M24.6606 25.7392C26.7013 25.7392 28.3557 24.0783 28.3557 22.0295C28.3557 19.9807 26.7013 18.3198 24.6606 18.3198C22.6199 18.3198 20.9656 19.9807 20.9656 22.0295C20.9656 24.0783 22.6199 25.7392 24.6606 25.7392Z" fill="var(--fill-0, #282828)"/>
<path id="Vector_4" d="M66.6442 39.8447C61.0035 39.7973 58.3243 39.143 56.7344 37.9682C55.1445 36.7945 54.327 34.8644 54.2798 32.1767C54.2525 30.6321 54.4781 28.5628 54.9567 25.9678L56.4794 17.9985C57.0146 15.2181 57.7366 12.9486 58.6454 11.1881C59.5532 9.42753 60.675 8.05365 62.012 7.06432C63.3479 6.07606 64.9515 5.38069 66.8216 4.97927C68.6906 4.57785 70.9647 4.37661 73.6408 4.37661C75.9789 4.37661 77.8186 4.42297 79.1576 4.51569C80.4978 4.6084 81.6784 4.856 82.7005 5.25742C83.7227 5.65883 84.5192 6.31627 85.088 7.22658C85.6578 8.13793 85.9569 9.39697 85.9842 11.0026C86.001 11.992 85.9128 13.1183 85.7197 14.3847L85.3377 16.2843H78.6927L79.0747 14.3847C79.2164 13.6746 79.2825 13.0877 79.2752 12.6241C79.2563 11.5126 78.7819 10.8098 77.8542 10.5159C76.9265 10.223 75.154 10.0755 72.5399 10.0755C70.7244 10.0755 69.3108 10.1756 68.2992 10.3768C67.2875 10.578 66.4627 10.9489 65.8267 11.4884C65.1897 12.0288 64.6723 12.8011 64.2746 13.8052C63.8768 14.8093 63.4928 16.2074 63.1244 17.9985L61.6426 25.6897C61.247 27.76 61.0591 29.273 61.0759 30.2307C61.1021 31.7131 61.5954 32.7098 62.5588 33.2187C63.5211 33.7286 65.2946 33.9836 67.8794 33.9836C69.4787 33.9836 70.3046 33.9372 71.1956 33.8445C72.0855 33.7518 72.8673 33.6569 73.539 33.3472C74.2096 33.0385 74.7626 32.6423 75.1971 31.947C75.6305 31.2516 75.9758 30.2865 76.2308 29.0507L76.5666 27.151H83.2116L82.7897 29.4215C82.3395 31.8311 81.6878 33.7307 80.8357 35.1204C79.9835 36.5101 78.9394 37.6279 77.7042 38.2601C76.469 38.8933 75.1299 39.3105 73.688 39.5107C72.245 39.7119 70.249 39.8752 67.5131 39.8436H66.6431L66.6442 39.8447Z" fill="var(--fill-0, #282828)"/>
<path id="Vector_5" d="M117.832 39.7024H111.958L116.392 16.9776C116.601 15.9029 117.54 15.1275 118.631 15.1275H122.628L117.833 39.7024H117.832Z" fill="var(--fill-0, #282828)"/>
<path id="Vector_6" d="M146.216 31.6846C145.812 33.5569 145.237 35.0477 144.491 36.155C143.745 37.2634 142.828 38.0747 141.741 38.5888C140.652 39.104 139.456 39.4317 138.15 39.5718C136.845 39.7119 135.15 39.7825 133.068 39.7825C129.586 39.7825 127.139 39.3074 125.724 38.3549C124.309 37.4035 123.602 35.742 123.602 33.3693C123.602 31.9027 123.882 29.8746 124.442 27.2838C124.938 24.8805 125.483 22.9145 126.074 21.3858C126.663 19.857 127.457 18.5938 128.452 17.5939C129.446 16.5951 130.736 15.8544 132.322 15.3708C133.908 14.8872 135.928 14.6449 138.383 14.6449C141.989 14.6449 144.491 15.0895 145.89 15.9788C147.289 16.868 147.988 18.4831 147.988 20.8232C147.988 22.4773 147.63 24.9743 146.915 28.3131H130.083C129.648 30.3729 129.431 31.7615 129.431 32.479C129.431 33.5084 129.757 34.2343 130.41 34.6557C131.063 35.0772 132.259 35.2879 134 35.2879C136.02 35.2879 137.489 35.093 138.405 34.7032C139.322 34.3133 139.967 33.3072 140.341 31.6836H146.215L146.216 31.6846ZM141.834 24.2526C142.114 22.8482 142.254 22.1349 142.254 21.4795C142.254 20.4807 141.927 19.8412 141.275 19.5599C140.622 19.2786 139.347 19.1385 137.452 19.1385C136.146 19.1385 135.121 19.2164 134.375 19.3724C133.628 19.5294 133.046 19.8022 132.626 20.1921C132.206 20.5829 131.873 21.1045 131.624 21.7598C131.375 22.4151 131.127 23.0357 130.878 24.2526H141.835H141.834Z" fill="var(--fill-0, #282828)"/>
<path id="Vector_7" d="M167.888 22.0632C167.998 21.6239 168.291 20.82 168.279 20.505C168.257 19.9539 168.028 19.6611 167.437 19.4609C166.846 19.2617 165.749 19.1469 164.147 19.1195C162.198 19.0858 160.777 19.2343 159.886 19.5652C158.994 19.8971 158.365 20.2679 157.999 21.744C157.889 22.1844 157.83 22.5458 157.82 22.8292C157.797 23.4909 158.112 23.9228 158.765 24.1241C159.419 24.3253 160.875 24.4928 163.134 24.6266L164.405 24.6962C165.911 24.7857 167.095 24.8858 167.956 24.9954C168.817 25.105 169.619 25.3325 170.362 25.676C171.105 26.0205 171.683 26.5357 172.101 27.2206C172.517 27.9064 172.705 28.8168 172.666 29.9515C172.638 30.7722 172.495 31.6836 172.24 32.6887C171.838 34.2912 171.22 35.5819 170.384 36.5606C169.547 37.5394 168.556 38.2727 167.407 38.7563C166.257 39.241 165.004 39.5507 163.647 39.6845C162.291 39.8183 160.701 39.87 158.878 39.8373C157.023 39.8046 155.563 39.7478 154.497 39.6656C153.431 39.5834 152.479 39.3779 151.642 39.0471C150.804 38.7173 150.162 38.1927 149.715 37.4752C149.268 36.7577 149.066 35.8 149.108 34.601C149.137 33.7497 149.402 32.8446 149.695 31.6815L155.635 31.6846C155.483 32.439 155.287 33.0374 155.279 33.4789C155.267 34.1363 155.538 34.5051 156.159 34.7843C156.778 35.0635 158.014 35.2194 159.868 35.2521C162.037 35.29 163.559 35.1351 164.437 34.7874C165.313 34.4408 165.934 34.0615 166.3 32.5844C166.446 31.9881 166.525 31.5466 166.535 31.2632C166.56 30.5699 166.192 30.0589 165.434 29.7292C164.674 29.4004 163.195 29.2013 160.997 29.1307C157.321 29.0032 154.819 28.6366 153.488 28.0287C152.156 27.4218 151.521 26.2671 151.58 24.5645C151.608 23.7448 151.804 22.6438 152.167 21.2615C152.57 19.6284 153.165 18.3377 153.953 17.3885C154.741 16.4402 155.684 15.7628 156.783 15.3561C157.882 14.9494 159.054 14.7018 160.3 14.6133C161.544 14.5248 163.157 14.4974 165.138 14.5322C166.583 14.5575 167.792 14.6186 168.763 14.7144C169.734 14.8103 170.663 15.0242 171.548 15.355C172.432 15.6859 173.129 16.2032 173.64 16.9059C174.15 17.6097 174.385 18.5442 174.344 19.7106C174.322 20.3417 174.01 21.3426 173.828 22.0653L167.888 22.0622V22.0632Z" fill="var(--fill-0, #282828)"/>
<path id="Vector_8" d="M180.162 39.7024H174.288L178.706 17.0587C178.925 15.9366 179.904 15.1275 181.043 15.1275H184.957L180.162 39.7024Z" fill="var(--fill-0, #282828)"/>
<path id="Vector_9" d="M105.193 22.1728C105.303 21.4174 104.988 19.5283 102.827 19.4345C101.819 19.3903 95.4795 18.4926 94.5791 21.8915L91.1054 39.7119H85.2307L91.6921 6.57019C91.9492 5.2532 93.0983 4.30392 94.4342 4.30392H98.0086L95.6694 16.3001C98.1975 14.765 100.879 14.9515 102.921 14.9515C105.407 14.9515 107.834 15.4467 108.937 16.2727C110.039 17.0998 110.96 18.1923 110.991 20.0024C111.008 20.9696 110.886 22.3877 110.629 23.729L107.574 39.7119H101.793L105.194 22.1728H105.193Z" fill="var(--fill-0, #282828)"/>
<path id="Vector_10" d="M124.521 7.47206C124.567 9.19468 123.144 10.7371 121.342 10.9173C119.54 11.0975 118.043 9.84686 117.998 8.12424C117.953 6.40162 119.376 4.85916 121.178 4.679C122.98 4.49883 124.476 5.74944 124.521 7.47206Z" fill="var(--fill-0, #282828)"/>
<path id="Vector_11" d="M186.936 7.42465C186.982 9.14727 185.559 10.6897 183.757 10.8699C181.955 11.0501 180.458 9.79945 180.413 8.07683C180.368 6.3542 181.791 4.81175 183.593 4.63158C185.395 4.45142 186.891 5.70203 186.936 7.42465Z" fill="var(--fill-0, #282828)"/>
</g>
<defs>
<clipPath id="clip0_4005_1842">
<rect width="186.938" height="43.9853" fill="white"/>
</clipPath>
</defs>
</svg>
