<svg width="187" height="44" viewBox="0 0 187 44" fill="none" xmlns="http://www.w3.org/2000/svg">
<g clip-path="url(#clip0_1_555)">
<path d="M49.8648 21.8453L39.7284 4.21875L35.3365 11.8647L38.8678 18.0029H29.5342C30.7431 19.047 31.4903 20.4735 31.4903 22.0476C31.4903 23.6217 30.7715 24.9945 29.6024 26.0333H38.8468L35.3428 32.1473L39.7252 39.7764L49.8669 22.1403C49.9194 22.0487 49.9194 21.937 49.8669 21.8453H49.8648Z" fill="#282828"/>
<path d="M32.9051 36.3826L32.8999 36.3921H16.3587L8.08817 22.0106L16.3587 7.62905H32.8999V7.63116L37.2834 0H14.3942C12.9177 0 11.5534 0.791246 10.8156 2.07452L0.55429 19.9181C-0.183461 21.2014 -0.183461 22.7828 0.55429 24.0661L10.8429 41.9571C11.5639 43.2109 12.8967 43.9842 14.3396 43.9842H37.2729L32.9051 36.3815V36.3826Z" fill="#282828"/>
<path d="M24.6606 25.7392C26.7013 25.7392 28.3557 24.0783 28.3557 22.0295C28.3557 19.9807 26.7013 18.3198 24.6606 18.3198C22.6199 18.3198 20.9656 19.9807 20.9656 22.0295C20.9656 24.0783 22.6199 25.7392 24.6606 25.7392Z" fill="#282828"/>
<path d="M66.6442 39.8445C61.0035 39.7971 58.3243 39.1428 56.7344 37.9681C55.1445 36.7944 54.327 34.8642 54.2798 32.1765C54.2525 30.6319 54.4781 28.5627 54.9567 25.9677L56.4794 17.9983C57.0146 15.2179 57.7366 12.9485 58.6454 11.1879C59.5532 9.42738 60.675 8.0535 62.012 7.06417C63.3479 6.07591 64.9515 5.38054 66.8216 4.97912C68.6906 4.5777 70.9647 4.37646 73.6408 4.37646C75.9789 4.37646 77.8186 4.42282 79.1576 4.51554C80.4978 4.60825 81.6784 4.85585 82.7005 5.25727C83.7227 5.65868 84.5192 6.31612 85.088 7.22643C85.6578 8.13778 85.9569 9.39682 85.9842 11.0025C86.001 11.9918 85.9128 13.1181 85.7197 14.3845L85.3377 16.2841H78.6927L79.0747 14.3845C79.2164 13.6744 79.2825 13.0876 79.2752 12.624C79.2563 11.5124 78.7819 10.8097 77.8542 10.5157C76.9265 10.2228 75.1541 10.0753 72.5399 10.0753C70.7244 10.0753 69.3108 10.1754 68.2992 10.3767C67.2875 10.5779 66.4627 10.9488 65.8267 11.4882C65.1897 12.0287 64.6723 12.801 64.2746 13.805C63.8769 14.8091 63.4928 16.2072 63.1244 17.9983L61.6426 25.6895C61.247 27.7599 61.0591 29.2728 61.0759 30.2305C61.1022 31.7129 61.5954 32.7096 62.5588 33.2185C63.5211 33.7284 65.2946 33.9834 67.8794 33.9834C69.4787 33.9834 70.3046 33.9371 71.1956 33.8443C72.0855 33.7516 72.8673 33.6568 73.539 33.347C74.2096 33.0383 74.7626 32.6422 75.1971 31.9468C75.6305 31.2515 75.9758 30.2864 76.2308 29.0505L76.5666 27.1509H83.2116L82.7897 29.4214C82.3395 31.8309 81.6878 33.7306 80.8357 35.1202C79.9835 36.5099 78.9394 37.6278 77.7042 38.2599C76.469 38.8931 75.1299 39.3104 73.688 39.5105C72.245 39.7118 70.249 39.8751 67.5131 39.8435H66.6432L66.6442 39.8445Z" fill="#282828"/>
<path d="M117.832 39.7024H111.958L116.391 16.9775C116.601 15.9029 117.54 15.1274 118.631 15.1274H122.628L117.833 39.7024H117.832Z" fill="#282828"/>
<path d="M146.216 31.6847C145.812 33.557 145.237 35.0478 144.491 36.1551C143.745 37.2635 142.828 38.0748 141.741 38.5889C140.652 39.1041 139.456 39.4318 138.15 39.5719C136.845 39.712 135.15 39.7826 133.068 39.7826C129.586 39.7826 127.139 39.3075 125.724 38.355C124.309 37.4036 123.602 35.7421 123.602 33.3694C123.602 31.9028 123.882 29.8747 124.442 27.2839C124.938 24.8807 125.483 22.9147 126.074 21.3859C126.663 19.8571 127.457 18.5939 128.452 17.594C129.446 16.5952 130.736 15.8545 132.322 15.3709C133.908 14.8873 135.928 14.645 138.383 14.645C141.989 14.645 144.491 15.0896 145.89 15.9789C147.289 16.8681 147.988 18.4832 147.988 20.8233C147.988 22.4774 147.63 24.9744 146.915 28.3132H130.083C129.648 30.373 129.431 31.7617 129.431 32.4791C129.431 33.5085 129.757 34.2344 130.41 34.6559C131.063 35.0773 132.259 35.288 134 35.288C136.02 35.288 137.489 35.0931 138.405 34.7033C139.322 34.3134 139.967 33.3073 140.341 31.6837H146.215L146.216 31.6847ZM141.834 24.2527C142.114 22.8483 142.254 22.135 142.254 21.4797C142.254 20.4809 141.927 19.8413 141.275 19.56C140.622 19.2787 139.347 19.1386 137.452 19.1386C136.146 19.1386 135.121 19.2165 134.375 19.3725C133.628 19.5295 133.046 19.8023 132.626 20.1922C132.206 20.5831 131.873 21.1046 131.624 21.7599C131.375 22.4152 131.127 23.0358 130.878 24.2527H141.835H141.834Z" fill="#282828"/>
<path d="M167.888 22.0633C167.998 21.6239 168.291 20.82 168.279 20.505C168.257 19.954 168.028 19.6611 167.437 19.4609C166.846 19.2618 165.749 19.1469 164.147 19.1195C162.198 19.0858 160.777 19.2344 159.886 19.5652C158.994 19.8971 158.365 20.2679 157.999 21.744C157.889 22.1844 157.83 22.5458 157.82 22.8292C157.797 23.4909 158.112 23.9228 158.766 24.1241C159.419 24.3253 160.875 24.4928 163.134 24.6266L164.405 24.6962C165.911 24.7857 167.095 24.8858 167.956 24.9954C168.817 25.105 169.619 25.3325 170.362 25.676C171.105 26.0205 171.683 26.5357 172.101 27.2206C172.517 27.9065 172.705 28.8168 172.666 29.9515C172.638 30.7722 172.495 31.6836 172.24 32.6887C171.838 34.2912 171.22 35.5819 170.384 36.5607C169.547 37.5394 168.556 38.2727 167.407 38.7563C166.257 39.241 165.004 39.5507 163.647 39.6846C162.291 39.8184 160.701 39.87 158.878 39.8373C157.023 39.8047 155.563 39.7478 154.497 39.6656C153.431 39.5834 152.479 39.378 151.642 39.0471C150.805 38.7174 150.162 38.1927 149.715 37.4752C149.268 36.7577 149.066 35.8 149.108 34.601C149.137 33.7497 149.402 32.8446 149.695 31.6815L155.635 31.6846C155.483 32.439 155.287 33.0375 155.279 33.4789C155.267 34.1363 155.539 34.5051 156.159 34.7843C156.778 35.0635 158.014 35.2194 159.868 35.2521C162.037 35.29 163.559 35.1351 164.437 34.7875C165.313 34.4408 165.934 34.0615 166.3 32.5844C166.446 31.9881 166.525 31.5466 166.536 31.2632C166.56 30.5699 166.192 30.059 165.434 29.7292C164.674 29.4005 163.195 29.2013 160.997 29.1307C157.321 29.0033 154.819 28.6366 153.488 28.0287C152.156 27.4218 151.521 26.2671 151.58 24.5645C151.608 23.7448 151.804 22.6438 152.167 21.2615C152.57 19.6284 153.165 18.3378 153.953 17.3885C154.741 16.4402 155.684 15.7628 156.783 15.3561C157.882 14.9494 159.054 14.7018 160.3 14.6133C161.544 14.5248 163.157 14.4974 165.138 14.5322C166.583 14.5575 167.792 14.6186 168.763 14.7145C169.734 14.8103 170.663 15.0242 171.548 15.355C172.432 15.6859 173.129 16.2032 173.64 16.9059C174.15 17.6097 174.385 18.5443 174.344 19.7106C174.322 20.3417 174.01 21.3426 173.828 22.0654L167.888 22.0622V22.0633Z" fill="#282828"/>
<path d="M180.162 39.7024H174.288L178.706 17.0587C178.925 15.9366 179.904 15.1274 181.043 15.1274H184.957L180.162 39.7024Z" fill="#282828"/>
<path d="M105.193 22.1726C105.303 21.4172 104.988 19.5281 102.827 19.4343C101.819 19.3901 95.4795 18.4924 94.5791 21.8913L91.1054 39.7117H85.2307L91.6921 6.56998C91.9492 5.253 93.0983 4.30371 94.4342 4.30371H98.0086L95.6694 16.2999C98.1975 14.7648 100.879 14.9513 102.921 14.9513C105.407 14.9513 107.834 15.4465 108.937 16.2725C110.039 17.0996 110.96 18.1921 110.991 20.0022C111.008 20.9694 110.886 22.3875 110.629 23.7288L107.574 39.7117H101.793L105.194 22.1726H105.193Z" fill="#282828"/>
<path d="M124.522 7.47195C124.567 9.19457 123.144 10.737 121.342 10.9172C119.54 11.0974 118.043 9.84674 117.998 8.12412C117.953 6.4015 119.376 4.85905 121.178 4.67888C122.98 4.49872 124.476 5.74933 124.522 7.47195Z" fill="#282828"/>
<path d="M186.936 7.42459C186.982 9.14721 185.559 10.6897 183.757 10.8698C181.955 11.05 180.458 9.79938 180.413 8.07676C180.368 6.35414 181.791 4.81168 183.593 4.63152C185.395 4.45136 186.891 5.70197 186.936 7.42459Z" fill="#282828"/>
</g>
<defs>
<clipPath id="clip0_1_555">
<rect width="186.938" height="43.9853" fill="white"/>
</clipPath>
</defs>
</svg>
