<svg width="152" height="66" viewBox="0 0 152 66" fill="none" xmlns="http://www.w3.org/2000/svg">
<path d="M5.1479 38.4441C1.02313 35.063 0 30.6289 0 26.9319C0 24.3282 0.978826 19.7767 4.76523 16.3146C7.31904 13.9822 11.19 12.1519 17.7437 12.1519C19.4476 12.1519 21.8282 12.2693 23.9148 12.6175C25.53 12.8888 26.8915 13.1237 28.253 13.2006C28.7203 13.2411 28.8049 13.395 28.8049 13.6299C28.8049 13.9417 28.676 14.4073 28.5914 15.8084C28.5068 17.092 28.5068 19.2301 28.4625 19.8132C28.4182 20.3963 28.3336 20.6311 28.0798 20.6311C27.7817 20.6311 27.7374 20.3598 27.7374 19.8132C27.7374 18.2947 27.0567 16.7033 25.949 15.8448C24.4586 14.6786 21.1837 13.6299 17.4376 13.6299C11.7781 13.6299 9.13974 15.1484 7.64934 16.4684C4.54369 19.1896 3.81863 22.6518 3.81863 26.6201C3.81863 34.0466 10.0743 40.8535 19.1777 40.8535C22.368 40.8535 24.8815 40.5052 26.5814 38.9098C27.4756 38.0554 28.0275 36.3425 28.1564 35.642C28.2409 35.2128 28.3255 35.0589 28.5833 35.0589C28.7968 35.0589 28.8814 35.3302 28.8814 35.642C28.8814 35.9133 28.3698 39.2985 27.9469 40.6186C27.6931 41.3556 27.6045 41.4366 26.8392 41.7484C25.1353 42.372 21.9048 42.6433 19.1818 42.6433C12.7972 42.6433 8.5033 41.2058 5.13984 38.4441H5.1479Z" fill="#282828"/>
<path d="M42.6816 30.8234C42.6816 34.5569 42.6816 37.6303 42.8951 39.2622C43.024 40.3919 43.2778 41.2463 44.5547 41.4002C45.1508 41.4772 46.0854 41.5541 46.468 41.5541C46.7218 41.5541 46.8064 41.6715 46.8064 41.789C46.8064 41.9833 46.5929 42.1008 46.1256 42.1008C43.7853 42.1008 41.1026 41.9833 40.8931 41.9833C40.6837 41.9833 38.001 42.1008 36.7241 42.1008C36.2568 42.1008 36.0433 42.0238 36.0433 41.789C36.0433 41.6715 36.1279 41.5541 36.3857 41.5541C36.7684 41.5541 37.28 41.4772 37.6626 41.4002C38.5125 41.2463 38.726 40.3879 38.8952 39.2622C39.1087 37.6303 39.1087 34.5569 39.1087 30.8234V23.98C39.1087 17.9141 39.1087 16.8249 39.0241 15.5817C38.9395 14.2576 38.5125 13.5975 37.578 13.4032C37.1108 13.2857 36.5549 13.2493 36.2608 13.2493C36.0917 13.2493 35.9185 13.1724 35.9185 13.0144C35.9185 12.7796 36.1319 12.7026 36.5992 12.7026C38.005 12.7026 40.6837 12.8201 40.8972 12.8201C41.1107 12.8201 43.7893 12.7026 45.0662 12.7026C45.5335 12.7026 45.747 12.7796 45.747 13.0144C45.747 13.1683 45.5778 13.2493 45.4046 13.2493C45.1065 13.2493 44.8528 13.2898 44.3412 13.3667C43.1932 13.5611 42.8508 14.2211 42.7662 15.5817C42.6816 16.8249 42.6816 17.9141 42.6816 23.98V30.8234Z" fill="#282828"/>
<path d="M55.1084 41.5944C54.5122 41.3231 54.4719 41.1651 54.4719 40.1164C54.4719 38.1727 54.6411 36.6178 54.6854 35.9942C54.7297 35.5649 54.8143 35.3706 55.0238 35.3706C55.2775 35.3706 55.3219 35.488 55.3219 35.7998C55.3219 36.148 55.3219 36.6947 55.4508 37.2373C56.0872 40.1164 58.8988 41.2056 61.7467 41.2056C65.8311 41.2056 67.8331 38.5209 67.8331 36.0346C67.8331 33.3499 66.6005 31.795 62.939 29.0334L61.0256 27.5959C56.5142 24.2106 55.4951 21.8013 55.4951 19.1571C55.4951 14.9943 58.8988 12.1558 64.3045 12.1558C65.9641 12.1558 67.1967 12.3096 68.2601 12.5445C69.0697 12.6984 69.4081 12.7389 69.7505 12.7389C70.0929 12.7389 70.1775 12.8158 70.1775 13.0102C70.1775 13.2045 70.0083 14.4882 70.0083 17.1324C70.0083 17.756 69.9237 18.0273 69.7102 18.0273C69.4564 18.0273 69.4121 17.8329 69.3678 17.5211C69.3235 17.0554 69.0697 16.0026 68.816 15.5774C68.5622 15.1482 67.4102 13.5163 63.4949 13.5163C60.5584 13.5163 58.2624 15.1887 58.2624 18.0273C58.2624 20.2423 59.3701 21.6433 63.4546 24.5589L64.6469 25.4133C69.6659 29.0293 70.8582 31.4427 70.8582 34.5526C70.8582 36.148 70.1774 39.104 67.241 41.0072C65.4122 42.1734 63.1122 42.6391 60.8162 42.6391C58.8182 42.6391 56.8606 42.3678 55.1124 41.5903L55.1084 41.5944Z" fill="#282828"/>
<path d="M85.6614 30.8234C85.6614 34.5569 85.6614 37.6303 85.8748 39.2622C86.0037 40.3919 86.2575 41.2463 87.5344 41.4002C88.1306 41.4772 89.0651 41.5541 89.4478 41.5541C89.7015 41.5541 89.7902 41.6715 89.7902 41.789C89.7902 41.9833 89.5767 42.1008 89.1094 42.1008C86.7691 42.1008 84.0904 41.9833 83.8769 41.9833C83.6634 41.9833 80.9847 42.1008 79.7078 42.1008C79.2406 42.1008 79.0271 42.0238 79.0271 41.789C79.0271 41.6715 79.1117 41.5541 79.3695 41.5541C79.7521 41.5541 80.2637 41.4772 80.6464 41.4002C81.4963 41.2463 81.7098 40.3879 81.879 39.2622C82.0925 37.6303 82.0925 34.5569 82.0925 30.8234V23.98C82.0925 17.9141 82.0925 16.8249 82.0079 15.5817C81.9233 14.2576 81.4963 13.5975 80.5618 13.4032C80.0945 13.2857 79.5387 13.2493 79.2446 13.2493C79.0754 13.2493 78.9062 13.1724 78.9062 13.0144C78.9062 12.7796 79.1197 12.7026 79.587 12.7026C80.9928 12.7026 83.6715 12.8201 83.885 12.8201C84.0985 12.8201 86.7771 12.7026 88.054 12.7026C88.5213 12.7026 88.7348 12.7796 88.7348 13.0144C88.7348 13.1683 88.5656 13.2493 88.3964 13.2493C88.0984 13.2493 87.8446 13.2898 87.333 13.3667C86.185 13.5611 85.8426 14.2211 85.758 15.5817C85.6734 16.8249 85.6734 17.9141 85.6734 23.98V30.8234H85.6614Z" fill="#282828"/>
<path d="M109.874 30.823C109.874 34.5565 109.874 37.6299 110.088 39.2618C110.217 40.3916 110.47 41.246 111.747 41.3999C112.343 41.4768 113.278 41.5537 113.661 41.5537C113.914 41.5537 114.003 41.6712 114.003 41.7886C114.003 41.983 113.79 42.1004 113.322 42.1004C110.982 42.1004 108.303 41.983 108.09 41.983C107.876 41.983 105.198 42.1004 103.921 42.1004C103.453 42.1004 103.24 42.0235 103.24 41.7886C103.24 41.6712 103.325 41.5537 103.582 41.5537C103.965 41.5537 104.477 41.4768 104.859 41.3999C105.709 41.246 105.923 40.3875 106.092 39.2618C106.305 37.6299 106.305 34.5565 106.305 30.823V14.3747L100.009 14.4516C97.371 14.4921 96.3519 14.7634 95.6712 15.6947C95.2039 16.3548 95.075 16.6301 94.9461 16.9014C94.8172 17.2132 94.6924 17.2902 94.5192 17.2902C94.3903 17.2902 94.3057 17.1727 94.3057 16.9419C94.3057 16.5532 95.1556 13.2084 95.2402 12.8966C95.3248 12.6618 95.494 12.1597 95.6672 12.1597C95.9652 12.1597 96.3922 12.5484 97.5402 12.6253C98.7728 12.7428 100.392 12.8197 100.904 12.8197H116.859C118.22 12.8197 119.199 12.7428 119.88 12.6253C120.516 12.5484 120.903 12.431 121.072 12.431C121.286 12.431 121.286 12.6658 121.286 12.8966C121.286 14.0629 121.157 16.7476 121.157 17.1727C121.157 17.521 121.028 17.6789 120.859 17.6789C120.645 17.6789 120.561 17.5615 120.516 17.0189L120.472 16.5896C120.343 15.4234 119.324 14.5285 115.24 14.4516L109.878 14.3747V30.823H109.874Z" fill="#282828"/>
<path d="M134.425 13.6743C134.937 12.3906 135.106 12.1558 135.36 12.1558C135.614 12.1558 135.787 12.3501 136.294 13.5568C136.931 15.0348 143.613 31.0945 146.208 37.0065C147.738 40.4687 148.975 41.0882 149.865 41.3231C150.502 41.5174 151.142 41.5579 151.569 41.5579C151.823 41.5579 151.996 41.5984 151.996 41.7928C151.996 42.0277 151.613 42.1046 151.146 42.1046C150.51 42.1046 147.4 42.1046 144.467 42.0277C143.658 41.9872 143.191 41.9872 143.191 41.7564C143.191 41.6025 143.319 41.5215 143.489 41.485C143.742 41.4081 144 41.0558 143.742 40.4363L139.787 30.8677C139.702 30.7138 139.618 30.6328 139.404 30.6328H130.256C130.043 30.6328 129.914 30.7503 129.829 30.9446L127.276 37.8285C126.893 38.8003 126.679 39.7357 126.679 40.4322C126.679 41.2097 127.574 41.562 128.295 41.562H128.722C129.02 41.562 129.149 41.6389 129.149 41.7968C129.149 42.0317 128.895 42.1086 128.512 42.1086C127.489 42.1086 125.66 41.9912 125.193 41.9912C124.726 41.9912 122.385 42.1086 120.383 42.1086C119.832 42.1086 119.574 42.0317 119.574 41.7968C119.574 41.643 119.743 41.562 119.957 41.562C120.255 41.562 120.851 41.5215 121.189 41.485C123.147 41.2502 123.997 39.7722 124.762 37.8285L134.421 13.6783L134.425 13.6743ZM138.852 29.2277C139.066 29.2277 139.066 29.1103 139.021 28.9564L134.977 18.4565C134.764 17.8734 134.55 17.8734 134.341 18.4565L130.595 28.9564C130.51 29.1508 130.595 29.2277 130.724 29.2277H138.852Z" fill="#282828"/>
<path d="M32.4825 49.7987C32.4825 48.1992 32.4825 47.9036 32.4623 47.5675C32.4422 47.2111 32.3616 47.0411 32.0354 46.9682C31.9548 46.9479 31.7856 46.9358 31.6487 46.9358C31.5399 46.9358 31.4795 46.9155 31.4795 46.8426C31.4795 46.7698 31.548 46.7495 31.697 46.7495C32.2247 46.7495 32.8531 46.7819 33.131 46.7819C33.5378 46.7819 34.1179 46.7495 34.5731 46.7495C35.8177 46.7495 36.2649 47.1909 36.422 47.3488C36.6395 47.5715 36.9214 48.0453 36.9214 48.6001C36.9214 50.0943 35.8862 51.1471 34.4724 51.1471C34.424 51.1471 34.3153 51.1471 34.2629 51.1349C34.2146 51.1228 34.1421 51.1147 34.1421 51.0418C34.1421 50.9568 34.2105 50.9244 34.42 50.9244C34.9759 50.9244 35.7533 50.2603 35.7533 49.1872C35.7533 48.839 35.7251 48.1344 35.1652 47.608C34.8067 47.2597 34.3999 47.199 34.1703 47.199C34.0212 47.199 33.8722 47.2111 33.7836 47.2395C33.7352 47.2597 33.703 47.3245 33.703 47.4379V51.6492C33.703 52.617 33.703 53.4512 33.7513 53.9006C33.7795 54.1962 33.84 54.427 34.138 54.4675C34.279 54.4878 34.4965 54.508 34.6456 54.508C34.7543 54.508 34.8027 54.5404 34.8027 54.5931C34.8027 54.666 34.7221 54.6983 34.6133 54.6983C33.9568 54.6983 33.3284 54.6659 33.0706 54.6659C32.841 54.6659 32.2166 54.6983 31.8179 54.6983C31.689 54.6983 31.6205 54.666 31.6205 54.5931C31.6205 54.5404 31.6608 54.508 31.7816 54.508C31.9306 54.508 32.0515 54.4878 32.1401 54.4675C32.3375 54.427 32.3898 54.1922 32.4301 53.8885C32.4785 53.4471 32.4785 52.6129 32.4785 51.6452V49.7906L32.4825 49.7987Z" fill="#282828"/>
<path d="M51.334 51.9568C51.2856 51.9568 51.2655 51.9771 51.2453 52.0418L50.7096 53.5482C50.6089 53.8114 50.5606 54.0625 50.5606 54.192C50.5606 54.3824 50.6492 54.52 50.9593 54.52H51.1084C51.2292 54.52 51.2574 54.5403 51.2574 54.6051C51.2574 54.6901 51.197 54.7103 51.0882 54.7103C50.77 54.7103 50.343 54.678 50.0329 54.678C49.9241 54.678 49.3763 54.7103 48.8607 54.7103C48.7318 54.7103 48.6714 54.6901 48.6714 54.6051C48.6714 54.5403 48.7117 54.52 48.7922 54.52C48.8808 54.52 49.0218 54.5079 49.1024 54.4998C49.5616 54.435 49.7509 54.0787 49.9483 53.5522L52.4457 46.9397C52.5665 46.636 52.6229 46.5186 52.7236 46.5186C52.8123 46.5186 52.8727 46.6117 52.9734 46.8546C53.211 47.4337 54.8021 51.73 55.4426 53.3295C55.8212 54.2771 56.1113 54.4228 56.3167 54.4755C56.4657 54.5079 56.6148 54.516 56.7356 54.516C56.8162 54.516 56.8645 54.5281 56.8645 54.601C56.8645 54.686 56.7759 54.7063 56.4053 54.7063C56.0347 54.7063 55.3218 54.7063 54.5242 54.6861C54.347 54.6739 54.2261 54.6739 54.2261 54.601C54.2261 54.5362 54.2664 54.516 54.3671 54.5079C54.4356 54.4876 54.5081 54.3904 54.4557 54.2649L53.6582 52.0337C53.638 51.9811 53.6098 51.9609 53.5575 51.9609H51.338L51.334 51.9568ZM53.3641 51.4304C53.4124 51.4304 53.4245 51.398 53.4125 51.3656L52.5182 48.7659C52.5102 48.7254 52.4981 48.6728 52.4699 48.6728C52.4417 48.6728 52.4215 48.7254 52.4095 48.7659L51.4951 51.3575C51.487 51.398 51.4951 51.4304 51.5354 51.4304H53.3681H53.3641Z" fill="#282828"/>
<path d="M69.8391 49.7987C69.8391 48.1992 69.8391 47.9036 69.8189 47.5675C69.7988 47.2111 69.7182 47.0411 69.3919 46.9682C69.3114 46.9479 69.1422 46.9358 69.0052 46.9358C68.8965 46.9358 68.8361 46.9155 68.8361 46.8426C68.8361 46.7698 68.9045 46.7495 69.0536 46.7495C69.5813 46.7495 70.2096 46.7819 70.4151 46.7819C70.7534 46.7819 71.5107 46.7495 71.8168 46.7495C72.4452 46.7495 73.1099 46.8143 73.6456 47.203C73.9235 47.4015 74.3223 47.94 74.3223 48.6446C74.3223 49.4221 74.0122 50.1388 73.0092 51.0013C73.8953 52.1797 74.5801 53.1191 75.1682 53.771C75.7241 54.3825 76.135 54.4554 76.284 54.4878C76.3928 54.508 76.4814 54.5202 76.5619 54.5202C76.6425 54.5202 76.6828 54.5526 76.6828 54.6052C76.6828 54.6902 76.6143 54.7105 76.4935 54.7105H75.5469C74.991 54.7105 74.7412 54.6578 74.4834 54.5121C74.0565 54.2691 73.6778 53.7751 73.1219 52.9652C72.7232 52.3862 72.268 51.6694 72.1351 51.5115C72.0867 51.4467 72.0263 51.4386 71.9578 51.4386L71.0918 51.4184C71.0435 51.4184 71.0112 51.4386 71.0112 51.5034V51.6492C71.0112 52.6291 71.0112 53.4592 71.0596 53.9006C71.0878 54.2043 71.1482 54.4392 71.4463 54.4797C71.5953 54.4999 71.8128 54.5202 71.9337 54.5202C72.0142 54.5202 72.0545 54.5526 72.0545 54.6052C72.0545 54.6781 71.986 54.7105 71.8571 54.7105C71.2811 54.7105 70.544 54.6781 70.3949 54.6781C70.2056 54.6781 69.5772 54.7105 69.1825 54.7105C69.0536 54.7105 68.9851 54.6781 68.9851 54.6052C68.9851 54.5526 69.0254 54.5202 69.1462 54.5202C69.2953 54.5202 69.4161 54.4999 69.5047 54.4797C69.7021 54.4392 69.7545 54.2043 69.7947 53.9006C69.8431 53.4592 69.8431 52.6251 69.8431 51.6573V49.8027L69.8391 49.7987ZM71.0153 50.6288C71.0153 50.7462 71.0354 50.7867 71.1039 50.8191C71.3133 50.892 71.6114 50.9244 71.8612 50.9244C72.2599 50.9244 72.3888 50.8839 72.5661 50.7462C72.8641 50.5154 73.1542 50.0295 73.1542 49.167C73.1542 47.6728 72.2197 47.2395 71.6316 47.2395C71.3818 47.2395 71.2046 47.2516 71.1039 47.28C71.0354 47.3002 71.0153 47.3448 71.0153 47.4258V50.6247V50.6288Z" fill="#282828"/>
<path d="M89.6613 46.7861C89.6895 46.6079 89.7499 46.5107 89.8304 46.5107C89.911 46.5107 89.9714 46.5634 90.1003 46.8387L92.8153 52.7791L95.5221 46.7658C95.6027 46.5958 95.651 46.5148 95.7397 46.5148C95.8283 46.5148 95.8887 46.6201 95.9169 46.8428L96.8232 53.3501C96.9118 54.0141 97.0125 54.3178 97.3106 54.415C97.6006 54.5082 97.798 54.5203 97.9269 54.5203C98.0155 54.5203 98.088 54.5325 98.088 54.5932C98.088 54.6782 97.9672 54.7106 97.8302 54.7106C97.5805 54.7106 96.2069 54.6782 95.8122 54.6458C95.5826 54.6256 95.5221 54.5932 95.5221 54.5284C95.5221 54.4758 95.5624 54.4434 95.6309 54.411C95.6913 54.3907 95.7195 54.2531 95.6792 53.9575L95.0831 49.325H95.0428L92.8757 54.1032C92.6461 54.5972 92.5978 54.6944 92.5091 54.6944C92.4205 54.6944 92.3198 54.4839 92.1587 54.168C91.921 53.6821 91.1356 52.0745 91.0147 51.7789C90.9261 51.5562 90.3299 50.2321 89.9795 49.4425H89.9392L89.4236 53.6335C89.4035 53.8238 89.3954 53.9615 89.3954 54.1275C89.3954 54.3259 89.5243 54.4231 89.6935 54.4636C89.8707 54.5041 90.0117 54.5163 90.1124 54.5163C90.193 54.5163 90.2615 54.5365 90.2615 54.5892C90.2615 54.6823 90.1728 54.7066 90.0238 54.7066C89.6049 54.7066 89.1578 54.6742 88.9805 54.6742C88.7912 54.6742 88.3119 54.7066 87.9936 54.7066C87.8929 54.7066 87.8124 54.6863 87.8124 54.5892C87.8124 54.5365 87.8728 54.5163 87.9735 54.5163C88.0541 54.5163 88.1225 54.5163 88.2716 54.4839C88.5495 54.4191 88.6301 54.0101 88.6784 53.6538L89.6653 46.7901L89.6613 46.7861Z" fill="#282828"/>
<path d="M112.005 51.9568C111.957 51.9568 111.937 51.9771 111.916 52.0418L111.381 53.5482C111.28 53.8114 111.232 54.0625 111.232 54.192C111.232 54.3824 111.32 54.52 111.63 54.52H111.78C111.9 54.52 111.929 54.5403 111.929 54.6051C111.929 54.6901 111.868 54.7103 111.759 54.7103C111.441 54.7103 111.014 54.678 110.704 54.678C110.595 54.678 110.047 54.7103 109.528 54.7103C109.399 54.7103 109.339 54.6901 109.339 54.6051C109.339 54.5403 109.379 54.52 109.459 54.52C109.548 54.52 109.689 54.5079 109.77 54.4998C110.229 54.435 110.418 54.0787 110.615 53.5522L113.113 46.9397C113.234 46.636 113.29 46.5186 113.391 46.5186C113.479 46.5186 113.54 46.6117 113.64 46.8546C113.878 47.4337 115.473 51.73 116.11 53.3295C116.488 54.2771 116.778 54.4228 116.984 54.4755C117.133 54.5079 117.282 54.516 117.403 54.516C117.483 54.516 117.532 54.5281 117.532 54.601C117.532 54.686 117.443 54.7063 117.072 54.7063C116.702 54.7063 115.989 54.7063 115.191 54.6861C115.01 54.6739 114.893 54.6739 114.893 54.601C114.893 54.5362 114.934 54.516 115.034 54.5079C115.103 54.4876 115.175 54.3904 115.123 54.2649L114.325 52.0337C114.305 51.9811 114.277 51.9609 114.225 51.9609H112.005V51.9568ZM114.035 51.4304C114.084 51.4304 114.096 51.398 114.084 51.3656L113.189 48.7659C113.181 48.7254 113.169 48.6728 113.141 48.6728C113.113 48.6728 113.093 48.7254 113.081 48.7659L112.166 51.3575C112.158 51.398 112.166 51.4304 112.206 51.4304H114.039H114.035Z" fill="#282828"/>
<path d="M6.48522 7.8923C6.36841 7.83561 6.34424 7.79511 6.34424 7.60885C6.34424 7.16342 6.37646 6.64511 6.38452 6.51148C6.38452 6.38595 6.41674 6.29686 6.47314 6.29686C6.53759 6.29686 6.54564 6.3738 6.54564 6.43454C6.54564 6.53982 6.56981 6.71799 6.61009 6.86377C6.76719 7.47522 7.30695 7.68173 7.76213 7.68173C8.38648 7.68173 8.76512 7.21606 8.76512 6.63296C8.76512 6.27257 8.69262 5.91218 8.05215 5.46675L7.63323 5.1752C6.77927 4.584 6.50133 4.02924 6.50133 3.30036C6.50133 2.28803 7.32306 1.64014 8.32606 1.64014C8.79332 1.64014 9.1639 1.71707 9.35322 1.77781C9.41767 1.79806 9.4499 1.82641 9.4499 1.8831C9.4499 1.98838 9.42573 2.22324 9.42573 2.87518C9.42573 3.0493 9.3935 3.13839 9.33711 3.13839C9.28877 3.13839 9.2646 3.0898 9.2646 2.99261C9.2646 2.91567 9.23238 2.66057 9.07528 2.45C8.96653 2.29613 8.73692 2.06127 8.26967 2.06127C7.75004 2.06127 7.28278 2.38116 7.28278 2.94402C7.28278 3.31251 7.3996 3.60406 8.04812 4.03329L8.34217 4.22766C9.29683 4.85125 9.59088 5.48295 9.59088 6.22802C9.59088 6.83947 9.3935 7.33754 8.86985 7.77487C8.52344 8.06642 8.04812 8.11501 7.66142 8.11501C7.2425 8.11501 6.79941 8.06642 6.48522 7.9004V7.8923Z" fill="#282828"/>
<path d="M10.4448 2.55533C10.2796 2.09775 10.1749 2.02082 9.90904 1.94388C9.80028 1.91553 9.68749 1.91553 9.6311 1.91553C9.56665 1.91553 9.55054 1.87504 9.55054 1.82645C9.55054 1.75761 9.62304 1.74951 9.7318 1.74951C10.1185 1.74951 10.5294 1.76976 10.7831 1.76976C10.9644 1.76976 11.343 1.74951 11.7015 1.74951C11.7902 1.74951 11.8747 1.76976 11.8747 1.82645C11.8747 1.88314 11.8264 1.91553 11.7579 1.91553C11.6411 1.91553 11.5364 1.92363 11.48 1.97222C11.4317 2.01272 11.4075 2.06131 11.4075 2.13825C11.4075 2.24353 11.4719 2.47029 11.5726 2.76184L12.7891 6.46698H12.8133C13.1235 5.61257 14.0539 2.94811 14.2272 2.4055C14.2594 2.30022 14.2916 2.17064 14.2916 2.10585C14.2916 2.01677 14.2594 1.98842 14.1949 1.96008C14.1144 1.93173 13.9975 1.91958 13.9089 1.91958C13.8445 1.91958 13.7841 1.89124 13.7841 1.8305C13.7841 1.76976 13.8485 1.75356 13.9895 1.75356C14.352 1.75356 14.6702 1.77381 14.7629 1.77381C14.8878 1.77381 15.2221 1.75356 15.4436 1.75356C15.5323 1.75356 15.5927 1.77381 15.5927 1.8305C15.5927 1.88719 15.5524 1.91958 15.4759 1.91958C15.3993 1.91958 15.2463 1.91148 15.1214 2.01677C15.0328 2.0937 14.9321 2.21923 14.7427 2.74565C14.4568 3.52312 14.2674 3.96854 13.8727 4.98088C13.4135 6.18758 13.0751 7.09058 12.91 7.50766C12.7287 7.98548 12.6643 8.11101 12.5635 8.11101C12.4628 8.11101 12.4065 8.00572 12.2695 7.61699L10.4448 2.56343V2.55533Z" fill="#282828"/>
<path d="M16.197 4.13827C16.197 2.88298 16.197 2.65217 16.1889 2.38896C16.1728 2.10551 16.1003 2.00832 15.9432 1.95163C15.8627 1.92329 15.77 1.91114 15.6814 1.91114C15.6089 1.91114 15.5646 1.89089 15.5646 1.81396C15.5646 1.76536 15.621 1.74512 15.7378 1.74512C16.0077 1.74512 16.5031 1.76536 16.7086 1.76536C16.8898 1.76536 17.3571 1.74512 17.639 1.74512C17.7277 1.74512 17.7881 1.76536 17.7881 1.81396C17.7881 1.89089 17.7478 1.91114 17.6713 1.91114C17.5947 1.91114 17.5383 1.91924 17.4578 1.93948C17.2604 1.97998 17.204 2.09336 17.1879 2.38491C17.1718 2.64812 17.1718 2.87893 17.1718 4.13422V5.59198C17.1718 6.3897 17.1718 7.04974 17.204 7.39798C17.2282 7.62069 17.2765 7.74622 17.49 7.78672C17.5907 7.80696 17.7518 7.81506 17.8606 7.81506C17.9411 7.81506 17.9774 7.86365 17.9774 7.90415C17.9774 7.96084 17.921 7.99323 17.8364 7.99323C17.3611 7.99323 16.8656 7.96489 16.6683 7.96489C16.5031 7.96489 16.0117 7.99323 15.7217 7.99323C15.6331 7.99323 15.5807 7.96489 15.5807 7.90415C15.5807 7.86365 15.6049 7.81506 15.6975 7.81506C15.8063 7.81506 15.8868 7.80696 15.9513 7.78672C16.1003 7.74622 16.1406 7.63284 16.1648 7.38988C16.197 7.04974 16.197 6.3897 16.197 5.59198V4.13422V4.13827Z" fill="#282828"/>
<path d="M20.3459 5.60028C20.3459 6.6612 20.3459 7.18357 20.5029 7.34149C20.6278 7.46702 20.9058 7.51561 21.4657 7.51561C21.8524 7.51561 22.1303 7.50751 22.3116 7.28075C22.4002 7.17547 22.4767 6.94061 22.4928 6.78673C22.5009 6.70979 22.517 6.6612 22.5734 6.6612C22.6217 6.6612 22.6378 6.75029 22.6378 6.84747C22.6378 6.94466 22.5895 7.5561 22.5291 7.79906C22.4807 7.98533 22.4485 8.02178 22.0699 8.02178C21.5503 8.02178 21.1313 8.01368 20.7728 7.99343C20.4103 7.98533 20.1082 7.97319 19.8101 7.97319C19.7296 7.97319 19.5725 7.98128 19.3993 7.98128C19.226 7.98938 19.0448 8.00153 18.8998 8.00153C18.8111 8.00153 18.7588 7.97319 18.7588 7.91245C18.7588 7.87195 18.783 7.82336 18.8756 7.82336C18.9844 7.82336 19.0649 7.81526 19.1294 7.79501C19.2784 7.75452 19.3187 7.60065 19.3429 7.35769C19.3751 7.00945 19.3751 6.3575 19.3751 5.60028V4.14252C19.3751 2.88723 19.3751 2.65642 19.367 2.39321C19.3509 2.10976 19.2865 2.02472 19.0528 1.94779C18.9964 1.92754 18.9038 1.91944 18.8152 1.91944C18.7346 1.91944 18.6903 1.8911 18.6903 1.83036C18.6903 1.76962 18.7386 1.75342 18.8474 1.75342C19.1858 1.75342 19.645 1.77366 19.8423 1.77366C20.0155 1.77366 20.6077 1.75342 20.8856 1.75342C20.9944 1.75342 21.0427 1.77366 21.0427 1.83036C21.0427 1.88705 21.0024 1.91944 20.9098 1.91944C20.8292 1.91944 20.7124 1.92754 20.6318 1.94779C20.4345 1.98828 20.3781 2.10166 20.362 2.39321C20.3459 2.65642 20.3459 2.88723 20.3459 4.14252V5.60028Z" fill="#282828"/>
<path d="M23.2743 4.13862C23.2743 2.88332 23.2823 2.65251 23.2662 2.38931C23.2501 2.09775 23.1856 2.02082 22.952 1.94388C22.8956 1.92363 22.7707 1.91553 22.6741 1.91553C22.5935 1.91553 22.5492 1.88719 22.5492 1.82645C22.5492 1.76571 22.5975 1.74951 22.7063 1.74951C23.093 1.74951 23.5764 1.76976 23.7898 1.76976C23.9711 1.76976 24.4545 1.74951 24.7203 1.74951C24.8291 1.74951 24.8774 1.76976 24.8774 1.82645C24.8774 1.88314 24.8372 1.91553 24.7606 1.91553C24.6801 1.91553 24.6357 1.92363 24.5471 1.94388C24.3578 1.98437 24.3014 2.09775 24.2853 2.38931C24.2692 2.65251 24.2692 2.88332 24.2692 4.13862V5.29672C24.2692 6.50342 24.4666 6.9691 24.821 7.29709C25.1433 7.59674 25.4857 7.62914 25.7314 7.62914C26.0456 7.62914 26.4121 7.52385 26.7022 7.19181C27.105 6.74638 27.1211 6.0256 27.1211 5.17929V4.13862C27.1211 2.88332 27.113 2.65251 27.105 2.38931C27.0889 2.10585 27.0325 2.02082 26.8029 1.94388C26.7465 1.92363 26.6216 1.91553 26.541 1.91553C26.4605 1.91553 26.4162 1.88719 26.4162 1.82645C26.4162 1.76571 26.4645 1.74951 26.5652 1.74951C26.9358 1.74951 27.4192 1.76976 27.4272 1.76976C27.5078 1.76976 27.9952 1.74951 28.2731 1.74951C28.3698 1.74951 28.4221 1.76976 28.4221 1.82645C28.4221 1.88314 28.3819 1.91553 28.2973 1.91553C28.2127 1.91553 28.1724 1.92363 28.0838 1.94388C27.8864 1.98437 27.8381 2.09775 27.822 2.38931C27.8139 2.65251 27.8059 2.88332 27.8059 4.13862V5.02137C27.8059 5.94462 27.7253 6.91645 27.117 7.50766C26.6055 8.01382 26.0577 8.09886 25.5904 8.09886C25.2118 8.09886 24.4666 8.07861 23.9389 7.536C23.5683 7.15536 23.2823 6.54392 23.2823 5.34936V4.13457L23.2743 4.13862Z" fill="#282828"/>
<path d="M29.5018 4.13862C29.5018 2.88332 29.5018 2.65251 29.4937 2.38931C29.4776 2.10585 29.4132 2.02082 29.1795 1.94388C29.1232 1.92363 28.9983 1.91553 28.8935 1.91553C28.821 1.91553 28.7687 1.88719 28.7687 1.82645C28.7687 1.76571 28.8251 1.74951 28.9338 1.74951C29.3125 1.74951 29.7717 1.76976 29.9771 1.76976C30.2712 1.76976 30.8472 1.74951 31.1775 1.74951C32.0798 1.74951 32.4101 2.09775 32.5269 2.21518C32.684 2.38931 32.8894 2.75779 32.8894 3.20727C32.8894 4.37348 32.0999 5.20764 31.0727 5.20764C31.0405 5.20764 30.8915 5.20764 30.8593 5.19954C30.819 5.19954 30.7706 5.17119 30.7706 5.11045C30.7706 5.04162 30.8512 5.00517 31.0083 5.00517C31.4111 5.00517 31.9791 4.51115 31.9791 3.66484C31.9791 3.39354 31.9549 2.84688 31.5521 2.44195C31.2903 2.17064 30.9922 2.13015 30.827 2.13015C30.7183 2.13015 30.5813 2.13825 30.5169 2.17064C30.4766 2.19089 30.4605 2.23948 30.4605 2.32452V5.60042C30.4605 6.35765 30.4605 7.00959 30.4927 7.36998C30.5169 7.60484 30.5571 7.75871 30.7706 7.79921C30.8794 7.81945 31.0325 7.82755 31.1412 7.82755C31.2218 7.82755 31.258 7.87614 31.258 7.91664C31.258 7.97333 31.2016 8.00572 31.1251 8.00572C30.6417 8.00572 30.1302 7.97738 29.9409 7.97738C29.7757 7.97738 29.3165 8.00572 29.0305 8.00572C28.9419 8.00572 28.8895 7.97738 28.8895 7.91664C28.8895 7.87614 28.9137 7.82755 29.0063 7.82755C29.1151 7.82755 29.1957 7.81945 29.2601 7.79921C29.4091 7.75871 29.4494 7.60484 29.4736 7.36188C29.5058 7.01364 29.5058 6.3617 29.5058 5.60447V4.14671L29.5018 4.13862Z" fill="#282828"/>
<path d="M34.2347 4.13862C34.2347 2.88332 34.2347 2.65251 34.2266 2.38931C34.2105 2.10585 34.1461 2.02082 33.9125 1.94388C33.8561 1.92363 33.7312 1.91553 33.6265 1.91553C33.554 1.91553 33.5016 1.88719 33.5016 1.82645C33.5016 1.76571 33.558 1.74951 33.6667 1.74951C34.0454 1.74951 34.5046 1.76976 34.71 1.76976C35.0041 1.76976 35.5801 1.74951 35.9104 1.74951C36.8127 1.74951 37.143 2.09775 37.2598 2.21518C37.4169 2.38931 37.6223 2.75779 37.6223 3.20727C37.6223 4.37348 36.8328 5.20764 35.8057 5.20764C35.7734 5.20764 35.6244 5.20764 35.5922 5.19954C35.5519 5.19954 35.5035 5.17119 35.5035 5.11045C35.5035 5.04162 35.5841 5.00517 35.7412 5.00517C36.144 5.00517 36.712 4.51115 36.712 3.66484C36.712 3.39354 36.6878 2.84688 36.285 2.44195C36.0232 2.17064 35.7251 2.13015 35.5599 2.13015C35.4512 2.13015 35.3142 2.13825 35.2498 2.17064C35.2095 2.19089 35.1934 2.23948 35.1934 2.32452V5.60042C35.1934 6.35765 35.1934 7.00959 35.2256 7.36998C35.2498 7.60484 35.2901 7.75871 35.5035 7.79921C35.6123 7.81945 35.7654 7.82755 35.8741 7.82755C35.9547 7.82755 35.9909 7.87614 35.9909 7.91664C35.9909 7.97333 35.9346 8.00572 35.858 8.00572C35.3746 8.00572 34.8631 7.97738 34.6738 7.97738C34.5086 7.97738 34.0494 8.00572 33.7634 8.00572C33.6748 8.00572 33.6224 7.97738 33.6224 7.91664C33.6224 7.87614 33.6466 7.82755 33.7392 7.82755C33.848 7.82755 33.9286 7.81945 33.993 7.79921C34.1421 7.75871 34.1823 7.60484 34.2065 7.36188C34.2387 7.01364 34.2387 6.3617 34.2387 5.60447V4.14671L34.2347 4.13862Z" fill="#282828"/>
<path d="M38.1782 4.86725C38.1782 3.45808 39.0161 1.63184 41.2114 1.63184C43.0361 1.63184 44.168 2.82639 44.168 4.72147C44.168 6.61656 42.9998 8.10266 41.1348 8.10266C39.0322 8.10266 38.1782 6.33311 38.1782 4.86725ZM43.0925 5.02517C43.0925 3.19893 42.162 2.06916 40.9979 2.06916C40.1923 2.06916 39.2457 2.57533 39.2457 4.61619C39.2457 6.31691 40.0674 7.65724 41.4329 7.65724C41.9405 7.65724 43.0925 7.37378 43.0925 5.02517Z" fill="#282828"/>
<path d="M47.898 4.13862C47.898 2.88332 47.898 2.65251 47.89 2.38931C47.8739 2.10585 47.8094 2.02082 47.5758 1.94388C47.5194 1.92363 47.3945 1.91553 47.2898 1.91553C47.2173 1.91553 47.1649 1.88719 47.1649 1.82645C47.1649 1.76571 47.2213 1.74951 47.3301 1.74951C47.7087 1.74951 48.1679 1.76976 48.317 1.76976C48.5627 1.76976 49.2192 1.74951 49.4408 1.74951C49.9 1.74951 50.4277 1.7981 50.8144 2.09775C51.0198 2.26378 51.3219 2.68086 51.3219 3.23562C51.3219 3.84706 51.0279 4.39372 50.3189 5.06186C50.9594 5.99321 51.4709 6.74233 51.906 7.2566C52.3088 7.73442 52.5626 7.77086 52.6794 7.79921C52.7519 7.81946 52.7962 7.81945 52.8526 7.81945C52.909 7.81945 52.9412 7.86805 52.9412 7.90854C52.9412 7.97738 52.8929 7.99763 52.8002 7.99763H52.1114C51.7086 7.99763 51.5112 7.94903 51.3219 7.8316C51.0117 7.64533 50.7378 7.2566 50.335 6.6168C50.049 6.17138 49.7429 5.61662 49.6543 5.49109C49.614 5.4425 49.5737 5.4344 49.5214 5.4344L48.8728 5.41415C48.8406 5.41415 48.8164 5.4344 48.8164 5.48299V5.60042C48.8164 6.3698 48.8245 7.00959 48.8567 7.35783C48.8809 7.60079 48.9131 7.75467 49.1347 7.79516C49.2434 7.81541 49.3965 7.8235 49.4891 7.8235C49.5455 7.8235 49.5777 7.8721 49.5777 7.91259C49.5777 7.96928 49.5214 8.00167 49.4287 8.00167C49.0098 8.00167 48.4096 7.97333 48.3049 7.97333C48.1639 7.97333 47.7047 8.00167 47.4187 8.00167C47.3301 8.00167 47.2777 7.97333 47.2777 7.91259C47.2777 7.8721 47.3019 7.8235 47.3945 7.8235C47.5033 7.8235 47.5838 7.81541 47.6483 7.79516C47.7973 7.75467 47.8376 7.60079 47.8618 7.35783C47.894 7.00959 47.894 6.35765 47.894 5.60042V4.14266L47.898 4.13862ZM48.8205 4.78246C48.8205 4.87154 48.8366 4.89989 48.8849 4.92823C49.042 4.98493 49.2555 5.00517 49.4368 5.00517C49.7228 5.00517 49.8235 4.97683 49.9443 4.86749C50.1658 4.68123 50.4116 4.32488 50.4116 3.6446C50.4116 2.47839 49.7389 2.17874 49.3119 2.17874C49.1306 2.17874 48.9574 2.18684 48.8849 2.20709C48.8366 2.22733 48.8205 2.25568 48.8205 2.32452V4.78246Z" fill="#282828"/>
<path d="M53.3722 4.13827C53.3722 2.88298 53.3722 2.65217 53.3641 2.38896C53.348 2.10551 53.2755 2.00832 53.1184 1.95163C53.0378 1.92329 52.9452 1.91114 52.8566 1.91114C52.7841 1.91114 52.7397 1.89089 52.7397 1.81396C52.7397 1.76536 52.7961 1.74512 52.913 1.74512C53.1828 1.74512 53.6783 1.76536 53.8837 1.76536C54.065 1.76536 54.5323 1.74512 54.8142 1.74512C54.9028 1.74512 54.9633 1.76536 54.9633 1.81396C54.9633 1.89089 54.923 1.91114 54.8464 1.91114C54.7699 1.91114 54.7135 1.91924 54.633 1.93948C54.4356 1.97998 54.3792 2.09336 54.3631 2.38491C54.347 2.64812 54.347 2.87893 54.347 4.13422V5.59198C54.347 6.3897 54.347 7.04974 54.3792 7.39798C54.4034 7.62069 54.4517 7.74622 54.6652 7.78672C54.7659 7.80696 54.927 7.81506 55.0358 7.81506C55.1163 7.81506 55.1526 7.86365 55.1526 7.90415C55.1526 7.96084 55.0962 7.99323 55.0116 7.99323C54.5363 7.99323 54.0408 7.96489 53.8434 7.96489C53.6783 7.96489 53.1869 7.99323 52.8968 7.99323C52.8082 7.99323 52.7559 7.96489 52.7559 7.90415C52.7559 7.86365 52.78 7.81506 52.8727 7.81506C52.9774 7.81506 53.062 7.80696 53.1264 7.78672C53.2755 7.74622 53.3158 7.63284 53.3399 7.38988C53.3722 7.04974 53.3722 6.3897 53.3722 5.59198V4.13422V4.13827Z" fill="#282828"/>
<path d="M56.1597 7.8923C56.0428 7.83561 56.0187 7.79511 56.0187 7.60885C56.0187 7.16342 56.0509 6.64511 56.059 6.51148C56.059 6.38595 56.0912 6.29686 56.1476 6.29686C56.212 6.29686 56.2201 6.3738 56.2201 6.43454C56.2201 6.53982 56.2442 6.71799 56.2845 6.86377C56.4416 7.47522 56.9814 7.68173 57.4366 7.68173C58.0609 7.68173 58.4396 7.21606 58.4396 6.63296C58.4396 6.27257 58.367 5.91218 57.7266 5.46675L57.3077 5.1752C56.4537 4.584 56.1717 4.02924 56.1717 3.30036C56.1717 2.28803 56.9935 1.64014 57.9965 1.64014C58.4637 1.64014 58.8343 1.71707 59.0236 1.77781C59.0881 1.79806 59.1243 1.82641 59.1243 1.8831C59.1243 1.98838 59.1002 2.22324 59.1002 2.87518C59.1002 3.0493 59.0679 3.13839 59.0115 3.13839C58.9632 3.13839 58.939 3.0898 58.939 2.99261C58.939 2.91567 58.9068 2.66057 58.7497 2.45C58.641 2.29613 58.4114 2.06127 57.9441 2.06127C57.4245 2.06127 56.9572 2.38116 56.9572 2.94402C56.9572 3.31251 57.074 3.60406 57.7226 4.03329L58.0166 4.22766C58.9713 4.85125 59.2653 5.48295 59.2653 6.22802C59.2653 6.83947 59.0679 7.33754 58.5443 7.77487C58.1979 8.06642 57.7226 8.11501 57.3359 8.11501C56.9169 8.11501 56.4738 8.06642 56.1597 7.9004V7.8923Z" fill="#282828"/>
<path d="M60.0387 4.86725C60.0387 3.45808 60.8765 1.63184 63.0718 1.63184C64.8966 1.63184 66.0285 2.82639 66.0285 4.72147C66.0285 6.61656 64.8603 8.10266 62.9953 8.10266C60.8927 8.10266 60.0387 6.33311 60.0387 4.86725ZM64.9489 5.02517C64.9489 3.19893 64.0225 2.06916 62.8543 2.06916C62.0487 2.06916 61.1061 2.57533 61.1061 4.61619C61.1061 6.31691 61.9279 7.65724 63.2934 7.65724C63.805 7.65724 64.953 7.37378 64.953 5.02517H64.9489Z" fill="#282828"/>
<path d="M67.2087 4.13862C67.2087 2.88332 67.2087 2.65251 67.2006 2.38931C67.1845 2.10585 67.1201 2.02082 66.8905 1.94388C66.8341 1.92363 66.7092 1.91553 66.6045 1.91553C66.532 1.91553 66.4796 1.88719 66.4796 1.82645C66.4796 1.76571 66.536 1.74951 66.6448 1.74951C67.0234 1.74951 67.4826 1.76976 67.6316 1.76976C67.8774 1.76976 68.5339 1.74951 68.7555 1.74951C69.2147 1.74951 69.7424 1.7981 70.1291 2.09775C70.3345 2.26378 70.6406 2.68086 70.6406 3.23562C70.6406 3.84706 70.3466 4.39372 69.6376 5.06186C70.2781 5.99321 70.7897 6.74233 71.2247 7.2566C71.6275 7.73442 71.8813 7.77086 71.9981 7.79921C72.0706 7.81946 72.1149 7.81945 72.1713 7.81945C72.2277 7.81945 72.2599 7.86805 72.2599 7.90854C72.2599 7.97738 72.2116 7.99763 72.1189 7.99763H71.4301C71.0273 7.99763 70.83 7.94903 70.6406 7.8316C70.3264 7.64533 70.0566 7.2566 69.6538 6.6168C69.3678 6.17138 69.0616 5.61662 68.973 5.49109C68.9327 5.4425 68.8924 5.4344 68.8401 5.4344L68.1916 5.41415C68.1593 5.41415 68.1352 5.4344 68.1352 5.48299V5.60042C68.1352 6.3698 68.1432 7.00959 68.1754 7.35783C68.1996 7.60079 68.2318 7.75467 68.4534 7.79516C68.5581 7.81541 68.7152 7.8235 68.8079 7.8235C68.8642 7.8235 68.8965 7.8721 68.8965 7.91259C68.8965 7.96928 68.8401 8.00167 68.7474 8.00167C68.3285 8.00167 67.7283 7.97333 67.6236 7.97333C67.4826 7.97333 67.0234 8.00167 66.7374 8.00167C66.6488 8.00167 66.5964 7.97333 66.5964 7.91259C66.5964 7.8721 66.6206 7.8235 66.7132 7.8235C66.818 7.8235 66.9026 7.81541 66.967 7.79516C67.1161 7.75467 67.1563 7.60079 67.1805 7.35783C67.2127 7.00959 67.2127 6.35765 67.2127 5.60042V4.14266L67.2087 4.13862ZM68.1311 4.78246C68.1311 4.87154 68.1472 4.89989 68.1956 4.92823C68.3527 4.98493 68.5662 5.00517 68.7474 5.00517C69.0334 5.00517 69.1341 4.97683 69.255 4.86749C69.4765 4.68123 69.7222 4.32488 69.7222 3.6446C69.7222 2.47839 69.0495 2.17874 68.6226 2.17874C68.4413 2.17874 68.2681 2.18684 68.1956 2.20709C68.1472 2.22733 68.1311 2.25568 68.1311 2.32452V4.78246Z" fill="#282828"/>
<path d="M72.1672 7.8923C72.0504 7.83561 72.0262 7.79511 72.0262 7.60885C72.0262 7.16342 72.0585 6.64511 72.0665 6.51148C72.0665 6.38595 72.0988 6.29686 72.1551 6.29686C72.2196 6.29686 72.2276 6.3738 72.2276 6.43454C72.2276 6.53982 72.2518 6.71799 72.2921 6.86377C72.4492 7.47522 72.989 7.68173 73.4441 7.68173C74.0685 7.68173 74.4471 7.21606 74.4471 6.63296C74.4471 6.27257 74.3746 5.91218 73.7342 5.46675L73.3152 5.1752C72.4613 4.584 72.1793 4.02924 72.1793 3.30036C72.1793 2.28803 73.001 1.64014 74.004 1.64014C74.4713 1.64014 74.8419 1.71707 75.0312 1.77781C75.0957 1.79806 75.1319 1.82641 75.1319 1.8831C75.1319 1.98838 75.1077 2.22324 75.1077 2.87518C75.1077 3.0493 75.0755 3.13839 75.0191 3.13839C74.9708 3.13839 74.9466 3.0898 74.9466 2.99261C74.9466 2.91567 74.9144 2.66057 74.7573 2.45C74.6485 2.29613 74.4189 2.06127 73.9517 2.06127C73.432 2.06127 72.9648 2.38116 72.9648 2.94402C72.9648 3.31251 73.0816 3.60406 73.7301 4.03329L74.0242 4.22766C74.9788 4.85125 75.2729 5.48295 75.2729 6.22802C75.2729 6.83947 75.0755 7.33754 74.5519 7.77487C74.2054 8.06642 73.7301 8.11501 73.3434 8.11501C72.9245 8.11501 72.4814 8.06642 72.1672 7.9004V7.8923Z" fill="#282828"/>
<path d="M76.6666 4.13861C76.6666 2.88331 76.6666 2.6525 76.6585 2.3893C76.6424 2.10584 76.578 2.02081 76.3484 1.94387C76.292 1.92362 76.1671 1.91553 76.0624 1.91553C75.9899 1.91553 75.9375 1.88718 75.9375 1.82644C75.9375 1.7657 75.9939 1.7495 76.1026 1.7495C76.4813 1.7495 76.9405 1.76975 77.1459 1.76975C77.3755 1.76975 78.9787 1.77785 79.1197 1.76975C79.2526 1.76165 79.3654 1.72926 79.4218 1.72116C79.4621 1.71306 79.5024 1.68066 79.5386 1.68066C79.5789 1.68066 79.5869 1.72116 79.5869 1.7576C79.5869 1.81429 79.5467 1.91148 79.5306 2.29211C79.5225 2.3812 79.5064 2.73754 79.4903 2.83472C79.4822 2.87522 79.4661 2.9724 79.4097 2.9724C79.3614 2.9724 79.3533 2.93191 79.3533 2.86712C79.3533 2.81043 79.3453 2.66465 79.305 2.56747C79.2486 2.42169 79.1882 2.30426 78.8297 2.26782C78.7048 2.24757 77.8428 2.22732 77.6937 2.22732C77.6615 2.22732 77.6454 2.25567 77.6454 2.30426V4.34512C77.6454 4.39371 77.6535 4.43421 77.6937 4.43421C77.8589 4.43421 78.7934 4.43421 78.9586 4.41396C79.1318 4.39371 79.2365 4.37347 79.305 4.28843C79.3614 4.23174 79.3855 4.18315 79.4218 4.18315C79.458 4.18315 79.4782 4.22364 79.4782 4.27223C79.4782 4.32083 79.4621 4.4585 79.4218 4.87558C79.4057 5.04161 79.3896 5.3696 79.3896 5.43034C79.3896 5.49918 79.3815 5.61661 79.3171 5.61661C79.2687 5.61661 79.2526 5.58827 79.2526 5.54777C79.2446 5.45869 79.2446 5.3534 79.2284 5.24812C79.1882 5.0821 79.0955 4.95657 78.8256 4.92823C78.6927 4.90798 77.871 4.88773 77.6897 4.88773C77.6575 4.88773 77.6494 4.92822 77.6494 4.97682V5.63686C77.6494 5.92031 77.6414 6.6168 77.6494 6.85976C77.6656 7.42261 77.8871 7.54814 78.6283 7.54814C78.8176 7.54814 79.1197 7.54004 79.309 7.44286C79.4903 7.34567 79.5708 7.17155 79.6232 6.83141C79.6393 6.74232 79.6554 6.70588 79.7038 6.70588C79.7602 6.70588 79.7682 6.81116 79.7682 6.90025C79.7682 7.08652 79.7118 7.64937 79.6675 7.8154C79.6192 8.03001 79.5507 8.03001 79.2808 8.03001C78.737 8.03001 78.302 8.02191 77.9475 8.00167C77.593 7.99357 77.3232 7.98142 77.1097 7.98142C77.0291 7.98142 76.872 7.98952 76.6988 7.98952C76.5256 7.99762 76.3443 8.00976 76.1993 8.00976C76.1107 8.00976 76.0583 7.98142 76.0583 7.92068C76.0583 7.88019 76.0825 7.83159 76.1752 7.83159C76.2839 7.83159 76.3645 7.82349 76.4289 7.80325C76.578 7.76275 76.6182 7.60888 76.6424 7.36592C76.6746 7.01768 76.6746 6.36574 76.6746 5.60851V4.15075L76.6666 4.13861Z" fill="#282828"/>
<path d="M83.5385 4.13862C83.5385 2.88332 83.5385 2.65251 83.5305 2.38931C83.5144 2.10585 83.4499 2.02082 83.2203 1.94388C83.1639 1.92363 83.039 1.91553 82.9343 1.91553C82.8618 1.91553 82.8094 1.88719 82.8094 1.82645C82.8094 1.76571 82.8658 1.74951 82.9746 1.74951C83.3532 1.74951 83.8124 1.76976 84.0179 1.76976C84.3119 1.76976 84.8879 1.74951 85.2182 1.74951C86.1205 1.74951 86.4508 2.09775 86.5677 2.21518C86.7248 2.38931 86.9302 2.75779 86.9302 3.20727C86.9302 4.37348 86.1407 5.20764 85.1135 5.20764C85.0813 5.20764 84.9323 5.20764 84.9 5.19954C84.8597 5.19954 84.8114 5.17119 84.8114 5.11045C84.8114 5.04162 84.892 5.00517 85.0491 5.00517C85.4519 5.00517 86.0198 4.51115 86.0198 3.66484C86.0198 3.39354 85.9957 2.84688 85.5929 2.44195C85.331 2.17064 85.033 2.13015 84.8718 2.13015C84.7631 2.13015 84.6261 2.13825 84.5576 2.17064C84.5174 2.19089 84.5012 2.23948 84.5012 2.32452V5.60042C84.5012 6.35765 84.5012 7.00959 84.5335 7.36998C84.5576 7.60484 84.5979 7.75871 84.8114 7.79921C84.9202 7.81945 85.0732 7.82755 85.182 7.82755C85.2626 7.82755 85.2988 7.87614 85.2988 7.91664C85.2988 7.97333 85.2424 8.00572 85.1659 8.00572C84.6825 8.00572 84.1709 7.97738 83.9816 7.97738C83.8165 7.97738 83.3573 8.00572 83.0713 8.00572C82.9827 8.00572 82.9303 7.97738 82.9303 7.91664C82.9303 7.87614 82.9545 7.82755 83.0471 7.82755C83.1559 7.82755 83.2364 7.81945 83.3009 7.79921C83.4499 7.75871 83.4902 7.60484 83.5144 7.36188C83.5466 7.01364 83.5466 6.3617 83.5466 5.60447V4.14671L83.5385 4.13862Z" fill="#282828"/>
<path d="M88.2716 4.13861C88.2716 2.88331 88.2716 2.6525 88.2635 2.3893C88.2474 2.10584 88.1829 2.02081 87.9533 1.94387C87.897 1.92362 87.7721 1.91553 87.6674 1.91553C87.5948 1.91553 87.5425 1.88718 87.5425 1.82644C87.5425 1.7657 87.5989 1.7495 87.7076 1.7495C88.0863 1.7495 88.5455 1.76975 88.7509 1.76975C88.9805 1.76975 90.5837 1.77785 90.7247 1.76975C90.8576 1.76165 90.9704 1.72926 91.0268 1.72116C91.0671 1.71306 91.1073 1.68066 91.1436 1.68066C91.1839 1.68066 91.1919 1.72116 91.1919 1.7576C91.1919 1.81429 91.1516 1.91148 91.1355 2.29211C91.1275 2.3812 91.1114 2.73754 91.0953 2.83472C91.0872 2.87522 91.0711 2.9724 91.0147 2.9724C90.9664 2.9724 90.9583 2.93191 90.9583 2.86712C90.9583 2.81043 90.9502 2.66465 90.91 2.56747C90.8536 2.42169 90.7931 2.30426 90.4346 2.26782C90.3098 2.24757 89.4478 2.22732 89.2987 2.22732C89.2665 2.22732 89.2504 2.25567 89.2504 2.30426V4.34512C89.2504 4.39371 89.2584 4.43421 89.2987 4.43421C89.4639 4.43421 90.3984 4.43421 90.5635 4.41396C90.7368 4.39371 90.8415 4.37347 90.91 4.28843C90.9664 4.23174 90.9905 4.18315 91.0268 4.18315C91.063 4.18315 91.0832 4.22364 91.0832 4.27223C91.0832 4.32083 91.0671 4.4585 91.0268 4.87558C91.0107 5.04161 90.9946 5.3696 90.9946 5.43034C90.9946 5.49918 90.9865 5.61661 90.922 5.61661C90.8737 5.61661 90.8576 5.58827 90.8576 5.54777C90.8495 5.45869 90.8495 5.3534 90.8334 5.24812C90.7931 5.0821 90.7005 4.95657 90.4306 4.92823C90.2977 4.90798 89.476 4.88773 89.2947 4.88773C89.2625 4.88773 89.2544 4.92822 89.2544 4.97682V5.63686C89.2544 5.92031 89.2464 6.6168 89.2544 6.85976C89.2705 7.42261 89.4921 7.54814 90.2332 7.54814C90.4226 7.54814 90.7247 7.54004 90.914 7.44286C91.0953 7.34567 91.1758 7.17155 91.2282 6.83141C91.2443 6.74232 91.2604 6.70588 91.3087 6.70588C91.3651 6.70588 91.3732 6.81116 91.3732 6.90025C91.3732 7.08652 91.3168 7.64937 91.2725 7.8154C91.2242 8.03001 91.1557 8.03001 90.8858 8.03001C90.342 8.03001 89.907 8.02191 89.5525 8.00167C89.198 7.99357 88.9281 7.98142 88.7147 7.98142C88.6341 7.98142 88.477 7.98952 88.3038 7.98952C88.1306 7.99762 87.9493 8.00976 87.8043 8.00976C87.7157 8.00976 87.6633 7.98142 87.6633 7.92068C87.6633 7.88019 87.6875 7.83159 87.7801 7.83159C87.8889 7.83159 87.9695 7.82349 88.0339 7.80325C88.1829 7.76275 88.2232 7.60888 88.2474 7.36592C88.2796 7.01768 88.2796 6.36574 88.2796 5.60851V4.15075L88.2716 4.13861Z" fill="#282828"/>
<path d="M92.6743 4.13862C92.6743 2.88332 92.6743 2.65251 92.6662 2.38931C92.6501 2.10585 92.5857 2.02082 92.3561 1.94388C92.2997 1.92363 92.1748 1.91553 92.0701 1.91553C91.9976 1.91553 91.9452 1.88719 91.9452 1.82645C91.9452 1.76571 92.0016 1.74951 92.1103 1.74951C92.489 1.74951 92.9482 1.76976 93.0972 1.76976C93.3429 1.76976 93.9995 1.74951 94.2211 1.74951C94.6803 1.74951 95.2079 1.7981 95.5946 2.09775C95.8001 2.26378 96.1062 2.68086 96.1062 3.23562C96.1062 3.84706 95.8122 4.39372 95.1032 5.06186C95.7437 5.99321 96.2552 6.74233 96.6903 7.2566C97.0931 7.73442 97.3469 7.77086 97.4637 7.79921C97.5362 7.81946 97.5805 7.81945 97.6369 7.81945C97.6933 7.81945 97.7255 7.86805 97.7255 7.90854C97.7255 7.97738 97.6772 7.99763 97.5845 7.99763H96.8957C96.4929 7.99763 96.2955 7.94903 96.1062 7.8316C95.792 7.64533 95.5221 7.2566 95.1193 6.6168C94.8333 6.17138 94.5272 5.61662 94.4386 5.49109C94.3983 5.4425 94.358 5.4344 94.3057 5.4344L93.6571 5.41415C93.6249 5.41415 93.6007 5.4344 93.6007 5.48299V5.60042C93.6007 6.3698 93.6088 7.00959 93.641 7.35783C93.6652 7.60079 93.6974 7.75467 93.919 7.79516C94.0237 7.81541 94.1808 7.8235 94.2734 7.8235C94.3298 7.8235 94.362 7.8721 94.362 7.91259C94.362 7.96928 94.3057 8.00167 94.213 8.00167C93.7941 8.00167 93.1939 7.97333 93.0892 7.97333C92.9482 7.97333 92.489 8.00167 92.203 8.00167C92.1144 8.00167 92.062 7.97333 92.062 7.91259C92.062 7.8721 92.0862 7.8235 92.1788 7.8235C92.2836 7.8235 92.3681 7.81541 92.4326 7.79516C92.5816 7.75467 92.6219 7.60079 92.6461 7.35783C92.6783 7.00959 92.6783 6.35765 92.6783 5.60042V4.14266L92.6743 4.13862ZM93.5967 4.78246C93.5967 4.87154 93.6128 4.89989 93.6612 4.92823C93.8183 4.98493 94.0317 5.00517 94.213 5.00517C94.499 5.00517 94.5997 4.97683 94.7205 4.86749C94.9421 4.68123 95.1878 4.32488 95.1878 3.6446C95.1878 2.47839 94.5151 2.17874 94.0881 2.17874C93.9069 2.17874 93.7337 2.18684 93.6612 2.20709C93.6128 2.22733 93.5967 2.25568 93.5967 2.32452V4.78246Z" fill="#282828"/>
<path d="M101.419 5.60028C101.419 6.6612 101.419 7.18357 101.576 7.34149C101.701 7.46702 101.979 7.51561 102.539 7.51561C102.926 7.51561 103.204 7.50751 103.385 7.28075C103.474 7.17547 103.55 6.94061 103.566 6.78673C103.574 6.70979 103.59 6.6612 103.647 6.6612C103.695 6.6612 103.711 6.75029 103.711 6.84747C103.711 6.94466 103.663 7.5561 103.602 7.79906C103.554 7.98533 103.522 8.02178 103.143 8.02178C102.624 8.02178 102.205 8.01368 101.846 7.99343C101.484 7.98533 101.182 7.97319 100.883 7.97319C100.803 7.97319 100.646 7.98128 100.473 7.98128C100.299 7.98938 100.118 8.00153 99.9731 8.00153C99.8845 8.00153 99.8322 7.97319 99.8322 7.91245C99.8322 7.87195 99.8563 7.82336 99.949 7.82336C100.058 7.82336 100.138 7.81526 100.203 7.79501C100.352 7.75452 100.392 7.60065 100.416 7.35769C100.448 7.00945 100.448 6.3575 100.448 5.60028V4.14252C100.448 2.88723 100.448 2.65642 100.44 2.39321C100.424 2.10976 100.36 2.02472 100.13 1.94779C100.074 1.92754 99.9812 1.91944 99.8926 1.91944C99.812 1.91944 99.7677 1.8911 99.7677 1.83036C99.7677 1.76962 99.816 1.75342 99.9248 1.75342C100.263 1.75342 100.722 1.77366 100.92 1.77366C101.093 1.77366 101.685 1.75342 101.963 1.75342C102.072 1.75342 102.12 1.77366 102.12 1.83036C102.12 1.88705 102.08 1.91944 101.987 1.91944C101.907 1.91944 101.79 1.92754 101.709 1.94779C101.512 1.98828 101.455 2.10166 101.439 2.39321C101.423 2.65642 101.423 2.88723 101.423 4.14252V5.60028H101.419Z" fill="#282828"/>
<path d="M103.989 0.251058C103.909 0.153874 103.901 0.125529 103.901 0.0769372C103.901 0.0485919 103.949 0 103.989 0C104.154 0 104.517 0.125529 104.67 0.186269C104.875 0.255108 104.908 0.323946 104.908 0.469722C104.908 1.06092 104.372 2.1016 104.005 2.55108C103.957 2.60777 103.925 2.62801 103.872 2.62801C103.848 2.62801 103.824 2.60777 103.824 2.57132C103.824 2.55108 103.832 2.52273 103.864 2.44579C104.013 2.10565 104.182 1.53065 104.182 0.931346C104.182 0.611449 104.058 0.348242 103.985 0.259157L103.989 0.251058Z" fill="#282828"/>
<path d="M106.595 5.92021C106.555 5.92021 106.547 5.92831 106.531 5.9769L106.144 7.08641C106.072 7.28888 106.039 7.4954 106.039 7.59258C106.039 7.73836 106.104 7.82744 106.325 7.82744H106.43C106.519 7.82744 106.539 7.86793 106.539 7.91653C106.539 7.98536 106.499 8.00561 106.422 8.00561C106.184 8.00561 105.846 7.97727 105.617 7.97727C105.544 7.97727 105.157 8.00561 104.779 8.00561C104.69 8.00561 104.646 7.98536 104.646 7.91653C104.646 7.86793 104.67 7.82744 104.726 7.82744C104.791 7.82744 104.875 7.81934 104.94 7.81934C105.27 7.76265 105.391 7.50754 105.54 7.09046L107.429 1.89113C107.51 1.65627 107.57 1.55908 107.643 1.55908C107.751 1.55908 107.784 1.63602 107.856 1.82229C108.029 2.27986 109.238 5.66105 109.697 6.91634C109.975 7.66547 110.18 7.77075 110.313 7.7991C110.418 7.81934 110.503 7.82744 110.583 7.82744C110.648 7.82744 110.684 7.85579 110.684 7.91653C110.684 7.98536 110.644 8.00561 110.37 8.00561C110.116 8.00561 109.588 8.00561 108.98 7.98536C108.847 7.97727 108.766 7.97727 108.766 7.91653C108.766 7.86793 108.783 7.83959 108.855 7.82744C108.903 7.81934 108.956 7.73836 108.92 7.64117L108.36 5.98095C108.344 5.93236 108.319 5.92426 108.287 5.92426H106.587L106.595 5.92021ZM108.142 5.46263C108.174 5.46263 108.182 5.44239 108.174 5.41404L107.494 3.31649C107.486 3.28814 107.477 3.23955 107.461 3.23955C107.437 3.23955 107.429 3.28814 107.421 3.31649L106.724 5.40594C106.708 5.44644 106.724 5.46263 106.748 5.46263H108.146H108.142Z" fill="#282828"/>
<path d="M113.516 7.47511C114.257 7.47511 114.511 7.30099 114.631 7.04588C114.688 6.92035 114.74 6.78267 114.764 6.66524C114.78 6.57616 114.797 6.52757 114.845 6.52757C114.901 6.52757 114.917 6.58426 114.917 6.77863C114.917 7.04993 114.829 7.58444 114.776 7.79096C114.736 7.93673 114.688 8.00557 114.555 8.00557C113.346 8.00557 112.122 7.96508 110.66 7.96508C110.579 7.96508 110.535 7.93673 110.535 7.87599C110.535 7.8274 110.543 7.77881 110.623 7.63303C111.643 5.81489 112.694 3.94814 113.665 2.24743H112.299C111.929 2.24743 111.502 2.24743 111.272 2.3932C111.034 2.54708 110.901 2.83053 110.885 3.0249C110.869 3.14233 110.837 3.17067 110.797 3.17067C110.748 3.17067 110.724 3.13018 110.724 3.033C110.724 2.83863 110.833 2.0895 110.873 1.83844C110.881 1.72101 110.913 1.68457 110.954 1.68457C111.018 1.68457 111.062 1.73316 111.24 1.74126C111.929 1.76961 112.275 1.76151 112.569 1.76151H114.797C114.869 1.76151 114.921 1.78985 114.921 1.83035C114.921 1.89918 114.905 1.92753 114.881 1.98422C113.878 3.83881 112.795 5.7258 111.775 7.46701H113.508L113.516 7.47511Z" fill="#282828"/>
<path d="M116.283 4.13827C116.283 2.88298 116.283 2.65217 116.275 2.38896C116.259 2.10551 116.186 2.00832 116.029 1.95163C115.949 1.92329 115.856 1.91114 115.767 1.91114C115.695 1.91114 115.651 1.89089 115.651 1.81396C115.651 1.76536 115.707 1.74512 115.824 1.74512C116.094 1.74512 116.589 1.76536 116.795 1.76536C116.976 1.76536 117.443 1.74512 117.725 1.74512C117.814 1.74512 117.874 1.76536 117.874 1.81396C117.874 1.89089 117.834 1.91114 117.757 1.91114C117.681 1.91114 117.624 1.91924 117.544 1.93948C117.346 1.97998 117.29 2.09336 117.274 2.38491C117.258 2.64812 117.258 2.87893 117.258 4.13422V5.59198C117.258 6.3897 117.258 7.04974 117.29 7.39798C117.314 7.62069 117.362 7.74622 117.576 7.78672C117.677 7.80696 117.838 7.81506 117.947 7.81506C118.027 7.81506 118.063 7.86365 118.063 7.90415C118.063 7.96084 118.007 7.99323 117.922 7.99323C117.447 7.99323 116.952 7.96489 116.754 7.96489C116.589 7.96489 116.098 7.99323 115.808 7.99323C115.719 7.99323 115.667 7.96489 115.667 7.90415C115.667 7.86365 115.691 7.81506 115.783 7.81506C115.892 7.81506 115.973 7.80696 116.037 7.78672C116.186 7.74622 116.227 7.63284 116.251 7.38988C116.283 7.04974 116.283 6.3897 116.283 5.59198V4.13422V4.13827Z" fill="#282828"/>
<path d="M119.465 4.13861C119.465 2.88331 119.465 2.6525 119.457 2.3893C119.441 2.10584 119.377 2.02081 119.147 1.94387C119.091 1.92362 118.966 1.91553 118.861 1.91553C118.788 1.91553 118.736 1.88718 118.736 1.82644C118.736 1.7657 118.792 1.7495 118.901 1.7495C119.28 1.7495 119.739 1.76975 119.945 1.76975C120.174 1.76975 121.777 1.77785 121.918 1.76975C122.051 1.76165 122.164 1.72926 122.22 1.72116C122.261 1.71306 122.301 1.68066 122.337 1.68066C122.377 1.68066 122.386 1.72116 122.386 1.7576C122.386 1.81429 122.345 1.91148 122.329 2.29211C122.321 2.3812 122.305 2.73754 122.289 2.83472C122.281 2.87522 122.265 2.9724 122.208 2.9724C122.16 2.9724 122.152 2.93191 122.152 2.86712C122.152 2.81043 122.144 2.66465 122.104 2.56747C122.047 2.42169 121.987 2.30426 121.628 2.26782C121.503 2.24757 120.641 2.22732 120.492 2.22732C120.46 2.22732 120.444 2.25567 120.444 2.30426V4.34512C120.444 4.39371 120.452 4.43421 120.492 4.43421C120.657 4.43421 121.592 4.43421 121.757 4.41396C121.93 4.39371 122.035 4.37347 122.104 4.28843C122.16 4.23174 122.184 4.18315 122.22 4.18315C122.257 4.18315 122.277 4.22364 122.277 4.27223C122.277 4.32083 122.261 4.4585 122.22 4.87558C122.204 5.04161 122.188 5.3696 122.188 5.43034C122.188 5.49918 122.18 5.61661 122.116 5.61661C122.067 5.61661 122.051 5.58827 122.051 5.54777C122.043 5.45869 122.043 5.3534 122.027 5.24812C121.987 5.0821 121.894 4.95657 121.624 4.92823C121.491 4.90798 120.67 4.88773 120.488 4.88773C120.456 4.88773 120.448 4.92822 120.448 4.97682V5.63686C120.448 5.92031 120.44 6.6168 120.448 6.85976C120.464 7.42261 120.686 7.54814 121.427 7.54814C121.616 7.54814 121.918 7.54004 122.108 7.44286C122.289 7.34567 122.369 7.17155 122.422 6.83141C122.438 6.74232 122.454 6.70588 122.502 6.70588C122.559 6.70588 122.567 6.81116 122.567 6.90025C122.567 7.08652 122.51 7.64937 122.466 7.8154C122.418 8.03001 122.349 8.03001 122.079 8.03001C121.536 8.03001 121.101 8.02191 120.746 8.00167C120.392 7.99357 120.122 7.98142 119.908 7.98142C119.828 7.98142 119.671 7.98952 119.497 7.98952C119.324 7.99762 119.143 8.00976 118.998 8.00976C118.909 8.00976 118.857 7.98142 118.857 7.92068C118.857 7.88019 118.881 7.83159 118.974 7.83159C119.082 7.83159 119.163 7.82349 119.228 7.80325C119.377 7.76275 119.417 7.60888 119.441 7.36592C119.473 7.01768 119.473 6.36574 119.473 5.60851V4.15075L119.465 4.13861Z" fill="#282828"/>
<path d="M124.319 6.87183C124.335 7.51163 124.428 7.706 124.565 7.76674C124.689 7.81533 124.826 7.82343 124.943 7.82343C125.024 7.82343 125.068 7.86392 125.068 7.91251C125.068 7.98135 125.004 8.0016 124.903 8.0016C124.436 8.0016 124.097 7.97325 123.964 7.97325C123.9 7.97325 123.554 8.0016 123.183 8.0016C123.086 8.0016 123.018 7.9935 123.018 7.91251C123.018 7.86392 123.066 7.82343 123.135 7.82343C123.235 7.82343 123.364 7.81533 123.465 7.78293C123.654 7.72624 123.678 7.49948 123.686 6.78275L123.751 1.88306C123.751 1.71704 123.799 1.59961 123.876 1.59961C123.964 1.59961 124.065 1.72514 124.19 1.87091C124.279 1.9762 125.366 3.28818 126.418 4.50298C126.909 5.07798 127.872 6.24419 127.98 6.35757H128.013L127.94 2.68483C127.932 2.17866 127.868 2.03289 127.694 1.95595C127.59 1.90736 127.417 1.90736 127.316 1.90736C127.227 1.90736 127.199 1.86686 127.199 1.81827C127.199 1.74943 127.271 1.74134 127.38 1.74134C127.759 1.74134 128.146 1.76158 128.299 1.76158C128.379 1.76158 128.653 1.74134 129.004 1.74134C129.104 1.74134 129.169 1.74943 129.169 1.81827C129.169 1.86686 129.128 1.90736 129.044 1.90736C128.971 1.90736 128.911 1.90736 128.822 1.9357C128.625 2.00454 128.569 2.15032 128.56 2.61599L128.48 7.82748C128.48 8.01374 128.424 8.09068 128.363 8.09068C128.238 8.09068 128.142 8.0016 128.069 7.91656C127.618 7.42254 126.712 6.40211 125.958 5.53556C125.169 4.64065 124.403 3.64047 124.267 3.49469H124.242L124.323 6.86778L124.319 6.87183Z" fill="#282828"/>
<path d="M130.615 4.13862C130.615 2.88332 130.615 2.65251 130.607 2.38931C130.591 2.10585 130.526 2.02082 130.297 1.94388C130.24 1.92363 130.115 1.91553 130.011 1.91553C129.938 1.91553 129.886 1.88719 129.886 1.82645C129.886 1.76571 129.942 1.74951 130.051 1.74951C130.43 1.74951 130.889 1.76976 131.094 1.76976C131.316 1.76976 131.835 1.74951 132.27 1.74951C133.173 1.74951 134.389 1.74951 135.179 2.69301C135.541 3.12223 135.859 3.81062 135.859 4.79056C135.859 5.83123 135.481 6.6168 135.07 7.09462C134.74 7.48336 133.978 8.06646 132.645 8.06646C132.383 8.06646 132.069 8.03812 131.783 8.01787C131.497 7.98953 131.231 7.96928 131.05 7.96928C130.969 7.96928 130.812 7.97738 130.639 7.97738C130.466 7.98548 130.285 7.99762 130.14 7.99762C130.051 7.99762 129.999 7.96928 129.999 7.90854C129.999 7.86805 130.023 7.81945 130.115 7.81945C130.22 7.81945 130.305 7.81136 130.369 7.79111C130.518 7.75062 130.558 7.59674 130.583 7.35378C130.615 7.00554 130.615 6.3536 130.615 5.59637V4.13862ZM131.586 5.05376C131.586 5.92842 131.594 6.56011 131.602 6.72614C131.61 6.9286 131.626 7.22015 131.682 7.30924C131.771 7.46311 132.061 7.64128 132.629 7.64128C133.285 7.64128 133.773 7.50361 134.208 7.07843C134.675 6.62085 134.824 5.88388 134.824 5.02947C134.824 3.98069 134.47 3.3004 134.151 2.96836C133.487 2.26783 132.697 2.18279 132.129 2.18279C131.98 2.18279 131.743 2.20304 131.686 2.23948C131.622 2.26783 131.598 2.30832 131.598 2.4055C131.59 2.68896 131.59 3.36924 131.59 4.01714V5.05781L131.586 5.05376Z" fill="#282828"/>
<path d="M137.591 5.92021C137.551 5.92021 137.543 5.92831 137.527 5.9769L137.14 7.08641C137.068 7.28888 137.036 7.4954 137.036 7.59258C137.036 7.73836 137.1 7.82744 137.322 7.82744H137.426C137.515 7.82744 137.535 7.86793 137.535 7.91653C137.535 7.98536 137.495 8.00561 137.418 8.00561C137.181 8.00561 136.842 7.97727 136.613 7.97727C136.54 7.97727 136.153 8.00561 135.775 8.00561C135.686 8.00561 135.642 7.98536 135.642 7.91653C135.642 7.86793 135.666 7.82744 135.722 7.82744C135.787 7.82744 135.871 7.81934 135.936 7.81934C136.266 7.76265 136.387 7.50754 136.536 7.09046L138.425 1.89113C138.506 1.65627 138.566 1.55908 138.639 1.55908C138.748 1.55908 138.78 1.63602 138.852 1.82229C139.025 2.27986 140.234 5.66105 140.693 6.91634C140.971 7.66547 141.176 7.77075 141.309 7.7991C141.414 7.81934 141.499 7.82744 141.579 7.82744C141.644 7.82744 141.68 7.85579 141.68 7.91653C141.68 7.98536 141.64 8.00561 141.366 8.00561C141.112 8.00561 140.584 8.00561 139.976 7.98536C139.843 7.97727 139.763 7.97727 139.763 7.91653C139.763 7.86793 139.779 7.83959 139.851 7.82744C139.9 7.81934 139.952 7.73836 139.916 7.64117L139.356 5.98095C139.34 5.93236 139.315 5.92426 139.283 5.92426H137.583L137.591 5.92021ZM139.134 5.46263C139.166 5.46263 139.174 5.44239 139.166 5.41404L138.486 3.31649C138.478 3.28814 138.47 3.23955 138.453 3.23955C138.429 3.23955 138.421 3.28814 138.413 3.31649L137.716 5.40594C137.7 5.44644 137.716 5.46263 137.74 5.46263H139.138H139.134Z" fill="#282828"/>
<path d="M8.01986 53.6576C25.2802 59.6547 48.2283 63.3031 73.3917 63.2869C99.9489 63.2869 123.977 59.2376 141.515 52.6655L141.636 52.6777C125.423 60.8128 101.053 65.9959 73.7704 66.004C47.3743 66.004 23.6489 61.1448 7.44385 53.4592L8.01584 53.6617L8.01986 53.6576Z" fill="#282828"/>
</svg>
