<svg preserveAspectRatio="none" width="100%" height="100%" overflow="visible" style="display: block;" viewBox="0 0 152 66" fill="none" xmlns="http://www.w3.org/2000/svg">
<g id="Cisita">
<g id="Group">
<path id="Vector" d="M5.1479 38.4441C1.02313 35.063 0 30.6289 0 26.9319C0 24.3282 0.978826 19.7767 4.76523 16.3146C7.31904 13.9822 11.19 12.1519 17.7437 12.1519C19.4476 12.1519 21.8282 12.2693 23.9148 12.6175C25.53 12.8888 26.8915 13.1237 28.253 13.2006C28.7203 13.2411 28.8049 13.395 28.8049 13.6299C28.8049 13.9417 28.676 14.4073 28.5914 15.8084C28.5068 17.092 28.5068 19.2301 28.4625 19.8132C28.4182 20.3963 28.3336 20.6311 28.0798 20.6311C27.7817 20.6311 27.7374 20.3598 27.7374 19.8132C27.7374 18.2947 27.0567 16.7033 25.949 15.8448C24.4586 14.6786 21.1837 13.6299 17.4376 13.6299C11.7781 13.6299 9.13974 15.1484 7.64934 16.4684C4.54369 19.1896 3.81863 22.6518 3.81863 26.6201C3.81863 34.0466 10.0743 40.8535 19.1777 40.8535C22.368 40.8535 24.8815 40.5052 26.5814 38.9098C27.4756 38.0554 28.0275 36.3425 28.1564 35.642C28.2409 35.2128 28.3255 35.0589 28.5833 35.0589C28.7968 35.0589 28.8814 35.3302 28.8814 35.642C28.8814 35.9133 28.3698 39.2986 27.9469 40.6186C27.6931 41.3556 27.6045 41.4366 26.8392 41.7484C25.1353 42.372 21.9048 42.6433 19.1818 42.6433C12.7972 42.6433 8.5033 41.2058 5.13984 38.4441H5.1479Z" fill="var(--fill-0, #282828)"/>
<path id="Vector_2" d="M42.6816 30.8233C42.6816 34.5568 42.6816 37.6302 42.8951 39.2621C43.024 40.3919 43.2778 41.2463 44.5547 41.4001C45.1509 41.4771 46.0854 41.554 46.4681 41.554C46.7218 41.554 46.8064 41.6715 46.8064 41.7889C46.8064 41.9833 46.5929 42.1007 46.1257 42.1007C43.7853 42.1007 41.1026 41.9833 40.8932 41.9833C40.6837 41.9833 38.001 42.1007 36.7241 42.1007C36.2568 42.1007 36.0434 42.0237 36.0434 41.7889C36.0434 41.6715 36.1279 41.554 36.3857 41.554C36.7684 41.554 37.28 41.4771 37.6626 41.4001C38.5126 41.2463 38.7261 40.3878 38.8952 39.2621C39.1087 37.6302 39.1087 34.5568 39.1087 30.8233V23.9799C39.1087 17.9141 39.1087 16.8248 39.0241 15.5816C38.9395 14.2575 38.5126 13.5975 37.5781 13.4031C37.1108 13.2857 36.5549 13.2492 36.2609 13.2492C36.0917 13.2492 35.9185 13.1723 35.9185 13.0144C35.9185 12.7795 36.132 12.7026 36.5992 12.7026C38.005 12.7026 40.6837 12.82 40.8972 12.82C41.1107 12.82 43.7894 12.7026 45.0663 12.7026C45.5335 12.7026 45.747 12.7795 45.747 13.0144C45.747 13.1682 45.5778 13.2492 45.4046 13.2492C45.1066 13.2492 44.8528 13.2897 44.3412 13.3667C43.1932 13.561 42.8508 14.2211 42.7662 15.5816C42.6816 16.8248 42.6816 17.9141 42.6816 23.9799V30.8233Z" fill="var(--fill-0, #282828)"/>
<path id="Vector_3" d="M55.1083 41.5945C54.5121 41.3232 54.4719 41.1652 54.4719 40.1165C54.4719 38.1728 54.641 36.6178 54.6854 35.9942C54.7297 35.565 54.8143 35.3706 55.0237 35.3706C55.2775 35.3706 55.3218 35.4881 55.3218 35.7999C55.3218 36.1481 55.3218 36.6948 55.4507 37.2374C56.0871 40.1165 58.8987 41.2057 61.7466 41.2057C65.8311 41.2057 67.833 38.521 67.833 36.0347C67.833 33.35 66.6004 31.7951 62.9389 29.0334L61.0256 27.5959C56.5141 24.2107 55.495 21.8013 55.495 19.1571C55.495 14.9944 58.8987 12.1558 64.3044 12.1558C65.964 12.1558 67.1966 12.3097 68.26 12.5446C69.0697 12.6985 69.408 12.7389 69.7504 12.7389C70.0928 12.7389 70.1774 12.8159 70.1774 13.0103C70.1774 13.2046 70.0082 14.4883 70.0082 17.1325C70.0082 17.7561 69.9236 18.0274 69.7101 18.0274C69.4564 18.0274 69.4121 17.833 69.3677 17.5212C69.3234 17.0555 69.0697 16.0027 68.8159 15.5775C68.5621 15.1483 67.4101 13.5164 63.4948 13.5164C60.5583 13.5164 58.2623 15.1888 58.2623 18.0274C58.2623 20.2424 59.37 21.6434 63.4545 24.5589L64.6468 25.4133C69.6658 29.0294 70.8581 31.4428 70.8581 34.5527C70.8581 36.1481 70.1774 39.1041 67.2409 41.0073C65.4122 42.1735 63.1121 42.6392 60.8161 42.6392C58.8182 42.6392 56.8605 42.3679 55.1123 41.5904L55.1083 41.5945Z" fill="var(--fill-0, #282828)"/>
<path id="Vector_4" d="M85.6614 30.8233C85.6614 34.5568 85.6614 37.6302 85.8749 39.2621C86.0038 40.3919 86.2575 41.2463 87.5344 41.4001C88.1306 41.4771 89.0651 41.554 89.4478 41.554C89.7016 41.554 89.7902 41.6715 89.7902 41.7889C89.7902 41.9833 89.5767 42.1007 89.1094 42.1007C86.7691 42.1007 84.0904 41.9833 83.8769 41.9833C83.6634 41.9833 80.9848 42.1007 79.7079 42.1007C79.2406 42.1007 79.0271 42.0237 79.0271 41.7889C79.0271 41.6715 79.1117 41.554 79.3695 41.554C79.7522 41.554 80.2637 41.4771 80.6464 41.4001C81.4963 41.2463 81.7098 40.3878 81.879 39.2621C82.0925 37.6302 82.0925 34.5568 82.0925 30.8233V23.9799C82.0925 17.9141 82.0925 16.8248 82.0079 15.5816C81.9233 14.2575 81.4963 13.5975 80.5618 13.4031C80.0946 13.2857 79.5387 13.2492 79.2446 13.2492C79.0755 13.2492 78.9063 13.1723 78.9063 13.0144C78.9063 12.7795 79.1198 12.7026 79.587 12.7026C80.9928 12.7026 83.6715 12.82 83.885 12.82C84.0985 12.82 86.7772 12.7026 88.0541 12.7026C88.5213 12.7026 88.7348 12.7795 88.7348 13.0144C88.7348 13.1682 88.5656 13.2492 88.3965 13.2492C88.0984 13.2492 87.8446 13.2897 87.333 13.3667C86.185 13.561 85.8426 14.2211 85.7581 15.5816C85.6735 16.8248 85.6735 17.9141 85.6735 23.9799V30.8233H85.6614Z" fill="var(--fill-0, #282828)"/>
<path id="Vector_5" d="M109.874 30.8232C109.874 34.5567 109.874 37.6301 110.088 39.262C110.217 40.3917 110.47 41.2462 111.747 41.4C112.343 41.477 113.278 41.5539 113.661 41.5539C113.914 41.5539 114.003 41.6713 114.003 41.7888C114.003 41.9831 113.79 42.1006 113.322 42.1006C110.982 42.1006 108.303 41.9831 108.09 41.9831C107.876 41.9831 105.198 42.1006 103.921 42.1006C103.453 42.1006 103.24 42.0236 103.24 41.7888C103.24 41.6713 103.325 41.5539 103.582 41.5539C103.965 41.5539 104.477 41.477 104.859 41.4C105.709 41.2462 105.923 40.3877 106.092 39.262C106.305 37.6301 106.305 34.5567 106.305 30.8232V14.3748L100.009 14.4518C97.371 14.4922 96.3519 14.7635 95.6712 15.6949C95.2039 16.3549 95.075 16.6303 94.9461 16.9016C94.8172 17.2134 94.6924 17.2903 94.5191 17.2903C94.3902 17.2903 94.3057 17.1729 94.3057 16.9421C94.3057 16.5534 95.1556 13.2086 95.2402 12.8968C95.3248 12.6619 95.4939 12.1598 95.6672 12.1598C95.9652 12.1598 96.3922 12.5486 97.5402 12.6255C98.7728 12.7429 100.392 12.8199 100.904 12.8199H116.859C118.22 12.8199 119.199 12.7429 119.88 12.6255C120.516 12.5486 120.903 12.4311 121.072 12.4311C121.286 12.4311 121.286 12.666 121.286 12.8968C121.286 14.063 121.157 16.7477 121.157 17.1729C121.157 17.5211 121.028 17.6791 120.859 17.6791C120.645 17.6791 120.561 17.5616 120.516 17.019L120.472 16.5898C120.343 15.4236 119.324 14.5287 115.24 14.4518L109.878 14.3748V30.8232H109.874Z" fill="var(--fill-0, #282828)"/>
<path id="Vector_6" d="M134.425 13.6743C134.937 12.3907 135.106 12.1558 135.36 12.1558C135.614 12.1558 135.787 12.3502 136.294 13.5569C136.931 15.0349 143.614 31.0946 146.208 37.0066C147.738 40.4687 148.975 41.0883 149.865 41.3232C150.502 41.5175 151.142 41.558 151.569 41.558C151.823 41.558 151.996 41.5985 151.996 41.7929C151.996 42.0277 151.613 42.1047 151.146 42.1047C150.51 42.1047 147.4 42.1047 144.467 42.0277C143.658 41.9872 143.191 41.9872 143.191 41.7564C143.191 41.6026 143.319 41.5216 143.489 41.4851C143.742 41.4082 144 41.0559 143.742 40.4363L139.787 30.8678C139.702 30.7139 139.618 30.6329 139.404 30.6329H130.256C130.043 30.6329 129.914 30.7504 129.829 30.9447L127.276 37.8286C126.893 38.8004 126.679 39.7358 126.679 40.4323C126.679 41.2098 127.574 41.5621 128.295 41.5621H128.722C129.02 41.5621 129.149 41.639 129.149 41.7969C129.149 42.0318 128.895 42.1087 128.512 42.1087C127.489 42.1087 125.66 41.9913 125.193 41.9913C124.726 41.9913 122.385 42.1087 120.384 42.1087C119.832 42.1087 119.574 42.0318 119.574 41.7969C119.574 41.643 119.743 41.5621 119.957 41.5621C120.255 41.5621 120.851 41.5216 121.189 41.4851C123.147 41.2503 123.997 39.7723 124.762 37.8286L134.421 13.6784L134.425 13.6743ZM138.852 29.2278C139.066 29.2278 139.066 29.1104 139.022 28.9565L134.977 18.4566C134.764 17.8735 134.55 17.8735 134.341 18.4566L130.595 28.9565C130.51 29.1509 130.595 29.2278 130.724 29.2278H138.852Z" fill="var(--fill-0, #282828)"/>
</g>
<g id="Group_2">
<path id="Vector_7" d="M32.4825 49.7988C32.4825 48.1993 32.4825 47.9037 32.4623 47.5676C32.4422 47.2113 32.3616 47.0412 32.0354 46.9683C31.9548 46.9481 31.7856 46.9359 31.6487 46.9359C31.5399 46.9359 31.4795 46.9157 31.4795 46.8428C31.4795 46.7699 31.548 46.7497 31.697 46.7497C32.2247 46.7497 32.8531 46.782 33.131 46.782C33.5378 46.782 34.1179 46.7497 34.5731 46.7497C35.8177 46.7497 36.2649 47.191 36.422 47.349C36.6395 47.5717 36.9214 48.0454 36.9214 48.6002C36.9214 50.0944 35.8862 51.1472 34.4724 51.1472C34.424 51.1472 34.3153 51.1472 34.2629 51.1351C34.2146 51.1229 34.1421 51.1148 34.1421 51.0419C34.1421 50.9569 34.2105 50.9245 34.42 50.9245C34.9759 50.9245 35.7533 50.2604 35.7533 49.1874C35.7533 48.8391 35.7251 48.1345 35.1652 47.6081C34.8067 47.2599 34.3999 47.1991 34.1703 47.1991C34.0212 47.1991 33.8722 47.2113 33.7836 47.2396C33.7352 47.2599 33.703 47.3247 33.703 47.438V51.6493C33.703 52.6171 33.703 53.4513 33.7513 53.9008C33.7795 54.1964 33.84 54.4272 34.138 54.4677C34.279 54.4879 34.4965 54.5082 34.6456 54.5082C34.7543 54.5082 34.8027 54.5406 34.8027 54.5932C34.8027 54.6661 34.7221 54.6985 34.6133 54.6985C33.9568 54.6985 33.3284 54.6661 33.0706 54.6661C32.841 54.6661 32.2166 54.6985 31.8178 54.6985C31.6889 54.6985 31.6205 54.6661 31.6205 54.5932C31.6205 54.5406 31.6608 54.5082 31.7816 54.5082C31.9306 54.5082 32.0515 54.4879 32.1401 54.4677C32.3375 54.4272 32.3898 54.1923 32.4301 53.8886C32.4785 53.4472 32.4785 52.6131 32.4785 51.6453V49.7907L32.4825 49.7988Z" fill="var(--fill-0, #282828)"/>
<path id="Vector_8" d="M51.334 51.957C51.2856 51.957 51.2655 51.9772 51.2453 52.042L50.7096 53.5484C50.6089 53.8116 50.5606 54.0626 50.5606 54.1922C50.5606 54.3825 50.6492 54.5202 50.9593 54.5202H51.1084C51.2292 54.5202 51.2574 54.5404 51.2574 54.6052C51.2574 54.6903 51.197 54.7105 51.0882 54.7105C50.77 54.7105 50.343 54.6781 50.0329 54.6781C49.9241 54.6781 49.3763 54.7105 48.8607 54.7105C48.7318 54.7105 48.6714 54.6903 48.6714 54.6052C48.6714 54.5404 48.7117 54.5202 48.7922 54.5202C48.8808 54.5202 49.0218 54.508 49.1024 54.4999C49.5616 54.4352 49.7509 54.0788 49.9483 53.5524L52.4457 46.9398C52.5665 46.6361 52.6229 46.5187 52.7236 46.5187C52.8123 46.5187 52.8727 46.6119 52.9734 46.8548C53.211 47.4339 54.8021 51.7302 55.4426 53.3297C55.8212 54.2772 56.1113 54.423 56.3167 54.4756C56.4657 54.508 56.6148 54.5161 56.7356 54.5161C56.8162 54.5161 56.8645 54.5283 56.8645 54.6012C56.8645 54.6862 56.7759 54.7065 56.4053 54.7065C56.0347 54.7065 55.3218 54.7065 54.5242 54.6862C54.347 54.6741 54.2261 54.6741 54.2261 54.6012C54.2261 54.5364 54.2664 54.5161 54.3671 54.508C54.4356 54.4878 54.5081 54.3906 54.4557 54.2651L53.6582 52.0339C53.638 51.9813 53.6098 51.961 53.5575 51.961H51.338L51.334 51.957ZM53.3641 51.4306C53.4124 51.4306 53.4245 51.3982 53.4124 51.3658L52.5182 48.7661C52.5102 48.7256 52.4981 48.673 52.4699 48.673C52.4417 48.673 52.4215 48.7256 52.4095 48.7661L51.4951 51.3577C51.487 51.3982 51.4951 51.4306 51.5354 51.4306H53.3681H53.3641Z" fill="var(--fill-0, #282828)"/>
<path id="Vector_9" d="M69.839 49.7988C69.839 48.1993 69.839 47.9037 69.8189 47.5676C69.7987 47.2113 69.7182 47.0412 69.3919 46.9683C69.3113 46.9481 69.1421 46.9359 69.0052 46.9359C68.8964 46.9359 68.836 46.9157 68.836 46.8428C68.836 46.7699 68.9045 46.7497 69.0535 46.7497C69.5812 46.7497 70.2096 46.782 70.415 46.782C70.7534 46.782 71.5106 46.7497 71.8168 46.7497C72.4452 46.7497 73.1098 46.8144 73.6455 47.2032C73.9235 47.4016 74.3223 47.9402 74.3223 48.6447C74.3223 49.4222 74.0121 50.1389 73.0091 51.0014C73.8953 52.1798 74.5801 53.1192 75.1682 53.7712C75.724 54.3826 76.1349 54.4555 76.2839 54.4879C76.3927 54.5082 76.4813 54.5203 76.5619 54.5203C76.6424 54.5203 76.6827 54.5527 76.6827 54.6054C76.6827 54.6904 76.6142 54.7106 76.4934 54.7106H75.5468C74.9909 54.7106 74.7412 54.658 74.4834 54.5122C74.0564 54.2693 73.6778 53.7752 73.1219 52.9654C72.7231 52.3863 72.2679 51.6696 72.135 51.5117C72.0867 51.4469 72.0262 51.4388 71.9578 51.4388L71.0917 51.4185C71.0434 51.4185 71.0112 51.4388 71.0112 51.5036V51.6493C71.0112 52.6293 71.0112 53.4594 71.0595 53.9008C71.0877 54.2045 71.1481 54.4393 71.4462 54.4798C71.5952 54.5001 71.8128 54.5203 71.9336 54.5203C72.0142 54.5203 72.0544 54.5527 72.0544 54.6054C72.0544 54.6782 71.986 54.7106 71.8571 54.7106C71.281 54.7106 70.5439 54.6782 70.3949 54.6782C70.2055 54.6782 69.5772 54.7106 69.1824 54.7106C69.0535 54.7106 68.985 54.6782 68.985 54.6054C68.985 54.5527 69.0253 54.5203 69.1462 54.5203C69.2952 54.5203 69.416 54.5001 69.5047 54.4798C69.702 54.4393 69.7544 54.2045 69.7947 53.9008C69.843 53.4594 69.843 52.6252 69.843 51.6574V49.8028L69.839 49.7988ZM71.0152 50.6289C71.0152 50.7463 71.0353 50.7868 71.1038 50.8192C71.3133 50.8921 71.6114 50.9245 71.8611 50.9245C72.2599 50.9245 72.3888 50.884 72.566 50.7463C72.8641 50.5155 73.1541 50.0296 73.1541 49.1671C73.1541 47.6729 72.2196 47.2396 71.6315 47.2396C71.3818 47.2396 71.2045 47.2518 71.1038 47.2801C71.0353 47.3004 71.0152 47.3449 71.0152 47.4259V50.6249V50.6289Z" fill="var(--fill-0, #282828)"/>
<path id="Vector_10" d="M89.6612 46.7861C89.6894 46.6079 89.7498 46.5107 89.8304 46.5107C89.911 46.5107 89.9714 46.5634 90.1003 46.8387L92.8152 52.7791L95.5221 46.7658C95.6027 46.5958 95.651 46.5148 95.7396 46.5148C95.8282 46.5148 95.8887 46.6201 95.9168 46.8428L96.8232 53.3501C96.9118 54.0141 97.0125 54.3178 97.3106 54.415C97.6006 54.5082 97.798 54.5203 97.9269 54.5203C98.0155 54.5203 98.088 54.5325 98.088 54.5932C98.088 54.6782 97.9671 54.7106 97.8302 54.7106C97.5804 54.7106 96.2069 54.6782 95.8121 54.6458C95.5825 54.6256 95.5221 54.5932 95.5221 54.5284C95.5221 54.4758 95.5624 54.4434 95.6309 54.411C95.6913 54.3907 95.7195 54.2531 95.6792 53.9575L95.083 49.325H95.0428L92.8756 54.1032C92.646 54.5973 92.5977 54.6944 92.5091 54.6944C92.4205 54.6944 92.3198 54.4839 92.1586 54.168C91.921 53.6821 91.1355 52.0745 91.0147 51.7789C90.926 51.5562 90.3299 50.2321 89.9794 49.4425H89.9392L89.4236 53.6335C89.4034 53.8238 89.3954 53.9615 89.3954 54.1275C89.3954 54.3259 89.5243 54.4231 89.6934 54.4636C89.8707 54.5041 90.0117 54.5163 90.1124 54.5163C90.1929 54.5163 90.2614 54.5365 90.2614 54.5892C90.2614 54.6823 90.1728 54.7066 90.0238 54.7066C89.6048 54.7066 89.1577 54.6742 88.9805 54.6742C88.7912 54.6742 88.3118 54.7066 87.9936 54.7066C87.8929 54.7066 87.8123 54.6863 87.8123 54.5892C87.8123 54.5365 87.8728 54.5163 87.9735 54.5163C88.054 54.5163 88.1225 54.5163 88.2715 54.4839C88.5495 54.4191 88.63 54.0101 88.6784 53.6538L89.6653 46.7901L89.6612 46.7861Z" fill="var(--fill-0, #282828)"/>
<path id="Vector_11" d="M112.005 51.957C111.957 51.957 111.937 51.9772 111.916 52.042L111.381 53.5484C111.28 53.8116 111.232 54.0626 111.232 54.1922C111.232 54.3825 111.32 54.5202 111.63 54.5202H111.779C111.9 54.5202 111.929 54.5404 111.929 54.6052C111.929 54.6903 111.868 54.7105 111.759 54.7105C111.441 54.7105 111.014 54.6781 110.704 54.6781C110.595 54.6781 110.047 54.7105 109.528 54.7105C109.399 54.7105 109.338 54.6903 109.338 54.6052C109.338 54.5404 109.379 54.5202 109.459 54.5202C109.548 54.5202 109.689 54.508 109.769 54.4999C110.229 54.4352 110.418 54.0788 110.615 53.5524L113.113 46.9398C113.234 46.6361 113.29 46.5187 113.391 46.5187C113.479 46.5187 113.54 46.6119 113.64 46.8548C113.878 47.4339 115.473 51.7302 116.11 53.3297C116.488 54.2772 116.778 54.423 116.984 54.4756C117.133 54.508 117.282 54.5161 117.403 54.5161C117.483 54.5161 117.532 54.5283 117.532 54.6012C117.532 54.6862 117.443 54.7065 117.072 54.7065C116.702 54.7065 115.989 54.7065 115.191 54.6862C115.01 54.6741 114.893 54.6741 114.893 54.6012C114.893 54.5364 114.933 54.5161 115.034 54.508C115.103 54.4878 115.175 54.3906 115.123 54.2651L114.325 52.0339C114.305 51.9813 114.277 51.961 114.225 51.961H112.005V51.957ZM114.035 51.4306C114.084 51.4306 114.096 51.3982 114.084 51.3658L113.189 48.7661C113.181 48.7256 113.169 48.673 113.141 48.673C113.113 48.673 113.093 48.7256 113.081 48.7661L112.166 51.3577C112.158 51.3982 112.166 51.4306 112.206 51.4306H114.039H114.035Z" fill="var(--fill-0, #282828)"/>
</g>
<g id="Group_3">
<path id="Vector_12" d="M6.48522 7.89214C6.36841 7.83545 6.34424 7.79496 6.34424 7.60869C6.34424 7.16326 6.37646 6.64495 6.38452 6.51132C6.38452 6.38579 6.41674 6.2967 6.47314 6.2967C6.53759 6.2967 6.54564 6.37364 6.54564 6.43438C6.54564 6.53966 6.56981 6.71783 6.61009 6.86361C6.76719 7.47506 7.30695 7.68157 7.76213 7.68157C8.38648 7.68157 8.76512 7.2159 8.76512 6.6328C8.76512 6.27241 8.69262 5.91202 8.05215 5.46659L7.63323 5.17504C6.77927 4.58384 6.50133 4.02908 6.50133 3.3002C6.50133 2.28787 7.32306 1.63998 8.32606 1.63998C8.79332 1.63998 9.1639 1.71691 9.35322 1.77765C9.41767 1.7979 9.4499 1.82625 9.4499 1.88294C9.4499 1.98822 9.42573 2.22308 9.42573 2.87502C9.42573 3.04914 9.3935 3.13823 9.33711 3.13823C9.28877 3.13823 9.2646 3.08964 9.2646 2.99245C9.2646 2.91552 9.23238 2.66041 9.07528 2.44984C8.96653 2.29597 8.73692 2.06111 8.26967 2.06111C7.75004 2.06111 7.28278 2.381 7.28278 2.94386C7.28278 3.31235 7.3996 3.6039 8.04812 4.03313L8.34217 4.2275C9.29683 4.85109 9.59088 5.48279 9.59088 6.22787C9.59088 6.83931 9.3935 7.33738 8.86985 7.77471C8.52344 8.06626 8.04812 8.11485 7.66142 8.11485C7.2425 8.11485 6.79941 8.06626 6.48522 7.90024V7.89214Z" fill="var(--fill-0, #282828)"/>
<path id="Vector_13" d="M10.4448 2.55513C10.2797 2.09755 10.175 2.02061 9.9091 1.94368C9.80034 1.91533 9.68755 1.91533 9.63116 1.91533C9.56671 1.91533 9.5506 1.87484 9.5506 1.82625C9.5506 1.75741 9.6231 1.74931 9.73186 1.74931C10.1186 1.74931 10.5294 1.76956 10.7832 1.76956C10.9645 1.76956 11.3431 1.74931 11.7016 1.74931C11.7902 1.74931 11.8748 1.76956 11.8748 1.82625C11.8748 1.88294 11.8265 1.91533 11.758 1.91533C11.6412 1.91533 11.5364 1.92343 11.4801 1.97202C11.4317 2.01252 11.4075 2.06111 11.4075 2.13805C11.4075 2.24333 11.472 2.47009 11.5727 2.76164L12.7892 6.46678H12.8134C13.1235 5.61237 14.054 2.94791 14.2272 2.4053C14.2594 2.30002 14.2917 2.17044 14.2917 2.10565C14.2917 2.01657 14.2594 1.98822 14.195 1.95987C14.1144 1.93153 13.9976 1.91938 13.909 1.91938C13.8445 1.91938 13.7841 1.89104 13.7841 1.8303C13.7841 1.76956 13.8486 1.75336 13.9896 1.75336C14.3521 1.75336 14.6703 1.77361 14.7629 1.77361C14.8878 1.77361 15.2222 1.75336 15.4437 1.75336C15.5323 1.75336 15.5927 1.77361 15.5927 1.8303C15.5927 1.88699 15.5525 1.91938 15.4759 1.91938C15.3994 1.91938 15.2463 1.91128 15.1214 2.01657C15.0328 2.0935 14.9321 2.21903 14.7428 2.74544C14.4568 3.52292 14.2675 3.96834 13.8727 4.98067C13.4135 6.18737 13.0752 7.09037 12.91 7.50746C12.7288 7.98528 12.6643 8.1108 12.5636 8.1108C12.4629 8.1108 12.4065 8.00552 12.2696 7.61679L10.4448 2.56322V2.55513Z" fill="var(--fill-0, #282828)"/>
<path id="Vector_14" d="M16.1969 4.13841C16.1969 2.88312 16.1969 2.65231 16.1889 2.3891C16.1728 2.10565 16.1003 2.00847 15.9432 1.95178C15.8626 1.92343 15.77 1.91128 15.6814 1.91128C15.6088 1.91128 15.5645 1.89104 15.5645 1.8141C15.5645 1.76551 15.6209 1.74526 15.7377 1.74526C16.0076 1.74526 16.5031 1.76551 16.7085 1.76551C16.8898 1.76551 17.357 1.74526 17.639 1.74526C17.7276 1.74526 17.788 1.76551 17.788 1.8141C17.788 1.89104 17.7478 1.91128 17.6712 1.91128C17.5947 1.91128 17.5383 1.91938 17.4577 1.93963C17.2604 1.98012 17.204 2.0935 17.1879 2.38505C17.1717 2.64826 17.1717 2.87907 17.1717 4.13436V5.59212C17.1717 6.38984 17.1717 7.04988 17.204 7.39812C17.2281 7.62084 17.2765 7.74636 17.49 7.78686C17.5907 7.8071 17.7518 7.8152 17.8605 7.8152C17.9411 7.8152 17.9774 7.8638 17.9774 7.90429C17.9774 7.96098 17.921 7.99337 17.8364 7.99337C17.3611 7.99337 16.8656 7.96503 16.6682 7.96503C16.5031 7.96503 16.0117 7.99337 15.7216 7.99337C15.633 7.99337 15.5806 7.96503 15.5806 7.90429C15.5806 7.8638 15.6048 7.8152 15.6975 7.8152C15.8062 7.8152 15.8868 7.8071 15.9512 7.78686C16.1003 7.74636 16.1406 7.63298 16.1647 7.39002C16.1969 7.04988 16.1969 6.38984 16.1969 5.59212V4.13436V4.13841Z" fill="var(--fill-0, #282828)"/>
<path id="Vector_15" d="M20.3459 5.60022C20.3459 6.66114 20.3459 7.18351 20.503 7.34143C20.6278 7.46696 20.9058 7.51555 21.4657 7.51555C21.8524 7.51555 22.1303 7.50745 22.3116 7.28069C22.4002 7.17541 22.4767 6.94055 22.4929 6.78667C22.5009 6.70974 22.517 6.66114 22.5734 6.66114C22.6218 6.66114 22.6379 6.75023 22.6379 6.84741C22.6379 6.9446 22.5895 7.55605 22.5291 7.79901C22.4808 7.98527 22.4485 8.02172 22.0699 8.02172C21.5503 8.02172 21.1314 8.01362 20.7729 7.99337C20.4103 7.98527 20.1082 7.97313 19.8101 7.97313C19.7296 7.97313 19.5725 7.98122 19.3993 7.98122C19.2261 7.98932 19.0448 8.00147 18.8998 8.00147C18.8112 8.00147 18.7588 7.97313 18.7588 7.91239C18.7588 7.87189 18.783 7.8233 18.8756 7.8233C18.9844 7.8233 19.0649 7.8152 19.1294 7.79496C19.2784 7.75446 19.3187 7.60059 19.3429 7.35763C19.3751 7.00939 19.3751 6.35744 19.3751 5.60022V4.14246C19.3751 2.88717 19.3751 2.65636 19.3671 2.39315C19.3509 2.1097 19.2865 2.02466 19.0529 1.94773C18.9965 1.92748 18.9038 1.91938 18.8152 1.91938C18.7346 1.91938 18.6903 1.89104 18.6903 1.8303C18.6903 1.76956 18.7387 1.75336 18.8474 1.75336C19.1858 1.75336 19.645 1.77361 19.8424 1.77361C20.0156 1.77361 20.6077 1.75336 20.8856 1.75336C20.9944 1.75336 21.0427 1.77361 21.0427 1.8303C21.0427 1.88699 21.0025 1.91938 20.9098 1.91938C20.8292 1.91938 20.7124 1.92748 20.6319 1.94773C20.4345 1.98822 20.3781 2.1016 20.362 2.39315C20.3459 2.65636 20.3459 2.88717 20.3459 4.14246V5.60022Z" fill="var(--fill-0, #282828)"/>
<path id="Vector_16" d="M23.2743 4.13841C23.2743 2.88312 23.2824 2.65231 23.2662 2.3891C23.2501 2.09755 23.1857 2.02061 22.9521 1.94368C22.8957 1.92343 22.7708 1.91533 22.6741 1.91533C22.5936 1.91533 22.5492 1.88699 22.5492 1.82625C22.5492 1.76551 22.5976 1.74931 22.7063 1.74931C23.093 1.74931 23.5764 1.76956 23.7899 1.76956C23.9712 1.76956 24.4545 1.74931 24.7204 1.74931C24.8291 1.74931 24.8775 1.76956 24.8775 1.82625C24.8775 1.88294 24.8372 1.91533 24.7607 1.91533C24.6801 1.91533 24.6358 1.92343 24.5472 1.94368C24.3579 1.98417 24.3015 2.09755 24.2854 2.3891C24.2692 2.65231 24.2692 2.88312 24.2692 4.13841V5.29652C24.2692 6.50322 24.4666 6.96889 24.8211 7.29689C25.1433 7.59654 25.4857 7.62893 25.7314 7.62893C26.0456 7.62893 26.4122 7.52365 26.7022 7.19161C27.105 6.74618 27.1211 6.0254 27.1211 5.17909V4.13841C27.1211 2.88312 27.1131 2.65231 27.105 2.3891C27.0889 2.10565 27.0325 2.02061 26.8029 1.94368C26.7465 1.92343 26.6216 1.91533 26.5411 1.91533C26.4605 1.91533 26.4162 1.88699 26.4162 1.82625C26.4162 1.76551 26.4645 1.74931 26.5653 1.74931C26.9358 1.74931 27.4192 1.76956 27.4273 1.76956C27.5078 1.76956 27.9952 1.74931 28.2732 1.74931C28.3698 1.74931 28.4222 1.76956 28.4222 1.82625C28.4222 1.88294 28.3819 1.91533 28.2973 1.91533C28.2127 1.91533 28.1725 1.92343 28.0838 1.94368C27.8865 1.98417 27.8381 2.09755 27.822 2.3891C27.814 2.65231 27.8059 2.88312 27.8059 4.13841V5.02117C27.8059 5.94441 27.7253 6.91625 27.1171 7.50745C26.6055 8.01362 26.0577 8.09866 25.5905 8.09866C25.2118 8.09866 24.4666 8.07841 23.9389 7.5358C23.5684 7.15516 23.2824 6.54371 23.2824 5.34916V4.13436L23.2743 4.13841Z" fill="var(--fill-0, #282828)"/>
<path id="Vector_17" d="M29.5017 4.13841C29.5017 2.88312 29.5017 2.65231 29.4937 2.3891C29.4776 2.10565 29.4131 2.02061 29.1795 1.94368C29.1231 1.92343 28.9982 1.91533 28.8935 1.91533C28.821 1.91533 28.7686 1.88699 28.7686 1.82625C28.7686 1.76551 28.825 1.74931 28.9338 1.74931C29.3124 1.74931 29.7716 1.76956 29.977 1.76956C30.2711 1.76956 30.8471 1.74931 31.1774 1.74931C32.0797 1.74931 32.41 2.09755 32.5268 2.21498C32.6839 2.3891 32.8894 2.75759 32.8894 3.20707C32.8894 4.37327 32.0999 5.20744 31.0727 5.20744C31.0405 5.20744 30.8914 5.20744 30.8592 5.19934C30.8189 5.19934 30.7706 5.17099 30.7706 5.11025C30.7706 5.04141 30.8511 5.00497 31.0082 5.00497C31.411 5.00497 31.979 4.51095 31.979 3.66464C31.979 3.39334 31.9548 2.84668 31.552 2.44174C31.2902 2.17044 30.9921 2.12995 30.827 2.12995C30.7182 2.12995 30.5813 2.13805 30.5168 2.17044C30.4765 2.19069 30.4604 2.23928 30.4604 2.32431V5.60022C30.4604 6.35745 30.4604 7.00939 30.4926 7.36978C30.5168 7.60464 30.5571 7.75851 30.7706 7.79901C30.8793 7.81925 31.0324 7.82735 31.1412 7.82735C31.2217 7.82735 31.258 7.87594 31.258 7.91644C31.258 7.97313 31.2016 8.00552 31.1251 8.00552C30.6417 8.00552 30.1301 7.97718 29.9408 7.97718C29.7756 7.97718 29.3164 8.00552 29.0304 8.00552C28.9418 8.00552 28.8895 7.97718 28.8895 7.91644C28.8895 7.87594 28.9136 7.82735 29.0063 7.82735C29.115 7.82735 29.1956 7.81925 29.26 7.79901C29.4091 7.75851 29.4494 7.60464 29.4735 7.36168C29.5058 7.01344 29.5058 6.36149 29.5058 5.60427V4.14651L29.5017 4.13841Z" fill="var(--fill-0, #282828)"/>
<path id="Vector_18" d="M34.2347 4.13841C34.2347 2.88312 34.2347 2.65231 34.2267 2.3891C34.2106 2.10565 34.1461 2.02061 33.9125 1.94368C33.8561 1.92343 33.7312 1.91533 33.6265 1.91533C33.554 1.91533 33.5016 1.88699 33.5016 1.82625C33.5016 1.76551 33.558 1.74931 33.6668 1.74931C34.0454 1.74931 34.5046 1.76956 34.7101 1.76956C35.0041 1.76956 35.5801 1.74931 35.9104 1.74931C36.8127 1.74931 37.143 2.09755 37.2598 2.21498C37.4169 2.3891 37.6224 2.75759 37.6224 3.20707C37.6224 4.37327 36.8329 5.20744 35.8057 5.20744C35.7735 5.20744 35.6244 5.20744 35.5922 5.19934C35.5519 5.19934 35.5036 5.17099 35.5036 5.11025C35.5036 5.04141 35.5841 5.00497 35.7412 5.00497C36.1441 5.00497 36.712 4.51095 36.712 3.66464C36.712 3.39334 36.6878 2.84668 36.285 2.44174C36.0232 2.17044 35.7251 2.12995 35.56 2.12995C35.4512 2.12995 35.3143 2.13805 35.2498 2.17044C35.2095 2.19069 35.1934 2.23928 35.1934 2.32431V5.60022C35.1934 6.35745 35.1934 7.00939 35.2256 7.36978C35.2498 7.60464 35.2901 7.75851 35.5036 7.79901C35.6123 7.81925 35.7654 7.82735 35.8742 7.82735C35.9547 7.82735 35.991 7.87594 35.991 7.91644C35.991 7.97313 35.9346 8.00552 35.8581 8.00552C35.3747 8.00552 34.8631 7.97718 34.6738 7.97718C34.5086 7.97718 34.0494 8.00552 33.7635 8.00552C33.6748 8.00552 33.6225 7.97718 33.6225 7.91644C33.6225 7.87594 33.6466 7.82735 33.7393 7.82735C33.848 7.82735 33.9286 7.81925 33.9931 7.79901C34.1421 7.75851 34.1824 7.60464 34.2065 7.36168C34.2388 7.01344 34.2388 6.36149 34.2388 5.60427V4.14651L34.2347 4.13841Z" fill="var(--fill-0, #282828)"/>
<path id="Vector_19" d="M38.1782 4.86729C38.1782 3.45813 39.0161 1.63188 41.2114 1.63188C43.0361 1.63188 44.168 2.82643 44.168 4.72152C44.168 6.6166 42.9999 8.10271 41.1349 8.10271C39.0322 8.10271 38.1782 6.33315 38.1782 4.86729ZM43.0925 5.02522C43.0925 3.19897 42.162 2.06921 40.9979 2.06921C40.1923 2.06921 39.2457 2.57537 39.2457 4.61623C39.2457 6.31695 40.0674 7.65728 41.4329 7.65728C41.9405 7.65728 43.0925 7.37383 43.0925 5.02522Z" fill="var(--fill-0, #282828)"/>
<path id="Vector_20" d="M47.898 4.13841C47.898 2.88312 47.898 2.65231 47.89 2.3891C47.8739 2.10565 47.8094 2.02061 47.5758 1.94368C47.5194 1.92343 47.3945 1.91533 47.2898 1.91533C47.2173 1.91533 47.1649 1.88699 47.1649 1.82625C47.1649 1.76551 47.2213 1.74931 47.3301 1.74931C47.7087 1.74931 48.1679 1.76956 48.3169 1.76956C48.5627 1.76956 49.2192 1.74931 49.4408 1.74931C49.9 1.74931 50.4277 1.7979 50.8144 2.09755C51.0198 2.26357 51.3219 2.68066 51.3219 3.23541C51.3219 3.84686 51.0278 4.39352 50.3189 5.06166C50.9594 5.99301 51.4709 6.74213 51.906 7.2564C52.3088 7.73422 52.5626 7.77066 52.6794 7.79901C52.7519 7.81925 52.7962 7.81925 52.8526 7.81925C52.909 7.81925 52.9412 7.86785 52.9412 7.90834C52.9412 7.97718 52.8929 7.99742 52.8002 7.99742H52.1114C51.7086 7.99742 51.5112 7.94883 51.3219 7.8314C51.0117 7.64513 50.7378 7.2564 50.335 6.6166C50.049 6.17118 49.7429 5.61642 49.6543 5.49089C49.614 5.4423 49.5737 5.4342 49.5213 5.4342L48.8728 5.41395C48.8406 5.41395 48.8164 5.4342 48.8164 5.48279V5.60022C48.8164 6.36959 48.8245 7.00939 48.8567 7.35763C48.8809 7.60059 48.9131 7.75446 49.1346 7.79496C49.2434 7.8152 49.3965 7.8233 49.4891 7.8233C49.5455 7.8233 49.5777 7.87189 49.5777 7.91239C49.5777 7.96908 49.5213 8.00147 49.4287 8.00147C49.0098 8.00147 48.4096 7.97313 48.3049 7.97313C48.1639 7.97313 47.7047 8.00147 47.4187 8.00147C47.3301 8.00147 47.2777 7.97313 47.2777 7.91239C47.2777 7.87189 47.3019 7.8233 47.3945 7.8233C47.5033 7.8233 47.5838 7.8152 47.6483 7.79496C47.7973 7.75446 47.8376 7.60059 47.8618 7.35763C47.894 7.00939 47.894 6.35745 47.894 5.60022V4.14246L47.898 4.13841ZM48.8205 4.78226C48.8205 4.87134 48.8366 4.89969 48.8849 4.92803C49.042 4.98472 49.2555 5.00497 49.4368 5.00497C49.7227 5.00497 49.8234 4.97662 49.9443 4.86729C50.1658 4.68102 50.4116 4.32468 50.4116 3.6444C50.4116 2.47819 49.7389 2.17854 49.3119 2.17854C49.1306 2.17854 48.9574 2.18664 48.8849 2.20688C48.8366 2.22713 48.8205 2.25548 48.8205 2.32431V4.78226Z" fill="var(--fill-0, #282828)"/>
<path id="Vector_21" d="M53.3722 4.13841C53.3722 2.88312 53.3722 2.65231 53.3641 2.3891C53.348 2.10565 53.2755 2.00847 53.1184 1.95178C53.0379 1.92343 52.9452 1.91128 52.8566 1.91128C52.7841 1.91128 52.7398 1.89104 52.7398 1.8141C52.7398 1.76551 52.7962 1.74526 52.913 1.74526C53.1829 1.74526 53.6783 1.76551 53.8838 1.76551C54.065 1.76551 54.5323 1.74526 54.8143 1.74526C54.9029 1.74526 54.9633 1.76551 54.9633 1.8141C54.9633 1.89104 54.923 1.91128 54.8465 1.91128C54.7699 1.91128 54.7135 1.91938 54.633 1.93963C54.4356 1.98012 54.3792 2.0935 54.3631 2.38505C54.347 2.64826 54.347 2.87907 54.347 4.13436V5.59212C54.347 6.38984 54.347 7.04988 54.3792 7.39812C54.4034 7.62084 54.4517 7.74636 54.6652 7.78686C54.7659 7.8071 54.927 7.8152 55.0358 7.8152C55.1164 7.8152 55.1526 7.8638 55.1526 7.90429C55.1526 7.96098 55.0962 7.99337 55.0116 7.99337C54.5363 7.99337 54.0409 7.96503 53.8435 7.96503C53.6783 7.96503 53.1869 7.99337 52.8969 7.99337C52.8083 7.99337 52.7559 7.96503 52.7559 7.90429C52.7559 7.8638 52.7801 7.8152 52.8727 7.8152C52.9774 7.8152 53.062 7.8071 53.1265 7.78686C53.2755 7.74636 53.3158 7.63298 53.34 7.39002C53.3722 7.04988 53.3722 6.38984 53.3722 5.59212V4.13436V4.13841Z" fill="var(--fill-0, #282828)"/>
<path id="Vector_22" d="M56.1596 7.89214C56.0428 7.83545 56.0187 7.79496 56.0187 7.60869C56.0187 7.16326 56.0509 6.64495 56.0589 6.51132C56.0589 6.38579 56.0912 6.2967 56.1475 6.2967C56.212 6.2967 56.2201 6.37364 56.2201 6.43438C56.2201 6.53966 56.2442 6.71783 56.2845 6.86361C56.4416 7.47506 56.9814 7.68157 57.4365 7.68157C58.0609 7.68157 58.4395 7.2159 58.4395 6.6328C58.4395 6.27241 58.367 5.91202 57.7266 5.46659L57.3076 5.17504C56.4537 4.58384 56.1717 4.02908 56.1717 3.3002C56.1717 2.28787 56.9934 1.63998 57.9964 1.63998C58.4637 1.63998 58.8343 1.71691 59.0236 1.77765C59.0881 1.7979 59.1243 1.82625 59.1243 1.88294C59.1243 1.98822 59.1001 2.22308 59.1001 2.87502C59.1001 3.04914 59.0679 3.13823 59.0115 3.13823C58.9632 3.13823 58.939 3.08964 58.939 2.99245C58.939 2.91552 58.9068 2.66041 58.7497 2.44984C58.6409 2.29597 58.4113 2.06111 57.9441 2.06111C57.4245 2.06111 56.9572 2.381 56.9572 2.94386C56.9572 3.31235 57.074 3.6039 57.7225 4.03313L58.0166 4.2275C58.9712 4.85109 59.2653 5.48279 59.2653 6.22787C59.2653 6.83931 59.0679 7.33738 58.5443 7.77471C58.1978 8.06626 57.7225 8.11485 57.3358 8.11485C56.9169 8.11485 56.4738 8.06626 56.1596 7.90024V7.89214Z" fill="var(--fill-0, #282828)"/>
<path id="Vector_23" d="M60.0387 4.86729C60.0387 3.45813 60.8765 1.63188 63.0718 1.63188C64.8966 1.63188 66.0285 2.82643 66.0285 4.72152C66.0285 6.6166 64.8603 8.10271 62.9953 8.10271C60.8926 8.10271 60.0387 6.33315 60.0387 4.86729ZM64.9489 5.02522C64.9489 3.19897 64.0225 2.06921 62.8543 2.06921C62.0487 2.06921 61.1061 2.57537 61.1061 4.61623C61.1061 6.31695 61.9279 7.65728 63.2934 7.65728C63.805 7.65728 64.953 7.37383 64.953 5.02522H64.9489Z" fill="var(--fill-0, #282828)"/>
<path id="Vector_24" d="M67.2087 4.13841C67.2087 2.88312 67.2087 2.65231 67.2006 2.3891C67.1845 2.10565 67.1201 2.02061 66.8905 1.94368C66.8341 1.92343 66.7092 1.91533 66.6045 1.91533C66.532 1.91533 66.4796 1.88699 66.4796 1.82625C66.4796 1.76551 66.536 1.74931 66.6448 1.74931C67.0234 1.74931 67.4826 1.76956 67.6316 1.76956C67.8773 1.76956 68.5339 1.74931 68.7555 1.74931C69.2147 1.74931 69.7424 1.7979 70.1291 2.09755C70.3345 2.26357 70.6406 2.68066 70.6406 3.23541C70.6406 3.84686 70.3466 4.39352 69.6376 5.06166C70.2781 5.99301 70.7897 6.74213 71.2247 7.2564C71.6275 7.73422 71.8813 7.77066 71.9981 7.79901C72.0706 7.81925 72.1149 7.81925 72.1713 7.81925C72.2277 7.81925 72.2599 7.86785 72.2599 7.90834C72.2599 7.97718 72.2116 7.99742 72.1189 7.99742H71.4301C71.0273 7.99742 70.8299 7.94883 70.6406 7.8314C70.3264 7.64513 70.0565 7.2564 69.6537 6.6166C69.3677 6.17118 69.0616 5.61642 68.973 5.49089C68.9327 5.4423 68.8924 5.4342 68.8401 5.4342L68.1915 5.41395C68.1593 5.41395 68.1351 5.4342 68.1351 5.48279V5.60022C68.1351 6.36959 68.1432 7.00939 68.1754 7.35763C68.1996 7.60059 68.2318 7.75446 68.4534 7.79496C68.5581 7.8152 68.7152 7.8233 68.8078 7.8233C68.8642 7.8233 68.8965 7.87189 68.8965 7.91239C68.8965 7.96908 68.8401 8.00147 68.7474 8.00147C68.3285 8.00147 67.7283 7.97313 67.6236 7.97313C67.4826 7.97313 67.0234 8.00147 66.7374 8.00147C66.6488 8.00147 66.5964 7.97313 66.5964 7.91239C66.5964 7.87189 66.6206 7.8233 66.7132 7.8233C66.818 7.8233 66.9026 7.8152 66.967 7.79496C67.116 7.75446 67.1563 7.60059 67.1805 7.35763C67.2127 7.00939 67.2127 6.35745 67.2127 5.60022V4.14246L67.2087 4.13841ZM68.1311 4.78226C68.1311 4.87134 68.1472 4.89969 68.1956 4.92803C68.3527 4.98472 68.5662 5.00497 68.7474 5.00497C69.0334 5.00497 69.1341 4.97662 69.255 4.86729C69.4765 4.68102 69.7222 4.32468 69.7222 3.6444C69.7222 2.47819 69.0495 2.17854 68.6225 2.17854C68.4413 2.17854 68.2681 2.18664 68.1956 2.20688C68.1472 2.22713 68.1311 2.25548 68.1311 2.32431V4.78226Z" fill="var(--fill-0, #282828)"/>
<path id="Vector_25" d="M72.1673 7.89214C72.0505 7.83545 72.0263 7.79496 72.0263 7.60869C72.0263 7.16326 72.0585 6.64495 72.0666 6.51132C72.0666 6.38579 72.0988 6.2967 72.1552 6.2967C72.2196 6.2967 72.2277 6.37364 72.2277 6.43438C72.2277 6.53966 72.2519 6.71783 72.2921 6.86361C72.4492 7.47506 72.989 7.68157 73.4442 7.68157C74.0685 7.68157 74.4472 7.2159 74.4472 6.6328C74.4472 6.27241 74.3747 5.91202 73.7342 5.46659L73.3153 5.17504C72.4613 4.58384 72.1794 4.02908 72.1794 3.3002C72.1794 2.28787 73.0011 1.63998 74.0041 1.63998C74.4713 1.63998 74.8419 1.71691 75.0312 1.77765C75.0957 1.7979 75.132 1.82625 75.132 1.88294C75.132 1.98822 75.1078 2.22308 75.1078 2.87502C75.1078 3.04914 75.0756 3.13823 75.0192 3.13823C74.9708 3.13823 74.9467 3.08964 74.9467 2.99245C74.9467 2.91552 74.9144 2.66041 74.7573 2.44984C74.6486 2.29597 74.419 2.06111 73.9517 2.06111C73.4321 2.06111 72.9648 2.381 72.9648 2.94386C72.9648 3.31235 73.0816 3.6039 73.7302 4.03313L74.0242 4.2275C74.9789 4.85109 75.2729 5.48279 75.2729 6.22787C75.2729 6.83931 75.0756 7.33738 74.5519 7.77471C74.2055 8.06626 73.7302 8.11485 73.3435 8.11485C72.9246 8.11485 72.4815 8.06626 72.1673 7.90024V7.89214Z" fill="var(--fill-0, #282828)"/>
<path id="Vector_26" d="M76.6666 4.13841C76.6666 2.88312 76.6666 2.65231 76.6586 2.3891C76.6425 2.10565 76.578 2.02061 76.3484 1.94368C76.292 1.92343 76.1672 1.91533 76.0624 1.91533C75.9899 1.91533 75.9376 1.88699 75.9376 1.82625C75.9376 1.76551 75.9939 1.74931 76.1027 1.74931C76.4813 1.74931 76.9406 1.76956 77.146 1.76956C77.3756 1.76956 78.9788 1.77765 79.1198 1.76956C79.2527 1.76146 79.3655 1.72906 79.4219 1.72096C79.4621 1.71287 79.5024 1.68047 79.5387 1.68047C79.579 1.68047 79.587 1.72096 79.587 1.75741C79.587 1.8141 79.5467 1.91128 79.5306 2.29192C79.5226 2.381 79.5064 2.73735 79.4903 2.83453C79.4823 2.87502 79.4662 2.97221 79.4098 2.97221C79.3614 2.97221 79.3534 2.93171 79.3534 2.86692C79.3534 2.81023 79.3453 2.66446 79.305 2.56727C79.2487 2.4215 79.1882 2.30407 78.8297 2.26762C78.7049 2.24738 77.8428 2.22713 77.6938 2.22713C77.6616 2.22713 77.6455 2.25548 77.6455 2.30407V4.34493C77.6455 4.39352 77.6535 4.43401 77.6938 4.43401C77.859 4.43401 78.7935 4.43401 78.9586 4.41377C79.1318 4.39352 79.2366 4.37327 79.305 4.28824C79.3614 4.23155 79.3856 4.18296 79.4219 4.18296C79.4581 4.18296 79.4783 4.22345 79.4783 4.27204C79.4783 4.32063 79.4621 4.45831 79.4219 4.87539C79.4057 5.04141 79.3896 5.36941 79.3896 5.43015C79.3896 5.49899 79.3816 5.61642 79.3171 5.61642C79.2688 5.61642 79.2527 5.58807 79.2527 5.54758C79.2446 5.45849 79.2446 5.35321 79.2285 5.24793C79.1882 5.08191 79.0956 4.95638 78.8257 4.92803C78.6928 4.90779 77.871 4.88754 77.6898 4.88754C77.6576 4.88754 77.6495 4.92803 77.6495 4.97662V5.63666C77.6495 5.92012 77.6414 6.6166 77.6495 6.85956C77.6656 7.42242 77.8872 7.54795 78.6283 7.54795C78.8176 7.54795 79.1198 7.53985 79.3091 7.44266C79.4903 7.34548 79.5709 7.17136 79.6233 6.83122C79.6394 6.74213 79.6555 6.70569 79.7038 6.70569C79.7602 6.70569 79.7683 6.81097 79.7683 6.90006C79.7683 7.08632 79.7119 7.64918 79.6676 7.8152C79.6192 8.02982 79.5508 8.02982 79.2809 8.02982C78.7371 8.02982 78.302 8.02172 77.9476 8.00147C77.5931 7.99337 77.3232 7.98123 77.1097 7.98123C77.0292 7.98123 76.8721 7.98932 76.6989 7.98932C76.5257 7.99742 76.3444 8.00957 76.1994 8.00957C76.1108 8.00957 76.0584 7.98123 76.0584 7.92049C76.0584 7.87999 76.0826 7.8314 76.1752 7.8314C76.284 7.8314 76.3645 7.8233 76.429 7.80306C76.578 7.76256 76.6183 7.60869 76.6425 7.36573C76.6747 7.01749 76.6747 6.36554 76.6747 5.60832V4.15056L76.6666 4.13841Z" fill="var(--fill-0, #282828)"/>
<path id="Vector_27" d="M83.5386 4.13841C83.5386 2.88312 83.5386 2.65231 83.5305 2.3891C83.5144 2.10565 83.4499 2.02061 83.2203 1.94368C83.164 1.92343 83.0391 1.91533 82.9343 1.91533C82.8618 1.91533 82.8095 1.88699 82.8095 1.82625C82.8095 1.76551 82.8659 1.74931 82.9746 1.74931C83.3533 1.74931 83.8125 1.76956 84.0179 1.76956C84.312 1.76956 84.888 1.74931 85.2183 1.74931C86.1206 1.74931 86.4509 2.09755 86.5677 2.21498C86.7248 2.3891 86.9302 2.75759 86.9302 3.20707C86.9302 4.37327 86.1407 5.20744 85.1135 5.20744C85.0813 5.20744 84.9323 5.20744 84.9001 5.19934C84.8598 5.19934 84.8114 5.17099 84.8114 5.11025C84.8114 5.04141 84.892 5.00497 85.0491 5.00497C85.4519 5.00497 86.0199 4.51095 86.0199 3.66464C86.0199 3.39334 85.9957 2.84668 85.5929 2.44174C85.3311 2.17044 85.033 2.12995 84.8719 2.12995C84.7631 2.12995 84.6261 2.13805 84.5577 2.17044C84.5174 2.19069 84.5013 2.23928 84.5013 2.32431V5.60022C84.5013 6.35745 84.5013 7.00939 84.5335 7.36978C84.5577 7.60464 84.598 7.75851 84.8114 7.79901C84.9202 7.81925 85.0733 7.82735 85.182 7.82735C85.2626 7.82735 85.2988 7.87594 85.2988 7.91644C85.2988 7.97313 85.2424 8.00552 85.1659 8.00552C84.6825 8.00552 84.171 7.97718 83.9817 7.97718C83.8165 7.97718 83.3573 8.00552 83.0713 8.00552C82.9827 8.00552 82.9303 7.97718 82.9303 7.91644C82.9303 7.87594 82.9545 7.82735 83.0471 7.82735C83.1559 7.82735 83.2365 7.81925 83.3009 7.79901C83.4499 7.75851 83.4902 7.60464 83.5144 7.36168C83.5466 7.01344 83.5466 6.36149 83.5466 5.60427V4.14651L83.5386 4.13841Z" fill="var(--fill-0, #282828)"/>
<path id="Vector_28" d="M88.2716 4.13841C88.2716 2.88312 88.2716 2.65231 88.2635 2.3891C88.2474 2.10565 88.183 2.02061 87.9534 1.94368C87.897 1.92343 87.7721 1.91533 87.6674 1.91533C87.5949 1.91533 87.5425 1.88699 87.5425 1.82625C87.5425 1.76551 87.5989 1.74931 87.7076 1.74931C88.0863 1.74931 88.5455 1.76956 88.7509 1.76956C88.9805 1.76956 90.5837 1.77765 90.7247 1.76956C90.8576 1.76146 90.9704 1.72906 91.0268 1.72096C91.0671 1.71287 91.1074 1.68047 91.1436 1.68047C91.1839 1.68047 91.1919 1.72096 91.1919 1.75741C91.1919 1.8141 91.1517 1.91128 91.1356 2.29192C91.1275 2.381 91.1114 2.73735 91.0953 2.83453C91.0872 2.87502 91.0711 2.97221 91.0147 2.97221C90.9664 2.97221 90.9583 2.93171 90.9583 2.86692C90.9583 2.81023 90.9503 2.66446 90.91 2.56727C90.8536 2.4215 90.7932 2.30407 90.4347 2.26762C90.3098 2.24738 89.4478 2.22713 89.2987 2.22713C89.2665 2.22713 89.2504 2.25548 89.2504 2.30407V4.34493C89.2504 4.39352 89.2585 4.43401 89.2987 4.43401C89.4639 4.43401 90.3984 4.43401 90.5636 4.41377C90.7368 4.39352 90.8415 4.37327 90.91 4.28824C90.9664 4.23155 90.9905 4.18296 91.0268 4.18296C91.063 4.18296 91.0832 4.22345 91.0832 4.27204C91.0832 4.32063 91.0671 4.45831 91.0268 4.87539C91.0107 5.04141 90.9946 5.36941 90.9946 5.43015C90.9946 5.49899 90.9865 5.61642 90.9221 5.61642C90.8737 5.61642 90.8576 5.58807 90.8576 5.54758C90.8496 5.45849 90.8496 5.35321 90.8334 5.24793C90.7932 5.08191 90.7005 4.95638 90.4306 4.92803C90.2977 4.90779 89.476 4.88754 89.2947 4.88754C89.2625 4.88754 89.2544 4.92803 89.2544 4.97662V5.63666C89.2544 5.92012 89.2464 6.6166 89.2544 6.85956C89.2705 7.42242 89.4921 7.54795 90.2333 7.54795C90.4226 7.54795 90.7247 7.53985 90.914 7.44266C91.0953 7.34548 91.1758 7.17136 91.2282 6.83122C91.2443 6.74213 91.2604 6.70569 91.3088 6.70569C91.3652 6.70569 91.3732 6.81097 91.3732 6.90006C91.3732 7.08632 91.3168 7.64918 91.2725 7.8152C91.2242 8.02982 91.1557 8.02982 90.8858 8.02982C90.342 8.02982 89.907 8.02172 89.5525 8.00147C89.198 7.99337 88.9282 7.98123 88.7147 7.98123C88.6341 7.98123 88.477 7.98932 88.3038 7.98932C88.1306 7.99742 87.9493 8.00957 87.8043 8.00957C87.7157 8.00957 87.6633 7.98123 87.6633 7.92049C87.6633 7.87999 87.6875 7.8314 87.7802 7.8314C87.8889 7.8314 87.9695 7.8233 88.0339 7.80306C88.183 7.76256 88.2232 7.60869 88.2474 7.36573C88.2796 7.01749 88.2796 6.36554 88.2796 5.60832V4.15056L88.2716 4.13841Z" fill="var(--fill-0, #282828)"/>
<path id="Vector_29" d="M92.6743 4.13841C92.6743 2.88312 92.6743 2.65231 92.6662 2.3891C92.6501 2.10565 92.5857 2.02061 92.356 1.94368C92.2997 1.92343 92.1748 1.91533 92.0701 1.91533C91.9976 1.91533 91.9452 1.88699 91.9452 1.82625C91.9452 1.76551 92.0016 1.74931 92.1103 1.74931C92.489 1.74931 92.9482 1.76956 93.0972 1.76956C93.3429 1.76956 93.9995 1.74931 94.2211 1.74931C94.6803 1.74931 95.2079 1.7979 95.5946 2.09755C95.8001 2.26357 96.1062 2.68066 96.1062 3.23541C96.1062 3.84686 95.8122 4.39352 95.1032 5.06166C95.7437 5.99301 96.2552 6.74213 96.6903 7.2564C97.0931 7.73422 97.3469 7.77066 97.4637 7.79901C97.5362 7.81925 97.5805 7.81925 97.6369 7.81925C97.6933 7.81925 97.7255 7.86785 97.7255 7.90834C97.7255 7.97718 97.6772 7.99742 97.5845 7.99742H96.8957C96.4929 7.99742 96.2955 7.94883 96.1062 7.8314C95.792 7.64513 95.5221 7.2564 95.1193 6.6166C94.8333 6.17118 94.5272 5.61642 94.4386 5.49089C94.3983 5.4423 94.358 5.4342 94.3056 5.4342L93.6571 5.41395C93.6249 5.41395 93.6007 5.4342 93.6007 5.48279V5.60022C93.6007 6.36959 93.6088 7.00939 93.641 7.35763C93.6652 7.60059 93.6974 7.75446 93.919 7.79496C94.0237 7.8152 94.1808 7.8233 94.2734 7.8233C94.3298 7.8233 94.362 7.87189 94.362 7.91239C94.362 7.96908 94.3056 8.00147 94.213 8.00147C93.7941 8.00147 93.1939 7.97313 93.0892 7.97313C92.9482 7.97313 92.489 8.00147 92.203 8.00147C92.1144 8.00147 92.062 7.97313 92.062 7.91239C92.062 7.87189 92.0862 7.8233 92.1788 7.8233C92.2835 7.8233 92.3681 7.8152 92.4326 7.79496C92.5816 7.75446 92.6219 7.60059 92.6461 7.35763C92.6783 7.00939 92.6783 6.35745 92.6783 5.60022V4.14246L92.6743 4.13841ZM93.5967 4.78226C93.5967 4.87134 93.6128 4.89969 93.6612 4.92803C93.8182 4.98472 94.0317 5.00497 94.213 5.00497C94.499 5.00497 94.5997 4.97662 94.7205 4.86729C94.9421 4.68102 95.1878 4.32468 95.1878 3.6444C95.1878 2.47819 94.5151 2.17854 94.0881 2.17854C93.9069 2.17854 93.7337 2.18664 93.6612 2.20688C93.6128 2.22713 93.5967 2.25548 93.5967 2.32431V4.78226Z" fill="var(--fill-0, #282828)"/>
<path id="Vector_30" d="M101.419 5.60022C101.419 6.66114 101.419 7.18351 101.576 7.34143C101.701 7.46696 101.979 7.51555 102.539 7.51555C102.926 7.51555 103.204 7.50745 103.385 7.28069C103.474 7.17541 103.55 6.94055 103.566 6.78667C103.574 6.70974 103.59 6.66114 103.647 6.66114C103.695 6.66114 103.711 6.75023 103.711 6.84741C103.711 6.9446 103.663 7.55605 103.602 7.79901C103.554 7.98527 103.522 8.02172 103.143 8.02172C102.624 8.02172 102.205 8.01362 101.846 7.99337C101.484 7.98527 101.182 7.97313 100.884 7.97313C100.803 7.97313 100.646 7.98122 100.473 7.98122C100.299 7.98932 100.118 8.00147 99.9732 8.00147C99.8845 8.00147 99.8322 7.97313 99.8322 7.91239C99.8322 7.87189 99.8564 7.8233 99.949 7.8233C100.058 7.8233 100.138 7.8152 100.203 7.79496C100.352 7.75446 100.392 7.60059 100.416 7.35763C100.448 7.00939 100.448 6.35744 100.448 5.60022V4.14246C100.448 2.88717 100.448 2.65636 100.44 2.39315C100.424 2.1097 100.36 2.02466 100.13 1.94773C100.074 1.92748 99.9812 1.91938 99.8926 1.91938C99.812 1.91938 99.7677 1.89104 99.7677 1.8303C99.7677 1.76956 99.8161 1.75336 99.9248 1.75336C100.263 1.75336 100.722 1.77361 100.92 1.77361C101.093 1.77361 101.685 1.75336 101.963 1.75336C102.072 1.75336 102.12 1.77361 102.12 1.8303C102.12 1.88699 102.08 1.91938 101.987 1.91938C101.907 1.91938 101.79 1.92748 101.709 1.94773C101.512 1.98822 101.456 2.1016 101.439 2.39315C101.423 2.65636 101.423 2.88717 101.423 4.14246V5.60022H101.419Z" fill="var(--fill-0, #282828)"/>
<path id="Vector_31" d="M103.989 0.251058C103.909 0.153874 103.901 0.125529 103.901 0.0769372C103.901 0.0485919 103.949 0 103.989 0C104.154 0 104.517 0.125529 104.67 0.186269C104.875 0.255108 104.908 0.323946 104.908 0.469722C104.908 1.06092 104.372 2.1016 104.005 2.55108C103.957 2.60777 103.925 2.62801 103.872 2.62801C103.848 2.62801 103.824 2.60777 103.824 2.57132C103.824 2.55108 103.832 2.52273 103.864 2.44579C104.013 2.10565 104.183 1.53065 104.183 0.931346C104.183 0.611449 104.058 0.348242 103.985 0.259157L103.989 0.251058Z" fill="var(--fill-0, #282828)"/>
<path id="Vector_32" d="M106.595 5.92012C106.555 5.92012 106.547 5.92822 106.531 5.97681L106.144 7.08632C106.072 7.28879 106.039 7.49531 106.039 7.59249C106.039 7.73827 106.104 7.82735 106.325 7.82735H106.43C106.519 7.82735 106.539 7.86784 106.539 7.91644C106.539 7.98527 106.499 8.00552 106.422 8.00552C106.184 8.00552 105.846 7.97718 105.617 7.97718C105.544 7.97718 105.157 8.00552 104.779 8.00552C104.69 8.00552 104.646 7.98527 104.646 7.91644C104.646 7.86784 104.67 7.82735 104.726 7.82735C104.791 7.82735 104.875 7.81925 104.94 7.81925C105.27 7.76256 105.391 7.50745 105.54 7.09037L107.429 1.89104C107.51 1.65618 107.57 1.55899 107.643 1.55899C107.751 1.55899 107.784 1.63593 107.856 1.8222C108.029 2.27977 109.238 5.66096 109.697 6.91625C109.975 7.66538 110.18 7.77066 110.313 7.79901C110.418 7.81925 110.503 7.82735 110.583 7.82735C110.648 7.82735 110.684 7.8557 110.684 7.91644C110.684 7.98527 110.644 8.00552 110.37 8.00552C110.116 8.00552 109.588 8.00552 108.98 7.98527C108.847 7.97718 108.766 7.97718 108.766 7.91644C108.766 7.86784 108.783 7.8395 108.855 7.82735C108.903 7.81925 108.956 7.73827 108.92 7.64108L108.36 5.98086C108.344 5.93227 108.319 5.92417 108.287 5.92417H106.587L106.595 5.92012ZM108.142 5.46254C108.174 5.46254 108.182 5.4423 108.174 5.41395L107.494 3.3164C107.486 3.28805 107.478 3.23946 107.461 3.23946C107.437 3.23946 107.429 3.28805 107.421 3.3164L106.724 5.40585C106.708 5.44635 106.724 5.46254 106.748 5.46254H108.146H108.142Z" fill="var(--fill-0, #282828)"/>
<path id="Vector_33" d="M113.516 7.47506C114.257 7.47506 114.511 7.30094 114.631 7.04583C114.688 6.9203 114.74 6.78262 114.764 6.66519C114.78 6.57611 114.797 6.52752 114.845 6.52752C114.901 6.52752 114.917 6.58421 114.917 6.77858C114.917 7.04988 114.829 7.58439 114.776 7.79091C114.736 7.93668 114.688 8.00552 114.555 8.00552C113.346 8.00552 112.122 7.96503 110.66 7.96503C110.579 7.96503 110.535 7.93668 110.535 7.87594C110.535 7.82735 110.543 7.77876 110.623 7.63298C111.643 5.81484 112.694 3.94809 113.665 2.24738H112.299C111.929 2.24738 111.502 2.24738 111.272 2.39315C111.034 2.54703 110.901 2.83048 110.885 3.02485C110.869 3.14228 110.837 3.17062 110.797 3.17062C110.748 3.17062 110.724 3.13013 110.724 3.03295C110.724 2.83858 110.833 2.08945 110.873 1.83839C110.881 1.72096 110.913 1.68452 110.954 1.68452C111.018 1.68452 111.063 1.73311 111.24 1.74121C111.929 1.76956 112.275 1.76146 112.569 1.76146H114.797C114.869 1.76146 114.921 1.7898 114.921 1.8303C114.921 1.89913 114.905 1.92748 114.881 1.98417C113.878 3.83876 112.795 5.72575 111.775 7.46696H113.508L113.516 7.47506Z" fill="var(--fill-0, #282828)"/>
<path id="Vector_34" d="M116.283 4.13841C116.283 2.88312 116.283 2.65231 116.275 2.3891C116.259 2.10565 116.186 2.00847 116.029 1.95178C115.949 1.92343 115.856 1.91128 115.767 1.91128C115.695 1.91128 115.65 1.89104 115.65 1.8141C115.65 1.76551 115.707 1.74526 115.824 1.74526C116.094 1.74526 116.589 1.76551 116.794 1.76551C116.976 1.76551 117.443 1.74526 117.725 1.74526C117.814 1.74526 117.874 1.76551 117.874 1.8141C117.874 1.89104 117.834 1.91128 117.757 1.91128C117.681 1.91128 117.624 1.91938 117.544 1.93963C117.346 1.98012 117.29 2.0935 117.274 2.38505C117.258 2.64826 117.258 2.87907 117.258 4.13436V5.59212C117.258 6.38984 117.258 7.04988 117.29 7.39812C117.314 7.62084 117.362 7.74636 117.576 7.78686C117.677 7.8071 117.838 7.8152 117.947 7.8152C118.027 7.8152 118.063 7.8638 118.063 7.90429C118.063 7.96098 118.007 7.99337 117.922 7.99337C117.447 7.99337 116.952 7.96503 116.754 7.96503C116.589 7.96503 116.098 7.99337 115.808 7.99337C115.719 7.99337 115.667 7.96503 115.667 7.90429C115.667 7.8638 115.691 7.8152 115.783 7.8152C115.892 7.8152 115.973 7.8071 116.037 7.78686C116.186 7.74636 116.227 7.63298 116.251 7.39002C116.283 7.04988 116.283 6.38984 116.283 5.59212V4.13436V4.13841Z" fill="var(--fill-0, #282828)"/>
<path id="Vector_35" d="M119.465 4.13841C119.465 2.88312 119.465 2.65231 119.457 2.3891C119.441 2.10565 119.377 2.02061 119.147 1.94368C119.091 1.92343 118.966 1.91533 118.861 1.91533C118.788 1.91533 118.736 1.88699 118.736 1.82625C118.736 1.76551 118.792 1.74931 118.901 1.74931C119.28 1.74931 119.739 1.76956 119.944 1.76956C120.174 1.76956 121.777 1.77765 121.918 1.76956C122.051 1.76146 122.164 1.72906 122.22 1.72096C122.261 1.71287 122.301 1.68047 122.337 1.68047C122.377 1.68047 122.385 1.72096 122.385 1.75741C122.385 1.8141 122.345 1.91128 122.329 2.29192C122.321 2.381 122.305 2.73735 122.289 2.83453C122.281 2.87502 122.265 2.97221 122.208 2.97221C122.16 2.97221 122.152 2.93171 122.152 2.86692C122.152 2.81023 122.144 2.66446 122.104 2.56727C122.047 2.4215 121.987 2.30407 121.628 2.26762C121.503 2.24738 120.641 2.22713 120.492 2.22713C120.46 2.22713 120.444 2.25548 120.444 2.30407V4.34493C120.444 4.39352 120.452 4.43401 120.492 4.43401C120.657 4.43401 121.592 4.43401 121.757 4.41377C121.93 4.39352 122.035 4.37327 122.104 4.28824C122.16 4.23155 122.184 4.18296 122.22 4.18296C122.257 4.18296 122.277 4.22345 122.277 4.27204C122.277 4.32063 122.261 4.45831 122.22 4.87539C122.204 5.04141 122.188 5.36941 122.188 5.43015C122.188 5.49899 122.18 5.61642 122.116 5.61642C122.067 5.61642 122.051 5.58807 122.051 5.54758C122.043 5.45849 122.043 5.35321 122.027 5.24793C121.987 5.08191 121.894 4.95638 121.624 4.92803C121.491 4.90779 120.67 4.88754 120.488 4.88754C120.456 4.88754 120.448 4.92803 120.448 4.97662V5.63666C120.448 5.92012 120.44 6.6166 120.448 6.85956C120.464 7.42242 120.686 7.54795 121.427 7.54795C121.616 7.54795 121.918 7.53985 122.108 7.44266C122.289 7.34548 122.369 7.17136 122.422 6.83122C122.438 6.74213 122.454 6.70569 122.502 6.70569C122.559 6.70569 122.567 6.81097 122.567 6.90006C122.567 7.08632 122.51 7.64918 122.466 7.8152C122.418 8.02982 122.349 8.02982 122.079 8.02982C121.536 8.02982 121.101 8.02172 120.746 8.00147C120.392 7.99337 120.122 7.98123 119.908 7.98123C119.828 7.98123 119.671 7.98932 119.497 7.98932C119.324 7.99742 119.143 8.00957 118.998 8.00957C118.909 8.00957 118.857 7.98123 118.857 7.92049C118.857 7.87999 118.881 7.8314 118.974 7.8314C119.082 7.8314 119.163 7.8233 119.227 7.80306C119.376 7.76256 119.417 7.60869 119.441 7.36573C119.473 7.01749 119.473 6.36554 119.473 5.60832V4.15056L119.465 4.13841Z" fill="var(--fill-0, #282828)"/>
<path id="Vector_36" d="M124.319 6.87171C124.335 7.5115 124.428 7.70587 124.565 7.76661C124.69 7.8152 124.826 7.8233 124.943 7.8233C125.024 7.8233 125.068 7.8638 125.068 7.91239C125.068 7.98123 125.004 8.00147 124.903 8.00147C124.436 8.00147 124.097 7.97313 123.964 7.97313C123.9 7.97313 123.554 8.00147 123.183 8.00147C123.086 8.00147 123.018 7.99337 123.018 7.91239C123.018 7.8638 123.066 7.8233 123.135 7.8233C123.235 7.8233 123.364 7.8152 123.465 7.78281C123.654 7.72612 123.678 7.49936 123.687 6.78262L123.751 1.88294C123.751 1.71692 123.799 1.59948 123.876 1.59948C123.964 1.59948 124.065 1.72501 124.19 1.87079C124.279 1.97607 125.366 3.28805 126.418 4.50285C126.909 5.07786 127.872 6.24406 127.98 6.35745H128.013L127.94 2.6847C127.932 2.17854 127.868 2.03276 127.694 1.95583C127.59 1.90723 127.417 1.90723 127.316 1.90723C127.227 1.90723 127.199 1.86674 127.199 1.81815C127.199 1.74931 127.272 1.74121 127.38 1.74121C127.759 1.74121 128.146 1.76146 128.299 1.76146C128.379 1.76146 128.653 1.74121 129.004 1.74121C129.104 1.74121 129.169 1.74931 129.169 1.81815C129.169 1.86674 129.128 1.90723 129.044 1.90723C128.971 1.90723 128.911 1.90723 128.822 1.93558C128.625 2.00442 128.569 2.15019 128.561 2.61587L128.48 7.82735C128.48 8.01362 128.424 8.09056 128.363 8.09056C128.238 8.09056 128.142 8.00147 128.069 7.91644C127.618 7.42242 126.712 6.40199 125.958 5.53543C125.169 4.64053 124.404 3.64035 124.267 3.49457H124.242L124.323 6.86766L124.319 6.87171Z" fill="var(--fill-0, #282828)"/>
<path id="Vector_37" d="M130.615 4.13841C130.615 2.88312 130.615 2.65231 130.607 2.3891C130.591 2.10565 130.526 2.02061 130.297 1.94368C130.24 1.92343 130.115 1.91533 130.011 1.91533C129.938 1.91533 129.886 1.88699 129.886 1.82625C129.886 1.76551 129.942 1.74931 130.051 1.74931C130.43 1.74931 130.889 1.76956 131.094 1.76956C131.316 1.76956 131.835 1.74931 132.27 1.74931C133.173 1.74931 134.389 1.74931 135.179 2.6928C135.541 3.12203 135.859 3.81042 135.859 4.79035C135.859 5.83103 135.481 6.6166 135.07 7.09442C134.74 7.48316 133.978 8.06626 132.645 8.06626C132.383 8.06626 132.069 8.03792 131.783 8.01767C131.497 7.98932 131.231 7.96908 131.05 7.96908C130.969 7.96908 130.812 7.97718 130.639 7.97718C130.466 7.98528 130.285 7.99742 130.14 7.99742C130.051 7.99742 129.999 7.96908 129.999 7.90834C129.999 7.86784 130.023 7.81925 130.115 7.81925C130.22 7.81925 130.305 7.81115 130.369 7.79091C130.518 7.75041 130.558 7.59654 130.583 7.35358C130.615 7.00534 130.615 6.3534 130.615 5.59617V4.13841ZM131.586 5.05356C131.586 5.92822 131.594 6.55991 131.602 6.72593C131.61 6.9284 131.626 7.21995 131.682 7.30904C131.771 7.46291 132.061 7.64108 132.629 7.64108C133.285 7.64108 133.773 7.5034 134.208 7.07823C134.675 6.62065 134.824 5.88367 134.824 5.02927C134.824 3.98049 134.47 3.3002 134.152 2.96816C133.487 2.26762 132.697 2.18259 132.129 2.18259C131.98 2.18259 131.743 2.20283 131.686 2.23928C131.622 2.26762 131.598 2.30812 131.598 2.4053C131.59 2.68875 131.59 3.36904 131.59 4.01693V5.05761L131.586 5.05356Z" fill="var(--fill-0, #282828)"/>
<path id="Vector_38" d="M137.592 5.92012C137.551 5.92012 137.543 5.92822 137.527 5.97681L137.14 7.08632C137.068 7.28879 137.036 7.49531 137.036 7.59249C137.036 7.73827 137.1 7.82735 137.322 7.82735H137.426C137.515 7.82735 137.535 7.86784 137.535 7.91644C137.535 7.98527 137.495 8.00552 137.418 8.00552C137.181 8.00552 136.842 7.97718 136.613 7.97718C136.54 7.97718 136.153 8.00552 135.775 8.00552C135.686 8.00552 135.642 7.98527 135.642 7.91644C135.642 7.86784 135.666 7.82735 135.722 7.82735C135.787 7.82735 135.872 7.81925 135.936 7.81925C136.266 7.76256 136.387 7.50745 136.536 7.09037L138.425 1.89104C138.506 1.65618 138.566 1.55899 138.639 1.55899C138.748 1.55899 138.78 1.63593 138.852 1.8222C139.026 2.27977 140.234 5.66096 140.693 6.91625C140.971 7.66538 141.177 7.77066 141.309 7.79901C141.414 7.81925 141.499 7.82735 141.579 7.82735C141.644 7.82735 141.68 7.8557 141.68 7.91644C141.68 7.98527 141.64 8.00552 141.366 8.00552C141.112 8.00552 140.584 8.00552 139.976 7.98527C139.843 7.97718 139.763 7.97718 139.763 7.91644C139.763 7.86784 139.779 7.8395 139.851 7.82735C139.9 7.81925 139.952 7.73827 139.916 7.64108L139.356 5.98086C139.34 5.93227 139.316 5.92417 139.283 5.92417H137.583L137.592 5.92012ZM139.134 5.46254C139.166 5.46254 139.175 5.4423 139.166 5.41395L138.486 3.3164C138.478 3.28805 138.47 3.23946 138.454 3.23946C138.429 3.23946 138.421 3.28805 138.413 3.3164L137.716 5.40585C137.7 5.44635 137.716 5.46254 137.741 5.46254H139.138H139.134Z" fill="var(--fill-0, #282828)"/>
</g>
<path id="Vector_39" d="M8.01986 53.6576C25.2802 59.6547 48.2283 63.3031 73.3917 63.2869C99.9489 63.2869 123.977 59.2376 141.515 52.6655L141.636 52.6777C125.423 60.8128 101.053 65.9959 73.7704 66.004C47.3743 66.004 23.6489 61.1448 7.44385 53.4592L8.01584 53.6617L8.01986 53.6576Z" fill="var(--fill-0, #282828)"/>
</g>
</svg>
