<svg preserveAspectRatio="none" width="100%" height="100%" overflow="visible" style="display: block;" viewBox="0 0 98 90" fill="none" xmlns="http://www.w3.org/2000/svg">
<g id="comune" opacity="0.85" clip-path="url(#clip0_4106_1293)">
<path id="Vector" d="M7.44352 87.1135V89.8776H7.14274L6.5792 89.2316C5.9638 89.7586 5.04417 90 4.23517 90C1.82199 90 0 87.586 0 85.3489C0 83.5979 0.947294 81.9387 2.48233 81.0343C3.02858 80.7249 3.71657 80.589 4.3458 80.589C5.11331 80.589 5.867 80.8031 6.47202 81.2893L7.02173 80.7215H7.32251V83.3225H6.92493C6.71749 81.8537 5.67685 80.9221 4.33197 80.9221C3.45382 80.9221 3.00437 81.1091 2.52381 81.8401C1.88076 82.8125 2.01559 84.3765 2.01559 85.4679C2.01559 86.2363 1.98793 87.2868 2.24723 88.164C2.50653 89.0276 3.15304 89.6056 4.19368 89.66C5.88083 89.7416 6.66217 88.5686 7.05976 87.1135H7.44352Z" fill="var(--fill-0, #282828)"/>
<path id="Vector_2" d="M11.2776 84.3765C12.8265 84.3765 14.1576 85.7093 14.1576 87.2223C14.1576 88.7352 12.8265 90 11.2776 90C9.72878 90 8.39773 88.7318 8.39773 87.2223C8.39773 85.7127 9.72878 84.3765 11.2776 84.3765ZM11.2776 84.6451C9.93276 84.6451 10.0296 85.6957 10.0296 87.2189C10.0296 88.9698 10.0572 89.728 11.2776 89.728C12.4981 89.728 12.5257 88.9732 12.5257 87.2189C12.5257 85.6957 12.6225 84.6451 11.2776 84.6451Z" fill="var(--fill-0, #282828)"/>
<path id="Vector_3" d="M17.0617 85.6991H17.0893C17.4316 84.8899 18.0643 84.3765 18.9943 84.3765C19.748 84.3765 20.3253 84.7811 20.5708 85.4951C20.9684 84.8355 21.5596 84.3765 22.3513 84.3765C24.1456 84.3765 23.997 85.4679 23.997 86.8585V89.4594H24.8751V89.796H21.8189V89.4594H22.5449V85.8589C22.5449 85.4815 22.6141 84.8627 21.9675 84.8627C20.9407 84.8627 20.5293 86.0357 20.5293 86.8585V89.4594H21.283V89.796H18.3651V89.4594H19.0773V86.2363C19.0773 85.6175 19.2432 84.8627 18.4204 84.8627C17.7497 84.8627 17.0617 85.8861 17.0617 86.8857V89.4594H17.8154V89.796H14.7176V89.4594H15.6096V84.7947H14.6623V84.4581C15.3607 84.4853 16.1973 84.4309 17.0617 84.4037V85.6991Z" fill="var(--fill-0, #282828)"/>
<path id="Vector_4" d="M29.418 88.7182H29.3765C28.9927 89.473 28.2529 90 27.3609 90C26.0437 90 25.7014 89.3268 25.7014 88.691V84.7947H24.8094V84.4581C25.494 84.4853 26.3306 84.4309 27.1535 84.4037V88.5958C27.1535 89.15 27.112 89.5648 27.8103 89.5648C28.3186 89.5648 29.4145 89.0106 29.4145 87.3956V84.7947H28.3739V84.4581C29.2105 84.4853 30.0472 84.4309 30.87 84.4037V89.4594H31.8312V89.796C31.0222 89.796 30.2132 89.7552 29.418 89.9048V88.7182Z" fill="var(--fill-0, #282828)"/>
<path id="Vector_5" d="M34.5589 85.6719H34.5866C35.0257 84.8355 35.6411 84.3765 36.6299 84.3765C38.4518 84.3765 38.3032 85.6311 38.3032 86.9639V89.456H39.1675V89.7926H35.9868V89.456H36.8511V87.0285C36.8511 85.7739 36.9894 84.8593 36.0698 84.8593C35.482 84.8593 34.9462 85.4781 34.7387 85.9779C34.5589 86.4233 34.5589 87.0421 34.5589 87.6778V89.456H35.4233V89.7926H32.1734V89.456H33.1069V84.7913H32.1734V84.4547C32.8718 84.4819 33.7085 84.4275 34.5589 84.4003V85.6685V85.6719Z" fill="var(--fill-0, #282828)"/>
<path id="Vector_6" d="M41.2764 86.8177V87.8954C41.2764 88.8406 41.3318 89.728 42.4969 89.728C43.4856 89.728 44.2393 89.0276 44.5124 88.1096H44.8547C44.4986 89.4186 43.5513 89.9966 42.2237 89.9966C40.7302 89.9966 39.6481 88.5822 39.6481 87.2052C39.6481 85.7229 40.8823 84.3731 42.3759 84.3731C43.6516 84.3731 44.8305 85.2367 44.8305 86.5695C44.8305 86.8517 44.7061 86.8109 44.4882 86.8109H41.2799L41.2764 86.8177ZM43.2782 86.4811C43.2782 85.5767 43.5098 84.6485 42.2894 84.6485C41.152 84.6485 41.2764 85.6345 41.2764 86.4811H43.2782Z" fill="var(--fill-0, #282828)"/>
<path id="Vector_7" d="M52.4746 88.878H52.4469C52.1185 89.592 51.472 89.9966 50.6111 89.9966C49.8851 89.9966 49.5151 89.7416 48.9931 89.2962C48.4434 88.8236 48.1703 87.9226 48.1703 87.2188C48.1703 85.886 49.363 84.3765 50.7874 84.3765C51.6794 84.3765 52.281 84.8865 52.4469 85.5223H52.4746V81.1261H51.4858V80.7895C52.3224 80.8167 53.1453 80.7351 53.9543 80.5855V89.456H54.9431V89.7926C54.1479 89.7926 53.3527 89.7518 52.4746 89.9014V88.878ZM49.8436 88.5142C49.8436 89.1602 50.0752 89.728 50.8324 89.728C51.669 89.728 52.478 88.8508 52.478 88.0416V86.6136C52.478 85.7637 51.9145 84.6451 50.86 84.6451C49.9542 84.6451 49.847 85.3455 49.847 86.1138V88.5142H49.8436Z" fill="var(--fill-0, #282828)"/>
<path id="Vector_8" d="M55.1367 89.796V89.4594H56.1358V84.7947H55.1367V84.4581C55.9457 84.4853 56.7823 84.4309 57.619 84.4037V89.4594H58.632V89.796H55.1367ZM56.765 82.7309C56.3398 82.7309 56.0252 82.3127 56.0252 81.9217C56.0252 81.5579 56.3951 81.1941 56.765 81.1941C57.1626 81.1941 57.574 81.5171 57.574 81.9217C57.574 82.3807 57.2318 82.7309 56.765 82.7309Z" fill="var(--fill-0, #282828)"/>
<path id="Vector_9" d="M61.6882 80.7895H66.117C67.8595 80.7895 69.9407 81.1397 69.9407 83.2681C69.9407 85.1551 67.939 85.7093 66.3624 85.7093H64.7998V89.456H66.2518V89.7926H61.6882V89.456H63.0469V81.1261H61.6882V80.7895ZM66.4039 85.3727C67.735 85.3727 68.0081 84.3629 68.0081 83.2545C68.0081 82.2855 67.939 81.1261 66.4039 81.1261H64.7998V85.3727H66.4039Z" fill="var(--fill-0, #282828)"/>
<path id="Vector_10" d="M73.4706 85.1313C73.4706 84.7811 72.7999 84.6451 72.5648 84.6451C72.0428 84.6451 71.3997 84.9001 71.6037 85.1585C71.6867 85.2673 71.7938 85.5495 71.7938 85.8045C71.7938 86.1547 71.4516 86.3995 71.137 86.3995C70.7532 86.3995 70.4248 86.1955 70.4248 85.7671C70.4248 84.7437 71.7696 84.3799 72.6028 84.3799C73.1906 84.3799 73.8233 84.4751 74.3591 84.7437C74.7429 84.9307 74.8674 85.1483 74.8674 85.5665V89.1534C74.8674 89.3268 75.0333 89.4084 75.1958 89.4084C75.3583 89.4084 75.5657 89.2078 75.6764 89.099L75.8423 89.286C75.4862 89.7178 75.1163 90 74.5389 90C73.9616 90 73.5536 89.6362 73.4706 89.0446C72.9762 89.6362 72.2364 90 71.4689 90C70.646 90 70.0445 89.5546 70.0445 88.691C70.0445 87.0863 72.2364 86.7497 73.4706 86.8177V85.1313ZM73.4706 87.0999C72.6201 87.0999 71.4827 87.2087 71.4827 88.3001C71.4827 88.8916 71.7281 89.337 72.3747 89.337C72.8552 89.337 73.2113 88.9732 73.3738 88.5415C73.4568 88.3375 73.4706 88.0961 73.4706 87.8411V87.0999Z" fill="var(--fill-0, #282828)"/>
<path id="Vector_11" d="M78.4214 85.8997C78.8605 85.1585 79.3411 84.3765 80.3402 84.3765C80.8761 84.3765 81.4362 84.6451 81.4362 85.2537C81.4362 85.7807 81.0663 86.0085 80.5719 86.0085C80.2434 86.0085 79.915 85.7263 79.915 85.3897C79.915 85.3353 79.9288 85.2537 79.9426 85.1891C79.9841 84.9749 79.998 84.8933 79.8458 84.8933C79.5865 84.8933 79.4482 85.0293 79.2685 85.2027C78.7464 85.7161 78.418 86.4437 78.418 88.2082V89.4628H79.6522V89.7994H76.1293V89.4628H76.9383V84.7981H76.0325V84.4615C76.7447 84.4887 77.5813 84.4343 78.418 84.4071V85.9031L78.4214 85.8997Z" fill="var(--fill-0, #282828)"/>
<path id="Vector_12" d="M84.0706 85.6991H84.0983C84.4406 84.8899 85.0732 84.3765 86.0032 84.3765C86.7569 84.3765 87.3343 84.7811 87.5798 85.4951C87.9774 84.8355 88.5686 84.3765 89.3603 84.3765C91.1581 84.3765 91.0059 85.4679 91.0059 86.8585V89.4594H91.8841V89.796H88.8278V89.4594H89.5539V85.8589C89.5539 85.4815 89.623 84.8627 88.9765 84.8627C87.9497 84.8627 87.5383 86.0357 87.5383 86.8585V89.4594H88.292V89.796H85.3706V89.4594H86.0828V86.2363C86.0828 85.6175 86.2487 84.8627 85.4259 84.8627C84.7552 84.8627 84.0672 85.8861 84.0672 86.8857V89.4594H84.8209V89.796H81.7231V89.4594H82.6151V84.7947H81.6678V84.4581C82.3662 84.4853 83.2029 84.4309 84.0672 84.4037V85.6991H84.0706Z" fill="var(--fill-0, #282828)"/>
<path id="Vector_13" d="M95.6318 85.1313C95.6318 84.7811 94.961 84.6451 94.726 84.6451C94.2039 84.6451 93.5609 84.9001 93.7648 85.1585C93.8478 85.2673 93.955 85.5495 93.955 85.8045C93.955 86.1547 93.6127 86.3995 93.2981 86.3995C92.9143 86.3995 92.5859 86.1955 92.5859 85.7671C92.5859 84.7437 93.9308 84.3799 94.7674 84.3799C95.3552 84.3799 95.9879 84.4751 96.5203 84.7437C96.904 84.9307 97.0285 85.1483 97.0285 85.5665V89.1534C97.0285 89.3268 97.1945 89.4084 97.3569 89.4084C97.5194 89.4084 97.7269 89.2078 97.8375 89.099L98.0035 89.286C97.6474 89.7178 97.2774 90 96.7001 90C96.1227 90 95.7113 89.6362 95.6318 89.0446C95.1374 89.6362 94.3975 90 93.63 90C92.8072 90 92.2056 89.5546 92.2056 88.691C92.2056 87.0863 94.401 86.7497 95.6318 86.8177V85.1313ZM95.6318 87.0999C94.7813 87.0999 93.6438 87.2087 93.6438 88.3001C93.6438 88.8916 93.8893 89.337 94.5358 89.337C95.0164 89.337 95.3725 88.9732 95.535 88.5415C95.6179 88.3375 95.6318 88.0961 95.6318 87.8411V87.0999Z" fill="var(--fill-0, #282828)"/>
<path id="Vector_14" d="M22.2891 52.8692C22.2891 52.8692 22.2752 52.8556 22.2649 52.8556C22.2545 52.8556 22.2476 52.8556 22.2407 52.8624L21.608 53.301C21.5907 53.3146 21.5734 53.318 21.5596 53.3146C21.5458 53.3146 21.5319 53.301 21.5181 53.2806L21.3349 53.0256C21.3349 53.0256 21.3176 52.995 21.321 52.9848C21.3245 52.9746 21.3349 52.961 21.3487 52.9508L22.9287 51.8526C22.9563 51.8322 22.9805 51.8322 22.9944 51.8526L23.2018 52.1416C23.2156 52.162 23.2122 52.1824 23.1845 52.2028L22.6071 52.604C22.5829 52.621 22.576 52.6414 22.5898 52.6618L22.9252 53.1276C22.939 53.148 22.9598 53.1514 22.984 53.1344L23.5613 52.7332C23.589 52.7128 23.6097 52.7162 23.6236 52.7332L23.831 53.0222C23.8483 53.046 23.8414 53.0664 23.8137 53.0868L22.2338 54.185C22.2026 54.2054 22.175 54.202 22.1542 54.1748L21.971 53.9198C21.9572 53.9028 21.9503 53.8858 21.9537 53.8722C21.9537 53.8586 21.9675 53.845 21.9848 53.8314L22.6175 53.3928C22.6175 53.3928 22.6313 53.3792 22.6348 53.3724C22.6348 53.3656 22.6348 53.3554 22.6279 53.3452L22.2891 52.8726V52.8692Z" fill="var(--fill-0, #282828)"/>
<path id="Vector_15" d="M22.7005 54.712C22.6867 54.5624 22.7178 54.4094 22.7973 54.2632C22.8768 54.1136 23.0013 53.9742 23.1672 53.8416C23.3366 53.709 23.506 53.6206 23.672 53.5764C23.8414 53.5322 23.997 53.5356 24.1456 53.5832C24.2943 53.6308 24.4222 53.7192 24.5294 53.8552C24.6366 53.9878 24.6953 54.1306 24.7092 54.2802C24.723 54.4332 24.6884 54.5828 24.6089 54.7358C24.5294 54.8888 24.4049 55.0282 24.2355 55.1608C24.0696 55.29 23.9036 55.3784 23.7342 55.4226C23.5683 55.4668 23.4127 55.4634 23.2675 55.4158C23.1223 55.3682 22.9944 55.2798 22.8837 55.1438C22.7731 55.0078 22.7109 54.865 22.697 54.7154M23.468 55.0656C23.5925 55.0452 23.7515 54.9602 23.9451 54.8106C24.1422 54.6576 24.2666 54.5182 24.315 54.3992C24.3669 54.2802 24.3496 54.168 24.2632 54.0626C24.1767 53.9572 24.0696 53.913 23.9382 53.9334C23.8068 53.9538 23.6443 54.0422 23.4473 54.1986C23.2536 54.3516 23.1361 54.4842 23.0877 54.5998C23.0428 54.7154 23.06 54.8276 23.1499 54.9364C23.2364 55.0418 23.3435 55.086 23.468 55.069" fill="var(--fill-0, #282828)"/>
<path id="Vector_16" d="M25.5113 55.5789C25.4974 55.5177 25.4594 55.4531 25.4006 55.3885C25.3315 55.3137 25.2658 55.2695 25.2001 55.2559C25.1344 55.2423 25.0756 55.2559 25.0272 55.3035C24.9546 55.3647 24.9477 55.4599 25.0065 55.5891L25.1759 55.9597C25.2416 56.0991 25.2589 56.2283 25.2347 56.3473C25.2105 56.4663 25.1448 56.5717 25.0411 56.6601C24.9443 56.7451 24.8405 56.7961 24.7299 56.8131C24.6193 56.8301 24.5086 56.8131 24.3946 56.7655C24.2805 56.7179 24.1733 56.6363 24.073 56.5241C23.9589 56.3983 23.8794 56.2657 23.8379 56.1229C23.793 55.9801 23.793 55.8509 23.8345 55.7319C23.8379 55.7183 23.8448 55.7081 23.8552 55.7013C23.8656 55.6911 23.8829 55.6877 23.9071 55.6877L24.1456 55.7353C24.1664 55.7421 24.1802 55.7489 24.1871 55.7591C24.1975 55.7693 24.2009 55.7829 24.194 55.7999C24.1698 55.9019 24.1629 55.9903 24.1802 56.0617C24.194 56.1331 24.239 56.2079 24.3081 56.2827C24.3807 56.3643 24.4568 56.4153 24.5259 56.4391C24.5985 56.4595 24.6608 56.4459 24.7195 56.3949C24.7576 56.3609 24.7783 56.3235 24.7818 56.2759C24.7852 56.2283 24.7749 56.1705 24.7437 56.0991L24.5812 55.7421C24.519 55.6095 24.4983 55.4769 24.5259 55.3511C24.5501 55.2253 24.6124 55.1199 24.7126 55.0315C24.7991 54.9533 24.8993 54.9092 25.0099 54.8888C25.1206 54.8718 25.2312 54.8854 25.3419 54.9295C25.4559 54.9737 25.5562 55.0486 25.653 55.1505C25.7463 55.2525 25.812 55.3647 25.8501 55.4837C25.8881 55.6027 25.895 55.7149 25.8708 55.8203C25.8674 55.8373 25.8604 55.8509 25.8535 55.8577C25.8466 55.8645 25.8328 55.8679 25.8224 55.8679L25.5562 55.8237C25.5562 55.8237 25.5355 55.8169 25.532 55.8135C25.5251 55.8067 25.5251 55.7897 25.5285 55.7625C25.5389 55.6945 25.5389 55.6333 25.5216 55.5721" fill="var(--fill-0, #282828)"/>
<path id="Vector_17" d="M26.1405 55.8135C26.1405 55.8135 26.1612 55.7965 26.1751 55.7999C26.1889 55.7999 26.1993 55.8067 26.2096 55.8169L27.2192 56.8233C27.2434 56.8471 27.2434 56.8709 27.2192 56.8913L27.0359 57.0681C27.0152 57.0885 26.9944 57.0851 26.9737 57.0681L26.6452 56.7383C26.6452 56.7383 26.621 56.7247 26.6072 56.7383L25.4559 57.8569C25.4317 57.8807 25.4075 57.8841 25.3903 57.8637L25.1379 57.6121C25.1206 57.5951 25.124 57.5747 25.1448 57.5543L26.2961 56.4391C26.2961 56.4391 26.3099 56.4221 26.3133 56.4153C26.3133 56.4085 26.3133 56.4017 26.303 56.3949L25.9642 56.0549C25.9434 56.0311 25.94 56.0107 25.9607 55.9937L26.1439 55.8169L26.1405 55.8135Z" fill="var(--fill-0, #282828)"/>
<path id="Vector_18" d="M27.6824 57.2415C27.7032 57.2585 27.6997 57.2789 27.679 57.3027L26.3548 58.6865C26.3548 58.6865 26.3237 58.7137 26.3099 58.7137C26.2961 58.7137 26.2788 58.7069 26.2615 58.6899L26.0333 58.4757C26.0333 58.4757 26.0126 58.4485 26.0126 58.4383C26.0126 58.4247 26.0195 58.4111 26.0333 58.3975L27.3609 57.0103C27.3851 56.9865 27.4058 56.9831 27.4266 57.0001L27.6893 57.2415H27.6824Z" fill="var(--fill-0, #282828)"/>
<path id="Vector_19" d="M28.3635 58.3125C28.3428 58.2547 28.2944 58.1935 28.2287 58.1357C28.1526 58.0711 28.08 58.0337 28.0143 58.0303C27.9486 58.0269 27.8933 58.0473 27.8484 58.0983C27.7861 58.1697 27.7896 58.2649 27.8622 58.3839L28.08 58.7307C28.163 58.8599 28.1976 58.9857 28.1872 59.1081C28.1768 59.2305 28.125 59.3393 28.0351 59.4447C27.9521 59.5399 27.8553 59.6045 27.7481 59.6351C27.6409 59.6657 27.5269 59.6657 27.4093 59.6283C27.2918 59.5943 27.1742 59.5263 27.0601 59.4277C26.9322 59.3189 26.8354 59.1931 26.7766 59.0605C26.7144 58.9245 26.6971 58.7953 26.7213 58.6729C26.7248 58.6593 26.7317 58.6491 26.7386 58.6389C26.749 58.6287 26.7663 58.6219 26.787 58.6219L27.029 58.6389C27.0497 58.6389 27.0636 58.6457 27.0739 58.6559C27.0843 58.6661 27.0912 58.6797 27.0878 58.6967C27.0774 58.8021 27.0809 58.8905 27.1051 58.9585C27.1293 59.0265 27.1811 59.0945 27.2606 59.1625C27.3436 59.2339 27.4231 59.2781 27.4957 59.2917C27.5683 59.3053 27.6306 59.2815 27.6824 59.2237C27.717 59.1863 27.7308 59.1455 27.7308 59.0979C27.7308 59.0503 27.7101 58.9959 27.6686 58.9279L27.4612 58.5947C27.3816 58.4689 27.3471 58.3431 27.3574 58.2139C27.3678 58.0847 27.4162 57.9725 27.5027 57.8739C27.5787 57.7855 27.6721 57.7277 27.7792 57.6971C27.8864 57.6665 27.997 57.6665 28.1146 57.6971C28.2321 57.7277 28.3428 57.7889 28.4499 57.8807C28.5571 57.9725 28.6366 58.0745 28.6885 58.1901C28.7404 58.3057 28.7646 58.4145 28.7507 58.5199C28.7507 58.5369 28.7438 58.5505 28.7369 58.5573C28.73 58.5641 28.7196 58.5709 28.7058 58.5709L28.4361 58.5607C28.4361 58.5607 28.4154 58.5607 28.4119 58.5539C28.405 58.5471 28.4015 58.5335 28.4015 58.5063C28.4015 58.4383 28.3946 58.3771 28.3704 58.3159" fill="var(--fill-0, #282828)"/>
<path id="Vector_20" d="M28.367 59.5467C28.3462 59.4889 28.3428 59.4311 28.3566 59.3733C28.367 59.3121 28.3946 59.2577 28.4361 59.2101C28.4776 59.1625 28.526 59.1251 28.5813 59.1013C28.6401 59.0775 28.6989 59.0673 28.7576 59.0741C28.8164 59.0809 28.8717 59.1013 28.9167 59.1387C28.9616 59.1761 28.9927 59.2203 29.0135 59.2747C29.0308 59.3291 29.0342 59.3869 29.0239 59.4481C29.01 59.5093 28.9858 59.5637 28.9443 59.6113C28.9028 59.6589 28.8544 59.6963 28.7991 59.7201C28.7404 59.7439 28.685 59.7541 28.6228 59.7473C28.564 59.7405 28.5122 59.7201 28.4672 59.6827C28.4223 59.6453 28.3877 59.6011 28.3704 59.5433" fill="var(--fill-0, #282828)"/>
<path id="Vector_21" d="M29.6254 58.9517C29.6254 58.9517 29.6462 58.9347 29.6565 58.9313C29.6704 58.9313 29.6807 58.9313 29.6946 58.9415L30.8458 59.7881C30.8735 59.8085 30.8769 59.8289 30.8562 59.8561L30.7041 60.0567C30.6868 60.0771 30.6661 60.0805 30.6419 60.0635L30.265 59.7881C30.265 59.7881 30.2374 59.7779 30.227 59.7949L29.2589 61.0699C29.2382 61.097 29.2175 61.1039 29.1933 61.0869L28.9063 60.8761C28.8856 60.8625 28.8856 60.8421 28.9063 60.8183L29.8743 59.5467C29.8743 59.5467 29.8847 59.5297 29.8847 59.5229C29.8847 59.5161 29.8813 59.5093 29.8709 59.5025L29.4837 59.2169C29.4595 59.1999 29.4525 59.1795 29.4698 59.1557L29.622 58.9551L29.6254 58.9517Z" fill="var(--fill-0, #282828)"/>
<path id="Vector_22" d="M32.3255 60.7911C32.3255 60.7911 32.3186 60.8183 32.3013 60.8285L30.7317 62.0728C30.7006 62.0966 30.6695 62.1 30.6349 62.0796L30.3756 61.9096C30.3411 61.8858 30.3307 61.8586 30.3411 61.8178L30.9115 59.9207L30.9184 59.9003C30.9184 59.9003 30.9357 59.8833 30.9461 59.8799C30.9565 59.8799 30.9703 59.8799 30.9807 59.8867L31.2815 60.0839C31.3022 60.0975 31.3091 60.1213 31.2987 60.1519L30.8666 61.5186C30.8666 61.5186 30.8597 61.539 30.8666 61.5424C30.87 61.5458 30.8804 61.5424 30.8942 61.5356L31.9971 60.6143C32.0213 60.5939 32.0455 60.5905 32.0697 60.6075L32.3048 60.7605C32.3048 60.7605 32.3255 60.7809 32.3255 60.7979" fill="var(--fill-0, #282828)"/>
<path id="Vector_23" d="M32.7646 63.307C32.7646 63.307 32.7473 63.3274 32.737 63.3308C32.7266 63.3342 32.7128 63.3308 32.7024 63.3308L32.3843 63.1472C32.3601 63.1336 32.3532 63.1098 32.3636 63.0758L32.5226 62.287C32.5226 62.287 32.5226 62.2598 32.5192 62.2496C32.5157 62.2394 32.5019 62.2292 32.4811 62.219L32.2771 62.1C32.2771 62.1 32.2599 62.0932 32.2529 62.1C32.246 62.1 32.2391 62.1068 32.2357 62.1136L31.8484 62.7596C31.8346 62.78 31.8242 62.7902 31.8104 62.7936C31.7966 62.797 31.7793 62.7936 31.7586 62.78L31.4854 62.6202C31.4854 62.6202 31.4578 62.5998 31.4578 62.5862C31.4578 62.5726 31.4578 62.5624 31.4681 62.5454L32.4535 60.9033C32.4708 60.8727 32.4915 60.8659 32.5157 60.8795L33.1899 61.2705C33.3835 61.3827 33.5079 61.5119 33.5667 61.6546C33.6255 61.7974 33.6047 61.947 33.5149 62.1C33.4457 62.2122 33.3593 62.2938 33.2556 62.3414C33.1518 62.389 33.0481 62.406 32.9409 62.389C32.9271 62.389 32.9167 62.3958 32.9098 62.4196L32.775 63.2832C32.775 63.2832 32.7681 63.3036 32.7681 63.307M32.934 62.032C32.9997 62.0184 33.055 61.9742 33.1 61.9028C33.1449 61.8281 33.1588 61.7566 33.138 61.692C33.1173 61.6275 33.0723 61.5731 32.9963 61.5289L32.73 61.3759C32.73 61.3759 32.7024 61.3623 32.692 61.3657C32.6816 61.3657 32.6747 61.3759 32.6644 61.3895L32.4362 61.7668C32.4362 61.7668 32.4224 61.7907 32.4258 61.8008C32.4258 61.811 32.4327 61.8178 32.4431 61.8246L32.7093 61.9776C32.7923 62.0252 32.8683 62.0456 32.934 62.032Z" fill="var(--fill-0, #282828)"/>
<path id="Vector_24" d="M33.0308 63.4872C33.0308 63.4872 33.0308 63.4634 33.0377 63.4498L33.9297 61.7566C33.9297 61.7566 33.947 61.7294 33.9608 61.726C33.9747 61.7226 33.985 61.726 33.9989 61.7294L34.6004 62.0354C34.8182 62.1476 34.9634 62.27 35.036 62.4094C35.1087 62.5488 35.1052 62.695 35.0222 62.848C34.9738 62.9364 34.9116 63.001 34.8355 63.0418C34.7595 63.0792 34.6558 63.0962 34.5244 63.0894C34.5175 63.0894 34.514 63.0894 34.514 63.0962C34.514 63.103 34.514 63.1064 34.514 63.1098C34.6073 63.2118 34.6627 63.307 34.68 63.4022C34.6972 63.494 34.68 63.596 34.6212 63.7048C34.5347 63.868 34.4137 63.9598 34.2582 63.9836C34.1026 64.004 33.909 63.9564 33.6808 63.8408L33.0481 63.5178C33.0481 63.5178 33.0274 63.5008 33.0239 63.4906M33.826 63.5518C33.9228 63.5994 34.0058 63.6164 34.0749 63.5994C34.1475 63.5824 34.2028 63.5348 34.2409 63.4634C34.2789 63.3886 34.2858 63.3206 34.2547 63.2526C34.227 63.1846 34.1717 63.1302 34.0888 63.0894L33.8398 62.9636C33.8398 62.9636 33.8122 62.9534 33.8018 62.9534C33.7914 62.9534 33.7845 62.967 33.7741 62.9806L33.5702 63.3648C33.5702 63.3648 33.5563 63.3954 33.5598 63.4022C33.5598 63.4124 33.5667 63.4192 33.5771 63.426L33.8225 63.5518H33.826ZM34.2478 62.7936C34.3204 62.831 34.3895 62.8412 34.4587 62.831C34.5278 62.8174 34.5797 62.7766 34.6177 62.7052C34.6557 62.6304 34.6627 62.5624 34.6315 62.4944C34.6039 62.4264 34.5486 62.372 34.4656 62.3312L34.2374 62.2156C34.2374 62.2156 34.2098 62.2054 34.1994 62.2088C34.189 62.2122 34.1821 62.2224 34.1717 62.236L33.9781 62.6032C33.9781 62.6032 33.9643 62.6304 33.9678 62.6406C33.9678 62.6508 33.9747 62.6576 33.9885 62.6644L34.2478 62.797V62.7936Z" fill="var(--fill-0, #282828)"/>
<path id="Vector_25" d="M35.5235 62.4978L36.6748 63.0112C36.699 63.0214 36.7025 63.0418 36.6886 63.069L36.5849 63.29C36.5676 63.324 36.5434 63.3342 36.5123 63.3206L35.7828 62.9942C35.7552 62.9806 35.7344 62.9874 35.7206 63.0146L35.5546 63.3716C35.5408 63.3988 35.5477 63.4192 35.5685 63.4294L36.0525 63.647C36.0802 63.6572 36.0836 63.6776 36.0732 63.7048L35.9626 63.9428C35.9522 63.9666 35.9349 63.9734 35.9107 63.9598L35.4233 63.7422C35.4025 63.732 35.3852 63.7388 35.3783 63.7558L35.1985 64.1434C35.1985 64.1434 35.1916 64.1638 35.1916 64.1706C35.1916 64.1774 35.1985 64.1842 35.2089 64.1876L35.9903 64.5378C36.0179 64.5514 36.0248 64.5684 36.0145 64.5922L35.9073 64.8268C35.8935 64.8574 35.8727 64.8642 35.8416 64.8506L34.6903 64.3372C34.673 64.3304 34.6627 64.3202 34.6558 64.3066C34.6523 64.2964 34.6558 64.2794 34.6627 64.2624L35.4648 62.5284C35.4786 62.4978 35.4993 62.4876 35.5235 62.4978Z" fill="var(--fill-0, #282828)"/>
<path id="Vector_26" d="M36.7924 63.1166C36.7924 63.1166 36.8062 63.0928 36.82 63.0894C36.8304 63.086 36.8442 63.086 36.858 63.0894L38.196 63.6096C38.2271 63.6198 38.2375 63.6436 38.2237 63.6742L38.1303 63.9088C38.12 63.9326 38.1027 63.9428 38.075 63.9292L37.6394 63.7592C37.6394 63.7592 37.6117 63.7592 37.6048 63.7728L37.0102 65.2552C36.9963 65.2858 36.979 65.2994 36.9514 65.2892L36.6195 65.16C36.5953 65.1498 36.5918 65.1328 36.6022 65.1022L37.1934 63.6232C37.1934 63.6232 37.2003 63.6028 37.1969 63.596C37.1969 63.5892 37.1899 63.5824 37.1796 63.579L36.7301 63.4056C36.699 63.3954 36.6921 63.375 36.7025 63.3512L36.7958 63.1166H36.7924Z" fill="var(--fill-0, #282828)"/>
<path id="Vector_27" d="M39.8901 64.191C39.8901 64.191 39.8901 64.2182 39.8762 64.2318L38.6973 65.84C38.6731 65.874 38.642 65.8808 38.604 65.8706L38.3066 65.772C38.2686 65.7584 38.2479 65.7346 38.2479 65.6938L38.2894 63.715V63.6946C38.2894 63.6946 38.3032 63.6742 38.3136 63.6674C38.3239 63.664 38.3343 63.6606 38.3481 63.6674L38.6904 63.7796C38.7146 63.7864 38.7284 63.8068 38.725 63.8408L38.6731 65.2688C38.6731 65.2688 38.6731 65.2892 38.68 65.2892C38.6869 65.2892 38.6939 65.2892 38.7042 65.2756L39.5236 64.0992C39.5409 64.072 39.5651 64.0652 39.5893 64.072L39.859 64.1604C39.859 64.1604 39.8832 64.174 39.8866 64.191" fill="var(--fill-0, #282828)"/>
<path id="Vector_28" d="M40.9895 66.4995C40.9895 66.4995 40.9791 66.5233 40.9687 66.5301C40.9584 66.5369 40.948 66.5369 40.9342 66.5369L40.5781 66.4417C40.5504 66.4349 40.5366 66.4145 40.5366 66.3805L40.4778 65.5782C40.4778 65.5782 40.4709 65.551 40.464 65.5442C40.4571 65.5374 40.4398 65.5306 40.419 65.5238L40.1874 65.4626C40.1874 65.4626 40.1701 65.4626 40.1632 65.4626C40.1563 65.466 40.1528 65.4728 40.1494 65.4796L39.9488 66.2037C39.9419 66.2275 39.9316 66.2411 39.9212 66.2479C39.9074 66.2547 39.8901 66.2547 39.8693 66.2479L39.5616 66.1663C39.5409 66.1595 39.5305 66.1527 39.5236 66.1425C39.5201 66.1323 39.5201 66.1187 39.5236 66.1017L40.0318 64.2624C40.0422 64.2284 40.0595 64.2148 40.0837 64.225L40.8374 64.4256C41.0552 64.4834 41.2108 64.5752 41.3041 64.701C41.3974 64.8234 41.4216 64.973 41.3732 65.143C41.3387 65.2722 41.2764 65.3708 41.19 65.4422C41.1036 65.5136 41.0068 65.5578 40.8996 65.568C40.8858 65.568 40.8789 65.5816 40.8789 65.6054L40.9826 66.4723C40.9826 66.4723 40.9826 66.4927 40.9826 66.4961M40.8132 65.228C40.8719 65.1974 40.9134 65.143 40.9376 65.0614C40.9618 64.9764 40.9549 64.9084 40.9169 64.8506C40.8789 64.7928 40.8201 64.752 40.7371 64.7316L40.4398 64.6534C40.4225 64.65 40.4087 64.65 40.4017 64.6534C40.3948 64.6568 40.3879 64.667 40.3845 64.684L40.2669 65.109C40.2669 65.109 40.2635 65.1362 40.2669 65.1464C40.2669 65.1532 40.2773 65.16 40.2911 65.1634L40.5884 65.2416C40.6818 65.2654 40.7578 65.2654 40.8201 65.2348" fill="var(--fill-0, #282828)"/>
<path id="Vector_29" d="M41.5081 65.9284C41.4666 65.8876 41.4355 65.8366 41.4217 65.7754C41.4044 65.7142 41.4044 65.6564 41.4217 65.5952C41.4355 65.534 41.4631 65.4796 41.5046 65.432C41.5461 65.3844 41.5945 65.3538 41.6498 65.3334C41.7086 65.313 41.7639 65.3096 41.8192 65.3232C41.8746 65.3368 41.9264 65.364 41.9679 65.4048C42.0094 65.4456 42.037 65.4966 42.0543 65.5578C42.0716 65.6156 42.0716 65.6768 42.0543 65.738C42.0405 65.7992 42.0128 65.8536 41.9714 65.9012C41.9299 65.9488 41.8815 65.9794 41.8262 65.9998C41.7708 66.0202 41.7121 66.0236 41.6567 66.01C41.598 65.9964 41.5496 65.9692 41.5081 65.9284Z" fill="var(--fill-0, #282828)"/>
<path id="Vector_30" d="M42.4277 65.2824C42.5245 65.1396 42.6455 65.041 42.7907 64.9798C42.9325 64.922 43.0915 64.905 43.2609 64.939C43.4303 64.9696 43.5686 65.0376 43.6827 65.143C43.7933 65.2484 43.8694 65.3844 43.9109 65.551C43.9524 65.7176 43.9524 65.9046 43.9109 66.112C43.8417 66.469 43.6965 66.7206 43.4649 66.86C43.458 66.86 43.4545 66.8702 43.4545 66.8804C43.4511 66.9076 43.4718 66.945 43.5202 66.9892C43.5686 67.0368 43.6239 67.0708 43.6827 67.0912C43.7069 67.098 43.7138 67.1116 43.7104 67.1354L43.6689 67.3598C43.6654 67.387 43.655 67.404 43.6378 67.4108C43.6239 67.4176 43.5997 67.4176 43.5652 67.4108C43.3612 67.3734 43.2056 67.2374 43.095 67.0028C43.0881 66.9892 43.0777 66.9824 43.0604 66.9858C42.9913 66.9858 42.9325 66.9756 42.8772 66.9654C42.7043 66.9348 42.5625 66.8668 42.4485 66.7614C42.3378 66.656 42.2618 66.5234 42.2203 66.3602C42.1822 66.197 42.1822 66.01 42.2203 65.8026C42.2583 65.5952 42.3275 65.4218 42.4277 65.279M42.6663 66.4282C42.7078 66.5472 42.7976 66.6186 42.9359 66.6424C43.0708 66.6662 43.1779 66.6322 43.2644 66.537C43.3474 66.4418 43.413 66.2752 43.458 66.0338C43.5029 65.7924 43.5064 65.6122 43.4614 65.4864C43.42 65.364 43.3301 65.2892 43.1952 65.262C43.0604 65.2382 42.9498 65.2756 42.8633 65.3776C42.7804 65.4796 42.7147 65.6496 42.6663 65.891C42.6213 66.129 42.6213 66.3058 42.6628 66.4248" fill="var(--fill-0, #282828)"/>
<path id="Vector_31" d="M45.7329 65.347C45.7329 65.347 45.7363 65.3742 45.7294 65.3912L44.8824 67.1898C44.8651 67.2272 44.8374 67.2408 44.7994 67.2374L44.4882 67.1966C44.4468 67.1898 44.426 67.1694 44.4156 67.1286L44.0734 65.1804V65.1566C44.0734 65.1566 44.0768 65.1328 44.0872 65.126C44.0976 65.1192 44.108 65.1158 44.1218 65.1192L44.4779 65.1668C44.5055 65.1702 44.5194 65.1872 44.5228 65.2178L44.751 66.6322C44.751 66.6322 44.751 66.6526 44.7614 66.6526C44.7683 66.6526 44.7752 66.6458 44.7821 66.6322L45.3595 65.3232C45.3733 65.2926 45.3906 65.2824 45.4183 65.2858L45.6983 65.3232C45.6983 65.3232 45.726 65.3334 45.7329 65.347Z" fill="var(--fill-0, #282828)"/>
<path id="Vector_32" d="M46.3102 65.3708C46.3379 65.3708 46.3483 65.3912 46.3448 65.4218L46.1685 67.3122C46.1685 67.336 46.1616 67.353 46.1477 67.3598C46.1374 67.37 46.1201 67.3734 46.0959 67.37L45.7813 67.3428C45.7605 67.3428 45.7467 67.336 45.7398 67.3258C45.7329 67.3156 45.7294 67.302 45.7329 67.2816L45.9092 65.3844C45.9092 65.3504 45.9265 65.3334 45.9541 65.3368L46.3102 65.3674V65.3708Z" fill="var(--fill-0, #282828)"/>
<path id="Vector_33" d="M46.4209 67.3632C46.4209 67.3632 46.4209 67.3394 46.4278 67.3326L47.1469 65.4864C47.1538 65.466 47.1642 65.4524 47.1746 65.4456C47.1849 65.4388 47.1988 65.4354 47.216 65.4354L47.5929 65.4524C47.6102 65.4524 47.6275 65.4592 47.6378 65.4694C47.6517 65.4796 47.6586 65.4966 47.662 65.5136L48.1841 67.421C48.1841 67.421 48.1875 67.4414 48.1875 67.4448C48.1875 67.4584 48.1841 67.472 48.1772 67.4788C48.1703 67.4856 48.1633 67.4924 48.1495 67.4924L47.7796 67.4754C47.7554 67.4754 47.7381 67.4618 47.7346 67.4346L47.624 67.0334C47.624 67.0334 47.6171 67.013 47.6136 67.0096C47.6102 67.0062 47.6033 67.0028 47.5929 67.0028L46.9809 66.9722C46.9809 66.9722 46.9533 66.979 46.9464 66.9994L46.7943 67.3938C46.7839 67.4176 46.7666 67.4278 46.7389 67.4278L46.452 67.4142C46.4278 67.4142 46.4139 67.3972 46.4174 67.3666M47.5134 66.639C47.5134 66.639 47.5376 66.6322 47.541 66.6186C47.541 66.6084 47.541 66.5982 47.541 66.5948L47.3647 65.9522C47.3647 65.9522 47.3543 65.9352 47.3474 65.9352C47.3405 65.9352 47.337 65.942 47.3301 65.9522L47.0847 66.5744C47.0847 66.5744 47.0777 66.5914 47.0777 66.5982C47.0777 66.6118 47.0847 66.622 47.1054 66.622L47.5168 66.6424L47.5134 66.639Z" fill="var(--fill-0, #282828)"/>
<path id="Vector_34" d="M48.5229 66.7716C48.471 66.7376 48.433 66.6968 48.4054 66.6424C48.3777 66.588 48.3639 66.5302 48.3639 66.4656C48.3639 66.401 48.3812 66.3432 48.4088 66.2888C48.4399 66.2344 48.4814 66.1936 48.5298 66.163C48.5817 66.1324 48.637 66.1188 48.6958 66.1188C48.7545 66.1188 48.8099 66.1358 48.8583 66.1698C48.9067 66.2038 48.9481 66.2446 48.9758 66.299C49.0035 66.3534 49.0173 66.4112 49.0173 66.4758C49.0173 66.5404 49 66.5982 48.9689 66.6526C48.9378 66.707 48.8997 66.7478 48.8479 66.7784C48.796 66.809 48.7442 66.8226 48.6854 66.8226C48.6266 66.8226 48.5713 66.8056 48.5229 66.7716Z" fill="var(--fill-0, #282828)"/>
<path id="Vector_35" d="M50.5869 66.5302C50.4659 66.6424 50.3034 66.7002 50.0994 66.707L49.7226 66.7172C49.7053 66.7172 49.6949 66.7274 49.6949 66.7478L49.7157 67.4244C49.7157 67.4652 49.6949 67.4856 49.6534 67.489L49.3319 67.4992C49.3112 67.4992 49.2973 67.4992 49.2904 67.4856C49.2835 67.4754 49.2766 67.4618 49.2766 67.4448L49.2213 65.5408C49.2213 65.5068 49.2316 65.4898 49.2593 65.4898L50.0095 65.4694C50.1478 65.466 50.2723 65.4864 50.3829 65.5272C50.4935 65.5714 50.5834 65.6394 50.6491 65.7312C50.7148 65.823 50.7528 65.9386 50.7563 66.0746C50.7632 66.2684 50.7044 66.4214 50.5834 66.5336M50.2204 65.8706C50.1651 65.8264 50.089 65.8026 49.9957 65.806L49.7191 65.8128C49.7191 65.8128 49.6915 65.8162 49.6845 65.8264C49.6776 65.8366 49.6742 65.8468 49.6742 65.8638L49.688 66.3262C49.688 66.3432 49.6915 66.3568 49.6984 66.3636C49.7053 66.3704 49.7122 66.3772 49.726 66.3738L50.0337 66.3636C50.1236 66.3636 50.1928 66.333 50.2412 66.282C50.293 66.231 50.3138 66.1596 50.3138 66.0712C50.3138 65.9794 50.2827 65.9114 50.2239 65.8638" fill="var(--fill-0, #282828)"/>
<path id="Vector_36" d="M50.7701 67.4142C50.7701 67.4142 50.7701 67.3904 50.7701 67.3802L51.2438 65.4592C51.2507 65.4388 51.2541 65.4252 51.2645 65.415C51.2749 65.4048 51.2853 65.4014 51.306 65.398L51.6794 65.3708C51.6967 65.3708 51.714 65.3708 51.7278 65.3844C51.7416 65.3946 51.752 65.4082 51.7589 65.4252L52.5264 67.251C52.5264 67.251 52.5333 67.268 52.5333 67.2748C52.5333 67.2884 52.5333 67.302 52.5264 67.3122C52.5195 67.3224 52.5126 67.3258 52.5022 67.3292L52.1357 67.3564C52.1115 67.3564 52.0943 67.3462 52.0839 67.3224L51.9214 66.9382C51.9214 66.9382 51.9145 66.9212 51.9076 66.9144C51.9041 66.911 51.8972 66.9076 51.8868 66.9076L51.2783 66.9552C51.2783 66.9552 51.2507 66.9654 51.2472 66.9858L51.147 67.3972C51.1401 67.421 51.1228 67.4346 51.0986 67.4346L50.8116 67.4584C50.7874 67.4584 50.7736 67.4448 50.7701 67.4142ZM51.7589 66.5574C51.7589 66.5574 51.7831 66.5472 51.7831 66.5336C51.7831 66.5234 51.7831 66.5132 51.7797 66.5098L51.5204 65.8944C51.5204 65.8944 51.5065 65.8808 51.5031 65.8808C51.4962 65.8808 51.4927 65.8876 51.4892 65.9012L51.3267 66.5472C51.3267 66.5472 51.3233 66.5676 51.3267 66.571C51.3267 66.5846 51.3371 66.5914 51.3544 66.5914L51.7624 66.5608L51.7589 66.5574Z" fill="var(--fill-0, #282828)"/>
<path id="Vector_37" d="M54.3069 67.0402C54.3069 67.0402 54.3069 67.0674 54.3 67.0776C54.2931 67.0878 54.2827 67.0946 54.2723 67.0946L53.9059 67.1422C53.8782 67.1456 53.8575 67.132 53.8436 67.1014L53.4703 66.384C53.4703 66.384 53.4564 66.3602 53.4426 66.3568C53.4322 66.3534 53.4149 66.3534 53.3942 66.3568L53.1591 66.3874C53.1591 66.3874 53.1418 66.3942 53.1384 66.401C53.1349 66.4078 53.1314 66.4146 53.1349 66.4214L53.2386 67.166C53.2386 67.1898 53.2386 67.2068 53.2283 67.217C53.2179 67.2272 53.204 67.2374 53.1798 67.2374L52.8652 67.2782C52.8445 67.2782 52.8307 67.2782 52.8237 67.2714C52.8168 67.2646 52.8099 67.251 52.8065 67.234L52.5472 65.347C52.5437 65.313 52.5541 65.296 52.5817 65.2892L53.3562 65.1872C53.5809 65.1566 53.7607 65.1804 53.8955 65.2586C54.0303 65.3368 54.1099 65.466 54.1341 65.6394C54.1513 65.772 54.1341 65.8876 54.0822 65.9862C54.0303 66.0848 53.9577 66.163 53.8644 66.214C53.8506 66.2208 53.8506 66.2344 53.8609 66.2548L54.3 67.013C54.3 67.013 54.3069 67.03 54.3069 67.0368M53.6362 65.9352C53.6812 65.8842 53.695 65.8162 53.6846 65.7346C53.6708 65.6496 53.6397 65.585 53.5809 65.5476C53.5221 65.5068 53.453 65.4966 53.3665 65.5068L53.0623 65.5476C53.045 65.5476 53.0312 65.5544 53.0277 65.5612C53.0243 65.568 53.0208 65.5816 53.0208 65.5952L53.0796 66.0304C53.0796 66.0304 53.0865 66.0576 53.0934 66.0644C53.1003 66.0712 53.1072 66.0746 53.1211 66.0712L53.4253 66.0304C53.5221 66.0168 53.5913 65.9862 53.6362 65.9352Z" fill="var(--fill-0, #282828)"/>
<path id="Vector_38" d="M54.6423 67.0265C54.6423 67.0265 54.625 67.0027 54.6181 66.9857L54.2378 65.126C54.2309 65.092 54.2412 65.0716 54.2689 65.0682L54.7771 64.9662C54.7944 64.9628 54.8082 64.9628 54.8186 64.9662C54.829 64.9696 54.8359 64.9798 54.8463 64.9934L55.4444 66.0338C55.4444 66.0338 55.4582 66.0542 55.4651 66.0508C55.472 66.0508 55.4755 66.0406 55.4789 66.027L55.6103 64.8642C55.6103 64.82 55.6241 64.7962 55.6518 64.7928L56.1808 64.6874C56.205 64.684 56.2223 64.6942 56.2292 64.7282L56.6095 66.588C56.6129 66.6118 56.6095 66.6288 56.606 66.639C56.5991 66.6491 56.5853 66.6594 56.5611 66.6628L56.243 66.7239C56.2223 66.7273 56.2084 66.724 56.2015 66.7206C56.1911 66.7138 56.1842 66.7001 56.1808 66.6797L55.9111 65.3572C55.9111 65.3572 55.9042 65.3402 55.9007 65.3402C55.8973 65.3402 55.8938 65.3504 55.8904 65.364L55.7348 66.7817C55.7348 66.8123 55.7175 66.8293 55.6933 66.8327L55.4893 66.8735C55.4617 66.8803 55.4375 66.8701 55.4271 66.8429L54.7322 65.6156C54.7322 65.6156 54.7183 65.5952 54.7149 65.5986C54.708 65.5986 54.708 65.6088 54.7114 65.6258L54.9776 66.9313C54.9811 66.9517 54.9811 66.9653 54.9776 66.9721C54.9742 66.9789 54.9603 66.9857 54.9431 66.9891L54.6941 67.0401C54.6941 67.0401 54.663 67.0401 54.6526 67.0333" fill="var(--fill-0, #282828)"/>
<path id="Vector_39" d="M56.886 66.537C56.886 66.537 56.8826 66.5132 56.8826 66.503L56.9863 64.5276C56.9863 64.5072 56.9898 64.4902 56.9967 64.48C57.0036 64.4698 57.014 64.463 57.0347 64.4562L57.3977 64.361C57.415 64.3576 57.4323 64.3576 57.4496 64.361C57.4669 64.3678 57.4772 64.3814 57.4876 64.395L58.5836 66.0474C58.5836 66.0474 58.5939 66.0644 58.5939 66.0712C58.5974 66.0848 58.5974 66.0984 58.5939 66.1086C58.5905 66.1188 58.5836 66.1256 58.5732 66.129L58.2171 66.2242C58.1929 66.231 58.1756 66.2242 58.1618 66.2004L57.9301 65.8536C57.9301 65.8536 57.9198 65.8366 57.9129 65.8332C57.9094 65.8298 57.899 65.8298 57.8887 65.8332L57.2975 65.9896C57.2975 65.9896 57.2733 66.0066 57.2733 66.0236L57.2525 66.4452C57.2491 66.4724 57.2352 66.486 57.211 66.4928L56.9344 66.5676C56.9102 66.5744 56.893 66.5642 56.886 66.5336M57.6951 65.5136C57.6951 65.5136 57.7158 65.5 57.7123 65.4864C57.7123 65.4762 57.7054 65.4694 57.702 65.4626L57.3286 64.905C57.3286 64.905 57.3147 64.8914 57.3078 64.8948C57.3009 64.8948 57.3009 64.9016 57.2975 64.9186L57.2594 65.5816C57.2594 65.5816 57.2594 65.602 57.2594 65.6054C57.2629 65.619 57.2733 65.6224 57.2906 65.619L57.6881 65.5136H57.6951Z" fill="var(--fill-0, #282828)"/>
<path id="Vector_40" d="M58.8913 66.027C58.8913 66.027 58.8705 66.0066 58.8636 65.9896L58.2378 64.1944C58.2275 64.1604 58.2344 64.14 58.262 64.1332L58.753 63.9666C58.753 63.9666 58.7841 63.9598 58.7945 63.9632C58.8048 63.9632 58.8152 63.9734 58.8256 63.987L59.5585 64.939C59.5585 64.939 59.5758 64.956 59.5827 64.9526C59.5896 64.9526 59.5931 64.9424 59.5931 64.9254L59.5654 63.7558C59.562 63.715 59.5724 63.6878 59.5966 63.6776L60.1082 63.5042C60.1324 63.4974 60.1497 63.5076 60.1601 63.5382L60.7859 65.3334C60.7928 65.3572 60.7928 65.3742 60.7859 65.3844C60.7789 65.398 60.7651 65.4082 60.7444 65.415L60.4367 65.517C60.4194 65.5238 60.4021 65.5238 60.3952 65.517C60.3848 65.5102 60.3779 65.5 60.371 65.4796L59.925 64.2012C59.925 64.2012 59.9181 64.1842 59.9112 64.1842C59.9043 64.1842 59.9043 64.1944 59.9043 64.2114L59.9388 65.636C59.9388 65.6666 59.9285 65.6836 59.9043 65.6938L59.7072 65.7618C59.6795 65.772 59.6553 65.7618 59.6415 65.738L58.7876 64.6092C58.7876 64.6092 58.7703 64.5922 58.7668 64.5922C58.7599 64.5922 58.7599 64.6024 58.7668 64.6194L59.2059 65.8774C59.2128 65.8978 59.2128 65.9114 59.2093 65.9182C59.2093 65.925 59.1955 65.9318 59.1782 65.9386L58.9362 66.0202C58.9362 66.0202 58.9051 66.0236 58.8947 66.0202" fill="var(--fill-0, #282828)"/>
<path id="Vector_41" d="M60.938 64.5616C60.8792 64.5514 60.8239 64.5242 60.7789 64.4868C60.734 64.4494 60.696 64.3984 60.6718 64.3406C60.6476 64.2828 60.6407 64.2216 60.6476 64.1604C60.6545 64.0992 60.6752 64.0448 60.7098 63.9972C60.7444 63.9496 60.7893 63.9156 60.8446 63.8952C60.9 63.8748 60.9553 63.868 61.014 63.8782C61.0728 63.8884 61.1247 63.9156 61.1731 63.9564C61.2215 63.9972 61.256 64.0448 61.2803 64.1026C61.3045 64.1604 61.3114 64.2216 61.3079 64.2828C61.301 64.344 61.2802 64.3984 61.2457 64.446C61.2111 64.4936 61.1662 64.5276 61.1143 64.548C61.059 64.5684 61.0037 64.5752 60.9449 64.565" fill="var(--fill-0, #282828)"/>
<path id="Vector_42" d="M62.5387 62.4944C62.5387 62.4944 62.556 62.5148 62.556 62.5318L62.7911 64.5004C62.798 64.5378 62.7807 64.5684 62.7427 64.582L62.4557 64.7078C62.4177 64.7248 62.3866 64.718 62.3589 64.6874L61.0279 63.2016L61.014 63.1846C61.014 63.1846 61.0071 63.1608 61.014 63.1506C61.0175 63.1404 61.0279 63.1336 61.0383 63.1268L61.3667 62.9806C61.3909 62.9704 61.4151 62.9772 61.4324 63.001L62.3762 64.089C62.3762 64.089 62.39 64.1026 62.397 64.1026C62.4039 64.1026 62.4073 64.0924 62.4039 64.0754L62.1999 62.6644C62.1964 62.6338 62.2068 62.61 62.231 62.5998L62.4903 62.4876C62.4903 62.4876 62.518 62.4808 62.5318 62.4876" fill="var(--fill-0, #282828)"/>
<path id="Vector_43" d="M63.04 62.219C63.0642 62.2088 63.0815 62.219 63.0988 62.2462L63.9562 63.9462C63.9666 63.9666 63.97 63.9836 63.9666 63.9972C63.9631 64.0108 63.9493 64.0244 63.9251 64.0346L63.6416 64.1706C63.6243 64.1808 63.6105 64.1808 63.5966 64.1774C63.5863 64.174 63.5759 64.1638 63.5655 64.1434L62.7047 62.4366C62.6908 62.406 62.6943 62.3856 62.7185 62.372L63.04 62.2156V62.219Z" fill="var(--fill-0, #282828)"/>
<path id="Vector_44" d="M65.6053 63.0996C65.6053 63.0996 65.6157 63.1234 65.6122 63.137C65.6122 63.1506 65.6018 63.1574 65.5915 63.1642L65.2699 63.3376C65.2457 63.3512 65.2215 63.3444 65.1973 63.3206L64.5889 62.78C64.5889 62.78 64.5647 62.763 64.5543 62.763C64.5439 62.763 64.5266 62.7698 64.5093 62.78L64.3019 62.8922C64.3019 62.8922 64.2881 62.9024 64.2881 62.9092C64.2881 62.916 64.2881 62.9262 64.2881 62.9296L64.6545 63.5892C64.6649 63.6096 64.6684 63.6266 64.6649 63.6402C64.6615 63.6538 64.6476 63.6674 64.6269 63.6776L64.3468 63.8272C64.3296 63.8374 64.3157 63.8408 64.3054 63.834C64.295 63.8306 64.2846 63.8204 64.2742 63.8034L63.3477 62.1306C63.3304 62.1 63.3339 62.0796 63.3581 62.066L64.0461 61.6988C64.2431 61.5934 64.4195 61.5526 64.575 61.5764C64.7306 61.6036 64.8516 61.692 64.938 61.8484C65.0037 61.964 65.0279 62.0796 65.0176 62.1918C65.0072 62.304 64.9657 62.3992 64.8966 62.4808C64.8862 62.491 64.8896 62.5046 64.9069 62.5216L65.5915 63.0758C65.5915 63.0758 65.6053 63.0894 65.6088 63.0962M64.5819 62.3006C64.6061 62.2394 64.5958 62.168 64.5543 62.0932C64.5128 62.0184 64.4575 61.9708 64.3883 61.9538C64.3227 61.9368 64.25 61.9504 64.174 61.9912L63.9043 62.1374C63.9043 62.1374 63.8801 62.1544 63.8767 62.1646C63.8767 62.1748 63.8767 62.185 63.8836 62.1986L64.0979 62.5828C64.0979 62.5828 64.1152 62.6066 64.1221 62.61C64.129 62.6134 64.1394 62.61 64.1498 62.6066L64.4195 62.4604C64.5059 62.4162 64.5577 62.3618 64.5819 62.2972" fill="var(--fill-0, #282828)"/>
<path id="Vector_45" d="M66.1274 62.7324C65.9752 62.7256 65.8266 62.6746 65.6883 62.5794C65.5465 62.4842 65.4221 62.3482 65.3114 62.1748C65.1973 61.998 65.1317 61.8212 65.1075 61.6512C65.0833 61.4812 65.1075 61.3248 65.1697 61.1854C65.2354 61.0461 65.3391 60.9305 65.4843 60.8421C65.5949 60.7741 65.709 60.7367 65.83 60.7265C65.951 60.7163 66.0617 60.7299 66.1688 60.7707C66.2726 60.8115 66.359 60.8693 66.4281 60.9441C66.4351 60.9509 66.4454 60.961 66.4523 60.9746C66.4627 60.9916 66.4592 61.0053 66.442 61.0189L66.1896 61.2364C66.1896 61.2364 66.1688 61.2466 66.1619 61.2432C66.155 61.2432 66.1446 61.233 66.1343 61.2194C66.0686 61.148 65.996 61.1039 65.9095 61.0835C65.8231 61.0631 65.7401 61.0801 65.6572 61.131C65.5465 61.199 65.4947 61.2942 65.4981 61.4234C65.4981 61.5526 65.5673 61.7192 65.6952 61.9232C65.83 62.1374 65.9579 62.2734 66.0755 62.3278C66.193 62.3856 66.3106 62.3788 66.4212 62.3108C66.5077 62.2598 66.5595 62.1918 66.5768 62.1102C66.5975 62.0286 66.5906 61.947 66.5595 61.862L66.5215 61.794C66.5215 61.794 66.5215 61.7838 66.5146 61.7804C66.5042 61.7668 66.4938 61.7634 66.4765 61.7736L66.2172 61.93C66.2172 61.93 66.1965 61.9402 66.1861 61.9368C66.1758 61.9368 66.1688 61.9266 66.1585 61.913L66.0478 61.7396C66.034 61.7192 66.0375 61.6988 66.0617 61.6852L66.6321 61.3418C66.6529 61.3282 66.6701 61.3248 66.6874 61.3282C66.7047 61.3316 66.7185 61.3418 66.7289 61.3588L67.2198 62.134C67.2198 62.134 67.2302 62.1544 67.2268 62.1646C67.2268 62.1748 67.2199 62.1816 67.2095 62.1884L67.1403 62.2292C67.1161 62.2428 67.0885 62.2428 67.0608 62.2292L66.8949 62.1C66.8949 62.1 66.8776 62.1 66.8741 62.1136C66.8672 62.2088 66.8396 62.3006 66.7981 62.3822C66.7566 62.4638 66.6771 62.542 66.5664 62.61C66.4212 62.6984 66.276 62.7392 66.1204 62.7324" fill="var(--fill-0, #282828)"/>
<path id="Vector_46" d="M67.735 61.7226C67.5794 61.7294 67.4307 61.6886 67.2855 61.6002C67.1403 61.5152 67.002 61.3826 66.881 61.2126C66.7566 61.0392 66.6771 60.8659 66.6425 60.6993C66.6079 60.5327 66.6183 60.3763 66.6771 60.2335C66.7324 60.0907 66.8326 59.9717 66.9744 59.8731C67.1161 59.7745 67.2613 59.7235 67.4169 59.7201C67.5725 59.7167 67.7246 59.7575 67.8733 59.8459C68.0219 59.9343 68.1568 60.0635 68.2812 60.2369C68.4057 60.4103 68.4818 60.5769 68.5163 60.7435C68.5509 60.9101 68.5371 61.063 68.4818 61.2024C68.4264 61.3418 68.3262 61.4642 68.1844 61.5594C68.0392 61.658 67.8906 61.7124 67.7384 61.7158M68.1395 60.9848C68.1257 60.8625 68.0496 60.6993 67.9079 60.5021C67.7626 60.2981 67.6313 60.1689 67.5103 60.1145C67.3893 60.0567 67.2752 60.0669 67.1645 60.1451C67.0504 60.2233 67.002 60.3287 67.0159 60.4579C67.0297 60.5871 67.1092 60.7537 67.2544 60.9576C67.3962 61.1548 67.5241 61.2806 67.6416 61.335C67.7557 61.386 67.8733 61.3758 67.9874 61.2942C68.1015 61.216 68.1533 61.114 68.1395 60.9916" fill="var(--fill-0, #282828)"/>
<path id="Vector_47" d="M68.7134 60.2607C68.6546 60.2675 68.5959 60.2573 68.5371 60.2301C68.4818 60.2029 68.4334 60.1655 68.3919 60.1179C68.3504 60.0703 68.3296 60.0125 68.3193 59.9513C68.3089 59.8901 68.3124 59.8323 68.3366 59.7779C68.3573 59.7235 68.3919 59.6759 68.4368 59.6419C68.4818 59.6079 68.5371 59.5875 68.5959 59.5807C68.6546 59.5739 68.7134 59.5875 68.7687 59.6113C68.824 59.6385 68.8724 59.6759 68.9139 59.7235C68.952 59.7745 68.9762 59.8289 68.9865 59.8901C68.9969 59.9513 68.9934 60.0091 68.9727 60.0635C68.952 60.1179 68.9208 60.1621 68.8724 60.1995C68.8275 60.2335 68.7722 60.2539 68.7134 60.2607Z" fill="var(--fill-0, #282828)"/>
<path id="Vector_48" d="M68.4195 58.9177C68.4195 58.9177 68.4057 58.8939 68.4057 58.8803C68.4057 58.8667 68.4126 58.8565 68.4264 58.8463L69.5328 57.9419C69.557 57.9215 69.5812 57.9215 69.6019 57.9487L69.7644 58.1425C69.7817 58.1629 69.7782 58.1833 69.7575 58.2037L69.3979 58.4995C69.3979 58.4995 69.3807 58.5233 69.3945 58.5369L70.4282 59.7609C70.449 59.7881 70.4524 59.8085 70.4282 59.8289L70.1516 60.0533C70.1309 60.0703 70.1136 60.0635 70.0929 60.0397L69.0591 58.8157C69.0591 58.8157 69.0453 58.8021 69.0384 58.7987C69.0315 58.7987 69.0246 58.7987 69.0176 58.8055L68.6443 59.1081C68.6201 59.1285 68.5993 59.1285 68.582 59.1081L68.4195 58.9143V58.9177Z" fill="var(--fill-0, #282828)"/>
<path id="Vector_49" d="M70.8673 56.7689C70.8673 56.7689 70.8915 56.7825 70.8984 56.7995L71.7627 58.5913C71.78 58.6287 71.7731 58.6593 71.7454 58.6865L71.5138 58.8939C71.4827 58.9211 71.4516 58.9245 71.417 58.9075L69.6745 57.9181L69.6572 57.9045C69.6572 57.9045 69.6434 57.8841 69.6434 57.8739C69.6434 57.8637 69.6503 57.8535 69.6572 57.8433L69.9234 57.6019C69.9442 57.5849 69.9649 57.5849 69.9926 57.6019L71.2407 58.3363C71.2407 58.3363 71.258 58.3465 71.2649 58.3431C71.2683 58.3397 71.2683 58.3295 71.2649 58.3159L70.6114 57.0443C70.5976 57.0171 70.5976 56.9933 70.6184 56.9729L70.8258 56.7825C70.8258 56.7825 70.85 56.7689 70.8638 56.7723" fill="var(--fill-0, #282828)"/>
<path id="Vector_50" d="M70.9987 56.6057L71.8803 55.7149C71.8976 55.6979 71.9183 55.6979 71.939 55.7217L72.1154 55.8951C72.143 55.9223 72.143 55.9461 72.1188 55.9733L71.5622 56.5377C71.5415 56.5615 71.538 56.5819 71.5622 56.6023L71.8492 56.8777C71.8734 56.8981 71.8906 56.9015 71.9079 56.8845L72.2779 56.5105C72.2986 56.4901 72.3193 56.4901 72.3401 56.5105L72.5302 56.6907C72.5475 56.7077 72.5475 56.7281 72.5302 56.7451L72.1568 57.1225C72.1568 57.1225 72.1396 57.1565 72.1568 57.1701L72.468 57.4659C72.468 57.4659 72.4853 57.4795 72.4922 57.4795C72.4991 57.4795 72.506 57.4795 72.5129 57.4693L73.1111 56.8641C73.1318 56.8437 73.1525 56.8403 73.1733 56.8641L73.36 57.0443C73.3842 57.0681 73.3842 57.0885 73.36 57.1123L72.4784 58.0031C72.4784 58.0031 72.4507 58.0235 72.4403 58.0235C72.4265 58.0235 72.4161 58.0167 72.3989 58.0031L71.0125 56.6737C70.9883 56.6499 70.9848 56.6295 71.0021 56.6091" fill="var(--fill-0, #282828)"/>
<path id="Vector_51" d="M72.022 55.6435C72.022 55.6435 72.0047 55.6231 72.0047 55.6095C72.0047 55.5959 72.0082 55.5857 72.0185 55.5721L72.9693 54.5114C72.99 54.4876 73.0142 54.4842 73.0384 54.508L73.2321 54.6745C73.2528 54.6915 73.2528 54.712 73.2321 54.7358L72.9209 55.0825C72.9209 55.0825 72.9105 55.1097 72.9209 55.1199L74.1344 56.1739C74.1621 56.1977 74.1655 56.2181 74.1448 56.2385L73.9097 56.5037C73.8924 56.5207 73.8717 56.5207 73.8509 56.5037L72.6374 55.4531C72.6374 55.4531 72.6201 55.4395 72.6132 55.4395C72.6063 55.4395 72.5994 55.4395 72.5925 55.4497L72.2744 55.8067C72.2536 55.8305 72.2329 55.8339 72.2122 55.8135L72.0185 55.6469L72.022 55.6435Z" fill="var(--fill-0, #282828)"/>
<path id="Vector_52" d="M74.1033 53.1412C74.1033 53.1412 74.131 53.1514 74.1379 53.1684L75.2753 54.8071C75.2995 54.8411 75.2961 54.8717 75.2753 54.9023L75.0817 55.1437C75.0575 55.1743 75.0264 55.1845 74.9849 55.1709L73.1076 54.4604L73.0869 54.4502C73.0869 54.4502 73.0696 54.4332 73.0696 54.4196C73.0696 54.4094 73.0696 54.3958 73.0799 54.3856L73.3047 54.1068C73.322 54.0864 73.3427 54.083 73.3738 54.0932L74.7222 54.627C74.7222 54.627 74.7394 54.6338 74.7463 54.627C74.7498 54.6202 74.7463 54.6134 74.7394 54.5998L73.8959 53.4438C73.8751 53.42 73.8751 53.3962 73.8959 53.3724L74.0722 53.1548C74.0722 53.1548 74.0964 53.1378 74.1102 53.1378" fill="var(--fill-0, #282828)"/>
<path id="Vector_53" d="M76.6893 52.9134C76.6893 52.9134 76.7066 52.9304 76.7101 52.944C76.7101 52.9576 76.7101 52.9678 76.7032 52.9746L76.4923 53.2704C76.475 53.2942 76.4508 53.2976 76.4197 53.2874L75.6314 53.0664C75.6314 53.0664 75.6037 53.063 75.5934 53.0664C75.583 53.0698 75.5726 53.0834 75.5588 53.1004L75.4205 53.2908C75.4205 53.2908 75.4136 53.3078 75.4136 53.3146C75.4136 53.3214 75.4205 53.3282 75.4274 53.3316L76.0532 53.7634C76.0739 53.777 76.0843 53.7906 76.0843 53.8042C76.0843 53.8178 76.0808 53.8348 76.067 53.8552L75.8838 54.1102C75.8838 54.1102 75.8596 54.134 75.8492 54.134C75.8388 54.134 75.825 54.1306 75.8077 54.1204L74.2243 53.0222C74.1966 53.0018 74.1897 52.9814 74.2035 52.961L74.653 52.332C74.7844 52.1518 74.9227 52.0396 75.0748 51.9954C75.2269 51.9512 75.3756 51.9818 75.5208 52.0838C75.6314 52.1586 75.704 52.2504 75.7455 52.3558C75.787 52.4612 75.7939 52.5666 75.7662 52.6652C75.7662 52.6788 75.7731 52.689 75.7939 52.6958L76.6582 52.8964C76.6582 52.8964 76.6755 52.9032 76.6824 52.9066M75.4101 52.6414C75.4032 52.5768 75.3617 52.519 75.2926 52.468C75.22 52.417 75.1508 52.4 75.0817 52.4136C75.0125 52.4272 74.9538 52.4714 74.9054 52.5394L74.729 52.7876C74.729 52.7876 74.7152 52.8148 74.7152 52.8216C74.7152 52.8318 74.7221 52.8386 74.736 52.8488L75.1024 53.1004C75.1024 53.1004 75.1266 53.114 75.137 53.114C75.1474 53.114 75.1543 53.1072 75.1612 53.097L75.3375 52.8488C75.3929 52.7706 75.417 52.6992 75.4101 52.6346" fill="var(--fill-0, #282828)"/>
<path id="Vector_54" d="M62.276 22.3649V42.1628C62.276 48.6125 58.7461 54.6236 53.0658 57.8501L49 60.1587L44.9377 57.8501C39.2574 54.6236 35.7275 48.6159 35.7275 42.1628V22.3649H62.276ZM62.9674 21.6849H35.0361V42.1628C35.0361 48.8538 38.6973 55.0928 44.592 58.4383L49 60.9407L53.4115 58.4383C59.3062 55.0928 62.9674 48.8572 62.9674 42.1628V21.6849Z" fill="var(--fill-0, #282828)"/>
<path id="Vector_55" d="M61.4946 22.9598H36.5054C36.4086 22.9598 36.3325 23.0346 36.3325 23.1298V42.1593C36.3325 48.3983 39.7449 54.2122 45.2385 57.3299L48.9136 59.4175C48.9412 59.4311 48.9689 59.4413 49 59.4413C49.0311 59.4413 49.0588 59.4345 49.0864 59.4175L52.7615 57.3299C58.2551 54.2122 61.6675 48.3983 61.6675 42.1593V23.1298C61.6675 23.0346 61.5914 22.9598 61.4946 22.9598ZM61.3217 33.2515C61.3217 33.9553 60.7409 34.5265 60.0253 34.5265H52.8514V24.5748C52.8514 23.871 53.4322 23.2998 54.1479 23.2998H61.3252V33.2481L61.3217 33.2515ZM36.6783 23.2998H43.8556C44.5712 23.2998 45.1521 23.871 45.1521 24.5748V34.5265H37.9782C37.9782 34.5265 37.9782 34.5265 37.9747 34.5265C37.2591 34.5265 36.6783 33.9553 36.6783 33.2515V23.3032V23.2998ZM36.7198 43.3561C36.7267 42.6489 37.2764 42.0947 37.9747 42.0947C37.9747 42.0947 37.9747 42.0947 37.9782 42.0947H45.1521V55.7421C45.1521 56.0889 45.0103 56.4119 44.7648 56.6499C40.101 53.726 37.1104 48.7688 36.7232 43.3561M53.2386 56.6499C52.9897 56.4119 52.8514 56.0855 52.8514 55.7421V42.0947H60.0253C60.7236 42.0947 61.2733 42.6489 61.2803 43.3561C60.893 48.7654 57.9025 53.726 53.2386 56.6499Z" fill="var(--fill-0, #282828)"/>
<path id="Vector_56" d="M83.1994 38.399C84.5235 37.0968 85.2634 35.3901 85.132 33.9417C85.1251 33.8601 85.0698 33.7887 84.9903 33.7615C84.9868 33.7615 84.9799 33.7615 84.973 33.7615C84.9626 33.7581 84.9488 33.7547 84.9349 33.7513C84.9349 33.7513 84.9315 33.7513 84.928 33.7513C84.1605 33.6833 83.3204 33.8533 82.5045 34.2137C82.6877 33.8329 82.8398 33.4317 82.9539 33.0135C83.4379 31.2353 83.2098 29.3925 82.3593 28.2026C82.3109 28.1346 82.2279 28.1006 82.1449 28.1142C82.1311 28.1142 82.1207 28.121 82.1103 28.1244C82.1034 28.1244 82.1 28.1244 82.0931 28.1312C82.0931 28.1312 82.0931 28.1312 82.0896 28.1312C80.8035 28.7194 79.711 30.1133 79.1993 31.7929C79.0472 30.7593 78.8363 29.7359 78.5736 28.7228C78.5805 28.7262 78.5874 28.733 78.5943 28.7364C78.7395 28.8214 78.902 28.8622 79.0679 28.8622C79.1509 28.8622 79.2339 28.852 79.3169 28.8282C79.8216 28.6956 80.1259 28.1822 79.991 27.6824C79.9253 27.441 79.7698 27.2404 79.5485 27.1146C79.3272 26.9888 79.0714 26.9548 78.8259 27.0194C78.5805 27.084 78.3765 27.2404 78.2486 27.4546C78.2417 27.4682 78.2347 27.4852 78.2278 27.4988C78.2105 27.4444 78.1933 27.3866 78.176 27.3322C79.1959 26.4618 79.832 24.8944 79.832 23.2182C79.832 21.5421 79.182 19.9271 78.131 19.0669C78.0653 19.0125 77.9754 19.0023 77.8994 19.0363C77.8856 19.0431 77.8752 19.0499 77.8648 19.0601C77.8648 19.0601 77.8579 19.0601 77.8544 19.0669C77.8544 19.0669 77.8544 19.0669 77.851 19.0703C77.3151 19.5123 76.8829 20.1447 76.5925 20.8859C76.4612 20.5357 76.3021 20.1923 76.1051 19.8591C75.2407 18.3869 73.8682 17.3295 72.5233 17.0983C72.4403 17.0847 72.3574 17.1187 72.309 17.1867C72.3055 17.1935 72.302 17.2003 72.2986 17.2037C72.2917 17.2105 72.2882 17.2207 72.2813 17.2343C72.2813 17.2343 72.2813 17.2343 72.2813 17.2377C71.8146 18.4991 72.06 20.1957 72.9209 21.6645C73.0142 21.8209 73.1111 21.9705 73.2148 22.1201C71.7696 21.6373 70.2899 21.5829 69.111 22.0079C69.0315 22.0351 68.9762 22.1065 68.9692 22.1881C68.9692 22.2017 68.9692 22.2153 68.9692 22.2289C68.9692 22.2323 68.9692 22.2357 68.9692 22.2425C68.9692 22.2425 68.9692 22.2425 68.9692 22.2459C69.2631 23.888 70.6011 25.5642 72.4611 26.6216C73.6988 27.3254 75.061 27.6926 76.3056 27.6926C76.7205 27.6926 77.1215 27.6484 77.5018 27.5634C77.5295 27.6722 77.5571 27.7776 77.5848 27.8864C77.5571 27.8694 77.5364 27.849 77.5053 27.832C77.284 27.7062 77.0281 27.6756 76.7827 27.7402C76.5372 27.8048 76.3332 27.9612 76.2053 28.1754C76.0774 28.393 76.0463 28.6446 76.112 28.886C76.1777 29.1273 76.3332 29.3279 76.5545 29.4537C76.6997 29.5353 76.8622 29.5795 77.0282 29.5795C77.1111 29.5795 77.1941 29.5693 77.2771 29.5455C77.5225 29.4809 77.7265 29.3279 77.8544 29.1103C77.9996 29.8447 78.1172 30.5825 78.2036 31.3203C77.5571 30.4567 76.7723 29.7835 75.9184 29.3925C75.8423 29.3585 75.7524 29.3687 75.6867 29.4231C75.6833 29.4231 75.6798 29.4299 75.6764 29.4333C75.666 29.4401 75.6591 29.4503 75.6487 29.4639C75.6487 29.4639 75.6487 29.4639 75.6487 29.4673C74.5942 30.9463 74.3142 33.2379 74.9158 35.4512C75.4343 37.3586 76.5545 38.994 77.9201 39.895C77.9132 39.9392 77.9028 39.9868 77.8959 40.031C77.7576 39.844 77.5537 39.7012 77.3082 39.6366C76.7377 39.487 76.1465 39.8202 75.9944 40.3812C75.9218 40.6532 75.9564 40.9388 76.1016 41.1836C76.2433 41.4284 76.475 41.6018 76.755 41.6766C76.8484 41.7004 76.9417 41.714 77.0316 41.714C77.2183 41.714 77.3981 41.663 77.5571 41.578C77.3393 42.4483 77.08 43.3119 76.7792 44.1619C76.6202 42.7033 76.1085 41.3876 75.2995 40.4424C75.2442 40.3812 75.1578 40.354 75.0782 40.3744C75.0748 40.3744 75.0679 40.3778 75.0644 40.3812C75.054 40.3812 75.0402 40.388 75.0264 40.3948C75.0264 40.3948 75.0264 40.3948 75.0229 40.3948C73.2839 41.3808 71.9321 43.5193 71.4896 45.9843C71.0851 48.2351 71.4965 50.4858 72.551 52.009C67.1887 59.0503 58.6389 63.6062 49.0035 63.6062C39.368 63.6062 30.8182 59.0503 25.4559 52.009C26.5139 50.4858 26.9218 48.2351 26.5173 45.9843C26.0748 43.5193 24.723 41.3808 22.984 40.3948C22.984 40.3948 22.984 40.3948 22.9805 40.3948C22.9667 40.388 22.9563 40.3812 22.9425 40.3812C22.939 40.3812 22.9321 40.3778 22.9287 40.3744C22.8492 40.354 22.7627 40.3812 22.7074 40.4424C21.8984 41.3842 21.3902 42.7033 21.2277 44.1619C20.9304 43.3119 20.6676 42.4517 20.4498 41.578C20.6088 41.6664 20.7886 41.714 20.9753 41.714C21.0687 41.714 21.1585 41.7038 21.2519 41.6766C21.5285 41.6052 21.7601 41.4284 21.9053 41.1836C22.0471 40.9388 22.0851 40.6532 22.0125 40.3812C21.8604 39.8202 21.2692 39.4836 20.6987 39.6366C20.4533 39.7012 20.2527 39.844 20.111 40.031C20.1006 39.9868 20.0937 39.9392 20.0868 39.895C21.4524 38.9906 22.5726 37.3586 23.0912 35.4512C23.6927 33.2379 23.4127 30.9463 22.3582 29.4673C22.3582 29.4673 22.3582 29.4639 22.3582 29.4605C22.3478 29.4469 22.3409 29.4367 22.3306 29.4299C22.3271 29.4299 22.3236 29.4231 22.3202 29.4197C22.2545 29.3653 22.1646 29.3551 22.092 29.3891C21.2381 29.7767 20.4533 30.4533 19.8067 31.3169C19.8932 30.5791 20.0107 29.8413 20.1559 29.1069C20.2839 29.3245 20.4878 29.4775 20.7333 29.5421C20.8163 29.5625 20.8992 29.5761 20.9822 29.5761C21.1482 29.5761 21.3107 29.5353 21.4559 29.4503C21.6771 29.3245 21.8327 29.1239 21.8984 28.8826C21.9641 28.6412 21.9295 28.3896 21.8051 28.172C21.6771 27.9544 21.4732 27.8014 21.2277 27.7368C20.9822 27.6722 20.7264 27.7062 20.5051 27.8286C20.4775 27.8456 20.4533 27.866 20.4291 27.883C20.4567 27.7742 20.4844 27.6688 20.512 27.56C20.8923 27.645 21.2934 27.6892 21.7083 27.6892C22.9529 27.6892 24.315 27.322 25.5527 26.6182C27.4128 25.5608 28.7507 23.8846 29.0446 22.2425C29.0446 22.2425 29.0446 22.2425 29.0446 22.2391C29.0446 22.2323 29.0446 22.2289 29.0446 22.2255C29.0446 22.2119 29.0481 22.1983 29.0446 22.1847C29.0377 22.1031 28.9824 22.0317 28.9028 22.0045C27.7239 21.5795 26.2442 21.6339 24.7991 22.1167C24.9028 21.9705 24.9996 21.8175 25.0929 21.6611C25.9572 20.1923 26.1993 18.4957 25.7325 17.2343C25.7325 17.2343 25.7325 17.2309 25.7325 17.2275C25.7291 17.2139 25.7221 17.2037 25.7152 17.1969C25.7118 17.1901 25.7083 17.1833 25.7049 17.1799C25.6565 17.1119 25.5735 17.0779 25.4905 17.0915C24.1456 17.3227 22.7696 18.3801 21.9088 19.8523C21.7117 20.1855 21.5527 20.5323 21.4213 20.8791C21.1274 20.1379 20.6953 19.5055 20.1628 19.0635C20.1628 19.0635 20.1628 19.0635 20.1594 19.0601C20.1559 19.0601 20.1525 19.0567 20.149 19.0533C20.1386 19.0465 20.1248 19.0363 20.1144 19.0295C20.0384 18.9955 19.9485 19.0057 19.8828 19.0601C18.8353 19.9203 18.1818 21.5115 18.1818 23.2114C18.1818 24.9114 18.8145 26.455 19.8379 27.3254C19.8206 27.3798 19.8033 27.4376 19.786 27.492C19.7791 27.4784 19.7722 27.4614 19.7653 27.4478C19.6373 27.2302 19.4334 27.0772 19.1879 27.0126C18.9424 26.948 18.6866 26.982 18.4653 27.1078C18.2441 27.2336 18.0885 27.4342 18.0228 27.6756C17.888 28.172 18.1887 28.6888 18.6935 28.8214C18.7765 28.8418 18.8595 28.8554 18.9424 28.8554C19.1084 28.8554 19.2709 28.8146 19.4161 28.7296C19.423 28.7262 19.4299 28.7194 19.4368 28.716C19.1706 29.7291 18.9632 30.7559 18.8111 31.7861C18.2994 30.1065 17.2069 28.7126 15.9208 28.1244H15.9173C15.9104 28.1244 15.9069 28.121 15.9 28.1176C15.8897 28.1142 15.8758 28.1074 15.8655 28.1074C15.7825 28.0938 15.6995 28.1278 15.6511 28.1958C14.8006 29.3857 14.5724 31.2285 15.0564 33.0067C15.1705 33.4283 15.3261 33.8295 15.5059 34.2069C14.69 33.8465 13.8499 33.6799 13.0823 33.7445C13.0823 33.7445 13.0789 33.7445 13.0754 33.7445C13.0616 33.7445 13.0478 33.7479 13.0374 33.7547C13.0305 33.7547 13.027 33.7547 13.0201 33.7547C12.9406 33.7819 12.8853 33.8533 12.8784 33.9349C12.747 35.3833 13.4868 37.0934 14.811 38.3922C15.9865 39.5482 17.4869 40.2486 18.8422 40.303C18.8525 40.3676 18.8629 40.4322 18.8733 40.4934C18.7004 40.3744 18.4895 40.3064 18.2648 40.3064C17.6736 40.3064 17.193 40.779 17.193 41.3638C17.193 41.9486 17.6736 42.4211 18.2648 42.4211C18.6347 42.4211 18.9632 42.2341 19.1568 41.9519C19.2605 42.4143 19.3746 42.8767 19.5025 43.3391C18.3962 42.4925 17.1377 41.9961 15.9795 41.9961H15.9692C15.9692 41.9961 15.9415 41.9961 15.9311 42.0029C15.9242 42.0029 15.9208 42.0029 15.9139 42.0029C15.8343 42.0233 15.7721 42.0913 15.7583 42.1695C15.4748 43.7301 16.1144 45.6579 17.4281 47.1981C17.7497 47.5755 18.1058 47.9155 18.4792 48.2181C17.4835 48.2249 16.5534 48.4391 15.8136 48.8606C15.8136 48.8606 15.8136 48.8606 15.8101 48.864C15.8032 48.8674 15.7963 48.8742 15.7894 48.8776C15.7825 48.8844 15.7721 48.8878 15.7652 48.8946C15.7064 48.9524 15.6857 49.0408 15.7133 49.1156C16.1662 50.343 17.2829 51.4752 18.735 52.2232C18.7177 52.3728 18.7454 52.5292 18.8318 52.6686C24.6642 62.117 34.9531 68.6041 46.8288 69.3181L44.1667 70.8311H47.0985L49.0104 69.7431L50.9222 70.8311H53.854L51.1919 69.3181C63.0677 68.6041 73.3565 62.117 79.1889 52.6686C79.2754 52.5292 79.303 52.3728 79.2858 52.2232C80.7378 51.4752 81.858 50.343 82.3074 49.1156C82.3351 49.0374 82.3143 48.9524 82.2556 48.8946C82.2486 48.8878 82.2383 48.881 82.2314 48.8776C82.2244 48.8708 82.221 48.8674 82.2106 48.864C82.2106 48.864 82.2106 48.864 82.2072 48.864C81.4638 48.4424 80.5338 48.2283 79.5416 48.2215C79.915 47.9189 80.2711 47.5823 80.5926 47.2015C81.9064 45.6613 82.546 43.7369 82.2625 42.1729C82.2486 42.0913 82.1864 42.0267 82.1069 42.0063C82.1 42.0063 82.0965 42.0063 82.0896 42.0063C82.0792 42.0029 82.0654 41.9995 82.0516 41.9995H82.0447C80.8865 41.9995 79.628 42.4925 78.5217 43.3425C78.6496 42.8835 78.7637 42.4211 78.8674 41.9553C79.061 42.2375 79.3895 42.4245 79.7594 42.4245C80.3506 42.4245 80.8346 41.9519 80.8346 41.3672C80.8346 40.7824 80.354 40.3098 79.7594 40.3098C79.5347 40.3098 79.3238 40.3812 79.1509 40.4968C79.1613 40.4322 79.1717 40.3676 79.182 40.3064C80.5373 40.2554 82.0377 39.5516 83.2132 38.3956M78.2036 19.7367C78.2728 19.8115 78.335 19.8931 78.3972 19.9747H78.2036V19.7367ZM78.2036 20.3147H78.6289C78.743 20.5051 78.8467 20.7057 78.94 20.9199H78.2036V20.3147ZM78.2036 21.2599H79.0714C79.1405 21.4537 79.1959 21.6577 79.2408 21.8651H78.2002V21.2599H78.2036ZM78.2036 22.2051H79.31C79.3445 22.4023 79.3653 22.6062 79.3791 22.8102H78.2036V22.2051ZM78.2036 23.1502H79.3929C79.3929 23.174 79.3929 23.1978 79.3929 23.2216C79.3929 23.4018 79.386 23.5786 79.3687 23.7554H78.2002V23.1502H78.2036ZM78.2036 24.0954H79.3307C79.2996 24.3028 79.2615 24.5034 79.2131 24.7006H78.2002V24.0954H78.2036ZM78.2036 25.0406H79.1163C79.0507 25.2514 78.9711 25.452 78.8847 25.6458H78.2036V25.0406ZM78.2036 25.9858H78.7153C78.5666 26.251 78.3972 26.4958 78.2036 26.7066V25.9858ZM19.7964 26.7066C19.0531 25.8804 18.6071 24.5918 18.6071 23.2216C18.6071 21.8515 19.0531 20.5629 19.7964 19.7367V26.71V26.7066ZM79.1959 39.8848L79.8735 39.2218H81.3912C80.6687 39.6196 79.9081 39.8508 79.1959 39.8848ZM79.4794 36.3828C79.4828 36.5902 79.4794 36.7976 79.4655 37.0016C79.4448 36.9914 79.4206 36.988 79.3964 36.988H78.0653L77.8994 36.3828H79.4794ZM77.806 36.0428L77.6401 35.4377H79.4033C79.431 35.6416 79.4517 35.8422 79.4621 36.0428H77.806ZM79.3964 37.328C79.3964 37.328 79.424 37.3246 79.4379 37.3212C79.4171 37.5286 79.386 37.736 79.3445 37.9332H78.3212L78.1552 37.328H79.3929H79.3964ZM81.9444 38.8784H80.2192L80.8346 38.2732H82.7085C82.4664 38.4942 82.2072 38.6982 81.9444 38.8784ZM83.0542 37.9366C83.0542 37.9366 83.0507 37.9366 83.0473 37.9366H81.1803L81.7957 37.3314H83.5693C83.4137 37.5388 83.2409 37.7428 83.0542 37.9366ZM83.8079 36.988H82.1415L82.7569 36.3828H84.164C84.0603 36.5868 83.9427 36.7908 83.8113 36.988M84.323 36.0428H83.1026L83.718 35.4377H84.5408C84.482 35.6382 84.4094 35.8422 84.323 36.0428ZM84.7102 34.4619C84.6999 34.6693 84.6687 34.8835 84.6238 35.0977H84.0603L84.7068 34.4619H84.7102ZM84.406 34.1627L79.5001 38.9872C79.7352 38.3514 79.8666 37.6442 79.9011 36.903C80.1362 36.5698 80.4025 36.2468 80.7101 35.9476C81.7992 34.8767 83.1717 34.2205 84.406 34.1627ZM81.8718 34.4925C81.8614 34.5095 81.8511 34.5299 81.8407 34.5469C81.5641 34.7101 81.291 34.8937 81.0282 35.0977H80.558L80.724 34.4925H81.8683H81.8718ZM80.8173 34.1525L80.9833 33.5473H82.3212C82.2417 33.7547 82.1553 33.9587 82.055 34.1525H80.8173ZM80.6272 35.4377C80.5546 35.5023 80.4854 35.5668 80.4163 35.6348L80.4681 35.4377H80.6272ZM82.5391 32.8979C82.5114 33.0033 82.4768 33.1053 82.4422 33.2107H81.0766L81.2426 32.6055H82.6117C82.5909 32.7041 82.5667 32.8027 82.5391 32.8979ZM82.6773 32.2621H81.3325L81.4984 31.6569H82.7534C82.7361 31.8575 82.7119 32.0581 82.6773 32.2621ZM82.7741 31.3169H81.5918L81.7577 30.7117H82.7603C82.7741 30.9089 82.7776 31.1129 82.7741 31.3169ZM82.2625 28.8554C82.3558 29.0356 82.4353 29.2259 82.5045 29.4265H82.1069L82.2625 28.8554ZM82.0135 29.7665H82.6047C82.6566 29.9603 82.6946 30.1643 82.7223 30.3717H81.8476L82.0135 29.7665ZM79.552 32.1091C79.9496 30.6471 80.807 29.4027 81.8476 28.7466L79.8908 35.9238C79.8493 35.3595 79.7559 34.7883 79.6004 34.2205C79.5243 33.9417 79.4344 33.6663 79.3342 33.4011C79.3653 32.9761 79.4344 32.5409 79.552 32.1091ZM79.2235 34.4925C79.2754 34.6931 79.3169 34.8971 79.3549 35.0977H77.5537L77.3877 34.4925H79.2235ZM77.2909 34.1525L77.125 33.5473H78.9227C78.9988 33.7445 79.0645 33.9485 79.1267 34.1525H77.2909ZM77.0351 33.2073L76.8691 32.6021H78.5009C78.6047 32.7993 78.7015 32.9999 78.7879 33.2073H77.0316H77.0351ZM73.9996 24.7006L72.9347 24.0954H75.8146C76.0359 24.2892 76.2399 24.4898 76.43 24.7006H74.003H73.9996ZM76.717 25.0406C76.8726 25.2378 77.0143 25.4384 77.1388 25.6458H75.6625L74.5977 25.0406H76.717ZM72.3332 23.7554L71.2683 23.1502H74.4732C74.4732 23.1502 74.4871 23.157 74.494 23.1604C74.812 23.3406 75.1128 23.5412 75.3929 23.7554H72.3332ZM75.6003 22.2051H76.233C76.1846 22.511 76.1569 22.8238 76.1535 23.1434L75.6003 22.2051ZM76.354 21.5897C76.3298 21.6781 76.3125 21.7733 76.2917 21.8651H75.3963L75.0402 21.2599H76.2503C76.2848 21.3721 76.3194 21.4809 76.3505 21.5931M76.1327 20.9199H74.8466L74.4905 20.3147H75.8527C75.9564 20.5153 76.0497 20.7159 76.1327 20.9199ZM75.6625 19.9747H74.29L73.9339 19.3695H75.2407C75.3894 19.5599 75.5311 19.7639 75.6591 19.9747M74.9538 19.0295H73.7334L73.3773 18.4243H74.3142C74.5389 18.6045 74.7533 18.8085 74.9538 19.0295ZM73.844 18.0843H73.1802L72.9174 17.6389C73.2286 17.7409 73.5398 17.8939 73.8405 18.0843M72.5441 17.8531L75.9495 23.6568C75.5692 23.3406 75.1543 23.0482 74.7049 22.7966C74.4698 22.664 74.2312 22.5417 73.9892 22.4329C73.7299 22.1371 73.4879 21.8107 73.2805 21.4571C72.5821 20.2705 72.3159 18.9377 72.5406 17.8531M70.8673 22.1439C71.8042 22.1439 72.8172 22.3751 73.7887 22.8102H70.6668L69.716 22.2697C70.079 22.1847 70.4662 22.1439 70.8638 22.1439M72.672 26.2578C71.0955 25.3636 69.9234 24.0104 69.5051 22.6402L77.443 27.1486C76.0255 27.475 74.2485 27.1554 72.672 26.2612M76.2606 25.9858H77.3324C77.4672 26.2476 77.5779 26.5128 77.6608 26.7814L76.2606 25.9858ZM77.7715 25.9008C77.5053 25.3602 77.1353 24.8366 76.6859 24.3504C76.6167 23.9866 76.5787 23.6058 76.5787 23.2182C76.5787 21.8481 77.0247 20.5595 77.768 19.7333V25.8974L77.7715 25.9008ZM77.8372 27.4784C77.8372 27.4784 77.851 27.475 77.8579 27.4716C78.3765 29.1341 78.7464 30.8341 78.9573 32.5511C78.8536 32.3403 78.7395 32.1363 78.6185 31.9425C78.4767 30.4397 78.2175 28.9472 77.8337 27.4784M78.3108 32.2621H76.7758L76.6098 31.6569H77.9132C78.0515 31.8507 78.1863 32.0513 78.3108 32.2621ZM77.6505 31.3169H76.5199L76.354 30.7117H77.0869C77.284 30.8953 77.4707 31.0993 77.6505 31.3169ZM76.6928 30.3717H76.2606L76.1604 30.0045C76.3401 30.1133 76.5199 30.2357 76.6928 30.3717ZM75.3272 35.3459C74.8086 33.4453 74.9745 31.4971 75.7455 30.1201L78.3454 39.6638C76.9797 38.8512 75.8458 37.243 75.3272 35.3425M76.392 45.4947H74.4698L74.5769 44.8895H76.392C76.3989 45.0901 76.3955 45.2907 76.392 45.4947ZM73.7921 49.2754L73.8993 48.6702H75.7144C75.6314 48.8776 75.5381 49.0782 75.4413 49.2754H73.7921ZM74.2208 49.6154C74.1724 49.6596 74.131 49.7106 74.0964 49.765C73.9996 49.918 73.9028 50.0676 73.8025 50.2206H73.6227L73.7299 49.6154H74.2174H74.2208ZM73.9615 48.3302L74.0687 47.7251H76.0394C75.9806 47.9291 75.9184 48.1331 75.8458 48.3302H73.9615ZM74.131 47.3851L74.2381 46.7799H76.2572C76.2572 46.7799 76.2537 46.8003 76.2503 46.8139C76.2157 47.0077 76.1742 47.1981 76.1258 47.3851H74.1275H74.131ZM74.3004 46.4399L74.4075 45.8347H76.3713C76.3574 46.0353 76.3367 46.2359 76.309 46.4399H74.3004ZM76.3747 44.5495H74.6357L74.7429 43.9443H76.309C76.3367 44.1415 76.3574 44.3455 76.3713 44.5495M75.258 41.0952C75.3929 41.289 75.5173 41.4964 75.628 41.7174H75.1474L75.258 41.0952ZM75.0852 42.0539H75.7904C75.8769 42.2477 75.9529 42.4517 76.0221 42.6591H74.9814L75.0886 42.0539H75.0852ZM76.1223 42.9991C76.1742 43.1963 76.2191 43.3969 76.2572 43.6043H74.8086L74.9158 42.9991H76.1189H76.1223ZM71.9114 46.0591C72.2951 43.9137 73.398 42.0335 74.8328 41.0238L72.9624 51.448C72.914 51.5126 72.8656 51.5772 72.8172 51.6452C71.8872 50.2138 71.538 48.1433 71.9114 46.0625M73.5812 50.5606C73.5812 50.5606 73.5605 50.5878 73.5536 50.6014L73.5605 50.5606H73.5812ZM25.4629 51.1658H24.9892L24.882 50.5606H25.736C25.653 50.7714 25.5631 50.972 25.4629 51.1658ZM25.2727 51.5058C25.245 51.5534 25.2139 51.5976 25.1828 51.6418C25.1482 51.5976 25.1137 51.55 25.0826 51.5058H25.2727ZM25.8535 50.2206H24.8163L24.7092 49.6154H26.0229C25.9745 49.8228 25.9192 50.0234 25.8535 50.2206ZM26.0921 49.2754H24.6469L24.5398 48.6702H26.182C26.1578 48.8742 26.1301 49.0782 26.0921 49.2754ZM26.2131 48.3302H24.4775L24.3704 47.7251H26.2373C26.2373 47.9291 26.2304 48.1297 26.2165 48.3302M26.2304 47.3851H24.3116L24.2044 46.7799H26.1923C26.2131 46.9839 26.2269 47.1845 26.2338 47.3851M26.0921 46.0591C26.1163 46.1849 26.1336 46.3141 26.1509 46.4399H24.1422L24.035 45.8347H26.0471C26.061 45.9095 26.0782 45.9843 26.0921 46.0591ZM25.9676 45.4947H23.9693L23.8621 44.8895H25.8017C25.8639 45.0867 25.9192 45.2907 25.9676 45.4947ZM25.6876 44.5495H23.8034L23.6962 43.9443H25.4456C25.532 44.1415 25.615 44.3421 25.6876 44.5495ZM25.2831 43.6043H23.6305L23.5233 42.9991H24.9512C25.0687 43.1929 25.1794 43.3969 25.2831 43.6043ZM24.277 42.0539C24.436 42.2443 24.5916 42.4449 24.7334 42.6591H23.4611L23.3539 42.0539H24.277ZM23.2813 41.1088C23.5199 41.289 23.7515 41.4896 23.9693 41.714H23.2917L23.1845 41.1088H23.2813ZM22.742 41.0952L24.4464 50.6048C24.2597 50.3294 24.0799 50.0506 23.9036 49.7684C23.7619 49.544 23.5199 49.4148 23.2709 49.4148C23.1465 49.4148 23.022 49.4454 22.9079 49.51L22.7351 49.6086C22.2752 48.7756 21.9295 47.8271 21.7497 46.8139C21.366 44.6651 21.7463 42.5265 22.742 41.0952ZM21.6564 50.2206H19.8102L18.1196 49.6154H22.175C22.2096 49.6358 22.2476 49.6528 22.2822 49.6766C22.3098 49.7242 22.3375 49.7718 22.3651 49.8194L21.6564 50.224V50.2206ZM20.9407 50.6286L20.7575 50.564H21.0548L20.9407 50.6286ZM19.6546 39.6638L19.7756 39.2184H20.2839C20.0799 39.385 19.869 39.5346 19.6546 39.6638ZM20.6642 38.8784H19.869L20.0349 38.2732H21.2104C21.0375 38.4908 20.8543 38.6914 20.6642 38.8784ZM21.4662 37.9332H20.1248L20.2908 37.328H21.8535C21.7325 37.5388 21.6045 37.7394 21.4662 37.9332ZM22.0367 36.988H20.3841L20.5501 36.3828H22.3202C22.2338 36.5902 22.1404 36.7908 22.0401 36.988M22.4516 36.0428H20.6434L20.8094 35.4377H22.6486C22.5899 35.6416 22.5242 35.8456 22.455 36.0428M22.7351 35.0977H20.8992L21.0652 34.4925H22.8595C22.825 34.6931 22.7869 34.8971 22.7385 35.0977M22.9079 34.1525H21.1585L21.3245 33.5473H22.9632C22.9529 33.7479 22.9356 33.9485 22.9079 34.1525ZM22.9702 33.2073H21.4144L21.5803 32.6021H22.9529C22.9667 32.7993 22.9736 33.0033 22.9736 33.2073M22.9183 32.2621H21.6702L21.8362 31.6569H22.818C22.8595 31.8541 22.8941 32.0547 22.9183 32.2621ZM22.2545 30.1201C22.2994 30.2017 22.3444 30.2867 22.3859 30.3717H22.1888L22.258 30.1201H22.2545ZM22.0955 30.7117H22.5345C22.6106 30.9055 22.6797 31.1095 22.7351 31.3169H21.9295L22.0955 30.7117ZM20.557 27.1486L20.9373 26.931H23.793C22.6659 27.2914 21.525 27.373 20.557 27.1486ZM25.328 26.2578C25.1137 26.3802 24.8959 26.489 24.6746 26.591H21.5388L22.6037 25.9858H25.7706C25.6253 26.081 25.4801 26.1728 25.328 26.2578ZM26.2511 25.6458H23.2018L24.2666 25.0406H26.9529C26.7351 25.2514 26.5 25.4554 26.2511 25.6458ZM27.2779 24.7006H24.8647L25.9296 24.0954H27.7585C27.6133 24.3028 27.4508 24.5034 27.2745 24.7006M27.9867 23.7554H26.5346L27.5995 23.1502H28.3082C28.2183 23.3542 28.1111 23.5548 27.9901 23.7554M28.4396 22.8102H28.1976L28.4983 22.6402C28.4811 22.698 28.4603 22.7524 28.4396 22.8102ZM27.1327 22.1439C27.5338 22.1439 27.921 22.1847 28.284 22.2697L20.3392 26.7814C20.7575 25.4112 21.933 24.058 23.5095 23.1604C24.6815 22.4941 25.9676 22.1439 27.1327 22.1439ZM22.7212 23.1502C22.4861 23.31 22.2614 23.4766 22.0505 23.6534L22.3478 23.1502H22.7247H22.7212ZM22.5449 22.8102L22.901 22.2051H24.1975C24.1353 22.2833 24.073 22.3581 24.0073 22.4295C23.7653 22.5383 23.5268 22.6572 23.2917 22.7932C23.2813 22.8 23.2744 22.8034 23.264 22.8102H22.5449ZM24.7161 21.4571C24.6331 21.5999 24.5432 21.7359 24.4499 21.8685H23.0981L23.4542 21.2633H24.8233C24.7887 21.3279 24.7507 21.3959 24.7126 21.4605M24.9961 20.9199H23.6547L24.0108 20.3147H25.2416C25.1724 20.5187 25.0895 20.7193 24.9961 20.9199ZM25.3419 19.9747H24.2079L24.564 19.3695H25.4732C25.4421 19.5701 25.3972 19.7707 25.3419 19.9747ZM25.4559 17.8531C25.4698 17.9279 25.4836 18.0061 25.494 18.0843H25.3176L25.4525 17.8531H25.4559ZM25.5251 18.4243C25.5355 18.6215 25.532 18.8221 25.5147 19.0295H24.7645L25.1206 18.4243H25.5251ZM22.2787 20.0733C22.9771 18.8867 24.0177 17.9925 25.0826 17.6389L21.85 23.1434C21.8431 22.6062 21.7739 22.0827 21.646 21.5897C21.7809 21.0763 21.9917 20.5629 22.2787 20.0699M20.2285 19.7367C20.2977 19.8115 20.3599 19.8931 20.4221 19.9747H20.2285V19.7367ZM20.2285 20.3147H20.6538C20.7679 20.5051 20.8716 20.7057 20.9649 20.9199H20.2285V20.3147ZM20.2285 21.2599H21.0963C21.1655 21.4537 21.2208 21.6577 21.2692 21.8651H20.2285V21.2599ZM20.2285 22.2051H21.3349C21.3694 22.4023 21.3902 22.6062 21.404 22.8102H20.2285V22.2051ZM20.2285 23.1502H21.4178C21.4178 23.174 21.4178 23.1978 21.4178 23.2216C21.4178 23.4018 21.4075 23.5786 21.3936 23.7554H20.2285V23.1502ZM20.2285 24.0954H21.3556C21.3418 24.1804 21.328 24.2688 21.3141 24.3538C21.2069 24.4694 21.1067 24.585 21.0133 24.7006H20.232V24.0954H20.2285ZM20.2285 25.0406H20.7506C20.6088 25.2378 20.4809 25.4418 20.3668 25.6458H20.2285V25.0406ZM20.1456 27.4716C20.1456 27.4716 20.1594 27.475 20.1663 27.4784C19.7825 28.9472 19.5233 30.4363 19.3815 31.9425C19.2605 32.1397 19.1499 32.3437 19.0427 32.5511C19.2536 30.8341 19.6235 29.1341 20.1421 27.4716M18.652 33.2073H17.3728L17.2069 32.6021H18.5621C18.6002 32.8061 18.6313 33.0067 18.652 33.2073ZM17.6978 36.3828C17.843 36.5528 17.9744 36.7262 18.0989 36.903C18.0989 36.9302 18.1023 36.9608 18.1058 36.988H16.4705L15.8551 36.3828H17.6978ZM15.5094 36.0428L14.894 35.4377H16.7125C16.913 35.594 17.1066 35.764 17.2933 35.9476C17.3244 35.9782 17.3555 36.0122 17.3867 36.0462H15.5094V36.0428ZM17.888 35.0977L17.722 34.4925H18.3339C18.2855 34.6931 18.2441 34.8971 18.2095 35.0977H17.8845H17.888ZM18.1611 35.4377C18.1403 35.6008 18.1231 35.7606 18.1127 35.9238L17.9813 35.4377H18.1645H18.1611ZM18.1369 37.328C18.1576 37.532 18.1853 37.736 18.2199 37.9332H17.4316L16.8162 37.328H18.1334H18.1369ZM18.2959 38.2732C18.3443 38.4806 18.4031 38.6812 18.4688 38.8784H18.3927L17.7773 38.2732H18.2925H18.2959ZM18.4238 34.1525H17.6321L17.4662 33.5473H18.6174C18.5448 33.7445 18.4792 33.9485 18.4238 34.1525ZM18.4515 32.1091C18.4653 32.1601 18.4757 32.2111 18.4895 32.2621H17.117L16.951 31.6569H18.3097C18.3616 31.8065 18.41 31.9561 18.4515 32.1091ZM18.1818 31.3169H16.8577L16.6917 30.7117H17.8949C17.9986 30.9055 18.0954 31.1095 18.1818 31.3169ZM17.276 29.7665C17.4281 29.9535 17.5699 30.1575 17.7047 30.3717H16.6019L16.4359 29.7665H17.276ZM16.9752 29.4265H16.3391L16.1524 28.7432C16.4428 28.9268 16.7159 29.1579 16.9718 29.4265M15.4609 32.8979C15.0634 31.4359 15.174 29.9365 15.7375 28.8554L17.5837 35.6348C17.1446 35.2065 16.6606 34.8393 16.1559 34.5469C15.862 34.0505 15.62 33.4929 15.4575 32.8979M15.0772 34.4925C15.4713 34.6455 15.8655 34.8495 16.2423 35.0977H14.5482L13.9328 34.4925H15.0772ZM15.1083 38.0964C14.0193 37.0254 13.352 35.6722 13.2932 34.4585L18.8076 39.8814C17.5733 39.8202 16.1973 39.1674 15.1118 38.0964M18.8214 34.3293C19.34 32.4287 20.474 30.8171 21.8396 30.0045L19.2363 39.5584C18.4653 38.1814 18.3028 36.2298 18.8214 34.3293ZM19.1844 40.3064C19.2259 40.3064 19.2709 40.3064 19.3158 40.2996C19.3158 40.2996 19.3262 40.2996 19.3331 40.2996C19.3331 40.2996 19.3366 40.2996 19.34 40.2996C19.3435 40.2996 19.3504 40.2996 19.3538 40.2996C19.3608 40.2996 19.3677 40.2962 19.3746 40.2928C19.3815 40.2928 19.3884 40.2894 19.3988 40.286C19.3988 40.286 19.4022 40.286 19.4057 40.286C19.4057 40.286 19.4057 40.286 19.4092 40.286C19.5302 40.2316 19.6477 40.1704 19.7618 40.1024C19.8067 40.337 19.8551 40.5716 19.9036 40.8062C19.9105 40.8504 19.9174 40.898 19.9312 40.9422C19.9312 40.949 19.9381 40.9558 19.9381 40.9626C20.0349 41.4012 20.1421 41.8398 20.2631 42.2783C20.5189 43.2201 20.8232 44.1415 21.1689 45.0425C21.1585 45.6511 21.2104 46.2733 21.321 46.8989C21.3729 47.1845 21.4386 47.4633 21.5112 47.7387C20.3807 45.3859 19.5993 42.8869 19.181 40.3166M20.3184 45.8347C20.3979 46.0387 20.4775 46.2393 20.5604 46.4399H19.8517L19.3366 45.8347H20.3184ZM19.0461 45.4947L18.531 44.8895H19.9762C20.0453 45.0901 20.1179 45.2941 20.194 45.4947H19.0496H19.0461ZM20.7056 46.7799C20.7921 46.9839 20.882 47.1845 20.9753 47.3851H20.6607L20.1456 46.7799H20.7091H20.7056ZM21.1309 47.7251C21.2104 47.8917 21.2899 48.0583 21.3729 48.2249L20.9476 47.7251H21.1309ZM19.5613 43.9443C19.6097 43.9851 19.6581 44.0293 19.7065 44.0735C19.7549 44.2333 19.8067 44.3931 19.8586 44.5529H18.2406L17.7255 43.9477H19.5647L19.5613 43.9443ZM19.1395 43.6043H17.4351L16.9199 42.9991H18.168C18.4999 43.1657 18.8283 43.3697 19.1429 43.6043M17.3486 42.6591H16.6261L16.4497 42.4551C16.7471 42.4925 17.0478 42.5605 17.3452 42.6591M17.7497 46.9295C16.6503 45.6409 16.0487 44.0735 16.1178 42.7271L21.2242 48.711C21.2069 48.7042 21.1897 48.6974 21.1724 48.6906C20.5293 48.4595 19.869 48.3166 19.2259 48.2554C18.697 47.8951 18.1922 47.4463 17.7531 46.9295M21.0237 49.0884C21.1827 49.1462 21.3383 49.2108 21.4904 49.2754H17.1688L16.4532 49.0204C17.7151 48.4968 19.4161 48.5138 21.0237 49.0884ZM18.8975 51.839C17.7289 51.2338 16.7989 50.3702 16.3045 49.4182L20.4533 50.904L19.0876 51.6792C19.0116 51.72 18.9528 51.7778 18.8975 51.839ZM78.736 52.4102C75.6902 57.3435 71.3928 61.471 66.3071 64.3474C61.0659 67.3122 55.0813 68.8795 49 68.8795C42.9186 68.8795 36.9341 67.3122 31.6929 64.3474C26.6072 61.471 22.3098 57.3435 19.264 52.4102C19.2294 52.3524 19.2328 52.2946 19.2432 52.2572C19.2501 52.2232 19.2778 52.162 19.3469 52.1246L19.5198 52.026L19.8344 52.5598C19.8655 52.6142 19.9243 52.6448 19.9831 52.6448C20.0142 52.6448 20.0418 52.638 20.0695 52.621C20.1525 52.5734 20.1801 52.4714 20.1317 52.3898L19.8171 51.856L20.1525 51.6656L20.2839 51.8866C20.315 51.941 20.3737 51.9716 20.4325 51.9716C20.4636 51.9716 20.4913 51.9648 20.5189 51.9478C20.6019 51.9002 20.6296 51.7982 20.5812 51.7166L20.4498 51.4956L20.7852 51.3052L20.9165 51.5262C20.9476 51.5806 21.0064 51.6112 21.0652 51.6112C21.0963 51.6112 21.124 51.6044 21.1516 51.5874C21.2346 51.5398 21.2623 51.4344 21.2139 51.3562L21.0825 51.1352L21.4178 50.9448L21.5492 51.1658C21.5803 51.2202 21.6391 51.2508 21.6979 51.2508C21.729 51.2508 21.7567 51.244 21.7843 51.227C21.8673 51.1794 21.8949 51.0774 21.8465 50.9958L21.7152 50.7748L22.054 50.5844L22.1854 50.8054C22.2165 50.8598 22.2752 50.8904 22.334 50.8904C22.3651 50.8904 22.3928 50.8836 22.4204 50.8666C22.5034 50.819 22.5311 50.717 22.4827 50.6354L22.3513 50.4144L22.6867 50.224L23.0013 50.7578C23.0324 50.8122 23.0912 50.8428 23.1499 50.8428C23.1811 50.8428 23.2087 50.836 23.2364 50.819C23.3193 50.7714 23.347 50.6694 23.2986 50.5878L22.984 50.054L23.1499 49.9588C23.1845 49.9418 23.2191 49.9316 23.2537 49.9316C23.3332 49.9316 23.4023 49.9724 23.4473 50.0404C26.0748 54.2598 29.7706 57.7923 34.1337 60.2505C38.6351 62.7868 43.7691 64.1264 48.9862 64.1264C54.2032 64.1264 59.3373 62.7868 63.8386 60.2505C68.2017 57.7923 71.8975 54.2598 74.5251 50.0404C74.5666 49.9724 74.6392 49.9316 74.7187 49.9316C74.7567 49.9316 74.7913 49.9418 74.8224 49.9588L74.9884 50.054L74.6737 50.5878C74.6253 50.6694 74.653 50.7748 74.736 50.819C74.7636 50.836 74.7947 50.8428 74.8224 50.8428C74.8812 50.8428 74.94 50.8122 74.9711 50.7578L75.2857 50.224L75.621 50.4144L75.4897 50.6354C75.4413 50.717 75.4689 50.819 75.5519 50.8666C75.5795 50.8836 75.6072 50.8904 75.6383 50.8904C75.6971 50.8904 75.7559 50.8598 75.787 50.8054L75.9184 50.5844L76.2572 50.7748L76.1258 50.9958C76.0774 51.0774 76.1051 51.1794 76.188 51.227C76.2157 51.2406 76.2468 51.2508 76.2745 51.2508C76.3332 51.2508 76.392 51.2202 76.4231 51.1658L76.5545 50.9448L76.8899 51.1352L76.7585 51.3562C76.7101 51.4378 76.7377 51.5398 76.8207 51.5874C76.8484 51.6044 76.876 51.6112 76.9071 51.6112C76.9659 51.6112 77.0247 51.5806 77.0558 51.5262L77.1872 51.3052L77.5225 51.4956L77.3912 51.7166C77.3428 51.7982 77.3704 51.9002 77.4534 51.9478C77.4811 51.9648 77.5122 51.9716 77.5398 51.9716C77.5986 51.9716 77.6574 51.941 77.6885 51.8866L77.8199 51.6656L78.1587 51.856L77.8441 52.3898C77.7957 52.4714 77.8233 52.5768 77.9063 52.621C77.934 52.638 77.9616 52.6448 77.9927 52.6448C78.0515 52.6448 78.1103 52.6142 78.1414 52.5598L78.456 52.026L78.6289 52.1246C78.698 52.1654 78.7222 52.2266 78.7326 52.2572C78.743 52.2946 78.7464 52.3524 78.7118 52.4102M79.1025 51.8356C79.0507 51.7744 78.9884 51.7234 78.9158 51.6792L78.6116 51.5058H79.6833C79.5001 51.6248 79.303 51.7302 79.1025 51.8356ZM80.1674 51.1658H78.01L77.5467 50.904L78.5044 50.5606H80.8519C80.6445 50.7748 80.4163 50.9754 80.1674 51.1658ZM81.1596 50.2206H79.4552L81.6989 49.4182C81.5537 49.6936 81.3739 49.9622 81.1596 50.2206ZM81.5468 49.0204L77.0593 50.6286L75.6383 49.8194C75.666 49.7718 75.6936 49.7242 75.7213 49.6766C76.112 49.4488 76.5338 49.2482 76.9797 49.0884C78.5874 48.5138 80.2884 48.4968 81.5503 49.0204M77.1008 48.3302L77.6159 47.7251H79.4586C79.2374 47.9155 79.0126 48.0923 78.7775 48.2521C78.5908 48.2691 78.4007 48.2962 78.2105 48.3302H77.1008ZM80.2538 46.9295C80.1155 47.0893 79.9737 47.2423 79.8251 47.3885H77.9098L78.4249 46.7833H80.3748C80.3368 46.8309 80.2953 46.8819 80.2538 46.9295ZM80.6341 46.4399H78.7118L79.227 45.8347H81.0248C80.9038 46.0387 80.7758 46.2427 80.6306 46.4399M81.2149 45.4947H79.5208L80.036 44.8895H81.488C81.4085 45.0935 81.3152 45.2941 81.2115 45.4947M81.6125 44.5495H80.3264L80.8415 43.9443H81.775C81.7335 44.1449 81.6782 44.3455 81.6125 44.5495ZM81.8372 43.6043H81.1319L81.8822 42.7271C81.896 43.0127 81.8822 43.3051 81.8372 43.6043ZM81.5503 42.4551L76.6271 48.2249C77.3047 46.8683 77.8614 45.4811 78.297 44.0735C79.2858 43.1759 80.4509 42.5911 81.5503 42.4551ZM76.4854 47.7285C76.5614 47.4531 76.6236 47.1743 76.6755 46.8887C76.7861 46.2631 76.838 45.6409 76.8276 45.0323C77.1734 44.1313 77.4741 43.2099 77.7334 42.2681C77.851 41.8296 77.9582 41.3944 78.0584 40.9524C78.0584 40.9456 78.0653 40.9388 78.0653 40.932C78.0792 40.8878 78.0861 40.8402 78.093 40.796C78.1449 40.5614 78.1932 40.3268 78.2347 40.0922C78.3523 40.1568 78.4698 40.2214 78.5874 40.2758C78.5874 40.2758 78.5874 40.2758 78.5908 40.2758C78.5908 40.2758 78.5908 40.2758 78.5943 40.2758C78.5943 40.2758 78.5978 40.2758 78.6012 40.2758C78.6081 40.2758 78.615 40.2792 78.6254 40.2826C78.6323 40.2826 78.6392 40.2894 78.6462 40.2894C78.6496 40.2894 78.6531 40.2894 78.66 40.2894C78.66 40.2894 78.6634 40.2894 78.6669 40.2894C78.6738 40.2894 78.6773 40.2894 78.6842 40.2894C78.7257 40.2928 78.7706 40.2928 78.8156 40.2962C78.4007 42.8665 77.6193 45.3655 76.4854 47.7183M78.7637 39.5584L78.4145 38.2732H79.2685C79.1475 38.7356 78.9815 39.1708 78.7672 39.5584" fill="var(--fill-0, #282828)"/>
<path id="Vector_57" d="M62.6632 -9.55393e-05C61.9855 -9.55393e-05 61.4047 0.523496 61.3943 1.18649C61.3874 1.64208 61.6329 2.03987 62.0063 2.24727C62.0962 2.29827 62.1273 2.41387 62.0754 2.50227C62.0236 2.59066 61.906 2.62126 61.8161 2.57026C61.2249 2.23367 60.4678 2.43767 60.1359 3.02586C59.8213 3.58005 60.0184 4.31104 60.5681 4.64083C61.1454 4.98423 61.8922 4.80403 62.2448 4.24644C62.2448 4.24644 62.2725 4.22264 62.2932 4.22264C62.3244 4.22264 62.352 4.24984 62.352 4.28044C62.352 4.28384 62.352 4.28724 62.352 4.29064C62.352 4.29744 62.352 4.30084 62.3486 4.30764C62.3382 4.35524 62.3244 4.40284 62.3105 4.44704C62.2967 4.49123 62.2863 4.53543 62.2725 4.57963C61.8576 5.85121 60.6441 6.7726 59.2128 6.7726C57.6743 6.7726 56.3882 5.70842 56.0736 4.28724V4.28044C56.0736 4.24984 56.1013 4.22264 56.1324 4.22264C56.1531 4.22264 56.1739 4.23284 56.1842 4.24644C56.5369 4.80403 57.2836 4.98423 57.861 4.64083C58.4142 4.31104 58.6078 3.58005 58.2932 3.02586C57.9613 2.43767 57.2041 2.23367 56.6129 2.57026C56.523 2.62126 56.4055 2.59066 56.3536 2.50227C56.3018 2.41387 56.3329 2.29827 56.4228 2.24727C56.7789 2.04667 57.0174 1.67608 57.0347 1.24429C57.0589 0.591495 56.5196 0.0203041 55.8523 -0.00349549C55.1574 -0.0272951 54.587 0.520096 54.587 1.20009C54.587 1.64888 54.829 2.03987 55.1989 2.24727C55.2888 2.29827 55.3199 2.41387 55.268 2.50227C55.2162 2.59066 55.0986 2.62126 55.0088 2.57026C54.4176 2.23367 53.6604 2.43767 53.3285 3.02586C53.0139 3.58005 53.211 4.31104 53.7607 4.64083C54.338 4.98423 55.0848 4.80403 55.4375 4.24644C55.4375 4.24644 55.4686 4.22264 55.4893 4.22264C55.5204 4.22264 55.5481 4.24984 55.5481 4.28044C55.5481 4.28044 55.5481 4.28724 55.5481 4.29064C55.2335 5.71182 53.9474 6.7726 52.4089 6.7726C50.8704 6.7726 49.5843 5.70842 49.2697 4.28724C49.2697 4.28724 49.2697 4.28044 49.2697 4.27704C49.2697 4.24644 49.2973 4.21924 49.3284 4.21924C49.3492 4.21924 49.3699 4.22944 49.3803 4.24304C49.7329 4.80063 50.4797 4.98083 51.0571 4.63743C51.6102 4.30764 51.8039 3.57665 51.4892 3.02246C51.1573 2.43427 50.4002 2.23027 49.809 2.56686C49.7191 2.61786 49.6016 2.58726 49.5497 2.49887C49.4979 2.41047 49.529 2.29487 49.6189 2.24387C49.9784 2.04327 50.2135 1.67268 50.2308 1.24089C50.255 0.588095 49.7157 0.0169042 49.0484 -0.00689543C48.3535 -0.0306951 47.783 0.516696 47.783 1.19669C47.783 1.64548 48.0251 2.03647 48.395 2.24387C48.4849 2.29487 48.516 2.41047 48.4641 2.49887C48.4123 2.58726 48.2947 2.61786 48.2048 2.56686C47.6136 2.23027 46.8565 2.43427 46.5246 3.02246C46.21 3.57665 46.407 4.30764 46.9568 4.63743C47.5341 4.98083 48.2809 4.80063 48.6335 4.24304C48.6335 4.24304 48.6647 4.21924 48.6854 4.21924C48.7165 4.21924 48.7442 4.24644 48.7442 4.27704C48.7442 4.27704 48.7442 4.28384 48.7442 4.28724C48.4296 5.70842 47.1434 6.7726 45.605 6.7726C44.0665 6.7726 42.7804 5.70842 42.4657 4.28724V4.28044C42.4657 4.24984 42.4934 4.22264 42.5245 4.22264C42.5453 4.22264 42.566 4.23284 42.5764 4.24644C42.929 4.80403 43.6758 4.98423 44.2532 4.64083C44.8063 4.31104 44.9999 3.58005 44.6853 3.02586C44.3534 2.43767 43.5963 2.23367 43.0051 2.57026C42.9152 2.62126 42.7976 2.59066 42.7458 2.50227C42.6939 2.41387 42.725 2.29827 42.8149 2.24727C43.1745 2.04667 43.4096 1.67608 43.4269 1.24429C43.4511 0.591495 42.9117 0.0203041 42.2445 -0.00349549C41.5496 -0.0272951 40.9791 0.520096 40.9791 1.20009C40.9791 1.64888 41.2211 2.03987 41.5911 2.24727C41.6809 2.29827 41.7121 2.41387 41.6602 2.50227C41.6083 2.59066 41.4908 2.62126 41.4009 2.57026C40.8097 2.23367 40.0526 2.43767 39.7207 3.02586C39.4061 3.58005 39.6031 4.31104 40.1528 4.64083C40.7302 4.98423 41.477 4.80403 41.8296 4.24644C41.8296 4.24644 41.8607 4.22264 41.8815 4.22264C41.9126 4.22264 41.9402 4.24984 41.9402 4.28044C41.9402 4.28044 41.9402 4.28724 41.9402 4.29064C41.6256 5.71182 40.3395 6.7726 38.801 6.7726C37.3697 6.7726 36.1597 5.85121 35.7413 4.57963C35.7275 4.53543 35.7171 4.49123 35.7033 4.44704C35.6895 4.39944 35.6757 4.35524 35.6653 4.30764C35.6653 4.30084 35.6653 4.29744 35.6618 4.29064C35.6618 4.29064 35.6618 4.28384 35.6618 4.28044C35.6618 4.24984 35.6895 4.22264 35.7206 4.22264C35.7413 4.22264 35.7586 4.23284 35.769 4.24644C36.1216 4.80403 36.8684 4.98423 37.4458 4.64083C37.9989 4.31104 38.1926 3.58005 37.8779 3.02586C37.546 2.43767 36.7889 2.23367 36.1977 2.57026C36.1078 2.62126 35.9903 2.59066 35.9384 2.50227C35.8865 2.41387 35.9177 2.29827 36.0076 2.24727C36.3809 2.03647 36.6264 1.63868 36.6195 1.18649C36.5953 0.523496 36.0145 -9.55393e-05 35.3368 -9.55393e-05H35.0326V17.1696H62.9639V-9.55393e-05H62.6597H62.6632ZM35.7275 11.4305H48.0665C47.6862 11.5665 47.344 11.7807 47.0639 12.0527H35.7275V11.4305ZM35.7275 14.9971H36.82C36.9168 14.9971 36.9929 14.9223 36.9929 14.8271C36.9929 14.7319 36.9168 14.6571 36.82 14.6571H35.7275V14.1301H36.3325C36.4293 14.1301 36.5054 14.0553 36.5054 13.9601C36.5054 13.8649 36.4293 13.7901 36.3325 13.7901H35.7275V13.2631H36.82C36.9168 13.2631 36.9929 13.1883 36.9929 13.0931C36.9929 12.9979 36.9168 12.9231 36.82 12.9231H35.7275V12.3961H46.7735C46.4485 12.8381 46.2549 13.3821 46.2549 13.9669C46.2549 14.5517 46.4451 15.0855 46.7631 15.5241H35.7275V14.9971ZM35.7275 16.4896V15.8641H47.0501C47.3232 16.1361 47.6586 16.3503 48.0285 16.4896H35.7241H35.7275ZM48.6888 16.3061C47.6206 16.1735 46.7562 15.3235 46.6214 14.2729C46.4209 12.7327 47.745 11.4305 49.3146 11.6243C50.3829 11.7569 51.2472 12.6069 51.3821 13.6575C51.5826 15.1977 50.2585 16.4998 48.6888 16.3061ZM62.276 16.4896H49.9715C50.3414 16.3503 50.6768 16.1395 50.9499 15.8641H62.2725V16.4896H62.276ZM62.276 12.9231H61.1835C61.0866 12.9231 61.0106 12.9979 61.0106 13.0931C61.0106 13.1883 61.0866 13.2631 61.1835 13.2631H62.276V13.7901H61.6709C61.5741 13.7901 61.4981 13.8649 61.4981 13.9601C61.4981 14.0553 61.5741 14.1301 61.6709 14.1301H62.276V14.6571H61.1835C61.0866 14.6571 61.0106 14.7319 61.0106 14.8271C61.0106 14.9223 61.0866 14.9971 61.1835 14.9971H62.276V15.5241H51.2403C51.5584 15.0821 51.7485 14.5449 51.7485 13.9669C51.7485 13.3889 51.5549 12.8381 51.2299 12.3961H62.276V12.9231ZM62.276 12.0561H50.9395C50.6595 11.7807 50.3172 11.5699 49.9369 11.4339H62.276V12.0561ZM62.276 6.7352C60.4955 8.48617 57.3666 8.29918 55.8108 6.36801C54.1064 8.46237 50.7044 8.46237 49 6.36801C47.2956 8.46237 43.8936 8.46237 42.1892 6.36801C40.6368 8.29578 37.5046 8.48277 35.7241 6.7352V5.73562C36.4051 6.6774 37.5218 7.29619 38.7837 7.29619C40.0768 7.30299 41.3248 6.6026 41.9886 5.51802C41.9886 5.51802 41.9886 5.51802 41.9886 5.51462C42.0612 5.39562 42.1304 5.27322 42.1892 5.14742C42.2479 5.27322 42.3171 5.39562 42.3897 5.51462C42.3897 5.51462 42.3897 5.51462 42.3897 5.51802C43.8314 7.87758 47.3613 7.87758 48.8029 5.51802C48.8029 5.51802 48.8029 5.51802 48.8029 5.51462C48.8755 5.39562 48.9447 5.27322 49.0035 5.14742C49.0622 5.27322 49.1314 5.39562 49.204 5.51462C49.204 5.51462 49.204 5.51462 49.204 5.51802C50.6457 7.87758 54.1755 7.87758 55.6172 5.51802C55.6172 5.51802 55.6172 5.51802 55.6172 5.51462C55.6898 5.39562 55.759 5.27322 55.8178 5.14742C55.8765 5.27322 55.9457 5.39562 56.0183 5.51462C56.0183 5.51462 56.0183 5.51462 56.0183 5.51802C57.4012 7.79598 60.7789 7.88098 62.2829 5.73562V6.7352H62.276Z" fill="var(--fill-0, #282828)"/>
<path id="Vector_58" d="M50.9292 13.967C50.9292 15.0142 50.0648 15.8642 49 15.8642C47.9352 15.8642 47.0708 15.0142 47.0708 13.967C47.0708 12.9198 47.9352 12.0698 49 12.0698C50.0648 12.0698 50.9292 12.9198 50.9292 13.967Z" fill="var(--fill-0, #282828)"/>
</g>
<defs>
<clipPath id="clip0_4106_1293">
<rect width="98" height="90" fill="white"/>
</clipPath>
</defs>
</svg>
