<svg width="112" height="130" viewBox="0 0 112 130" fill="none" xmlns="http://www.w3.org/2000/svg">
<g opacity="0.85" clip-path="url(#clip0_4025_17)">
<path d="M14.4435 126.651V129.416H14.1427L13.5792 128.77C12.9638 129.297 12.0442 129.538 11.2352 129.538C8.82199 129.538 7 127.124 7 124.887C7 123.136 7.94729 121.477 9.48233 120.572C10.0286 120.263 10.7166 120.127 11.3458 120.127C12.1133 120.127 12.867 120.341 13.472 120.827L14.0217 120.26H14.3225V122.861H13.9249C13.7175 121.392 12.6768 120.46 11.332 120.46C10.4538 120.46 10.0044 120.647 9.52381 121.378C8.88076 122.351 9.01559 123.914 9.01559 125.006C9.01559 125.774 8.98793 126.825 9.24723 127.702C9.50653 128.566 10.153 129.144 11.1937 129.198C12.8808 129.28 13.6622 128.107 14.0598 126.651H14.4435Z" fill="#282828"/>
<path d="M18.2776 123.915C19.8265 123.915 21.1575 125.247 21.1575 126.76C21.1575 128.273 19.8265 129.538 18.2776 129.538C16.7288 129.538 15.3977 128.27 15.3977 126.76C15.3977 125.251 16.7288 123.915 18.2776 123.915ZM18.2776 124.183C16.9327 124.183 17.0295 125.234 17.0295 126.757C17.0295 128.508 17.0572 129.266 18.2776 129.266C19.498 129.266 19.5257 128.511 19.5257 126.757C19.5257 125.234 19.6225 124.183 18.2776 124.183Z" fill="#282828"/>
<path d="M24.0617 125.237H24.0894C24.4316 124.428 25.0643 123.915 25.9943 123.915C26.748 123.915 27.3254 124.319 27.5708 125.033C27.9684 124.374 28.5596 123.915 29.3513 123.915C31.1457 123.915 30.997 125.006 30.997 126.397V128.997H31.8752V129.334H28.8189V128.997H29.5449V125.397C29.5449 125.02 29.6141 124.401 28.9676 124.401C27.9408 124.401 27.5294 125.574 27.5294 126.397V128.997H28.283V129.334H25.3651V128.997H26.0773V125.774C26.0773 125.156 26.2432 124.401 25.4204 124.401C24.7497 124.401 24.0617 125.424 24.0617 126.424V128.997H24.8154V129.334H21.7177V128.997H22.6096V124.333H21.6624V123.996C22.3607 124.023 23.1974 123.969 24.0617 123.942V125.237Z" fill="#282828"/>
<path d="M36.418 128.256H36.3765C35.9928 129.011 35.2529 129.538 34.3609 129.538C33.0437 129.538 32.7014 128.865 32.7014 128.229V124.333H31.8094V123.996C32.494 124.023 33.3307 123.969 34.1535 123.942V128.134C34.1535 128.688 34.112 129.103 34.8104 129.103C35.3186 129.103 36.4145 128.549 36.4145 126.934V124.333H35.3739V123.996C36.2106 124.023 37.0472 123.969 37.8701 123.942V128.998H38.8312V129.334C38.0222 129.334 37.2132 129.293 36.418 129.443V128.256Z" fill="#282828"/>
<path d="M41.559 125.21H41.5866C42.0257 124.374 42.6411 123.915 43.6299 123.915C45.4519 123.915 45.3032 125.169 45.3032 126.502V128.994H46.1675V129.331H42.9868V128.994H43.8512V126.567C43.8512 125.312 43.9895 124.397 43.0698 124.397C42.4821 124.397 41.9462 125.016 41.7388 125.516C41.559 125.961 41.559 126.58 41.559 127.216V128.994H42.4233V129.331H39.1735V128.994H40.1069V124.329H39.1735V123.993C39.8718 124.02 40.7085 123.966 41.559 123.938V125.207V125.21Z" fill="#282828"/>
<path d="M48.2764 126.356V127.433C48.2764 128.379 48.3318 129.266 49.4969 129.266C50.4856 129.266 51.2393 128.566 51.5125 127.648H51.8547C51.4986 128.957 50.5513 129.535 49.2237 129.535C47.7302 129.535 46.6481 128.12 46.6481 126.743C46.6481 125.261 47.8823 123.911 49.3759 123.911C50.6516 123.911 51.8305 124.775 51.8305 126.107C51.8305 126.39 51.7061 126.349 51.4883 126.349H48.2799L48.2764 126.356ZM50.2782 126.019C50.2782 125.115 50.5099 124.187 49.2894 124.187C48.152 124.187 48.2764 125.173 48.2764 126.019H50.2782Z" fill="#282828"/>
<path d="M59.4746 128.416H59.4469C59.1185 129.13 58.472 129.535 57.6111 129.535C56.8851 129.535 56.5152 129.28 55.9931 128.834C55.4434 128.362 55.1703 127.461 55.1703 126.757C55.1703 125.424 56.363 123.914 57.7874 123.914C58.6794 123.914 59.281 124.424 59.4469 125.06H59.4746V120.664H58.4858V120.328C59.3225 120.355 60.1453 120.273 60.9543 120.124V128.994H61.9431V129.331C61.1479 129.331 60.3527 129.29 59.4746 129.439V128.416ZM56.8436 128.052C56.8436 128.698 57.0752 129.266 57.8324 129.266C58.6691 129.266 59.4781 128.389 59.4781 127.58V126.152C59.4781 125.302 58.9145 124.183 57.86 124.183C56.9542 124.183 56.8471 124.883 56.8471 125.652V128.052H56.8436Z" fill="#282828"/>
<path d="M62.1367 129.334V128.998H63.1359V124.333H62.1367V123.996C62.9457 124.024 63.7824 123.969 64.619 123.942V128.998H65.632V129.334H62.1367ZM63.7651 122.269C63.3399 122.269 63.0252 121.851 63.0252 121.46C63.0252 121.096 63.3952 120.732 63.7651 120.732C64.1627 120.732 64.5741 121.055 64.5741 121.46C64.5741 121.919 64.2318 122.269 63.7651 122.269Z" fill="#282828"/>
<path d="M68.6882 120.328H73.117C74.8595 120.328 76.9408 120.678 76.9408 122.806C76.9408 124.693 74.939 125.247 73.3625 125.247H71.7998V128.994H73.2518V129.331H68.6882V128.994H70.0469V120.664H68.6882V120.328ZM73.404 124.911C74.735 124.911 75.0081 123.901 75.0081 122.793C75.0081 121.824 74.939 120.664 73.404 120.664H71.7998V124.911H73.404Z" fill="#282828"/>
<path d="M80.4706 124.669C80.4706 124.319 79.7999 124.183 79.5648 124.183C79.0427 124.183 78.3997 124.438 78.6037 124.697C78.6866 124.805 78.7938 125.088 78.7938 125.343C78.7938 125.693 78.4515 125.938 78.1369 125.938C77.7532 125.938 77.4247 125.734 77.4247 125.305C77.4247 124.282 78.7696 123.918 79.6028 123.918C80.1906 123.918 80.8232 124.013 81.3591 124.282C81.7429 124.469 81.8673 124.686 81.8673 125.105V128.691C81.8673 128.865 82.0333 128.946 82.1958 128.946C82.3583 128.946 82.5657 128.746 82.6763 128.637L82.8423 128.824C82.4862 129.256 82.1163 129.538 81.5389 129.538C80.9615 129.538 80.5536 129.174 80.4706 128.583C79.9762 129.174 79.2363 129.538 78.4688 129.538C77.646 129.538 77.0444 129.093 77.0444 128.229C77.0444 126.624 79.2363 126.288 80.4706 126.356V124.669ZM80.4706 126.638C79.6201 126.638 78.4827 126.747 78.4827 127.838C78.4827 128.43 78.7281 128.875 79.3746 128.875C79.8552 128.875 80.2113 128.511 80.3738 128.08C80.4568 127.876 80.4706 127.634 80.4706 127.379V126.638Z" fill="#282828"/>
<path d="M85.4215 125.438C85.8605 124.697 86.3411 123.915 87.3402 123.915C87.8761 123.915 88.4362 124.183 88.4362 124.792C88.4362 125.319 88.0663 125.547 87.5719 125.547C87.2434 125.547 86.915 125.264 86.915 124.928C86.915 124.873 86.9288 124.792 86.9427 124.727C86.9841 124.513 86.998 124.431 86.8458 124.431C86.5866 124.431 86.4483 124.567 86.2685 124.741C85.7464 125.254 85.418 125.982 85.418 127.746V129.001H86.6522V129.337H83.1293V129.001H83.9383V124.336H83.0325V124C83.7447 124.027 84.5813 123.972 85.418 123.945V125.441L85.4215 125.438Z" fill="#282828"/>
<path d="M91.0707 125.237H91.0983C91.4406 124.428 92.0733 123.915 93.0033 123.915C93.757 123.915 94.3343 124.319 94.5798 125.033C94.9774 124.374 95.5686 123.915 96.3603 123.915C98.1581 123.915 98.006 125.006 98.006 126.397V128.997H98.8841V129.334H95.8279V128.997H96.5539V125.397C96.5539 125.02 96.623 124.401 95.9765 124.401C94.9497 124.401 94.5383 125.574 94.5383 126.397V128.997H95.292V129.334H92.3706V128.997H93.0828V125.774C93.0828 125.156 93.2487 124.401 92.4259 124.401C91.7552 124.401 91.0672 125.424 91.0672 126.424V128.997H91.8209V129.334H88.7232V128.997H89.6151V124.333H88.6678V123.996C89.3662 124.023 90.2029 123.969 91.0672 123.942V125.237H91.0707Z" fill="#282828"/>
<path d="M102.632 124.669C102.632 124.319 101.961 124.183 101.726 124.183C101.204 124.183 100.561 124.438 100.765 124.697C100.848 124.805 100.955 125.088 100.955 125.343C100.955 125.693 100.613 125.938 100.298 125.938C99.9143 125.938 99.5859 125.734 99.5859 125.305C99.5859 124.282 100.931 123.918 101.767 123.918C102.355 123.918 102.988 124.013 103.52 124.282C103.904 124.469 104.028 124.686 104.028 125.105V128.691C104.028 128.865 104.194 128.946 104.357 128.946C104.519 128.946 104.727 128.746 104.837 128.637L105.003 128.824C104.647 129.256 104.277 129.538 103.7 129.538C103.123 129.538 102.711 129.174 102.632 128.583C102.137 129.174 101.397 129.538 100.63 129.538C99.8071 129.538 99.2056 129.093 99.2056 128.229C99.2056 126.624 101.401 126.288 102.632 126.356V124.669ZM102.632 126.638C101.781 126.638 100.644 126.747 100.644 127.838C100.644 128.43 100.889 128.875 101.536 128.875C102.016 128.875 102.372 128.511 102.535 128.08C102.618 127.876 102.632 127.634 102.632 127.379V126.638Z" fill="#282828"/>
<path d="M29.2891 92.4074C29.2891 92.4074 29.2752 92.3938 29.2649 92.3938C29.2545 92.3938 29.2476 92.3938 29.2407 92.4006L28.608 92.8392C28.5907 92.8528 28.5734 92.8562 28.5596 92.8528C28.5457 92.8528 28.5319 92.8392 28.5181 92.8188L28.3348 92.5638C28.3348 92.5638 28.3176 92.5332 28.321 92.523C28.3245 92.5128 28.3348 92.4992 28.3487 92.489L29.9286 91.3908C29.9563 91.3704 29.9805 91.3704 29.9943 91.3908L30.2018 91.6798C30.2156 91.7002 30.2121 91.7206 30.1845 91.741L29.6071 92.1422C29.5829 92.1592 29.576 92.1796 29.5898 92.2L29.9252 92.6658C29.939 92.6862 29.9598 92.6896 29.984 92.6726L30.5613 92.2714C30.589 92.251 30.6097 92.2544 30.6236 92.2714L30.831 92.5604C30.8483 92.5842 30.8414 92.6046 30.8137 92.625L29.2337 93.7232C29.2026 93.7436 29.175 93.7402 29.1542 93.713L28.971 93.458C28.9572 93.441 28.9502 93.424 28.9537 93.4104C28.9537 93.3968 28.9675 93.3832 28.9848 93.3696L29.6175 92.931C29.6175 92.931 29.6313 92.9174 29.6348 92.9106C29.6348 92.9038 29.6348 92.8936 29.6279 92.8834L29.2891 92.4108V92.4074Z" fill="#282828"/>
<path d="M29.7005 94.2502C29.6867 94.1006 29.7178 93.9476 29.7973 93.8014C29.8768 93.6518 30.0013 93.5124 30.1672 93.3798C30.3366 93.2472 30.506 93.1588 30.672 93.1146C30.8414 93.0704 30.997 93.0738 31.1456 93.1214C31.2943 93.169 31.4222 93.2574 31.5294 93.3934C31.6366 93.526 31.6953 93.6688 31.7092 93.8184C31.723 93.9714 31.6884 94.121 31.6089 94.274C31.5294 94.427 31.4049 94.5664 31.2355 94.699C31.0696 94.8282 30.9036 94.9166 30.7342 94.9608C30.5683 95.005 30.4127 95.0016 30.2675 94.954C30.1223 94.9064 29.9943 94.818 29.8837 94.682C29.7731 94.546 29.7109 94.4032 29.697 94.2536M30.468 94.6038C30.5925 94.5834 30.7515 94.4984 30.9451 94.3488C31.1422 94.1958 31.2666 94.0564 31.315 93.9374C31.3669 93.8184 31.3496 93.7062 31.2632 93.6008C31.1767 93.4954 31.0696 93.4512 30.9382 93.4716C30.8068 93.492 30.6443 93.5804 30.4473 93.7368C30.2536 93.8898 30.1361 94.0224 30.0877 94.138C30.0427 94.2536 30.06 94.3658 30.1499 94.4746C30.2364 94.58 30.3435 94.6242 30.468 94.6072" fill="#282828"/>
<path d="M32.5113 95.1172C32.4975 95.056 32.4595 94.9914 32.4007 94.9268C32.3315 94.852 32.2658 94.8078 32.2002 94.7942C32.1345 94.7806 32.0757 94.7942 32.0273 94.8418C31.9547 94.903 31.9478 94.9982 32.0065 95.1274L32.176 95.498C32.2416 95.6374 32.2589 95.7666 32.2347 95.8856C32.2105 96.0046 32.1448 96.11 32.0411 96.1984C31.9443 96.2834 31.8406 96.3344 31.73 96.3514C31.6193 96.3684 31.5087 96.3514 31.3946 96.3038C31.2805 96.2562 31.1733 96.1746 31.0731 96.0624C30.959 95.9366 30.8795 95.804 30.838 95.6612C30.793 95.5184 30.793 95.3892 30.8345 95.2702C30.838 95.2566 30.8449 95.2464 30.8553 95.2396C30.8656 95.2294 30.8829 95.226 30.9071 95.226L31.1457 95.2736C31.1664 95.2804 31.1803 95.2872 31.1872 95.2974C31.1975 95.3076 31.201 95.3212 31.1941 95.3382C31.1699 95.4402 31.163 95.5286 31.1803 95.6C31.1941 95.6714 31.239 95.7462 31.3082 95.821C31.3808 95.9026 31.4568 95.9536 31.526 95.9774C31.5986 95.9978 31.6608 95.9842 31.7196 95.9332C31.7576 95.8992 31.7784 95.8618 31.7818 95.8142C31.7853 95.7666 31.7749 95.7088 31.7438 95.6374L31.5813 95.2804C31.5191 95.1478 31.4983 95.0152 31.526 94.8894C31.5502 94.7636 31.6124 94.6582 31.7127 94.5698C31.7991 94.4916 31.8994 94.4474 32.01 94.427C32.1206 94.41 32.2313 94.4236 32.3419 94.4678C32.456 94.512 32.5563 94.5868 32.6531 94.6888C32.7464 94.7908 32.8121 94.903 32.8501 95.022C32.8882 95.141 32.8951 95.2532 32.8709 95.3586C32.8674 95.3756 32.8605 95.3892 32.8536 95.396C32.8467 95.4028 32.8328 95.4062 32.8225 95.4062L32.5563 95.362C32.5563 95.362 32.5355 95.3552 32.5321 95.3518C32.5251 95.345 32.5251 95.328 32.5286 95.3008C32.539 95.2328 32.539 95.1716 32.5217 95.1104" fill="#282828"/>
<path d="M33.1405 95.3515C33.1405 95.3515 33.1613 95.3345 33.1751 95.3379C33.1889 95.3379 33.1993 95.3447 33.2097 95.3549L34.2192 96.3612C34.2434 96.385 34.2434 96.4088 34.2192 96.4292L34.0359 96.606C34.0152 96.6264 33.9945 96.623 33.9737 96.606L33.6453 96.2762C33.6453 96.2762 33.6211 96.2626 33.6072 96.2762L32.456 97.3948C32.4318 97.4186 32.4076 97.422 32.3903 97.4016L32.1379 97.15C32.1206 97.133 32.1241 97.1126 32.1448 97.0922L33.2961 95.977C33.2961 95.977 33.3099 95.96 33.3134 95.9532C33.3134 95.9464 33.3134 95.9396 33.303 95.9328L32.9642 95.5928C32.9434 95.569 32.94 95.5487 32.9607 95.5317L33.144 95.3549L33.1405 95.3515Z" fill="#282828"/>
<path d="M34.6824 96.7794C34.7032 96.7964 34.6997 96.8168 34.679 96.8406L33.3548 98.2243C33.3548 98.2243 33.3237 98.2515 33.3099 98.2515C33.2961 98.2515 33.2788 98.2447 33.2615 98.2277L33.0333 98.0135C33.0333 98.0135 33.0126 97.9863 33.0126 97.9762C33.0126 97.9626 33.0195 97.9489 33.0333 97.9353L34.3609 96.5482C34.3851 96.5244 34.4059 96.521 34.4266 96.538L34.6894 96.7794H34.6824Z" fill="#282828"/>
<path d="M35.3635 97.8507C35.3428 97.7929 35.2944 97.7317 35.2287 97.6739C35.1526 97.6093 35.08 97.5719 35.0143 97.5685C34.9487 97.5651 34.8933 97.5855 34.8484 97.6365C34.7862 97.7079 34.7896 97.8031 34.8622 97.9221L35.08 98.2689C35.163 98.3981 35.1976 98.5239 35.1872 98.6463C35.1768 98.7687 35.125 98.8775 35.0351 98.9829C34.9521 99.0781 34.8553 99.1427 34.7481 99.1733C34.641 99.2039 34.5269 99.2039 34.4093 99.1665C34.2918 99.1325 34.1742 99.0645 34.0601 98.9659C33.9322 98.8571 33.8354 98.7313 33.7766 98.5987C33.7144 98.4627 33.6971 98.3335 33.7213 98.2111C33.7248 98.1975 33.7317 98.1873 33.7386 98.1771C33.749 98.1669 33.7663 98.1601 33.787 98.1601L34.029 98.1771C34.0498 98.1771 34.0636 98.1839 34.074 98.1941C34.0843 98.2043 34.0912 98.2179 34.0878 98.2349C34.0774 98.3403 34.0809 98.4287 34.1051 98.4967C34.1293 98.5647 34.1811 98.6327 34.2607 98.7007C34.3436 98.7721 34.4231 98.8163 34.4957 98.8299C34.5684 98.8435 34.6306 98.8197 34.6824 98.7619C34.717 98.7245 34.7308 98.6837 34.7308 98.6361C34.7308 98.5885 34.7101 98.5341 34.6686 98.4661L34.4612 98.1329C34.3817 98.0071 34.3471 97.8813 34.3575 97.7521C34.3678 97.6229 34.4162 97.5107 34.5027 97.4122C34.5787 97.3238 34.6721 97.266 34.7792 97.2354C34.8864 97.2048 34.9971 97.2048 35.1146 97.2354C35.2321 97.266 35.3428 97.3272 35.45 97.419C35.5571 97.5108 35.6367 97.6127 35.6885 97.7283C35.7404 97.8439 35.7646 97.9527 35.7507 98.0581C35.7507 98.0751 35.7438 98.0887 35.7369 98.0955C35.73 98.1023 35.7196 98.1091 35.7058 98.1091L35.4361 98.0989C35.4361 98.0989 35.4154 98.0989 35.4119 98.0921C35.405 98.0853 35.4016 98.0717 35.4016 98.0445C35.4016 97.9765 35.3946 97.9153 35.3704 97.8541" fill="#282828"/>
<path d="M35.3669 99.085C35.3462 99.0272 35.3427 98.9694 35.3566 98.9116C35.3669 98.8504 35.3946 98.796 35.4361 98.7484C35.4776 98.7008 35.526 98.6634 35.5813 98.6396C35.6401 98.6158 35.6988 98.6056 35.7576 98.6124C35.8164 98.6192 35.8717 98.6396 35.9166 98.677C35.9616 98.7144 35.9927 98.7586 36.0134 98.813C36.0307 98.8674 36.0342 98.9252 36.0238 98.9864C36.01 99.0476 35.9858 99.102 35.9443 99.1496C35.9028 99.1972 35.8544 99.2346 35.7991 99.2584C35.7403 99.2822 35.685 99.2924 35.6228 99.2856C35.564 99.2788 35.5121 99.2584 35.4672 99.221C35.4223 99.1836 35.3877 99.1394 35.3704 99.0816" fill="#282828"/>
<path d="M36.6254 98.4896C36.6254 98.4896 36.6462 98.4726 36.6565 98.4692C36.6704 98.4692 36.6807 98.4692 36.6946 98.4794L37.8458 99.326C37.8735 99.3464 37.877 99.3668 37.8562 99.394L37.7041 99.5946C37.6868 99.615 37.6661 99.6184 37.6419 99.6014L37.265 99.326C37.265 99.326 37.2374 99.3158 37.227 99.3328L36.2589 100.608C36.2382 100.635 36.2175 100.642 36.1933 100.625L35.9063 100.414C35.8856 100.4 35.8856 100.38 35.9063 100.356L36.8743 99.0846C36.8743 99.0846 36.8847 99.0676 36.8847 99.0608C36.8847 99.054 36.8813 99.0472 36.8709 99.0404L36.4837 98.7548C36.4595 98.7378 36.4526 98.7174 36.4698 98.6936L36.622 98.493L36.6254 98.4896Z" fill="#282828"/>
<path d="M39.3256 100.329C39.3256 100.329 39.3187 100.356 39.3014 100.367L37.7318 101.611C37.7007 101.635 37.6696 101.638 37.635 101.618L37.3757 101.448C37.3411 101.424 37.3307 101.397 37.3411 101.356L37.9116 99.4588L37.9185 99.4384C37.9185 99.4384 37.9358 99.4214 37.9461 99.418C37.9565 99.418 37.9703 99.418 37.9807 99.4248L38.2815 99.622C38.3022 99.6356 38.3092 99.6594 38.2988 99.69L37.8666 101.057C37.8666 101.057 37.8597 101.077 37.8666 101.081C37.8701 101.084 37.8805 101.081 37.8943 101.074L38.9972 100.152C39.0214 100.132 39.0456 100.129 39.0698 100.146L39.3049 100.299C39.3049 100.299 39.3256 100.319 39.3256 100.336" fill="#282828"/>
<path d="M39.7646 102.845C39.7646 102.845 39.7473 102.865 39.737 102.869C39.7266 102.872 39.7128 102.869 39.7024 102.869L39.3843 102.685C39.3601 102.671 39.3532 102.648 39.3636 102.614L39.5226 101.825C39.5226 101.825 39.5226 101.798 39.5191 101.788C39.5157 101.777 39.5019 101.767 39.4811 101.757L39.2771 101.638C39.2771 101.638 39.2599 101.631 39.2529 101.638C39.246 101.638 39.2391 101.645 39.2357 101.652L38.8484 102.297C38.8346 102.318 38.8242 102.328 38.8104 102.331C38.7966 102.335 38.7793 102.331 38.7585 102.318L38.4854 102.158C38.4854 102.158 38.4578 102.138 38.4578 102.124C38.4578 102.11 38.4578 102.1 38.4681 102.083L39.4535 100.441C39.4707 100.411 39.4915 100.404 39.5157 100.417L40.1899 100.808C40.3835 100.921 40.5079 101.05 40.5667 101.193C40.6255 101.335 40.6047 101.485 40.5148 101.638C40.4457 101.75 40.3593 101.832 40.2555 101.879C40.1518 101.927 40.0481 101.944 39.9409 101.927C39.9271 101.927 39.9167 101.934 39.9098 101.957L39.775 102.821C39.775 102.821 39.7681 102.841 39.7681 102.845M39.934 101.57C39.9997 101.556 40.055 101.512 40.1 101.441C40.1449 101.366 40.1587 101.295 40.138 101.23C40.1173 101.165 40.0723 101.111 39.9963 101.067L39.73 100.914C39.73 100.914 39.7024 100.9 39.692 100.904C39.6816 100.904 39.6747 100.914 39.6644 100.927L39.4362 101.305C39.4362 101.305 39.4223 101.329 39.4258 101.339C39.4258 101.349 39.4327 101.356 39.4431 101.363L39.7093 101.516C39.7923 101.563 39.8683 101.584 39.934 101.57Z" fill="#282828"/>
<path d="M40.0308 103.025C40.0308 103.025 40.0308 103.001 40.0378 102.988L40.9297 101.295C40.9297 101.295 40.947 101.268 40.9609 101.264C40.9747 101.261 40.985 101.264 40.9989 101.268L41.6004 101.574C41.8183 101.686 41.9635 101.808 42.0361 101.947C42.1087 102.087 42.1052 102.233 42.0222 102.386C41.9738 102.474 41.9116 102.539 41.8355 102.58C41.7595 102.617 41.6558 102.634 41.5244 102.627C41.5175 102.627 41.514 102.627 41.514 102.634C41.514 102.641 41.514 102.644 41.514 102.648C41.6074 102.75 41.6627 102.845 41.68 102.94C41.6972 103.032 41.68 103.134 41.6212 103.243C41.5348 103.406 41.4138 103.498 41.2582 103.522C41.1026 103.542 40.909 103.494 40.6808 103.379L40.0481 103.056C40.0481 103.056 40.0274 103.039 40.0239 103.029M40.826 103.09C40.9228 103.137 41.0058 103.154 41.0749 103.137C41.1475 103.12 41.2029 103.073 41.2409 103.001C41.2789 102.927 41.2858 102.859 41.2547 102.791C41.2271 102.723 41.1717 102.668 41.0888 102.627L40.8398 102.502C40.8398 102.502 40.8122 102.491 40.8018 102.491C40.7914 102.491 40.7845 102.505 40.7742 102.519L40.5702 102.903C40.5702 102.903 40.5563 102.933 40.5598 102.94C40.5598 102.95 40.5667 102.957 40.5771 102.964L40.8226 103.09H40.826ZM41.2478 102.332C41.3204 102.369 41.3896 102.379 41.4587 102.369C41.5278 102.355 41.5797 102.315 41.6177 102.243C41.6558 102.168 41.6627 102.1 41.6316 102.032C41.6039 101.964 41.5486 101.91 41.4656 101.869L41.2374 101.754C41.2374 101.754 41.2098 101.743 41.1994 101.747C41.189 101.75 41.1821 101.76 41.1717 101.774L40.9781 102.141C40.9781 102.141 40.9643 102.168 40.9678 102.179C40.9678 102.189 40.9747 102.196 40.9885 102.202L41.2478 102.335V102.332Z" fill="#282828"/>
<path d="M42.5236 102.036L43.6748 102.549C43.699 102.56 43.7025 102.58 43.6887 102.607L43.5849 102.828C43.5677 102.862 43.5434 102.872 43.5123 102.859L42.7828 102.532C42.7552 102.519 42.7344 102.526 42.7206 102.553L42.5547 102.91C42.5408 102.937 42.5478 102.957 42.5685 102.968L43.0525 103.185C43.0802 103.195 43.0836 103.216 43.0733 103.243L42.9626 103.481C42.9523 103.505 42.935 103.512 42.9108 103.498L42.4233 103.28C42.4025 103.27 42.3853 103.277 42.3783 103.294L42.1986 103.682C42.1986 103.682 42.1917 103.702 42.1917 103.709C42.1917 103.716 42.1986 103.722 42.2089 103.726L42.9903 104.076C43.0179 104.09 43.0249 104.107 43.0145 104.13L42.9073 104.365C42.8935 104.396 42.8727 104.402 42.8416 104.389L41.6903 103.875C41.6731 103.869 41.6627 103.858 41.6558 103.845C41.6523 103.835 41.6558 103.818 41.6627 103.801L42.4648 102.067C42.4786 102.036 42.4994 102.026 42.5236 102.036Z" fill="#282828"/>
<path d="M43.7923 102.655C43.7923 102.655 43.8062 102.631 43.82 102.628C43.8304 102.624 43.8442 102.624 43.858 102.628L45.196 103.148C45.2271 103.158 45.2375 103.182 45.2237 103.212L45.1303 103.447C45.1199 103.471 45.1026 103.481 45.075 103.467L44.6394 103.297C44.6394 103.297 44.6117 103.297 44.6048 103.311L44.0102 104.793C43.9963 104.824 43.979 104.838 43.9514 104.827L43.6195 104.698C43.5953 104.688 43.5918 104.671 43.6022 104.64L44.1934 103.161C44.1934 103.161 44.2003 103.141 44.1968 103.134C44.1968 103.127 44.1899 103.121 44.1796 103.117L43.7301 102.944C43.699 102.934 43.6921 102.913 43.7025 102.889L43.7958 102.655H43.7923Z" fill="#282828"/>
<path d="M46.89 103.729C46.89 103.729 46.89 103.756 46.8762 103.77L45.6972 105.378C45.673 105.412 45.6419 105.419 45.6039 105.409L45.3066 105.31C45.2685 105.297 45.2478 105.273 45.2478 105.232L45.2893 103.253V103.233C45.2893 103.233 45.3031 103.212 45.3135 103.206C45.3239 103.202 45.3342 103.199 45.3481 103.206L45.6903 103.318C45.7145 103.325 45.7284 103.345 45.7249 103.379L45.673 104.807C45.673 104.807 45.673 104.827 45.68 104.827C45.6869 104.827 45.6938 104.827 45.7042 104.814L46.5235 103.637C46.5408 103.61 46.565 103.603 46.5892 103.61L46.8589 103.699C46.8589 103.699 46.8831 103.712 46.8866 103.729" fill="#282828"/>
<path d="M47.9895 106.038C47.9895 106.038 47.9791 106.061 47.9687 106.068C47.9584 106.075 47.948 106.075 47.9342 106.075L47.5781 105.98C47.5504 105.973 47.5366 105.953 47.5366 105.919L47.4778 105.116C47.4778 105.116 47.4709 105.089 47.464 105.082C47.4571 105.075 47.4398 105.069 47.419 105.062L47.1874 105.001C47.1874 105.001 47.1701 105.001 47.1632 105.001C47.1563 105.004 47.1528 105.011 47.1494 105.018L46.9488 105.742C46.9419 105.766 46.9315 105.779 46.9212 105.786C46.9073 105.793 46.8901 105.793 46.8693 105.786L46.5616 105.704C46.5409 105.698 46.5305 105.691 46.5236 105.681C46.5201 105.67 46.5201 105.657 46.5236 105.64L47.0318 103.8C47.0422 103.766 47.0595 103.753 47.0837 103.763L47.8374 103.964C48.0552 104.021 48.2107 104.113 48.3041 104.239C48.3974 104.361 48.4216 104.511 48.3732 104.681C48.3387 104.81 48.2764 104.909 48.19 104.98C48.1036 105.052 48.0068 105.096 47.8996 105.106C47.8858 105.106 47.8788 105.12 47.8788 105.143L47.9826 106.01C47.9826 106.01 47.9826 106.031 47.9826 106.034M47.8132 104.766C47.8719 104.735 47.9134 104.681 47.9376 104.599C47.9618 104.514 47.9549 104.446 47.9169 104.389C47.8788 104.331 47.8201 104.29 47.7371 104.27L47.4398 104.191C47.4225 104.188 47.4087 104.188 47.4017 104.191C47.3948 104.195 47.3879 104.205 47.3845 104.222L47.2669 104.647C47.2669 104.647 47.2634 104.674 47.2669 104.684C47.2669 104.691 47.2773 104.698 47.2911 104.701L47.5884 104.78C47.6818 104.803 47.7578 104.803 47.8201 104.773" fill="#282828"/>
<path d="M48.5081 105.466C48.4666 105.426 48.4355 105.375 48.4217 105.313C48.4044 105.252 48.4044 105.194 48.4217 105.133C48.4355 105.072 48.4631 105.018 48.5046 104.97C48.5461 104.922 48.5945 104.892 48.6498 104.871C48.7086 104.851 48.7639 104.848 48.8192 104.861C48.8746 104.875 48.9264 104.902 48.9679 104.943C49.0094 104.984 49.0371 105.035 49.0543 105.096C49.0716 105.154 49.0716 105.215 49.0543 105.276C49.0405 105.337 49.0129 105.392 48.9714 105.439C48.9299 105.487 48.8815 105.517 48.8262 105.538C48.7708 105.558 48.7121 105.562 48.6568 105.548C48.598 105.534 48.5496 105.507 48.5081 105.466Z" fill="#282828"/>
<path d="M49.4277 104.82C49.5245 104.677 49.6455 104.579 49.7907 104.518C49.9325 104.46 50.0915 104.443 50.2609 104.477C50.4303 104.507 50.5686 104.575 50.6827 104.681C50.7934 104.786 50.8694 104.922 50.9109 105.089C50.9524 105.255 50.9524 105.442 50.9109 105.65C50.8418 106.007 50.6966 106.258 50.4649 106.398C50.458 106.398 50.4545 106.408 50.4545 106.418C50.4511 106.445 50.4718 106.483 50.5202 106.527C50.5686 106.575 50.6239 106.609 50.6827 106.629C50.7069 106.636 50.7138 106.649 50.7104 106.673L50.6689 106.898C50.6654 106.925 50.6551 106.942 50.6378 106.949C50.6239 106.955 50.5997 106.955 50.5652 106.949C50.3612 106.911 50.2056 106.775 50.095 106.541C50.0881 106.527 50.0777 106.52 50.0604 106.524C49.9913 106.524 49.9325 106.513 49.8772 106.503C49.7043 106.473 49.5626 106.405 49.4485 106.299C49.3378 106.194 49.2618 106.061 49.2203 105.898C49.1823 105.735 49.1823 105.548 49.2203 105.34C49.2583 105.133 49.3275 104.96 49.4277 104.817M49.6663 105.966C49.7078 106.085 49.7977 106.156 49.936 106.18C50.0708 106.204 50.178 106.17 50.2644 106.075C50.3474 105.98 50.4131 105.813 50.458 105.572C50.5029 105.33 50.5064 105.15 50.4615 105.024C50.42 104.902 50.3301 104.827 50.1952 104.8C50.0604 104.776 49.9498 104.813 49.8633 104.915C49.7804 105.017 49.7147 105.187 49.6663 105.429C49.6213 105.667 49.6213 105.844 49.6628 105.963" fill="#282828"/>
<path d="M52.7329 104.885C52.7329 104.885 52.7363 104.912 52.7294 104.929L51.8824 106.728C51.8651 106.765 51.8374 106.779 51.7994 106.775L51.4882 106.734C51.4467 106.728 51.426 106.707 51.4156 106.666L51.0734 104.718V104.694C51.0734 104.694 51.0768 104.671 51.0872 104.664C51.0976 104.657 51.1079 104.654 51.1218 104.657L51.4779 104.705C51.5055 104.708 51.5194 104.725 51.5228 104.756L51.751 106.17C51.751 106.17 51.751 106.19 51.7614 106.19C51.7683 106.19 51.7752 106.184 51.7821 106.17L52.3595 104.861C52.3733 104.83 52.3906 104.82 52.4182 104.824L52.6983 104.861C52.6983 104.861 52.7259 104.871 52.7329 104.885Z" fill="#282828"/>
<path d="M53.3103 104.909C53.3379 104.909 53.3483 104.929 53.3449 104.96L53.1685 106.85C53.1685 106.874 53.1616 106.891 53.1478 106.898C53.1374 106.908 53.1201 106.912 53.0959 106.908L52.7813 106.881C52.7606 106.881 52.7468 106.874 52.7398 106.864C52.7329 106.854 52.7295 106.84 52.7329 106.82L52.9092 104.923C52.9092 104.889 52.9265 104.872 52.9542 104.875L53.3103 104.906V104.909Z" fill="#282828"/>
<path d="M53.4209 106.901C53.4209 106.901 53.4209 106.878 53.4278 106.871L54.1469 105.025C54.1538 105.004 54.1642 104.991 54.1745 104.984C54.1849 104.977 54.1987 104.974 54.216 104.974L54.5929 104.991C54.6102 104.991 54.6274 104.997 54.6378 105.008C54.6516 105.018 54.6586 105.035 54.662 105.052L55.1841 106.959C55.1841 106.959 55.1875 106.98 55.1875 106.983C55.1875 106.997 55.1841 107.01 55.1772 107.017C55.1702 107.024 55.1633 107.031 55.1495 107.031L54.7796 107.014C54.7554 107.014 54.7381 107 54.7346 106.973L54.624 106.572C54.624 106.572 54.6171 106.551 54.6136 106.548C54.6102 106.544 54.6032 106.541 54.5929 106.541L53.9809 106.51C53.9809 106.51 53.9533 106.517 53.9464 106.538L53.7942 106.932C53.7839 106.956 53.7666 106.966 53.7389 106.966L53.452 106.952C53.4278 106.952 53.4139 106.935 53.4174 106.905M54.5134 106.177C54.5134 106.177 54.5376 106.17 54.541 106.157C54.541 106.147 54.541 106.136 54.541 106.133L54.3647 105.49C54.3647 105.49 54.3543 105.473 54.3474 105.473C54.3405 105.473 54.337 105.48 54.3301 105.49L54.0847 106.113C54.0847 106.113 54.0777 106.13 54.0777 106.136C54.0777 106.15 54.0847 106.16 54.1054 106.16L54.5168 106.181L54.5134 106.177Z" fill="#282828"/>
<path d="M55.5229 106.31C55.4711 106.276 55.433 106.235 55.4054 106.18C55.3777 106.126 55.3639 106.068 55.3639 106.004C55.3639 105.939 55.3812 105.881 55.4088 105.827C55.44 105.772 55.4814 105.732 55.5298 105.701C55.5817 105.67 55.637 105.657 55.6958 105.657C55.7546 105.657 55.8099 105.674 55.8583 105.708C55.9067 105.742 55.9482 105.783 55.9758 105.837C56.0035 105.891 56.0173 105.949 56.0173 106.014C56.0173 106.078 56 106.136 55.9689 106.191C55.9378 106.245 55.8998 106.286 55.8479 106.316C55.796 106.347 55.7442 106.361 55.6854 106.361C55.6266 106.361 55.5713 106.344 55.5229 106.31Z" fill="#282828"/>
<path d="M57.5869 106.068C57.4659 106.181 57.3034 106.238 57.0995 106.245L56.7226 106.255C56.7053 106.255 56.695 106.266 56.695 106.286L56.7157 106.963C56.7157 107.003 56.695 107.024 56.6535 107.027L56.3319 107.037C56.3112 107.037 56.2974 107.037 56.2905 107.024C56.2835 107.014 56.2766 107 56.2766 106.983L56.2213 105.079C56.2213 105.045 56.2317 105.028 56.2593 105.028L57.0096 105.008C57.1479 105.004 57.2723 105.025 57.383 105.065C57.4936 105.11 57.5835 105.178 57.6492 105.269C57.7149 105.361 57.7529 105.477 57.7563 105.613C57.7633 105.807 57.7045 105.96 57.5835 106.072M57.2205 105.409C57.1652 105.365 57.0891 105.341 56.9957 105.344L56.7192 105.351C56.7192 105.351 56.6915 105.354 56.6846 105.365C56.6777 105.375 56.6742 105.385 56.6742 105.402L56.688 105.864C56.688 105.881 56.6915 105.895 56.6984 105.902C56.7053 105.909 56.7122 105.915 56.7261 105.912L57.0338 105.902C57.1237 105.902 57.1928 105.871 57.2412 105.82C57.2931 105.769 57.3138 105.698 57.3138 105.609C57.3138 105.518 57.2827 105.45 57.2239 105.402" fill="#282828"/>
<path d="M57.7701 106.952C57.7701 106.952 57.7701 106.928 57.7701 106.918L58.2438 104.997C58.2507 104.977 58.2542 104.963 58.2645 104.953C58.2749 104.943 58.2853 104.939 58.306 104.936L58.6794 104.909C58.6967 104.909 58.714 104.909 58.7278 104.922C58.7416 104.932 58.752 104.946 58.7589 104.963L59.5264 106.789C59.5264 106.789 59.5333 106.806 59.5333 106.813C59.5333 106.826 59.5333 106.84 59.5264 106.85C59.5195 106.86 59.5126 106.864 59.5022 106.867L59.1358 106.894C59.1116 106.894 59.0943 106.884 59.0839 106.86L58.9214 106.476C58.9214 106.476 58.9145 106.459 58.9076 106.452C58.9041 106.449 58.8972 106.445 58.8868 106.445L58.2784 106.493C58.2784 106.493 58.2507 106.503 58.2472 106.524L58.147 106.935C58.1401 106.959 58.1228 106.972 58.0986 106.972L57.8116 106.996C57.7874 106.996 57.7736 106.983 57.7701 106.952ZM58.7589 106.095C58.7589 106.095 58.7831 106.085 58.7831 106.071C58.7831 106.061 58.7831 106.051 58.7797 106.048L58.5204 105.432C58.5204 105.432 58.5065 105.419 58.5031 105.419C58.4962 105.419 58.4927 105.425 58.4893 105.439L58.3268 106.085C58.3268 106.085 58.3233 106.105 58.3268 106.109C58.3268 106.122 58.3371 106.129 58.3544 106.129L58.7624 106.099L58.7589 106.095Z" fill="#282828"/>
<path d="M61.3069 106.578C61.3069 106.578 61.3069 106.605 61.3 106.616C61.2931 106.626 61.2827 106.633 61.2723 106.633L60.9059 106.68C60.8782 106.684 60.8575 106.67 60.8436 106.639L60.4702 105.922C60.4702 105.922 60.4564 105.898 60.4426 105.895C60.4322 105.891 60.4149 105.891 60.3942 105.895L60.1591 105.925C60.1591 105.925 60.1418 105.932 60.1383 105.939C60.1349 105.946 60.1314 105.953 60.1349 105.959L60.2386 106.704C60.2386 106.728 60.2386 106.745 60.2282 106.755C60.2179 106.765 60.204 106.775 60.1798 106.775L59.8652 106.816C59.8445 106.816 59.8306 106.816 59.8237 106.809C59.8168 106.803 59.8099 106.789 59.8064 106.772L59.5472 104.885C59.5437 104.851 59.5541 104.834 59.5817 104.827L60.3562 104.725C60.5809 104.695 60.7607 104.719 60.8955 104.797C61.0303 104.875 61.1098 105.004 61.134 105.178C61.1513 105.31 61.134 105.426 61.0822 105.524C61.0303 105.623 60.9577 105.701 60.8644 105.752C60.8505 105.759 60.8505 105.772 60.8609 105.793L61.3 106.551C61.3 106.551 61.3069 106.568 61.3069 106.575M60.6362 105.473C60.6811 105.422 60.695 105.354 60.6846 105.273C60.6708 105.188 60.6396 105.123 60.5809 105.086C60.5221 105.045 60.453 105.035 60.3665 105.045L60.0623 105.086C60.045 105.086 60.0312 105.093 60.0277 105.099C60.0243 105.106 60.0208 105.12 60.0208 105.133L60.0796 105.569C60.0796 105.569 60.0865 105.596 60.0934 105.602C60.1003 105.609 60.1072 105.613 60.1211 105.609L60.4253 105.569C60.5221 105.555 60.5912 105.524 60.6362 105.473Z" fill="#282828"/>
<path d="M61.6423 106.564C61.6423 106.564 61.625 106.541 61.6181 106.524L61.2378 104.664C61.2309 104.63 61.2412 104.609 61.2689 104.606L61.7771 104.504C61.7944 104.501 61.8082 104.501 61.8186 104.504C61.829 104.507 61.8359 104.518 61.8463 104.531L62.4444 105.572C62.4444 105.572 62.4582 105.592 62.4651 105.589C62.472 105.589 62.4755 105.578 62.479 105.565L62.6103 104.402C62.6103 104.358 62.6242 104.334 62.6518 104.331L63.1808 104.225C63.205 104.222 63.2223 104.232 63.2292 104.266L63.6095 106.126C63.6129 106.15 63.6095 106.167 63.606 106.177C63.5991 106.187 63.5853 106.197 63.5611 106.201L63.243 106.262C63.2223 106.265 63.2084 106.262 63.2015 106.258C63.1912 106.252 63.1842 106.238 63.1808 106.218L62.9111 104.895C62.9111 104.895 62.9042 104.878 62.9007 104.878C62.8973 104.878 62.8938 104.888 62.8904 104.902L62.7348 106.32C62.7348 106.35 62.7175 106.367 62.6933 106.371L62.4893 106.411C62.4617 106.418 62.4375 106.408 62.4271 106.381L61.7322 105.153C61.7322 105.153 61.7184 105.133 61.7149 105.136C61.708 105.136 61.708 105.147 61.7114 105.164L61.9776 106.469C61.9811 106.49 61.9811 106.503 61.9776 106.51C61.9742 106.517 61.9604 106.524 61.9431 106.527L61.6942 106.578C61.6942 106.578 61.663 106.578 61.6527 106.571" fill="#282828"/>
<path d="M63.886 106.075C63.886 106.075 63.8826 106.051 63.8826 106.041L63.9863 104.066C63.9863 104.045 63.9897 104.028 63.9967 104.018C64.0036 104.008 64.0139 104.001 64.0347 103.994L64.3977 103.899C64.415 103.896 64.4323 103.896 64.4496 103.899C64.4668 103.906 64.4772 103.919 64.4876 103.933L65.5835 105.585C65.5835 105.585 65.5939 105.602 65.5939 105.609C65.5974 105.623 65.5974 105.636 65.5939 105.647C65.5905 105.657 65.5835 105.664 65.5732 105.667L65.2171 105.762C65.1929 105.769 65.1756 105.762 65.1618 105.738L64.9301 105.392C64.9301 105.392 64.9198 105.375 64.9128 105.371C64.9094 105.368 64.899 105.368 64.8886 105.371L64.2974 105.528C64.2974 105.528 64.2732 105.545 64.2732 105.562L64.2525 105.983C64.249 106.01 64.2352 106.024 64.211 106.031L63.9344 106.106C63.9102 106.112 63.8929 106.102 63.886 106.072M64.695 105.052C64.695 105.052 64.7158 105.038 64.7123 105.024C64.7123 105.014 64.7054 105.007 64.7019 105.001L64.3286 104.443C64.3286 104.443 64.3147 104.429 64.3078 104.433C64.3009 104.433 64.3009 104.44 64.2974 104.457L64.2594 105.12C64.2594 105.12 64.2594 105.14 64.2594 105.143C64.2629 105.157 64.2732 105.16 64.2905 105.157L64.6881 105.052H64.695Z" fill="#282828"/>
<path d="M65.8913 105.565C65.8913 105.565 65.8705 105.544 65.8636 105.527L65.2379 103.732C65.2275 103.698 65.2344 103.678 65.2621 103.671L65.753 103.504C65.753 103.504 65.7841 103.498 65.7945 103.501C65.8048 103.501 65.8152 103.511 65.8256 103.525L66.5585 104.477C66.5585 104.477 66.5758 104.494 66.5827 104.49C66.5896 104.49 66.5931 104.48 66.5931 104.463L66.5654 103.294C66.562 103.253 66.5724 103.226 66.5966 103.215L67.1082 103.042C67.1324 103.035 67.1497 103.045 67.1601 103.076L67.7859 104.871C67.7928 104.895 67.7928 104.912 67.7859 104.922C67.779 104.936 67.7651 104.946 67.7444 104.953L67.4367 105.055C67.4194 105.062 67.4021 105.062 67.3952 105.055C67.3848 105.048 67.3779 105.038 67.371 105.017L66.925 103.739C66.925 103.739 66.9181 103.722 66.9112 103.722C66.9043 103.722 66.9043 103.732 66.9043 103.749L66.9388 105.174C66.9388 105.204 66.9285 105.221 66.9043 105.232L66.7072 105.3C66.6795 105.31 66.6553 105.3 66.6415 105.276L65.7876 104.147C65.7876 104.147 65.7703 104.13 65.7668 104.13C65.7599 104.13 65.7599 104.14 65.7668 104.157L66.2059 105.415C66.2128 105.436 66.2128 105.449 66.2093 105.456C66.2093 105.463 66.1955 105.47 66.1782 105.476L65.9362 105.558C65.9362 105.558 65.9051 105.561 65.8947 105.558" fill="#282828"/>
<path d="M67.938 104.1C67.8792 104.089 67.8239 104.062 67.7789 104.025C67.734 103.987 67.696 103.937 67.6718 103.879C67.6476 103.821 67.6406 103.76 67.6476 103.699C67.6545 103.637 67.6752 103.583 67.7098 103.535C67.7444 103.488 67.7893 103.454 67.8446 103.433C67.8999 103.413 67.9553 103.406 68.014 103.416C68.0728 103.427 68.1247 103.454 68.1731 103.495C68.2215 103.535 68.256 103.583 68.2802 103.641C68.3044 103.698 68.3114 103.76 68.3079 103.821C68.301 103.882 68.2802 103.936 68.2457 103.984C68.2111 104.032 68.1662 104.066 68.1143 104.086C68.059 104.106 68.0037 104.113 67.9449 104.103" fill="#282828"/>
<path d="M69.5387 102.032C69.5387 102.032 69.556 102.053 69.556 102.07L69.7911 104.038C69.798 104.076 69.7807 104.106 69.7427 104.12L69.4557 104.246C69.4177 104.263 69.3866 104.256 69.3589 104.225L68.0279 102.739L68.0141 102.722C68.0141 102.722 68.0071 102.699 68.0141 102.688C68.0175 102.678 68.0279 102.671 68.0383 102.665L68.3667 102.518C68.3909 102.508 68.4151 102.515 68.4324 102.539L69.3762 103.627C69.3762 103.627 69.3901 103.64 69.397 103.64C69.4039 103.64 69.4073 103.63 69.4039 103.613L69.1999 102.202C69.1965 102.172 69.2068 102.148 69.231 102.138L69.4903 102.025C69.4903 102.025 69.518 102.019 69.5318 102.025" fill="#282828"/>
<path d="M70.04 101.757C70.0642 101.747 70.0815 101.757 70.0988 101.784L70.9562 103.484C70.9665 103.505 70.97 103.522 70.9665 103.535C70.9631 103.549 70.9492 103.563 70.925 103.573L70.6415 103.709C70.6243 103.719 70.6104 103.719 70.5966 103.716C70.5862 103.712 70.5759 103.702 70.5655 103.682L69.7046 101.975C69.6908 101.944 69.6943 101.924 69.7185 101.91L70.04 101.754V101.757Z" fill="#282828"/>
<path d="M72.6053 102.638C72.6053 102.638 72.6157 102.661 72.6122 102.675C72.6122 102.689 72.6019 102.695 72.5915 102.702L72.27 102.876C72.2458 102.889 72.2216 102.882 72.1974 102.859L71.5889 102.318C71.5889 102.318 71.5647 102.301 71.5543 102.301C71.5439 102.301 71.5267 102.308 71.5094 102.318L71.3019 102.43C71.3019 102.43 71.2881 102.44 71.2881 102.447C71.2881 102.454 71.2881 102.464 71.2881 102.468L71.6546 103.127C71.6649 103.148 71.6684 103.165 71.6649 103.178C71.6615 103.192 71.6477 103.205 71.6269 103.216L71.3469 103.365C71.3296 103.375 71.3158 103.379 71.3054 103.372C71.295 103.369 71.2846 103.358 71.2743 103.341L70.3477 101.669C70.3304 101.638 70.3339 101.618 70.3581 101.604L71.0461 101.237C71.2432 101.131 71.4195 101.091 71.5751 101.114C71.7306 101.142 71.8516 101.23 71.9381 101.386C72.0038 101.502 72.028 101.618 72.0176 101.73C72.0072 101.842 71.9657 101.937 71.8966 102.019C71.8862 102.029 71.8897 102.043 71.907 102.06L72.5915 102.614C72.5915 102.614 72.6053 102.627 72.6088 102.634M71.582 101.839C71.6062 101.777 71.5958 101.706 71.5543 101.631C71.5128 101.556 71.4575 101.509 71.3884 101.492C71.3227 101.475 71.2501 101.488 71.174 101.529L70.9043 101.675C70.9043 101.675 70.8801 101.692 70.8767 101.703C70.8767 101.713 70.8767 101.723 70.8836 101.737L71.0979 102.121C71.0979 102.121 71.1152 102.145 71.1222 102.148C71.1291 102.151 71.1394 102.148 71.1498 102.145L71.4195 101.998C71.5059 101.954 71.5578 101.9 71.582 101.835" fill="#282828"/>
<path d="M73.1274 102.27C72.9753 102.264 72.8266 102.213 72.6883 102.117C72.5466 102.022 72.4221 101.886 72.3115 101.713C72.1974 101.536 72.1317 101.359 72.1075 101.189C72.0833 101.019 72.1075 100.863 72.1697 100.723C72.2354 100.584 72.3391 100.468 72.4844 100.38C72.595 100.312 72.7091 100.275 72.8301 100.264C72.9511 100.254 73.0617 100.268 73.1689 100.309C73.2726 100.349 73.359 100.407 73.4282 100.482C73.4351 100.489 73.4455 100.499 73.4524 100.513C73.4628 100.53 73.4593 100.543 73.442 100.557L73.1896 100.774C73.1896 100.774 73.1689 100.785 73.162 100.781C73.1551 100.781 73.1447 100.771 73.1343 100.757C73.0686 100.686 72.996 100.642 72.9096 100.621C72.8232 100.601 72.7402 100.618 72.6572 100.669C72.5466 100.737 72.4947 100.832 72.4982 100.961C72.4982 101.091 72.5673 101.257 72.6952 101.461C72.8301 101.675 72.958 101.811 73.0755 101.866C73.1931 101.924 73.3106 101.917 73.4213 101.849C73.5077 101.798 73.5596 101.73 73.5769 101.648C73.5976 101.567 73.5907 101.485 73.5596 101.4L73.5215 101.332C73.5215 101.332 73.5215 101.322 73.5146 101.318C73.5042 101.305 73.4939 101.301 73.4766 101.312L73.2173 101.468C73.2173 101.468 73.1966 101.478 73.1862 101.475C73.1758 101.475 73.1689 101.465 73.1585 101.451L73.0479 101.278C73.0341 101.257 73.0375 101.237 73.0617 101.223L73.6322 100.88C73.6529 100.866 73.6702 100.863 73.6875 100.866C73.7048 100.87 73.7186 100.88 73.729 100.897L74.2199 101.672C74.2199 101.672 74.2303 101.692 74.2268 101.703C74.2268 101.713 74.2199 101.72 74.2095 101.726L74.1404 101.767C74.1162 101.781 74.0885 101.781 74.0609 101.767L73.8949 101.638C73.8949 101.638 73.8776 101.638 73.8742 101.652C73.8673 101.747 73.8396 101.839 73.7981 101.92C73.7566 102.002 73.6771 102.08 73.5665 102.148C73.4213 102.236 73.2761 102.277 73.1205 102.27" fill="#282828"/>
<path d="M74.7349 101.261C74.5794 101.267 74.4307 101.227 74.2855 101.138C74.1403 101.053 74.002 100.921 73.881 100.751C73.7565 100.577 73.677 100.404 73.6424 100.237C73.6079 100.071 73.6182 99.9142 73.677 99.7714C73.7323 99.6286 73.8326 99.5096 73.9743 99.411C74.1161 99.3124 74.2613 99.2614 74.4169 99.258C74.5724 99.2546 74.7246 99.2954 74.8732 99.3838C75.0219 99.4722 75.1567 99.6014 75.2812 99.7748C75.4056 99.9482 75.4817 100.115 75.5163 100.281C75.5509 100.448 75.537 100.601 75.4817 100.74C75.4264 100.88 75.3261 101.002 75.1844 101.097C75.0392 101.196 74.8905 101.25 74.7384 101.254M75.1394 100.523C75.1256 100.4 75.0495 100.237 74.9078 100.04C74.7626 99.836 74.6312 99.7068 74.5102 99.6524C74.3892 99.5946 74.2751 99.6048 74.1645 99.683C74.0504 99.7612 74.002 99.8666 74.0158 99.9958C74.0296 100.125 74.1092 100.292 74.2544 100.496C74.3961 100.693 74.524 100.819 74.6416 100.873C74.7557 100.924 74.8732 100.914 74.9873 100.832C75.1014 100.754 75.1533 100.652 75.1394 100.53" fill="#282828"/>
<path d="M75.7134 99.7989C75.6546 99.8057 75.5958 99.7955 75.537 99.7683C75.4817 99.7411 75.4333 99.7037 75.3918 99.6561C75.3504 99.6085 75.3296 99.5507 75.3192 99.4895C75.3089 99.4283 75.3123 99.3705 75.3365 99.3161C75.3573 99.2617 75.3918 99.2141 75.4368 99.1801C75.4817 99.1461 75.537 99.1257 75.5958 99.1189C75.6546 99.1121 75.7134 99.1257 75.7687 99.1495C75.824 99.1767 75.8724 99.2141 75.9139 99.2617C75.9519 99.3127 75.9761 99.3671 75.9865 99.4283C75.9969 99.4895 75.9934 99.5473 75.9727 99.6017C75.9519 99.6561 75.9208 99.7003 75.8724 99.7377C75.8275 99.7717 75.7721 99.7921 75.7134 99.7989Z" fill="#282828"/>
<path d="M75.4196 98.4557C75.4196 98.4557 75.4058 98.4319 75.4058 98.4183C75.4058 98.4047 75.4127 98.3945 75.4265 98.3843L76.5328 97.4799C76.557 97.4595 76.5812 97.4595 76.602 97.4867L76.7645 97.6805C76.7818 97.7009 76.7783 97.7213 76.7576 97.7417L76.398 98.0375C76.398 98.0375 76.3807 98.0613 76.3945 98.0749L77.4283 99.2988C77.449 99.326 77.4525 99.3464 77.4283 99.3668L77.1517 99.5912C77.1309 99.6082 77.1137 99.6014 77.0929 99.5776L76.0592 98.3537C76.0592 98.3537 76.0454 98.3401 76.0384 98.3367C76.0315 98.3367 76.0246 98.3367 76.0177 98.3435L75.6443 98.6461C75.6201 98.6665 75.5994 98.6665 75.5821 98.6461L75.4196 98.4523V98.4557Z" fill="#282828"/>
<path d="M77.8673 96.3071C77.8673 96.3071 77.8915 96.3207 77.8984 96.3377L78.7627 98.1295C78.78 98.1669 78.7731 98.1975 78.7455 98.2247L78.5138 98.4321C78.4827 98.4593 78.4516 98.4627 78.417 98.4457L76.6745 97.4563L76.6573 97.4427C76.6573 97.4427 76.6434 97.4223 76.6434 97.4121C76.6434 97.4019 76.6503 97.3917 76.6573 97.3815L76.9235 97.1401C76.9442 97.1231 76.965 97.1231 76.9926 97.1401L78.2407 97.8745C78.2407 97.8745 78.258 97.8847 78.2649 97.8813C78.2684 97.8779 78.2684 97.8677 78.2649 97.8541L77.6115 96.5825C77.5976 96.5553 77.5976 96.5315 77.6184 96.5111L77.8258 96.3207C77.8258 96.3207 77.85 96.3071 77.8639 96.3105" fill="#282828"/>
<path d="M77.9987 96.144L78.8803 95.2532C78.8976 95.2362 78.9183 95.2362 78.9391 95.26L79.1154 95.4334C79.143 95.4606 79.143 95.4844 79.1188 95.5116L78.5622 96.076C78.5415 96.0998 78.538 96.1202 78.5622 96.1406L78.8492 96.416C78.8734 96.4364 78.8907 96.4398 78.9079 96.4228L79.2779 96.0488C79.2986 96.0284 79.3194 96.0284 79.3401 96.0488L79.5303 96.229C79.5475 96.246 79.5475 96.2664 79.5303 96.2834L79.1569 96.6608C79.1569 96.6608 79.1396 96.6948 79.1569 96.7084L79.468 97.0042C79.468 97.0042 79.4853 97.0178 79.4922 97.0178C79.4991 97.0178 79.5061 97.0178 79.513 97.0076L80.1111 96.4024C80.1318 96.382 80.1526 96.3786 80.1733 96.4024L80.36 96.5826C80.3842 96.6064 80.3842 96.6268 80.36 96.6506L79.4784 97.5414C79.4784 97.5414 79.4507 97.5618 79.4404 97.5618C79.4265 97.5618 79.4162 97.555 79.3989 97.5414L78.0125 96.212C77.9883 96.1882 77.9849 96.1678 78.0021 96.1474" fill="#282828"/>
<path d="M79.022 95.1816C79.022 95.1816 79.0048 95.1612 79.0048 95.1476C79.0048 95.134 79.0082 95.1238 79.0186 95.1102L79.9693 94.0494C79.9901 94.0256 80.0143 94.0222 80.0385 94.046L80.2321 94.2126C80.2528 94.2296 80.2528 94.25 80.2321 94.2738L79.9209 94.6206C79.9209 94.6206 79.9106 94.6478 79.9209 94.658L81.1344 95.712C81.1621 95.7358 81.1656 95.7562 81.1448 95.7766L80.9097 96.0418C80.8924 96.0588 80.8717 96.0588 80.8509 96.0418L79.6374 94.9912C79.6374 94.9912 79.6202 94.9776 79.6132 94.9776C79.6063 94.9776 79.5994 94.9776 79.5925 94.9878L79.2744 95.3448C79.2537 95.3686 79.2329 95.372 79.2122 95.3516L79.0186 95.185L79.022 95.1816Z" fill="#282828"/>
<path d="M81.1033 92.6792C81.1033 92.6792 81.131 92.6894 81.1379 92.7064L82.2753 94.3452C82.2995 94.3792 82.2961 94.4098 82.2753 94.4404L82.0817 94.6818C82.0575 94.7124 82.0264 94.7226 81.9849 94.709L80.1076 93.9984L80.0869 93.9882C80.0869 93.9882 80.0696 93.9712 80.0696 93.9576C80.0696 93.9474 80.0696 93.9338 80.08 93.9236L80.3047 93.6448C80.322 93.6244 80.3427 93.621 80.3738 93.6312L81.7222 94.165C81.7222 94.165 81.7394 94.1718 81.7464 94.165C81.7498 94.1582 81.7464 94.1514 81.7394 94.1378L80.8959 92.9818C80.8751 92.958 80.8751 92.9342 80.8959 92.9104L81.0722 92.6928C81.0722 92.6928 81.0964 92.6758 81.1102 92.6758" fill="#282828"/>
<path d="M83.6894 92.4513C83.6894 92.4513 83.7066 92.4683 83.7101 92.4819C83.7101 92.4955 83.7101 92.5057 83.7032 92.5125L83.4923 92.8083C83.475 92.8321 83.4508 92.8355 83.4197 92.8253L82.6314 92.6043C82.6314 92.6043 82.6038 92.6009 82.5934 92.6043C82.583 92.6077 82.5727 92.6213 82.5588 92.6383L82.4205 92.8287C82.4205 92.8287 82.4136 92.8457 82.4136 92.8525C82.4136 92.8593 82.4205 92.8661 82.4274 92.8695L83.0532 93.3013C83.074 93.3149 83.0843 93.3285 83.0843 93.3421C83.0843 93.3557 83.0809 93.3727 83.067 93.3931L82.8838 93.6481C82.8838 93.6481 82.8596 93.6719 82.8492 93.6719C82.8389 93.6719 82.825 93.6685 82.8077 93.6583L81.2243 92.5601C81.1967 92.5397 81.1897 92.5193 81.2036 92.4989L81.653 91.8699C81.7844 91.6897 81.9227 91.5775 82.0748 91.5333C82.2269 91.4891 82.3756 91.5198 82.5208 91.6218C82.6314 91.6965 82.704 91.7883 82.7455 91.8937C82.787 91.9991 82.7939 92.1045 82.7663 92.2031C82.7663 92.2167 82.7732 92.2269 82.7939 92.2337L83.6582 92.4343C83.6582 92.4343 83.6755 92.4411 83.6824 92.4445M82.4102 92.1793C82.4032 92.1147 82.3618 92.0569 82.2926 92.0059C82.22 91.9549 82.1509 91.9379 82.0817 91.9515C82.0126 91.9651 81.9538 92.0093 81.9054 92.0773L81.7291 92.3255C81.7291 92.3255 81.7152 92.3527 81.7152 92.3595C81.7152 92.3697 81.7222 92.3765 81.736 92.3867L82.1025 92.6383C82.1025 92.6383 82.1267 92.6519 82.137 92.6519C82.1474 92.6519 82.1543 92.6451 82.1612 92.6349L82.3376 92.3867C82.3929 92.3085 82.4171 92.2371 82.4102 92.1725" fill="#282828"/>
<path d="M69.2759 61.9031V81.701C69.2759 88.1507 65.746 94.1618 60.0657 97.3884L56 99.697L51.9377 97.3884C46.2573 94.1618 42.7275 88.1541 42.7275 81.701V61.9031H69.2759ZM69.9674 61.2231H42.036V81.701C42.036 88.3921 45.6973 94.631 51.5919 97.9766L56 100.479L60.4114 97.9766C66.3061 94.631 69.9674 88.3955 69.9674 81.701V61.2231Z" fill="#282828"/>
<path d="M68.4946 62.498H43.5054C43.4086 62.498 43.3325 62.5728 43.3325 62.668V81.6975C43.3325 87.9365 46.7449 93.7504 52.2385 96.8681L55.9136 98.9557C55.9412 98.9693 55.9689 98.9795 56 98.9795C56.0311 98.9795 56.0588 98.9727 56.0864 98.9557L59.7615 96.8681C65.2551 93.7504 68.6675 87.9365 68.6675 81.6975V62.668C68.6675 62.5728 68.5914 62.498 68.4946 62.498ZM68.3217 72.7897C68.3217 73.4935 67.7409 74.0647 67.0252 74.0647H59.8514V64.113C59.8514 63.4092 60.4322 62.838 61.1479 62.838H68.3252V72.7863L68.3217 72.7897ZM43.6782 62.838H50.8556C51.5712 62.838 52.152 63.4092 52.152 64.113V74.0647H44.9782C44.9782 74.0647 44.9782 74.0647 44.9747 74.0647C44.2591 74.0647 43.6782 73.4935 43.6782 72.7897V62.8414V62.838ZM43.7197 82.8943C43.7267 82.1871 44.2764 81.6329 44.9747 81.6329C44.9747 81.6329 44.9747 81.6329 44.9782 81.6329H52.152V95.2803C52.152 95.6271 52.0103 95.9501 51.7648 96.1881C47.101 93.2642 44.1104 88.307 43.7232 82.8943M60.2386 96.1881C59.9897 95.9501 59.8514 95.6237 59.8514 95.2803V81.6329H67.0252C67.7236 81.6329 68.2733 82.1871 68.2802 82.8943C67.893 88.3036 64.9025 93.2642 60.2386 96.1881Z" fill="#282828"/>
<path d="M90.1994 77.9369C91.5236 76.6347 92.2634 74.9279 92.132 73.4796C92.1251 73.398 92.0698 73.3266 91.9903 73.2994C91.9868 73.2994 91.9799 73.2994 91.973 73.2994C91.9626 73.296 91.9488 73.2926 91.935 73.2892C91.935 73.2892 91.9315 73.2892 91.928 73.2892C91.1605 73.2212 90.3204 73.3912 89.5045 73.7516C89.6877 73.3708 89.8399 72.9696 89.9539 72.5514C90.438 70.7732 90.2098 68.9304 89.3593 67.7404C89.3109 67.6724 89.2279 67.6385 89.1449 67.6521C89.1311 67.6521 89.1207 67.6588 89.1104 67.6622C89.1035 67.6622 89.1 67.6622 89.0931 67.669C89.0931 67.669 89.0931 67.669 89.0896 67.669C87.8035 68.2572 86.711 69.6512 86.1993 71.3308C86.0472 70.2972 85.8363 69.2738 85.5736 68.2606C85.5805 68.264 85.5874 68.2708 85.5943 68.2742C85.7395 68.3592 85.902 68.4 86.068 68.4C86.1509 68.4 86.2339 68.3898 86.3169 68.366C86.8217 68.2334 87.1259 67.72 86.9911 67.2203C86.9254 66.9789 86.7698 66.7783 86.5485 66.6525C86.3273 66.5267 86.0714 66.4927 85.826 66.5573C85.5805 66.6219 85.3765 66.7783 85.2486 66.9925C85.2417 67.0061 85.2348 67.0231 85.2279 67.0367C85.2106 66.9823 85.1933 66.9245 85.176 66.8701C86.1959 65.9997 86.832 64.4323 86.832 62.7561C86.832 61.08 86.1821 59.465 85.1311 58.6048C85.0654 58.5504 84.9755 58.5402 84.8994 58.5742C84.8856 58.581 84.8752 58.5878 84.8648 58.598C84.8648 58.598 84.8579 58.598 84.8545 58.6048C84.8545 58.6048 84.8545 58.6048 84.851 58.6082C84.3151 59.0502 83.883 59.6826 83.5926 60.4238C83.4612 60.0736 83.3021 59.7302 83.1051 59.397C82.2408 57.9248 80.8682 56.8674 79.5233 56.6362C79.4404 56.6226 79.3574 56.6566 79.309 56.7246C79.3055 56.7314 79.3021 56.7382 79.2986 56.7416C79.2917 56.7484 79.2882 56.7586 79.2813 56.7722C79.2813 56.7722 79.2813 56.7722 79.2813 56.7756C78.8146 58.037 79.0601 59.7336 79.9209 61.2023C80.0143 61.3587 80.1111 61.5083 80.2148 61.6579C78.7697 61.1751 77.2899 61.1208 76.111 61.5457C76.0315 61.5729 75.9762 61.6443 75.9693 61.7259C75.9693 61.7395 75.9693 61.7531 75.9693 61.7667C75.9693 61.7701 75.9693 61.7735 75.9693 61.7803C75.9693 61.7803 75.9693 61.7803 75.9693 61.7837C76.2631 63.4259 77.6011 65.1021 79.4611 66.1595C80.6988 66.8633 82.061 67.2305 83.3056 67.2305C83.7205 67.2305 84.1215 67.1863 84.5018 67.1013C84.5295 67.2101 84.5571 67.3155 84.5848 67.4243C84.5571 67.4073 84.5364 67.3869 84.5053 67.3699C84.284 67.2441 84.0282 67.2135 83.7827 67.2781C83.5372 67.3427 83.3333 67.4991 83.2053 67.7132C83.0774 67.9308 83.0463 68.1824 83.112 68.4238C83.1777 68.6652 83.3333 68.8658 83.5545 68.9916C83.6997 69.0732 83.8622 69.1174 84.0282 69.1174C84.1112 69.1174 84.1941 69.1072 84.2771 69.0834C84.5226 69.0188 84.7265 68.8658 84.8545 68.6482C84.9997 69.3826 85.1172 70.1204 85.2036 70.8582C84.5571 69.9946 83.7723 69.3214 82.9184 68.9304C82.8423 68.8964 82.7524 68.9066 82.6867 68.961C82.6833 68.961 82.6798 68.9678 82.6764 68.9712C82.666 68.978 82.6591 68.9882 82.6487 69.0018C82.6487 69.0018 82.6487 69.0018 82.6487 69.0052C81.5942 70.4842 81.3142 72.7758 81.9158 74.9891C82.4344 76.8965 83.5545 78.5319 84.9202 79.4329C84.9132 79.4771 84.9029 79.5247 84.896 79.5689C84.7577 79.3819 84.5537 79.2391 84.3082 79.1745C83.7378 79.0249 83.1466 79.3581 82.9944 79.9191C82.9218 80.1911 82.9564 80.4767 83.1016 80.7214C83.2434 80.9662 83.475 81.1396 83.755 81.2144C83.8484 81.2382 83.9417 81.2518 84.0316 81.2518C84.2183 81.2518 84.3981 81.2008 84.5571 81.1158C84.3393 81.9862 84.08 82.8498 83.7793 83.6998C83.6202 82.2412 83.1085 80.9254 82.2995 79.9803C82.2442 79.9191 82.1578 79.8919 82.0783 79.9123C82.0748 79.9123 82.0679 79.9157 82.0644 79.9191C82.0541 79.9191 82.0402 79.9259 82.0264 79.9327C82.0264 79.9327 82.0264 79.9327 82.023 79.9327C80.2839 80.9186 78.9321 83.0572 78.4896 85.5222C78.0851 87.7729 78.4965 90.0237 79.551 91.5469C74.1888 98.5882 65.6389 103.144 56.0035 103.144C46.368 103.144 37.8182 98.5882 32.456 91.5469C33.5139 90.0237 33.9218 87.7729 33.5173 85.5222C33.0748 83.0572 31.723 80.9186 29.984 79.9327C29.984 79.9327 29.984 79.9327 29.9806 79.9327C29.9667 79.9259 29.9564 79.9191 29.9425 79.9191C29.9391 79.9191 29.9321 79.9157 29.9287 79.9123C29.8492 79.8919 29.7627 79.9191 29.7074 79.9803C28.8984 80.922 28.3902 82.2412 28.2277 83.6998C27.9304 82.8498 27.6676 81.9896 27.4498 81.1158C27.6089 81.2042 27.7886 81.2518 27.9753 81.2518C28.0687 81.2518 28.1586 81.2416 28.2519 81.2144C28.5285 81.143 28.7601 80.9662 28.9053 80.7214C29.0471 80.4767 29.0851 80.1911 29.0125 79.9191C28.8604 79.3581 28.2692 79.0215 27.6987 79.1745C27.4533 79.2391 27.2528 79.3819 27.111 79.5689C27.1006 79.5247 27.0937 79.4771 27.0868 79.4329C28.4524 78.5285 29.5726 76.8965 30.0912 74.9891C30.6928 72.7758 30.4127 70.4842 29.3582 69.0052C29.3582 69.0052 29.3582 69.0018 29.3582 68.9984C29.3479 68.9848 29.341 68.9746 29.3306 68.9678C29.3271 68.9678 29.3237 68.961 29.3202 68.9576C29.2545 68.9032 29.1646 68.893 29.092 68.927C28.2381 69.3146 27.4533 69.9912 26.8068 70.8548C26.8932 70.117 27.0108 69.3792 27.156 68.6448C27.2839 68.8624 27.4879 69.0154 27.7333 69.08C27.8163 69.1004 27.8993 69.114 27.9822 69.114C28.1482 69.114 28.3107 69.0732 28.4559 68.9882C28.6772 68.8624 28.8327 68.6618 28.8984 68.4204C28.9641 68.179 28.9295 67.9274 28.8051 67.7098C28.6772 67.4923 28.4732 67.3393 28.2277 67.2747C27.9822 67.2101 27.7264 67.2441 27.5051 67.3665C27.4775 67.3835 27.4533 67.4039 27.4291 67.4209C27.4567 67.3121 27.4844 67.2067 27.5121 67.0979C27.8924 67.1829 28.2934 67.2271 28.7083 67.2271C29.9529 67.2271 31.3151 66.8599 32.5528 66.1561C34.4128 65.0987 35.7507 63.4225 36.0446 61.7803C36.0446 61.7803 36.0446 61.7803 36.0446 61.7769C36.0446 61.7701 36.0446 61.7667 36.0446 61.7633C36.0446 61.7497 36.0481 61.7361 36.0446 61.7225C36.0377 61.6409 35.9824 61.5695 35.9029 61.5423C34.7239 61.1174 33.2442 61.1718 31.7991 61.6545C31.9028 61.5083 31.9996 61.3553 32.0929 61.1989C32.9573 59.7302 33.1993 58.0336 32.7325 56.7722C32.7325 56.7722 32.7325 56.7688 32.7325 56.7654C32.7291 56.7518 32.7222 56.7416 32.7153 56.7348C32.7118 56.728 32.7083 56.7212 32.7049 56.7178C32.6565 56.6498 32.5735 56.6158 32.4905 56.6294C31.1457 56.8606 29.7697 57.918 28.9088 59.3902C28.7117 59.7234 28.5527 60.0702 28.4213 60.417C28.1275 59.6758 27.6953 59.0434 27.1629 58.6014C27.1629 58.6014 27.1629 58.6014 27.1594 58.598C27.156 58.598 27.1525 58.5946 27.149 58.5912C27.1387 58.5844 27.1248 58.5742 27.1145 58.5674C27.0384 58.5334 26.9485 58.5436 26.8828 58.598C25.8353 59.4582 25.1819 61.0494 25.1819 62.7493C25.1819 64.4493 25.8145 65.9929 26.8379 66.8633C26.8206 66.9177 26.8033 66.9755 26.786 67.0299C26.7791 67.0163 26.7722 66.9993 26.7653 66.9857C26.6374 66.7681 26.4334 66.6151 26.1879 66.5505C25.9425 66.4859 25.6866 66.5199 25.4653 66.6457C25.2441 66.7715 25.0885 66.9721 25.0228 67.2135C24.888 67.7098 25.1888 68.2266 25.6935 68.3592C25.7765 68.3796 25.8595 68.3932 25.9425 68.3932C26.1084 68.3932 26.2709 68.3524 26.4161 68.2674C26.423 68.264 26.4299 68.2572 26.4368 68.2538C26.1706 69.267 25.9632 70.2938 25.8111 71.324C25.2994 69.6444 24.2069 68.2504 22.9208 67.6622H22.9173C22.9104 67.6622 22.907 67.6588 22.9 67.6554C22.8897 67.652 22.8758 67.6452 22.8655 67.6452C22.7825 67.6316 22.6995 67.6656 22.6511 67.7336C21.8006 68.9236 21.5725 70.7664 22.0565 72.5446C22.1706 72.9662 22.3261 73.3674 22.5059 73.7448C21.69 73.3844 20.8499 73.2178 20.0824 73.2824C20.0824 73.2824 20.0789 73.2824 20.0755 73.2824C20.0616 73.2824 20.0478 73.2858 20.0374 73.2926C20.0305 73.2926 20.027 73.2926 20.0201 73.2926C19.9406 73.3198 19.8853 73.3912 19.8784 73.4728C19.747 74.9211 20.4869 76.6313 21.811 77.9301C22.9865 79.0861 24.4869 79.7865 25.8422 79.8409C25.8526 79.9055 25.8629 79.9701 25.8733 80.0313C25.7004 79.9123 25.4895 79.8443 25.2648 79.8443C24.6736 79.8443 24.1931 80.3169 24.1931 80.9016C24.1931 81.4864 24.6736 81.959 25.2648 81.959C25.6348 81.959 25.9632 81.772 26.1568 81.4898C26.2605 81.9522 26.3746 82.4146 26.5025 82.877C25.3962 82.0304 24.1378 81.534 22.9796 81.534H22.9692C22.9692 81.534 22.9415 81.534 22.9312 81.5408C22.9242 81.5408 22.9208 81.5408 22.9139 81.5408C22.8344 81.5612 22.7721 81.6292 22.7583 81.7074C22.4748 83.268 23.1144 85.1958 24.4282 86.736C24.7497 87.1133 25.1058 87.4533 25.4792 87.7559C24.4835 87.7627 23.5535 87.9769 22.8136 88.3985C22.8136 88.3985 22.8136 88.3985 22.8102 88.4019C22.8032 88.4053 22.7963 88.4121 22.7894 88.4155C22.7825 88.4223 22.7721 88.4257 22.7652 88.4325C22.7064 88.4903 22.6857 88.5787 22.7134 88.6535C23.1663 89.8809 24.283 91.0131 25.735 91.7611C25.7177 91.9107 25.7454 92.0671 25.8318 92.2065C31.6642 101.655 41.9531 108.142 53.8288 108.856L51.1667 110.369H54.0985L56.0104 109.281L57.9223 110.369H60.854L58.1919 108.856C70.0677 108.142 80.3565 101.655 86.189 92.2065C86.2754 92.0671 86.3031 91.9107 86.2858 91.7611C87.7378 91.0131 88.858 89.8809 89.3074 88.6535C89.3351 88.5753 89.3144 88.4903 89.2556 88.4325C89.2487 88.4257 89.2383 88.4189 89.2314 88.4155C89.2245 88.4087 89.221 88.4053 89.2106 88.4019C89.2106 88.4019 89.2106 88.4019 89.2072 88.4019C88.4639 87.9803 87.5339 87.7661 86.5416 87.7593C86.915 87.4567 87.2711 87.1201 87.5926 86.7394C88.9064 85.1992 89.546 83.2748 89.2625 81.7108C89.2487 81.6292 89.1864 81.5646 89.1069 81.5442C89.1 81.5442 89.0965 81.5442 89.0896 81.5442C89.0793 81.5408 89.0654 81.5374 89.0516 81.5374H89.0447C87.8865 81.5374 86.628 82.0304 85.5217 82.8804C85.6496 82.4214 85.7637 81.959 85.8674 81.4932C86.0611 81.7754 86.3895 81.9624 86.7594 81.9624C87.3506 81.9624 87.8346 81.4898 87.8346 80.905C87.8346 80.3203 87.3541 79.8477 86.7594 79.8477C86.5347 79.8477 86.3238 79.9191 86.1509 80.0347C86.1613 79.9701 86.1717 79.9055 86.1821 79.8443C87.5373 79.7933 89.0378 79.0895 90.2132 77.9335M85.2036 59.2746C85.2728 59.3494 85.335 59.431 85.3973 59.5126H85.2036V59.2746ZM85.2036 59.8526H85.6289C85.743 60.043 85.8467 60.2436 85.94 60.4578H85.2036V59.8526ZM85.2036 60.7978H86.0714C86.1406 60.9916 86.1959 61.1955 86.2408 61.4029H85.2002V60.7978H85.2036ZM85.2036 61.7429H86.31C86.3446 61.9401 86.3653 62.1441 86.3791 62.3481H85.2036V61.7429ZM85.2036 62.6881H86.393C86.393 62.7119 86.393 62.7357 86.393 62.7595C86.393 62.9397 86.386 63.1165 86.3688 63.2933H85.2002V62.6881H85.2036ZM85.2036 63.6333H86.3307C86.2996 63.8407 86.2616 64.0413 86.2132 64.2385H85.2002V63.6333H85.2036ZM85.2036 64.5785H86.1164C86.0507 64.7893 85.9712 64.9899 85.8847 65.1837H85.2036V64.5785ZM85.2036 65.5237H85.7153C85.5667 65.7889 85.3973 66.0337 85.2036 66.2445V65.5237ZM26.7964 66.2445C26.0531 65.4183 25.6071 64.1297 25.6071 62.7595C25.6071 61.3893 26.0531 60.1008 26.7964 59.2746V66.2479V66.2445ZM86.1959 79.4227L86.8735 78.7597H88.3913C87.6687 79.1575 86.9081 79.3887 86.1959 79.4227ZM86.4794 75.9207C86.4828 76.1281 86.4794 76.3355 86.4656 76.5395C86.4448 76.5293 86.4206 76.5259 86.3964 76.5259H85.0654L84.8994 75.9207H86.4794ZM84.8061 75.5807L84.6401 74.9755H86.4033C86.431 75.1795 86.4517 75.3801 86.4621 75.5807H84.8061ZM86.3964 76.8659C86.3964 76.8659 86.4241 76.8625 86.4379 76.8591C86.4172 77.0665 86.386 77.2739 86.3446 77.4711H85.3212L85.1552 76.8659H86.393H86.3964ZM88.9444 78.4163H87.2192L87.8346 77.8111H89.7085C89.4665 78.0321 89.2072 78.2361 88.9444 78.4163ZM90.0542 77.4745C90.0542 77.4745 90.0508 77.4745 90.0473 77.4745H88.1804L88.7958 76.8693H90.5693C90.4138 77.0767 90.2409 77.2807 90.0542 77.4745ZM90.8079 76.5259H89.1415L89.7569 75.9207H91.164C91.0603 76.1247 90.9427 76.3287 90.8113 76.5259M91.323 75.5807H90.1026L90.718 74.9755H91.5408C91.4821 75.1761 91.4095 75.3801 91.323 75.5807ZM91.7102 73.9998C91.6999 74.2071 91.6688 74.4213 91.6238 74.6355H91.0603L91.7068 73.9998H91.7102ZM91.406 73.7006L86.5001 78.5251C86.7352 77.8893 86.8666 77.1821 86.9012 76.4409C87.1363 76.1077 87.4025 75.7847 87.7102 75.4855C88.7992 74.4145 90.1718 73.7584 91.406 73.7006ZM88.8718 74.0303C88.8615 74.0473 88.8511 74.0678 88.8407 74.0847C88.5641 74.2479 88.291 74.4315 88.0282 74.6355H87.5581L87.724 74.0303H88.8684H88.8718ZM87.8173 73.6904L87.9833 73.0852H89.3213C89.2417 73.2926 89.1553 73.4966 89.0551 73.6904H87.8173ZM87.6272 74.9755C87.5546 75.0401 87.4855 75.1047 87.4163 75.1727L87.4682 74.9755H87.6272ZM89.5391 72.4358C89.5114 72.5412 89.4768 72.6432 89.4423 72.7486H88.0766L88.2426 72.1434H89.6117C89.5909 72.242 89.5667 72.3406 89.5391 72.4358ZM89.6774 71.8H88.3325L88.4984 71.1948H89.7534C89.7361 71.3954 89.7119 71.596 89.6774 71.8ZM89.7742 70.8548H88.5918L88.7577 70.2496H89.7603C89.7742 70.4468 89.7776 70.6508 89.7742 70.8548ZM89.2625 68.3932C89.3558 68.5734 89.4354 68.7638 89.5045 68.9644H89.1069L89.2625 68.3932ZM89.0136 69.3044H89.6048C89.6566 69.4982 89.6947 69.7022 89.7223 69.9096H88.8476L89.0136 69.3044ZM86.552 71.647C86.9496 70.185 87.807 68.9406 88.8476 68.2844L86.8908 75.4617C86.8493 74.8973 86.756 74.3261 86.6004 73.7584C86.5243 73.4796 86.4344 73.2042 86.3342 72.939C86.3653 72.514 86.4344 72.0788 86.552 71.647ZM86.2235 74.0303C86.2754 74.2309 86.3169 74.4349 86.3549 74.6355H84.5537L84.3877 74.0303H86.2235ZM84.2909 73.6904L84.125 73.0852H85.9228C85.9988 73.2824 86.0645 73.4864 86.1267 73.6904H84.2909ZM84.0351 72.7452L83.8691 72.14H85.501C85.6047 72.3372 85.7015 72.5378 85.7879 72.7452H84.0316H84.0351ZM80.9996 64.2385L79.9348 63.6333H82.8147C83.0359 63.8271 83.2399 64.0277 83.4301 64.2385H81.0031H80.9996ZM83.717 64.5785C83.8726 64.7757 84.0143 64.9763 84.1388 65.1837H82.6626L81.5977 64.5785H83.717ZM79.3332 63.2933L78.2683 62.6881H81.4732C81.4732 62.6881 81.4871 62.6949 81.494 62.6983C81.8121 62.8785 82.1128 63.0791 82.3929 63.2933H79.3332ZM82.6003 61.7429H83.233C83.1846 62.0489 83.1569 62.3617 83.1535 62.6813L82.6003 61.7429ZM83.354 61.1276C83.3298 61.2159 83.3125 61.3111 83.2918 61.4029H82.3963L82.0402 60.7978H83.2503C83.2849 60.91 83.3194 61.0188 83.3505 61.1309M83.1327 60.4578H81.8466L81.4905 59.8526H82.8527C82.9564 60.0532 83.0498 60.2538 83.1327 60.4578ZM82.6626 59.5126H81.29L80.9339 58.9074H82.2408C82.3894 59.0978 82.5312 59.3018 82.6591 59.5126M81.9538 58.5674H80.7334L80.3773 57.9622H81.3142C81.5389 58.1424 81.7533 58.3464 81.9538 58.5674ZM80.844 57.6222H80.1802L79.9175 57.1768C80.2286 57.2788 80.5398 57.4318 80.8406 57.6222M79.5441 57.391L82.9495 63.1947C82.5692 62.8785 82.1543 62.5861 81.7049 62.3345C81.4698 62.2019 81.2312 62.0795 80.9892 61.9707C80.7299 61.6749 80.4879 61.3485 80.2805 60.995C79.5821 59.8084 79.3159 58.4756 79.5406 57.391M77.8673 61.6817C78.8042 61.6817 79.8172 61.9129 80.7887 62.3481H77.6668L76.716 61.8075C77.079 61.7225 77.4663 61.6817 77.8638 61.6817M79.672 65.7957C78.0955 64.9015 76.9235 63.5483 76.5051 62.1781L84.443 66.6865C83.0256 67.0129 81.2485 66.6933 79.672 65.7991M83.2607 65.5237H84.3324C84.4672 65.7855 84.5779 66.0507 84.6609 66.3193L83.2607 65.5237ZM84.7715 65.4387C84.5053 64.8981 84.1353 64.3745 83.6859 63.8883C83.6168 63.5245 83.5787 63.1437 83.5787 62.7561C83.5787 61.3859 84.0247 60.0974 84.768 59.2712V65.4353L84.7715 65.4387ZM84.8372 67.0163C84.8372 67.0163 84.851 67.0129 84.8579 67.0095C85.3765 68.672 85.7464 70.372 85.9573 72.089C85.8536 71.8782 85.7395 71.6742 85.6185 71.4804C85.4768 69.9776 85.2175 68.485 84.8337 67.0163M85.3108 71.8H83.7758L83.6098 71.1948H84.9132C85.0515 71.3886 85.1864 71.5892 85.3108 71.8ZM84.6505 70.8548H83.52L83.354 70.2496H84.0869C84.284 70.4332 84.4707 70.6372 84.6505 70.8548ZM83.6928 69.9096H83.2607L83.1604 69.5424C83.3402 69.6512 83.52 69.7736 83.6928 69.9096ZM82.3272 74.8837C81.8086 72.9832 81.9745 71.035 82.7455 69.658L85.3454 79.2017C83.9798 78.3891 82.8458 76.7809 82.3272 74.8803M83.392 85.0326H81.4698L81.577 84.4274H83.392C83.399 84.628 83.3955 84.8286 83.392 85.0326ZM80.7922 88.8133L80.8993 88.2081H82.7144C82.6314 88.4155 82.5381 88.6161 82.4413 88.8133H80.7922ZM81.2209 89.1533C81.1725 89.1975 81.131 89.2485 81.0964 89.3029C80.9996 89.4559 80.9028 89.6055 80.8025 89.7585H80.6228L80.7299 89.1533H81.2174H81.2209ZM80.9616 87.8681L81.0687 87.2629H83.0394C82.9806 87.4669 82.9184 87.6709 82.8458 87.8681H80.9616ZM81.131 86.9229L81.2381 86.3178H83.2572C83.2572 86.3178 83.2537 86.3382 83.2503 86.3518C83.2157 86.5456 83.1742 86.736 83.1258 86.9229H81.1275H81.131ZM81.3004 85.9778L81.4076 85.3726H83.3713C83.3575 85.5732 83.3367 85.7738 83.3091 85.9778H81.3004ZM83.3747 84.0874H81.6357L81.7429 83.4822H83.3091C83.3367 83.6794 83.3575 83.8834 83.3713 84.0874M82.258 80.633C82.3929 80.8268 82.5173 81.0342 82.628 81.2552H82.1474L82.258 80.633ZM82.0852 81.5918H82.7905C82.8769 81.7856 82.953 81.9896 83.0221 82.197H81.9815L82.0886 81.5918H82.0852ZM83.1224 82.537C83.1742 82.7342 83.2192 82.9348 83.2572 83.1422H81.8086L81.9158 82.537H83.1189H83.1224ZM78.9114 85.597C79.2952 83.4516 80.398 81.5714 81.8328 80.5617L79.9624 90.9859C79.914 91.0505 79.8656 91.1151 79.8172 91.1831C78.8872 89.7517 78.538 87.6811 78.9114 85.6004M80.5813 90.0985C80.5813 90.0985 80.5605 90.1257 80.5536 90.1393L80.5605 90.0985H80.5813ZM32.4629 90.7037H31.9892L31.8821 90.0985H32.736C32.653 90.3093 32.5631 90.5099 32.4629 90.7037ZM32.2727 91.0437C32.2451 91.0913 32.214 91.1355 32.1828 91.1797C32.1483 91.1355 32.1137 91.0879 32.0826 91.0437H32.2727ZM32.8535 89.7585H31.8164L31.7092 89.1533H33.023C32.9746 89.3607 32.9192 89.5613 32.8535 89.7585ZM33.0921 88.8133H31.647L31.5398 88.2081H33.182C33.1578 88.4121 33.1301 88.6161 33.0921 88.8133ZM33.2131 87.8681H31.4776L31.3704 87.2629H33.2373C33.2373 87.4669 33.2304 87.6675 33.2166 87.8681M33.2304 86.9229H31.3116L31.2044 86.3178H33.1924C33.2131 86.5218 33.2269 86.7224 33.2338 86.9229M33.0921 85.597C33.1163 85.7228 33.1336 85.852 33.1509 85.9778H31.1422L31.035 85.3726H33.0472C33.061 85.4474 33.0783 85.5222 33.0921 85.597ZM32.9676 85.0326H30.9693L30.8622 84.4274H32.8017C32.8639 84.6246 32.9192 84.8286 32.9676 85.0326ZM32.6876 84.0874H30.8034L30.6962 83.4822H32.4456C32.532 83.6794 32.615 83.88 32.6876 84.0874ZM32.2831 83.1422H30.6305L30.5233 82.537H31.9512C32.0687 82.7308 32.1794 82.9348 32.2831 83.1422ZM31.277 81.5918C31.4361 81.7822 31.5916 81.9828 31.7334 82.197H30.4611L30.3539 81.5918H31.277ZM30.2813 80.6467C30.5199 80.8268 30.7515 81.0274 30.9693 81.2518H30.2917L30.1845 80.6467H30.2813ZM29.742 80.633L31.4464 90.1427C31.2597 89.8673 31.08 89.5885 30.9036 89.3063C30.7619 89.0819 30.5199 88.9527 30.271 88.9527C30.1465 88.9527 30.022 88.9833 29.908 89.0479L29.7351 89.1465C29.2753 88.3135 28.9295 87.3649 28.7498 86.3518C28.366 84.203 28.7463 82.0644 29.742 80.633ZM28.6564 89.7585H26.8102L25.1196 89.1533H29.175C29.2096 89.1737 29.2476 89.1907 29.2822 89.2145C29.3098 89.2621 29.3375 89.3097 29.3652 89.3573L28.6564 89.7619V89.7585ZM27.9408 90.1665L27.7575 90.1019H28.0548L27.9408 90.1665ZM26.6547 79.2017L26.7757 78.7563H27.2839C27.0799 78.9229 26.869 79.0725 26.6547 79.2017ZM27.6642 78.4163H26.869L27.035 77.8111H28.2104C28.0376 78.0287 27.8543 78.2293 27.6642 78.4163ZM28.4663 77.4711H27.1248L27.2908 76.8659H28.8535C28.7325 77.0767 28.6046 77.2773 28.4663 77.4711ZM29.0367 76.5259H27.3841L27.5501 75.9207H29.3202C29.2338 76.1281 29.1404 76.3287 29.0402 76.5259M29.4516 75.5807H27.6434L27.8094 74.9755H29.6487C29.5899 75.1795 29.5242 75.3835 29.455 75.5807M29.7351 74.6355H27.8993L28.0652 74.0303H29.8595C29.825 74.2309 29.7869 74.4349 29.7385 74.6355M29.908 73.6904H28.1586L28.3245 73.0852H29.9633C29.9529 73.2858 29.9356 73.4864 29.908 73.6904ZM29.9702 72.7452H28.4144L28.5804 72.14H29.9529C29.9667 72.3372 29.9736 72.5412 29.9736 72.7452M29.9183 71.8H28.6702L28.8362 71.1948H29.8181C29.8595 71.392 29.8941 71.5926 29.9183 71.8ZM29.2545 69.658C29.2995 69.7396 29.3444 69.8246 29.3859 69.9096H29.1888L29.258 69.658H29.2545ZM29.0955 70.2496H29.5346C29.6106 70.4434 29.6798 70.6474 29.7351 70.8548H28.9295L29.0955 70.2496ZM27.557 66.6865L27.9373 66.4689H30.793C29.6659 66.8293 28.525 66.9109 27.557 66.6865ZM32.328 65.7957C32.1137 65.9181 31.8959 66.0269 31.6746 66.1289H28.5389L29.6037 65.5237H32.7706C32.6254 65.6189 32.4802 65.7107 32.328 65.7957ZM33.2511 65.1837H30.2018L31.2667 64.5785H33.953C33.7352 64.7893 33.5001 64.9933 33.2511 65.1837ZM34.2779 64.2385H31.8648L32.9296 63.6333H34.7585C34.6133 63.8407 34.4508 64.0413 34.2745 64.2385M34.9867 63.2933H33.5346L34.5995 62.6881H35.3082C35.2183 62.8921 35.1112 63.0927 34.9901 63.2933M35.4396 62.3481H35.1976L35.4984 62.1781C35.4811 62.2359 35.4603 62.2903 35.4396 62.3481ZM34.1327 61.6817C34.5338 61.6817 34.921 61.7225 35.284 61.8075L27.3392 66.3193C27.7575 64.9491 28.933 63.5959 30.5095 62.6983C31.6815 62.0319 32.9676 61.6817 34.1327 61.6817ZM29.7213 62.6881C29.4862 62.8479 29.2614 63.0145 29.0505 63.1913L29.3479 62.6881H29.7247H29.7213ZM29.5449 62.3481L29.901 61.7429H31.1975C31.1353 61.8211 31.0731 61.8959 31.0074 61.9673C30.7654 62.0761 30.5268 62.1951 30.2917 62.3311C30.2813 62.3379 30.2744 62.3413 30.264 62.3481H29.5449ZM31.7161 60.995C31.6331 61.1378 31.5432 61.2737 31.4499 61.4063H30.0981L30.4542 60.8012H31.8233C31.7887 60.8658 31.7507 60.9338 31.7126 60.9984M31.9961 60.4578H30.6547L31.0108 59.8526H32.2416C32.1725 60.0566 32.0895 60.2572 31.9961 60.4578ZM32.3419 59.5126H31.2079L31.564 58.9074H32.4732C32.4421 59.108 32.3972 59.3086 32.3419 59.5126ZM32.456 57.391C32.4698 57.4658 32.4836 57.544 32.494 57.6222H32.3177L32.4525 57.391H32.456ZM32.5251 57.9622C32.5355 58.1594 32.532 58.36 32.5147 58.5674H31.7645L32.1206 57.9622H32.5251ZM29.2787 59.6112C29.9771 58.4246 31.0177 57.5304 32.0826 57.1768L28.85 62.6813C28.8431 62.1441 28.774 61.6205 28.646 61.1276C28.7809 60.6142 28.9918 60.1008 29.2787 59.6078M27.2286 59.2746C27.2977 59.3494 27.3599 59.431 27.4222 59.5126H27.2286V59.2746ZM27.2286 59.8526H27.6538C27.7679 60.043 27.8716 60.2436 27.965 60.4578H27.2286V59.8526ZM27.2286 60.7978H28.0963C28.1655 60.9916 28.2208 61.1955 28.2692 61.4029H27.2286V60.7978ZM27.2286 61.7429H28.3349C28.3695 61.9401 28.3902 62.1441 28.404 62.3481H27.2286V61.7429ZM27.2286 62.6881H28.4179C28.4179 62.7119 28.4179 62.7357 28.4179 62.7595C28.4179 62.9397 28.4075 63.1165 28.3937 63.2933H27.2286V62.6881ZM27.2286 63.6333H28.3556C28.3418 63.7183 28.328 63.8067 28.3141 63.8917C28.207 64.0073 28.1067 64.1229 28.0134 64.2385H27.232V63.6333H27.2286ZM27.2286 64.5785H27.7506C27.6089 64.7757 27.4809 64.9797 27.3669 65.1837H27.2286V64.5785ZM27.1456 67.0095C27.1456 67.0095 27.1594 67.0129 27.1663 67.0163C26.7826 68.485 26.5233 69.9742 26.3815 71.4804C26.2605 71.6776 26.1499 71.8816 26.0427 72.089C26.2536 70.372 26.6235 68.672 27.1421 67.0095M25.652 72.7452H24.3728L24.2069 72.14H25.5622C25.6002 72.344 25.6313 72.5446 25.652 72.7452ZM24.6978 75.9207C24.843 76.0907 24.9744 76.2641 25.0989 76.4409C25.0989 76.4681 25.1023 76.4987 25.1058 76.5259H23.4705L22.8551 75.9207H24.6978ZM22.5094 75.5807L21.894 74.9755H23.7125C23.913 75.1319 24.1066 75.3019 24.2933 75.4855C24.3244 75.5161 24.3556 75.5501 24.3867 75.5841H22.5094V75.5807ZM24.888 74.6355L24.722 74.0303H25.334C25.2856 74.2309 25.2441 74.4349 25.2095 74.6355H24.8845H24.888ZM25.1611 74.9755C25.1404 75.1387 25.1231 75.2985 25.1127 75.4617L24.9813 74.9755H25.1646H25.1611ZM25.1369 76.8659C25.1576 77.0699 25.1853 77.2739 25.2199 77.4711H24.4316L23.8162 76.8659H25.1334H25.1369ZM25.2959 77.8111C25.3443 78.0185 25.4031 78.2191 25.4688 78.4163H25.3927L24.7773 77.8111H25.2925H25.2959ZM25.4239 73.6904H24.6321L24.4662 73.0852H25.6175C25.5449 73.2824 25.4792 73.4864 25.4239 73.6904ZM25.4515 71.647C25.4653 71.698 25.4757 71.749 25.4895 71.8H24.117L23.9511 71.1948H25.3098C25.3616 71.3444 25.41 71.494 25.4515 71.647ZM25.1819 70.8548H23.8577L23.6918 70.2496H24.8949C24.9986 70.4434 25.0954 70.6474 25.1819 70.8548ZM24.276 69.3044C24.4282 69.4914 24.5699 69.6954 24.7047 69.9096H23.6019L23.4359 69.3044H24.276ZM23.9753 68.9644H23.3391L23.1524 68.281C23.4428 68.4646 23.716 68.6958 23.9718 68.9644M22.461 72.4358C22.0634 70.9738 22.174 69.4744 22.7376 68.3932L24.5837 75.1727C24.1447 74.7443 23.6606 74.3771 23.1559 74.0847C22.862 73.5884 22.62 73.0308 22.4575 72.4358M22.0772 74.0303C22.4713 74.1833 22.8655 74.3873 23.2423 74.6355H21.5483L20.9329 74.0303H22.0772ZM22.1083 77.6343C21.0193 76.5633 20.352 75.2101 20.2933 73.9964L25.8076 79.4193C24.5734 79.3581 23.1974 78.7053 22.1118 77.6343M25.8214 73.8672C26.34 71.9666 27.474 70.355 28.8397 69.5424L26.2363 79.0963C25.4653 77.7193 25.3029 75.7677 25.8214 73.8672ZM26.1845 79.8443C26.2259 79.8443 26.2709 79.8443 26.3158 79.8375C26.3158 79.8375 26.3262 79.8375 26.3331 79.8375C26.3331 79.8375 26.3366 79.8375 26.34 79.8375C26.3435 79.8375 26.3504 79.8375 26.3539 79.8375C26.3608 79.8375 26.3677 79.8341 26.3746 79.8307C26.3815 79.8307 26.3884 79.8273 26.3988 79.8239C26.3988 79.8239 26.4023 79.8239 26.4057 79.8239C26.4057 79.8239 26.4057 79.8239 26.4092 79.8239C26.5302 79.7695 26.6477 79.7083 26.7618 79.6403C26.8068 79.8749 26.8552 80.1095 26.9036 80.3441C26.9105 80.3883 26.9174 80.4359 26.9312 80.48C26.9312 80.4869 26.9381 80.4937 26.9381 80.5005C27.035 80.939 27.1421 81.3776 27.2631 81.8162C27.519 82.758 27.8232 83.6794 28.1689 84.5804C28.1586 85.189 28.2104 85.8112 28.3211 86.4368C28.3729 86.7224 28.4386 87.0012 28.5112 87.2765C27.3807 84.9238 26.5993 82.4248 26.181 79.8545M27.3184 85.3726C27.398 85.5766 27.4775 85.7772 27.5605 85.9778H26.8517L26.3366 85.3726H27.3184ZM26.0462 85.0326L25.531 84.4274H26.9762C27.0453 84.628 27.1179 84.832 27.194 85.0326H26.0496H26.0462ZM27.7057 86.3178C27.7921 86.5218 27.882 86.7224 27.9753 86.9229H27.6607L27.1456 86.3178H27.7091H27.7057ZM28.1309 87.2629C28.2104 87.4295 28.2899 87.5961 28.3729 87.7627L27.9477 87.2629H28.1309ZM26.5613 83.4822C26.6097 83.523 26.6581 83.5672 26.7065 83.6114C26.7549 83.7712 26.8068 83.931 26.8586 84.0908H25.2406L24.7255 83.4856H26.5648L26.5613 83.4822ZM26.1395 83.1422H24.4351L23.9199 82.537H25.168C25.4999 82.7036 25.8284 82.9076 26.143 83.1422M24.3486 82.197H23.6261L23.4498 81.993C23.7471 82.0304 24.0479 82.0984 24.3452 82.197M24.7497 86.4674C23.6503 85.1788 23.0487 83.6114 23.1179 82.265L28.2243 88.2489C28.207 88.2421 28.1897 88.2353 28.1724 88.2285C27.5293 87.9973 26.869 87.8545 26.2259 87.7933C25.697 87.4329 25.1922 86.9841 24.7531 86.4674M28.0237 88.6263C28.1828 88.6841 28.3383 88.7487 28.4905 88.8133H24.1689L23.4532 88.5583C24.7151 88.0347 26.4161 88.0517 28.0237 88.6263ZM25.8975 91.3769C24.7289 90.7717 23.7989 89.9081 23.3045 88.9561L27.4533 90.4419L26.0877 91.2171C26.0116 91.2579 25.9528 91.3157 25.8975 91.3769ZM85.7361 91.9481C82.6902 96.8814 78.3928 101.009 73.3072 103.885C68.0659 106.85 62.0814 108.417 56 108.417C49.9187 108.417 43.9341 106.85 38.6929 103.885C33.6072 101.009 29.3098 96.8814 26.264 91.9481C26.2294 91.8903 26.2329 91.8325 26.2432 91.7951C26.2501 91.7611 26.2778 91.6999 26.347 91.6625L26.5198 91.5639L26.8344 92.0977C26.8655 92.1521 26.9243 92.1827 26.9831 92.1827C27.0142 92.1827 27.0419 92.1759 27.0695 92.1589C27.1525 92.1113 27.1802 92.0093 27.1318 91.9277L26.8171 91.3939L27.1525 91.2035L27.2839 91.4245C27.315 91.4789 27.3738 91.5095 27.4325 91.5095C27.4637 91.5095 27.4913 91.5027 27.519 91.4857C27.6019 91.4381 27.6296 91.3361 27.5812 91.2545L27.4498 91.0335L27.7852 90.8431L27.9166 91.0641C27.9477 91.1185 28.0064 91.1491 28.0652 91.1491C28.0963 91.1491 28.124 91.1423 28.1517 91.1253C28.2346 91.0777 28.2623 90.9723 28.2139 90.8941L28.0825 90.6731L28.4179 90.4827L28.5492 90.7037C28.5804 90.7581 28.6391 90.7887 28.6979 90.7887C28.729 90.7887 28.7567 90.7819 28.7843 90.7649C28.8673 90.7173 28.895 90.6153 28.8466 90.5337L28.7152 90.3127L29.054 90.1223L29.1854 90.3433C29.2165 90.3977 29.2753 90.4283 29.334 90.4283C29.3652 90.4283 29.3928 90.4215 29.4205 90.4045C29.5034 90.3569 29.5311 90.2549 29.4827 90.1733L29.3513 89.9523L29.6867 89.7619L30.0013 90.2957C30.0324 90.3501 30.0912 90.3807 30.15 90.3807C30.1811 90.3807 30.2087 90.3739 30.2364 90.3569C30.3194 90.3093 30.347 90.2073 30.2986 90.1257L29.984 89.5919L30.15 89.4967C30.1845 89.4797 30.2191 89.4695 30.2537 89.4695C30.3332 89.4695 30.4023 89.5103 30.4473 89.5783C33.0748 93.7976 36.7706 97.3302 41.1337 99.7884C45.6351 102.325 50.7692 103.664 55.9862 103.664C61.2032 103.664 66.3373 102.325 70.8387 99.7884C75.2017 97.3302 78.8976 93.7976 81.5251 89.5783C81.5666 89.5103 81.6392 89.4695 81.7187 89.4695C81.7567 89.4695 81.7913 89.4797 81.8224 89.4967L81.9884 89.5919L81.6738 90.1257C81.6254 90.2073 81.653 90.3127 81.736 90.3569C81.7637 90.3739 81.7948 90.3807 81.8224 90.3807C81.8812 90.3807 81.94 90.3501 81.9711 90.2957L82.2857 89.7619L82.6211 89.9523L82.4897 90.1733C82.4413 90.2549 82.4689 90.3569 82.5519 90.4045C82.5796 90.4215 82.6072 90.4283 82.6383 90.4283C82.6971 90.4283 82.7559 90.3977 82.787 90.3433L82.9184 90.1223L83.2572 90.3127L83.1258 90.5337C83.0774 90.6153 83.1051 90.7173 83.1881 90.7649C83.2157 90.7785 83.2468 90.7887 83.2745 90.7887C83.3333 90.7887 83.392 90.7581 83.4231 90.7037L83.5545 90.4827L83.8899 90.6731L83.7585 90.8941C83.7101 90.9757 83.7378 91.0777 83.8207 91.1253C83.8484 91.1423 83.8761 91.1491 83.9072 91.1491C83.9659 91.1491 84.0247 91.1185 84.0558 91.0641L84.1872 90.8431L84.5226 91.0335L84.3912 91.2545C84.3428 91.3361 84.3704 91.4381 84.4534 91.4857C84.4811 91.5027 84.5122 91.5095 84.5398 91.5095C84.5986 91.5095 84.6574 91.4789 84.6885 91.4245L84.8199 91.2035L85.1587 91.3939L84.8441 91.9277C84.7957 92.0093 84.8233 92.1147 84.9063 92.1589C84.934 92.1759 84.9616 92.1827 84.9928 92.1827C85.0515 92.1827 85.1103 92.1521 85.1414 92.0977L85.456 91.5639L85.6289 91.6625C85.698 91.7033 85.7222 91.7645 85.7326 91.7951C85.743 91.8325 85.7464 91.8903 85.7119 91.9481M86.1025 91.3735C86.0507 91.3123 85.9884 91.2613 85.9158 91.2171L85.6116 91.0437H86.6834C86.5001 91.1627 86.3031 91.2681 86.1025 91.3735ZM87.1674 90.7037H85.01L84.5468 90.4419L85.5044 90.0985H87.8519C87.6445 90.3127 87.4163 90.5133 87.1674 90.7037ZM88.1596 89.7585H86.4552L88.699 88.9561C88.5537 89.2315 88.374 89.5001 88.1596 89.7585ZM88.5468 88.5583L84.0593 90.1665L82.6383 89.3573C82.666 89.3097 82.6937 89.2621 82.7213 89.2145C83.112 88.9867 83.5338 88.7861 83.9798 88.6263C85.5874 88.0517 87.2884 88.0347 88.5503 88.5583M84.1008 87.8681L84.6159 87.2629H86.4586C86.2374 87.4533 86.0126 87.6301 85.7776 87.7899C85.5909 87.8069 85.4007 87.8341 85.2106 87.8681H84.1008ZM87.2538 86.4674C87.1155 86.6272 86.9738 86.7802 86.8251 86.9264H84.9098L85.4249 86.3212H87.3748C87.3368 86.3688 87.2953 86.4198 87.2538 86.4674ZM87.6341 85.9778H85.7119L86.227 85.3726H88.0248C87.9038 85.5766 87.7759 85.7806 87.6307 85.9778M88.2149 85.0326H86.5209L87.036 84.4274H88.4881C88.4085 84.6314 88.3152 84.832 88.2115 85.0326M88.6125 84.0874H87.3264L87.8416 83.4822H88.775C88.7335 83.6828 88.6782 83.8834 88.6125 84.0874ZM88.8372 83.1422H88.132L88.8822 82.265C88.896 82.5506 88.8822 82.843 88.8372 83.1422ZM88.5503 81.993L83.6271 87.7627C84.3048 86.4062 84.8614 85.019 85.297 83.6114C86.2858 82.7138 87.4509 82.129 88.5503 81.993ZM83.4854 87.2663C83.5614 86.991 83.6237 86.7122 83.6755 86.4266C83.7862 85.801 83.838 85.1788 83.8277 84.5702C84.1734 83.6692 84.4742 82.7478 84.7335 81.806C84.851 81.3674 84.9582 80.9322 85.0584 80.4902C85.0584 80.4834 85.0654 80.4767 85.0654 80.4699C85.0792 80.4257 85.0861 80.3781 85.093 80.3339C85.1449 80.0993 85.1933 79.8647 85.2348 79.6301C85.3523 79.6947 85.4699 79.7593 85.5874 79.8137C85.5874 79.8137 85.5874 79.8137 85.5909 79.8137C85.5909 79.8137 85.5909 79.8137 85.5943 79.8137C85.5943 79.8137 85.5978 79.8137 85.6012 79.8137C85.6082 79.8137 85.6151 79.8171 85.6254 79.8205C85.6323 79.8205 85.6393 79.8273 85.6462 79.8273C85.6496 79.8273 85.6531 79.8273 85.66 79.8273C85.66 79.8273 85.6635 79.8273 85.6669 79.8273C85.6738 79.8273 85.6773 79.8273 85.6842 79.8273C85.7257 79.8307 85.7706 79.8307 85.8156 79.8341C85.4007 82.4044 84.6194 84.9034 83.4854 87.2561M85.7637 79.0963L85.4145 77.8111H86.2685C86.1475 78.2735 85.9815 78.7087 85.7672 79.0963" fill="#282828"/>
<path d="M69.6632 39.5378C68.9855 39.5378 68.4047 40.0614 68.3943 40.7244C68.3874 41.18 68.6329 41.5778 69.0063 41.7852C69.0962 41.8362 69.1273 41.9518 69.0754 42.0402C69.0236 42.1286 68.906 42.1592 68.8161 42.1082C68.2249 41.7716 67.4678 41.9756 67.1359 42.5638C66.8213 43.118 67.0183 43.849 67.5681 44.1787C68.1454 44.5221 68.8922 44.3419 69.2448 43.7844C69.2448 43.7844 69.2725 43.7606 69.2932 43.7606C69.3243 43.7606 69.352 43.7878 69.352 43.8184C69.352 43.8218 69.352 43.8252 69.352 43.8286C69.352 43.8354 69.352 43.8388 69.3485 43.8456C69.3382 43.8932 69.3243 43.9408 69.3105 43.985C69.2967 44.0292 69.2863 44.0734 69.2725 44.1176C68.8576 45.3891 67.6441 46.3105 66.2128 46.3105C64.6743 46.3105 63.3882 45.2463 63.0736 43.8252V43.8184C63.0736 43.7878 63.1012 43.7606 63.1324 43.7606C63.1531 43.7606 63.1738 43.7708 63.1842 43.7844C63.5369 44.3419 64.2836 44.5221 64.861 44.1787C65.4142 43.849 65.6078 43.118 65.2932 42.5638C64.9613 41.9756 64.2041 41.7716 63.6129 42.1082C63.523 42.1592 63.4055 42.1286 63.3536 42.0402C63.3018 41.9518 63.3329 41.8362 63.4228 41.7852C63.7789 41.5846 64.0174 41.214 64.0347 40.7822C64.0589 40.1294 63.5196 39.5582 62.8523 39.5344C62.1574 39.5106 61.587 40.058 61.587 40.738C61.587 41.1868 61.829 41.5778 62.1989 41.7852C62.2888 41.8362 62.3199 41.9518 62.268 42.0402C62.2162 42.1286 62.0986 42.1592 62.0087 42.1082C61.4176 41.7716 60.6604 41.9756 60.3285 42.5638C60.0139 43.118 60.211 43.849 60.7607 44.1787C61.338 44.5221 62.0848 44.3419 62.4375 43.7844C62.4375 43.7844 62.4686 43.7606 62.4893 43.7606C62.5204 43.7606 62.5481 43.7878 62.5481 43.8184C62.5481 43.8184 62.5481 43.8252 62.5481 43.8286C62.2335 45.2497 60.9474 46.3105 59.4089 46.3105C57.8704 46.3105 56.5843 45.2463 56.2697 43.8252C56.2697 43.8252 56.2697 43.8184 56.2697 43.815C56.2697 43.7844 56.2973 43.7572 56.3284 43.7572C56.3492 43.7572 56.3699 43.7674 56.3803 43.781C56.7329 44.3385 57.4797 44.5187 58.0571 44.1753C58.6102 43.8456 58.8038 43.1146 58.4892 42.5604C58.1573 41.9722 57.4002 41.7682 56.809 42.1048C56.7191 42.1558 56.6016 42.1252 56.5497 42.0368C56.4978 41.9484 56.529 41.8328 56.6189 41.7818C56.9784 41.5812 57.2135 41.2106 57.2308 40.7788C57.255 40.126 56.7157 39.5548 56.0484 39.531C55.3535 39.5072 54.783 40.0546 54.783 40.7346C54.783 41.1834 55.025 41.5744 55.395 41.7818C55.4849 41.8328 55.516 41.9484 55.4641 42.0368C55.4123 42.1252 55.2947 42.1558 55.2048 42.1048C54.6136 41.7682 53.8565 41.9722 53.5246 42.5604C53.21 43.1146 53.407 43.8456 53.9567 44.1753C54.5341 44.5187 55.2809 44.3385 55.6335 43.781C55.6335 43.781 55.6646 43.7572 55.6854 43.7572C55.7165 43.7572 55.7442 43.7844 55.7442 43.815C55.7442 43.815 55.7442 43.8218 55.7442 43.8252C55.4295 45.2463 54.1434 46.3105 52.605 46.3105C51.0665 46.3105 49.7804 45.2463 49.4657 43.8252V43.8184C49.4657 43.7878 49.4934 43.7606 49.5245 43.7606C49.5453 43.7606 49.566 43.7708 49.5764 43.7844C49.929 44.3419 50.6758 44.5221 51.2532 44.1787C51.8063 43.849 51.9999 43.118 51.6853 42.5638C51.3534 41.9756 50.5963 41.7716 50.0051 42.1082C49.9152 42.1592 49.7976 42.1286 49.7458 42.0402C49.6939 41.9518 49.725 41.8362 49.8149 41.7852C50.1745 41.5846 50.4096 41.214 50.4269 40.7822C50.4511 40.1294 49.9117 39.5582 49.2445 39.5344C48.5496 39.5106 47.9791 40.058 47.9791 40.738C47.9791 41.1868 48.2211 41.5778 48.5911 41.7852C48.6809 41.8362 48.7121 41.9518 48.6602 42.0402C48.6083 42.1286 48.4908 42.1592 48.4009 42.1082C47.8097 41.7716 47.0526 41.9756 46.7207 42.5638C46.406 43.118 46.6031 43.849 47.1528 44.1787C47.7302 44.5221 48.477 44.3419 48.8296 43.7844C48.8296 43.7844 48.8607 43.7606 48.8815 43.7606C48.9126 43.7606 48.9402 43.7878 48.9402 43.8184C48.9402 43.8184 48.9402 43.8252 48.9402 43.8286C48.6256 45.2497 47.3395 46.3105 45.801 46.3105C44.3697 46.3105 43.1597 45.3891 42.7413 44.1176C42.7275 44.0734 42.7171 44.0292 42.7033 43.985C42.6895 43.9374 42.6756 43.8932 42.6653 43.8456C42.6653 43.8388 42.6653 43.8354 42.6618 43.8286C42.6618 43.8286 42.6618 43.8218 42.6618 43.8184C42.6618 43.7878 42.6895 43.7606 42.7206 43.7606C42.7413 43.7606 42.7586 43.7708 42.769 43.7844C43.1216 44.3419 43.8684 44.5221 44.4458 44.1787C44.9989 43.849 45.1925 43.118 44.8779 42.5638C44.546 41.9756 43.7889 41.7716 43.1977 42.1082C43.1078 42.1592 42.9903 42.1286 42.9384 42.0402C42.8865 41.9518 42.9177 41.8362 43.0075 41.7852C43.3809 41.5744 43.6264 41.1766 43.6195 40.7244C43.5953 40.0614 43.0145 39.5378 42.3368 39.5378H42.0326V56.7076H69.9639V39.5378H69.6597H69.6632ZM42.7275 50.9684H55.0665C54.6862 51.1044 54.344 51.3186 54.0639 51.5906H42.7275V50.9684ZM42.7275 54.535H43.82C43.9168 54.535 43.9929 54.4602 43.9929 54.365C43.9929 54.2698 43.9168 54.195 43.82 54.195H42.7275V53.668H43.3325C43.4293 53.668 43.5054 53.5932 43.5054 53.498C43.5054 53.4028 43.4293 53.328 43.3325 53.328H42.7275V52.801H43.82C43.9168 52.801 43.9929 52.7262 43.9929 52.631C43.9929 52.5358 43.9168 52.461 43.82 52.461H42.7275V51.934H53.7735C53.4485 52.376 53.2549 52.92 53.2549 53.5048C53.2549 54.0896 53.4451 54.6234 53.7631 55.062H42.7275V54.535ZM42.7275 56.0276V55.402H54.0501C54.3232 55.674 54.6586 55.8882 55.0285 56.0276H42.724H42.7275ZM55.6888 55.844C54.6205 55.7114 53.7562 54.8614 53.6214 53.8108C53.4209 52.2706 54.745 50.9684 56.3146 51.1622C57.3829 51.2948 58.2472 52.1448 58.3821 53.1954C58.5826 54.7356 57.2584 56.0378 55.6888 55.844ZM69.2759 56.0276H56.9715C57.3414 55.8882 57.6768 55.6774 57.9499 55.402H69.2725V56.0276H69.2759ZM69.2759 52.461H68.1834C68.0866 52.461 68.0106 52.5358 68.0106 52.631C68.0106 52.7262 68.0866 52.801 68.1834 52.801H69.2759V53.328H68.6709C68.5741 53.328 68.4981 53.4028 68.4981 53.498C68.4981 53.5932 68.5741 53.668 68.6709 53.668H69.2759V54.195H68.1834C68.0866 54.195 68.0106 54.2698 68.0106 54.365C68.0106 54.4602 68.0866 54.535 68.1834 54.535H69.2759V55.062H58.2403C58.5584 54.62 58.7485 54.0828 58.7485 53.5048C58.7485 52.9268 58.5549 52.376 58.2299 51.934H69.2759V52.461ZM69.2759 51.594H57.9395C57.6595 51.3186 57.3172 51.1078 56.9369 50.9718H69.2759V51.594ZM69.2759 46.2731C67.4954 48.0241 64.3666 47.8371 62.8108 45.9059C61.1064 48.0003 57.7044 48.0003 56 45.9059C54.2956 48.0003 50.8936 48.0003 49.1892 45.9059C47.6368 47.8337 44.5045 48.0207 42.724 46.2731V45.2735C43.4051 46.2153 44.5218 46.8341 45.7837 46.8341C47.0768 46.8409 48.3248 46.1405 48.9886 45.0559C48.9886 45.0559 48.9886 45.0559 48.9886 45.0525C49.0612 44.9335 49.1304 44.8111 49.1892 44.6853C49.2479 44.8111 49.3171 44.9335 49.3897 45.0525C49.3897 45.0525 49.3897 45.0525 49.3897 45.0559C50.8314 47.4155 54.3612 47.4155 55.8029 45.0559C55.8029 45.0559 55.8029 45.0559 55.8029 45.0525C55.8755 44.9335 55.9447 44.8111 56.0035 44.6853C56.0622 44.8111 56.1314 44.9335 56.204 45.0525C56.204 45.0525 56.204 45.0525 56.204 45.0559C57.6457 47.4155 61.1755 47.4155 62.6172 45.0559C62.6172 45.0559 62.6172 45.0559 62.6172 45.0525C62.6898 44.9335 62.759 44.8111 62.8177 44.6853C62.8765 44.8111 62.9457 44.9335 63.0183 45.0525C63.0183 45.0525 63.0183 45.0525 63.0183 45.0559C64.4012 47.3339 67.7789 47.4189 69.2829 45.2735V46.2731H69.2759Z" fill="#282828"/>
<path d="M57.9291 53.5051C57.9291 54.5523 57.0648 55.4023 56 55.4023C54.9351 55.4023 54.0708 54.5523 54.0708 53.5051C54.0708 52.4579 54.9351 51.6079 56 51.6079C57.0648 51.6079 57.9291 52.4579 57.9291 53.5051Z" fill="#282828"/>
</g>
<path opacity="0.89" d="M6.80764 19.182C4.06464 19.182 2.97264 16.855 2.97264 14.515V14.398C2.97264 12.175 4.06464 9.718 6.80764 9.718C8.75764 9.718 10.2006 10.927 10.3826 12.643H9.81064C9.64164 11.278 8.53664 10.251 6.80764 10.251C4.48064 10.251 3.53164 12.461 3.53164 14.372V14.528C3.53164 16.569 4.48064 18.649 6.80764 18.649C8.53664 18.649 9.68064 17.635 9.83665 16.244H10.4086C10.2266 17.986 8.75764 19.182 6.80764 19.182ZM14.4335 19.182C12.7695 19.182 11.4825 17.713 11.4825 15.854V15.659C11.4825 13.8 12.7825 12.318 14.4335 12.318C16.1495 12.318 17.3845 13.722 17.3845 15.659V15.854C17.3845 17.765 16.1365 19.182 14.4335 19.182ZM14.4335 18.649C15.8115 18.649 16.8255 17.453 16.8255 15.854V15.659C16.8255 14.086 15.7985 12.851 14.4335 12.851C13.0685 12.851 12.0415 14.086 12.0415 15.659V15.854C12.0415 17.453 13.0555 18.649 14.4335 18.649ZM19.3256 19H18.7666V12.5H19.3256V12.929C19.3256 13.215 19.2996 13.436 19.2216 13.722L19.1696 13.878L19.1956 13.891L19.3256 13.644C19.7676 12.838 20.6126 12.318 21.5616 12.318C22.9656 12.318 23.8236 13.254 23.8236 14.814V19H23.2646V14.866C23.2646 13.579 22.6406 12.851 21.4966 12.851C20.4176 12.851 19.3256 13.735 19.3256 15.1V19ZM28.8598 10.823H28.3008V9.887H28.8598V10.823ZM28.8598 18.987H28.3008V12.474H28.8598V18.987ZM31.1954 19H30.6494V9.9H31.1954V19ZM38.3146 19.182C36.6376 19.182 35.3116 17.726 35.3116 15.88V15.633C35.3116 13.787 36.6506 12.318 38.3146 12.318C39.8746 12.318 41.0056 13.306 41.1096 14.775H40.5636C40.4596 13.514 39.3806 12.851 38.3146 12.851C37.0536 12.851 35.8706 13.93 35.8706 15.633V15.88C35.8706 17.596 37.0276 18.649 38.3146 18.649C39.3806 18.649 40.4596 17.986 40.5636 16.725H41.1096C41.0056 18.181 39.8616 19.182 38.3146 19.182ZM44.9911 19.182C43.3271 19.182 42.0401 17.713 42.0401 15.854V15.659C42.0401 13.8 43.3401 12.318 44.9911 12.318C46.7071 12.318 47.9421 13.722 47.9421 15.659V15.854C47.9421 17.765 46.6941 19.182 44.9911 19.182ZM44.9911 18.649C46.3691 18.649 47.3831 17.453 47.3831 15.854V15.659C47.3831 14.086 46.3561 12.851 44.9911 12.851C43.6261 12.851 42.5991 14.086 42.5991 15.659V15.854C42.5991 17.453 43.6131 18.649 44.9911 18.649ZM49.8832 19H49.3242V12.5H49.8832V12.929C49.8832 13.215 49.8572 13.436 49.7792 13.722L49.7272 13.878L49.7532 13.891L49.8832 13.644C50.3252 12.838 51.1702 12.318 52.1192 12.318C53.5232 12.318 54.3812 13.254 54.3812 14.814V19H53.8222V14.866C53.8222 13.579 53.1982 12.851 52.0542 12.851C50.9752 12.851 49.8832 13.735 49.8832 15.1V19ZM58.8661 18.584V19.117C58.1381 19.26 57.4101 19.065 57.0591 18.636C56.8251 18.337 56.7081 17.921 56.7081 17.388V13.033H55.6681V12.5H56.2531C56.6171 12.5 56.7081 12.305 56.7081 11.941V10.836L57.2671 10.576V12.11C57.2671 12.279 57.2151 12.448 57.0981 12.487V12.5H58.7751V13.033H57.2671V17.323C57.2671 18.298 57.7741 18.714 58.8661 18.584ZM60.5981 19H60.0391V12.5H60.5981V12.942C60.5981 13.228 60.5721 13.449 60.4941 13.735L60.4421 13.891L60.4681 13.904L60.5981 13.657C60.8451 13.163 61.2221 12.812 61.7291 12.591C62.0411 12.461 62.3921 12.37 62.7951 12.331L63.2111 12.318V12.916H62.7431C61.1701 12.916 60.5981 14.255 60.5981 15.477V19ZM65.0541 10.823H64.4951V9.887H65.0541V10.823ZM65.0541 18.987H64.4951V12.474H65.0541V18.987ZM69.7558 19.182C68.7418 19.182 67.8578 18.532 67.4028 17.44L67.2728 17.128L67.2468 17.141L67.2988 17.362C67.3638 17.648 67.4028 17.869 67.4028 18.155V19H66.8438V9.9H67.4028V13.917H67.4548C67.8708 12.825 68.7548 12.292 69.7558 12.292C71.3548 12.292 72.5248 13.748 72.5248 15.646V15.828C72.5248 17.713 71.3418 19.182 69.7558 19.182ZM69.7558 18.649C70.8868 18.649 71.9658 17.505 71.9658 15.828V15.646C71.9658 13.943 70.8868 12.838 69.7298 12.838C68.4298 12.838 67.4418 13.865 67.4418 15.347V16.114C67.4418 17.57 68.4688 18.649 69.7558 18.649ZM76.1644 19.182C74.7604 19.182 73.9024 18.246 73.9024 16.686V12.5H74.4614V16.634C74.4614 17.921 75.0854 18.649 76.2294 18.649C77.3084 18.649 78.4004 17.765 78.4004 16.4V12.5H78.9594V19H78.4004V18.571C78.4004 18.285 78.4394 18.064 78.5174 17.778L78.5564 17.635L78.5304 17.609L78.4004 17.856C77.9584 18.662 77.1134 19.182 76.1644 19.182ZM83.5077 18.584V19.117C82.7797 19.26 82.0517 19.065 81.7007 18.636C81.4667 18.337 81.3497 17.921 81.3497 17.388V13.033H80.3097V12.5H80.8947C81.2587 12.5 81.3497 12.305 81.3497 11.941V10.836L81.9087 10.576V12.11C81.9087 12.279 81.8567 12.448 81.7397 12.487V12.5H83.4167V13.033H81.9087V17.323C81.9087 18.298 82.4157 18.714 83.5077 18.584ZM86.8856 19.182C85.2216 19.182 83.9346 17.713 83.9346 15.854V15.659C83.9346 13.8 85.2346 12.318 86.8856 12.318C88.6016 12.318 89.8366 13.722 89.8366 15.659V15.854C89.8366 17.765 88.5886 19.182 86.8856 19.182ZM86.8856 18.649C88.2636 18.649 89.2776 17.453 89.2776 15.854V15.659C89.2776 14.086 88.2506 12.851 86.8856 12.851C85.5206 12.851 84.4936 14.086 84.4936 15.659V15.854C84.4936 17.453 85.5076 18.649 86.8856 18.649ZM96.314 19.182C94.728 19.182 93.545 17.713 93.545 15.828V15.646C93.545 13.748 94.715 12.292 96.314 12.292C97.315 12.292 98.212 12.825 98.628 13.917H98.667V9.9H99.226V18.974H98.667V18.233C98.667 17.882 98.68 17.635 98.771 17.284L98.81 17.141L98.797 17.128L98.667 17.44C98.212 18.532 97.328 19.182 96.314 19.182ZM96.314 18.649C97.601 18.649 98.628 17.57 98.628 16.114V15.347C98.628 13.865 97.64 12.838 96.34 12.838C95.183 12.838 94.104 13.943 94.104 15.646V15.828C94.104 17.505 95.183 18.649 96.314 18.649ZM103.568 19.182C101.891 19.182 100.604 17.726 100.604 15.88V15.633C100.604 13.787 101.904 12.318 103.568 12.318C105.31 12.318 106.532 13.696 106.532 15.633V15.776H101.163V15.88C101.163 17.479 102.203 18.649 103.568 18.649C104.569 18.649 105.44 18.012 105.804 16.972H106.363C105.999 18.311 104.92 19.182 103.568 19.182ZM101.163 15.243H105.973C105.791 13.839 104.777 12.851 103.568 12.851C102.359 12.851 101.345 13.839 101.163 15.243ZM108.446 19H107.9V9.9H108.446V19Z" fill="#282828"/>
<defs>
<clipPath id="clip0_4025_17">
<rect width="98" height="90" fill="white" transform="translate(7 39.5381)"/>
</clipPath>
</defs>
</svg>
