<svg width="117" height="44" viewBox="0 0 117 44" fill="none" xmlns="http://www.w3.org/2000/svg">
<path d="M115.467 22.9991C114.789 21.6569 113.321 20.0599 110.171 20.0599C109.635 20.0599 109.125 20.1109 108.646 20.2129V18.429C108.646 17.0443 107.531 15.9188 106.159 15.9188H105.001C103.63 15.9188 102.514 17.0443 102.514 18.429V22.3025C102.514 22.3025 102.5 22.2856 102.493 22.2771C101.181 20.8266 99.4826 20.0599 97.5826 20.0599C96.5411 20.0599 95.588 20.2744 94.7358 20.6992C94.3866 20.508 93.9847 20.4019 93.5618 20.4019H92.4488C91.3483 20.4019 90.4141 21.1282 90.088 22.1305C89.7535 21.7228 89.3474 21.366 88.874 21.0708C87.6747 20.3318 86.1682 19.9559 84.3966 19.9559C82.8017 19.9559 81.3605 20.3573 80.1149 21.1494C80.0454 21.194 79.976 21.2407 79.9045 21.2917C79.7761 21.0581 79.6078 20.8436 79.3995 20.6652C78.9892 20.3127 78.4632 20.1194 77.9182 20.1194C77.8614 20.1194 77.8046 20.1215 77.7478 20.1258C77.7352 20.1258 77.7226 20.1258 77.7121 20.1258C77.6258 20.1173 77.5521 20.1152 77.4932 20.1152C76.6684 20.1152 75.8815 20.3148 75.1683 20.697C74.819 20.4932 74.4129 20.3785 73.9795 20.3785H72.7928C72.0206 20.3785 71.3347 20.7523 70.8971 21.3257C70.4405 20.7947 69.7693 20.4571 69.0203 20.4571H68.0145C67.6042 20.4571 67.2171 20.5569 66.8762 20.7353C66.0388 20.3381 65.1088 20.1385 64.1031 20.1385C62.1695 20.1385 60.44 20.9583 59.1018 22.5064C59.0366 22.1029 58.8746 21.7313 58.641 21.4148C58.9503 20.9965 59.1355 20.4783 59.1355 19.9177V18.4863C59.1355 17.1017 58.0203 15.9761 56.6485 15.9761H55.4597C54.0879 15.9761 52.9727 17.1017 52.9727 18.4863V19.9177C52.9727 20.3063 53.0632 20.6737 53.221 21.0007C52.796 20.6609 52.2616 20.4549 51.6787 20.4549H50.6751C50.2648 20.4549 49.8777 20.5569 49.5347 20.7331C48.6973 20.336 47.7673 20.1364 46.7616 20.1364C44.8259 20.1364 43.0985 20.9561 41.7582 22.5043C41.693 22.0987 41.531 21.7292 41.2974 21.4127C41.6067 20.9944 41.7919 20.4762 41.7919 19.9155V18.4842C41.7919 17.0996 40.6767 15.974 39.3049 15.974H38.114C37.3839 15.974 36.7295 16.2947 36.2751 16.8001C35.8185 16.2607 35.141 15.9188 34.3856 15.9188H33.3042C31.9323 15.9188 30.8172 17.0443 30.8172 18.429V20.2532C30.3964 20.1746 29.9545 20.1364 29.4895 20.1364C27.2024 20.1364 25.3298 21.1005 24.0737 22.9248C23.7644 23.375 23.4993 23.8464 23.2763 24.3413C23.0996 23.9781 22.8681 23.6489 22.5778 23.358C22.4473 23.2221 22.3063 23.1032 22.1591 22.9906C22.3042 22.8823 22.4452 22.7655 22.5757 22.6317C23.2952 21.9012 23.674 20.9285 23.674 19.8221V13.432C23.674 12.3256 23.2952 11.3529 22.5757 10.6202C21.8666 9.8982 20.9114 9.51807 19.8152 9.51807C18.7189 9.51807 17.7763 9.89183 17.0568 10.6011C17.042 10.616 17.0273 10.6309 17.0147 10.6457C16.3245 11.3742 15.9584 12.3383 15.9584 13.4341V15.8869L4.92485 15.9103C3.82654 15.9103 2.86289 16.2989 2.14331 17.0337C1.43845 17.7515 1.06604 18.7157 1.06604 19.8242V32.4707C1.06604 33.5558 1.42373 34.5094 2.10123 35.2357C1.19228 35.9429 0.603149 37.0514 0.603149 38.2959V38.9224C0.603149 41.0545 2.32215 42.7896 4.43671 42.7896H39.5405C41.1291 42.7896 42.4946 41.8084 43.0753 40.4153C44.1589 40.9951 45.4192 41.2924 46.8352 41.2924C50.6751 41.2924 52.4593 39.3662 53.2841 37.7437C53.5703 37.1746 53.7849 36.5205 53.9322 35.7857C54.353 36.117 54.8811 36.3166 55.4555 36.3166H56.6443C56.9704 36.3166 57.2797 36.2508 57.5659 36.1361C57.568 36.2699 57.5785 36.4058 57.6037 36.5396C57.8836 38.0623 58.6684 39.2919 59.874 40.0925C61.0691 40.8867 62.5167 41.2902 64.1768 41.2902C68.0187 41.2902 69.8009 39.3641 70.6235 37.7416C70.9139 37.1618 71.1327 36.495 71.28 35.7454C71.6924 36.083 72.2142 36.2848 72.7844 36.2848H74.07C74.8421 36.2848 75.526 35.9131 75.9636 35.3397C76.4286 35.4756 76.9188 35.55 77.428 35.55C77.9372 35.55 78.4443 35.4735 78.9156 35.3334C79.9865 36.3039 81.3752 36.8178 82.9469 36.8178C84.1946 36.8178 85.3623 36.5396 86.4186 35.9917C86.4607 35.9705 86.5006 35.9492 86.5427 35.9259C87.1992 36.4143 88.0176 36.6755 88.9413 36.6755C89.3243 36.6755 89.6272 36.6585 89.9029 36.6203C89.9218 36.6182 89.9386 36.6118 89.9555 36.6097V38.4955C89.9555 39.8801 91.0706 41.0057 92.4424 41.0057H93.5997C94.9715 41.0057 96.0866 39.8801 96.0866 38.4955V36.5969C96.499 36.6734 96.9325 36.7116 97.3869 36.7116C98.9965 36.7116 100.431 36.2019 101.656 35.1932C101.986 34.9214 102.287 34.6177 102.559 34.2885C102.782 35.4417 103.792 36.3166 104.999 36.3166H106.157C106.931 36.3166 107.623 35.9577 108.08 35.3949C108.486 35.4969 108.911 35.5521 109.348 35.5521C109.786 35.5521 110.177 35.5011 110.571 35.4056C111.027 35.962 111.715 36.3166 112.486 36.3166H113.697C115.069 36.3166 116.184 35.1911 116.184 33.8064V26.6667C116.184 25.1822 115.945 23.9505 115.467 22.9991Z" stroke="#1D1D1B" stroke-miterlimit="10"/>
<path d="M39.5405 42.8938H4.43876C2.26739 42.8938 0.5 41.11 0.5 38.9205V38.294C0.5 37.0962 1.02601 35.9813 1.94968 35.221C1.30374 34.4862 0.962889 33.537 0.962889 32.4688V19.8223C0.962889 18.6862 1.34582 17.6965 2.06961 16.9575C2.81024 16.2015 3.79703 15.8022 4.9248 15.8022L15.8532 15.7789V13.4322C15.8532 12.3088 16.2277 11.3192 16.9389 10.5716C16.9536 10.5568 16.9683 10.5398 16.9852 10.5249C17.7237 9.79649 18.7042 9.41211 19.8172 9.41211C20.9302 9.41211 21.9212 9.80499 22.6513 10.5461C23.3899 11.2979 23.7812 12.296 23.7812 13.4322V19.8223C23.7812 20.9585 23.3899 21.9566 22.6513 22.7063C22.5567 22.8018 22.4536 22.8931 22.3315 22.9908C22.4536 23.0906 22.5588 23.1841 22.6513 23.2818C22.8912 23.5217 23.0995 23.7978 23.2678 24.1015C23.4761 23.6683 23.716 23.252 23.9853 22.8634C25.2604 21.0095 27.1624 20.0304 29.4874 20.0304C29.9103 20.0304 30.3206 20.0623 30.7098 20.1281V18.4292C30.7098 16.9872 31.8734 15.8128 33.302 15.8128H34.3835C35.101 15.8128 35.7827 16.1144 36.275 16.6432C36.761 16.1484 37.4238 15.8659 38.1118 15.8659H39.3027C40.7314 15.8659 41.8949 17.0403 41.8949 18.4823V19.9136C41.8949 20.4531 41.7329 20.967 41.4236 21.4108C41.6045 21.672 41.7371 21.9672 41.815 22.2752C43.1531 20.8035 44.8574 20.0283 46.7573 20.0283C47.7568 20.0283 48.6889 20.2258 49.5284 20.6145C49.8818 20.4403 50.2753 20.3469 50.6688 20.3469H51.6724C52.1416 20.3469 52.5897 20.4722 52.9874 20.71C52.9054 20.4531 52.8633 20.1855 52.8633 19.9136V18.4823C52.8633 17.0403 54.0268 15.8659 55.4555 15.8659H56.6442C58.0729 15.8659 59.2364 17.0403 59.2364 18.4823V19.9136C59.2364 20.4531 59.0744 20.967 58.7651 21.4108C58.9461 21.672 59.0786 21.9651 59.1565 22.2752C60.4967 20.8056 62.201 20.0283 64.0988 20.0283C65.0983 20.0283 66.0304 20.2258 66.8699 20.6145C67.2234 20.4403 67.6168 20.3469 68.0103 20.3469H69.016C69.723 20.3469 70.3984 20.6399 70.8865 21.1581C71.3641 20.5911 72.05 20.2662 72.7864 20.2662H73.9731C74.3897 20.2662 74.7979 20.3724 75.1619 20.5699C75.8815 20.194 76.6642 20.0028 77.4848 20.0028C77.5458 20.0028 77.6236 20.005 77.7141 20.0135H77.7436C77.7919 20.0092 77.853 20.0071 77.9119 20.0071C78.4821 20.0071 79.0312 20.211 79.4605 20.5783C79.6435 20.7355 79.8013 20.9224 79.9297 21.1326C79.9696 21.105 80.0096 21.0774 80.0496 21.0519C81.312 20.2492 82.7701 19.8414 84.386 19.8414C86.1766 19.8414 87.702 20.2216 88.9181 20.9712C89.3452 21.2367 89.7219 21.5531 90.0417 21.9163C90.4372 20.9351 91.3798 20.2874 92.4403 20.2874H93.5533C93.9615 20.2874 94.3676 20.3851 94.7295 20.572C95.5837 20.1557 96.539 19.9455 97.5741 19.9455C99.4278 19.9455 101.092 20.6633 102.401 22.0246V18.4207C102.401 16.9787 103.564 15.8043 104.993 15.8043H106.15C107.579 15.8043 108.742 16.9787 108.742 18.4207V20.075C109.193 19.988 109.67 19.9455 110.163 19.9455C113.367 19.9455 114.863 21.5765 115.553 22.9441C116.037 23.9104 116.281 25.1591 116.281 26.6605V33.8003C116.281 35.2423 115.118 36.4167 113.689 36.4167H112.477C111.726 36.4167 111.017 36.0896 110.525 35.5183C109.727 35.701 108.9 35.6946 108.111 35.5077C107.617 36.0854 106.906 36.4167 106.148 36.4167H104.991C103.825 36.4167 102.809 35.6266 102.498 34.5096C102.256 34.7857 101.993 35.0405 101.715 35.2699C100.471 36.2935 99.0133 36.8117 97.3806 36.8117C96.9682 36.8117 96.5663 36.7798 96.1855 36.7161V38.4894C96.1855 39.9313 95.0219 41.1057 93.5933 41.1057H92.4361C91.0074 41.1057 89.8439 39.9313 89.8439 38.4894V36.7288C89.583 36.7607 89.2926 36.7756 88.935 36.7756C88.0239 36.7756 87.1928 36.5228 86.5258 36.045C86.5027 36.0578 86.4816 36.0684 86.4585 36.0811C85.3875 36.6375 84.203 36.92 82.9384 36.92C81.3688 36.92 79.9675 36.4124 78.8818 35.4483C77.9434 35.718 76.9398 35.7222 75.9951 35.4589C75.5175 36.0514 74.8168 36.389 74.0615 36.389H72.7759C72.2625 36.389 71.7597 36.2276 71.341 35.9282C71.1937 36.6205 70.9812 37.2449 70.7097 37.7864C69.8744 39.4323 68.0629 41.3924 64.1683 41.3924C62.4872 41.3924 61.0206 40.9825 59.8066 40.1755C58.5757 39.3579 57.7762 38.105 57.4901 36.5526C57.4753 36.4676 57.4627 36.3763 57.4564 36.2786C57.1892 36.3699 56.9136 36.4167 56.6337 36.4167H55.4449C54.921 36.4167 54.4224 36.2595 53.991 35.9622C53.8438 36.6418 53.6355 37.2534 53.3682 37.7843C52.5329 39.4301 50.7214 41.3903 46.8268 41.3903C45.4444 41.3903 44.1967 41.11 43.1195 40.5536C42.4798 41.9743 41.0849 42.8875 39.5342 42.8875L39.5405 42.8938ZM19.8172 9.6266C18.7589 9.6266 17.831 9.98975 17.1324 10.6799L17.0925 10.7203C16.4213 11.4296 16.0657 12.3683 16.0657 13.4343V15.9934L4.9269 16.0167C3.85595 16.0167 2.92175 16.3947 2.22111 17.1104C1.53729 17.807 1.1754 18.7456 1.1754 19.8244V32.4709C1.1754 33.5263 1.52256 34.4565 2.18323 35.1616L2.26319 35.2465L2.17061 35.3187C1.24483 36.0408 0.714612 37.1238 0.714612 38.294V38.9205C0.714612 40.9953 2.38732 42.6815 4.44297 42.6815H39.5468C41.0512 42.6815 42.3999 41.7747 42.9848 40.373L43.029 40.2669L43.13 40.3221C44.2009 40.8955 45.4486 41.1864 46.8394 41.1864C50.6267 41.1864 52.3857 39.2878 53.1936 37.6951C53.4713 37.1408 53.686 36.491 53.8311 35.7647L53.8648 35.5969L53.9995 35.7031C54.4224 36.0365 54.9273 36.2107 55.4597 36.2107H56.6484C56.9493 36.2107 57.2481 36.1533 57.53 36.0386L57.671 35.9813L57.6752 36.1342C57.6773 36.2807 57.6899 36.406 57.711 36.5207C57.9845 38.0137 58.7546 39.2178 59.9371 40.0035C61.1153 40.7872 62.544 41.1843 64.183 41.1843C67.9703 41.1843 69.7293 39.2857 70.5372 37.6951C70.8213 37.1281 71.0401 36.4655 71.1832 35.7265L71.2168 35.5523L71.3536 35.6628C71.7597 35.9962 72.2709 36.1788 72.7927 36.1788H74.0783C74.7916 36.1788 75.4502 35.8496 75.8899 35.2741L75.9341 35.2168L76.0035 35.238C76.9482 35.5141 77.9561 35.512 78.8966 35.2316L78.9534 35.2147L78.9976 35.255C80.0496 36.2085 81.4193 36.7118 82.9574 36.7118C84.1882 36.7118 85.3391 36.4379 86.3806 35.8964C86.4227 35.8751 86.4627 35.8539 86.5027 35.8326L86.5616 35.8008L86.6142 35.8411C87.2538 36.3168 88.0618 36.5696 88.9518 36.5696C89.3305 36.5696 89.6314 36.5526 89.8986 36.5165C89.9281 36.5101 89.9386 36.508 89.9491 36.5058L90.0711 36.4867V38.4978C90.0711 39.823 91.14 40.9018 92.4529 40.9018H93.6101C94.9231 40.9018 95.9919 39.823 95.9919 38.4978V36.4719L96.116 36.4952C96.52 36.5696 96.9513 36.6078 97.3974 36.6078C98.9817 36.6078 100.396 36.1045 101.599 35.1127C101.919 34.8494 102.218 34.5499 102.489 34.2229L102.63 34.0509L102.672 34.2696C102.891 35.3952 103.874 36.2107 105.008 36.2107H106.165C106.88 36.2107 107.552 35.89 108.006 35.3293L108.048 35.2784L108.113 35.2954C108.909 35.495 109.748 35.4992 110.554 35.306L110.617 35.2911L110.659 35.3421C111.114 35.8964 111.783 36.2149 112.494 36.2149H113.706C115.019 36.2149 116.088 35.1361 116.088 33.8109V26.6711C116.088 25.2037 115.85 23.9868 115.383 23.0503C114.72 21.7357 113.279 20.1685 110.179 20.1685C109.653 20.1685 109.146 20.2194 108.675 20.3193L108.549 20.3469V18.4334C108.549 17.1083 107.48 16.0295 106.167 16.0295H105.01C103.697 16.0295 102.628 17.1083 102.628 18.4334V22.581L102.445 22.3792L102.487 22.307H102.474L102.424 22.3537C101.132 20.9266 99.4594 20.1706 97.591 20.1706C96.5684 20.1706 95.6258 20.3808 94.7905 20.7992L94.7421 20.8226L94.6937 20.7971C94.3508 20.6102 93.9615 20.5125 93.568 20.5125H92.455C91.424 20.5125 90.5151 21.1772 90.1932 22.1669L90.1343 22.3495L90.0122 22.2008C89.684 21.7973 89.2842 21.4491 88.8234 21.1645C87.641 20.4361 86.1534 20.0665 84.4007 20.0665C82.8248 20.0665 81.4046 20.4615 80.1758 21.2431C80.1085 21.2855 80.0391 21.3323 79.9696 21.3832L79.8728 21.4512L79.816 21.3471C79.6898 21.1156 79.5278 20.916 79.3363 20.7504C78.945 20.4148 78.4442 20.2301 77.9245 20.2301C77.8698 20.2301 77.8151 20.2301 77.7604 20.2364H77.7162C77.6236 20.2279 77.5542 20.2258 77.4974 20.2258C76.6915 20.2258 75.9257 20.4169 75.2208 20.7971L75.1703 20.8247L75.1198 20.795C74.7748 20.5953 74.3834 20.4892 73.9836 20.4892H72.797C72.0837 20.4892 71.423 20.8204 70.9833 21.396L70.9054 21.4979L70.8213 21.4002C70.3668 20.8714 69.7124 20.5699 69.0244 20.5699H68.0187C67.6336 20.5699 67.2675 20.659 66.9288 20.8374L66.8825 20.8608L66.8362 20.8396C66.0135 20.4488 65.0962 20.2513 64.1073 20.2513C62.2052 20.2513 60.503 21.0583 59.1838 22.5831L59.0365 22.753L59.0008 22.53C58.9397 22.1541 58.7883 21.7931 58.561 21.4852L58.5147 21.4214L58.561 21.3577C58.8703 20.9372 59.0344 20.4424 59.0344 19.9243V18.4929C59.0344 17.1677 57.9656 16.0889 56.6527 16.0889H55.4639C54.1509 16.0889 53.0821 17.1677 53.0821 18.4929V19.9243C53.0821 20.2832 53.162 20.6314 53.3198 20.9627L53.5197 21.379L53.1599 21.0902C52.7328 20.7482 52.2236 20.5677 51.6829 20.5677H50.6793C50.2942 20.5677 49.9281 20.6569 49.5873 20.8353L49.541 20.8587L49.4947 20.8374C48.672 20.4467 47.7547 20.2492 46.7679 20.2492C44.8658 20.2492 43.1636 21.0562 41.8444 22.581L41.6971 22.7509L41.6614 22.5279C41.6003 22.152 41.4488 21.7888 41.2216 21.483L41.1753 21.4193L41.2216 21.3556C41.533 20.9351 41.695 20.4403 41.695 19.9221V18.4908C41.695 17.1656 40.6262 16.0868 39.3132 16.0868H38.1224C37.4554 16.0868 36.8136 16.3756 36.3613 16.8789L36.2813 16.9681L36.2035 16.8768C35.749 16.3395 35.0904 16.0316 34.394 16.0316H33.3125C31.9996 16.0316 30.9307 17.1104 30.9307 18.4356V20.3872L30.8066 20.3639C30.3921 20.2874 29.9524 20.2492 29.4979 20.2492C27.2466 20.2492 25.4034 21.1985 24.1684 22.9908C23.8675 23.4283 23.6024 23.8976 23.3793 24.3903L23.2868 24.5942L23.1879 24.3925C23.0132 24.0336 22.786 23.7129 22.5104 23.4389C22.3947 23.32 22.2663 23.2053 22.1022 23.0822L21.9907 22.9972L22.1043 22.9123C22.2663 22.7912 22.3947 22.6808 22.5083 22.564C23.2068 21.8525 23.5771 20.9075 23.5771 19.8287V13.4386C23.5771 12.3598 23.2068 11.4147 22.5083 10.7012C21.8181 10.0004 20.8903 9.62872 19.8235 9.62872L19.8172 9.6266Z" stroke="#1D1D1B" stroke-miterlimit="10"/>
<path d="M87.3569 10.9157C87.3779 10.7565 87.3884 10.5929 87.3884 10.4273C87.3884 8.57333 85.9093 7.28639 84.0767 6.98058V6.93599C85.9556 6.32437 86.8729 5.14786 86.8729 3.64218C86.8729 1.70115 85.0635 0.108398 81.798 0.108398C79.8244 0.108398 77.9918 0.632944 77.0765 1.1766L77.8045 3.57635C78.4378 3.22806 79.755 2.72476 80.9985 2.72476C82.5029 2.72476 83.254 3.35761 83.254 4.20708C83.254 5.40695 81.7265 5.82106 80.5293 5.84442H79.1427V8.22293H80.5987C82.1725 8.22293 83.6769 8.85578 83.6769 10.251C83.6769 11.3192 82.7364 12.1496 80.8806 12.1496C79.4246 12.1496 77.9686 11.5826 77.3332 11.2768L76.6052 13.7636C77.4973 14.286 79.1658 14.7681 81.1394 14.7681C81.2867 14.7681 81.4277 14.7596 81.5708 14.7553C82.141 14.2478 83.496 13.0606 84.2008 12.6125C85.215 11.967 86.2712 11.4063 87.3569 10.9157Z" fill="#1D1D1B"/>
<path d="M81.1415 14.8786C79.0396 14.8786 77.3942 14.3519 76.5547 13.8592L76.4811 13.8167L77.2701 11.126L77.3837 11.1813C77.6825 11.3257 79.2563 12.0435 80.8848 12.0435C82.5134 12.0435 83.5738 11.3575 83.5738 10.2553C83.5738 8.83885 81.9747 8.33554 80.6029 8.33554H79.0396V5.74042H80.5335C81.7391 5.71918 83.1509 5.30507 83.1509 4.2135C83.1509 3.35342 82.3471 2.83949 81.0027 2.83949C79.6582 2.83949 78.4252 3.36616 77.8592 3.67621L77.7435 3.73992L76.9524 1.13206L77.026 1.08746C77.9329 0.548053 79.7613 0.00439453 81.8022 0.00439453C85.3812 0.00439453 86.9845 1.835 86.9845 3.64648C86.9845 5.17128 86.0965 6.30531 84.4133 6.93817C86.2733 7.36502 87.502 8.73691 87.502 10.4295C87.502 10.593 87.4915 10.7586 87.4684 10.9307L87.46 10.9901L87.4053 11.0156C86.2838 11.5253 85.2255 12.0944 84.2639 12.706C83.5633 13.152 82.202 14.3455 81.6486 14.8382L81.6192 14.8637L81.4761 14.8701C81.3667 14.8743 81.2573 14.8786 81.1457 14.8786H81.1415ZM76.7357 13.7127C77.571 14.1777 79.1427 14.6598 81.1415 14.6598C81.2509 14.6598 81.3582 14.6556 81.4634 14.6513H81.5308C82.1052 14.1374 83.4433 12.9673 84.1461 12.5213C85.1013 11.9139 86.147 11.349 87.258 10.8415C87.2748 10.6992 87.2832 10.5633 87.2832 10.4273C87.2832 8.75178 85.9892 7.40962 84.0619 7.08895L83.9715 7.07408V6.85959L84.0451 6.83623C85.8251 6.25859 86.7656 5.15429 86.7656 3.64648C86.7656 1.59714 84.7689 0.221009 81.8001 0.221009C79.8539 0.221009 78.1117 0.722194 77.207 1.23187L77.8719 3.4235C78.5031 3.09858 79.7592 2.62075 81.0027 2.62075C82.4608 2.62075 83.3655 3.23024 83.3655 4.2135C83.3655 5.46222 81.8401 5.93367 80.5356 5.95916H79.2563V8.11892H80.605C82.1914 8.11892 83.7905 8.77938 83.7905 10.2575C83.7905 11.228 83.0289 12.2643 80.8869 12.2643C79.3636 12.2643 77.8929 11.6548 77.4069 11.434L76.7378 13.7169L76.7357 13.7127Z" fill="#1D1D1B"/>
<path d="M92.0637 7.46053C92.0406 4.16673 92.9327 2.61645 94.2477 2.61645C95.6805 2.61645 96.4085 4.27503 96.4085 7.41594C96.4085 7.83854 96.3959 8.23142 96.3686 8.59882C97.551 8.50113 98.7398 8.4714 99.9265 8.52237C99.9581 8.15072 99.9791 7.77059 99.9791 7.37346C99.9791 3.4914 98.3821 0.108398 94.294 0.108398C90.2058 0.108398 88.4679 3.35973 88.4679 7.46053C88.4742 8.46715 88.5878 9.42705 88.8172 10.302C89.9092 9.88364 91.0264 9.54173 92.1605 9.2699C92.0932 8.73898 92.0574 8.14011 92.0637 7.46053Z" fill="#1D1D1B"/>
<path d="M88.7435 10.4463L88.712 10.3295C88.4847 9.46093 88.3648 8.49467 88.3606 7.46044C88.3606 2.85846 90.6351 0 94.294 0C97.9529 0 100.086 2.75652 100.086 7.37337C100.086 7.73227 100.07 8.09966 100.034 8.53077L100.025 8.63483L99.9223 8.63058C98.7756 8.58174 97.5826 8.60722 96.377 8.70703L96.2529 8.71765L96.2613 8.59236C96.2865 8.22071 96.2991 7.82571 96.2991 7.41797C96.2991 5.27731 95.9436 2.72679 94.2456 2.72679C93.85 2.72679 93.4987 2.87757 93.2062 3.17701C92.514 3.88206 92.1542 5.36226 92.1689 7.46044C92.1647 8.11241 92.1963 8.71553 92.2657 9.25706L92.2783 9.35475L92.1836 9.37811C91.0454 9.65207 89.9239 9.99822 88.8529 10.4081L88.7414 10.4506L88.7435 10.4463ZM94.294 0.216614C90.0775 0.216614 88.5752 3.95851 88.5752 7.46044C88.5815 8.42883 88.6867 9.33564 88.8908 10.1575C89.9071 9.77311 90.9654 9.44819 92.0406 9.18486C91.9796 8.66031 91.9501 8.08055 91.9543 7.45832C91.9396 5.3028 92.3183 3.76738 93.0526 3.01985C93.3872 2.67794 93.789 2.50593 94.2456 2.50593C95.7521 2.50593 96.5138 4.15814 96.5138 7.41372C96.5138 7.78111 96.5032 8.13789 96.4822 8.47768C97.6184 8.38848 98.7419 8.36512 99.8255 8.40547C99.855 8.02534 99.8697 7.69404 99.8697 7.36912C99.8697 0.911053 95.9688 0.21449 94.2919 0.21449L94.294 0.216614Z" fill="#1D1D1B"/>
<path d="M89.0297 17.9365H88.6762V16.7112H88.2617V16.4733C88.3711 16.4691 88.4469 16.4606 88.4911 16.4521C88.5605 16.4372 88.6173 16.4054 88.6615 16.3586C88.6909 16.3268 88.7141 16.2843 88.7288 16.2312C88.7372 16.1994 88.7414 16.176 88.7414 16.1611H89.0297V17.9386V17.9365Z" fill="#1D1D1B"/>
<path d="M90.1175 17.9874C89.9849 17.9874 89.8671 17.947 89.7619 17.8685C89.6567 17.7899 89.5957 17.6752 89.581 17.5244H89.926C89.9344 17.5775 89.9555 17.62 89.9912 17.6518C90.027 17.6837 90.0733 17.7007 90.1322 17.7007C90.2458 17.7007 90.3258 17.637 90.3721 17.5096C90.3973 17.4395 90.4142 17.3375 90.4184 17.2016C90.3868 17.242 90.3531 17.2717 90.3174 17.2929C90.2522 17.3312 90.1722 17.3524 90.0775 17.3524C89.9365 17.3524 89.8124 17.3036 89.7051 17.2059C89.5957 17.1082 89.5431 16.968 89.5431 16.7833C89.5431 16.5985 89.5978 16.4392 89.7072 16.3203C89.8166 16.2014 89.9576 16.144 90.1322 16.144C90.3994 16.144 90.5846 16.263 90.6835 16.5029C90.7403 16.6389 90.7676 16.8172 90.7676 17.0381C90.7676 17.259 90.7403 17.4331 90.6856 17.5754C90.5825 17.8493 90.391 17.9853 90.1154 17.9853L90.1175 17.9874ZM89.9955 16.486C89.9302 16.539 89.8966 16.6261 89.8966 16.7514C89.8966 16.8576 89.9176 16.9362 89.9597 16.9893C90.0018 17.0424 90.067 17.0678 90.1554 17.0678C90.2038 17.0678 90.2479 17.053 90.29 17.0254C90.3679 16.9744 90.4078 16.8873 90.4078 16.762C90.4078 16.6622 90.3847 16.5815 90.3384 16.5221C90.2921 16.4626 90.229 16.4329 90.1469 16.4329C90.088 16.4329 90.0375 16.4499 89.9955 16.4838V16.486Z" fill="#1D1D1B"/>
<path d="M91.4998 17.9874C91.3672 17.9874 91.2494 17.947 91.1442 17.8685C91.039 17.7899 90.978 17.6752 90.9633 17.5244H91.3083C91.3167 17.5775 91.3378 17.62 91.3735 17.6518C91.4093 17.6837 91.4556 17.7007 91.5166 17.7007C91.6302 17.7007 91.7102 17.637 91.7565 17.5096C91.7817 17.4395 91.7965 17.3375 91.8028 17.2016C91.7712 17.242 91.7375 17.2717 91.7018 17.2929C91.6366 17.3312 91.5566 17.3524 91.4619 17.3524C91.3209 17.3524 91.1968 17.3036 91.0895 17.2059C90.9801 17.1082 90.9275 16.968 90.9275 16.7833C90.9275 16.5985 90.9822 16.4392 91.0916 16.3203C91.201 16.2014 91.342 16.144 91.5166 16.144C91.7838 16.144 91.969 16.263 92.0679 16.5029C92.1247 16.6389 92.152 16.8172 92.152 17.0381C92.152 17.259 92.1247 17.4331 92.07 17.5754C91.9669 17.8493 91.7754 17.9853 91.4998 17.9853V17.9874ZM91.3799 16.486C91.3125 16.539 91.281 16.6261 91.281 16.7514C91.281 16.8576 91.302 16.9362 91.3441 16.9893C91.3862 17.0424 91.4514 17.0678 91.5398 17.0678C91.5882 17.0678 91.6323 17.053 91.6744 17.0254C91.7523 16.9744 91.7923 16.8873 91.7923 16.762C91.7923 16.6622 91.7691 16.5815 91.7228 16.5221C91.6765 16.4626 91.6134 16.4329 91.5313 16.4329C91.4724 16.4329 91.4219 16.4499 91.3799 16.4838V16.486Z" fill="#1D1D1B"/>
<path d="M92.9011 17.0528C92.8591 17.0528 92.8233 17.0571 92.7917 17.0698C92.737 17.0889 92.697 17.125 92.6697 17.1781L92.3583 17.1633L92.4824 16.1821H93.4524V16.4794H92.7328L92.6697 16.8681C92.7223 16.832 92.7644 16.8107 92.7938 16.798C92.8443 16.7789 92.9053 16.7704 92.9769 16.7704C93.1221 16.7704 93.2504 16.8192 93.3577 16.919C93.4671 17.0189 93.5197 17.1611 93.5197 17.3501C93.5197 17.5137 93.4671 17.6602 93.364 17.7897C93.2609 17.9193 93.1031 17.983 92.8948 17.983C92.7286 17.983 92.5897 17.9384 92.4824 17.8471C92.3751 17.7558 92.3141 17.6283 92.3036 17.4606H92.6486C92.6613 17.537 92.6886 17.5944 92.7286 17.6368C92.7665 17.6772 92.8233 17.6984 92.899 17.6984C92.9853 17.6984 93.0505 17.6687 93.0947 17.6071C93.1389 17.5455 93.162 17.4691 93.162 17.3778C93.162 17.2864 93.141 17.21 93.0989 17.1484C93.0568 17.0868 92.9916 17.055 92.9011 17.055V17.0528Z" fill="#1D1D1B"/>
<path d="M93.6775 17.0698H94.3739V17.4011H93.6775V17.0698Z" fill="#1D1D1B"/>
<path d="M95.3124 16.5199C95.2703 16.4711 95.2114 16.4456 95.1356 16.4456C95.0304 16.4456 94.9589 16.4859 94.921 16.5645C94.9 16.6112 94.8873 16.6834 94.8831 16.7832H94.5465C94.5528 16.6325 94.5781 16.5093 94.6286 16.4158C94.7211 16.2396 94.8852 16.1504 95.1209 16.1504C95.3061 16.1504 95.4554 16.2035 95.5649 16.3075C95.6743 16.4116 95.7311 16.5496 95.7311 16.7217C95.7311 16.8533 95.6911 16.9701 95.6153 17.0721C95.5649 17.14 95.4807 17.2143 95.365 17.2993L95.2261 17.3991C95.1398 17.4607 95.0809 17.5053 95.0473 17.5329C95.0157 17.5605 94.9883 17.5924 94.9673 17.6306H95.7353V17.9385H94.5297C94.5339 17.8111 94.5591 17.6943 94.6117 17.5902C94.6601 17.4713 94.7779 17.346 94.961 17.2143C95.1209 17.0997 95.224 17.0168 95.2703 16.9659C95.3418 16.8873 95.3776 16.8024 95.3776 16.711C95.3776 16.6367 95.3566 16.573 95.3166 16.5242L95.3124 16.5199Z" fill="#1D1D1B"/>
<path d="M96.5159 17.9787C96.2907 17.9787 96.135 17.9001 96.0446 17.7409C95.9541 17.5816 95.9099 17.3565 95.9099 17.0634C95.9099 16.7704 95.9541 16.5431 96.0446 16.3838C96.135 16.2246 96.2928 16.146 96.5159 16.146C96.7389 16.146 96.8967 16.2267 96.9872 16.3838C97.0777 16.5431 97.1218 16.7704 97.1218 17.0634C97.1218 17.3565 97.0777 17.5816 96.9872 17.7409C96.8967 17.9001 96.7389 17.9787 96.5159 17.9787ZM96.7179 17.5328C96.7494 17.4244 96.7642 17.2694 96.7642 17.0655C96.7642 16.8617 96.7494 16.6939 96.7158 16.5898C96.6842 16.4879 96.6169 16.4348 96.5138 16.4348C96.4107 16.4348 96.3433 16.4858 96.3097 16.5898C96.276 16.6918 96.2592 16.8511 96.2592 17.0655C96.2592 17.28 96.276 17.4266 96.3097 17.5349C96.3433 17.6432 96.4107 17.6963 96.5138 17.6963C96.6169 17.6963 96.6842 17.6411 96.7158 17.5328H96.7179Z" fill="#1D1D1B"/>
<path d="M98.0771 16.5199C98.0351 16.4711 97.9761 16.4456 97.9004 16.4456C97.7952 16.4456 97.7237 16.4859 97.6858 16.5645C97.6647 16.6112 97.6521 16.6834 97.6479 16.7832H97.3113C97.3176 16.6325 97.3428 16.5093 97.3933 16.4158C97.4859 16.2396 97.65 16.1504 97.8857 16.1504C98.0708 16.1504 98.2202 16.2035 98.3296 16.3075C98.439 16.4116 98.4958 16.5496 98.4958 16.7217C98.4958 16.8533 98.4559 16.9701 98.3801 17.0721C98.3296 17.14 98.2455 17.2143 98.1297 17.2993L97.9909 17.3991C97.9046 17.4607 97.8457 17.5053 97.812 17.5329C97.7805 17.5605 97.7531 17.5924 97.7321 17.6306H98.5V17.9385H97.2944C97.2986 17.8111 97.3239 17.6943 97.3765 17.5902C97.4249 17.4713 97.5427 17.346 97.7258 17.2143C97.8857 17.0997 97.9888 17.0168 98.0351 16.9659C98.1066 16.8873 98.1424 16.8024 98.1424 16.711C98.1424 16.6367 98.1213 16.573 98.0813 16.5242L98.0771 16.5199Z" fill="#1D1D1B"/>
<path d="M99.2595 17.0528C99.2174 17.0528 99.1817 17.0571 99.1501 17.0698C99.0954 17.0889 99.0554 17.125 99.0281 17.1781L98.7167 17.1633L98.8408 16.1821H99.8108V16.4794H99.0912L99.0281 16.8681C99.0807 16.832 99.1227 16.8107 99.1543 16.798C99.2048 16.7789 99.2658 16.7704 99.3374 16.7704C99.4825 16.7704 99.6088 16.8192 99.7182 16.919C99.8276 17.0189 99.8802 17.1611 99.8802 17.3501C99.8802 17.5137 99.8276 17.6602 99.7245 17.7897C99.6214 17.9193 99.4636 17.983 99.2553 17.983C99.087 17.983 98.9502 17.9384 98.8429 17.8471C98.7356 17.7558 98.6767 17.6283 98.6641 17.4606H99.0091C99.0239 17.537 99.0491 17.5944 99.0891 17.6368C99.1291 17.6772 99.1859 17.6984 99.2595 17.6984C99.3458 17.6984 99.411 17.6687 99.4552 17.6071C99.4994 17.5455 99.5225 17.4691 99.5225 17.3778C99.5225 17.2864 99.5015 17.21 99.4594 17.1484C99.4173 17.0868 99.3521 17.055 99.2637 17.055L99.2595 17.0528Z" fill="#1D1D1B"/>
<path d="M93.0462 13.3667L92.4487 14.4944V15.1739H92.0742V14.4944L91.4556 13.3667H91.8953L92.2677 14.1525L92.6233 13.3667H93.0462Z" fill="#1D1D1B"/>
<path d="M94.5064 14.3838H93.6374V14.8488H94.6284V15.1738H93.2734V13.3687H94.5864V13.6893H93.6395V14.0737H94.5085V14.388L94.5064 14.3838Z" fill="#1D1D1B"/>
<path d="M95.9667 14.8021H95.3081L95.184 15.1738H94.7926L95.4322 13.3687H95.8551L96.4885 15.1738H96.0824L95.9667 14.8021ZM95.8636 14.4899L95.6405 13.7785L95.4091 14.4899H95.8636Z" fill="#1D1D1B"/>
<path d="M97.4752 14.4646H97.088V15.1718H96.7219V13.3667H97.5993C97.7255 13.3688 97.8202 13.3837 97.8897 13.4134C97.957 13.441 98.0138 13.4835 98.0622 13.5387C98.1001 13.5854 98.1316 13.6343 98.1548 13.6916C98.1779 13.749 98.1884 13.8105 98.1884 13.8806C98.1884 13.9656 98.1674 14.0505 98.1232 14.1333C98.0811 14.2162 98.0096 14.2756 97.9107 14.3096C97.9928 14.3436 98.0517 14.3903 98.0853 14.4519C98.119 14.5135 98.1379 14.6069 98.1379 14.7343V14.8554C98.1379 14.9382 98.1421 14.9934 98.1464 15.0232C98.1569 15.0699 98.1779 15.1039 98.2137 15.1251V15.1697H97.8013C97.7908 15.1293 97.7824 15.0975 97.776 15.072C97.7676 15.021 97.7613 14.9701 97.7613 14.917V14.7492C97.7571 14.6345 97.7361 14.5581 97.6961 14.5199C97.6561 14.4816 97.5804 14.4625 97.471 14.4625L97.4752 14.4646ZM97.7024 14.1355C97.776 14.1015 97.8139 14.0335 97.8139 13.9316C97.8139 13.8212 97.7782 13.749 97.7066 13.7107C97.6666 13.6895 97.6056 13.6789 97.5236 13.6789H97.088V14.1631H97.5109C97.5951 14.1631 97.6582 14.1525 97.7003 14.1333L97.7024 14.1355Z" fill="#1D1D1B"/>
<path d="M99.1605 14.9126C99.2489 14.9126 99.3204 14.902 99.3751 14.8829C99.4803 14.8446 99.5308 14.7746 99.5308 14.6726C99.5308 14.6132 99.5056 14.5664 99.453 14.5346C99.4004 14.5027 99.3204 14.4751 99.2089 14.4496L99.0195 14.4072C98.8344 14.3647 98.7039 14.318 98.6345 14.2691C98.5146 14.1863 98.4536 14.0546 98.4536 13.8784C98.4536 13.717 98.5125 13.5832 98.6282 13.4749C98.7439 13.3687 98.9164 13.3135 99.1416 13.3135C99.3309 13.3135 99.4908 13.3644 99.6234 13.4643C99.756 13.5641 99.8254 13.7106 99.8338 13.9039H99.474C99.4677 13.7955 99.4214 13.717 99.3331 13.6724C99.2741 13.6426 99.2026 13.6278 99.1163 13.6278C99.0195 13.6278 98.9438 13.6469 98.8849 13.6872C98.8281 13.7255 98.7986 13.7807 98.7986 13.8508C98.7986 13.9145 98.826 13.9633 98.8828 13.9952C98.9186 14.0164 98.9964 14.0419 99.1163 14.0695L99.4235 14.1438C99.5582 14.1757 99.6613 14.2203 99.7286 14.2755C99.8359 14.3604 99.8885 14.4836 99.8885 14.645C99.8885 14.8064 99.8254 14.9466 99.7013 15.057C99.5771 15.1653 99.4004 15.2205 99.171 15.2205C98.9417 15.2205 98.7544 15.1674 98.6219 15.0591C98.4893 14.9508 98.422 14.8043 98.422 14.6153H98.7797C98.7902 14.6981 98.8134 14.7597 98.847 14.8C98.908 14.8744 99.0111 14.9105 99.1584 14.9105L99.1605 14.9126Z" fill="#1D1D1B"/>
<path d="M100.45 9.04905C99.2637 9.0002 98.0749 9.02994 96.8924 9.1255C95.4743 9.2423 94.0667 9.46529 92.6843 9.79658C91.5503 10.0684 90.433 10.4124 89.341 10.8287C88.8487 11.0177 88.3626 11.2237 87.8808 11.4403C86.7972 11.933 85.741 12.4915 84.7248 13.1371C84.0199 13.5852 82.6649 14.7723 82.0947 15.2799C81.9327 15.4243 81.8296 15.5177 81.8296 15.5177L79.3868 18.0024L79.3805 18.3698C80.7187 17.1105 82.2672 16.0147 83.8768 15.1291C83.9547 15.0866 84.0367 15.0484 84.1146 15.0059C84.8594 14.6067 85.6253 14.2499 86.4038 13.9335C87.6115 13.4429 88.855 13.0458 90.1216 12.7485C91.2452 12.4851 92.3877 12.3004 93.5365 12.1857C94.3907 12.1008 95.2492 12.0583 96.1097 12.054C97.2901 12.0477 98.4705 12.1156 99.6445 12.2579C100.072 12.3089 100.499 12.3683 100.922 12.4384L105.788 9.76472C104.034 9.3591 102.245 9.11701 100.45 9.04268V9.04905Z" fill="#1D1D1B"/>
<path d="M34.3836 17.7241H33.3021C32.9171 17.7241 32.6036 18.0405 32.6036 18.4292V22.925C32.6036 22.9844 32.5636 23.0099 32.5405 23.0205C32.5131 23.0333 32.471 23.0397 32.4332 23.0036C32.2417 22.8209 32.0544 22.6701 31.8777 22.5597C31.2317 22.1498 30.428 21.9417 29.4875 21.9417C27.7874 21.9417 26.4598 22.6192 25.5424 23.9528C24.6482 25.2546 24.1937 26.8092 24.1937 28.5761C24.1937 30.4704 24.6966 32.0164 25.6855 33.1695C26.687 34.3354 27.8926 34.9258 29.2687 34.9258C30.1145 34.9258 30.8783 34.7517 31.5389 34.4098C31.9029 34.2208 32.2417 33.968 32.551 33.6537C32.5867 33.6155 32.6288 33.6219 32.6562 33.6346C32.6751 33.6431 32.7214 33.6686 32.7214 33.7323V33.8067C32.7214 34.1953 33.0349 34.5096 33.4178 34.5096H34.3794C34.7644 34.5096 35.0758 34.1932 35.0758 33.8067V18.4292C35.0758 18.0405 34.7623 17.7241 34.3794 17.7241H34.3836ZM32.6814 28.3361C32.6814 29.7356 32.4079 30.8144 31.8693 31.5449C31.3433 32.2585 30.6931 32.6047 29.8831 32.6047C28.8205 32.6047 28.0736 32.233 27.6023 31.4706C27.1078 30.6742 26.8574 29.6634 26.8574 28.4678C26.8574 27.0661 27.1436 25.9979 27.7054 25.295C28.2608 24.6006 28.9657 24.265 29.862 24.265C30.6594 24.265 31.3096 24.5814 31.8545 25.2292C32.4037 25.8832 32.6814 26.9281 32.6814 28.3361Z" fill="#1D1D1B"/>
<path d="M29.2728 35.034C27.8631 35.034 26.6323 34.4309 25.6097 33.2417C24.6019 32.0694 24.0906 30.5 24.0906 28.5781C24.0906 26.7878 24.5514 25.2121 25.4582 23.8933C26.3966 22.5278 27.7537 21.8354 29.4895 21.8354C30.4511 21.8354 31.2738 22.0478 31.9365 22.4683C32.1196 22.583 32.3111 22.738 32.5067 22.9249L32.5004 18.427C32.5004 17.981 32.8602 17.6157 33.3042 17.6157H34.3857C34.8275 17.6157 35.1873 17.9789 35.1873 18.427V33.8044C35.1873 34.2504 34.8275 34.6136 34.3857 34.6136H33.4241C32.9823 34.6136 32.6225 34.2504 32.6225 33.8044V33.7301C32.3153 34.0487 31.966 34.3099 31.5936 34.5031C30.9161 34.8535 30.1376 35.0319 29.2749 35.0319L29.2728 35.034ZM29.4895 22.0478C27.8274 22.0478 26.5292 22.7104 25.6307 24.0143C24.7491 25.297 24.301 26.8324 24.301 28.5781C24.301 30.4469 24.7954 31.9696 25.7675 33.1036C26.748 34.244 27.9262 34.8238 29.2728 34.8238C30.1018 34.8238 30.8488 34.6539 31.4947 34.3184C31.8482 34.1357 32.1785 33.8873 32.4794 33.5814C32.5383 33.522 32.6183 33.505 32.6982 33.5369C32.7803 33.5708 32.8308 33.6473 32.8308 33.7344V33.8087C32.8308 34.1378 33.0959 34.4054 33.422 34.4054H34.3835C34.7097 34.4054 34.9748 34.1378 34.9748 33.8087V18.4312C34.9748 18.102 34.7097 17.8323 34.3835 17.8323H33.3021C32.9759 17.8323 32.7087 18.0999 32.7087 18.4312V22.927C32.7087 23.0141 32.6603 23.0863 32.5825 23.1203C32.5067 23.1542 32.4226 23.1415 32.3616 23.082C32.1743 22.9037 31.9934 22.7592 31.8229 22.6509C31.1938 22.2517 30.409 22.0499 29.4874 22.0499L29.4895 22.0478ZM29.883 32.7107C28.7826 32.7107 28.0062 32.3242 27.5117 31.5279C27.0068 30.7145 26.7501 29.6845 26.7501 28.4677C26.7501 27.0406 27.0425 25.9511 27.6212 25.2291C28.1977 24.5091 28.9299 24.1587 29.8578 24.1587C30.6867 24.1587 31.3642 24.4858 31.9302 25.1611C32.4962 25.8364 32.7824 26.9046 32.7824 28.336C32.7824 29.7673 32.5025 30.8589 31.9492 31.6086C31.4021 32.3497 30.7246 32.7107 29.8788 32.7107H29.883ZM29.862 24.3711C28.9993 24.3711 28.3218 24.696 27.7874 25.3629C27.2403 26.0467 26.9626 27.0915 26.9626 28.4677C26.9626 29.6442 27.2088 30.6359 27.6906 31.4153C28.143 32.1437 28.8604 32.4984 29.883 32.4984C30.6573 32.4984 31.2801 32.165 31.7851 31.4811C32.3111 30.7697 32.5762 29.7121 32.5762 28.336C32.5762 26.9599 32.3069 25.9341 31.7724 25.2991C31.2485 24.6748 30.6236 24.3711 29.8599 24.3711H29.862Z" fill="#1D1D1B"/>
<path d="M38.112 17.779H39.3008C39.6858 17.779 39.9972 18.0954 39.9972 18.4819V19.9133C39.9972 20.3019 39.6837 20.6162 39.3008 20.6162H38.1099C37.7248 20.6162 37.4135 20.2998 37.4135 19.9133V18.4819C37.4135 18.0933 37.727 17.7769 38.112 17.7769V17.779Z" fill="#1D1D1B"/>
<path d="M39.3028 20.7246H38.1119C37.6701 20.7246 37.3103 20.3614 37.3103 19.9154V18.4841C37.3103 18.0381 37.6701 17.6729 38.1119 17.6729H39.3028C39.7447 17.6729 40.1045 18.036 40.1045 18.4841V19.9154C40.1045 20.3614 39.7447 20.7246 39.3028 20.7246ZM38.1119 17.8852C37.7858 17.8852 37.5207 18.1528 37.5207 18.4841V19.9154C37.5207 20.2446 37.7858 20.5122 38.1119 20.5122H39.3028C39.629 20.5122 39.8941 20.2446 39.8941 19.9154V18.4841C39.8941 18.1549 39.629 17.8852 39.3028 17.8852H38.1119Z" fill="#1D1D1B"/>
<path d="M38.112 22.2048H39.3008C39.6858 22.2048 39.9972 22.5212 39.9972 22.9077V33.8042C39.9972 34.1929 39.6837 34.5072 39.3008 34.5072H38.1099C37.7248 34.5072 37.4135 34.1907 37.4135 33.8042V22.9077C37.4135 22.5191 37.727 22.2026 38.112 22.2026V22.2048Z" fill="#1D1D1B"/>
<path d="M39.3028 34.6155H38.1119C37.6701 34.6155 37.3103 34.2524 37.3103 33.8064V22.9099C37.3103 22.4639 37.6701 22.0986 38.1119 22.0986H39.3028C39.7447 22.0986 40.1045 22.4618 40.1045 22.9099V33.8064C40.1045 34.2524 39.7447 34.6155 39.3028 34.6155ZM38.1119 22.311C37.7858 22.311 37.5207 22.5786 37.5207 22.9099V33.8064C37.5207 34.1356 37.7858 34.4032 38.1119 34.4032H39.3028C39.629 34.4032 39.8941 34.1356 39.8941 33.8064V22.9099C39.8941 22.5807 39.629 22.311 39.3028 22.311H38.1119Z" fill="#1D1D1B"/>
<path d="M51.6725 22.2603H50.6689C50.2838 22.2603 49.9703 22.5767 49.9703 22.9653V22.9993C49.9703 23.0439 49.9514 23.0758 49.9114 23.0928C49.8925 23.1012 49.8378 23.1182 49.7873 23.0694C49.6274 22.9207 49.4654 22.7891 49.3076 22.6786L49.3034 22.6744C48.5775 22.1902 47.7211 21.9438 46.7554 21.9438C45.3267 21.9438 44.0937 22.5364 43.0901 23.7044C42.097 24.8618 41.592 26.4779 41.592 28.5123C41.592 30.6742 42.0991 32.2564 43.0985 33.2141C44.0937 34.1698 45.272 34.654 46.6039 34.654C47.5507 34.654 48.3313 34.4947 48.9204 34.1804C49.2045 34.0296 49.4738 33.8364 49.7178 33.6091C49.7452 33.5837 49.7789 33.5794 49.8167 33.5964C49.8336 33.6049 49.8862 33.6325 49.882 33.7005C49.8441 34.6774 49.7284 35.393 49.5411 35.8263C49.1266 36.784 48.2576 37.2491 46.8816 37.2491C46.021 37.2491 45.394 37.0559 45.0153 36.6778C44.826 36.4846 44.6829 36.217 44.5924 35.8793C44.5124 35.5799 44.2368 35.3697 43.9233 35.3697H42.7114C42.5031 35.3697 42.3074 35.4631 42.1749 35.6245C42.0402 35.788 41.9855 36.0004 42.0234 36.2085C42.2148 37.2512 42.7177 38.0497 43.5193 38.5828C44.4178 39.1795 45.535 39.4832 46.8374 39.4832C49.196 39.4832 50.8267 38.6231 51.6893 36.9242C52.1417 36.0216 52.371 34.7857 52.371 33.2524V22.9611C52.371 22.5725 52.0575 22.256 51.6725 22.256V22.2603ZM49.9703 28.2809C49.9703 29.2004 49.8188 30.0138 49.5201 30.6955C48.9983 31.8699 48.1188 32.4411 46.8353 32.4411C46.0295 32.4411 45.4067 32.1396 44.9333 31.5195C44.4472 30.8845 44.1989 29.9288 44.1989 28.678C44.1989 27.5928 44.3273 26.7094 44.5798 26.0531C45.0406 24.866 45.8696 24.2884 47.1173 24.2884C47.9505 24.2884 48.6153 24.5984 49.154 25.2377C49.6968 25.8811 49.9703 26.9069 49.9703 28.283V28.2809Z" fill="#1D1D1B"/>
<path d="M46.8353 39.5914C45.5119 39.5914 44.3757 39.2835 43.4583 38.674C42.6314 38.124 42.1139 37.3021 41.9161 36.2297C41.8719 35.9918 41.935 35.7455 42.0886 35.5586C42.2422 35.3717 42.4673 35.2655 42.7072 35.2655H43.9191C44.2789 35.2655 44.5966 35.5076 44.6892 35.8516C44.7755 36.1702 44.908 36.425 45.0848 36.6034C45.4424 36.9602 46.0463 37.1428 46.8774 37.1428C48.2072 37.1428 49.0467 36.699 49.4422 35.7837C49.6253 35.3611 49.7389 34.6581 49.7747 33.6961C49.5348 33.9212 49.2592 34.1187 48.9688 34.2738C48.365 34.5966 47.5675 34.7601 46.6018 34.7601C45.2426 34.7601 44.039 34.2653 43.0249 33.2926C42.0044 32.3136 41.4847 30.706 41.4847 28.5123C41.4847 26.4523 41.9981 24.8107 43.0081 23.6342C44.0327 22.4407 45.2931 21.8354 46.7533 21.8354C47.7401 21.8354 48.6153 22.0882 49.3581 22.583C49.5264 22.6998 49.6905 22.8336 49.8546 22.9886L49.8609 22.9652C49.8609 22.5193 50.2207 22.154 50.6647 22.154H51.6683C52.1102 22.154 52.472 22.5171 52.472 22.9652V33.2565C52.472 34.8068 52.2385 36.0576 51.7777 36.9751C50.8961 38.7122 49.2318 39.5914 46.8332 39.5914H46.8353ZM42.7072 35.4779C42.5305 35.4779 42.3642 35.5565 42.2506 35.6945C42.137 35.8325 42.0886 36.013 42.1223 36.1893C42.3074 37.2023 42.7956 37.9774 43.572 38.4956C44.4535 39.0817 45.5498 39.3791 46.8332 39.3791C49.1477 39.3791 50.7488 38.5381 51.5905 36.8795C52.0365 35.9918 52.2616 34.7728 52.2616 33.2565V22.9652C52.2616 22.6361 51.9965 22.3664 51.6683 22.3664H50.6647C50.3385 22.3664 50.0713 22.6339 50.0713 22.9652V22.9992C50.0713 23.0863 50.0272 23.1542 49.9514 23.1882C49.8904 23.2158 49.7936 23.2201 49.7136 23.1458C49.5579 22.9992 49.4001 22.8718 49.2465 22.7635C48.5354 22.2878 47.698 22.0478 46.7533 22.0478C45.3583 22.0478 44.1506 22.6276 43.168 23.7722C42.1917 24.9084 41.6951 26.5033 41.6951 28.5101C41.6951 30.6423 42.1917 32.1989 43.1701 33.1355C44.1443 34.0699 45.2994 34.5456 46.6018 34.5456C47.5318 34.5456 48.2955 34.3906 48.8699 34.0848C49.1456 33.9382 49.4065 33.7513 49.6442 33.5305C49.7031 33.4753 49.781 33.4625 49.8588 33.4986C49.9219 33.5284 49.9893 33.5963 49.9851 33.7025C49.9472 34.6921 49.8294 35.4205 49.6337 35.8665C49.2003 36.8668 48.2997 37.3531 46.8774 37.3531C45.9895 37.3531 45.3351 37.1513 44.9354 36.7521C44.7313 36.5461 44.5798 36.2615 44.4851 35.9047C44.4157 35.652 44.1842 35.4736 43.917 35.4736H42.7051L42.7072 35.4779ZM46.8353 32.5451C45.9958 32.5451 45.3457 32.2308 44.8491 31.5831C44.3483 30.929 44.0938 29.9521 44.0938 28.6758C44.0938 27.5778 44.2242 26.6817 44.4809 26.0127C44.9585 24.781 45.8212 24.18 47.1173 24.18C47.982 24.18 48.6743 24.5028 49.2339 25.1654C49.7936 25.8301 50.0755 26.877 50.0755 28.2787C50.0755 29.2131 49.9219 30.0413 49.6169 30.7357C49.0761 31.9526 48.1651 32.543 46.8374 32.543L46.8353 32.5451ZM47.1173 24.3923C45.918 24.3923 45.1205 24.9466 44.6766 26.0892C44.4283 26.7326 44.3042 27.6033 44.3042 28.6758C44.3042 29.9033 44.544 30.8377 45.0153 31.4535C45.4698 32.046 46.0652 32.3349 46.8353 32.3349C48.0725 32.3349 48.9204 31.7848 49.4233 30.6529C49.7158 29.9861 49.8651 29.1876 49.8651 28.2829C49.8651 26.9322 49.5979 25.9299 49.074 25.3055C48.5585 24.6918 47.9189 24.3945 47.1194 24.3945L47.1173 24.3923Z" fill="#1D1D1B"/>
<path d="M55.4534 17.779H56.6422C57.0272 17.779 57.3408 18.0954 57.3408 18.484V19.9154C57.3408 20.304 57.0272 20.6183 56.6443 20.6183H55.4534C55.0684 20.6183 54.7549 20.3019 54.7549 19.9133V18.4819C54.7549 18.0933 55.0684 17.7769 55.4534 17.7769V17.779Z" fill="#1D1D1B"/>
<path d="M56.6443 20.7246H55.4555C55.0136 20.7246 54.6517 20.3614 54.6517 19.9154V18.4841C54.6517 18.0381 55.0115 17.6729 55.4555 17.6729H56.6443C57.0861 17.6729 57.448 18.036 57.448 18.4841V19.9154C57.448 20.3614 57.0882 20.7246 56.6443 20.7246ZM55.4534 17.8852C55.1272 17.8852 54.86 18.1528 54.86 18.4841V19.9154C54.86 20.2446 55.1251 20.5122 55.4534 20.5122H56.6422C56.9683 20.5122 57.2355 20.2446 57.2355 19.9154V18.4841C57.2355 18.1549 56.9704 17.8852 56.6422 17.8852H55.4534Z" fill="#1D1D1B"/>
<path d="M55.4534 22.2048H56.6422C57.0272 22.2048 57.3408 22.5212 57.3408 22.9098V33.8064C57.3408 34.195 57.0272 34.5093 56.6443 34.5093H55.4534C55.0684 34.5093 54.7549 34.1929 54.7549 33.8042V22.9077C54.7549 22.5191 55.0684 22.2026 55.4534 22.2026V22.2048Z" fill="#1D1D1B"/>
<path d="M56.6443 34.6155H55.4555C55.0136 34.6155 54.6517 34.2524 54.6517 33.8064V22.9099C54.6517 22.4639 55.0115 22.0986 55.4555 22.0986H56.6443C57.0861 22.0986 57.448 22.4618 57.448 22.9099V33.8064C57.448 34.2524 57.0882 34.6155 56.6443 34.6155ZM55.4534 22.311C55.1272 22.311 54.86 22.5786 54.86 22.9099V33.8064C54.86 34.1356 55.1251 34.4032 55.4534 34.4032H56.6422C56.9683 34.4032 57.2355 34.1356 57.2355 33.8064V22.9099C57.2355 22.5807 56.9704 22.311 56.6422 22.311H55.4534Z" fill="#1D1D1B"/>
<path d="M69.0139 22.2606H68.0082C67.6232 22.2606 67.3118 22.577 67.3118 22.9635V22.9975C67.3118 23.0421 67.2928 23.0719 67.2529 23.0888C67.2339 23.0973 67.1792 23.1143 67.1287 23.0655C66.9688 22.9168 66.8068 22.7852 66.649 22.6747L66.6448 22.6705C65.9189 22.1863 65.0625 21.9399 64.0968 21.9399C62.6681 21.9399 61.4352 22.5324 60.4315 23.7005C59.4384 24.8579 58.9335 26.474 58.9335 28.5084C58.9335 30.6703 59.4405 32.2525 60.44 33.2124C61.4352 34.168 62.6134 34.6501 63.9453 34.6501C64.8942 34.6501 65.6727 34.4908 66.2618 34.1765C66.5459 34.0257 66.8131 33.8325 67.0593 33.6052C67.0866 33.5798 67.1203 33.5755 67.1582 33.5925C67.175 33.601 67.2276 33.6307 67.2234 33.6966C67.1855 34.6734 67.0698 35.3891 66.8825 35.8223C66.468 36.7801 65.5991 37.2452 64.223 37.2452C63.3625 37.2452 62.7355 37.052 62.3567 36.6761C62.1674 36.4828 62.0243 36.2152 61.9338 35.8776C61.8539 35.5781 61.5782 35.3679 61.2647 35.3679H60.0528C59.8445 35.3679 59.6488 35.4613 59.5163 35.6227C59.3816 35.7862 59.3269 35.9986 59.3648 36.2067C59.5563 37.2495 60.0591 38.048 60.8608 38.581C61.7592 39.1777 62.8764 39.4814 64.1788 39.4814C66.5375 39.4814 68.1681 38.6213 69.0308 36.9224C69.4831 36.0199 69.7125 34.786 69.7125 33.2506V22.9593C69.7125 22.5707 69.399 22.2564 69.016 22.2564L69.0139 22.2606ZM67.3118 28.2812C67.3118 29.2008 67.1603 30.0141 66.8615 30.6958C66.3397 31.8702 65.4623 32.4415 64.1767 32.4415C63.3709 32.4415 62.7481 32.1399 62.2747 31.5198C61.7887 30.8848 61.5404 29.9292 61.5404 28.6783C61.5404 27.5931 61.6687 26.7097 61.9212 26.0535C62.382 24.8664 63.211 24.2887 64.4587 24.2887C65.2919 24.2887 65.9568 24.5988 66.4954 25.238C67.0382 25.8815 67.3118 26.9072 67.3118 28.2833V28.2812Z" fill="#1D1D1B"/>
<path d="M64.1768 39.5919C62.8512 39.5919 61.715 39.284 60.7998 38.6745C59.975 38.1245 59.4553 37.3026 59.2575 36.2302C59.2133 35.9902 59.2764 35.746 59.43 35.5591C59.5836 35.3722 59.8088 35.266 60.0486 35.266H61.2605C61.6203 35.266 61.9381 35.5081 62.0306 35.8521C62.1169 36.1707 62.2495 36.4234 62.4262 36.6039C62.7839 36.9607 63.3877 37.1433 64.2188 37.1433C65.5486 37.1433 66.3881 36.6995 66.7837 35.7842C66.9667 35.3616 67.0782 34.6608 67.1161 33.6987C66.8678 33.9281 66.5964 34.1213 66.3102 34.2743C65.7064 34.597 64.909 34.7606 63.9432 34.7606C62.584 34.7606 61.3826 34.2658 60.3663 33.2931C59.3459 32.3141 58.8262 30.7044 58.8262 28.5127C58.8262 26.4528 59.3396 24.8112 60.3495 23.6347C61.3742 22.4412 62.6345 21.8359 64.0947 21.8359C65.0815 21.8359 65.9568 22.0887 66.7016 22.5835C66.8699 22.7003 67.034 22.8341 67.1982 22.9891L67.2045 22.9657C67.2045 22.5198 67.5643 22.1566 68.0061 22.1566H69.0118C69.4537 22.1566 69.8135 22.5198 69.8135 22.9657V33.257C69.8135 34.8073 69.5799 36.0581 69.1191 36.9756C68.2376 38.7127 66.5754 39.5919 64.1746 39.5919H64.1768ZM60.0507 35.4784C59.874 35.4784 59.7078 35.5569 59.5941 35.695C59.4805 35.833 59.4342 36.0135 59.4658 36.1919C59.6531 37.2049 60.1412 37.98 60.9176 38.4982C61.7992 39.0844 62.8954 39.3817 64.1789 39.3817C66.4933 39.3817 68.0945 38.5407 68.9361 36.8821C69.3822 35.9944 69.6073 34.7754 69.6073 33.2591V22.9679C69.6073 22.6387 69.3422 22.3711 69.016 22.3711H68.0103C67.6842 22.3711 67.4191 22.6387 67.4191 22.9679V23.0018C67.4191 23.0889 67.3749 23.1569 67.2992 23.1908C67.236 23.2184 67.1413 23.2227 67.0614 23.1462C66.9057 22.9997 66.7479 22.8723 66.5943 22.7661C65.8831 22.2904 65.0457 22.0504 64.101 22.0504C62.706 22.0504 61.4983 22.6302 60.5157 23.7748C59.5394 24.911 59.0429 26.5059 59.0429 28.5127C59.0429 30.6449 59.5394 32.2016 60.5178 33.1381C61.492 34.0725 62.6471 34.5482 63.9495 34.5482C64.8795 34.5482 65.6433 34.3932 66.2177 34.0874C66.4933 33.9408 66.7542 33.754 66.992 33.5331C67.0509 33.4779 67.1287 33.4651 67.2066 33.5012C67.2697 33.531 67.337 33.601 67.3328 33.7072C67.2949 34.6969 67.1771 35.4253 66.9814 35.8712C66.548 36.8715 65.6475 37.3578 64.2251 37.3578C63.3372 37.3578 62.6829 37.1561 62.2852 36.7568C62.0811 36.5508 61.9296 36.2663 61.835 35.9116C61.7676 35.6589 61.5341 35.4805 61.2669 35.4805H60.0549L60.0507 35.4784ZM64.1768 32.5456C63.3372 32.5456 62.6871 32.2313 62.1905 31.5836C61.6898 30.9295 61.4352 29.9505 61.4352 28.6763C61.4352 27.5783 61.5656 26.6821 61.8223 26.0132C62.2999 24.7815 63.1626 24.1805 64.4587 24.1805C65.3235 24.1805 66.0157 24.5033 66.5754 25.1658C67.135 25.8284 67.417 26.8775 67.417 28.2791C67.417 29.2136 67.2613 30.0397 66.9583 30.7362C66.4176 31.9531 65.5086 32.5435 64.1789 32.5435L64.1768 32.5456ZM64.4587 24.3928C63.2594 24.3928 62.462 24.9471 62.018 26.0896C61.7697 26.7331 61.6456 27.6038 61.6456 28.6763C61.6456 29.9037 61.8854 30.8382 62.3568 31.454C62.8112 32.0465 63.4046 32.3332 64.1768 32.3332C65.4139 32.3332 66.2619 31.7832 66.7647 30.6513C67.0572 29.9844 67.2066 29.1859 67.2066 28.2813C67.2066 26.9306 66.9394 25.9282 66.4155 25.3039C65.9 24.6901 65.2603 24.3928 64.4587 24.3928Z" fill="#1D1D1B"/>
<path d="M97.5805 21.8652C96.6316 21.8652 95.7921 22.1031 95.0893 22.5703C94.8642 22.7126 94.6433 22.8825 94.435 23.0778C94.3845 23.1246 94.334 23.1097 94.315 23.1012C94.2772 23.0842 94.2582 23.0524 94.2582 23.0099V22.9122C94.2582 22.5236 93.9447 22.2093 93.5618 22.2093H92.4488C92.0637 22.2093 91.7523 22.5257 91.7523 22.9122V38.4978C91.7523 38.8864 92.0658 39.2007 92.4488 39.2007H93.606C93.991 39.2007 94.3024 38.8843 94.3024 38.4978V33.9298C94.3024 33.8703 94.3424 33.8448 94.3655 33.8342C94.3887 33.8236 94.4329 33.813 94.4749 33.8512C94.6622 34.0275 94.8453 34.1719 95.0136 34.2781C95.6574 34.6964 96.457 34.9067 97.3911 34.9067C98.5778 34.9067 99.632 34.5329 100.528 33.796C101.927 32.6428 102.637 30.7188 102.637 28.0727C102.637 26.1083 102.144 24.5687 101.174 23.4941C100.196 22.4131 98.9881 21.8652 97.5847 21.8652H97.5805ZM100.028 28.2596C100.028 29.7207 99.7435 30.8229 99.1817 31.5385C98.6283 32.2415 97.9571 32.5834 97.126 32.5834C95.8931 32.5834 95.0683 32.0461 94.6033 30.9418C94.3508 30.345 94.2225 29.606 94.2225 28.7417C94.2225 27.6543 94.3529 26.7518 94.6075 26.0574C95.0662 24.8065 95.8889 24.1991 97.1239 24.1991C98.359 24.1991 99.1775 24.7725 99.6425 25.9554C99.8971 26.5904 100.025 27.3655 100.025 28.2596H100.028Z" fill="#1D1D1B"/>
<path d="M93.6018 39.3048H92.4446C92.0027 39.3048 91.6429 38.9417 91.6429 38.4957V22.9101C91.6429 22.4642 92.0027 22.101 92.4446 22.101H93.5576C93.9995 22.101 94.3593 22.4642 94.3593 22.9101V23.0078C94.576 22.7997 94.8011 22.6256 95.0305 22.4812C95.75 22.0033 96.6085 21.7612 97.5784 21.7612C99.0134 21.7612 100.246 22.3219 101.246 23.4262C102.235 24.5199 102.735 26.085 102.735 28.077C102.735 30.755 102.014 32.7087 100.589 33.881C99.6741 34.6349 98.5968 35.015 97.3849 35.015C96.4296 35.015 95.6112 34.7984 94.9505 34.3694C94.7738 34.259 94.5886 34.1104 94.3971 33.932L94.4034 38.5C94.4034 38.9459 94.0437 39.3091 93.6018 39.3091V39.3048ZM92.4446 22.3113C92.1185 22.3113 91.8533 22.5788 91.8533 22.908V38.4936C91.8533 38.8228 92.1185 39.0904 92.4446 39.0904H93.6018C93.9279 39.0904 94.193 38.8228 94.193 38.4936V33.9256C94.193 33.8406 94.2393 33.7684 94.3172 33.7323C94.3971 33.6984 94.4792 33.7132 94.5402 33.7706C94.7212 33.9405 94.8979 34.0806 95.0641 34.1847C95.6911 34.5924 96.4738 34.7984 97.387 34.7984C98.5484 34.7984 99.5815 34.4331 100.457 33.7111C101.831 32.5792 102.525 30.6828 102.525 28.0706C102.525 26.1339 102.043 24.6176 101.09 23.5642C100.133 22.5066 98.9503 21.9693 97.5784 21.9693C96.6506 21.9693 95.8321 22.2008 95.1441 22.6553C94.9231 22.7955 94.7064 22.9611 94.5023 23.1522C94.435 23.2138 94.3466 23.2287 94.2688 23.1926C94.193 23.1586 94.1489 23.0906 94.1489 23.0036V22.9059C94.1489 22.5767 93.8837 22.3091 93.5576 22.3091H92.4446V22.3113ZM97.1261 32.6896C95.8447 32.6896 94.9884 32.1311 94.5065 30.9843C94.2499 30.3748 94.1173 29.6209 94.1173 28.7438C94.1173 27.6438 94.2499 26.7285 94.5086 26.0213C94.9842 24.7237 95.8405 24.0951 97.124 24.0951C98.4074 24.0951 99.2596 24.6919 99.7414 25.9194C100 26.565 100.131 27.3528 100.131 28.2618C100.131 29.7483 99.8382 30.8718 99.2617 31.6065C98.6873 32.3371 97.9887 32.6917 97.124 32.6917L97.1261 32.6896ZM97.1261 24.3054C95.9415 24.3054 95.1504 24.8894 94.7085 26.0935C94.4582 26.7752 94.3298 27.6671 94.3298 28.7417C94.3298 29.5912 94.4539 30.3175 94.7022 30.8994C95.1462 31.9591 95.9394 32.4751 97.1282 32.4751C97.9235 32.4751 98.5694 32.146 99.0997 31.4706C99.6467 30.7762 99.9245 29.6952 99.9245 28.2575C99.9245 27.3762 99.7982 26.6159 99.5499 25.9937C99.1039 24.8554 98.3107 24.3033 97.1282 24.3033L97.1261 24.3054Z" fill="#1D1D1B"/>
<path d="M113.872 23.819C113.218 22.5236 111.972 21.8653 110.169 21.8653C109.172 21.8653 108.324 22.0925 107.646 22.5385C107.451 22.6659 107.24 22.84 107.023 23.0566C106.988 23.0928 106.948 23.0864 106.92 23.0758C106.901 23.0673 106.853 23.0397 106.853 22.9781V18.4292C106.853 18.0405 106.54 17.7241 106.154 17.7241H104.997C104.612 17.7241 104.299 18.0405 104.299 18.4292V33.8066C104.299 34.1953 104.612 34.5117 104.997 34.5117H106.154C106.54 34.5117 106.853 34.1953 106.853 33.8066V27.9729C106.853 26.5055 107.152 25.5074 107.739 25.0062C108.349 24.4859 109.008 24.231 109.754 24.231C110.626 24.231 111.196 24.4965 111.497 25.0423C111.69 25.3991 111.787 25.9894 111.787 26.7985V33.8066C111.787 34.1953 112.1 34.5117 112.486 34.5117H113.697C114.083 34.5117 114.396 34.1953 114.396 33.8066V26.6669C114.396 25.4691 114.221 24.5092 113.874 23.819H113.872Z" fill="#1D1D1B"/>
<path d="M113.697 34.616H112.486C112.044 34.616 111.682 34.2528 111.682 33.8047V26.7967C111.682 26.0045 111.589 25.4311 111.404 25.0913C111.124 24.5838 110.583 24.3374 109.754 24.3374C109.033 24.3374 108.395 24.5817 107.806 25.0871C107.244 25.567 106.958 26.5376 106.958 27.9732V33.8069C106.958 34.2528 106.598 34.6181 106.154 34.6181H104.997C104.555 34.6181 104.193 34.255 104.193 33.8069V18.4294C104.193 17.9834 104.553 17.6182 104.997 17.6182H106.154C106.596 17.6182 106.958 17.9813 106.958 18.4294V22.9783C107.171 22.7617 107.387 22.5833 107.589 22.4516C108.284 21.9929 109.151 21.7614 110.169 21.7614C112.014 21.7614 113.291 22.4389 113.965 23.7726C114.318 24.4797 114.497 25.4545 114.497 26.6692V33.809C114.497 34.255 114.137 34.6202 113.693 34.6202L113.697 34.616ZM109.757 24.1251C110.67 24.1251 111.269 24.4075 111.589 24.9894C111.791 25.3632 111.892 25.9705 111.892 26.7967V33.8047C111.892 34.1339 112.157 34.4036 112.486 34.4036H113.697C114.024 34.4036 114.291 34.136 114.291 33.8047V26.665C114.291 25.4842 114.118 24.5413 113.779 23.8639C113.144 22.6067 111.93 21.9674 110.171 21.9674C109.195 21.9674 108.366 22.1883 107.707 22.6236C107.516 22.7489 107.312 22.9167 107.099 23.1291C107.04 23.1885 106.96 23.2034 106.88 23.1694C106.798 23.1354 106.75 23.059 106.75 22.9719V18.423C106.75 18.0939 106.485 17.8242 106.157 17.8242H104.999C104.673 17.8242 104.406 18.0917 104.406 18.423V33.8005C104.406 34.1297 104.671 34.3994 104.999 34.3994H106.157C106.483 34.3994 106.75 34.1318 106.75 33.8005V27.9668C106.75 26.4675 107.059 25.4418 107.671 24.9193C108.301 24.382 108.982 24.1187 109.757 24.1187V24.1251Z" fill="#1D1D1B"/>
<path d="M77.832 21.9288C77.832 21.9288 77.8172 21.9288 77.8046 21.9309C77.7688 21.9288 77.7247 21.9266 77.67 21.9266C77.6279 21.9266 77.5921 21.9245 77.5648 21.9203C77.5332 21.9181 77.5079 21.916 77.4869 21.916C76.6432 21.916 75.8899 22.2261 75.2461 22.8398C74.9831 23.0904 74.758 23.3304 74.577 23.5512V22.7888C74.577 22.4533 74.3056 22.1794 73.9732 22.1794H72.7865C72.454 22.1794 72.1826 22.4533 72.1826 22.7888V33.8701C72.1826 34.2057 72.454 34.4796 72.7865 34.4796H74.072C74.4045 34.4796 74.6759 34.2057 74.6759 33.8701V27.4567C74.6759 27.2443 74.6927 27.0638 74.7306 26.9024C75.0925 25.3139 75.9909 24.5409 77.4764 24.5409C77.5858 24.5409 77.6868 24.5451 77.7773 24.5515C77.8088 24.5515 77.8404 24.5515 77.8719 24.543C77.994 24.5557 78.1181 24.5175 78.2149 24.4368C78.3243 24.3455 78.3874 24.2117 78.3874 24.0694V22.3577C78.3874 22.2367 78.3327 22.1199 78.238 22.0371C78.1307 21.9457 77.9792 21.9033 77.8341 21.9288H77.832Z" fill="#1D1D1B"/>
<path d="M74.072 34.586H72.7865C72.3951 34.586 72.0774 34.2654 72.0774 33.8704V22.7891C72.0774 22.3941 72.3951 22.0734 72.7865 22.0734H73.9731C74.3645 22.0734 74.6822 22.3941 74.6822 22.7891V23.269C74.8274 23.1076 74.9915 22.9377 75.1745 22.7636C75.8373 22.1307 76.6158 21.8101 77.4869 21.8101C77.51 21.8101 77.5395 21.8101 77.5753 21.8164C77.6005 21.8186 77.6321 21.8207 77.6699 21.8207C77.7267 21.8207 77.7751 21.8207 77.813 21.8249L77.8319 21.9269L77.8151 21.8228C77.9897 21.7931 78.1728 21.844 78.3032 21.9566C78.4232 22.0585 78.4905 22.2051 78.4905 22.358V24.0696C78.4905 24.2438 78.4127 24.4094 78.2801 24.5199C78.1644 24.6154 78.0234 24.6621 77.8782 24.6515C77.8446 24.6579 77.8088 24.66 77.7709 24.6579C77.6805 24.6515 77.5816 24.6473 77.4764 24.6473C76.0477 24.6473 75.183 25.3927 74.8337 26.926C74.7979 27.0789 74.7811 27.253 74.7811 27.4569V33.8704C74.7811 34.2654 74.4634 34.586 74.072 34.586ZM72.7865 22.2858C72.5108 22.2858 72.2878 22.5109 72.2878 22.7891V33.8704C72.2878 34.1486 72.5108 34.3737 72.7865 34.3737H74.072C74.3477 34.3737 74.5707 34.1486 74.5707 33.8704V27.4569C74.5707 27.236 74.5896 27.047 74.6275 26.8793C75.002 25.2355 75.9341 24.4349 77.4764 24.4349C77.5879 24.4349 77.691 24.4392 77.7857 24.4455C77.8067 24.4455 77.8277 24.4455 77.8467 24.4413L77.8656 24.437H77.8845C77.9792 24.4498 78.0739 24.42 78.1497 24.3563C78.2338 24.2863 78.2843 24.1822 78.2843 24.0696V22.358C78.2843 22.2666 78.2422 22.1796 78.1707 22.118C78.0865 22.0458 77.9687 22.0139 77.853 22.033C77.853 22.033 77.8341 22.0352 77.8193 22.0373C77.7688 22.0352 77.7288 22.033 77.6762 22.0352C77.6279 22.0352 77.59 22.0309 77.5605 22.0288C77.5332 22.0267 77.51 22.0245 77.4932 22.0245C76.6789 22.0245 75.9488 22.3261 75.326 22.9207C75.0672 23.1671 74.8442 23.4049 74.6654 23.6237L74.4781 23.8509V22.7933C74.4781 22.5151 74.2551 22.29 73.9794 22.29H72.7928L72.7865 22.2858Z" fill="#1D1D1B"/>
<path d="M89.8776 32.4477C89.8187 32.4477 89.7703 32.4519 89.7282 32.4583C89.7072 32.4626 89.684 32.4647 89.6504 32.4647C89.5241 32.4647 89.4652 32.4477 89.4442 32.4392C89.421 32.3967 89.3979 32.3224 89.3979 32.1907V25.4141C89.3979 24.1569 88.9055 23.2119 87.9335 22.6087C87.0182 22.0438 85.8252 21.7593 84.3882 21.7593C83.1363 21.7593 82.0169 22.0672 81.0617 22.6746C80.1548 23.2501 79.6309 24.2227 79.5047 25.5649C79.4836 25.7942 79.5594 26.0236 79.713 26.1935C79.8645 26.3613 80.0812 26.459 80.3063 26.459H81.3647C81.7497 26.459 82.08 26.185 82.1516 25.807C82.2231 25.4184 82.3388 25.121 82.4924 24.9214C82.8375 24.4691 83.4624 24.2397 84.3461 24.2397C85.1477 24.2397 85.76 24.3714 86.1661 24.6326C86.5196 24.8598 86.6921 25.2293 86.6921 25.7624C86.6921 26.0937 86.6437 26.2636 86.6016 26.3485C86.5111 26.5397 86.3176 26.6501 86.0104 26.6904L82.888 27.0854C81.716 27.2341 80.7503 27.6397 80.0181 28.2917C79.2564 28.9691 78.8693 29.9227 78.8693 31.1289C78.8693 32.2332 79.2564 33.1676 80.0223 33.9067C80.7818 34.6393 81.7665 35.011 82.949 35.011C83.9084 35.011 84.8006 34.8007 85.6022 34.3845C86.1114 34.1211 86.5532 33.8196 86.9151 33.4883C86.9151 33.4904 86.9193 33.4947 86.9214 33.4989C86.9824 33.6709 87.054 33.8238 87.136 33.9576C87.519 34.5629 88.127 34.8708 88.9434 34.8708C89.2401 34.8708 89.4736 34.8581 89.6567 34.8326C90.0501 34.7774 90.391 34.5204 90.5782 34.1318C90.5867 34.1169 90.5951 34.0999 90.5993 34.085C90.6414 33.981 90.6708 33.8663 90.6835 33.7453C90.7003 33.6263 90.7087 33.4947 90.7087 33.346C90.7403 33.0317 90.6792 32.7938 90.5278 32.6388C90.3805 32.488 90.1511 32.4222 89.8755 32.4477H89.8776ZM86.6374 28.8736V29.8228C86.6374 30.8762 86.1766 31.6152 85.2298 32.0803C84.6428 32.3734 84.0305 32.5199 83.4056 32.5199C82.928 32.5199 82.5282 32.3882 82.1852 32.1143C81.8717 31.8637 81.7181 31.5281 81.7181 31.0864C81.7181 30.4875 81.9496 30.0649 82.423 29.7952C82.7323 29.619 83.2204 29.4831 83.8769 29.396L85.0572 29.2431C85.436 29.1985 85.8273 29.1199 86.2229 29.0116C86.3723 28.9712 86.5154 28.9245 86.6374 28.8736Z" fill="#1D1D1B"/>
<path d="M82.949 35.1193C81.7391 35.1193 80.7292 34.7371 79.9486 33.9853C79.1617 33.225 78.764 32.2651 78.764 31.1311C78.764 29.893 79.1617 28.9118 79.9486 28.2132C80.6977 27.5463 81.6823 27.1322 82.8753 26.9814L85.9977 26.5864C86.267 26.5503 86.4333 26.459 86.5069 26.304C86.5364 26.2424 86.5869 26.0895 86.5869 25.7646C86.5869 25.2719 86.4312 24.9321 86.1114 24.724C85.7221 24.4734 85.1288 24.346 84.3482 24.346C83.4981 24.346 82.9027 24.5604 82.5787 24.9852C82.4335 25.1721 82.3262 25.4545 82.2567 25.8262C82.1768 26.253 81.8023 26.5652 81.3667 26.5652H80.3084C80.0538 26.5652 79.8097 26.4548 79.6372 26.2658C79.4647 26.0746 79.3784 25.8155 79.4016 25.5564C79.532 24.1803 80.0706 23.1822 81.0069 22.5876C81.979 21.9696 83.1173 21.6553 84.3902 21.6553C85.8483 21.6553 87.0582 21.9462 87.9903 22.5217C88.996 23.1461 89.5052 24.1209 89.5052 25.4184V32.195C89.5052 32.2715 89.5136 32.3225 89.522 32.3543C89.5472 32.3586 89.5893 32.3628 89.6503 32.3628C89.6777 32.3628 89.6945 32.3607 89.7114 32.3564C89.7555 32.3501 89.8103 32.3458 89.8713 32.3437C90.1764 32.3161 90.4352 32.3947 90.6035 32.5667C90.7781 32.7451 90.8496 33.0126 90.8139 33.3588C90.8139 33.5032 90.8055 33.6391 90.7865 33.7644C90.7739 33.8918 90.7423 34.0171 90.6961 34.1297C90.6897 34.1446 90.6813 34.1658 90.6708 34.1849C90.473 34.5969 90.0985 34.8815 89.6714 34.9409C89.482 34.9664 89.2443 34.9792 88.9434 34.9792C88.087 34.9792 87.4495 34.6564 87.0476 34.0171C86.9824 33.9131 86.9256 33.7984 86.873 33.671C86.5258 33.9683 86.1156 34.2401 85.6506 34.4822C84.8342 34.907 83.9252 35.1214 82.949 35.1214V35.1193ZM84.3461 24.1336C85.1666 24.1336 85.7979 24.2716 86.2229 24.5435C86.61 24.7919 86.7973 25.1912 86.7973 25.7624C86.7973 26.0449 86.7636 26.2573 86.6963 26.3953C86.5911 26.6204 86.3701 26.7499 86.0251 26.7967L82.9027 27.1917C81.7518 27.3382 80.805 27.7353 80.0896 28.3724C79.3511 29.0286 78.9765 29.9567 78.9765 31.1311C78.9765 32.2056 79.3532 33.1146 80.0959 33.8324C80.8365 34.5459 81.796 34.9091 82.9511 34.9091C83.8937 34.9091 84.7711 34.7031 85.5559 34.2932C86.0566 34.0341 86.4901 33.7368 86.8457 33.4119L86.9235 33.3418L87.0098 33.4374L87.0224 33.4692C87.0792 33.6328 87.1486 33.7793 87.2265 33.9046C87.5884 34.4758 88.167 34.7668 88.9455 34.7668C89.238 34.7668 89.4652 34.754 89.644 34.7307C90.008 34.6797 90.3131 34.4461 90.4856 34.0893C90.4941 34.0745 90.5004 34.0617 90.5025 34.0511C90.5425 33.9534 90.5677 33.8494 90.5803 33.7389C90.5972 33.62 90.6056 33.4947 90.6056 33.3503C90.635 33.0572 90.5845 32.8491 90.4541 32.7175C90.3321 32.5922 90.1301 32.5369 89.886 32.5582H89.8776C89.825 32.5582 89.7808 32.5624 89.7429 32.5688C89.7198 32.573 89.6903 32.5773 89.6503 32.5773C89.5157 32.5773 89.4441 32.5582 89.4063 32.5433L89.3705 32.5284L89.3516 32.4945C89.3137 32.4223 89.2927 32.3225 89.2927 32.195V25.4184C89.2927 24.1994 88.8171 23.2862 87.8787 22.7022C86.9803 22.148 85.8063 21.8676 84.3881 21.8676C83.1552 21.8676 82.0548 22.1692 81.1164 22.766C80.239 23.3245 79.7319 24.2695 79.6078 25.5756C79.5888 25.7752 79.654 25.9748 79.7887 26.1213C79.9213 26.2679 80.1085 26.3528 80.3042 26.3528H81.3625C81.6971 26.3528 81.9853 26.115 82.0463 25.7879C82.1221 25.3844 82.242 25.0701 82.4082 24.8556C82.7743 24.3778 83.4266 24.1336 84.344 24.1336H84.3461ZM83.4056 32.6261C82.9027 32.6261 82.484 32.486 82.12 32.1972C81.7791 31.9253 81.6129 31.5622 81.6129 31.0844C81.6129 30.443 81.8612 29.9907 82.3725 29.7018C82.6923 29.5192 83.1952 29.379 83.8621 29.2899L85.0425 29.137C85.417 29.0924 85.8042 29.0159 86.1934 28.9076C86.3533 28.863 86.4838 28.8205 86.5974 28.7738L86.7426 28.7143V29.8208C86.7426 30.9187 86.2628 31.6896 85.276 32.1738C84.6764 32.4732 84.0473 32.624 83.4056 32.624V32.6261ZM86.5322 29.0265C86.448 29.0563 86.3533 29.0839 86.2502 29.1136C85.8504 29.2219 85.4549 29.3026 85.0698 29.3472L83.8916 29.5001C83.2499 29.5872 82.7743 29.7167 82.4777 29.8866C82.0379 30.1351 81.8254 30.528 81.8254 31.0844C81.8254 31.4921 81.9643 31.8022 82.2525 32.0294C82.5766 32.2864 82.9553 32.4116 83.4077 32.4116C84.0157 32.4116 84.6133 32.2672 85.1856 31.9827C86.0945 31.5367 86.5343 30.8295 86.5343 29.8208V29.0244L86.5322 29.0265Z" fill="#1D1D1B"/>
<path d="M19.8172 34.5774C19.1965 34.5774 18.6936 34.3883 18.3065 34.0082C17.9341 33.6153 17.7489 33.1014 17.7489 32.4686V29.3064C17.7489 28.6035 17.406 28.2531 16.7158 28.2531H13.2C12.5793 28.2531 12.0764 28.0619 11.6893 27.6839C11.3169 27.2911 11.1317 26.7771 11.1317 26.1443C11.1317 25.5114 11.319 25.006 11.6893 24.628C12.0764 24.2351 12.5793 24.0376 13.2 24.0376H19.8172C20.4379 24.0376 20.9344 24.2351 21.3069 24.628C21.6919 25.006 21.8855 25.5135 21.8855 26.1443V32.4686C21.8855 33.1014 21.6919 33.6153 21.3069 34.0082C20.9344 34.3883 20.4379 34.5774 19.8172 34.5774Z" fill="#1D1D1B"/>
<path d="M19.8172 34.6836C19.1713 34.6836 18.6389 34.4818 18.2329 34.0847C17.8415 33.6706 17.6437 33.1291 17.6437 32.4707V29.3086C17.6437 28.663 17.3492 28.3614 16.7158 28.3614H13.2C12.5541 28.3614 12.0217 28.1597 11.6156 27.7626C11.2222 27.3463 11.0244 26.8048 11.0244 26.1465C11.0244 25.4881 11.2222 24.953 11.6135 24.5558C12.0196 24.1417 12.5519 23.9336 13.1979 23.9336H19.8151C20.4631 23.9336 20.9892 24.1438 21.3805 24.558C21.7824 24.953 21.9886 25.4881 21.9886 26.1465V32.4707C21.9886 33.1291 21.7824 33.6727 21.3784 34.0847C20.9871 34.484 20.461 34.6857 19.813 34.6857L19.8172 34.6836ZM13.2 24.1438C12.6109 24.1438 12.129 24.3328 11.765 24.7045C11.4137 25.0613 11.2369 25.5455 11.2369 26.1465C11.2369 26.7475 11.4158 27.2401 11.7671 27.6118C12.129 27.9664 12.613 28.1491 13.2021 28.1491H16.7179C17.4628 28.1491 17.8562 28.5504 17.8562 29.3086V32.4707C17.8562 33.0717 18.0351 33.5644 18.3844 33.9361C18.7462 34.2907 19.2281 34.4734 19.8172 34.4734C20.4063 34.4734 20.8818 34.2928 21.2332 33.9361C21.5972 33.5665 21.7824 33.0739 21.7824 32.4729V26.1486C21.7824 25.5497 21.5972 25.0655 21.2353 24.7087C20.8818 24.335 20.4063 24.1481 19.8193 24.1481H13.2021L13.2 24.1438Z" fill="#1D1D1B"/>
<path d="M13.6123 34.5774H4.92472C4.30403 34.5774 3.80116 34.3884 3.41402 34.0082C3.0416 33.6154 2.85645 33.1014 2.85645 32.4686V19.8222C2.85645 19.1893 3.04371 18.6817 3.41402 18.3037C3.80116 17.9087 4.30403 17.7134 4.92472 17.7134L16.7158 17.69C17.4059 17.69 17.7488 17.3396 17.7488 16.6367V13.432C17.7488 12.7992 17.9361 12.2874 18.3085 11.8924C18.6936 11.5122 19.1985 11.3232 19.8171 11.3232C20.4357 11.3232 20.9344 11.5144 21.3068 11.8924C21.6939 12.2853 21.8854 12.7992 21.8854 13.432V19.8222C21.8854 20.455 21.6918 20.9668 21.3068 21.3597C20.9344 21.7398 20.4378 21.9288 19.8171 21.9288H8.02818C7.33805 21.9288 6.99299 22.2792 6.99299 22.9822V29.3064C6.99299 30.0094 7.33805 30.3598 8.02818 30.3598H13.6123C14.233 30.3598 14.7295 30.5573 15.102 30.9523C15.4891 31.3303 15.6806 31.8357 15.6806 32.4686C15.6806 33.1014 15.487 33.6154 15.102 34.0082C14.7295 34.3884 14.233 34.5774 13.6123 34.5774Z" fill="#1D1D1B"/>
<path d="M13.6123 34.6836H4.9247C4.27875 34.6836 3.74433 34.4819 3.34035 34.0848C2.9469 33.6706 2.75122 33.1291 2.75122 32.4708V19.8243C2.75122 19.166 2.949 18.6287 3.34035 18.2316C3.74433 17.8196 4.27665 17.6094 4.9247 17.6094L16.7136 17.586C17.347 17.586 17.6415 17.2844 17.6415 16.6388V13.4342C17.6415 12.7759 17.8393 12.2344 18.2307 11.8224C18.6367 11.421 19.1691 11.2192 19.815 11.2192C20.4609 11.2192 20.9869 11.421 21.3804 11.8202C21.7844 12.2322 21.9906 12.7759 21.9906 13.4342V19.8243C21.9906 20.4827 21.7844 21.0263 21.3804 21.4362C20.989 21.8354 20.463 22.0372 19.815 22.0372H8.02605C7.39274 22.0372 7.09607 22.3388 7.09607 22.9844V29.3086C7.09607 29.9542 7.39063 30.2558 8.02605 30.2558H13.6102C14.2582 30.2558 14.7842 30.466 15.1756 30.8801C15.5775 31.273 15.7837 31.8103 15.7837 32.4686C15.7837 33.127 15.5775 33.6706 15.1735 34.0826C14.7842 34.4819 14.2582 34.6836 13.6102 34.6836H13.6123ZM19.8171 11.4316C19.228 11.4316 18.744 11.6121 18.3821 11.971C18.0329 12.3384 17.854 12.8332 17.854 13.4342V16.6388C17.854 17.397 17.4606 17.7984 16.7157 17.7984L4.9268 17.8217C4.33767 17.8217 3.85374 18.0086 3.49184 18.3802C3.14047 18.737 2.96373 19.2233 2.96373 19.8243V32.4708C2.96373 33.0718 3.14257 33.5645 3.49395 33.9361C3.85584 34.2908 4.33767 34.4734 4.9289 34.4734H13.6165C14.2056 34.4734 14.6811 34.2929 15.0304 33.9361C15.3944 33.5666 15.5796 33.0739 15.5796 32.4729C15.5796 31.8719 15.3944 31.3877 15.0325 31.033C14.679 30.6593 14.2035 30.4703 13.6165 30.4703H8.03236C7.28753 30.4703 6.89197 30.0689 6.89197 29.3108V22.9865C6.89197 22.2283 7.28543 21.827 8.03236 21.827H19.8213C20.4189 21.827 20.8817 21.6507 21.2373 21.2897C21.6013 20.9201 21.7865 20.4275 21.7865 19.8265V13.4363C21.7865 12.8353 21.6013 12.3427 21.2373 11.9731C20.8817 11.6121 20.4189 11.4359 19.8213 11.4359L19.8171 11.4316Z" fill="#1D1D1B"/>
<path d="M3.65396 39.8891H2.80603V37.9014H3.65396C3.77599 37.9014 3.87699 37.9184 3.95904 37.9438C4.09791 37.9906 4.20943 38.0734 4.29359 38.1966C4.36302 38.2964 4.40931 38.4026 4.43456 38.5172C4.45981 38.6319 4.47243 38.7423 4.47243 38.8464C4.47243 39.1097 4.41983 39.3348 4.31463 39.5175C4.17155 39.7638 3.95273 39.8891 3.65606 39.8891H3.65396ZM3.95904 38.4089C3.89592 38.3006 3.77179 38.2475 3.58453 38.2475H3.2058V39.5451H3.58453C3.7781 39.5451 3.91486 39.4474 3.99061 39.2563C4.03269 39.1501 4.05373 39.0248 4.05373 38.8783C4.05373 38.6765 4.02217 38.5215 3.96115 38.411L3.95904 38.4089Z" fill="#1D1D1B"/>
<path d="M4.81116 37.9014H5.21934V39.8891H4.81116V37.9014Z" fill="#1D1D1B"/>
<path d="M6.8732 39.8403C6.76379 39.9082 6.63124 39.9422 6.47343 39.9422C6.21253 39.9422 5.99792 39.8509 5.8317 39.6683C5.65707 39.4856 5.5708 39.235 5.5708 38.9165C5.5708 38.5979 5.65917 38.3367 5.83381 38.1435C6.00844 37.9502 6.24199 37.8525 6.53024 37.8525C6.78062 37.8525 6.98051 37.9162 7.1341 38.0437C7.28559 38.1711 7.37396 38.3325 7.395 38.5236H6.99103C6.95947 38.3877 6.88372 38.2921 6.76169 38.239C6.69436 38.2093 6.61861 38.1944 6.53656 38.1944C6.37875 38.1944 6.2483 38.2539 6.1452 38.375C6.04421 38.496 5.99161 38.6786 5.99161 38.9207C5.99161 39.1628 6.04631 39.3391 6.15783 39.4389C6.26934 39.5387 6.39348 39.5918 6.53445 39.5918C6.67542 39.5918 6.78483 39.5515 6.8732 39.4708C6.96157 39.3901 7.01628 39.2839 7.03521 39.1543H6.57864V38.8231H7.39921V39.8891H7.12779L7.08571 39.6407C7.00576 39.7341 6.93632 39.8021 6.8711 39.8403H6.8732Z" fill="#1D1D1B"/>
<path d="M7.82422 37.9014H8.2324V39.8891H7.82422V37.9014Z" fill="#1D1D1B"/>
<path d="M10.1112 37.9014V38.2539H9.52209V39.8891H9.10759V38.2539H8.51636V37.9014H10.1112Z" fill="#1D1D1B"/>
<path d="M11.3652 39.4789H10.6394L10.5026 39.8867H10.0734L10.7761 37.8989H11.2411L11.9375 39.8867H11.4915L11.3652 39.4789ZM11.2495 39.137L11.0034 38.3555L10.7488 39.137H11.2474H11.2495Z" fill="#1D1D1B"/>
<path d="M12.2511 37.901H12.6635V39.5299H13.6377V39.8867H12.2511V37.8989V37.901Z" fill="#1D1D1B"/>
<path d="M15.5943 39.1731H15.1756V39.8867H14.7675V37.8989H15.6238C15.8216 37.8989 15.9794 37.9499 16.0972 38.0518C16.215 38.1538 16.274 38.313 16.274 38.5275C16.274 38.7611 16.215 38.9289 16.0972 39.0245C15.9794 39.12 15.8111 39.171 15.5943 39.171V39.1731ZM15.7879 38.759C15.8405 38.7123 15.8679 38.6358 15.8679 38.5318C15.8679 38.4277 15.8405 38.3555 15.7879 38.3109C15.7353 38.2663 15.6575 38.2451 15.5607 38.2451H15.1777V38.8291H15.5607C15.6575 38.8291 15.7332 38.8057 15.7879 38.7569V38.759Z" fill="#1D1D1B"/>
<path d="M17.4817 39.1097H17.0567V39.8891H16.6548V37.9014H17.6205C17.7594 37.9035 17.8646 37.9205 17.9383 37.9523C18.0119 37.9842 18.075 38.0309 18.1276 38.0904C18.1697 38.1413 18.2034 38.1966 18.2286 38.2581C18.2539 38.3197 18.2665 38.3898 18.2665 38.4663C18.2665 38.5597 18.2433 38.6531 18.1949 38.7445C18.1487 38.8358 18.0708 38.8995 17.9614 38.9377C18.0519 38.9738 18.1171 39.0269 18.155 39.0949C18.1928 39.1628 18.2118 39.2669 18.2118 39.4049V39.5387C18.2118 39.63 18.216 39.6916 18.2223 39.7235C18.2328 39.7744 18.2581 39.8127 18.298 39.836V39.8849H17.8457C17.833 39.8403 17.8246 39.8063 17.8183 39.7787C17.8078 39.7235 17.8015 39.6661 17.8015 39.6067V39.4219C17.7973 39.2945 17.7741 39.2117 17.73 39.1692C17.6858 39.1267 17.6037 39.1055 17.4817 39.1055V39.1097ZM17.7321 38.7487C17.8141 38.7105 17.8541 38.6362 17.8541 38.5257C17.8541 38.4047 17.8141 38.324 17.7363 38.2836C17.6921 38.2603 17.6247 38.2475 17.5364 38.2475H17.0588V38.7806H17.5238C17.6163 38.7806 17.6858 38.7699 17.7321 38.7487Z" fill="#1D1D1B"/>
<path d="M18.6516 37.9014H19.0598V39.8891H18.6516V37.9014Z" fill="#1D1D1B"/>
<path d="M21.0986 39.8891H20.6862L19.8824 38.4769V39.8891H19.4995V37.9014H19.9308L20.7156 39.2881V37.9014H21.0986V39.8891Z" fill="#1D1D1B"/>
<path d="M22.9754 37.9014V38.2539H22.3862V39.8891H21.9717V38.2539H21.3805V37.9014H22.9754Z" fill="#1D1D1B"/>
<path d="M24.9721 39.9442C24.6901 39.9442 24.4755 39.8678 24.3261 39.7127C24.1262 39.5237 24.0273 39.2498 24.0273 38.893C24.0273 38.5362 24.1262 38.2559 24.3261 38.0733C24.4755 37.9182 24.6901 37.8418 24.9721 37.8418C25.254 37.8418 25.4686 37.9182 25.618 38.0733C25.8158 38.2559 25.9168 38.5299 25.9168 38.893C25.9168 39.2562 25.8179 39.5237 25.618 39.7127C25.4686 39.8678 25.254 39.9442 24.9721 39.9442ZM25.3613 39.4091C25.456 39.288 25.5044 39.116 25.5044 38.8909C25.5044 38.6658 25.456 38.4959 25.3613 38.3748C25.2645 38.2538 25.1362 38.1922 24.9742 38.1922C24.8122 38.1922 24.6817 38.2538 24.5849 38.3748C24.4881 38.4959 24.4397 38.6679 24.4397 38.893C24.4397 39.1181 24.4881 39.2901 24.5849 39.4112C24.6817 39.5322 24.8122 39.5938 24.9742 39.5938C25.1362 39.5938 25.2666 39.5322 25.3634 39.4112L25.3613 39.4091Z" fill="#1D1D1B"/>
<path d="M27.8841 39.8891H27.4717L26.668 38.4769V39.8891H26.285V37.9014H26.7164L27.5012 39.2881V37.9014H27.8841V39.8891Z" fill="#1D1D1B"/>
<path d="M30.0008 39.8891H29.1528V37.9014H30.0008C30.1228 37.9014 30.2238 37.9184 30.3058 37.9438C30.4447 37.9906 30.5562 38.0734 30.6404 38.1966C30.7098 38.2964 30.7561 38.4026 30.7814 38.5172C30.8066 38.6319 30.8192 38.7423 30.8192 38.8464C30.8192 39.1097 30.7666 39.3348 30.6614 39.5175C30.5184 39.7638 30.2995 39.8891 30.0029 39.8891H30.0008ZM30.308 38.4089C30.2448 38.3006 30.1207 38.2475 29.9334 38.2475H29.5547V39.5451H29.9334C30.127 39.5451 30.2638 39.4474 30.3395 39.2563C30.3816 39.1501 30.4026 39.0248 30.4026 38.8783C30.4026 38.6765 30.3711 38.5215 30.3101 38.411L30.308 38.4089Z" fill="#1D1D1B"/>
<path d="M32.5613 39.0205H31.6061V39.5323H32.696V39.8891H31.2042V37.9014H32.6476V38.2539H31.6061V38.6765H32.5613V39.0205Z" fill="#1D1D1B"/>
<path d="M33.4556 39.8891H33.0726V37.9014H33.6702L34.0279 39.4644L34.3834 37.9014H34.9747V39.8891H34.5917V38.5448C34.5917 38.5066 34.5917 38.4514 34.5917 38.3813C34.5917 38.3112 34.5917 38.2581 34.5917 38.2199L34.2193 39.887H33.8196L33.4493 38.2199C33.4493 38.2581 33.4493 38.3112 33.4493 38.3813C33.4493 38.4514 33.4493 38.5045 33.4493 38.5448V39.8891H33.4556Z" fill="#1D1D1B"/>
<path d="M36.5737 39.4789H35.8478L35.7111 39.8867H35.2819L35.9846 37.8989H36.4496L37.146 39.8867H36.7L36.5737 39.4789ZM36.458 39.137L36.2118 38.3555L35.9573 39.137H36.4559H36.458Z" fill="#1D1D1B"/>
<path d="M39.0502 39.8891H38.6379L37.8341 38.4769V39.8891H37.4512V37.9014H37.8825L38.6673 39.2881V37.9014H39.0502V39.8891Z" fill="#1D1D1B"/>
<path d="M40.3443 39.8891H39.4963V37.9014H40.3443C40.4663 37.9014 40.5673 37.9184 40.6494 37.9438C40.7882 37.9906 40.8997 38.0734 40.9839 38.1966C41.0533 38.2964 41.0996 38.4026 41.1249 38.5172C41.1501 38.6319 41.1627 38.7423 41.1627 38.8464C41.1627 39.1097 41.1101 39.3348 41.0049 39.5175C40.8619 39.7638 40.643 39.8891 40.3464 39.8891H40.3443ZM40.6515 38.4089C40.5883 38.3006 40.4642 38.2475 40.2769 38.2475H39.8982V39.5451H40.2769C40.4705 39.5451 40.6073 39.4474 40.683 39.2563C40.7251 39.1501 40.7461 39.0248 40.7461 38.8783C40.7461 38.6765 40.7146 38.5215 40.6536 38.411L40.6515 38.4089Z" fill="#1D1D1B"/>
</svg>
