<svg preserveAspectRatio="none" width="100%" height="100%" overflow="visible" style="display: block;" viewBox="0 0 9 2" fill="none" xmlns="http://www.w3.org/2000/svg">
<g id="Group">
<path id="Vector" d="M1.59065 0.0530917L0.993108 1.18076V1.86033H0.618589V1.18076L3.20421e-07 0.0530917H0.439744L0.812157 0.838849L1.16774 0.0530917H1.59065Z" fill="var(--fill-0, #1D1D1B)"/>
<path id="Vector_2" d="M3.05086 1.07033H2.18189V1.53541H3.17289V1.86033H1.81789V0.0552158H3.13082V0.375889H2.184V0.760272H3.05296V1.07458L3.05086 1.07033Z" fill="var(--fill-0, #1D1D1B)"/>
<path id="Vector_3" d="M4.51107 1.48869H3.8525L3.72836 1.86033H3.33701L3.97664 0.0552158H4.39955L5.03286 1.86033H4.62679L4.51107 1.48869ZM4.40796 1.17651L4.18494 0.465083L3.95349 1.17651H4.40796Z" fill="var(--fill-0, #1D1D1B)"/>
<path id="Vector_4" d="M6.01966 1.15103H5.63252V1.85821H5.26642V0.0530917H6.1438C6.27004 0.0552153 6.36472 0.0700813 6.43416 0.0998126C6.50149 0.12742 6.5583 0.169894 6.60669 0.225109C6.64456 0.27183 6.67612 0.320674 6.69927 0.378013C6.72241 0.435352 6.73293 0.496938 6.73293 0.567019C6.73293 0.651966 6.71189 0.736913 6.66771 0.819736C6.62563 0.902559 6.55409 0.962021 6.4552 0.995999C6.53726 1.02998 6.59617 1.0767 6.62983 1.13829C6.6635 1.19987 6.68243 1.29331 6.68243 1.42073V1.54178C6.68243 1.6246 6.68664 1.67982 6.69085 1.70955C6.70137 1.75627 6.72241 1.79025 6.75818 1.81149V1.85609H6.34579C6.33527 1.81574 6.32685 1.78388 6.32054 1.7584C6.31212 1.70743 6.30581 1.65646 6.30581 1.60337V1.4356C6.3016 1.32092 6.28056 1.24447 6.24059 1.20624C6.20061 1.16802 6.12486 1.1489 6.01545 1.1489L6.01966 1.15103ZM6.2469 0.821859C6.32054 0.78788 6.35841 0.719923 6.35841 0.617987C6.35841 0.507556 6.32264 0.435351 6.25111 0.397125C6.21113 0.375889 6.15011 0.365272 6.06806 0.365272H5.63252V0.849467H6.05543C6.13959 0.849467 6.20271 0.838849 6.24479 0.819736L6.2469 0.821859Z" fill="var(--fill-0, #1D1D1B)"/>
<path id="Vector_5" d="M7.705 1.59912C7.79337 1.59912 7.8649 1.5885 7.91961 1.56939C8.02481 1.53116 8.07531 1.46108 8.07531 1.35915C8.07531 1.29968 8.05006 1.25296 7.99746 1.22111C7.94486 1.18925 7.86491 1.16165 7.7534 1.13616L7.56403 1.09369C7.37887 1.05121 7.24842 1.0045 7.17899 0.955651C7.05906 0.872828 6.99804 0.74116 6.99804 0.564895C6.99804 0.403497 7.05696 0.269706 7.17268 0.161399C7.2884 0.0552158 7.46093 0 7.68606 0C7.87543 0 8.03533 0.0509686 8.16788 0.150781C8.30044 0.250593 8.36987 0.397126 8.37829 0.59038H8.0185C8.01219 0.482073 7.9659 0.403496 7.87753 0.358899C7.81862 0.329168 7.74708 0.314303 7.66082 0.314303C7.56403 0.314303 7.48828 0.333415 7.42937 0.373765C7.37256 0.411991 7.3431 0.467207 7.3431 0.537288C7.3431 0.600998 7.37046 0.649843 7.42726 0.681698C7.46303 0.702934 7.54089 0.728418 7.66082 0.756026L7.968 0.830354C8.10266 0.862209 8.20576 0.906806 8.27309 0.962022C8.38039 1.04697 8.433 1.17014 8.433 1.33154C8.433 1.49294 8.36988 1.6331 8.24574 1.74353C8.1216 1.85184 7.94486 1.90705 7.71552 1.90705C7.48618 1.90705 7.29892 1.85396 7.16637 1.74565C7.03381 1.63735 6.96648 1.49081 6.96648 1.30181H7.32417C7.33469 1.38463 7.35784 1.44622 7.3915 1.48657C7.45252 1.5609 7.55561 1.597 7.70289 1.597L7.705 1.59912Z" fill="var(--fill-0, #1D1D1B)"/>
</g>
</svg>
