<svg width="139" height="28" viewBox="0 0 139 28" fill="none" xmlns="http://www.w3.org/2000/svg">
<path fill-rule="evenodd" clip-rule="evenodd" d="M16.1995 17.3793H18.0181V19.1926H16.1995V17.3793ZM10.9592 16.1548C11.2703 16.1548 11.5574 16.4373 11.5574 16.7435C11.5574 17.0967 11.2703 17.3558 10.9592 17.3558C10.6481 17.3558 10.361 17.0967 10.361 16.7435C10.361 16.4373 10.6481 16.1548 10.9592 16.1548ZM10.9592 24.0908C11.2942 24.0908 11.5574 24.3499 11.5574 24.6796C11.5574 25.0093 11.2942 25.2683 10.9592 25.2683C10.6481 25.2683 10.3849 25.0093 10.3849 24.6796C10.3849 24.3499 10.6481 24.0908 10.9592 24.0908ZM19.2384 16.1548H14.9792V20.3936H19.2384V16.1548ZM10.9831 14.9302C11.9881 14.9302 12.8256 15.7544 12.8256 16.7435C12.8256 17.7325 11.9881 18.5803 10.9831 18.5803C9.97814 18.5803 9.14064 17.7561 9.14064 16.7435C9.14064 15.7309 9.97814 14.9302 10.9831 14.9302ZM14.4049 15.7544C14.7399 15.8486 14.8117 16.0135 14.692 16.4373L14.381 17.3322L14.9792 17.3558V17.968H14.1656L13.9502 18.5803H14.9792V19.1926H13.7349C13.3042 20.4407 12.682 22.1362 12.2513 23.3373C13.4238 24.5854 12.5863 25.8335 11.9163 26.2574C10.8396 26.7754 9.691 26.3751 9.23636 25.2447C8.80565 24.0437 9.90635 22.6543 11.2942 22.8427C11.9403 21.1001 12.9213 17.968 13.5913 16.2019C13.8306 15.6602 14.022 15.6131 14.4049 15.7544ZM14.357 11.5862L7.32209 11.5627V2.44912H14.357V3.67368H10.3849V7.01766H14.357V8.24222H10.3849V10.3616H14.357V11.5862ZM0.909279 14.0118H20.7698V27.1051H0.909279V14.0118ZM0 0H21.703V28H0V0Z" fill="#282828"/>
<path d="M133.832 5.0394H134.167C134.669 5.0394 134.98 5.01585 135.1 4.96875C135.219 4.9452 135.315 4.87455 135.387 4.78036C135.459 4.68616 135.483 4.56841 135.483 4.45067C135.483 4.33292 135.459 4.23873 135.387 4.14453C135.315 4.05033 135.219 4.00323 135.1 3.95614C134.956 3.90904 134.669 3.88549 134.167 3.88549H133.832V5.0394ZM132.97 7.39432V3.22611H133.832C134.621 3.22611 135.076 3.22611 135.172 3.24966C135.459 3.27321 135.674 3.32031 135.841 3.4145C136.009 3.48515 136.129 3.62645 136.248 3.81484C136.344 3.97968 136.392 4.19163 136.392 4.40357C136.392 4.70971 136.296 4.96875 136.105 5.18069C135.889 5.39264 135.626 5.53393 135.243 5.58103C135.387 5.62813 135.483 5.67523 135.554 5.74587C135.626 5.79297 135.722 5.88717 135.841 6.05201C135.865 6.09911 135.985 6.26396 136.153 6.5701L136.655 7.39432H135.578L135.243 6.73494C135.004 6.26396 134.789 5.98137 134.645 5.86362C134.478 5.74587 134.286 5.69878 134.047 5.69878H133.832V7.39432H132.97ZM134.765 2.14285C134.214 2.14285 133.688 2.28414 133.185 2.54318C132.683 2.82577 132.276 3.20256 131.989 3.72064C131.702 4.21518 131.558 4.75681 131.558 5.29844C131.558 5.84007 131.702 6.3817 131.989 6.87624C132.276 7.37077 132.659 7.77111 133.162 8.0537C133.688 8.33629 134.214 8.47758 134.765 8.47758C135.315 8.47758 135.865 8.33629 136.368 8.0537C136.87 7.77111 137.277 7.37077 137.564 6.87624C137.851 6.3817 137.971 5.86362 137.971 5.29844C137.971 4.73326 137.828 4.21518 137.54 3.72064C137.253 3.20256 136.846 2.82577 136.344 2.54318C135.841 2.28414 135.315 2.14285 134.765 2.14285ZM134.765 1.36572C135.459 1.36572 136.105 1.53057 136.727 1.88381C137.373 2.21349 137.851 2.68448 138.21 3.32031C138.569 3.95614 138.761 4.61551 138.761 5.29844C138.761 5.98137 138.593 6.64074 138.234 7.25302C137.875 7.88885 137.397 8.35984 136.751 8.71307C136.129 9.06631 135.459 9.23116 134.765 9.23116C134.071 9.23116 133.401 9.06631 132.779 8.71307C132.133 8.35984 131.654 7.88885 131.295 7.25302C130.936 6.64074 130.769 5.98137 130.769 5.29844C130.769 4.61551 130.96 3.95614 131.319 3.32031C131.678 2.68448 132.157 2.21349 132.803 1.88381C133.425 1.53057 134.071 1.36572 134.765 1.36572Z" fill="#282828"/>
<path fill-rule="evenodd" clip-rule="evenodd" d="M91.6545 3.96431C97.6366 3.96431 101.13 7.77928 101.13 13.7608C101.13 19.7423 97.2537 23.2747 91.8699 23.2747L91.6545 3.96431ZM91.8938 0.0551388C99.2877 0.0551388 105.318 6.06019 105.318 13.4546C105.318 20.8491 99.2877 26.8541 91.8938 26.8541C84.4999 26.8541 78.47 20.8255 78.47 13.4546C78.47 6.08373 84.5238 0.0551388 91.8938 0.0551388ZM53.3212 22.6859H60.4997V26.8541H44.9463V0.0551388H53.3212V22.6859ZM27 0.0551388V26.8541H42.5534V22.6859H35.3749V17.3167H42.5534V13.1485H35.3749V4.22335H42.5534V0.0551388H27ZM80.8149 4.22335L78.4221 7.2141C75.8618 5.16532 74.2586 4.22335 71.2436 4.22335V22.6859C74.2586 22.6859 76.7471 21.4378 78.4221 19.7187L80.8149 22.6859C68.8507 32.8121 57.4848 23.2747 57.4848 12.5598C57.4848 2.43361 71.8657 -4.7018 80.8149 4.22335ZM114.075 0.0551388C119.34 -0.298099 122.57 1.02066 125.992 4.74143L123.766 7.52024C122.283 6.22503 121.493 5.61275 119.818 4.76498C118.143 4.1056 116.636 3.46977 114.721 4.1527C114.482 4.34109 114.267 4.67078 114.482 5.11822L124.484 16.0686C126.446 18.0467 127.834 19.7423 125.609 22.7566C123.36 25.7709 117.88 27.3958 113.477 26.6893C110.199 25.9357 108.093 24.8289 105.7 22.1914L108.476 19.3655C110.151 20.8491 112.113 22.3798 114.41 22.8037C115.176 22.8508 115.631 22.8508 116.253 22.8272C117.258 22.6388 116.971 21.4849 115.846 20.6371L106.179 9.9458C104.695 7.75573 104.695 6.24858 105.916 4.41174C107.902 2.12747 110.773 0.549672 114.075 0.0551388Z" fill="#282828"/>
<path d="M130.888 24.8913L131.63 24.7971C131.654 25.0562 131.774 25.2446 131.965 25.3859C132.157 25.5272 132.42 25.5978 132.755 25.5978C133.114 25.5978 133.353 25.5507 133.52 25.4094C133.688 25.2917 133.76 25.1504 133.76 24.9855C133.76 24.8207 133.688 24.7029 133.544 24.6323C133.449 24.5616 133.185 24.491 132.779 24.3968C132.252 24.2791 131.869 24.1849 131.654 24.0907C131.439 23.9965 131.271 23.8787 131.175 23.7139C131.056 23.549 131.008 23.3842 131.008 23.1958C131.008 23.0074 131.056 22.8661 131.128 22.7013C131.223 22.56 131.343 22.4422 131.51 22.348C131.63 22.2538 131.774 22.2067 131.989 22.1361C132.18 22.089 132.396 22.0654 132.635 22.0654C132.97 22.0654 133.281 22.1125 133.544 22.2067C133.808 22.2774 133.999 22.3951 134.119 22.56C134.238 22.7013 134.334 22.9132 134.382 23.1487L133.64 23.2429C133.616 23.0545 133.52 22.8897 133.353 22.7719C133.185 22.6542 132.97 22.6071 132.683 22.6071C132.348 22.6071 132.085 22.6542 131.941 22.7484C131.798 22.8661 131.726 22.9838 131.726 23.1016C131.726 23.1958 131.75 23.2664 131.822 23.3371C131.869 23.4077 131.965 23.4784 132.109 23.5255C132.18 23.549 132.396 23.5961 132.755 23.6903C133.281 23.8081 133.664 23.9258 133.879 23.9965C134.071 24.0671 134.238 24.1849 134.358 24.3497C134.478 24.491 134.549 24.6794 134.549 24.9149C134.549 25.1268 134.478 25.3388 134.31 25.5272C134.166 25.7391 133.975 25.8804 133.688 25.9981C133.425 26.0923 133.114 26.1394 132.755 26.1394C132.18 26.1394 131.75 26.0452 131.463 25.8333C131.152 25.6214 130.96 25.3152 130.888 24.8913Z" fill="#282828"/>
<path d="M135.411 26.0688V22.1596H136.081V22.7484C136.272 22.4658 136.416 22.2774 136.559 22.2067C136.703 22.1125 136.87 22.0654 137.038 22.0654C137.301 22.0654 137.54 22.1361 137.804 22.2774L137.564 22.8897C137.373 22.7955 137.181 22.7484 137.014 22.7484C136.846 22.7484 136.703 22.7955 136.559 22.8897C136.44 22.9603 136.344 23.078 136.296 23.2429C136.2 23.4784 136.176 23.7374 136.176 24.02V26.0688H135.411Z" fill="#282828"/>
<path d="M139 20.6763H138.258V26.069H139V20.6763Z" fill="#282828"/>
</svg>
