<svg preserveAspectRatio="none" width="100%" height="100%" overflow="visible" style="display: block;" viewBox="0 0 224 26" fill="none" xmlns="http://www.w3.org/2000/svg">
<g id="Emilbanca">
<path id="Vector" d="M19.4305 20.5583V25.1473H1.17008e-05V0.426883H18.9578V5.01588H5.77107V10.381H17.4215V14.8342H5.77107V20.5583H19.4305Z" fill="var(--fill-0, #282828)"/>
<path id="Vector_2" d="M46.523 25.1473L46.4836 10.3131L39.0974 22.5278H36.4778L29.131 10.6236V25.1376H23.685V0.426883H28.4909L37.8861 15.785L47.1336 0.426883H51.9001L51.969 25.1473H46.523Z" fill="var(--fill-0, #282828)"/>
<path id="Vector_3" d="M57.5727 0.426883H63.3831V25.1473H57.5727V0.426883Z" fill="var(--fill-0, #282828)"/>
<path id="Vector_4" d="M68.967 0.426883H74.7775V20.4904H87.3635V25.1473H68.9769V0.426883H68.967Z" fill="var(--fill-0, #282828)"/>
<path id="Vector_5" d="M112.053 14.5334C112.87 15.5812 113.274 16.8716 113.274 18.4045C113.274 20.568 112.417 22.2367 110.714 23.401C109.01 24.5652 106.518 25.1473 103.239 25.1473H90.2589V0.426883H102.52C105.583 0.426883 107.927 1.009 109.561 2.15382C111.196 3.30834 112.014 4.87035 112.014 6.84953C112.014 8.05257 111.718 9.11977 111.137 10.0609C110.546 11.0019 109.729 11.749 108.685 12.2826C110.123 12.7289 111.245 13.4759 112.053 14.5237V14.5334ZM96.03 4.73452V10.5654H101.801C103.239 10.5654 104.322 10.3228 105.061 9.82801C105.799 9.33321 106.174 8.60557 106.174 7.63538C106.174 6.6652 105.799 5.94726 105.061 5.46216C104.322 4.97707 103.229 4.73452 101.801 4.73452H96.03ZM106.262 20.1023C107.04 19.6075 107.424 18.8411 107.424 17.803C107.424 15.7559 105.878 14.7275 102.796 14.7275H96.0201V20.8397H102.796C104.322 20.8397 105.474 20.5971 106.252 20.1023H106.262Z" fill="var(--fill-0, #282828)"/>
<path id="Vector_6" d="M133.847 19.8501H122.197L119.971 25.1473H114.023L125.21 0.426883H130.942L142.159 25.1473H136.063L133.837 19.8501H133.847ZM132.025 15.5036L128.046 6.04428L124.068 15.5036H132.025Z" fill="var(--fill-0, #282828)"/>
<path id="Vector_7" d="M167.439 0.426883V25.1473H162.673L150.166 10.1385V25.1473H144.434V0.426883H149.24L161.718 15.4357V0.426883H167.449H167.439Z" fill="var(--fill-0, #282828)"/>
<path id="Vector_8" d="M178.105 23.9346C176.037 22.8382 174.412 21.3247 173.23 19.3747C172.048 17.4246 171.457 15.2417 171.457 12.7871C171.457 10.3325 172.048 8.13988 173.23 6.19951C174.412 4.25913 176.037 2.73593 178.105 1.63962C180.173 0.543306 182.497 1.84671e-07 185.077 1.84671e-07C187.254 1.84671e-07 189.214 0.378374 190.977 1.13512C192.739 1.89187 194.207 2.96878 195.408 4.38525L191.676 7.77121C189.982 5.84054 187.874 4.88005 185.363 4.88005C183.807 4.88005 182.418 5.21961 181.207 5.88905C179.986 6.55848 179.041 7.49956 178.361 8.69289C177.681 9.89592 177.337 11.2542 177.337 12.7871C177.337 14.32 177.681 15.688 178.361 16.8813C179.041 18.0746 179.996 19.0157 181.207 19.6851C182.428 20.3546 183.807 20.6941 185.363 20.6941C187.874 20.6941 189.972 19.7142 191.676 17.7642L195.408 21.1501C194.217 22.586 192.73 23.6823 190.967 24.4391C189.194 25.1958 187.224 25.5645 185.048 25.5645C182.487 25.5645 180.173 25.0212 178.115 23.9249L178.105 23.9346Z" fill="var(--fill-0, #282828)"/>
<path id="Vector_9" d="M214.967 19.8501H203.316L201.091 25.1473H195.142L206.33 0.426883H212.062L223.279 25.1473H217.183L214.957 19.8501H214.967ZM213.145 15.5036L209.166 6.04428L205.188 15.5036H213.145Z" fill="var(--fill-0, #282828)"/>
</g>
</svg>
