<svg width="224" height="26" viewBox="0 0 224 26" fill="none" xmlns="http://www.w3.org/2000/svg">
<path d="M19.4305 20.5582V25.1472H0V0.426758H18.9578V5.01575H5.77105V10.3809H17.4215V14.8341H5.77105V20.5582H19.4305Z" fill="#282828"/>
<path d="M46.5229 25.1472L46.4835 10.313L39.0974 22.5277H36.4778L29.131 10.6234V25.1375H23.6849V0.426758H28.4909L37.8861 15.7848L47.1335 0.426758H51.9001L51.969 25.1472H46.5229Z" fill="#282828"/>
<path d="M57.5726 0.426758H63.3831V25.1472H57.5726V0.426758Z" fill="#282828"/>
<path d="M68.967 0.426758H74.7775V20.4903H87.3635V25.1472H68.9769V0.426758H68.967Z" fill="#282828"/>
<path d="M112.053 14.5333C112.87 15.5811 113.274 16.8715 113.274 18.4044C113.274 20.5679 112.417 22.2366 110.714 23.4008C109.01 24.5651 106.518 25.1472 103.239 25.1472H90.2589V0.426758H102.52C105.583 0.426758 107.927 1.00887 109.561 2.15369C111.196 3.30822 112.014 4.87022 112.014 6.84941C112.014 8.05244 111.718 9.11965 111.137 10.0607C110.546 11.0018 109.729 11.7489 108.685 12.2825C110.123 12.7288 111.245 13.4758 112.053 14.5236V14.5333ZM96.03 4.7344V10.5652H101.801C103.239 10.5652 104.322 10.3227 105.061 9.82789C105.799 9.33309 106.174 8.60545 106.174 7.63526C106.174 6.66507 105.799 5.94713 105.061 5.46204C104.322 4.97694 103.229 4.7344 101.801 4.7344H96.03ZM106.262 20.1022C107.04 19.6074 107.424 18.8409 107.424 17.8028C107.424 15.7557 105.878 14.7273 102.796 14.7273H96.0201V20.8395H102.796C104.322 20.8395 105.474 20.597 106.252 20.1022H106.262Z" fill="#282828"/>
<path d="M133.847 19.8499H122.197L119.971 25.1472H114.023L125.21 0.426758H130.942L142.159 25.1472H136.063L133.837 19.8499H133.847ZM132.025 15.5035L128.046 6.04415L124.068 15.5035H132.025Z" fill="#282828"/>
<path d="M167.439 0.426758V25.1472H162.673L150.166 10.1383V25.1472H144.434V0.426758H149.24L161.718 15.4356V0.426758H167.449H167.439Z" fill="#282828"/>
<path d="M178.105 23.9346C176.037 22.8382 174.412 21.3247 173.23 19.3747C172.048 17.4246 171.457 15.2417 171.457 12.7871C171.457 10.3325 172.048 8.13988 173.23 6.1995C174.412 4.25913 176.037 2.73593 178.105 1.63962C180.173 0.543306 182.497 0 185.077 0C187.254 0 189.214 0.378374 190.977 1.13512C192.739 1.89187 194.207 2.96878 195.408 4.38525L191.676 7.77121C189.982 5.84054 187.874 4.88005 185.363 4.88005C183.807 4.88005 182.418 5.21961 181.207 5.88904C179.986 6.55848 179.041 7.49956 178.361 8.69289C177.681 9.89592 177.337 11.2542 177.337 12.7871C177.337 14.32 177.681 15.688 178.361 16.8813C179.041 18.0746 179.996 19.0157 181.207 19.6851C182.428 20.3546 183.807 20.6941 185.363 20.6941C187.874 20.6941 189.972 19.7142 191.676 17.7642L195.408 21.1501C194.217 22.586 192.73 23.6823 190.967 24.4391C189.194 25.1958 187.224 25.5645 185.048 25.5645C182.487 25.5645 180.173 25.0212 178.115 23.9249L178.105 23.9346Z" fill="#282828"/>
<path d="M214.967 19.8499H203.316L201.091 25.1472H195.142L206.33 0.426758H212.062L223.279 25.1472H217.183L214.957 19.8499H214.967ZM213.145 15.5035L209.166 6.04415L205.188 15.5035H213.145Z" fill="#282828"/>
</svg>
