<svg preserveAspectRatio="none" width="100%" height="100%" overflow="visible" style="display: block;" viewBox="0 0 227 83" fill="none" xmlns="http://www.w3.org/2000/svg">
<g id="Fondazionemonteparma">
<path id="Vector" d="M27.18 58.78V23.2C27.18 20.31 26.61 19.28 26.29 19.28C25.97 19.28 26.12 19.85 26.12 19.85C26.94 24.54 25.59 27.86 24.07 30.01V14.5C23.21 13.66 22.26 12.94 21.39 12.36V32.79C21.19 32.94 21.06 33.02 21.06 33.02L18.71 34.38V10.8L16.03 9.26V35.93L13.35 37.48V7.72L10.68 6.17V39.02L8.01 40.56V4.63L5.33 3.08V79.21L8.01 77.67V41.41L10.68 42.95V76.12L13.35 74.57V44.49L16.03 46.03V73.03L18.71 71.49V47.59L21.06 48.95C21.06 48.95 21.19 49.03 21.39 49.17V69.92C22.25 69.34 23.2 68.61 24.07 67.78V51.96C25.59 54.1 26.94 57.43 26.12 62.12C26.12 62.12 25.96 62.69 26.29 62.69C26.62 62.69 27.18 61.66 27.18 58.77M0 82.31L2.68 80.77V1.55L0 0V82.31Z" fill="var(--fill-0, #1D1D1B)"/>
<path id="Vector_2" d="M41.13 21.3202H38.5V20.6602H53.22L53.41 26.0802H52.69C52.32 24.3302 51.92 22.4702 50.17 21.6702C49.59 21.4002 48.52 21.3202 47.43 21.3202H44.53V28.9502C47.08 28.9502 48.44 28.5502 48.57 25.7102H49.31V33.1202H48.57C48.33 30.1702 47.4 29.5302 44.53 29.6102V37.7402H47.16V38.4002H38.5V37.7402H41.13V21.3202Z" fill="var(--fill-0, #1D1D1B)"/>
<path id="Vector_3" d="M69.8 26.26C69.8 25.3 69.67 24.4 69.4 23.6C68.87 21.98 67.78 20.92 65.44 20.92C63.1 20.92 61.93 21.98 61.45 23.6C61.21 24.4 61.05 25.3 61.05 26.26V32.05C61.05 33.09 61.1 34.1 61.34 35.03C61.82 36.86 62.93 38.14 65.43 38.14C67.93 38.14 69.04 36.87 69.52 35.03C69.76 34.1 69.78 33.09 69.78 32.05V26.26H69.8ZM57.15 29.07C57.15 24.69 61 20.25 65.44 20.25C69.88 20.25 73.7 24.69 73.7 29.07C73.7 33.93 70.7 38.8 65.44 38.8C60.18 38.8 57.15 33.94 57.15 29.07Z" fill="var(--fill-0, #1D1D1B)"/>
<path id="Vector_4" d="M92.8399 38.7499H92.0399L80.7799 21.8499V37.7399H83.3799V38.3999H77.3199V37.7399H79.9299V21.3199H77.3199V20.6499H84.1299L91.9899 32.2599V21.3199H89.4399V20.6499H95.4999V21.3199H92.8399V38.7499Z" fill="var(--fill-0, #1D1D1B)"/>
<path id="Vector_5" d="M104.51 37.7399C107.88 37.7399 110.2 37.9499 111.34 34.4699C111.92 32.6899 112 30.5699 112 28.8599C112 25.4599 111.34 23.3099 110.54 22.5399C109.45 21.4799 107.57 21.3199 104.51 21.3199V37.7399ZM98.5 20.6499H105.81C108.73 20.6499 110.17 20.9999 111.55 21.8499C114.31 23.5499 115.64 26.3399 115.64 29.5299C115.64 32.7199 114.21 35.7999 111.42 37.3399C109.4 38.4599 107.12 38.3999 104.91 38.3999H98.51V37.7399H101.11V21.3199H98.51V20.6599L98.5 20.6499Z" fill="var(--fill-0, #1D1D1B)"/>
<path id="Vector_6" d="M123.69 32.3698H128.87L126.37 24.9598L123.69 32.3698ZM118.81 38.3998V37.7398H120.96L127.31 20.2598H128.21L134.29 37.7398H136.42V38.3998H128V37.7398H130.76L129.14 33.0398H123.4L121.75 37.7398H124.46V38.3998H118.8H118.81Z" fill="var(--fill-0, #1D1D1B)"/>
<path id="Vector_7" d="M140.2 25.4299L140.6 20.6499H153.43V21.3899L143.15 37.7299H147.59C151.31 37.7299 152.08 36.0299 152.72 32.6799H153.46L153.25 38.3899H139.3V37.6699L149.64 21.2999H146.77C145.87 21.2999 144.99 21.2999 144.22 21.4899C142.65 21.8599 141.46 22.8699 141.01 25.4199H140.21L140.2 25.4299Z" fill="var(--fill-0, #1D1D1B)"/>
<path id="Vector_8" d="M163.13 37.7399H165.76V38.3999H157.1V37.7399H159.73V21.3199H157.1V20.6499H165.76V21.3199H163.13V37.7399Z" fill="var(--fill-0, #1D1D1B)"/>
<path id="Vector_9" d="M182.34 26.26C182.34 25.3 182.21 24.4 181.94 23.6C181.41 21.98 180.32 20.92 177.98 20.92C175.64 20.92 174.47 21.98 173.99 23.6C173.75 24.4 173.59 25.3 173.59 26.26V32.05C173.59 33.09 173.64 34.1 173.88 35.03C174.36 36.86 175.47 38.14 177.97 38.14C180.47 38.14 181.58 36.87 182.06 35.03C182.3 34.1 182.33 33.09 182.33 32.05V26.26H182.34ZM169.69 29.07C169.69 24.69 173.54 20.25 177.98 20.25C182.42 20.25 186.24 24.69 186.24 29.07C186.24 33.93 183.24 38.8 177.98 38.8C172.72 38.8 169.69 33.94 169.69 29.07Z" fill="var(--fill-0, #1D1D1B)"/>
<path id="Vector_10" d="M205.38 38.7499H204.58L193.32 21.8499V37.7399H195.92V38.3999H189.86V37.7399H192.47V21.3199H189.86V20.6499H196.66L204.53 32.2599V21.3199H201.98V20.6499H208.04V21.3199H205.38V38.7499Z" fill="var(--fill-0, #1D1D1B)"/>
<path id="Vector_11" d="M217.29 21.3202V28.9502C219.84 28.9502 221.2 28.5502 221.33 25.7102H222.07V33.1202H221.33C221.09 30.1702 220.16 29.5302 217.29 29.6102V37.7402H221.06C224.51 37.7402 225.26 35.6902 225.82 32.6902H226.59L226.35 38.4002H211.23V37.7402H213.89V21.3202H211.23V20.6602H225.92L226.08 25.4402H225.34C224.78 22.8902 223.77 21.9102 222.42 21.5402C221.76 21.3502 220.99 21.3302 220.11 21.3302H217.29V21.3202Z" fill="var(--fill-0, #1D1D1B)"/>
<path id="Vector_12" d="M56.8301 60.9899H59.4601V61.6499H50.8001V60.9899H53.4301V45.0199H53.3501L48.0401 61.6499H47.1301L41.8501 45.0199H41.7901V60.9899H44.3701V61.6499H38.3101V60.9899H40.9401V44.5699H38.3101V43.8999H45.1701L48.8901 56.0499L52.7401 43.8999H59.4601V44.5699H56.8301V60.9899Z" fill="var(--fill-0, #1D1D1B)"/>
<path id="Vector_13" d="M73.92 49.5098C73.92 48.5498 73.79 47.6498 73.52 46.8498C72.99 45.2298 71.9 44.1698 69.56 44.1698C67.22 44.1698 66.05 45.2298 65.57 46.8498C65.33 47.6498 65.17 48.5498 65.17 49.5098V55.2998C65.17 56.3398 65.22 57.3498 65.46 58.2798C65.94 60.1098 67.05 61.3898 69.55 61.3898C72.05 61.3898 73.16 60.1198 73.64 58.2798C73.88 57.3498 73.9 56.3398 73.9 55.2998V49.5098H73.92ZM61.27 52.3298C61.27 47.9498 65.12 43.5098 69.56 43.5098C74 43.5098 77.82 47.9498 77.82 52.3298C77.82 57.1898 74.82 62.0498 69.56 62.0498C64.3 62.0498 61.27 57.1898 61.27 52.3298Z" fill="var(--fill-0, #1D1D1B)"/>
<path id="Vector_14" d="M95.18 61.9999H94.38L83.12 45.0999V60.9899H85.72V61.6499H79.66V60.9899H82.27V44.5699H79.66V43.8999H86.46L94.33 55.5199V44.5699H91.78V43.8999H97.84V44.5699H95.18V61.9999Z" fill="var(--fill-0, #1D1D1B)"/>
<path id="Vector_15" d="M102.73 61.6499V60.9899H105.52V44.5699C101.77 44.3799 100.63 46.1899 100.15 49.5899H99.3L99.59 43.8999H114.81L115.1 49.5899H114.28C113.8 46.1899 112.66 44.3799 108.91 44.5699V60.9899H111.7V61.6499H102.72H102.73Z" fill="var(--fill-0, #1D1D1B)"/>
<path id="Vector_16" d="M123.03 44.5702V52.2002C125.58 52.2002 126.94 51.8002 127.07 48.9602H127.81V56.3702H127.07C126.83 53.4202 125.9 52.7802 123.03 52.8602V60.9902H126.8C130.25 60.9902 131 58.9402 131.56 55.9402H132.33L132.09 61.6502H116.97V60.9902H119.63V44.5702H116.97V43.9102H131.66L131.82 48.6902H131.08C130.52 46.1402 129.51 45.1602 128.16 44.7902C127.5 44.6002 126.72 44.5802 125.85 44.5802H123.03V44.5702Z" fill="var(--fill-0, #1D1D1B)"/>
<path id="Vector_17" d="M144.05 52.9399C146.63 52.9399 147.16 50.9499 147.16 48.7699C147.16 46.8599 147.03 44.5699 144.05 44.5699H140.94V52.9399H144.05ZM134.91 43.8999H143.49C146.86 43.8999 150.9 44.5899 150.9 48.7899C150.9 52.5099 147.02 53.5999 143.97 53.5999H140.94V60.9899H143.76V61.6599H134.91V60.9899H137.54V44.5699H134.91V43.9099V43.8999Z" fill="var(--fill-0, #1D1D1B)"/>
<path id="Vector_18" d="M155 55.6198H160.18L157.68 48.2098L155 55.6198ZM150.11 61.6498V60.9898H152.26L158.61 43.5098H159.51L165.59 60.9898H167.72V61.6498H159.3V60.9898H162.06L160.44 56.2898H154.7L153.05 60.9898H155.76V61.6498H150.1H150.11Z" fill="var(--fill-0, #1D1D1B)"/>
<path id="Vector_19" d="M175.01 51.8502H177.19C179.58 51.8502 180.56 50.7102 180.56 48.3202C180.56 45.3402 179.68 44.5702 177.32 44.5702H175.01V51.8502ZM175.01 60.9902H177.64V61.6502H168.98V60.9902H171.61V44.5702H168.98V43.9102H177.88C180.78 43.9102 184.23 44.2602 184.23 47.9502C184.23 50.9502 181.07 51.9902 178.6 52.2602V52.3102C182.74 52.9502 183.67 55.1802 183.67 59.5102C183.67 60.4402 183.75 61.5002 186.3 61.0302V61.6702C185.56 61.8602 184.81 61.9902 184.04 61.9902C181.36 61.9902 179.95 60.6302 179.95 57.9202C179.95 55.7102 179.58 54.0702 178.89 53.4802C178.15 52.8402 177.3 52.5202 176.47 52.5202H175.01V61.0002V60.9902Z" fill="var(--fill-0, #1D1D1B)"/>
<path id="Vector_20" d="M205.96 60.9899H208.59V61.6499H199.93V60.9899H202.56V45.0199H202.48L197.17 61.6499H196.27L190.98 45.0199H190.93V60.9899H193.5V61.6499H187.44V60.9899H190.07V44.5699H187.44V43.8999H194.3L198.02 56.0499L201.87 43.8999H208.59V44.5699H205.96V60.9899Z" fill="var(--fill-0, #1D1D1B)"/>
<path id="Vector_21" d="M214.04 55.6198H219.22L216.72 48.2098L214.04 55.6198ZM209.16 61.6498V60.9898H211.31L217.66 43.5098H218.56L224.64 60.9898H226.77V61.6498H218.35V60.9898H221.11L219.49 56.2898H213.75L212.1 60.9898H214.81V61.6498H209.15H209.16Z" fill="var(--fill-0, #1D1D1B)"/>
</g>
</svg>
