<svg preserveAspectRatio="none" width="100%" height="100%" overflow="visible" style="display: block;" viewBox="0 0 89 20" fill="none" xmlns="http://www.w3.org/2000/svg">
<g id="Group">
<path id="Vector" d="M11.4432 1.35648H12.1105C13.2582 1.35648 13.7091 1.78597 13.7091 2.88833C13.7091 4.61346 12.9502 7.34431 12.4552 8.27845C11.9566 9.23407 11.5349 9.57409 10.1563 9.57409H9.42297L11.4469 1.35648H11.4432ZM12.2719 10.927C15.5718 10.927 19.1246 8.98354 19.1246 4.72083C19.1246 1.45669 17.5223 0.0035791 13.9255 0.0035791H4.62349L4.3045 1.36006H5.81144L1.73793 17.917H0.315316L0 19.2734H8.609L8.92799 17.917H7.39538L9.09666 10.9306H12.2755L12.2719 10.927Z" fill="var(--fill-0, #1D1D1B)"/>
<path id="Vector_2" d="M23.0075 12.6557H19.5133L22.5491 7.01503L23.0111 12.6557H23.0075ZM28.8886 17.9134L27.202 0.125268L27.191 4.24509e-10H24.7271L17.372 13.6972C15.9384 16.4137 15.1464 17.9134 13.4122 17.9134H13.0968L12.7778 19.2699H19.2933L19.6123 17.9134H19.0953C18.5343 17.9134 17.592 17.7702 17.592 16.8003C17.592 16.4316 17.7057 16.0021 18.285 14.9213L18.7726 14.0122H23.1028L23.4255 17.9134H22.1788L21.8598 19.2699H30.0729L30.3919 17.9134H28.8886Z" fill="var(--fill-0, #1D1D1B)"/>
<path id="Vector_3" d="M42.5684 1.35648H42.8397C43.947 1.35648 44.321 1.73586 44.321 2.86328C44.321 4.72083 43.3861 7.16893 42.7774 7.85254C42.3044 8.38225 41.8424 8.5612 40.7828 8.60057L42.5721 1.36006L42.5684 1.35648ZM49.0178 17.2477L48.2699 16.063L47.9215 16.4567C47.6062 16.811 47.0122 17.1582 46.7959 17.1582C46.6859 17.1582 46.6493 17.1403 46.6456 17.1403C46.6456 17.1296 46.6456 17.1081 46.6456 17.0902C46.6456 16.8003 46.8179 16.1346 46.9866 15.4868C47.2322 14.549 47.5072 13.4825 47.5072 12.7237C47.5072 11.2097 46.7702 10.0465 45.421 9.40945C48.0975 8.72584 49.7438 6.77165 49.7438 4.22692C49.7438 2.30136 48.9372 0.00715819 45.102 0.00715819H35.7743L35.4553 1.36364H36.9623L32.8888 17.9205H31.4661L31.1508 19.277H39.7598L40.0788 17.9205H38.5462L40.4602 9.96779H41.0541C41.9231 9.96779 42.2311 10.1324 42.2311 11.0558C42.2311 11.5676 41.9524 12.7523 41.7068 13.801C41.4501 14.8926 41.2301 15.8375 41.2301 16.3135C41.2301 18.3321 42.5061 19.4882 44.7317 19.4882C46.2239 19.4882 47.5146 18.8583 48.7905 17.5054L49.0252 17.2548L49.0178 17.2477Z" fill="var(--fill-0, #1D1D1B)"/>
<path id="Vector_4" d="M68.0398 17.9134L72.1133 1.35648H73.5432L74.0492 4.24509e-10H66.9472L61.418 11.0666L61.2054 4.24509e-10H54.4333L53.9273 1.35648H55.6543L52.7834 13.0601C51.9767 16.378 51.2141 17.6951 49.9638 17.9205L49.7291 17.9635L49.3002 19.2699H55.0823L55.5883 17.9134H54.9906C54.0117 17.9134 53.535 17.4553 53.535 16.5104C53.535 16.1811 53.579 15.5655 53.964 14.0301L56.1712 4.92126L56.5085 19.2663H58.8478L66.0159 4.92842L62.6023 17.9098H61.3777L60.8717 19.2663H69.2864L69.7924 17.9098H68.0435L68.0398 17.9134Z" fill="var(--fill-0, #1D1D1B)"/>
<path id="Vector_5" d="M80.671 12.6557H77.1768L80.2127 7.01503L80.6747 12.6557H80.671ZM86.5558 17.9134L84.8692 0.125268L84.8582 4.24509e-10H82.3943L75.0392 13.6972C73.6056 16.4137 72.8136 17.9134 71.0794 17.9134H70.764L70.445 19.2699H76.9605L77.2794 17.9134H76.7625C76.2015 17.9134 75.2592 17.7702 75.2592 16.8003C75.2592 16.4316 75.3729 16.0021 75.9522 14.9213L76.4398 14.0122H80.77L81.0963 17.9134H79.8497L79.5307 19.2699H87.7437L88.0627 17.9134H86.5594H86.5558Z" fill="var(--fill-0, #1D1D1B)"/>
</g>
</svg>
