<svg width="259" height="20" viewBox="0 0 259 20" fill="none" xmlns="http://www.w3.org/2000/svg">
<mask id="mask0_42_2200" style="mask-type:luminance" maskUnits="userSpaceOnUse" x="0" y="0" width="259" height="20">
<path d="M259 0H0V20H259V0Z" fill="white"/>
</mask>
<g mask="url(#mask0_42_2200)">
<path d="M182.388 1.72155H183.055C184.203 1.72155 184.654 2.15104 184.654 3.25341C184.654 4.97853 183.895 7.70938 183.4 8.64353C182.901 9.59915 182.479 9.93916 181.101 9.93916H180.368L182.391 1.72155H182.388ZM183.216 11.2921C186.516 11.2921 190.069 9.34861 190.069 5.0859C190.069 1.82177 188.467 0.368652 184.87 0.368652H175.568L175.249 1.72513H176.756L172.683 18.282H171.26L170.945 19.6385H179.554L179.873 18.282H178.34L180.041 11.2956H183.22L183.216 11.2921Z" fill="#1D1D1B"/>
<path d="M193.952 13.0209H190.458L193.494 7.38027L193.956 13.0209H193.952ZM199.833 18.2786L198.147 0.490503L198.136 0.365234H195.672L188.317 14.0624C186.883 16.779 186.091 18.2786 184.357 18.2786H184.041L183.722 19.6351H190.238L190.557 18.2786H190.04C189.479 18.2786 188.537 18.1355 188.537 17.1655C188.537 16.7969 188.65 16.3674 189.23 15.2865L189.717 14.3774H194.047L194.37 18.2786H193.123L192.804 19.6351H201.017L201.336 18.2786H199.833Z" fill="#1D1D1B"/>
<path d="M213.513 1.72188H213.784C214.892 1.72188 215.266 2.10126 215.266 3.22868C215.266 5.08623 214.331 7.53433 213.722 8.21794C213.249 8.74765 212.787 8.9266 211.727 8.96597L213.517 1.72546L213.513 1.72188ZM219.962 17.6131L219.214 16.4284L218.866 16.8221C218.551 17.1764 217.957 17.5236 217.741 17.5236C217.631 17.5236 217.594 17.5057 217.59 17.5057C217.59 17.495 217.59 17.4735 217.59 17.4556C217.59 17.1657 217.763 16.5 217.931 15.8522C218.177 14.9144 218.452 13.8479 218.452 13.0891C218.452 11.5751 217.715 10.4119 216.366 9.77485C219.042 9.09124 220.688 7.13705 220.688 4.59232C220.688 2.66676 219.882 0.372559 216.047 0.372559H206.719L206.4 1.72904H207.907L203.833 18.2859H202.411L202.095 19.6424H210.704L211.023 18.2859H209.491L211.405 10.3332H211.999C212.868 10.3332 213.176 10.4978 213.176 11.4212C213.176 11.933 212.897 13.1177 212.651 14.1664C212.395 15.258 212.175 16.2029 212.175 16.6789C212.175 18.6975 213.451 19.8536 215.676 19.8536C217.169 19.8536 218.459 19.2237 219.735 17.8708L219.97 17.6202L219.962 17.6131Z" fill="#1D1D1B"/>
<path d="M238.984 18.2786L243.058 1.72171H244.488L244.994 0.365234H237.892L232.363 11.4318L232.15 0.365234H225.378L224.872 1.72171H226.599L223.728 13.4254C222.921 16.7432 222.159 18.0603 220.908 18.2858L220.674 18.3287L220.245 19.6351H226.027L226.533 18.2786H225.935C224.956 18.2786 224.48 17.8205 224.48 16.8756C224.48 16.5463 224.524 15.9307 224.909 14.3953L227.116 5.28649L227.453 19.6315H229.792L236.96 5.29365L233.547 18.275H232.322L231.816 19.6315H240.231L240.737 18.275H238.988L238.984 18.2786Z" fill="#1D1D1B"/>
<path d="M251.616 13.0209H248.121L251.157 7.38027L251.619 13.0209H251.616ZM257.5 18.2786L255.814 0.490503L255.803 0.365234H253.339L245.984 14.0624C244.55 16.779 243.758 18.2786 242.024 18.2786H241.709L241.39 19.6351H247.905L248.224 18.2786H247.707C247.146 18.2786 246.204 18.1355 246.204 17.1655C246.204 16.7969 246.317 16.3674 246.897 15.2865L247.384 14.3774H251.715L252.041 18.2786H250.794L250.475 19.6351H258.688L259.007 18.2786H257.504H257.5Z" fill="#1D1D1B"/>
<path d="M157.742 1.72171H159.248L155.175 18.2786H153.752L153.433 19.6351H162.046L162.361 18.2786H160.832L164.884 1.72171H166.446L166.761 0.365234H158.061L157.742 1.72171Z" fill="#1D1D1B"/>
<mask id="mask1_42_2200" style="mask-type:luminance" maskUnits="userSpaceOnUse" x="0" y="0" width="259" height="20">
<path d="M259 0H0V20H259V0Z" fill="white"/>
</mask>
<g mask="url(#mask1_42_2200)">
<path d="M25.2001 13.0209H21.7059L24.7381 7.38384L25.2001 13.0209ZM31.0812 18.2786L29.3946 0.490503L29.3836 0.365234H26.9197L19.5683 14.0589C18.131 16.779 17.3427 18.2786 15.6084 18.2786H15.2931L14.9741 19.6351H21.4895L21.8085 18.2786H21.2916C20.7306 18.2786 19.7883 18.1355 19.7883 17.1655C19.7883 16.7969 19.9019 16.371 20.4812 15.2865L20.9689 14.3774H25.2991L25.6217 18.2786H24.3751L24.0598 19.6351H32.2728L32.5918 18.2786H31.0885H31.0812Z" fill="#1D1D1B"/>
<path d="M48.7978 13.0746L48.6842 13.2965C46.9426 16.6501 44.4457 18.2786 41.0541 18.2786H40.4565L51.6797 0.365234H37.2629L35.36 6.92572H36.7606L36.8743 6.6895C38.5389 3.20704 40.6728 1.72171 44.0093 1.72171H44.1157L32.9181 19.6351H48.2185L50.1214 13.0746H48.7978Z" fill="#1D1D1B"/>
<path d="M64.7032 13.0746L64.5896 13.2965C62.848 16.6501 60.3511 18.2786 56.9595 18.2786H56.3619L67.5815 0.365234H53.1647L51.2617 6.92572H52.6624L52.776 6.6895C54.4406 3.20704 56.5745 1.72171 59.9111 1.72171H60.0174L48.8198 19.6351H64.1203L66.0232 13.0746H64.6996H64.7032Z" fill="#1D1D1B"/>
<path d="M82.7609 7.16178L83.9598 0.368652H69.7667L69.4477 1.72513H70.9546L66.8811 18.282H65.4585L65.1395 19.6385H80.209L82.0826 13.0279H80.7626L80.6563 13.2856C78.8633 17.6342 75.4975 18.2856 73.6459 18.2856H72.5386L74.4928 10.3329H75.8568C77.3491 10.3329 77.6644 11.3636 77.6644 12.2298C77.6644 12.5913 77.6351 12.9241 77.5764 13.2498L77.4847 13.7581H78.8193L80.7076 6.18111H79.4023L79.296 6.44238C78.4344 8.56479 77.3527 8.97996 75.7798 8.97996H74.8118L76.5828 1.73229H77.6901C80.319 1.73229 81.5692 2.4839 81.5692 6.74303V7.17252H82.7535L82.7609 7.16178Z" fill="#1D1D1B"/>
<path d="M85.2615 0.364907L83.6006 6.87171H84.9535L85.0489 6.58538C85.7748 4.39139 87.4614 2.08645 89.6284 1.76076L85.6318 18.2783H84.1542L83.7729 19.6348H92.3233L92.7046 18.2783H91.2196L95.2675 1.7357C97.3721 1.94329 97.6031 4.31981 97.6031 5.34343C97.6031 5.72998 97.5774 6.12725 97.5371 6.43148L97.4711 6.92181H98.7654L100.371 0.361328H85.2652L85.2615 0.364907Z" fill="#1D1D1B"/>
<path d="M111.074 1.7357C113.178 1.94329 113.409 4.31981 113.409 5.34343C113.409 5.72998 113.384 6.12725 113.343 6.43148L113.277 6.92181H114.572L116.178 0.361328H101.072L99.4106 6.86813H100.764L100.859 6.5818C101.585 4.38781 103.272 2.08287 105.438 1.75718L101.442 18.2747H99.9643L99.583 19.6312H108.133L108.515 18.2747H107.03L111.078 1.73212L111.074 1.7357Z" fill="#1D1D1B"/>
<path d="M119.335 13.0245H115.84L118.873 7.38384L119.335 13.0245ZM123.529 0.490503L123.518 0.365234H121.054L113.703 14.0589C112.269 16.779 111.477 18.2786 109.743 18.2786H109.428L109.109 19.6351H115.624L115.943 18.2786H115.426C114.865 18.2786 113.923 18.1355 113.923 17.1655C113.923 16.7969 114.036 16.371 114.616 15.2865L115.103 14.3774H119.434L119.756 18.2786H118.51L118.194 19.6351H126.407L126.726 18.2786H125.223L123.536 0.490503H123.529Z" fill="#1D1D1B"/>
<path d="M10.061 12.3873H10.248C10.5009 12.3873 10.6879 12.6342 10.6256 12.8883L10.0206 15.3865C9.51098 17.4767 8.68601 18.4896 7.50172 18.4896C6.13777 18.4896 5.41546 17.6271 5.41546 15.9914C5.41546 13.4646 6.58875 7.78812 8.27169 3.68647C8.851 2.24767 9.74564 1.51754 10.9263 1.51754C13.5955 1.51754 14.5488 3.9549 14.5488 6.23837C14.5488 6.68576 14.5268 7.11167 14.4828 7.58053L14.4351 8.05297H15.7074C15.8871 8.05297 16.0411 7.9277 16.0851 7.75233L17.8193 0.8733C17.8853 0.619184 17.6983 0.368647 17.4417 0.368647H16.3784L16.2611 0.576235C16.0154 1.00931 15.7771 1.23121 15.1648 1.23121C14.8934 1.23121 14.5708 1.07731 14.1528 0.880458C13.3645 0.508232 12.2865 0 10.5083 0C4.01852 0 0 6.09878 0 11.7538C0 15.8554 2.40158 20 7.76204 20C9.34232 20 9.96929 19.5777 11.4322 18.8189C11.6376 18.7115 11.8869 18.801 11.9712 19.0193L12.1142 19.3808C12.1729 19.5311 12.3159 19.6314 12.4772 19.6314H13.8338C14.0098 19.6314 14.1675 19.5061 14.2115 19.3307L14.8018 17.0007L15.9017 12.6628C15.9457 12.4839 16.1034 12.3622 16.2794 12.3622H16.701C16.8807 12.3622 17.0384 12.2334 17.0824 12.0544L17.2107 11.5068C17.2694 11.2527 17.0824 11.0093 16.8294 11.0093H10.1856C10.0023 11.0093 9.84463 11.1382 9.8043 11.3207L9.67597 11.8969C9.62097 12.1475 9.8043 12.3908 10.0573 12.3908" fill="#1D1D1B"/>
<path d="M148.007 11.9866C146.284 17.6594 144.909 18.2786 142.386 18.2786H141.488L145.539 1.72171H147.251C148.7 1.72171 149.433 2.55206 149.433 4.19487C149.433 6.08821 148.861 9.21992 148.01 11.9866M147.134 0.365234H138.716L138.397 1.72171H139.904L135.83 18.2786H134.408L134.089 19.6351H143.592C150.342 19.6351 154.706 15.0109 154.706 7.85629C154.706 2.74533 152.297 0.365234 147.13 0.365234" fill="#1D1D1B"/>
</g>
</g>
</svg>
