<svg width="33" height="38" viewBox="0 0 33 38" fill="none" xmlns="http://www.w3.org/2000/svg">
<path d="M6.43648 37.9457H3.07387C2.30463 37.9457 1.66764 37.6879 1.16446 37.1729C0.661282 36.658 0.409302 36.0074 0.409302 35.2212C0.409302 34.435 0.658152 33.8113 1.15663 33.3318C1.65512 32.8532 2.29367 32.6143 3.07387 32.6143H6.06398V33.5432H3.07387C2.56757 33.5432 2.15047 33.7072 1.82258 34.0352C1.49469 34.3633 1.33036 34.7844 1.33036 35.3001C1.33036 35.8158 1.49469 36.2243 1.82258 36.5413C2.15047 36.8591 2.56757 37.0176 3.07387 37.0176H5.51385V35.8545H3.00423V35.0036H6.43648V37.9465V37.9457Z" fill="#282828"/>
<path d="M13.4779 37.9457H12.1147L10.6349 36.4467H8.64408V35.5256H11.1232C11.4644 35.5256 11.7508 35.4499 11.9832 35.2993C12.2461 35.1227 12.3776 34.8703 12.3776 34.5423C12.3776 33.876 11.9597 33.5432 11.1232 33.5432H8.10177V37.9457H7.17993V32.6143H10.9761C11.6577 32.6143 12.2078 32.7625 12.6265 33.059C13.1069 33.3973 13.3472 33.8941 13.3472 34.5502C13.3472 34.9981 13.2079 35.3829 12.9285 35.7054C12.6703 36.0074 12.3189 36.218 11.8752 36.3378L13.4787 37.9457H13.4779Z" fill="#282828"/>
<path d="M18.9001 37.9457H14.3292V32.6143H18.9001V33.5432H15.2518V37.0168H18.9001V37.9457ZM18.6606 35.7046H15.6392V34.7757H18.6606V35.7046Z" fill="#282828"/>
<path d="M25.2059 37.4842C25.2059 37.828 25.09 37.9999 24.8576 37.9999C24.687 37.9999 24.4961 37.8935 24.2848 37.6798L20.8917 34.2448V37.9447H19.9777V33.0738C19.9777 32.9492 20.0113 32.8412 20.0786 32.7497C20.1459 32.659 20.2414 32.6133 20.3658 32.6133C20.5364 32.6133 20.7117 32.704 20.8925 32.8861L24.2856 36.3132V32.6133H25.2074V37.4842H25.2059Z" fill="#282828"/>
<path d="M31.2252 33.5422H29.1413V37.9455H28.2272V33.5422H26.1355V32.6133H31.2252V33.5422Z" fill="#282828"/>
<path d="M32.9217 32.6133H31.9999V37.9447H32.9217V32.6133Z" fill="#282828"/>
<path d="M33 0H0V6.96142C2.83673 4.66986 6.34567 3.52014 10.5292 3.52014H28.5144V9.10789H10.5292C7.48506 9.10789 4.977 10.0936 3.0042 12.065C1.03218 14.0372 0.0453877 16.5724 0.0453877 19.6722C0.0453877 22.7721 1.0314 25.2285 3.0042 27.1368C4.977 29.0467 7.48506 30.0016 10.5292 30.0016H25.2066V23.0063H10.1105V17.8885H30.751V30.3265H32.9992V0H33Z" fill="#282828"/>
</svg>
