<svg width="165" height="42" viewBox="0 0 165 42" fill="none" xmlns="http://www.w3.org/2000/svg">
<path d="M9.68091 13.6313C9.68091 11.8728 11.1094 10.4565 12.8567 10.4565C14.604 10.4565 16.0325 11.8846 16.0325 13.6313C16.0325 15.378 14.604 16.806 12.8567 16.806C11.1094 16.806 9.68091 15.378 9.68091 13.6313Z" fill="#282828"/>
<path d="M12.5143 4.85032C7.99263 5.03915 4.34459 8.62694 4.06125 13.1353H0C0.295149 6.39637 5.7495 1.00288 12.5143 0.802246V4.85032Z" fill="#282828"/>
<path d="M13.4352 22.3648C17.9569 22.0934 21.4986 18.4112 21.7112 13.9028H25.7724C25.5953 20.6418 20.2 26.0943 13.447 26.4129V22.3648H13.4352Z" fill="#282828"/>
<path d="M8.53567 26.4834C8.26413 21.9633 4.58067 18.4227 0.0708008 18.2103V14.1504C6.812 14.3274 12.2663 19.7209 12.5851 26.4716H8.53567V26.4834Z" fill="#282828"/>
<path d="M17.4846 0.672852C17.6735 5.193 21.2625 8.83981 25.7606 9.12305V13.1829C19.0194 12.8879 13.624 7.43537 13.4233 0.672852H17.4728H17.4846Z" fill="#282828"/>
<path d="M34.072 4.08327V0.306641H35.5832V4.08327H34.072ZM34.072 26.507V7.64746H35.5832V26.507H34.072Z" fill="#282828"/>
<path d="M41.557 7.64769H43.0682V11.684H43.1508C43.4105 10.9758 43.7883 10.3503 44.2842 9.79565C44.78 9.24096 45.3467 8.78068 45.996 8.37941C46.6454 7.98995 47.3537 7.6949 48.1211 7.49427C48.8885 7.29363 49.6677 7.19922 50.4705 7.19922C51.6629 7.19922 52.6782 7.32904 53.5164 7.60048C54.3547 7.87193 55.0394 8.22599 55.5707 8.66266C56.1019 9.09933 56.5152 9.59502 56.8221 10.1497C57.1291 10.7044 57.3416 11.2591 57.4832 11.8138C57.6131 12.3803 57.6957 12.9232 57.7194 13.4425C57.743 13.9735 57.7548 14.422 57.7548 14.8233V26.4954H56.2436V14.5754C56.2436 14.1152 56.2082 13.5251 56.1256 12.817C56.0429 12.1088 55.8186 11.4243 55.429 10.7752C55.0394 10.1261 54.4609 9.57141 53.6817 9.11114C52.9025 8.65086 51.8164 8.41482 50.4351 8.41482C49.2663 8.41482 48.2274 8.61545 47.3301 9.00492C46.4329 9.39438 45.6537 9.93727 45.0162 10.6336C44.3786 11.3299 43.8946 12.156 43.564 13.1238C43.2335 14.0916 43.0682 15.1537 43.0682 16.2985V26.4954H41.557V7.64769Z" fill="#282828"/>
<path d="M61.1312 8.85147V7.63587H64.7911V3.75302C64.7911 3.09211 64.9091 2.52562 65.1453 2.04174C65.3814 1.55786 65.7119 1.1802 66.1251 0.885147C66.5384 0.590098 67.0106 0.365861 67.5537 0.224237C68.0967 0.0826137 68.6752 0 69.2891 0C69.7378 0 70.3399 0.0590098 71.0836 0.188831V1.40443C70.3399 1.28641 69.7378 1.2156 69.2891 1.2156C68.4391 1.2156 67.7308 1.39263 67.1641 1.74669C66.5974 2.10075 66.314 2.80887 66.314 3.85924V7.63587H70.576V8.85147H66.314V26.4954H64.8029V8.85147H61.143H61.1312Z" fill="#282828"/>
<path d="M73.1498 17.0775C73.1498 15.732 73.3505 14.4692 73.7637 13.2772C74.1769 12.097 74.779 11.0467 75.57 10.1379C76.361 9.22916 77.3527 8.52104 78.5097 7.98995C79.6785 7.45886 81.0125 7.19922 82.5237 7.19922C84.0349 7.19922 85.3808 7.45886 86.5377 7.98995C87.7065 8.52104 88.6864 9.22916 89.4774 10.1379C90.2684 11.0467 90.8823 12.0852 91.2837 13.2772C91.6851 14.4692 91.8976 15.732 91.8976 17.0775C91.8976 18.4229 91.6851 19.6975 91.2837 20.8895C90.8705 22.0933 90.2684 23.1319 89.4774 24.0288C88.6864 24.9258 87.6947 25.6339 86.5377 26.1532C85.3689 26.6842 84.0349 26.9439 82.5237 26.9439C81.0125 26.9439 79.6667 26.6842 78.5097 26.1532C77.3409 25.6221 76.361 24.914 75.57 24.0288C74.779 23.1319 74.1651 22.0933 73.7637 20.8895C73.3505 19.6975 73.1498 18.4229 73.1498 17.0775ZM74.6609 17.0775C74.6609 18.1986 74.838 19.2844 75.1804 20.323C75.5228 21.3616 76.0304 22.2821 76.6916 23.0965C77.3527 23.899 78.1791 24.5481 79.159 25.0202C80.1389 25.4923 81.2723 25.7401 82.5355 25.7401C83.7988 25.7401 84.9321 25.5041 85.9238 25.0202C86.9037 24.5481 87.7301 23.899 88.3913 23.0965C89.0524 22.2939 89.5601 21.3616 89.9024 20.323C90.2448 19.2844 90.4219 18.1986 90.4219 17.0775C90.4219 15.9563 90.2448 14.8705 89.9024 13.8319C89.5601 12.7933 89.0524 11.8728 88.3913 11.0585C87.7301 10.2559 86.9037 9.60682 85.9238 9.13474C84.9439 8.66266 83.8106 8.41482 82.5355 8.41482C81.2605 8.41482 80.1389 8.65086 79.159 9.13474C78.1791 9.60682 77.3527 10.2559 76.6916 11.0585C76.0304 11.861 75.5228 12.7933 75.1804 13.8319C74.838 14.8705 74.6609 15.9563 74.6609 17.0775Z" fill="#282828"/>
<path d="M105.888 7.52936H109.311V1.84082H113.845V7.52936H117.941V10.6451H113.845V20.7712C113.845 21.2078 113.868 21.5855 113.904 21.9041C113.939 22.2228 114.034 22.4942 114.187 22.7067C114.329 22.9309 114.553 23.0961 114.848 23.2024C115.143 23.3086 115.533 23.3676 116.041 23.3676C116.359 23.3676 116.678 23.3676 116.997 23.344C117.316 23.344 117.635 23.285 117.953 23.2142V26.4479C117.446 26.4951 116.962 26.5423 116.478 26.5895C116.005 26.6367 115.509 26.6603 115.002 26.6603C113.809 26.6603 112.841 26.5541 112.121 26.3535C111.389 26.141 110.822 25.8342 110.409 25.4329C109.996 25.0317 109.725 24.5242 109.571 23.9105C109.429 23.2968 109.335 22.6005 109.311 21.8215V10.6333H105.888V7.51756V7.52936Z" fill="#282828"/>
<path d="M126.265 18.1038C126.265 18.8356 126.371 19.5437 126.607 20.2282C126.831 20.9127 127.174 21.5146 127.622 22.0221C128.071 22.5296 128.649 22.9426 129.334 23.2495C130.019 23.5563 130.845 23.7098 131.802 23.7098C133.124 23.7098 134.198 23.4501 135.001 22.919C135.816 22.388 136.418 21.609 136.807 20.5587H141.105C140.869 21.5854 140.455 22.506 139.877 23.3085C139.298 24.111 138.59 24.7956 137.764 25.3502C136.937 25.9049 136.016 26.318 135.001 26.6013C133.974 26.8845 132.911 27.0261 131.802 27.0261C130.184 27.0261 128.756 26.7783 127.504 26.2944C126.253 25.8105 125.202 25.1142 124.34 24.2409C123.478 23.3557 122.829 22.3053 122.392 21.0897C121.956 19.8623 121.731 18.5169 121.731 17.0535C121.731 15.708 121.967 14.4334 122.428 13.2178C122.888 12.0022 123.561 10.9401 124.423 10.0313C125.285 9.11075 126.324 8.39083 127.552 7.84794C128.768 7.30505 130.149 7.04541 131.695 7.04541C133.313 7.04541 134.765 7.35226 136.052 7.97776C137.339 8.60327 138.401 9.42941 139.251 10.4562C140.101 11.4829 140.715 12.6631 141.105 13.9968C141.494 15.3304 141.589 16.6994 141.4 18.1274H126.276L126.265 18.1038ZM136.843 15.3422C136.784 14.6813 136.642 14.044 136.382 13.4303C136.134 12.8166 135.78 12.2855 135.343 11.837C134.907 11.3885 134.375 11.0227 133.75 10.7394C133.124 10.4562 132.427 10.3146 131.66 10.3146C130.893 10.3146 130.137 10.4444 129.488 10.704C128.838 10.9637 128.284 11.3177 127.811 11.7662C127.351 12.2147 126.973 12.7458 126.702 13.3595C126.418 13.9732 126.265 14.6341 126.241 15.3422H136.831H136.843Z" fill="#282828"/>
<path d="M160.242 13.879C160.053 12.6988 159.546 11.8137 158.707 11.2236C157.869 10.6335 156.818 10.3266 155.543 10.3266C154.965 10.3266 154.339 10.421 153.678 10.598C153.017 10.7869 152.403 11.1291 151.848 11.6248C151.293 12.1205 150.821 12.8286 150.455 13.7138C150.077 14.6107 149.9 15.7791 149.9 17.2189C149.9 17.9979 149.995 18.7886 150.195 19.5675C150.396 20.3465 150.715 21.0428 151.152 21.6565C151.588 22.2702 152.155 22.7659 152.84 23.1435C153.525 23.5212 154.363 23.71 155.343 23.71C156.665 23.71 157.763 23.3324 158.625 22.577C159.487 21.8217 160.018 20.7595 160.242 19.3787H164.776C164.351 21.8453 163.335 23.7336 161.73 25.0436C160.124 26.3537 157.999 27.0028 155.343 27.0028C153.725 27.0028 152.297 26.7549 151.069 26.2474C149.841 25.74 148.79 25.0672 147.94 24.1939C147.09 23.3206 146.453 22.2938 146.016 21.09C145.579 19.898 145.355 18.5998 145.355 17.2071C145.355 15.8145 145.567 14.4573 145.992 13.2063C146.417 11.9553 147.055 10.8813 147.905 9.96074C148.755 9.04019 149.806 8.32027 151.069 7.80099C152.332 7.2699 153.808 7.01025 155.508 7.01025C156.7 7.01025 157.834 7.15188 158.908 7.43512C159.982 7.71837 160.939 8.14324 161.777 8.69793C162.615 9.26443 163.3 9.97254 163.831 10.8223C164.362 11.672 164.681 12.687 164.787 13.8672H160.254L160.242 13.879Z" fill="#282828"/>
<path d="M96.6436 23.4506C96.6436 21.6921 98.0721 20.2759 99.8194 20.2759C101.567 20.2759 102.995 21.7039 102.995 23.4506C102.995 25.1973 101.567 26.6371 99.8194 26.6371C98.0721 26.6371 96.6436 25.2091 96.6436 23.4506Z" fill="#282828"/>
<path d="M3.87242 34.4146C3.64811 34.2258 3.35296 34.1314 2.97517 34.1314C2.65641 34.1314 2.38487 34.1904 2.17236 34.3084C1.95986 34.4264 1.78277 34.5799 1.6529 34.7805C1.52304 34.9811 1.42859 35.1936 1.38137 35.4532C1.32234 35.701 1.29872 35.9725 1.29872 36.2321C1.29872 36.48 1.32234 36.7278 1.38137 36.9639C1.4404 37.1999 1.53484 37.4123 1.6529 37.5894C1.77096 37.7664 1.93625 37.9198 2.13695 38.026C2.33765 38.1322 2.57377 38.1913 2.85711 38.1913C3.29393 38.1913 3.6363 38.0732 3.88423 37.849C4.13215 37.6248 4.28563 37.2943 4.33285 36.8812H5.24191C5.14746 37.5421 4.89954 38.0614 4.49814 38.4155C4.09674 38.7696 3.55366 38.9584 2.86892 38.9584C2.45571 38.9584 2.10153 38.8876 1.78277 38.7578C1.46401 38.6279 1.20428 38.4391 0.991769 38.2031C0.779262 37.9552 0.625785 37.672 0.519531 37.3415C0.413278 36.9993 0.354248 36.6334 0.354248 36.2321C0.354248 35.8309 0.401472 35.4532 0.507725 35.1109C0.613979 34.7687 0.767456 34.4618 0.979963 34.2022C1.19247 33.9426 1.4522 33.7419 1.77096 33.5885C2.08972 33.4351 2.45571 33.3643 2.88072 33.3643C3.18768 33.3643 3.47102 33.3997 3.74256 33.4705C4.01409 33.5413 4.23841 33.6593 4.45091 33.8127C4.65161 33.9662 4.8169 34.155 4.95857 34.391C5.10024 34.6271 5.17108 34.8985 5.20649 35.2172H4.29744C4.2266 34.8749 4.08493 34.6153 3.86062 34.4264L3.87242 34.4146Z" fill="#282828"/>
<path d="M6.37524 35.0638C6.4815 34.7216 6.64678 34.4265 6.87109 34.1669C7.09541 33.919 7.36694 33.7184 7.68571 33.565C8.01627 33.4234 8.38226 33.3525 8.80727 33.3525C9.23229 33.3525 9.61008 33.4234 9.92884 33.565C10.2476 33.7066 10.5191 33.9072 10.7434 34.1669C10.9678 34.4147 11.133 34.7216 11.2393 35.0638C11.3456 35.4061 11.4046 35.7719 11.4046 36.1732C11.4046 36.5745 11.3456 36.9403 11.2393 37.2708C11.133 37.6012 10.9678 37.9081 10.7434 38.1559C10.5191 38.4038 10.2476 38.6044 9.92884 38.746C9.61008 38.8877 9.23229 38.9585 8.80727 38.9585C8.38226 38.9585 8.01627 38.8877 7.68571 38.746C7.35514 38.6044 7.0836 38.4038 6.87109 38.1559C6.65859 37.9081 6.4815 37.613 6.37524 37.2708C6.26899 36.9285 6.20996 36.5627 6.20996 36.1732C6.20996 35.7837 6.26899 35.4061 6.37524 35.0638ZM7.2725 37.0348C7.35514 37.2826 7.4732 37.495 7.62668 37.6721C7.78015 37.8491 7.95724 37.9671 8.15794 38.0615C8.35864 38.1559 8.58296 38.1913 8.80727 38.1913C9.03158 38.1913 9.2559 38.1441 9.4566 38.0615C9.6573 37.9671 9.83439 37.8373 9.98787 37.6721C10.1413 37.5068 10.2594 37.2944 10.342 37.0348C10.4247 36.7869 10.4719 36.4919 10.4719 36.1732C10.4719 35.8546 10.4247 35.5595 10.342 35.3117C10.2594 35.0638 10.1413 34.8514 9.98787 34.6744C9.83439 34.4973 9.6573 34.3675 9.4566 34.2849C9.2559 34.1905 9.03158 34.1551 8.80727 34.1551C8.58296 34.1551 8.35864 34.2023 8.15794 34.2849C7.95724 34.3675 7.78015 34.5091 7.62668 34.6744C7.4732 34.8514 7.35514 35.0638 7.2725 35.3117C7.18985 35.5595 7.14263 35.8546 7.14263 36.1732C7.14263 36.4919 7.18985 36.7869 7.2725 37.0348Z" fill="#282828"/>
<path d="M13.5533 33.4824V34.3321H13.5769C13.9429 33.683 14.5214 33.3525 15.3242 33.3525C15.6784 33.3525 15.9735 33.3997 16.2096 33.4942C16.4458 33.5886 16.6347 33.7302 16.7763 33.8954C16.918 34.0607 17.0243 34.2731 17.0833 34.5091C17.1423 34.7452 17.1659 35.0166 17.1659 35.2999V38.8286H16.2805V35.1936C16.2805 34.8632 16.186 34.6035 15.9853 34.4029C15.7846 34.2023 15.5249 34.1079 15.1825 34.1079C14.911 34.1079 14.6749 34.1551 14.486 34.2377C14.2971 34.3203 14.12 34.4383 13.9901 34.5917C13.8603 34.7452 13.7658 34.9222 13.695 35.1228C13.6241 35.3235 13.6005 35.5477 13.6005 35.7955V38.8286H12.7151V33.4588H13.5415L13.5533 33.4824Z" fill="#282828"/>
<path d="M19.4327 37.6485C19.5153 37.7784 19.6216 37.8964 19.7633 37.9672C19.9049 38.038 20.0466 38.1088 20.2237 38.1442C20.389 38.1796 20.5661 38.1914 20.7432 38.1914C20.8848 38.1914 21.0265 38.1914 21.18 38.156C21.3335 38.1206 21.4751 38.097 21.605 38.038C21.7349 37.979 21.8411 37.8964 21.9238 37.7902C22.0064 37.6839 22.0536 37.5423 22.0536 37.3771C22.0536 37.1529 21.971 36.9758 21.7939 36.8578C21.6168 36.7398 21.4043 36.6454 21.1446 36.5746C20.8848 36.5037 20.6015 36.4329 20.2945 36.3739C19.9876 36.3149 19.7042 36.2323 19.4445 36.1261C19.1848 36.0199 18.9723 35.8664 18.7952 35.6776C18.6181 35.4888 18.5355 35.2173 18.5355 34.8633C18.5355 34.5918 18.5945 34.3676 18.7125 34.167C18.8306 33.9663 18.9841 33.8129 19.1848 33.6949C19.3737 33.5769 19.5862 33.4824 19.8341 33.4234C20.082 33.3644 20.3063 33.3408 20.5425 33.3408C20.8494 33.3408 21.1328 33.3644 21.3807 33.4234C21.6286 33.4824 21.8647 33.5651 22.0654 33.6949C22.2661 33.8247 22.4196 33.9899 22.5377 34.2142C22.6557 34.4266 22.7266 34.698 22.7502 35.0285H21.8647C21.8529 34.8515 21.8057 34.7098 21.7349 34.5918C21.664 34.4738 21.5578 34.3912 21.4397 34.3204C21.3217 34.2496 21.1918 34.2024 21.0501 34.167C20.9084 34.1316 20.7668 34.1197 20.6133 34.1197C20.4834 34.1197 20.3536 34.1198 20.2119 34.1552C20.082 34.1788 19.9522 34.2142 19.8459 34.2614C19.7397 34.3086 19.6452 34.3794 19.5744 34.4738C19.5035 34.5682 19.4681 34.6744 19.4681 34.8161C19.4681 34.9695 19.5272 35.0993 19.6334 35.1937C19.7397 35.2881 19.8813 35.3826 20.0466 35.4416C20.2119 35.5124 20.4008 35.5596 20.6133 35.6068C20.8258 35.654 21.0265 35.7012 21.239 35.7484C21.4633 35.7956 21.6758 35.8546 21.8883 35.9254C22.1009 35.9963 22.2897 36.0907 22.4432 36.1969C22.5967 36.3031 22.7384 36.4565 22.8328 36.6336C22.9273 36.8106 22.9863 37.023 22.9863 37.2709C22.9863 37.6013 22.9155 37.861 22.7856 38.0852C22.6557 38.2976 22.4786 38.4747 22.2543 38.6045C22.0418 38.7343 21.7939 38.8287 21.5224 38.8759C21.2508 38.9231 20.9793 38.9586 20.7077 38.9586C20.4126 38.9586 20.1293 38.9231 19.8577 38.8641C19.5862 38.8051 19.3501 38.6989 19.1376 38.5573C18.925 38.4157 18.7598 38.2268 18.6417 38.0026C18.5236 37.7784 18.4528 37.4833 18.4292 37.1529H19.3146C19.3146 37.3417 19.3619 37.5069 19.4445 37.6485H19.4327Z" fill="#282828"/>
<path d="M27.8149 38.8522V38.0025H27.7913C27.6024 38.3329 27.3663 38.5808 27.0711 38.7342C26.776 38.8876 26.4336 38.9702 26.044 38.9702C25.6898 38.9702 25.3947 38.923 25.1586 38.8286C24.9224 38.7342 24.7335 38.6044 24.5919 38.4274C24.4502 38.2503 24.3439 38.0497 24.2849 37.8137C24.2259 37.5776 24.2023 37.3062 24.2023 37.0229V33.4941H25.0877V37.1291C25.0877 37.4596 25.1822 37.7192 25.3829 37.9199C25.5718 38.1205 25.8433 38.2149 26.1857 38.2149C26.4572 38.2149 26.6933 38.1677 26.8822 38.0851C27.0829 38.0025 27.2482 37.8845 27.3781 37.731C27.5079 37.5776 27.6024 37.4006 27.6732 37.2C27.7441 36.9993 27.7677 36.7751 27.7677 36.5272V33.4941H28.6531V38.864H27.8267L27.8149 38.8522Z" fill="#282828"/>
<path d="M31.1678 31.4404V38.8521H30.2823V31.4404H31.1678Z" fill="#282828"/>
<path d="M35.0992 33.482V34.2609H34.0249V37.5891C34.0249 37.6953 34.0249 37.7779 34.0485 37.8369C34.0721 37.896 34.0957 37.9432 34.1429 37.9786C34.1901 38.014 34.261 38.0376 34.3436 38.0494C34.4263 38.0612 34.5443 38.0612 34.686 38.0612H35.0874V38.8401H34.4144C34.1901 38.8401 33.9894 38.8283 33.8242 38.7929C33.6589 38.7575 33.529 38.7103 33.4346 38.6277C33.3283 38.5451 33.2575 38.427 33.2102 38.2736C33.163 38.1202 33.1394 37.9196 33.1394 37.6717V34.2609H32.2303V33.482H33.1394V31.877H34.0249V33.482H35.0992Z" fill="#282828"/>
<path d="M36.386 32.5145V31.4287H37.2714V32.5145H36.386ZM37.2714 33.4823V38.8521H36.386V33.4823H37.2714Z" fill="#282828"/>
<path d="M39.7271 33.4824V34.3321H39.7508C40.1167 33.683 40.6952 33.3525 41.498 33.3525C41.8522 33.3525 42.1474 33.3997 42.3835 33.4942C42.6196 33.5886 42.8085 33.7302 42.9502 33.8954C43.0918 34.0607 43.1981 34.2731 43.2571 34.5091C43.3161 34.7452 43.3398 35.0166 43.3398 35.2999V38.8286H42.4543V35.1936C42.4543 34.8632 42.3599 34.6035 42.1592 34.4029C41.9585 34.2023 41.6987 34.1079 41.3564 34.1079C41.0848 34.1079 40.8487 34.1551 40.6598 34.2377C40.4709 34.3203 40.2938 34.4383 40.164 34.5917C40.0341 34.7452 39.9396 34.9222 39.8688 35.1228C39.798 35.3235 39.7744 35.5477 39.7744 35.7955V38.8286H38.8889V33.4588H39.7153L39.7271 33.4824Z" fill="#282828"/>
<path d="M48.9594 40.3626C48.558 40.7993 47.9323 41.0118 47.0705 41.0118C46.8225 41.0118 46.5628 40.9882 46.3031 40.9291C46.0433 40.8701 45.8072 40.7875 45.5947 40.6577C45.3822 40.5279 45.2051 40.3745 45.0752 40.1738C44.9454 39.9732 44.8627 39.7253 44.8509 39.4421H45.7364C45.7364 39.5955 45.7954 39.7371 45.8899 39.8434C45.9843 39.9496 46.1024 40.044 46.2322 40.1148C46.3621 40.1856 46.5156 40.2328 46.669 40.2682C46.8225 40.3036 46.976 40.3154 47.1295 40.3154C47.4246 40.3154 47.6608 40.2682 47.8615 40.162C48.0622 40.0676 48.2274 39.926 48.3573 39.7489C48.4872 39.5719 48.5816 39.3595 48.6406 39.1116C48.6997 38.8638 48.7233 38.5924 48.7233 38.2973V37.9432H48.6997C48.5462 38.2737 48.3219 38.5215 48.0149 38.675C47.708 38.8284 47.3774 38.911 47.035 38.911C46.6336 38.911 46.2795 38.8402 45.9843 38.6986C45.6892 38.557 45.4412 38.3563 45.2405 38.1085C45.0398 37.8606 44.8863 37.5774 44.7919 37.2469C44.6856 36.9165 44.6384 36.5742 44.6384 36.2084C44.6384 35.8897 44.6856 35.5593 44.7683 35.2288C44.8509 34.8983 44.9926 34.5915 45.1815 34.32C45.3704 34.0486 45.6301 33.8244 45.9489 33.6473C46.2676 33.4703 46.6572 33.3877 47.1177 33.3877C47.46 33.3877 47.767 33.4585 48.0503 33.6119C48.3337 33.7654 48.558 33.9896 48.7115 34.2846V33.5175H49.5379V38.4271C49.5379 39.3005 49.3372 39.9614 48.9358 40.3981L48.9594 40.3626ZM47.8378 37.9551C48.0385 37.837 48.2038 37.6718 48.3337 37.483C48.4636 37.2941 48.5462 37.0581 48.6052 36.8103C48.6643 36.5624 48.6997 36.3146 48.6997 36.0667C48.6997 35.8307 48.6761 35.5947 48.617 35.3704C48.558 35.1462 48.4754 34.9338 48.3573 34.7567C48.2392 34.5797 48.074 34.4263 47.8851 34.32C47.6962 34.2138 47.46 34.1548 47.1767 34.1548C46.8934 34.1548 46.6454 34.2138 46.4447 34.32C46.244 34.4263 46.0788 34.5679 45.9489 34.7449C45.819 34.9219 45.7246 35.1344 45.6655 35.3704C45.6065 35.6065 45.5829 35.8543 45.5829 36.1021C45.5829 36.35 45.6065 36.586 45.6537 36.8339C45.701 37.0817 45.7836 37.2941 45.9017 37.4948C46.0197 37.6954 46.1732 37.8488 46.3739 37.9669C46.5628 38.0849 46.8107 38.1439 47.1059 38.1439C47.401 38.1439 47.6489 38.0849 47.8496 37.9669L47.8378 37.9551Z" fill="#282828"/>
<path d="M61.6035 37.6485C61.6861 37.7784 61.7924 37.8964 61.934 37.9672C62.0757 38.038 62.2174 38.1088 62.3945 38.1442C62.5598 38.1796 62.7369 38.1914 62.9139 38.1914C63.0556 38.1914 63.1973 38.1914 63.3508 38.156C63.5042 38.1206 63.6459 38.097 63.7758 38.038C63.9056 37.979 64.0119 37.8964 64.0945 37.7902C64.1772 37.6839 64.2244 37.5423 64.2244 37.3771C64.2244 37.1529 64.1418 36.9758 63.9647 36.8578C63.7876 36.7398 63.5751 36.6454 63.3153 36.5746C63.0556 36.5037 62.7723 36.4329 62.4653 36.3739C62.1584 36.3149 61.875 36.2323 61.6153 36.1261C61.3556 36.0199 61.143 35.8664 60.966 35.6776C60.7889 35.4888 60.7062 35.2173 60.7062 34.8633C60.7062 34.5918 60.7653 34.3676 60.8833 34.167C61.0014 33.9663 61.1549 33.8129 61.3556 33.6949C61.5445 33.5769 61.757 33.4824 62.0049 33.4234C62.2528 33.3644 62.4771 33.3408 62.7132 33.3408C63.0202 33.3408 63.3035 33.3644 63.5515 33.4234C63.7994 33.4824 64.0355 33.5651 64.2362 33.6949C64.4369 33.8247 64.5904 33.9899 64.7084 34.2142C64.8265 34.4266 64.8973 34.698 64.921 35.0285H64.0355C64.0237 34.8515 63.9765 34.7098 63.9056 34.5918C63.8348 34.4738 63.7286 34.3912 63.6105 34.3204C63.4924 34.2496 63.3626 34.2024 63.2209 34.167C63.0792 34.1316 62.9376 34.1197 62.7841 34.1197C62.6542 34.1197 62.5243 34.1198 62.3827 34.1552C62.2528 34.1788 62.1229 34.2142 62.0167 34.2614C61.9104 34.3086 61.816 34.3794 61.7452 34.4738C61.6743 34.5682 61.6389 34.6744 61.6389 34.8161C61.6389 34.9695 61.6979 35.0993 61.8042 35.1937C61.9104 35.2881 62.0521 35.3826 62.2174 35.4416C62.3827 35.5124 62.5716 35.5596 62.7841 35.6068C62.9966 35.654 63.1973 35.7012 63.4098 35.7484C63.6341 35.7956 63.8466 35.8546 64.0591 35.9254C64.2716 35.9963 64.4605 36.0907 64.614 36.1969C64.7675 36.3031 64.9091 36.4565 65.0036 36.6336C65.098 36.8106 65.1571 37.023 65.1571 37.2709C65.1571 37.6013 65.0862 37.861 64.9564 38.0852C64.8265 38.2976 64.6494 38.4747 64.4251 38.6045C64.2126 38.7343 63.9647 38.8287 63.6931 38.8759C63.4216 38.9231 63.1501 38.9586 62.8785 38.9586C62.5834 38.9586 62.3 38.9231 62.0285 38.8641C61.757 38.8051 61.5208 38.6989 61.3083 38.5573C61.0958 38.4157 60.9305 38.2268 60.8125 38.0026C60.6944 37.7784 60.6236 37.4833 60.6 37.1529H61.4854C61.4854 37.3417 61.5326 37.5069 61.6153 37.6485H61.6035Z" fill="#282828"/>
<path d="M70.1864 38.51C69.785 38.8168 69.2774 38.9703 68.6753 38.9703C68.2502 38.9703 67.8725 38.8995 67.5537 38.7578C67.2349 38.6162 66.9752 38.4274 66.7627 38.1795C66.5502 37.9317 66.3849 37.6366 66.2786 37.2826C66.1724 36.9403 66.1134 36.5627 66.1016 36.1496C66.1016 35.7365 66.1606 35.3707 66.2905 35.0284C66.4203 34.6862 66.5856 34.3911 66.8099 34.1433C67.0342 33.8954 67.3058 33.6948 67.6127 33.565C67.9197 33.4234 68.2621 33.3525 68.628 33.3525C69.1003 33.3525 69.5017 33.447 69.8204 33.6476C70.1392 33.8482 70.3871 34.0961 70.576 34.4029C70.7649 34.7098 70.8948 35.0402 70.9656 35.3943C71.0365 35.7483 71.0719 36.0906 71.0483 36.421H67.0342C67.0342 36.6571 67.0578 36.8813 67.1169 37.0938C67.1759 37.3062 67.2822 37.495 67.412 37.6603C67.5419 37.8255 67.7308 37.9553 67.9433 38.0497C68.1558 38.1441 68.4155 38.1913 68.6989 38.1913C69.0767 38.1913 69.3836 38.1087 69.6197 37.9317C69.8559 37.7547 70.0211 37.495 70.092 37.141H70.9656C70.8476 37.7429 70.5878 38.1913 70.1864 38.4982V38.51ZM69.9739 35.0638C69.8913 34.875 69.785 34.7216 69.6552 34.5799C69.5253 34.4383 69.36 34.3321 69.1829 34.2613C69.0058 34.1905 68.7933 34.1433 68.5808 34.1433C68.3683 34.1433 68.144 34.1787 67.9669 34.2613C67.778 34.3439 67.6245 34.4501 67.4947 34.5917C67.3648 34.7334 67.2585 34.8868 67.1877 35.0756C67.1169 35.2645 67.0696 35.4533 67.0578 35.6657H70.1392C70.1274 35.4533 70.0802 35.2645 69.9975 35.0756L69.9739 35.0638Z" fill="#282828"/>
<path d="M75.4282 34.4146C75.2039 34.2258 74.9087 34.1314 74.531 34.1314C74.2122 34.1314 73.9407 34.1904 73.7282 34.3084C73.5156 34.4264 73.3386 34.5799 73.2087 34.7805C73.0788 34.9811 72.9844 35.1936 72.9372 35.4532C72.8781 35.701 72.8545 35.9725 72.8545 36.2321C72.8545 36.48 72.8781 36.7278 72.9372 36.9639C72.9962 37.1999 73.0906 37.4123 73.2087 37.5894C73.3267 37.7664 73.492 37.9198 73.6927 38.026C73.8934 38.1322 74.1296 38.1913 74.4129 38.1913C74.8497 38.1913 75.1921 38.0732 75.44 37.849C75.6879 37.6248 75.8414 37.2943 75.8886 36.8812H76.7977C76.7033 37.5421 76.4553 38.0614 76.0539 38.4155C75.6525 38.7696 75.1094 38.9584 74.4247 38.9584C74.0115 38.9584 73.6573 38.8876 73.3386 38.7578C73.0198 38.6279 72.7601 38.4391 72.5476 38.2031C72.335 37.9552 72.1816 37.672 72.0753 37.3415C71.9691 36.9993 71.91 36.6334 71.91 36.2321C71.91 35.8309 71.9573 35.4532 72.0635 35.1109C72.1698 34.7687 72.3232 34.4618 72.5357 34.2022C72.7483 33.9426 73.008 33.7419 73.3267 33.5885C73.6455 33.4351 74.0115 33.3643 74.4365 33.3643C74.7435 33.3643 75.0268 33.3997 75.2983 33.4705C75.5699 33.5413 75.7942 33.6593 76.0067 33.8127C76.2074 33.9662 76.3727 34.155 76.5144 34.391C76.656 34.6271 76.7269 34.8985 76.7623 35.2172H75.8532C75.7824 34.8749 75.6407 34.6153 75.4164 34.4264L75.4282 34.4146Z" fill="#282828"/>
<path d="M81.6618 38.8522V38.0025H81.6382C81.4493 38.3329 81.2132 38.5808 80.918 38.7342C80.6229 38.8876 80.2805 38.9702 79.8909 38.9702C79.5367 38.9702 79.2416 38.923 79.0055 38.8286C78.7694 38.7342 78.5805 38.6044 78.4388 38.4274C78.2971 38.2503 78.1909 38.0497 78.1318 37.8137C78.0728 37.5776 78.0492 37.3062 78.0492 37.0229V33.4941H78.9346V37.1291C78.9346 37.4596 79.0291 37.7192 79.2298 37.9199C79.4187 38.1205 79.6902 38.2149 80.0326 38.2149C80.3041 38.2149 80.5402 38.1677 80.7291 38.0851C80.9298 38.0025 81.0951 37.8845 81.225 37.731C81.3549 37.5776 81.4493 37.4006 81.5201 37.2C81.591 36.9993 81.6146 36.7751 81.6146 36.5272V33.4941H82.5V38.864H81.6736L81.6618 38.8522Z" fill="#282828"/>
<path d="M84.8848 33.4824V34.6154H84.9084C85.1209 34.1787 85.3806 33.86 85.6994 33.6476C86.0063 33.4352 86.4077 33.3407 86.88 33.3525V34.2849C86.5258 34.2849 86.2307 34.3321 85.9827 34.4265C85.7348 34.5209 85.5341 34.6626 85.3806 34.8514C85.2271 35.0402 85.1209 35.2645 85.0501 35.5359C84.9792 35.8074 84.9438 36.1142 84.9438 36.4565V38.8405H84.0583V33.4706H84.8848V33.4824Z" fill="#282828"/>
<path d="M87.8599 32.5145V31.4287H88.7454V32.5145H87.8599ZM88.7336 33.4823V38.8521H87.8481V33.4823H88.7336Z" fill="#282828"/>
<path d="M92.665 33.482V34.2609H91.5907V37.5891C91.5907 37.6953 91.5906 37.7779 91.6143 37.8369C91.6379 37.896 91.6615 37.9432 91.7087 37.9786C91.7559 38.014 91.8268 38.0376 91.9094 38.0494C91.9921 38.0612 92.1101 38.0612 92.2518 38.0612H92.6532V38.8401H91.9803C91.7559 38.8401 91.5552 38.8283 91.39 38.7929C91.2247 38.7575 91.0948 38.7103 91.0004 38.6277C90.9059 38.5451 90.8233 38.427 90.776 38.2736C90.7288 38.1202 90.7052 37.9196 90.7052 37.6717V34.2609H89.7961V33.482H90.7052V31.877H91.5907V33.482H92.665Z" fill="#282828"/>
<path d="M96.0061 39.5601C95.8998 39.8197 95.8054 40.044 95.6991 40.221C95.5929 40.398 95.4866 40.5515 95.3686 40.6577C95.2505 40.7639 95.1088 40.8583 94.9672 40.9055C94.8137 40.9527 94.6484 40.9881 94.4477 40.9881C94.3414 40.9881 94.2352 40.9881 94.1407 40.9645C94.0463 40.9409 93.94 40.9291 93.8338 40.8937V40.0794C93.9046 40.1148 93.9991 40.1384 94.0935 40.162C94.188 40.1856 94.2824 40.1974 94.3533 40.1974C94.5303 40.1974 94.6838 40.1502 94.8019 40.0676C94.9199 39.985 95.0144 39.8552 95.0734 39.7017L95.4394 38.793L93.3143 33.4585H94.306L95.8762 37.8488H95.8998L97.411 33.4585H98.3437L96.0061 39.5365V39.5601Z" fill="#282828"/>
<path d="M108.827 35.0633C108.934 34.7211 109.099 34.426 109.323 34.1664C109.547 33.9185 109.819 33.7179 110.138 33.5645C110.456 33.4111 110.834 33.3521 111.259 33.3521C111.684 33.3521 112.062 33.4229 112.381 33.5645C112.7 33.7061 112.971 33.9067 113.195 34.1664C113.42 34.4142 113.585 34.7211 113.691 35.0633C113.798 35.4056 113.857 35.7715 113.857 36.1727C113.857 36.574 113.798 36.9398 113.691 37.2703C113.585 37.6008 113.42 37.9076 113.195 38.1554C112.971 38.4033 112.7 38.6039 112.381 38.7455C112.062 38.8872 111.684 38.958 111.259 38.958C110.834 38.958 110.468 38.8872 110.138 38.7455C109.807 38.6039 109.536 38.4033 109.323 38.1554C109.099 37.9076 108.934 37.6126 108.827 37.2703C108.721 36.928 108.662 36.5622 108.662 36.1727C108.662 35.7833 108.721 35.4056 108.827 35.0633ZM109.725 37.0343C109.807 37.2821 109.925 37.4945 110.079 37.6716C110.232 37.8486 110.409 37.9666 110.61 38.061C110.811 38.1554 111.035 38.1909 111.259 38.1909C111.484 38.1909 111.708 38.1436 111.909 38.061C112.109 37.9784 112.286 37.8368 112.44 37.6716C112.593 37.5063 112.711 37.2939 112.794 37.0343C112.877 36.7864 112.924 36.4914 112.924 36.1727C112.924 35.8541 112.877 35.559 112.794 35.3112C112.711 35.0633 112.593 34.8509 112.44 34.6739C112.286 34.4968 112.109 34.367 111.909 34.2844C111.708 34.2018 111.484 34.1546 111.259 34.1546C111.035 34.1546 110.811 34.2018 110.61 34.2844C110.409 34.367 110.232 34.5086 110.079 34.6739C109.925 34.8509 109.807 35.0633 109.725 35.3112C109.642 35.559 109.595 35.8541 109.595 36.1727C109.595 36.4914 109.642 36.7864 109.725 37.0343Z" fill="#282828"/>
<path d="M118.792 38.8517V38.002H118.768C118.579 38.3325 118.343 38.5803 118.048 38.7337C117.753 38.8871 117.41 38.9698 117.021 38.9698C116.666 38.9698 116.371 38.9226 116.135 38.8281C115.899 38.7337 115.71 38.6039 115.569 38.4269C115.427 38.2498 115.321 38.0492 115.262 37.8132C115.203 37.5771 115.167 37.3057 115.167 37.0224V33.4937H116.053V37.1287C116.053 37.4591 116.147 37.7188 116.348 37.9194C116.537 38.12 116.808 38.2144 117.151 38.2144C117.422 38.2144 117.658 38.1672 117.847 38.0846C118.048 38.002 118.213 37.884 118.343 37.7306C118.473 37.5771 118.579 37.4001 118.638 37.1995C118.709 36.9988 118.733 36.7746 118.733 36.5268V33.4937H119.618V38.8635H118.792V38.8517Z" fill="#282828"/>
<path d="M123.502 33.482V34.2609H122.428V37.5891C122.428 37.6953 122.428 37.7779 122.451 37.8369C122.475 37.896 122.499 37.9432 122.546 37.9786C122.593 38.014 122.664 38.0376 122.746 38.0494C122.829 38.0612 122.947 38.0612 123.089 38.0612H123.49V38.8401H122.817C122.593 38.8401 122.392 38.8283 122.227 38.7929C122.062 38.7575 121.932 38.7103 121.837 38.6277C121.743 38.5451 121.66 38.427 121.613 38.2736C121.566 38.1202 121.542 37.9196 121.542 37.6717V34.2609H120.633V33.482H121.542V31.877H122.428V33.482H123.502Z" fill="#282828"/>
<path d="M125.415 37.648C125.497 37.7779 125.604 37.8959 125.745 37.9667C125.875 38.0493 126.029 38.1083 126.206 38.1437C126.383 38.1791 126.548 38.1909 126.725 38.1909C126.867 38.1909 127.008 38.1909 127.162 38.1555C127.315 38.1201 127.457 38.0965 127.587 38.0375C127.717 37.9785 127.823 37.8959 127.906 37.7897C127.988 37.6835 128.036 37.5418 128.036 37.3766C128.036 37.1524 127.953 36.9753 127.776 36.8573C127.599 36.7393 127.386 36.6449 127.127 36.5741C126.867 36.5033 126.583 36.4324 126.277 36.3734C125.97 36.3144 125.686 36.2318 125.426 36.1256C125.167 36.0194 124.954 35.866 124.777 35.6771C124.6 35.4883 124.517 35.2168 124.517 34.8628C124.517 34.5913 124.576 34.3671 124.695 34.1665C124.813 33.9658 124.966 33.8124 125.167 33.6944C125.367 33.5764 125.568 33.482 125.816 33.4229C126.052 33.3639 126.288 33.3403 126.524 33.3403C126.831 33.3403 127.115 33.3639 127.363 33.4229C127.611 33.482 127.847 33.5646 128.047 33.6944C128.248 33.8242 128.402 33.9894 128.52 34.2137C128.638 34.4261 128.709 34.6976 128.732 35.028H127.847C127.835 34.851 127.788 34.7094 127.717 34.5913C127.646 34.4733 127.54 34.3907 127.422 34.3199C127.304 34.2491 127.174 34.2019 127.032 34.1665C126.89 34.1311 126.749 34.1193 126.607 34.1193C126.477 34.1193 126.347 34.1193 126.206 34.1547C126.064 34.1901 125.946 34.2137 125.84 34.2609C125.733 34.3081 125.639 34.3789 125.568 34.4733C125.497 34.5677 125.462 34.674 125.462 34.8156C125.462 34.969 125.509 35.0988 125.627 35.1932C125.745 35.2877 125.875 35.3821 126.04 35.4411C126.206 35.5001 126.395 35.5591 126.607 35.6063C126.82 35.6535 127.02 35.7007 127.233 35.7479C127.457 35.7951 127.67 35.8541 127.882 35.925C128.095 35.9958 128.284 36.0902 128.437 36.1964C128.59 36.3026 128.732 36.4561 128.827 36.6331C128.921 36.8101 128.98 37.0225 128.98 37.2704C128.98 37.6008 128.909 37.8605 128.779 38.0847C128.65 38.2972 128.472 38.4742 128.248 38.604C128.024 38.7338 127.788 38.8282 127.516 38.8755C127.245 38.9227 126.973 38.9581 126.702 38.9581C126.406 38.9581 126.123 38.9227 125.851 38.8636C125.58 38.8046 125.344 38.6984 125.131 38.5568C124.919 38.4152 124.754 38.2263 124.635 38.0021C124.517 37.7779 124.447 37.4828 124.423 37.1524H125.308C125.308 37.3412 125.356 37.5064 125.438 37.648H125.415Z" fill="#282828"/>
<path d="M130.066 35.0633C130.172 34.7211 130.338 34.426 130.562 34.1664C130.786 33.9185 131.058 33.7179 131.377 33.5645C131.695 33.4111 132.073 33.3521 132.498 33.3521C132.923 33.3521 133.301 33.4229 133.62 33.5645C133.939 33.7061 134.21 33.9067 134.434 34.1664C134.659 34.4142 134.824 34.7211 134.93 35.0633C135.036 35.4056 135.095 35.7715 135.095 36.1727C135.095 36.574 135.036 36.9398 134.93 37.2703C134.824 37.6008 134.659 37.9076 134.434 38.1554C134.21 38.4033 133.939 38.6039 133.62 38.7455C133.301 38.8872 132.923 38.958 132.498 38.958C132.073 38.958 131.707 38.8872 131.377 38.7455C131.046 38.6039 130.775 38.4033 130.562 38.1554C130.338 37.9076 130.172 37.6126 130.066 37.2703C129.96 36.928 129.901 36.5622 129.901 36.1727C129.901 35.7833 129.96 35.4056 130.066 35.0633ZM130.963 37.0343C131.046 37.2821 131.164 37.4945 131.318 37.6716C131.471 37.8486 131.648 37.9666 131.849 38.061C132.05 38.1554 132.274 38.1909 132.498 38.1909C132.723 38.1909 132.947 38.1436 133.148 38.061C133.348 37.9784 133.525 37.8368 133.679 37.6716C133.832 37.5063 133.95 37.2939 134.033 37.0343C134.116 36.7864 134.163 36.4914 134.163 36.1727C134.163 35.8541 134.116 35.559 134.033 35.3112C133.95 35.0633 133.832 34.8509 133.679 34.6739C133.525 34.4968 133.348 34.367 133.148 34.2844C132.947 34.2018 132.723 34.1546 132.498 34.1546C132.274 34.1546 132.05 34.2018 131.849 34.2844C131.648 34.367 131.471 34.5086 131.318 34.6739C131.164 34.8509 131.046 35.0633 130.963 35.3112C130.881 35.559 130.834 35.8541 130.834 36.1727C130.834 36.4914 130.881 36.7864 130.963 37.0343Z" fill="#282828"/>
<path d="M140.019 38.8517V38.002H139.995C139.806 38.3325 139.57 38.5803 139.275 38.7337C138.98 38.8871 138.637 38.9698 138.248 38.9698C137.894 38.9698 137.598 38.9226 137.362 38.8281C137.126 38.7337 136.937 38.6039 136.796 38.4269C136.654 38.2498 136.548 38.0492 136.489 37.8132C136.43 37.5771 136.394 37.3057 136.394 37.0224V33.4937H137.28V37.1287C137.28 37.4591 137.374 37.7188 137.575 37.9194C137.764 38.12 138.035 38.2144 138.378 38.2144C138.649 38.2144 138.885 38.1672 139.074 38.0846C139.275 38.002 139.44 37.884 139.57 37.7306C139.7 37.5771 139.806 37.4001 139.865 37.1995C139.936 36.9988 139.96 36.7746 139.96 36.5268V33.4937H140.845V38.8635H140.019V38.8517Z" fill="#282828"/>
<path d="M143.242 33.4819V34.6149H143.265C143.478 34.1782 143.737 33.8595 144.056 33.6471C144.363 33.4347 144.765 33.3403 145.237 33.3521V34.2844C144.883 34.2844 144.587 34.3316 144.34 34.426C144.092 34.5204 143.891 34.6621 143.737 34.8509C143.584 35.0397 143.478 35.264 143.407 35.5354C143.336 35.8069 143.301 36.1137 143.301 36.456V38.84H142.415V33.4701H143.242V33.4819Z" fill="#282828"/>
<path d="M149.145 34.4146C148.92 34.2258 148.625 34.1314 148.247 34.1314C147.929 34.1314 147.657 34.1904 147.445 34.3084C147.232 34.4264 147.055 34.5799 146.937 34.7805C146.807 34.9811 146.713 35.1936 146.665 35.4532C146.606 35.701 146.583 35.9725 146.583 36.2321C146.583 36.48 146.606 36.7278 146.665 36.9639C146.724 37.1999 146.819 37.4123 146.937 37.5894C147.055 37.7664 147.22 37.9198 147.421 38.026C147.622 38.1322 147.858 38.1913 148.141 38.1913C148.578 38.1913 148.92 38.0732 149.168 37.849C149.416 37.6248 149.57 37.2943 149.617 36.8812H150.514C150.42 37.5421 150.172 38.0614 149.77 38.4155C149.369 38.7696 148.826 38.9584 148.141 38.9584C147.728 38.9584 147.374 38.8876 147.055 38.7578C146.736 38.6279 146.476 38.4391 146.264 38.2031C146.051 37.9552 145.898 37.672 145.792 37.3415C145.685 36.9993 145.626 36.6334 145.626 36.2321C145.626 35.8309 145.674 35.4532 145.78 35.1109C145.886 34.7687 146.04 34.4618 146.252 34.2022C146.465 33.9426 146.724 33.7419 147.043 33.5885C147.362 33.4351 147.728 33.3643 148.153 33.3643C148.46 33.3643 148.743 33.3997 149.015 33.4705C149.286 33.5413 149.511 33.6593 149.723 33.8127C149.936 33.9662 150.101 34.155 150.231 34.391C150.361 34.6271 150.443 34.8985 150.479 35.2172H149.57C149.499 34.8749 149.357 34.6153 149.133 34.4264L149.145 34.4146Z" fill="#282828"/>
<path d="M151.825 32.5145V31.4287H152.71V32.5145H151.825ZM152.71 33.4823V38.8521H151.825V33.4823H152.71Z" fill="#282828"/>
<path d="M155.166 33.4824V34.3321H155.189C155.555 33.683 156.134 33.3525 156.937 33.3525C157.291 33.3525 157.586 33.3997 157.822 33.4942C158.058 33.5886 158.247 33.7302 158.389 33.8954C158.53 34.0607 158.637 34.2731 158.696 34.5091C158.755 34.7452 158.778 35.0166 158.778 35.2999V38.8286H157.893V35.1936C157.893 34.8632 157.798 34.6035 157.598 34.4029C157.409 34.2141 157.137 34.1079 156.795 34.1079C156.523 34.1079 156.287 34.1551 156.098 34.2377C155.91 34.3203 155.732 34.4383 155.603 34.5917C155.473 34.7452 155.378 34.9222 155.307 35.1228C155.237 35.3235 155.213 35.5477 155.213 35.7955V38.8286H154.328V33.4588H155.154L155.166 33.4824Z" fill="#282828"/>
<path d="M164.398 40.3626C163.997 40.7993 163.371 41.0118 162.509 41.0118C162.261 41.0118 162.001 40.9882 161.742 40.9291C161.482 40.8701 161.246 40.7875 161.033 40.6577C160.821 40.5279 160.644 40.3745 160.514 40.1738C160.372 39.9732 160.301 39.7253 160.289 39.4421H161.175C161.175 39.5955 161.234 39.7371 161.328 39.8434C161.423 39.9496 161.541 40.044 161.671 40.1148C161.801 40.1856 161.954 40.2328 162.108 40.2682C162.261 40.3036 162.415 40.3154 162.568 40.3154C162.863 40.3154 163.099 40.2682 163.3 40.162C163.501 40.0558 163.666 39.926 163.796 39.7489C163.926 39.5719 164.02 39.3595 164.079 39.1116C164.138 38.8638 164.174 38.5924 164.174 38.2973V37.9432H164.15C163.997 38.2737 163.772 38.5215 163.465 38.675C163.158 38.8284 162.828 38.911 162.485 38.911C162.084 38.911 161.73 38.8402 161.435 38.6986C161.139 38.557 160.892 38.3563 160.691 38.1085C160.49 37.8606 160.337 37.5774 160.242 37.2469C160.148 36.9165 160.089 36.5742 160.089 36.2084C160.089 35.8897 160.136 35.5593 160.219 35.2288C160.301 34.8983 160.443 34.5915 160.632 34.32C160.821 34.0486 161.08 33.8244 161.399 33.6473C161.718 33.4703 162.108 33.3877 162.568 33.3877C162.91 33.3877 163.217 33.4585 163.501 33.6119C163.784 33.7654 164.008 33.9896 164.162 34.2846V33.5175H164.988V38.4271C164.988 39.3005 164.788 39.9614 164.386 40.3981L164.398 40.3626ZM163.276 37.9551C163.477 37.837 163.642 37.6718 163.772 37.483C163.902 37.2823 163.985 37.0581 164.044 36.8103C164.103 36.5624 164.138 36.3146 164.138 36.0667C164.138 35.8307 164.115 35.5947 164.056 35.3704C163.997 35.1462 163.914 34.9338 163.796 34.7567C163.678 34.5797 163.512 34.4263 163.324 34.32C163.135 34.2138 162.899 34.1548 162.615 34.1548C162.332 34.1548 162.084 34.2138 161.883 34.32C161.683 34.4263 161.517 34.5679 161.387 34.7449C161.258 34.9219 161.163 35.1344 161.104 35.3704C161.045 35.6065 161.021 35.8543 161.021 36.1021C161.021 36.35 161.045 36.586 161.092 36.8339C161.139 37.0817 161.222 37.2941 161.34 37.4948C161.458 37.6954 161.612 37.8488 161.812 37.9669C162.013 38.0849 162.249 38.1439 162.544 38.1439C162.84 38.1439 163.087 38.0849 163.288 37.9669L163.276 37.9551Z" fill="#282828"/>
<path d="M102.086 36.2793H104.636V38.8285H102.086V36.2793Z" fill="#282828"/>
<path d="M53.9177 36.2793H56.4678V38.8285H53.9177V36.2793Z" fill="#282828"/>
</svg>
