<svg preserveAspectRatio="none" width="100%" height="100%" overflow="visible" style="display: block;" viewBox="0 0 165 42" fill="none" xmlns="http://www.w3.org/2000/svg">
<g id="InfoTec">
<path id="Vector" d="M9.68091 13.6313C9.68091 11.8728 11.1094 10.4565 12.8567 10.4565C14.604 10.4565 16.0325 11.8846 16.0325 13.6313C16.0325 15.378 14.604 16.806 12.8567 16.806C11.1094 16.806 9.68091 15.378 9.68091 13.6313Z" fill="var(--fill-0, #282828)"/>
<path id="Vector_2" d="M12.5143 4.85032C7.99263 5.03915 4.34459 8.62694 4.06125 13.1353H0C0.295149 6.39637 5.7495 1.00288 12.5143 0.802246V4.85032Z" fill="var(--fill-0, #282828)"/>
<path id="Vector_3" d="M13.4352 22.3648C17.9569 22.0934 21.4986 18.4112 21.7112 13.9028H25.7724C25.5953 20.6418 20.2 26.0943 13.447 26.4129V22.3648H13.4352Z" fill="var(--fill-0, #282828)"/>
<path id="Vector_4" d="M8.53567 26.4834C8.26413 21.9633 4.58067 18.4227 0.0708008 18.2103V14.1504C6.812 14.3274 12.2663 19.7209 12.5851 26.4716H8.53567V26.4834Z" fill="var(--fill-0, #282828)"/>
<path id="Vector_5" d="M17.4846 0.672852C17.6735 5.193 21.2625 8.83981 25.7606 9.12305V13.1829C19.0194 12.8879 13.624 7.43537 13.4233 0.672852H17.4728H17.4846Z" fill="var(--fill-0, #282828)"/>
<g id="Group">
<path id="Vector_6" d="M34.072 4.08348V0.306851H35.5832V4.08348H34.072ZM34.072 26.5072V7.64767H35.5832V26.5072H34.072Z" fill="var(--fill-0, #282828)"/>
<path id="Vector_7" d="M41.557 7.64767H43.0682V11.6839H43.1508C43.4105 10.9758 43.7883 10.3503 44.2842 9.79562C44.78 9.24093 45.3467 8.78066 45.996 8.37939C46.6454 7.98993 47.3537 7.69488 48.1211 7.49424C48.8885 7.29361 49.6677 7.19919 50.4705 7.19919C51.6629 7.19919 52.6782 7.32902 53.5164 7.60046C54.3547 7.87191 55.0394 8.22596 55.5707 8.66264C56.1019 9.09931 56.5151 9.59499 56.8221 10.1497C57.1291 10.7044 57.3416 11.2591 57.4832 11.8138C57.6131 12.3803 57.6957 12.9231 57.7193 13.4424C57.743 13.9735 57.7548 14.422 57.7548 14.8233V26.4954H56.2436V14.5754C56.2436 14.1151 56.2082 13.525 56.1255 12.8169C56.0429 12.1088 55.8186 11.4243 55.429 10.7752C55.0394 10.1261 54.4609 9.57139 53.6817 9.11111C52.9025 8.65084 51.8164 8.4148 50.4351 8.4148C49.2663 8.4148 48.2274 8.61543 47.3301 9.00489C46.4329 9.39436 45.6537 9.93725 45.0161 10.6336C44.3786 11.3299 43.8946 12.156 43.564 13.1238C43.2334 14.0915 43.0682 15.1537 43.0682 16.2985V26.4954H41.557V7.64767Z" fill="var(--fill-0, #282828)"/>
<path id="Vector_8" d="M61.1313 8.85147V7.63587H64.7911V3.75302C64.7911 3.09211 64.9092 2.52562 65.1453 2.04174C65.3814 1.55786 65.712 1.1802 66.1252 0.885147C66.5384 0.590098 67.0106 0.365861 67.5537 0.224237C68.0968 0.0826137 68.6753 1.5203e-09 69.2892 1.5203e-09C69.7378 1.5203e-09 70.3399 0.0590098 71.0837 0.188831V1.40443C70.3399 1.28641 69.7378 1.2156 69.2892 1.2156C68.4392 1.2156 67.7308 1.39263 67.1641 1.74669C66.5974 2.10075 66.3141 2.80887 66.3141 3.85924V7.63587H70.576V8.85147H66.3141V26.4954H64.8029V8.85147H61.1431H61.1313Z" fill="var(--fill-0, #282828)"/>
<path id="Vector_9" d="M73.1497 17.0774C73.1497 15.732 73.3504 14.4692 73.7636 13.2772C74.1769 12.097 74.779 11.0466 75.57 10.1379C76.361 9.22913 77.3527 8.52101 78.5096 7.98993C79.6784 7.45884 81.0125 7.19919 82.5237 7.19919C84.0348 7.19919 85.3807 7.45884 86.5377 7.98993C87.7065 8.52101 88.6864 9.22913 89.4774 10.1379C90.2684 11.0466 90.8823 12.0852 91.2837 13.2772C91.6851 14.4692 91.8976 15.732 91.8976 17.0774C91.8976 18.4229 91.6851 19.6975 91.2837 20.8895C90.8705 22.0933 90.2684 23.1318 89.4774 24.0288C88.6864 24.9257 87.6947 25.6339 86.5377 26.1531C85.3689 26.6842 84.0348 26.9439 82.5237 26.9439C81.0125 26.9439 79.6666 26.6842 78.5096 26.1531C77.3408 25.622 76.361 24.9139 75.57 24.0288C74.779 23.1318 74.165 22.0933 73.7636 20.8895C73.3504 19.6975 73.1497 18.4229 73.1497 17.0774ZM74.6609 17.0774C74.6609 18.1986 74.838 19.2844 75.1804 20.323C75.5227 21.3615 76.0304 22.2821 76.6915 23.0964C77.3527 23.899 78.1791 24.5481 79.159 25.0201C80.1389 25.4922 81.2722 25.7401 82.5355 25.7401C83.7987 25.7401 84.9321 25.504 85.9238 25.0201C86.9037 24.5481 87.7301 23.899 88.3912 23.0964C89.0524 22.2939 89.56 21.3615 89.9024 20.323C90.2448 19.2844 90.4218 18.1986 90.4218 17.0774C90.4218 15.9562 90.2448 14.8705 89.9024 13.8319C89.56 12.7933 89.0524 11.8728 88.3912 11.0584C87.7301 10.2559 86.9037 9.60679 85.9238 9.13472C84.9439 8.66264 83.8105 8.4148 82.5355 8.4148C81.2604 8.4148 80.1389 8.65083 79.159 9.13472C78.1791 9.60679 77.3527 10.2559 76.6915 11.0584C76.0304 11.861 75.5227 12.7933 75.1804 13.8319C74.838 14.8705 74.6609 15.9562 74.6609 17.0774Z" fill="var(--fill-0, #282828)"/>
</g>
<g id="Group_2">
<path id="Vector_10" d="M105.888 7.52936H109.311V1.84082H113.845V7.52936H117.941V10.6451H113.845V20.7712C113.845 21.2078 113.868 21.5855 113.904 21.9041C113.939 22.2228 114.034 22.4942 114.187 22.7067C114.329 22.9309 114.553 23.0961 114.848 23.2024C115.143 23.3086 115.533 23.3676 116.041 23.3676C116.359 23.3676 116.678 23.3676 116.997 23.344C117.316 23.344 117.635 23.285 117.953 23.2142V26.4479C117.446 26.4951 116.962 26.5423 116.478 26.5895C116.005 26.6367 115.509 26.6603 115.002 26.6603C113.809 26.6603 112.841 26.5541 112.121 26.3535C111.389 26.141 110.822 25.8342 110.409 25.4329C109.996 25.0317 109.725 24.5242 109.571 23.9105C109.429 23.2968 109.335 22.6005 109.311 21.8215V10.6333H105.888V7.51756V7.52936Z" fill="var(--fill-0, #282828)"/>
<path id="Vector_11" d="M126.265 18.1039C126.265 18.8356 126.371 19.5438 126.607 20.2283C126.831 20.9128 127.174 21.5147 127.622 22.0222C128.071 22.5297 128.649 22.9427 129.334 23.2496C130.019 23.5564 130.845 23.7098 131.802 23.7098C133.124 23.7098 134.198 23.4502 135.001 22.9191C135.816 22.388 136.418 21.6091 136.807 20.5587H141.105C140.869 21.5855 140.455 22.506 139.877 23.3086C139.298 24.1111 138.59 24.7956 137.764 25.3503C136.937 25.905 136.016 26.3181 135.001 26.6013C133.974 26.8846 132.911 27.0262 131.802 27.0262C130.184 27.0262 128.756 26.7784 127.504 26.2945C126.253 25.8106 125.202 25.1143 124.34 24.2409C123.478 23.3558 122.829 22.3054 122.392 21.0898C121.955 19.8624 121.731 18.517 121.731 17.0535C121.731 15.7081 121.967 14.4335 122.428 13.2179C122.888 12.0023 123.561 10.9401 124.423 10.0314C125.285 9.11083 126.324 8.39091 127.551 7.84802C128.768 7.30513 130.149 7.04548 131.695 7.04548C133.313 7.04548 134.765 7.35233 136.052 7.97784C137.339 8.60334 138.401 9.42948 139.251 10.4562C140.101 11.483 140.715 12.6632 141.105 13.9968C141.494 15.3305 141.589 16.6995 141.4 18.1275H126.276L126.265 18.1039ZM136.843 15.3423C136.784 14.6813 136.642 14.044 136.382 13.4303C136.134 12.8166 135.78 12.2856 135.343 11.8371C134.907 11.3886 134.375 11.0227 133.75 10.7395C133.124 10.4562 132.427 10.3146 131.66 10.3146C130.893 10.3146 130.137 10.4444 129.488 10.7041C128.838 10.9637 128.283 11.3178 127.811 11.7663C127.351 12.2147 126.973 12.7458 126.701 13.3595C126.418 13.9732 126.265 14.6341 126.241 15.3423H136.831H136.843Z" fill="var(--fill-0, #282828)"/>
<path id="Vector_12" d="M160.242 13.8788C160.053 12.6986 159.546 11.8135 158.707 11.2234C157.869 10.6333 156.818 10.3264 155.543 10.3264C154.965 10.3264 154.339 10.4208 153.678 10.5979C153.017 10.7867 152.403 11.129 151.848 11.6246C151.293 12.1203 150.821 12.8284 150.455 13.7136C150.077 14.6105 149.9 15.7789 149.9 17.2188C149.9 17.9977 149.995 18.7884 150.195 19.5674C150.396 20.3463 150.715 21.0426 151.152 21.6563C151.588 22.27 152.155 22.7657 152.84 23.1434C153.525 23.521 154.363 23.7098 155.343 23.7098C156.665 23.7098 157.763 23.3322 158.625 22.5769C159.487 21.8215 160.018 20.7594 160.242 19.3785H164.776C164.351 21.8451 163.335 23.7334 161.73 25.0435C160.124 26.3535 157.999 27.0026 155.343 27.0026C153.725 27.0026 152.297 26.7547 151.069 26.2473C149.841 25.7398 148.79 25.0671 147.94 24.1937C147.09 23.3204 146.453 22.2936 146.016 21.0898C145.579 19.8978 145.355 18.5996 145.355 17.207C145.355 15.8143 145.567 14.4571 145.992 13.2061C146.417 11.9551 147.055 10.8811 147.905 9.96057C148.755 9.04001 149.806 8.3201 151.069 7.80081C152.332 7.26972 153.808 7.01008 155.508 7.01008C156.7 7.01008 157.834 7.1517 158.908 7.43495C159.982 7.7182 160.939 8.14307 161.777 8.69776C162.615 9.26425 163.3 9.97237 163.831 10.8221C164.362 11.6719 164.681 12.6868 164.787 13.867H160.254L160.242 13.8788Z" fill="var(--fill-0, #282828)"/>
</g>
<path id="Vector_13" d="M96.6436 23.4506C96.6436 21.6921 98.0721 20.2759 99.8194 20.2759C101.567 20.2759 102.995 21.7039 102.995 23.4506C102.995 25.1973 101.567 26.6371 99.8194 26.6371C98.0721 26.6371 96.6436 25.2091 96.6436 23.4506Z" fill="var(--fill-0, #282828)"/>
<g id="Group_3">
<path id="Vector_14" d="M3.87242 34.4146C3.64811 34.2258 3.35296 34.1314 2.97517 34.1314C2.65641 34.1314 2.38487 34.1904 2.17236 34.3084C1.95986 34.4264 1.78277 34.5798 1.6529 34.7805C1.52304 34.9811 1.42859 35.1935 1.38137 35.4532C1.32234 35.701 1.29872 35.9725 1.29872 36.2321C1.29872 36.4799 1.32234 36.7278 1.38137 36.9638C1.4404 37.1999 1.53484 37.4123 1.6529 37.5893C1.77096 37.7664 1.93625 37.9198 2.13695 38.026C2.33765 38.1322 2.57377 38.1912 2.85711 38.1912C3.29393 38.1912 3.6363 38.0732 3.88423 37.849C4.13215 37.6247 4.28563 37.2943 4.33285 36.8812H5.24191C5.14746 37.5421 4.89954 38.0614 4.49814 38.4155C4.09674 38.7695 3.55366 38.9584 2.86892 38.9584C2.45571 38.9584 2.10153 38.8875 1.78277 38.7577C1.46401 38.6279 1.20428 38.4391 0.991769 38.203C0.779262 37.9552 0.625785 37.6719 0.519531 37.3415C0.413278 36.9992 0.354248 36.6334 0.354248 36.2321C0.354248 35.8308 0.401472 35.4532 0.507725 35.1109C0.613979 34.7687 0.767456 34.4618 0.979964 34.2022C1.19247 33.9425 1.4522 33.7419 1.77096 33.5885C2.08972 33.435 2.45571 33.3642 2.88072 33.3642C3.18768 33.3642 3.47102 33.3996 3.74256 33.4704C4.01409 33.5413 4.23841 33.6593 4.45091 33.8127C4.65161 33.9661 4.8169 34.155 4.95857 34.391C5.10024 34.627 5.17108 34.8985 5.20649 35.2171H4.29744C4.2266 34.8749 4.08493 34.6152 3.86062 34.4264L3.87242 34.4146Z" fill="var(--fill-0, #282828)"/>
<path id="Vector_15" d="M6.37528 35.0637C6.48154 34.7215 6.64682 34.4264 6.87113 34.1668C7.09545 33.9189 7.36698 33.7183 7.68575 33.5649C8.01631 33.4232 8.3823 33.3524 8.80731 33.3524C9.23233 33.3524 9.61012 33.4232 9.92888 33.5649C10.2476 33.7065 10.5192 33.9071 10.7435 34.1668C10.9678 34.4146 11.1331 34.7215 11.2393 35.0637C11.3456 35.406 11.4046 35.7718 11.4046 36.1731C11.4046 36.5744 11.3456 36.9402 11.2393 37.2707C11.1331 37.6011 10.9678 37.908 10.7435 38.1558C10.5192 38.4037 10.2476 38.6043 9.92888 38.7459C9.61012 38.8875 9.23233 38.9584 8.80731 38.9584C8.3823 38.9584 8.01631 38.8875 7.68575 38.7459C7.35518 38.6043 7.08364 38.4037 6.87113 38.1558C6.65863 37.908 6.48154 37.6129 6.37528 37.2707C6.26903 36.9284 6.21 36.5626 6.21 36.1731C6.21 35.7836 6.26903 35.406 6.37528 35.0637ZM7.27254 37.0346C7.35518 37.2825 7.47324 37.4949 7.62672 37.6719C7.78019 37.849 7.95728 37.967 8.15798 38.0614C8.35868 38.1558 8.583 38.1912 8.80731 38.1912C9.03162 38.1912 9.25594 38.144 9.45664 38.0614C9.65734 37.967 9.83443 37.8372 9.98791 37.6719C10.1414 37.5067 10.2594 37.2943 10.3421 37.0346C10.4247 36.7868 10.4719 36.4917 10.4719 36.1731C10.4719 35.8544 10.4247 35.5594 10.3421 35.3116C10.2594 35.0637 10.1414 34.8513 9.98791 34.6742C9.83443 34.4972 9.65734 34.3674 9.45664 34.2848C9.25594 34.1904 9.03162 34.155 8.80731 34.155C8.583 34.155 8.35868 34.2022 8.15798 34.2848C7.95728 34.3674 7.78019 34.509 7.62672 34.6742C7.47324 34.8513 7.35518 35.0637 7.27254 35.3116C7.18989 35.5594 7.14267 35.8544 7.14267 36.1731C7.14267 36.4917 7.18989 36.7868 7.27254 37.0346Z" fill="var(--fill-0, #282828)"/>
<path id="Vector_16" d="M13.5533 33.4823V34.332H13.5769C13.9429 33.6829 14.5214 33.3524 15.3242 33.3524C15.6784 33.3524 15.9735 33.3996 16.2096 33.4941C16.4458 33.5885 16.6347 33.7301 16.7763 33.8953C16.918 34.0605 17.0243 34.273 17.0833 34.509C17.1423 34.7451 17.1659 35.0165 17.1659 35.2998V38.8285H16.2805V35.1935C16.2805 34.8631 16.186 34.6034 15.9853 34.4028C15.7846 34.2022 15.5249 34.1078 15.1825 34.1078C14.911 34.1078 14.6749 34.155 14.486 34.2376C14.2971 34.3202 14.12 34.4382 13.9901 34.5916C13.8603 34.7451 13.7658 34.9221 13.695 35.1227C13.6241 35.3234 13.6005 35.5476 13.6005 35.7954V38.8285H12.7151V33.4586H13.5415L13.5533 33.4823Z" fill="var(--fill-0, #282828)"/>
<path id="Vector_17" d="M19.4327 37.6483C19.5153 37.7782 19.6216 37.8962 19.7632 37.967C19.9049 38.0378 20.0466 38.1086 20.2237 38.144C20.389 38.1794 20.566 38.1912 20.7431 38.1912C20.8848 38.1912 21.0265 38.1912 21.18 38.1558C21.3334 38.1204 21.4751 38.0968 21.605 38.0378C21.7348 37.9788 21.8411 37.8962 21.9237 37.79C22.0064 37.6837 22.0536 37.5421 22.0536 37.3769C22.0536 37.1527 21.9709 36.9756 21.7939 36.8576C21.6168 36.7396 21.4043 36.6452 21.1445 36.5744C20.8848 36.5036 20.6015 36.4327 20.2945 36.3737C19.9875 36.3147 19.7042 36.2321 19.4445 36.1259C19.1847 36.0197 18.9722 35.8662 18.7951 35.6774C18.6181 35.4886 18.5354 35.2171 18.5354 34.8631C18.5354 34.5916 18.5944 34.3674 18.7125 34.1668C18.8306 33.9661 18.984 33.8127 19.1847 33.6947C19.3736 33.5767 19.5861 33.4823 19.8341 33.4232C20.082 33.3642 20.3063 33.3406 20.5424 33.3406C20.8494 33.3406 21.1327 33.3642 21.3807 33.4232C21.6286 33.4823 21.8647 33.5649 22.0654 33.6947C22.2661 33.8245 22.4196 33.9897 22.5376 34.214C22.6557 34.4264 22.7265 34.6979 22.7501 35.0283H21.8647C21.8529 34.8513 21.8057 34.7097 21.7348 34.5916C21.664 34.4736 21.5577 34.391 21.4397 34.3202C21.3216 34.2494 21.1918 34.2022 21.0501 34.1668C20.9084 34.1314 20.7667 34.1196 20.6133 34.1196C20.4834 34.1196 20.3535 34.1196 20.2119 34.155C20.082 34.1786 19.9521 34.214 19.8459 34.2612C19.7396 34.3084 19.6452 34.3792 19.5743 34.4736C19.5035 34.568 19.4681 34.6743 19.4681 34.8159C19.4681 34.9693 19.5271 35.0991 19.6334 35.1935C19.7396 35.288 19.8813 35.3824 20.0466 35.4414C20.2119 35.5122 20.4008 35.5594 20.6133 35.6066C20.8258 35.6538 21.0265 35.701 21.239 35.7482C21.4633 35.7954 21.6758 35.8544 21.8883 35.9253C22.1008 35.9961 22.2897 36.0905 22.4432 36.1967C22.5967 36.3029 22.7383 36.4563 22.8328 36.6334C22.9272 36.8104 22.9863 37.0228 22.9863 37.2707C22.9863 37.6011 22.9154 37.8608 22.7856 38.085C22.6557 38.2975 22.4786 38.4745 22.2543 38.6043C22.0418 38.7341 21.7939 38.8285 21.5223 38.8757C21.2508 38.923 20.9793 38.9584 20.7077 38.9584C20.4126 38.9584 20.1292 38.923 19.8577 38.8639C19.5861 38.8049 19.35 38.6987 19.1375 38.5571C18.925 38.4155 18.7597 38.2266 18.6417 38.0024C18.5236 37.7782 18.4528 37.4831 18.4292 37.1527H19.3146C19.3146 37.3415 19.3618 37.5067 19.4445 37.6483H19.4327Z" fill="var(--fill-0, #282828)"/>
<path id="Vector_18" d="M27.8149 38.8521V38.0024H27.7913C27.6024 38.3329 27.3663 38.5807 27.0711 38.7341C26.776 38.8875 26.4336 38.9702 26.044 38.9702C25.6898 38.9702 25.3947 38.923 25.1586 38.8285C24.9224 38.7341 24.7335 38.6043 24.5919 38.4273C24.4502 38.2502 24.3439 38.0496 24.2849 37.8136C24.2259 37.5775 24.2023 37.3061 24.2023 37.0228V33.4941H25.0877V37.1291C25.0877 37.4595 25.1822 37.7192 25.3829 37.9198C25.5718 38.1204 25.8433 38.2148 26.1857 38.2148C26.4572 38.2148 26.6933 38.1676 26.8822 38.085C27.0829 38.0024 27.2482 37.8844 27.3781 37.731C27.5079 37.5775 27.6024 37.4005 27.6732 37.1999C27.7441 36.9992 27.7677 36.775 27.7677 36.5272V33.4941H28.6531V38.8639H27.8267L27.8149 38.8521Z" fill="var(--fill-0, #282828)"/>
<path id="Vector_19" d="M31.1678 31.4405V38.8521H30.2823V31.4405H31.1678Z" fill="var(--fill-0, #282828)"/>
<path id="Vector_20" d="M35.0992 33.4823V34.2612H34.0248V37.5893C34.0248 37.6956 34.0248 37.7782 34.0484 37.8372C34.0721 37.8962 34.0957 37.9434 34.1429 37.9788C34.1901 38.0142 34.2609 38.0378 34.3436 38.0496C34.4262 38.0614 34.5443 38.0614 34.686 38.0614H35.0874V38.8403H34.4144C34.1901 38.8403 33.9894 38.8285 33.8241 38.7931C33.6588 38.7577 33.529 38.7105 33.4345 38.6279C33.3283 38.5453 33.2574 38.4273 33.2102 38.2738C33.163 38.1204 33.1394 37.9198 33.1394 37.6719V34.2612H32.2303V33.4823H33.1394V31.8772H34.0248V33.4823H35.0992Z" fill="var(--fill-0, #282828)"/>
<path id="Vector_21" d="M36.386 32.5145V31.4287H37.2715V32.5145H36.386ZM37.2715 33.4823V38.8521H36.386V33.4823H37.2715Z" fill="var(--fill-0, #282828)"/>
<path id="Vector_22" d="M39.7271 33.4823V34.332H39.7507C40.1167 33.6829 40.6952 33.3524 41.498 33.3524C41.8522 33.3524 42.1473 33.3996 42.3834 33.4941C42.6196 33.5885 42.8085 33.7301 42.9501 33.8953C43.0918 34.0605 43.1981 34.273 43.2571 34.509C43.3161 34.7451 43.3397 35.0165 43.3397 35.2998V38.8285H42.4543V35.1935C42.4543 34.8631 42.3598 34.6034 42.1591 34.4028C41.9584 34.2022 41.6987 34.1078 41.3563 34.1078C41.0848 34.1078 40.8487 34.155 40.6598 34.2376C40.4709 34.3202 40.2938 34.4382 40.1639 34.5916C40.0341 34.7451 39.9396 34.9221 39.8688 35.1227C39.7979 35.3234 39.7743 35.5476 39.7743 35.7954V38.8285H38.8889V33.4586H39.7153L39.7271 33.4823Z" fill="var(--fill-0, #282828)"/>
<path id="Vector_23" d="M48.9594 40.3628C48.558 40.7995 47.9322 41.0119 47.0704 41.0119C46.8225 41.0119 46.5627 40.9883 46.303 40.9293C46.0433 40.8703 45.8072 40.7877 45.5947 40.6578C45.3822 40.528 45.2051 40.3746 45.0752 40.174C44.9453 39.9733 44.8627 39.7255 44.8509 39.4422H45.7363C45.7363 39.5957 45.7954 39.7373 45.8898 39.8435C45.9843 39.9497 46.1023 40.0441 46.2322 40.115C46.362 40.1858 46.5155 40.233 46.669 40.2684C46.8225 40.3038 46.976 40.3156 47.1294 40.3156C47.4246 40.3156 47.6607 40.2684 47.8614 40.1622C48.0621 40.0677 48.2274 39.9261 48.3573 39.7491C48.4871 39.5721 48.5816 39.3596 48.6406 39.1118C48.6996 38.8639 48.7232 38.5925 48.7232 38.2974V37.9434H48.6996C48.5461 38.2738 48.3218 38.5217 48.0149 38.6751C47.7079 38.8285 47.3774 38.9112 47.035 38.9112C46.6336 38.9112 46.2794 38.8403 45.9843 38.6987C45.6891 38.5571 45.4412 38.3565 45.2405 38.1086C45.0398 37.8608 44.8863 37.5775 44.7919 37.2471C44.6856 36.9166 44.6384 36.5744 44.6384 36.2085C44.6384 35.8899 44.6856 35.5594 44.7682 35.2289C44.8509 34.8985 44.9926 34.5916 45.1815 34.3202C45.3703 34.0487 45.6301 33.8245 45.9488 33.6475C46.2676 33.4704 46.6572 33.3878 47.1176 33.3878C47.46 33.3878 47.767 33.4586 48.0503 33.6121C48.3336 33.7655 48.558 33.9897 48.7114 34.2848V33.5177H49.5378V38.4273C49.5378 39.3006 49.3371 39.9615 48.9357 40.3982L48.9594 40.3628ZM47.8378 37.9552C48.0385 37.8372 48.2038 37.6719 48.3336 37.4831C48.4635 37.2943 48.5461 37.0582 48.6052 36.8104C48.6642 36.5626 48.6996 36.3147 48.6996 36.0669C48.6996 35.8308 48.676 35.5948 48.617 35.3706C48.558 35.1463 48.4753 34.9339 48.3573 34.7569C48.2392 34.5798 48.0739 34.4264 47.885 34.3202C47.6961 34.214 47.46 34.155 47.1767 34.155C46.8933 34.155 46.6454 34.214 46.4447 34.3202C46.244 34.4264 46.0787 34.568 45.9488 34.7451C45.819 34.9221 45.7245 35.1345 45.6655 35.3706C45.6065 35.6066 45.5829 35.8544 45.5829 36.1023C45.5829 36.3501 45.6065 36.5862 45.6537 36.834C45.7009 37.0818 45.7836 37.2943 45.9016 37.4949C46.0197 37.6956 46.1731 37.849 46.3739 37.967C46.5627 38.085 46.8107 38.144 47.1058 38.144C47.401 38.144 47.6489 38.085 47.8496 37.967L47.8378 37.9552Z" fill="var(--fill-0, #282828)"/>
</g>
<g id="Group_4">
<path id="Vector_24" d="M61.6035 37.6483C61.6861 37.7782 61.7924 37.8962 61.9341 37.967C62.0757 38.0378 62.2174 38.1086 62.3945 38.144C62.5598 38.1794 62.7369 38.1912 62.9139 38.1912C63.0556 38.1912 63.1973 38.1912 63.3508 38.1558C63.5042 38.1204 63.6459 38.0968 63.7758 38.0378C63.9056 37.9788 64.0119 37.8962 64.0945 37.79C64.1772 37.6837 64.2244 37.5421 64.2244 37.3769C64.2244 37.1527 64.1418 36.9756 63.9647 36.8576C63.7876 36.7396 63.5751 36.6452 63.3154 36.5744C63.0556 36.5036 62.7723 36.4327 62.4653 36.3737C62.1584 36.3147 61.875 36.2321 61.6153 36.1259C61.3556 36.0197 61.1431 35.8662 60.966 35.6774C60.7889 35.4886 60.7062 35.2171 60.7062 34.8631C60.7062 34.5916 60.7653 34.3674 60.8833 34.1668C61.0014 33.9661 61.1549 33.8127 61.3556 33.6947C61.5445 33.5767 61.757 33.4823 62.0049 33.4232C62.2528 33.3642 62.4771 33.3406 62.7132 33.3406C63.0202 33.3406 63.3035 33.3642 63.5515 33.4232C63.7994 33.4823 64.0355 33.5649 64.2362 33.6947C64.4369 33.8245 64.5904 33.9897 64.7085 34.214C64.8265 34.4264 64.8974 34.6979 64.921 35.0283H64.0355C64.0237 34.8513 63.9765 34.7097 63.9056 34.5916C63.8348 34.4736 63.7286 34.391 63.6105 34.3202C63.4924 34.2494 63.3626 34.2022 63.2209 34.1668C63.0792 34.1314 62.9376 34.1196 62.7841 34.1196C62.6542 34.1196 62.5244 34.1196 62.3827 34.155C62.2528 34.1786 62.1229 34.214 62.0167 34.2612C61.9104 34.3084 61.816 34.3792 61.7452 34.4736C61.6743 34.568 61.6389 34.6743 61.6389 34.8159C61.6389 34.9693 61.6979 35.0991 61.8042 35.1935C61.9104 35.288 62.0521 35.3824 62.2174 35.4414C62.3827 35.5122 62.5716 35.5594 62.7841 35.6066C62.9966 35.6538 63.1973 35.701 63.4098 35.7482C63.6341 35.7954 63.8466 35.8544 64.0591 35.9253C64.2716 35.9961 64.4605 36.0905 64.614 36.1967C64.7675 36.3029 64.9092 36.4563 65.0036 36.6334C65.0981 36.8104 65.1571 37.0228 65.1571 37.2707C65.1571 37.6011 65.0862 37.8608 64.9564 38.085C64.8265 38.2975 64.6494 38.4745 64.4251 38.6043C64.2126 38.7341 63.9647 38.8285 63.6931 38.8757C63.4216 38.923 63.1501 38.9584 62.8785 38.9584C62.5834 38.9584 62.3 38.923 62.0285 38.8639C61.757 38.8049 61.5208 38.6987 61.3083 38.5571C61.0958 38.4155 60.9305 38.2266 60.8125 38.0024C60.6944 37.7782 60.6236 37.4831 60.6 37.1527H61.4854C61.4854 37.3415 61.5326 37.5067 61.6153 37.6483H61.6035Z" fill="var(--fill-0, #282828)"/>
<path id="Vector_25" d="M70.1864 38.5099C69.785 38.8167 69.2774 38.9702 68.6752 38.9702C68.2502 38.9702 67.8724 38.8994 67.5537 38.7577C67.2349 38.6161 66.9752 38.4273 66.7627 38.1794C66.5502 37.9316 66.3849 37.6365 66.2786 37.2825C66.1724 36.9402 66.1134 36.5626 66.1016 36.1495C66.1016 35.7364 66.1606 35.3706 66.2904 35.0283C66.4203 34.686 66.5856 34.391 66.8099 34.1432C67.0342 33.8953 67.3058 33.6947 67.6127 33.5649C67.9197 33.4232 68.262 33.3524 68.628 33.3524C69.1003 33.3524 69.5017 33.4468 69.8204 33.6475C70.1392 33.8481 70.3871 34.096 70.576 34.4028C70.7649 34.7097 70.8948 35.0401 70.9656 35.3942C71.0364 35.7482 71.0719 36.0905 71.0482 36.4209H67.0342C67.0342 36.657 67.0578 36.8812 67.1169 37.0936C67.1759 37.3061 67.2821 37.4949 67.412 37.6601C67.5419 37.8254 67.7308 37.9552 67.9433 38.0496C68.1558 38.144 68.4155 38.1912 68.6989 38.1912C69.0767 38.1912 69.3836 38.1086 69.6197 37.9316C69.8558 37.7546 70.0211 37.4949 70.092 37.1409H70.9656C70.8475 37.7428 70.5878 38.1912 70.1864 38.4981V38.5099ZM69.9739 35.0637C69.8913 34.8749 69.785 34.7215 69.6551 34.5798C69.5253 34.4382 69.36 34.332 69.1829 34.2612C69.0058 34.1904 68.7933 34.1432 68.5808 34.1432C68.3683 34.1432 68.144 34.1786 67.9669 34.2612C67.778 34.3438 67.6245 34.45 67.4947 34.5916C67.3648 34.7333 67.2585 34.8867 67.1877 35.0755C67.1169 35.2643 67.0696 35.4532 67.0578 35.6656H70.1392C70.1274 35.4532 70.0802 35.2643 69.9975 35.0755L69.9739 35.0637Z" fill="var(--fill-0, #282828)"/>
<path id="Vector_26" d="M75.4283 34.4146C75.2039 34.2258 74.9088 34.1314 74.531 34.1314C74.2122 34.1314 73.9407 34.1904 73.7282 34.3084C73.5157 34.4264 73.3386 34.5798 73.2087 34.7805C73.0789 34.9811 72.9844 35.1935 72.9372 35.4532C72.8782 35.701 72.8546 35.9725 72.8546 36.2321C72.8546 36.4799 72.8782 36.7278 72.9372 36.9638C72.9962 37.1999 73.0907 37.4123 73.2087 37.5893C73.3268 37.7664 73.4921 37.9198 73.6928 38.026C73.8935 38.1322 74.1296 38.1912 74.4129 38.1912C74.8498 38.1912 75.1921 38.0732 75.4401 37.849C75.688 37.6247 75.8415 37.2943 75.8887 36.8812H76.7977C76.7033 37.5421 76.4554 38.0614 76.054 38.4155C75.6526 38.7695 75.1095 38.9584 74.4247 38.9584C74.0115 38.9584 73.6574 38.8875 73.3386 38.7577C73.0198 38.6279 72.7601 38.4391 72.5476 38.203C72.3351 37.9552 72.1816 37.6719 72.0754 37.3415C71.9691 36.9992 71.9101 36.6334 71.9101 36.2321C71.9101 35.8308 71.9573 35.4532 72.0636 35.1109C72.1698 34.7687 72.3233 34.4618 72.5358 34.2022C72.7483 33.9425 73.008 33.7419 73.3268 33.5885C73.6456 33.435 74.0115 33.3642 74.4366 33.3642C74.7435 33.3642 75.0269 33.3996 75.2984 33.4704C75.5699 33.5413 75.7942 33.6593 76.0067 33.8127C76.2074 33.9661 76.3727 34.155 76.5144 34.391C76.6561 34.627 76.7269 34.8985 76.7623 35.2171H75.8533C75.7824 34.8749 75.6408 34.6152 75.4164 34.4264L75.4283 34.4146Z" fill="var(--fill-0, #282828)"/>
<path id="Vector_27" d="M81.6618 38.8521V38.0024H81.6382C81.4493 38.3329 81.2132 38.5807 80.918 38.7341C80.6229 38.8875 80.2805 38.9702 79.8909 38.9702C79.5367 38.9702 79.2416 38.923 79.0055 38.8285C78.7693 38.7341 78.5804 38.6043 78.4388 38.4273C78.2971 38.2502 78.1909 38.0496 78.1318 37.8136C78.0728 37.5775 78.0492 37.3061 78.0492 37.0228V33.4941H78.9346V37.1291C78.9346 37.4595 79.0291 37.7192 79.2298 37.9198C79.4187 38.1204 79.6902 38.2148 80.0326 38.2148C80.3041 38.2148 80.5402 38.1676 80.7291 38.085C80.9298 38.0024 81.0951 37.8844 81.225 37.731C81.3548 37.5775 81.4493 37.4005 81.5201 37.1999C81.591 36.9992 81.6146 36.775 81.6146 36.5272V33.4941H82.5V38.8639H81.6736L81.6618 38.8521Z" fill="var(--fill-0, #282828)"/>
<path id="Vector_28" d="M84.8848 33.4823V34.6152H84.9084C85.1209 34.1786 85.3807 33.8599 85.6994 33.6475C86.0064 33.435 86.4078 33.3406 86.88 33.3524V34.2848C86.5258 34.2848 86.2307 34.332 85.9828 34.4264C85.7349 34.5208 85.5342 34.6624 85.3807 34.8513C85.2272 35.0401 85.1209 35.2643 85.0501 35.5358C84.9793 35.8072 84.9438 36.1141 84.9438 36.4563V38.8403H84.0584V33.4704H84.8848V33.4823Z" fill="var(--fill-0, #282828)"/>
<path id="Vector_29" d="M87.8599 32.5145V31.4287H88.7454V32.5145H87.8599ZM88.7336 33.4823V38.8521H87.8481V33.4823H88.7336Z" fill="var(--fill-0, #282828)"/>
<path id="Vector_30" d="M92.6649 33.4823V34.2612H91.5906V37.5893C91.5906 37.6956 91.5906 37.7782 91.6142 37.8372C91.6378 37.8962 91.6614 37.9434 91.7087 37.9788C91.7559 38.0142 91.8267 38.0378 91.9094 38.0496C91.992 38.0614 92.1101 38.0614 92.2517 38.0614H92.6531V38.8403H91.9802C91.7559 38.8403 91.5552 38.8285 91.3899 38.7931C91.2246 38.7577 91.0948 38.7105 91.0003 38.6279C90.9059 38.5453 90.8232 38.4273 90.776 38.2738C90.7288 38.1204 90.7052 37.9198 90.7052 37.6719V34.2612H89.7961V33.4823H90.7052V31.8772H91.5906V33.4823H92.6649Z" fill="var(--fill-0, #282828)"/>
<path id="Vector_31" d="M96.006 39.5603C95.8998 39.8199 95.8053 40.0441 95.6991 40.2212C95.5928 40.3982 95.4866 40.5516 95.3685 40.6578C95.2504 40.7641 95.1088 40.8585 94.9671 40.9057C94.8136 40.9529 94.6483 40.9883 94.4476 40.9883C94.3414 40.9883 94.2351 40.9883 94.1407 40.9647C94.0462 40.9411 93.94 40.9293 93.8337 40.8939V40.0795C93.9046 40.115 93.999 40.1386 94.0935 40.1622C94.1879 40.1858 94.2824 40.1976 94.3532 40.1976C94.5303 40.1976 94.6838 40.1504 94.8018 40.0677C94.9199 39.9851 95.0143 39.8553 95.0734 39.7019L95.4393 38.7931L93.3143 33.4586H94.306L95.8762 37.849H95.8998L97.4109 33.4586H98.3436L96.006 39.5367V39.5603Z" fill="var(--fill-0, #282828)"/>
</g>
<g id="Group_5">
<path id="Vector_32" d="M108.827 35.0635C108.934 34.7212 109.099 34.4262 109.323 34.1665C109.547 33.9187 109.819 33.7181 110.138 33.5646C110.456 33.4112 110.834 33.3522 111.259 33.3522C111.684 33.3522 112.062 33.423 112.381 33.5646C112.7 33.7063 112.971 33.9069 113.195 34.1665C113.42 34.4144 113.585 34.7212 113.691 35.0635C113.798 35.4057 113.857 35.7716 113.857 36.1729C113.857 36.5741 113.798 36.94 113.691 37.2704C113.585 37.6009 113.42 37.9078 113.195 38.1556C112.971 38.4034 112.7 38.6041 112.381 38.7457C112.062 38.8873 111.684 38.9581 111.259 38.9581C110.834 38.9581 110.468 38.8873 110.138 38.7457C109.807 38.6041 109.536 38.4034 109.323 38.1556C109.099 37.9078 108.934 37.6127 108.827 37.2704C108.721 36.9282 108.662 36.5623 108.662 36.1729C108.662 35.7834 108.721 35.4057 108.827 35.0635ZM109.725 37.0344C109.807 37.2823 109.925 37.4947 110.079 37.6717C110.232 37.8487 110.409 37.9668 110.61 38.0612C110.811 38.1556 111.035 38.191 111.259 38.191C111.484 38.191 111.708 38.1438 111.909 38.0612C112.109 37.9786 112.286 37.8369 112.44 37.6717C112.593 37.5065 112.711 37.2941 112.794 37.0344C112.877 36.7866 112.924 36.4915 112.924 36.1729C112.924 35.8542 112.877 35.5592 112.794 35.3113C112.711 35.0635 112.593 34.851 112.44 34.674C112.286 34.497 112.109 34.3672 111.909 34.2846C111.708 34.2019 111.484 34.1547 111.259 34.1547C111.035 34.1547 110.811 34.2019 110.61 34.2846C110.409 34.3672 110.232 34.5088 110.079 34.674C109.925 34.851 109.807 35.0635 109.725 35.3113C109.642 35.5592 109.595 35.8542 109.595 36.1729C109.595 36.4915 109.642 36.7866 109.725 37.0344Z" fill="var(--fill-0, #282828)"/>
<path id="Vector_33" d="M118.791 38.8519V38.0022H118.768C118.579 38.3326 118.343 38.5805 118.048 38.7339C117.753 38.8873 117.41 38.9699 117.021 38.9699C116.666 38.9699 116.371 38.9227 116.135 38.8283C115.899 38.7339 115.71 38.6041 115.568 38.427C115.427 38.25 115.321 38.0494 115.262 37.8133C115.202 37.5773 115.167 37.3059 115.167 37.0226V33.4938H116.053V37.1288C116.053 37.4593 116.147 37.7189 116.348 37.9196C116.537 38.1202 116.808 38.2146 117.15 38.2146C117.422 38.2146 117.658 38.1674 117.847 38.0848C118.048 38.0022 118.213 37.8841 118.343 37.7307C118.473 37.5773 118.579 37.4003 118.638 37.1996C118.709 36.999 118.732 36.7748 118.732 36.5269V33.4938H119.618V38.8637H118.791V38.8519Z" fill="var(--fill-0, #282828)"/>
<path id="Vector_34" d="M123.502 33.482V34.261H122.428V37.5891C122.428 37.6953 122.428 37.7779 122.451 37.8369C122.475 37.896 122.499 37.9432 122.546 37.9786C122.593 38.014 122.664 38.0376 122.746 38.0494C122.829 38.0612 122.947 38.0612 123.089 38.0612H123.49V38.8401H122.817C122.593 38.8401 122.392 38.8283 122.227 38.7929C122.062 38.7575 121.932 38.7103 121.837 38.6277C121.743 38.5451 121.66 38.427 121.613 38.2736C121.566 38.1202 121.542 37.9196 121.542 37.6717V34.261H120.633V33.482H121.542V31.877H122.428V33.482H123.502Z" fill="var(--fill-0, #282828)"/>
<path id="Vector_35" d="M125.415 37.6481C125.497 37.7779 125.604 37.896 125.745 37.9668C125.875 38.0494 126.029 38.1084 126.206 38.1438C126.383 38.1792 126.548 38.191 126.725 38.191C126.867 38.191 127.008 38.191 127.162 38.1556C127.315 38.1202 127.457 38.0966 127.587 38.0376C127.717 37.9786 127.823 37.896 127.906 37.7897C127.988 37.6835 128.036 37.5419 128.036 37.3767C128.036 37.1524 127.953 36.9754 127.776 36.8574C127.599 36.7394 127.386 36.6449 127.127 36.5741C126.867 36.5033 126.583 36.4325 126.276 36.3735C125.97 36.3145 125.686 36.2319 125.426 36.1257C125.167 36.0194 124.954 35.866 124.777 35.6772C124.6 35.4884 124.517 35.2169 124.517 34.8629C124.517 34.5914 124.576 34.3672 124.694 34.1665C124.813 33.9659 124.966 33.8125 125.167 33.6945C125.367 33.5764 125.568 33.482 125.816 33.423C126.052 33.364 126.288 33.3404 126.524 33.3404C126.831 33.3404 127.115 33.364 127.363 33.423C127.611 33.482 127.847 33.5646 128.047 33.6945C128.248 33.8243 128.402 33.9895 128.52 34.2137C128.638 34.4262 128.708 34.6976 128.732 35.0281H127.847C127.835 34.851 127.788 34.7094 127.717 34.5914C127.646 34.4734 127.54 34.3908 127.422 34.32C127.304 34.2491 127.174 34.2019 127.032 34.1665C126.89 34.1311 126.749 34.1193 126.607 34.1193C126.477 34.1193 126.347 34.1193 126.206 34.1547C126.064 34.1901 125.946 34.2137 125.84 34.261C125.733 34.3082 125.639 34.379 125.568 34.4734C125.497 34.5678 125.462 34.674 125.462 34.8156C125.462 34.9691 125.509 35.0989 125.627 35.1933C125.745 35.2877 125.875 35.3821 126.04 35.4411C126.206 35.5002 126.395 35.5592 126.607 35.6064C126.82 35.6536 127.02 35.7008 127.233 35.748C127.457 35.7952 127.67 35.8542 127.882 35.925C128.095 35.9958 128.283 36.0903 128.437 36.1965C128.59 36.3027 128.732 36.4561 128.827 36.6331C128.921 36.8102 128.98 37.0226 128.98 37.2704C128.98 37.6009 128.909 37.8605 128.779 38.0848C128.649 38.2972 128.472 38.4742 128.248 38.6041C128.024 38.7339 127.788 38.8283 127.516 38.8755C127.245 38.9227 126.973 38.9581 126.701 38.9581C126.406 38.9581 126.123 38.9227 125.851 38.8637C125.58 38.8047 125.344 38.6985 125.131 38.5569C124.919 38.4152 124.754 38.2264 124.635 38.0022C124.517 37.7779 124.447 37.4829 124.423 37.1524H125.308C125.308 37.3413 125.356 37.5065 125.438 37.6481H125.415Z" fill="var(--fill-0, #282828)"/>
<path id="Vector_36" d="M130.066 35.0635C130.172 34.7212 130.338 34.4262 130.562 34.1665C130.786 33.9187 131.058 33.7181 131.377 33.5646C131.695 33.4112 132.073 33.3522 132.498 33.3522C132.923 33.3522 133.301 33.423 133.62 33.5646C133.939 33.7063 134.21 33.9069 134.434 34.1665C134.659 34.4144 134.824 34.7212 134.93 35.0635C135.036 35.4057 135.096 35.7716 135.096 36.1729C135.096 36.5741 135.036 36.94 134.93 37.2704C134.824 37.6009 134.659 37.9078 134.434 38.1556C134.21 38.4034 133.939 38.6041 133.62 38.7457C133.301 38.8873 132.923 38.9581 132.498 38.9581C132.073 38.9581 131.707 38.8873 131.377 38.7457C131.046 38.6041 130.775 38.4034 130.562 38.1556C130.338 37.9078 130.172 37.6127 130.066 37.2704C129.96 36.9282 129.901 36.5623 129.901 36.1729C129.901 35.7834 129.96 35.4057 130.066 35.0635ZM130.963 37.0344C131.046 37.2823 131.164 37.4947 131.318 37.6717C131.471 37.8487 131.648 37.9668 131.849 38.0612C132.05 38.1556 132.274 38.191 132.498 38.191C132.723 38.191 132.947 38.1438 133.148 38.0612C133.348 37.9786 133.525 37.8369 133.679 37.6717C133.832 37.5065 133.95 37.2941 134.033 37.0344C134.116 36.7866 134.163 36.4915 134.163 36.1729C134.163 35.8542 134.116 35.5592 134.033 35.3113C133.95 35.0635 133.832 34.851 133.679 34.674C133.525 34.497 133.348 34.3672 133.148 34.2846C132.947 34.2019 132.723 34.1547 132.498 34.1547C132.274 34.1547 132.05 34.2019 131.849 34.2846C131.648 34.3672 131.471 34.5088 131.318 34.674C131.164 34.851 131.046 35.0635 130.963 35.3113C130.881 35.5592 130.834 35.8542 130.834 36.1729C130.834 36.4915 130.881 36.7866 130.963 37.0344Z" fill="var(--fill-0, #282828)"/>
<path id="Vector_37" d="M140.019 38.8519V38.0022H139.995C139.806 38.3326 139.57 38.5805 139.275 38.7339C138.98 38.8873 138.637 38.9699 138.248 38.9699C137.894 38.9699 137.598 38.9227 137.362 38.8283C137.126 38.7339 136.937 38.6041 136.796 38.427C136.654 38.25 136.548 38.0494 136.489 37.8133C136.43 37.5773 136.394 37.3059 136.394 37.0226V33.4938H137.28V37.1288C137.28 37.4593 137.374 37.7189 137.575 37.9196C137.764 38.1202 138.035 38.2146 138.378 38.2146C138.649 38.2146 138.885 38.1674 139.074 38.0848C139.275 38.0022 139.44 37.8841 139.57 37.7307C139.7 37.5773 139.806 37.4003 139.865 37.1996C139.936 36.999 139.96 36.7748 139.96 36.5269V33.4938H140.845V38.8637H140.019V38.8519Z" fill="var(--fill-0, #282828)"/>
<path id="Vector_38" d="M143.242 33.482V34.615H143.265C143.478 34.1783 143.737 33.8597 144.056 33.6472C144.363 33.4348 144.765 33.3404 145.237 33.3522V34.2846C144.883 34.2846 144.588 34.3318 144.34 34.4262C144.092 34.5206 143.891 34.6622 143.737 34.851C143.584 35.0399 143.478 35.2641 143.407 35.5356C143.336 35.807 143.301 36.1139 143.301 36.4561V38.8401H142.415V33.4702H143.242V33.482Z" fill="var(--fill-0, #282828)"/>
</g>
<g id="Group_6">
<path id="Vector_39" d="M149.145 34.4146C148.92 34.2258 148.625 34.1314 148.247 34.1314C147.929 34.1314 147.657 34.1904 147.445 34.3084C147.232 34.4264 147.055 34.5798 146.937 34.7805C146.807 34.9811 146.713 35.1935 146.665 35.4532C146.606 35.701 146.583 35.9725 146.583 36.2321C146.583 36.4799 146.606 36.7278 146.665 36.9638C146.724 37.1999 146.819 37.4123 146.937 37.5893C147.055 37.7664 147.22 37.9198 147.421 38.026C147.622 38.1322 147.858 38.1912 148.141 38.1912C148.578 38.1912 148.92 38.0732 149.168 37.849C149.416 37.6247 149.57 37.2943 149.617 36.8812H150.514C150.42 37.5421 150.172 38.0614 149.77 38.4155C149.369 38.7695 148.826 38.9584 148.141 38.9584C147.728 38.9584 147.374 38.8875 147.055 38.7577C146.736 38.6279 146.476 38.4391 146.264 38.203C146.051 37.9552 145.898 37.6719 145.792 37.3415C145.685 36.9992 145.626 36.6334 145.626 36.2321C145.626 35.8308 145.674 35.4532 145.78 35.1109C145.886 34.7687 146.04 34.4618 146.252 34.2022C146.465 33.9425 146.724 33.7419 147.043 33.5885C147.362 33.435 147.728 33.3642 148.153 33.3642C148.46 33.3642 148.743 33.3996 149.015 33.4704C149.286 33.5413 149.511 33.6593 149.723 33.8127C149.936 33.9661 150.101 34.155 150.231 34.391C150.361 34.627 150.443 34.8985 150.479 35.2171H149.57C149.499 34.8749 149.357 34.6152 149.133 34.4264L149.145 34.4146Z" fill="var(--fill-0, #282828)"/>
<path id="Vector_40" d="M151.825 32.5145V31.4287H152.71V32.5145H151.825ZM152.71 33.4823V38.8521H151.825V33.4823H152.71Z" fill="var(--fill-0, #282828)"/>
<path id="Vector_41" d="M155.166 33.4823V34.332H155.189C155.555 33.6829 156.134 33.3524 156.937 33.3524C157.291 33.3524 157.586 33.3996 157.822 33.4941C158.058 33.5885 158.247 33.7301 158.389 33.8953C158.53 34.0605 158.637 34.273 158.696 34.509C158.755 34.7451 158.778 35.0165 158.778 35.2998V38.8285H157.893V35.1935C157.893 34.8631 157.798 34.6034 157.598 34.4028C157.409 34.214 157.137 34.1078 156.795 34.1078C156.523 34.1078 156.287 34.155 156.098 34.2376C155.909 34.3202 155.732 34.4382 155.602 34.5916C155.473 34.7451 155.378 34.9221 155.307 35.1227C155.237 35.3234 155.213 35.5476 155.213 35.7954V38.8285H154.327V33.4586H155.154L155.166 33.4823Z" fill="var(--fill-0, #282828)"/>
<path id="Vector_42" d="M164.398 40.3628C163.997 40.7995 163.371 41.0119 162.509 41.0119C162.261 41.0119 162.001 40.9883 161.742 40.9293C161.482 40.8703 161.246 40.7877 161.033 40.6578C160.821 40.528 160.644 40.3746 160.514 40.174C160.372 39.9733 160.301 39.7255 160.289 39.4422H161.175C161.175 39.5957 161.234 39.7373 161.328 39.8435C161.423 39.9497 161.541 40.0441 161.671 40.115C161.801 40.1858 161.954 40.233 162.108 40.2684C162.261 40.3038 162.415 40.3156 162.568 40.3156C162.863 40.3156 163.099 40.2684 163.3 40.1622C163.501 40.0559 163.666 39.9261 163.796 39.7491C163.926 39.5721 164.02 39.3596 164.079 39.1118C164.138 38.8639 164.174 38.5925 164.174 38.2974V37.9434H164.15C163.997 38.2738 163.772 38.5217 163.465 38.6751C163.158 38.8285 162.828 38.9112 162.485 38.9112C162.084 38.9112 161.73 38.8403 161.435 38.6987C161.139 38.5571 160.892 38.3565 160.691 38.1086C160.49 37.8608 160.337 37.5775 160.242 37.2471C160.148 36.9166 160.089 36.5744 160.089 36.2085C160.089 35.8899 160.136 35.5594 160.219 35.2289C160.301 34.8985 160.443 34.5916 160.632 34.3202C160.821 34.0487 161.08 33.8245 161.399 33.6475C161.718 33.4704 162.108 33.3878 162.568 33.3878C162.91 33.3878 163.217 33.4586 163.501 33.6121C163.784 33.7655 164.008 33.9897 164.162 34.2848V33.5177H164.988V38.4273C164.988 39.3006 164.788 39.9615 164.386 40.3982L164.398 40.3628ZM163.276 37.9552C163.477 37.8372 163.642 37.6719 163.772 37.4831C163.902 37.2825 163.985 37.0582 164.044 36.8104C164.103 36.5626 164.138 36.3147 164.138 36.0669C164.138 35.8308 164.115 35.5948 164.056 35.3706C163.997 35.1463 163.914 34.9339 163.796 34.7569C163.678 34.5798 163.512 34.4264 163.324 34.3202C163.135 34.214 162.899 34.155 162.615 34.155C162.332 34.155 162.084 34.214 161.883 34.3202C161.683 34.4264 161.517 34.568 161.387 34.7451C161.258 34.9221 161.163 35.1345 161.104 35.3706C161.045 35.6066 161.021 35.8544 161.021 36.1023C161.021 36.3501 161.045 36.5862 161.092 36.834C161.139 37.0818 161.222 37.2943 161.34 37.4949C161.458 37.6956 161.612 37.849 161.812 37.967C162.013 38.085 162.249 38.144 162.544 38.144C162.84 38.144 163.087 38.085 163.288 37.967L163.276 37.9552Z" fill="var(--fill-0, #282828)"/>
</g>
<path id="Vector_43" d="M102.086 36.2793H104.636V38.8285H102.086V36.2793Z" fill="var(--fill-0, #282828)"/>
<path id="Vector_44" d="M53.9177 36.2793H56.4678V38.8285H53.9177V36.2793Z" fill="var(--fill-0, #282828)"/>
</g>
</svg>
