<svg preserveAspectRatio="none" width="100%" height="100%" overflow="visible" style="display: block;" viewBox="0 0 187 35" fill="none" xmlns="http://www.w3.org/2000/svg">
<g id="IsomecGreen">
<g id="Group">
<g id="Group_2">
<path id="Vector" d="M36.7894 6.13634H33.3499V23.7518H36.7894V6.13634Z" fill="var(--fill-0, #282828)"/>
<path id="Vector_2" d="M42.5219 18.1735C42.627 18.9349 42.8339 19.5034 43.1392 19.8824C43.7023 20.568 44.6656 20.9125 46.0292 20.9125C46.8466 20.9125 47.5081 20.8229 48.0203 20.6403C48.987 20.2924 49.472 19.6481 49.472 18.7041C49.472 18.1529 49.2312 17.7291 48.7529 17.4259C48.2713 17.1331 47.5183 16.8712 46.4939 16.6473L44.7402 16.2511C43.0171 15.8584 41.8231 15.4311 41.1651 14.9729C40.0491 14.2046 39.4894 13.0023 39.4894 11.3623C39.4894 9.87056 40.0288 8.62683 41.1074 7.6415C42.1861 6.65272 43.7735 6.16006 45.863 6.16006C47.6098 6.16006 49.0989 6.62861 50.3268 7.56226C51.5649 8.48903 52.2128 9.83955 52.2738 11.6104H48.9463C48.8852 10.6078 48.451 9.89468 47.6404 9.47091C47.101 9.19185 46.4294 9.05404 45.6289 9.05404C44.7368 9.05404 44.0245 9.23664 43.492 9.59839C42.9594 9.96013 42.6915 10.4666 42.6915 11.1143C42.6915 11.7103 42.9526 12.1547 43.4784 12.4476C43.8142 12.644 44.5367 12.8748 45.6391 13.1366L48.4951 13.8257C49.7468 14.1289 50.6932 14.5319 51.3308 15.0349C52.3213 15.8205 52.8131 16.9539 52.8131 18.4388C52.8131 19.9237 52.2331 21.2295 51.0697 22.2389C49.9164 23.2415 48.2815 23.7445 46.1682 23.7445C44.0109 23.7445 42.3116 23.2518 41.0735 22.263C39.8354 21.2674 39.2181 19.903 39.2181 18.1667H42.5253L42.5219 18.1735Z" fill="var(--fill-0, #282828)"/>
<path id="Vector_3" d="M65.9672 19.2795C66.7779 18.2631 67.1816 16.8196 67.1816 14.9419C67.1816 13.0643 66.7779 11.6345 65.9672 10.6182C65.1633 9.59494 64.0779 9.0816 62.7076 9.0816C61.3372 9.0816 60.2416 9.58805 59.4241 10.6044C58.6066 11.6207 58.1996 13.0677 58.1996 14.9419C58.1996 16.8161 58.6066 18.2631 59.4241 19.2795C60.2416 20.2958 61.3338 20.8022 62.7076 20.8022C64.0813 20.8022 65.1667 20.2958 65.9672 19.2795ZM68.1347 21.8082C66.8831 23.1037 65.0718 23.7514 62.7042 23.7514C60.3366 23.7514 58.5252 23.1037 57.2736 21.8082C55.5946 20.22 54.7534 17.9324 54.7534 14.9419C54.7534 11.9515 55.5912 9.60528 57.2736 8.0756C58.5252 6.7802 60.3366 6.13249 62.7042 6.13249C65.0718 6.13249 66.8831 6.7802 68.1347 8.0756C69.807 9.60528 70.6414 11.8929 70.6414 14.9419C70.6414 17.9324 69.807 20.22 68.1347 21.8082Z" fill="var(--fill-0, #282828)"/>
<path id="Vector_4" d="M84.2704 6.13594H89.2532V23.7514H86.024V11.8378C86.024 11.4967 86.0274 11.0178 86.0342 10.4046C86.041 9.78443 86.0444 9.30554 86.0444 8.97136L82.9068 23.7548H79.5454L76.4315 8.97136C76.4315 9.30554 76.4349 9.78443 76.4417 10.4046C76.4485 11.0178 76.4519 11.4967 76.4519 11.8378V23.7514H73.2261V6.13594H78.2632L81.2753 19.9857L84.267 6.13594H84.2704Z" fill="var(--fill-0, #282828)"/>
<path id="Vector_5" d="M104.721 9.25386H95.949V12.9954H104.002V16.0547H95.949V20.5817H105.128V23.7514H92.5672V6.13594H104.721V9.25386Z" fill="var(--fill-0, #282828)"/>
<path id="Vector_6" d="M109.313 8.21341C110.663 6.82843 112.38 6.13594 114.462 6.13594C117.251 6.13594 119.289 7.06615 120.578 8.92312C121.29 9.96702 121.674 11.0109 121.725 12.0617H118.261C118.038 11.2555 117.749 10.6457 117.396 10.2358C116.766 9.50536 115.833 9.14017 114.595 9.14017C113.357 9.14017 112.342 9.65696 111.617 10.694C110.891 11.7206 110.524 13.178 110.524 15.066C110.524 16.9539 110.908 18.3699 111.671 19.3139C112.444 20.251 113.421 20.7196 114.605 20.7196C115.789 20.7196 116.745 20.3165 117.383 19.5103C117.736 19.0762 118.027 18.425 118.261 17.5568H121.691C121.389 19.3897 120.622 20.8815 119.384 22.0322C118.156 23.1829 116.576 23.7548 114.649 23.7548C112.264 23.7548 110.392 22.9796 109.028 21.4258C107.665 19.8651 106.983 17.7257 106.983 15.0108C106.983 12.0721 107.76 9.80854 109.31 8.21685" fill="var(--fill-0, #282828)"/>
</g>
<path id="Vector_7" d="M26.4507 5.77764V11.8171L6.07501 11.8274C2.85602 11.8274 0.250977 9.18151 0.250977 5.91544C0.250977 5.8741 0.250977 5.83276 0.254369 5.78797C0.318816 2.58047 2.90012 0 6.07501 0C9.24991 0 11.8278 2.58047 11.8923 5.78797H16.5427L26.4507 5.77764Z" fill="var(--fill-0, #282828)"/>
<path id="Vector_8" d="M0.250977 10.346C0.250977 10.346 2.13353 13.3054 6.07162 13.3054H26.4473V16.258C26.4473 16.258 11.2715 16.2339 6.07162 16.2339C2.57109 16.2339 0.250977 14.37 0.250977 14.37V10.3494" fill="var(--fill-0, #282828)"/>
<path id="Vector_9" d="M26.4473 17.7015H0.250977V23.7617H26.4473V17.7015Z" fill="var(--fill-0, #282828)"/>
<g id="Group_3">
<path id="Vector_10" d="M131.059 20.9538C129.56 19.2657 128.811 17.2192 128.811 14.8248C128.811 12.4304 129.56 10.377 131.059 8.66818C132.576 6.98002 134.397 6.13249 136.517 6.13249C138.125 6.13249 139.543 6.61482 140.767 7.57949C141.992 8.52692 142.731 9.73275 142.989 11.2004H141.893C141.693 10.0497 141.079 9.09194 140.055 8.33054C139.051 7.56915 137.871 7.18673 136.517 7.18673C134.689 7.18673 133.135 7.9309 131.857 9.41579C130.557 10.9214 129.91 12.7198 129.91 14.8213C129.91 16.9229 130.557 18.7213 131.857 20.2234C133.135 21.7083 134.689 22.4525 136.517 22.4525C138.071 22.4525 139.397 21.8496 140.493 20.6438C141.588 19.4552 142.138 18.0082 142.138 16.2993V15.8825H136.517V14.8248H142.989V23.0692H142.138V19.6722C141.734 20.8229 141.015 21.7428 139.97 22.4284C138.946 23.1347 137.792 23.4861 136.514 23.4861C134.394 23.4861 132.572 22.642 131.056 20.9504L131.059 20.9538Z" fill="var(--fill-0, #282828)"/>
<path id="Vector_11" d="M145.838 23.0692V11.2039H146.934V13.8774C147.246 13.0229 147.7 12.327 148.304 11.7895C148.925 11.2693 149.583 11.0109 150.278 11.0109H150.909V12.2925C150.855 12.2925 150.791 12.2753 150.716 12.2374C150.662 12.1995 150.624 12.1823 150.607 12.1823C149.749 12.1823 148.972 12.5544 148.277 13.2986C147.582 14.0427 147.134 14.9798 146.934 16.1099V23.0726H145.838V23.0692Z" fill="var(--fill-0, #282828)"/>
<path id="Vector_12" d="M153.545 21.76C152.595 20.5886 152.12 19.0486 152.12 17.1365C152.12 15.2244 152.595 13.6844 153.545 12.513C154.495 11.3623 155.756 10.787 157.33 10.787C158.904 10.787 160.163 11.3176 161.116 12.3752C162.066 13.4329 162.54 14.8455 162.54 16.6094V17.14H153.216C153.216 18.7558 153.589 20.0477 154.342 21.0124C155.092 21.9771 156.089 22.4594 157.33 22.4594C158.263 22.4594 159.104 22.2079 159.854 21.7083C160.621 21.1881 161.153 20.5094 161.445 19.6757H162.54C162.357 20.7712 161.774 21.6808 160.787 22.4043C159.8 23.1278 158.646 23.4895 157.33 23.4895C155.756 23.4895 154.495 22.9142 153.545 21.7635V21.76ZM161.441 16.0788V15.662C161.35 14.5664 160.912 13.6362 160.125 12.8748C159.321 12.1341 158.389 11.762 157.327 11.762C156.265 11.762 155.343 12.1444 154.559 12.9058C153.755 13.6879 153.307 14.6422 153.216 15.7757V16.0823H161.441V16.0788Z" fill="var(--fill-0, #282828)"/>
<path id="Vector_13" d="M165.831 21.76C164.881 20.5886 164.406 19.0486 164.406 17.1365C164.406 15.2244 164.881 13.6844 165.831 12.513C166.78 11.3623 168.042 10.787 169.616 10.787C171.19 10.787 172.448 11.3176 173.402 12.3752C174.351 13.4329 174.826 14.8455 174.826 16.6094V17.14H165.502C165.502 18.7558 165.875 20.0477 166.628 21.0124C167.377 21.9771 168.375 22.4594 169.616 22.4594C170.549 22.4594 171.39 22.2079 172.14 21.7083C172.906 21.1881 173.439 20.5094 173.731 19.6757H174.826C174.643 20.7712 174.06 21.6808 173.072 22.4043C172.085 23.1278 170.932 23.4895 169.616 23.4895C168.042 23.4895 166.78 22.9142 165.831 21.7635V21.76ZM173.727 16.0788V15.662C173.636 14.5664 173.198 13.6362 172.411 12.8748C171.607 12.1341 170.674 11.762 169.613 11.762C168.551 11.762 167.628 12.1444 166.845 12.9058C166.041 13.6879 165.593 14.6422 165.502 15.7757V16.0823H173.727V16.0788Z" fill="var(--fill-0, #282828)"/>
<path id="Vector_14" d="M177.404 23.0692V11.2039H178.5V13.209C178.829 12.5027 179.331 11.948 180.009 11.538C180.684 11.1108 181.434 10.8972 182.258 10.8972C183.411 10.8972 184.388 11.2762 185.192 12.0376C186.016 12.8197 186.427 13.7464 186.427 14.8248V23.0692H185.331V14.8248C185.331 14.0083 185.029 13.3123 184.425 12.7335C183.822 12.1582 183.099 11.8722 182.258 11.8722C181.342 11.8722 180.531 12.1892 179.819 12.8197C179.107 13.4708 178.666 14.277 178.503 15.2417V23.0692H177.407H177.404Z" fill="var(--fill-0, #282828)"/>
</g>
</g>
<path id="Vector_15" d="M187 27.7097H185.552V34.8H187V27.7097ZM178.642 34.8034H180.002V29.7734L182.845 34.8034H184.303V27.7131H182.943V32.657L180.172 27.7131H178.642V34.8034ZM177.55 31.2479C177.55 29.9491 177.197 28.9741 176.495 28.3229C175.969 27.7717 175.206 27.4961 174.209 27.4961C173.212 27.4961 172.448 27.7717 171.923 28.3229C171.214 28.9741 170.861 29.9491 170.861 31.2479C170.861 32.5468 171.214 33.4977 171.923 34.1729C172.448 34.7242 173.212 34.9998 174.209 34.9998C175.206 34.9998 175.969 34.7242 176.495 34.1729C177.201 33.4977 177.55 32.5227 177.55 31.2479ZM174.209 33.7423C173.632 33.7423 173.171 33.5252 172.825 33.0911C172.482 32.657 172.309 32.0438 172.309 31.2445C172.309 30.4452 172.482 29.832 172.825 29.3979C173.167 28.9638 173.629 28.7502 174.209 28.7502C174.789 28.7502 175.243 28.9672 175.586 29.4013C175.925 29.8354 176.095 30.4521 176.095 31.2445C176.095 32.0369 175.925 32.6605 175.586 33.0911C175.247 33.5252 174.789 33.7423 174.209 33.7423ZM169.755 27.7097H168.307V34.8H169.755V27.7097ZM162.008 34.8034H167.398V33.5528H163.775L167.391 28.9017V27.7131H162.099V28.9672H165.576L162.008 33.5528V34.8034ZM155 34.8034H156.526L156.998 33.3461H159.569L160.03 34.8034H161.611L159.142 27.7131H157.49L154.997 34.8034H155ZM158.3 29.3324L159.182 32.123H157.395L158.3 29.3324ZM149.078 34.8034H154.468V33.5528H150.845L154.461 28.9017V27.7131H149.169V28.9672H152.646L149.078 33.5528V34.8034ZM143.155 34.8034H148.545V33.5528H144.922L148.535 28.9017V27.7131H143.243V28.9672H146.72L143.152 33.5528V34.8034H143.155ZM142.283 27.7097H140.835V34.8H142.283V27.7097ZM135.028 34.8034H139.974V33.5287H136.487V27.7131H135.028V34.8034ZM133.664 27.7097H132.216V34.8H133.664V27.7097ZM128.726 27.7097H125.351V34.8H128.495C128.851 34.8 129.177 34.769 129.482 34.7035C129.784 34.638 130.049 34.5209 130.272 34.3486C130.469 34.197 130.635 34.011 130.768 33.7905C130.975 33.4563 131.08 33.0808 131.08 32.6605C131.08 32.2402 130.988 31.906 130.808 31.62C130.629 31.3341 130.357 31.1274 130.001 30.9964C130.235 30.8759 130.412 30.7415 130.534 30.5933C130.751 30.3315 130.856 29.9835 130.856 29.5494C130.856 29.1153 130.751 28.7674 130.537 28.4676C130.181 27.9784 129.581 27.7235 128.729 27.7131M128.461 31.6786C128.76 31.6786 128.994 31.7234 129.16 31.7992C129.455 31.937 129.604 32.1919 129.604 32.5606C129.604 32.9981 129.452 33.291 129.146 33.446C128.977 33.5287 128.743 33.57 128.441 33.57H126.745V31.6786H128.465H128.461ZM128.261 28.9431C128.597 28.9431 128.872 28.981 129.085 29.0533C129.336 29.1601 129.462 29.3772 129.462 29.7079C129.462 30.0042 129.367 30.2144 129.177 30.3315C128.987 30.4486 128.743 30.5072 128.437 30.5072H126.741V28.9431H128.261ZM117.827 34.8034H119.354L119.825 33.3461H122.396L122.858 34.8034H124.438L121.969 27.7131H120.317L117.824 34.8034H117.827ZM121.128 29.3324L122.01 32.123H120.222L121.128 29.3324ZM117.017 27.7097H111.898V34.8H117.19V33.5252H113.326V31.7027H116.718V30.4728H113.326V28.9672H117.02V27.7131L117.017 27.7097ZM107.143 33.2875L105.871 27.7131H103.747V34.8034H105.107V30.0077C105.107 29.8699 105.107 29.6769 105.104 29.4289C105.104 29.1808 105.101 28.9879 105.101 28.8535L106.413 34.8034H107.831L109.154 28.8535C109.154 28.9879 109.154 29.1808 109.151 29.4289C109.151 29.6769 109.147 29.8699 109.147 30.0077V34.8034H110.507V27.7131H108.408L107.146 33.2875H107.143ZM100.142 27.7097H96.8038V34.8H98.2284V32.0197H99.6531C100.06 32.0197 100.335 32.0955 100.484 32.2471C100.633 32.3986 100.708 32.6984 100.715 33.1531L100.725 33.8112C100.725 34.0213 100.749 34.2246 100.786 34.421C100.806 34.5175 100.837 34.6449 100.881 34.8H102.492V34.6208C102.35 34.5347 102.261 34.4003 102.224 34.2177C102.197 34.1006 102.187 33.8835 102.187 33.5597V33.0842C102.187 32.5881 102.119 32.216 101.987 31.9749C101.851 31.7337 101.624 31.5477 101.302 31.4133C101.688 31.2789 101.963 31.0481 102.129 30.7243C102.295 30.4004 102.38 30.0662 102.38 29.732C102.38 29.453 102.336 29.2049 102.251 28.9879C102.167 28.7708 102.048 28.571 101.902 28.3919C101.722 28.1748 101.505 28.0094 101.247 27.8957C100.989 27.782 100.623 27.7235 100.145 27.7131M99.8396 28.9431C100.138 28.9431 100.365 28.9844 100.515 29.0671C100.783 29.2153 100.915 29.5047 100.915 29.9319C100.915 30.3281 100.776 30.5968 100.501 30.7312C100.345 30.807 100.111 30.8483 99.7989 30.8483H98.2284V28.9431H99.8396ZM95.464 27.7097H90.3455V34.8H95.637V33.5252H91.7735V31.7027H95.1655V30.4728H91.7735V28.9672H95.4674V27.7131L95.464 27.7097ZM89.1311 29.956C89.1311 29.1911 88.9242 28.6227 88.5138 28.2575C88.1034 27.8923 87.5505 27.7097 86.8619 27.7097H83.8634V34.8H85.3118V32.2505H86.7635C87.5233 32.2505 88.1068 32.0782 88.5138 31.7303C88.9208 31.3823 89.1277 30.7932 89.1277 29.956M87.6828 29.9663C87.6828 30.335 87.5912 30.6037 87.4046 30.7759C87.2214 30.9448 86.9603 31.0309 86.6278 31.0309H85.3118V28.9431H86.6278C86.9603 28.9431 87.218 29.0223 87.4046 29.1774C87.5912 29.3358 87.6828 29.5977 87.6828 29.9663ZM79.1214 33.2875L77.8494 27.7131H75.726V34.8034H77.0862V30.0077C77.0862 29.8699 77.0862 29.6769 77.0828 29.4289C77.0828 29.1808 77.0794 28.9879 77.0794 28.8535L78.3921 34.8034H79.81L81.1328 28.8535C81.1328 28.9879 81.1328 29.1808 81.1294 29.4289C81.1294 29.6769 81.126 29.8699 81.126 30.0077V34.8034H82.4862V27.7131H80.3866L79.1248 33.2875H79.1214ZM74.3862 27.7097H72.9378V34.8H74.3862V27.7097ZM69.054 27.7097H63.9355V34.8H69.227V33.5252H65.3635V31.7027H68.7555V30.4728H65.3635V28.9672H69.0574V27.7131L69.054 27.7097ZM59.8922 27.7097H54.7737V34.8H60.0652V33.5252H56.2018V31.7027H59.5937V30.4728H56.2018V28.9672H59.8956V27.7131L59.8922 27.7097ZM51.0968 27.7097H47.7591V34.8H49.1837V32.0197H50.6084C51.0154 32.0197 51.2902 32.0955 51.4394 32.2471C51.5887 32.3986 51.6633 32.6984 51.6701 33.1531L51.6802 33.8112C51.6802 34.0213 51.704 34.2246 51.7413 34.421C51.7617 34.5175 51.7922 34.6449 51.8363 34.8H53.4475V34.6208C53.305 34.5347 53.2168 34.4003 53.1795 34.2177C53.1524 34.1006 53.1422 33.8835 53.1422 33.5597V33.0842C53.1422 32.5881 53.0744 32.216 52.9421 31.9749C52.8064 31.7337 52.5791 31.5477 52.2569 31.4133C52.6436 31.2789 52.9183 31.0481 53.0845 30.7243C53.2507 30.4004 53.3355 30.0662 53.3355 29.732C53.3355 29.453 53.2914 29.2049 53.2066 28.9879C53.1218 28.7708 53.0031 28.571 52.8573 28.3919C52.6775 28.1748 52.4604 28.0094 52.2026 27.8957C51.9448 27.782 51.5785 27.7235 51.1002 27.7131M50.7915 28.9431C51.09 28.9431 51.3173 28.9844 51.4666 29.0671C51.7345 29.2153 51.8668 29.5047 51.8668 29.9319C51.8668 30.3281 51.7277 30.5968 51.453 30.7312C51.297 30.807 51.0629 30.8483 50.7508 30.8483H49.1804V28.9431H50.7915ZM40.7208 32.0679C40.7208 32.8224 40.8361 33.4081 41.0667 33.8284C41.4975 34.5967 42.3184 34.9826 43.5259 34.9826C44.7335 34.9826 45.5509 34.5967 45.9783 33.8284C46.209 33.4081 46.3243 32.8224 46.3243 32.0679V27.7097H44.842V32.0645C44.842 32.5502 44.7843 32.9085 44.6724 33.1325C44.496 33.5287 44.1127 33.7285 43.5259 33.7285C42.9391 33.7285 42.549 33.5287 42.3726 33.1325C42.2607 32.9085 42.203 32.5537 42.203 32.0645V27.7097H40.7208V32.0679ZM34.2115 27.7097V28.9638H36.3112V34.8H37.7799V28.9638H39.8694V27.7097H34.2149H34.2115ZM31.1621 27.7097H27.8244V34.8H29.2491V32.0197H30.6737C31.0807 32.0197 31.3555 32.0955 31.5047 32.2471C31.654 32.3986 31.7286 32.6984 31.7354 33.1531L31.7456 33.8112C31.7456 34.0213 31.7693 34.2246 31.8066 34.421C31.827 34.5175 31.8575 34.6449 31.9016 34.8H33.5128V34.6208C33.3703 34.5347 33.2821 34.4003 33.2448 34.2177C33.2177 34.1006 33.2075 33.8835 33.2075 33.5597V33.0842C33.2075 32.5881 33.1397 32.216 33.0074 31.9749C32.8717 31.7337 32.6444 31.5477 32.3222 31.4133C32.7089 31.2789 32.9836 31.0481 33.1498 30.7243C33.3161 30.4004 33.4009 30.0662 33.4009 29.732C33.4009 29.453 33.3568 29.2049 33.272 28.9879C33.1872 28.7708 33.0684 28.571 32.9226 28.3919C32.7428 28.1748 32.5257 28.0094 32.2679 27.8957C32.0101 27.782 31.6438 27.7235 31.1655 27.7131M30.8603 28.9431C31.1588 28.9431 31.386 28.9844 31.5353 29.0671C31.8032 29.2153 31.9355 29.5047 31.9355 29.9319C31.9355 30.3281 31.7964 30.5968 31.5217 30.7312C31.3657 30.807 31.1316 30.8483 30.8196 30.8483H29.2491V28.9431H30.8603ZM26.4846 27.7097H21.3661V34.8H26.6576V33.5252H22.7941V31.7027H26.1861V30.4728H22.7941V28.9672H26.488V27.7131L26.4846 27.7097ZM20.1518 29.956C20.1518 29.1911 19.9449 28.6227 19.5344 28.2575C19.124 27.8923 18.5711 27.7097 17.8825 27.7097H14.884V34.8H16.3324V32.2505H17.7842C18.544 32.2505 19.1274 32.0782 19.5344 31.7303C19.9415 31.3823 20.1484 30.7932 20.1484 29.956M18.7034 29.9663C18.7034 30.335 18.6118 30.6037 18.4252 30.7759C18.2421 30.9448 17.9809 31.0309 17.6485 31.0309H16.3324V28.9431H17.6485C17.9809 28.9431 18.2387 29.0223 18.4252 29.1774C18.6118 29.3358 18.7034 29.5977 18.7034 29.9663ZM13.7375 31.2479C13.7375 29.9491 13.3848 28.9741 12.6826 28.3229C12.1569 27.7717 11.3937 27.4961 10.3964 27.4961C9.39918 27.4961 8.63599 27.7717 8.11023 28.3229C7.40131 28.9741 7.04854 29.9491 7.04854 31.2479C7.04854 32.5468 7.40131 33.4977 8.11023 34.1729C8.63599 34.7242 9.39918 34.9998 10.3964 34.9998C11.3937 34.9998 12.1569 34.7242 12.6826 34.1729C13.3882 33.4977 13.7375 32.5227 13.7375 31.2479ZM10.3964 33.7423C9.81979 33.7423 9.35848 33.5252 9.0125 33.0911C8.66991 32.657 8.49692 32.0438 8.49692 31.2445C8.49692 30.4452 8.66991 29.832 9.0125 29.3979C9.35509 28.9638 9.8164 28.7502 10.3964 28.7502C10.9765 28.7502 11.4344 28.9672 11.7736 29.4013C12.1128 29.8354 12.2824 30.4521 12.2824 31.2445C12.2824 32.0369 12.1128 32.6605 11.7736 33.0911C11.4344 33.5252 10.9765 33.7423 10.3964 33.7423ZM0 31.3134C0 32.4572 0.284927 33.3599 0.851388 34.0179C1.42124 34.6725 2.2014 34.9998 3.19525 34.9998C3.99915 34.9998 4.65719 34.7586 5.16938 34.2728C5.68157 33.7871 6.00381 33.16 6.12592 32.3883H4.67754C4.58257 32.7535 4.46046 33.0291 4.3146 33.2117C4.05342 33.5528 3.67013 33.7216 3.1715 33.7216C2.67288 33.7216 2.2828 33.5252 1.96396 33.129C1.6485 32.7328 1.48908 32.1368 1.48908 31.341C1.48908 30.5451 1.63833 29.9319 1.94021 29.4978C2.23871 29.0637 2.64914 28.8466 3.1715 28.8466C3.69387 28.8466 4.06699 29.0017 4.32817 29.3083C4.47403 29.4805 4.59274 29.7389 4.68433 30.0766H6.14288C6.12253 29.6356 5.96311 29.1946 5.66461 28.7536C5.12868 27.9715 4.27729 27.5788 3.11723 27.5788C2.24888 27.5788 1.53318 27.8716 0.970107 28.4539C0.322238 29.1257 0 30.0766 0 31.3168" fill="var(--fill-0, #282828)"/>
</g>
</svg>
