<svg width="187" height="35" viewBox="0 0 187 35" fill="none" xmlns="http://www.w3.org/2000/svg">
<path d="M36.7894 6.13623H33.35V23.7516H36.7894V6.13623Z" fill="#282828"/>
<path d="M42.5219 18.1732C42.6271 18.9345 42.834 19.503 43.1393 19.882C43.7023 20.5676 44.6657 20.9121 46.0292 20.9121C46.8467 20.9121 47.5081 20.8225 48.0203 20.6399C48.9871 20.292 49.4721 19.6477 49.4721 18.7037C49.4721 18.1525 49.2313 17.7287 48.753 17.4255C48.2713 17.1327 47.5183 16.8709 46.4939 16.6469L44.7403 16.2507C43.0172 15.858 41.8232 15.4308 41.1651 14.9725C40.0492 14.2043 39.4895 13.0019 39.4895 11.362C39.4895 9.87017 40.0288 8.62645 41.1075 7.64111C42.1861 6.65234 43.7736 6.15967 45.863 6.15967C47.6099 6.15967 49.099 6.62822 50.3269 7.56187C51.565 8.48864 52.2128 9.83916 52.2739 11.61H48.9463C48.8853 10.6074 48.4511 9.89429 47.6404 9.47053C47.1011 9.19146 46.4295 9.05365 45.629 9.05365C44.7369 9.05365 44.0246 9.23625 43.492 9.598C42.9595 9.95975 42.6915 10.4662 42.6915 11.1139C42.6915 11.7099 42.9527 12.1544 43.4785 12.4472C43.8143 12.6436 44.5368 12.8744 45.6392 13.1362L48.4952 13.8253C49.7469 14.1285 50.6932 14.5316 51.3309 15.0346C52.3214 15.8201 52.8132 16.9535 52.8132 18.4384C52.8132 19.9233 52.2332 21.2291 51.0697 22.2385C49.9165 23.2411 48.2815 23.7441 46.1683 23.7441C44.011 23.7441 42.3116 23.2514 41.0736 22.2626C39.8355 21.267 39.2181 19.9027 39.2181 18.1663H42.5253L42.5219 18.1732Z" fill="#282828"/>
<path d="M65.9673 19.2793C66.778 18.2629 67.1816 16.8194 67.1816 14.9418C67.1816 13.0641 66.778 11.6343 65.9673 10.618C65.1634 9.59477 64.078 9.08143 62.7076 9.08143C61.3373 9.08143 60.2416 9.58788 59.4242 10.6042C58.6067 11.6206 58.1997 13.0676 58.1997 14.9418C58.1997 16.816 58.6067 18.2629 59.4242 19.2793C60.2416 20.2956 61.3339 20.8021 62.7076 20.8021C64.0814 20.8021 65.1668 20.2956 65.9673 19.2793ZM68.1348 21.8081C66.8831 23.1035 65.0718 23.7512 62.7042 23.7512C60.3366 23.7512 58.5253 23.1035 57.2737 21.8081C55.5946 20.2198 54.7534 17.9322 54.7534 14.9418C54.7534 11.9513 55.5912 9.60511 57.2737 8.07543C58.5253 6.78003 60.3366 6.13232 62.7042 6.13232C65.0718 6.13232 66.8831 6.78003 68.1348 8.07543C69.807 9.60511 70.6415 11.8927 70.6415 14.9418C70.6415 17.9322 69.807 20.2198 68.1348 21.8081Z" fill="#282828"/>
<path d="M84.2704 6.13574H89.2533V23.7512H86.0241V11.8376C86.0241 11.4965 86.0275 11.0176 86.0343 10.4044C86.041 9.78423 86.0444 9.30535 86.0444 8.97116L82.9069 23.7546H79.5454L76.4316 8.97116C76.4316 9.30535 76.4349 9.78423 76.4417 10.4044C76.4485 11.0176 76.4519 11.4965 76.4519 11.8376V23.7512H73.2261V6.13574H78.2632L81.2753 19.9855L84.267 6.13574H84.2704Z" fill="#282828"/>
<path d="M104.721 9.25367H95.949V12.9952H104.002V16.0545H95.949V20.5816H105.128V23.7512H92.5672V6.13574H104.721V9.25367Z" fill="#282828"/>
<path d="M109.313 8.21321C110.663 6.82823 112.38 6.13574 114.462 6.13574C117.251 6.13574 119.289 7.06595 120.578 8.92293C121.291 9.96683 121.674 11.0107 121.725 12.0615H118.261C118.038 11.2553 117.749 10.6455 117.397 10.2356C116.766 9.50517 115.833 9.13998 114.595 9.13998C113.357 9.13998 112.342 9.65676 111.617 10.6938C110.891 11.7204 110.524 13.1778 110.524 15.0658C110.524 16.9537 110.908 18.3697 111.671 19.3137C112.444 20.2508 113.421 20.7194 114.605 20.7194C115.789 20.7194 116.745 20.3163 117.383 19.5101C117.736 19.076 118.027 18.4248 118.261 17.5567H121.691C121.389 19.3895 120.622 20.8813 119.384 22.032C118.156 23.1827 116.576 23.7546 114.649 23.7546C112.264 23.7546 110.392 22.9794 109.029 21.4256C107.665 19.8649 106.983 17.7255 106.983 15.0106C106.983 12.0719 107.76 9.80835 109.31 8.21666" fill="#282828"/>
<path d="M26.4507 5.77764V11.8171L6.07501 11.8274C2.85602 11.8274 0.250977 9.18151 0.250977 5.91544C0.250977 5.8741 0.250977 5.83276 0.254369 5.78797C0.318816 2.58047 2.90012 0 6.07501 0C9.24991 0 11.8278 2.58047 11.8923 5.78797H16.5427L26.4507 5.77764Z" fill="#282828"/>
<path d="M0.250977 10.3462C0.250977 10.3462 2.13353 13.3056 6.07162 13.3056H26.4473V16.2582C26.4473 16.2582 11.2715 16.2341 6.07162 16.2341C2.57109 16.2341 0.250977 14.3702 0.250977 14.3702V10.3496" fill="#282828"/>
<path d="M26.4473 17.7017H0.250977V23.7618H26.4473V17.7017Z" fill="#282828"/>
<path d="M131.059 20.9537C129.56 19.2655 128.811 17.219 128.811 14.8246C128.811 12.4302 129.56 10.3768 131.059 8.66801C132.576 6.97985 134.397 6.13232 136.517 6.13232C138.125 6.13232 139.543 6.61466 140.767 7.57932C141.992 8.52675 142.731 9.73258 142.989 11.2002H141.893C141.693 10.0495 141.079 9.09177 140.055 8.33038C139.051 7.56898 137.871 7.18656 136.517 7.18656C134.689 7.18656 133.135 7.93073 131.857 9.41562C130.557 10.9212 129.91 12.7196 129.91 14.8212C129.91 16.9228 130.557 18.7212 131.857 20.2233C133.135 21.7082 134.689 22.4523 136.517 22.4523C138.071 22.4523 139.397 21.8494 140.493 20.6436C141.588 19.455 142.138 18.008 142.138 16.2992V15.8823H136.517V14.8246H142.989V23.069H142.138V19.672C141.734 20.8227 141.015 21.7426 139.97 22.4282C138.946 23.1345 137.793 23.4859 136.514 23.4859C134.394 23.4859 132.572 22.6418 131.056 20.9502L131.059 20.9537Z" fill="#282828"/>
<path d="M145.838 23.069V11.2037H146.934V13.8772C147.246 13.0228 147.701 12.3268 148.304 11.7894C148.925 11.2691 149.583 11.0107 150.278 11.0107H150.909V12.2924C150.855 12.2924 150.791 12.2751 150.716 12.2372C150.662 12.1993 150.624 12.1821 150.607 12.1821C149.749 12.1821 148.973 12.5542 148.277 13.2984C147.582 14.0425 147.134 14.9796 146.934 16.1097V23.0725H145.838V23.069Z" fill="#282828"/>
<path d="M153.545 21.7596C152.595 20.5883 152.12 19.0483 152.12 17.1362C152.12 15.2241 152.595 13.6841 153.545 12.5127C154.495 11.362 155.756 10.7866 157.33 10.7866C158.904 10.7866 160.163 11.3172 161.116 12.3749C162.066 13.4326 162.54 14.8451 162.54 16.609V17.1396H153.216C153.216 18.7554 153.589 20.0474 154.342 21.012C155.092 21.9767 156.089 22.459 157.33 22.459C158.263 22.459 159.104 22.2075 159.854 21.708C160.621 21.1877 161.153 20.509 161.445 19.6753H162.54C162.357 20.7709 161.774 21.6804 160.787 22.4039C159.8 23.1274 158.646 23.4892 157.33 23.4892C155.756 23.4892 154.495 22.9138 153.545 21.7631V21.7596ZM161.441 16.0785V15.6616C161.35 14.566 160.912 13.6358 160.125 12.8744C159.321 12.1337 158.389 11.7616 157.327 11.7616C156.265 11.7616 155.343 12.144 154.559 12.9054C153.755 13.6875 153.307 14.6418 153.216 15.7753V16.0819H161.441V16.0785Z" fill="#282828"/>
<path d="M165.831 21.7596C164.881 20.5883 164.406 19.0483 164.406 17.1362C164.406 15.2241 164.881 13.6841 165.831 12.5127C166.78 11.362 168.042 10.7866 169.616 10.7866C171.19 10.7866 172.448 11.3172 173.402 12.3749C174.351 13.4326 174.826 14.8451 174.826 16.609V17.1396H165.502C165.502 18.7554 165.875 20.0474 166.628 21.012C167.377 21.9767 168.375 22.459 169.616 22.459C170.549 22.459 171.39 22.2075 172.14 21.708C172.906 21.1877 173.439 20.509 173.731 19.6753H174.826C174.643 20.7709 174.06 21.6804 173.073 22.4039C172.085 23.1274 170.932 23.4892 169.616 23.4892C168.042 23.4892 166.78 22.9138 165.831 21.7631V21.7596ZM173.727 16.0785V15.6616C173.636 14.566 173.198 13.6358 172.411 12.8744C171.607 12.1337 170.674 11.7616 169.613 11.7616C168.551 11.7616 167.628 12.144 166.845 12.9054C166.041 13.6875 165.593 14.6418 165.502 15.7753V16.0819H173.727V16.0785Z" fill="#282828"/>
<path d="M177.404 23.0689V11.2036H178.5V13.2087C178.829 12.5024 179.331 11.9478 180.009 11.5378C180.684 11.1106 181.434 10.897 182.258 10.897C183.411 10.897 184.388 11.2759 185.192 12.0373C186.016 12.8194 186.427 13.7462 186.427 14.8245V23.0689H185.331V14.8245C185.331 14.008 185.029 13.3121 184.426 12.7333C183.822 12.1579 183.099 11.872 182.258 11.872C181.342 11.872 180.532 12.1889 179.819 12.8194C179.107 13.4706 178.666 14.2767 178.503 15.2414V23.0689H177.408H177.404Z" fill="#282828"/>
<path d="M187 27.7097H185.552V34.8H187V27.7097ZM178.642 34.8034H180.002V29.7734L182.845 34.8034H184.303V27.7131H182.943V32.657L180.172 27.7131H178.642V34.8034ZM177.55 31.2479C177.55 29.9491 177.197 28.9741 176.495 28.3229C175.969 27.7717 175.206 27.4961 174.209 27.4961C173.212 27.4961 172.448 27.7717 171.923 28.3229C171.214 28.9741 170.861 29.9491 170.861 31.2479C170.861 32.5468 171.214 33.4977 171.923 34.1729C172.448 34.7242 173.212 34.9998 174.209 34.9998C175.206 34.9998 175.969 34.7242 176.495 34.1729C177.201 33.4977 177.55 32.5227 177.55 31.2479ZM174.209 33.7423C173.632 33.7423 173.171 33.5252 172.825 33.0911C172.482 32.657 172.309 32.0438 172.309 31.2445C172.309 30.4452 172.482 29.832 172.825 29.3979C173.167 28.9638 173.629 28.7502 174.209 28.7502C174.789 28.7502 175.243 28.9672 175.586 29.4013C175.925 29.8354 176.095 30.4521 176.095 31.2445C176.095 32.0369 175.925 32.6605 175.586 33.0911C175.247 33.5252 174.789 33.7423 174.209 33.7423ZM169.755 27.7097H168.307V34.8H169.755V27.7097ZM162.008 34.8034H167.398V33.5528H163.775L167.391 28.9017V27.7131H162.099V28.9672H165.576L162.008 33.5528V34.8034ZM155 34.8034H156.526L156.998 33.3461H159.569L160.03 34.8034H161.611L159.142 27.7131H157.49L154.997 34.8034H155ZM158.3 29.3324L159.182 32.123H157.395L158.3 29.3324ZM149.078 34.8034H154.467V33.5528H150.845L154.461 28.9017V27.7131H149.169V28.9672H152.646L149.078 33.5528V34.8034ZM143.155 34.8034H148.545V33.5528H144.922L148.535 28.9017V27.7131H143.243V28.9672H146.72L143.152 33.5528V34.8034H143.155ZM142.283 27.7097H140.835V34.8H142.283V27.7097ZM135.028 34.8034H139.974V33.5287H136.487V27.7131H135.028V34.8034ZM133.664 27.7097H132.216V34.8H133.664V27.7097ZM128.726 27.7097H125.351V34.8H128.495C128.851 34.8 129.177 34.769 129.482 34.7035C129.784 34.638 130.049 34.5209 130.272 34.3486C130.469 34.197 130.635 34.011 130.768 33.7905C130.975 33.4563 131.08 33.0808 131.08 32.6605C131.08 32.2402 130.988 31.906 130.808 31.62C130.629 31.3341 130.357 31.1274 130.001 30.9964C130.235 30.8759 130.412 30.7415 130.534 30.5933C130.751 30.3315 130.856 29.9835 130.856 29.5494C130.856 29.1153 130.751 28.7674 130.537 28.4676C130.181 27.9784 129.581 27.7235 128.729 27.7131M128.461 31.6786C128.76 31.6786 128.994 31.7234 129.16 31.7992C129.455 31.937 129.604 32.1919 129.604 32.5606C129.604 32.9981 129.452 33.291 129.146 33.446C128.977 33.5287 128.743 33.57 128.441 33.57H126.745V31.6786H128.465H128.461ZM128.261 28.9431C128.597 28.9431 128.872 28.981 129.085 29.0533C129.336 29.1601 129.462 29.3772 129.462 29.7079C129.462 30.0042 129.367 30.2144 129.177 30.3315C128.987 30.4486 128.743 30.5072 128.437 30.5072H126.741V28.9431H128.261ZM117.827 34.8034H119.354L119.825 33.3461H122.396L122.858 34.8034H124.438L121.969 27.7131H120.317L117.824 34.8034H117.827ZM121.128 29.3324L122.01 32.123H120.222L121.128 29.3324ZM117.017 27.7097H111.898V34.8H117.19V33.5252H113.326V31.7027H116.718V30.4728H113.326V28.9672H117.02V27.7131L117.017 27.7097ZM107.143 33.2875L105.871 27.7131H103.747V34.8034H105.107V30.0077C105.107 29.8699 105.107 29.6769 105.104 29.4289C105.104 29.1808 105.101 28.9879 105.101 28.8535L106.413 34.8034H107.831L109.154 28.8535C109.154 28.9879 109.154 29.1808 109.151 29.4289C109.151 29.6769 109.147 29.8699 109.147 30.0077V34.8034H110.507V27.7131H108.408L107.146 33.2875H107.143ZM100.142 27.7097H96.8038V34.8H98.2284V32.0197H99.6531C100.06 32.0197 100.335 32.0955 100.484 32.2471C100.633 32.3986 100.708 32.6984 100.715 33.1531L100.725 33.8112C100.725 34.0213 100.749 34.2246 100.786 34.421C100.806 34.5175 100.837 34.6449 100.881 34.8H102.492V34.6208C102.35 34.5347 102.261 34.4003 102.224 34.2177C102.197 34.1006 102.187 33.8835 102.187 33.5597V33.0842C102.187 32.5881 102.119 32.216 101.987 31.9749C101.851 31.7337 101.624 31.5477 101.302 31.4133C101.688 31.2789 101.963 31.0481 102.129 30.7243C102.295 30.4004 102.38 30.0662 102.38 29.732C102.38 29.453 102.336 29.2049 102.251 28.9879C102.167 28.7708 102.048 28.571 101.902 28.3919C101.722 28.1748 101.505 28.0094 101.247 27.8957C100.989 27.782 100.623 27.7235 100.145 27.7131M99.8396 28.9431C100.138 28.9431 100.365 28.9844 100.515 29.0671C100.783 29.2153 100.915 29.5047 100.915 29.9319C100.915 30.3281 100.776 30.5968 100.501 30.7312C100.345 30.807 100.111 30.8483 99.7989 30.8483H98.2284V28.9431H99.8396ZM95.464 27.7097H90.3455V34.8H95.637V33.5252H91.7735V31.7027H95.1655V30.4728H91.7735V28.9672H95.4674V27.7131L95.464 27.7097ZM89.1311 29.956C89.1311 29.1911 88.9242 28.6227 88.5138 28.2575C88.1034 27.8923 87.5505 27.7097 86.8619 27.7097H83.8634V34.8H85.3118V32.2505H86.7635C87.5233 32.2505 88.1068 32.0782 88.5138 31.7303C88.9208 31.3823 89.1277 30.7932 89.1277 29.956M87.6827 29.9663C87.6827 30.335 87.5912 30.6037 87.4046 30.7759C87.2214 30.9448 86.9603 31.0309 86.6278 31.0309H85.3118V28.9431H86.6278C86.9603 28.9431 87.218 29.0223 87.4046 29.1774C87.5912 29.3358 87.6827 29.5977 87.6827 29.9663ZM79.1214 33.2875L77.8494 27.7131H75.726V34.8034H77.0862V30.0077C77.0862 29.8699 77.0862 29.6769 77.0828 29.4289C77.0828 29.1808 77.0794 28.9879 77.0794 28.8535L78.3921 34.8034H79.81L81.1328 28.8535C81.1328 28.9879 81.1328 29.1808 81.1294 29.4289C81.1294 29.6769 81.126 29.8699 81.126 30.0077V34.8034H82.4862V27.7131H80.3866L79.1248 33.2875H79.1214ZM74.3862 27.7097H72.9378V34.8H74.3862V27.7097ZM69.054 27.7097H63.9355V34.8H69.227V33.5252H65.3635V31.7027H68.7555V30.4728H65.3635V28.9672H69.0574V27.7131L69.054 27.7097ZM59.8922 27.7097H54.7737V34.8H60.0652V33.5252H56.2018V31.7027H59.5937V30.4728H56.2018V28.9672H59.8956V27.7131L59.8922 27.7097ZM51.0968 27.7097H47.7591V34.8H49.1837V32.0197H50.6084C51.0154 32.0197 51.2902 32.0955 51.4394 32.2471C51.5887 32.3986 51.6633 32.6984 51.6701 33.1531L51.6802 33.8112C51.6802 34.0213 51.704 34.2246 51.7413 34.421C51.7617 34.5175 51.7922 34.6449 51.8363 34.8H53.4475V34.6208C53.305 34.5347 53.2168 34.4003 53.1795 34.2177C53.1524 34.1006 53.1422 33.8835 53.1422 33.5597V33.0842C53.1422 32.5881 53.0744 32.216 52.9421 31.9749C52.8064 31.7337 52.5791 31.5477 52.2569 31.4133C52.6436 31.2789 52.9183 31.0481 53.0845 30.7243C53.2507 30.4004 53.3355 30.0662 53.3355 29.732C53.3355 29.453 53.2914 29.2049 53.2066 28.9879C53.1218 28.7708 53.0031 28.571 52.8573 28.3919C52.6775 28.1748 52.4604 28.0094 52.2026 27.8957C51.9448 27.782 51.5785 27.7235 51.1002 27.7131M50.7915 28.9431C51.09 28.9431 51.3173 28.9844 51.4665 29.0671C51.7345 29.2153 51.8668 29.5047 51.8668 29.9319C51.8668 30.3281 51.7277 30.5968 51.453 30.7312C51.297 30.807 51.0629 30.8483 50.7508 30.8483H49.1804V28.9431H50.7915ZM40.7208 32.0679C40.7208 32.8224 40.8361 33.4081 41.0667 33.8284C41.4975 34.5967 42.3184 34.9826 43.5259 34.9826C44.7335 34.9826 45.5509 34.5967 45.9783 33.8284C46.209 33.4081 46.3243 32.8224 46.3243 32.0679V27.7097H44.842V32.0645C44.842 32.5502 44.7843 32.9085 44.6724 33.1325C44.496 33.5287 44.1127 33.7285 43.5259 33.7285C42.9391 33.7285 42.549 33.5287 42.3726 33.1325C42.2607 32.9085 42.203 32.5537 42.203 32.0645V27.7097H40.7208V32.0679ZM34.2115 27.7097V28.9638H36.3112V34.8H37.7799V28.9638H39.8694V27.7097H34.2149H34.2115ZM31.1621 27.7097H27.8244V34.8H29.2491V32.0197H30.6737C31.0807 32.0197 31.3555 32.0955 31.5047 32.2471C31.654 32.3986 31.7286 32.6984 31.7354 33.1531L31.7456 33.8112C31.7456 34.0213 31.7693 34.2246 31.8066 34.421C31.827 34.5175 31.8575 34.6449 31.9016 34.8H33.5128V34.6208C33.3703 34.5347 33.2821 34.4003 33.2448 34.2177C33.2177 34.1006 33.2075 33.8835 33.2075 33.5597V33.0842C33.2075 32.5881 33.1397 32.216 33.0074 31.9749C32.8717 31.7337 32.6444 31.5477 32.3222 31.4133C32.7089 31.2789 32.9836 31.0481 33.1498 30.7243C33.3161 30.4004 33.4009 30.0662 33.4009 29.732C33.4009 29.453 33.3568 29.2049 33.272 28.9879C33.1872 28.7708 33.0684 28.571 32.9226 28.3919C32.7428 28.1748 32.5257 28.0094 32.2679 27.8957C32.0101 27.782 31.6438 27.7235 31.1655 27.7131M30.8603 28.9431C31.1588 28.9431 31.386 28.9844 31.5353 29.0671C31.8032 29.2153 31.9355 29.5047 31.9355 29.9319C31.9355 30.3281 31.7964 30.5968 31.5217 30.7312C31.3657 30.807 31.1316 30.8483 30.8196 30.8483H29.2491V28.9431H30.8603ZM26.4846 27.7097H21.3661V34.8H26.6576V33.5252H22.7941V31.7027H26.1861V30.4728H22.7941V28.9672H26.488V27.7131L26.4846 27.7097ZM20.1518 29.956C20.1518 29.1911 19.9449 28.6227 19.5344 28.2575C19.124 27.8923 18.5711 27.7097 17.8825 27.7097H14.884V34.8H16.3324V32.2505H17.7842C18.544 32.2505 19.1274 32.0782 19.5344 31.7303C19.9415 31.3823 20.1484 30.7932 20.1484 29.956M18.7034 29.9663C18.7034 30.335 18.6118 30.6037 18.4252 30.7759C18.2421 30.9448 17.9809 31.0309 17.6485 31.0309H16.3324V28.9431H17.6485C17.9809 28.9431 18.2387 29.0223 18.4252 29.1774C18.6118 29.3358 18.7034 29.5977 18.7034 29.9663ZM13.7375 31.2479C13.7375 29.9491 13.3848 28.9741 12.6826 28.3229C12.1569 27.7717 11.3937 27.4961 10.3964 27.4961C9.39918 27.4961 8.63599 27.7717 8.11023 28.3229C7.40131 28.9741 7.04854 29.9491 7.04854 31.2479C7.04854 32.5468 7.40131 33.4977 8.11023 34.1729C8.63599 34.7242 9.39918 34.9998 10.3964 34.9998C11.3937 34.9998 12.1569 34.7242 12.6826 34.1729C13.3882 33.4977 13.7375 32.5227 13.7375 31.2479ZM10.3964 33.7423C9.81979 33.7423 9.35848 33.5252 9.0125 33.0911C8.66991 32.657 8.49692 32.0438 8.49692 31.2445C8.49692 30.4452 8.66991 29.832 9.0125 29.3979C9.35509 28.9638 9.8164 28.7502 10.3964 28.7502C10.9765 28.7502 11.4344 28.9672 11.7736 29.4013C12.1128 29.8354 12.2824 30.4521 12.2824 31.2445C12.2824 32.0369 12.1128 32.6605 11.7736 33.0911C11.4344 33.5252 10.9765 33.7423 10.3964 33.7423ZM0 31.3134C0 32.4572 0.284927 33.3599 0.851388 34.0179C1.42124 34.6725 2.2014 34.9998 3.19525 34.9998C3.99915 34.9998 4.65719 34.7586 5.16938 34.2728C5.68157 33.7871 6.00381 33.16 6.12592 32.3883H4.67754C4.58257 32.7535 4.46046 33.0291 4.3146 33.2117C4.05342 33.5528 3.67013 33.7216 3.1715 33.7216C2.67288 33.7216 2.2828 33.5252 1.96396 33.129C1.6485 32.7328 1.48908 32.1368 1.48908 31.341C1.48908 30.5451 1.63833 29.9319 1.94021 29.4978C2.23871 29.0637 2.64914 28.8466 3.1715 28.8466C3.69387 28.8466 4.06699 29.0017 4.32817 29.3083C4.47403 29.4805 4.59274 29.7389 4.68433 30.0766H6.14288C6.12253 29.6356 5.96311 29.1946 5.66461 28.7536C5.12868 27.9715 4.27729 27.5788 3.11723 27.5788C2.24888 27.5788 1.53318 27.8716 0.970107 28.4539C0.322238 29.1257 0 30.0766 0 31.3168" fill="#282828"/>
</svg>
