<svg width="146" height="42" viewBox="0 0 146 42" fill="none" xmlns="http://www.w3.org/2000/svg">
<g clip-path="url(#clip0_1_938)">
<path d="M36.2167 19.2738C34.806 19.551 33.516 19.9358 32.3487 20.4323C31.1813 20.9288 30.3005 21.5801 29.7104 22.3861C29.1203 23.1921 28.8252 24.1486 28.8252 25.2555C28.8252 26.9148 29.4433 28.241 30.6817 29.2319C31.9179 30.2228 33.4514 30.7193 35.2799 30.7193C38.1938 30.7193 40.2872 29.8208 41.5601 28.0218L41.629 30.27H47.2501C46.9723 29.0943 46.8345 27.2953 46.8345 24.8751V22.9385L46.9034 18.8933C46.9486 16.1507 46.2681 14.1625 44.8552 12.9288C43.4445 11.695 41.3511 11.0781 38.575 11.0781C35.7989 11.0781 33.7572 11.7186 32.1031 12.9975C30.4491 14.2786 29.5532 15.839 29.4132 17.6832H34.7565C35.0106 15.8627 36.1219 14.9513 38.0861 14.9513C39.1737 14.9513 39.9706 15.177 40.4811 15.6262C40.9893 16.0755 41.2456 16.8428 41.2456 17.9261V18.6526C39.303 18.7901 37.6252 18.9986 36.2146 19.2759M37.3625 26.8461C36.6001 26.8461 35.969 26.6612 35.4715 26.2937C34.974 25.9261 34.7264 25.4404 34.7264 24.8407C34.7264 24.3549 34.8771 23.9465 35.1765 23.6134C35.4758 23.2802 35.9518 23.0094 36.5979 22.8009C37.2462 22.5946 37.9224 22.4377 38.6289 22.3345C39.3331 22.2313 40.2528 22.1217 41.3878 22.0056V22.4549C41.3878 25.3823 40.046 26.8461 37.3625 26.8461Z" fill="#282828"/>
<path d="M47.7778 11.6647V15.7098H50.7284V25.0468C50.7284 27.1446 51.1613 28.5395 52.0292 29.2316C52.8972 29.9237 54.5211 30.2698 56.9052 30.2698H60.5493V26.1559H58.919C57.9476 26.1559 57.2929 26.0183 56.9591 25.741C56.6231 25.4638 56.4551 24.8985 56.4551 24.0473V15.712H60.5493V11.6668H56.4551V6.5835H50.7306V11.6668H47.78L47.7778 11.6647Z" fill="#282828"/>
<path d="M72.0393 26.2935C70.9064 26.2935 69.9287 25.9603 69.1081 25.2897C68.2854 24.6212 67.8288 23.6648 67.7383 22.4203H81.5824C81.7676 19.078 80.9793 16.3568 79.2219 14.259C77.4645 12.1612 75.0459 11.1123 71.9704 11.1123C69.1706 11.1123 66.8058 12.0108 64.8739 13.8098C62.942 15.6088 61.9772 17.9603 61.9772 20.8641C61.9772 23.7679 62.914 26.3107 64.7878 28.0753C66.6615 29.8378 69.1361 30.7212 72.2137 30.7212C74.2038 30.7212 76.0538 30.1925 77.766 29.1307C79.4782 28.071 80.7252 26.502 81.5134 24.4278H76.239C75.4981 25.6723 74.0982 26.2956 72.0414 26.2956M74.7465 16.3676C75.4637 16.9672 75.8449 17.8313 75.8923 18.9619H67.8073C67.9451 17.7862 68.4017 16.9092 69.177 16.3332C69.9524 15.7571 70.8828 15.4691 71.9704 15.4691C73.058 15.4691 74.0293 15.77 74.7465 16.3676Z" fill="#282828"/>
<path d="M94.2893 11.5273H93.8736C91.3969 11.6198 89.6976 12.8406 88.7737 15.1921V11.6649H83.2559V30.27H88.9804V20.9331C88.9804 19.5274 89.3207 18.5236 90.0034 17.9239C90.6861 17.3243 91.7436 17.0255 93.178 17.0255C93.7789 17.0255 94.3001 17.0599 94.7394 17.1287V11.5617C94.6468 11.5381 94.496 11.5273 94.2893 11.5273Z" fill="#282828"/>
<path d="M102.719 5.19727H96.9943V30.2699H102.719V5.19727Z" fill="#282828"/>
<path d="M104.959 30.2699H110.718V11.6648H104.959V30.2699ZM104.959 9.76257H110.683V5.19727H104.959V9.76257Z" fill="#282828"/>
<path d="M112.365 11.6647V15.7098H115.316V25.0468C115.316 27.1446 115.749 28.5395 116.617 29.2316C117.485 29.9237 119.108 30.2698 121.493 30.2698H125.137V26.1559H123.506C122.535 26.1559 121.88 26.0183 121.546 25.741C121.211 25.4638 121.043 24.8985 121.043 24.0473V15.712H125.137V11.6668H121.043V6.5835H115.318V11.6668H112.367L112.365 11.6647Z" fill="#282828"/>
<path d="M136.334 26.2935C135.201 26.2935 134.223 25.9603 133.403 25.2897C132.58 24.6212 132.123 23.6648 132.033 22.4203H145.877C146.062 19.078 145.274 16.3568 143.516 14.259C141.759 12.1612 139.34 11.1123 136.265 11.1123C133.465 11.1123 131.1 12.0108 129.168 13.8098C127.237 15.6088 126.272 17.9603 126.272 20.8641C126.272 23.7679 127.209 26.3107 129.082 28.0753C130.956 29.8378 133.431 30.7212 136.508 30.7212C138.498 30.7212 140.348 30.1925 142.061 29.1307C143.773 28.071 145.02 26.502 145.808 24.4278H140.534C139.793 25.6723 138.393 26.2956 136.336 26.2956M139.041 16.3676C139.758 16.9672 140.139 17.8313 140.187 18.9619H132.102C132.24 17.7862 132.696 16.9092 133.472 16.3332C134.247 15.7571 135.177 15.4691 136.265 15.4691C137.353 15.4691 138.324 15.77 139.041 16.3676Z" fill="#282828"/>
<path d="M0 4.34814V34.618H23.049V30.2698H4.36125V4.34814H0Z" fill="#282828"/>
<path d="M4.35693 0V4.34822H10.4627V24.7417H23.0511V30.2699H27.4059V20.3934H14.8196V0H4.35693Z" fill="#282828"/>
<path d="M51.4865 34.5107V39.7531H55.0013V39.1169H52.2273V34.5107H51.4886H51.4865ZM58.4149 36.4366C58.0811 36.0089 57.6224 35.7961 57.0387 35.7961C56.4938 35.7961 56.0415 35.9809 55.684 36.3485C55.3265 36.7182 55.1477 37.2061 55.1477 37.8122C55.1477 38.4183 55.3179 38.8912 55.656 39.2716C55.9942 39.6521 56.4615 39.8434 57.0624 39.8434C57.5168 39.8434 57.898 39.7273 58.206 39.4952C58.514 39.263 58.7164 38.9729 58.8069 38.6204H58.1263C57.939 39.0503 57.5836 39.263 57.0624 39.263C56.748 39.263 56.4723 39.1556 56.2332 38.9385C55.9942 38.7214 55.8692 38.4162 55.8606 38.0207H58.8607C58.8995 37.3888 58.7531 36.86 58.4192 36.4344M57.842 36.6902C58.0445 36.9095 58.15 37.1652 58.1608 37.4597H55.8628C55.8908 37.0943 56.0157 36.8192 56.2354 36.6343C56.455 36.4516 56.7221 36.3592 57.0365 36.3592C57.3704 36.3592 57.6374 36.4688 57.842 36.6881M60.7689 35.8627V36.3915H61.3849V38.7773C61.3849 39.1771 61.443 39.4414 61.5636 39.5661C61.6821 39.6908 61.9298 39.7531 62.3067 39.7531H62.7848V39.205H62.451C62.2722 39.205 62.1602 39.1728 62.115 39.1104C62.0676 39.0481 62.0461 38.9105 62.0461 38.6978V36.3915H62.7848V35.8627H62.0461V34.8869H61.387V35.8627H60.7711H60.7689ZM66.5516 39.7531V35.8627H65.8926V38.0035C65.8926 38.4183 65.8064 38.7343 65.6341 38.9514C65.464 39.1685 65.2185 39.2759 64.8976 39.2759C64.5767 39.2759 64.3505 39.1792 64.2429 38.9836C64.133 38.788 64.0792 38.5129 64.0792 38.1561V35.8649H63.4201V38.3517C63.4201 39.349 63.8358 39.8477 64.6671 39.8477C65.2185 39.8477 65.6255 39.6306 65.8926 39.1964V39.7531H66.5516ZM70.5209 36.4366C70.1871 36.0089 69.7283 35.7961 69.1447 35.7961C68.5976 35.7961 68.1475 35.9809 67.79 36.3485C67.4325 36.7182 67.2537 37.2061 67.2537 37.8122C67.2537 38.4183 67.4217 38.8912 67.7598 39.2716C68.098 39.6521 68.5653 39.8434 69.1662 39.8434C69.6207 39.8434 70.0019 39.7273 70.312 39.4952C70.6221 39.263 70.8224 38.9729 70.9129 38.6204H70.2323C70.0428 39.0503 69.6896 39.263 69.1662 39.263C68.8518 39.263 68.5761 39.1556 68.337 38.9385C68.098 38.7214 67.9731 38.4162 67.9645 38.0207H70.9646C71.0033 37.3888 70.8547 36.86 70.5231 36.4344M69.9502 36.6902C70.1526 36.9095 70.2603 37.1652 70.2689 37.4597H67.9709C68.0011 37.0943 68.1238 36.8192 68.3435 36.6343C68.5632 36.4516 68.8302 36.3592 69.1447 36.3592C69.4785 36.3592 69.7456 36.4688 69.948 36.6881M75.7243 36.112C75.4529 35.8971 75.1083 35.7896 74.6883 35.7896C74.2447 35.7896 73.8742 35.8864 73.577 36.0819C73.2798 36.2775 73.1312 36.5419 73.1312 36.8729C73.1312 37.2039 73.2346 37.4447 73.4392 37.6037C73.6438 37.7628 73.9108 37.8788 74.2403 37.9519L74.8197 38.068C75.0652 38.1217 75.2591 38.1969 75.399 38.2915C75.539 38.3882 75.608 38.528 75.608 38.7107C75.608 38.8934 75.5218 39.0309 75.3517 39.1341C75.1794 39.2373 74.964 39.2888 74.7034 39.2888C74.1564 39.2888 73.8268 39.0245 73.7105 38.4936H73.0149C73.058 38.8654 73.2281 39.1835 73.521 39.4479C73.8161 39.7123 74.2059 39.8455 74.6883 39.8455C75.1708 39.8455 75.5261 39.7381 75.8255 39.5231C76.1248 39.3082 76.2734 39.0137 76.2734 38.6376C76.2734 38.2958 76.155 38.0357 75.9159 37.8595C75.6769 37.6832 75.3517 37.5564 74.9403 37.4791L74.389 37.3716C74.1908 37.3286 74.0422 37.2663 73.9431 37.1867C73.8441 37.1072 73.7945 36.9933 73.7945 36.8428C73.7945 36.6795 73.8764 36.5548 74.0401 36.4753C74.2037 36.3936 74.3954 36.3528 74.6129 36.3528C75.1255 36.3528 75.4313 36.5677 75.5326 36.9954H76.2196C76.1571 36.6193 75.9913 36.3248 75.7199 36.1099M77.8177 36.7268C78.0395 36.4925 78.3173 36.3764 78.6511 36.3764C78.985 36.3764 79.2628 36.4968 79.4846 36.7332C79.7065 36.9718 79.8184 37.335 79.8184 37.823C79.8184 38.3109 79.7065 38.6548 79.4825 38.8998C79.2585 39.147 78.9807 39.2673 78.6533 39.2673C78.3259 39.2673 78.0416 39.1491 77.8198 38.9105C77.598 38.672 77.486 38.3087 77.486 37.823C77.486 37.3372 77.5958 36.961 77.8198 36.7268M76.7817 37.8208C76.7817 38.4764 76.9669 38.9772 77.3395 39.3254C77.7121 39.6736 78.1493 39.8455 78.6511 39.8455C79.153 39.8455 79.5902 39.6714 79.9627 39.3254C80.3332 38.9793 80.5206 38.4764 80.5206 37.8208C80.5206 37.1652 80.3332 36.6623 79.9627 36.3162C79.5902 35.9702 79.153 35.7961 78.6511 35.7961C78.1493 35.7961 77.7121 35.9702 77.3395 36.3162C76.9669 36.6623 76.7817 37.1652 76.7817 37.8208ZM81.2377 39.7531H81.8968V34.5107H81.2377V39.7531ZM85.9414 39.7531V35.8627H85.2824V38.0035C85.2824 38.4183 85.1963 38.7343 85.024 38.9514C84.8538 39.1685 84.6083 39.2759 84.2874 39.2759C83.9665 39.2759 83.7403 39.1792 83.6327 38.9836C83.525 38.788 83.469 38.5129 83.469 38.1561V35.8649H82.8099V38.3517C82.8099 39.349 83.2256 39.8477 84.0569 39.8477C84.6083 39.8477 85.0153 39.6306 85.2824 39.1964V39.7531H85.9414ZM89.6932 39.7531V39.1814H87.4038L89.6501 36.4344V35.8627H86.7728V36.4344H88.8812L86.6285 39.1814V39.7531H89.6932ZM90.3759 39.7531H91.0349V35.8627H90.3759V39.7531ZM90.3759 35.306H91.0349V34.5107H90.3759V35.306ZM92.7881 36.7268C93.0099 36.4925 93.2877 36.3764 93.6216 36.3764C93.9554 36.3764 94.2332 36.4968 94.455 36.7332C94.6769 36.9718 94.7889 37.335 94.7889 37.823C94.7889 38.3109 94.6769 38.6548 94.4507 38.8998C94.2267 39.147 93.9489 39.2673 93.6216 39.2673C93.2942 39.2673 93.0099 39.1491 92.7881 38.9105C92.5662 38.672 92.4542 38.3087 92.4542 37.823C92.4542 37.3372 92.5662 36.961 92.7881 36.7268ZM91.7521 37.8208C91.7521 38.4764 91.9373 38.9772 92.3099 39.3254C92.6825 39.6736 93.1197 39.8455 93.6216 39.8455C94.1234 39.8455 94.5606 39.6714 94.9332 39.3254C95.3057 38.9793 95.491 38.4764 95.491 37.8208C95.491 37.1652 95.3057 36.6623 94.9332 36.3162C94.5606 35.9702 94.1234 35.7961 93.6216 35.7961C93.1197 35.7961 92.6825 35.9702 92.3099 36.3162C91.9373 36.6623 91.7521 37.1652 91.7521 37.8208ZM96.2081 35.8627V39.7531H96.8672V37.6424C96.8672 37.2276 96.9576 36.9116 97.1385 36.6945C97.3195 36.4774 97.5714 36.37 97.8945 36.37C98.2369 36.37 98.4652 36.4667 98.5794 36.6623C98.6935 36.8579 98.7495 37.133 98.7495 37.4898V39.7531H99.4086V37.2942C99.4086 36.2969 98.98 35.7982 98.1271 35.7982C97.5521 35.7982 97.1321 36.0153 96.865 36.4495V35.8649H96.206L96.2081 35.8627ZM100.324 39.7531H100.983V35.8627H100.324V39.7531ZM100.324 35.306H100.983V34.5107H100.324V35.306ZM103.598 41.017H104.257V39.1663C104.517 39.6198 104.941 39.8455 105.532 39.8455C105.999 39.8455 106.395 39.6628 106.716 39.2996C107.037 38.9363 107.199 38.442 107.199 37.8208C107.199 37.1996 107.037 36.7117 106.716 36.3463C106.395 35.9809 105.999 35.7961 105.532 35.7961C104.941 35.7961 104.517 36.0218 104.257 36.4753V35.8606H103.598V41.017ZM105.366 36.3614C105.708 36.3614 105.98 36.4903 106.182 36.7483C106.382 37.0062 106.481 37.3651 106.481 37.823C106.481 38.2808 106.38 38.6397 106.182 38.8977C105.982 39.1556 105.71 39.2845 105.366 39.2845C105.047 39.2845 104.778 39.162 104.558 38.9148C104.338 38.6698 104.229 38.3066 104.229 37.823C104.229 37.3393 104.338 36.9782 104.558 36.7311C104.778 36.486 105.047 36.3635 105.366 36.3635M110.959 36.4366C110.625 36.0089 110.166 35.7961 109.583 35.7961C109.038 35.7961 108.585 35.9809 108.228 36.3485C107.87 36.7182 107.692 37.2061 107.692 37.8122C107.692 38.4183 107.862 38.8912 108.2 39.2716C108.538 39.6521 109.005 39.8434 109.606 39.8434C110.061 39.8434 110.442 39.7273 110.752 39.4952C111.06 39.263 111.263 38.9729 111.353 38.6204H110.672C110.483 39.0503 110.13 39.263 109.606 39.263C109.292 39.263 109.016 39.1556 108.777 38.9385C108.538 38.7214 108.413 38.4162 108.405 38.0207H111.405C111.443 37.3888 111.297 36.86 110.963 36.4344M110.388 36.6902C110.591 36.9095 110.696 37.1652 110.707 37.4597H108.411C108.439 37.0943 108.564 36.8192 108.784 36.6343C109.003 36.4516 109.27 36.3592 109.585 36.3592C109.919 36.3592 110.186 36.4688 110.39 36.6881M113.843 35.8412C113.306 35.8649 112.938 36.0991 112.742 36.5419V35.8627H112.098V39.7531H112.757V37.7133C112.757 37.2899 112.833 36.9847 112.981 36.7977C113.132 36.6128 113.36 36.5183 113.67 36.5183C113.795 36.5183 113.918 36.5269 114.039 36.5484V35.8477C113.985 35.8434 113.92 35.8412 113.843 35.8412ZM116.487 36.3635C116.145 36.7418 115.973 37.2254 115.973 37.8144C115.973 38.4033 116.136 38.9062 116.466 39.2824C116.793 39.6585 117.237 39.8455 117.793 39.8455C118.236 39.8455 118.62 39.7144 118.941 39.4479C119.261 39.1835 119.46 38.8633 119.531 38.485H118.85C118.801 38.7021 118.684 38.8869 118.495 39.0374C118.305 39.19 118.079 39.2652 117.814 39.2652C117.5 39.2652 117.235 39.1384 117.017 38.8848C116.8 38.6311 116.692 38.2722 116.692 37.8036C116.692 37.335 116.802 36.9868 117.017 36.7397C117.235 36.4946 117.5 36.3721 117.814 36.3721C118.07 36.3721 118.29 36.4452 118.473 36.5935C118.656 36.7397 118.773 36.9288 118.822 37.1609H119.488C119.436 36.7998 119.261 36.4817 118.971 36.2066C118.678 35.9315 118.307 35.7939 117.859 35.7939C117.289 35.7939 116.832 35.9831 116.49 36.3614M121.023 36.7268C121.245 36.4925 121.523 36.3764 121.857 36.3764C122.19 36.3764 122.468 36.4968 122.69 36.7332C122.912 36.9718 123.024 37.335 123.024 37.823C123.024 38.3109 122.912 38.6548 122.688 38.8998C122.462 39.147 122.186 39.2673 121.859 39.2673C121.531 39.2673 121.247 39.1491 121.025 38.9105C120.803 38.672 120.691 38.3087 120.691 37.823C120.691 37.3372 120.803 36.961 121.025 36.7268M119.987 37.8208C119.987 38.4764 120.172 38.9772 120.545 39.3254C120.918 39.6736 121.355 39.8455 121.857 39.8455C122.358 39.8455 122.796 39.6714 123.168 39.3254C123.541 38.9793 123.726 38.4764 123.726 37.8208C123.726 37.1652 123.541 36.6623 123.168 36.3162C122.796 35.9702 122.358 35.7961 121.857 35.7961C121.355 35.7961 120.918 35.9702 120.545 36.3162C120.172 36.6623 119.987 37.1652 119.987 37.8208ZM126.864 36.112C126.593 35.8971 126.248 35.7896 125.828 35.7896C125.382 35.7896 125.012 35.8864 124.715 36.0819C124.417 36.2775 124.269 36.5419 124.269 36.8729C124.269 37.2039 124.37 37.4447 124.577 37.6037C124.781 37.7628 125.048 37.8788 125.378 37.9519L125.957 38.068C126.203 38.1217 126.397 38.1969 126.537 38.2915C126.677 38.3882 126.748 38.528 126.748 38.7107C126.748 38.8934 126.662 39.0309 126.489 39.1341C126.317 39.2373 126.102 39.2888 125.841 39.2888C125.296 39.2888 124.964 39.0245 124.848 38.4936H124.152C124.196 38.8654 124.366 39.1835 124.659 39.4479C124.954 39.7123 125.341 39.8455 125.826 39.8455C126.31 39.8455 126.664 39.7381 126.963 39.5231C127.262 39.3082 127.413 39.0137 127.413 38.6376C127.413 38.2958 127.293 38.0357 127.054 37.8595C126.814 37.6832 126.489 37.5564 126.08 37.4791L125.529 37.3716C125.331 37.3286 125.182 37.2663 125.083 37.1867C124.984 37.1072 124.934 36.9933 124.934 36.8428C124.934 36.6795 125.016 36.5548 125.18 36.4753C125.343 36.3936 125.535 36.3528 125.753 36.3528C126.265 36.3528 126.571 36.5677 126.672 36.9954H127.361C127.299 36.6193 127.131 36.3248 126.862 36.1099M127.747 35.8627V36.3915H128.363V38.7773C128.363 39.1771 128.421 39.4414 128.54 39.5661C128.658 39.6908 128.906 39.7531 129.283 39.7531H129.761V39.205H129.427C129.248 39.205 129.136 39.1728 129.089 39.1104C129.044 39.0481 129.02 38.9105 129.02 38.6978V36.3915H129.759V35.8627H129.02V34.8869H128.361V35.8627H127.745H127.747ZM132.203 35.8412C131.667 35.8649 131.301 36.0991 131.102 36.5419V35.8627H130.459V39.7531H131.118V37.7133C131.118 37.2899 131.193 36.9847 131.342 36.7977C131.492 36.6128 131.721 36.5183 132.031 36.5183C132.156 36.5183 132.281 36.5269 132.401 36.5484V35.8477C132.347 35.8434 132.283 35.8412 132.205 35.8412M136.03 39.7531V35.8627H135.371V38.0035C135.371 38.4183 135.285 38.7343 135.113 38.9514C134.943 39.1685 134.697 39.2759 134.378 39.2759C134.06 39.2759 133.831 39.1792 133.721 38.9836C133.612 38.788 133.558 38.5129 133.558 38.1561V35.8649H132.899V38.3517C132.899 39.349 133.314 39.8477 134.146 39.8477C134.697 39.8477 135.104 39.6306 135.371 39.1964V39.7531H136.03ZM136.999 39.7531H137.658V35.8627H136.999V39.7531ZM136.999 35.306H137.658V34.5107H136.999V35.306ZM140.376 35.8412C139.84 35.8649 139.474 36.0991 139.276 36.5419V35.8627H138.632V39.7531H139.291V37.7133C139.291 37.2899 139.366 36.9847 139.515 36.7977C139.666 36.6128 139.894 36.5183 140.204 36.5183C140.329 36.5183 140.454 36.5269 140.574 36.5484V35.8477C140.523 35.8434 140.456 35.8412 140.378 35.8412M144.057 36.4366C143.723 36.0089 143.264 35.7961 142.681 35.7961C142.136 35.7961 141.684 35.9809 141.326 36.3485C140.969 36.7182 140.79 37.2061 140.79 37.8122C140.79 38.4183 140.96 38.8912 141.296 39.2716C141.634 39.6521 142.104 39.8434 142.702 39.8434C143.157 39.8434 143.538 39.7273 143.848 39.4952C144.156 39.263 144.359 38.9729 144.449 38.6204H143.768C143.579 39.0503 143.226 39.263 142.702 39.263C142.388 39.263 142.112 39.1556 141.873 38.9385C141.634 38.7214 141.509 38.4162 141.501 38.0207H144.501C144.539 37.3888 144.391 36.86 144.059 36.4344M143.486 36.6902C143.689 36.9095 143.794 37.1652 143.805 37.4597H141.509C141.539 37.0943 141.662 36.8192 141.882 36.6343C142.101 36.4516 142.369 36.3592 142.683 36.3592C143.017 36.3592 143.284 36.4688 143.486 36.6881" fill="#282828"/>
</g>
<defs>
<clipPath id="clip0_1_938">
<rect width="145.903" height="41.0169" fill="white"/>
</clipPath>
</defs>
</svg>
