<svg preserveAspectRatio="none" width="100%" height="100%" overflow="visible" style="display: block;" viewBox="0 0 146 42" fill="none" xmlns="http://www.w3.org/2000/svg">
<g id="Laterlite" clip-path="url(#clip0_4105_699)">
<path id="Vector" d="M36.2167 19.2736C34.806 19.5509 33.516 19.9356 32.3487 20.4321C31.1814 20.9286 30.3005 21.5799 29.7104 22.3859C29.1203 23.1919 28.8252 24.1484 28.8252 25.2554C28.8252 26.9147 29.4433 28.2409 30.6817 29.2317C31.9179 30.2226 33.4514 30.7191 35.2799 30.7191C38.1938 30.7191 40.2872 29.8207 41.5601 28.0216L41.629 30.2699H47.2502C46.9723 29.0942 46.8345 27.2951 46.8345 24.8749V22.9383L46.9034 18.8932C46.9486 16.1505 46.2681 14.1623 44.8552 12.9286C43.4446 11.6948 41.3512 11.078 38.575 11.078C35.7989 11.078 33.7572 11.7185 32.1031 12.9974C30.4491 14.2784 29.5532 15.8389 29.4132 17.683H34.7565C35.0106 15.8625 36.122 14.9512 38.0861 14.9512C39.1738 14.9512 39.9706 15.1769 40.4811 15.6261C40.9893 16.0753 41.2456 16.8426 41.2456 17.9259V18.6524C39.303 18.79 37.6252 18.9985 36.2146 19.2757M37.3625 26.8459C36.6001 26.8459 35.969 26.6611 35.4715 26.2935C34.974 25.926 34.7264 25.4402 34.7264 24.8405C34.7264 24.3548 34.8771 23.9464 35.1765 23.6132C35.4758 23.2801 35.9518 23.0092 36.5979 22.8008C37.2462 22.5944 37.9225 22.4375 38.6289 22.3343C39.3331 22.2312 40.2528 22.1215 41.3878 22.0055V22.4547C41.3878 25.3822 40.046 26.8459 37.3625 26.8459Z" fill="var(--fill-0, #282828)"/>
<path id="Vector_2" d="M47.7778 11.6648V15.7099H50.7284V25.0469C50.7284 27.1447 51.1613 28.5396 52.0292 29.2317C52.8972 29.9238 54.5211 30.2699 56.9052 30.2699H60.5493V26.156H58.9189C57.9476 26.156 57.2929 26.0184 56.9591 25.7411C56.6231 25.4639 56.4551 24.8986 56.4551 24.0474V15.7121H60.5493V11.6669H56.4551V6.58359H50.7305V11.6669H47.78L47.7778 11.6648Z" fill="var(--fill-0, #282828)"/>
<path id="Vector_3" d="M72.0393 26.2935C70.9065 26.2935 69.9287 25.9604 69.1081 25.2898C68.2854 24.6213 67.8288 23.6648 67.7384 22.4203H81.5824C81.7676 19.078 80.9793 16.3569 79.2219 14.2591C77.4645 12.1613 75.0459 11.1124 71.9704 11.1124C69.1706 11.1124 66.8058 12.0108 64.8739 13.8098C62.9421 15.6089 61.9772 17.9603 61.9772 20.8642C61.9772 23.768 62.9141 26.3107 64.7878 28.0754C66.6615 29.8379 69.1361 30.7213 72.2138 30.7213C74.2038 30.7213 76.0538 30.1925 77.766 29.1307C79.4782 28.0711 80.7252 26.502 81.5135 24.4278H76.239C75.4982 25.6723 74.0982 26.2957 72.0415 26.2957M74.7465 16.3676C75.4637 16.9673 75.8449 17.8314 75.8923 18.9619H67.8073C67.9451 17.7862 68.4017 16.9093 69.177 16.3332C69.9524 15.7572 70.8828 15.4692 71.9704 15.4692C73.058 15.4692 74.0293 15.7701 74.7465 16.3676Z" fill="var(--fill-0, #282828)"/>
<path id="Vector_4" d="M94.2892 11.5272H93.8736C91.3968 11.6196 89.6975 12.8405 88.7736 15.1919V11.6648H83.2558V30.2699H88.9804V20.9329C88.9804 19.5272 89.3206 18.5235 90.0034 17.9238C90.6861 17.3241 91.7436 17.0253 93.1779 17.0253C93.7788 17.0253 94.3 17.0597 94.7394 17.1285V11.5616C94.6468 11.5379 94.496 11.5272 94.2892 11.5272Z" fill="var(--fill-0, #282828)"/>
<path id="Vector_5" d="M102.719 5.19723H96.9943V30.2699H102.719V5.19723Z" fill="var(--fill-0, #282828)"/>
<path id="Vector_6" d="M104.959 30.2699H110.718V11.6648H104.959V30.2699ZM104.959 9.76254H110.683V5.19723H104.959V9.76254Z" fill="var(--fill-0, #282828)"/>
<path id="Vector_7" d="M112.365 11.6648V15.7099H115.316V25.0469C115.316 27.1447 115.749 28.5396 116.617 29.2317C117.485 29.9238 119.109 30.2699 121.493 30.2699H125.137V26.156H123.506C122.535 26.156 121.88 26.0184 121.547 25.7411C121.211 25.4639 121.043 24.8986 121.043 24.0474V15.7121H125.137V11.6669H121.043V6.58359H115.318V11.6669H112.367L112.365 11.6648Z" fill="var(--fill-0, #282828)"/>
<path id="Vector_8" d="M136.334 26.2935C135.201 26.2935 134.223 25.9604 133.403 25.2898C132.58 24.6213 132.123 23.6648 132.033 22.4203H145.877C146.062 19.078 145.274 16.3569 143.516 14.2591C141.759 12.1613 139.34 11.1124 136.265 11.1124C133.465 11.1124 131.1 12.0108 129.169 13.8098C127.237 15.6089 126.272 17.9603 126.272 20.8642C126.272 23.768 127.209 26.3107 129.082 28.0754C130.956 29.8379 133.431 30.7213 136.508 30.7213C138.498 30.7213 140.348 30.1925 142.061 29.1307C143.773 28.0711 145.02 26.502 145.808 24.4278H140.534C139.793 25.6723 138.393 26.2957 136.336 26.2957M139.041 16.3676C139.758 16.9673 140.139 17.8314 140.187 18.9619H132.102C132.24 17.7862 132.696 16.9093 133.472 16.3332C134.247 15.7572 135.177 15.4692 136.265 15.4692C137.353 15.4692 138.324 15.7701 139.041 16.3676Z" fill="var(--fill-0, #282828)"/>
<path id="Vector_9" d="M0 4.34822V34.6181H23.049V30.2699H4.36125V4.34822H0Z" fill="var(--fill-0, #282828)"/>
<path id="Vector_10" d="M4.35695 0V4.34822H10.4627V24.7417H23.0511V30.2699H27.4059V20.3934H14.8196V0H4.35695Z" fill="var(--fill-0, #282828)"/>
<path id="Vector_11" d="M51.4865 34.5106V39.753H55.0013V39.1168H52.2274V34.5106H51.4886H51.4865ZM58.415 36.4365C58.0811 36.0088 57.6224 35.796 57.0387 35.796C56.4939 35.796 56.0416 35.9808 55.6841 36.3484C55.3265 36.7181 55.1478 37.206 55.1478 37.8121C55.1478 38.4182 55.3179 38.8911 55.6561 39.2715C55.9942 39.652 56.4616 39.8433 57.0624 39.8433C57.5169 39.8433 57.8981 39.7272 58.2061 39.4951C58.514 39.2629 58.7165 38.9728 58.8069 38.6203H58.1264C57.939 39.0502 57.5836 39.2629 57.0624 39.2629C56.748 39.2629 56.4723 39.1555 56.2333 38.9384C55.9942 38.7213 55.8693 38.4161 55.8607 38.0206H58.8608C58.8995 37.3887 58.7531 36.8599 58.4193 36.4343M57.8421 36.6901C58.0445 36.9094 58.1501 37.1651 58.1608 37.4596H55.8628C55.8908 37.0942 56.0157 36.8191 56.2354 36.6342C56.4551 36.4515 56.7221 36.3591 57.0366 36.3591C57.3704 36.3591 57.6375 36.4687 57.8421 36.688M60.769 35.8626V36.3914H61.3849V38.7772C61.3849 39.177 61.4431 39.4413 61.5637 39.566C61.6821 39.6907 61.9298 39.753 62.3067 39.753H62.7848V39.2049H62.451C62.2722 39.2049 62.1603 39.1727 62.115 39.1103C62.0676 39.048 62.0461 38.9104 62.0461 38.6977V36.3914H62.7848V35.8626H62.0461V34.8868H61.3871V35.8626H60.7711H60.769ZM66.5517 39.753V35.8626H65.8926V38.0034C65.8926 38.4182 65.8065 38.7342 65.6342 38.9513C65.464 39.1684 65.2185 39.2758 64.8976 39.2758C64.5767 39.2758 64.3506 39.1791 64.2429 38.9835C64.1331 38.7879 64.0792 38.5128 64.0792 38.156V35.8648H63.4202V38.3516C63.4202 39.3489 63.8358 39.8476 64.6672 39.8476C65.2185 39.8476 65.6256 39.6305 65.8926 39.1963V39.753H66.5517ZM70.5209 36.4365C70.1871 36.0088 69.7284 35.796 69.1447 35.796C68.5977 35.796 68.1476 35.9808 67.79 36.3484C67.4325 36.7181 67.2538 37.206 67.2538 37.8121C67.2538 38.4182 67.4218 38.8911 67.7599 39.2715C68.098 39.652 68.5654 39.8433 69.1663 39.8433C69.6207 39.8433 70.0019 39.7272 70.312 39.4951C70.6222 39.2629 70.8225 38.9728 70.9129 38.6203H70.2323C70.0428 39.0502 69.6896 39.2629 69.1663 39.2629C68.8518 39.2629 68.5761 39.1555 68.3371 38.9384C68.098 38.7213 67.9731 38.4161 67.9645 38.0206H70.9646C71.0034 37.3887 70.8548 36.8599 70.5231 36.4343M69.9502 36.6901C70.1527 36.9094 70.2603 37.1651 70.269 37.4596H67.971C68.0011 37.0942 68.1239 36.8191 68.3435 36.6342C68.5632 36.4515 68.8303 36.3591 69.1447 36.3591C69.4785 36.3591 69.7456 36.4687 69.9481 36.688M75.7243 36.1119C75.4529 35.897 75.1083 35.7895 74.6884 35.7895C74.2447 35.7895 73.8743 35.8862 73.577 36.0818C73.2798 36.2774 73.1312 36.5418 73.1312 36.8728C73.1312 37.2038 73.2346 37.4446 73.4392 37.6036C73.6438 37.7627 73.9109 37.8787 74.2404 37.9518L74.8197 38.0679C75.0653 38.1216 75.2591 38.1968 75.3991 38.2914C75.5391 38.3881 75.608 38.5279 75.608 38.7106C75.608 38.8933 75.5218 39.0308 75.3517 39.134C75.1794 39.2372 74.964 39.2887 74.7034 39.2887C74.1564 39.2887 73.8269 39.0244 73.7106 38.4935H73.0149C73.058 38.8653 73.2281 39.1834 73.5211 39.4478C73.8161 39.7122 74.2059 39.8454 74.6884 39.8454C75.1708 39.8454 75.5262 39.738 75.8255 39.523C76.1249 39.3081 76.2735 39.0136 76.2735 38.6375C76.2735 38.2957 76.155 38.0356 75.916 37.8594C75.6769 37.6831 75.3517 37.5563 74.9403 37.4789L74.389 37.3715C74.1909 37.3285 74.0422 37.2662 73.9432 37.1866C73.8441 37.1071 73.7946 36.9932 73.7946 36.8427C73.7946 36.6794 73.8764 36.5547 74.0401 36.4752C74.2038 36.3935 74.3955 36.3527 74.613 36.3527C75.1256 36.3527 75.4314 36.5676 75.5326 36.9953H76.2196C76.1572 36.6192 75.9913 36.3247 75.72 36.1098M77.8177 36.7267C78.0395 36.4924 78.3174 36.3763 78.6512 36.3763C78.985 36.3763 79.2628 36.4967 79.4847 36.7331C79.7065 36.9717 79.8185 37.3349 79.8185 37.8229C79.8185 38.3108 79.7065 38.6547 79.4825 38.8997C79.2585 39.1469 78.9807 39.2672 78.6533 39.2672C78.326 39.2672 78.0417 39.149 77.8198 38.9104C77.598 38.6719 77.486 38.3086 77.486 37.8229C77.486 37.3371 77.5959 36.9609 77.8198 36.7267M76.7818 37.8207C76.7818 38.4763 76.967 38.9771 77.3396 39.3253C77.7122 39.6735 78.1494 39.8454 78.6512 39.8454C79.153 39.8454 79.5902 39.6713 79.9628 39.3253C80.3332 38.9792 80.5206 38.4763 80.5206 37.8207C80.5206 37.1651 80.3332 36.6622 79.9628 36.3161C79.5902 35.9701 79.153 35.796 78.6512 35.796C78.1494 35.796 77.7122 35.9701 77.3396 36.3161C76.967 36.6622 76.7818 37.1651 76.7818 37.8207ZM81.2378 39.753H81.8968V34.5106H81.2378V39.753ZM85.9415 39.753V35.8626H85.2824V38.0034C85.2824 38.4182 85.1963 38.7342 85.024 38.9513C84.8539 39.1684 84.6083 39.2758 84.2874 39.2758C83.9665 39.2758 83.7404 39.1791 83.6327 38.9835C83.525 38.7879 83.469 38.5128 83.469 38.156V35.8648H82.81V38.3516C82.81 39.3489 83.2257 39.8476 84.057 39.8476C84.6083 39.8476 85.0154 39.6305 85.2824 39.1963V39.753H85.9415ZM89.6932 39.753V39.1813H87.4038L89.6502 36.4343V35.8626H86.7728V36.4343H88.8813L86.6285 39.1813V39.753H89.6932ZM90.376 39.753H91.035V35.8626H90.376V39.753ZM90.376 35.3059H91.035V34.5106H90.376V35.3059ZM92.7881 36.7267C93.0099 36.4924 93.2878 36.3763 93.6216 36.3763C93.9554 36.3763 94.2332 36.4967 94.4551 36.7331C94.6769 36.9717 94.7889 37.3349 94.7889 37.8229C94.7889 38.3108 94.6769 38.6547 94.4508 38.8997C94.2268 39.1469 93.949 39.2672 93.6216 39.2672C93.2942 39.2672 93.0099 39.149 92.7881 38.9104C92.5663 38.6719 92.4543 38.3086 92.4543 37.8229C92.4543 37.3371 92.5663 36.9609 92.7881 36.7267ZM91.7522 37.8207C91.7522 38.4763 91.9374 38.9771 92.31 39.3253C92.6826 39.6735 93.1198 39.8454 93.6216 39.8454C94.1234 39.8454 94.5606 39.6713 94.9332 39.3253C95.3058 38.9792 95.491 38.4763 95.491 37.8207C95.491 37.1651 95.3058 36.6622 94.9332 36.3161C94.5606 35.9701 94.1234 35.796 93.6216 35.796C93.1198 35.796 92.6826 35.9701 92.31 36.3161C91.9374 36.6622 91.7522 37.1651 91.7522 37.8207ZM96.2082 35.8626V39.753H96.8672V37.6423C96.8672 37.2275 96.9577 36.9115 97.1386 36.6944C97.3195 36.4773 97.5715 36.3699 97.8945 36.3699C98.237 36.3699 98.4653 36.4666 98.5794 36.6622C98.6936 36.8578 98.7496 37.1329 98.7496 37.4897V39.753H99.4086V37.2941C99.4086 36.2968 98.98 35.7981 98.1271 35.7981C97.5521 35.7981 97.1321 36.0152 96.8651 36.4494V35.8648H96.206L96.2082 35.8626ZM100.324 39.753H100.983V35.8626H100.324V39.753ZM100.324 35.3059H100.983V34.5106H100.324V35.3059ZM103.598 41.0169H104.257V39.1662C104.517 39.6197 104.941 39.8454 105.532 39.8454C105.999 39.8454 106.395 39.6627 106.716 39.2995C107.037 38.9362 107.199 38.4419 107.199 37.8207C107.199 37.1995 107.037 36.7116 106.716 36.3462C106.395 35.9808 105.999 35.796 105.532 35.796C104.941 35.796 104.517 36.0217 104.257 36.4752V35.8605H103.598V41.0169ZM105.366 36.3613C105.708 36.3613 105.98 36.4902 106.182 36.7482C106.382 37.0061 106.481 37.365 106.481 37.8229C106.481 38.2807 106.38 38.6396 106.182 38.8975C105.982 39.1555 105.71 39.2844 105.366 39.2844C105.047 39.2844 104.778 39.1619 104.558 38.9147C104.338 38.6697 104.229 38.3065 104.229 37.8229C104.229 37.3392 104.338 36.9781 104.558 36.731C104.778 36.4859 105.047 36.3634 105.366 36.3634M110.959 36.4365C110.625 36.0088 110.166 35.796 109.583 35.796C109.038 35.796 108.586 35.9808 108.228 36.3484C107.871 36.7181 107.692 37.206 107.692 37.8121C107.692 38.4182 107.862 38.8911 108.2 39.2715C108.538 39.652 109.006 39.8433 109.606 39.8433C110.061 39.8433 110.442 39.7272 110.752 39.4951C111.06 39.2629 111.263 38.9728 111.353 38.6203H110.672C110.483 39.0502 110.13 39.2629 109.606 39.2629C109.292 39.2629 109.016 39.1555 108.777 38.9384C108.538 38.7213 108.413 38.4161 108.405 38.0206H111.405C111.444 37.3887 111.297 36.8599 110.963 36.4343M110.388 36.6901C110.591 36.9094 110.696 37.1651 110.707 37.4596H108.411C108.439 37.0942 108.564 36.8191 108.784 36.6342C109.003 36.4515 109.27 36.3591 109.585 36.3591C109.919 36.3591 110.186 36.4687 110.39 36.688M113.843 35.8411C113.306 35.8648 112.938 36.099 112.742 36.5418V35.8626H112.098V39.753H112.757V37.7132C112.757 37.2898 112.833 36.9846 112.981 36.7976C113.132 36.6127 113.36 36.5182 113.67 36.5182C113.795 36.5182 113.918 36.5268 114.039 36.5483V35.8476C113.985 35.8433 113.92 35.8411 113.843 35.8411ZM116.487 36.3634C116.145 36.7417 115.973 37.2253 115.973 37.8143C115.973 38.4032 116.136 38.9061 116.466 39.2823C116.793 39.6584 117.237 39.8454 117.793 39.8454C118.236 39.8454 118.62 39.7143 118.941 39.4478C119.261 39.1834 119.46 38.8632 119.531 38.4849H118.85C118.801 38.702 118.684 38.8868 118.495 39.0373C118.305 39.1899 118.079 39.2651 117.814 39.2651C117.5 39.2651 117.235 39.1383 117.017 38.8847C116.8 38.631 116.692 38.2721 116.692 37.8035C116.692 37.3349 116.802 36.9867 117.017 36.7396C117.235 36.4945 117.5 36.372 117.814 36.372C118.07 36.372 118.29 36.4451 118.473 36.5934C118.656 36.7396 118.773 36.9287 118.822 37.1608H119.488C119.436 36.7997 119.261 36.4816 118.971 36.2065C118.678 35.9314 118.307 35.7938 117.859 35.7938C117.289 35.7938 116.832 35.983 116.49 36.3613M121.023 36.7267C121.245 36.4924 121.523 36.3763 121.857 36.3763C122.19 36.3763 122.468 36.4967 122.69 36.7331C122.912 36.9717 123.024 37.3349 123.024 37.8229C123.024 38.3108 122.912 38.6547 122.688 38.8997C122.462 39.1469 122.186 39.2672 121.859 39.2672C121.531 39.2672 121.247 39.149 121.025 38.9104C120.804 38.6719 120.692 38.3086 120.692 37.8229C120.692 37.3371 120.804 36.9609 121.025 36.7267M119.987 37.8207C119.987 38.4763 120.172 38.9771 120.545 39.3253C120.918 39.6735 121.355 39.8454 121.857 39.8454C122.358 39.8454 122.796 39.6713 123.168 39.3253C123.541 38.9792 123.726 38.4763 123.726 37.8207C123.726 37.1651 123.541 36.6622 123.168 36.3161C122.796 35.9701 122.358 35.796 121.857 35.796C121.355 35.796 120.918 35.9701 120.545 36.3161C120.172 36.6622 119.987 37.1651 119.987 37.8207ZM126.864 36.1119C126.593 35.897 126.248 35.7895 125.828 35.7895C125.382 35.7895 125.012 35.8862 124.715 36.0818C124.417 36.2774 124.269 36.5418 124.269 36.8728C124.269 37.2038 124.37 37.4446 124.577 37.6036C124.781 37.7627 125.048 37.8787 125.378 37.9518L125.957 38.0679C126.203 38.1216 126.397 38.1968 126.537 38.2914C126.677 38.3881 126.748 38.5279 126.748 38.7106C126.748 38.8933 126.662 39.0308 126.489 39.134C126.317 39.2372 126.102 39.2887 125.841 39.2887C125.296 39.2887 124.964 39.0244 124.848 38.4935H124.153C124.196 38.8653 124.366 39.1834 124.659 39.4478C124.954 39.7122 125.341 39.8454 125.826 39.8454C126.311 39.8454 126.664 39.738 126.963 39.523C127.262 39.3081 127.413 39.0136 127.413 38.6375C127.413 38.2957 127.293 38.0356 127.054 37.8594C126.814 37.6831 126.489 37.5563 126.08 37.4789L125.529 37.3715C125.331 37.3285 125.182 37.2662 125.083 37.1866C124.984 37.1071 124.934 36.9932 124.934 36.8427C124.934 36.6794 125.016 36.5547 125.18 36.4752C125.344 36.3935 125.535 36.3527 125.753 36.3527C126.265 36.3527 126.571 36.5676 126.672 36.9953H127.362C127.299 36.6192 127.131 36.3247 126.862 36.1098M127.747 35.8626V36.3914H128.363V38.7772C128.363 39.177 128.421 39.4413 128.54 39.566C128.658 39.6907 128.906 39.753 129.283 39.753H129.761V39.2049H129.427C129.248 39.2049 129.136 39.1727 129.089 39.1103C129.044 39.048 129.02 38.9104 129.02 38.6977V36.3914H129.759V35.8626H129.02V34.8868H128.361V35.8626H127.745H127.747ZM132.203 35.8411C131.667 35.8648 131.301 36.099 131.103 36.5418V35.8626H130.459V39.753H131.118V37.7132C131.118 37.2898 131.193 36.9846 131.342 36.7976C131.492 36.6127 131.721 36.5182 132.031 36.5182C132.156 36.5182 132.281 36.5268 132.401 36.5483V35.8476C132.347 35.8433 132.283 35.8411 132.205 35.8411M136.03 39.753V35.8626H135.371V38.0034C135.371 38.4182 135.285 38.7342 135.113 38.9513C134.943 39.1684 134.697 39.2758 134.378 39.2758C134.06 39.2758 133.831 39.1791 133.721 38.9835C133.612 38.7879 133.558 38.5128 133.558 38.156V35.8648H132.899V38.3516C132.899 39.3489 133.314 39.8476 134.146 39.8476C134.697 39.8476 135.104 39.6305 135.371 39.1963V39.753H136.03ZM136.999 39.753H137.658V35.8626H136.999V39.753ZM136.999 35.3059H137.658V34.5106H136.999V35.3059ZM140.376 35.8411C139.84 35.8648 139.474 36.099 139.276 36.5418V35.8626H138.632V39.753H139.291V37.7132C139.291 37.2898 139.366 36.9846 139.515 36.7976C139.666 36.6127 139.894 36.5182 140.204 36.5182C140.329 36.5182 140.454 36.5268 140.575 36.5483V35.8476C140.523 35.8433 140.456 35.8411 140.379 35.8411M144.057 36.4365C143.723 36.0088 143.264 35.796 142.681 35.796C142.136 35.796 141.684 35.9808 141.326 36.3484C140.969 36.7181 140.79 37.206 140.79 37.8121C140.79 38.4182 140.96 38.8911 141.296 39.2715C141.634 39.652 142.104 39.8433 142.702 39.8433C143.157 39.8433 143.538 39.7272 143.848 39.4951C144.156 39.2629 144.359 38.9728 144.449 38.6203H143.768C143.579 39.0502 143.226 39.2629 142.702 39.2629C142.388 39.2629 142.112 39.1555 141.873 38.9384C141.634 38.7213 141.509 38.4161 141.501 38.0206H144.501C144.539 37.3887 144.391 36.8599 144.059 36.4343M143.486 36.6901C143.689 36.9094 143.794 37.1651 143.805 37.4596H141.509C141.539 37.0942 141.662 36.8191 141.882 36.6342C142.102 36.4515 142.369 36.3591 142.683 36.3591C143.017 36.3591 143.284 36.4687 143.486 36.688" fill="var(--fill-0, #282828)"/>
</g>
<defs>
<clipPath id="clip0_4105_699">
<rect width="145.903" height="41.0169" fill="white"/>
</clipPath>
</defs>
</svg>
