<svg width="175" height="21" viewBox="0 0 175 21" fill="none" xmlns="http://www.w3.org/2000/svg">
<g clip-path="url(#clip0_1_874)">
<path d="M0.135742 18.5343V18.9948L1.9824 20.9675H20.7447V16.8913L18.7914 14.6714H18.3939V18.544L0.135742 18.5343Z" fill="#282828"/>
<path d="M7.22181 15.103H4.80322V0.0874023H5.26368L7.22181 2.21518V15.103Z" fill="#282828"/>
<path d="M45.6818 20.9677L43.5007 18.5491L48.4785 18.5346L38.1304 0.494525L38.426 0.0195312L40.4084 2.22971L51.1636 20.9677H45.6818Z" fill="#282828"/>
<path d="M36.1237 11.2883H32.033L35.9589 4.07617L37.9268 7.77434L36.1237 11.2883Z" fill="#282828"/>
<path d="M42.8657 17.0123H32.8085L30.7631 20.9674H25.0825L23.1583 19.0044L23.4152 18.5585H28.0973L30.1863 14.5889L41.5474 14.6179L42.8657 17.0123Z" fill="#282828"/>
<path d="M57.5421 0.0534523V14.9818H59.951V2.2297C59.951 2.2297 57.9056 0.0825336 57.9056 0.0534523C57.9056 0.0243711 57.5421 0.0534523 57.5421 0.0534523Z" fill="#282828"/>
<path d="M74.007 0.0825195L76.096 2.22969V16.9545L73.0231 17.255L73.309 16.7267L73.5223 16.0142L73.6871 14.6959L73.6726 12.316V0.0825195H74.007Z" fill="#282828"/>
<path d="M76.096 16.9448C76.096 16.9448 76.0378 17.6864 75.9748 17.9578C75.9118 18.3019 75.7325 18.9514 75.3254 19.4361C74.5983 20.4346 73.5659 20.9677 71.3558 20.9677H58.5891C58.5891 20.9677 55.269 20.9968 54.5759 18.2583C54.5468 18.1372 55.9718 18.4716 56.1269 18.4716C56.282 18.4716 57.5519 18.5637 57.5519 18.5637H67.3813L70.1537 18.5491L71.2443 18.3698L72.0295 18.0984L72.679 17.6282L72.9649 17.2502L73.1006 17.2066L76.096 16.9594V16.9448Z" fill="#282828"/>
<path d="M80.0656 18.51V18.888L81.791 20.9673H86.4877V9.60627L83.9431 6.09229L83.9721 18.51V18.6166L83.9576 18.51H80.0656Z" fill="#282828"/>
<path d="M84.1223 0.106445L84.4713 0.227617L92.711 10.789L92.362 11.2106L83.9285 0.305167L84.1223 0.106445Z" fill="#282828"/>
<path d="M91.5285 16.848L92.9534 18.7673H93.9228L100.103 10.4695V6.28662L92.5899 16.3293L92.5318 16.4069L91.5139 16.3633L91.5285 16.785V16.848Z" fill="#282828"/>
<path d="M104.058 18.573H99.7535V18.8881L101.421 20.9674H106.617V2.22938L104.542 0.106445H104.087V18.51L104.058 18.573Z" fill="#282828"/>
<path d="M139.348 14.8462C139.348 14.8462 139.406 21.1035 145.411 20.9581C145.59 20.9581 158.149 20.9581 158.149 20.9581C158.149 20.9581 162.05 21.1423 162.05 16.8092V11.909C162.05 11.909 162.05 8.66645 158.948 8.59375C158.885 8.59375 159.225 8.87002 159.176 8.87972C159.283 9.02997 159.462 9.54859 159.675 10.2708C160.049 11.5407 159.54 16.7074 159.54 16.7074L158.856 17.8416C158.856 17.8416 156.54 18.6122 156.467 18.6462C156.176 18.7625 152.211 18.6898 152.211 18.6898L145.14 18.8255L144.049 18.7673C144.049 18.7673 140.429 18.6607 139.852 16.9061C139.653 16.2954 139.503 14.8171 139.503 14.8171L139.353 14.8462H139.348Z" fill="#282828"/>
<path d="M143.303 12.9992L143.332 14.9525H145.12L143.39 12.8296L143.303 12.9992Z" fill="#282828"/>
<path d="M140.516 10.0137C140.516 10.0137 141.955 13.1205 145.212 13.2417C146.482 13.2902 155.633 13.2417 155.633 13.2417L155.604 11.1963C155.604 11.1963 143.516 10.9734 143.337 11.0461C142.731 11.2884 140.521 10.0185 140.521 10.0185L140.516 10.0137Z" fill="#282828"/>
<path d="M155.599 3.69821L155.628 5.74359L155.294 6.00047H146.046V7.24127H144.054V3.77091C144.054 3.77091 155.594 3.84846 155.594 3.77091V3.69336L155.599 3.69821Z" fill="#282828"/>
<path d="M155.221 6.0442L156.268 7.13475L158.149 7.6776L161.449 6.8294C161.449 6.8294 161.677 5.40441 161.391 4.2557C160.936 2.43813 158.818 1.46875 158.818 1.46875L159.394 3.13608L159.486 4.86156L158.546 5.21054L155.231 6.0442H155.221Z" fill="#282828"/>
<path d="M132.349 20.9677L130.168 18.5491L135.145 18.5346L124.797 0.494525L125.093 0.0195312L127.08 2.22971L137.831 20.9677H132.349Z" fill="#282828"/>
<path d="M122.791 11.2883H118.705L122.626 4.07617L124.594 7.77434L122.791 11.2883Z" fill="#282828"/>
<path d="M129.533 17.0123H119.475L117.43 20.9674H111.75L109.825 19.0044L110.082 18.5585H114.764L116.853 14.5889L128.214 14.6179L129.533 17.0123Z" fill="#282828"/>
<path d="M155.585 3.64953H143.787V7.52218H155.018C156.782 7.52218 157.974 7.82269 158.595 8.4237C159.215 9.02471 159.525 10.1443 159.525 11.7826V14.2593C159.525 15.8927 159.215 17.0075 158.595 17.6085C157.974 18.2095 156.782 18.51 155.018 18.51H143.889C142.13 18.51 140.937 18.2095 140.317 17.6085C139.697 17.0075 139.386 15.8879 139.386 14.2593V13.765L143.085 12.9992V15.1269H155.822V11.0071H144.582C142.833 11.0071 141.65 10.7066 141.039 10.1056C140.424 9.50456 140.118 8.38977 140.118 6.75638V4.75946C140.118 3.12607 140.424 2.00644 141.039 1.40543C141.655 0.804413 142.833 0.503906 144.582 0.503906H154.809C156.501 0.503906 157.669 0.794719 158.314 1.3715C158.958 1.94828 159.278 2.97581 159.278 4.44926V4.82732L155.58 5.7046V3.64468L155.585 3.64953Z" fill="#009237" stroke="white" stroke-width="2.07" stroke-miterlimit="3.86"/>
<path fill-rule="evenodd" clip-rule="evenodd" d="M118.589 11.327H126.484L122.597 4.00339L118.589 11.327ZM110.523 18.5149L120.721 0.508789H124.763L135.097 18.5149H130.391L128.224 14.5696H116.8L114.701 18.5149H110.523Z" fill="#009237"/>
<path d="M118.589 11.327H126.484L122.597 4.00339L118.589 11.327ZM110.523 18.5149L120.721 0.508789H124.763L135.097 18.5149H130.391L128.224 14.5696H116.8L114.701 18.5149H110.523Z" stroke="white" stroke-width="2.07" stroke-miterlimit="3.86"/>
<path d="M80.4387 18.5149V0.508789H83.8218L92.3136 11.3949L100.607 0.508789H103.961V18.5149H100.088V7.39135C100.088 7.17324 100.102 6.90182 100.132 6.57223C100.161 6.24264 100.195 5.87428 100.243 5.46714C100.015 5.93244 99.8165 6.31535 99.6469 6.61585C99.4772 6.91636 99.3221 7.16355 99.1864 7.35742L92.4202 16.3532H91.5865L84.8009 7.3235C84.5489 6.98421 84.3405 6.66432 84.1611 6.35897C83.9866 6.05846 83.8412 5.76765 83.7249 5.48168C83.7588 5.85489 83.7831 6.19902 83.8024 6.50437C83.817 6.80973 83.8267 7.10539 83.8267 7.39135V18.5149H80.4436H80.4387Z" fill="#009237" stroke="white" stroke-width="2.07" stroke-miterlimit="3.86"/>
<path d="M57.3967 0.508789V15.1318H69.3297V0.508789H73.5174V14.2594C73.5174 15.9025 73.2121 17.0221 72.5965 17.6183C71.981 18.2144 70.7983 18.5101 69.0438 18.5101H57.673C55.9378 18.5101 54.76 18.2144 54.1396 17.6183C53.5192 17.0221 53.2139 15.9025 53.2139 14.2594V0.508789H57.4016H57.3967Z" fill="#009237" stroke="white" stroke-width="2.07" stroke-miterlimit="3.86"/>
<path fill-rule="evenodd" clip-rule="evenodd" d="M31.9215 11.3173H39.8171L35.9299 3.99362L31.9215 11.3173ZM23.8563 18.51L34.0493 0.499023H38.0916L48.4251 18.5052H43.7188L41.5522 14.5598H30.1281L28.0294 18.5052H23.8514L23.8563 18.51Z" fill="#009237"/>
<path d="M31.9215 11.3172H39.8171L35.9299 3.99362L31.9215 11.3172ZM23.8563 18.51L34.0493 0.499023H38.0916L48.4251 18.5052H43.7188L41.5522 14.5598H30.1281L28.0294 18.5052H23.8514L23.8563 18.51Z" stroke="white" stroke-width="2.07" stroke-miterlimit="3.86"/>
<path d="M0.499268 18.5149V0.508789H4.68697V15.127H18.1952V18.5149H0.499268Z" fill="#009237" stroke="white" stroke-width="2.07" stroke-miterlimit="3.86"/>
<path d="M155.696 3.64953H143.899V7.52218H155.129C156.893 7.52218 158.086 7.82269 158.706 8.4237C159.326 9.02471 159.637 10.1443 159.637 11.7826V14.2593C159.637 15.8927 159.326 17.0075 158.706 17.6085C158.086 18.2095 156.893 18.51 155.129 18.51H144.001C142.241 18.51 141.049 18.2095 140.429 17.6085C139.808 17.0075 139.498 15.8879 139.498 14.2593V13.765L143.196 12.9992V15.1269H155.934V11.0071H144.694C142.944 11.0071 141.761 10.7066 141.151 10.1056C140.535 9.50456 140.23 8.38977 140.23 6.75638V4.75946C140.23 3.12607 140.535 2.00644 141.151 1.40543C141.766 0.804413 142.944 0.503906 144.694 0.503906H154.921C156.612 0.503906 157.78 0.794719 158.425 1.3715C159.07 1.94828 159.39 2.97581 159.39 4.44926V4.82732L155.691 5.7046V3.64468L155.696 3.64953Z" fill="#282828"/>
<path fill-rule="evenodd" clip-rule="evenodd" d="M118.661 11.327H126.557L122.67 4.00339L118.661 11.327ZM110.601 18.5149L120.794 0.508789H124.836L135.17 18.5149H130.463L128.297 14.5696H116.873L114.774 18.5149H110.596H110.601Z" fill="#282828"/>
<path d="M80.5164 18.5149V0.508789H83.8995L92.3912 11.3949L100.679 0.508789H104.033V18.5149H100.161V7.39135C100.161 7.17324 100.175 6.90182 100.204 6.57223C100.233 6.24264 100.267 5.87428 100.316 5.46714C100.088 5.93244 99.8893 6.31535 99.7197 6.61585C99.55 6.91636 99.3949 7.16355 99.2592 7.35742L92.493 16.3532H91.6593L84.8737 7.3235C84.6217 6.98421 84.4084 6.66432 84.2339 6.35897C84.0594 6.05846 83.914 5.76765 83.7977 5.48168C83.8316 5.85489 83.8559 6.19902 83.8752 6.50437C83.8946 6.80973 83.8995 7.10539 83.8995 7.39135V18.5149H80.5164Z" fill="#282828"/>
<path d="M57.4742 0.508789V15.1318H69.4072V0.508789H73.5949V14.2594C73.5949 15.9025 73.2896 17.0221 72.674 17.6183C72.0585 18.2144 70.8759 18.5101 69.1213 18.5101H57.7505C56.0153 18.5101 54.8375 18.2144 54.2171 17.6183C53.5967 17.0221 53.2914 15.9025 53.2914 14.2594V0.508789H57.4791H57.4742Z" fill="#282828"/>
<path fill-rule="evenodd" clip-rule="evenodd" d="M31.9361 11.3173H39.8316L35.9444 3.99362L31.9361 11.3173ZM23.8708 18.51L34.0687 0.499023H38.111L48.4445 18.5052H43.7382L41.5716 14.5598H30.1476L28.0489 18.5052H23.8708V18.51Z" fill="#282828"/>
<path d="M0.576782 18.5149V0.508789H4.76448V15.127H18.2679V18.5149H0.576782Z" fill="#282828"/>
<path fill-rule="evenodd" clip-rule="evenodd" d="M170.513 0.106445C171.172 0.106445 171.802 0.271239 172.403 0.600827C173.009 0.930414 173.479 1.40056 173.828 2.01127C174.172 2.62682 174.347 3.26661 174.347 3.93548C174.347 4.60435 174.177 5.23929 173.838 5.84515C173.499 6.45101 173.029 6.92115 172.423 7.26043C171.817 7.59971 171.182 7.76936 170.513 7.76936C169.844 7.76936 169.209 7.59971 168.603 7.26043C167.998 6.92115 167.527 6.45101 167.188 5.84515C166.849 5.23929 166.679 4.60435 166.679 3.93548C166.679 3.26661 166.854 2.62197 167.198 2.01127C167.542 1.39571 168.017 0.925567 168.623 0.600827C169.224 0.271239 169.854 0.106445 170.513 0.106445ZM170.513 0.862558C169.985 0.862558 169.481 0.993424 169.001 1.25515C168.516 1.51689 168.138 1.89494 167.857 2.38932C167.581 2.88371 167.44 3.39747 167.44 3.93548C167.44 4.47348 167.576 4.9824 167.847 5.46709C168.119 5.95178 168.497 6.33468 168.986 6.60611C169.471 6.87753 169.985 7.01324 170.518 7.01324C171.051 7.01324 171.565 6.87753 172.05 6.60611C172.534 6.33468 172.912 5.95178 173.189 5.46709C173.46 4.9824 173.601 4.46863 173.601 3.93548C173.601 3.40232 173.46 2.87886 173.184 2.38932C172.907 1.89494 172.525 1.52173 172.04 1.25515C171.555 0.993424 171.051 0.862558 170.523 0.862558H170.513ZM168.783 5.98086V1.92887H169.607C170.377 1.92887 170.809 1.92887 170.906 1.93856C171.177 1.9628 171.39 2.01611 171.541 2.09851C171.691 2.18091 171.817 2.31177 171.919 2.48626C172.02 2.66075 172.069 2.85462 172.069 3.06789C172.069 3.3587 171.972 3.61074 171.783 3.81915C171.594 4.02757 171.323 4.15359 170.978 4.2069C171.1 4.25537 171.196 4.30384 171.264 4.35715C171.332 4.41047 171.424 4.5171 171.541 4.66736C171.57 4.70613 171.671 4.87092 171.841 5.16174L172.316 5.98086H171.293L170.959 5.32168C170.731 4.88062 170.542 4.5995 170.397 4.48317C170.246 4.36685 170.057 4.30869 169.83 4.30869H169.616V5.97601H168.788L168.783 5.98086ZM169.612 3.6689H169.946C170.421 3.6689 170.717 3.64951 170.828 3.61558C170.944 3.58166 171.032 3.5138 171.1 3.42656C171.167 3.33446 171.196 3.23268 171.196 3.11636C171.196 3.00003 171.163 2.90309 171.1 2.81585C171.037 2.72861 170.944 2.6656 170.823 2.62682C170.702 2.58805 170.411 2.56866 169.941 2.56866H169.607V3.66405L169.612 3.6689Z" fill="#282828"/>
</g>
<defs>
<clipPath id="clip0_1_874">
<rect width="174.342" height="20.9676" fill="white"/>
</clipPath>
</defs>
</svg>
