<svg preserveAspectRatio="none" width="100%" height="100%" overflow="visible" style="display: block;" viewBox="0 0 175 21" fill="none" xmlns="http://www.w3.org/2000/svg">
<g id="Laumas" clip-path="url(#clip0_4105_634)">
<path id="Vector" d="M0.135713 18.5345V18.9949L1.98237 20.9676H20.7446V16.8914L18.7913 14.6715H18.3939V18.5441L0.135713 18.5345Z" fill="var(--fill-0, #282828)"/>
<path id="Vector_2" d="M7.22184 15.1029H4.80325V0.0872438H5.26371L7.22184 2.21502V15.1029Z" fill="var(--fill-0, #282828)"/>
<path id="Vector_3" d="M45.6818 20.9676L43.5007 18.549L48.4785 18.5345L38.1304 0.494381L38.426 0.0193875L40.4084 2.22956L51.1636 20.9676H45.6818Z" fill="var(--fill-0, #282828)"/>
<path id="Vector_4" d="M36.1238 11.2884H32.033L35.959 4.07622L37.9268 7.77439L36.1238 11.2884Z" fill="var(--fill-0, #282828)"/>
<path id="Vector_5" d="M42.8658 17.0125H32.8085L30.7631 20.9676H25.0826L23.1584 19.0046L23.4153 18.5587H28.0973L30.1863 14.5891L41.5474 14.6182L42.8658 17.0125Z" fill="var(--fill-0, #282828)"/>
<path id="Vector_6" d="M57.5421 0.0533156V14.9817H59.951V2.22956C59.951 2.22956 57.9056 0.0823969 57.9056 0.0533156C57.9056 0.0242344 57.5421 0.0533156 57.5421 0.0533156Z" fill="var(--fill-0, #282828)"/>
<path id="Vector_7" d="M74.007 0.0823969L76.096 2.22956V16.9544L73.023 17.2549L73.309 16.7266L73.5223 16.0141L73.6871 14.6957L73.6725 12.3159V0.0823969H74.007Z" fill="var(--fill-0, #282828)"/>
<path id="Vector_8" d="M76.096 16.9447C76.096 16.9447 76.0378 17.6862 75.9748 17.9577C75.9118 18.3018 75.7324 18.9513 75.3253 19.436C74.5983 20.4344 73.5659 20.9676 71.3557 20.9676H58.589C58.589 20.9676 55.2689 20.9967 54.5758 18.2582C54.5467 18.137 55.9717 18.4714 56.1268 18.4714C56.2819 18.4714 57.5518 18.5635 57.5518 18.5635H67.3813L70.1537 18.549L71.2442 18.3697L72.0294 18.0982L72.6789 17.6281L72.9649 17.25L73.1006 17.2064L76.096 16.9592V16.9447Z" fill="var(--fill-0, #282828)"/>
<path id="Vector_9" d="M80.0656 18.5102V18.8883L81.791 20.9676H86.4877V9.60651L83.9431 6.09252L83.9721 18.5102V18.6169L83.9576 18.5102H80.0656Z" fill="var(--fill-0, #282828)"/>
<path id="Vector_10" d="M84.1224 0.106631L84.4714 0.227803L92.711 10.7891L92.3621 11.2108L83.9285 0.305353L84.1224 0.106631Z" fill="var(--fill-0, #282828)"/>
<path id="Vector_11" d="M91.5284 16.8477L92.9534 18.7671H93.9228L100.103 10.4693V6.2864L92.5899 16.3291L92.5317 16.4067L91.5139 16.3631L91.5284 16.7847V16.8477Z" fill="var(--fill-0, #282828)"/>
<path id="Vector_12" d="M104.058 18.5732H99.7536V18.8883L101.421 20.9676H106.617V2.22956L104.542 0.106631H104.087V18.5102L104.058 18.5732Z" fill="var(--fill-0, #282828)"/>
<path id="Vector_13" d="M139.348 14.846C139.348 14.846 139.406 21.1033 145.411 20.9579C145.59 20.9579 158.149 20.9579 158.149 20.9579C158.149 20.9579 162.05 21.1421 162.05 16.809V11.9088C162.05 11.9088 162.05 8.66621 158.948 8.59351C158.885 8.59351 159.225 8.86978 159.176 8.87948C159.283 9.02973 159.462 9.54835 159.676 10.2705C160.049 11.5404 159.54 16.7072 159.54 16.7072L158.856 17.8414C158.856 17.8414 156.54 18.612 156.467 18.6459C156.176 18.7623 152.211 18.6896 152.211 18.6896L145.14 18.8253L144.049 18.7671C144.049 18.7671 140.429 18.6605 139.852 16.9059C139.653 16.2952 139.503 14.8169 139.503 14.8169L139.353 14.846H139.348Z" fill="var(--fill-0, #282828)"/>
<path id="Vector_14" d="M143.303 12.9993L143.332 14.9526H145.12L143.39 12.8297L143.303 12.9993Z" fill="var(--fill-0, #282828)"/>
<path id="Vector_15" d="M140.516 10.0136C140.516 10.0136 141.955 13.1205 145.212 13.2417C146.482 13.2901 155.633 13.2417 155.633 13.2417L155.604 11.1963C155.604 11.1963 143.516 10.9733 143.337 11.046C142.731 11.2884 140.521 10.0185 140.521 10.0185L140.516 10.0136Z" fill="var(--fill-0, #282828)"/>
<path id="Vector_16" d="M155.599 3.69817L155.628 5.74355L155.294 6.00043H146.046V7.24123H144.054V3.77087C144.054 3.77087 155.594 3.84842 155.594 3.77087V3.69332L155.599 3.69817Z" fill="var(--fill-0, #282828)"/>
<path id="Vector_17" d="M155.221 6.04406L156.268 7.1346L158.149 7.67745L161.449 6.82925C161.449 6.82925 161.677 5.40427 161.391 4.25556C160.936 2.43798 158.818 1.4686 158.818 1.4686L159.394 3.13593L159.486 4.86142L158.546 5.21039L155.231 6.04406H155.221Z" fill="var(--fill-0, #282828)"/>
<path id="Vector_18" d="M132.349 20.9676L130.168 18.549L135.145 18.5345L124.797 0.494381L125.093 0.0193875L127.08 2.22956L137.831 20.9676H132.349Z" fill="var(--fill-0, #282828)"/>
<path id="Vector_19" d="M122.791 11.2884H118.705L122.626 4.07622L124.594 7.77439L122.791 11.2884Z" fill="var(--fill-0, #282828)"/>
<path id="Vector_20" d="M129.533 17.0125H119.475L117.43 20.9676H111.75L109.825 19.0046L110.082 18.5587H114.764L116.853 14.5891L128.214 14.6182L129.533 17.0125Z" fill="var(--fill-0, #282828)"/>
<path id="Vector_21" d="M155.585 3.6497H143.787V7.52235H155.018C156.782 7.52235 157.974 7.82286 158.595 8.42387C159.215 9.02488 159.525 10.1445 159.525 11.7828V14.2595C159.525 15.8929 159.215 17.0077 158.595 17.6087C157.974 18.2097 156.782 18.5102 155.018 18.5102H143.889C142.13 18.5102 140.937 18.2097 140.317 17.6087C139.697 17.0077 139.386 15.8881 139.386 14.2595V13.7651L143.085 12.9993V15.1271H155.822V11.0073H144.582C142.833 11.0073 141.65 10.7067 141.039 10.1057C140.424 9.50472 140.118 8.38994 140.118 6.75654V4.75963C140.118 3.12623 140.424 2.00661 141.039 1.40559C141.655 0.804581 142.833 0.504075 144.582 0.504075H154.809C156.501 0.504075 157.669 0.794888 158.314 1.37167C158.958 1.94844 159.278 2.97598 159.278 4.44943V4.82749L155.58 5.70477V3.64485L155.585 3.6497Z" fill="var(--fill-0, #009237)" stroke="var(--stroke-0, white)" stroke-width="2.07" stroke-miterlimit="3.86"/>
<path id="Vector_22" fill-rule="evenodd" clip-rule="evenodd" d="M118.589 11.3271H126.484L122.597 4.00352L118.589 11.3271ZM110.523 18.5151L120.721 0.508922H124.763L135.097 18.5151H130.391L128.224 14.5697H116.8L114.701 18.5151H110.523Z" fill="var(--fill-0, #009237)"/>
<path id="Vector_23" d="M118.589 11.3271H126.484L122.597 4.00352L118.589 11.3271ZM110.523 18.5151L120.721 0.508922H124.763L135.097 18.5151H130.391L128.224 14.5697H116.8L114.701 18.5151H110.523Z" stroke="var(--stroke-0, white)" stroke-width="2.07" stroke-miterlimit="3.86"/>
<path id="Vector_24" d="M80.4388 18.5151V0.508922H83.8219L92.3136 11.395L100.607 0.508922H103.961V18.5151H100.088V7.39149C100.088 7.17338 100.103 6.90195 100.132 6.57236C100.161 6.24278 100.195 5.87441 100.243 5.46728C100.015 5.93258 99.8166 6.31548 99.6469 6.61599C99.4773 6.91649 99.3222 7.16368 99.1865 7.35756L92.4202 16.3534H91.5866L84.8009 7.32363C84.5489 6.98435 84.3405 6.66445 84.1612 6.3591C83.9867 6.05859 83.8413 5.76778 83.7249 5.48182C83.7589 5.85503 83.7831 6.19915 83.8025 6.50451C83.817 6.80986 83.8267 7.10552 83.8267 7.39149V18.5151H80.4436H80.4388Z" fill="var(--fill-0, #009237)" stroke="var(--stroke-0, white)" stroke-width="2.07" stroke-miterlimit="3.86"/>
<path id="Vector_25" d="M57.3967 0.508922V15.1319H69.3297V0.508922H73.5174V14.2595C73.5174 15.9026 73.2121 17.0222 72.5965 17.6184C71.981 18.2146 70.7983 18.5102 69.0437 18.5102H57.673C55.9378 18.5102 54.76 18.2146 54.1396 17.6184C53.5192 17.0222 53.2139 15.9026 53.2139 14.2595V0.508922H57.4016H57.3967Z" fill="var(--fill-0, #009237)" stroke="var(--stroke-0, white)" stroke-width="2.07" stroke-miterlimit="3.86"/>
<path id="Vector_26" fill-rule="evenodd" clip-rule="evenodd" d="M31.9215 11.3175H39.8171L35.9299 3.99383L31.9215 11.3175ZM23.8563 18.5102L34.0493 0.499228H38.0916L48.4251 18.5054H43.7188L41.5523 14.56H30.1282L28.0295 18.5054H23.8515L23.8563 18.5102Z" fill="var(--fill-0, #009237)"/>
<path id="Vector_27" d="M31.9215 11.3175H39.8171L35.9299 3.99383L31.9215 11.3175ZM23.8563 18.5102L34.0493 0.499228H38.0916L48.4251 18.5054H43.7188L41.5523 14.56H30.1282L28.0295 18.5054H23.8515L23.8563 18.5102Z" stroke="var(--stroke-0, white)" stroke-width="2.07" stroke-miterlimit="3.86"/>
<path id="Vector_28" d="M0.499228 18.5151V0.508922H4.68693V15.1271H18.1952V18.5151H0.499228Z" fill="var(--fill-0, #009237)" stroke="var(--stroke-0, white)" stroke-width="2.07" stroke-miterlimit="3.86"/>
<path id="Vector_29" d="M155.696 3.6497H143.899V7.52235H155.129C156.893 7.52235 158.086 7.82286 158.706 8.42387C159.327 9.02488 159.637 10.1445 159.637 11.7828V14.2595C159.637 15.8929 159.327 17.0077 158.706 17.6087C158.086 18.2097 156.893 18.5102 155.129 18.5102H144.001C142.241 18.5102 141.049 18.2097 140.429 17.6087C139.808 17.0077 139.498 15.8881 139.498 14.2595V13.7651L143.196 12.9993V15.1271H155.934V11.0073H144.694C142.944 11.0073 141.761 10.7067 141.151 10.1057C140.535 9.50472 140.23 8.38994 140.23 6.75654V4.75963C140.23 3.12623 140.535 2.00661 141.151 1.40559C141.766 0.804581 142.944 0.504075 144.694 0.504075H154.921C156.612 0.504075 157.78 0.794888 158.425 1.37167C159.07 1.94844 159.39 2.97598 159.39 4.44943V4.82749L155.691 5.70477V3.64485L155.696 3.6497Z" fill="var(--fill-0, #282828)"/>
<path id="Vector_30" fill-rule="evenodd" clip-rule="evenodd" d="M118.661 11.3271H126.557L122.67 4.00352L118.661 11.3271ZM110.601 18.5151L120.794 0.508922H124.836L135.17 18.5151H130.463L128.297 14.5697H116.873L114.774 18.5151H110.596H110.601Z" fill="var(--fill-0, #282828)"/>
<path id="Vector_31" d="M80.5163 18.5151V0.508922H83.8994L92.3912 11.395L100.679 0.508922H104.033V18.5151H100.161V7.39149C100.161 7.17338 100.175 6.90195 100.204 6.57236C100.233 6.24278 100.267 5.87441 100.316 5.46728C100.088 5.93258 99.8893 6.31548 99.7196 6.61599C99.55 6.91649 99.3949 7.16368 99.2592 7.35756L92.4929 16.3534H91.6593L84.8737 7.32363C84.6216 6.98435 84.4084 6.66445 84.2339 6.3591C84.0594 6.05859 83.914 5.76778 83.7976 5.48182C83.8316 5.85503 83.8558 6.19915 83.8752 6.50451C83.8946 6.80986 83.8994 7.10552 83.8994 7.39149V18.5151H80.5163Z" fill="var(--fill-0, #282828)"/>
<path id="Vector_32" d="M57.4743 0.508922V15.1319H69.4073V0.508922H73.595V14.2595C73.595 15.9026 73.2896 17.0222 72.6741 17.6184C72.0585 18.2146 70.8759 18.5102 69.1213 18.5102H57.7505C56.0153 18.5102 54.8376 18.2146 54.2172 17.6184C53.5968 17.0222 53.2914 15.9026 53.2914 14.2595V0.508922H57.4791H57.4743Z" fill="var(--fill-0, #282828)"/>
<path id="Vector_33" fill-rule="evenodd" clip-rule="evenodd" d="M31.9361 11.3175H39.8316L35.9444 3.99383L31.9361 11.3175ZM23.8709 18.5102L34.0687 0.499228H38.111L48.4445 18.5054H43.7382L41.5717 14.56H30.1476L28.0489 18.5054H23.8709V18.5102Z" fill="var(--fill-0, #282828)"/>
<path id="Vector_34" d="M0.576778 18.5151V0.508922H4.76448V15.1271H18.2679V18.5151H0.576778Z" fill="var(--fill-0, #282828)"/>
<path id="Vector_35" fill-rule="evenodd" clip-rule="evenodd" d="M170.513 0.106631C171.172 0.106631 171.802 0.271425 172.403 0.601013C173.009 0.9306 173.479 1.40075 173.828 2.01145C174.173 2.62701 174.347 3.26679 174.347 3.93566C174.347 4.60453 174.177 5.23947 173.838 5.84533C173.499 6.45119 173.029 6.92134 172.423 7.26062C171.817 7.5999 171.182 7.76954 170.513 7.76954C169.844 7.76954 169.209 7.5999 168.603 7.26062C167.998 6.92134 167.527 6.45119 167.188 5.84533C166.849 5.23947 166.679 4.60453 166.679 3.93566C166.679 3.26679 166.854 2.62216 167.198 2.01145C167.542 1.3959 168.017 0.925753 168.623 0.601013C169.224 0.271425 169.854 0.106631 170.513 0.106631ZM170.513 0.862744C169.985 0.862744 169.481 0.993609 169.001 1.25534C168.516 1.51707 168.138 1.89513 167.857 2.38951C167.581 2.88389 167.44 3.39766 167.44 3.93566C167.44 4.47367 167.576 4.98259 167.847 5.46728C168.119 5.95196 168.497 6.33487 168.986 6.60629C169.471 6.87772 169.985 7.01343 170.518 7.01343C171.051 7.01343 171.565 6.87772 172.05 6.60629C172.534 6.33487 172.912 5.95196 173.189 5.46728C173.46 4.98259 173.601 4.46882 173.601 3.93566C173.601 3.40251 173.46 2.87904 173.184 2.38951C172.907 1.89513 172.525 1.52192 172.04 1.25534C171.555 0.993609 171.051 0.862744 170.523 0.862744H170.513ZM168.783 5.98104V1.92906H169.607C170.377 1.92906 170.809 1.92906 170.906 1.93875C171.177 1.96298 171.39 2.0163 171.541 2.0987C171.691 2.18109 171.817 2.31196 171.919 2.48645C172.021 2.66093 172.069 2.85481 172.069 3.06807C172.069 3.35888 171.972 3.61092 171.783 3.81934C171.594 4.02775 171.323 4.15377 170.978 4.20709C171.1 4.25556 171.197 4.30403 171.264 4.35734C171.332 4.41066 171.424 4.51729 171.541 4.66754C171.57 4.70632 171.672 4.87111 171.841 5.16192L172.316 5.98104H171.293L170.959 5.32187C170.731 4.8808 170.542 4.59968 170.397 4.48336C170.247 4.36703 170.058 4.30887 169.83 4.30887H169.616V5.9762H168.788L168.783 5.98104ZM169.612 3.66909H169.946C170.421 3.66909 170.717 3.6497 170.828 3.61577C170.944 3.58184 171.032 3.51399 171.1 3.42674C171.167 3.33465 171.197 3.23287 171.197 3.11654C171.197 3.00022 171.163 2.90328 171.1 2.81603C171.037 2.72879 170.944 2.66578 170.823 2.62701C170.702 2.58823 170.411 2.56884 169.941 2.56884H169.607V3.66424L169.612 3.66909Z" fill="var(--fill-0, #282828)"/>
</g>
<defs>
<clipPath id="clip0_4105_634">
<rect width="174.342" height="20.9676" fill="white"/>
</clipPath>
</defs>
</svg>
