<svg preserveAspectRatio="none" width="100%" height="100%" overflow="visible" style="display: block;" viewBox="0 0 82 50" fill="none" xmlns="http://www.w3.org/2000/svg">
<g id="MaldyItaliana" clip-path="url(#clip0_4105_587)">
<path id="Vector" d="M80.7658 21.2036H0.261985V38.9971H80.7658V21.2036Z" fill="var(--fill-0, #282828)" stroke="var(--stroke-0, #282828)"/>
<g id="Group">
<path id="Vector_2" d="M12.9311 12.059L17.8072 0.196657H25.0568V0.6883H24.478C23.9502 0.6883 23.5279 0.778762 23.215 0.967553C22.9922 1.08948 22.8201 1.29794 22.6872 1.59292C22.5894 1.80531 22.5425 2.35988 22.5425 3.25271V15.1308C22.5425 16.0472 22.5894 16.6215 22.6872 16.8496C22.7849 17.0777 22.9804 17.2783 23.2776 17.4513C23.5787 17.6244 23.9736 17.7109 24.478 17.7109H25.0568V18.2026H15.7309V17.7109H16.3057C16.8335 17.7109 17.2558 17.6205 17.5726 17.4317C17.7915 17.3098 17.9675 17.0974 18.0965 16.7945C18.1943 16.5821 18.2451 16.0275 18.2451 15.1269V1.79745L11.3827 18.2026H11.066L4.08619 1.91544V14.5841C4.08619 15.469 4.10965 16.0079 4.15266 16.2124C4.26997 16.6568 4.51632 17.0148 4.89952 17.2901C5.28272 17.5693 5.8849 17.707 6.70214 17.707V18.1986H0.574804V17.707H0.762495C1.16134 17.7149 1.53281 17.6519 1.87691 17.5143C2.22101 17.3766 2.47909 17.1918 2.65896 16.9636C2.83492 16.7316 2.97178 16.4091 3.06953 15.9921C3.08517 15.8938 3.0969 15.4415 3.0969 14.6352V3.25271C3.0969 2.34022 3.04998 1.76991 2.95222 1.54572C2.85838 1.32154 2.65896 1.12095 2.35787 0.947887C2.05678 0.774829 1.65794 0.6883 1.15352 0.6883H0.582624V0.196657H7.89476L12.939 12.059H12.9311Z" fill="var(--fill-0, #282828)" stroke="var(--stroke-0, #282828)"/>
<path id="Vector_3" d="M33.6123 14.5094H29.0999L28.5369 15.7719C28.3609 16.1967 28.271 16.5507 28.271 16.826C28.271 17.1957 28.4196 17.4671 28.7089 17.6401C28.8771 17.7424 29.2994 17.8211 29.9719 17.8722V18.2026H25.6902V17.8722C26.1516 17.8014 26.5309 17.6087 26.8281 17.2862C27.1292 16.9676 27.4928 16.3068 27.9308 15.3078L32.5331 4.97542H32.713L37.3583 15.5949C37.8002 16.6175 38.1678 17.2586 38.4493 17.5221C38.6683 17.7227 38.9694 17.8407 39.3643 17.8722V18.2026H33.1353V17.8722H33.3895C33.89 17.8722 34.2419 17.8014 34.4452 17.6598C34.5821 17.5575 34.6525 17.4081 34.6525 17.2154C34.6525 17.1013 34.6329 16.9794 34.5938 16.8574C34.5821 16.7984 34.4882 16.5546 34.3084 16.1298L33.6084 14.5094H33.6123ZM33.3073 13.8014L31.3913 9.36874L29.4167 13.8014H33.3073Z" fill="var(--fill-0, #282828)" stroke="var(--stroke-0, #282828)"/>
<path id="Vector_4" d="M51.9083 13.6519L51.4195 18.2026H39.9665V17.8722H40.3927C40.7681 17.8722 41.0692 17.8053 41.2959 17.6677C41.4602 17.5772 41.5892 17.4238 41.6752 17.2036C41.7456 17.0502 41.7769 16.6411 41.7769 15.9804V7.4533C41.7769 6.78074 41.7456 6.36382 41.6752 6.1947C41.6049 6.02557 41.4641 5.88005 41.2529 5.75419C41.0418 5.62832 40.7563 5.56539 40.3927 5.56539H39.9665V5.23501H46.8446V5.56539H46.2854C45.91 5.56539 45.6089 5.63226 45.3821 5.76598C45.214 5.85645 45.085 6.01377 44.9911 6.23403C44.9207 6.38742 44.8894 6.79647 44.8894 7.4533V15.7168C44.8894 16.3815 44.9285 16.8024 45.0028 16.9833C45.0771 17.1642 45.2296 17.3019 45.4486 17.3923C45.6089 17.4513 45.9921 17.4789 46.5982 17.4789H47.6696C48.3539 17.4789 48.9248 17.3609 49.3784 17.117C49.8359 16.8732 50.2308 16.4917 50.5632 15.9686C50.8916 15.4454 51.2084 14.6745 51.5056 13.6519H51.9122H51.9083Z" fill="var(--fill-0, #282828)" stroke="var(--stroke-0, #282828)"/>
<path id="Vector_5" d="M52.8272 18.2026V17.8722H53.2573C53.6288 17.8722 53.9143 17.8132 54.1137 17.6952C54.317 17.5733 54.4617 17.412 54.5555 17.2075C54.6142 17.0698 54.6416 16.6647 54.6416 15.9843V7.45723C54.6416 6.78467 54.6025 6.36776 54.536 6.19863C54.4617 6.0295 54.3248 5.88398 54.1137 5.75812C53.9025 5.63226 53.6132 5.56933 53.2573 5.56933H52.8272V5.23894H58.5948C60.1315 5.23894 61.3672 5.4474 62.3056 5.86825C63.4513 6.38349 64.3194 7.16618 64.9098 8.2124C65.5003 9.25468 65.7974 10.4386 65.7974 11.7601C65.7974 12.6726 65.6528 13.5103 65.3595 14.2773C65.0701 15.0482 64.6908 15.6814 64.2294 16.1809C63.768 16.6804 63.2362 17.0856 62.6302 17.3845C62.028 17.6873 61.285 17.9233 60.4131 18.0885C60.0299 18.1672 59.4199 18.2026 58.5909 18.2026H52.8233H52.8272ZM57.7424 5.96264V16.0747C57.7424 16.6097 57.7697 16.94 57.8206 17.058C57.8675 17.18 57.9535 17.2704 58.0747 17.3334C58.2468 17.4277 58.4931 17.4749 58.8138 17.4749C59.8695 17.4749 60.675 17.1131 61.2342 16.3855C61.9889 15.4061 62.3682 13.8801 62.3682 11.8152C62.3682 10.1554 62.1101 8.82597 61.5939 7.83088C61.1834 7.05605 60.6555 6.52508 60.0103 6.24583C59.5528 6.04917 58.802 5.95478 57.7424 5.95871V5.96264Z" fill="var(--fill-0, #282828)" stroke="var(--stroke-0, #282828)"/>
<path id="Vector_6" d="M80.4569 5.23894V5.56933C80.0346 5.62439 79.7061 5.75025 79.4794 5.94298C79.1626 6.21436 78.6621 6.94593 77.9817 8.1416L75.1859 12.8535V15.9882C75.1859 16.6647 75.2211 17.0895 75.2915 17.2547C75.3619 17.4159 75.4987 17.5654 75.7021 17.6913C75.9054 17.8171 76.1791 17.8801 76.5232 17.8801H77.2466V18.2104H70.0127V17.8801H70.6852C71.0645 17.8801 71.3656 17.8132 71.5885 17.6755C71.7527 17.5851 71.8818 17.4317 71.9756 17.2114C72.046 17.058 72.0812 16.649 72.0812 15.9882V13.3923L69.0429 7.81908C68.4408 6.7178 68.0185 6.07277 67.7721 5.87611C67.5258 5.67946 67.1973 5.58113 66.7828 5.57326V5.24288H72.961V5.57326H72.6834C72.308 5.57326 72.0499 5.62832 71.8974 5.73845C71.7488 5.84858 71.6745 5.96657 71.6745 6.0885C71.6745 6.32056 71.9248 6.9066 72.4292 7.84268L74.7753 12.1219L77.098 8.2242C77.6689 7.25664 77.9622 6.61554 77.9622 6.29696C77.9622 6.1239 77.8801 5.97837 77.7158 5.86038C77.4969 5.69912 77.1019 5.60079 76.5271 5.56933V5.23894H80.453H80.4569Z" fill="var(--fill-0, #282828)" stroke="var(--stroke-0, #282828)"/>
</g>
<g id="Group_2">
<path id="Vector_7" d="M8.14501 34.7336V35.0128H2.82319V34.7336H3.15947C3.45664 34.7336 3.69517 34.6785 3.87504 34.5723C4.00799 34.5015 4.10574 34.3835 4.17613 34.2105C4.23478 34.0885 4.25824 33.766 4.25824 33.2547V26.5172C4.25824 25.9941 4.23087 25.6637 4.17613 25.53C4.12138 25.4002 4.0119 25.2862 3.84376 25.1878C3.67562 25.0895 3.44882 25.0384 3.16338 25.0384H2.8271V24.7591H8.15283V25.0384H7.81655C7.52328 25.0384 7.28867 25.0934 7.10489 25.1957C6.97585 25.2665 6.87419 25.3884 6.79989 25.5615C6.74515 25.6834 6.71778 26.002 6.71778 26.5172V33.2547C6.71778 33.7778 6.74906 34.1082 6.8038 34.2419C6.85855 34.3717 6.97194 34.4897 7.14008 34.588C7.30822 34.6864 7.53111 34.7375 7.81655 34.7375H8.15283L8.14501 34.7336Z" fill="var(--fill-0, white)" stroke="var(--stroke-0, white)" stroke-width="0.5"/>
<path id="Vector_8" d="M18.2217 24.7591V27.5359H17.948C17.7876 26.8987 17.6117 26.4386 17.4162 26.1593C17.2207 25.8801 16.9548 25.6559 16.6185 25.4907C16.4269 25.4002 16.0945 25.353 15.6214 25.353H14.8628V33.2586C14.8628 33.7817 14.8902 34.1121 14.9488 34.2459C15.0075 34.3756 15.1209 34.4936 15.289 34.592C15.4571 34.6903 15.6878 34.7414 15.9772 34.7414H16.3174V35.0207H10.9799V34.7414H11.3123C11.6095 34.7414 11.8441 34.6864 12.024 34.5802C12.153 34.5094 12.2547 34.3914 12.329 34.2183C12.3876 34.0964 12.4111 33.7739 12.4111 33.2626V25.357H11.6681C10.9799 25.357 10.4794 25.5064 10.1705 25.7975C9.73256 26.2065 9.45885 26.7886 9.34154 27.5438H9.06392V24.767H18.2256L18.2217 24.7591Z" fill="var(--fill-0, white)" stroke="var(--stroke-0, white)" stroke-width="0.5"/>
<path id="Vector_9" d="M24.0323 32.0944H20.4544L20.0086 33.0934C19.8679 33.4238 19.7975 33.7031 19.7975 33.9155C19.7975 34.2026 19.9109 34.411 20.1455 34.5487C20.2824 34.6313 20.6147 34.6903 21.1426 34.7336V35.0128H17.7524V34.7336C18.12 34.6746 18.4211 34.5251 18.6557 34.2773C18.8903 34.0295 19.1797 33.5143 19.5277 32.7316L23.1759 24.5507H23.3167L26.9962 32.9597C27.3482 33.7581 27.6336 34.2577 27.8604 34.4661C28.0285 34.6234 28.271 34.7139 28.5799 34.7375V35.0167H23.6491V34.7375H23.8524C24.2473 34.7375 24.525 34.6785 24.6853 34.5684C24.7987 34.4858 24.8495 34.3717 24.8495 34.2183C24.8495 34.1279 24.8378 34.0374 24.8065 33.9391C24.7987 33.8958 24.7205 33.707 24.5797 33.3727L24.0284 32.0984L24.0323 32.0944ZM23.7898 31.5359L22.2688 28.0197L20.7008 31.5359H23.7898Z" fill="var(--fill-0, white)" stroke="var(--stroke-0, white)" stroke-width="0.5"/>
<path id="Vector_10" d="M38.4806 31.414L38.0974 35.0128H29.0491V34.7336H29.3854C29.6826 34.7336 29.9172 34.6785 30.101 34.5723C30.2339 34.5015 30.3317 34.3835 30.402 34.2105C30.4568 34.0885 30.4842 33.766 30.4842 33.2547V26.5172C30.4842 25.9941 30.4568 25.6637 30.402 25.53C30.3473 25.4002 30.2378 25.2862 30.0658 25.1878C29.8976 25.0895 29.6708 25.0384 29.3854 25.0384H29.0491V24.7591H34.4882V25.0384H34.0425C33.7492 25.0384 33.5068 25.0934 33.3269 25.1957C33.1979 25.2665 33.0962 25.3884 33.018 25.5615C32.9593 25.6834 32.9359 26.002 32.9359 26.5172V33.0462C32.9359 33.5694 32.9672 33.9037 33.0258 34.0492C33.0845 34.1908 33.2018 34.297 33.3777 34.3717C33.5029 34.415 33.8039 34.4386 34.2849 34.4386H35.1373C35.6809 34.4386 36.1266 34.3442 36.4864 34.1515C36.8461 33.9587 37.1589 33.6559 37.4209 33.2429C37.6829 32.8299 37.9331 32.2203 38.1678 31.414H38.4767H38.4806Z" fill="var(--fill-0, white)" stroke="var(--stroke-0, white)" stroke-width="0.5"/>
<path id="Vector_11" d="M44.6548 34.7336V35.0128H39.333V34.7336H39.6732C39.9665 34.7336 40.2089 34.6785 40.3888 34.5723C40.5178 34.5015 40.6195 34.3835 40.6899 34.2105C40.7446 34.0885 40.772 33.766 40.772 33.2547V26.5172C40.772 25.9941 40.7446 25.6637 40.6899 25.53C40.6351 25.4002 40.5217 25.2862 40.3536 25.1878C40.1854 25.0895 39.9547 25.0384 39.6732 25.0384H39.333V24.7591H44.6548V25.0384H44.3185C44.0253 25.0384 43.7868 25.0934 43.6108 25.1957C43.4818 25.2665 43.3762 25.3884 43.3058 25.5615C43.2511 25.6834 43.2198 26.002 43.2198 26.5172V33.2547C43.2198 33.7778 43.2511 34.1082 43.3058 34.2419C43.3645 34.3717 43.4778 34.4897 43.6421 34.588C43.8102 34.6864 44.0331 34.7375 44.3185 34.7375H44.6548V34.7336Z" fill="var(--fill-0, white)" stroke="var(--stroke-0, white)" stroke-width="0.5"/>
<path id="Vector_12" d="M51.4156 32.0944H47.8378L47.392 33.0934C47.2512 33.4238 47.1808 33.7031 47.1808 33.9155C47.1808 34.2026 47.2942 34.411 47.5289 34.5487C47.6657 34.6313 47.9981 34.6903 48.5299 34.7336V35.0128H45.1397V34.7336C45.5073 34.6746 45.8044 34.5251 46.043 34.2773C46.2776 34.0295 46.5669 33.5143 46.911 32.7316L50.5593 24.5507H50.7001L54.3757 32.9597C54.7276 33.7581 55.0169 34.2577 55.2437 34.4661C55.4119 34.6234 55.6543 34.7139 55.9632 34.7375V35.0167H51.0285V34.7375H51.2318C51.6268 34.7375 51.9044 34.6785 52.0686 34.5684C52.1781 34.4858 52.2329 34.3717 52.2329 34.2183C52.2329 34.1279 52.2172 34.0374 52.1859 33.9391C52.1781 33.8958 52.1038 33.707 51.9591 33.3727L51.4078 32.0984L51.4156 32.0944ZM51.1732 31.5359L49.656 28.0197L48.088 31.5359H51.1732Z" fill="var(--fill-0, white)" stroke="var(--stroke-0, white)" stroke-width="0.5"/>
<path id="Vector_13" d="M59.9595 24.7591L64.9959 31.119V26.706C64.9959 26.0925 64.9059 25.6795 64.73 25.4632C64.4914 25.1721 64.0887 25.0344 63.5256 25.0423V24.7631H66.8884V25.0423C66.4583 25.0974 66.165 25.1682 66.0164 25.2547C65.8718 25.3452 65.7544 25.4868 65.6723 25.6873C65.5902 25.8879 65.5472 26.2262 65.5472 26.71V35.2488H65.293L58.3954 26.706V33.235C58.3954 33.825 58.5283 34.2223 58.7942 34.4307C59.064 34.6352 59.369 34.7414 59.7131 34.7414H59.9556V35.0207H56.3464V34.7414C56.9056 34.7336 57.2966 34.6195 57.5195 34.3914C57.7385 34.1633 57.8519 33.7817 57.8519 33.235V25.9981L57.6329 25.7267C57.4178 25.4553 57.2262 25.2783 57.062 25.1878C56.8978 25.1052 56.6593 25.0541 56.3503 25.0462V24.767H59.9634L59.9595 24.7591Z" fill="var(--fill-0, white)" stroke="var(--stroke-0, white)" stroke-width="0.5"/>
<path id="Vector_14" d="M73.6531 32.0944H70.0753L69.6334 33.0934C69.4926 33.4238 69.4222 33.7031 69.4222 33.9155C69.4222 34.2026 69.5356 34.411 69.7663 34.5487C69.9032 34.6313 70.2356 34.6903 70.7674 34.7336V35.0128H67.3772V34.7336C67.7448 34.6746 68.0419 34.5251 68.2805 34.2773C68.5151 34.0295 68.8083 33.5143 69.1485 32.7316L72.7968 24.5507H72.9415L76.621 32.9597C76.969 33.7581 77.2584 34.2577 77.4851 34.4661C77.6572 34.6234 77.8957 34.7139 78.2085 34.7375V35.0167H73.2777V34.7375H73.4811C73.876 34.7375 74.1536 34.6785 74.3139 34.5684C74.4234 34.4858 74.4821 34.3717 74.4821 34.2183C74.4821 34.1279 74.4664 34.0374 74.4352 33.9391C74.4234 33.8958 74.3491 33.707 74.2123 33.3727L73.6609 32.0984L73.6531 32.0944ZM73.4146 31.5359L71.8935 28.0197L70.3255 31.5359H73.4146Z" fill="var(--fill-0, white)" stroke="var(--stroke-0, white)" stroke-width="0.5"/>
</g>
<g id="Group_3">
<path id="Vector_15" d="M0 48.2872V44.3344H0.535702V45.9587H2.57684V44.3344H3.11254V48.2872H2.57684V46.4347H0.535702V48.2872H0Z" fill="var(--fill-0, #282828)"/>
<path id="Vector_16" d="M5.66592 47.9017C5.51734 48.063 5.36093 48.181 5.18888 48.2557C5.02074 48.3383 4.84087 48.3737 4.65317 48.3737C4.35991 48.3737 4.13702 48.299 3.97279 48.1416C3.80856 47.9922 3.72254 47.7798 3.72254 47.5084C3.72254 47.237 3.80465 47.0404 3.96497 46.8948C4.12529 46.7454 4.36773 46.651 4.7001 46.6077C4.78221 46.5998 4.89561 46.5841 5.03638 46.5684C5.27881 46.5448 5.4274 46.5212 5.48214 46.4937C5.5408 46.474 5.57208 46.4425 5.59554 46.4111C5.61509 46.3757 5.62291 46.297 5.62291 46.1829C5.62291 46.0374 5.57208 45.9273 5.46259 45.8526C5.35311 45.7778 5.19279 45.7424 4.97772 45.7424C4.76266 45.7424 4.5867 45.7857 4.47721 45.8761C4.36382 45.9666 4.30516 46.0964 4.30516 46.2734H3.85158V46.2498C3.85158 45.9587 3.95324 45.7306 4.15658 45.5615C4.35991 45.3924 4.64144 45.3098 4.99336 45.3098C5.37657 45.3098 5.6581 45.3806 5.84188 45.5261C6.02175 45.6716 6.11169 45.8958 6.11169 46.2026V47.6461C6.11169 47.768 6.12342 47.8467 6.15079 47.8821C6.17816 47.9135 6.22509 47.9332 6.29547 47.9332C6.31111 47.9332 6.32675 47.9332 6.3463 47.9332C6.36586 47.9293 6.38932 47.9253 6.4206 47.9214V48.2911C6.36195 48.3068 6.3072 48.3186 6.2681 48.3265C6.22509 48.3304 6.18207 48.3383 6.14297 48.3383C5.98265 48.3383 5.86144 48.3029 5.78323 48.2321C5.70503 48.1613 5.66201 48.059 5.66201 47.9175V47.9017H5.66592ZM5.62291 46.828C5.49387 46.8988 5.2749 46.9538 4.96599 46.9932C4.85651 47.0089 4.77439 47.0168 4.71965 47.0246C4.54369 47.0522 4.41856 47.1072 4.34427 47.182C4.26997 47.2567 4.23087 47.3668 4.23087 47.5084C4.23087 47.65 4.27388 47.7601 4.36382 47.8388C4.45375 47.9135 4.58279 47.9528 4.74702 47.9528C5.0051 47.9528 5.21625 47.886 5.38048 47.7562C5.54471 47.6264 5.63073 47.4573 5.63073 47.2527V46.824L5.62291 46.828Z" fill="var(--fill-0, #282828)"/>
<path id="Vector_17" d="M6.86636 44.8811V44.3304H7.35123V44.8811H6.86636ZM6.86636 48.2872V45.412H7.35123V48.2872H6.86636Z" fill="var(--fill-0, #282828)"/>
<path id="Vector_18" d="M8.08245 48.2872V45.412H8.54777V45.9273C8.62206 45.7346 8.72764 45.589 8.85667 45.4907C8.98571 45.3924 9.14603 45.3491 9.33763 45.3491C9.37282 45.3491 9.39629 45.3491 9.41584 45.3491C9.43148 45.3491 9.44712 45.3491 9.46276 45.353V45.8644C9.46276 45.8644 9.4393 45.8644 9.41975 45.8644C9.40411 45.8644 9.38064 45.8644 9.34545 45.8644C9.08738 45.8644 8.89578 45.9351 8.75892 46.0728C8.62597 46.2144 8.55559 46.4189 8.55559 46.6864V48.2832H8.07463L8.08245 48.2872Z" fill="var(--fill-0, #282828)"/>
<path id="Vector_19" d="M12.2429 46.0099C12.0904 45.8486 11.9809 45.6913 11.9106 45.5497C11.8402 45.4042 11.805 45.2586 11.805 45.1092C11.805 44.8496 11.8949 44.6411 12.067 44.472C12.2429 44.3068 12.4658 44.2242 12.7434 44.2242C13.0211 44.2242 13.2596 44.299 13.4277 44.4524C13.5959 44.6018 13.6819 44.8103 13.6819 45.062C13.6819 45.2744 13.6232 45.4632 13.5059 45.6323C13.3847 45.8014 13.2009 45.9587 12.9468 46.1082L13.6819 47.0128C13.7249 46.9263 13.764 46.8319 13.7875 46.7257C13.8148 46.6156 13.8305 46.4937 13.8383 46.356H14.2997C14.2997 46.5487 14.2723 46.7296 14.2215 46.9066C14.1707 47.0797 14.0964 47.241 13.9986 47.3983L14.7377 48.2872H14.0807L13.6936 47.8113C13.5333 48 13.3573 48.1416 13.154 48.24C12.9546 48.3344 12.7317 48.3816 12.4893 48.3816C12.1413 48.3816 11.8597 48.2754 11.6408 48.059C11.4218 47.8427 11.3162 47.5713 11.3162 47.237C11.3162 46.9853 11.3866 46.765 11.5313 46.5723C11.6759 46.3796 11.9106 46.1947 12.2429 46.0099ZM12.5049 46.3363C12.2625 46.474 12.0865 46.6116 11.9849 46.7493C11.8793 46.887 11.8284 47.0364 11.8284 47.2095C11.8284 47.414 11.8949 47.5871 12.0318 47.7208C12.1686 47.8545 12.3446 47.9214 12.5597 47.9214C12.72 47.9214 12.8686 47.886 13.0172 47.8073C13.1618 47.7326 13.3026 47.6185 13.4316 47.4651L12.5049 46.3363ZM12.6926 45.8329C12.8803 45.7188 13.0172 45.5969 13.1032 45.475C13.1931 45.353 13.2361 45.2232 13.2361 45.0856C13.2361 44.9479 13.1931 44.8299 13.1071 44.7473C13.0211 44.6608 12.9077 44.6136 12.7708 44.6136C12.6183 44.6136 12.4932 44.6569 12.4072 44.7434C12.3211 44.826 12.2781 44.9401 12.2781 45.0895C12.2781 45.1957 12.3094 45.3098 12.3759 45.4278C12.4424 45.5458 12.5479 45.6834 12.6965 45.8329H12.6926Z" fill="var(--fill-0, #282828)"/>
<path id="Vector_20" d="M16.5012 46.9853H17.0173C17.0251 47.2685 17.119 47.4966 17.3028 47.6697C17.4866 47.8388 17.7329 47.9253 18.0418 47.9253C18.3507 47.9253 18.5892 47.8624 18.7613 47.7326C18.9333 47.6028 19.0233 47.4297 19.0233 47.2056C19.0233 46.9027 18.6948 46.6746 18.034 46.5133C17.9949 46.5055 17.9636 46.4976 17.944 46.4937C17.4083 46.3639 17.0564 46.2262 16.8844 46.0649C16.7123 45.9076 16.6263 45.6874 16.6263 45.4002C16.6263 45.0502 16.7514 44.7631 17.0095 44.5507C17.2637 44.3383 17.6039 44.2282 18.0301 44.2282C18.4563 44.2282 18.8082 44.3422 19.0546 44.5664C19.3048 44.7906 19.4299 45.1013 19.4338 45.4907H18.9255C18.906 45.2311 18.8199 45.0266 18.6557 44.885C18.4954 44.7434 18.2725 44.6726 17.9949 44.6726C17.7329 44.6726 17.5217 44.7316 17.3692 44.8457C17.2089 44.9637 17.1346 45.1171 17.1346 45.3058C17.1346 45.6126 17.4592 45.8408 18.1044 45.9902C18.2021 46.0138 18.2725 46.0335 18.3273 46.0453C18.3351 46.0453 18.3546 46.0531 18.382 46.0571C18.8082 46.1593 19.0858 46.2695 19.2266 46.3875C19.3283 46.4779 19.4143 46.588 19.469 46.7139C19.5238 46.8437 19.5512 46.9853 19.5512 47.1426C19.5512 47.5241 19.4182 47.827 19.1445 48.0551C18.8747 48.2793 18.5071 48.3934 18.0457 48.3934C17.5843 48.3934 17.1972 48.2714 16.9313 48.0276C16.6654 47.7877 16.5207 47.4376 16.5012 46.9853Z" fill="var(--fill-0, #282828)"/>
<path id="Vector_21" d="M20.1611 48.2872V44.3344H20.6421V46.706L21.9325 45.416H22.5386L21.4672 46.4661L22.519 48.2911H21.9794L21.1426 46.8004L20.6382 47.2882V48.2911H20.1572L20.1611 48.2872Z" fill="var(--fill-0, #282828)"/>
<path id="Vector_22" d="M22.9882 44.8811V44.3304H23.4692V44.8811H22.9882ZM22.9882 48.2872V45.412H23.4692V48.2872H22.9882Z" fill="var(--fill-0, #282828)"/>
<path id="Vector_23" d="M26.1008 48.2872V46.5212C26.1008 46.2341 26.0578 46.0413 25.9757 45.9351C25.8896 45.825 25.7411 45.7739 25.5299 45.7739C25.2601 45.7739 25.0528 45.8486 24.9043 46.002C24.7557 46.1554 24.6853 46.3717 24.6853 46.651V48.2872H24.2043V45.412H24.6657V45.829C24.7752 45.6638 24.9082 45.5379 25.0568 45.4592C25.2053 45.3766 25.3813 45.3373 25.5807 45.3373C25.7958 45.3373 25.9757 45.3688 26.1243 45.4356C26.2689 45.5025 26.3862 45.5969 26.4684 45.7306C26.5114 45.8014 26.5426 45.884 26.5622 45.9784C26.5857 46.0728 26.5935 46.2223 26.5935 46.4268V48.2872H26.1047H26.1008Z" fill="var(--fill-0, #282828)"/>
<path id="Vector_24" d="M28.8614 48.2872V44.3344H30.3082C30.5428 44.3344 30.7227 44.3462 30.8478 44.3658C30.969 44.3894 31.0785 44.4288 31.1763 44.4838C31.3366 44.5703 31.4578 44.7001 31.5438 44.8732C31.6338 45.0463 31.6729 45.2468 31.6729 45.4789C31.6729 45.6992 31.6338 45.8919 31.5438 46.061C31.4578 46.2301 31.3366 46.3599 31.1724 46.4622C31.0785 46.5212 30.969 46.5605 30.84 46.5841C30.711 46.6077 30.5037 46.6195 30.2104 46.6195H29.3971V48.2872H28.8614ZM29.3971 46.1397H30.2965C30.6054 46.1397 30.8243 46.0885 30.9456 45.9902C31.0707 45.8919 31.1333 45.7188 31.1333 45.475C31.1333 45.2311 31.0707 45.0699 30.9456 44.9715C30.8243 44.8693 30.621 44.8181 30.3317 44.8181H29.3932V46.1436L29.3971 46.1397Z" fill="var(--fill-0, #282828)"/>
<path id="Vector_25" d="M32.2516 48.2872V45.412H32.7208V45.9273C32.7951 45.7346 32.9007 45.589 33.0297 45.4907C33.1627 45.3924 33.323 45.3491 33.5146 45.3491C33.5498 45.3491 33.5732 45.3491 33.5928 45.3491C33.6084 45.3491 33.6241 45.3491 33.6397 45.353V45.8644C33.6397 45.8644 33.6123 45.8644 33.5967 45.8644C33.5811 45.8644 33.5576 45.8644 33.5224 45.8644C33.2682 45.8644 33.0727 45.9351 32.9359 46.0728C32.8029 46.2144 32.7365 46.4189 32.7365 46.6864V48.2832H32.2516V48.2872Z" fill="var(--fill-0, #282828)"/>
<path id="Vector_26" d="M33.9213 46.8437C33.9213 46.3639 34.0386 45.9863 34.2771 45.7188C34.5195 45.4514 34.8519 45.3176 35.2859 45.3176C35.72 45.3176 36.0602 45.4514 36.2987 45.7188C36.5372 45.9863 36.6584 46.3599 36.6584 46.8437C36.6584 47.3275 36.5411 47.7051 36.2987 47.9725C36.0602 48.24 35.7239 48.3737 35.2898 48.3737C34.8558 48.3737 34.5195 48.24 34.2771 47.9725C34.0347 47.7051 33.9173 47.3275 33.9173 46.8437H33.9213ZM34.41 46.8437C34.41 47.2016 34.4843 47.473 34.6368 47.6618C34.7893 47.8506 35.0044 47.945 35.2898 47.945C35.5753 47.945 35.7864 47.8506 35.935 47.6618C36.0875 47.473 36.1618 47.2016 36.1618 46.8437C36.1618 46.4858 36.0875 46.2183 35.935 46.0295C35.7864 45.8408 35.5714 45.7464 35.2898 45.7464C35.0083 45.7464 34.7893 45.8408 34.6368 46.0256C34.4843 46.2144 34.41 46.4858 34.41 46.8398V46.8437Z" fill="var(--fill-0, #282828)"/>
<path id="Vector_27" d="M39.7436 44.3304V48.2832H39.2783V47.9214C39.157 48.0708 39.0202 48.1849 38.8599 48.2596C38.7074 48.3344 38.5353 48.3737 38.3515 48.3737C37.9683 48.3737 37.6633 48.236 37.4365 47.9607C37.2098 47.6854 37.0964 47.3196 37.0964 46.8555C37.0964 46.3914 37.2098 46.0059 37.4365 45.7306C37.6633 45.4514 37.9683 45.3137 38.3476 45.3137C38.5431 45.3137 38.7191 45.3491 38.8755 45.4238C39.0319 45.4986 39.161 45.6087 39.2744 45.7582V44.3265H39.7397L39.7436 44.3304ZM39.29 46.828C39.29 46.474 39.2196 46.2026 39.0788 46.0217C38.9381 45.8408 38.723 45.7503 38.4415 45.7503C38.1599 45.7503 37.9605 45.8486 37.8158 46.0492C37.6712 46.2459 37.5969 46.5251 37.5969 46.8909C37.5969 47.2174 37.6712 47.4769 37.8237 47.6657C37.9762 47.8545 38.1834 47.9489 38.4493 47.9489C38.7152 47.9489 38.9263 47.8545 39.0749 47.6579C39.2196 47.4651 39.2939 47.1898 39.2939 46.8319L39.29 46.828Z" fill="var(--fill-0, #282828)"/>
<path id="Vector_28" d="M40.9636 45.412V47.1741C40.9636 47.4573 41.0105 47.6539 41.0965 47.7641C41.1825 47.8703 41.3311 47.9293 41.5423 47.9293C41.816 47.9293 42.0272 47.8467 42.1718 47.6815C42.3165 47.5202 42.3869 47.2763 42.3869 46.9578V45.412H42.8679V48.2872H42.4064V47.8585C42.3048 48.0236 42.1757 48.1495 42.0193 48.236C41.859 48.3186 41.6752 48.3619 41.4602 48.3619C41.2608 48.3619 41.0887 48.3265 40.944 48.2596C40.7954 48.1928 40.682 48.0944 40.6038 47.9725C40.5608 47.9017 40.5295 47.8191 40.51 47.7247C40.4904 47.6303 40.4787 47.4809 40.4787 47.2763V45.412H40.9636Z" fill="var(--fill-0, #282828)"/>
<path id="Vector_29" d="M45.4994 46.3678C45.4838 46.1711 45.4134 46.0177 45.2883 45.9116C45.1632 45.8054 44.9872 45.7503 44.7682 45.7503C44.5102 45.7503 44.3107 45.8447 44.1661 46.0335C44.0253 46.2223 43.9549 46.4897 43.9549 46.8398C43.9549 47.1898 44.0214 47.4612 44.1621 47.65C44.2951 47.8427 44.4906 47.9371 44.737 47.9371C44.9598 47.9371 45.1397 47.8781 45.2727 47.7601C45.4056 47.6421 45.4916 47.473 45.5229 47.2488H45.9804C45.9569 47.6028 45.8357 47.8781 45.6089 48.0787C45.3861 48.2793 45.0889 48.3737 44.7135 48.3737C44.3186 48.3737 44.0175 48.236 43.7907 47.9686C43.5639 47.6972 43.4544 47.3275 43.4544 46.8555C43.4544 46.3835 43.5678 45.9941 43.8063 45.7228C44.0409 45.4514 44.3577 45.3137 44.7643 45.3137C45.1241 45.3137 45.4134 45.4081 45.6285 45.5969C45.8435 45.7857 45.9609 46.0453 45.9765 46.3678H45.5034H45.4994Z" fill="var(--fill-0, #282828)"/>
<path id="Vector_30" d="M47.0362 47.5595C47.0362 47.6893 47.0557 47.7759 47.0909 47.8191C47.13 47.8624 47.1965 47.8821 47.2903 47.8821C47.3177 47.8821 47.3529 47.8821 47.3959 47.8821C47.435 47.8821 47.4898 47.8742 47.5523 47.8703V48.2793C47.4741 48.295 47.3998 48.3029 47.3373 48.3108C47.2747 48.3147 47.216 48.3226 47.1652 48.3226C46.9384 48.3226 46.7781 48.2793 46.6921 48.1888C46.5982 48.0984 46.5552 47.945 46.5552 47.7247V45.7936H46.1251V45.412H46.5552V44.6057H47.0362V45.412H47.5484V45.7936H47.0362V47.5595Z" fill="var(--fill-0, #282828)"/>
<path id="Vector_31" d="M47.8104 47.3511H48.2718C48.2874 47.5477 48.3578 47.6933 48.4829 47.7916C48.6042 47.8939 48.7762 47.941 49.003 47.941C49.2063 47.941 49.3706 47.8978 49.4918 47.8191C49.6091 47.7405 49.6677 47.6264 49.6677 47.4848C49.6677 47.3786 49.6365 47.2999 49.5778 47.241C49.5192 47.1859 49.4058 47.1387 49.2337 47.0954L48.698 46.9538C48.3969 46.883 48.1858 46.7847 48.0646 46.6628C47.9472 46.5448 47.8886 46.3678 47.8886 46.1475C47.8886 45.8919 47.9864 45.6913 48.174 45.5418C48.3656 45.3924 48.6276 45.3176 48.96 45.3176C49.2924 45.3176 49.57 45.3963 49.7694 45.5576C49.9688 45.7149 50.0705 45.9312 50.0705 46.1987V46.2105H49.6052C49.5935 46.0571 49.5309 45.9391 49.4214 45.8565C49.308 45.7739 49.1555 45.7346 48.96 45.7346C48.7645 45.7346 48.6159 45.766 48.5142 45.8368C48.4126 45.9037 48.3656 46.002 48.3656 46.1318C48.3656 46.2262 48.3969 46.297 48.4595 46.3521C48.5181 46.4071 48.6394 46.4504 48.8075 46.4897L49.2728 46.5959C49.6013 46.6746 49.8281 46.7768 49.9532 46.9027C50.0744 47.0246 50.1409 47.1977 50.1409 47.4258C50.1409 47.7247 50.0353 47.9568 49.8242 48.122C49.613 48.2872 49.3237 48.3698 48.9483 48.3698C48.5729 48.3698 48.2992 48.2793 48.1037 48.1062C47.9081 47.9332 47.8065 47.6775 47.8026 47.3471L47.8104 47.3511Z" fill="var(--fill-0, #282828)"/>
<path id="Vector_32" d="M52.2681 48.2872V44.3344H55.0717V44.8299H52.7959V46.0099H54.8996V46.4701H52.7959V47.7955H55.1186V48.2872H52.2681Z" fill="var(--fill-0, #282828)"/>
<path id="Vector_33" d="M57.6133 48.2872V46.5212C57.6133 46.2341 57.5703 46.0413 57.4843 45.9351C57.3983 45.825 57.2458 45.7739 57.0346 45.7739C56.7687 45.7739 56.5615 45.8486 56.4129 46.002C56.2643 46.1554 56.19 46.3717 56.19 46.651V48.2872H55.7091V45.412H56.1705V45.829C56.2799 45.6638 56.4129 45.5379 56.5615 45.4592C56.7101 45.3766 56.886 45.3373 57.0855 45.3373C57.3005 45.3373 57.4843 45.3688 57.629 45.4356C57.7776 45.5025 57.891 45.5969 57.9692 45.7306C58.0161 45.8014 58.0474 45.884 58.0669 45.9784C58.0826 46.0728 58.0982 46.2223 58.0982 46.4268V48.2872H57.6133Z" fill="var(--fill-0, #282828)"/>
<path id="Vector_34" d="M60.8706 47.9332C60.7572 48.0826 60.6281 48.1928 60.4756 48.2675C60.327 48.3422 60.155 48.3776 59.9634 48.3776C59.5763 48.3776 59.2674 48.236 59.0328 47.9529C58.7981 47.6736 58.6808 47.3 58.6808 46.8358C58.6808 46.3717 58.8021 46.0099 59.0328 45.7306C59.2674 45.4514 59.5802 45.3137 59.9673 45.3137C60.155 45.3137 60.3192 45.3491 60.4639 45.4199C60.6086 45.4907 60.7415 45.6087 60.8667 45.766V45.4042H61.3359V48.2164C61.3359 48.6608 61.2303 48.9833 61.0231 49.18C60.8119 49.3766 60.4756 49.475 60.0064 49.475C59.6271 49.475 59.3299 49.4002 59.1188 49.2508C58.9037 49.1013 58.7981 48.8968 58.7981 48.6333V48.6136H59.2674V48.6215C59.2674 48.7709 59.3299 48.8811 59.4551 48.9597C59.5802 49.0305 59.7679 49.0699 60.022 49.0699C60.327 49.0699 60.5421 49.0109 60.675 48.8968C60.808 48.7788 60.8745 48.59 60.8745 48.3226V47.9253L60.8706 47.9332ZM60.026 45.7503C59.7561 45.7503 59.5489 45.8447 59.4003 46.0335C59.2556 46.2262 59.1813 46.4937 59.1813 46.8476C59.1813 47.2016 59.2595 47.4612 59.4042 47.6539C59.5567 47.8467 59.764 47.9411 60.0299 47.9411C60.3192 47.9411 60.5343 47.8545 60.675 47.6775C60.8158 47.5045 60.8862 47.2331 60.8862 46.8673C60.8862 46.5015 60.8119 46.2183 60.6672 46.0295C60.5225 45.8447 60.3114 45.7503 60.026 45.7503Z" fill="var(--fill-0, #282828)"/>
<path id="Vector_35" d="M62.0749 44.8811V44.3304H62.5559V44.8811H62.0749ZM62.0749 48.2872V45.412H62.5559V48.2872H62.0749Z" fill="var(--fill-0, #282828)"/>
<path id="Vector_36" d="M65.1914 48.2872V46.5212C65.1914 46.2341 65.1484 46.0413 65.0623 45.9351C64.9763 45.825 64.8277 45.7739 64.6166 45.7739C64.3507 45.7739 64.1395 45.8486 63.9909 46.002C63.8423 46.1554 63.7681 46.3717 63.7681 46.651V48.2872H63.2871V45.412H63.7485V45.829C63.8541 45.6638 63.9909 45.5379 64.1395 45.4592C64.2881 45.3766 64.468 45.3373 64.6635 45.3373C64.8786 45.3373 65.0584 45.3688 65.207 45.4356C65.3517 45.5025 65.469 45.5969 65.5472 45.7306C65.5902 45.8014 65.6254 45.884 65.641 45.9784C65.6606 46.0728 65.6723 46.2223 65.6723 46.4268V48.2872H65.1875H65.1914Z" fill="var(--fill-0, #282828)"/>
<path id="Vector_37" d="M68.3196 47.3589H68.7927C68.7419 47.6736 68.605 47.9253 68.386 48.1102C68.1592 48.2911 67.8816 48.3816 67.5414 48.3816C67.1465 48.3816 66.8337 48.2478 66.603 47.9764C66.3723 47.709 66.2589 47.3432 66.2589 46.8791C66.2589 46.3875 66.3723 46.002 66.5991 45.7306C66.8259 45.4514 67.1387 45.3176 67.5414 45.3176C67.9442 45.3176 68.2726 45.4435 68.4955 45.6992C68.7223 45.9509 68.8357 46.3127 68.8357 46.7729C68.8357 46.8319 68.8357 46.8791 68.8357 46.9066C68.8357 46.9342 68.8279 46.9617 68.8279 46.9892H66.7633C66.7672 47.296 66.8415 47.5281 66.9862 47.6933C67.1308 47.8585 67.3303 47.941 67.5883 47.941C67.7839 47.941 67.9442 47.8939 68.0732 47.7877C68.1983 47.6854 68.2805 47.5438 68.3157 47.3589H68.3196ZM66.7633 46.588H68.3313C68.3313 46.3206 68.2609 46.1121 68.128 45.9666C67.995 45.8211 67.8034 45.7503 67.561 45.7503C67.3185 45.7503 67.1348 45.8211 66.9979 45.9627C66.865 46.1043 66.7828 46.3127 66.7633 46.588Z" fill="var(--fill-0, #282828)"/>
<path id="Vector_38" d="M71.3109 47.3589H71.784C71.7332 47.6736 71.5963 47.9253 71.3734 48.1102C71.1545 48.2911 70.869 48.3816 70.5327 48.3816C70.1378 48.3816 69.825 48.2478 69.5943 47.9764C69.3636 47.709 69.2502 47.3432 69.2502 46.8791C69.2502 46.3875 69.3636 46.002 69.5943 45.7306C69.8211 45.4514 70.1339 45.3176 70.5327 45.3176C70.9316 45.3176 71.26 45.4435 71.4868 45.6992C71.7136 45.9509 71.8231 46.3127 71.8231 46.7729V46.9066C71.8231 46.9342 71.8231 46.9617 71.8153 46.9892H69.7507C69.7585 47.296 69.8328 47.5281 69.9775 47.6933C70.1222 47.8585 70.3216 47.941 70.5797 47.941C70.7752 47.941 70.9355 47.8939 71.0606 47.7877C71.1897 47.6854 71.2718 47.5438 71.307 47.3589H71.3109ZM69.7507 46.588H71.3187C71.3187 46.3206 71.2483 46.1121 71.1154 45.9666C70.9785 45.8211 70.7947 45.7503 70.5484 45.7503C70.302 45.7503 70.1222 45.8211 69.9892 45.9627C69.8524 46.1043 69.7742 46.3127 69.7507 46.588Z" fill="var(--fill-0, #282828)"/>
<path id="Vector_39" d="M72.3745 48.2872V45.412H72.8398V45.9273C72.918 45.7346 73.0236 45.589 73.1526 45.4907C73.2816 45.3924 73.442 45.3491 73.6297 45.3491C73.6648 45.3491 73.6922 45.3491 73.7079 45.3491C73.7274 45.3491 73.7391 45.3491 73.7548 45.353V45.8644C73.7548 45.8644 73.7313 45.8644 73.7118 45.8644C73.6961 45.8644 73.6766 45.8644 73.6414 45.8644C73.3833 45.8644 73.1917 45.9351 73.0549 46.0728C72.918 46.2144 72.8515 46.4189 72.8515 46.6864V48.2832H72.3706L72.3745 48.2872Z" fill="var(--fill-0, #282828)"/>
<path id="Vector_40" d="M74.1888 44.8811V44.3304H74.6698V44.8811H74.1888ZM74.1888 48.2872V45.412H74.6698V48.2872H74.1888Z" fill="var(--fill-0, #282828)"/>
<path id="Vector_41" d="M77.3053 48.2872V46.5212C77.3053 46.2341 77.2623 46.0413 77.1801 45.9351C77.0941 45.825 76.9455 45.7739 76.7344 45.7739C76.4685 45.7739 76.2573 45.8486 76.1087 46.002C75.9601 46.1554 75.8859 46.3717 75.8859 46.651V48.2872H75.4049V45.412H75.8663V45.829C75.9797 45.6638 76.1048 45.5379 76.2573 45.4592C76.4098 45.3766 76.5819 45.3373 76.7813 45.3373C76.9964 45.3373 77.1762 45.3688 77.3248 45.4356C77.4734 45.5025 77.5868 45.5969 77.665 45.7306C77.708 45.8014 77.7393 45.884 77.7589 45.9784C77.7784 46.0728 77.7862 46.2223 77.7862 46.4268V48.2872H77.3014H77.3053Z" fill="var(--fill-0, #282828)"/>
<path id="Vector_42" d="M80.5664 47.9332C80.453 48.0826 80.3201 48.1928 80.1715 48.2675C80.0229 48.3422 79.8508 48.3776 79.6592 48.3776C79.276 48.3776 78.9632 48.236 78.7286 47.9529C78.494 47.6736 78.3767 47.3 78.3767 46.8358C78.3767 46.3717 78.494 46.0099 78.7286 45.7306C78.9671 45.4514 79.276 45.3137 79.6631 45.3137C79.8508 45.3137 80.019 45.3491 80.1597 45.4199C80.3044 45.4907 80.4374 45.6087 80.5625 45.766V45.4042H81.0317V48.2164C81.0317 48.6608 80.9301 48.9833 80.7189 49.18C80.5078 49.3766 80.1676 49.475 79.7022 49.475C79.3269 49.475 79.0297 49.4002 78.8146 49.2508C78.5996 49.1013 78.494 48.8968 78.494 48.6333V48.6136H78.9593V48.6215C78.9593 48.7709 79.0258 48.8811 79.1509 48.9597C79.276 49.0305 79.4637 49.0699 79.7179 49.0699C80.019 49.0699 80.2379 49.0109 80.3709 48.8968C80.5038 48.7788 80.5703 48.59 80.5703 48.3226V47.9253L80.5664 47.9332ZM79.7218 45.7503C79.452 45.7503 79.2447 45.8447 79.0962 46.0335C78.9515 46.2262 78.8772 46.4937 78.8772 46.8476C78.8772 47.2016 78.9515 47.4612 79.1001 47.6539C79.2487 47.8467 79.4559 47.9411 79.7218 47.9411C80.0151 47.9411 80.2301 47.8545 80.3709 47.6775C80.5117 47.5045 80.5781 47.2331 80.5781 46.8673C80.5781 46.5015 80.5078 46.2183 80.367 46.0295C80.2184 45.8447 80.0033 45.7503 79.7218 45.7503Z" fill="var(--fill-0, #282828)"/>
</g>
</g>
<defs>
<clipPath id="clip0_4105_587">
<rect width="81.0278" height="49.4868" fill="white"/>
</clipPath>
</defs>
</svg>
