<svg width="82" height="50" viewBox="0 0 82 50" fill="none" xmlns="http://www.w3.org/2000/svg">
<g clip-path="url(#clip0_1_825)">
<path d="M80.7658 21.2036H0.261963V38.9971H80.7658V21.2036Z" fill="#282828" stroke="#282828"/>
<path d="M12.9312 12.0591L17.8072 0.196777H25.0568V0.68842H24.4781C23.9502 0.68842 23.5279 0.778882 23.2151 0.967673C22.9922 1.0896 22.8201 1.29806 22.6872 1.59304C22.5894 1.80543 22.5425 2.36 22.5425 3.25283V15.1309C22.5425 16.0473 22.5894 16.6216 22.6872 16.8497C22.7849 17.0778 22.9804 17.2784 23.2776 17.4515C23.5787 17.6245 23.9736 17.7111 24.4781 17.7111H25.0568V18.2027H15.7309V17.7111H16.3057C16.8336 17.7111 17.2559 17.6206 17.5726 17.4318C17.7916 17.3099 17.9675 17.0975 18.0966 16.7946C18.1943 16.5822 18.2452 16.0277 18.2452 15.127V1.79757L11.3827 18.2027H11.066L4.08622 1.91556V14.5842C4.08622 15.4692 4.10968 16.008 4.15269 16.2125C4.27 16.657 4.51634 17.0149 4.89954 17.2902C5.28275 17.5695 5.88492 17.7071 6.70216 17.7071V18.1988H0.574829V17.7071H0.76252C1.16136 17.715 1.53284 17.6521 1.87694 17.5144C2.22104 17.3767 2.47911 17.1919 2.65898 16.9638C2.83494 16.7317 2.9718 16.4092 3.06956 15.9923C3.0852 15.8939 3.09693 15.4416 3.09693 14.6353V3.25283C3.09693 2.34034 3.05001 1.77003 2.95225 1.54584C2.8584 1.32166 2.65898 1.12107 2.35789 0.948007C2.05681 0.774949 1.65796 0.68842 1.15354 0.68842H0.58265V0.196777H7.89478L12.939 12.0591H12.9312Z" fill="#282828" stroke="#282828"/>
<path d="M33.6124 14.5095H29.1L28.5369 15.7721C28.3609 16.1968 28.271 16.5508 28.271 16.8261C28.271 17.1959 28.4196 17.4672 28.7089 17.6403C28.8771 17.7426 29.2994 17.8212 29.972 17.8724V18.2027H25.6902V17.8724C26.1517 17.8016 26.5309 17.6088 26.8281 17.2863C27.1292 16.9677 27.4929 16.307 27.9308 15.3079L32.5332 4.97559H32.713L37.3584 15.5951C37.8002 16.6177 38.1678 17.2588 38.4493 17.5223C38.6683 17.7229 38.9694 17.8409 39.3643 17.8724V18.2027H33.1353V17.8724H33.3895C33.89 17.8724 34.2419 17.8016 34.4453 17.66C34.5821 17.5577 34.6525 17.4082 34.6525 17.2155C34.6525 17.1015 34.6329 16.9795 34.5938 16.8576C34.5821 16.7986 34.4883 16.5548 34.3084 16.13L33.6085 14.5095H33.6124ZM33.3074 13.8016L31.3914 9.3689L29.4167 13.8016H33.3074Z" fill="#282828" stroke="#282828"/>
<path d="M51.9083 13.6523L51.4196 18.2029H39.9665V17.8725H40.3927C40.7681 17.8725 41.0692 17.8057 41.296 17.668C41.4602 17.5775 41.5892 17.4242 41.6753 17.2039C41.7456 17.0505 41.7769 16.6415 41.7769 15.9807V7.45364C41.7769 6.78108 41.7456 6.36416 41.6753 6.19504C41.6049 6.02591 41.4641 5.88039 41.253 5.75453C41.0418 5.62867 40.7564 5.56574 40.3927 5.56574H39.9665V5.23535H46.8446V5.56574H46.2854C45.91 5.56574 45.609 5.6326 45.3822 5.76633C45.214 5.85679 45.085 6.01411 44.9911 6.23437C44.9208 6.38776 44.8895 6.79681 44.8895 7.45364V15.7172C44.8895 16.3819 44.9286 16.8027 45.0029 16.9836C45.0772 17.1646 45.2297 17.3022 45.4486 17.3927C45.609 17.4517 45.9922 17.4792 46.5982 17.4792H47.6696C48.3539 17.4792 48.9248 17.3612 49.3784 17.1174C49.8359 16.8735 50.2308 16.492 50.5632 15.9689C50.8917 15.4458 51.2084 14.6749 51.5056 13.6523H51.9122H51.9083Z" fill="#282828" stroke="#282828"/>
<path d="M52.8272 18.2029V17.8725H53.2573C53.6288 17.8725 53.9143 17.8135 54.1137 17.6955C54.317 17.5736 54.4617 17.4123 54.5555 17.2078C54.6142 17.0701 54.6416 16.665 54.6416 15.9846V7.45755C54.6416 6.78498 54.6025 6.36807 54.536 6.19894C54.4617 6.02982 54.3248 5.88429 54.1137 5.75843C53.9025 5.63257 53.6132 5.56964 53.2573 5.56964H52.8272V5.23926H58.5948C60.1315 5.23926 61.3672 5.44771 62.3056 5.86856C63.4513 6.3838 64.3194 7.1665 64.9098 8.21271C65.5003 9.25499 65.7975 10.4389 65.7975 11.7604C65.7975 12.6729 65.6528 13.5107 65.3595 14.2776C65.0701 15.0485 64.6909 15.6817 64.2294 16.1813C63.768 16.6808 63.2362 17.0859 62.6302 17.3848C62.028 17.6876 61.285 17.9236 60.4131 18.0888C60.0299 18.1675 59.4199 18.2029 58.5909 18.2029H52.8233H52.8272ZM57.7424 5.96296V16.0751C57.7424 16.61 57.7697 16.9403 57.8206 17.0583C57.8675 17.1803 57.9535 17.2707 58.0747 17.3337C58.2468 17.4281 58.4931 17.4753 58.8138 17.4753C59.8695 17.4753 60.6751 17.1134 61.2342 16.3858C61.9889 15.4064 62.3682 13.8804 62.3682 11.8155C62.3682 10.1557 62.1101 8.82628 61.594 7.8312C61.1834 7.05637 60.6555 6.52539 60.0103 6.24614C59.5528 6.04948 58.802 5.95509 57.7424 5.95902V5.96296Z" fill="#282828" stroke="#282828"/>
<path d="M80.4569 5.23926V5.56964C80.0346 5.62471 79.7062 5.75057 79.4794 5.94329C79.1626 6.21468 78.6621 6.94624 77.9817 8.14192L75.1859 12.8538V15.9885C75.1859 16.665 75.2211 17.0898 75.2915 17.255C75.3619 17.4163 75.4987 17.5657 75.7021 17.6916C75.9054 17.8174 76.1791 17.8804 76.5232 17.8804H77.2466V18.2108H70.0127V17.8804H70.6853C71.0645 17.8804 71.3656 17.8135 71.5885 17.6758C71.7527 17.5854 71.8818 17.432 71.9756 17.2117C72.046 17.0583 72.0812 16.6493 72.0812 15.9885V13.3927L69.043 7.8194C68.4408 6.71812 68.0185 6.07308 67.7721 5.87643C67.5258 5.67977 67.1973 5.58144 66.7828 5.57357V5.24319H72.961V5.57357H72.6834C72.308 5.57357 72.0499 5.62864 71.8974 5.73877C71.7488 5.84889 71.6745 5.96689 71.6745 6.08882C71.6745 6.32087 71.9248 6.90691 72.4292 7.843L74.7754 12.1223L77.098 8.22451C77.6689 7.25696 77.9622 6.61586 77.9622 6.29727C77.9622 6.12421 77.8801 5.97869 77.7158 5.86069C77.4969 5.69944 77.1019 5.60111 76.5271 5.56964V5.23926H80.453H80.4569Z" fill="#282828" stroke="#282828"/>
<path d="M8.14501 34.7337V35.013H2.82318V34.7337H3.15946C3.45664 34.7337 3.69516 34.6787 3.87503 34.5725C4.00798 34.5017 4.10574 34.3837 4.17612 34.2106C4.23477 34.0887 4.25824 33.7662 4.25824 33.2549V26.5174C4.25824 25.9943 4.23086 25.6639 4.17612 25.5302C4.12138 25.4004 4.01189 25.2863 3.84375 25.188C3.67561 25.0897 3.44882 25.0385 3.16337 25.0385H2.82709V24.7593H8.15283V25.0385H7.81655C7.52328 25.0385 7.28867 25.0936 7.10488 25.1959C6.97585 25.2667 6.87418 25.3886 6.79989 25.5616C6.74514 25.6836 6.71777 26.0021 6.71777 26.5174V33.2549C6.71777 33.778 6.74905 34.1084 6.8038 34.2421C6.85854 34.3719 6.97194 34.4899 7.14008 34.5882C7.30822 34.6865 7.5311 34.7377 7.81655 34.7377H8.15283L8.14501 34.7337Z" fill="white" stroke="white" stroke-width="0.5"/>
<path d="M18.2217 24.7593V27.5361H17.9479C17.7876 26.8989 17.6117 26.4387 17.4162 26.1595C17.2206 25.8802 16.9548 25.656 16.6185 25.4908C16.4269 25.4004 16.0945 25.3532 15.6214 25.3532H14.8628V33.2588C14.8628 33.7819 14.8901 34.1123 14.9488 34.246C15.0075 34.3758 15.1209 34.4938 15.289 34.5921C15.4571 34.6905 15.6878 34.7416 15.9772 34.7416H16.3174V35.0208H10.9799V34.7416H11.3123C11.6095 34.7416 11.8441 34.6865 12.0239 34.5803C12.153 34.5095 12.2547 34.3915 12.3289 34.2185C12.3876 34.0966 12.4111 33.774 12.4111 33.2627V25.3571H11.6681C10.9799 25.3571 10.4794 25.5066 10.1705 25.7976C9.73255 26.2067 9.45884 26.7888 9.34153 27.5439H9.0639V24.7671H18.2256L18.2217 24.7593Z" fill="white" stroke="white" stroke-width="0.5"/>
<path d="M24.0323 32.0945H20.4544L20.0086 33.0936C19.8679 33.4239 19.7975 33.7032 19.7975 33.9156C19.7975 34.2027 19.9109 34.4112 20.1455 34.5488C20.2824 34.6314 20.6147 34.6904 21.1426 34.7337V35.0129H17.7524V34.7337C18.12 34.6747 18.4211 34.5252 18.6557 34.2774C18.8903 34.0296 19.1797 33.5144 19.5277 32.7317L23.1759 24.5508H23.3167L26.9962 32.9598C27.3481 33.7583 27.6336 34.2578 27.8604 34.4662C28.0285 34.6236 28.271 34.714 28.5799 34.7376V35.0169H23.6491V34.7376H23.8524C24.2473 34.7376 24.525 34.6786 24.6853 34.5685C24.7987 34.4859 24.8495 34.3718 24.8495 34.2184C24.8495 34.128 24.8378 34.0375 24.8065 33.9392C24.7987 33.8959 24.7205 33.7071 24.5797 33.3728L24.0284 32.0985L24.0323 32.0945ZM23.7898 31.536L22.2688 28.0198L20.7008 31.536H23.7898Z" fill="white" stroke="white" stroke-width="0.5"/>
<path d="M38.4805 31.4142L38.0973 35.013H29.0491V34.7337H29.3854C29.6825 34.7337 29.9171 34.6787 30.1009 34.5725C30.2339 34.5017 30.3316 34.3837 30.402 34.2106C30.4568 34.0887 30.4841 33.7662 30.4841 33.2549V26.5174C30.4841 25.9943 30.4568 25.6639 30.402 25.5302C30.3473 25.4004 30.2378 25.2863 30.0657 25.188C29.8976 25.0897 29.6708 25.0385 29.3854 25.0385H29.0491V24.7593H34.4882V25.0385H34.0424C33.7492 25.0385 33.5067 25.0936 33.3269 25.1959C33.1978 25.2667 33.0962 25.3886 33.018 25.5616C32.9593 25.6836 32.9358 26.0021 32.9358 26.5174V33.0464C32.9358 33.5695 32.9671 33.9038 33.0258 34.0494C33.0844 34.1909 33.2017 34.2971 33.3777 34.3719C33.5028 34.4151 33.8039 34.4387 34.2849 34.4387H35.1373C35.6808 34.4387 36.1266 34.3443 36.4863 34.1516C36.8461 33.9589 37.1589 33.656 37.4209 33.2431C37.6829 32.8301 37.9331 32.2204 38.1677 31.4142H38.4766H38.4805Z" fill="white" stroke="white" stroke-width="0.5"/>
<path d="M44.6548 34.7337V35.013H39.333V34.7337H39.6732C39.9665 34.7337 40.2089 34.6787 40.3888 34.5725C40.5178 34.5017 40.6195 34.3837 40.6899 34.2106C40.7446 34.0887 40.772 33.7662 40.772 33.2549V26.5174C40.772 25.9943 40.7446 25.6639 40.6899 25.5302C40.6351 25.4004 40.5217 25.2863 40.3536 25.188C40.1854 25.0897 39.9547 25.0385 39.6732 25.0385H39.333V24.7593H44.6548V25.0385H44.3186C44.0253 25.0385 43.7868 25.0936 43.6108 25.1959C43.4818 25.2667 43.3762 25.3886 43.3058 25.5616C43.2511 25.6836 43.2198 26.0021 43.2198 26.5174V33.2549C43.2198 33.778 43.2511 34.1084 43.3058 34.2421C43.3645 34.3719 43.4779 34.4899 43.6421 34.5882C43.8102 34.6865 44.0331 34.7377 44.3186 34.7377H44.6548V34.7337Z" fill="white" stroke="white" stroke-width="0.5"/>
<path d="M51.4156 32.0945H47.8378L47.392 33.0936C47.2512 33.4239 47.1809 33.7032 47.1809 33.9156C47.1809 34.2027 47.2942 34.4112 47.5289 34.5488C47.6657 34.6314 47.9981 34.6904 48.5299 34.7337V35.0129H45.1397V34.7337C45.5073 34.6747 45.8044 34.5252 46.043 34.2774C46.2776 34.0296 46.5669 33.5144 46.911 32.7317L50.5593 24.5508H50.7001L54.3757 32.9598C54.7276 33.7583 55.017 34.2578 55.2437 34.4662C55.4119 34.6236 55.6543 34.714 55.9632 34.7376V35.0169H51.0285V34.7376H51.2319C51.6268 34.7376 51.9044 34.6786 52.0686 34.5685C52.1781 34.4859 52.2329 34.3718 52.2329 34.2184C52.2329 34.128 52.2172 34.0375 52.1859 33.9392C52.1781 33.8959 52.1038 33.7071 51.9592 33.3728L51.4078 32.0985L51.4156 32.0945ZM51.1732 31.536L49.656 28.0198L48.088 31.536H51.1732Z" fill="white" stroke="white" stroke-width="0.5"/>
<path d="M59.9595 24.7593L64.9959 31.1192V26.7062C64.9959 26.0926 64.9059 25.6796 64.73 25.4633C64.4914 25.1723 64.0887 25.0346 63.5256 25.0425V24.7632H66.8884V25.0425C66.4583 25.0975 66.165 25.1683 66.0164 25.2549C65.8718 25.3453 65.7544 25.4869 65.6723 25.6875C65.5902 25.8881 65.5472 26.2263 65.5472 26.7101V35.249H65.293L58.3954 26.7062V33.2352C58.3954 33.8252 58.5283 34.2224 58.7942 34.4309C59.064 34.6354 59.369 34.7416 59.7131 34.7416H59.9556V35.0208H56.3464V34.7416C56.9056 34.7337 57.2966 34.6197 57.5195 34.3915C57.7385 34.1634 57.8519 33.7819 57.8519 33.2352V25.9982L57.6329 25.7268C57.4178 25.4554 57.2262 25.2785 57.062 25.188C56.8978 25.1054 56.6593 25.0543 56.3503 25.0464V24.7671H59.9634L59.9595 24.7593Z" fill="white" stroke="white" stroke-width="0.5"/>
<path d="M73.6531 32.0945H70.0753L69.6334 33.0936C69.4926 33.4239 69.4222 33.7032 69.4222 33.9156C69.4222 34.2027 69.5356 34.4112 69.7663 34.5488C69.9032 34.6314 70.2356 34.6904 70.7674 34.7337V35.0129H67.3772V34.7337C67.7448 34.6747 68.0419 34.5252 68.2805 34.2774C68.5151 34.0296 68.8083 33.5144 69.1485 32.7317L72.7968 24.5508H72.9415L76.621 32.9598C76.969 33.7583 77.2584 34.2578 77.4851 34.4662C77.6572 34.6236 77.8957 34.714 78.2085 34.7376V35.0169H73.2777V34.7376H73.4811C73.876 34.7376 74.1536 34.6786 74.3139 34.5685C74.4234 34.4859 74.4821 34.3718 74.4821 34.2184C74.4821 34.128 74.4664 34.0375 74.4352 33.9392C74.4234 33.8959 74.3491 33.7071 74.2123 33.3728L73.6609 32.0985L73.6531 32.0945ZM73.4146 31.536L71.8935 28.0198L70.3255 31.536H73.4146Z" fill="white" stroke="white" stroke-width="0.5"/>
<path d="M0 48.2873V44.3345H0.535702V45.9589H2.57684V44.3345H3.11254V48.2873H2.57684V46.4348H0.535702V48.2873H0Z" fill="#282828"/>
<path d="M5.66592 47.9015C5.51733 48.0628 5.36092 48.1808 5.18887 48.2555C5.02073 48.3381 4.84086 48.3735 4.65317 48.3735C4.3599 48.3735 4.13702 48.2988 3.97279 48.1414C3.80856 47.992 3.72253 47.7796 3.72253 47.5082C3.72253 47.2368 3.80465 47.0402 3.96497 46.8946C4.12529 46.7452 4.36772 46.6508 4.70009 46.6075C4.78221 46.5996 4.8956 46.5839 5.03637 46.5682C5.27881 46.5446 5.42739 46.521 5.48214 46.4934C5.54079 46.4738 5.57207 46.4423 5.59553 46.4109C5.61509 46.3755 5.62291 46.2968 5.62291 46.1827C5.62291 46.0372 5.57207 45.9271 5.46259 45.8523C5.3531 45.7776 5.19278 45.7422 4.97772 45.7422C4.76266 45.7422 4.58669 45.7855 4.47721 45.8759C4.36381 45.9664 4.30516 46.0962 4.30516 46.2732H3.85157V46.2496C3.85157 45.9585 3.95324 45.7304 4.15657 45.5613C4.3599 45.3922 4.64144 45.3096 4.99336 45.3096C5.37656 45.3096 5.6581 45.3804 5.84188 45.5259C6.02175 45.6714 6.11169 45.8956 6.11169 46.2024V47.6459C6.11169 47.7678 6.12342 47.8464 6.15079 47.8818C6.17816 47.9133 6.22508 47.933 6.29547 47.933C6.31111 47.933 6.32675 47.933 6.3463 47.933C6.36585 47.929 6.38931 47.9251 6.42059 47.9212V48.2909C6.36194 48.3066 6.3072 48.3184 6.26809 48.3263C6.22508 48.3302 6.18207 48.3381 6.14297 48.3381C5.98265 48.3381 5.86143 48.3027 5.78323 48.2319C5.70502 48.1611 5.66201 48.0588 5.66201 47.9172V47.9015H5.66592ZM5.62291 46.8278C5.49387 46.8986 5.2749 46.9536 4.96599 46.993C4.8565 47.0087 4.77439 47.0166 4.71964 47.0244C4.54368 47.052 4.41855 47.107 4.34426 47.1817C4.26997 47.2565 4.23086 47.3666 4.23086 47.5082C4.23086 47.6498 4.27388 47.7599 4.36381 47.8386C4.45375 47.9133 4.58278 47.9526 4.74701 47.9526C5.00509 47.9526 5.21624 47.8858 5.38047 47.756C5.5447 47.6262 5.63073 47.4571 5.63073 47.2525V46.8238L5.62291 46.8278Z" fill="#282828"/>
<path d="M6.86639 44.8807V44.3301H7.35126V44.8807H6.86639ZM6.86639 48.2868V45.4117H7.35126V48.2868H6.86639Z" fill="#282828"/>
<path d="M8.08247 48.2872V45.412H8.54778V45.9273C8.62208 45.7346 8.72765 45.589 8.85669 45.4907C8.98573 45.3924 9.14605 45.3491 9.33765 45.3491C9.37284 45.3491 9.3963 45.3491 9.41586 45.3491C9.4315 45.3491 9.44714 45.3491 9.46278 45.3531V45.8644C9.46278 45.8644 9.43932 45.8644 9.41977 45.8644C9.40412 45.8644 9.38066 45.8644 9.34547 45.8644C9.0874 45.8644 8.89579 45.9352 8.75894 46.0728C8.62599 46.2144 8.5556 46.4189 8.5556 46.6864V48.2832H8.07465L8.08247 48.2872Z" fill="#282828"/>
<path d="M12.2429 46.0098C12.0904 45.8485 11.981 45.6912 11.9106 45.5496C11.8402 45.4041 11.805 45.2585 11.805 45.1091C11.805 44.8495 11.8949 44.641 12.067 44.4719C12.2429 44.3067 12.4658 44.2241 12.7435 44.2241C13.0211 44.2241 13.2596 44.2988 13.4277 44.4522C13.5959 44.6017 13.6819 44.8102 13.6819 45.0619C13.6819 45.2743 13.6233 45.4631 13.506 45.6322C13.3847 45.8013 13.201 45.9586 12.9468 46.1081L13.6819 47.0127C13.7249 46.9262 13.764 46.8318 13.7875 46.7256C13.8149 46.6155 13.8305 46.4935 13.8383 46.3559H14.2997C14.2997 46.5486 14.2724 46.7295 14.2215 46.9065C14.1707 47.0796 14.0964 47.2408 13.9986 47.3982L14.7377 48.2871H14.0808L13.6936 47.8111C13.5333 47.9999 13.3574 48.1415 13.154 48.2399C12.9546 48.3343 12.7317 48.3815 12.4893 48.3815C12.1413 48.3815 11.8597 48.2753 11.6408 48.0589C11.4218 47.8426 11.3162 47.5712 11.3162 47.2369C11.3162 46.9852 11.3866 46.7649 11.5313 46.5722C11.676 46.3795 11.9106 46.1946 12.2429 46.0098ZM12.5049 46.3362C12.2625 46.4739 12.0865 46.6115 11.9849 46.7492C11.8793 46.8869 11.8285 47.0363 11.8285 47.2094C11.8285 47.4139 11.8949 47.587 12.0318 47.7207C12.1687 47.8544 12.3446 47.9213 12.5597 47.9213C12.72 47.9213 12.8686 47.8859 13.0172 47.8072C13.1619 47.7325 13.3026 47.6184 13.4317 47.465L12.5049 46.3362ZM12.6926 45.8328C12.8803 45.7187 13.0172 45.5968 13.1032 45.4749C13.1931 45.3529 13.2361 45.2231 13.2361 45.0855C13.2361 44.9478 13.1931 44.8298 13.1071 44.7472C13.0211 44.6607 12.9077 44.6135 12.7708 44.6135C12.6183 44.6135 12.4932 44.6568 12.4072 44.7433C12.3212 44.8259 12.2781 44.94 12.2781 45.0894C12.2781 45.1956 12.3094 45.3097 12.3759 45.4277C12.4424 45.5457 12.5479 45.6833 12.6965 45.8328H12.6926Z" fill="#282828"/>
<path d="M16.5012 46.9852H17.0173C17.0251 47.2683 17.119 47.4965 17.3028 47.6695C17.4865 47.8387 17.7329 47.9252 18.0418 47.9252C18.3507 47.9252 18.5892 47.8623 18.7613 47.7325C18.9333 47.6027 19.0233 47.4296 19.0233 47.2054C19.0233 46.9026 18.6948 46.6744 18.034 46.5132C17.9949 46.5053 17.9636 46.4975 17.944 46.4935C17.4083 46.3637 17.0564 46.2261 16.8844 46.0648C16.7123 45.9075 16.6263 45.6872 16.6263 45.4001C16.6263 45.0501 16.7514 44.7629 17.0095 44.5505C17.2637 44.3382 17.6038 44.228 18.0301 44.228C18.4563 44.228 18.8082 44.3421 19.0545 44.5663C19.3048 44.7905 19.4299 45.1012 19.4338 45.4906H18.9255C18.906 45.231 18.8199 45.0265 18.6557 44.8849C18.4954 44.7433 18.2725 44.6725 17.9949 44.6725C17.7329 44.6725 17.5217 44.7315 17.3692 44.8455C17.2089 44.9635 17.1346 45.1169 17.1346 45.3057C17.1346 45.6125 17.4592 45.8406 18.1044 45.9901C18.2021 46.0137 18.2725 46.0333 18.3272 46.0451C18.3351 46.0451 18.3546 46.053 18.382 46.0569C18.8082 46.1592 19.0858 46.2693 19.2266 46.3873C19.3283 46.4778 19.4143 46.5879 19.469 46.7138C19.5238 46.8436 19.5511 46.9852 19.5511 47.1425C19.5511 47.524 19.4182 47.8269 19.1445 48.055C18.8747 48.2792 18.5071 48.3932 18.0457 48.3932C17.5843 48.3932 17.1972 48.2713 16.9313 48.0274C16.6654 47.7875 16.5207 47.4375 16.5012 46.9852Z" fill="#282828"/>
<path d="M20.1611 48.2873V44.3345H20.6421V46.7062L21.9325 45.4161H22.5386L21.4672 46.4662L22.519 48.2912H21.9794L21.1426 46.8006L20.6382 47.2883V48.2912H20.1572L20.1611 48.2873Z" fill="#282828"/>
<path d="M22.9882 44.8807V44.3301H23.4692V44.8807H22.9882ZM22.9882 48.2868V45.4117H23.4692V48.2868H22.9882Z" fill="#282828"/>
<path d="M26.1008 48.2873V46.5213C26.1008 46.2342 26.0578 46.0414 25.9757 45.9352C25.8897 45.8251 25.7411 45.774 25.5299 45.774C25.2601 45.774 25.0529 45.8487 24.9043 46.0021C24.7557 46.1555 24.6853 46.3718 24.6853 46.6511V48.2873H24.2043V45.4121H24.6658V45.829C24.7752 45.6639 24.9082 45.538 25.0568 45.4593C25.2054 45.3767 25.3813 45.3374 25.5807 45.3374C25.7958 45.3374 25.9757 45.3689 26.1243 45.4357C26.2689 45.5026 26.3863 45.597 26.4684 45.7307C26.5114 45.8015 26.5427 45.8841 26.5622 45.9785C26.5857 46.0729 26.5935 46.2224 26.5935 46.4269V48.2873H26.1047H26.1008Z" fill="#282828"/>
<path d="M28.8614 48.2873V44.3345H30.3082C30.5428 44.3345 30.7227 44.3463 30.8478 44.3659C30.969 44.3895 31.0785 44.4289 31.1762 44.4839C31.3366 44.5705 31.4578 44.7003 31.5438 44.8733C31.6337 45.0464 31.6728 45.247 31.6728 45.479C31.6728 45.6993 31.6337 45.892 31.5438 46.0611C31.4578 46.2302 31.3366 46.36 31.1723 46.4623C31.0785 46.5213 30.969 46.5606 30.84 46.5842C30.7109 46.6078 30.5037 46.6196 30.2104 46.6196H29.3971V48.2873H28.8614ZM29.3971 46.1398H30.2964C30.6054 46.1398 30.8243 46.0887 30.9455 45.9903C31.0707 45.892 31.1332 45.7189 31.1332 45.4751C31.1332 45.2312 31.0707 45.07 30.9455 44.9716C30.8243 44.8694 30.621 44.8182 30.3316 44.8182H29.3932V46.1437L29.3971 46.1398Z" fill="#282828"/>
<path d="M32.2516 48.2872V45.412H32.7208V45.9273C32.7951 45.7346 32.9007 45.589 33.0297 45.4907C33.1627 45.3924 33.323 45.3491 33.5146 45.3491C33.5498 45.3491 33.5732 45.3491 33.5928 45.3491C33.6084 45.3491 33.6241 45.3491 33.6397 45.3531V45.8644C33.6397 45.8644 33.6123 45.8644 33.5967 45.8644C33.5811 45.8644 33.5576 45.8644 33.5224 45.8644C33.2682 45.8644 33.0727 45.9352 32.9359 46.0728C32.8029 46.2144 32.7365 46.4189 32.7365 46.6864V48.2832H32.2516V48.2872Z" fill="#282828"/>
<path d="M33.9213 46.8434C33.9213 46.3636 34.0386 45.986 34.2771 45.7186C34.5195 45.4511 34.8519 45.3174 35.2859 45.3174C35.72 45.3174 36.0602 45.4511 36.2987 45.7186C36.5372 45.986 36.6584 46.3597 36.6584 46.8434C36.6584 47.3272 36.5411 47.7048 36.2987 47.9723C36.0602 48.2397 35.7239 48.3734 35.2899 48.3734C34.8558 48.3734 34.5195 48.2397 34.2771 47.9723C34.0347 47.7048 33.9174 47.3272 33.9174 46.8434H33.9213ZM34.41 46.8434C34.41 47.2014 34.4843 47.4727 34.6368 47.6615C34.7893 47.8503 35.0044 47.9447 35.2899 47.9447C35.5753 47.9447 35.7864 47.8503 35.935 47.6615C36.0875 47.4727 36.1618 47.2014 36.1618 46.8434C36.1618 46.4855 36.0875 46.2181 35.935 46.0293C35.7864 45.8405 35.5714 45.7461 35.2899 45.7461C35.0083 45.7461 34.7893 45.8405 34.6368 46.0253C34.4843 46.2141 34.41 46.4855 34.41 46.8395V46.8434Z" fill="#282828"/>
<path d="M39.7436 44.3301V48.2829H39.2783V47.9211C39.1571 48.0705 39.0202 48.1846 38.8599 48.2593C38.7074 48.334 38.5353 48.3734 38.3516 48.3734C37.9684 48.3734 37.6634 48.2357 37.4366 47.9604C37.2098 47.6851 37.0964 47.3193 37.0964 46.8552C37.0964 46.3911 37.2098 46.0056 37.4366 45.7303C37.6634 45.451 37.9684 45.3134 38.3476 45.3134C38.5432 45.3134 38.7191 45.3488 38.8755 45.4235C39.0319 45.4982 39.161 45.6084 39.2744 45.7578V44.3262H39.7397L39.7436 44.3301ZM39.29 46.8276C39.29 46.4737 39.2196 46.2023 39.0789 46.0214C38.9381 45.8404 38.723 45.75 38.4415 45.75C38.16 45.75 37.9605 45.8483 37.8159 46.0489C37.6712 46.2455 37.5969 46.5248 37.5969 46.8906C37.5969 47.217 37.6712 47.4766 37.8237 47.6654C37.9762 47.8542 38.1834 47.9486 38.4493 47.9486C38.7152 47.9486 38.9264 47.8542 39.075 47.6575C39.2196 47.4648 39.2939 47.1895 39.2939 46.8316L39.29 46.8276Z" fill="#282828"/>
<path d="M40.9636 45.4121V47.1742C40.9636 47.4573 41.0105 47.654 41.0965 47.7641C41.1825 47.8703 41.3311 47.9293 41.5423 47.9293C41.816 47.9293 42.0272 47.8467 42.1718 47.6815C42.3165 47.5203 42.3869 47.2764 42.3869 46.9578V45.4121H42.8678V48.2872H42.4064V47.8585C42.3048 48.0237 42.1757 48.1496 42.0193 48.2361C41.859 48.3187 41.6752 48.362 41.4602 48.362C41.2607 48.362 41.0887 48.3266 40.944 48.2597C40.7954 48.1928 40.682 48.0945 40.6038 47.9726C40.5608 47.9018 40.5295 47.8192 40.51 47.7248C40.4904 47.6304 40.4787 47.4809 40.4787 47.2764V45.4121H40.9636Z" fill="#282828"/>
<path d="M45.4995 46.3676C45.4838 46.1709 45.4134 46.0175 45.2883 45.9113C45.1632 45.8051 44.9872 45.7501 44.7682 45.7501C44.5102 45.7501 44.3107 45.8445 44.1661 46.0332C44.0253 46.222 43.9549 46.4895 43.9549 46.8395C43.9549 47.1896 44.0214 47.461 44.1622 47.6498C44.2951 47.8425 44.4906 47.9369 44.737 47.9369C44.9598 47.9369 45.1397 47.8779 45.2727 47.7599C45.4056 47.6419 45.4916 47.4728 45.5229 47.2486H45.9804C45.957 47.6026 45.8357 47.8779 45.6089 48.0785C45.3861 48.2791 45.0889 48.3735 44.7135 48.3735C44.3186 48.3735 44.0175 48.2358 43.7907 47.9683C43.5639 47.697 43.4544 47.3272 43.4544 46.8553C43.4544 46.3833 43.5678 45.9939 43.8063 45.7225C44.0409 45.4511 44.3577 45.3135 44.7643 45.3135C45.1241 45.3135 45.4134 45.4079 45.6285 45.5967C45.8436 45.7855 45.9609 46.045 45.9765 46.3676H45.5034H45.4995Z" fill="#282828"/>
<path d="M47.0361 47.5593C47.0361 47.689 47.0557 47.7756 47.0909 47.8188C47.13 47.8621 47.1965 47.8818 47.2903 47.8818C47.3177 47.8818 47.3529 47.8818 47.3959 47.8818C47.435 47.8818 47.4897 47.8739 47.5523 47.87V48.279C47.4741 48.2948 47.3998 48.3026 47.3372 48.3105C47.2747 48.3144 47.216 48.3223 47.1652 48.3223C46.9384 48.3223 46.7781 48.279 46.692 48.1886C46.5982 48.0981 46.5552 47.9447 46.5552 47.7244V45.7933H46.1251V45.4118H46.5552V44.6055H47.0361V45.4118H47.5484V45.7933H47.0361V47.5593Z" fill="#282828"/>
<path d="M47.8104 47.3508H48.2718C48.2874 47.5475 48.3578 47.693 48.4829 47.7913C48.6041 47.8936 48.7762 47.9408 49.003 47.9408C49.2063 47.9408 49.3706 47.8975 49.4918 47.8189C49.6091 47.7402 49.6677 47.6261 49.6677 47.4845C49.6677 47.3783 49.6364 47.2997 49.5778 47.2407C49.5191 47.1856 49.4057 47.1384 49.2337 47.0952L48.698 46.9536C48.3969 46.8828 48.1858 46.7844 48.0645 46.6625C47.9472 46.5445 47.8886 46.3675 47.8886 46.1473C47.8886 45.8916 47.9863 45.691 48.174 45.5416C48.3656 45.3921 48.6276 45.3174 48.96 45.3174C49.2923 45.3174 49.57 45.396 49.7694 45.5573C49.9688 45.7146 50.0705 45.931 50.0705 46.1984V46.2102H49.6052C49.5934 46.0568 49.5309 45.9388 49.4214 45.8562C49.308 45.7736 49.1555 45.7343 48.96 45.7343C48.7645 45.7343 48.6159 45.7658 48.5142 45.8366C48.4125 45.9034 48.3656 46.0017 48.3656 46.1315C48.3656 46.2259 48.3969 46.2967 48.4595 46.3518C48.5181 46.4069 48.6393 46.4501 48.8075 46.4895L49.2728 46.5957C49.6013 46.6743 49.8281 46.7766 49.9532 46.9024C50.0744 47.0244 50.1409 47.1974 50.1409 47.4255C50.1409 47.7245 50.0353 47.9565 49.8241 48.1217C49.613 48.2869 49.3236 48.3695 48.9482 48.3695C48.5729 48.3695 48.2991 48.279 48.1036 48.106C47.9081 47.9329 47.8065 47.6773 47.8026 47.3469L47.8104 47.3508Z" fill="#282828"/>
<path d="M52.2681 48.2873V44.3345H55.0717V44.83H52.7959V46.01H54.8997V46.4702H52.7959V47.7956H55.1186V48.2873H52.2681Z" fill="#282828"/>
<path d="M57.6133 48.2873V46.5213C57.6133 46.2342 57.5703 46.0414 57.4843 45.9352C57.3983 45.8251 57.2458 45.774 57.0346 45.774C56.7687 45.774 56.5615 45.8487 56.4129 46.0021C56.2643 46.1555 56.19 46.3718 56.19 46.6511V48.2873H55.709V45.4121H56.1704V45.829C56.2799 45.6639 56.4129 45.538 56.5615 45.4593C56.7101 45.3767 56.886 45.3374 57.0854 45.3374C57.3005 45.3374 57.4843 45.3689 57.629 45.4357C57.7776 45.5026 57.891 45.597 57.9692 45.7307C58.0161 45.8015 58.0474 45.8841 58.0669 45.9785C58.0826 46.0729 58.0982 46.2224 58.0982 46.4269V48.2873H57.6133Z" fill="#282828"/>
<path d="M60.8706 47.9329C60.7572 48.0824 60.6281 48.1925 60.4756 48.2673C60.3271 48.342 60.155 48.3774 59.9634 48.3774C59.5763 48.3774 59.2674 48.2358 59.0328 47.9526C58.7982 47.6734 58.6808 47.2997 58.6808 46.8356C58.6808 46.3715 58.8021 46.0096 59.0328 45.7304C59.2674 45.4511 59.5802 45.3135 59.9673 45.3135C60.155 45.3135 60.3192 45.3489 60.4639 45.4197C60.6086 45.4905 60.7415 45.6085 60.8667 45.7658V45.4039H61.3359V48.2161C61.3359 48.6606 61.2303 48.9831 61.0231 49.1798C60.8119 49.3764 60.4756 49.4747 60.0064 49.4747C59.6271 49.4747 59.3299 49.4 59.1188 49.2506C58.9037 49.1011 58.7981 48.8966 58.7981 48.633V48.6134H59.2674V48.6212C59.2674 48.7707 59.3299 48.8808 59.4551 48.9595C59.5802 49.0303 59.7679 49.0696 60.0221 49.0696C60.3271 49.0696 60.5421 49.0106 60.6751 48.8966C60.808 48.7786 60.8745 48.5898 60.8745 48.3223V47.9251L60.8706 47.9329ZM60.026 45.7501C59.7562 45.7501 59.5489 45.8445 59.4003 46.0332C59.2556 46.226 59.1814 46.4934 59.1814 46.8474C59.1814 47.2014 59.2596 47.461 59.4042 47.6537C59.5567 47.8464 59.764 47.9408 60.0299 47.9408C60.3192 47.9408 60.5343 47.8543 60.6751 47.6773C60.8158 47.5042 60.8862 47.2329 60.8862 46.8671C60.8862 46.5013 60.8119 46.2181 60.6672 46.0293C60.5226 45.8445 60.3114 45.7501 60.026 45.7501Z" fill="#282828"/>
<path d="M62.0749 44.8807V44.3301H62.5558V44.8807H62.0749ZM62.0749 48.2868V45.4117H62.5558V48.2868H62.0749Z" fill="#282828"/>
<path d="M65.1914 48.2873V46.5213C65.1914 46.2342 65.1484 46.0414 65.0624 45.9352C64.9763 45.8251 64.8277 45.774 64.6166 45.774C64.3507 45.774 64.1395 45.8487 63.9909 46.0021C63.8424 46.1555 63.7681 46.3718 63.7681 46.6511V48.2873H63.2871V45.4121H63.7485V45.829C63.8541 45.6639 63.9909 45.538 64.1395 45.4593C64.2881 45.3767 64.468 45.3374 64.6635 45.3374C64.8786 45.3374 65.0584 45.3689 65.207 45.4357C65.3517 45.5026 65.469 45.597 65.5472 45.7307C65.5902 45.8015 65.6254 45.8841 65.6411 45.9785C65.6606 46.0729 65.6723 46.2224 65.6723 46.4269V48.2873H65.1875H65.1914Z" fill="#282828"/>
<path d="M68.3195 47.3587H68.7927C68.7418 47.6733 68.605 47.9251 68.386 48.1099C68.1592 48.2908 67.8816 48.3813 67.5414 48.3813C67.1465 48.3813 66.8337 48.2476 66.603 47.9762C66.3722 47.7087 66.2589 47.343 66.2589 46.8788C66.2589 46.3872 66.3723 46.0017 66.599 45.7304C66.8258 45.4511 67.1387 45.3174 67.5414 45.3174C67.9442 45.3174 68.2726 45.4432 68.4955 45.6989C68.7223 45.9506 68.8357 46.3125 68.8357 46.7726C68.8357 46.8316 68.8357 46.8788 68.8357 46.9064C68.8357 46.9339 68.8279 46.9614 68.8279 46.989H66.7633C66.7672 47.2958 66.8415 47.5278 66.9862 47.693C67.1308 47.8582 67.3303 47.9408 67.5883 47.9408C67.7838 47.9408 67.9442 47.8936 68.0732 47.7874C68.1983 47.6851 68.2804 47.5435 68.3156 47.3587H68.3195ZM66.7633 46.5878H68.3313C68.3313 46.3203 68.2609 46.1119 68.1279 45.9664C67.995 45.8208 67.8034 45.75 67.561 45.75C67.3185 45.75 67.1347 45.8208 66.9979 45.9624C66.8649 46.104 66.7828 46.3125 66.7633 46.5878Z" fill="#282828"/>
<path d="M71.3109 47.3587H71.784C71.7332 47.6733 71.5963 47.9251 71.3734 48.1099C71.1545 48.2908 70.869 48.3813 70.5327 48.3813C70.1378 48.3813 69.825 48.2476 69.5943 47.9762C69.3636 47.7087 69.2502 47.343 69.2502 46.8788C69.2502 46.3872 69.3636 46.0017 69.5943 45.7304C69.8211 45.4511 70.1339 45.3174 70.5327 45.3174C70.9316 45.3174 71.26 45.4432 71.4868 45.6989C71.7136 45.9506 71.8231 46.3125 71.8231 46.7726V46.9064C71.8231 46.9339 71.8231 46.9614 71.8153 46.989H69.7507C69.7585 47.2958 69.8328 47.5278 69.9775 47.693C70.1222 47.8582 70.3216 47.9408 70.5797 47.9408C70.7752 47.9408 70.9355 47.8936 71.0606 47.7874C71.1897 47.6851 71.2718 47.5435 71.307 47.3587H71.3109ZM69.7507 46.5878H71.3187C71.3187 46.3203 71.2483 46.1119 71.1154 45.9664C70.9785 45.8208 70.7947 45.75 70.5484 45.75C70.302 45.75 70.1222 45.8208 69.9892 45.9624C69.8524 46.104 69.7742 46.3125 69.7507 46.5878Z" fill="#282828"/>
<path d="M72.3745 48.2872V45.412H72.8398V45.9273C72.918 45.7346 73.0236 45.589 73.1526 45.4907C73.2816 45.3924 73.4419 45.3491 73.6296 45.3491C73.6648 45.3491 73.6922 45.3491 73.7078 45.3491C73.7274 45.3491 73.7391 45.3491 73.7548 45.3531V45.8644C73.7548 45.8644 73.7313 45.8644 73.7118 45.8644C73.6961 45.8644 73.6766 45.8644 73.6414 45.8644C73.3833 45.8644 73.1917 45.9352 73.0548 46.0728C72.918 46.2144 72.8515 46.4189 72.8515 46.6864V48.2832H72.3705L72.3745 48.2872Z" fill="#282828"/>
<path d="M74.1888 44.8807V44.3301H74.6697V44.8807H74.1888ZM74.1888 48.2868V45.4117H74.6697V48.2868H74.1888Z" fill="#282828"/>
<path d="M77.3053 48.2873V46.5213C77.3053 46.2342 77.2623 46.0414 77.1802 45.9352C77.0941 45.8251 76.9455 45.774 76.7344 45.774C76.4685 45.774 76.2573 45.8487 76.1087 46.0021C75.9602 46.1555 75.8859 46.3718 75.8859 46.6511V48.2873H75.4049V45.4121H75.8663V45.829C75.9797 45.6639 76.1048 45.538 76.2573 45.4593C76.4098 45.3767 76.5819 45.3374 76.7813 45.3374C76.9964 45.3374 77.1762 45.3689 77.3248 45.4357C77.4734 45.5026 77.5868 45.597 77.665 45.7307C77.708 45.8015 77.7393 45.8841 77.7589 45.9785C77.7784 46.0729 77.7862 46.2224 77.7862 46.4269V48.2873H77.3014H77.3053Z" fill="#282828"/>
<path d="M80.5664 47.9329C80.453 48.0824 80.3201 48.1925 80.1715 48.2673C80.0229 48.342 79.8509 48.3774 79.6593 48.3774C79.2761 48.3774 78.9632 48.2358 78.7286 47.9526C78.494 47.6734 78.3767 47.2997 78.3767 46.8356C78.3767 46.3715 78.494 46.0096 78.7286 45.7304C78.9672 45.4511 79.2761 45.3135 79.6632 45.3135C79.8509 45.3135 80.019 45.3489 80.1598 45.4197C80.3045 45.4905 80.4374 45.6085 80.5625 45.7658V45.4039H81.0318V48.2161C81.0318 48.6606 80.9301 48.9831 80.7189 49.1798C80.5078 49.3764 80.1676 49.4747 79.7023 49.4747C79.3269 49.4747 79.0297 49.4 78.8147 49.2506C78.5996 49.1011 78.494 48.8966 78.494 48.633V48.6134H78.9593V48.6212C78.9593 48.7707 79.0258 48.8808 79.1509 48.9595C79.2761 49.0303 79.4638 49.0696 79.7179 49.0696C80.019 49.0696 80.238 49.0106 80.3709 48.8966C80.5039 48.7786 80.5703 48.5898 80.5703 48.3223V47.9251L80.5664 47.9329ZM79.7218 45.7501C79.452 45.7501 79.2448 45.8445 79.0962 46.0332C78.9515 46.226 78.8772 46.4934 78.8772 46.8474C78.8772 47.2014 78.9515 47.461 79.1001 47.6537C79.2487 47.8464 79.4559 47.9408 79.7218 47.9408C80.0151 47.9408 80.2302 47.8543 80.3709 47.6773C80.5117 47.5042 80.5782 47.2329 80.5782 46.8671C80.5782 46.5013 80.5078 46.2181 80.367 46.0293C80.2184 45.8445 80.0034 45.7501 79.7218 45.7501Z" fill="#282828"/>
</g>
<defs>
<clipPath id="clip0_1_825">
<rect width="81.0278" height="49.4868" fill="white"/>
</clipPath>
</defs>
</svg>
