<svg width="137" height="60" viewBox="0 0 137 60" fill="none" xmlns="http://www.w3.org/2000/svg">
<path d="M33.6582 0H33.4883V48.5177H33.6582V0Z" fill="#282828"/>
<path d="M2.13779 24.1731C2.13779 11.4981 12.2229 1.17469 24.8326 0.729359V0.0444336C11.4075 0.0444336 0.522705 10.8913 0.522705 24.2694C0.522705 37.6476 11.4075 48.4945 24.8326 48.4945V47.6142C12.2229 47.1689 2.1404 36.8455 2.1404 24.1705" fill="#282828"/>
<path d="M4.40098 59.9038H0V55.2734H4.40098V55.8229H0.888558V57.0912H4.40098V57.6381H0.888558V59.3569H4.40098V59.9038Z" fill="#282828"/>
<path d="M11.2768 55.2734L8.9692 57.5626L11.2716 59.9038H10.2445L8.423 57.9975L6.55441 59.9038H5.58484L7.916 57.5912L5.63972 55.2734H6.66418L8.4622 57.1537L10.302 55.2734H11.2768Z" fill="#282828"/>
<path d="M17.2119 56.6744C17.2119 56.8801 17.1596 57.0702 17.0577 57.2447C16.9532 57.4192 16.8094 57.5729 16.6239 57.7005C16.3939 57.8593 16.1221 57.9791 15.8085 58.0599C15.4949 58.1406 15.0977 58.1796 14.6194 58.1796H13.7308V59.9063H12.8423V55.2759H14.656C15.0558 55.2759 15.3956 55.2993 15.6752 55.3462C15.9549 55.3931 16.2005 55.466 16.4148 55.565C16.6683 55.6821 16.8669 55.8306 17.0054 56.0077C17.144 56.1848 17.2145 56.4061 17.2145 56.677M16.2868 56.69C16.2868 56.5311 16.2476 56.3905 16.1665 56.2733C16.0855 56.1561 15.9627 56.0598 15.798 55.9842C15.6543 55.9217 15.4897 55.8749 15.3067 55.8462C15.1238 55.8176 14.8912 55.8045 14.6089 55.8045H13.7282V57.6536H14.4783C14.8363 57.6536 15.129 57.6301 15.3538 57.5859C15.5785 57.5416 15.7615 57.4687 15.9026 57.3723C16.0437 57.2734 16.143 57.1692 16.2005 57.0572C16.258 56.9478 16.2868 56.8228 16.2868 56.6874" fill="#282828"/>
<path d="M23.1522 59.9038H18.7512V55.2734H23.1522V55.8229H19.6398V57.0912H23.1522V57.6381H19.6398V59.3569H23.1522V59.9038Z" fill="#282828"/>
<path d="M30.4567 59.9038H29.3042L27.0697 58.0626H25.8179V59.9038H24.9293V55.2734H26.8005C27.2056 55.2734 27.5401 55.2917 27.8093 55.3281C28.0785 55.3646 28.3215 55.4297 28.5358 55.5234C28.7789 55.6276 28.967 55.7604 29.1029 55.9219C29.2388 56.0834 29.3068 56.2865 29.3068 56.5339C29.3068 56.8673 29.1866 57.1459 28.9435 57.3725C28.7005 57.5965 28.3686 57.7657 27.9426 57.8803L30.4541 59.9038H30.4567ZM28.379 56.5756C28.379 56.4428 28.345 56.3256 28.2771 56.224C28.2091 56.1224 28.0994 56.0339 27.9426 55.9636C27.8145 55.9037 27.6603 55.862 27.4852 55.8386C27.3075 55.8151 27.1011 55.8021 26.8606 55.8021H25.8153V57.5496H26.7117C26.9939 57.5496 27.237 57.5313 27.4486 57.4975C27.6577 57.4636 27.8354 57.3985 27.9818 57.3074C28.1151 57.2214 28.2144 57.1199 28.2797 57.0079C28.345 56.8959 28.3764 56.7501 28.3764 56.5782" fill="#282828"/>
<path d="M36.1827 55.8229H33.794V59.9038H32.9055V55.8229H30.5194V55.2734H36.1827V55.8229Z" fill="#282828"/>
<path d="M45.4158 56.6744C45.4158 56.8801 45.3635 57.0702 45.2616 57.2447C45.1596 57.4192 45.0133 57.5729 44.8277 57.7005C44.5978 57.8593 44.326 57.9791 44.0124 58.0599C43.6988 58.1406 43.3015 58.1796 42.8233 58.1796H41.9347V59.9063H41.0461V55.2759H42.8598C43.2597 55.2759 43.5994 55.2993 43.8791 55.3462C44.1587 55.3931 44.4044 55.466 44.6187 55.565C44.8722 55.6821 45.0708 55.8306 45.2093 56.0077C45.3478 56.1848 45.4184 56.4061 45.4184 56.677M44.4906 56.69C44.4906 56.5311 44.4514 56.3905 44.3704 56.2733C44.2894 56.1561 44.1665 56.0598 44.0019 55.9842C43.8582 55.9217 43.6935 55.8749 43.5106 55.8462C43.3276 55.8176 43.0951 55.8045 42.8128 55.8045H41.9347V57.6536H42.6847C43.0428 57.6536 43.3355 57.6301 43.5602 57.5859C43.785 57.5416 43.9679 57.4687 44.1091 57.3723C44.2502 57.2734 44.3495 57.1692 44.407 57.0572C44.4645 56.9478 44.4932 56.8228 44.4932 56.6874" fill="#282828"/>
<path d="M51.9963 59.9038H51.0503L50.3943 58.6147H47.5039L46.8479 59.9038H45.9463L48.3794 55.2734H49.5632L51.9963 59.9038ZM50.1225 58.0861L48.9517 55.8125L47.7757 58.0861H50.1225Z" fill="#282828"/>
<path d="M58.5403 59.5676C58.3756 59.6171 58.2267 59.6639 58.0934 59.7082C57.9601 59.7525 57.785 59.7968 57.5707 59.8462C57.3878 59.8853 57.1891 59.9192 56.9748 59.9478C56.7605 59.9764 56.5253 59.9895 56.2692 59.9895C55.7857 59.9895 55.3441 59.9426 54.9468 59.8488C54.5496 59.7551 54.2046 59.6066 53.9119 59.4061C53.6245 59.2082 53.3997 58.9582 53.2377 58.6561C53.0756 58.3514 52.9946 57.9998 52.9946 57.5987C52.9946 57.2159 53.073 56.8748 53.2272 56.5753C53.384 56.2758 53.6062 56.0205 53.9015 55.8122C54.1863 55.6117 54.5287 55.458 54.9312 55.3512C55.3336 55.2471 55.7805 55.1924 56.2692 55.1924C56.6273 55.1924 56.9853 55.2236 57.3433 55.2835C57.7014 55.3434 58.0986 55.4502 58.535 55.6013V56.3305H58.4671C58.0986 56.1169 57.7327 55.9606 57.3721 55.8643C57.0088 55.7679 56.622 55.7184 56.2091 55.7184C55.872 55.7184 55.5662 55.7549 55.297 55.833C55.0252 55.9086 54.7848 56.0258 54.5731 56.1846C54.3667 56.3409 54.2046 56.5362 54.0896 56.7732C53.9747 57.0102 53.9172 57.2836 53.9172 57.5961C53.9172 57.9086 53.9799 58.2003 54.1079 58.4347C54.236 58.6691 54.398 58.8592 54.5993 59.0077C54.8083 59.1613 55.054 59.2759 55.3336 59.3488C55.6133 59.4217 55.9086 59.4582 56.2196 59.4582C56.6482 59.4582 57.048 59.4061 57.4217 59.3045C57.7955 59.203 58.1457 59.0519 58.4723 58.8488H58.535V59.5702L58.5403 59.5676Z" fill="#282828"/>
<path d="M65.5338 59.9038H64.3813L61.7391 57.8439L61.0753 58.3335V59.9038H60.1868V55.2734H61.0753V57.6902L64.3186 55.2734H65.3953L62.4108 57.4506L65.5338 59.9038Z" fill="#282828"/>
<path d="M72.1666 59.9038H71.2206L70.5646 58.6147H67.6742L67.0182 59.9038H66.1166L68.5497 55.2734H69.7335L72.1666 59.9038ZM70.2902 58.0861L69.1194 55.8125L67.9433 58.0861H70.2902Z" fill="#282828"/>
<path d="M79.1209 59.5625C78.755 59.6797 78.3578 59.7787 77.9239 59.8646C77.4927 59.9506 77.0746 59.9922 76.6695 59.9922C76.1494 59.9922 75.6712 59.9428 75.2374 59.8438C74.8035 59.7448 74.435 59.5964 74.1293 59.3959C73.8209 59.1953 73.5831 58.9427 73.4158 58.6432C73.2486 58.3411 73.1649 57.9895 73.1649 57.5833C73.1649 56.8437 73.4759 56.2603 74.1005 55.8332C74.7251 55.4061 75.5797 55.1899 76.6695 55.1899C77.0484 55.1899 77.4378 55.2212 77.8325 55.2837C78.2297 55.3462 78.6557 55.453 79.113 55.604V56.3358H79.032C78.9379 56.2863 78.8046 56.2212 78.6296 56.1405C78.4518 56.0598 78.2794 55.9921 78.1095 55.9374C77.903 55.8723 77.6704 55.8202 77.4065 55.7759C77.1451 55.7342 76.8472 55.7134 76.5153 55.7134C75.7679 55.7134 75.1772 55.8801 74.7408 56.2134C74.3044 56.5468 74.0874 56.9973 74.0874 57.565C74.0874 58.164 74.3148 58.6302 74.7696 58.9609C75.2243 59.2943 75.8437 59.461 76.6277 59.461C76.9152 59.461 77.2026 59.4427 77.4875 59.4011C77.7724 59.362 78.0232 59.3099 78.2375 59.25V58.1145H76.4474V57.5729H79.1183V59.5599L79.1209 59.5625Z" fill="#282828"/>
<path d="M83.3964 59.9038H80.7568V59.4325H81.6323V55.7474H80.7568V55.2734H83.3964V55.7474H82.5209V59.4325H83.3964V59.9038Z" fill="#282828"/>
<path d="M90.3717 59.9038H89.274L86.1066 55.763V59.9038H85.2755V55.2734H86.6528L89.5432 59.0548V55.2734H90.3717V59.9038Z" fill="#282828"/>
<path d="M98.0916 59.5625C97.7257 59.6797 97.3285 59.7787 96.8946 59.8646C96.4634 59.9506 96.0453 59.9922 95.6402 59.9922C95.1201 59.9922 94.6419 59.9428 94.2081 59.8438C93.7742 59.7448 93.4057 59.5964 93.1 59.3959C92.7916 59.1953 92.5538 58.9427 92.3865 58.6432C92.2193 58.3411 92.1356 57.9895 92.1356 57.5833C92.1356 56.8437 92.4466 56.2603 93.0712 55.8332C93.6958 55.4061 94.5504 55.1899 95.6402 55.1899C96.0191 55.1899 96.4085 55.2212 96.8058 55.2837C97.203 55.3462 97.629 55.453 98.0864 55.604V56.3358H98.0053C97.9139 56.2863 97.778 56.2212 97.6029 56.1405C97.4252 56.0598 97.2527 55.9921 97.0828 55.9374C96.8763 55.8723 96.6411 55.8202 96.3798 55.7759C96.1185 55.7342 95.8205 55.7134 95.4886 55.7134C94.7412 55.7134 94.1506 55.8801 93.7141 56.2134C93.2777 56.5468 93.0608 56.9973 93.0608 57.565C93.0608 58.164 93.2881 58.6302 93.7429 58.9609C94.1976 59.2943 94.817 59.461 95.601 59.461C95.8885 59.461 96.1733 59.4427 96.4608 59.4011C96.7457 59.362 96.9966 59.3099 97.2135 59.25V58.1145H95.4233V57.5729H98.0942V59.5599L98.0916 59.5625Z" fill="#282828"/>
<path d="M109.18 59.5625C108.814 59.6797 108.417 59.7787 107.983 59.8646C107.552 59.9506 107.131 59.9922 106.729 59.9922C106.209 59.9922 105.731 59.9428 105.297 59.8438C104.863 59.7448 104.494 59.5964 104.189 59.3959C103.88 59.1953 103.643 58.9427 103.475 58.6432C103.308 58.3411 103.224 57.9895 103.224 57.5833C103.224 56.8437 103.538 56.2603 104.16 55.8332C104.785 55.4061 105.639 55.1899 106.729 55.1899C107.108 55.1899 107.497 55.2212 107.895 55.2837C108.292 55.3462 108.718 55.453 109.175 55.604V56.3358H109.094C109.003 56.2863 108.867 56.2212 108.692 56.1405C108.514 56.0598 108.341 55.9921 108.172 55.9374C107.965 55.8723 107.73 55.8202 107.469 55.7759C107.207 55.7342 106.909 55.7134 106.577 55.7134C105.83 55.7134 105.237 55.8801 104.803 56.2134C104.369 56.5468 104.15 56.9973 104.15 57.565C104.15 58.164 104.377 58.6302 104.832 58.9609C105.286 59.2943 105.906 59.461 106.69 59.461C106.977 59.461 107.265 59.4427 107.55 59.4011C107.834 59.362 108.085 59.3099 108.302 59.25V58.1145H106.512V57.5729H109.183V59.5599L109.18 59.5625Z" fill="#282828"/>
<path d="M116.629 59.9038H115.476L113.242 58.0626H111.99V59.9038H111.101V55.2734H112.972C113.375 55.2734 113.712 55.2917 113.981 55.3281C114.25 55.3646 114.493 55.4297 114.708 55.5234C114.951 55.6276 115.139 55.7604 115.275 55.9219C115.411 56.0834 115.479 56.2865 115.479 56.5339C115.479 56.8673 115.358 57.1459 115.115 57.3725C114.872 57.5965 114.54 57.7657 114.114 57.8803L116.626 59.9038H116.629ZM114.554 56.5756C114.554 56.4428 114.52 56.3256 114.452 56.224C114.384 56.1224 114.274 56.0339 114.117 55.9636C113.989 55.9037 113.835 55.862 113.66 55.8386C113.485 55.8151 113.276 55.8021 113.038 55.8021H111.992V57.5496H112.889C113.168 57.5496 113.414 57.5313 113.623 57.4975C113.832 57.4636 114.01 57.3985 114.156 57.3074C114.292 57.2214 114.389 57.1199 114.454 57.0079C114.52 56.8959 114.551 56.7501 114.551 56.5782" fill="#282828"/>
<path d="M122.838 55.8072C123.11 56.0155 123.319 56.2681 123.465 56.5676C123.609 56.8671 123.682 57.2083 123.682 57.5911C123.682 57.9739 123.609 58.3125 123.46 58.6146C123.311 58.9167 123.105 59.1667 122.838 59.3698C122.564 59.5782 122.237 59.737 121.863 59.8438C121.487 59.948 121.058 60.0026 120.577 60.0026C120.097 60.0026 119.681 59.948 119.297 59.8412C118.913 59.7318 118.586 59.5755 118.317 59.3724C118.048 59.1667 117.841 58.9141 117.695 58.6172C117.548 58.3177 117.478 57.9765 117.478 57.5937C117.478 57.2109 117.548 56.8775 117.692 56.578C117.836 56.2785 118.045 56.0233 118.319 55.8098C118.583 55.6066 118.91 55.4504 119.299 55.3436C119.689 55.2342 120.115 55.1821 120.575 55.1821C121.035 55.1821 121.484 55.2368 121.866 55.3462C122.247 55.4556 122.571 55.6092 122.838 55.8124M122.76 57.5911C122.76 56.9895 122.564 56.5259 122.177 56.2004C121.787 55.8749 121.257 55.7108 120.585 55.7108C119.914 55.7108 119.373 55.8749 118.986 56.2004C118.599 56.5259 118.406 56.9895 118.406 57.5911C118.406 58.1927 118.604 58.6641 118.999 58.9844C119.394 59.3073 119.924 59.4662 120.588 59.4662C121.252 59.4662 121.78 59.3047 122.174 58.9844C122.566 58.6614 122.765 58.1979 122.765 57.5911" fill="#282828"/>
<path d="M130.49 58.0444C130.49 58.3803 130.435 58.672 130.331 58.922C130.223 59.172 130.051 59.3804 129.808 59.5445C129.578 59.7033 129.309 59.8179 129 59.8908C128.692 59.9637 128.334 60.0002 127.924 60.0002C127.513 60.0002 127.14 59.9611 126.829 59.8856C126.518 59.8101 126.256 59.6955 126.045 59.5471C125.802 59.3778 125.629 59.172 125.522 58.9324C125.415 58.6929 125.363 58.396 125.363 58.047V55.276H126.251V58.0782C126.251 58.3283 126.275 58.5262 126.324 58.672C126.374 58.8179 126.458 58.9481 126.573 59.0679C126.703 59.2033 126.884 59.3049 127.108 59.3726C127.333 59.4403 127.605 59.4741 127.924 59.4741C128.243 59.4741 128.514 59.4403 128.739 59.3726C128.964 59.3049 129.144 59.2033 129.277 59.0653C129.395 58.9481 129.476 58.8127 129.526 58.659C129.575 58.508 129.599 58.3178 129.599 58.0913V55.2734H130.487V58.0444H130.49Z" fill="#282828"/>
<path d="M136.924 56.6744C136.924 56.8801 136.872 57.0702 136.77 57.2447C136.668 57.4192 136.522 57.5729 136.336 57.7005C136.106 57.8593 135.835 57.9791 135.521 58.0599C135.207 58.1406 134.81 58.1796 134.332 58.1796H133.443V59.9063H132.555V55.2759H134.368C134.768 55.2759 135.108 55.2993 135.388 55.3462C135.667 55.3931 135.913 55.466 136.127 55.565C136.381 55.6821 136.579 55.8306 136.718 56.0077C136.856 56.1848 136.927 56.4061 136.927 56.677M135.999 56.69C135.999 56.5311 135.957 56.3905 135.879 56.2733C135.798 56.1561 135.675 56.0598 135.51 55.9842C135.367 55.9217 135.202 55.8749 135.019 55.8462C134.836 55.8176 134.604 55.8045 134.321 55.8045H133.441V57.6536H134.191C134.549 57.6536 134.841 57.6301 135.066 57.5859C135.291 57.5416 135.471 57.4687 135.612 57.3723C135.753 57.2734 135.853 57.1692 135.91 57.0572C135.968 56.9478 135.997 56.8228 135.997 56.6874" fill="#282828"/>
<path d="M11.9146 41.2856L11.917 41.2984L11.9146 41.2856Z" fill="#282828"/>
<path d="M19.3418 7.57086C21.0562 7.6594 22.93 7.67763 24.809 7.55002V2.5498C23.9832 2.58106 23.1678 2.65918 22.3681 2.77638C21.9134 3.27379 20.6224 4.82334 19.3418 7.57086Z" fill="#282828"/>
<path d="M16.1665 4.61003C14.8389 5.22203 13.5897 5.95904 12.4268 6.80283C12.7456 6.85752 13.2082 6.93565 13.7962 7.02159C14.6769 5.99029 15.508 5.18557 16.1665 4.60742V4.61003Z" fill="#282828"/>
<path d="M7.91865 23.0689C7.91865 20.2875 8.35248 17.8134 9.02935 15.631C7.24962 15.4774 5.92723 15.342 5.45421 15.2925C4.24159 17.9436 3.55426 20.8761 3.52551 23.9673H7.92649C7.92126 23.6704 7.91604 23.3736 7.91604 23.0663L7.91865 23.0689Z" fill="#282828"/>
<path d="M13.493 7.38592C12.7221 7.26872 12.1916 7.17236 11.9773 7.1333C9.28545 9.19589 7.10587 11.8549 5.63452 14.9071C6.20686 14.967 7.48743 15.092 9.15478 15.2378C10.255 11.9043 11.9276 9.29225 13.493 7.38592Z" fill="#282828"/>
<path d="M16.7938 16.1702C16.4671 18.2172 16.2659 20.509 16.2659 23.069C16.2659 23.3763 16.2711 23.6706 16.2737 23.9701H24.8065V16.1572C23.8474 16.2562 22.6661 16.2953 21.362 16.2953C19.9403 16.2953 18.3723 16.2458 16.7912 16.1702H16.7938Z" fill="#282828"/>
<path d="M19.1615 7.96663C18.2703 9.96412 17.4053 12.545 16.8564 15.7691C19.8723 15.9123 22.8281 15.954 24.8064 15.7482V7.95361C23.8604 8.01612 22.9143 8.04476 21.9892 8.04476C21.0144 8.04476 20.0631 8.01351 19.1589 7.96403L19.1615 7.96663Z" fill="#282828"/>
<path d="M19.2896 40.6452C20.4342 43.2625 21.6286 44.7886 22.3342 45.5438C23.1496 45.6714 23.9728 45.7626 24.8065 45.8043V40.6634C22.9143 40.5358 21.0222 40.554 19.2922 40.6452H19.2896Z" fill="#282828"/>
<path d="M16.9741 32.4364C17.5099 35.7022 18.2939 38.2674 19.1197 40.2466C20.8968 40.1477 22.8517 40.1242 24.8065 40.2545V32.4599C22.8517 32.2567 19.9508 32.2958 16.9741 32.4338V32.4364Z" fill="#282828"/>
<path d="M16.9088 32.0353C19.8985 31.8947 22.8229 31.853 24.8065 32.0562V24.3735H16.2789C16.3338 27.2695 16.5638 29.8113 16.9088 32.0353Z" fill="#282828"/>
<path d="M7.93689 24.3735H3.52808C3.55682 27.3528 4.2154 30.2514 5.4437 32.9182C5.9115 32.8687 7.24957 32.7333 9.04498 32.577C8.43605 30.3139 8.02314 27.6133 7.93689 24.3735Z" fill="#282828"/>
<path d="M13.7465 40.7912C14.9618 40.6141 16.6866 40.4032 18.6571 40.2756C17.8313 38.2703 17.0682 35.7051 16.5481 32.4575C14.0732 32.5799 11.58 32.77 9.57031 32.9393C10.6366 36.6244 12.2334 39.0828 13.7465 40.7912Z" fill="#282828"/>
<path d="M8.32378 23.0688C8.32378 23.3761 8.32901 23.673 8.33423 23.9699H15.8661C15.8635 23.6704 15.8582 23.3735 15.8582 23.0688C15.8582 20.5062 16.0595 18.2067 16.3861 16.1519C13.9112 16.0269 11.4311 15.8394 9.4397 15.6675C8.75761 17.8316 8.32117 20.2979 8.32117 23.0688H8.32378Z" fill="#282828"/>
<path d="M14.2719 7.08921C15.4871 7.25589 17.097 7.44079 18.9081 7.54757C20.0031 5.15944 21.1216 3.62813 21.7462 2.87549C20.2749 3.13071 18.8558 3.52135 17.5021 4.04221C16.9559 4.44847 15.6936 5.45893 14.2693 7.08921H14.2719Z" fill="#282828"/>
<path d="M9.15742 32.9756C7.47961 33.1214 6.19382 33.249 5.62671 33.3063C6.65116 35.4184 8.03104 37.3794 9.74544 39.1087C10.4484 39.8196 11.1959 40.4733 11.9747 41.0801C12.1628 41.0436 12.615 40.9629 13.2709 40.8613C11.7682 39.1191 10.2054 36.6398 9.15742 32.9756Z" fill="#282828"/>
<path d="M9.57031 15.2718C11.5513 15.4411 14.0053 15.626 16.4488 15.7484C16.9924 12.5425 17.8444 9.95649 18.7303 7.94078C16.8382 7.82358 15.1761 7.62566 13.9608 7.45117C12.3928 9.32104 10.6915 11.9227 9.57293 15.2718H9.57031Z" fill="#282828"/>
<path d="M14.0759 41.153C14.9749 42.1166 15.8295 42.8224 16.4985 43.3771C16.8774 43.6922 17.2067 43.963 17.4628 44.2156C18.8218 44.7547 20.2357 45.1662 21.6887 45.4371C20.8707 44.4891 19.8123 42.9708 18.8218 40.6738C16.948 40.7884 15.2911 40.9837 14.0732 41.1556L14.0759 41.153Z" fill="#282828"/>
<path d="M13.5898 41.2231C13.0933 41.2987 12.696 41.3638 12.4164 41.4133C13.6107 42.2909 14.8834 43.0461 16.2215 43.6738C15.4976 43.0748 14.5646 42.2987 13.5898 41.2231Z" fill="#282828"/>
<path d="M8.34204 24.3735C8.4309 27.6081 8.84382 30.2957 9.45535 32.5432C11.4703 32.3713 13.9844 32.1812 16.4854 32.0562C16.1457 29.8217 15.9209 27.2773 15.8713 24.3735H8.34204Z" fill="#282828"/>
<path d="M93.3535 5.58594L111.961 7.91677L112.003 14.5941L101.026 13.2087L101.071 20.0761L112.037 20.0501L112.079 26.579L101.11 26.6051L101.162 34.6783L112.123 33.6731L112.165 40.3479L93.5861 42.5615L93.3535 5.58594Z" fill="#282828"/>
<path d="M114.248 8.20068L121.756 9.13822L126.235 20.071L131.277 10.331L136.833 11.0107L137 37.4936L130.657 38.2384L130.568 24.2483L125.765 32.5507L120.901 24.2717L120.998 39.3973L114.452 40.1786L114.248 8.20068Z" fill="#282828"/>
<path d="M86.765 4.7374C89.7783 5.11241 91.0667 7.86774 91.0824 10.3496L91.1817 25.8711C91.1922 27.6264 90.0396 29.5458 88.3174 29.7697L77.8272 31.012L77.9108 44.3563L70.2927 45.2626L70.0236 2.63574L86.765 4.74V4.7374ZM84.1307 21.9282L84.0706 12.1596C84.0654 11.5528 83.4878 10.9851 82.6332 10.8757L77.6965 10.2611L77.7801 23.746L82.709 23.4283C83.4722 23.3788 84.136 22.7903 84.1307 21.9309" fill="#282828"/>
<path d="M63.6338 1.82039C66.0303 2.11988 67.6924 4.22935 67.7133 7.56543L67.9276 41.3377C67.9407 43.3639 66.7098 45.5931 63.9134 45.9213C59.2198 46.4838 54.5104 47.0437 49.8141 47.6141C49.4143 47.6609 49.0353 47.6844 48.6773 47.6844C44.9662 47.6922 43.5942 45.3197 43.5837 43.718L43.3459 5.91953C43.3198 2.05217 45.6065 0.00781284 48.6093 0C48.9046 0 49.2052 0.01823 49.5136 0.0572942L63.6338 1.82039ZM60.7094 38.6788L60.5265 9.83637C60.5186 8.7608 59.7686 7.98993 59.0786 7.90659L52.7098 7.09927C52.6732 7.09406 52.634 7.09406 52.5974 7.09406C51.897 7.09406 51.0685 7.85972 51.0738 8.77382L51.2672 39.2022C51.2724 39.8793 52.0251 40.7335 52.8692 40.7309L59.2825 40.0851C60.1815 40.0043 60.712 39.3637 60.7094 38.6814" fill="#282828"/>
</svg>
