<svg preserveAspectRatio="none" width="100%" height="100%" overflow="visible" style="display: block;" viewBox="0 0 137 60" fill="none" xmlns="http://www.w3.org/2000/svg">
<g id="Opem">
<path id="Vector" d="M33.6582 0H33.4883V48.5177H33.6582V0Z" fill="var(--fill-0, #282828)"/>
<path id="Vector_2" d="M2.13779 24.1731C2.13779 11.4981 12.2229 1.17469 24.8326 0.729359V0.0444336C11.4075 0.0444336 0.522705 10.8913 0.522705 24.2694C0.522705 37.6476 11.4075 48.4945 24.8326 48.4945V47.6142C12.2229 47.1689 2.1404 36.8455 2.1404 24.1705" fill="var(--fill-0, #282828)"/>
<g id="Group">
<path id="Vector_3" d="M4.40098 59.9037H0V55.2733H4.40098V55.8228H0.888558V57.0911H4.40098V57.638H0.888558V59.3568H4.40098V59.9037Z" fill="var(--fill-0, #282828)"/>
<path id="Vector_4" d="M11.2768 55.2733L8.96921 57.5624L11.2716 59.9037H10.2446L8.42301 57.9974L6.55442 59.9037H5.58485L7.91601 57.5911L5.63973 55.2733H6.66419L8.46221 57.1536L10.302 55.2733H11.2768Z" fill="var(--fill-0, #282828)"/>
<path id="Vector_5" d="M17.2119 56.6744C17.2119 56.8801 17.1596 57.0702 17.0577 57.2447C16.9532 57.4192 16.8094 57.5729 16.6239 57.7005C16.3939 57.8593 16.1221 57.9791 15.8085 58.0599C15.4949 58.1406 15.0976 58.1797 14.6194 58.1797H13.7308V59.9063H12.8423V55.2759H14.656C15.0558 55.2759 15.3956 55.2993 15.6752 55.3462C15.9548 55.3931 16.2005 55.466 16.4148 55.565C16.6683 55.6822 16.8669 55.8306 17.0054 56.0077C17.1439 56.1848 17.2145 56.4061 17.2145 56.677M16.2868 56.69C16.2868 56.5311 16.2475 56.3905 16.1665 56.2733C16.0855 56.1561 15.9627 56.0598 15.798 55.9843C15.6543 55.9217 15.4897 55.8749 15.3067 55.8462C15.1238 55.8176 14.8912 55.8046 14.6089 55.8046H13.7282V57.6536H14.4783C14.8363 57.6536 15.129 57.6302 15.3538 57.5859C15.5785 57.5416 15.7615 57.4687 15.9026 57.3723C16.0437 57.2734 16.143 57.1692 16.2005 57.0572C16.258 56.9478 16.2868 56.8228 16.2868 56.6874" fill="var(--fill-0, #282828)"/>
<path id="Vector_6" d="M23.1522 59.9037H18.7512V55.2733H23.1522V55.8228H19.6398V57.0911H23.1522V57.638H19.6398V59.3568H23.1522V59.9037Z" fill="var(--fill-0, #282828)"/>
<path id="Vector_7" d="M30.4566 59.9037H29.3041L27.0697 58.0625H25.8178V59.9037H24.9293V55.2733H26.8005C27.2056 55.2733 27.5401 55.2915 27.8093 55.328C28.0784 55.3644 28.3215 55.4295 28.5358 55.5233C28.7788 55.6275 28.967 55.7603 29.1029 55.9217C29.2388 56.0832 29.3067 56.2863 29.3067 56.5338C29.3067 56.8671 29.1865 57.1458 28.9435 57.3723C28.7004 57.5963 28.3685 57.7656 27.9425 57.8802L30.454 59.9037H30.4566ZM28.379 56.5754C28.379 56.4426 28.345 56.3254 28.2771 56.2238C28.2091 56.1223 28.0994 56.0337 27.9425 55.9634C27.8145 55.9035 27.6603 55.8619 27.4852 55.8384C27.3075 55.815 27.101 55.802 26.8606 55.802H25.8152V57.5494H26.7116C26.9939 57.5494 27.2369 57.5312 27.4486 57.4973C27.6577 57.4635 27.8354 57.3984 27.9817 57.3072C28.115 57.2213 28.2143 57.1197 28.2797 57.0077C28.345 56.8957 28.3764 56.7499 28.3764 56.578" fill="var(--fill-0, #282828)"/>
<path id="Vector_8" d="M36.1826 55.8228H33.794V59.9037H32.9054V55.8228H30.5194V55.2733H36.1826V55.8228Z" fill="var(--fill-0, #282828)"/>
<path id="Vector_9" d="M45.4158 56.6744C45.4158 56.8801 45.3635 57.0702 45.2616 57.2447C45.1597 57.4192 45.0133 57.5729 44.8278 57.7005C44.5978 57.8593 44.326 57.9791 44.0124 58.0599C43.6988 58.1406 43.3015 58.1797 42.8233 58.1797H41.9347V59.9063H41.0462V55.2759H42.8599C43.2597 55.2759 43.5995 55.2993 43.8791 55.3462C44.1587 55.3931 44.4044 55.466 44.6187 55.565C44.8722 55.6822 45.0708 55.8306 45.2093 56.0077C45.3478 56.1848 45.4184 56.4061 45.4184 56.677M44.4906 56.69C44.4906 56.5311 44.4514 56.3905 44.3704 56.2733C44.2894 56.1561 44.1666 56.0598 44.0019 55.9843C43.8582 55.9217 43.6935 55.8749 43.5106 55.8462C43.3277 55.8176 43.0951 55.8046 42.8128 55.8046H41.9347V57.6536H42.6848C43.0428 57.6536 43.3355 57.6302 43.5603 57.5859C43.785 57.5416 43.968 57.4687 44.1091 57.3723C44.2502 57.2734 44.3495 57.1692 44.407 57.0572C44.4645 56.9478 44.4932 56.8228 44.4932 56.6874" fill="var(--fill-0, #282828)"/>
<path id="Vector_10" d="M51.9963 59.9037H51.0503L50.3943 58.6146H47.5039L46.8479 59.9037H45.9463L48.3794 55.2733H49.5633L51.9963 59.9037ZM50.1225 58.0859L48.9517 55.8124L47.7757 58.0859H50.1225Z" fill="var(--fill-0, #282828)"/>
<path id="Vector_11" d="M58.5403 59.5677C58.3757 59.6172 58.2267 59.6641 58.0934 59.7084C57.9601 59.7526 57.785 59.7969 57.5707 59.8464C57.3878 59.8855 57.1892 59.9193 56.9749 59.948C56.7606 59.9766 56.5254 59.9896 56.2693 59.9896C55.7858 59.9896 55.3441 59.9428 54.9469 59.849C54.5496 59.7552 54.2047 59.6068 53.912 59.4063C53.6245 59.2083 53.3997 58.9583 53.2377 58.6562C53.0757 58.3515 52.9947 58 52.9947 57.5989C52.9947 57.2161 53.0731 56.8749 53.2273 56.5754C53.3841 56.2759 53.6062 56.0207 53.9015 55.8124C54.1864 55.6118 54.5287 55.4582 54.9312 55.3514C55.3337 55.2472 55.7806 55.1925 56.2693 55.1925C56.6273 55.1925 56.9853 55.2238 57.3434 55.2837C57.7014 55.3436 58.0986 55.4504 58.5351 55.6014V56.3306H58.4671C58.0986 56.1171 57.7328 55.9608 57.3721 55.8645C57.0089 55.7681 56.6221 55.7186 56.2092 55.7186C55.872 55.7186 55.5663 55.7551 55.2971 55.8332C55.0253 55.9087 54.7848 56.0259 54.5732 56.1848C54.3667 56.341 54.2047 56.5364 54.0897 56.7733C53.9747 57.0103 53.9172 57.2838 53.9172 57.5963C53.9172 57.9088 53.9799 58.2005 54.108 58.4349C54.236 58.6693 54.3981 58.8594 54.5993 59.0078C54.8084 59.1615 55.054 59.2761 55.3337 59.349C55.6133 59.4219 55.9086 59.4584 56.2196 59.4584C56.6482 59.4584 57.0481 59.4063 57.4218 59.3047C57.7955 59.2031 58.1457 59.0521 58.4724 58.849H58.5351V59.5703L58.5403 59.5677Z" fill="var(--fill-0, #282828)"/>
<path id="Vector_12" d="M65.5338 59.9037H64.3813L61.7391 57.8437L61.0753 58.3333V59.9037H60.1868V55.2733H61.0753V57.6901L64.3186 55.2733H65.3953L62.4108 57.4505L65.5338 59.9037Z" fill="var(--fill-0, #282828)"/>
<path id="Vector_13" d="M72.1666 59.9037H71.2206L70.5646 58.6146H67.6742L67.0182 59.9037H66.1166L68.5497 55.2733H69.7335L72.1666 59.9037ZM70.2902 58.0859L69.1194 55.8124L67.9433 58.0859H70.2902Z" fill="var(--fill-0, #282828)"/>
<path id="Vector_14" d="M79.1209 59.5625C78.755 59.6797 78.3578 59.7787 77.924 59.8646C77.4927 59.9506 77.0746 59.9922 76.6695 59.9922C76.1494 59.9922 75.6712 59.9428 75.2374 59.8438C74.8035 59.7448 74.435 59.5964 74.1293 59.3959C73.8209 59.1953 73.5831 58.9427 73.4158 58.6432C73.2486 58.3411 73.1649 57.9895 73.1649 57.5833C73.1649 56.8437 73.4759 56.2603 74.1005 55.8332C74.7251 55.4061 75.5797 55.1899 76.6695 55.1899C77.0485 55.1899 77.4379 55.2212 77.8325 55.2837C78.2297 55.3462 78.6557 55.453 79.113 55.604V56.3358H79.032C78.938 56.2863 78.8047 56.2212 78.6296 56.1405C78.4519 56.0598 78.2794 55.9921 78.1095 55.9374C77.903 55.8723 77.6704 55.8202 77.4065 55.7759C77.1452 55.7342 76.8472 55.7134 76.5153 55.7134C75.7679 55.7134 75.1773 55.8801 74.7408 56.2134C74.3044 56.5468 74.0875 56.9973 74.0875 57.565C74.0875 58.164 74.3148 58.6302 74.7696 58.9609C75.2243 59.2943 75.8437 59.461 76.6277 59.461C76.9152 59.461 77.2026 59.4427 77.4875 59.4011C77.7724 59.362 78.0233 59.3099 78.2376 59.25V58.1146H76.4474V57.5729H79.1183V59.5599L79.1209 59.5625Z" fill="var(--fill-0, #282828)"/>
<path id="Vector_15" d="M83.3964 59.9037H80.7569V59.4323H81.6324V55.7473H80.7569V55.2733H83.3964V55.7473H82.5209V59.4323H83.3964V59.9037Z" fill="var(--fill-0, #282828)"/>
<path id="Vector_16" d="M90.3716 59.9037H89.274L86.1065 55.7629V59.9037H85.2755V55.2733H86.6527L89.5432 59.0547V55.2733H90.3716V59.9037Z" fill="var(--fill-0, #282828)"/>
<path id="Vector_17" d="M98.0916 59.5625C97.7257 59.6797 97.3285 59.7787 96.8947 59.8646C96.4635 59.9506 96.0453 59.9922 95.6402 59.9922C95.1202 59.9922 94.6419 59.9428 94.2081 59.8438C93.7743 59.7448 93.4058 59.5964 93.1 59.3959C92.7916 59.1953 92.5538 58.9427 92.3865 58.6432C92.2193 58.3411 92.1356 57.9895 92.1356 57.5833C92.1356 56.8437 92.4466 56.2603 93.0712 55.8332C93.6959 55.4061 94.5504 55.1899 95.6402 55.1899C96.0192 55.1899 96.4086 55.2212 96.8058 55.2837C97.203 55.3462 97.629 55.453 98.0864 55.604V56.3358H98.0054C97.9139 56.2863 97.778 56.2212 97.6029 56.1405C97.4252 56.0598 97.2527 55.9921 97.0828 55.9374C96.8764 55.8723 96.6412 55.8202 96.3798 55.7759C96.1185 55.7342 95.8206 55.7134 95.4886 55.7134C94.7412 55.7134 94.1506 55.8801 93.7141 56.2134C93.2777 56.5468 93.0608 56.9973 93.0608 57.565C93.0608 58.164 93.2882 58.6302 93.7429 58.9609C94.1976 59.2943 94.817 59.461 95.601 59.461C95.8885 59.461 96.1734 59.4427 96.4608 59.4011C96.7457 59.362 96.9966 59.3099 97.2135 59.25V58.1146H95.4233V57.5729H98.0942V59.5599L98.0916 59.5625Z" fill="var(--fill-0, #282828)"/>
<path id="Vector_18" d="M109.18 59.5625C108.814 59.6797 108.417 59.7787 107.983 59.8646C107.552 59.9506 107.131 59.9922 106.729 59.9922C106.209 59.9922 105.731 59.9428 105.297 59.8438C104.863 59.7448 104.494 59.5964 104.189 59.3959C103.88 59.1953 103.642 58.9427 103.475 58.6432C103.308 58.3411 103.224 57.9895 103.224 57.5833C103.224 56.8437 103.538 56.2603 104.16 55.8332C104.785 55.4061 105.639 55.1899 106.729 55.1899C107.108 55.1899 107.497 55.2212 107.894 55.2837C108.292 55.3462 108.718 55.453 109.175 55.604V56.3358H109.094C109.003 56.2863 108.867 56.2212 108.692 56.1405C108.514 56.0598 108.341 55.9921 108.172 55.9374C107.965 55.8723 107.73 55.8202 107.469 55.7759C107.207 55.7342 106.909 55.7134 106.577 55.7134C105.83 55.7134 105.237 55.8801 104.803 56.2134C104.369 56.5468 104.149 56.9973 104.149 57.565C104.149 58.164 104.377 58.6302 104.832 58.9609C105.286 59.2943 105.906 59.461 106.69 59.461C106.977 59.461 107.265 59.4427 107.55 59.4011C107.834 59.362 108.085 59.3099 108.302 59.25V58.1146H106.512V57.5729H109.183V59.5599L109.18 59.5625Z" fill="var(--fill-0, #282828)"/>
<path id="Vector_19" d="M116.628 59.9037H115.476L113.242 58.0625H111.99V59.9037H111.101V55.2733H112.972C113.375 55.2733 113.712 55.2915 113.981 55.328C114.25 55.3644 114.493 55.4295 114.708 55.5233C114.951 55.6275 115.139 55.7603 115.275 55.9217C115.411 56.0832 115.479 56.2863 115.479 56.5338C115.479 56.8671 115.358 57.1458 115.115 57.3723C114.872 57.5963 114.54 57.7656 114.114 57.8802L116.626 59.9037H116.628ZM114.553 56.5754C114.553 56.4426 114.519 56.3254 114.452 56.2238C114.384 56.1223 114.274 56.0337 114.117 55.9634C113.989 55.9035 113.835 55.8619 113.66 55.8384C113.485 55.815 113.275 55.802 113.038 55.802H111.992V57.5494H112.889C113.168 57.5494 113.414 57.5312 113.623 57.4973C113.832 57.4635 114.01 57.3984 114.156 57.3072C114.292 57.2213 114.389 57.1197 114.454 57.0077C114.519 56.8957 114.551 56.7499 114.551 56.578" fill="var(--fill-0, #282828)"/>
<path id="Vector_20" d="M122.838 55.8072C123.11 56.0155 123.319 56.2681 123.465 56.5676C123.609 56.8671 123.682 57.2083 123.682 57.5911C123.682 57.9739 123.609 58.3125 123.46 58.6146C123.311 58.9167 123.105 59.1667 122.838 59.3698C122.564 59.5782 122.237 59.737 121.863 59.8438C121.487 59.948 121.058 60.0027 120.577 60.0027C120.096 60.0027 119.681 59.948 119.297 59.8412C118.913 59.7318 118.586 59.5756 118.317 59.3724C118.048 59.1667 117.841 58.9141 117.695 58.6172C117.548 58.3177 117.478 57.9765 117.478 57.5937C117.478 57.2109 117.548 56.8775 117.692 56.578C117.836 56.2785 118.045 56.0233 118.319 55.8098C118.583 55.6066 118.91 55.4504 119.299 55.3436C119.689 55.2342 120.115 55.1821 120.575 55.1821C121.035 55.1821 121.484 55.2368 121.866 55.3462C122.247 55.4556 122.571 55.6092 122.838 55.8124M122.76 57.5911C122.76 56.9895 122.564 56.5259 122.177 56.2004C121.787 55.8749 121.257 55.7108 120.585 55.7108C119.914 55.7108 119.373 55.8749 118.986 56.2004C118.599 56.5259 118.406 56.9895 118.406 57.5911C118.406 58.1927 118.604 58.6641 118.999 58.9844C119.393 59.3073 119.924 59.4662 120.588 59.4662C121.252 59.4662 121.78 59.3047 122.174 58.9844C122.566 58.6615 122.765 58.1979 122.765 57.5911" fill="var(--fill-0, #282828)"/>
<path id="Vector_21" d="M130.49 58.0442C130.49 58.3802 130.435 58.6719 130.331 58.9219C130.223 59.1719 130.051 59.3802 129.808 59.5443C129.578 59.7032 129.309 59.8178 129 59.8907C128.692 59.9636 128.334 60.0001 127.924 60.0001C127.513 60.0001 127.14 59.961 126.829 59.8855C126.518 59.8099 126.256 59.6953 126.045 59.5469C125.802 59.3776 125.629 59.1719 125.522 58.9323C125.415 58.6927 125.362 58.3958 125.362 58.0468V55.2759H126.251V58.0781C126.251 58.3281 126.275 58.526 126.324 58.6719C126.374 58.8177 126.458 58.9479 126.573 59.0677C126.703 59.2031 126.883 59.3047 127.108 59.3724C127.333 59.4401 127.605 59.474 127.924 59.474C128.242 59.474 128.514 59.4401 128.739 59.3724C128.964 59.3047 129.144 59.2031 129.277 59.0651C129.395 58.9479 129.476 58.8125 129.526 58.6588C129.575 58.5078 129.599 58.3177 129.599 58.0911V55.2733H130.487V58.0442H130.49Z" fill="var(--fill-0, #282828)"/>
<path id="Vector_22" d="M136.924 56.6744C136.924 56.8801 136.872 57.0702 136.77 57.2447C136.668 57.4192 136.522 57.5729 136.336 57.7005C136.106 57.8593 135.834 57.9791 135.521 58.0599C135.207 58.1406 134.81 58.1797 134.332 58.1797H133.443V59.9063H132.555V55.2759H134.368C134.768 55.2759 135.108 55.2993 135.388 55.3462C135.667 55.3931 135.913 55.466 136.127 55.565C136.381 55.6822 136.579 55.8306 136.718 56.0077C136.856 56.1848 136.927 56.4061 136.927 56.677M135.999 56.69C135.999 56.5311 135.957 56.3905 135.879 56.2733C135.798 56.1561 135.675 56.0598 135.51 55.9843C135.367 55.9217 135.202 55.8749 135.019 55.8462C134.836 55.8176 134.604 55.8046 134.321 55.8046H133.441V57.6536H134.191C134.549 57.6536 134.841 57.6302 135.066 57.5859C135.291 57.5416 135.471 57.4687 135.612 57.3723C135.753 57.2734 135.853 57.1692 135.91 57.0572C135.968 56.9478 135.996 56.8228 135.996 56.6874" fill="var(--fill-0, #282828)"/>
</g>
<g id="Group_2">
<path id="Vector_23" d="M11.9145 41.2859L11.917 41.2986L11.9145 41.2859Z" fill="var(--fill-0, #282828)"/>
<path id="Vector_24" d="M19.3419 7.57086C21.0562 7.6594 22.9301 7.67763 24.8091 7.55002V2.5498C23.9833 2.58106 23.1679 2.65918 22.3682 2.77638C21.9134 3.27379 20.6224 4.82334 19.3419 7.57086Z" fill="var(--fill-0, #282828)"/>
<path id="Vector_25" d="M16.1666 4.60979C14.839 5.2218 13.5897 5.95881 12.4268 6.80259C12.7456 6.85728 13.2082 6.93541 13.7962 7.02135C14.6769 5.99006 15.508 5.18534 16.1666 4.60719V4.60979Z" fill="var(--fill-0, #282828)"/>
<path id="Vector_26" d="M7.91865 23.0689C7.91865 20.2876 8.35248 17.8135 9.02935 15.6311C7.24962 15.4774 5.92723 15.342 5.45421 15.2925C4.24159 17.9437 3.55426 20.8761 3.52551 23.9674H7.92649C7.92126 23.6705 7.91604 23.3736 7.91604 23.0663L7.91865 23.0689Z" fill="var(--fill-0, #282828)"/>
<path id="Vector_27" d="M13.493 7.38595C12.7221 7.26876 12.1916 7.1724 11.9773 7.13334C9.28546 9.19593 7.10588 11.8549 5.63453 14.9071C6.20687 14.967 7.48744 15.092 9.15479 15.2379C10.255 11.9044 11.9276 9.29228 13.493 7.38595Z" fill="var(--fill-0, #282828)"/>
<path id="Vector_28" d="M16.7938 16.1702C16.4671 18.2172 16.2659 20.5089 16.2659 23.0689C16.2659 23.3762 16.2711 23.6705 16.2737 23.97H24.8065V16.1572C23.8474 16.2561 22.6661 16.2952 21.362 16.2952C19.9403 16.2952 18.3723 16.2457 16.7912 16.1702H16.7938Z" fill="var(--fill-0, #282828)"/>
<path id="Vector_29" d="M19.1615 7.96671C18.2704 9.96419 17.4053 12.545 16.8565 15.7691C19.8724 15.9124 22.8281 15.954 24.8065 15.7483V7.95369C23.8604 8.01619 22.9144 8.04483 21.9892 8.04483C21.0144 8.04483 20.0632 8.01358 19.1589 7.9641L19.1615 7.96671Z" fill="var(--fill-0, #282828)"/>
<path id="Vector_30" d="M19.2896 40.6452C20.4343 43.2625 21.6286 44.7886 22.3342 45.5439C23.1496 45.6715 23.9728 45.7626 24.8065 45.8043V40.6634C22.9144 40.5358 21.0223 40.5541 19.2922 40.6452H19.2896Z" fill="var(--fill-0, #282828)"/>
<path id="Vector_31" d="M16.9741 32.4365C17.5099 35.7023 18.2939 38.2675 19.1197 40.2468C20.8968 40.1478 22.8517 40.1244 24.8065 40.2546V32.46C22.8517 32.2568 19.9508 32.2959 16.9741 32.4339V32.4365Z" fill="var(--fill-0, #282828)"/>
<path id="Vector_32" d="M16.9088 32.0355C19.8985 31.8948 22.8229 31.8532 24.8065 32.0563V24.3737H16.2789C16.3338 27.2696 16.5638 29.8114 16.9088 32.0355Z" fill="var(--fill-0, #282828)"/>
<path id="Vector_33" d="M7.93687 24.3737H3.52805C3.5568 27.353 4.21538 30.2515 5.44368 32.9183C5.91148 32.8688 7.24954 32.7334 9.04495 32.5771C8.43603 30.314 8.02311 27.6134 7.93687 24.3737Z" fill="var(--fill-0, #282828)"/>
<path id="Vector_34" d="M13.7465 40.791C14.9618 40.614 16.6866 40.403 18.6571 40.2754C17.8313 38.2701 17.0682 35.7049 16.5481 32.4574C14.0732 32.5798 11.58 32.7699 9.57032 32.9391C10.6366 36.6242 12.2334 39.0826 13.7465 40.791Z" fill="var(--fill-0, #282828)"/>
<path id="Vector_35" d="M8.32373 23.0689C8.32373 23.3762 8.32895 23.6731 8.33418 23.97H15.866C15.8634 23.6705 15.8582 23.3736 15.8582 23.0689C15.8582 20.5063 16.0594 18.2067 16.3861 16.152C13.9112 16.027 11.4311 15.8394 9.43965 15.6676C8.75755 17.8317 8.32111 20.298 8.32111 23.0689H8.32373Z" fill="var(--fill-0, #282828)"/>
<path id="Vector_36" d="M14.2718 7.08906C15.4871 7.25574 17.0969 7.44064 18.908 7.54742C20.003 5.15929 21.1216 3.62798 21.7462 2.87534C20.2748 3.13056 18.8558 3.5212 17.502 4.04206C16.9558 4.44832 15.6935 5.45878 14.2692 7.08906H14.2718Z" fill="var(--fill-0, #282828)"/>
<path id="Vector_37" d="M9.1574 32.9756C7.4796 33.1214 6.1938 33.2491 5.62669 33.3063C6.65115 35.4184 8.03103 37.3794 9.74542 39.1087C10.4484 39.8197 11.1959 40.4733 11.9747 41.0801C12.1628 41.0437 12.6149 40.9629 13.2709 40.8614C11.7682 39.1191 10.2054 36.6398 9.1574 32.9756Z" fill="var(--fill-0, #282828)"/>
<path id="Vector_38" d="M9.57032 15.2717C11.5513 15.441 14.0053 15.6259 16.4488 15.7483C16.9924 12.5424 17.8444 9.95638 18.7303 7.94066C16.8382 7.82347 15.1761 7.62555 13.9608 7.45106C12.3928 9.32093 10.6915 11.9226 9.57294 15.2717H9.57032Z" fill="var(--fill-0, #282828)"/>
<path id="Vector_39" d="M14.0758 41.153C14.9748 42.1166 15.8294 42.8224 16.4985 43.3771C16.8774 43.6922 17.2067 43.9631 17.4628 44.2157C18.8218 44.7548 20.2356 45.1662 21.6887 45.4371C20.8707 44.4891 19.8123 42.9708 18.8218 40.6739C16.948 40.7884 15.2911 40.9838 14.0732 41.1556L14.0758 41.153Z" fill="var(--fill-0, #282828)"/>
<path id="Vector_40" d="M13.5897 41.2234C13.0932 41.2989 12.696 41.364 12.4163 41.4135C13.6106 42.2911 14.8834 43.0464 16.2214 43.674C15.4975 43.075 14.5645 42.2989 13.5897 41.2234Z" fill="var(--fill-0, #282828)"/>
<path id="Vector_41" d="M8.34202 24.3737C8.43088 27.6082 8.8438 30.2958 9.45533 32.5433C11.4703 32.3714 13.9844 32.1813 16.4854 32.0563C16.1457 29.8218 15.9209 27.2774 15.8712 24.3737H8.34202Z" fill="var(--fill-0, #282828)"/>
</g>
<g id="Group_3">
<path id="Vector_42" d="M93.3535 5.58618L111.961 7.91701L112.003 14.5944L101.026 13.2089L101.071 20.0764L112.037 20.0503L112.079 26.5793L101.11 26.6053L101.162 34.6786L112.123 33.6733L112.165 40.3481L93.5861 42.5617L93.3535 5.58618Z" fill="var(--fill-0, #282828)"/>
<path id="Vector_43" d="M114.248 8.20088L121.756 9.13842L126.235 20.0712L131.277 10.3312L136.833 11.0109L137 37.4938L130.657 38.2386L130.568 24.2484L125.765 32.5509L120.901 24.2719L120.998 39.3975L114.451 40.1788L114.248 8.20088Z" fill="var(--fill-0, #282828)"/>
<path id="Vector_44" d="M86.7651 4.73719C89.7783 5.1122 91.0667 7.86753 91.0824 10.3494L91.1817 25.8709C91.1922 27.6262 90.0397 29.5456 88.3174 29.7695L77.8272 31.0118L77.9108 44.3561L70.2928 45.2624L70.0236 2.63553L86.7651 4.73979V4.73719ZM84.1308 21.928L84.0706 12.1594C84.0654 11.5526 83.4879 10.9849 82.6333 10.8755L77.6965 10.2609L77.7802 23.7458L82.7091 23.4281C83.4722 23.3786 84.136 22.7901 84.1308 21.9306" fill="var(--fill-0, #282828)"/>
<path id="Vector_45" d="M63.6338 1.82039C66.0303 2.11988 67.6924 4.22935 67.7133 7.56543L67.9276 41.3377C67.9407 43.3639 66.7098 45.5931 63.9134 45.9213C59.2198 46.4838 54.5104 47.0437 49.8141 47.6141C49.4143 47.6609 49.0353 47.6844 48.6773 47.6844C44.9662 47.6922 43.5942 45.3197 43.5837 43.718L43.3459 5.91953C43.3198 2.05217 45.6065 0.00781284 48.6093 0C48.9046 0 49.2052 0.01823 49.5136 0.0572942L63.6338 1.82039ZM60.7094 38.6788L60.5265 9.83637C60.5186 8.7608 59.7686 7.98993 59.0786 7.90659L52.7098 7.09927C52.6732 7.09406 52.634 7.09406 52.5974 7.09406C51.897 7.09406 51.0685 7.85972 51.0738 8.77382L51.2672 39.2022C51.2724 39.8793 52.025 40.7335 52.8692 40.7309L59.2825 40.0851C60.1815 40.0043 60.712 39.3637 60.7094 38.6814" fill="var(--fill-0, #282828)"/>
</g>
</g>
</svg>
