<svg width="75" height="49" viewBox="0 0 75 49" fill="none" xmlns="http://www.w3.org/2000/svg">
<path d="M20.6366 36.2154H16.2563L18.4465 31.1794L20.6366 36.2154ZM21.273 37.6366L22.6792 40.7568H24.3299L18.4465 27.7754L12.563 40.7568H14.2137L15.6199 37.6366H21.273Z" fill="#282828"/>
<path d="M70.4419 35.1531H65.0353L67.7386 28.9371L70.4399 35.1531H70.4419ZM71.2299 36.9068L72.9654 40.7588H75.002L67.7406 24.7363L60.4792 40.7588H62.5158L64.2514 36.9068H71.2299Z" fill="#282828"/>
<path d="M33.8926 40.7589H40.5115V39.3377H35.4301V34.6301H40.364V33.2089H35.4301V29.7259H40.5115V28.3047H33.8926V40.7589Z" fill="#282828"/>
<path d="M44.1604 39.3377L50.4035 28.3047H42.542V29.7259H47.9042L41.6611 40.7589H50.4035V39.3377H44.1604Z" fill="#282828"/>
<path d="M53.8563 39.3377L60.0994 28.3047H52.238V29.7259H57.5981L51.353 40.7589H60.0994V39.3377H53.8563Z" fill="#282828"/>
<path d="M24.6169 22.0317H24.1158V26.0926H24.6169V22.0317Z" fill="#282828"/>
<path d="M28.5587 22.0317H28.0597V26.0926H29.7811V25.6304H28.5587V22.0317Z" fill="#282828"/>
<path d="M46.7587 26.0926H48.9165V25.6304H47.2597V24.0956H48.87V23.6334H47.2597V22.494H48.9165V22.0317H46.7587V26.0926Z" fill="#282828"/>
<path d="M52.1794 26.0928H52.6805V23.068L55.699 26.2611V22.032H55.198V25.0305L52.1794 21.8394V26.0928Z" fill="#282828"/>
<path d="M42.3703 8.45231C42.1946 7.97587 41.7622 8.09548 41.5682 8.16442C41.4026 8.22524 41.2207 8.29011 41.0611 8.3631C40.9035 8.43811 40.6732 8.45433 40.5297 8.53543C40.2974 8.66315 40.1155 8.89022 39.9963 9.10512C39.962 9.17 39.8125 9.5694 39.8872 9.60995C39.9438 9.64036 40.1115 9.3768 40.2004 9.42951C40.3257 9.50047 40.3661 9.66468 40.5196 9.69307C40.6611 9.72145 40.857 9.68901 41.0207 9.5917C41.2005 9.48627 41.2248 9.24704 41.2369 9.23893C41.3298 9.14973 41.5581 9.2734 41.6107 9.41532C41.6632 9.55521 41.346 9.73159 41.1379 9.8066C40.9035 9.89581 40.36 9.83296 40.3742 9.91405C40.5095 10.06 41.3076 9.88364 41.5076 9.79038C41.6935 9.7032 41.8309 9.52479 41.9339 9.33422C41.9885 9.23691 42.0895 9.29367 42.1279 9.20852C42.1744 9.10918 42.1885 9.03214 42.2976 8.98956C42.2754 8.9105 42.2148 8.96929 42.1461 8.96726C42.0733 8.96524 42.0006 8.98551 41.9198 8.9774C41.8572 8.96929 41.8551 8.93077 41.7743 8.93888C41.5723 8.95915 41.5581 9.07471 41.3662 8.91252C41.2349 8.80102 41.152 8.92063 40.9884 8.9551C40.8005 8.99767 40.7681 8.91658 40.9096 8.78074C41.1056 8.59625 41.3844 8.44217 41.6208 8.3185C41.9784 8.13198 42.138 8.23943 42.338 8.50705C42.5885 8.84359 42.3663 8.45433 42.3663 8.45433M40.5035 9.21055L40.8793 9.15986C40.8793 9.15986 40.9379 9.23488 40.8732 9.38085C40.8005 9.55723 40.6106 9.5106 40.5863 9.49641C40.4368 9.41329 40.5035 9.21258 40.5035 9.21258" fill="#282828"/>
<path d="M37.8162 11.6881C37.8546 11.6314 37.8708 11.6557 37.893 11.6699C37.9152 11.682 37.8385 11.9476 37.992 12.0997C38.1132 12.2193 38.2527 12.2396 38.4103 12.2051C38.584 12.1666 38.6911 12.0855 38.8749 12.1443C39.0406 12.2011 39.1517 12.3511 39.3336 12.3876C39.2992 12.416 39.2043 12.5153 39.1841 12.5214C39.1315 12.5356 39.1053 12.495 39.0507 12.5072C38.9982 12.5234 38.8952 12.5781 38.8446 12.5964C38.6466 12.6694 38.4688 12.716 38.2607 12.6349C38.0809 12.564 37.9415 12.3937 37.8627 12.2254C37.79 12.0713 37.7334 11.8179 37.8142 11.6861" fill="#282828"/>
<path d="M39.475 12.3916C39.6487 12.5538 39.7518 12.272 39.8952 12.2679C39.9599 12.128 39.8083 12.1057 39.7336 12.1686C39.7336 12.1686 39.6124 12.3429 39.475 12.3916Z" fill="#282828"/>
<path d="M39.8427 13.9001C39.6649 14.0177 39.475 14.0339 39.2366 14.1089C39.0487 14.1697 38.6668 14.1028 38.6547 14.2853C38.687 14.3765 38.8972 14.3664 39.0406 14.3907C39.1517 14.409 39.2326 14.3137 39.3255 14.3198C39.4002 14.3238 39.4023 14.4556 39.4992 14.4232C39.7579 14.3421 40.0165 14.0582 40.0973 13.8596C40.065 13.8514 39.9963 13.8008 39.8427 13.9001ZM37.4283 13.7278C37.4445 13.8697 38.1193 14.0745 38.283 14.0826C38.6729 14.1028 39.0002 14.0603 39.176 14.0238C39.2427 14.0076 39.5558 13.9548 39.5154 13.8373C39.4811 13.7379 39.1356 13.7825 39.0649 13.7845C38.7557 13.8008 38.4506 13.7582 38.1476 13.7602C37.9132 13.7622 37.3919 13.6365 37.4283 13.7278ZM36.8666 13.4237C37.1616 13.4744 37.594 13.4744 38.0041 13.5007C38.2567 13.5169 38.481 13.377 38.7598 13.3405C38.9335 13.3162 39.0346 13.5048 39.1578 13.5129C39.2911 13.525 39.374 13.3811 39.4912 13.3588C39.6387 13.3264 39.8387 13.4967 40.0064 13.5088C40.1801 13.521 40.3115 13.446 40.469 13.4561C40.6165 13.4683 40.564 13.6021 40.5377 13.6082C40.4165 13.6325 40.366 13.7095 40.265 13.8474C40.1842 13.9609 40.0791 14.0887 39.9942 14.2022C39.8043 14.4597 39.5922 14.6279 39.3194 14.7617C38.6951 15.078 38.2264 14.93 37.7273 14.4982C37.5314 14.3299 37.394 14.192 37.2263 13.9974C37.1535 13.9163 36.8101 13.521 36.8727 13.4277L36.8666 13.4237Z" fill="#282828"/>
<path d="M35.0967 1.50839C34.824 1.70505 34.2906 2.15107 34.4845 3.32696C34.6926 4.57178 36.1069 5.13539 36.6969 5.00969C36.9555 4.95293 36.9979 4.93874 36.9777 4.84345C36.9595 4.74816 35.9776 4.57178 35.4301 3.78312C34.8442 2.94176 35.1674 1.96455 35.4644 1.68477C35.9695 1.21239 35.6624 1.27524 35.6624 1.27524C35.6624 1.27524 35.3594 1.3239 35.0947 1.51042M32.9813 10.7715C32.4884 10.7513 32.2257 11.4203 32.258 11.9515C32.2883 12.4948 32.4156 12.801 32.9227 12.7888C33.3571 12.7807 33.6279 12.3164 33.5693 11.4852C33.543 11.1304 33.4299 10.7918 32.9834 10.7736M39.8871 16.655C39.7598 16.7848 39.4063 16.8578 39.2527 17.1132C39.0345 17.4802 38.6628 17.8694 38.7577 18.0316C38.8911 18.2668 39.475 19.0778 39.4608 19.0575C39.4608 19.0575 39.6406 18.877 39.6043 18.6338C39.5558 18.2648 39.774 17.5795 39.8245 17.4031C39.9154 17.1051 40.1862 16.6753 40.1397 16.5861C40.0932 16.4989 39.9477 16.5922 39.8851 16.653M39.6608 20.4685L39.1456 20.4564C39.1456 20.4564 37.3576 18.0276 34.3088 17.7397C31.4155 17.466 30.7468 20.3246 30.7104 20.3996C30.674 20.4746 30.1891 20.4199 30.1891 20.4199L30.9892 18.9318C30.9892 18.9318 30.7569 18.7007 30.8761 18.3641C31.0357 17.9262 31.3832 17.4518 31.3832 17.4518L30.8195 17.4599C30.8195 17.4599 31.0337 16.4523 31.2498 16.1218C31.6782 15.4589 32.0499 15.1102 32.359 14.8709C32.6621 14.6398 33.042 14.4715 32.8924 14.3702C32.8338 14.3296 31.1973 14.5364 30.2659 13.7822C29.3325 13.028 28.8112 11.5926 29.2537 10.4451C29.7123 9.25505 30.676 8.94689 30.6983 8.7847C30.7164 8.63467 29.779 7.84601 30.8074 6.81002C30.9831 6.63161 30.1123 6.29911 30.7286 4.69342C31.4943 2.70252 33.2278 1.52055 33.539 1.51853C33.5895 1.51853 33.5976 1.52461 33.545 1.63814C32.8844 3.11206 33.2723 3.8926 33.4339 4.23929C33.6562 4.7218 34.3512 5.73753 35.5796 5.74766C35.6281 5.74766 35.6746 5.80646 35.6362 5.82268C35.1412 6.03555 34.6745 6.68229 34.3956 7.19928C34.3411 7.30065 34.1512 7.7933 34.1168 7.9636C34.0643 8.22716 34.1451 8.97527 34.1249 9.12732C34.0643 9.61593 33.9734 9.95247 33.9754 10.2566C33.9754 10.6519 34.0421 12.3205 34.9816 13.7619C36.1211 15.5156 37.794 16.5232 38.097 16.5922C38.7294 16.7361 39.7073 16.9429 40.469 15.7832C41.851 13.6707 42.4995 12.3793 42.6511 11.3372C42.7157 10.8952 42.5884 10.4188 42.5602 10.3519C42.445 10.0843 42.2389 9.72743 42.2389 9.72743C42.2389 9.72743 42.5339 9.33412 42.5541 8.9185C42.5723 8.50289 42.4106 6.94991 42.3925 6.61133C42.3682 6.1795 42.2288 5.91391 42.0934 5.71117C41.8065 5.27528 41.1418 5.06038 40.1154 4.94076C39.7982 4.90224 39.5558 4.80695 39.5558 4.80695C39.5558 4.80695 38.39 5.36449 37.6142 5.50438C35.9352 5.8024 35.424 5.47802 34.8886 5.01375C33.8845 4.13994 33.7047 2.88702 33.8218 2.29299C34.0683 1.04615 34.8038 0.348723 36.0059 0.0770527C37.2384 -0.204755 38.1011 0.377107 38.1819 0.377107C38.4425 0.377107 38.5153 0.141929 39.1618 0.194641C39.7255 0.241271 40.0407 0.362915 40.5983 0.754201C41.1398 1.1313 41.2832 1.40499 41.4186 1.46987C41.8207 1.65842 42.3419 1.63814 42.9885 2.18757C43.8189 2.89715 43.8653 3.53984 43.8552 3.77501C43.8472 4.03046 43.7199 4.13183 43.7542 4.24131C43.7623 4.27375 43.8552 4.32646 44.128 4.88197C44.4048 5.44761 44.3866 5.8612 44.3341 6.07002C44.2613 6.35588 44.2815 6.50996 44.2815 6.50996C44.4311 6.69851 45.415 7.52163 45.1746 8.82322C44.9301 10.1228 44.1927 10.8607 43.8674 11.2622C43.3724 11.8684 42.8794 11.9596 42.7703 11.99C42.7117 12.0062 42.7642 12.0954 42.5985 12.5617C42.3541 13.2591 41.5318 14.6682 41.2509 15.1811C40.9701 15.688 40.7357 15.984 40.4751 16.5881C40.2144 17.1903 39.7457 18.5486 39.875 18.6703C39.9841 18.7716 40.7357 18.0337 41.8813 17.8431C43.4532 17.5795 44.4876 17.7336 44.5058 17.8978C44.5179 18.0032 43.8209 18.206 43.5885 18.5912L44.7442 19.0068C44.7442 19.0068 43.827 19.5562 43.534 19.7691C43.4875 19.8015 42.4308 20.4584 42.4308 20.4584C42.4308 20.4584 41.6833 20.505 41.6833 20.4706C41.6732 20.0428 42.8026 18.5304 43.6249 18.0458C43.8775 17.8978 42.5298 17.9444 41.7964 18.1593C41.0085 18.3905 40.2266 18.6703 39.7437 19.2704C39.6629 19.3697 40.4347 20.5152 40.4347 20.5152L40.1094 20.4949C40.1094 20.4949 39.6305 19.761 38.9618 18.8385C38.287 17.914 37.1131 16.4361 36.7413 16.1502C36.3797 15.8745 34.535 14.7026 33.7915 14.7432C32.8844 14.7939 32.2621 15.2541 31.9449 15.6657C31.6256 16.0813 31.2296 16.655 31.3973 16.7868C31.567 16.9186 33.5309 16.3732 35.2119 16.949C36.7878 17.4903 38.2668 18.8527 39.6649 20.4685" fill="#282828"/>
<path d="M36.1737 9.63017C36.305 9.68694 36.404 9.64842 36.4828 9.55718C36.5353 9.49839 36.503 9.33012 36.503 9.33012L36.0666 9.35647C36.0666 9.35647 36.0403 9.57543 36.1717 9.6322M35.1372 9.13751C35.2342 9.05642 35.3999 9.12332 35.5372 9.10102C35.4827 9.07466 35.5029 9.03817 35.5009 8.99965C35.5635 8.95302 35.6625 9.04628 35.7575 9.0625C35.8645 9.08277 35.9332 9.05236 36.0484 9.04628C36.2808 9.03412 36.4666 9.10508 36.6808 9.16184C37.0606 9.26321 37.5597 9.36661 37.8082 9.70316C38.0607 9.47203 37.4526 9.05642 37.2748 8.9591C36.9152 8.76042 36.5778 8.63067 36.1757 8.59012C35.8161 8.55768 35.4584 8.50699 35.1251 8.67932C34.9594 8.7665 34.8442 8.90031 34.7392 9.05034C34.6462 9.17198 34.5412 9.28957 34.6361 9.05236C34.7028 8.87801 34.9836 8.57795 35.1675 8.53132C35.4544 8.45631 35.9029 8.45631 36.204 8.47253C36.507 8.48875 36.6444 8.46442 37.0061 8.50294C37.2667 8.53335 37.5779 8.62256 37.8082 8.76853C38.0628 8.93072 38.2426 9.18414 38.3254 9.47609C38.3921 9.70518 38.576 10.2282 38.4567 10.2749C38.3638 10.2607 38.4244 9.98091 38.1416 9.85926C37.9436 9.77411 37.792 9.90184 37.6385 9.76195C37.4546 9.59368 37.1657 9.27538 37.0303 9.58354C36.9657 9.73357 36.8889 9.76398 36.7374 9.81669C36.5879 9.8694 36.4282 9.86129 36.2707 9.83494C36.1535 9.81669 35.9999 9.70113 35.9575 9.87751C35.9454 9.92617 36.0403 10.0215 36.1494 10.0579C36.5374 10.1938 36.9455 10.0215 36.9637 10.1046C36.7717 10.3479 36.006 10.137 35.7959 9.97888C35.608 9.83696 35.5736 9.64233 35.3756 9.59773C35.119 9.53894 34.9675 9.49636 34.8321 9.2916C34.9109 9.19023 35.0766 9.28146 35.1392 9.13751" fill="#282828"/>
<path d="M70.737 26.0745V25.59H71.2381C71.4401 25.59 71.6927 25.6244 71.6927 25.8191C71.6927 26.1191 71.2845 26.0745 71.0522 26.0745H70.735H70.737ZM71.3654 26.3401C71.6987 26.332 71.9573 26.1941 71.9573 25.8231C71.9573 25.4176 71.628 25.3264 71.2886 25.3264H70.4723V27.2078H70.735V26.3381H71.0522L71.6139 27.2078H71.9311L71.3654 26.3381V26.3401ZM71.1148 27.7309C70.3289 27.7309 69.6561 27.0882 69.6561 26.2773C69.6561 25.4663 70.3289 24.8236 71.1148 24.8236C71.9008 24.8236 72.5715 25.4663 72.5715 26.2773C72.5715 27.0882 71.9008 27.7309 71.1148 27.7309ZM71.1148 27.9965C72.0765 27.9965 72.8362 27.2342 72.8362 26.2793C72.8362 25.3244 72.0765 24.5601 71.1148 24.5601C70.1531 24.5601 69.3934 25.3224 69.3934 26.2793C69.3934 27.2362 70.1531 27.9965 71.1148 27.9965Z" fill="#282828"/>
<path d="M8.58481 44.7022C8.41711 44.5339 8.16052 44.3332 7.88979 44.2055C7.61097 44.0777 7.28366 43.9966 6.97049 43.9966C5.74006 43.9966 4.82885 44.9901 4.82885 46.2247C4.82885 47.6764 6.00271 48.4042 6.97858 48.4042C7.33821 48.4042 7.68976 48.3008 7.96858 48.1548C8.27164 48.0028 8.48783 47.8021 8.58279 47.7068V48.4447C7.99081 48.8705 7.3766 48.9658 6.97656 48.9658C5.39457 48.9658 4.2207 47.7635 4.2207 46.2166C4.2207 44.6697 5.41073 43.4351 7.00888 43.4351C7.32811 43.4351 7.94434 43.4756 8.58279 43.9642V44.7022H8.58481Z" fill="#282828"/>
<path d="M9.32227 47.2181C9.32227 46.2085 10.0658 45.4624 11.08 45.4624C12.0943 45.4624 12.8378 46.2085 12.8378 47.2181C12.8378 48.2278 12.0862 48.9657 11.08 48.9657C10.0739 48.9657 9.32227 48.2278 9.32227 47.2181ZM9.91223 47.2181C9.91223 48.0352 10.488 48.4528 11.078 48.4528C11.668 48.4528 12.2438 48.0271 12.2438 47.2181C12.2438 46.4092 11.6841 45.9753 11.078 45.9753C10.4719 45.9753 9.91223 46.4092 9.91223 47.2181Z" fill="#282828"/>
<path d="M15.0805 46.3119C14.9996 46.1193 14.8319 45.9753 14.6178 45.9753C14.4036 45.9753 14.2177 46.0949 14.2177 46.3524C14.2177 46.5937 14.3774 46.6646 14.7532 46.8248C15.232 47.0255 15.4563 47.1776 15.5835 47.3377C15.727 47.5141 15.7593 47.6905 15.7593 47.875C15.7593 48.5724 15.2562 48.9657 14.6178 48.9657C14.4824 48.9657 13.7389 48.9495 13.4601 48.1163L13.9551 47.9074C14.0197 48.0838 14.2117 48.4528 14.6259 48.4528C15.0017 48.4528 15.1694 48.173 15.1694 47.9237C15.1694 47.6114 14.9451 47.506 14.6339 47.3702C14.2339 47.1938 13.9793 47.0661 13.8278 46.8816C13.7005 46.7214 13.6763 46.5612 13.6763 46.393C13.6763 45.8071 14.0844 45.4624 14.642 45.4624C14.8178 45.4624 15.2886 45.4948 15.5532 46.0645L15.0825 46.3139L15.0805 46.3119Z" fill="#282828"/>
<path d="M16.527 45.5435H17.1029V45.8963C17.2867 45.6246 17.5736 45.4624 17.9252 45.4624C18.5252 45.4624 18.7636 45.8882 18.8283 45.9997C19.1475 45.4948 19.6021 45.4624 19.8264 45.4624C20.8083 45.4624 20.9053 46.2875 20.9053 46.7599V48.8684H20.3295V46.8491C20.3295 46.472 20.281 45.9753 19.7375 45.9753C19.0748 45.9753 19.0021 46.616 19.0021 47.0174V48.8684H18.4262V46.8958C18.4262 46.6626 18.4343 45.9733 17.8282 45.9733C17.1736 45.9733 17.1008 46.6545 17.1008 47.0559V48.8684H16.525V45.5415L16.527 45.5435Z" fill="#282828"/>
<path d="M24.9401 48.0209C24.8451 48.2054 24.6996 48.4061 24.5319 48.5582C24.2289 48.8298 23.8531 48.9677 23.4288 48.9677C22.6307 48.9677 21.7922 48.4629 21.7922 47.2282C21.7922 46.2348 22.3984 45.4644 23.3985 45.4644C24.045 45.4644 24.4531 45.7847 24.6532 46.0726C24.8613 46.3686 24.9805 46.8815 24.9643 47.3235H22.3842C22.3923 48.0128 22.8631 48.4527 23.4389 48.4527C23.7096 48.4527 23.9258 48.3716 24.1177 48.2115C24.2693 48.0837 24.3885 47.9155 24.4612 47.7553L24.9401 48.0189V48.0209ZM24.3723 46.841C24.2774 46.3199 23.8854 45.9753 23.3985 45.9753C22.9115 45.9753 22.5115 46.3442 22.4246 46.841H24.3743H24.3723Z" fill="#282828"/>
<path d="M26.4332 46.0727V48.8705H25.8574V46.0727H25.5059V45.5435H25.8574V44.3413H26.4332V45.5435H27.0091V46.0727H26.4332Z" fill="#282828"/>
<path d="M27.8394 43.877C28.0637 43.877 28.2475 44.0614 28.2475 44.2865C28.2475 44.5115 28.0637 44.696 27.8394 44.696C27.6151 44.696 27.4313 44.5115 27.4313 44.2865C27.4313 44.0614 27.6151 43.877 27.8394 43.877ZM28.1283 45.5435V48.8704H27.5525V45.5435H28.1283Z" fill="#282828"/>
<path d="M31.8096 46.472C31.5065 46.0868 31.0661 45.9753 30.7711 45.9753C30.1569 45.9753 29.5972 46.4092 29.5972 47.2181C29.5972 48.0271 30.1731 48.4528 30.763 48.4528C31.1065 48.4528 31.5308 48.3007 31.8338 47.9318V48.6211C31.4742 48.8846 31.0903 48.9657 30.7792 48.9657C29.7488 48.9657 29.0052 48.2278 29.0052 47.2262C29.0052 46.2247 29.7568 45.4624 30.7792 45.4624C31.3065 45.4624 31.65 45.6712 31.8096 45.7827V46.472Z" fill="#282828"/>
<path d="M33.0016 43.877C33.2259 43.877 33.4098 44.0614 33.4098 44.2865C33.4098 44.5115 33.2259 44.696 33.0016 44.696C32.7774 44.696 32.5935 44.5115 32.5935 44.2865C32.5935 44.0614 32.7774 43.877 33.0016 43.877ZM33.2885 45.5435V48.8704H32.7127V45.5435H33.2885Z" fill="#282828"/>
<path d="M38.776 43.0254H39.3518V48.8683H38.776V48.4041C38.584 48.6534 38.2244 48.9656 37.6425 48.9656C36.804 48.9656 36.0282 48.3716 36.0282 47.2018C36.0282 46.032 36.796 45.4623 37.6425 45.4623C38.281 45.4623 38.6244 45.8151 38.776 46.0158V43.0254ZM36.6202 47.2018C36.6202 47.9155 37.0202 48.4527 37.7072 48.4527C38.3941 48.4527 38.8103 47.8668 38.8103 47.2099C38.8103 46.3523 38.2183 45.9752 37.7072 45.9752C37.1394 45.9752 36.6202 46.3929 36.6202 47.2018Z" fill="#282828"/>
<path d="M42.9784 45.5434H43.5542V48.8704H42.9784V48.4061C42.7864 48.6555 42.4268 48.9677 41.8449 48.9677C41.0064 48.9677 40.2306 48.3737 40.2306 47.2039C40.2306 46.0341 40.9984 45.4644 41.8449 45.4644C42.4834 45.4644 42.8268 45.8171 42.9784 46.0178V45.5455V45.5434ZM40.8226 47.2018C40.8226 47.9155 41.2226 48.4527 41.9096 48.4527C42.5965 48.4527 43.0127 47.8668 43.0127 47.2099C43.0127 46.3524 42.4207 45.9753 41.9096 45.9753C41.3418 45.9753 40.8226 46.3929 40.8226 47.2018Z" fill="#282828"/>
<path d="M45.2171 43.0254V48.8683H44.6412V43.0254H45.2171Z" fill="#282828"/>
<path d="M49.7469 44.0836H48.8518L49.163 43.522H50.3368V48.8682H49.7448V44.0836H49.7469Z" fill="#282828"/>
<path d="M56.0566 47.3945C56.0566 48.2277 55.5131 48.9657 54.4261 48.9657C53.3391 48.9657 52.7957 48.2277 52.7957 47.3945C52.7957 46.8167 53.0583 46.3281 53.6018 46.0888C53.1775 45.8395 52.9553 45.4157 52.9553 44.919C52.9553 44.1567 53.4664 43.437 54.4241 43.437C55.3818 43.437 55.893 44.1588 55.893 44.919C55.893 45.4157 55.6687 45.8415 55.2464 46.0888C55.7899 46.3301 56.0526 46.8187 56.0526 47.3945H56.0566ZM55.4666 47.3783C55.4666 46.7761 55.0363 46.3605 54.4282 46.3605C53.82 46.3605 53.3897 46.7782 53.3897 47.3783C53.3897 47.9784 53.8139 48.4203 54.4282 48.4203C55.0424 48.4203 55.4666 47.9865 55.4666 47.3783ZM55.3373 44.9251C55.3373 44.3392 54.9131 43.9783 54.4261 43.9783C53.9392 43.9783 53.5149 44.3392 53.5149 44.9251C53.5149 45.4543 53.9069 45.8476 54.4261 45.8476C54.9454 45.8476 55.3373 45.4543 55.3373 44.9251Z" fill="#282828"/>
<path d="M58.1032 48.6697L59.3256 46.9626C59.1741 47.0113 59.0225 47.0356 58.8548 47.0356C57.8325 47.0356 57.1294 46.2652 57.1294 45.2718C57.1294 44.2054 57.8972 43.437 58.9579 43.437C60.2126 43.437 60.8025 44.4142 60.8025 45.2556C60.8025 45.4563 60.7621 45.9287 60.3641 46.4822L58.5518 48.9981L58.1053 48.6697H58.1032ZM57.7194 45.2556C57.7194 45.9692 58.2467 46.4903 58.974 46.4903C59.7014 46.4903 60.2126 45.953 60.2126 45.2556C60.2126 44.5582 59.7095 43.9804 58.966 43.9804C58.2224 43.9804 57.7194 44.5338 57.7194 45.2556Z" fill="#282828"/>
<path d="M65.1323 47.3945C65.1323 48.2277 64.5889 48.9657 63.5019 48.9657C62.4149 48.9657 61.8734 48.2277 61.8734 47.3945C61.8734 46.8167 62.1361 46.3281 62.6796 46.0888C62.2553 45.8395 62.033 45.4157 62.033 44.919C62.033 44.1567 62.5442 43.437 63.5019 43.437C64.4595 43.437 64.9707 44.1588 64.9707 44.919C64.9707 45.4157 64.7464 45.8415 64.3242 46.0888C64.8677 46.3301 65.1303 46.8187 65.1303 47.3945H65.1323ZM64.5424 47.3783C64.5424 46.7761 64.112 46.3605 63.5039 46.3605C62.8957 46.3605 62.4654 46.7782 62.4654 47.3783C62.4654 47.9784 62.8897 48.4203 63.5039 48.4203C64.1181 48.4203 64.5424 47.9865 64.5424 47.3783ZM64.4131 44.9251C64.4131 44.3392 63.9888 43.9783 63.5019 43.9783C63.0149 43.9783 62.5907 44.3392 62.5907 44.9251C62.5907 45.4543 62.9826 45.8476 63.5019 45.8476C64.0211 45.8476 64.4131 45.4543 64.4131 44.9251Z" fill="#282828"/>
<path d="M26.6596 29.6934H27.0677C28.587 29.6934 30.4196 29.9752 30.4196 31.9235C30.4196 33.8718 28.7184 34.2023 27.1485 34.2023H26.6596V29.6934ZM28.8982 35.3417C30.6782 35.1268 31.8561 33.6407 31.8561 31.8566C31.8561 30.6665 31.2681 29.4947 30.2377 28.8865C29.2578 28.3208 28.0799 28.3066 26.9848 28.3066H25.12V40.7589H26.6575V35.4897H27.294L30.9226 40.7589H32.7875L28.8982 35.3417Z" fill="#282828"/>
<path d="M19.3011 22.4838H19.4345C19.9295 22.4838 20.5275 22.5568 20.5275 23.1934C20.5275 23.83 19.9739 23.9375 19.4607 23.9375H19.3011V22.4838ZM19.3011 24.3916H19.59C20.3517 24.3916 20.9983 24.0612 20.9983 23.2056C20.9983 22.4636 20.6144 22.0317 19.3759 22.0317H18.8V26.0926H19.3011V24.3916Z" fill="#282828"/>
<path d="M11.7689 25.6059C10.6335 24.8841 9.29999 24.5557 7.98672 24.5557C3.56604 24.5557 0 28.1421 0 32.7382C0 37.3343 3.54584 40.7586 7.82509 40.7586C9.13836 40.7586 10.6133 40.3673 11.7689 39.6638V37.3769C10.6537 38.4068 9.2414 38.9826 7.76649 38.9826C4.42068 38.9826 1.87293 36.0773 1.87293 32.6754C1.87293 29.2734 4.4429 26.3276 7.8069 26.3276C9.21918 26.3276 10.6921 26.8649 11.7689 27.8522V25.6038V25.6059Z" fill="#282828"/>
<path d="M34.628 25.7055C33.7572 25.7055 33.0238 24.9898 33.0238 24.0613C33.0238 23.1327 33.6844 22.4191 34.628 22.4191C35.5715 22.4191 36.2322 23.1672 36.2322 24.0613C36.2322 24.9554 35.4968 25.7055 34.628 25.7055ZM34.628 21.9487C33.4763 21.9487 32.5227 22.8996 32.5227 24.0633C32.5227 25.227 33.4642 26.1799 34.628 26.1799C35.7917 26.1799 36.7333 25.2696 36.7333 24.0633C36.7333 22.857 35.7776 21.9487 34.628 21.9487Z" fill="#282828"/>
<path d="M41.9783 24.0467V24.509H43.0168C42.9966 25.1719 42.3238 25.7153 41.6995 25.7153C40.8327 25.7153 40.1397 24.9064 40.1397 24.0549C40.1397 23.1446 40.8428 22.4066 41.7419 22.4066C42.2329 22.4066 42.7178 22.6701 43.0067 23.0695L43.3583 22.7289C42.9643 22.2282 42.3481 21.9443 41.7217 21.9443C40.564 21.9443 39.6387 22.9013 39.6387 24.0711C39.6387 25.2409 40.5418 26.1755 41.6672 26.1755C42.7925 26.1755 43.5704 25.3199 43.5704 24.2049V24.0447H41.9763L41.9783 24.0467Z" fill="#282828"/>
</svg>
