<svg width="79" height="93" viewBox="0 0 79 93" fill="none" xmlns="http://www.w3.org/2000/svg">
<g clip-path="url(#clip0_1_502)">
<path d="M5.21483 5.21483H73.0147V21.0766C67.4073 23.2705 63.0792 23.7051 58.4566 23.8382C53.7569 23.9714 46.6671 23.3826 41.5504 21.8336C36.4337 20.2846 29.6103 18.7215 22.3523 18.683C16.2228 18.6514 7.69258 20.3617 5.21483 20.8944V5.21483ZM5.21483 73.0182V39.1393L70.8488 73.0182H5.21483ZM78.233 0H0V78.233H78.233V0Z" fill="#282828"/>
<path d="M78.233 79.8906H0V81.7551H78.233V79.8906Z" fill="#282828"/>
<path d="M76.8452 91.0671C76.9854 91.1757 77.1711 91.2283 77.4024 91.2283C77.6898 91.2283 77.9001 91.1371 78.0332 90.9514C78.1664 90.7692 78.233 90.4713 78.233 90.0683V89.7388H77.8545C77.8545 89.7809 77.8545 89.8334 77.858 89.9035C77.858 89.9701 77.8615 90.0192 77.8615 90.0507C77.8615 90.2575 77.8475 90.4047 77.8195 90.4888C77.7914 90.5729 77.7424 90.615 77.6793 90.615C77.6267 90.615 77.5882 90.6009 77.5671 90.5694C77.5461 90.5379 77.5321 90.4713 77.5321 90.3696V87.5274C77.5321 86.9912 77.4059 86.5882 77.1571 86.3218C76.9083 86.0555 76.5263 85.9223 76.0181 85.9223C75.5625 85.9223 75.191 86.0485 74.9001 86.3008C74.6128 86.5531 74.4691 86.8721 74.4691 87.2611C74.4691 87.4889 74.5286 87.6641 74.6513 87.7938C74.774 87.9234 74.9352 87.9865 75.1455 87.9865C75.3172 87.9865 75.4574 87.9375 75.5625 87.8393C75.6676 87.7412 75.7167 87.6115 75.7167 87.4538C75.7167 87.2821 75.6782 87.1489 75.5976 87.0578C75.5205 86.9667 75.4048 86.9211 75.2541 86.9211C75.205 86.9211 75.1665 86.9211 75.1385 86.9246C75.1104 86.9246 75.0859 86.9316 75.0613 86.9387C75.1139 86.795 75.205 86.6793 75.3312 86.5987C75.4574 86.5181 75.6046 86.476 75.7763 86.476C76.0111 86.476 76.2003 86.5496 76.337 86.7003C76.4737 86.851 76.5403 87.0508 76.5403 87.3066C76.5403 87.5134 76.4842 87.6956 76.3721 87.8498C76.2564 88.004 76.0637 88.1583 75.7903 88.3125C75.7307 88.344 75.6396 88.3896 75.5134 88.4526C75.1595 88.6244 74.9001 88.7926 74.7249 88.9468C74.5987 89.0624 74.5041 89.2061 74.441 89.3743C74.378 89.5426 74.3464 89.7353 74.3464 89.9526C74.3464 90.3486 74.4445 90.6605 74.6443 90.8883C74.8441 91.1161 75.1104 91.2318 75.4504 91.2318C75.6887 91.2318 75.8954 91.1792 76.0672 91.0741C76.2389 90.9689 76.3966 90.8007 76.5403 90.5729C76.6034 90.7972 76.705 90.9619 76.8487 91.0706M76.4912 89.3043C76.4912 89.6757 76.4422 89.9456 76.3475 90.1173C76.2529 90.289 76.0987 90.3731 75.8919 90.3731C75.7518 90.3731 75.6291 90.3206 75.531 90.2189C75.4328 90.1173 75.3838 89.9911 75.3838 89.844C75.3838 89.5671 75.587 89.2587 75.9936 88.9187C76.2144 88.7365 76.3826 88.5823 76.4947 88.4596V89.3007L76.4912 89.3043ZM71.711 87.9094C71.711 87.5204 71.7635 87.2295 71.8722 87.0438C71.9808 86.858 72.1455 86.7634 72.3698 86.7634C72.4995 86.7634 72.5976 86.809 72.6642 86.9001C72.7308 86.9912 72.7658 87.1279 72.7658 87.3101V90.0753C72.7658 90.2575 72.7378 90.3731 72.6852 90.4257C72.6327 90.4748 72.524 90.5028 72.3593 90.5028V91.0846H74.2623V90.5028C74.0731 90.5028 73.9504 90.4783 73.8943 90.4292C73.8382 90.3802 73.8102 90.2645 73.8102 90.0788V87.4503C73.8102 86.9071 73.7296 86.5146 73.5754 86.2763C73.4177 86.038 73.1619 85.9188 72.8044 85.9188C72.5731 85.9188 72.3663 85.9784 72.1806 86.1011C71.9948 86.2237 71.8231 86.413 71.6619 86.6723V86.0625H70.2145V86.6513C70.4037 86.6513 70.5229 86.6758 70.579 86.7214C70.6315 86.7704 70.6596 86.8826 70.6596 87.0648V90.0718C70.6596 90.2575 70.6315 90.3732 70.5755 90.4222C70.5194 90.4713 70.4002 90.4958 70.2145 90.4958V91.0776H72.1175V90.4958C71.9458 90.4888 71.8371 90.4643 71.7881 90.4152C71.739 90.3696 71.7145 90.254 71.7145 90.0718V87.9059L71.711 87.9094ZM66.391 89.7248C66.2788 89.9 66.2228 90.0998 66.2228 90.3206C66.2228 90.5414 66.2753 90.7131 66.377 90.8638C66.4786 91.0145 66.6398 91.1442 66.8571 91.2493C66.6118 91.3474 66.4295 91.4561 66.3104 91.5787C66.1912 91.7014 66.1352 91.8381 66.1352 91.9958C66.1352 92.2761 66.2964 92.5004 66.6223 92.6722C66.9482 92.8439 67.3863 92.928 67.9435 92.928C68.6129 92.928 69.1246 92.7983 69.4785 92.5425C69.8325 92.2832 70.0112 91.9117 70.0112 91.4245C70.0112 91.1967 69.9692 91.0005 69.8886 90.8322C69.808 90.664 69.6853 90.5309 69.5241 90.4292C69.4014 90.3486 69.0615 90.2925 68.5043 90.254C68.329 90.24 68.1923 90.233 68.0977 90.226C67.6176 90.1874 67.3127 90.1454 67.176 90.0928C67.0393 90.0437 66.9728 89.9631 66.9728 89.858C66.9728 89.8089 66.9938 89.7528 67.0323 89.6933C67.0744 89.6337 67.1375 89.5636 67.2286 89.4795C67.3477 89.525 67.4634 89.5636 67.5755 89.5881C67.6877 89.6127 67.7928 89.6267 67.8945 89.6267C68.3886 89.6267 68.7636 89.462 69.0159 89.1325C69.2683 88.8031 69.3944 88.316 69.3944 87.6746C69.3944 87.3347 69.3419 87.0438 69.2402 86.802C69.1386 86.5602 68.9879 86.3709 68.7846 86.2342C68.8617 86.08 68.9458 85.9644 69.037 85.8873C69.1316 85.8102 69.2297 85.7716 69.3313 85.7716C69.3559 85.7716 69.3944 85.7751 69.44 85.7856C69.447 85.7856 69.454 85.7856 69.4575 85.7891C69.3769 85.8102 69.3138 85.8522 69.2718 85.9083C69.2297 85.9679 69.2087 86.038 69.2087 86.1221C69.2087 86.2342 69.2437 86.3253 69.3103 86.3919C69.3769 86.4585 69.4715 86.4901 69.5872 86.4901C69.7204 86.4901 69.8255 86.448 69.9026 86.3639C69.9797 86.2798 70.0217 86.1641 70.0217 86.0204C70.0217 85.8207 69.9587 85.6665 69.829 85.5473C69.6993 85.4317 69.5276 85.3721 69.3138 85.3721C69.1421 85.3721 68.9739 85.4247 68.8092 85.5333C68.6444 85.642 68.4902 85.7997 68.343 86.0099C68.2484 85.9784 68.1573 85.9539 68.0662 85.9398C67.9751 85.9258 67.8839 85.9188 67.7893 85.9188C67.3548 85.9188 67.0078 86.094 66.7449 86.448C66.4821 86.802 66.3524 87.2751 66.3524 87.8709C66.3524 88.1933 66.3945 88.4702 66.4821 88.698C66.5697 88.9258 66.7029 89.115 66.8886 89.2657C66.6643 89.3954 66.4961 89.5461 66.384 89.7248M68.8302 91.5121C68.8933 91.5121 68.9318 91.5156 68.9423 91.5156C69.107 91.5332 69.2157 91.5647 69.2753 91.6103C69.3348 91.6558 69.3629 91.7259 69.3629 91.8276C69.3629 92.0028 69.2542 92.143 69.0405 92.2446C68.8232 92.3462 68.5288 92.3988 68.1573 92.3988C67.7578 92.3988 67.4494 92.3462 67.2356 92.2411C67.0218 92.136 66.9132 91.9853 66.9132 91.789C66.9132 91.6979 66.9342 91.6173 66.9763 91.5472C67.0183 91.4771 67.0814 91.4175 67.169 91.3685C67.7438 91.4315 68.2975 91.4771 68.8302 91.5086M67.4949 88.761C67.4213 88.5788 67.3828 88.2529 67.3828 87.7763C67.3828 87.2996 67.4213 86.9667 67.4949 86.7809C67.572 86.5987 67.6982 86.5041 67.8839 86.5041C68.0697 86.5041 68.1923 86.5952 68.2659 86.7809C68.3395 86.9667 68.3781 87.2961 68.3781 87.7763C68.3781 88.2564 68.3395 88.5753 68.2659 88.7575C68.1888 88.9398 68.0627 89.0309 67.8839 89.0309C67.7052 89.0309 67.572 88.9398 67.4949 88.761ZM64.6562 91.0671C64.7964 91.1757 64.9821 91.2283 65.2134 91.2283C65.5008 91.2283 65.7111 91.1371 65.8443 90.9514C65.9774 90.7692 66.044 90.4713 66.044 90.0683V89.7388H65.6655C65.6655 89.7809 65.6655 89.8334 65.669 89.9035C65.669 89.9701 65.6725 90.0192 65.6725 90.0507C65.6725 90.2575 65.6585 90.4047 65.6305 90.4888C65.6025 90.5729 65.5569 90.615 65.4903 90.615C65.4377 90.615 65.3992 90.6009 65.3782 90.5694C65.3571 90.5379 65.3466 90.4713 65.3466 90.3696V87.5274C65.3466 86.9912 65.2205 86.5882 64.9716 86.3218C64.7228 86.0555 64.3408 85.9223 63.8326 85.9223C63.377 85.9223 63.0056 86.0485 62.7182 86.3008C62.4308 86.5531 62.2871 86.8721 62.2871 87.2611C62.2871 87.4889 62.3467 87.6641 62.4693 87.7938C62.592 87.9234 62.7532 87.9865 62.9635 87.9865C63.1352 87.9865 63.2754 87.9375 63.3805 87.8393C63.4857 87.7412 63.5347 87.6115 63.5347 87.4538C63.5347 87.2821 63.4962 87.1489 63.4156 87.0578C63.3385 86.9667 63.2228 86.9211 63.0721 86.9211C63.0231 86.9211 62.9845 86.9211 62.9565 86.9246C62.9285 86.9246 62.9039 86.9316 62.8794 86.9387C62.932 86.795 63.0231 86.6793 63.1492 86.5987C63.2754 86.5181 63.4226 86.476 63.5943 86.476C63.8291 86.476 64.0149 86.5496 64.1551 86.7003C64.2917 86.851 64.3618 87.0508 64.3618 87.3066C64.3618 87.5134 64.3058 87.6956 64.1901 87.8498C64.078 88.004 63.8817 88.1583 63.6083 88.3125C63.5488 88.344 63.4576 88.3896 63.328 88.4526C62.974 88.6244 62.7112 88.7926 62.5394 88.9468C62.4133 89.0624 62.3187 89.2061 62.2556 89.3743C62.1925 89.5426 62.1609 89.7353 62.1609 89.9526C62.1609 90.3486 62.2591 90.6605 62.4588 90.8883C62.6586 91.1161 62.9249 91.2318 63.2649 91.2318C63.5032 91.2318 63.71 91.1792 63.8852 91.0741C64.0569 90.9689 64.2146 90.8007 64.3583 90.5729C64.4214 90.7972 64.523 90.9619 64.6667 91.0706M64.3023 89.3043C64.3023 89.6757 64.2532 89.9456 64.1586 90.1173C64.0639 90.289 63.9097 90.3731 63.703 90.3731C63.5628 90.3731 63.4401 90.3206 63.342 90.2189C63.2439 90.1173 63.1948 89.9911 63.1948 89.844C63.1948 89.5671 63.3981 89.2587 63.8046 88.9187C64.0254 88.7365 64.1936 88.5823 64.3058 88.4596V89.3007L64.3023 89.3043ZM59.1365 86.1326C58.9683 85.9889 58.765 85.9188 58.5302 85.9188C58.3094 85.9188 58.1096 85.9819 57.9274 86.1046C57.7452 86.2272 57.5734 86.42 57.4157 86.6723V86.0625H55.9578V86.6513C56.1471 86.6513 56.2697 86.6758 56.3223 86.7214C56.3749 86.7704 56.4029 86.8826 56.4029 87.0648V90.0718C56.4029 90.2575 56.3749 90.3732 56.3223 90.4222C56.2662 90.4713 56.1471 90.4958 55.9613 90.4958V91.0776H57.8153V90.4958C57.6646 90.4958 57.5629 90.4678 57.5139 90.4187C57.4648 90.3732 57.4368 90.254 57.4368 90.0683V87.9024C57.4368 87.5204 57.4893 87.2365 57.598 87.0438C57.7066 86.851 57.8643 86.7564 58.0781 86.7564C58.2183 86.7564 58.3199 86.802 58.39 86.8931C58.4601 86.9842 58.4951 87.1209 58.4951 87.3031V90.0683C58.4951 90.2435 58.4706 90.3591 58.418 90.4117C58.3655 90.4643 58.2638 90.4923 58.1096 90.4958V91.0776H59.9075V90.4958C59.7498 90.4958 59.6482 90.4678 59.5956 90.4187C59.5465 90.3696 59.522 90.254 59.522 90.0718V87.9059C59.522 87.5239 59.5746 87.24 59.6797 87.0473C59.7848 86.8545 59.946 86.7599 60.1598 86.7599C60.2965 86.7599 60.4016 86.8055 60.4717 86.8966C60.5418 86.9877 60.5769 87.1244 60.5769 87.3066V90.0718C60.5769 90.2505 60.5523 90.3661 60.5068 90.4152C60.4612 90.4643 60.3596 90.4923 60.2054 90.4993V91.0811H62.0558V90.4993C61.8666 90.4993 61.7439 90.4748 61.6878 90.4257C61.6318 90.3767 61.6037 90.261 61.6037 90.0753V87.4468C61.6037 86.9071 61.5266 86.5146 61.3724 86.2763C61.2182 86.038 60.9659 85.9188 60.6189 85.9188C60.3911 85.9188 60.1844 85.9854 59.9951 86.1186C59.8059 86.2517 59.6376 86.4515 59.4904 86.7214C59.4309 86.4725 59.3152 86.2763 59.147 86.1326M55.6494 90.65C55.8877 90.2645 56.0069 89.5706 56.0069 88.5718C56.0069 87.573 55.8877 86.8791 55.6459 86.4936C55.4041 86.1116 54.9906 85.9188 54.4018 85.9188C53.813 85.9188 53.41 86.1116 53.1682 86.4936C52.9263 86.8791 52.8072 87.5695 52.8072 88.5718C52.8072 89.5741 52.9263 90.275 53.1647 90.657C53.403 91.039 53.8165 91.2318 54.4018 91.2318C54.987 91.2318 55.4076 91.039 55.6494 90.6535M54.0128 90.2295C53.9392 90.0157 53.9041 89.462 53.9041 88.5718C53.9041 87.6816 53.9392 87.1349 54.0128 86.9211C54.0864 86.7073 54.2195 86.5987 54.4123 86.5987C54.605 86.5987 54.7312 86.7073 54.8013 86.9211C54.8714 87.1349 54.9064 87.6851 54.9064 88.5718C54.9064 89.4585 54.8714 90.0157 54.8013 90.2295C54.7312 90.4432 54.6015 90.5519 54.4088 90.5519C54.216 90.5519 54.0794 90.4432 54.0093 90.2295M49.4603 84.3558H49.8073C50.2033 84.3558 50.4731 84.4469 50.6168 84.6256C50.7605 84.8044 50.8341 85.1268 50.8341 85.5929C50.8341 86.059 50.7535 86.3744 50.5923 86.5707C50.4311 86.7669 50.1647 86.8651 49.7862 86.8651H49.4568V84.3558H49.4603ZM49.4603 87.6676C49.4848 87.6676 49.5129 87.6606 49.5409 87.6606C49.5654 87.6606 49.604 87.6606 49.6531 87.6606C49.972 87.6606 50.1963 87.7482 50.3294 87.9199C50.4626 88.0917 50.5397 88.4036 50.5537 88.8522C50.5537 88.9573 50.5607 89.108 50.5643 89.3113C50.5783 90.0157 50.6519 90.5028 50.785 90.7692C50.8727 90.9409 50.9883 91.0671 51.125 91.1477C51.2652 91.2283 51.4404 91.2668 51.6577 91.2668C52.0152 91.2668 52.2745 91.1512 52.4322 90.9164C52.5934 90.6816 52.674 90.2996 52.674 89.7739V89.4549H52.271V89.9736C52.271 90.1068 52.2465 90.2119 52.2009 90.296C52.1553 90.3767 52.0958 90.4187 52.0187 90.4187C51.868 90.4187 51.7768 90.1313 51.7453 89.5601C51.7383 89.4269 51.7348 89.3288 51.7313 89.2622C51.6892 88.6244 51.5946 88.1828 51.4474 87.934C51.3002 87.6851 51.0584 87.5204 50.715 87.4433C51.1285 87.3732 51.4439 87.1735 51.6682 86.8475C51.889 86.5216 52.0011 86.094 52.0011 85.5648C52.0011 84.9025 51.8294 84.4153 51.486 84.0964C51.1425 83.781 50.6098 83.6198 49.8914 83.6198H47.7325V84.3593C47.9183 84.3593 48.0515 84.3978 48.1286 84.4784C48.2057 84.559 48.2442 84.6992 48.2442 84.899V89.8019C48.2442 90.0052 48.2057 90.1454 48.1286 90.226C48.0515 90.3066 47.9183 90.3486 47.7325 90.3486V91.0881H50.0105V90.3486H49.972C49.7827 90.3486 49.6496 90.3066 49.576 90.226C49.5024 90.1454 49.4638 90.0052 49.4638 89.8019V87.6711L49.4603 87.6676ZM47.7886 88.0952H46.2922V88.9363H47.7886V88.0952ZM44.9078 91.0671C45.048 91.1757 45.2338 91.2283 45.4651 91.2283C45.7524 91.2283 45.9627 91.1371 46.0959 90.9514C46.2291 90.7692 46.2957 90.4713 46.2957 90.0683V89.7388H45.9172C45.9172 89.7809 45.9172 89.8334 45.9207 89.9035C45.9207 89.9701 45.9242 90.0192 45.9242 90.0507C45.9242 90.2575 45.9102 90.4047 45.8821 90.4888C45.8541 90.5729 45.8085 90.615 45.7419 90.615C45.6894 90.615 45.6508 90.6009 45.6298 90.5694C45.6088 90.5379 45.5982 90.4713 45.5982 90.3696V87.5274C45.5982 86.9912 45.4721 86.5882 45.2233 86.3218C44.9744 86.0555 44.5924 85.9223 44.0843 85.9223C43.6287 85.9223 43.2537 86.0485 42.9698 86.3008C42.6824 86.5531 42.5387 86.8721 42.5387 87.2611C42.5387 87.4889 42.5983 87.6641 42.721 87.7938C42.8436 87.9234 43.0084 87.9865 43.2151 87.9865C43.3868 87.9865 43.527 87.9375 43.6322 87.8393C43.7373 87.7412 43.7864 87.6115 43.7864 87.4538C43.7864 87.2821 43.7478 87.1489 43.6672 87.0578C43.5901 86.9667 43.4745 86.9211 43.3238 86.9211C43.2747 86.9211 43.2361 86.9211 43.2081 86.9246C43.1801 86.9246 43.1555 86.9316 43.131 86.9387C43.1836 86.795 43.2747 86.6793 43.4009 86.5987C43.527 86.5181 43.6742 86.476 43.8424 86.476C44.0773 86.476 44.2665 86.5496 44.4032 86.7003C44.5399 86.851 44.61 87.0508 44.61 87.3066C44.61 87.5134 44.5539 87.6956 44.4382 87.8498C44.3261 88.004 44.1298 88.1583 43.8565 88.3125C43.7969 88.344 43.7058 88.3896 43.5796 88.4526C43.2256 88.6244 42.9628 88.7926 42.7911 88.9468C42.6649 89.0624 42.5703 89.2061 42.5072 89.3743C42.4441 89.5426 42.4126 89.7353 42.4126 89.9526C42.4126 90.3486 42.5107 90.6605 42.7105 90.8883C42.9102 91.1161 43.1766 91.2318 43.5165 91.2318C43.7548 91.2318 43.9616 91.1792 44.1333 91.0741C44.305 90.9689 44.4628 90.8007 44.6064 90.5729C44.6695 90.7972 44.7712 90.9619 44.9149 91.0706M44.5539 89.3043C44.5539 89.6757 44.5048 89.9456 44.4102 90.1173C44.3156 90.289 44.1614 90.3731 43.9546 90.3731C43.8144 90.3731 43.6917 90.3206 43.5936 90.2189C43.4955 90.1173 43.4464 89.9911 43.4464 89.844C43.4464 89.5671 43.6497 89.2587 44.0562 88.9187C44.277 88.7365 44.4417 88.5823 44.5574 88.4596V89.3007L44.5539 89.3043ZM40.853 85.4562C40.9722 85.5719 41.1194 85.6314 41.2946 85.6314C41.4698 85.6314 41.61 85.5754 41.7257 85.4597C41.8378 85.3441 41.8974 85.2004 41.8974 85.0216C41.8974 84.8534 41.8378 84.7097 41.7187 84.5906C41.5995 84.4714 41.4593 84.4118 41.2946 84.4118C41.1299 84.4118 40.9862 84.4714 40.8635 84.5976C40.7409 84.7202 40.6778 84.8604 40.6778 85.0216C40.6778 85.1934 40.7374 85.3406 40.8565 85.4562M41.8729 86.066H40.3729V86.6548C40.5621 86.6548 40.6813 86.6793 40.7374 86.7249C40.7899 86.7739 40.818 86.8861 40.818 87.0683V90.0753C40.818 90.261 40.7899 90.3767 40.7339 90.4257C40.6778 90.4748 40.5586 90.4993 40.3729 90.4993V91.0811H42.3179V90.4993C42.1322 90.4993 42.013 90.4748 41.957 90.4292C41.9009 90.3802 41.8764 90.2645 41.8764 90.0753V86.0625L41.8729 86.066ZM39.679 84.2857H38.1825V84.8744C38.3718 84.8744 38.4909 84.899 38.547 84.9445C38.5996 84.9936 38.6276 85.1057 38.6276 85.288V90.0753C38.6276 90.261 38.5996 90.3767 38.5435 90.4257C38.4874 90.4748 38.3683 90.4993 38.1825 90.4993V91.0811H40.1276V90.4993C39.9418 90.4993 39.8192 90.4748 39.7631 90.4292C39.707 90.3802 39.679 90.2645 39.679 90.0753V84.2822V84.2857ZM36.4162 85.4562C36.5354 85.5719 36.6826 85.6314 36.8578 85.6314C37.033 85.6314 37.1732 85.5754 37.2889 85.4597C37.401 85.3441 37.4571 85.2004 37.4571 85.0216C37.4571 84.8534 37.3975 84.7097 37.2818 84.5906C37.1627 84.4714 37.0225 84.4118 36.8578 84.4118C36.6931 84.4118 36.5494 84.4714 36.4267 84.5976C36.3041 84.7202 36.241 84.8604 36.241 85.0216C36.241 85.1934 36.3006 85.3406 36.4197 85.4562M37.4361 86.066H35.9361V86.6548C36.1253 86.6548 36.2445 86.6793 36.3006 86.7249C36.3531 86.7739 36.3812 86.8861 36.3812 87.0683V90.0753C36.3812 90.261 36.3531 90.3767 36.2971 90.4257C36.241 90.4748 36.1218 90.4993 35.9361 90.4993V91.0811H37.8811V90.4993C37.6954 90.4993 37.5762 90.4748 37.5202 90.4292C37.4641 90.3802 37.4361 90.2645 37.4361 90.0753V86.0625V86.066ZM32.7714 86.1326C32.6032 85.9889 32.4 85.9188 32.1651 85.9188C31.9444 85.9188 31.7446 85.9819 31.5624 86.1046C31.3801 86.2272 31.2084 86.42 31.0542 86.6723V86.0625H29.5963V86.6513C29.7855 86.6513 29.9082 86.6758 29.9608 86.7214C30.0133 86.7704 30.0414 86.8826 30.0414 87.0648V90.0718C30.0414 90.2575 30.0133 90.3732 29.9573 90.4222C29.9012 90.4713 29.782 90.4958 29.5963 90.4958V91.0776H31.4502V90.4958C31.2995 90.4958 31.1979 90.4678 31.1488 90.4187C31.0997 90.3732 31.0717 90.254 31.0717 90.0683V87.9024C31.0717 87.5204 31.1243 87.2365 31.2329 87.0438C31.3381 86.851 31.4993 86.7564 31.7131 86.7564C31.8497 86.7564 31.9549 86.802 32.025 86.8931C32.0951 86.9842 32.1301 87.1209 32.1301 87.3031V90.0683C32.1301 90.2435 32.1056 90.3591 32.053 90.4117C32.0004 90.4643 31.8988 90.4923 31.7446 90.4958V91.0776H33.5424V90.4958C33.3847 90.4958 33.2796 90.4678 33.2305 90.4187C33.178 90.3696 33.1534 90.254 33.1534 90.0718V87.9059C33.1534 87.5239 33.206 87.24 33.3111 87.0473C33.4163 86.8545 33.5775 86.7599 33.7913 86.7599C33.928 86.7599 34.0331 86.8055 34.1032 86.8966C34.1733 86.9877 34.2083 87.1244 34.2083 87.3066V90.0718C34.2083 90.2505 34.1838 90.3661 34.1382 90.4152C34.0927 90.4643 33.991 90.4923 33.8368 90.4993L33.8298 91.0811H35.6838V90.4993C35.4945 90.4993 35.3718 90.4748 35.3158 90.4257C35.2597 90.3767 35.2317 90.261 35.2317 90.0753V87.4468C35.2317 86.9071 35.1546 86.5146 35.0004 86.2763C34.8462 86.038 34.5938 85.9188 34.2469 85.9188C34.0191 85.9188 33.8123 85.9854 33.6231 86.1186C33.4338 86.2517 33.2656 86.4515 33.1184 86.7214C33.0588 86.4725 32.9432 86.2763 32.7749 86.1326M29.3369 91.0811V88.2213H28.7727C28.7552 89.0624 28.6395 89.6267 28.4257 89.914C28.212 90.2014 27.7949 90.3416 27.1816 90.3416H26.8522V87.601H26.9783C27.2587 87.601 27.4585 87.6816 27.5776 87.8393C27.6968 87.997 27.7529 88.2669 27.7529 88.6489V88.698H28.2891V85.7681H27.7529V85.8207C27.7529 86.2027 27.6968 86.469 27.5776 86.6267C27.462 86.7844 27.2622 86.8616 26.9748 86.8616H26.8487V84.3523H27.08C27.6898 84.3523 28.0998 84.4714 28.3171 84.7132C28.5344 84.9551 28.6535 85.4071 28.6816 86.073H29.2493V83.6128H25.1209V84.3523C25.3067 84.3523 25.4398 84.3908 25.5169 84.4714C25.594 84.552 25.6326 84.6922 25.6326 84.892V89.7949C25.6326 89.9982 25.594 90.1383 25.5169 90.2189C25.4398 90.2996 25.3067 90.3416 25.1209 90.3416V91.0811H29.3334H29.3369ZM22.5275 87.4854C22.5275 87.1454 22.5661 86.9001 22.6432 86.7459C22.7203 86.5917 22.8429 86.5181 23.0076 86.5181C23.1829 86.5181 23.309 86.5882 23.3826 86.7284C23.4562 86.8686 23.4948 87.1139 23.4948 87.4678V88.0671H22.5275V87.4854ZM24.4656 88.6664V88.0847C24.4656 87.6991 24.4515 87.4153 24.4235 87.233C24.3955 87.0473 24.3464 86.8861 24.2763 86.7389C24.1431 86.4725 23.9749 86.2693 23.7681 86.1291C23.5614 85.9889 23.3196 85.9188 23.0462 85.9188C22.4995 85.9188 22.0929 86.1361 21.8266 86.5742C21.5638 87.0122 21.4306 87.6886 21.4306 88.6103C21.4306 89.532 21.5567 90.233 21.8091 90.629C22.0614 91.025 22.482 91.2213 23.0707 91.2213C23.5368 91.2213 23.8873 91.0671 24.1186 90.7551C24.3499 90.4432 24.4691 89.9806 24.4691 89.3638C24.4691 89.3463 24.4691 89.3113 24.4656 89.2587C24.4656 89.2096 24.4621 89.1676 24.4621 89.1395H23.7962C23.7962 89.6477 23.7471 90.0122 23.6525 90.233C23.5579 90.4573 23.4002 90.5694 23.1864 90.5694C22.9516 90.5694 22.7834 90.4503 22.6817 90.2119C22.5801 89.9736 22.531 89.5496 22.531 88.9468V88.6699H24.4726L24.4656 88.6664ZM18.8968 87.9094C18.8968 87.5204 18.9528 87.2295 19.0615 87.0438C19.1701 86.858 19.3348 86.7634 19.5591 86.7634C19.6888 86.7634 19.7869 86.809 19.8535 86.9001C19.9201 86.9912 19.9551 87.1279 19.9551 87.3101V90.0753C19.9551 90.2575 19.9271 90.3731 19.8745 90.4257C19.822 90.4748 19.7133 90.5028 19.5486 90.5028V91.0846H21.4516V90.5028C21.2624 90.5028 21.1397 90.4783 21.0836 90.4292C21.0276 90.3802 20.9995 90.2645 20.9995 90.0788V87.4503C20.9995 86.9071 20.9189 86.5146 20.7647 86.2763C20.607 86.038 20.3512 85.9188 19.9937 85.9188C19.7659 85.9188 19.5556 85.9784 19.3699 86.1011C19.1841 86.2237 19.0124 86.413 18.8512 86.6723V86.0625H17.4003V86.6513C17.5895 86.6513 17.7122 86.6758 17.7648 86.7214C17.8173 86.7704 17.8454 86.8826 17.8454 87.0648V90.0718C17.8454 90.2575 17.8173 90.3732 17.7613 90.4222C17.7052 90.4713 17.586 90.4958 17.4003 90.4958V91.0776H19.3033V90.4958C19.1316 90.4888 19.0229 90.4643 18.9739 90.4152C18.9248 90.3696 18.8968 90.254 18.8968 90.0718V87.9059V87.9094ZM17.0148 90.65C17.2531 90.2645 17.3723 89.5706 17.3723 88.5718C17.3723 87.573 17.2531 86.8791 17.0113 86.4936C16.7695 86.1116 16.3559 85.9188 15.7672 85.9188C15.1784 85.9188 14.7719 86.1116 14.5335 86.4936C14.2917 86.8791 14.1726 87.5695 14.1726 88.5718C14.1726 89.5741 14.2917 90.275 14.53 90.657C14.7683 91.039 15.1819 91.2318 15.7672 91.2318C16.3524 91.2318 16.773 91.039 17.0113 90.6535M15.3781 90.2295C15.3046 90.0157 15.2695 89.462 15.2695 88.5718C15.2695 87.6816 15.3046 87.1349 15.3781 86.9211C15.4517 86.7073 15.5849 86.5987 15.7812 86.5987C15.9774 86.5987 16.1001 86.7073 16.1702 86.9211C16.2403 87.1349 16.2753 87.6851 16.2753 88.5718C16.2753 89.4585 16.2403 90.0157 16.1737 90.2295C16.1036 90.4432 15.9739 90.5519 15.7812 90.5519C15.5884 90.5519 15.4517 90.4432 15.3781 90.2295ZM12.7076 85.4562C12.8268 85.5719 12.974 85.6314 13.1492 85.6314C13.3245 85.6314 13.4646 85.5754 13.5803 85.4597C13.6924 85.3441 13.752 85.2004 13.752 85.0216C13.752 84.8534 13.6924 84.7097 13.5733 84.5906C13.4541 84.4714 13.3139 84.4118 13.1492 84.4118C12.9845 84.4118 12.8408 84.4714 12.7182 84.5976C12.5955 84.7202 12.5324 84.8604 12.5324 85.0216C12.5324 85.1934 12.592 85.3406 12.7112 85.4562M13.7275 86.066H12.2275V86.6548C12.4168 86.6548 12.5359 86.6793 12.592 86.7249C12.6446 86.7739 12.6726 86.8861 12.6726 87.0683V90.0753C12.6726 90.261 12.6446 90.3767 12.5885 90.4257C12.5324 90.4748 12.4133 90.4993 12.2275 90.4993V91.0811H14.1726V90.4993C13.9868 90.4993 13.8677 90.4748 13.8116 90.4292C13.7555 90.3802 13.7275 90.2645 13.7275 90.0753V86.0625V86.066ZM8.42153 89.7248C8.30939 89.9 8.25331 90.0998 8.25331 90.3206C8.25331 90.5414 8.30588 90.7131 8.40752 90.8638C8.50915 91.0145 8.67036 91.1442 8.88764 91.2493C8.64232 91.3474 8.46008 91.4561 8.34093 91.5787C8.22177 91.7014 8.1657 91.8381 8.1657 91.9958C8.1657 92.2761 8.32691 92.5004 8.65284 92.6722C8.97876 92.8439 9.41684 92.928 9.97056 92.928C10.6399 92.928 11.1516 92.7983 11.5056 92.5425C11.8595 92.2832 12.0348 91.9117 12.0348 91.4245C12.0348 91.1967 11.9927 91.0005 11.9121 90.8322C11.8315 90.664 11.7088 90.5309 11.5476 90.4292C11.425 90.3486 11.085 90.2925 10.5278 90.254C10.3526 90.24 10.2159 90.233 10.1213 90.226C9.64113 90.1874 9.33623 90.1454 9.19955 90.0928C9.06287 90.0437 8.99629 89.9631 8.99629 89.858C8.99629 89.8089 9.01731 89.7528 9.05587 89.6933C9.09792 89.6337 9.16451 89.5636 9.25563 89.4795C9.37478 89.525 9.49043 89.5636 9.60258 89.5881C9.71473 89.6127 9.81987 89.6267 9.9215 89.6267C10.4156 89.6267 10.7906 89.462 11.043 89.1325C11.2953 88.8031 11.4215 88.316 11.4215 87.6746C11.4215 87.3347 11.3689 87.0438 11.2673 86.802C11.1656 86.5602 11.0149 86.3709 10.8117 86.2342C10.8888 86.08 10.9729 85.9644 11.064 85.8873C11.1551 85.8102 11.2532 85.7716 11.3584 85.7716C11.3829 85.7716 11.418 85.7751 11.467 85.7856C11.474 85.7856 11.4775 85.7856 11.4845 85.7891C11.4039 85.8102 11.3409 85.8522 11.2988 85.9083C11.2568 85.9679 11.2357 86.038 11.2357 86.1221C11.2357 86.2342 11.2708 86.3253 11.3374 86.3919C11.4039 86.4585 11.4986 86.4901 11.6142 86.4901C11.7474 86.4901 11.8525 86.448 11.9296 86.3639C12.0102 86.2798 12.0488 86.1641 12.0488 86.0204C12.0488 85.8207 11.9857 85.6665 11.856 85.5473C11.7264 85.4317 11.5546 85.3721 11.3409 85.3721C11.1691 85.3721 11.0009 85.4247 10.8362 85.5333C10.6715 85.642 10.5173 85.7997 10.3701 86.0099C10.2755 85.9784 10.1843 85.9539 10.0932 85.9398C10.0021 85.9258 9.91099 85.9188 9.81636 85.9188C9.38179 85.9188 9.03484 86.094 8.77199 86.448C8.50915 86.802 8.37948 87.2751 8.37948 87.8709C8.37948 88.1933 8.42153 88.4702 8.50915 88.698C8.59676 88.9258 8.72994 89.115 8.91568 89.2657C8.69139 89.3954 8.52317 89.5461 8.41102 89.7248M10.8642 91.5121C10.9273 91.5121 10.9659 91.5156 10.9764 91.5156C11.1411 91.5332 11.2497 91.5647 11.3093 91.6103C11.3689 91.6558 11.3969 91.7259 11.3969 91.8276C11.3969 92.0028 11.2883 92.143 11.0745 92.2446C10.8572 92.3462 10.5628 92.3988 10.1914 92.3988C9.79183 92.3988 9.48343 92.3462 9.26965 92.2411C9.05587 92.136 8.94722 91.9853 8.94722 91.789C8.94722 91.6979 8.96825 91.6173 9.01031 91.5472C9.05236 91.4771 9.11544 91.4175 9.20306 91.3685C9.77781 91.4315 10.3315 91.4771 10.8642 91.5086M9.52548 88.761C9.45188 88.5788 9.41333 88.2529 9.41333 87.7763C9.41333 87.2996 9.45188 86.9667 9.52548 86.7809C9.60258 86.5987 9.72875 86.5041 9.91099 86.5041C10.0932 86.5041 10.2194 86.5952 10.293 86.7809C10.3666 86.9667 10.4051 87.2961 10.4051 87.7763C10.4051 88.2564 10.3666 88.5753 10.293 88.7575C10.2159 88.9398 10.0897 89.0309 9.91099 89.0309C9.73225 89.0309 9.59908 88.9398 9.52548 88.761ZM6.16107 87.4854C6.16107 87.1454 6.19962 86.9001 6.27672 86.7459C6.35383 86.5917 6.47649 86.5181 6.6412 86.5181C6.81643 86.5181 6.9426 86.5882 7.01619 86.7284C7.08979 86.8686 7.12834 87.1139 7.12834 87.4678V88.0671H6.16107V87.4854ZM8.10262 88.6664V88.0847C8.10262 87.6991 8.0886 87.4153 8.06056 87.233C8.03253 87.0473 7.98346 86.8861 7.91337 86.7389C7.78019 86.4725 7.61197 86.2693 7.4017 86.1291C7.19493 85.9889 6.95311 85.9188 6.67975 85.9188C6.13304 85.9188 5.7265 86.1361 5.46366 86.5742C5.19731 87.0122 5.06764 87.6886 5.06764 88.6103C5.06764 89.532 5.19381 90.233 5.44614 90.629C5.69847 91.025 6.11902 91.2213 6.70779 91.2213C7.1739 91.2213 7.52085 91.0671 7.75566 90.7551C7.98696 90.4432 8.10612 89.9806 8.10612 89.3638C8.10612 89.3463 8.10612 89.3113 8.10262 89.2587C8.10262 89.2096 8.09911 89.1676 8.09911 89.1395H7.43324C7.43324 89.6477 7.38417 90.0122 7.28955 90.233C7.19493 90.4573 7.03722 90.5694 6.82344 90.5694C6.58863 90.5694 6.42041 90.4503 6.31878 90.2119C6.21715 89.9736 6.16808 89.5496 6.16808 88.9468V88.6699H8.10963L8.10262 88.6664ZM1.72776 84.3558H2.07472C2.47074 84.3558 2.74059 84.4469 2.88428 84.6256C3.02797 84.8044 3.10156 85.1268 3.10156 85.5929C3.10156 86.059 3.02096 86.3744 2.85975 86.5707C2.69854 86.7669 2.43219 86.8651 2.05369 86.8651H1.72426V84.3558H1.72776ZM1.72776 87.6676C1.7523 87.6676 1.78033 87.6606 1.80486 87.6606C1.8294 87.6606 1.86795 87.6606 1.91701 87.6606C2.23593 87.6606 2.46022 87.7482 2.5934 87.9199C2.72657 88.0917 2.80367 88.4036 2.81769 88.8522C2.81769 88.9573 2.8247 89.108 2.82821 89.3113C2.84222 90.0157 2.91582 90.5028 3.04899 90.7692C3.13661 90.9409 3.25226 91.0671 3.38894 91.1477C3.52912 91.2283 3.70435 91.2668 3.92164 91.2668C4.27911 91.2668 4.53845 91.1512 4.69615 90.9164C4.85386 90.6816 4.93797 90.2996 4.93797 89.7739V89.4549H4.53494V89.9736C4.53494 90.1068 4.51391 90.2119 4.46835 90.296C4.42279 90.3767 4.36322 90.4187 4.28612 90.4187C4.13542 90.4187 4.0443 90.1313 4.00925 89.5601C4.00224 89.4269 3.99874 89.3288 3.99523 89.2622C3.95318 88.6244 3.85856 88.1828 3.71136 87.934C3.56417 87.6851 3.31885 87.5204 2.9789 87.4433C3.39244 87.3732 3.70786 87.1735 3.93215 86.8475C4.15645 86.5216 4.26509 86.094 4.26509 85.5648C4.26509 84.9025 4.09336 84.4153 3.74991 84.0964C3.40646 83.781 2.87377 83.6198 2.15532 83.6198H0V84.3593C0.185743 84.3593 0.318918 84.3978 0.396019 84.4784C0.47312 84.559 0.51167 84.6992 0.51167 84.899V89.8019C0.51167 90.0052 0.47312 90.1454 0.396019 90.226C0.318918 90.3066 0.189248 90.3486 0 90.3486V91.0881H2.27798V90.3486H2.23943C2.05019 90.3486 1.91701 90.3066 1.83991 90.226C1.76631 90.1454 1.72776 90.0052 1.72776 89.8019V87.6711V87.6676Z" fill="#282828"/>
</g>
<defs>
<clipPath id="clip0_1_502">
<rect width="78.233" height="92.9278" fill="white"/>
</clipPath>
</defs>
</svg>
