<svg preserveAspectRatio="none" width="100%" height="100%" overflow="visible" style="display: block;" viewBox="0 0 79 93" fill="none" xmlns="http://www.w3.org/2000/svg">
<g id="RegioneEmilia" clip-path="url(#clip0_4106_1418)">
<path id="Vector" d="M5.21483 5.21483H73.0147V21.0766C67.4073 23.2705 63.0792 23.7051 58.4566 23.8382C53.7569 23.9714 46.6671 23.3826 41.5504 21.8336C36.4337 20.2846 29.6103 18.7215 22.3523 18.683C16.2228 18.6514 7.69258 20.3617 5.21483 20.8944V5.21483ZM5.21483 73.0182V39.1393L70.8488 73.0182H5.21483ZM78.233 0H0V78.233H78.233V0Z" fill="var(--fill-0, #282828)"/>
<path id="Vector_2" d="M78.233 79.8907H0V81.7551H78.233V79.8907Z" fill="var(--fill-0, #282828)"/>
<path id="Vector_3" d="M76.8452 91.0668C76.9854 91.1755 77.1711 91.228 77.4024 91.228C77.6898 91.228 77.9001 91.1369 78.0332 90.9512C78.1664 90.7689 78.233 90.471 78.233 90.068V89.7386H77.8545C77.8545 89.7806 77.8545 89.8332 77.858 89.9033C77.858 89.9699 77.8615 90.019 77.8615 90.0505C77.8615 90.2573 77.8475 90.4045 77.8195 90.4886C77.7914 90.5727 77.7424 90.6147 77.6793 90.6147C77.6267 90.6147 77.5882 90.6007 77.5671 90.5692C77.5461 90.5376 77.5321 90.471 77.5321 90.3694V87.5272C77.5321 86.991 77.4059 86.588 77.1571 86.3216C76.9083 86.0553 76.5263 85.9221 76.0181 85.9221C75.5625 85.9221 75.191 86.0482 74.9001 86.3006C74.6128 86.5529 74.4691 86.8718 74.4691 87.2608C74.4691 87.4886 74.5286 87.6639 74.6513 87.7935C74.774 87.9232 74.9352 87.9863 75.1455 87.9863C75.3172 87.9863 75.4574 87.9372 75.5625 87.8391C75.6676 87.741 75.7167 87.6113 75.7167 87.4536C75.7167 87.2819 75.6782 87.1487 75.5976 87.0576C75.5205 86.9665 75.4048 86.9209 75.2541 86.9209C75.205 86.9209 75.1665 86.9209 75.1384 86.9244C75.1104 86.9244 75.0859 86.9314 75.0613 86.9384C75.1139 86.7947 75.205 86.6791 75.3312 86.5985C75.4574 86.5179 75.6046 86.4758 75.7763 86.4758C76.0111 86.4758 76.2003 86.5494 76.337 86.7001C76.4737 86.8508 76.5403 87.0506 76.5403 87.3064C76.5403 87.5132 76.4842 87.6954 76.3721 87.8496C76.2564 88.0038 76.0637 88.158 75.7903 88.3122C75.7307 88.3438 75.6396 88.3893 75.5134 88.4524C75.1595 88.6241 74.9001 88.7923 74.7249 88.9465C74.5987 89.0622 74.5041 89.2059 74.441 89.3741C74.378 89.5423 74.3464 89.7351 74.3464 89.9524C74.3464 90.3484 74.4445 90.6603 74.6443 90.8881C74.8441 91.1159 75.1104 91.2315 75.4504 91.2315C75.6887 91.2315 75.8954 91.179 76.0672 91.0738C76.2389 90.9687 76.3966 90.8005 76.5403 90.5727C76.6034 90.797 76.705 90.9617 76.8487 91.0703M76.4912 89.304C76.4912 89.6755 76.4422 89.9454 76.3475 90.1171C76.2529 90.2888 76.0987 90.3729 75.8919 90.3729C75.7518 90.3729 75.6291 90.3203 75.531 90.2187C75.4328 90.1171 75.3838 89.9909 75.3838 89.8437C75.3838 89.5669 75.587 89.2585 75.9936 88.9185C76.2144 88.7363 76.3826 88.5821 76.4947 88.4594V89.3005L76.4912 89.304ZM71.711 87.9092C71.711 87.5202 71.7635 87.2293 71.8722 87.0435C71.9808 86.8578 72.1455 86.7632 72.3698 86.7632C72.4995 86.7632 72.5976 86.8087 72.6642 86.8999C72.7308 86.991 72.7658 87.1277 72.7658 87.3099V90.075C72.7658 90.2573 72.7378 90.3729 72.6852 90.4255C72.6327 90.4745 72.524 90.5026 72.3593 90.5026V91.0843H74.2623V90.5026C74.0731 90.5026 73.9504 90.4781 73.8943 90.429C73.8382 90.3799 73.8102 90.2643 73.8102 90.0785V87.4501C73.8102 86.9069 73.7296 86.5144 73.5754 86.276C73.4177 86.0377 73.1619 85.9186 72.8044 85.9186C72.5731 85.9186 72.3663 85.9782 72.1806 86.1008C71.9948 86.2235 71.8231 86.4127 71.6619 86.6721V86.0623H70.2145V86.651C70.4037 86.651 70.5229 86.6756 70.579 86.7211C70.6315 86.7702 70.6596 86.8823 70.6596 87.0646V90.0715C70.6596 90.2573 70.6315 90.3729 70.5755 90.422C70.5194 90.471 70.4002 90.4956 70.2145 90.4956V91.0773H72.1175V90.4956C71.9458 90.4886 71.8371 90.464 71.7881 90.415C71.739 90.3694 71.7145 90.2538 71.7145 90.0715V87.9057L71.711 87.9092ZM66.391 89.7246C66.2788 89.8998 66.2228 90.0996 66.2228 90.3203C66.2228 90.5411 66.2753 90.7129 66.377 90.8636C66.4786 91.0143 66.6398 91.1439 66.8571 91.2491C66.6118 91.3472 66.4295 91.4558 66.3104 91.5785C66.1912 91.7012 66.1352 91.8378 66.1352 91.9955C66.1352 92.2759 66.2964 92.5002 66.6223 92.6719C66.9482 92.8436 67.3863 92.9278 67.9435 92.9278C68.6129 92.9278 69.1246 92.7981 69.4785 92.5423C69.8325 92.2829 70.0112 91.9114 70.0112 91.4243C70.0112 91.1965 69.9692 91.0002 69.8886 90.832C69.808 90.6638 69.6853 90.5306 69.5241 90.429C69.4014 90.3484 69.0615 90.2923 68.5043 90.2538C68.329 90.2397 68.1923 90.2327 68.0977 90.2257C67.6176 90.1872 67.3127 90.1451 67.176 90.0925C67.0393 90.0435 66.9728 89.9629 66.9728 89.8577C66.9728 89.8087 66.9938 89.7526 67.0323 89.693C67.0744 89.6334 67.1375 89.5634 67.2286 89.4792C67.3477 89.5248 67.4634 89.5634 67.5755 89.5879C67.6877 89.6124 67.7928 89.6264 67.8945 89.6264C68.3886 89.6264 68.7636 89.4617 69.0159 89.1323C69.2683 88.8029 69.3944 88.3157 69.3944 87.6744C69.3944 87.3344 69.3419 87.0435 69.2402 86.8017C69.1386 86.5599 68.9879 86.3707 68.7846 86.234C68.8617 86.0798 68.9458 85.9641 69.037 85.887C69.1316 85.8099 69.2297 85.7714 69.3313 85.7714C69.3559 85.7714 69.3944 85.7749 69.44 85.7854C69.447 85.7854 69.454 85.7854 69.4575 85.7889C69.3769 85.8099 69.3138 85.852 69.2718 85.9081C69.2297 85.9676 69.2087 86.0377 69.2087 86.1218C69.2087 86.234 69.2437 86.3251 69.3103 86.3917C69.3769 86.4583 69.4715 86.4898 69.5872 86.4898C69.7204 86.4898 69.8255 86.4478 69.9026 86.3637C69.9797 86.2795 70.0217 86.1639 70.0217 86.0202C70.0217 85.8204 69.9587 85.6662 69.829 85.5471C69.6993 85.4314 69.5276 85.3719 69.3138 85.3719C69.1421 85.3719 68.9739 85.4244 68.8092 85.5331C68.6444 85.6417 68.4902 85.7994 68.343 86.0097C68.2484 85.9782 68.1573 85.9536 68.0662 85.9396C67.9751 85.9256 67.8839 85.9186 67.7893 85.9186C67.3547 85.9186 67.0078 86.0938 66.745 86.4478C66.4821 86.8017 66.3524 87.2749 66.3524 87.8706C66.3524 88.1931 66.3945 88.4699 66.4821 88.6977C66.5697 88.9255 66.7029 89.1148 66.8886 89.2655C66.6643 89.3951 66.4961 89.5458 66.384 89.7246M68.8302 91.5119C68.8933 91.5119 68.9318 91.5154 68.9423 91.5154C69.107 91.5329 69.2157 91.5645 69.2753 91.61C69.3348 91.6556 69.3629 91.7257 69.3629 91.8273C69.3629 92.0025 69.2542 92.1427 69.0405 92.2444C68.8232 92.346 68.5288 92.3986 68.1573 92.3986C67.7578 92.3986 67.4494 92.346 67.2356 92.2409C67.0218 92.1357 66.9132 91.985 66.9132 91.7888C66.9132 91.6977 66.9342 91.617 66.9763 91.547C67.0183 91.4769 67.0814 91.4173 67.169 91.3682C67.7438 91.4313 68.2975 91.4769 68.8302 91.5084M67.4949 88.7608C67.4213 88.5786 67.3828 88.2526 67.3828 87.776C67.3828 87.2994 67.4213 86.9664 67.4949 86.7807C67.572 86.5985 67.6982 86.5038 67.8839 86.5038C68.0697 86.5038 68.1923 86.595 68.2659 86.7807C68.3395 86.9664 68.3781 87.2959 68.3781 87.776C68.3781 88.2561 68.3395 88.5751 68.2659 88.7573C68.1888 88.9395 68.0627 89.0307 67.8839 89.0307C67.7052 89.0307 67.572 88.9395 67.4949 88.7608ZM64.6562 91.0668C64.7964 91.1755 64.9821 91.228 65.2134 91.228C65.5008 91.228 65.7111 91.1369 65.8443 90.9512C65.9774 90.7689 66.044 90.471 66.044 90.068V89.7386H65.6655C65.6655 89.7806 65.6655 89.8332 65.669 89.9033C65.669 89.9699 65.6725 90.019 65.6725 90.0505C65.6725 90.2573 65.6585 90.4045 65.6305 90.4886C65.6025 90.5727 65.5569 90.6147 65.4903 90.6147C65.4377 90.6147 65.3992 90.6007 65.3782 90.5692C65.3571 90.5376 65.3466 90.471 65.3466 90.3694V87.5272C65.3466 86.991 65.2205 86.588 64.9716 86.3216C64.7228 86.0553 64.3408 85.9221 63.8326 85.9221C63.377 85.9221 63.0056 86.0482 62.7182 86.3006C62.4308 86.5529 62.2871 86.8718 62.2871 87.2608C62.2871 87.4886 62.3467 87.6639 62.4694 87.7935C62.592 87.9232 62.7532 87.9863 62.9635 87.9863C63.1352 87.9863 63.2754 87.9372 63.3805 87.8391C63.4857 87.741 63.5347 87.6113 63.5347 87.4536C63.5347 87.2819 63.4962 87.1487 63.4156 87.0576C63.3385 86.9665 63.2228 86.9209 63.0721 86.9209C63.0231 86.9209 62.9845 86.9209 62.9565 86.9244C62.9285 86.9244 62.9039 86.9314 62.8794 86.9384C62.932 86.7947 63.0231 86.6791 63.1492 86.5985C63.2754 86.5179 63.4226 86.4758 63.5943 86.4758C63.8291 86.4758 64.0149 86.5494 64.1551 86.7001C64.2917 86.8508 64.3618 87.0506 64.3618 87.3064C64.3618 87.5132 64.3058 87.6954 64.1901 87.8496C64.078 88.0038 63.8817 88.158 63.6083 88.3122C63.5488 88.3438 63.4576 88.3893 63.328 88.4524C62.974 88.6241 62.7112 88.7923 62.5394 88.9465C62.4133 89.0622 62.3187 89.2059 62.2556 89.3741C62.1925 89.5423 62.1609 89.7351 62.1609 89.9524C62.1609 90.3484 62.2591 90.6603 62.4588 90.8881C62.6586 91.1159 62.9249 91.2315 63.2649 91.2315C63.5032 91.2315 63.71 91.179 63.8852 91.0738C64.0569 90.9687 64.2146 90.8005 64.3583 90.5727C64.4214 90.797 64.523 90.9617 64.6667 91.0703M64.3023 89.304C64.3023 89.6755 64.2532 89.9454 64.1586 90.1171C64.0639 90.2888 63.9097 90.3729 63.703 90.3729C63.5628 90.3729 63.4401 90.3203 63.342 90.2187C63.2439 90.1171 63.1948 89.9909 63.1948 89.8437C63.1948 89.5669 63.3981 89.2585 63.8046 88.9185C64.0254 88.7363 64.1936 88.5821 64.3058 88.4594V89.3005L64.3023 89.304ZM59.1365 86.1324C58.9683 85.9887 58.765 85.9186 58.5302 85.9186C58.3094 85.9186 58.1096 85.9817 57.9274 86.1043C57.7452 86.227 57.5734 86.4197 57.4157 86.6721V86.0623H55.9578V86.651C56.1471 86.651 56.2697 86.6756 56.3223 86.7211C56.3749 86.7702 56.4029 86.8823 56.4029 87.0646V90.0715C56.4029 90.2573 56.3749 90.3729 56.3223 90.422C56.2662 90.471 56.1471 90.4956 55.9613 90.4956V91.0773H57.8153V90.4956C57.6646 90.4956 57.5629 90.4675 57.5139 90.4185C57.4648 90.3729 57.4368 90.2538 57.4368 90.068V87.9022C57.4368 87.5202 57.4893 87.2363 57.598 87.0435C57.7066 86.8508 57.8643 86.7562 58.0781 86.7562C58.2183 86.7562 58.3199 86.8017 58.39 86.8929C58.4601 86.984 58.4951 87.1207 58.4951 87.3029V90.068C58.4951 90.2432 58.4706 90.3589 58.418 90.4115C58.3655 90.464 58.2638 90.4921 58.1096 90.4956V91.0773H59.9075V90.4956C59.7498 90.4956 59.6482 90.4675 59.5956 90.4185C59.5465 90.3694 59.522 90.2538 59.522 90.0715V87.9057C59.522 87.5237 59.5746 87.2398 59.6797 87.0471C59.7848 86.8543 59.946 86.7597 60.1598 86.7597C60.2965 86.7597 60.4016 86.8052 60.4717 86.8964C60.5418 86.9875 60.5769 87.1242 60.5769 87.3064V90.0715C60.5769 90.2503 60.5523 90.3659 60.5068 90.415C60.4612 90.464 60.3596 90.4921 60.2054 90.4991V91.0808H62.0558V90.4991C61.8666 90.4991 61.7439 90.4745 61.6878 90.4255C61.6318 90.3764 61.6037 90.2608 61.6037 90.075V87.4466C61.6037 86.9069 61.5266 86.5144 61.3724 86.276C61.2182 86.0377 60.9659 85.9186 60.6189 85.9186C60.3911 85.9186 60.1844 85.9852 59.9951 86.1183C59.8059 86.2515 59.6376 86.4513 59.4904 86.7211C59.4309 86.4723 59.3152 86.276 59.147 86.1324M55.6494 90.6498C55.8877 90.2643 56.0069 89.5704 56.0069 88.5716C56.0069 87.5727 55.8877 86.8788 55.6459 86.4933C55.4041 86.1113 54.9905 85.9186 54.4018 85.9186C53.813 85.9186 53.41 86.1113 53.1682 86.4933C52.9263 86.8788 52.8072 87.5692 52.8072 88.5716C52.8072 89.5739 52.9263 90.2748 53.1647 90.6568C53.403 91.0388 53.8165 91.2315 54.4018 91.2315C54.987 91.2315 55.4076 91.0388 55.6494 90.6533M54.0128 90.2292C53.9392 90.0154 53.9041 89.4617 53.9041 88.5716C53.9041 87.6814 53.9392 87.1347 54.0128 86.9209C54.0864 86.7071 54.2195 86.5985 54.4123 86.5985C54.605 86.5985 54.7312 86.7071 54.8013 86.9209C54.8714 87.1347 54.9064 87.6849 54.9064 88.5716C54.9064 89.4582 54.8714 90.0154 54.8013 90.2292C54.7312 90.443 54.6015 90.5517 54.4088 90.5517C54.216 90.5517 54.0794 90.443 54.0093 90.2292M49.4603 84.3555H49.8073C50.2033 84.3555 50.4731 84.4466 50.6168 84.6254C50.7605 84.8041 50.8341 85.1265 50.8341 85.5926C50.8341 86.0588 50.7535 86.3742 50.5923 86.5704C50.4311 86.7667 50.1647 86.8648 49.7862 86.8648H49.4568V84.3555H49.4603ZM49.4603 87.6674C49.4848 87.6674 49.5129 87.6604 49.5409 87.6604C49.5654 87.6604 49.604 87.6604 49.6531 87.6604C49.972 87.6604 50.1963 87.748 50.3294 87.9197C50.4626 88.0914 50.5397 88.4033 50.5537 88.8519C50.5537 88.9571 50.5607 89.1078 50.5643 89.311C50.5783 90.0154 50.6519 90.5026 50.785 90.7689C50.8727 90.9407 50.9883 91.0668 51.125 91.1474C51.2652 91.228 51.4404 91.2666 51.6577 91.2666C52.0152 91.2666 52.2745 91.1509 52.4322 90.9161C52.5934 90.6813 52.674 90.2993 52.674 89.7736V89.4547H52.271V89.9734C52.271 90.1066 52.2465 90.2117 52.2009 90.2958C52.1553 90.3764 52.0958 90.4185 52.0187 90.4185C51.868 90.4185 51.7768 90.1311 51.7453 89.5598C51.7383 89.4267 51.7348 89.3285 51.7313 89.262C51.6892 88.6241 51.5946 88.1825 51.4474 87.9337C51.3002 87.6849 51.0584 87.5202 50.715 87.4431C51.1285 87.373 51.4439 87.1732 51.6682 86.8473C51.889 86.5214 52.0011 86.0938 52.0011 85.5646C52.0011 84.9022 51.8294 84.4151 51.486 84.0962C51.1425 83.7808 50.6098 83.6196 49.8914 83.6196H47.7325V84.359C47.9183 84.359 48.0515 84.3976 48.1286 84.4782C48.2057 84.5588 48.2442 84.699 48.2442 84.8987V89.8017C48.2442 90.0049 48.2057 90.1451 48.1286 90.2257C48.0515 90.3063 47.9183 90.3484 47.7325 90.3484V91.0879H50.0105V90.3484H49.972C49.7827 90.3484 49.6496 90.3063 49.576 90.2257C49.5024 90.1451 49.4638 90.0049 49.4638 89.8017V87.6709L49.4603 87.6674ZM47.7886 88.0949H46.2922V88.936H47.7886V88.0949ZM44.9078 91.0668C45.048 91.1755 45.2338 91.228 45.4651 91.228C45.7524 91.228 45.9627 91.1369 46.0959 90.9512C46.2291 90.7689 46.2957 90.471 46.2957 90.068V89.7386H45.9172C45.9172 89.7806 45.9172 89.8332 45.9207 89.9033C45.9207 89.9699 45.9242 90.019 45.9242 90.0505C45.9242 90.2573 45.9102 90.4045 45.8821 90.4886C45.8541 90.5727 45.8085 90.6147 45.7419 90.6147C45.6894 90.6147 45.6508 90.6007 45.6298 90.5692C45.6088 90.5376 45.5982 90.471 45.5982 90.3694V87.5272C45.5982 86.991 45.4721 86.588 45.2233 86.3216C44.9744 86.0553 44.5924 85.9221 44.0843 85.9221C43.6287 85.9221 43.2537 86.0482 42.9698 86.3006C42.6824 86.5529 42.5387 86.8718 42.5387 87.2608C42.5387 87.4886 42.5983 87.6639 42.721 87.7935C42.8436 87.9232 43.0084 87.9863 43.2151 87.9863C43.3868 87.9863 43.527 87.9372 43.6322 87.8391C43.7373 87.741 43.7864 87.6113 43.7864 87.4536C43.7864 87.2819 43.7478 87.1487 43.6672 87.0576C43.5901 86.9665 43.4745 86.9209 43.3238 86.9209C43.2747 86.9209 43.2362 86.9209 43.2081 86.9244C43.1801 86.9244 43.1555 86.9314 43.131 86.9384C43.1836 86.7947 43.2747 86.6791 43.4009 86.5985C43.527 86.5179 43.6742 86.4758 43.8424 86.4758C44.0773 86.4758 44.2665 86.5494 44.4032 86.7001C44.5399 86.8508 44.61 87.0506 44.61 87.3064C44.61 87.5132 44.5539 87.6954 44.4382 87.8496C44.3261 88.0038 44.1298 88.158 43.8565 88.3122C43.7969 88.3438 43.7058 88.3893 43.5796 88.4524C43.2256 88.6241 42.9628 88.7923 42.7911 88.9465C42.6649 89.0622 42.5703 89.2059 42.5072 89.3741C42.4441 89.5423 42.4126 89.7351 42.4126 89.9524C42.4126 90.3484 42.5107 90.6603 42.7105 90.8881C42.9102 91.1159 43.1766 91.2315 43.5165 91.2315C43.7548 91.2315 43.9616 91.179 44.1333 91.0738C44.3051 90.9687 44.4628 90.8005 44.6064 90.5727C44.6695 90.797 44.7712 90.9617 44.9149 91.0703M44.5539 89.304C44.5539 89.6755 44.5048 89.9454 44.4102 90.1171C44.3156 90.2888 44.1614 90.3729 43.9546 90.3729C43.8144 90.3729 43.6917 90.3203 43.5936 90.2187C43.4955 90.1171 43.4464 89.9909 43.4464 89.8437C43.4464 89.5669 43.6497 89.2585 44.0562 88.9185C44.277 88.7363 44.4417 88.5821 44.5574 88.4594V89.3005L44.5539 89.304ZM40.853 85.456C40.9722 85.5716 41.1194 85.6312 41.2946 85.6312C41.4698 85.6312 41.61 85.5751 41.7257 85.4595C41.8378 85.3438 41.8974 85.2001 41.8974 85.0214C41.8974 84.8532 41.8378 84.7095 41.7187 84.5903C41.5995 84.4712 41.4593 84.4116 41.2946 84.4116C41.1299 84.4116 40.9862 84.4712 40.8635 84.5973C40.7409 84.72 40.6778 84.8602 40.6778 85.0214C40.6778 85.1931 40.7374 85.3403 40.8565 85.456M41.8729 86.0658H40.3729V86.6545C40.5621 86.6545 40.6813 86.6791 40.7374 86.7246C40.7899 86.7737 40.818 86.8858 40.818 87.0681V90.075C40.818 90.2608 40.7899 90.3764 40.7339 90.4255C40.6778 90.4745 40.5586 90.4991 40.3729 90.4991V91.0808H42.3179V90.4991C42.1322 90.4991 42.013 90.4745 41.957 90.429C41.9009 90.3799 41.8764 90.2643 41.8764 90.075V86.0623L41.8729 86.0658ZM39.679 84.2854H38.1825V84.8742C38.3718 84.8742 38.4909 84.8987 38.547 84.9443C38.5996 84.9934 38.6276 85.1055 38.6276 85.2878V90.075C38.6276 90.2608 38.5996 90.3764 38.5435 90.4255C38.4874 90.4745 38.3683 90.4991 38.1825 90.4991V91.0808H40.1276V90.4991C39.9418 90.4991 39.8192 90.4745 39.7631 90.429C39.707 90.3799 39.679 90.2643 39.679 90.075V84.2819V84.2854ZM36.4162 85.456C36.5354 85.5716 36.6826 85.6312 36.8578 85.6312C37.033 85.6312 37.1732 85.5751 37.2889 85.4595C37.401 85.3438 37.4571 85.2001 37.4571 85.0214C37.4571 84.8532 37.3975 84.7095 37.2818 84.5903C37.1627 84.4712 37.0225 84.4116 36.8578 84.4116C36.6931 84.4116 36.5494 84.4712 36.4267 84.5973C36.3041 84.72 36.241 84.8602 36.241 85.0214C36.241 85.1931 36.3006 85.3403 36.4197 85.456M37.4361 86.0658H35.9361V86.6545C36.1253 86.6545 36.2445 86.6791 36.3006 86.7246C36.3531 86.7737 36.3812 86.8858 36.3812 87.0681V90.075C36.3812 90.2608 36.3531 90.3764 36.2971 90.4255C36.241 90.4745 36.1218 90.4991 35.9361 90.4991V91.0808H37.8811V90.4991C37.6954 90.4991 37.5762 90.4745 37.5202 90.429C37.4641 90.3799 37.4361 90.2643 37.4361 90.075V86.0623V86.0658ZM32.7714 86.1324C32.6032 85.9887 32.4 85.9186 32.1651 85.9186C31.9444 85.9186 31.7446 85.9817 31.5624 86.1043C31.3801 86.227 31.2084 86.4197 31.0542 86.6721V86.0623H29.5963V86.651C29.7855 86.651 29.9082 86.6756 29.9608 86.7211C30.0133 86.7702 30.0414 86.8823 30.0414 87.0646V90.0715C30.0414 90.2573 30.0133 90.3729 29.9573 90.422C29.9012 90.471 29.782 90.4956 29.5963 90.4956V91.0773H31.4502V90.4956C31.2995 90.4956 31.1979 90.4675 31.1488 90.4185C31.0997 90.3729 31.0717 90.2538 31.0717 90.068V87.9022C31.0717 87.5202 31.1243 87.2363 31.2329 87.0435C31.3381 86.8508 31.4993 86.7562 31.7131 86.7562C31.8497 86.7562 31.9549 86.8017 32.025 86.8929C32.0951 86.984 32.1301 87.1207 32.1301 87.3029V90.068C32.1301 90.2432 32.1056 90.3589 32.053 90.4115C32.0004 90.464 31.8988 90.4921 31.7446 90.4956V91.0773H33.5424V90.4956C33.3847 90.4956 33.2796 90.4675 33.2305 90.4185C33.178 90.3694 33.1534 90.2538 33.1534 90.0715V87.9057C33.1534 87.5237 33.206 87.2398 33.3111 87.0471C33.4163 86.8543 33.5775 86.7597 33.7913 86.7597C33.928 86.7597 34.0331 86.8052 34.1032 86.8964C34.1733 86.9875 34.2083 87.1242 34.2083 87.3064V90.0715C34.2083 90.2503 34.1838 90.3659 34.1382 90.415C34.0927 90.464 33.991 90.4921 33.8368 90.4991L33.8298 91.0808H35.6838V90.4991C35.4945 90.4991 35.3718 90.4745 35.3158 90.4255C35.2597 90.3764 35.2317 90.2608 35.2317 90.075V87.4466C35.2317 86.9069 35.1546 86.5144 35.0004 86.276C34.8462 86.0377 34.5938 85.9186 34.2469 85.9186C34.0191 85.9186 33.8123 85.9852 33.6231 86.1183C33.4338 86.2515 33.2656 86.4513 33.1184 86.7211C33.0588 86.4723 32.9432 86.276 32.7749 86.1324M29.3369 91.0808V88.2211H28.7727C28.7552 89.0622 28.6395 89.6264 28.4257 89.9138C28.212 90.2012 27.7949 90.3414 27.1816 90.3414H26.8522V87.6008H26.9783C27.2587 87.6008 27.4585 87.6814 27.5776 87.8391C27.6968 87.9968 27.7529 88.2667 27.7529 88.6487V88.6977H28.2891V85.7679H27.7529V85.8205C27.7529 86.2025 27.6968 86.4688 27.5776 86.6265C27.462 86.7842 27.2622 86.8613 26.9748 86.8613H26.8487V84.352H27.08C27.6898 84.352 28.0998 84.4712 28.3171 84.713C28.5344 84.9548 28.6535 85.4069 28.6816 86.0728H29.2493V83.6126H25.1209V84.352C25.3067 84.352 25.4398 84.3906 25.5169 84.4712C25.594 84.5518 25.6326 84.692 25.6326 84.8917V89.7947C25.6326 89.9979 25.594 90.1381 25.5169 90.2187C25.4398 90.2993 25.3067 90.3414 25.1209 90.3414V91.0808H29.3334H29.3369ZM22.5275 87.4851C22.5275 87.1452 22.5661 86.8999 22.6432 86.7457C22.7203 86.5915 22.8429 86.5179 23.0076 86.5179C23.1829 86.5179 23.309 86.588 23.3826 86.7281C23.4562 86.8683 23.4948 87.1136 23.4948 87.4676V88.0669H22.5275V87.4851ZM24.4656 88.6662V88.0844C24.4656 87.6989 24.4515 87.415 24.4235 87.2328C24.3955 87.0471 24.3464 86.8858 24.2763 86.7387C24.1431 86.4723 23.9749 86.269 23.7681 86.1289C23.5614 85.9887 23.3196 85.9186 23.0462 85.9186C22.4995 85.9186 22.0929 86.1359 21.8266 86.5739C21.5638 87.012 21.4306 87.6884 21.4306 88.6101C21.4306 89.5318 21.5567 90.2327 21.8091 90.6288C22.0614 91.0248 22.482 91.221 23.0707 91.221C23.5368 91.221 23.8873 91.0668 24.1186 90.7549C24.3499 90.443 24.4691 89.9804 24.4691 89.3636C24.4691 89.3461 24.4691 89.311 24.4656 89.2585C24.4656 89.2094 24.4621 89.1673 24.4621 89.1393H23.7962C23.7962 89.6475 23.7471 90.0119 23.6525 90.2327C23.5579 90.457 23.4002 90.5692 23.1864 90.5692C22.9516 90.5692 22.7834 90.45 22.6817 90.2117C22.5801 89.9734 22.531 89.5493 22.531 88.9465V88.6697H24.4726L24.4656 88.6662ZM18.8968 87.9092C18.8968 87.5202 18.9528 87.2293 19.0615 87.0435C19.1701 86.8578 19.3348 86.7632 19.5591 86.7632C19.6888 86.7632 19.7869 86.8087 19.8535 86.8999C19.9201 86.991 19.9551 87.1277 19.9551 87.3099V90.075C19.9551 90.2573 19.9271 90.3729 19.8745 90.4255C19.822 90.4745 19.7133 90.5026 19.5486 90.5026V91.0843H21.4516V90.5026C21.2624 90.5026 21.1397 90.4781 21.0836 90.429C21.0276 90.3799 20.9995 90.2643 20.9995 90.0785V87.4501C20.9995 86.9069 20.9189 86.5144 20.7647 86.276C20.607 86.0377 20.3512 85.9186 19.9937 85.9186C19.7659 85.9186 19.5556 85.9782 19.3699 86.1008C19.1841 86.2235 19.0124 86.4127 18.8512 86.6721V86.0623H17.4003V86.651C17.5895 86.651 17.7122 86.6756 17.7648 86.7211C17.8173 86.7702 17.8454 86.8823 17.8454 87.0646V90.0715C17.8454 90.2573 17.8173 90.3729 17.7613 90.422C17.7052 90.471 17.586 90.4956 17.4003 90.4956V91.0773H19.3033V90.4956C19.1316 90.4886 19.0229 90.464 18.9739 90.415C18.9248 90.3694 18.8968 90.2538 18.8968 90.0715V87.9057V87.9092ZM17.0148 90.6498C17.2531 90.2643 17.3723 89.5704 17.3723 88.5716C17.3723 87.5727 17.2531 86.8788 17.0113 86.4933C16.7695 86.1113 16.3559 85.9186 15.7672 85.9186C15.1784 85.9186 14.7719 86.1113 14.5335 86.4933C14.2917 86.8788 14.1726 87.5692 14.1726 88.5716C14.1726 89.5739 14.2917 90.2748 14.53 90.6568C14.7683 91.0388 15.1819 91.2315 15.7672 91.2315C16.3524 91.2315 16.773 91.0388 17.0113 90.6533M15.3781 90.2292C15.3046 90.0154 15.2695 89.4617 15.2695 88.5716C15.2695 87.6814 15.3046 87.1347 15.3781 86.9209C15.4517 86.7071 15.5849 86.5985 15.7812 86.5985C15.9774 86.5985 16.1001 86.7071 16.1702 86.9209C16.2403 87.1347 16.2753 87.6849 16.2753 88.5716C16.2753 89.4582 16.2403 90.0154 16.1737 90.2292C16.1036 90.443 15.9739 90.5517 15.7812 90.5517C15.5884 90.5517 15.4517 90.443 15.3781 90.2292ZM12.7076 85.456C12.8268 85.5716 12.974 85.6312 13.1492 85.6312C13.3245 85.6312 13.4646 85.5751 13.5803 85.4595C13.6924 85.3438 13.752 85.2001 13.752 85.0214C13.752 84.8532 13.6924 84.7095 13.5733 84.5903C13.4541 84.4712 13.3139 84.4116 13.1492 84.4116C12.9845 84.4116 12.8408 84.4712 12.7182 84.5973C12.5955 84.72 12.5324 84.8602 12.5324 85.0214C12.5324 85.1931 12.592 85.3403 12.7112 85.456M13.7275 86.0658H12.2275V86.6545C12.4168 86.6545 12.5359 86.6791 12.592 86.7246C12.6446 86.7737 12.6726 86.8858 12.6726 87.0681V90.075C12.6726 90.2608 12.6446 90.3764 12.5885 90.4255C12.5324 90.4745 12.4133 90.4991 12.2275 90.4991V91.0808H14.1726V90.4991C13.9868 90.4991 13.8677 90.4745 13.8116 90.429C13.7555 90.3799 13.7275 90.2643 13.7275 90.075V86.0623V86.0658ZM8.42153 89.7246C8.30939 89.8998 8.25331 90.0996 8.25331 90.3203C8.25331 90.5411 8.30588 90.7129 8.40752 90.8636C8.50915 91.0143 8.67036 91.1439 8.88765 91.2491C8.64232 91.3472 8.46008 91.4558 8.34093 91.5785C8.22177 91.7012 8.1657 91.8378 8.1657 91.9955C8.1657 92.2759 8.32691 92.5002 8.65284 92.6719C8.97876 92.8436 9.41684 92.9278 9.97056 92.9278C10.6399 92.9278 11.1516 92.7981 11.5056 92.5423C11.8595 92.2829 12.0348 91.9114 12.0348 91.4243C12.0348 91.1965 11.9927 91.0002 11.9121 90.832C11.8315 90.6638 11.7088 90.5306 11.5476 90.429C11.425 90.3484 11.085 90.2923 10.5278 90.2538C10.3526 90.2397 10.2159 90.2327 10.1213 90.2257C9.64113 90.1872 9.33623 90.1451 9.19955 90.0925C9.06287 90.0435 8.99629 89.9629 8.99629 89.8577C8.99629 89.8087 9.01731 89.7526 9.05587 89.693C9.09792 89.6334 9.16451 89.5634 9.25563 89.4792C9.37478 89.5248 9.49043 89.5634 9.60258 89.5879C9.71473 89.6124 9.81987 89.6264 9.9215 89.6264C10.4156 89.6264 10.7906 89.4617 11.043 89.1323C11.2953 88.8029 11.4215 88.3157 11.4215 87.6744C11.4215 87.3344 11.3689 87.0435 11.2673 86.8017C11.1656 86.5599 11.0149 86.3707 10.8117 86.234C10.8888 86.0798 10.9729 85.9641 11.064 85.887C11.1551 85.8099 11.2532 85.7714 11.3584 85.7714C11.3829 85.7714 11.418 85.7749 11.467 85.7854C11.474 85.7854 11.4775 85.7854 11.4845 85.7889C11.4039 85.8099 11.3409 85.852 11.2988 85.9081C11.2567 85.9676 11.2357 86.0377 11.2357 86.1218C11.2357 86.234 11.2708 86.3251 11.3374 86.3917C11.4039 86.4583 11.4986 86.4898 11.6142 86.4898C11.7474 86.4898 11.8525 86.4478 11.9296 86.3637C12.0102 86.2795 12.0488 86.1639 12.0488 86.0202C12.0488 85.8204 11.9857 85.6662 11.856 85.5471C11.7264 85.4314 11.5546 85.3719 11.3409 85.3719C11.1691 85.3719 11.0009 85.4244 10.8362 85.5331C10.6715 85.6417 10.5173 85.7994 10.3701 86.0097C10.2755 85.9782 10.1843 85.9536 10.0932 85.9396C10.0021 85.9256 9.91099 85.9186 9.81636 85.9186C9.38179 85.9186 9.03484 86.0938 8.77199 86.4478C8.50915 86.8017 8.37948 87.2749 8.37948 87.8706C8.37948 88.1931 8.42153 88.4699 8.50915 88.6977C8.59676 88.9255 8.72994 89.1148 8.91568 89.2655C8.69139 89.3951 8.52317 89.5458 8.41102 89.7246M10.8642 91.5119C10.9273 91.5119 10.9659 91.5154 10.9764 91.5154C11.1411 91.5329 11.2497 91.5645 11.3093 91.61C11.3689 91.6556 11.3969 91.7257 11.3969 91.8273C11.3969 92.0025 11.2883 92.1427 11.0745 92.2444C10.8572 92.346 10.5628 92.3986 10.1914 92.3986C9.79183 92.3986 9.48343 92.346 9.26965 92.2409C9.05587 92.1357 8.94722 91.985 8.94722 91.7888C8.94722 91.6977 8.96825 91.617 9.01031 91.547C9.05236 91.4769 9.11544 91.4173 9.20306 91.3682C9.77781 91.4313 10.3315 91.4769 10.8642 91.5084M9.52548 88.7608C9.45188 88.5786 9.41333 88.2526 9.41333 87.776C9.41333 87.2994 9.45188 86.9664 9.52548 86.7807C9.60258 86.5985 9.72875 86.5038 9.91099 86.5038C10.0932 86.5038 10.2194 86.595 10.293 86.7807C10.3666 86.9664 10.4051 87.2959 10.4051 87.776C10.4051 88.2561 10.3666 88.5751 10.293 88.7573C10.2159 88.9395 10.0897 89.0307 9.91099 89.0307C9.73225 89.0307 9.59908 88.9395 9.52548 88.7608ZM6.16107 87.4851C6.16107 87.1452 6.19962 86.8999 6.27672 86.7457C6.35383 86.5915 6.47649 86.5179 6.6412 86.5179C6.81643 86.5179 6.9426 86.588 7.01619 86.7281C7.08979 86.8683 7.12834 87.1136 7.12834 87.4676V88.0669H6.16107V87.4851ZM8.10262 88.6662V88.0844C8.10262 87.6989 8.0886 87.415 8.06056 87.2328C8.03252 87.0471 7.98346 86.8858 7.91337 86.7387C7.78019 86.4723 7.61197 86.269 7.4017 86.1289C7.19493 85.9887 6.95311 85.9186 6.67975 85.9186C6.13304 85.9186 5.7265 86.1359 5.46366 86.5739C5.19731 87.012 5.06764 87.6884 5.06764 88.6101C5.06764 89.5318 5.19381 90.2327 5.44614 90.6288C5.69847 91.0248 6.11902 91.221 6.70779 91.221C7.1739 91.221 7.52085 91.0668 7.75566 90.7549C7.98696 90.443 8.10612 89.9804 8.10612 89.3636C8.10612 89.3461 8.10612 89.311 8.10262 89.2585C8.10262 89.2094 8.09911 89.1673 8.09911 89.1393H7.43324C7.43324 89.6475 7.38417 90.0119 7.28955 90.2327C7.19493 90.457 7.03722 90.5692 6.82344 90.5692C6.58863 90.5692 6.42041 90.45 6.31878 90.2117C6.21715 89.9734 6.16808 89.5493 6.16808 88.9465V88.6697H8.10963L8.10262 88.6662ZM1.72776 84.3555H2.07472C2.47074 84.3555 2.74059 84.4466 2.88428 84.6254C3.02797 84.8041 3.10156 85.1265 3.10156 85.5926C3.10156 86.0588 3.02096 86.3742 2.85975 86.5704C2.69854 86.7667 2.43219 86.8648 2.05369 86.8648H1.72426V84.3555H1.72776ZM1.72776 87.6674C1.7523 87.6674 1.78033 87.6604 1.80486 87.6604C1.8294 87.6604 1.86795 87.6604 1.91701 87.6604C2.23593 87.6604 2.46022 87.748 2.5934 87.9197C2.72657 88.0914 2.80367 88.4033 2.81769 88.8519C2.81769 88.9571 2.8247 89.1078 2.82821 89.311C2.84222 90.0154 2.91582 90.5026 3.04899 90.7689C3.13661 90.9407 3.25226 91.0668 3.38894 91.1474C3.52912 91.228 3.70435 91.2666 3.92164 91.2666C4.27911 91.2666 4.53845 91.1509 4.69615 90.9161C4.85386 90.6813 4.93797 90.2993 4.93797 89.7736V89.4547H4.53494V89.9734C4.53494 90.1066 4.51391 90.2117 4.46835 90.2958C4.42279 90.3764 4.36322 90.4185 4.28612 90.4185C4.13542 90.4185 4.0443 90.1311 4.00925 89.5598C4.00224 89.4267 3.99874 89.3285 3.99523 89.262C3.95318 88.6241 3.85856 88.1825 3.71136 87.9337C3.56417 87.6849 3.31885 87.5202 2.9789 87.4431C3.39244 87.373 3.70786 87.1732 3.93215 86.8473C4.15645 86.5214 4.26509 86.0938 4.26509 85.5646C4.26509 84.9022 4.09336 84.4151 3.74991 84.0962C3.40646 83.7808 2.87377 83.6196 2.15532 83.6196H0V84.359C0.185743 84.359 0.318918 84.3976 0.396019 84.4782C0.47312 84.5588 0.51167 84.699 0.51167 84.8987V89.8017C0.51167 90.0049 0.47312 90.1451 0.396019 90.2257C0.318918 90.3063 0.189248 90.3484 0 90.3484V91.0879H2.27798V90.3484H2.23943C2.05019 90.3484 1.91701 90.3063 1.83991 90.2257C1.76631 90.1451 1.72776 90.0049 1.72776 89.8017V87.6709V87.6674Z" fill="var(--fill-0, #282828)"/>
</g>
<defs>
<clipPath id="clip0_4106_1418">
<rect width="78.233" height="92.9278" fill="white"/>
</clipPath>
</defs>
</svg>
