<svg preserveAspectRatio="none" width="100%" height="100%" overflow="visible" style="display: block;" viewBox="0 0 172 35" fill="none" xmlns="http://www.w3.org/2000/svg">
<g id="SalvatoreRobuschi">
<g id="Group">
<path id="Vector" d="M108.177 7.5769C108.574 7.90456 109.091 8.0684 109.729 8.0684C110.288 8.0684 110.74 7.94825 111.084 7.70797C111.429 7.46768 111.602 7.13395 111.602 6.70617C111.602 6.40035 111.508 6.15824 111.32 5.97924C111.133 5.80024 110.878 5.6625 110.554 5.56663C110.231 5.47076 109.777 5.37003 109.192 5.26566C108.598 5.16069 108.089 5.02356 107.666 4.85305C107.242 4.68255 106.898 4.42284 106.631 4.07394C106.365 3.72444 106.232 3.26631 106.232 2.69837C106.232 2.17471 106.37 1.70749 106.645 1.2967C106.919 0.88651 107.304 0.567342 107.798 0.340405C108.291 0.113468 108.856 0 109.493 0C110.131 0 110.734 0.121963 111.249 0.366497C111.764 0.611031 112.17 0.947189 112.467 1.37497C112.764 1.80275 112.926 2.29182 112.952 2.84217H111.472C111.42 2.3707 111.214 1.99086 110.856 1.70263C110.498 1.41441 110.044 1.2706 109.494 1.2706C108.944 1.2706 108.536 1.3865 108.217 1.61768C107.898 1.84887 107.739 2.1741 107.739 2.59339C107.739 2.89011 107.833 3.12615 108.02 3.3009C108.208 3.47565 108.459 3.60672 108.773 3.6941C109.088 3.78147 109.537 3.87734 110.122 3.98232C110.716 4.08729 111.226 4.22685 111.655 4.40161C112.083 4.57636 112.432 4.83364 112.703 5.17465C112.973 5.51505 113.109 5.96468 113.109 6.52353C113.109 7.08237 112.965 7.5496 112.677 7.97738C112.388 8.40516 111.987 8.7395 111.472 8.97918C110.956 9.21946 110.371 9.33961 109.716 9.33961C108.992 9.33961 108.354 9.20854 107.804 8.94641C107.253 8.68428 106.824 8.3196 106.514 7.85238C106.203 7.38516 106.044 6.85058 106.035 6.24805L107.515 6.27414C107.559 6.81539 107.779 7.24985 108.177 7.57751V7.5769Z" fill="var(--fill-0, #282828)"/>
<path id="Vector_2" d="M116.553 0.091198H118.348L121.766 9.2603H120.155L119.291 6.99457H115.532L114.68 9.2603H113.121L116.553 0.091198ZM118.872 5.71062L117.405 1.71556L115.951 5.71062H118.872Z" fill="var(--fill-0, #282828)"/>
<path id="Vector_3" d="M122.461 0.091198H123.967V7.92416H127.91V9.2603H122.461V0.091198Z" fill="var(--fill-0, #282828)"/>
<path id="Vector_4" d="M128.067 0.091198L130.595 7.45269L133.149 0.091198H134.708L131.498 9.2603H129.691L126.469 0.091198H128.067Z" fill="var(--fill-0, #282828)"/>
<path id="Vector_5" d="M136.83 0.091198H138.625L142.043 9.2603H140.432L139.567 6.99457H135.808L134.957 9.2603H133.398L136.83 0.091198ZM139.148 5.71062L137.681 1.71556L136.227 5.71062H139.148Z" fill="var(--fill-0, #282828)"/>
<path id="Vector_6" d="M148.068 0.091198V1.42733H145.239V9.2603H143.733V1.42733H140.904V0.091198H148.068Z" fill="var(--fill-0, #282828)"/>
<path id="Vector_7" d="M154.703 8.73597C154.027 9.13766 153.256 9.3385 152.391 9.3385C151.527 9.3385 150.756 9.13766 150.079 8.73597C149.403 8.33428 148.877 7.77968 148.501 7.07217C148.126 6.36466 147.938 5.56613 147.938 4.67537C147.938 3.78462 148.126 2.98548 148.501 2.27858C148.877 1.57107 149.403 1.01708 150.079 0.61478C150.756 0.21309 151.527 0.0122446 152.391 0.0122446C153.256 0.0122446 154.027 0.21309 154.703 0.61478C155.38 1.01647 155.906 1.57107 156.281 2.27858C156.657 2.98609 156.844 3.78462 156.844 4.67537C156.844 5.56613 156.657 6.36526 156.281 7.07217C155.906 7.77968 155.38 8.33367 154.703 8.73597ZM150.879 7.58975C151.32 7.87373 151.824 8.01571 152.391 8.01571C152.959 8.01571 153.463 7.87373 153.904 7.58975C154.345 7.30578 154.688 6.90834 154.932 6.39803C155.177 5.88712 155.299 5.3131 155.299 4.67537C155.299 4.03764 155.177 3.46363 154.932 2.95272C154.688 2.4418 154.345 2.04436 153.904 1.76099C153.463 1.47702 152.959 1.33503 152.391 1.33503C151.824 1.33503 151.32 1.47702 150.879 1.76099C150.437 2.04497 150.095 2.4418 149.85 2.95272C149.605 3.46363 149.484 4.03764 149.484 4.67537C149.484 5.3131 149.605 5.88712 149.85 6.39803C150.095 6.90894 150.437 7.30639 150.879 7.58975Z" fill="var(--fill-0, #282828)"/>
<path id="Vector_8" d="M163.211 0.451627C163.691 0.691913 164.065 1.03232 164.331 1.47345C164.597 1.91458 164.73 2.42731 164.73 3.01225C164.73 3.59719 164.569 4.16029 164.245 4.62326C163.923 5.08624 163.49 5.41329 162.949 5.60564L164.887 9.2603H163.211L161.469 5.93331H159.426V9.2603H157.92V0.091198H161.535C162.172 0.091198 162.731 0.211341 163.211 0.451627H163.211ZM161.416 4.62326C161.957 4.62326 162.387 4.47703 162.706 4.18456C163.024 3.89209 163.184 3.50132 163.184 3.01225C163.184 2.52319 163.024 2.13242 162.706 1.83995C162.387 1.54748 161.957 1.40124 161.416 1.40124H159.425V4.62326H161.416Z" fill="var(--fill-0, #282828)"/>
<path id="Vector_9" d="M171.843 0.091198V1.42733H167.363V3.96854H171.056V5.26524H167.363V7.92416H172V9.2603H165.857V0.091198H171.843Z" fill="var(--fill-0, #282828)"/>
</g>
<g id="Group_2">
<path id="Vector_10" d="M111.681 12.8475C112.162 13.0878 112.535 13.4282 112.802 13.8694C113.068 14.3105 113.201 14.8232 113.201 15.4082C113.201 15.9931 113.039 16.5562 112.716 17.0192C112.393 17.4821 111.961 17.8092 111.419 18.0016L113.358 21.6562H111.681L109.939 18.3292H107.896V21.6562H106.39V12.4871H110.006C110.643 12.4871 111.202 12.6072 111.682 12.8475H111.681ZM109.887 17.0192C110.428 17.0192 110.859 16.8729 111.177 16.5805C111.496 16.288 111.655 15.8972 111.655 15.4082C111.655 14.9191 111.496 14.5283 111.177 14.2359C110.859 13.9434 110.428 13.7971 109.887 13.7971H107.896V17.0192H109.887Z" fill="var(--fill-0, #282828)"/>
<path id="Vector_11" d="M120.609 21.1321C119.932 21.5338 119.161 21.7346 118.297 21.7346C117.432 21.7346 116.661 21.5338 115.985 21.1321C115.308 20.7304 114.782 20.1758 114.407 19.4683C114.031 18.7608 113.843 17.9623 113.843 17.0715C113.843 16.1807 114.031 15.3816 114.407 14.6747C114.782 13.9672 115.308 13.4132 115.985 13.0109C116.661 12.6092 117.432 12.4084 118.297 12.4084C119.161 12.4084 119.932 12.6092 120.609 13.0109C121.285 13.4126 121.811 13.9672 122.187 14.6747C122.562 15.3822 122.75 16.1807 122.75 17.0715C122.75 17.9623 122.562 18.7614 122.187 19.4683C121.811 20.1758 121.285 20.7298 120.609 21.1321ZM116.784 19.9865C117.225 20.2705 117.729 20.4124 118.297 20.4124C118.864 20.4124 119.369 20.2705 119.809 19.9865C120.25 19.7025 120.593 19.3057 120.838 18.7948C121.082 18.2839 121.204 17.7098 121.204 17.0721C121.204 16.4344 121.082 15.8604 120.838 15.3494C120.593 14.8385 120.251 14.4411 119.809 14.1577C119.368 13.8738 118.864 13.7318 118.297 13.7318C117.729 13.7318 117.224 13.8738 116.784 14.1577C116.343 14.4417 116 14.8385 115.755 15.3494C115.511 15.8604 115.389 16.4344 115.389 17.0721C115.389 17.7098 115.511 18.2839 115.755 18.7948C116 19.3057 116.343 19.7031 116.784 19.9865Z" fill="var(--fill-0, #282828)"/>
<path id="Vector_12" d="M129.529 13.1159C130.083 13.5352 130.361 14.1201 130.361 14.8713C130.361 15.4217 130.214 15.8731 129.922 16.2269C129.63 16.5806 129.208 16.8185 128.658 16.9405C130.029 17.1765 130.714 17.8967 130.714 19.1018C130.714 19.8967 130.42 20.5205 129.83 20.975C129.241 21.4288 128.4 21.6558 127.309 21.6558H123.825V12.4867H127.191C128.196 12.4867 128.975 12.696 129.529 13.1153L129.529 13.1159ZM127.23 16.3774C127.745 16.3774 128.144 16.2596 128.428 16.0236C128.712 15.7876 128.854 15.4648 128.854 15.0546C128.854 14.6444 128.712 14.3234 128.428 14.0916C128.144 13.8604 127.745 13.7445 127.23 13.7445H125.33V16.3774H127.23ZM127.321 20.3858C127.915 20.3858 128.372 20.2656 128.69 20.0253C129.009 19.7851 129.168 19.4513 129.168 19.0235C129.168 18.5958 129.007 18.2329 128.684 17.989C128.36 17.745 127.906 17.6225 127.321 17.6225H125.33V20.3864H127.321V20.3858Z" fill="var(--fill-0, #282828)"/>
<path id="Vector_13" d="M133.242 17.805C133.242 18.6696 133.413 19.3177 133.753 19.7503C134.094 20.1823 134.622 20.3983 135.338 20.3983C136.054 20.3983 136.598 20.1823 136.943 19.7503C137.287 19.3183 137.46 18.6696 137.46 17.805V12.4871H138.966V17.7267C138.966 19.0367 138.658 20.0318 138.043 20.7133C137.427 21.3941 136.526 21.7351 135.338 21.7351C134.149 21.7351 133.264 21.3947 132.653 20.7133C132.042 20.0318 131.736 19.0367 131.736 17.7267V12.4871H133.242V17.805H133.242Z" fill="var(--fill-0, #282828)"/>
<path id="Vector_14" d="M142.143 19.9732C142.54 20.3008 143.057 20.4647 143.695 20.4647C144.254 20.4647 144.706 20.3445 145.05 20.1042C145.395 19.8639 145.568 19.5302 145.568 19.1024C145.568 18.7966 145.474 18.5545 145.286 18.3755C145.099 18.1965 144.843 18.0588 144.52 17.9629C144.197 17.867 143.743 17.7663 143.158 17.6619C142.564 17.5569 142.055 17.4198 141.632 17.2493C141.208 17.0788 140.864 16.8191 140.597 16.4696C140.331 16.1201 140.198 15.662 140.198 15.094C140.198 14.5704 140.336 14.1031 140.611 13.6923C140.885 13.2822 141.27 12.963 141.763 12.7361C142.257 12.5091 142.822 12.3956 143.459 12.3956C144.096 12.3956 144.7 12.5176 145.215 12.7621C145.73 13.0067 146.136 13.3428 146.433 13.7706C146.73 14.1984 146.892 14.6875 146.918 15.2378H145.438C145.386 14.7664 145.18 14.3865 144.822 14.0983C144.464 13.8101 144.01 13.6663 143.46 13.6663C142.91 13.6663 142.502 13.7821 142.183 14.0133C141.864 14.2445 141.705 14.5698 141.705 14.989C141.705 15.2858 141.799 15.5218 141.986 15.6966C142.174 15.8713 142.425 16.0024 142.739 16.0897C143.053 16.1771 143.503 16.273 144.088 16.378C144.682 16.4829 145.192 16.6225 145.621 16.7973C146.048 16.972 146.398 17.2293 146.669 17.5697C146.939 17.9101 147.075 18.3603 147.075 18.9186C147.075 19.4768 146.931 19.9446 146.643 20.3724C146.354 20.8002 145.953 21.1345 145.437 21.3742C144.922 21.6145 144.337 21.7347 143.682 21.7347C142.958 21.7347 142.32 21.6036 141.769 21.3415C141.219 21.0793 140.79 20.7146 140.479 20.2474C140.169 19.7802 140.01 19.2456 140.001 18.6431L141.481 18.6692C141.525 19.2104 141.745 19.6449 142.143 19.9726V19.9732Z" fill="var(--fill-0, #282828)"/>
<path id="Vector_15" d="M149.884 12.9915C150.552 12.6031 151.331 12.4084 152.222 12.4084C152.912 12.4084 153.534 12.5394 154.088 12.8016C154.643 13.0637 155.095 13.4369 155.444 13.9217C155.793 14.4065 156.016 14.9672 156.112 15.6049H154.605C154.457 15.02 154.168 14.5612 153.741 14.2293C153.313 13.8974 152.784 13.7318 152.156 13.7318C151.588 13.7318 151.09 13.8738 150.662 14.1577C150.235 14.4417 149.907 14.8343 149.68 15.3367C149.453 15.8385 149.34 16.4174 149.34 17.0721C149.34 17.7268 149.453 18.2948 149.68 18.8008C149.907 19.3075 150.235 19.7025 150.662 19.9865C151.09 20.2705 151.588 20.4124 152.156 20.4124C152.784 20.4124 153.31 20.2468 153.734 19.9149C154.158 19.583 154.443 19.1249 154.592 18.5393H156.099C156.003 19.1855 155.782 19.7486 155.437 20.2292C155.093 20.7092 154.645 21.0805 154.094 21.3426C153.544 21.6048 152.92 21.7358 152.221 21.7358C151.331 21.7358 150.551 21.5435 149.883 21.1594C149.215 20.7753 148.7 20.2316 148.338 19.5284C147.976 18.8251 147.794 18.0066 147.794 17.0721C147.794 16.1377 147.976 15.3325 148.338 14.6292C148.7 13.9265 149.215 13.3804 149.883 12.9921L149.884 12.9915Z" fill="var(--fill-0, #282828)"/>
<path id="Vector_16" d="M158.653 12.4744V16.3384H162.91V12.4744H164.417V21.6562H162.91V17.6745H158.653V21.6562H157.147V12.4744H158.653Z" fill="var(--fill-0, #282828)"/>
<path id="Vector_17" d="M167.351 12.4871V21.6562H165.844V12.4871H167.351Z" fill="var(--fill-0, #282828)"/>
</g>
<g id="Group_3">
<path id="Vector_18" d="M111.669 25.2437C112.149 25.4839 112.52 25.8244 112.782 26.2655C113.044 26.7066 113.175 27.2193 113.175 27.8043C113.175 28.3892 113.044 28.9026 112.782 29.3431C112.52 29.7836 112.149 30.1246 111.669 30.3649C111.188 30.6052 110.634 30.7253 110.005 30.7253H107.896V34.0523H106.39V24.8832H110.006C110.634 24.8832 111.189 25.0034 111.669 25.2437H111.669ZM109.874 29.4153C110.415 29.4153 110.845 29.2691 111.164 28.9766C111.482 28.6841 111.642 28.2934 111.642 27.8043C111.642 27.3152 111.485 26.9135 111.171 26.6253C110.856 26.3371 110.428 26.1933 109.887 26.1933H107.896V29.4153H109.874H109.874Z" fill="var(--fill-0, #282828)"/>
<path id="Vector_19" d="M115.533 30.2011C115.533 31.0657 115.703 31.7138 116.044 32.1464C116.384 32.5785 116.913 32.7945 117.629 32.7945C118.345 32.7945 118.888 32.5785 119.233 32.1464C119.578 31.7144 119.751 31.0657 119.751 30.2011V24.8832H121.257V30.1228C121.257 31.4328 120.949 32.428 120.333 33.1094C119.717 33.7902 118.816 34.1312 117.628 34.1312C116.44 34.1312 115.554 33.7908 114.943 33.1094C114.332 32.428 114.026 31.4328 114.026 30.1228V24.8832H115.532V30.2011H115.533Z" fill="var(--fill-0, #282828)"/>
<path id="Vector_20" d="M124.584 24.8832L127.517 32.1003L130.399 24.8832H132.312V34.0523H130.858V27.3067L128.107 34.0523H126.836L124.086 27.3067V34.0523H122.632V24.8832H124.584Z" fill="var(--fill-0, #282828)"/>
<path id="Vector_21" d="M139.018 25.2437C139.499 25.4839 139.87 25.8244 140.132 26.2655C140.394 26.7066 140.525 27.2193 140.525 27.8043C140.525 28.3892 140.394 28.9026 140.132 29.3431C139.87 29.7836 139.499 30.1246 139.018 30.3649C138.538 30.6052 137.984 30.7253 137.355 30.7253H135.246V34.0523H133.74V24.8832H137.355C137.984 24.8832 138.538 25.0034 139.019 25.2437H139.018ZM137.223 29.4153C137.765 29.4153 138.195 29.2691 138.513 28.9766C138.832 28.6841 138.992 28.2934 138.992 27.8043C138.992 27.3152 138.834 26.9135 138.52 26.6253C138.206 26.3371 137.778 26.1933 137.237 26.1933H135.246V29.4153H137.224H137.223Z" fill="var(--fill-0, #282828)"/>
<path id="Vector_22" d="M143.229 32.3691C143.627 32.6968 144.144 32.8606 144.782 32.8606C145.34 32.8606 145.792 32.7405 146.137 32.5002C146.482 32.2599 146.655 31.9262 146.655 31.4984C146.655 31.1926 146.561 30.9505 146.373 30.7715C146.186 30.5925 145.93 30.4547 145.607 30.3588C145.283 30.263 144.829 30.1622 144.245 30.0579C143.65 29.9529 143.142 29.8158 142.718 29.6453C142.295 29.4748 141.95 29.2151 141.684 28.8662C141.418 28.5166 141.285 28.0585 141.285 27.4906C141.285 26.9669 141.422 26.4997 141.697 26.0889C141.972 25.6787 142.357 25.3596 142.85 25.1326C143.343 24.9057 143.909 24.7922 144.546 24.7922C145.183 24.7922 145.786 24.9142 146.302 25.1587C146.817 25.4032 147.223 25.7394 147.52 26.1672C147.817 26.595 147.979 27.084 148.005 27.6344H146.525C146.473 27.1629 146.267 26.7831 145.909 26.4948C145.551 26.2066 145.097 26.0628 144.547 26.0628C143.996 26.0628 143.589 26.1787 143.269 26.4099C142.951 26.6411 142.791 26.9663 142.791 27.3856C142.791 27.6823 142.885 27.9184 143.073 28.0931C143.26 28.2679 143.512 28.3989 143.826 28.4863C144.14 28.5737 144.59 28.6696 145.175 28.7745C145.769 28.8795 146.279 29.0191 146.707 29.1938C147.135 29.3686 147.485 29.6258 147.755 29.9669C148.026 30.3073 148.161 30.7569 148.161 31.3157C148.161 31.8746 148.017 32.3418 147.729 32.7696C147.441 33.1974 147.039 33.5317 146.524 33.7714C146.009 34.0117 145.424 34.1318 144.769 34.1318C144.044 34.1318 143.407 34.0008 142.856 33.7386C142.306 33.4765 141.876 33.1118 141.566 32.6446C141.256 32.1774 141.097 31.6428 141.088 31.0403L142.568 31.0664C142.612 31.6076 142.832 32.0421 143.229 32.3697V32.3691Z" fill="var(--fill-0, #282828)"/>
</g>
<path id="Vector_23" d="M100.147 34.052L93.2759 21.514C93.2511 21.4691 93.2292 21.4212 93.2104 21.3714C93.0005 20.8138 93.2826 20.1918 93.8402 19.9819C97.3032 18.6712 99.7776 15.3291 99.7776 11.4099V9.25579C99.7776 4.19401 95.6739 0.090332 90.6122 0.090332H9.16546C4.10368 0.0909388 0 4.19461 0 9.2564V11.4105C0 16.4723 4.10368 20.5759 9.16546 20.5759H40.7237C41.9154 20.5759 42.8808 21.5413 42.8808 22.7331V24.8871C42.8808 26.0782 41.9148 27.0442 40.7237 27.0442H0.000606783V34.052H40.7237C45.7854 34.052 49.8891 29.9483 49.8891 24.8865V22.7324C49.8891 17.6707 45.786 13.5676 40.7243 13.5676H9.16546C7.97374 13.5676 7.00835 12.6016 7.00835 11.4105V9.2564C7.00835 8.06468 7.97435 7.09928 9.16546 7.09928H90.6116C91.8033 7.09928 92.7687 8.06528 92.7687 9.2564V11.4105C92.7687 12.6022 91.8027 13.5676 90.6116 13.5676H59.043C53.9861 13.5731 49.8879 17.6743 49.8879 22.7324V24.8865V34.052H56.8956V22.7331C56.8956 21.5425 57.8604 20.5772 59.0509 20.5759H84.9254V20.5693L92.3397 34.0453V34.052H100.145H100.147Z" fill="var(--fill-0, #282828)"/>
</g>
</svg>
