<svg width="172" height="35" viewBox="0 0 172 35" fill="none" xmlns="http://www.w3.org/2000/svg">
<path d="M108.177 7.5769C108.574 7.90456 109.091 8.0684 109.729 8.0684C110.288 8.0684 110.74 7.94825 111.084 7.70797C111.429 7.46768 111.602 7.13395 111.602 6.70617C111.602 6.40035 111.508 6.15824 111.32 5.97924C111.133 5.80024 110.878 5.6625 110.554 5.56663C110.231 5.47076 109.777 5.37003 109.192 5.26566C108.598 5.16069 108.089 5.02356 107.666 4.85305C107.242 4.68255 106.898 4.42284 106.631 4.07394C106.365 3.72444 106.232 3.26631 106.232 2.69836C106.232 2.17471 106.37 1.70749 106.645 1.2967C106.919 0.88651 107.304 0.567342 107.798 0.340405C108.291 0.113468 108.856 0 109.493 0C110.131 0 110.734 0.121963 111.249 0.366497C111.764 0.611031 112.17 0.947189 112.467 1.37497C112.764 1.80275 112.926 2.29182 112.952 2.84217H111.472C111.42 2.3707 111.214 1.99086 110.856 1.70263C110.498 1.41441 110.044 1.2706 109.494 1.2706C108.944 1.2706 108.536 1.3865 108.217 1.61768C107.898 1.84887 107.739 2.1741 107.739 2.59339C107.739 2.89011 107.833 3.12615 108.02 3.3009C108.208 3.47565 108.459 3.60672 108.773 3.6941C109.088 3.78147 109.537 3.87734 110.122 3.98232C110.716 4.08729 111.226 4.22685 111.655 4.40161C112.083 4.57636 112.432 4.83363 112.703 5.17465C112.973 5.51505 113.109 5.96468 113.109 6.52353C113.109 7.08237 112.965 7.5496 112.677 7.97738C112.388 8.40516 111.987 8.7395 111.472 8.97918C110.956 9.21947 110.371 9.33961 109.716 9.33961C108.992 9.33961 108.354 9.20854 107.804 8.94641C107.253 8.68428 106.824 8.3196 106.514 7.85238C106.203 7.38516 106.044 6.85058 106.035 6.24805L107.515 6.27414C107.559 6.81539 107.779 7.24985 108.177 7.57751V7.5769Z" fill="#282828"/>
<path d="M116.553 0.0913086H118.348L121.766 9.26041H120.155L119.29 6.99468H115.531L114.68 9.26041H113.121L116.553 0.0913086ZM118.872 5.71073L117.405 1.71567L115.951 5.71073H118.872Z" fill="#282828"/>
<path d="M122.461 0.0913086H123.967V7.92427H127.91V9.26041H122.461V0.0913086Z" fill="#282828"/>
<path d="M128.067 0.0913086L130.595 7.4528L133.149 0.0913086H134.708L131.498 9.26041H129.691L126.469 0.0913086H128.067Z" fill="#282828"/>
<path d="M136.83 0.0913086H138.625L142.043 9.26041H140.432L139.567 6.99468H135.808L134.957 9.26041H133.398L136.83 0.0913086ZM139.148 5.71073L137.681 1.71567L136.227 5.71073H139.148Z" fill="#282828"/>
<path d="M148.068 0.0913086V1.42745H145.239V9.26041H143.733V1.42745H140.904V0.0913086H148.068Z" fill="#282828"/>
<path d="M154.703 8.73593C154.026 9.13762 153.256 9.33846 152.391 9.33846C151.526 9.33846 150.756 9.13762 150.079 8.73593C149.403 8.33424 148.877 7.77964 148.501 7.07213C148.125 6.36462 147.938 5.56609 147.938 4.67534C147.938 3.78458 148.125 2.98545 148.501 2.27854C148.877 1.57103 149.403 1.01704 150.079 0.614743C150.756 0.213052 151.526 0.012207 152.391 0.012207C153.256 0.012207 154.026 0.213052 154.703 0.614743C155.38 1.01643 155.906 1.57103 156.281 2.27854C156.657 2.98605 156.844 3.78458 156.844 4.67534C156.844 5.56609 156.657 6.36523 156.281 7.07213C155.906 7.77964 155.38 8.33363 154.703 8.73593ZM150.878 7.58972C151.32 7.87369 151.824 8.01568 152.391 8.01568C152.959 8.01568 153.463 7.87369 153.904 7.58972C154.345 7.30574 154.688 6.9083 154.932 6.39799C155.177 5.88708 155.299 5.31307 155.299 4.67534C155.299 4.03761 155.177 3.46359 154.932 2.95268C154.688 2.44177 154.345 2.04432 153.904 1.76096C153.463 1.47698 152.959 1.33499 152.391 1.33499C151.824 1.33499 151.32 1.47698 150.878 1.76096C150.437 2.04493 150.094 2.44177 149.85 2.95268C149.605 3.46359 149.483 4.03761 149.483 4.67534C149.483 5.31307 149.605 5.88708 149.85 6.39799C150.094 6.90891 150.437 7.30635 150.878 7.58972Z" fill="#282828"/>
<path d="M163.211 0.451738C163.691 0.692024 164.065 1.03243 164.331 1.47356C164.597 1.91469 164.73 2.42742 164.73 3.01236C164.73 3.5973 164.569 4.1604 164.245 4.62337C163.923 5.08635 163.49 5.4134 162.949 5.60575L164.887 9.26041H163.211L161.469 5.93342H159.426V9.26041H157.92V0.0913086H161.535C162.172 0.0913086 162.731 0.211452 163.211 0.451738H163.211ZM161.416 4.62337C161.957 4.62337 162.387 4.47714 162.706 4.18467C163.025 3.8922 163.184 3.50143 163.184 3.01236C163.184 2.5233 163.025 2.13253 162.706 1.84006C162.387 1.54759 161.957 1.40135 161.416 1.40135H159.425V4.62337H161.416Z" fill="#282828"/>
<path d="M171.843 0.0913086V1.42745H167.363V3.96865H171.056V5.26535H167.363V7.92427H172V9.26041H165.857V0.0913086H171.843Z" fill="#282828"/>
<path d="M111.682 12.8477C112.162 13.088 112.535 13.4284 112.802 13.8696C113.068 14.3107 113.201 14.8234 113.201 15.4084C113.201 15.9933 113.04 16.5564 112.716 17.0194C112.393 17.4823 111.961 17.8094 111.419 18.0018L113.358 21.6564H111.682L109.939 18.3294H107.896V21.6564H106.39V12.4873H110.006C110.643 12.4873 111.202 12.6074 111.682 12.8477H111.682ZM109.887 17.0194C110.429 17.0194 110.859 16.8731 111.177 16.5807C111.496 16.2882 111.655 15.8974 111.655 15.4084C111.655 14.9193 111.496 14.5285 111.177 14.2361C110.859 13.9436 110.429 13.7973 109.887 13.7973H107.896V17.0194H109.887Z" fill="#282828"/>
<path d="M120.609 21.1319C119.932 21.5336 119.161 21.7345 118.297 21.7345C117.432 21.7345 116.661 21.5336 115.985 21.1319C115.308 20.7302 114.782 20.1756 114.407 19.4681C114.031 18.7606 113.844 17.9621 113.844 17.0713C113.844 16.1806 114.031 15.3814 114.407 14.6745C114.782 13.967 115.308 13.413 115.985 13.0107C116.661 12.609 117.432 12.4082 118.297 12.4082C119.161 12.4082 119.932 12.609 120.609 13.0107C121.285 13.4124 121.811 13.967 122.187 14.6745C122.562 15.382 122.75 16.1806 122.75 17.0713C122.75 17.9621 122.562 18.7612 122.187 19.4681C121.811 20.1756 121.285 20.7296 120.609 21.1319ZM116.784 19.9863C117.225 20.2703 117.729 20.4123 118.297 20.4123C118.864 20.4123 119.369 20.2703 119.809 19.9863C120.25 19.7023 120.593 19.3055 120.838 18.7946C121.082 18.2837 121.204 17.7097 121.204 17.0719C121.204 16.4342 121.082 15.8602 120.838 15.3493C120.593 14.8384 120.251 14.4409 119.809 14.1576C119.368 13.8736 118.864 13.7316 118.297 13.7316C117.729 13.7316 117.224 13.8736 116.784 14.1576C116.343 14.4415 116 14.8384 115.755 15.3493C115.511 15.8602 115.389 16.4342 115.389 17.0719C115.389 17.7097 115.511 18.2837 115.755 18.7946C116 19.3055 116.343 19.703 116.784 19.9863Z" fill="#282828"/>
<path d="M129.529 13.1161C130.083 13.5353 130.361 14.1203 130.361 14.8715C130.361 15.4218 130.214 15.8733 129.922 16.227C129.63 16.5808 129.208 16.8186 128.658 16.9406C130.029 17.1766 130.714 17.8969 130.714 19.102C130.714 19.8969 130.42 20.5206 129.83 20.9751C129.241 21.429 128.4 21.6559 127.309 21.6559H123.825V12.4868H127.191C128.196 12.4868 128.975 12.6962 129.529 13.1154L129.529 13.1161ZM127.23 16.3775C127.745 16.3775 128.144 16.2598 128.428 16.0238C128.712 15.7877 128.854 15.4649 128.854 15.0547C128.854 14.6445 128.712 14.3236 128.428 14.0918C128.144 13.8606 127.745 13.7447 127.23 13.7447H125.33V16.3775H127.23ZM127.321 20.3859C127.915 20.3859 128.372 20.2658 128.69 20.0255C129.009 19.7852 129.168 19.4515 129.168 19.0237C129.168 18.5959 129.007 18.2331 128.684 17.9891C128.36 17.7452 127.906 17.6226 127.321 17.6226H125.33V20.3865H127.321V20.3859Z" fill="#282828"/>
<path d="M133.242 17.8052C133.242 18.6698 133.413 19.3179 133.753 19.7505C134.094 20.1825 134.622 20.3985 135.338 20.3985C136.054 20.3985 136.598 20.1825 136.943 19.7505C137.287 19.3185 137.46 18.6698 137.46 17.8052V12.4873H138.966V17.7269C138.966 19.0369 138.659 20.032 138.043 20.7135C137.427 21.3943 136.526 21.7353 135.338 21.7353C134.149 21.7353 133.264 21.3949 132.653 20.7135C132.042 20.032 131.736 19.0369 131.736 17.7269V12.4873H133.242V17.8052H133.242Z" fill="#282828"/>
<path d="M142.143 19.973C142.54 20.3007 143.057 20.4645 143.695 20.4645C144.254 20.4645 144.706 20.3444 145.05 20.1041C145.395 19.8638 145.568 19.5301 145.568 19.1023C145.568 18.7965 145.474 18.5544 145.286 18.3754C145.099 18.1964 144.843 18.0586 144.52 17.9627C144.197 17.8669 143.743 17.7661 143.158 17.6618C142.564 17.5568 142.055 17.4197 141.632 17.2492C141.208 17.0787 140.864 16.819 140.597 16.4695C140.331 16.1199 140.198 15.6618 140.198 15.0939C140.198 14.5702 140.336 14.103 140.611 13.6922C140.885 13.282 141.27 12.9629 141.763 12.7359C142.257 12.509 142.822 12.3955 143.459 12.3955C144.097 12.3955 144.7 12.5175 145.215 12.762C145.73 13.0065 146.136 13.3427 146.433 13.7705C146.73 14.1983 146.892 14.6873 146.918 15.2377H145.438C145.386 14.7662 145.18 14.3864 144.822 14.0981C144.464 13.8099 144.01 13.6661 143.46 13.6661C142.91 13.6661 142.502 13.782 142.183 14.0132C141.864 14.2444 141.705 14.5696 141.705 14.9889C141.705 15.2856 141.799 15.5217 141.986 15.6964C142.174 15.8712 142.425 16.0022 142.739 16.0896C143.053 16.177 143.503 16.2729 144.088 16.3778C144.682 16.4828 145.192 16.6224 145.621 16.7971C146.049 16.9719 146.398 17.2291 146.669 17.5695C146.939 17.91 147.075 18.3602 147.075 18.9184C147.075 19.4767 146.931 19.9445 146.643 20.3723C146.354 20.8001 145.953 21.1344 145.438 21.3741C144.922 21.6144 144.337 21.7345 143.682 21.7345C142.958 21.7345 142.32 21.6034 141.77 21.3413C141.219 21.0792 140.79 20.7145 140.479 20.2473C140.169 19.7801 140.01 19.2455 140.001 18.6429L141.481 18.669C141.525 19.2103 141.745 19.6447 142.143 19.9724V19.973Z" fill="#282828"/>
<path d="M149.884 12.9913C150.552 12.603 151.331 12.4082 152.222 12.4082C152.912 12.4082 153.534 12.5393 154.088 12.8014C154.643 13.0635 155.095 13.4367 155.444 13.9215C155.793 14.4063 156.016 14.967 156.112 15.6047H154.605C154.457 15.0198 154.168 14.5611 153.741 14.2292C153.313 13.8972 152.784 13.7316 152.156 13.7316C151.588 13.7316 151.09 13.8736 150.662 14.1576C150.235 14.4415 149.907 14.8341 149.68 15.3365C149.453 15.8383 149.34 16.4172 149.34 17.0719C149.34 17.7267 149.453 18.2946 149.68 18.8007C149.907 19.3073 150.235 19.7023 150.662 19.9863C151.09 20.2703 151.588 20.4123 152.156 20.4123C152.784 20.4123 153.31 20.2466 153.734 19.9147C154.158 19.5828 154.443 19.1247 154.592 18.5391H156.099C156.003 19.1854 155.782 19.7485 155.437 20.229C155.093 20.709 154.645 21.0803 154.094 21.3425C153.544 21.6046 152.92 21.7357 152.221 21.7357C151.331 21.7357 150.551 21.5433 149.883 21.1592C149.215 20.7751 148.7 20.2315 148.338 19.5282C147.976 18.8249 147.794 18.0064 147.794 17.0719C147.794 16.1375 147.976 15.3323 148.338 14.629C148.7 13.9264 149.215 13.3803 149.883 12.9919L149.884 12.9913Z" fill="#282828"/>
<path d="M158.653 12.4746V16.3386H162.91V12.4746H164.417V21.6565H162.91V17.6747H158.653V21.6565H157.147V12.4746H158.653Z" fill="#282828"/>
<path d="M167.351 12.4873V21.6564H165.844V12.4873H167.351Z" fill="#282828"/>
<path d="M111.669 25.2437C112.149 25.484 112.52 25.8244 112.782 26.2656C113.044 26.7067 113.175 27.2194 113.175 27.8044C113.175 28.3893 113.044 28.9026 112.782 29.3432C112.52 29.7837 112.149 30.1247 111.669 30.365C111.188 30.6053 110.634 30.7254 110.005 30.7254H107.896V34.0524H106.39V24.8833H110.006C110.634 24.8833 111.189 25.0034 111.669 25.2437H111.669ZM109.874 29.4154C110.415 29.4154 110.845 29.2691 111.164 28.9767C111.483 28.6842 111.642 28.2934 111.642 27.8044C111.642 27.3153 111.485 26.9136 111.171 26.6254C110.856 26.3372 110.429 26.1933 109.887 26.1933H107.896V29.4154H109.875H109.874Z" fill="#282828"/>
<path d="M115.533 30.2011C115.533 31.0658 115.703 31.7139 116.044 32.1465C116.384 32.5785 116.913 32.7945 117.629 32.7945C118.345 32.7945 118.888 32.5785 119.233 32.1465C119.578 31.7145 119.751 31.0658 119.751 30.2011V24.8833H121.257V30.1229C121.257 31.4329 120.949 32.428 120.333 33.1095C119.717 33.7903 118.816 34.1313 117.628 34.1313C116.44 34.1313 115.554 33.7909 114.943 33.1095C114.332 32.428 114.026 31.4329 114.026 30.1229V24.8833H115.532V30.2011H115.533Z" fill="#282828"/>
<path d="M124.583 24.8833L127.517 32.1004L130.399 24.8833H132.311V34.0524H130.858V27.3068L128.107 34.0524H126.836L124.086 27.3068V34.0524H122.632V24.8833H124.583Z" fill="#282828"/>
<path d="M139.018 25.2437C139.499 25.484 139.87 25.8244 140.132 26.2656C140.394 26.7067 140.525 27.2194 140.525 27.8044C140.525 28.3893 140.394 28.9026 140.132 29.3432C139.87 29.7837 139.499 30.1247 139.018 30.365C138.538 30.6053 137.984 30.7254 137.354 30.7254H135.246V34.0524H133.74V24.8833H137.355C137.984 24.8833 138.538 25.0034 139.019 25.2437H139.018ZM137.223 29.4154C137.765 29.4154 138.195 29.2691 138.513 28.9767C138.832 28.6842 138.992 28.2934 138.992 27.8044C138.992 27.3153 138.834 26.9136 138.52 26.6254C138.206 26.3372 137.778 26.1933 137.237 26.1933H135.246V29.4154H137.224H137.223Z" fill="#282828"/>
<path d="M143.229 32.3689C143.627 32.6966 144.144 32.8604 144.782 32.8604C145.34 32.8604 145.792 32.7402 146.137 32.5C146.482 32.2597 146.655 31.9259 146.655 31.4982C146.655 31.1923 146.561 30.9502 146.373 30.7712C146.186 30.5922 145.93 30.4545 145.607 30.3586C145.283 30.2627 144.829 30.162 144.245 30.0577C143.65 29.9527 143.142 29.8156 142.718 29.645C142.295 29.4745 141.95 29.2148 141.684 28.8659C141.418 28.5164 141.285 28.0583 141.285 27.4904C141.285 26.9667 141.422 26.4995 141.697 26.0887C141.972 25.6785 142.357 25.3593 142.85 25.1324C143.343 24.9055 143.909 24.792 144.546 24.792C145.183 24.792 145.786 24.914 146.302 25.1585C146.817 25.403 147.223 25.7392 147.52 26.167C147.817 26.5947 147.979 27.0838 148.005 27.6342H146.525C146.473 27.1627 146.267 26.7828 145.909 26.4946C145.551 26.2064 145.097 26.0626 144.547 26.0626C143.996 26.0626 143.589 26.1785 143.269 26.4097C142.951 26.6409 142.791 26.9661 142.791 27.3854C142.791 27.6821 142.885 27.9181 143.073 28.0929C143.26 28.2676 143.512 28.3987 143.826 28.4861C144.14 28.5735 144.59 28.6693 145.175 28.7743C145.769 28.8793 146.279 29.0188 146.707 29.1936C147.135 29.3684 147.485 29.6256 147.755 29.9666C148.026 30.307 148.161 30.7567 148.161 31.3155C148.161 31.8744 148.017 32.3416 147.729 32.7694C147.441 33.1972 147.039 33.5315 146.524 33.7712C146.009 34.0115 145.424 34.1316 144.769 34.1316C144.044 34.1316 143.407 34.0005 142.856 33.7384C142.306 33.4763 141.876 33.1116 141.566 32.6444C141.256 32.1772 141.097 31.6426 141.088 31.04L142.568 31.0661C142.612 31.6074 142.832 32.0418 143.229 32.3695V32.3689Z" fill="#282828"/>
<path d="M100.147 34.052L93.2759 21.514C93.2511 21.4691 93.2292 21.4212 93.2104 21.3714C93.0005 20.8138 93.2826 20.1918 93.8402 19.9819C97.3032 18.6712 99.7776 15.3291 99.7776 11.4099V9.25579C99.7776 4.19401 95.6739 0.090332 90.6122 0.090332H9.16546C4.10368 0.0909388 0 4.19461 0 9.2564V11.4105C0 16.4723 4.10368 20.5759 9.16546 20.5759H40.7237C41.9154 20.5759 42.8808 21.5413 42.8808 22.7331V24.8871C42.8808 26.0782 41.9148 27.0442 40.7237 27.0442H0.000606783V34.052H40.7237C45.7854 34.052 49.8891 29.9483 49.8891 24.8865V22.7324C49.8891 17.6707 45.786 13.5676 40.7243 13.5676H9.16546C7.97374 13.5676 7.00835 12.6016 7.00835 11.4105V9.2564C7.00835 8.06468 7.97435 7.09928 9.16546 7.09928H90.6116C91.8033 7.09928 92.7687 8.06528 92.7687 9.2564V11.4105C92.7687 12.6022 91.8027 13.5676 90.6116 13.5676H59.043C53.9861 13.5731 49.8879 17.6743 49.8879 22.7324V24.8865V34.052H56.8956V22.7331C56.8956 21.5425 57.8604 20.5772 59.0509 20.5759H84.9254V20.5693L92.3397 34.0453V34.052H100.145H100.147Z" fill="#282828"/>
</svg>
