<svg width="159" height="45" viewBox="0 0 159 45" fill="none" xmlns="http://www.w3.org/2000/svg">
<path d="M64.8048 20.7718C64.616 20.5002 64.3682 20.2995 64.0614 20.1814C63.7546 20.0515 63.4242 19.9924 63.0702 19.9924C62.8696 19.9924 62.669 20.016 62.4803 20.0633C62.2915 20.1105 62.1145 20.1814 61.9611 20.2877C61.8077 20.3939 61.6779 20.5238 61.5953 20.6891C61.5127 20.8545 61.4537 21.0434 61.4537 21.2678C61.4537 21.5984 61.5717 21.8582 61.8077 22.0353C62.0437 22.2125 62.3269 22.366 62.669 22.4959C63.0112 22.6258 63.3888 22.7557 63.8018 22.8738C64.2148 22.9918 64.5924 23.1572 64.9346 23.3815C65.2768 23.5941 65.5718 23.8775 65.796 24.2318C66.0202 24.586 66.15 25.0584 66.15 25.6488C66.15 26.1802 66.0556 26.6407 65.855 27.0422C65.6544 27.4437 65.3948 27.7626 65.0644 28.0342C64.734 28.3058 64.3446 28.4947 63.908 28.6246C63.4714 28.7545 63.0112 28.8253 62.5275 28.8253C61.9139 28.8253 61.3239 28.7191 60.7575 28.5183C60.1911 28.3176 59.6955 27.9633 59.2943 27.4792L60.6277 26.192C60.8401 26.5226 61.1233 26.7706 61.4773 26.9596C61.8313 27.1367 62.1971 27.2312 62.5865 27.2312C62.787 27.2312 62.9994 27.2076 63.2 27.1485C63.4006 27.0895 63.5894 27.0068 63.7546 26.9005C63.9198 26.7942 64.0614 26.6407 64.1558 26.4754C64.262 26.2983 64.3092 26.1093 64.3092 25.885C64.3092 25.5189 64.1912 25.2473 63.9552 25.0466C63.7192 24.8458 63.436 24.6805 63.082 24.5506C62.7398 24.4207 62.3623 24.2908 61.9493 24.1609C61.5363 24.0428 61.1587 23.8775 60.8165 23.6649C60.4743 23.4524 60.1793 23.1808 59.9551 22.8265C59.7191 22.4723 59.6011 22.0117 59.6011 21.4213C59.6011 20.9135 59.7073 20.4648 59.9197 20.0869C60.1321 19.709 60.4035 19.402 60.7457 19.154C61.0879 18.906 61.4773 18.7171 61.9139 18.599C62.3505 18.4809 62.7988 18.4219 63.259 18.4219C63.7782 18.4219 64.2856 18.5045 64.7812 18.6581C65.265 18.8116 65.7134 19.0832 66.1028 19.4374L64.8166 20.7954L64.8048 20.7718Z" fill="#282828"/>
<path d="M67.9786 18.646H74.5393V20.2402H69.7486V22.6728H74.2915V24.2669H69.7486V26.9593H74.7989V28.5535H67.9904V18.646H67.9786Z" fill="#282828"/>
<path d="M76.5226 18.6461H79.9563C80.4283 18.6461 80.8885 18.6933 81.3369 18.776C81.7853 18.8705 82.1747 19.0122 82.5169 19.2247C82.8591 19.4373 83.1423 19.7325 83.3429 20.0867C83.5434 20.4528 83.6496 20.9134 83.6496 21.4684C83.6496 22.1887 83.4491 22.7909 83.0597 23.2751C82.6703 23.7593 82.0921 24.0545 81.3605 24.1608L83.9918 28.5418H81.8679L79.5787 24.3497H78.2925V28.5418H76.5344V18.6343L76.5226 18.6461ZM79.6613 22.85C79.9091 22.85 80.1687 22.85 80.4165 22.8146C80.6643 22.7909 80.9003 22.7319 81.1127 22.6492C81.3251 22.5666 81.4903 22.4249 81.6201 22.2477C81.7499 22.0706 81.8207 21.8108 81.8207 21.4802C81.8207 21.1968 81.7617 20.9606 81.6437 20.7835C81.5257 20.6063 81.3605 20.4764 81.1717 20.382C80.9829 20.2875 80.7587 20.2403 80.5227 20.2048C80.2867 20.1812 80.0507 20.1576 79.8265 20.1576H78.3044V22.8382H79.6731L79.6613 22.85Z" fill="#282828"/>
<path d="M88.5342 18.646H90.0563L94.3161 28.5535H92.2983L91.3779 26.2862H87.0828L86.186 28.5535H84.2155L88.5224 18.646H88.5342ZM90.7761 24.7747L89.254 20.7479L87.6964 24.7747H90.7761Z" fill="#282828"/>
<path d="M102.222 20.9722C101.856 20.5825 101.502 20.3227 101.172 20.1928C100.83 20.0629 100.488 19.992 100.145 19.992C99.6379 19.992 99.1659 20.0865 98.7529 20.2636C98.3399 20.4408 97.986 20.7006 97.6792 21.0194C97.3724 21.3382 97.1482 21.7161 96.983 22.1412C96.8178 22.5663 96.7352 23.0269 96.7352 23.5228C96.7352 24.0542 96.8178 24.5502 96.983 24.9871C97.1482 25.4358 97.3724 25.8255 97.6792 26.1444C97.9742 26.475 98.3281 26.723 98.7529 26.9119C99.1659 27.1009 99.6379 27.1953 100.145 27.1953C100.547 27.1953 100.936 27.1009 101.313 26.9119C101.691 26.723 102.045 26.416 102.364 25.9909L103.815 27.03C103.367 27.6441 102.824 28.0928 102.175 28.3762C101.538 28.6596 100.841 28.8013 100.122 28.8013C99.3547 28.8013 98.6585 28.6832 98.0214 28.4353C97.3842 28.1873 96.8296 27.833 96.3694 27.3843C95.9092 26.9356 95.5434 26.3924 95.2838 25.7547C95.0242 25.117 94.8944 24.4203 94.8944 23.6409C94.8944 22.8616 95.0242 22.1294 95.2838 21.4799C95.5434 20.8305 95.9092 20.2754 96.3694 19.8267C96.8296 19.3662 97.3842 19.0119 98.0214 18.7757C98.6585 18.5278 99.3665 18.4097 100.122 18.4097C100.794 18.4097 101.42 18.5278 101.986 18.7639C102.564 19.0001 103.095 19.4016 103.591 19.9684L102.222 20.9722Z" fill="#282828"/>
<path d="M104.476 23.6409C104.476 22.8497 104.606 22.1294 104.865 21.4799C105.125 20.8305 105.491 20.2754 105.951 19.8267C106.411 19.3662 106.966 19.0119 107.603 18.7757C108.24 18.5278 108.948 18.4097 109.703 18.4097C110.482 18.4097 111.19 18.5159 111.827 18.7521C112.464 18.9883 113.019 19.3426 113.491 19.7913C113.951 20.2518 114.317 20.795 114.576 21.4445C114.836 22.0822 114.966 22.8025 114.966 23.5937C114.966 24.3849 114.836 25.0698 114.576 25.7074C114.317 26.3451 113.951 26.8883 113.491 27.3489C113.019 27.8094 112.464 28.1637 111.827 28.4235C111.19 28.6832 110.47 28.8131 109.703 28.8249C108.936 28.8249 108.24 28.7069 107.603 28.4589C106.966 28.2109 106.411 27.8566 105.951 27.4079C105.491 26.9592 105.125 26.416 104.865 25.7783C104.606 25.1406 104.476 24.4439 104.476 23.6645V23.6409ZM106.317 23.5346C106.317 24.066 106.399 24.562 106.564 24.9989C106.73 25.4477 106.954 25.8373 107.261 26.1562C107.556 26.4868 107.91 26.7348 108.334 26.9237C108.747 27.1127 109.219 27.2072 109.727 27.2072C110.234 27.2072 110.706 27.1127 111.119 26.9237C111.544 26.7348 111.898 26.475 112.193 26.1562C112.488 25.8255 112.724 25.4477 112.889 24.9989C113.054 24.5502 113.137 24.066 113.137 23.5346C113.137 23.0387 113.054 22.5781 112.889 22.153C112.724 21.7279 112.5 21.35 112.193 21.0312C111.886 20.7124 111.532 20.4526 111.119 20.2754C110.694 20.0983 110.234 20.0038 109.727 20.0038C109.219 20.0038 108.747 20.0983 108.334 20.2754C107.921 20.4526 107.567 20.7124 107.261 21.0312C106.954 21.35 106.73 21.7279 106.564 22.153C106.399 22.5781 106.317 23.0387 106.317 23.5346Z" fill="#282828"/>
<path d="M122.412 25.6368C122.211 25.3652 121.951 25.2235 121.621 25.2235C121.491 25.2235 121.361 25.259 121.232 25.3298C121.102 25.4007 121.043 25.5069 121.043 25.6605C121.043 25.7785 121.09 25.873 121.196 25.9321C121.302 25.9911 121.432 26.0383 121.597 26.0738C121.763 26.1092 121.94 26.1564 122.117 26.1918C122.305 26.2391 122.482 26.2981 122.636 26.3808C122.801 26.4634 122.931 26.5815 123.037 26.735C123.143 26.8886 123.19 27.0893 123.19 27.3609C123.19 27.5971 123.143 27.8096 123.037 27.975C122.931 28.1403 122.801 28.2702 122.636 28.3765C122.471 28.4709 122.282 28.5536 122.081 28.589C121.869 28.6362 121.668 28.6599 121.456 28.6599C121.149 28.6599 120.854 28.6126 120.594 28.53C120.335 28.4355 120.099 28.282 119.886 28.0458L120.559 27.42C120.689 27.5617 120.83 27.6797 120.972 27.7742C121.114 27.8687 121.302 27.9159 121.515 27.9159C121.586 27.9159 121.668 27.9159 121.739 27.8923C121.81 27.8687 121.892 27.8451 121.951 27.8096C122.01 27.7742 122.069 27.727 122.117 27.6679C122.164 27.6089 122.176 27.538 122.176 27.4672C122.176 27.3255 122.128 27.2192 122.01 27.1602C121.904 27.0893 121.774 27.0421 121.609 26.9948C121.444 26.9476 121.267 26.9122 121.09 26.8767C120.913 26.8413 120.724 26.7823 120.571 26.6996C120.406 26.617 120.276 26.5107 120.17 26.3572C120.063 26.2155 120.004 26.0147 120.004 25.7549C120.004 25.5306 120.052 25.3416 120.146 25.1763C120.24 25.011 120.358 24.8811 120.512 24.7748C120.665 24.6685 120.83 24.5859 121.031 24.5386C121.232 24.4914 121.42 24.4678 121.621 24.4678C121.892 24.4678 122.152 24.515 122.423 24.6095C122.695 24.7039 122.895 24.8575 123.061 25.0818L122.388 25.6841L122.412 25.6368Z" fill="#282828"/>
<path d="M123.981 27.9634C123.981 27.7863 124.052 27.6328 124.182 27.5029C124.312 27.373 124.477 27.314 124.654 27.314C124.831 27.314 124.996 27.373 125.126 27.5029C125.256 27.621 125.326 27.7745 125.326 27.9516C125.326 28.1288 125.256 28.2823 125.126 28.4122C124.996 28.5421 124.831 28.6011 124.654 28.6011C124.559 28.6011 124.477 28.5893 124.394 28.5539C124.312 28.5185 124.241 28.4712 124.182 28.424C124.123 28.3649 124.076 28.3059 124.04 28.2232C124.005 28.1406 123.981 28.0579 123.981 27.9753V27.9634Z" fill="#282828"/>
<path d="M126.47 24.5266H127.473V25.1643H127.485C127.591 24.9281 127.757 24.751 127.969 24.6211C128.181 24.4912 128.417 24.4321 128.677 24.4321C128.736 24.4321 128.795 24.4321 128.854 24.4439C128.913 24.4439 128.972 24.4676 129.031 24.4912V25.4595C128.948 25.4359 128.866 25.4241 128.783 25.4004C128.701 25.3886 128.618 25.3768 128.547 25.3768C128.311 25.3768 128.122 25.4241 127.981 25.5067C127.839 25.5894 127.733 25.6957 127.65 25.8019C127.58 25.9082 127.521 26.0263 127.497 26.1326C127.473 26.2507 127.462 26.3333 127.462 26.3806V28.5416H126.459V24.5148L126.47 24.5266Z" fill="#282828"/>
<path d="M128.96 27.9634C128.96 27.7863 129.031 27.6328 129.161 27.5029C129.291 27.373 129.456 27.314 129.633 27.314C129.81 27.314 129.975 27.373 130.105 27.5029C130.235 27.621 130.305 27.7745 130.305 27.9516C130.305 28.1288 130.235 28.2823 130.105 28.4122C129.975 28.5421 129.81 28.6011 129.633 28.6011C129.538 28.6011 129.456 28.5893 129.373 28.5539C129.291 28.5185 129.22 28.4712 129.161 28.424C129.102 28.3649 129.055 28.3059 129.019 28.2232C128.984 28.1406 128.96 28.0579 128.96 27.9753V27.9634Z" fill="#282828"/>
<path d="M131.462 22.2124H132.465V28.5537H131.462V22.2124Z" fill="#282828"/>
<path d="M133.622 27.9634C133.622 27.7863 133.693 27.6328 133.822 27.5029C133.952 27.373 134.117 27.314 134.294 27.314C134.471 27.314 134.636 27.373 134.766 27.5029C134.896 27.621 134.967 27.7745 134.967 27.9516C134.967 28.1288 134.896 28.2823 134.766 28.4122C134.636 28.5421 134.471 28.6011 134.294 28.6011C134.2 28.6011 134.117 28.5893 134.035 28.5539C133.952 28.5185 133.881 28.4712 133.822 28.424C133.763 28.3649 133.716 28.3059 133.681 28.2232C133.645 28.1406 133.622 28.0579 133.622 27.9753V27.9634Z" fill="#282828"/>
<path d="M59.719 36.1704H61.489C61.8194 36.1704 62.1497 36.194 62.4801 36.2295C62.8105 36.2649 63.1055 36.3594 63.3651 36.4892C63.6247 36.6191 63.8371 36.8081 64.0023 37.0561C64.1675 37.304 64.2501 37.6465 64.2501 38.0834C64.2501 38.5912 64.0967 39.0045 63.7899 39.3233C63.4831 39.6422 63.0583 39.8311 62.5155 39.9256L64.4861 43.1139H63.4831L61.607 39.9964H60.545V43.1139H59.719V36.1822V36.1704ZM60.5332 39.2289H61.2648C61.489 39.2289 61.725 39.2289 61.9728 39.2052C62.2205 39.1934 62.4447 39.1462 62.6453 39.0754C62.8459 39.0045 63.0229 38.8864 63.1527 38.7329C63.2825 38.5794 63.3533 38.355 63.3533 38.0716C63.3533 37.8236 63.3061 37.6229 63.2117 37.4694C63.1173 37.3159 62.9875 37.1978 62.8223 37.1269C62.6571 37.0443 62.4801 36.997 62.2795 36.9616C62.0789 36.938 61.8784 36.9262 61.6778 36.9262H60.5214V39.2171L60.5332 39.2289Z" fill="#282828"/>
<path d="M69.655 42.2752C69.3836 42.6295 69.0768 42.8774 68.7582 43.0192C68.4278 43.1609 68.0503 43.2317 67.6255 43.2317C67.2715 43.2317 66.9411 43.1727 66.6579 43.0428C66.3747 42.9129 66.1269 42.7476 65.9263 42.5232C65.7257 42.3106 65.5723 42.0508 65.4661 41.7556C65.3599 41.4604 65.3009 41.1534 65.3009 40.8109C65.3009 40.4567 65.3599 40.1378 65.4779 39.8308C65.5959 39.5356 65.7611 39.2758 65.9735 39.0632C66.1859 38.8507 66.4337 38.6854 66.7169 38.5673C67.0001 38.4492 67.3187 38.3901 67.6609 38.3901C67.9795 38.3901 68.2744 38.4492 68.5458 38.5555C68.8172 38.6617 69.0414 38.8153 69.2302 39.0278C69.419 39.2286 69.5724 39.4883 69.6786 39.7836C69.7848 40.0788 69.832 40.4212 69.832 40.7991V41.0471H66.1387C66.1505 41.2478 66.1977 41.4368 66.2803 41.6139C66.3629 41.791 66.4691 41.9446 66.5989 42.0863C66.7287 42.2162 66.8821 42.3224 67.0591 42.4051C67.2361 42.4878 67.4249 42.5232 67.6373 42.5232C67.9677 42.5232 68.2508 42.4641 68.475 42.3461C68.6992 42.228 68.9116 42.0508 69.0886 41.8265L69.6668 42.2752H69.655ZM68.9942 40.4094C68.9824 40.0197 68.8526 39.7009 68.6166 39.4647C68.3806 39.2286 68.0385 39.1105 67.6137 39.1105C67.1889 39.1105 66.8467 39.2286 66.5871 39.4647C66.3275 39.7009 66.1741 40.0079 66.1151 40.4094H68.9942Z" fill="#282828"/>
<path d="M70.9406 39.1104C71.1766 38.8624 71.448 38.6853 71.7784 38.579C72.097 38.4609 72.4274 38.4019 72.7578 38.4019C73.4422 38.4019 73.926 38.5672 74.221 38.886C74.516 39.2048 74.6694 39.689 74.6694 40.3503V42.3223C74.6694 42.4522 74.6694 42.5939 74.693 42.7238C74.7048 42.8655 74.7166 42.9954 74.7402 43.1135H74.0086C73.985 43.0072 73.9732 42.8892 73.9614 42.7711C73.9614 42.6412 73.9614 42.5349 73.9614 42.4286H73.9378C73.7844 42.6648 73.5838 42.8537 73.336 43.0072C73.0882 43.1608 72.7814 43.2316 72.4274 43.2316C72.1914 43.2316 71.9672 43.1962 71.7666 43.1371C71.566 43.0781 71.3772 42.9954 71.2238 42.8774C71.0704 42.7593 70.9524 42.6176 70.858 42.4522C70.7636 42.2869 70.7164 42.0862 70.7164 41.8618C70.7164 41.4839 70.8108 41.1887 71.0114 40.9761C71.212 40.7636 71.448 40.5983 71.743 40.492C72.038 40.3857 72.3448 40.3267 72.687 40.2912C73.0292 40.2676 73.336 40.2558 73.6074 40.2558H73.9024V40.1141C73.9024 39.7835 73.808 39.5237 73.6074 39.3584C73.4068 39.193 73.1354 39.0986 72.7696 39.0986C72.5218 39.0986 72.274 39.134 72.038 39.2167C71.802 39.2993 71.5896 39.4292 71.4008 39.5945L70.917 39.0986L70.9406 39.1104ZM73.1472 40.9053C72.6516 40.9053 72.274 40.9762 71.979 41.106C71.684 41.2359 71.5542 41.4721 71.5542 41.7791C71.5542 42.0626 71.6486 42.2751 71.8374 42.3932C72.0262 42.5113 72.274 42.5703 72.5572 42.5703C72.7814 42.5703 72.9702 42.5349 73.1354 42.464C73.3006 42.3932 73.4422 42.2869 73.5484 42.1688C73.6546 42.0389 73.749 41.8972 73.808 41.7319C73.867 41.5666 73.9024 41.3895 73.9024 41.2005V40.9053H73.1354H73.1472Z" fill="#282828"/>
<path d="M76.144 35.6978H76.911V43.1018H76.144V35.6978Z" fill="#282828"/>
<path d="M81.2893 36.1704H85.6434V36.938H82.1153V39.1108H85.4074V39.8783H82.1153V42.3464H85.8204V43.1139H81.2893V36.1822V36.1704Z" fill="#282828"/>
<path d="M87.0477 41.8973C87.2011 42.0863 87.3663 42.2398 87.5433 42.3461C87.7203 42.4523 87.9445 42.5114 88.2277 42.5114C88.3457 42.5114 88.4637 42.4996 88.5817 42.4759C88.6997 42.4523 88.8059 42.4051 88.9121 42.3461C89.0183 42.287 89.0891 42.2162 89.1481 42.1217C89.2071 42.0272 89.2307 41.9209 89.2307 41.8029C89.2307 41.6848 89.2071 41.5785 89.1481 41.4958C89.0891 41.4132 89.0183 41.3541 88.9239 41.2951C88.8295 41.236 88.7233 41.2006 88.6053 41.1652C88.4873 41.1298 88.3693 41.1061 88.2395 41.0707C88.0271 41.0235 87.8147 40.9762 87.6259 40.9172C87.4253 40.8582 87.2601 40.7873 87.1067 40.6928C86.9651 40.5984 86.8471 40.4803 86.7527 40.3268C86.6701 40.1733 86.6229 39.9843 86.6229 39.7481C86.6229 39.5238 86.6701 39.3348 86.7645 39.1577C86.8589 38.9924 86.9887 38.8507 87.1539 38.7326C87.3191 38.6263 87.4961 38.5318 87.6967 38.4846C87.8973 38.4256 88.1097 38.3901 88.3221 38.3901C88.6525 38.3901 88.9475 38.461 89.2307 38.5909C89.5021 38.7208 89.7263 38.9333 89.8797 39.2286L89.2425 39.6537C89.1481 39.4883 89.0183 39.3585 88.8531 39.2522C88.6879 39.1577 88.4991 39.0987 88.2749 39.0987C88.1687 39.0987 88.0625 39.1105 87.9563 39.1341C87.8501 39.1577 87.7557 39.1931 87.6613 39.2522C87.5787 39.2994 87.5079 39.3703 87.4489 39.4529C87.3899 39.5356 87.3663 39.6301 87.3663 39.7363C87.3663 39.8308 87.4017 39.9135 87.4607 39.9843C87.5197 40.0552 87.6023 40.1142 87.7203 40.1614C87.8265 40.2087 87.9563 40.2559 88.0861 40.3031C88.2277 40.3386 88.3693 40.374 88.5227 40.3976C88.7233 40.433 88.9121 40.4921 89.1009 40.5511C89.2779 40.6102 89.4431 40.6928 89.5847 40.7991C89.7263 40.9054 89.8325 41.0353 89.9033 41.1888C89.9741 41.3423 90.0213 41.5431 90.0213 41.7674C90.0213 42.0272 89.9741 42.2516 89.8679 42.4287C89.7617 42.6058 89.6201 42.7594 89.4549 42.8774C89.2779 42.9955 89.0891 43.0782 88.8649 43.1254C88.6525 43.1727 88.4283 43.2081 88.1923 43.2081C87.8029 43.2081 87.4607 43.149 87.1775 43.031C86.8943 42.9129 86.6347 42.6885 86.4105 42.3579L87.0123 41.8855L87.0477 41.8973Z" fill="#282828"/>
<path d="M93.6322 39.1696H92.287V41.4605C92.287 41.614 92.287 41.7557 92.287 41.8738C92.287 42.0037 92.3224 42.11 92.3696 42.2045C92.4168 42.2989 92.4876 42.3698 92.5702 42.4288C92.6646 42.4879 92.7944 42.5115 92.9596 42.5115C93.0658 42.5115 93.1838 42.4997 93.3018 42.4761C93.4198 42.4524 93.526 42.417 93.6322 42.358L93.6676 43.0547C93.5378 43.1137 93.3962 43.1492 93.231 43.1846C93.0658 43.22 92.9242 43.22 92.7708 43.22C92.4994 43.22 92.2752 43.1846 92.11 43.1137C91.9448 43.0429 91.815 42.9366 91.7324 42.8067C91.638 42.6768 91.579 42.5115 91.5554 42.3226C91.5318 42.1336 91.5082 41.9211 91.5082 41.6849V39.1696H90.5052V38.5201H91.5082V37.2212H92.2752V38.5201H93.6204V39.1696H93.6322Z" fill="#282828"/>
<path d="M94.5047 39.1104C94.7407 38.8624 95.0121 38.6853 95.3425 38.579C95.6611 38.4609 95.9915 38.4019 96.3219 38.4019C97.0063 38.4019 97.4901 38.5672 97.7851 38.886C98.08 39.2048 98.2334 39.689 98.2334 40.3503V42.3223C98.2334 42.4522 98.2334 42.5939 98.257 42.7238C98.2688 42.8655 98.2806 42.9954 98.3042 43.1135H97.5727C97.5491 43.0072 97.5373 42.8892 97.5255 42.7711C97.5255 42.6412 97.5255 42.5349 97.5255 42.4286H97.5019C97.3485 42.6648 97.1479 42.8537 96.9001 43.0072C96.6523 43.1608 96.3455 43.2316 95.9915 43.2316C95.7555 43.2316 95.5313 43.1962 95.3307 43.1371C95.1301 43.0781 94.9413 42.9954 94.7879 42.8774C94.6345 42.7593 94.5165 42.6176 94.4221 42.4522C94.3277 42.2869 94.2805 42.0862 94.2805 41.8618C94.2805 41.4839 94.3749 41.1887 94.5755 40.9761C94.7761 40.7636 95.0121 40.5983 95.3071 40.492C95.6021 40.3857 95.9089 40.3267 96.2511 40.2912C96.5933 40.2676 96.9001 40.2558 97.1715 40.2558H97.4665V40.1141C97.4665 39.7835 97.3721 39.5237 97.1715 39.3584C96.9709 39.193 96.6995 39.0986 96.3337 39.0986C96.0859 39.0986 95.8381 39.134 95.6021 39.2167C95.3661 39.2993 95.1537 39.4292 94.9649 39.5945L94.4811 39.0986L94.5047 39.1104ZM96.7231 40.9053C96.2275 40.9053 95.8499 40.9762 95.5549 41.106C95.2599 41.2359 95.1301 41.4721 95.1301 41.7791C95.1301 42.0626 95.2245 42.2751 95.4133 42.3932C95.6021 42.5113 95.8499 42.5703 96.1331 42.5703C96.3573 42.5703 96.5461 42.5349 96.7113 42.464C96.8765 42.3932 97.0181 42.2869 97.1243 42.1688C97.2305 42.0389 97.3249 41.8972 97.3839 41.7319C97.4429 41.5666 97.4783 41.3895 97.4783 41.2005V40.9053H96.7113H96.7231Z" fill="#282828"/>
<path d="M102.151 39.1696H100.806V41.4605C100.806 41.614 100.806 41.7557 100.806 41.8738C100.806 42.0037 100.841 42.11 100.889 42.2045C100.936 42.2989 101.007 42.3698 101.089 42.4288C101.184 42.4879 101.313 42.5115 101.479 42.5115C101.585 42.5115 101.703 42.4997 101.821 42.4761C101.939 42.4524 102.045 42.417 102.151 42.358L102.187 43.0547C102.057 43.1137 101.915 43.1492 101.75 43.1846C101.585 43.22 101.443 43.22 101.29 43.22C101.018 43.22 100.794 43.1846 100.629 43.1137C100.464 43.0429 100.334 42.9366 100.251 42.8067C100.157 42.6768 100.098 42.5115 100.074 42.3226C100.051 42.1336 100.027 41.9211 100.027 41.6849V39.1696H99.0242V38.5201H100.027V37.2212H100.794V38.5201H102.139V39.1696H102.151Z" fill="#282828"/>
<path d="M107.178 42.2752C106.906 42.6295 106.599 42.8774 106.281 43.0192C105.95 43.1609 105.573 43.2317 105.148 43.2317C104.794 43.2317 104.464 43.1727 104.18 43.0428C103.897 42.9129 103.649 42.7476 103.449 42.5232C103.248 42.3106 103.095 42.0508 102.989 41.7556C102.882 41.4604 102.823 41.1534 102.823 40.8109C102.823 40.4567 102.882 40.1378 103 39.8308C103.118 39.5356 103.284 39.2758 103.496 39.0632C103.708 38.8507 103.956 38.6854 104.239 38.5673C104.523 38.4492 104.841 38.3901 105.183 38.3901C105.502 38.3901 105.797 38.4492 106.068 38.5555C106.34 38.6617 106.564 38.8153 106.753 39.0278C106.942 39.2286 107.095 39.4883 107.201 39.7836C107.307 40.0788 107.355 40.4212 107.355 40.7991V41.0471H103.661C103.673 41.2478 103.72 41.4368 103.803 41.6139C103.885 41.791 103.992 41.9446 104.121 42.0863C104.251 42.2162 104.405 42.3224 104.582 42.4051C104.759 42.4878 104.947 42.5232 105.16 42.5232C105.49 42.5232 105.773 42.4641 105.998 42.3461C106.222 42.228 106.434 42.0508 106.611 41.8265L107.189 42.2752H107.178ZM106.529 40.4094C106.517 40.0197 106.387 39.7009 106.151 39.4647C105.915 39.2286 105.573 39.1105 105.148 39.1105C104.723 39.1105 104.381 39.2286 104.121 39.4647C103.862 39.7009 103.708 40.0079 103.649 40.4094H106.529Z" fill="#282828"/>
<path d="M111.391 36.1704H112.216V43.1021H111.391V36.1704Z" fill="#282828"/>
<path d="M113.798 39.6063C113.798 39.3938 113.798 39.2048 113.774 39.0159C113.763 38.8388 113.751 38.6616 113.751 38.5199H114.471C114.471 38.6498 114.471 38.7679 114.471 38.8978C114.471 39.0159 114.471 39.1458 114.471 39.2757H114.494C114.541 39.1694 114.624 39.0513 114.718 38.9569C114.813 38.8506 114.931 38.7561 115.061 38.6735C115.19 38.5908 115.344 38.5317 115.497 38.4727C115.662 38.4255 115.839 38.4019 116.028 38.4019C116.323 38.4019 116.583 38.4491 116.807 38.5436C117.031 38.638 117.208 38.7679 117.35 38.9214C117.491 39.0868 117.598 39.2875 117.668 39.5119C117.739 39.748 117.775 39.996 117.775 40.2676V43.1017H117.008V40.3503C117.008 39.9606 116.925 39.6654 116.76 39.441C116.595 39.2167 116.323 39.1104 115.969 39.1104C115.721 39.1104 115.509 39.1576 115.332 39.2403C115.155 39.3229 115.002 39.441 114.895 39.6063C114.789 39.7717 114.695 39.9488 114.636 40.1614C114.577 40.3739 114.553 40.6101 114.553 40.8817V43.1135H113.786V39.6182L113.798 39.6063Z" fill="#282828"/>
<path d="M121.326 43.1018H120.488L118.624 38.52H119.509L120.936 42.1099H120.96L122.317 38.52H123.143L121.338 43.1018H121.326Z" fill="#282828"/>
<path d="M128.052 42.2752C127.78 42.6295 127.474 42.8774 127.155 43.0192C126.825 43.1609 126.447 43.2317 126.022 43.2317C125.668 43.2317 125.338 43.1727 125.055 43.0428C124.772 42.9129 124.524 42.7476 124.323 42.5232C124.123 42.3106 123.969 42.0508 123.863 41.7556C123.757 41.4604 123.698 41.1534 123.698 40.8109C123.698 40.4567 123.757 40.1378 123.875 39.8308C123.993 39.5356 124.158 39.2758 124.37 39.0632C124.583 38.8507 124.831 38.6854 125.114 38.5673C125.397 38.4492 125.716 38.3901 126.058 38.3901C126.376 38.3901 126.671 38.4492 126.943 38.5555C127.214 38.6617 127.438 38.8153 127.627 39.0278C127.816 39.2286 127.969 39.4883 128.075 39.7836C128.182 40.0788 128.229 40.4212 128.229 40.7991V41.0471H124.536C124.547 41.2478 124.595 41.4368 124.677 41.6139C124.76 41.791 124.866 41.9446 124.996 42.0863C125.126 42.2162 125.279 42.3224 125.456 42.4051C125.633 42.4878 125.822 42.5232 126.034 42.5232C126.364 42.5232 126.648 42.4641 126.872 42.3461C127.096 42.228 127.308 42.0508 127.485 41.8265L128.064 42.2752H128.052ZM127.391 40.4094C127.379 40.0197 127.249 39.7009 127.013 39.4647C126.777 39.2286 126.435 39.1105 126.011 39.1105C125.586 39.1105 125.244 39.2286 124.984 39.4647C124.724 39.7009 124.571 40.0079 124.512 40.4094H127.391Z" fill="#282828"/>
<path d="M129.491 41.8973C129.645 42.0863 129.81 42.2398 129.987 42.3461C130.164 42.4523 130.388 42.5114 130.671 42.5114C130.789 42.5114 130.907 42.4996 131.025 42.4759C131.143 42.4523 131.249 42.4051 131.356 42.3461C131.462 42.287 131.533 42.2162 131.592 42.1217C131.651 42.0272 131.674 41.9209 131.674 41.8029C131.674 41.6848 131.651 41.5785 131.592 41.4958C131.533 41.4132 131.462 41.3541 131.367 41.2951C131.273 41.236 131.167 41.2006 131.049 41.1652C130.931 41.1298 130.813 41.1061 130.683 41.0707C130.471 41.0235 130.258 40.9762 130.069 40.9172C129.869 40.8582 129.704 40.7873 129.55 40.6928C129.409 40.5984 129.291 40.4803 129.196 40.3268C129.114 40.1733 129.066 39.9843 129.066 39.7481C129.066 39.5238 129.114 39.3348 129.208 39.1577C129.302 38.9924 129.432 38.8507 129.597 38.7326C129.763 38.6263 129.94 38.5318 130.14 38.4846C130.341 38.4256 130.553 38.3901 130.766 38.3901C131.096 38.3901 131.391 38.461 131.674 38.5909C131.946 38.7208 132.17 38.9333 132.323 39.2286L131.686 39.6537C131.592 39.4883 131.462 39.3585 131.297 39.2522C131.131 39.1577 130.943 39.0987 130.718 39.0987C130.612 39.0987 130.506 39.1105 130.4 39.1341C130.294 39.1577 130.199 39.1931 130.105 39.2522C130.022 39.2994 129.951 39.3703 129.892 39.4529C129.833 39.5356 129.81 39.6301 129.81 39.7363C129.81 39.8308 129.845 39.9135 129.904 39.9843C129.963 40.0552 130.046 40.1142 130.164 40.1614C130.27 40.2087 130.4 40.2559 130.53 40.3031C130.671 40.3386 130.813 40.374 130.966 40.3976C131.167 40.433 131.356 40.4921 131.544 40.5511C131.721 40.6102 131.887 40.6928 132.028 40.7991C132.17 40.9054 132.276 41.0353 132.347 41.1888C132.418 41.3423 132.465 41.5431 132.465 41.7674C132.465 42.0272 132.418 42.2516 132.311 42.4287C132.205 42.6058 132.064 42.7594 131.898 42.8774C131.721 42.9955 131.533 43.0782 131.308 43.1254C131.096 43.1727 130.872 43.2081 130.636 43.2081C130.246 43.2081 129.904 43.149 129.621 43.031C129.338 42.9129 129.078 42.6885 128.854 42.3579L129.456 41.8855L129.491 41.8973Z" fill="#282828"/>
<path d="M136.076 39.1696H134.73V41.4605C134.73 41.614 134.73 41.7557 134.73 41.8738C134.73 42.0037 134.766 42.11 134.813 42.2045C134.86 42.2989 134.931 42.3698 135.014 42.4288C135.108 42.4879 135.238 42.5115 135.403 42.5115C135.509 42.5115 135.627 42.4997 135.745 42.4761C135.863 42.4524 135.969 42.417 136.076 42.358L136.111 43.0547C135.981 43.1137 135.84 43.1492 135.674 43.1846C135.509 43.22 135.368 43.22 135.214 43.22C134.943 43.22 134.719 43.1846 134.554 43.1137C134.388 43.0429 134.259 42.9366 134.176 42.8067C134.082 42.6768 134.023 42.5115 133.999 42.3226C133.975 42.1336 133.952 41.9211 133.952 41.6849V39.1696H132.949V38.5201H133.952V37.2212H134.719V38.5201H136.064V39.1696H136.076Z" fill="#282828"/>
<path d="M137.008 39.6063C137.008 39.3938 137.008 39.2048 136.984 39.0159C136.972 38.8388 136.96 38.6616 136.96 38.5199H137.68C137.68 38.6498 137.68 38.7679 137.68 38.8978C137.68 39.0159 137.68 39.1458 137.68 39.2757H137.704C137.751 39.1694 137.834 39.0513 137.928 38.9569C138.022 38.8506 138.14 38.7561 138.27 38.6735C138.4 38.5908 138.553 38.5317 138.707 38.4727C138.872 38.4255 139.049 38.4019 139.238 38.4019C139.486 38.4019 139.698 38.4373 139.863 38.4963C140.028 38.5554 140.17 38.638 140.276 38.7207C140.382 38.8152 140.477 38.9096 140.536 39.0041C140.595 39.0986 140.654 39.193 140.689 39.2757C140.854 39.0041 141.055 38.7915 141.279 38.638C141.503 38.4845 141.787 38.4019 142.141 38.4019C142.471 38.4019 142.742 38.4491 142.967 38.5317C143.191 38.6144 143.368 38.7443 143.509 38.9096C143.651 39.0749 143.745 39.2757 143.804 39.5119C143.863 39.748 143.899 40.0196 143.899 40.3149V43.1017H143.132V40.3621C143.132 40.2086 143.12 40.0551 143.085 39.9016C143.049 39.748 142.99 39.6181 142.908 39.5001C142.825 39.382 142.707 39.2875 142.565 39.2167C142.424 39.1458 142.235 39.1104 142.023 39.1104C141.857 39.1104 141.704 39.1458 141.562 39.2048C141.421 39.2639 141.291 39.3584 141.185 39.4764C141.079 39.5945 140.996 39.7362 140.925 39.9016C140.854 40.0669 140.831 40.2558 140.831 40.4566V43.1017H140.064V40.5038C140.064 39.996 139.993 39.63 139.863 39.4174C139.722 39.2048 139.497 39.0986 139.191 39.0986C138.943 39.0986 138.73 39.1458 138.553 39.2285C138.376 39.3111 138.223 39.4292 138.117 39.5945C138.011 39.7599 137.916 39.937 137.857 40.1495C137.798 40.3621 137.775 40.5983 137.775 40.8699V43.1017H137.008V39.6063Z" fill="#282828"/>
<path d="M149.445 42.2752C149.174 42.6295 148.867 42.8774 148.548 43.0192C148.218 43.1609 147.84 43.2317 147.415 43.2317C147.061 43.2317 146.731 43.1727 146.448 43.0428C146.165 42.9129 145.917 42.7476 145.716 42.5232C145.516 42.3106 145.362 42.0508 145.256 41.7556C145.15 41.4604 145.091 41.1534 145.091 40.8109C145.091 40.4567 145.15 40.1378 145.268 39.8308C145.386 39.5356 145.551 39.2758 145.763 39.0632C145.976 38.8507 146.224 38.6854 146.507 38.5673C146.79 38.4492 147.109 38.3901 147.451 38.3901C147.769 38.3901 148.064 38.4492 148.336 38.5555C148.607 38.6617 148.831 38.8153 149.02 39.0278C149.209 39.2286 149.362 39.4883 149.469 39.7836C149.575 40.0788 149.622 40.4212 149.622 40.7991V41.0471H145.929C145.94 41.2478 145.988 41.4368 146.07 41.6139C146.153 41.791 146.259 41.9446 146.389 42.0863C146.519 42.2162 146.672 42.3224 146.849 42.4051C147.026 42.4878 147.215 42.5232 147.427 42.5232C147.758 42.5232 148.041 42.4641 148.265 42.3461C148.489 42.228 148.702 42.0508 148.879 41.8265L149.457 42.2752H149.445ZM148.784 40.4094C148.772 40.0197 148.643 39.7009 148.407 39.4647C148.171 39.2286 147.828 39.1105 147.404 39.1105C146.979 39.1105 146.637 39.2286 146.377 39.4647C146.117 39.7009 145.964 40.0079 145.905 40.4094H148.784Z" fill="#282828"/>
<path d="M150.79 39.6063C150.79 39.3938 150.79 39.2048 150.766 39.0159C150.754 38.8388 150.743 38.6616 150.743 38.5199H151.462C151.462 38.6498 151.462 38.7679 151.462 38.8978C151.462 39.0159 151.462 39.1458 151.462 39.2757H151.486C151.533 39.1694 151.616 39.0513 151.71 38.9569C151.805 38.8506 151.923 38.7561 152.052 38.6735C152.182 38.5908 152.336 38.5317 152.489 38.4727C152.654 38.4255 152.831 38.4019 153.02 38.4019C153.315 38.4019 153.575 38.4491 153.799 38.5436C154.023 38.638 154.2 38.7679 154.342 38.9214C154.483 39.0868 154.589 39.2875 154.66 39.5119C154.731 39.748 154.766 39.996 154.766 40.2676V43.1017H153.999V40.3503C153.999 39.9606 153.917 39.6654 153.752 39.441C153.586 39.2167 153.315 39.1104 152.961 39.1104C152.713 39.1104 152.501 39.1576 152.324 39.2403C152.147 39.3229 151.993 39.441 151.887 39.6063C151.781 39.7717 151.687 39.9488 151.628 40.1614C151.569 40.3739 151.545 40.6101 151.545 40.8817V43.1135H150.778V39.6182L150.79 39.6063Z" fill="#282828"/>
<path d="M158.743 39.1696H157.397V41.4605C157.397 41.614 157.397 41.7557 157.397 41.8738C157.397 42.0037 157.433 42.11 157.48 42.2045C157.527 42.2989 157.598 42.3698 157.681 42.4288C157.775 42.4879 157.905 42.5115 158.07 42.5115C158.176 42.5115 158.294 42.4997 158.412 42.4761C158.53 42.4524 158.636 42.417 158.743 42.358L158.778 43.0547C158.648 43.1137 158.507 43.1492 158.341 43.1846C158.176 43.22 158.035 43.22 157.881 43.22C157.61 43.22 157.386 43.1846 157.22 43.1137C157.055 43.0429 156.925 42.9366 156.843 42.8067C156.748 42.6768 156.689 42.5115 156.666 42.3226C156.642 42.1336 156.619 41.9211 156.619 41.6849V39.1696H155.616V38.5201H156.619V37.2212H157.386V38.5201H158.731V39.1696H158.743Z" fill="#282828"/>
<path d="M27.4459 40.3619C27.4459 40.3619 27.3515 40.421 27.3043 40.4564C27.3633 40.4328 27.4105 40.4091 27.4695 40.3737C27.4695 40.3737 27.4695 40.3619 27.4695 40.3501C27.4695 40.3501 27.4695 40.3501 27.4577 40.3501L27.4459 40.3619Z" fill="#282828"/>
<path d="M0.506996 39.4528C0.707592 39.3229 0.919988 39.1812 1.27398 38.9568C0.943588 38.8269 0.683993 38.7088 0.412598 38.6025V39.5236C0.412598 39.5236 0.471597 39.4764 0.506996 39.4528Z" fill="#282828"/>
<path d="M0.401611 40.4214V40.5277C0.401611 40.5277 0.449197 40.504 0.484887 40.4804C0.449197 40.4568 0.425404 40.445 0.401611 40.4214Z" fill="#282828"/>
<path d="M10.3974 26.9849C10.3974 26.9849 10.3974 26.9722 10.3974 26.9595L10.3716 26.9849H10.3974Z" fill="#282828"/>
<path d="M25.2182 7.2041C25.2182 7.2041 25.2053 7.2041 25.1924 7.2041C25.1924 7.2041 25.1924 7.2041 25.1924 7.2168V7.19141L25.2182 7.2041Z" fill="#282828"/>
<path d="M1.1214 37.1029C0.861803 37.0202 0.614007 36.9376 0.401611 36.8667V37.4571C0.649407 37.3981 0.897202 37.339 1.1214 37.28V37.1147V37.1029Z" fill="#282828"/>
<path d="M40.8275 18.2092C40.8275 18.2092 40.7213 18.2564 40.6741 18.2801C40.7331 18.2682 40.7921 18.2446 40.8393 18.2328C40.8983 18.0911 40.9573 17.9376 41.0163 17.7959C41.0163 17.7959 41.0163 17.7959 41.0045 17.7959C40.9455 17.9376 40.8865 18.0675 40.8275 18.2092Z" fill="#282828"/>
<path d="M43.5754 16.922C43.5754 16.922 43.5638 16.8984 43.5523 16.8984C43.5523 16.8984 43.5407 16.8984 43.5291 16.9102C43.5407 16.9102 43.5639 16.9102 43.5754 16.922Z" fill="#282828"/>
<path d="M11.5161 38.555C11.5161 38.555 11.5161 38.555 11.5281 38.555C11.5281 38.5432 11.5281 38.5196 11.5281 38.5078C11.5281 38.5078 11.5281 38.5314 11.5161 38.5432C11.5161 38.5432 11.5161 38.5432 11.5161 38.555Z" fill="#282828"/>
<path d="M53.4409 26.8075C53.4409 26.8075 53.4536 26.8075 53.4662 26.8201C53.4662 26.8201 53.4662 26.7949 53.4662 26.7822H53.4536L53.4409 26.8075Z" fill="#282828"/>
<path d="M11.5289 38.3898C11.5289 38.3898 11.5289 38.3426 11.5289 38.3071H11.5051C11.5051 38.3071 11.5051 38.3071 11.5051 38.3189C11.5051 38.3426 11.5051 38.3662 11.517 38.378L11.5289 38.3898Z" fill="#282828"/>
<path d="M54.0181 18.1975V18.1621C54.0181 18.1621 53.9833 18.1621 53.9717 18.1621C53.9717 18.1621 53.9717 18.1621 53.9833 18.1739H54.0181V18.1975Z" fill="#282828"/>
<path d="M54.9281 28.9313C54.8573 27.5733 54.7983 26.298 54.7275 25.0227C54.3971 24.7983 54.1021 24.5975 53.8189 24.3968C53.6537 25.0463 53.9487 25.5659 54.2201 26.2035C54.3027 25.9673 54.3499 25.8256 54.4207 25.6485C54.5387 26.05 54.6803 26.3688 54.7039 26.6995C54.7275 26.9711 54.6095 27.2545 54.5623 27.5261L53.4767 26.8176C53.5947 27.2073 53.6773 27.6206 53.8543 27.9866C53.9723 28.2346 54.1847 28.4118 53.8307 28.6125C54.0667 28.8723 54.2909 28.9431 54.4561 28.5771C54.5859 28.9786 54.7275 29.4037 54.9163 29.9823C54.3381 29.7698 53.9487 29.628 53.4413 29.4509C53.5121 29.7934 53.5593 30.0295 53.6183 30.2775C53.6183 30.2775 53.6301 30.2657 53.6419 30.2539C53.6419 30.2657 53.6419 30.2893 53.6419 30.3011C53.7363 30.3956 53.8307 30.5019 53.9251 30.5964L53.7245 30.7026C53.7009 30.5727 53.6655 30.4428 53.6419 30.3011C53.6419 30.3011 53.6183 30.2775 53.6183 30.2657C53.3705 30.5137 53.1227 30.7617 52.7569 31.1278C52.5917 26.7113 52.4383 22.5546 52.2967 18.5279C52.6979 18.1854 52.9811 17.9492 53.2643 17.7013C53.3823 17.7957 53.5003 17.8784 53.6301 17.9729C53.6301 17.9729 53.6419 17.9847 53.6537 17.9965C53.7009 17.9965 53.7599 17.9965 53.8071 17.9965C53.8071 17.9965 53.8071 17.9965 53.8071 17.9847H53.8307V17.9965C53.8897 18.0555 53.9369 18.1027 53.9959 18.1618C54.0077 18.1618 54.0195 18.1618 54.0313 18.1618V18.1972L54.0077 18.1854C54.0077 18.1854 54.0077 18.1854 53.9959 18.1736C53.9487 18.1736 53.8897 18.1854 53.8425 18.1972C54.0195 18.4334 54.1965 18.6696 54.3735 18.9057C54.3735 18.9057 54.3853 18.9176 54.3971 18.9294C54.4561 18.9294 54.5033 18.9294 54.5623 18.9294C54.5623 18.9294 54.5623 18.9294 54.5623 18.9176H54.5741C54.5741 18.9176 54.5741 18.9294 54.5623 18.9294C54.5623 18.9884 54.5623 19.0356 54.5623 19.0947C54.5623 19.0947 54.5741 19.1065 54.5859 19.1183C54.6685 19.26 54.7393 19.4017 54.8337 19.567C55.2113 19.2482 55.3293 19.0002 55.0107 18.5987C54.7393 18.2563 54.5505 17.8311 54.3971 17.4178C54.2083 16.9101 54.1021 16.3669 53.9015 15.6465C53.6891 16.1189 53.5829 16.3905 53.4649 16.6503C53.0873 16.5912 52.7687 16.544 52.3911 16.485V15.5048C52.2495 15.4458 52.108 15.3749 51.8602 15.2569C52.2024 15.0561 52.4265 14.9262 52.6271 14.7963C52.4383 14.135 52.2613 13.5446 52.0962 12.9542C51.9664 13.7926 51.0932 14.5365 51.8956 15.5639C51.5416 15.7174 51.223 15.9654 50.9044 15.9772C49.4766 16.0244 48.0488 16.0008 46.5267 16.0008C46.2553 14.9734 45.9957 13.9933 45.7007 12.8479C45.5001 13.7099 45.3467 14.3712 45.1933 15.0443C45.5119 15.1388 45.7361 15.2096 46.1019 15.3159C45.7125 15.5285 45.3349 15.5993 45.2877 15.7764C45.1107 16.3787 44.5915 16.3905 44.1667 16.5794C43.9661 16.6739 43.7655 16.792 43.5649 16.8983C43.5649 16.8983 43.5767 16.9219 43.5885 16.9219C43.7183 16.9573 43.8481 16.9927 43.9779 17.0163C43.9307 17.0754 43.8835 17.1344 43.8481 17.1935C43.7655 17.099 43.6711 17.0045 43.5885 16.9101C43.5767 16.9101 43.5531 16.9101 43.5413 16.8983C43.5413 16.8983 43.5531 16.8983 43.5649 16.8865C42.9159 17.1226 42.2551 17.3588 41.6062 17.595C41.6062 17.595 41.6062 17.6068 41.6062 17.6186C41.618 17.7485 41.6297 17.8902 41.6415 18.0201C41.5708 18.0201 41.5 18.0201 41.4292 18.0083C41.4882 17.8784 41.5471 17.7485 41.6062 17.6186C41.6062 17.6186 41.6062 17.6068 41.6062 17.595C41.6062 17.595 41.6061 17.595 41.6179 17.595C41.4292 17.6658 41.2404 17.7249 41.0516 17.7957C40.9926 17.9374 40.9336 18.0909 40.8746 18.2326C40.8156 18.2445 40.7566 18.2681 40.7094 18.2799C40.7566 18.2563 40.8156 18.2326 40.8628 18.209C40.9218 18.0673 40.9808 17.9374 41.0398 17.7957C41.0398 17.7957 41.0398 17.7957 41.0516 17.7957C40.8274 17.7839 40.5914 17.7839 40.2492 17.7839C40.3082 17.0163 40.3672 16.3314 40.4144 15.6465H40.5914C40.32 15.0089 40.0486 14.3594 39.7654 13.7099C39.3878 14.3003 39.1636 14.8554 38.9984 15.434C38.9394 15.6465 38.9394 16.0126 39.0692 16.1307C39.5648 16.603 39.3996 16.9691 39.022 17.3706C38.9512 17.4415 38.9512 17.5832 38.9276 17.7013C38.8096 18.1972 38.6916 18.6814 38.5736 19.1773C38.5146 19.1773 38.4438 19.1537 38.3848 19.1419C38.314 18.9884 38.2432 18.8231 38.1252 18.5397C37.9836 19.2718 37.8538 19.8859 37.7594 20.4999C37.6532 21.1258 37.0632 21.7398 37.8066 22.4011C37.9836 22.5664 37.901 23.0388 37.9128 23.3694C37.96 25.3769 38.0072 27.3962 38.0426 29.4037C38.0544 30.1476 38.0426 30.9034 38.0426 31.7182C37.665 31.6591 37.4172 31.6591 37.2048 31.5647C36.7328 31.3639 36.2727 30.9506 35.8125 30.9506C34.9393 30.9506 34.3611 30.5491 33.7947 29.9705C33.6295 29.8052 33.3109 29.7343 33.0513 29.7343C32.6265 29.7343 32.2017 29.817 31.7887 29.8878C30.8684 30.0532 29.9598 30.2421 28.945 30.431C28.9214 29.9469 28.8978 29.5808 28.8978 29.2266C28.8978 27.4316 28.8978 25.6249 28.8742 23.83C28.8742 23.5584 28.8978 23.2159 28.7444 23.0506C28.296 22.5428 28.5202 22.035 28.6264 21.5037C28.7444 20.9486 28.827 20.3818 28.9332 19.815L28.768 19.7914C28.6854 19.9685 28.591 20.1338 28.4494 20.4291C28.414 19.6497 28.3786 19.0238 28.3432 18.398C28.2842 18.398 28.237 18.398 28.178 18.398C28.0836 20.1102 27.9892 21.8343 27.8948 23.5466C27.8122 23.5466 27.7296 23.5466 27.647 23.5466V18.3153C27.5526 18.3153 27.47 18.3153 27.3756 18.3153C27.3756 19.012 27.3756 19.7087 27.3756 20.4054C27.3874 21.0785 27.5172 21.7634 27.2104 22.3893C27.175 21.9878 27.2458 21.6099 27.2458 21.2202C27.2458 20.6652 26.9272 20.5826 26.4552 20.7243C26.4198 21.0431 26.3726 21.362 26.3372 21.669C26.2782 21.669 26.2192 21.669 26.172 21.669V17.7367C26.1012 17.7367 26.0304 17.7367 25.9596 17.7367C25.9596 19.1655 25.9596 20.5826 25.9596 22.0114C25.9596 22.3185 25.995 22.6609 25.877 22.9089C25.6057 23.4521 25.7001 23.9717 25.818 24.5031C25.995 25.3179 25.818 26.0972 25.6175 26.8884C25.4995 27.3372 25.5821 27.8331 25.6175 28.3055C25.6411 28.6007 25.7944 28.8959 25.7944 29.1911C25.7944 31.2104 25.7708 33.2297 25.7944 35.2608C25.7944 36.2291 25.9478 37.1974 25.9242 38.1657C25.9124 38.7562 26.2546 39.5237 25.4051 39.8662C25.5113 40.0315 25.6175 40.1968 25.7119 40.3504L25.5349 40.4566C25.1455 40.1024 24.8505 39.6891 24.8623 39.0868C24.8623 37.0793 24.8623 35.0601 24.8623 33.0526C24.8623 30.0059 24.8623 26.9475 24.8623 23.9008C24.8623 21.0313 24.8859 18.1736 24.8859 15.3041C24.8859 12.8361 24.8859 10.3562 24.8977 7.88822C24.8977 7.62843 24.7561 7.25055 25.2045 7.1915C25.0983 6.94352 25.0039 6.68373 24.8977 6.40032C25.3697 6.43575 25.7001 6.45936 26.0894 6.48298C25.8652 5.10136 25.6411 3.82602 25.4405 2.55068C25.3697 2.10195 25.1927 1.58237 25.3579 1.20449C25.5821 0.696714 25.3107 0.484157 25.0747 0C24.8977 0.425113 24.7443 0.684905 24.6853 0.980123C24.2841 2.76324 23.8947 4.54635 23.5053 6.32947C23.3637 6.99076 23.1867 7.62843 22.6439 8.07716L22.6911 8.10077H22.6557C21.8061 8.46684 22.1837 7.34502 21.5937 7.25055C21.4403 8.06535 21.1689 8.85653 21.1689 9.65952C21.1335 14.3948 21.1689 19.1183 21.1689 23.8536C21.1689 24.1134 21.1217 24.3732 21.0981 24.692C20.7795 24.5267 20.5553 24.4086 20.1188 24.196V40.2441C19.1984 39.4529 18.3488 40.7991 17.6172 39.878C17.1334 40.6692 16.862 40.681 13.4165 39.9725H15.21C15.3162 39.3348 15.4106 38.7562 15.5168 38.0713C14.8679 38.2956 14.3251 38.4846 13.7823 38.6853V36.7251H13.9947C14.0301 37.1384 14.0537 37.5753 14.0891 38.1185C14.4903 37.1502 13.5581 35.8158 15.1274 35.4734C15.0684 35.0719 15.0331 34.6704 14.9269 34.2925C14.8443 34.0091 14.7499 33.6902 14.5493 33.4777C14.0891 32.9935 13.5345 32.7455 12.8147 32.8873C12.2011 33.0053 11.8235 33.1943 11.5875 33.8674C11.2689 34.8121 11.1863 34.8003 12.1421 35.0482C12.4725 35.1309 12.8265 35.1545 13.1687 35.2018C13.1687 35.2844 13.1451 35.3671 13.1333 35.4379H11.3869C11.1627 36.5361 11.2099 37.6225 11.4813 38.2602H11.5049C11.5049 38.2602 11.5049 38.3074 11.5049 38.3311C11.5049 38.3547 11.5167 38.3783 11.5285 38.4019C11.5285 38.4019 11.5285 38.4255 11.5049 38.4373C11.5049 38.4492 11.5049 38.4728 11.5049 38.4846C11.5049 38.4846 11.5049 38.4846 11.4931 38.4846C11.6347 39.0396 11.5285 39.7599 12.4017 39.7953C12.2011 40.5983 11.9179 40.7046 10.7851 40.4802C10.8795 39.9725 10.9975 39.4765 11.0329 38.9805C11.0565 38.6381 11.1509 38.4728 11.4931 38.4846C11.4931 38.4846 11.4931 38.4846 11.4931 38.4728C11.4931 38.4728 11.4931 38.4492 11.5049 38.4373C11.5049 38.4019 11.5049 38.3665 11.5049 38.3311C11.5049 38.3074 11.5049 38.2838 11.4931 38.272C11.0565 38.3193 10.6317 38.3547 10.1951 38.4019C9.69955 36.8077 9.97095 35.6977 10.9267 35.249C10.9267 34.1508 10.8913 33.088 10.9503 32.0252C10.9621 31.73 11.2689 31.4584 11.4341 31.175C10.7143 30.8798 10.6435 30.5373 10.9149 29.51C11.1509 28.6125 11.4105 27.6206 10.3957 26.9357C10.1361 27.6914 9.87655 28.4472 9.59335 29.2384C9.28656 28.9904 9.10956 28.8369 8.92077 28.6715C8.84997 28.707 8.79097 28.7306 8.72017 28.766C8.79097 29.4745 8.86177 30.1712 8.93257 30.8798C8.99156 30.8798 9.05056 30.8798 9.10956 30.868C9.14496 30.4665 9.19216 30.0532 9.22756 29.6517C9.27476 29.6517 9.32196 29.6753 9.35736 29.6871C9.53435 30.2421 9.69955 30.7971 9.90015 31.4348C9.85295 31.5411 9.68775 31.73 9.68775 31.9189C9.69955 33.3478 9.75855 34.7766 9.79395 36.2055C9.81755 36.9967 9.97095 37.8351 9.75855 38.5672C9.58155 39.2167 9.48715 39.7835 9.60515 40.4566C9.40456 40.2677 9.19216 40.0669 8.97976 39.8662C8.36618 40.6456 8.23638 40.7046 7.0682 40.7164C6.10062 40.7164 5.92362 40.5275 6.07702 39.5946C6.10062 39.4411 6.14782 39.2994 6.17142 39.1577C5.99442 38.9569 5.72303 38.7798 5.69943 38.5672C5.64043 38.024 5.56963 37.4218 5.74663 36.9376C5.97082 36.3354 5.68763 35.9575 5.39263 35.6505C5.16844 35.4143 4.68465 35.3435 4.33065 35.3671C3.95306 35.3907 3.71706 35.6977 3.71706 36.1346C3.71706 36.7723 3.66986 37.41 3.66986 38.0477C3.66986 38.4728 3.59907 38.8388 3.11527 38.9687C2.70228 39.0868 2.63148 39.382 2.72588 39.7599C2.77308 39.9961 2.80848 40.2323 2.84388 40.3976C3.04448 40.4212 3.23327 40.4566 3.42207 40.4802H3.43387C3.43387 40.4921 3.43387 40.5157 3.43387 40.5275C3.43387 40.5511 3.45747 40.5865 3.45747 40.6101C3.45747 40.622 3.44567 40.6338 3.43387 40.6456V40.6692H3.42207L0.389526 40.9172V44.0347H55.6361V29.3801C55.5535 29.2502 55.4827 29.1203 55.4001 28.9904C55.3293 28.9786 55.1051 28.9195 54.9163 28.8723L54.9281 28.9313ZM54.1139 17.2998L54.0903 17.3588C54.0903 17.3588 54.0549 17.347 54.0431 17.3352C54.0667 17.3234 54.0903 17.3116 54.1139 17.2998ZM24.9921 4.45188C24.9921 4.45188 25.0157 4.48731 25.0393 4.51093C25.0157 4.54635 24.9921 4.58178 24.9685 4.6054C24.9567 4.58178 24.9213 4.55816 24.9331 4.54635C24.9449 4.51093 24.9803 4.4755 25.0039 4.44007L24.9921 4.45188ZM13.6525 39.2521L13.6171 39.323L13.5817 39.2521H13.6525ZM12.2129 34.753C12.1893 34.5641 12.1775 34.387 12.1539 34.198C12.2247 34.1862 12.3073 34.1744 12.3781 34.1626C12.4253 34.3397 12.4607 34.5169 12.5079 34.694C12.4135 34.7176 12.3191 34.7412 12.2129 34.7648V34.753ZM22.7619 40.4566C21.9595 40.5511 21.1453 40.6574 20.4845 39.8662C21.2515 39.9961 22.0303 40.1378 22.7973 40.2677C22.7973 40.3267 22.7737 40.3976 22.7619 40.4566ZM23.4699 40.374L23.5053 40.3149L23.5289 40.3858H23.4699V40.374ZM24.0245 40.4802C24.0245 40.4802 24.0127 40.433 24.0009 40.4094C24.0245 40.4094 24.0481 40.4094 24.0717 40.4094C24.0717 40.4094 24.0717 40.4448 24.0835 40.4566C24.0599 40.4566 24.0363 40.4684 24.0127 40.4802H24.0245ZM24.3903 39.3112C24.4139 39.3584 24.4139 39.382 24.4139 39.3702C24.4139 39.3702 24.4139 39.3702 24.3903 39.3112ZM24.6499 40.374C24.6499 40.374 24.5437 40.2677 24.5319 40.1968C24.5319 40.1614 24.5909 40.0551 24.6027 40.0551C24.6735 40.0669 24.7325 40.1142 24.8269 40.1614C24.7443 40.2441 24.6971 40.3031 24.6381 40.3622L24.6499 40.374ZM26.3608 22.2594C26.3608 22.2594 26.4316 22.3066 26.467 22.3421C26.4316 22.3893 26.408 22.4247 26.3726 22.472C26.349 22.4247 26.3254 22.3893 26.3136 22.3421C26.3136 22.3185 26.3372 22.2948 26.3608 22.2712V22.2594ZM26.6912 40.3622C26.408 40.5039 26.1484 40.5393 25.9478 39.9489C26.29 40.1378 26.4906 40.2559 26.6912 40.3622H26.7148H26.703H26.6912ZM26.8682 25.4832C26.6912 24.7865 26.5732 24.2905 26.4434 23.7945C26.3136 23.9008 26.1838 23.9953 25.995 24.1488C25.995 23.582 26.0894 23.0742 26.6204 23.0152C27.175 22.9561 27.4228 23.4639 27.6234 23.9126C27.9538 24.6566 27.3284 24.8928 26.8564 25.4832H26.8682ZM27.3048 40.4566C27.3048 40.4566 27.3992 40.3976 27.4464 40.3622C27.4464 40.3622 27.4464 40.3622 27.4582 40.3622C27.4464 40.2205 27.4228 40.0788 27.3992 39.8426C27.8948 39.8898 28.3314 39.9252 28.768 39.9725V40.1378C28.3432 40.2205 27.8948 40.2913 27.4582 40.374C27.4582 40.374 27.4582 40.3858 27.4582 40.3976C27.3992 40.4212 27.352 40.4448 27.293 40.4802L27.3048 40.4566ZM28.8388 40.4566C28.8388 40.4566 28.7916 40.4566 28.768 40.4566C28.768 40.433 28.768 40.3976 28.768 40.3976C28.7916 40.3976 28.8152 40.3976 28.8388 40.3976C28.8388 40.4212 28.8388 40.4566 28.8388 40.4566ZM30.5852 40.2913C30.5852 40.2913 30.5616 40.2677 30.5498 40.2559H32.5321C32.5321 40.2559 32.5321 40.2795 32.5321 40.2913H30.597H30.5852ZM32.5793 30.4665C32.5793 30.4074 32.5557 30.3484 32.5439 30.2775C32.6619 30.2657 32.7917 30.2421 32.9097 30.2421C32.9097 30.2421 32.9333 30.3484 32.9451 30.3956C32.8153 30.4192 32.6973 30.4429 32.5675 30.4665H32.5793ZM33.3935 40.3149C33.3935 40.3149 33.3581 40.2559 33.3463 40.2323C33.3699 40.2323 33.3935 40.2323 33.4171 40.2323C33.4289 40.2323 33.4407 40.2677 33.4525 40.2795C33.4289 40.2913 33.4053 40.3031 33.3935 40.3149ZM33.5823 30.679C33.5823 30.679 33.5351 30.62 33.5469 30.6082C33.5823 30.5727 33.6177 30.5609 33.6531 30.5373C33.6767 30.5846 33.7003 30.6318 33.7239 30.679C33.6767 30.679 33.6295 30.679 33.5823 30.679ZM37.9482 37.2801C37.9128 37.1974 37.8774 37.1148 37.842 37.0321C37.7948 37.0321 37.7358 37.0321 37.6886 37.0321C37.7122 37.3864 37.724 37.7524 37.7476 38.1067C37.8184 39.1577 37.3818 39.5001 36.2137 39.1813V31.8599C36.7682 31.9544 37.311 32.0488 37.9482 32.1551V37.2683V37.2801ZM39.5294 16.1071C39.9227 16.4062 39.9581 16.7605 39.6356 17.1699C39.5884 16.7093 39.5648 16.4023 39.5294 16.1071ZM39.9896 18.5633C39.9896 18.5633 39.9424 18.4806 39.9188 18.4334C39.9896 18.398 40.0486 18.3507 40.1312 18.3271C40.1312 18.3271 40.1784 18.4098 40.2256 18.4688C40.1548 18.5042 40.084 18.5397 40.0014 18.5633H39.9896ZM42.0191 17.8548C42.0191 17.8548 41.9601 17.7721 41.9365 17.7249C42.0073 17.6776 42.0781 17.6304 42.1489 17.6068C42.1489 17.6068 42.2079 17.6894 42.2551 17.7485C42.1725 17.7839 42.1017 17.8311 42.0309 17.8548H42.0191ZM42.5737 17.6658C42.5737 17.6658 42.4911 17.5477 42.4911 17.5359C42.5501 17.4769 42.6209 17.4297 42.6917 17.3824C42.7153 17.4297 42.7507 17.4769 42.7861 17.5477C42.7153 17.5832 42.6445 17.6304 42.5619 17.654L42.5737 17.6658ZM43.1637 17.4178C43.1637 17.4178 43.1047 17.2998 43.1165 17.2761C43.1401 17.2289 43.2109 17.2171 43.2581 17.1817C43.2699 17.2407 43.3171 17.2998 43.3053 17.347C43.2935 17.3824 43.2109 17.3942 43.1519 17.4178H43.1637ZM44.4381 17.0163C44.4027 16.9573 44.3673 16.8865 44.3437 16.8274C44.4027 16.8038 44.4617 16.7684 44.4971 16.7802C44.5325 16.792 44.5443 16.8746 44.5679 16.9219C44.5207 16.9573 44.4735 16.9809 44.4381 17.0163ZM44.9691 16.8392C44.9691 16.8392 44.9219 16.7447 44.8865 16.6975C44.9573 16.6739 45.0281 16.6385 45.0871 16.6149C45.0871 16.6621 45.1343 16.7329 45.1107 16.7684C45.0871 16.8038 45.0163 16.8156 44.9573 16.8392H44.9691ZM52.3203 17.5241C52.3203 17.5241 52.3439 17.5714 52.3557 17.595C52.1433 17.6304 51.9192 17.654 51.6242 17.7013C51.6596 18.4216 51.7068 19.0947 51.7422 19.7678C51.6596 19.7678 51.5652 19.7796 51.4826 19.7914C51.4236 19.0593 51.3646 18.3271 51.3056 17.5241H52.3203ZM51.0578 16.2724C51.0578 16.2724 51.0578 16.3787 51.0578 16.4259C50.9044 16.4495 50.7392 16.4613 50.5858 16.485C50.5858 16.4141 50.5858 16.3433 50.5858 16.2724H51.0578ZM50.633 17.7131C50.633 17.7131 50.7274 17.7485 50.7746 17.7721C50.7392 17.8075 50.7156 17.8548 50.6802 17.8902C50.6448 17.8548 50.6094 17.8193 50.5858 17.7721C50.5858 17.7721 50.6212 17.7131 50.633 17.7131ZM50.7156 18.2917C50.81 18.2917 50.8926 18.3153 50.987 18.3271V19.7087C50.5622 19.2482 50.3498 18.7877 50.7156 18.2917ZM50.102 16.2252C50.1728 16.2252 50.2318 16.2842 50.3026 16.3078C50.2554 16.3787 50.2318 16.4259 50.2082 16.4731C50.1492 16.4377 50.0784 16.3905 50.0194 16.3433C50.0194 16.3433 50.0784 16.2134 50.102 16.2252ZM49.866 19.7442V18.398C50.397 18.7168 50.4442 19.1773 49.866 19.7442ZM49.8542 17.5477C49.9132 17.5477 49.9722 17.6422 50.0666 17.7131C49.984 17.7839 49.9014 17.8902 49.866 17.8784C49.7952 17.8548 49.7126 17.7721 49.7126 17.7013C49.7126 17.654 49.807 17.5477 49.866 17.5477H49.8542ZM49.5356 16.237C49.6064 16.237 49.6772 16.2842 49.748 16.3196C49.7008 16.3905 49.6772 16.4377 49.6418 16.485C49.5828 16.4495 49.512 16.4141 49.453 16.3551C49.453 16.3551 49.512 16.2252 49.5356 16.2252V16.237ZM49.0636 16.2252C49.0636 16.2252 49.1226 16.3551 49.1462 16.4141C49.099 16.4377 49.0518 16.4495 48.9692 16.485C48.9574 16.4141 48.922 16.3433 48.9338 16.2724C48.9338 16.2488 49.0636 16.2134 49.0636 16.2134V16.2252ZM48.863 17.6422C48.9338 17.6068 49.0164 17.5714 49.2052 17.4769C49.3114 18.2563 49.4058 18.9884 49.5002 19.7205C49.394 19.7442 49.2878 19.7678 49.1816 19.7914C49.1226 19.5198 49.04 19.2482 49.0046 18.9648C48.9456 18.5279 48.9102 18.0791 48.863 17.6422C48.863 17.6422 48.863 17.6422 48.8512 17.6422H48.863ZM48.5208 16.2488C48.5208 16.2488 48.5798 16.3314 48.6034 16.3787C48.5562 16.4141 48.5208 16.4495 48.4736 16.4731C48.4382 16.4141 48.4028 16.3551 48.3674 16.296C48.4146 16.2724 48.4736 16.2252 48.5208 16.237V16.2488ZM47.683 16.3196H48.0606C48.0606 16.3196 48.0606 16.4141 48.0606 16.4495H47.683C47.683 16.4495 47.683 16.3551 47.683 16.3196ZM48.6152 17.7721H47.3998C47.6122 17.406 47.6712 17.406 48.6152 17.7721ZM48.2258 19.7796C48.1786 19.319 48.1432 18.8703 48.0842 18.2208C48.804 18.7404 48.8512 19.1065 48.2258 19.7796ZM47.565 18.1146C47.9898 18.7995 47.9662 19.2718 47.5768 19.7324C47.329 19.2482 47.27 18.7758 47.565 18.1146ZM47.2936 16.237C47.2936 16.237 47.3408 16.3314 47.3762 16.3787C47.3408 16.4141 47.3172 16.4613 47.2818 16.4968C47.2228 16.4495 47.1756 16.4023 47.1166 16.3551C47.1756 16.3196 47.2346 16.2724 47.3054 16.237H47.2936ZM46.7273 16.237C46.7273 16.237 46.7745 16.3314 46.8099 16.4023C46.7391 16.4259 46.6801 16.4731 46.6211 16.4731C46.5975 16.4731 46.5385 16.3669 46.5503 16.3551C46.5975 16.3078 46.6683 16.2724 46.7273 16.237ZM46.5621 17.7249C46.5621 17.7249 46.5621 17.7721 46.5621 17.7957C46.5385 17.7957 46.5149 17.8193 46.4913 17.8193C46.4677 17.8193 46.4559 17.7839 46.4441 17.7603C46.4795 17.7485 46.5149 17.7367 46.5503 17.7249H46.5621ZM46.5975 18.4098C46.9043 18.5594 47.0498 19.016 47.034 19.7796C46.3851 19.5788 46.3261 19.4135 46.5975 18.4098ZM46.8924 20.0158C48.4972 19.9921 50.1138 20.004 51.7186 20.0158C51.813 20.0158 51.9192 20.122 52.0136 20.1693C52.0136 20.2756 52.0018 20.37 51.99 20.4763C51.2938 20.5117 50.5976 20.559 49.9014 20.5708C49.217 20.5826 48.5208 20.5708 47.7538 20.5708C47.7538 21.0785 47.7892 21.4918 47.742 21.8933C47.7184 22.1059 47.5768 22.3067 47.4588 22.4838C47.4352 22.5192 47.093 22.3893 47.093 22.3539C47.093 22.1413 47.093 21.8225 47.2346 21.728C47.6476 21.4446 47.6594 21.114 47.506 20.6534C47.211 20.5826 46.8924 20.5235 46.3969 20.4054C46.6329 20.2047 46.7627 20.0158 46.8924 20.0158ZM51.3882 22.2712C51.3882 22.2712 51.3056 22.2712 51.2584 22.2594C51.2584 22.1177 51.2702 21.976 51.282 21.8225C51.3056 21.8225 51.3292 21.8225 51.341 21.8225C51.3528 21.976 51.3646 22.1177 51.3764 22.2712H51.3882ZM50.0784 21.421V22.0941C50.0784 22.0941 50.043 22.0941 50.0194 22.0941V21.421C50.0194 21.421 50.0548 21.421 50.0784 21.421ZM48.6506 22.5428C48.3281 22.2752 48.3006 21.9799 48.568 21.6572C48.6034 21.9878 48.6152 22.2122 48.6506 22.5428ZM46.7037 22.9325C47.86 22.6019 51.6006 22.6963 52.1079 23.086C51.8956 23.4049 51.341 23.3812 51.2938 23.6528C51.3174 23.7119 51.341 23.7709 51.3292 23.8654C51.3292 23.7709 51.3174 23.7119 51.2938 23.6528C51.1994 23.3931 50.8808 23.3458 50.4678 23.3576C49.3822 23.3931 48.2848 23.3931 47.1992 23.4049C46.8688 23.4049 46.5621 23.4049 46.6919 22.9207L46.7037 22.9325ZM51.3528 24.8455C51.3528 24.8455 51.3528 24.8928 51.3528 24.9164H51.3056C51.3056 24.9164 51.341 24.8691 51.3528 24.8455ZM49.6772 24.7865V25.1762C49.6772 25.1762 49.5946 25.1762 49.5474 25.188C49.5238 25.0581 49.5002 24.9282 49.4766 24.7983C49.5474 24.7983 49.6064 24.7983 49.6772 24.7983V24.7865ZM47.329 24.3259C47.6712 24.8101 47.8954 25.1525 48.0724 25.4005C48.332 25.0108 48.6152 24.5857 48.981 24.0189C49.0046 24.5975 49.0282 24.9872 49.04 25.3887C49.9722 26.0146 51.2112 25.0817 52.2377 25.8611C51.5534 26.2862 47.6948 26.3452 46.6801 26.0028C46.8689 25.5068 47.0576 25.0108 47.3172 24.3141L47.329 24.3259ZM52.1079 27.4316V27.9394C52.1079 27.9394 52.0608 27.9394 52.049 27.9394V27.4316C52.049 27.4316 52.0961 27.4316 52.1079 27.4316ZM50.2672 27.101V27.7741C50.2672 27.7741 50.22 27.7741 50.2082 27.7741V27.101C50.2082 27.101 50.2554 27.101 50.2672 27.101ZM48.8276 28.2464C48.3478 28.1126 48.2258 27.8253 48.4618 27.3844C48.5916 27.6796 48.6742 27.8804 48.8276 28.2464ZM46.9632 28.152C47.034 27.904 47.093 27.6914 47.1756 27.408C47.4116 27.5733 47.565 27.6796 47.742 27.7977C47.7774 27.6442 47.801 27.4907 47.8364 27.3254C47.8718 27.3726 47.8954 27.3962 47.9072 27.4316C48.0134 28.0575 47.7774 28.3409 46.975 28.1638L46.9632 28.152ZM52.0607 28.5653C52.0844 28.6243 52.0962 28.6952 52.1198 28.7542C51.9664 28.8487 51.813 29.0258 51.6596 29.0258C50.102 29.0258 48.5326 28.9904 46.975 28.955C46.9396 28.955 46.9042 28.7542 46.8452 28.5653H52.0726H52.0607ZM51.5298 30.3956H51.4944L51.518 30.3248V30.3956H51.5298ZM48.3202 30.7381C48.3202 30.7381 48.2022 30.8325 48.155 30.8916C47.9308 30.8916 47.7066 30.868 47.3172 30.8562C47.506 30.5964 47.6476 30.4192 47.7774 30.2303C47.9544 30.4074 48.1432 30.5727 48.3202 30.7499V30.7381ZM50.5976 32.1197C50.0312 31.9898 49.4176 31.8245 48.8984 32.285C49.3586 32.3559 49.8306 32.4385 50.4678 32.5448C49.276 33.4068 48.214 34.1626 47.0222 35.0128C46.7627 33.4777 46.916 32.0134 46.975 30.5609C47.0222 30.7735 47.0576 30.9979 47.1166 31.3049H52.2141C52.2259 31.3639 52.2377 31.4348 52.2613 31.4938C51.7776 31.8599 51.3646 32.3086 50.5858 32.1315L50.5976 32.1197Z" fill="#282828"/>
<path d="M53.6301 30.2539C53.6301 30.2539 53.6182 30.2657 53.6062 30.2775C53.6062 30.2775 53.6301 30.3011 53.6301 30.3128C53.6301 30.3011 53.6301 30.2775 53.6301 30.2657V30.2539Z" fill="#282828"/>
<path d="M41.5724 17.6214C41.5724 17.6214 41.5724 17.6083 41.5724 17.5952C41.5724 17.5952 41.5724 17.5952 41.5593 17.5952C41.5593 17.5952 41.5593 17.6083 41.5593 17.6214H41.5724Z" fill="#282828"/>
<path d="M0.672193 31.6235C0.919988 31.0803 1.16778 30.5371 1.43918 29.9585C1.10878 29.6397 0.766591 29.3326 0.412598 29.061V31.6471C0.518796 31.6471 0.601394 31.6235 0.672193 31.6235Z" fill="#282828"/>
<path d="M26.5619 9.96717L26.526 9.94287C26.526 9.94287 26.5021 9.94287 26.4901 9.94287H26.5619V9.96717Z" fill="#282828"/>
<path d="M27.5997 17.4411C27.5997 17.4411 27.6117 17.4411 27.6237 17.4529C27.6237 17.4411 27.6356 17.4293 27.6476 17.4058L27.5997 17.4293V17.4411Z" fill="#282828"/>
<path d="M27.2222 10.5214C27.2222 10.5214 27.2341 10.486 27.2461 10.4625C27.2461 10.4625 27.2461 10.4625 27.2341 10.4507V10.5214H27.2222Z" fill="#282828"/>
<path d="M25.2542 7.22852C25.2542 7.22852 25.2413 7.21582 25.2284 7.20312V7.22852C25.2284 7.22852 25.2284 7.22852 25.2542 7.22852Z" fill="#282828"/>
<path d="M28.699 9.57764C28.699 9.57764 28.6861 9.57764 28.6732 9.57764C28.6732 9.57764 28.6732 9.57764 28.6732 9.59033V9.56494L28.699 9.57764Z" fill="#282828"/>
<path d="M26.243 8.19518C26.715 8.57306 27.2342 8.86828 27.7062 9.24616C27.895 9.39967 28.1192 9.65946 28.1192 9.88383C28.1192 11.4662 28.0838 13.0604 28.0602 14.6427C27.5764 14.1113 27.6236 13.5327 27.6944 12.9305C27.7652 12.3046 27.8124 11.6669 27.8124 11.0411C27.8124 10.7104 27.7298 10.3444 27.2342 10.4506C27.2342 10.4506 27.2342 10.4506 27.246 10.4625C27.246 10.4861 27.2342 10.4979 27.2224 10.5215C27.2224 10.6042 27.1988 10.6868 27.187 10.7695C27.1634 10.7695 27.1516 10.7577 27.128 10.7459C27.1634 10.675 27.187 10.5924 27.2224 10.5215V10.4506C27.0218 10.2381 26.9864 9.76574 26.5144 9.94287L26.5498 9.96649H26.479C26.479 9.96649 26.5026 9.94287 26.5144 9.94287H26.5026C26.3492 9.76574 26.2076 9.61223 26.0306 9.41148C25.5704 10.368 25.6766 11.4072 26.2784 11.8677C26.3256 11.4072 26.3728 10.9938 26.4436 10.368C26.4436 11.537 26.9038 12.5054 26.3964 13.4855C26.2548 13.2257 26.2076 12.9541 26.1722 12.6825C26.1368 12.2456 25.9126 12.1865 25.4878 12.3637C25.5232 13.3438 25.3462 14.3357 25.7828 15.304C25.948 15.6701 26.1368 16.1188 25.4996 16.3078C25.4996 16.3078 25.5468 16.5676 25.5822 16.7093C26.2548 16.9572 26.9274 17.217 27.6 17.465C27.6 17.465 27.5882 17.465 27.5764 17.4532L27.6236 17.4296C27.6944 17.2997 27.7534 17.1698 27.8242 17.0399L28.0012 17.217C27.8714 17.2879 27.7534 17.3706 27.6236 17.4414C27.6236 17.4532 27.6118 17.465 27.6 17.4886C27.8242 17.654 28.0366 17.8075 28.3788 18.0555C28.3788 17.713 28.3788 17.5713 28.3788 17.4296C28.367 15.0915 28.3434 12.7415 28.3552 10.4034C28.3552 10.12 28.1546 9.7067 28.662 9.61223C28.5676 9.37606 28.3434 8.99818 28.4142 8.92732C29.0632 8.32508 28.367 7.89997 28.426 7.39219C28.3552 7.39219 28.2844 7.39219 28.2018 7.39219C28.131 7.82911 28.0602 8.26604 27.9776 8.79743C27.0926 8.45498 26.4318 7.91178 25.7592 7.35677C25.6294 7.25049 25.4052 7.27411 25.2164 7.25049C25.5468 7.56932 25.8536 7.92358 26.2076 8.20699L26.243 8.19518ZM26.6088 16.5676C26.3177 16.3786 26.3177 16.1739 26.6088 15.9535V16.5676ZM27.246 11.7496V13.9224C26.8212 13.2375 26.8212 13.0249 27.246 11.7496ZM27.0808 16.9809C27.0336 16.7801 26.9864 16.5676 26.9392 16.3668C27.01 16.3432 27.0808 16.3314 27.1634 16.3078C27.2224 16.5085 27.2814 16.7093 27.3404 16.91C27.2578 16.9336 27.1752 16.9572 27.0808 16.9809ZM27.9776 16.2251C27.9776 16.2251 27.954 16.1543 27.9422 16.1188C27.9658 16.1188 27.9894 16.1188 28.013 16.1188C28.013 16.1424 28.0366 16.1661 28.0366 16.1897C28.0366 16.2015 28.0012 16.2133 27.9894 16.2369L27.9776 16.2251Z" fill="#282828"/>
<path d="M13.1941 31.4006L13.1813 31.3877H13.1685L13.1941 31.4006Z" fill="#282828"/>
<path d="M14.4433 28.6362L14.4197 28.6126L14.2309 28.2466C14.2309 28.2466 14.1129 28.1285 14.0657 28.0812C13.5819 27.9513 13.0745 27.7034 12.6025 27.7388C12.2839 27.7624 11.9889 28.1993 11.6113 28.5063C11.9889 28.7189 12.2249 28.8488 12.4491 28.9669C12.3311 29.5691 12.3901 29.6518 12.7795 29.5573C12.9093 30.1714 13.0509 30.7854 13.1807 31.3877C13.5465 31.4703 13.9123 31.5648 14.3135 31.6593C14.4315 31.1279 14.5377 30.6437 14.6321 30.1596C14.9153 30.2304 15.1041 30.2658 15.2811 30.3131C15.3873 30.254 15.4935 30.1832 15.5879 30.1241C15.5879 30.1123 15.5879 30.1005 15.5879 30.0887C14.5377 30.0533 15.0451 29.3684 14.7855 29.0023C14.7855 29.0495 14.7619 29.0968 14.7619 29.144C14.7619 29.085 14.7619 29.0259 14.7737 28.9669C14.7737 28.9669 14.7737 28.9905 14.7855 28.9905C14.7855 28.9905 14.7855 28.9905 14.7855 28.9787C14.7265 28.8606 14.6675 28.7543 14.5967 28.6362C14.5967 28.6362 14.5967 28.6244 14.5967 28.6126C14.5377 28.6126 14.4905 28.6126 14.4315 28.6126C14.4315 28.6126 14.4315 28.6244 14.4315 28.6362H14.4433Z" fill="#282828"/>
<path d="M14.2676 28.2712L14.2419 28.2583L14.2676 28.2712Z" fill="#282828"/>
<path d="M14.7617 29.1438C14.7617 29.1438 14.7855 29.0494 14.7855 29.0021C14.7855 29.0021 14.7855 28.9785 14.7736 28.9785C14.7736 29.0376 14.7736 29.0966 14.7617 29.1556V29.1438Z" fill="#282828"/>
<path d="M18.9265 35.9692C18.7141 36.0046 18.3837 36.3352 18.3719 36.536C18.3129 37.5869 18.3483 38.6379 18.3483 39.807C18.8911 39.7716 19.3277 39.7361 19.7171 39.7007C19.7761 38.7206 19.8469 37.8467 19.8705 36.9847C19.8705 36.7603 19.8233 36.4533 19.6817 36.3116C19.4929 36.1227 19.1625 35.9337 18.9265 35.9692Z" fill="#282828"/>
<path d="M19.057 25.7903C19.2104 26.1209 19.057 26.6759 19.706 26.7586C20.0246 25.8257 19.942 25.5305 19.2104 24.9991C18.998 24.8456 18.585 24.8338 18.526 24.6685C18.2074 23.8182 17.11 23.9363 16.7442 23.1451C16.6262 22.8853 16.2722 22.72 15.9183 22.4248C15.8829 22.8381 15.8711 23.1333 15.8593 23.2278C16.7678 24.5504 18.0894 24.9164 19.057 25.7785V25.7903Z" fill="#282828"/>
<path d="M14.2678 28.272C14.2678 28.272 14.2549 28.2593 14.2419 28.2466C14.2419 28.2466 14.2549 28.2593 14.2678 28.272Z" fill="#282828"/>
<path d="M11.5752 24.196C12.7906 24.6093 13.3334 25.4005 13.357 26.664C13.357 27.1482 13.829 27.6205 14.0885 28.0929C14.1475 28.1519 14.2065 28.211 14.2537 28.2582C14.3127 28.2582 14.3717 28.2582 14.4307 28.2582C14.4307 28.1401 14.4307 28.0102 14.4307 27.8921C14.3717 27.8331 14.3245 27.7859 14.2655 27.7268L14.2419 27.7032C14.2183 27.656 14.2065 27.6205 14.1947 27.5733C14.1947 27.5615 14.2183 27.5379 14.2419 27.5261C14.1947 26.9592 14.1357 26.3924 14.1239 25.8256C14.0885 24.4794 12.767 23.5701 11.587 24.196H11.5752Z" fill="#282828"/>
<path d="M14.0547 28.0693H14.0676C14.0676 28.0693 14.0676 28.082 14.0676 28.0947L14.0417 28.0693H14.0547Z" fill="#282828"/>
<path d="M14.2419 28.2583L14.2678 28.2837C14.2678 28.2837 14.2549 28.271 14.2419 28.2583Z" fill="#282828"/>
<path d="M4.48348 21.4567C4.63688 21.9999 4.73128 22.3187 4.80208 22.6021C4.94367 22.2951 5.10887 21.9762 5.22687 21.6456C5.38027 21.2205 5.10887 20.9135 4.68408 20.9843C4.35369 21.0434 4.02329 21.0906 3.6929 21.1496C3.5513 21.5629 3.4097 21.9999 3.24451 22.4722C3.3979 22.5785 3.6221 22.7202 3.8227 22.8501C4.02329 22.4368 4.21209 22.0471 4.49528 21.4803L4.48348 21.4567Z" fill="#282828"/>
<path d="M3.56364 28.1872C3.48104 28.6123 3.45744 29.0492 3.43384 29.309C3.43384 29.5688 3.43384 29.6514 3.43384 29.7459C3.45744 30.0293 3.37484 30.419 3.82323 30.4308C4.25982 30.4308 4.20082 30.0648 4.23622 29.7695C4.28342 29.4507 4.41322 29.1319 4.40142 28.813C4.40142 28.5414 4.34242 28.2108 4.16542 28.01C3.96483 27.7739 3.63443 27.7975 3.55184 28.1754L3.56364 28.1872Z" fill="#282828"/>
<path d="M6.28952 21.3502C6.40752 21.917 6.47832 22.2831 6.54912 22.6373L6.80871 22.6137C6.71432 21.9997 7.4341 21.4092 6.56092 20.5708C6.39572 21.4919 5.84113 20.5708 5.40454 21.0786C5.47534 21.4683 5.58154 21.976 5.68774 22.5429C5.90013 22.1296 6.05353 21.8107 6.28952 21.3384V21.3502Z" fill="#282828"/>
<path d="M15.5992 30.1242C15.6464 30.632 15.7054 31.1279 15.7526 31.6239C15.7762 31.6239 15.8116 31.6239 15.8352 31.6239C15.8824 31.2696 15.9414 30.9036 15.9886 30.5493C16.0594 30.5493 16.1184 30.5611 16.1892 30.5729L16.8972 31.9309C16.8972 31.9309 16.968 31.9309 17.0034 31.9309C16.968 31.2932 16.9208 30.6556 16.8854 30.0533C16.378 29.9943 16.0358 29.9589 15.5638 29.9116C15.5638 29.9825 15.5756 30.0415 15.5874 30.1006C15.611 30.1006 15.6228 30.1006 15.6464 30.1006C15.6346 30.1006 15.611 30.1242 15.5992 30.136V30.1242Z" fill="#282828"/>
<path d="M15.6477 30.0889C15.6477 30.0889 15.6118 30.0889 15.5879 30.0889C15.5879 30.101 15.5879 30.1132 15.5879 30.1253C15.5999 30.1253 15.6238 30.101 15.6358 30.0889H15.6477Z" fill="#282828"/>
<path d="M6.04122 28.3057C6.08842 29.7621 6.34801 30.5808 6.82 30.7619C7.056 29.8998 6.9144 29.1441 6.57221 28.4356C6.52501 28.3411 6.24181 28.3529 6.02942 28.3057H6.04122Z" fill="#282828"/>
<path d="M3.69372 23.7946C3.62293 24.2079 3.54033 24.6094 3.48133 25.0109C3.38693 25.5777 3.58753 25.8729 4.13032 25.7785C4.26011 25.3533 4.36631 24.9873 4.47251 24.6212C4.64951 24.0071 4.41351 23.7592 3.69372 23.7828V23.7946Z" fill="#282828"/>
<path d="M12.3543 21.5156C12.6139 21.1141 12.7909 20.8425 12.9679 20.5827C12.8853 20.2993 12.7909 20.0041 12.6965 19.6616C12.2245 19.886 11.8824 20.0631 11.5402 20.2284C11.8116 20.6417 12.0712 21.0669 12.3661 21.5156H12.3543Z" fill="#282828"/>
<path d="M6.0415 24.4087C6.14377 25.5345 6.3483 26.1485 6.65509 26.2509C7.00909 24.881 6.83209 24.3497 6.0415 24.4087Z" fill="#282828"/>
<path d="M17.5226 26.9238C17.617 27.3489 17.6996 27.7268 17.7822 28.0693C17.9356 27.8921 18.0772 27.7268 18.2424 27.5497C18.4076 27.7622 18.5374 27.9276 18.7144 28.1519C18.9897 27.5772 18.5924 27.1679 17.5226 26.9238Z" fill="#282828"/>
<path d="M4.82581 28.1873C4.9674 28.9549 5.0854 29.6162 5.2034 30.2656C5.43939 29.7224 5.60459 29.1792 5.62819 28.636C5.63999 28.1165 5.3096 27.9748 4.82581 28.1873Z" fill="#282828"/>
<path d="M19.3512 30.4902C18.891 31.7065 18.9736 32.1907 19.7288 32.3206C19.9176 31.0689 19.8586 30.7855 19.3512 30.4902Z" fill="#282828"/>
<path d="M19.387 27.2305C19.0684 27.7264 19.0684 28.2342 19.2218 28.7184C19.2572 28.8365 19.564 28.8719 19.9297 29.0136C19.7646 28.2814 20.1067 27.6674 19.387 27.2423V27.2305Z" fill="#282828"/>
<path d="M10.3956 26.9722C10.3956 26.9722 10.3956 26.9722 10.3956 26.9849L10.4214 26.9595C10.4214 26.9595 10.4214 26.9595 10.4085 26.9595L10.3956 26.9722Z" fill="#282828"/>
<path d="M10.4189 25.7194C10.3953 25.2943 10.2065 25.0463 9.78174 25.1762C9.78174 25.6485 9.78174 26.0618 9.78174 26.4751C9.78174 26.9239 10.0059 27.0538 10.3953 26.9711C10.3953 26.5578 10.4307 26.1327 10.4189 25.7194Z" fill="#282828"/>
<path d="M16.5079 26.522C16.2247 27.5729 16.3427 28.0689 16.9091 28.3169C16.8619 27.7265 17.2041 27.1006 16.5079 26.522Z" fill="#282828"/>
<path d="M7.6698 28.6951C7.7642 29.4036 7.8586 30.0413 7.94119 30.6671C8.20079 30.1475 8.31879 29.6634 8.36599 29.1556C8.38959 28.7659 8.21259 28.5297 7.6698 28.6951Z" fill="#282828"/>
<path d="M4.75562 24.0664C4.99161 24.7158 5.19221 25.2354 5.3692 25.7078C5.4518 25.4007 5.5934 25.0583 5.6288 24.704C5.6524 24.5033 5.5344 24.2199 5.3928 24.0782C5.27481 23.9719 5.00341 24.0546 4.76741 24.0546L4.75562 24.0664Z" fill="#282828"/>
<path d="M53.9957 22.0352V23.2396C53.9957 23.2396 54.0665 23.2396 54.1019 23.2515C54.1491 23.0743 54.2081 22.8854 54.3143 22.5311C54.3615 23.0979 54.3969 23.4522 54.4205 23.8183C54.7981 22.602 54.7745 22.5193 53.9957 22.0352Z" fill="#282828"/>
<path d="M17.6167 30.0059C17.6521 30.738 17.6875 31.2812 17.7111 31.8362C17.7701 31.8362 17.8291 31.848 17.8881 31.8598C17.9235 31.6591 17.9589 31.4465 18.0179 31.1631C18.0887 31.3639 18.1241 31.4819 18.1595 31.6C18.2303 31.0686 18.4073 30.5018 17.6167 30.0059Z" fill="#282828"/>
<path d="M8.11835 26.2391C8.21275 25.9557 8.36615 25.6604 8.40155 25.3416C8.42515 25.1409 8.30715 24.8811 8.16555 24.7276C8.10655 24.6567 7.84696 24.7512 7.68176 24.7748C7.85876 25.3534 7.98856 25.814 8.11835 26.2391Z" fill="#282828"/>
<path d="M10.4664 20.866C10.6434 20.4527 10.5608 20.1929 9.95898 20.1221C9.99438 20.7125 10.0416 21.2321 10.077 21.7871C10.2186 21.4565 10.3484 21.1612 10.4782 20.866H10.4664Z" fill="#282828"/>
<path d="M9.02721 26.0851C9.08621 26.0851 9.14521 26.0851 9.20421 26.0851C9.25141 25.7545 9.33401 25.4238 9.33401 25.0932C9.33401 25.0223 8.99181 24.9633 8.67322 24.8452C8.82661 25.4002 8.93281 25.7427 9.02721 26.0851Z" fill="#282828"/>
<path d="M7.97695 21.1849C8.15395 20.748 8.01235 20.5 7.42236 20.5827C7.46956 21.0905 7.50496 21.5628 7.54036 21.9525C7.67016 21.7281 7.87076 21.4683 7.97695 21.1849Z" fill="#282828"/>
<path d="M18.4309 30.3247C18.4545 30.9033 18.4781 31.4229 18.5017 31.9425C18.7377 30.9978 18.7141 30.4585 18.4309 30.3247Z" fill="#282828"/>
<path d="M15.2213 22.0352V23.0507C15.8231 22.7083 15.8349 22.602 15.2213 22.0352Z" fill="#282828"/>
<path d="M12.9812 20.5708C12.9812 20.5708 12.9812 20.5839 12.9681 20.5969C12.9681 20.5969 12.9681 20.5969 12.9812 20.5839V20.5708Z" fill="#282828"/>
<path d="M13.2742 20.2397C13.168 20.3578 13.0736 20.4641 12.9792 20.5704C13.0146 20.8302 13.0618 21.09 13.1208 21.5033C13.6754 20.9955 13.758 20.6412 13.286 20.2397H13.2742Z" fill="#282828"/>
<path d="M12.9693 20.5708V20.5969H12.9562C12.9562 20.5969 12.9562 20.5839 12.9693 20.5708Z" fill="#282828"/>
<path d="M14.5604 21.2793V22.5901C15.1032 22.1413 15.1268 21.8107 14.5604 21.2793Z" fill="#282828"/>
<path d="M8.38916 20.2876C8.34196 20.7127 8.30656 20.9961 8.24756 21.4685C9.08534 21.067 9.02634 20.7599 8.38916 20.2876Z" fill="#282828"/>
<path d="M14.0417 20.7954C13.499 21.2087 13.6877 21.563 13.8175 21.9763C14.4665 21.6811 14.1951 21.3032 14.0417 20.7954Z" fill="#282828"/>
<path d="M9.17993 20.252V21.2911C9.86432 20.7243 9.86432 20.6416 9.17993 20.252Z" fill="#282828"/>
<path d="M15.7886 27.7626C15.8594 27.2076 16.4612 26.8298 15.8476 26.4873C15.7414 26.4991 15.647 26.5109 15.5408 26.5345C15.6116 26.877 15.6824 27.2313 15.7886 27.7745V27.7626Z" fill="#282828"/>
<path d="M53.3466 21.4802C53.4056 21.7872 53.4646 22.0825 53.5472 22.5194C53.7596 22.2714 53.8658 22.1415 53.972 22.0234C53.8186 21.8109 53.6534 21.5983 53.5 21.3857C53.441 21.4212 53.3938 21.4566 53.3348 21.492L53.3466 21.4802Z" fill="#282828"/>
<path d="M14.7496 26.3685C14.7968 26.6047 14.8322 26.829 14.8794 27.0652C14.9384 27.077 14.9974 27.1006 15.0564 27.1124C15.1508 26.9707 15.3278 26.8054 15.3042 26.6873C15.2806 26.5338 15.08 26.4039 14.962 26.2622C14.8912 26.2976 14.8204 26.3449 14.7496 26.3803V26.3685Z" fill="#282828"/>
<path d="M26.7505 19.697C26.7505 19.697 26.81 19.697 26.8338 19.697V17.9375C26.8338 17.9375 26.7743 17.9375 26.7505 17.9375V19.697Z" fill="#282828"/>
<path d="M6.54903 39.2638C6.57263 39.6298 6.58443 39.9959 6.60803 40.3738L6.84403 40.3502C6.78503 39.9841 6.73783 39.618 6.67883 39.252C6.63163 39.252 6.58443 39.2638 6.53723 39.2756L6.54903 39.2638Z" fill="#282828"/>
<path d="M14.5023 37.8113H14.538V36.5005H14.5023V37.8113Z" fill="#282828"/>
<path d="M11.5044 20.2165C11.3392 20.1457 11.1622 20.063 10.8672 19.9331C10.9144 20.2756 10.938 20.4763 10.997 20.9132C11.2448 20.559 11.3746 20.3818 11.4926 20.2047L11.5044 20.2165Z" fill="#282828"/>
<path d="M11.5161 20.2065C11.5161 20.2065 11.529 20.2065 11.5419 20.2065C11.5419 20.2065 11.5419 20.1938 11.529 20.1812L11.5161 20.2065Z" fill="#282828"/>
<path d="M2.4309 28.6834C2.4309 28.5417 2.4191 28.4 2.4073 28.2583C2.3365 28.2583 2.2539 28.2701 2.18311 28.2819C2.2185 28.4236 2.2539 28.5653 2.2775 28.707C2.3247 28.707 2.3719 28.6952 2.4309 28.6834Z" fill="#282828"/>
<path d="M3.23432 36.4656C3.23432 36.4656 3.15105 36.442 3.11536 36.4302V37.1033C3.11536 37.1033 3.16294 37.1033 3.18674 37.1033C3.19863 36.8907 3.22243 36.6782 3.23432 36.4656Z" fill="#282828"/>
<path d="M54.6681 20.2401C54.7153 20.1692 54.7625 20.0984 54.8097 20.0275C54.6563 19.9803 54.5147 19.9213 54.3613 19.874C54.4557 19.9921 54.5619 20.1102 54.6563 20.2283L54.6681 20.2401Z" fill="#282828"/>
<path d="M54.3262 19.8759C54.3262 19.8759 54.3515 19.8759 54.3641 19.8885C54.3641 19.8885 54.3515 19.8632 54.3388 19.8506H54.3262V19.8759Z" fill="#282828"/>
<path d="M3.21053 35.4379V35.001C3.21053 35.001 3.15105 35.001 3.11536 35.001C3.11536 35.1427 3.13915 35.2962 3.13915 35.4379C3.16294 35.4379 3.18674 35.4379 3.21053 35.4379Z" fill="#282828"/>
<path d="M53.4534 24.9162C53.6304 24.6564 53.713 24.5265 53.8074 24.3848C53.713 24.3022 53.6068 24.2195 53.418 24.0542C53.4298 24.373 53.4416 24.562 53.4652 24.9044L53.4534 24.9162Z" fill="#282828"/>
<path d="M53.418 18.9416L53.772 19.0715C53.713 18.9534 53.654 18.8353 53.5832 18.729C53.5242 18.7999 53.477 18.8707 53.418 18.9534V18.9416Z" fill="#282828"/>
<path d="M53.7715 19.0713C53.7715 19.0713 53.7715 19.084 53.7844 19.0967H53.7973L53.7715 19.0713Z" fill="#282828"/>
<path d="M12.6025 31.5529C12.7677 31.5057 12.9329 31.4585 13.1099 31.3994C12.9329 31.3994 12.7677 31.423 12.5907 31.4348C12.5907 31.4703 12.6025 31.5175 12.6143 31.5529H12.6025Z" fill="#282828"/>
<path d="M11.5522 29.5572C11.6348 29.4981 11.682 29.4627 11.7292 29.4273L11.5994 29.2974C11.5876 29.3682 11.5758 29.4509 11.5522 29.5572Z" fill="#282828"/>
<path d="M14.8086 31.4468H14.8681C14.8681 31.4468 14.8919 31.3287 14.9038 31.2578C14.8919 31.2578 14.88 31.2578 14.8562 31.2578C14.8324 31.3287 14.8205 31.3877 14.7968 31.4586L14.8086 31.4468Z" fill="#282828"/>
<path d="M2.26554 40.4334C2.26554 40.4334 2.14754 40.4214 2.08854 40.4214C2.08854 40.4214 2.07674 40.4573 2.06494 40.4813C2.12394 40.4813 2.18294 40.4933 2.23014 40.4933C2.23014 40.4933 2.24194 40.4573 2.25374 40.4334H2.26554Z" fill="#282828"/>
<path d="M15.0211 31.8125C15.0211 31.8125 15.0211 31.8597 15.0211 31.8834C15.0687 31.8952 15.1282 31.9188 15.1758 31.9306C15.1758 31.8952 15.1758 31.8243 15.1758 31.8243C15.1282 31.8243 15.0687 31.8243 15.0211 31.8243V31.8125Z" fill="#282828"/>
<path d="M14.9859 28.0694H14.9977C14.8797 27.9985 14.7617 27.9277 14.6555 27.8687V27.8923C14.7499 27.9513 14.8679 28.0104 14.9859 28.0694Z" fill="#282828"/>
<path d="M28.8626 9.61288C28.8626 9.61288 28.7564 9.58891 28.7092 9.56494V9.58891C28.7092 9.58891 28.8154 9.6009 28.8626 9.61288Z" fill="#282828"/>
<path d="M14.4431 28.2937C14.4431 28.2937 14.4431 28.2584 14.4431 28.2466H14.4192C14.4192 28.2466 14.4312 28.2819 14.4431 28.2937Z" fill="#282828"/>
<path d="M14.5966 28.6245C14.5494 28.5182 14.4904 28.4119 14.4432 28.3057C14.4432 28.4119 14.4432 28.5182 14.4432 28.6245C14.5022 28.6245 14.5494 28.6245 14.6084 28.6245H14.5966Z" fill="#282828"/>
<path d="M14.445 28.6382V28.6128H14.4192L14.445 28.6382Z" fill="#282828"/>
<path d="M14.6343 28.624H14.6085C14.6085 28.624 14.6085 28.6367 14.6085 28.6494L14.6343 28.624Z" fill="#282828"/>
<path d="M25.5224 25.7205L25.5577 25.6726L25.4988 25.6606L25.5224 25.7205Z" fill="#282828"/>
<path d="M0.60164 39.4886C0.60164 39.4886 0.554441 39.4646 0.507242 39.4526C0.507242 39.4526 0.495442 39.4526 0.483643 39.4646C0.530842 39.4646 0.589841 39.4886 0.60164 39.4886Z" fill="#282828"/>
<path d="M0.483643 39.4655C0.483643 39.4655 0.496454 39.4655 0.509266 39.4526H0.496454L0.483643 39.4655Z" fill="#282828"/>
<path d="M54.1969 19.4609H54.1851C54.2323 19.6026 54.2795 19.7325 54.3385 19.8742H54.3503C54.3031 19.7325 54.2559 19.5908 54.2087 19.4609H54.1969Z" fill="#282828"/>
<path d="M3.4577 40.7167C3.4577 40.7167 3.4577 40.634 3.4577 40.5868C3.4577 40.575 3.4577 40.5514 3.4458 40.5396C3.4458 40.6104 3.4458 40.6694 3.4458 40.7403C3.4458 40.7403 3.4458 40.7285 3.4577 40.7167Z" fill="#282828"/>
<path d="M3.45776 40.5867C3.45776 40.5867 3.45776 40.5513 3.45776 40.5396C3.45776 40.5396 3.45776 40.5396 3.4458 40.5396C3.4458 40.5513 3.4458 40.5749 3.45776 40.5867Z" fill="#282828"/>
<path d="M3.4589 40.7307V40.7046C3.4589 40.7046 3.4589 40.7177 3.4458 40.7307C3.4458 40.7307 3.4458 40.7307 3.4589 40.7307Z" fill="#282828"/>
<path d="M3.4458 40.7417L3.4594 40.728H3.4458V40.7417Z" fill="#282828"/>
<path d="M54.0196 19.272H54.0078C54.0668 19.3428 54.1258 19.4137 54.1848 19.4727H54.1966C54.1376 19.4019 54.0786 19.331 54.0196 19.272Z" fill="#282828"/>
<path d="M18.8353 24.02L18.7974 24.0073L18.8227 24.0326L18.8353 24.02Z" fill="#282828"/>
<path d="M19.0089 24.2197C18.9499 24.1488 18.8791 24.0898 18.8201 24.0308H18.8083C18.8791 24.1016 18.9381 24.1607 19.0089 24.2197Z" fill="#282828"/>
<path d="M53.8073 19.0713H53.7955C53.8663 19.154 53.9371 19.213 54.0079 19.2838H54.0197C53.9489 19.2012 53.8781 19.1421 53.8073 19.0713Z" fill="#282828"/>
<path d="M54.3733 18.9175C54.3733 18.9175 54.4795 19.0238 54.5385 19.0828C54.5385 19.0238 54.5385 18.9765 54.5385 18.9175C54.4795 18.9175 54.4323 18.9175 54.3733 18.9175Z" fill="#282828"/>
<path d="M54.5265 18.9058C54.5265 18.9058 54.5265 18.9058 54.5265 18.9194C54.5265 18.9194 54.5265 18.9194 54.5401 18.9194H54.5265V18.9058Z" fill="#282828"/>
<path d="M54.3383 18.9193C54.3383 18.9193 54.3636 18.9193 54.3762 18.9193C54.3762 18.9193 54.3636 18.9067 54.3509 18.894V18.9193H54.3383Z" fill="#282828"/>
<path d="M54.5265 19.1209H54.5518C54.5518 19.1209 54.5391 19.0956 54.5265 19.083C54.5265 19.083 54.5265 19.1083 54.5265 19.1209Z" fill="#282828"/>
<path d="M53.9366 20.8896L53.962 20.9276L53.9746 20.9149L53.9366 20.8896Z" fill="#282828"/>
<path d="M15.3755 20.5945L15.3635 20.5591V20.5474L15.3755 20.5945Z" fill="#282828"/>
<path d="M54.1495 21.1256C54.0905 21.0547 54.0315 20.9838 53.9725 20.9248H53.9607C54.0197 21.0075 54.0787 21.0665 54.1495 21.1256Z" fill="#282828"/>
<path d="M54.1953 21.1491L54.1489 21.1255H54.1605L54.1953 21.1491Z" fill="#282828"/>
<path d="M54.1625 21.1279H54.1489V21.1143L54.1625 21.1279Z" fill="#282828"/>
<path d="M15.3634 20.5589C15.3634 20.5589 15.3395 20.5235 15.3395 20.5117C15.3395 20.5117 15.3395 20.5353 15.3514 20.5471L15.3634 20.5589Z" fill="#282828"/>
<path d="M53.7955 28.6128L53.8208 28.6254L53.8335 28.6128H53.7955Z" fill="#282828"/>
<path d="M53.8185 28.6257L53.8441 28.6128H53.8313L53.8185 28.6257Z" fill="#282828"/>
<path d="M25.5579 16.7221C25.5579 16.7221 25.5832 16.7221 25.5958 16.7095C25.5832 16.7095 25.5705 16.7095 25.5579 16.7221Z" fill="#282828"/>
<path d="M53.6422 18.0083C53.6422 18.0083 53.7493 18.1146 53.7969 18.1618C53.7969 18.1146 53.7969 18.0555 53.7969 18.0083C53.7493 18.0083 53.6898 18.0083 53.6422 18.0083Z" fill="#282828"/>
<path d="M53.7955 18.1621C53.7955 18.1621 53.7955 18.1874 53.7955 18.2H53.8208C53.8208 18.2 53.8082 18.1747 53.7955 18.1621Z" fill="#282828"/>
<path d="M53.7955 17.9849C53.7955 17.9849 53.7955 17.9849 53.7955 17.9985C53.7955 17.9985 53.7955 17.9985 53.8091 17.9985C53.8091 17.9985 53.8091 17.9985 53.7955 17.9849Z" fill="#282828"/>
<path d="M53.6062 18.0101C53.6062 18.0101 53.6315 18.0101 53.6442 18.0101C53.6442 18.0101 53.6315 17.9975 53.6189 17.9849V18.0101H53.6062Z" fill="#282828"/>
<path d="M14.4087 27.7033C14.4087 27.7033 14.3016 27.597 14.254 27.5498C14.254 27.597 14.254 27.6561 14.254 27.7033C14.3016 27.7033 14.3611 27.7033 14.4087 27.7033Z" fill="#282828"/>
<path d="M14.2546 27.5521C14.2546 27.5521 14.2546 27.5268 14.2546 27.5142C14.2546 27.5142 14.2546 27.5142 14.2419 27.5268C14.2419 27.5268 14.2419 27.5268 14.2546 27.5394V27.5521Z" fill="#282828"/>
<path d="M14.2419 27.7031L14.2678 27.7285C14.2678 27.7285 14.2678 27.7285 14.2549 27.7158L14.2419 27.7031Z" fill="#282828"/>
<path d="M14.2419 27.7031C14.2419 27.7031 14.2419 27.7031 14.2555 27.7168C14.2555 27.7168 14.2555 27.7168 14.2555 27.7031H14.2419Z" fill="#282828"/>
<path d="M14.2566 27.5142H14.231V27.527C14.231 27.527 14.2438 27.527 14.2438 27.5142H14.2566Z" fill="#282828"/>
<path d="M14.445 27.7285V27.7031H14.4192C14.4192 27.7031 14.4321 27.7285 14.445 27.7285Z" fill="#282828"/>
<path d="M14.6575 27.8691C14.6575 27.8691 14.6322 27.8691 14.6195 27.8691C14.6195 27.8691 14.6322 27.8691 14.6448 27.8817V27.8564L14.6575 27.8691Z" fill="#282828"/>
<path d="M14.6202 27.8688C14.6202 27.8688 14.5022 27.7743 14.4432 27.7271V27.8806C14.4432 27.8806 14.5612 27.8688 14.6202 27.8569V27.8688Z" fill="#282828"/>
<path d="M14.445 27.9053C14.445 27.9053 14.445 27.8926 14.445 27.8799C14.445 27.8799 14.4321 27.8799 14.4192 27.8799C14.4192 27.8799 14.4321 27.8926 14.445 27.9053Z" fill="#282828"/>
<path d="M14.4192 27.8921L14.445 27.9175C14.445 27.9175 14.4321 27.9048 14.4192 27.8921Z" fill="#282828"/>
<path d="M36.6854 37.8707C36.6854 37.8707 36.8034 37.8707 36.8506 37.8707V36.9023H36.6854V37.8707Z" fill="#282828"/>
<path d="M36.7204 34.9064C36.803 34.9064 36.8856 34.8828 36.98 34.871C36.9564 34.5994 36.9328 34.3278 36.9092 34.0562C36.8266 34.0562 36.744 34.068 36.6614 34.0798C36.685 34.3514 36.6968 34.6348 36.7204 34.9064Z" fill="#282828"/>
<path d="M36.8982 33.076L36.8274 32.5801C36.7684 32.5801 36.7094 32.6037 36.6504 32.6037C36.674 32.769 36.6976 32.9343 36.7212 33.0997C36.7802 33.0997 36.8392 33.076 36.8982 33.076Z" fill="#282828"/>
<path d="M37.5587 34.375V34.8946H37.6777C37.6777 34.6938 37.6539 34.5285 37.6539 34.375C37.6182 34.375 37.5944 34.375 37.5587 34.375Z" fill="#282828"/>
<path d="M37.6663 33.1354C37.6663 33.0055 37.6544 32.8638 37.6425 32.7339C37.5949 32.7339 37.5592 32.7339 37.5116 32.7339C37.5116 32.8638 37.5354 33.0055 37.5473 33.1354C37.583 33.1354 37.6306 33.1354 37.6663 33.1354Z" fill="#282828"/>
<path d="M48.8395 32.3226L48.8775 32.2973L48.8648 32.2847L48.8395 32.3226Z" fill="#282828"/>
<path d="M47.6359 25.5198H47.6948L47.6712 25.46L47.6359 25.5198Z" fill="#282828"/>
<path d="M26.8806 24.2196H26.8925C26.8925 24.2196 26.8211 24.1369 26.7736 24.1133C26.8092 24.1487 26.833 24.1841 26.8687 24.2196H26.8806Z" fill="#282828"/>
</svg>
