<svg preserveAspectRatio="none" width="100%" height="100%" overflow="visible" style="display: block;" viewBox="0 0 100 25" fill="none" xmlns="http://www.w3.org/2000/svg">
<g id="Group">
<path id="Vector" d="M5.5106 2.362C5.3218 2.0904 5.07401 1.88965 4.76721 1.77157C4.46042 1.64167 4.13002 1.58263 3.77603 1.58263C3.57543 1.58263 3.37484 1.60624 3.18604 1.65348C2.99724 1.70071 2.82025 1.77157 2.66685 1.87785C2.51346 1.98412 2.38366 2.11402 2.30106 2.27934C2.21846 2.44466 2.15946 2.6336 2.15946 2.85797C2.15946 3.18861 2.27746 3.4484 2.51345 3.62553C2.74945 3.80266 3.03264 3.95618 3.37484 4.08607C3.71703 4.21597 4.09462 4.34587 4.50761 4.46395C4.92061 4.58204 5.2982 4.74736 5.64039 4.97173C5.98259 5.18428 6.27758 5.46769 6.50178 5.82195C6.72598 6.17622 6.85577 6.64856 6.85577 7.239C6.85577 7.77039 6.76137 8.23093 6.56078 8.63243C6.36018 9.03392 6.10058 9.35276 5.77019 9.62436C5.4398 9.89596 5.0504 10.0849 4.61381 10.2148C4.17722 10.3447 3.71703 10.4155 3.23324 10.4155C2.61965 10.4155 2.02966 10.3093 1.46327 10.1085C0.896885 9.90777 0.401292 9.55351 9.98665e-05 9.06935L1.33348 7.7822C1.54587 8.11284 1.82907 8.36083 2.18306 8.54976C2.53705 8.7269 2.90285 8.82137 3.29224 8.82137C3.49284 8.82137 3.70523 8.79775 3.90583 8.7387C4.10642 8.67966 4.29522 8.597 4.46041 8.49072C4.62561 8.38444 4.76721 8.23093 4.86161 8.06561C4.96781 7.88848 5.01501 7.69954 5.01501 7.47517C5.01501 7.1091 4.89701 6.8375 4.66101 6.63676C4.42502 6.43601 4.14182 6.27069 3.78783 6.14079C3.44563 6.01089 3.06804 5.881 2.65505 5.7511C2.24206 5.63302 1.86447 5.46769 1.52227 5.25514C1.18008 5.04258 0.885085 4.77098 0.660889 4.41672C0.424893 4.06246 0.306897 3.60192 0.306897 3.01148C0.306897 2.50371 0.413091 2.05498 0.625487 1.6771C0.837883 1.29922 1.10928 0.992194 1.45147 0.744211C1.79367 0.496228 2.18306 0.307288 2.61965 0.189201C3.05624 0.071114 3.50463 0.0120698 3.96483 0.0120698C4.48402 0.0120698 4.99141 0.0947317 5.487 0.248245C5.97079 0.401758 6.41918 0.673358 6.80857 1.02762L5.5224 2.38562L5.5106 2.362Z" fill="var(--fill-0, #282828)"/>
<path id="Vector_2" d="M8.68443 0.236493H15.2451V1.83067H10.4544V4.26326H14.9973V5.85744H10.4544V8.54982H15.5047V10.144H8.69623V0.236493H8.68443Z" fill="var(--fill-0, #282828)"/>
<path id="Vector_3" d="M17.2284 0.236285H20.6622C21.1341 0.236285 21.5943 0.283519 22.0427 0.36618C22.4911 0.46065 22.8805 0.602355 23.2227 0.814911C23.5649 1.02747 23.8481 1.32269 24.0487 1.67695C24.2493 2.04302 24.3555 2.50356 24.3555 3.05857C24.3555 3.7789 24.1549 4.38114 23.7655 4.8653C23.3761 5.34946 22.7979 5.64467 22.0663 5.75095L24.6977 10.132H22.5737L20.2846 5.93989H18.9984V10.132H17.2402V0.224476L17.2284 0.236285ZM20.3672 4.44018C20.615 4.44018 20.8746 4.44019 21.1223 4.40476C21.3701 4.38114 21.6061 4.3221 21.8185 4.23944C22.0309 4.15678 22.1961 4.01507 22.3259 3.83794C22.4557 3.66081 22.5265 3.40102 22.5265 3.07037C22.5265 2.78697 22.4675 2.55079 22.3495 2.37366C22.2315 2.19653 22.0663 2.06663 21.8775 1.97216C21.6887 1.87769 21.4645 1.83046 21.2285 1.79503C20.9925 1.77142 20.7566 1.7478 20.5324 1.7478H19.0102V4.42838H20.379L20.3672 4.44018Z" fill="var(--fill-0, #282828)"/>
<path id="Vector_4" d="M29.2399 0.236493H30.7621L35.0218 10.144H33.0041L32.0837 7.87673H27.7886L26.8918 10.144H24.9212L29.2281 0.236493H29.2399ZM31.4819 6.36521L29.9597 2.33844L28.4021 6.36521H31.4819Z" fill="var(--fill-0, #282828)"/>
<path id="Vector_5" d="M42.9279 2.56265C42.5621 2.17296 42.2081 1.91317 41.8777 1.78328C41.5355 1.65338 41.1933 1.58253 40.8511 1.58253C40.3437 1.58253 39.8717 1.677 39.4587 1.85413C39.0457 2.03126 38.6917 2.29105 38.3849 2.60989C38.0781 2.92872 37.854 3.3066 37.6888 3.73171C37.5236 4.15683 37.441 4.61737 37.441 5.11333C37.441 5.64472 37.5236 6.14069 37.6888 6.57761C37.854 7.02634 38.0781 7.41603 38.3849 7.73487C38.6799 8.06551 39.0339 8.31349 39.4587 8.50243C39.8717 8.69137 40.3437 8.78584 40.8511 8.78584C41.2523 8.78584 41.6417 8.69137 42.0193 8.50243C42.3969 8.31349 42.7509 8.00646 43.0695 7.58135L44.5208 8.62052C44.0724 9.23457 43.5297 9.6833 42.8807 9.96671C42.2435 10.2501 41.5473 10.3918 40.8275 10.3918C40.0605 10.3918 39.3643 10.2737 38.7271 10.0258C38.0899 9.77777 37.5354 9.42351 37.0752 8.97478C36.615 8.52605 36.2492 7.98285 35.9896 7.34518C35.73 6.70751 35.6002 6.01079 35.6002 5.23142C35.6002 4.45204 35.73 3.7199 35.9896 3.07042C36.2492 2.42095 36.615 1.86594 37.0752 1.41721C37.5354 0.956666 38.0899 0.602405 38.7271 0.366231C39.3643 0.118248 40.0723 0.000161277 40.8275 0.000161277C41.5001 0.000161277 42.1255 0.118247 42.6919 0.354422C43.2701 0.590596 43.801 0.992091 44.2966 1.55891L42.9279 2.56265Z" fill="var(--fill-0, #282828)"/>
<path id="Vector_6" d="M45.1816 5.23142C45.1816 4.44023 45.3114 3.7199 45.571 3.07042C45.8306 2.42095 46.1964 1.86594 46.6566 1.41721C47.1168 0.956666 47.6714 0.602405 48.3086 0.366231C48.9458 0.118248 49.6538 0.000161277 50.4089 0.000161277C51.1877 0.000161277 51.8957 0.10644 52.5329 0.342614C53.1701 0.578788 53.7247 0.933048 54.1967 1.38178C54.6569 1.84232 55.0226 2.38552 55.2822 3.035C55.5418 3.67267 55.6716 4.393 55.6716 5.18418C55.6716 5.97537 55.5418 6.66027 55.2822 7.29794C55.0226 7.93561 54.6569 8.47881 54.1967 8.93935C53.7247 9.39989 53.1701 9.75415 52.5329 10.0139C51.8957 10.2737 51.1759 10.4036 50.4089 10.4154C49.642 10.4154 48.9458 10.2974 48.3086 10.0494C47.6714 9.80139 47.1168 9.44713 46.6566 8.9984C46.1964 8.54967 45.8306 8.00646 45.571 7.36879C45.3114 6.73112 45.1816 6.03441 45.1816 5.25504V5.23142ZM47.0224 5.12514C47.0224 5.65653 47.105 6.1525 47.2702 6.58942C47.4354 7.03815 47.6596 7.42784 47.9664 7.74667C48.2614 8.07732 48.6154 8.3253 49.0402 8.51424C49.4532 8.70318 49.9251 8.79765 50.4325 8.79765C50.9399 8.79765 51.4119 8.70318 51.8249 8.51424C52.2497 8.3253 52.6037 8.06551 52.8987 7.74667C53.1937 7.41603 53.4297 7.03815 53.5949 6.58942C53.7601 6.14069 53.8427 5.65653 53.8427 5.12514C53.8427 4.62917 53.7601 4.16863 53.5949 3.74352C53.4297 3.31841 53.2055 2.94053 52.8987 2.62169C52.5919 2.30286 52.2379 2.04307 51.8249 1.86594C51.4001 1.68881 50.9399 1.59434 50.4325 1.59434C49.9251 1.59434 49.4532 1.68881 49.0402 1.86594C48.6272 2.04307 48.2732 2.30286 47.9664 2.62169C47.6596 2.94053 47.4354 3.31841 47.2702 3.74352C47.105 4.16863 47.0224 4.62917 47.0224 5.12514Z" fill="var(--fill-0, #282828)"/>
<path id="Vector_7" d="M63.1174 7.22722C62.9168 6.95562 62.6572 6.81392 62.3268 6.81392C62.197 6.81392 62.0672 6.84934 61.9374 6.9202C61.8076 6.99105 61.7486 7.09733 61.7486 7.25084C61.7486 7.36893 61.7958 7.4634 61.902 7.52244C62.0082 7.58148 62.138 7.62872 62.3032 7.66414C62.4684 7.69957 62.6454 7.7468 62.8224 7.78223C63.0112 7.82947 63.1882 7.88851 63.3416 7.97117C63.5068 8.05383 63.6366 8.17192 63.7428 8.32543C63.849 8.47895 63.8962 8.67969 63.8962 8.95129C63.8962 9.18747 63.849 9.40002 63.7428 9.56535C63.6366 9.73067 63.5068 9.86056 63.3416 9.96684C63.1764 10.0613 62.9876 10.144 62.787 10.1794C62.5746 10.2266 62.374 10.2503 62.1616 10.2503C61.8548 10.2503 61.5598 10.203 61.3002 10.1204C61.0406 10.0259 60.8047 9.87237 60.5923 9.6362L61.2648 9.01034C61.3946 9.15204 61.5362 9.27013 61.6778 9.3646C61.8194 9.45907 62.0082 9.5063 62.2206 9.5063C62.2914 9.5063 62.374 9.5063 62.4448 9.48269C62.5156 9.45907 62.5982 9.43545 62.6572 9.40002C62.7162 9.3646 62.7752 9.31736 62.8224 9.25832C62.8696 9.19928 62.8814 9.12842 62.8814 9.05757C62.8814 8.91587 62.8342 8.80959 62.7162 8.75054C62.61 8.67969 62.4802 8.63246 62.315 8.58522C62.1498 8.53799 61.9728 8.50256 61.7958 8.46714C61.6188 8.43171 61.43 8.37267 61.2766 8.29001C61.1115 8.20734 60.9817 8.10107 60.8755 7.94755C60.7693 7.80585 60.7103 7.6051 60.7103 7.34531C60.7103 7.12094 60.7575 6.93201 60.8519 6.76668C60.9463 6.60136 61.0642 6.47147 61.2176 6.36519C61.371 6.25891 61.5362 6.17625 61.7368 6.12901C61.9374 6.08178 62.1262 6.05816 62.3268 6.05816C62.5982 6.05816 62.8578 6.10539 63.1292 6.19986C63.4006 6.29433 63.6012 6.44785 63.7664 6.67221L63.0938 7.27446L63.1174 7.22722Z" fill="var(--fill-0, #282828)"/>
<path id="Vector_8" d="M64.687 9.55363C64.687 9.3765 64.7578 9.22299 64.8876 9.09309C65.0174 8.9632 65.1826 8.90415 65.3596 8.90415C65.5366 8.90415 65.7018 8.9632 65.8316 9.09309C65.9614 9.21118 66.0322 9.36469 66.0322 9.54182C66.0322 9.71895 65.9614 9.87247 65.8316 10.0024C65.7018 10.1323 65.5366 10.1913 65.3596 10.1913C65.2652 10.1913 65.1826 10.1795 65.1 10.1441C65.0174 10.1086 64.9466 10.0614 64.8876 10.0142C64.8286 9.95513 64.7814 9.89609 64.746 9.81343C64.7106 9.73076 64.687 9.6481 64.687 9.56544V9.55363Z" fill="var(--fill-0, #282828)"/>
<path id="Vector_9" d="M67.1763 6.11708H68.1793V6.75475H68.1911C68.2973 6.51858 68.4624 6.34145 68.6748 6.21155C68.8872 6.08165 69.1232 6.02261 69.3828 6.02261C69.4418 6.02261 69.5008 6.02261 69.5598 6.03442C69.6188 6.03442 69.6778 6.05804 69.7368 6.08165V7.04997C69.6542 7.02635 69.5716 7.01454 69.489 6.99092C69.4064 6.97912 69.3238 6.96731 69.253 6.96731C69.017 6.96731 68.8282 7.01454 68.6866 7.0972C68.545 7.17986 68.4389 7.28614 68.3563 7.39242C68.2855 7.4987 68.2265 7.61679 68.2029 7.72307C68.1793 7.84115 68.1675 7.92381 68.1675 7.97105V10.132H67.1645V6.10527L67.1763 6.11708Z" fill="var(--fill-0, #282828)"/>
<path id="Vector_10" d="M69.666 9.55363C69.666 9.3765 69.7368 9.22299 69.8666 9.09309C69.9964 8.9632 70.1616 8.90415 70.3386 8.90415C70.5156 8.90415 70.6808 8.9632 70.8106 9.09309C70.9404 9.21118 71.0112 9.36469 71.0112 9.54182C71.0112 9.71895 70.9404 9.87247 70.8106 10.0024C70.6808 10.1323 70.5156 10.1913 70.3386 10.1913C70.2442 10.1913 70.1616 10.1795 70.079 10.1441C69.9964 10.1086 69.9256 10.0614 69.8666 10.0142C69.8076 9.95513 69.7604 9.89609 69.725 9.81343C69.6896 9.73076 69.666 9.6481 69.666 9.56544V9.55363Z" fill="var(--fill-0, #282828)"/>
<path id="Vector_11" d="M72.1675 3.8025H73.1705V10.1438H72.1675V3.8025Z" fill="var(--fill-0, #282828)"/>
<path id="Vector_12" d="M74.3275 9.55363C74.3275 9.3765 74.3983 9.22299 74.5281 9.09309C74.6579 8.9632 74.8231 8.90415 75.0001 8.90415C75.1771 8.90415 75.3423 8.9632 75.4721 9.09309C75.6019 9.21118 75.6727 9.36469 75.6727 9.54182C75.6727 9.71895 75.6019 9.87247 75.4721 10.0024C75.3423 10.1323 75.1771 10.1913 75.0001 10.1913C74.9057 10.1913 74.8231 10.1795 74.7405 10.1441C74.6579 10.1086 74.5871 10.0614 74.5281 10.0142C74.4691 9.95513 74.4219 9.89609 74.3865 9.81343C74.3511 9.73076 74.3275 9.6481 74.3275 9.56544V9.55363Z" fill="var(--fill-0, #282828)"/>
<path id="Vector_13" d="M0.424841 17.7606H2.19481C2.5252 17.7606 2.8556 17.7842 3.18599 17.8196C3.51638 17.855 3.81138 17.9495 4.07097 18.0794C4.33057 18.2093 4.54296 18.3983 4.70816 18.6462C4.87336 18.8942 4.95596 19.2367 4.95596 19.6736C4.95596 20.1814 4.80256 20.5947 4.49577 20.9135C4.18897 21.2323 3.76418 21.4213 3.22139 21.5157L5.19195 24.7041H4.18897L2.3128 21.5866H1.25083V24.7041H0.424841V17.7724V17.7606ZM1.23902 20.819H1.97061C2.19481 20.819 2.4308 20.819 2.6786 20.7954C2.92639 20.7836 3.15059 20.7364 3.35119 20.6655C3.55178 20.5947 3.72878 20.4766 3.85858 20.3231C3.98837 20.1696 4.05917 19.9452 4.05917 19.6618C4.05917 19.4138 4.01197 19.2131 3.91757 19.0595C3.82318 18.906 3.69338 18.7879 3.52818 18.7171C3.36299 18.6344 3.18599 18.5872 2.98539 18.5518C2.78479 18.5281 2.5842 18.5163 2.3836 18.5163H1.22723V20.8072L1.23902 20.819Z" fill="var(--fill-0, #282828)"/>
<path id="Vector_14" d="M10.3608 23.8658C10.0894 24.22 9.7826 24.468 9.46401 24.6097C9.13361 24.7514 8.75602 24.8223 8.33123 24.8223C7.97724 24.8223 7.64684 24.7632 7.36365 24.6333C7.08045 24.5034 6.83266 24.3381 6.63206 24.1137C6.43146 23.9012 6.27807 23.6414 6.17187 23.3462C6.06567 23.051 6.00667 22.7439 6.00667 22.4015C6.00667 22.0472 6.06567 21.7284 6.18367 21.4214C6.30167 21.1261 6.46686 20.8663 6.67926 20.6538C6.89166 20.4412 7.13945 20.2759 7.42265 20.1578C7.70584 20.0397 8.02443 19.9807 8.36663 19.9807C8.68522 19.9807 8.98022 20.0397 9.25161 20.146C9.52301 20.2523 9.7472 20.4058 9.936 20.6184C10.1248 20.8191 10.2782 21.0789 10.3844 21.3741C10.4906 21.6693 10.5378 22.0118 10.5378 22.3897V22.6377H6.84446C6.85626 22.8384 6.90346 23.0273 6.98606 23.2045C7.06865 23.3816 7.17485 23.5351 7.30465 23.6768C7.43445 23.8067 7.58784 23.913 7.76484 23.9957C7.94184 24.0783 8.13063 24.1137 8.34303 24.1137C8.67342 24.1137 8.95662 24.0547 9.18081 23.9366C9.40501 23.8185 9.6174 23.6414 9.7944 23.417L10.3726 23.8658H10.3608ZM9.7 22C9.6882 21.6103 9.55841 21.2915 9.32241 21.0553C9.08642 20.8191 8.74422 20.701 8.31943 20.701C7.89464 20.701 7.55244 20.8191 7.29285 21.0553C7.03325 21.2915 6.87985 21.5985 6.82086 22H9.7Z" fill="var(--fill-0, #282828)"/>
<path id="Vector_15" d="M11.6465 20.7007C11.8825 20.4527 12.1539 20.2756 12.4843 20.1693C12.8028 20.0513 13.1332 19.9922 13.4636 19.9922C14.148 19.9922 14.6318 20.1575 14.9268 20.4764C15.2218 20.7952 15.3752 21.2794 15.3752 21.9406V23.9127C15.3752 24.0426 15.3752 24.1843 15.3988 24.3142C15.4106 24.4559 15.4224 24.5858 15.446 24.7039H14.7144C14.6908 24.5976 14.679 24.4795 14.6672 24.3614C14.6672 24.2315 14.6672 24.1253 14.6672 24.019H14.6436C14.4902 24.2552 14.2896 24.4441 14.0418 24.5976C13.794 24.7511 13.4872 24.822 13.1332 24.822C12.8972 24.822 12.673 24.7865 12.4725 24.7275C12.2719 24.6685 12.0831 24.5858 11.9297 24.4677C11.7763 24.3496 11.6583 24.2079 11.5639 24.0426C11.4695 23.8773 11.4223 23.6765 11.4223 23.4522C11.4223 23.0743 11.5167 22.7791 11.7173 22.5665C11.9179 22.3539 12.1539 22.1886 12.4489 22.0823C12.7438 21.9761 13.0506 21.917 13.3928 21.8816C13.735 21.858 14.0418 21.8462 14.3132 21.8462H14.6082V21.7045C14.6082 21.3738 14.5138 21.114 14.3132 20.9487C14.1126 20.7834 13.8412 20.6889 13.4754 20.6889C13.2276 20.6889 12.9798 20.7243 12.7438 20.807C12.5078 20.8897 12.2955 21.0196 12.1067 21.1849L11.6229 20.6889L11.6465 20.7007ZM13.853 22.4957C13.3574 22.4957 12.9798 22.5665 12.6848 22.6964C12.3899 22.8263 12.2601 23.0625 12.2601 23.3695C12.2601 23.6529 12.3545 23.8655 12.5433 23.9836C12.732 24.1016 12.9798 24.1607 13.263 24.1607C13.4872 24.1607 13.676 24.1253 13.8412 24.0544C14.0064 23.9836 14.148 23.8773 14.2542 23.7592C14.3604 23.6293 14.4548 23.4876 14.5138 23.3223C14.5728 23.1569 14.6082 22.9798 14.6082 22.7909V22.4957H13.8412H13.853Z" fill="var(--fill-0, #282828)"/>
<path id="Vector_16" d="M16.8499 17.2879H17.6169V24.692H16.8499V17.2879Z" fill="var(--fill-0, #282828)"/>
<path id="Vector_17" d="M21.9951 17.7606H26.3492V18.5281H22.8211V20.7009H26.1132V21.4685H22.8211V23.9365H26.5262V24.7041H21.9951V17.7724V17.7606Z" fill="var(--fill-0, #282828)"/>
<path id="Vector_18" d="M27.7535 23.4879C27.9069 23.6768 28.0721 23.8303 28.2491 23.9366C28.4261 24.0429 28.6503 24.1019 28.9335 24.1019C29.0515 24.1019 29.1694 24.0901 29.2874 24.0665C29.4054 24.0429 29.5116 23.9957 29.6178 23.9366C29.724 23.8776 29.7948 23.8067 29.8538 23.7122C29.9128 23.6178 29.9364 23.5115 29.9364 23.3934C29.9364 23.2753 29.9128 23.169 29.8538 23.0864C29.7948 23.0037 29.724 22.9447 29.6296 22.8856C29.5352 22.8266 29.429 22.7912 29.311 22.7557C29.1931 22.7203 29.075 22.6967 28.9452 22.6613C28.7329 22.614 28.5205 22.5668 28.3317 22.5078C28.1311 22.4487 27.9659 22.3779 27.8125 22.2834C27.6709 22.1889 27.5529 22.0708 27.4585 21.9173C27.3759 21.7638 27.3287 21.5749 27.3287 21.3387C27.3287 21.1143 27.3759 20.9254 27.4703 20.7483C27.5647 20.5829 27.6945 20.4412 27.8597 20.3231C28.0249 20.2169 28.2019 20.1224 28.4025 20.0752C28.6031 20.0161 28.8155 19.9807 29.0278 19.9807C29.3582 19.9807 29.6532 20.0515 29.9364 20.1814C30.2078 20.3113 30.432 20.5239 30.5854 20.8191L29.9482 21.2442C29.8538 21.0789 29.724 20.949 29.5588 20.8427C29.3936 20.7483 29.2048 20.6892 28.9806 20.6892C28.8744 20.6892 28.7683 20.701 28.6621 20.7246C28.5559 20.7483 28.4615 20.7837 28.3671 20.8427C28.2845 20.89 28.2137 20.9608 28.1547 21.0435C28.0957 21.1261 28.0721 21.2206 28.0721 21.3269C28.0721 21.4214 28.1075 21.504 28.1665 21.5749C28.2255 21.6457 28.3081 21.7048 28.4261 21.752C28.5323 21.7992 28.6621 21.8465 28.7919 21.8937C28.9335 21.9291 29.0751 21.9646 29.2285 21.9882C29.429 22.0236 29.6178 22.0826 29.8066 22.1417C29.9836 22.2007 30.1488 22.2834 30.2904 22.3897C30.432 22.4959 30.5382 22.6258 30.609 22.7794C30.6798 22.9329 30.727 23.1336 30.727 23.358C30.727 23.6178 30.6798 23.8421 30.5736 24.0193C30.4674 24.1964 30.3258 24.3499 30.1606 24.468C29.9836 24.5861 29.7948 24.6688 29.5706 24.716C29.3582 24.7632 29.134 24.7986 28.898 24.7986C28.5087 24.7986 28.1665 24.7396 27.8833 24.6215C27.6001 24.5034 27.3405 24.2791 27.1163 23.9484L27.7181 23.4761L27.7535 23.4879Z" fill="var(--fill-0, #282828)"/>
<path id="Vector_19" d="M34.338 20.76H32.9928V23.0509C32.9928 23.2044 32.9928 23.3461 32.9928 23.4642C32.9928 23.5941 33.0282 23.7004 33.0754 23.7948C33.1226 23.8893 33.1934 23.9602 33.276 24.0192C33.3704 24.0782 33.5002 24.1019 33.6654 24.1019C33.7716 24.1019 33.8896 24.09 34.0076 24.0664C34.1256 24.0428 34.2318 24.0074 34.338 23.9483L34.3734 24.6451C34.2436 24.7041 34.102 24.7395 33.9368 24.775C33.7716 24.8104 33.63 24.8104 33.4766 24.8104C33.2052 24.8104 32.981 24.775 32.8158 24.7041C32.6506 24.6332 32.5208 24.527 32.4382 24.3971C32.3438 24.2672 32.2848 24.1019 32.2612 23.9129C32.2376 23.724 32.214 23.5114 32.214 23.2752V20.76H31.211V20.1105H32.214V18.8116H32.981V20.1105H34.3262V20.76H34.338Z" fill="var(--fill-0, #282828)"/>
<path id="Vector_20" d="M35.2105 20.7007C35.4465 20.4527 35.7179 20.2756 36.0483 20.1693C36.3669 20.0513 36.6973 19.9922 37.0277 19.9922C37.7121 19.9922 38.1959 20.1575 38.4909 20.4764C38.7859 20.7952 38.9393 21.2794 38.9393 21.9406V23.9127C38.9393 24.0426 38.9393 24.1843 38.9629 24.3142C38.9747 24.4559 38.9865 24.5858 39.0101 24.7039H38.2785C38.2549 24.5976 38.2431 24.4795 38.2313 24.3614C38.2313 24.2315 38.2313 24.1253 38.2313 24.019H38.2077C38.0543 24.2552 37.8537 24.4441 37.6059 24.5976C37.3581 24.7511 37.0513 24.822 36.6973 24.822C36.4613 24.822 36.2371 24.7865 36.0365 24.7275C35.8359 24.6685 35.6471 24.5858 35.4937 24.4677C35.3403 24.3496 35.2223 24.2079 35.1279 24.0426C35.0335 23.8773 34.9863 23.6765 34.9863 23.4522C34.9863 23.0743 35.0807 22.7791 35.2813 22.5665C35.4819 22.3539 35.7179 22.1886 36.0129 22.0823C36.3079 21.9761 36.6147 21.917 36.9569 21.8816C37.2991 21.858 37.6059 21.8462 37.8773 21.8462H38.1723V21.7045C38.1723 21.3738 38.0779 21.114 37.8773 20.9487C37.6767 20.7834 37.4053 20.6889 37.0395 20.6889C36.7917 20.6889 36.5439 20.7243 36.3079 20.807C36.0719 20.8897 35.8595 21.0196 35.6707 21.1849L35.1869 20.6889L35.2105 20.7007ZM37.4289 22.4957C36.9333 22.4957 36.5557 22.5665 36.2607 22.6964C35.9657 22.8263 35.8359 23.0625 35.8359 23.3695C35.8359 23.6529 35.9303 23.8655 36.1191 23.9836C36.3079 24.1016 36.5557 24.1607 36.8389 24.1607C37.0631 24.1607 37.2519 24.1253 37.4171 24.0544C37.5823 23.9836 37.7239 23.8773 37.8301 23.7592C37.9363 23.6293 38.0307 23.4876 38.0897 23.3223C38.1487 23.1569 38.1841 22.9798 38.1841 22.7909V22.4957H37.4171H37.4289Z" fill="var(--fill-0, #282828)"/>
<path id="Vector_21" d="M42.8569 20.76H41.5118V23.0509C41.5118 23.2044 41.5118 23.3461 41.5118 23.4642C41.5118 23.5941 41.5472 23.7004 41.5944 23.7948C41.6416 23.8893 41.7124 23.9602 41.7949 24.0192C41.8893 24.0782 42.0191 24.1019 42.1843 24.1019C42.2905 24.1019 42.4085 24.09 42.5265 24.0664C42.6445 24.0428 42.7507 24.0074 42.8569 23.9483L42.8923 24.6451C42.7625 24.7041 42.6209 24.7395 42.4557 24.775C42.2905 24.8104 42.1489 24.8104 41.9956 24.8104C41.7242 24.8104 41.5 24.775 41.3348 24.7041C41.1696 24.6332 41.0398 24.527 40.9572 24.3971C40.8628 24.2672 40.8038 24.1019 40.7802 23.9129C40.7566 23.724 40.733 23.5114 40.733 23.2752V20.76H39.73V20.1105H40.733V18.8116H41.5V20.1105H42.8451V20.76H42.8569Z" fill="var(--fill-0, #282828)"/>
<path id="Vector_22" d="M47.8834 23.8658C47.612 24.22 47.3052 24.468 46.9867 24.6097C46.6563 24.7514 46.2787 24.8223 45.8539 24.8223C45.4999 24.8223 45.1695 24.7632 44.8863 24.6333C44.6031 24.5034 44.3553 24.3381 44.1547 24.1137C43.9541 23.9012 43.8007 23.6414 43.6945 23.3462C43.5883 23.051 43.5293 22.7439 43.5293 22.4015C43.5293 22.0472 43.5883 21.7284 43.7063 21.4214C43.8243 21.1261 43.9895 20.8663 44.2019 20.6538C44.4143 20.4412 44.6621 20.2759 44.9453 20.1578C45.2285 20.0397 45.5471 19.9807 45.8893 19.9807C46.2079 19.9807 46.5029 20.0397 46.7743 20.146C47.0456 20.2523 47.2698 20.4058 47.4586 20.6184C47.6474 20.8191 47.8008 21.0789 47.907 21.3741C48.0132 21.6693 48.0604 22.0118 48.0604 22.3897V22.6377H44.3671C44.3789 22.8384 44.4261 23.0273 44.5087 23.2045C44.5913 23.3816 44.6975 23.5351 44.8273 23.6768C44.9571 23.8067 45.1105 23.913 45.2875 23.9957C45.4645 24.0783 45.6533 24.1137 45.8657 24.1137C46.1961 24.1137 46.4793 24.0547 46.7035 23.9366C46.9277 23.8185 47.14 23.6414 47.317 23.417L47.8952 23.8658H47.8834ZM47.2344 22C47.2226 21.6103 47.0928 21.2915 46.8569 21.0553C46.6209 20.8191 46.2787 20.701 45.8539 20.701C45.4291 20.701 45.0869 20.8191 44.8273 21.0553C44.5677 21.2915 44.4143 21.5985 44.3553 22H47.2344Z" fill="var(--fill-0, #282828)"/>
<path id="Vector_23" d="M52.0963 17.7606H52.9223V24.6923H52.0963V17.7606Z" fill="var(--fill-0, #282828)"/>
<path id="Vector_24" d="M54.5038 21.1967C54.5038 20.9841 54.5038 20.7952 54.4802 20.6063C54.4684 20.4291 54.4566 20.252 54.4566 20.1103H55.1764C55.1764 20.2402 55.1764 20.3583 55.1764 20.4882C55.1764 20.6063 55.1764 20.7362 55.1764 20.8661H55.2C55.2472 20.7598 55.3298 20.6417 55.4242 20.5472C55.5186 20.4409 55.6366 20.3465 55.7664 20.2638C55.8962 20.1811 56.0496 20.1221 56.203 20.0631C56.3682 20.0158 56.5452 19.9922 56.734 19.9922C57.029 19.9922 57.2886 20.0394 57.5128 20.1339C57.737 20.2284 57.914 20.3583 58.0556 20.5118C58.1972 20.6771 58.3034 20.8779 58.3742 21.1022C58.445 21.3384 58.4804 21.5864 58.4804 21.858V24.6921H57.7134V21.9406C57.7134 21.551 57.6308 21.2557 57.4656 21.0314C57.3004 20.807 57.029 20.7007 56.675 20.7007C56.4272 20.7007 56.2148 20.748 56.0378 20.8306C55.8608 20.9133 55.7074 21.0314 55.6012 21.1967C55.495 21.362 55.4006 21.5391 55.3416 21.7517C55.2826 21.9643 55.259 22.2004 55.259 22.472V24.7039H54.492V21.2085L54.5038 21.1967Z" fill="var(--fill-0, #282828)"/>
<path id="Vector_25" d="M62.0316 24.6922H61.1939L59.3295 20.1104H60.2145L61.6422 23.7002H61.6658L63.0228 20.1104H63.8488L62.0434 24.6922H62.0316Z" fill="var(--fill-0, #282828)"/>
<path id="Vector_26" d="M68.7577 23.8658C68.4863 24.22 68.1795 24.468 67.8609 24.6097C67.5305 24.7514 67.153 24.8223 66.7282 24.8223C66.3742 24.8223 66.0438 24.7632 65.7606 24.6333C65.4774 24.5034 65.2296 24.3381 65.029 24.1137C64.8284 23.9012 64.675 23.6414 64.5688 23.3462C64.4626 23.051 64.4036 22.7439 64.4036 22.4015C64.4036 22.0472 64.4626 21.7284 64.5806 21.4214C64.6986 21.1261 64.8638 20.8663 65.0762 20.6538C65.2886 20.4412 65.5364 20.2759 65.8196 20.1578C66.1028 20.0397 66.4214 19.9807 66.7636 19.9807C67.0822 19.9807 67.3771 20.0397 67.6485 20.146C67.9199 20.2523 68.1441 20.4058 68.3329 20.6184C68.5217 20.8191 68.6751 21.0789 68.7813 21.3741C68.8875 21.6693 68.9347 22.0118 68.9347 22.3897V22.6377H65.2414C65.2532 22.8384 65.3004 23.0273 65.383 23.2045C65.4656 23.3816 65.5718 23.5351 65.7016 23.6768C65.8314 23.8067 65.9848 23.913 66.1618 23.9957C66.3388 24.0783 66.5276 24.1137 66.74 24.1137C67.0703 24.1137 67.3535 24.0547 67.5777 23.9366C67.8019 23.8185 68.0143 23.6414 68.1913 23.417L68.7695 23.8658H68.7577ZM68.0969 22C68.0851 21.6103 67.9553 21.2915 67.7193 21.0553C67.4833 20.8191 67.1411 20.701 66.7164 20.701C66.2916 20.701 65.9494 20.8191 65.6898 21.0553C65.4302 21.2915 65.2768 21.5985 65.2178 22H68.0969Z" fill="var(--fill-0, #282828)"/>
<path id="Vector_27" d="M70.197 23.4879C70.3504 23.6768 70.5156 23.8303 70.6926 23.9366C70.8696 24.0429 71.0938 24.1019 71.377 24.1019C71.495 24.1019 71.613 24.0901 71.731 24.0665C71.849 24.0429 71.9552 23.9957 72.0614 23.9366C72.1676 23.8776 72.2384 23.8067 72.2974 23.7122C72.3564 23.6178 72.38 23.5115 72.38 23.3934C72.38 23.2753 72.3564 23.169 72.2974 23.0864C72.2384 23.0037 72.1676 22.9447 72.0732 22.8856C71.9788 22.8266 71.8726 22.7912 71.7546 22.7557C71.6366 22.7203 71.5186 22.6967 71.3888 22.6613C71.1764 22.614 70.964 22.5668 70.7752 22.5078C70.5746 22.4487 70.4094 22.3779 70.256 22.2834C70.1144 22.1889 69.9964 22.0708 69.902 21.9173C69.8194 21.7638 69.7722 21.5749 69.7722 21.3387C69.7722 21.1143 69.8194 20.9254 69.9138 20.7483C70.0082 20.5829 70.138 20.4412 70.3032 20.3231C70.4684 20.2169 70.6454 20.1224 70.846 20.0752C71.0466 20.0161 71.259 19.9807 71.4714 19.9807C71.8018 19.9807 72.0968 20.0515 72.38 20.1814C72.6514 20.3113 72.8756 20.5239 73.029 20.8191L72.3918 21.2442C72.2974 21.0789 72.1676 20.949 72.0024 20.8427C71.8372 20.7483 71.6484 20.6892 71.4242 20.6892C71.318 20.6892 71.2118 20.701 71.1056 20.7246C70.9994 20.7483 70.905 20.7837 70.8106 20.8427C70.728 20.89 70.6572 20.9608 70.5982 21.0435C70.5392 21.1261 70.5156 21.2206 70.5156 21.3269C70.5156 21.4214 70.551 21.504 70.61 21.5749C70.669 21.6457 70.7516 21.7048 70.8696 21.752C70.9758 21.7992 71.1056 21.8465 71.2354 21.8937C71.377 21.9291 71.5186 21.9646 71.672 21.9882C71.8726 22.0236 72.0614 22.0826 72.2502 22.1417C72.4272 22.2007 72.5924 22.2834 72.734 22.3897C72.8756 22.4959 72.9818 22.6258 73.0526 22.7794C73.1234 22.9329 73.1706 23.1336 73.1706 23.358C73.1706 23.6178 73.1234 23.8421 73.0172 24.0193C72.911 24.1964 72.7694 24.3499 72.6042 24.468C72.4272 24.5861 72.2384 24.6688 72.0142 24.716C71.8018 24.7632 71.5776 24.7986 71.3416 24.7986C70.9522 24.7986 70.61 24.7396 70.3268 24.6215C70.0436 24.5034 69.784 24.2791 69.5598 23.9484L70.1616 23.4761L70.197 23.4879Z" fill="var(--fill-0, #282828)"/>
<path id="Vector_28" d="M76.7815 20.76H75.4364V23.0509C75.4364 23.2044 75.4364 23.3461 75.4364 23.4642C75.4364 23.5941 75.4718 23.7004 75.519 23.7948C75.5662 23.8893 75.6369 23.9602 75.7195 24.0192C75.8139 24.0782 75.9437 24.1019 76.1089 24.1019C76.2151 24.1019 76.3331 24.09 76.4511 24.0664C76.5691 24.0428 76.6753 24.0074 76.7815 23.9483L76.8169 24.6451C76.6871 24.7041 76.5455 24.7395 76.3803 24.775C76.2151 24.8104 76.0735 24.8104 75.9202 24.8104C75.6488 24.8104 75.4246 24.775 75.2594 24.7041C75.0942 24.6332 74.9644 24.527 74.8818 24.3971C74.7874 24.2672 74.7284 24.1019 74.7048 23.9129C74.6812 23.724 74.6576 23.5114 74.6576 23.2752V20.76H73.6546V20.1105H74.6576V18.8116H75.4246V20.1105H76.7697V20.76H76.7815Z" fill="var(--fill-0, #282828)"/>
<path id="Vector_29" d="M77.7134 21.1967C77.7134 20.9841 77.7134 20.7952 77.6898 20.6063C77.678 20.4291 77.6662 20.252 77.6662 20.1103H78.386C78.386 20.2402 78.386 20.3583 78.386 20.4882C78.386 20.6063 78.386 20.7362 78.386 20.8661H78.4096C78.4568 20.7598 78.5394 20.6417 78.6338 20.5472C78.7282 20.4409 78.8462 20.3465 78.976 20.2638C79.1058 20.1811 79.2592 20.1221 79.4126 20.0631C79.5778 20.0158 79.7548 19.9922 79.9436 19.9922C80.1914 19.9922 80.4038 20.0276 80.569 20.0867C80.7342 20.1457 80.8758 20.2284 80.9819 20.311C81.0881 20.4055 81.1825 20.5 81.2415 20.5945C81.3005 20.6889 81.3595 20.7834 81.3949 20.8661C81.5601 20.5945 81.7607 20.3819 81.9849 20.2284C82.2091 20.0749 82.4923 19.9922 82.8463 19.9922C83.1767 19.9922 83.4481 20.0394 83.6723 20.1221C83.8965 20.2048 84.0735 20.3347 84.2151 20.5C84.3567 20.6653 84.4511 20.8661 84.5101 21.1022C84.5691 21.3384 84.6045 21.61 84.6045 21.9052V24.6921H83.8375V21.9525C83.8375 21.7989 83.8257 21.6454 83.7903 21.4919C83.7549 21.3384 83.6959 21.2085 83.6133 21.0904C83.5307 20.9723 83.4127 20.8779 83.2711 20.807C83.1295 20.7362 82.9407 20.7007 82.7283 20.7007C82.5631 20.7007 82.4097 20.7362 82.2681 20.7952C82.1265 20.8542 81.9967 20.9487 81.8905 21.0668C81.7843 21.1849 81.7017 21.3266 81.6309 21.4919C81.5601 21.6572 81.5365 21.8462 81.5365 22.0469V24.6921H80.7696V22.0942C80.7696 21.5864 80.6988 21.2203 80.569 21.0078C80.4274 20.7952 80.2032 20.6889 79.8964 20.6889C79.6486 20.6889 79.4362 20.7362 79.2592 20.8188C79.0822 20.9015 78.9288 21.0196 78.8226 21.1849C78.7164 21.3502 78.622 21.5273 78.563 21.7399C78.504 21.9525 78.4804 22.1886 78.4804 22.4602V24.6921H77.7134V21.1967Z" fill="var(--fill-0, #282828)"/>
<path id="Vector_30" d="M90.1507 23.8658C89.8793 24.22 89.5725 24.468 89.254 24.6097C88.9236 24.7514 88.546 24.8223 88.1212 24.8223C87.7672 24.8223 87.4368 24.7632 87.1536 24.6333C86.8704 24.5034 86.6226 24.3381 86.422 24.1137C86.2214 23.9012 86.068 23.6414 85.9618 23.3462C85.8556 23.051 85.7966 22.7439 85.7966 22.4015C85.7966 22.0472 85.8556 21.7284 85.9736 21.4214C86.0916 21.1261 86.2568 20.8663 86.4692 20.6538C86.6816 20.4412 86.9294 20.2759 87.2126 20.1578C87.4958 20.0397 87.8144 19.9807 88.1566 19.9807C88.4752 19.9807 88.7702 20.0397 89.0416 20.146C89.3129 20.2523 89.5371 20.4058 89.7259 20.6184C89.9147 20.8191 90.0681 21.0789 90.1743 21.3741C90.2805 21.6693 90.3277 22.0118 90.3277 22.3897V22.6377H86.6344C86.6462 22.8384 86.6934 23.0273 86.776 23.2045C86.8586 23.3816 86.9648 23.5351 87.0946 23.6768C87.2244 23.8067 87.3778 23.913 87.5548 23.9957C87.7318 24.0783 87.9206 24.1137 88.133 24.1137C88.4634 24.1137 88.7466 24.0547 88.9708 23.9366C89.195 23.8185 89.4073 23.6414 89.5843 23.417L90.1625 23.8658H90.1507ZM89.49 22C89.4782 21.6103 89.3484 21.2915 89.1124 21.0553C88.8764 20.8191 88.5342 20.701 88.1094 20.701C87.6846 20.701 87.3424 20.8191 87.0828 21.0553C86.8232 21.2915 86.6698 21.5985 86.6108 22H89.49Z" fill="var(--fill-0, #282828)"/>
<path id="Vector_31" d="M91.4957 21.1967C91.4957 20.9841 91.4958 20.7952 91.4722 20.6063C91.4604 20.4291 91.4485 20.252 91.4485 20.1103H92.1683C92.1683 20.2402 92.1683 20.3583 92.1683 20.4882C92.1683 20.6063 92.1683 20.7362 92.1683 20.8661H92.1919C92.2391 20.7598 92.3217 20.6417 92.4161 20.5472C92.5105 20.4409 92.6285 20.3465 92.7583 20.2638C92.8881 20.1811 93.0415 20.1221 93.1949 20.0631C93.3601 20.0158 93.5371 19.9922 93.7259 19.9922C94.0209 19.9922 94.2805 20.0394 94.5047 20.1339C94.7289 20.2284 94.9059 20.3583 95.0475 20.5118C95.1891 20.6771 95.2953 20.8779 95.3661 21.1022C95.4369 21.3384 95.4723 21.5864 95.4723 21.858V24.6921H94.7053V21.9406C94.7053 21.551 94.6227 21.2557 94.4575 21.0314C94.2923 20.807 94.0209 20.7007 93.6669 20.7007C93.4191 20.7007 93.2067 20.748 93.0297 20.8306C92.8527 20.9133 92.6993 21.0314 92.5931 21.1967C92.4869 21.362 92.3925 21.5391 92.3335 21.7517C92.2745 21.9643 92.2509 22.2004 92.2509 22.472V24.7039H91.4839V21.2085L91.4957 21.1967Z" fill="var(--fill-0, #282828)"/>
<path id="Vector_32" d="M99.4483 20.76H98.1031V23.0509C98.1031 23.2044 98.1031 23.3461 98.1031 23.4642C98.1031 23.5941 98.1386 23.7004 98.1858 23.7948C98.233 23.8893 98.3038 23.9602 98.3863 24.0192C98.4807 24.0782 98.6105 24.1019 98.7757 24.1019C98.8819 24.1019 98.9999 24.09 99.1179 24.0664C99.2359 24.0428 99.3421 24.0074 99.4483 23.9483L99.4837 24.6451C99.3539 24.7041 99.2123 24.7395 99.0471 24.775C98.8819 24.8104 98.7403 24.8104 98.5869 24.8104C98.3155 24.8104 98.0914 24.775 97.9262 24.7041C97.761 24.6332 97.6312 24.527 97.5486 24.3971C97.4542 24.2672 97.3952 24.1019 97.3716 23.9129C97.348 23.724 97.3244 23.5114 97.3244 23.2752V20.76H96.3214V20.1105H97.3244V18.8116H98.0914V20.1105H99.4365V20.76H99.4483Z" fill="var(--fill-0, #282828)"/>
</g>
</svg>
