<svg width="180" height="40" viewBox="0 0 180 40" fill="none" xmlns="http://www.w3.org/2000/svg">
<path d="M27.1452 0V10.7214L34.807 14.531C36.3909 13.907 37.9017 12.9971 39.5065 12.3836V39.9792H24.7224L24.6389 22.5244L14.7005 27.3859V39.9775H0V13.5898L27.1452 0ZM24.7242 10.3072V3.98977L2.50636 14.9608V37.7347H6.26589V19.5728L24.7259 10.3055L24.7242 10.3072ZM24.7242 19.6993V13.1323L8.68697 21.0702V37.7347H12.363V25.8902L24.7242 19.6976V19.6993ZM27.1452 13.4651V18.3682L31.9909 15.999L27.1452 13.4651ZM27.1452 21.2366V37.7347H37.0854L37.0018 16.3733L27.147 21.2349L27.1452 21.2366Z" fill="#282828"/>
<path d="M89.9574 4.65532L101.447 4.65186C105.034 4.8841 108.336 6.79926 108.976 10.5412C109.648 14.4668 108.106 18.0233 104.242 19.4081L109.754 27.5957H103.866L98.9385 20.2816H95.0554V27.5957H89.9609V4.65532H89.9574ZM95.0537 9.22571V15.6679C95.0537 15.6766 95.1703 15.7927 95.179 15.7927H100.357C101.913 15.7927 103.694 14.8291 103.897 13.1652C104.238 10.3887 102.545 9.36436 100.026 9.22224C98.4007 9.13212 96.688 9.29677 95.0537 9.22571Z" fill="#282828"/>
<path d="M85.4477 4.65527V9.10261C85.4477 9.11127 85.331 9.2274 85.3223 9.2274H73.17V13.7995H83.9456V18.2884H73.17V23.027H85.4894C85.4981 23.027 85.6148 23.1431 85.6148 23.1517V27.4743C85.6148 27.483 85.4981 27.5991 85.4894 27.5991H68.0737V4.65527H85.4477Z" fill="#282828"/>
<path d="M135.73 27.5953L145.459 4.57179L150.211 4.4834L160.034 27.5953H154.731L152.479 22.4356L143.049 22.453L140.866 27.5953H135.73ZM150.764 17.9537L147.799 10.7211L144.833 17.9537H150.763H150.764Z" fill="#282828"/>
<path d="M53.5229 4.34684C56.863 4.07473 60.5407 5.06264 63.0523 7.28457L60.4172 11.0421C58.4138 9.82021 55.9719 8.43194 53.5195 8.91549C52.1584 9.18414 51.3473 10.0213 51.6536 11.4737C51.8294 12.3073 53.0826 12.8082 53.8066 13.0717C57.3991 14.3698 63.2821 14.7858 63.7259 19.7409C64.6432 29.984 50.8634 29.549 45.6088 24.216L48.5694 20.611C50.2838 21.9611 52.1183 23.0808 54.341 23.3442C55.8448 23.521 58.661 23.3598 58.7062 21.3094C58.7341 20.046 57.7559 19.5537 56.7325 19.1343C53.3297 17.7426 48.0559 17.7339 46.7767 13.4997C45.3164 8.66938 48.7243 4.7368 53.5212 4.34511L53.5229 4.34684Z" fill="#282828"/>
<path d="M123.685 4.26327C127.358 4.02582 130.988 5.10906 133.552 7.78335L130.343 11.5339C128.875 10.3086 127.212 9.16296 125.236 8.98791C116.344 8.20625 115.411 21.7892 123.264 23.167C126.132 23.6697 128.447 22.479 130.496 20.6193L133.718 23.8239C132.179 25.7009 130.009 27.0892 127.627 27.6369C118.606 29.7115 111.037 22.7008 112.784 13.6138C113.806 8.29811 118.314 4.6099 123.685 4.26327Z" fill="#282828"/>
<path d="M168.556 4.65527V22.9403H180V27.5956H163.461V4.65527H168.556Z" fill="#282828"/>
<path d="M165.717 35.0757V39.8125H163.963V32.0825H165.592L169.141 36.6546V32.0825H170.895V39.8125H169.308L165.717 35.0757Z" fill="#282828"/>
<path d="M152.165 32.0222C158.578 31.1591 158.647 40.5009 152.479 39.9792C147.687 39.5736 147.708 32.6236 152.165 32.0222ZM152.667 33.6011C149.783 33.9512 150.066 38.7504 153.389 38.3102C156.094 37.9514 155.673 33.2354 152.667 33.6011Z" fill="#282828"/>
<path d="M62.6241 32.0226C68.6603 31.26 69.0693 39.5619 63.7712 39.9796C58.191 40.4181 57.7942 32.6327 62.6241 32.0226ZM63.1289 33.6033C60.4398 33.8546 60.5181 37.9258 62.8748 38.2984C66.5403 38.8791 66.4429 33.293 63.1289 33.6033Z" fill="#282828"/>
<path d="M114.598 32.0825V36.8626C114.598 37.3635 114.89 37.7275 115.054 37.906C115.566 38.4641 116.758 38.4831 117.311 37.984C117.536 37.7829 117.854 37.4831 117.854 36.8626V32.0825H119.609V37.1937C119.609 37.8973 119.177 38.5109 118.927 38.8419C117.776 40.3636 114.753 40.3688 113.552 38.8991C113.282 38.5681 112.844 37.9268 112.844 37.2769V32.0825H114.598Z" fill="#282828"/>
<path d="M132.974 32.0825V33.4552L128.797 38.3168H132.974V39.8125H126.543V38.4415L130.635 33.6614H126.627V32.0825H132.974Z" fill="#282828"/>
<path d="M74.8931 37.4918C75.4832 37.887 76.155 38.3376 76.886 38.3982C78.2976 38.5161 78.9016 37.4849 77.3629 36.9285C76.2124 36.5126 74.3849 36.4242 74.1795 34.8608C73.7444 31.5747 77.7911 31.3997 79.7631 32.9214L78.9311 34.327C78.1757 33.9111 77.4778 33.4552 76.5588 33.5869C75.8365 33.6909 75.6555 34.3911 76.2664 34.7759C77.3246 35.4449 79.3941 35.1711 79.9093 36.802C80.6908 39.2787 78.134 40.2787 76.0871 39.8576C75.7408 39.7865 74.2857 39.0621 73.8732 38.6513" fill="#282828"/>
<path d="M48.9262 32.0222C49.9983 31.887 51.0096 32.0066 51.946 32.5474C52.952 33.128 52.8284 33.2095 52.08 33.9963C51.3316 34.7832 51.5405 34.2598 50.8408 33.8975C47.1282 31.9737 45.9951 38.8596 50.1498 38.3102C50.8286 38.2201 51.1767 37.7712 51.7319 37.4991L52.7814 38.5372C51.3577 40.4663 48.1708 40.4472 46.6095 38.6898C44.5853 36.4141 45.8176 32.4139 48.9262 32.0222Z" fill="#282828"/>
<path d="M92.7979 32.0825V33.7446H90.4586V39.8125H88.7059V33.7446H86.3666V32.0825H92.7979Z" fill="#282828"/>
<path d="M141.828 32.0825H140.074V39.8125H141.828V32.0825Z" fill="#282828"/>
<path d="M180 32.0825H178.246V39.8125H180V32.0825Z" fill="#282828"/>
<path d="M104.407 37.1146C106.425 36.3295 106.616 33.1353 104.574 32.286C104.369 32.2011 104.204 32.1283 103.532 32.085H99.4816V39.8149H101.32V37.4041H102.531C102.679 37.4041 104.026 39.8149 104.202 39.8149H106.249L104.411 37.1146H104.407ZM103.031 35.8234H101.318V33.6622H103.031C103.68 33.6622 104.204 34.1457 104.204 34.7419C104.204 35.3381 103.68 35.8217 103.031 35.8217V35.8234Z" fill="#282828"/>
</svg>
