<svg preserveAspectRatio="none" width="100%" height="100%" overflow="visible" style="display: block;" viewBox="0 0 180 40" fill="none" xmlns="http://www.w3.org/2000/svg">
<g id="Sercal">
<path id="Vector" d="M27.1452 0V10.7214L34.807 14.531C36.3909 13.907 37.9017 12.9971 39.5065 12.3836V39.9792H24.7224L24.6389 22.5244L14.7005 27.3859V39.9775H0V13.5898L27.1452 0ZM24.7242 10.3072V3.98977L2.50636 14.9608V37.7347H6.26589V19.5728L24.7259 10.3055L24.7242 10.3072ZM24.7242 19.6993V13.1323L8.68697 21.0702V37.7347H12.363V25.8902L24.7242 19.6976V19.6993ZM27.1452 13.4651V18.3682L31.9909 15.999L27.1452 13.4651ZM27.1452 21.2366V37.7347H37.0854L37.0018 16.3733L27.147 21.2349L27.1452 21.2366Z" fill="var(--fill-0, #282828)"/>
<path id="Vector_2" d="M89.9574 4.65511L101.447 4.65165C105.034 4.88389 108.336 6.79905 108.976 10.541C109.648 14.4666 108.106 18.0231 104.242 19.4079L109.754 27.5955H103.866L98.9385 20.2814H95.0554V27.5955H89.9609V4.65511H89.9574ZM95.0537 9.2255V15.6677C95.0537 15.6764 95.1703 15.7925 95.179 15.7925H100.357C101.913 15.7925 103.694 14.8289 103.897 13.165C104.238 10.3885 102.545 9.36416 100.026 9.22204C98.4007 9.13191 96.688 9.29656 95.0537 9.2255Z" fill="var(--fill-0, #282828)"/>
<path id="Vector_3" d="M85.4476 4.65539V9.10273C85.4476 9.11139 85.331 9.22752 85.3223 9.22752H73.17V13.7996H83.9456V18.2886H73.17V23.0271H85.4894C85.4981 23.0271 85.6147 23.1432 85.6147 23.1519V27.4744C85.6147 27.4831 85.4981 27.5992 85.4894 27.5992H68.0737V4.65539H85.4476Z" fill="var(--fill-0, #282828)"/>
<path id="Vector_4" d="M135.73 27.5955L145.459 4.57202L150.211 4.48363L160.034 27.5955H154.731L152.479 22.4359L143.049 22.4532L140.866 27.5955H135.73ZM150.764 17.9539L147.799 10.7213L144.833 17.9539H150.763H150.764Z" fill="var(--fill-0, #282828)"/>
<path id="Vector_5" d="M53.523 4.34687C56.863 4.07476 60.5408 5.06267 63.0523 7.2846L60.4172 11.0421C58.4138 9.82024 55.9719 8.43197 53.5195 8.91552C52.1584 9.18416 51.3473 10.0213 51.6536 11.4737C51.8294 12.3073 53.0826 12.8082 53.8067 13.0717C57.3991 14.3698 63.2821 14.7858 63.7259 19.7409C64.6432 29.984 50.8634 29.549 45.6088 24.216L48.5694 20.611C50.2838 21.9611 52.1183 23.0808 54.341 23.3442C55.8448 23.521 58.661 23.3598 58.7062 21.3095C58.7341 20.046 57.7559 19.5538 56.7325 19.1343C53.3298 17.7426 48.056 17.7339 46.7767 13.4998C45.3164 8.66941 48.7243 4.73683 53.5212 4.34513L53.523 4.34687Z" fill="var(--fill-0, #282828)"/>
<path id="Vector_6" d="M123.685 4.26342C127.358 4.02597 130.988 5.10921 133.552 7.7835L130.343 11.5341C128.875 10.3087 127.212 9.16311 125.236 8.98806C116.344 8.2064 115.411 21.7893 123.264 23.1672C126.132 23.6698 128.447 22.4791 130.496 20.6194L133.718 23.8241C132.179 25.7011 130.009 27.0894 127.628 27.637C118.606 29.7117 111.037 22.701 112.784 13.6139C113.806 8.29825 118.314 4.61005 123.685 4.26342Z" fill="var(--fill-0, #282828)"/>
<path id="Vector_7" d="M168.556 4.65539V22.9404H180V27.5957H163.462V4.65539H168.556Z" fill="var(--fill-0, #282828)"/>
<path id="Vector_8" d="M165.717 35.0758V39.8126H163.963V32.0826H165.592L169.141 36.6547V32.0826H170.895V39.8126H169.308L165.717 35.0758Z" fill="var(--fill-0, #282828)"/>
<path id="Vector_9" d="M152.165 32.0223C158.578 31.1592 158.647 40.501 152.479 39.9794C147.687 39.5738 147.708 32.6238 152.165 32.0223ZM152.667 33.6013C149.783 33.9514 150.066 38.7505 153.389 38.3103C156.094 37.9515 155.673 33.2356 152.667 33.6013Z" fill="var(--fill-0, #282828)"/>
<path id="Vector_10" d="M62.6242 32.0224C68.6603 31.2598 69.0693 39.5617 63.7712 39.9794C58.191 40.4179 57.7942 32.6325 62.6242 32.0224ZM63.1289 33.603C60.4398 33.8544 60.5181 37.9256 62.8748 38.2982C66.5403 38.8788 66.4429 33.2928 63.1289 33.603Z" fill="var(--fill-0, #282828)"/>
<path id="Vector_11" d="M114.598 32.0826V36.8627C114.598 37.3636 114.89 37.7276 115.054 37.9061C115.566 38.4642 116.758 38.4832 117.311 37.9841C117.536 37.783 117.854 37.4832 117.854 36.8627V32.0826H119.609V37.1938C119.609 37.8974 119.177 38.511 118.927 38.842C117.776 40.3637 114.753 40.3689 113.552 38.8992C113.282 38.5682 112.843 37.9269 112.843 37.277V32.0826H114.598Z" fill="var(--fill-0, #282828)"/>
<path id="Vector_12" d="M132.974 32.0826V33.4553L128.797 38.3169H132.974V39.8126H126.543V38.4416L130.635 33.6615H126.627V32.0826H132.974Z" fill="var(--fill-0, #282828)"/>
<path id="Vector_13" d="M74.8931 37.4919C75.4831 37.8871 76.155 38.3377 76.886 38.3984C78.2976 38.5162 78.9015 37.485 77.3629 36.9286C76.2124 36.5127 74.3849 36.4243 74.1795 34.861C73.7443 31.5748 77.7911 31.3998 79.7631 32.9215L78.9311 34.3271C78.1757 33.9112 77.4778 33.4553 76.5588 33.5871C75.8365 33.6911 75.6554 34.3913 76.2664 34.776C77.3246 35.445 79.3941 35.1712 79.9093 36.8021C80.6908 39.2788 78.134 40.2789 76.0871 39.8577C75.7407 39.7866 74.2857 39.0622 73.8731 38.6514" fill="var(--fill-0, #282828)"/>
<path id="Vector_14" d="M48.9262 32.0224C49.9983 31.8872 51.0096 32.0068 51.946 32.5475C52.952 33.1281 52.8284 33.2096 52.08 33.9964C51.3316 34.7833 51.5404 34.2599 50.8407 33.8977C47.1282 31.9738 45.9951 38.8597 50.1498 38.3103C50.8286 38.2202 51.1767 37.7713 51.7319 37.4992L52.7814 38.5374C51.3577 40.4664 48.1708 40.4473 46.6095 38.6899C44.5853 36.4142 45.8176 32.4141 48.9262 32.0224Z" fill="var(--fill-0, #282828)"/>
<path id="Vector_15" d="M92.7979 32.0826V33.7447H90.4586V39.8126H88.7059V33.7447H86.3666V32.0826H92.7979Z" fill="var(--fill-0, #282828)"/>
<path id="Vector_16" d="M141.828 32.0826H140.074V39.8126H141.828V32.0826Z" fill="var(--fill-0, #282828)"/>
<path id="Vector_17" d="M180 32.0826H178.246V39.8126H180V32.0826Z" fill="var(--fill-0, #282828)"/>
<path id="Vector_18" d="M104.407 37.1144C106.425 36.3293 106.616 33.1351 104.574 32.2858C104.369 32.2009 104.204 32.1281 103.532 32.0848H99.4816V39.8147H101.32V37.4039H102.531C102.679 37.4039 104.026 39.8147 104.202 39.8147H106.249L104.411 37.1144H104.407ZM103.03 35.8232H101.318V33.662H103.03C103.68 33.662 104.204 34.1455 104.204 34.7417C104.204 35.3379 103.68 35.8215 103.03 35.8215V35.8232Z" fill="var(--fill-0, #282828)"/>
</g>
</svg>
