<svg preserveAspectRatio="none" width="100%" height="100%" overflow="visible" style="display: block;" viewBox="0 0 143 15" fill="none" xmlns="http://www.w3.org/2000/svg">
<g id="Group">
<path id="Vector" d="M16.6035 5.65262C16.718 5.81319 16.8675 5.96373 16.9721 6.12681C16.87 6.28989 16.6682 6.49311 16.5013 6.65118C16.3843 6.54329 16.1302 6.27734 16.1302 6.1519C16.1302 6.02645 16.3868 5.80817 16.606 5.65262H16.6035ZM140.87 5.60244C140.987 5.76301 141.239 5.97627 141.239 6.10172C141.239 6.22717 140.935 6.44293 140.768 6.60099C140.601 6.44293 140.397 6.25225 140.397 6.12681C140.397 6.00136 140.701 5.7605 140.87 5.60244ZM92.5918 5.65011C92.7164 5.65011 92.8608 5.96122 92.9629 6.12681L92.4922 6.59849C92.3751 6.4906 92.1734 6.28738 92.0712 6.12179C92.2282 5.9562 92.4673 5.65011 92.5918 5.65011ZM130.857 5.65011C130.982 5.65011 131.229 5.99885 131.229 6.1243C131.229 6.24975 130.925 6.44042 130.758 6.59849C130.591 6.44042 130.387 6.24975 130.387 6.1243C130.387 5.99885 130.733 5.65011 130.857 5.65011ZM81.5303 11.5536C80.5714 11.8873 79.5676 12.3339 78.7182 12.9762C78.4592 13.1694 78.1628 13.4755 78.1628 13.7138C78.1628 13.9195 78.3496 13.9873 78.509 13.9873C79.321 13.9873 80.9749 12.1884 81.5278 11.5511L81.5303 11.5536ZM84.31 7.49919C83.6649 7.49919 81.9288 8.9895 81.5702 9.50634C81.4656 9.66189 81.2862 9.92031 81.2862 10.0458C81.2862 10.2139 81.4531 10.3945 81.6823 10.3945C82.2775 10.3945 83.9638 8.93179 84.2677 8.53789C84.4719 8.26943 84.706 7.94829 84.706 7.82285C84.706 7.6422 84.5441 7.49919 84.31 7.49919ZM80.9649 7.49919C80.5191 7.49919 79.463 8.56047 79.1566 8.83896H79.4231C79.6348 8.84899 81.1891 8.287 81.1891 7.75008C81.1891 7.71998 81.1891 7.49919 80.9649 7.49919ZM76.3794 7.49919C75.7468 7.49919 73.5051 9.31566 73.5051 10.1461C73.5051 10.3468 73.6794 10.3945 73.8762 10.3945C74.2722 10.3945 76.7754 8.81638 76.7754 7.84793C76.7754 7.68485 76.6086 7.49919 76.3794 7.49919ZM94.2731 2.05732C93.1199 2.05732 90.0911 5.77305 89.568 6.34007C89.9441 6.19957 90.2903 5.99885 90.5892 5.88093C90.5892 5.88093 94.6193 3.61788 94.6193 2.38098C94.6193 2.25051 94.44 2.05732 94.2731 2.05732ZM94.2482 1.95697C94.5819 1.95697 94.7189 2.11252 94.7189 2.40606C94.7189 3.49745 92.1211 5.23614 91.4834 5.57986C90.796 5.94867 90.0587 6.23469 89.4011 6.60852C89.177 6.73397 86.5891 9.47121 86.5891 10.1185C86.5891 10.387 86.8481 10.392 86.9104 10.392C87.7099 10.392 90.3701 7.80277 90.7686 7.45403H91.4436C91.1621 7.88557 89.314 9.77479 89.314 10.1913C89.314 10.4397 89.4809 10.392 89.5132 10.392C90.0388 10.392 91.5158 8.99703 91.8869 8.85402C91.5308 9.23537 90.0811 10.54 89.4634 10.54C89.0973 10.54 88.9678 10.259 88.9678 10.0909C88.9678 9.49128 89.6154 8.97946 89.9715 8.39488C89.5531 8.65832 87.6053 10.54 86.8606 10.54C86.3948 10.54 86.2902 10.1837 86.2902 9.91529C86.2902 9.39845 86.6713 8.95939 87.0474 8.3447C85.538 9.66691 83.9389 10.5751 82.4594 11.1999C82.0808 11.3554 81.8267 11.8447 81.5054 12.1131C80.7681 12.7303 79.3384 14.1353 78.4841 14.1353C78.1927 14.1353 78.0134 13.8543 78.0134 13.6862C78.0134 12.9611 79.7693 12.1357 80.0109 12.0228C80.6062 11.7418 81.3086 11.5938 81.8417 11.225C82.2576 10.9389 82.5789 10.4497 82.8703 10.0432C82.3597 10.3242 82.011 10.54 81.6324 10.54C80.8404 10.54 81.0247 9.81744 81.0023 9.34075C80.4767 9.75723 79.3833 10.54 78.6834 10.54C78.2251 10.54 78.0134 10.2164 78.0134 9.82246C78.0134 9.69702 78.0632 9.51888 78.0532 9.34075C77.3085 9.89271 76.7007 10.54 76.0805 10.54C75.7144 10.54 75.5849 10.3845 75.5849 10.116C75.5849 9.99056 75.6347 9.76727 75.6496 9.48877C75.286 9.86511 74.2971 10.54 73.8264 10.54C73.3008 10.54 73.2062 10.2088 73.2062 9.84002C73.2062 8.35975 75.4977 7.34364 76.3545 7.34364C76.6036 7.34364 76.9299 7.56693 76.8751 7.92069C76.8751 7.96836 76.9174 8.00098 76.9498 8.04363L81.6972 3.09602C82.2502 3.05086 82.3025 3.10104 82.3747 3.11358C81.2788 4.33794 80.0832 5.58739 78.9798 6.76658C78.5763 7.20314 75.8339 9.8626 75.8339 10.264C75.8339 10.4647 76.0631 10.3895 76.083 10.3895C77.2985 10.3895 79.2114 7.34364 80.94 7.34364C81.1766 7.34364 81.336 7.52428 81.336 7.71747C81.336 8.64076 78.9748 9.04971 78.8951 9.09989C78.6784 9.23035 78.3122 9.85257 78.3122 10.0156C78.3122 10.3644 78.6585 10.3895 78.7581 10.3895C78.8826 10.3895 79.2139 10.2665 79.468 10.1536C79.9088 9.96045 80.534 9.55902 81.0471 9.12749C81.3012 8.91423 81.4755 8.56549 81.7919 8.30957C82.3622 7.8404 83.5553 7.34364 84.2602 7.34364C84.5093 7.34364 84.9227 7.50672 84.8904 7.8956L85.3163 7.45403H85.9938L82.7707 10.8561C82.8977 10.8411 82.9376 10.8436 82.9874 10.8235C84.5865 10.2189 86.4969 8.70097 87.9963 7.1655C89.3463 5.78057 92.6167 1.95195 94.2482 1.95195V1.95697ZM19.032 7.59955C18.5363 7.59955 16.2572 9.31566 16.2572 10.1461C16.2572 10.2465 16.3071 10.4447 16.6035 10.4447C17.2984 10.4447 19.3309 8.98448 19.3309 7.94829C19.3309 7.9232 19.2686 7.59955 19.0345 7.59955H19.032ZM27.7546 7.54937C27.2839 7.54937 26.4146 8.51531 25.9712 8.88161C26.1406 8.87158 28.0012 8.37732 28.0012 7.77266C28.0012 7.67231 28.0012 7.54686 27.7546 7.54686V7.54937ZM5.20321 0.0100379C6.16465 0.0100379 7.53208 0.308598 7.53208 1.70858C7.53208 2.20786 7.40007 2.65696 7.16345 3.09351C6.92185 3.55515 6.5034 4.07199 6.11982 4.47844C5.3701 5.26374 4.35386 6.14688 3.44224 6.97483C2.9416 7.43145 0.792064 9.07229 0.792064 9.84504C0.792064 10.2941 1.4297 10.3945 1.55922 10.3945C3.24547 10.3945 7.88577 5.89599 8.59315 5.1709C9.8211 3.92397 11.2085 2.66198 12.6033 1.31468H13.4277C12.282 2.49639 11.2857 3.55265 10.1324 4.72432C10.0577 4.79958 5.20072 9.51888 5.20072 10.1185C5.20072 10.4045 5.55939 10.3443 5.62166 10.3443C6.95921 10.3443 9.5247 7.39884 10.3068 7.39884C10.6032 7.39884 10.7526 7.67231 10.7526 7.87302C10.7526 8.07374 10.4936 8.47767 10.4886 8.64828C11.0067 8.15402 11.9607 7.39884 12.536 7.39884C12.9022 7.39884 13.1313 7.65475 13.1313 7.9232C13.1313 8.75867 11.3479 9.70203 11.3479 10.1938C11.3479 10.4321 11.5148 10.4422 11.5472 10.4422C12.0927 10.4422 15.0617 7.6974 15.2809 7.50421H16.0057C15.8986 7.6974 13.8761 9.89271 13.8761 10.2415C13.8761 10.4472 14.038 10.4422 14.1002 10.4422C14.6632 10.4422 16.4864 8.63323 16.5736 8.55294C16.8949 8.24183 17.2909 7.95582 17.6571 7.76263C18.0282 7.56192 18.7829 7.39884 18.9074 7.39884C19.3035 7.39884 19.428 7.64722 19.428 7.94829C19.428 8.49775 18.9821 8.81638 18.9821 9.02211C18.9821 9.14756 19.0569 9.19774 19.1814 9.19774C19.4355 9.19774 21.2512 7.40134 21.8341 7.40134C22.1006 7.40134 22.255 7.67482 22.255 7.87553C22.255 8.18664 22.0184 8.27696 21.991 8.65079C22.3546 8.24434 23.5427 7.40134 24.0384 7.40134C24.3971 7.40134 24.6337 7.66227 24.6337 7.90062C24.6337 8.78126 22.8503 9.69701 22.8503 10.1963C22.8503 10.3217 22.9001 10.4447 23.0247 10.4447C24.0783 10.4447 25.9438 7.39884 27.7347 7.39884C27.9514 7.39884 28.1556 7.47912 28.1556 7.74758C28.1556 8.73359 25.7695 9.12247 25.7147 9.15509C25.3859 9.3558 25.1319 9.8325 25.1319 10.0708C25.1319 10.3393 25.3685 10.4447 25.5279 10.4447C26.2228 10.4447 27.5803 9.42103 28.1706 8.91172C28.1706 8.91172 28.2304 8.89667 28.3524 8.91172C27.5504 9.56906 26.3772 10.5927 25.503 10.5927C25.0447 10.5927 24.833 10.1361 24.833 9.86762C24.833 9.74218 24.8828 9.51888 24.8952 9.34075C24.8155 9.41852 23.4057 10.5927 23.0471 10.5927C22.7058 10.5927 22.6012 10.1938 22.6012 10.0934C22.6012 8.90168 24.2875 8.26442 24.2875 7.74758C24.2875 7.5293 24.1505 7.54686 24.016 7.54686C23.1168 7.54686 20.2126 10.4923 20.1927 10.4848H19.4828C19.8265 10.0508 21.9586 8.07625 21.9586 7.67231C21.9586 7.54686 21.9088 7.54686 21.7843 7.54686C21.3633 7.54686 19.5102 9.34326 19.1565 9.34326C19.032 9.34326 18.9572 9.2429 18.8352 9.2429C18.6359 9.2429 17.4852 10.5902 16.581 10.5902C16.0854 10.5902 15.8687 10.0884 15.9733 9.38842C15.505 9.71959 14.6283 10.5902 14.0529 10.5902C13.6245 10.5902 13.5822 10.2716 13.5822 10.0909C13.5822 9.49128 14.1451 8.97695 14.5859 8.39237C14.576 8.36728 12.1076 10.5902 11.5248 10.5902C11.2159 10.5902 11.1038 10.1913 11.1038 10.0909C11.1038 9.10992 12.8399 8.0637 12.8399 7.71998C12.8399 7.59453 12.6406 7.54435 12.5186 7.54435C11.6892 7.54435 8.78992 10.4898 8.69527 10.4823H7.9854C8.36151 10.0106 10.4612 7.98091 10.4612 7.69489C10.4612 7.56944 10.4114 7.54435 10.2869 7.54435C9.56206 7.54435 6.94177 10.5902 5.65155 10.5902C5.22314 10.5902 4.90681 10.3644 4.90681 9.96547C4.90681 9.18519 6.29417 7.93575 6.84712 7.18809C5.78356 8.00851 3.03625 10.5902 1.56171 10.5902C1.10341 10.5902 0.495663 10.259 0.495663 9.74218C0.495663 9.16763 0.991326 8.36477 1.4571 7.8655C2.26162 6.98486 3.22305 6.14186 4.17204 5.25621C5.126 4.37056 7.23817 2.72721 7.23817 1.50536C7.23817 0.283509 5.69639 0.258419 5.23061 0.258419C4.43855 0.258419 0.199261 1.06379 0.199261 3.17881C0.199261 3.99672 1.17813 4.20246 1.5368 4.20246C1.66134 4.20246 2.10221 4.13973 2.39861 4.08454C3.17324 3.934 4.19694 3.34691 4.96659 2.74226C5.42489 2.38599 5.8558 1.96449 6.22692 1.59066L6.34399 1.6283C4.87692 3.50999 3.32767 4.40568 1.71116 4.40568C1.05359 4.40568 0 4.19995 0 3.18133C0 0.935833 4.24925 0.0100379 5.20571 0.0100379H5.20321ZM132.813 7.49919C132.217 7.49919 129.963 9.3282 129.963 10.121C129.963 10.2766 130.013 10.3945 130.31 10.3945C130.743 10.3945 133.234 8.77122 133.234 7.82285C133.234 7.59202 133.079 7.49919 132.813 7.49919ZM111.3 7.49919C110.575 7.49919 108.451 9.40849 108.451 10.121C108.451 10.2766 108.513 10.3945 108.772 10.3945C109.305 10.3945 111.671 8.7085 111.671 7.87302C111.671 7.67984 111.584 7.49919 111.3 7.49919ZM142.552 2.05732C141.344 2.05732 138.233 5.84832 137.896 6.2924C139.339 5.6752 140.888 4.79206 142.178 3.53007C142.507 3.20641 142.898 2.70714 142.898 2.3584C142.898 2.25804 142.798 2.05983 142.552 2.05983V2.05732ZM142.552 1.95697C142.93 1.95697 142.997 2.24298 142.997 2.40606C142.997 4.24762 137.859 6.54078 137.533 6.70888C137.478 6.73899 134.87 9.51888 134.87 10.0934C134.87 10.3443 135.124 10.392 135.216 10.392C135.866 10.392 138.967 7.52177 139.05 7.45403H139.725C139.468 7.84041 137.595 9.77479 137.595 10.1913C137.595 10.392 137.757 10.392 137.819 10.392C138.223 10.392 139.944 8.97193 140.17 8.85652C139.667 9.24039 138.434 10.5425 137.747 10.5425C137.351 10.5425 137.301 10.2816 137.301 10.0432C137.301 9.43107 137.929 9.00204 138.277 8.33968C138.018 8.57051 135.827 10.5425 135.147 10.5425C134.688 10.5425 134.576 10.1863 134.576 9.9178C134.576 9.36834 135.027 8.81638 135.431 8.24685C134.987 8.59559 132.76 10.5425 132.419 10.5425C132.028 10.5425 131.998 10.2615 131.998 10.0934C131.998 9.96798 132.098 9.7196 132.11 9.49128C131.585 9.87013 130.865 10.5425 130.237 10.5425C129.687 10.5425 129.625 10.0407 129.679 9.34075C129.246 9.63931 128.205 10.5425 127.734 10.5425C127.375 10.5425 127.238 10.2615 127.238 10.0934C127.238 9.41852 127.806 9.13251 128.242 8.39739C127.866 8.65832 125.806 10.5425 125.032 10.5425C124.636 10.5425 124.511 10.3117 124.511 10.0432C124.511 9.3558 125.502 8.51029 126.147 7.87553C126.063 7.84291 125.898 7.84543 125.776 7.84543C125.654 7.84543 125.525 7.79776 125.443 7.85295C125.064 8.11388 122.591 10.54 121.786 10.54C121.261 10.54 121.241 10.2415 121.241 9.99056C121.241 9.05975 122.683 8.13395 123.335 7.29346C122.426 7.91317 121.295 9.0748 120.284 9.5515C120.135 9.61924 119.953 9.8601 119.744 10.0182C119.186 10.4171 118.688 10.54 118.217 10.54C117.858 10.54 117.425 10.3895 117.425 9.94038C117.425 9.74719 117.636 9.54146 117.796 9.54146C118.013 9.54146 118.117 9.86511 118.117 9.8902C118.117 10.0583 117.836 10.1536 117.671 10.264C117.808 10.3443 117.943 10.3895 118.067 10.3895C118.668 10.3895 119.402 9.67192 119.739 9.1024C119.888 8.84649 120.15 7.93575 120.15 7.56693C120.15 7.44149 120.107 7.43396 120.075 7.39131C119.868 7.57948 116.588 10.5375 115.963 10.5375C115.671 10.5375 115.492 10.3443 115.492 10.0633C115.492 9.68949 115.813 9.39092 115.803 9.1877C115.054 9.7773 114.369 10.5375 113.706 10.5375C113.31 10.5375 113.161 10.1687 113.161 9.96296C113.161 9.34577 114.11 8.55796 114.187 8.33717C113.696 8.74111 111.791 10.5375 110.979 10.5375C110.583 10.5375 110.533 10.3368 110.533 10.0884C110.533 9.96296 110.583 9.71458 110.595 9.48626C110.132 9.86511 109.225 10.5375 108.697 10.5375C108.239 10.5375 108.102 10.0809 108.102 9.81243C108.102 9.68698 108.152 9.51386 108.164 9.33573C107.96 9.48376 106.769 10.5375 106.294 10.5375C106.034 10.5375 105.873 10.264 105.873 10.0633C105.873 8.97193 107.609 8.1465 107.609 7.69238C107.609 7.43145 107.342 7.49167 107.337 7.49167C106.358 7.49167 104.142 9.97802 103.529 10.4296H102.754C102.931 10.1913 105.23 8.00349 105.23 7.6422C105.23 7.51676 105.18 7.49167 105.056 7.49167C104.764 7.49167 103.088 8.88663 103.061 8.90168L102.951 8.86907C103.158 8.69093 104.692 7.34364 105.108 7.34364C105.454 7.34364 105.529 7.64973 105.529 7.81783C105.529 8.05618 105.489 8.13646 105.265 8.53287C105.868 8.09883 106.774 7.34364 107.362 7.34364C107.658 7.34364 107.908 7.60457 107.908 7.868C107.908 8.70348 106.124 9.63931 106.124 10.1386C106.124 10.3694 106.291 10.387 106.323 10.387C106.448 10.387 106.687 10.2289 106.879 10.1035C108.72 8.8791 109.502 7.34113 111.255 7.34113C111.751 7.34113 111.748 7.69489 111.855 8.04112L116.648 3.05588H117.325C116.844 3.63293 110.735 9.98805 110.735 10.2364C110.735 10.4171 111.006 10.387 111.006 10.387C111.713 10.387 114.934 7.44149 115.126 7.44901H115.836C115.626 7.725 113.459 9.81243 113.459 10.1386C113.459 10.3694 113.731 10.387 113.756 10.387C114.623 10.387 116.874 7.88557 117.34 7.44901H118.115C117.771 7.89309 115.788 9.9755 115.788 10.2113C115.788 10.3744 115.955 10.387 115.988 10.387C116.65 10.387 120.314 6.9673 120.787 6.59598V6.77913C120.64 6.93719 120.349 7.1931 120.349 7.31855C120.349 7.44399 120.498 8.26692 120.498 8.39237C120.498 8.64828 120.349 9.20276 120.349 9.26548C120.349 9.39093 120.341 9.29809 120.376 9.34075C121.5 8.65079 122.638 7.587 123.769 6.66874C123.634 6.56336 123.266 6.73397 123.126 6.50816C123.445 6.49562 123.769 6.62859 124.028 6.48057C124.506 6.20709 124.815 5.65513 125.271 5.20603H125.996L124.905 6.55332C125.176 6.49813 125.532 6.49813 125.849 6.5734C125.774 6.59598 125.677 6.55834 124.785 6.64616C124.631 6.6587 121.537 9.94038 121.537 10.1913C121.537 10.392 121.679 10.392 121.809 10.392C122.466 10.392 125.253 7.98843 125.253 7.71998C125.253 7.59453 125.104 7.44651 125.104 7.32106C125.104 7.12035 125.283 6.94723 125.45 6.94723C125.699 6.94723 125.796 7.14794 125.796 7.24579C125.796 7.48916 125.55 7.51174 125.448 7.6146C125.532 7.64722 125.647 7.74507 125.771 7.74507C125.896 7.74507 126.217 7.59453 126.342 7.59453C126.466 7.59453 126.738 7.8931 126.738 8.01854C126.738 8.08127 124.805 10.0106 124.805 10.2164C124.805 10.4221 124.959 10.392 125.054 10.392C125.903 10.392 128.81 7.65224 129.034 7.45403H129.759C129.316 7.99847 127.53 9.90526 127.53 10.2164C127.53 10.3418 127.654 10.392 127.779 10.392C128.207 10.392 129.6 9.29559 129.816 9.03466C130.437 8.27947 131.929 7.34615 132.76 7.34615C133.114 7.34615 133.331 7.49418 133.366 7.94829C133.49 7.85044 133.635 7.65475 133.841 7.45403H134.519C133.747 8.41746 132.833 9.20025 132.287 10.1235V10.3493C132.315 10.3418 132.29 10.392 132.414 10.392C132.539 10.392 133.137 9.92784 133.49 9.65938C134.619 8.80384 135.899 7.55188 136.92 6.51569C137.881 5.54223 140.94 1.95195 142.552 1.95195V1.95697ZM70.4813 7.49919C69.9906 7.49919 68.9669 8.62821 68.6506 8.88412C68.8149 8.85903 70.7303 8.37481 70.7303 7.725C70.7303 7.59955 70.6058 7.49919 70.4813 7.49919ZM59.0063 7.49919C58.5605 7.49919 57.5019 8.54793 57.2005 8.88412C57.3823 8.85903 59.2305 8.43502 59.2305 7.77266C59.2305 7.64722 59.1308 7.49919 59.0063 7.49919ZM43.3444 7.49919C42.7491 7.49919 40.4949 9.3282 40.4949 10.121C40.4949 10.3268 40.5447 10.3945 40.8411 10.3945C40.9657 10.3945 41.2098 10.3117 41.4215 10.2239C41.8424 10.0483 43.718 8.50276 43.718 7.87302C43.718 7.70994 43.6308 7.49919 43.3468 7.49919H43.3444ZM67.5945 6.60351C67.5696 6.84185 67.1611 7.08773 67.1611 7.32357C67.1611 7.44901 67.3105 8.24685 67.3105 8.3723C67.3105 8.49774 67.2607 8.97695 67.2109 9.28053V9.35078C67.6019 9.24792 68.0727 8.66083 68.5061 8.26692C68.927 7.88557 70.023 7.34866 70.4813 7.34866C70.7851 7.34866 70.8275 7.56191 70.8275 7.72249C70.8275 8.72104 68.531 9.03466 68.4388 9.1024C67.993 9.42605 67.8535 9.70705 67.8535 10.0182C67.8535 10.3669 68.0777 10.392 68.2744 10.392C68.8872 10.392 70.546 9.14254 71.0193 8.85402C70.4688 9.51637 68.9993 10.5425 68.2246 10.5425C67.1835 10.5425 67.7414 9.34326 67.5546 9.34326C67.4301 9.34326 67.4027 9.47121 67.2931 9.52139C67.0515 9.62676 66.5533 10.0432 66.3541 10.1687C66.0128 10.382 65.4624 10.54 65.0763 10.54C64.6902 10.54 64.2842 10.4597 64.2842 9.99056C64.2842 9.692 64.4636 9.54146 64.6305 9.54146C64.8895 9.54146 64.9269 9.86511 64.9269 9.8902C64.9269 10.1336 64.7749 10.0909 64.5308 10.264C64.6579 10.3569 64.7899 10.3895 64.877 10.3895C65.1934 10.3895 65.3179 10.2364 65.684 10.0558C66.3292 9.72461 66.9593 8.3171 66.9618 7.67482V7.48163C66.9618 7.48163 67.0091 7.44399 66.8871 7.44399C66.8572 7.44399 63.4 10.54 62.7723 10.54C62.4062 10.54 62.3514 10.2791 62.3514 10.0407C62.3514 9.01208 64.0376 8.1189 64.0376 7.71998C64.0376 7.5569 63.8957 7.49417 63.7911 7.49417C62.862 7.49417 60.6104 9.92282 60.0076 10.4321H59.233C59.751 9.79486 61.7088 8.02607 61.7088 7.6698C61.7088 7.54435 61.659 7.61962 61.6664 7.53683C61.6341 7.54435 61.659 7.49417 61.5344 7.49417C60.8968 7.49417 58.2566 10.54 56.7272 10.54C56.2689 10.54 56.0572 10.2214 56.0572 9.81493C56.0572 9.68949 56.107 9.51637 56.1195 9.33824C55.6687 9.69701 54.8542 10.54 54.2713 10.54C53.8753 10.54 53.7259 10.2841 53.7259 10.0156C53.7259 9.02964 55.4121 8.3171 55.4121 7.74507C55.4121 7.54435 55.2577 7.49417 55.188 7.49417C54.5304 7.49417 51.6237 10.2465 51.4294 10.4321H50.6049C50.717 10.2916 52.9836 8.21925 52.9836 7.74507C52.9836 7.61962 52.884 7.49417 52.7595 7.49417C52.1467 7.49417 48.961 10.382 48.9037 10.4321H48.0793C48.3956 10.0934 50.458 8.29954 50.4605 7.87553V7.53683C50.4331 7.54435 50.458 7.49417 50.3334 7.49417C49.9125 7.49417 47.0182 10.54 45.9223 10.54C45.5263 10.54 45.4017 10.4096 45.4017 10.0407C45.4017 9.28053 46.6147 8.43502 47.0382 7.87553C46.951 7.84291 46.814 7.84543 46.6895 7.84543C46.5649 7.84543 46.4728 7.83288 46.3731 7.85797C46.3482 7.86299 43.4365 10.5425 42.9234 10.5425C42.6644 10.5425 42.4776 10.3669 42.4776 10.1687C42.4776 10.0432 42.5772 9.76977 42.5896 9.54146C41.9396 10.0884 41.3617 10.5425 40.7913 10.5425C40.2209 10.5425 40.196 10.2063 40.196 9.86762C40.196 8.47015 42.3779 7.39632 43.2696 7.39632C43.7404 7.39632 43.708 7.37626 43.8973 7.94829C44.1812 7.78019 44.2062 7.60708 44.5275 7.44901L45.0505 7.51676C44.9883 7.59955 42.8213 9.74719 42.8213 10.2465C42.8213 10.3719 42.8462 10.397 42.9707 10.397C43.2671 10.397 46.144 7.98091 46.144 7.75008C46.144 7.62464 45.9945 7.47661 45.9945 7.35117C45.9945 7.12034 46.1689 6.95225 46.3657 6.95225C46.5824 6.95225 46.687 7.14543 46.687 7.2759C46.687 7.40636 46.4777 7.54686 46.3407 7.62715C46.4329 7.70744 46.5649 7.75008 46.687 7.75008C46.809 7.75008 47.1079 7.59955 47.2324 7.59955C47.357 7.59955 47.6285 7.89811 47.6285 8.02356C47.6285 8.0913 45.6956 9.99558 45.6956 10.2465C45.6956 10.4773 45.9671 10.397 45.9671 10.397C47.0705 10.397 49.504 7.40134 50.3783 7.40134C50.712 7.40134 50.7494 7.67482 50.7494 7.87553C50.7494 8.00098 50.6 8.48269 50.4655 8.80383C51.0234 8.35474 52.1168 7.40134 52.7794 7.40134C53.0957 7.40134 53.275 7.54435 53.275 7.87553C53.275 8.00098 53.0733 8.43753 52.9114 8.74111C53.432 8.35724 54.5578 7.40134 55.2079 7.40134C55.574 7.40134 55.7035 7.65725 55.7035 7.92571C55.7035 8.76118 54.0671 9.70454 54.0671 10.1963C54.0671 10.4447 54.234 10.397 54.2664 10.397C55.3449 10.397 57.2403 7.40134 58.9515 7.40134C59.218 7.40134 59.3724 7.46909 59.3724 7.69991C59.3724 8.38735 58.0498 8.8791 57.7659 8.92928C57.4695 8.98448 57.1382 8.96943 56.8842 9.15509C56.4807 9.44863 56.3487 9.7773 56.3487 10.0458C56.3487 10.3644 56.5778 10.3945 56.7696 10.3945C58.1395 10.3945 60.5929 7.39884 61.5519 7.39884C61.8557 7.39884 61.9977 7.55439 61.9977 7.82285C61.9977 7.94829 61.8483 8.27696 61.786 8.55043C62.3464 8.02858 63.1734 7.39884 63.7562 7.39884C64.222 7.39884 64.3266 7.61209 64.3266 7.89811C64.3266 8.77122 62.5432 9.70705 62.5432 10.1687C62.5432 10.3694 62.6926 10.3945 62.7898 10.3945C63.527 10.3945 67.2906 6.82931 67.5845 6.60351H67.5945ZM109.342 0.258419C108.563 0.258419 107.021 1.47525 106.421 1.99209C107.243 1.7989 108.04 1.56056 108.832 1.16665C108.857 1.15411 109.639 0.775259 109.639 0.481714C109.639 0.356268 109.464 0.255912 109.342 0.255912V0.258419ZM109.317 0.0602157C109.576 0.0602157 109.838 0.228313 109.838 0.459135C109.838 0.858055 109.467 1.0663 109.033 1.33475C108.134 1.88923 106.886 1.92937 106.007 2.36592C105.641 2.54657 105.372 3.00068 105.155 3.29423C104.684 3.94404 104.221 4.64152 103.818 5.28882C103.26 6.182 102.704 7.25834 101.733 8.21926C100.154 9.77981 98.3953 10.5425 96.729 10.5425C96.1412 10.5425 94.0763 10.2992 94.0763 9.17014C94.0763 8.77122 94.4051 8.44506 94.7961 8.44506C95.0676 8.44506 95.3167 8.58807 95.3167 8.91925C95.3167 9.19272 95.1797 9.44361 94.846 9.44361C94.7214 9.44361 94.5869 9.34075 94.4175 9.24039V9.51135C94.4225 9.6368 94.5969 9.78232 94.7588 9.87766C95.633 10.402 95.7875 10.2916 96.5297 10.2916C100.6 10.2916 101.611 6.08667 105.676 2.33832C105.594 2.35338 104.039 2.42363 104.039 1.73116C104.039 1.60572 104.336 1.15662 104.336 1.03117C104.336 0.368813 102.59 0.356268 102.552 0.356268C101.661 0.356268 99.2322 0.767734 99.2322 2.47882C99.2322 3.35193 100.049 3.70318 100.644 3.70318C101.449 3.70318 102.769 2.98814 103.536 2.21288C102.59 3.33437 101.661 3.90389 100.669 3.90389C99.6781 3.90389 99.0329 3.32433 99.0329 2.45624C99.0329 0.659851 101.481 0.160571 102.503 0.160571C102.998 0.160571 104.782 0.336198 104.782 1.33475C104.782 1.4602 104.632 1.73367 104.632 1.85912C104.632 2.22793 105.29 2.1075 105.352 2.1075C105.477 2.1075 105.765 2.15517 105.932 2.04227C106.565 1.6308 108.411 0.0602157 109.317 0.0602157ZM40.4202 0.0100379C40.5447 0.0100379 41.3791 0.0426532 41.8623 0.122939C42.2086 0.178135 42.617 0.306089 43.0081 0.474188C43.703 0.780277 44.2859 1.55805 44.4851 1.55805C44.5773 1.55805 45.6633 0.672392 46.3407 0.524365C45.7853 0.905723 45.1427 1.30213 44.5574 1.73618C44.9658 2.22291 45.1028 2.91789 45.1028 3.4548C45.1028 4.6917 43.982 5.80064 42.8238 5.80064C42.4651 5.80064 42.0317 5.66266 42.0317 5.17592C42.0317 4.37808 43.1027 3.86124 43.7902 3.653L44.1638 3.73078C43.7304 3.77845 42.2808 4.34798 42.2808 5.15083C42.2808 5.339 42.4103 5.49957 42.6021 5.49957C43.8973 5.49957 44.7093 3.62791 44.7093 2.85265C44.7093 2.47129 44.6869 2.3333 44.4303 1.8541C41.0802 3.99171 40.5796 8.30707 37.0103 9.85257C36.0065 10.2891 35.0177 10.54 34.0264 10.54C33.5008 10.54 31.0275 10.3845 31.0275 8.91674C31.0275 8.52284 31.3563 8.19166 31.7473 8.19166C32.0138 8.19166 32.3675 8.44255 32.3675 8.7662C32.3675 9.08985 32.1185 9.34075 31.8221 9.34075C31.8046 9.34075 31.4758 9.19774 31.4758 9.29057C31.4758 9.64684 32.3127 10.0458 32.3999 10.0708C32.8532 10.2264 33.451 10.3368 33.9791 10.3368C34.3826 10.3368 35.4959 10.0884 35.8546 9.97049C37.5708 9.40347 39.4413 6.87698 40.5647 5.3666C41.3941 4.25013 42.9732 2.77738 44.1763 1.78636C44.2261 1.75374 44.2659 1.80141 44.2659 1.67597C44.2659 1.13906 42.3331 0.434047 42.2534 0.413976C41.7577 0.296056 41.2147 0.253401 40.7216 0.203223C39.9793 0.253401 39.9295 0.203223 39.8822 0.203223C39.6879 0.253401 39.4837 0.28351 39.2844 0.28351C37.0776 0.301073 33.2119 2.73724 33.2119 4.86983C33.2119 6.15441 34.3402 6.64114 35.2942 6.64114C36.3901 6.64114 40.2508 5.14331 40.2508 3.09602C40.2508 2.27811 39.4089 2.04729 38.9133 2.04729C37.2594 2.04729 35.7724 3.46232 34.2705 5.1408C34.2555 5.06804 34.3054 4.96266 34.3178 4.90747C35.6952 3.06842 37.4636 1.84657 38.9631 1.84657C39.663 1.84657 40.4999 2.17775 40.4999 3.04584C40.4999 5.6476 36.6467 6.88952 35.3191 6.88952C34.0687 6.88952 32.9653 6.07161 32.9653 4.86733C32.9653 4.25013 33.4734 3.27917 33.9442 2.7548C35.8098 0.664865 38.3429 0 40.4252 0L40.4202 0.0100379Z" fill="var(--fill-0, #1D1D1B)"/>
<path id="Vector_2" fill-rule="evenodd" clip-rule="evenodd" d="M16.6034 5.65262C16.718 5.81319 16.8674 5.96373 16.9721 6.12681C16.8699 6.28989 16.6682 6.49311 16.5013 6.65117C16.3842 6.54329 16.1302 6.27734 16.1302 6.1519C16.1302 6.02645 16.3867 5.80817 16.6059 5.65262H16.6034Z" fill="var(--fill-0, #1D1D1B)"/>
<path id="Vector_3" fill-rule="evenodd" clip-rule="evenodd" d="M140.87 5.60244C140.987 5.76301 141.239 5.97627 141.239 6.10172C141.239 6.22717 140.935 6.44293 140.768 6.60099C140.601 6.44293 140.397 6.25225 140.397 6.12681C140.397 6.00136 140.701 5.7605 140.87 5.60244Z" fill="var(--fill-0, #1D1D1B)"/>
<path id="Vector_4" fill-rule="evenodd" clip-rule="evenodd" d="M92.5918 5.65011C92.7163 5.65011 92.8608 5.96122 92.9629 6.12681L92.4922 6.59849C92.3751 6.4906 92.1733 6.28738 92.0712 6.12179C92.2281 5.9562 92.4673 5.65011 92.5918 5.65011Z" fill="var(--fill-0, #1D1D1B)"/>
<path id="Vector_5" fill-rule="evenodd" clip-rule="evenodd" d="M130.857 5.65011C130.982 5.65011 131.229 5.99885 131.229 6.1243C131.229 6.24974 130.925 6.44042 130.758 6.59849C130.591 6.44042 130.387 6.24974 130.387 6.1243C130.387 5.99885 130.733 5.65011 130.857 5.65011Z" fill="var(--fill-0, #1D1D1B)"/>
<path id="Vector_6" fill-rule="evenodd" clip-rule="evenodd" d="M81.5303 11.5536C80.9774 12.1909 79.3235 13.9898 78.5115 13.9898C78.3496 13.9898 78.1653 13.9221 78.1653 13.7163C78.1653 13.478 78.4592 13.1719 78.7207 12.9787C79.5701 12.3364 80.5739 11.8898 81.5328 11.5561L81.5303 11.5536ZM19.032 7.59955C19.2686 7.59955 19.3284 7.9232 19.3284 7.94829C19.3284 8.98448 17.2959 10.4447 16.601 10.4447C16.3046 10.4447 16.2548 10.244 16.2548 10.1461C16.2548 9.31566 18.5338 7.59955 19.0295 7.59955H19.032ZM27.7546 7.54937C28.0012 7.54937 28.0012 7.67482 28.0012 7.77518C28.0012 8.37983 26.1406 8.87409 25.9712 8.88412C26.4121 8.51782 27.2839 7.55188 27.7546 7.55188V7.54937ZM132.813 7.49919C133.079 7.49919 133.234 7.59202 133.234 7.82285C133.234 8.77122 130.743 10.3945 130.31 10.3945C130.013 10.3945 129.963 10.2766 129.963 10.121C129.963 9.3282 132.217 7.49919 132.813 7.49919ZM111.3 7.49919C111.584 7.49919 111.671 7.67984 111.671 7.87302C111.671 8.7085 109.305 10.3945 108.772 10.3945C108.513 10.3945 108.451 10.2766 108.451 10.121C108.451 9.40849 110.575 7.49919 111.3 7.49919ZM84.31 7.49919C84.5466 7.49919 84.706 7.6422 84.706 7.82285C84.706 7.94829 84.4719 8.26943 84.2677 8.53789C83.9638 8.93179 82.2775 10.3945 81.6823 10.3945C81.4531 10.3945 81.2862 10.2139 81.2862 10.0458C81.2862 9.92031 81.4631 9.6644 81.5702 9.50634C81.9288 8.9895 83.6649 7.49919 84.31 7.49919ZM80.9649 7.49919C81.1891 7.49919 81.1891 7.71747 81.1891 7.75008C81.1891 8.287 79.6348 8.84899 79.4231 8.83896H79.1566C79.463 8.56047 80.5191 7.49919 80.9649 7.49919ZM76.3794 7.49919C76.6086 7.49919 76.7754 7.68736 76.7754 7.84793C76.7754 8.81638 74.2722 10.3945 73.8762 10.3945C73.6769 10.3945 73.5051 10.3443 73.5051 10.1461C73.5051 9.31566 75.7468 7.49919 76.3794 7.49919ZM70.4813 7.49919C70.6058 7.49919 70.7303 7.59955 70.7303 7.725C70.7303 8.37481 68.8149 8.85903 68.6506 8.88412C68.9694 8.62821 69.9931 7.49919 70.4813 7.49919ZM59.0063 7.49919C59.1308 7.49919 59.2305 7.64973 59.2305 7.77266C59.2305 8.43502 57.3848 8.85903 57.2005 8.88412C57.5019 8.54793 58.5605 7.49919 59.0063 7.49919ZM43.3444 7.49919C43.6283 7.49919 43.7155 7.71245 43.7155 7.87302C43.7155 8.50276 41.8424 10.0483 41.419 10.2239C41.2073 10.3117 40.9632 10.3945 40.8386 10.3945C40.5422 10.3945 40.4924 10.3268 40.4924 10.121C40.4924 9.3282 42.7466 7.49919 43.3419 7.49919H43.3444ZM67.5945 6.60351C67.5696 6.84185 67.1611 7.08773 67.1611 7.32357C67.1611 7.44901 67.3105 8.24685 67.3105 8.3723C67.3105 8.49774 67.2607 8.97695 67.2109 9.28053V9.35078C67.6019 9.24792 68.0727 8.66083 68.5061 8.26692C68.927 7.88557 70.023 7.34866 70.4813 7.34866C70.7851 7.34866 70.8275 7.56191 70.8275 7.72249C70.8275 8.72104 68.531 9.03466 68.4388 9.1024C67.993 9.42605 67.8535 9.70705 67.8535 10.0182C67.8535 10.3669 68.0777 10.392 68.2744 10.392C68.8872 10.392 70.546 9.14254 71.0193 8.85402C70.4688 9.51637 68.9993 10.5425 68.2246 10.5425C67.1835 10.5425 67.7414 9.34326 67.5546 9.34326C67.4301 9.34326 67.4027 9.47121 67.2931 9.52139C67.0515 9.62676 66.5533 10.0432 66.3541 10.1687C66.0128 10.382 65.4624 10.54 65.0763 10.54C64.6902 10.54 64.2842 10.4597 64.2842 9.99056C64.2842 9.692 64.4636 9.54146 64.6305 9.54146C64.8895 9.54146 64.9269 9.86511 64.9269 9.8902C64.9269 10.1336 64.7749 10.0909 64.5308 10.264C64.6579 10.3569 64.7899 10.3895 64.877 10.3895C65.1934 10.3895 65.3179 10.2364 65.684 10.0558C66.3292 9.72461 66.9593 8.3171 66.9618 7.67482V7.48163C66.9618 7.48163 67.0091 7.44399 66.8871 7.44399C66.8572 7.44399 63.4 10.54 62.7723 10.54C62.4062 10.54 62.3514 10.2791 62.3514 10.0407C62.3514 9.01208 64.0376 8.1189 64.0376 7.71998C64.0376 7.5569 63.8957 7.49417 63.7911 7.49417C62.862 7.49417 60.6104 9.92282 60.0076 10.4321H59.233C59.751 9.79486 61.7088 8.02607 61.7088 7.6698C61.7088 7.54435 61.659 7.61962 61.6664 7.53683C61.6341 7.54435 61.659 7.49417 61.5344 7.49417C60.8968 7.49417 58.2566 10.54 56.7272 10.54C56.2689 10.54 56.0572 10.2214 56.0572 9.81493C56.0572 9.68949 56.107 9.51637 56.1195 9.33824C55.6687 9.69701 54.8542 10.54 54.2713 10.54C53.8753 10.54 53.7259 10.2841 53.7259 10.0156C53.7259 9.02964 55.4121 8.3171 55.4121 7.74507C55.4121 7.54435 55.2577 7.49417 55.188 7.49417C54.5304 7.49417 51.6237 10.2465 51.4294 10.4321H50.6049C50.717 10.2916 52.9836 8.21925 52.9836 7.74507C52.9836 7.61962 52.884 7.49417 52.7595 7.49417C52.1467 7.49417 48.961 10.382 48.9037 10.4321H48.0793C48.3956 10.0934 50.458 8.29954 50.4605 7.87553V7.53683C50.4331 7.54435 50.458 7.49417 50.3334 7.49417C49.9125 7.49417 47.0182 10.54 45.9223 10.54C45.5263 10.54 45.4017 10.4096 45.4017 10.0407C45.4017 9.28053 46.6147 8.43502 47.0382 7.87553C46.951 7.84291 46.814 7.84543 46.6895 7.84543C46.5649 7.84543 46.4728 7.83288 46.3731 7.85797C46.3482 7.86299 43.4365 10.5425 42.9234 10.5425C42.6644 10.5425 42.4776 10.3669 42.4776 10.1687C42.4776 10.0432 42.5772 9.76977 42.5896 9.54146C41.9396 10.0884 41.3617 10.5425 40.7913 10.5425C40.2209 10.5425 40.196 10.2063 40.196 9.86762C40.196 8.47015 42.3779 7.39632 43.2696 7.39632C43.7404 7.39632 43.708 7.37626 43.8973 7.94829C44.1812 7.78019 44.2062 7.60708 44.5275 7.44901L45.0505 7.51676C44.9883 7.59955 42.8213 9.74719 42.8213 10.2465C42.8213 10.3719 42.8462 10.397 42.9707 10.397C43.2671 10.397 46.144 7.98091 46.144 7.75008C46.144 7.62464 45.9945 7.47661 45.9945 7.35117C45.9945 7.12034 46.1689 6.95225 46.3657 6.95225C46.5824 6.95225 46.687 7.14543 46.687 7.2759C46.687 7.40636 46.4777 7.54686 46.3407 7.62715C46.4329 7.70744 46.5649 7.75008 46.687 7.75008C46.809 7.75008 47.1079 7.59955 47.2324 7.59955C47.357 7.59955 47.6285 7.89811 47.6285 8.02356C47.6285 8.0913 45.6956 9.99558 45.6956 10.2465C45.6956 10.4773 45.9671 10.397 45.9671 10.397C47.0705 10.397 49.504 7.40134 50.3783 7.40134C50.712 7.40134 50.7494 7.67482 50.7494 7.87553C50.7494 8.00098 50.6 8.48269 50.4655 8.80383C51.0234 8.35474 52.1168 7.40134 52.7794 7.40134C53.0957 7.40134 53.275 7.54435 53.275 7.87553C53.275 8.00098 53.0733 8.43753 52.9114 8.74111V8.80383C53.432 8.35724 54.5578 7.40385 55.2079 7.40385C55.574 7.40385 55.7035 7.65976 55.7035 7.92822C55.7035 8.76369 54.0671 9.70705 54.0671 10.1988C54.0671 10.4472 54.234 10.3995 54.2664 10.3995C55.3449 10.3995 57.2403 7.40385 58.9515 7.40385C59.218 7.40385 59.3724 7.47159 59.3724 7.70241C59.3724 8.38986 58.0498 8.88161 57.7659 8.93179C57.4695 8.98699 57.1382 8.97193 56.8842 9.15759C56.4807 9.45114 56.3487 9.77981 56.3487 10.0483C56.3487 10.3669 56.5778 10.397 56.7696 10.397C58.1395 10.397 60.5929 7.40134 61.5519 7.40134C61.8557 7.40134 61.9977 7.5569 61.9977 7.82535C61.9977 7.9508 61.8483 8.27947 61.786 8.55294C62.3464 8.03108 63.1734 7.40134 63.7562 7.40134C64.222 7.40134 64.3266 7.6146 64.3266 7.90062C64.3266 8.77373 62.5432 9.70956 62.5432 10.1712C62.5432 10.3719 62.6926 10.397 62.7898 10.397C63.527 10.397 67.2906 6.83182 67.5845 6.60601L67.5945 6.60351ZM142.552 2.05732C142.801 2.05732 142.898 2.25804 142.898 2.35589C142.898 2.70463 142.507 3.2039 142.178 3.52755C140.89 4.78704 139.339 5.67269 137.896 6.28989C138.233 5.84832 141.344 2.05481 142.552 2.05481V2.05732ZM94.2731 2.05732C94.44 2.05732 94.6193 2.25051 94.6193 2.38098C94.6193 3.61788 90.5892 5.88093 90.5892 5.88093C90.2928 5.99885 89.9466 6.19957 89.568 6.34007C90.0911 5.77054 93.1199 2.05732 94.2731 2.05732ZM142.552 1.95697C142.93 1.95697 142.997 2.24298 142.997 2.40606C142.997 4.24762 137.859 6.54078 137.533 6.70888C137.478 6.73899 134.87 9.51888 134.87 10.0934C134.87 10.3443 135.124 10.392 135.216 10.392C135.866 10.392 138.967 7.52177 139.05 7.45403H139.725C139.468 7.84041 137.595 9.77479 137.595 10.1913C137.595 10.392 137.757 10.392 137.819 10.392C138.223 10.392 139.944 8.97193 140.17 8.85652C139.667 9.24039 138.434 10.5425 137.747 10.5425C137.351 10.5425 137.301 10.2816 137.301 10.0432C137.301 9.43107 137.929 9.00204 138.277 8.33968C138.018 8.57051 135.827 10.5425 135.147 10.5425C134.688 10.5425 134.576 10.1863 134.576 9.9178C134.576 9.36834 135.027 8.81638 135.431 8.24685V8.19417C134.987 8.5981 132.76 10.545 132.419 10.545C132.028 10.545 131.998 10.264 131.998 10.0959C131.998 9.97049 132.098 9.7221 132.11 9.49379C131.585 9.87264 130.865 10.545 130.237 10.545C129.687 10.545 129.625 10.0432 129.679 9.34326C129.246 9.64182 128.205 10.545 127.734 10.545C127.375 10.545 127.238 10.264 127.238 10.0959C127.238 9.42103 127.806 9.13501 128.242 8.3999V8.3447C127.866 8.66083 125.806 10.545 125.032 10.545C124.636 10.545 124.511 10.3142 124.511 10.0458C124.511 9.35831 125.502 8.5128 126.147 7.87804C126.063 7.84543 125.898 7.84793 125.776 7.84793C125.654 7.84793 125.525 7.80026 125.443 7.85546C125.064 8.11639 122.591 10.5425 121.786 10.5425C121.261 10.5425 121.241 10.244 121.241 9.99307C121.241 9.06226 122.683 8.13646 123.335 7.29597V7.24328C122.426 7.91567 121.295 9.07982 120.284 9.55401C120.135 9.62175 119.953 9.8626 119.744 10.0207C119.186 10.4196 118.688 10.5425 118.217 10.5425C117.858 10.5425 117.425 10.392 117.425 9.94289C117.425 9.7497 117.636 9.54397 117.796 9.54397C118.013 9.54397 118.117 9.86762 118.117 9.89271C118.117 10.0608 117.836 10.1561 117.671 10.2665C117.808 10.3468 117.943 10.392 118.067 10.392C118.668 10.392 119.402 9.67444 119.739 9.10491C119.888 8.849 120.15 7.93825 120.15 7.56944C120.15 7.44399 120.107 7.43647 120.075 7.39382C119.868 7.58199 116.588 10.54 115.963 10.54C115.671 10.54 115.492 10.3468 115.492 10.0658C115.492 9.692 115.813 9.39344 115.803 9.19021C115.054 9.77981 114.369 10.54 113.706 10.54C113.31 10.54 113.161 10.1712 113.161 9.96547C113.161 9.34827 114.11 8.56047 114.187 8.33968C113.696 8.74362 111.791 10.54 110.979 10.54C110.583 10.54 110.533 10.3393 110.533 10.0909C110.533 9.96547 110.583 9.71709 110.595 9.48877C110.132 9.86762 109.225 10.54 108.697 10.54C108.239 10.54 108.102 10.0834 108.102 9.81493C108.102 9.68949 108.152 9.51637 108.164 9.33824C107.96 9.48626 106.769 10.54 106.294 10.54C106.034 10.54 105.873 10.2665 105.873 10.0658C105.873 8.97444 107.609 8.149 107.609 7.69489C107.609 7.43396 107.342 7.49417 107.337 7.49417C106.358 7.49417 104.142 9.98052 103.529 10.4321H102.754C102.931 10.1938 105.23 8.006 105.23 7.64471C105.23 7.51926 105.18 7.49417 105.056 7.49417C104.764 7.49417 103.088 8.88914 103.061 8.90419L102.951 8.87158C103.158 8.69344 104.692 7.34615 105.108 7.34615C105.454 7.34615 105.529 7.65224 105.529 7.82033C105.529 8.05868 105.489 8.13897 105.265 8.53538V8.5981C105.868 8.10134 106.774 7.34615 107.362 7.34615C107.658 7.34615 107.908 7.60707 107.908 7.87051C107.908 8.70599 106.124 9.64182 106.124 10.1411C106.124 10.3719 106.291 10.3895 106.323 10.3895C106.448 10.3895 106.687 10.2314 106.879 10.106C108.72 8.88161 109.502 7.34364 111.255 7.34364C111.751 7.34364 111.748 7.6974 111.855 8.04363L116.648 3.05839H117.325C116.844 3.63544 110.735 9.99056 110.735 10.2389C110.735 10.4196 111.006 10.3895 111.006 10.3895C111.713 10.3895 114.934 7.44399 115.126 7.45152H115.836C115.626 7.7275 113.459 9.81493 113.459 10.1411C113.459 10.3719 113.731 10.3895 113.756 10.3895C114.623 10.3895 116.874 7.88808 117.34 7.45152H118.115C117.771 7.8956 115.788 9.97802 115.788 10.2139C115.788 10.3769 115.955 10.3895 115.988 10.3895C116.65 10.3895 120.314 6.96981 120.787 6.59849V6.78164C120.64 6.9397 120.349 7.19561 120.349 7.32106C120.349 7.44651 120.498 8.26943 120.498 8.39488C120.498 8.65079 120.349 9.20526 120.349 9.26799C120.349 9.39343 120.341 9.3006 120.376 9.34326C121.5 8.6533 122.638 7.58951 123.769 6.67124C123.634 6.56587 123.266 6.73648 123.126 6.51067C123.445 6.49813 123.769 6.6311 124.028 6.48307C124.506 6.2096 124.815 5.65764 125.271 5.20854H125.996L124.905 6.55584C125.176 6.50064 125.532 6.50064 125.849 6.57591C125.774 6.59849 125.677 6.56085 124.785 6.64866C124.631 6.66121 121.537 9.94289 121.537 10.1938C121.537 10.3945 121.679 10.3945 121.809 10.3945C122.466 10.3945 125.253 7.99094 125.253 7.72249C125.253 7.59704 125.104 7.44901 125.104 7.32357C125.104 7.12285 125.283 6.94974 125.45 6.94974C125.699 6.94974 125.796 7.15045 125.796 7.2483C125.796 7.49166 125.55 7.51425 125.448 7.61711C125.532 7.64973 125.647 7.74758 125.771 7.74758C125.896 7.74758 126.217 7.59704 126.342 7.59704C126.466 7.59704 126.738 7.8956 126.738 8.02105C126.738 8.08377 124.805 10.0131 124.805 10.2189C124.805 10.4246 124.959 10.3945 125.054 10.3945C125.903 10.3945 128.81 7.65475 129.034 7.45654H129.759C129.316 8.00098 127.53 9.90776 127.53 10.2189C127.53 10.3443 127.654 10.3945 127.779 10.3945C128.207 10.3945 129.6 9.2981 129.816 9.03717C130.437 8.28198 131.929 7.34866 132.76 7.34866C133.114 7.34866 133.331 7.49668 133.366 7.9508C133.49 7.85295 133.635 7.65725 133.841 7.45654H134.519C133.747 8.41997 132.833 9.20276 132.287 10.126V10.3518C132.315 10.3443 132.29 10.3945 132.414 10.3945C132.539 10.3945 133.137 9.93035 133.49 9.66189C134.619 8.80635 135.899 7.55439 136.92 6.5182C137.881 5.54473 140.94 1.95446 142.552 1.95446V1.95697ZM94.2482 1.95697C94.5819 1.95697 94.7189 2.11252 94.7189 2.40606C94.7189 3.49745 92.1211 5.23614 91.4834 5.57986C90.796 5.94867 90.0587 6.23469 89.4011 6.60852C89.177 6.73397 86.5891 9.47121 86.5891 10.1185C86.5891 10.387 86.8481 10.392 86.9104 10.392C87.7099 10.392 90.3701 7.80277 90.7686 7.45403H91.4436C91.1621 7.88557 89.314 9.77479 89.314 10.1913C89.314 10.4397 89.4809 10.392 89.5132 10.392C90.0388 10.392 91.5158 8.99703 91.8869 8.85402C91.5308 9.23537 90.0811 10.54 89.4634 10.54C89.0973 10.54 88.9678 10.259 88.9678 10.0909C88.9678 9.49128 89.6154 8.97946 89.9715 8.39488V8.33968C89.5531 8.65832 87.6053 10.54 86.8606 10.54C86.3948 10.54 86.2902 10.1837 86.2902 9.91529C86.2902 9.39845 86.6713 8.95939 87.0474 8.3447V8.28951C85.538 9.6644 83.9389 10.5751 82.4594 11.1999C82.0808 11.3554 81.8267 11.8447 81.5054 12.1131C80.7681 12.7303 79.3384 14.1353 78.4841 14.1353C78.1927 14.1353 78.0134 13.8543 78.0134 13.6862C78.0134 12.9611 79.7693 12.1357 80.0109 12.0228C80.6062 11.7418 81.3086 11.5938 81.8417 11.225C82.2576 10.9389 82.5789 10.4497 82.8703 10.0432V9.98805C82.3597 10.3242 82.011 10.54 81.6324 10.54C80.8404 10.54 81.0247 9.81744 81.0023 9.34075C80.4767 9.75723 79.3833 10.54 78.6834 10.54C78.2251 10.54 78.0134 10.2164 78.0134 9.82246C78.0134 9.69702 78.0632 9.51888 78.0532 9.34075C77.3085 9.89271 76.7007 10.54 76.0805 10.54C75.7144 10.54 75.5849 10.3845 75.5849 10.116C75.5849 9.99056 75.6347 9.76727 75.6496 9.48877C75.286 9.86511 74.2971 10.54 73.8264 10.54C73.3008 10.54 73.2062 10.2088 73.2062 9.84002C73.2062 8.35975 75.4977 7.34364 76.3545 7.34364C76.6036 7.34364 76.9299 7.56693 76.8751 7.92069C76.8751 7.96836 76.9174 8.00098 76.9498 8.04363L81.6972 3.09602C82.2502 3.05086 82.3025 3.10104 82.3747 3.11358C81.2788 4.33794 80.0832 5.58739 78.9798 6.76658C78.5763 7.20314 75.8339 9.8626 75.8339 10.264C75.8339 10.4647 76.0631 10.3895 76.083 10.3895C77.2985 10.3895 79.2114 7.34364 80.94 7.34364C81.1766 7.34364 81.336 7.52428 81.336 7.71747C81.336 8.64076 78.9748 9.04971 78.8951 9.09989C78.6784 9.23035 78.3122 9.85257 78.3122 10.0156C78.3122 10.3644 78.6585 10.3895 78.7581 10.3895C78.8826 10.3895 79.2139 10.2665 79.468 10.1536C79.9088 9.96045 80.534 9.55902 81.0471 9.12749C81.3012 8.91423 81.4755 8.56549 81.7919 8.30957C82.3622 7.8404 83.5553 7.34364 84.2602 7.34364C84.5093 7.34364 84.9227 7.50672 84.8904 7.8956L85.3163 7.45403H85.9938L82.7707 10.8561C82.8977 10.8411 82.9376 10.8436 82.9874 10.8235C84.5865 10.2189 86.4969 8.70097 87.9963 7.1655C89.3463 5.78057 92.6167 1.95195 94.2482 1.95195V1.95697ZM109.342 0.258419C109.467 0.258419 109.639 0.358779 109.639 0.484225C109.639 0.77777 108.857 1.15662 108.832 1.16916C108.04 1.56306 107.24 1.80141 106.421 1.9946C107.021 1.47776 108.563 0.260931 109.342 0.260931V0.258419ZM109.317 0.0602157C109.576 0.0602157 109.838 0.228313 109.838 0.459135C109.838 0.858055 109.467 1.0663 109.033 1.33475C108.134 1.88923 106.886 1.92937 106.007 2.36592C105.641 2.54657 105.372 3.00068 105.155 3.29423C104.684 3.94404 104.221 4.64152 103.818 5.28882C103.26 6.182 102.704 7.25834 101.733 8.21926C100.154 9.77981 98.3953 10.5425 96.729 10.5425C96.1412 10.5425 94.0763 10.2992 94.0763 9.17014C94.0763 8.77122 94.4051 8.44506 94.7961 8.44506C95.0676 8.44506 95.3167 8.58807 95.3167 8.91925C95.3167 9.19272 95.1797 9.44361 94.846 9.44361C94.7214 9.44361 94.5869 9.34075 94.4175 9.24039V9.51135C94.4225 9.6368 94.5969 9.78232 94.7588 9.87766C95.633 10.402 95.7875 10.2916 96.5297 10.2916C100.6 10.2916 101.611 6.08667 105.676 2.33832C105.594 2.35338 104.039 2.42363 104.039 1.73116C104.039 1.60572 104.336 1.15662 104.336 1.03117C104.336 0.368813 102.59 0.356268 102.552 0.356268C101.661 0.356268 99.2322 0.767734 99.2322 2.47882C99.2322 3.35193 100.049 3.70318 100.644 3.70318C101.449 3.70318 102.769 2.98814 103.536 2.21288C102.59 3.33437 101.661 3.90389 100.669 3.90389C99.6781 3.90389 99.0329 3.32433 99.0329 2.45624C99.0329 0.659851 101.481 0.160571 102.503 0.160571C102.998 0.160571 104.782 0.336198 104.782 1.33475C104.782 1.4602 104.632 1.73367 104.632 1.85912C104.632 2.22793 105.29 2.1075 105.352 2.1075C105.477 2.1075 105.765 2.15517 105.932 2.04227C106.565 1.6308 108.411 0.0602157 109.317 0.0602157ZM40.4202 0.0100379C40.5447 0.0100379 41.3791 0.0426532 41.8623 0.122939C42.2086 0.178135 42.617 0.306089 43.0081 0.474188C43.703 0.780277 44.2859 1.55805 44.4851 1.55805C44.5773 1.55805 45.6633 0.672392 46.3407 0.524365C45.7853 0.905723 45.1427 1.30213 44.5574 1.73618C44.9658 2.22291 45.1028 2.91789 45.1028 3.4548C45.1028 4.6917 43.982 5.80064 42.8238 5.80064C42.4651 5.80064 42.0317 5.66266 42.0317 5.17592C42.0317 4.37808 43.1027 3.86124 43.7902 3.653L44.1638 3.73078C43.7304 3.77845 42.2808 4.34798 42.2808 5.15083C42.2808 5.339 42.4103 5.49957 42.6021 5.49957C43.8973 5.49957 44.7093 3.62791 44.7093 2.85265C44.7093 2.47129 44.6869 2.3333 44.4303 1.8541C41.0802 3.99171 40.5796 8.30707 37.0103 9.85257C36.0065 10.2891 35.0177 10.54 34.0264 10.54C33.5008 10.54 31.0275 10.3845 31.0275 8.91674C31.0275 8.52284 31.3563 8.19166 31.7473 8.19166C32.0138 8.19166 32.3675 8.44255 32.3675 8.7662C32.3675 9.08985 32.1185 9.34075 31.8221 9.34075C31.8046 9.34075 31.4758 9.19774 31.4758 9.29057C31.4758 9.64684 32.3127 10.0458 32.3999 10.0708C32.8532 10.2264 33.451 10.3368 33.9791 10.3368C34.3826 10.3368 35.4959 10.0884 35.8546 9.97049C37.5708 9.40347 39.4413 6.87698 40.5647 5.3666C41.3941 4.25013 42.9732 2.77738 44.1763 1.78636C44.2261 1.75374 44.2659 1.80141 44.2659 1.67597C44.2659 1.13906 42.3331 0.434047 42.2534 0.413976C41.7577 0.296056 41.2147 0.253401 40.7216 0.203223C39.9793 0.253401 39.9295 0.203223 39.8822 0.203223C39.6879 0.253401 39.4837 0.28351 39.2844 0.28351C37.0776 0.301073 33.2119 2.73724 33.2119 4.86983C33.2119 6.15441 34.3402 6.64114 35.2942 6.64114C36.3901 6.64114 40.2508 5.14331 40.2508 3.09602C40.2508 2.27811 39.4089 2.04729 38.9133 2.04729C37.2594 2.04729 35.7724 3.46232 34.2705 5.1408C34.2555 5.06804 34.3054 4.96266 34.3178 4.90747C35.6952 3.06842 37.4636 1.84657 38.9631 1.84657C39.663 1.84657 40.4999 2.17775 40.4999 3.04584C40.4999 5.6476 36.6467 6.88952 35.3191 6.88952C34.0687 6.88952 32.9653 6.07161 32.9653 4.86733C32.9653 4.25013 33.4734 3.27917 33.9442 2.7548C35.8098 0.664865 38.3429 0 40.4252 0L40.4202 0.0100379ZM5.20321 0.0100379C6.16465 0.0100379 7.53208 0.308598 7.53208 1.70858C7.53208 2.20786 7.40007 2.65696 7.16345 3.09351C6.92185 3.55515 6.5034 4.07199 6.11982 4.47844C5.3701 5.26374 4.35386 6.14688 3.44224 6.97483C2.9416 7.43145 0.792064 9.07229 0.792064 9.84504C0.792064 10.2941 1.4297 10.3945 1.55922 10.3945C3.24547 10.3945 7.88577 5.89599 8.59315 5.1709C9.8211 3.92397 11.2085 2.66198 12.6033 1.31468H13.4277C12.282 2.49639 11.2857 3.55265 10.1324 4.72432C10.0577 4.79958 5.20072 9.51888 5.20072 10.1185C5.20072 10.4045 5.55939 10.3443 5.62166 10.3443C6.95921 10.3443 9.5247 7.39884 10.3068 7.39884C10.6032 7.39884 10.7526 7.67231 10.7526 7.87302C10.7526 8.07374 10.4936 8.47767 10.4886 8.64828C11.0067 8.15402 11.9607 7.39884 12.536 7.39884C12.9022 7.39884 13.1313 7.65475 13.1313 7.9232C13.1313 8.75867 11.3479 9.70203 11.3479 10.1938C11.3479 10.4321 11.5148 10.4422 11.5472 10.4422C12.0927 10.4422 15.0617 7.6974 15.2809 7.50421H16.0057C15.8986 7.6974 13.8761 9.89271 13.8761 10.2415C13.8761 10.4472 14.038 10.4422 14.1002 10.4422C14.6632 10.4422 16.4864 8.63323 16.5736 8.55294C16.8949 8.24183 17.2909 7.95582 17.6571 7.76263C18.0282 7.56192 18.7829 7.39884 18.9074 7.39884C19.3035 7.39884 19.428 7.64722 19.428 7.94829C19.428 8.49775 18.9821 8.81638 18.9821 9.02211C18.9821 9.14756 19.0569 9.19774 19.1814 9.19774C19.4355 9.19774 21.2512 7.40134 21.8341 7.40134C22.1006 7.40134 22.255 7.67482 22.255 7.87553C22.255 8.18664 22.0184 8.27696 21.991 8.65079C22.3546 8.24434 23.5427 7.40134 24.0384 7.40134C24.3971 7.40134 24.6337 7.66227 24.6337 7.90062C24.6337 8.78126 22.8503 9.69701 22.8503 10.1963C22.8503 10.3217 22.9001 10.4447 23.0247 10.4447C24.0783 10.4447 25.9438 7.39884 27.7347 7.39884C27.9514 7.39884 28.1556 7.47912 28.1556 7.74758C28.1556 8.73359 25.7695 9.12247 25.7147 9.15509C25.3859 9.3558 25.1319 9.8325 25.1319 10.0708C25.1319 10.3393 25.3685 10.4447 25.5279 10.4447C26.2228 10.4447 27.5803 9.42103 28.1706 8.91172C28.1706 8.91172 28.2304 8.89667 28.3524 8.91172C27.5504 9.56906 26.3772 10.5927 25.503 10.5927C25.0447 10.5927 24.833 10.1361 24.833 9.86762C24.833 9.74218 24.8828 9.51888 24.8952 9.34075C24.8155 9.41852 23.4057 10.5927 23.0471 10.5927C22.7058 10.5927 22.6012 10.1938 22.6012 10.0934C22.6012 8.90168 24.2875 8.26442 24.2875 7.74758C24.2875 7.5293 24.1505 7.54686 24.016 7.54686C23.1168 7.54686 20.2126 10.4923 20.1927 10.4848H19.4828C19.8265 10.0508 21.9586 8.07625 21.9586 7.67231C21.9586 7.54686 21.9088 7.54686 21.7843 7.54686C21.3633 7.54686 19.5102 9.34326 19.1565 9.34326C19.032 9.34326 18.9572 9.2429 18.8352 9.2429C18.6359 9.2429 17.4852 10.5902 16.581 10.5902C16.0854 10.5902 15.8687 10.0884 15.9733 9.38842C15.505 9.71959 14.6283 10.5902 14.0529 10.5902C13.6245 10.5902 13.5822 10.2716 13.5822 10.0909C13.5822 9.49128 14.1451 8.97695 14.5859 8.39237V8.33968C14.576 8.36728 12.1076 10.5902 11.5248 10.5902C11.2159 10.5902 11.1038 10.1913 11.1038 10.0909C11.1038 9.10992 12.8399 8.0637 12.8399 7.71998C12.8399 7.59453 12.6406 7.54435 12.5186 7.54435C11.6892 7.54435 8.78992 10.4898 8.69527 10.4823H7.9854C8.36151 10.0106 10.4612 7.98091 10.4612 7.69489C10.4612 7.56944 10.4114 7.54435 10.2869 7.54435C9.56206 7.54435 6.94177 10.5902 5.65155 10.5902C5.22314 10.5902 4.90681 10.3644 4.90681 9.96547C4.90681 9.18519 6.29417 7.93575 6.84712 7.18809C5.78356 8.00851 3.03625 10.5902 1.56171 10.5902C1.10341 10.5902 0.495663 10.259 0.495663 9.74218C0.495663 9.16763 0.991326 8.36477 1.4571 7.8655C2.26162 6.98486 3.22305 6.14186 4.17204 5.25621C5.126 4.37056 7.23817 2.72721 7.23817 1.50536C7.23817 0.283509 5.69639 0.258419 5.23061 0.258419C4.43855 0.258419 0.199261 1.06379 0.199261 3.17881C0.199261 3.99672 1.17813 4.20246 1.5368 4.20246C1.66134 4.20246 2.10221 4.13973 2.39861 4.08454C3.17324 3.934 4.19694 3.34691 4.96659 2.74226C5.42489 2.38599 5.8558 1.96449 6.22692 1.59066L6.34399 1.6283C4.87692 3.50999 3.32767 4.40568 1.71116 4.40568C1.05359 4.40568 0 4.19995 0 3.18133C0 0.935833 4.24925 0.0100379 5.20571 0.0100379H5.20321Z" fill="var(--fill-0, #1D1D1B)"/>
</g>
</svg>
