<svg preserveAspectRatio="none" width="100%" height="100%" overflow="visible" style="display: block;" viewBox="0 0 104 94" fill="none" xmlns="http://www.w3.org/2000/svg">
<g id="Universit&#195;&#160;diParma" clip-path="url(#clip0_4106_1353)">
<path id="Vector" d="M4.79389 75.4226C1.88971 75.4226 0 73.6456 0 70.4165V62.8312H2.29417V70.2972C2.29417 72.1803 3.12962 73.3671 4.81379 73.3671C6.49795 73.3671 7.36655 72.2532 7.36655 70.3502V62.8312H9.68061V70.3635C9.68061 73.6456 7.69808 75.4226 4.80052 75.4226" fill="var(--fill-0, #282828)"/>
<path id="Vector_2" d="M20.7338 75.2038L15.0845 66.6835V75.2038H12.9495V62.8246H15.1177L20.5083 70.9337V62.8246H22.6434V75.2038H20.7338Z" fill="var(--fill-0, #282828)"/>
<path id="Vector_3" d="M28.4517 62.8246H26.1377V75.2038H28.4517V62.8246Z" fill="var(--fill-0, #282828)"/>
<path id="Vector_4" d="M37.6947 75.2569H35.4337L31.0177 63.1296L33.4512 62.6986L36.6471 72.1935L39.7966 62.8246H42.1969L37.6947 75.2569Z" fill="var(--fill-0, #282828)"/>
<path id="Vector_5" d="M44.6966 75.2038V62.8246H51.6653V64.8336H46.9709V67.7444H50.5845L50.9028 69.7866H46.9709V73.1948H51.8377V75.2038H44.6966Z" fill="var(--fill-0, #282828)"/>
<g id="Group">
<path id="Vector_6" d="M58.1102 64.7275H56.8438V68.6595H58.0041C59.4297 68.6595 60.3182 67.9566 60.3182 66.6703C60.3182 65.384 59.5557 64.7342 58.1102 64.7342M63.3749 74.8856L61.0277 75.3364L57.898 70.4762H56.857V75.2104H54.5629V62.8312H58.2826C60.9614 62.8312 62.5726 64.1374 62.5726 66.5443C62.5726 68.3412 61.6509 69.4684 60.1723 70.0253L63.3682 74.8856H63.3749Z" fill="var(--fill-0, #282828)"/>
<path id="Vector_7" d="M69.0109 75.3497C67.5521 75.3497 66.299 75.0115 65.2381 74.4877L65.5829 72.3195C66.5907 72.9295 67.8439 73.4136 69.044 73.4136C70.1049 73.4136 70.8343 72.8964 70.8343 71.9084C70.8343 70.9934 70.4165 70.6155 68.6793 69.8463C66.352 68.8584 65.4105 68.0693 65.4105 66.1531C65.4105 63.965 67.0416 62.692 69.2893 62.692C70.642 62.692 71.5835 62.9771 72.4521 63.4478L72.1007 65.6028C71.2321 65.0126 70.2044 64.6347 69.2694 64.6347C68.1224 64.6347 67.6184 65.2116 67.6184 65.9608C67.6184 66.7101 68.003 67.1278 69.6673 67.8439C72.1338 68.8849 73.0356 69.7668 73.0356 71.683C73.0356 74.1031 71.3183 75.363 69.0042 75.363" fill="var(--fill-0, #282828)"/>
</g>
<path id="Vector_8" d="M78.2737 62.8246H75.9597V75.2038H78.2737V62.8246Z" fill="var(--fill-0, #282828)"/>
<path id="Vector_9" d="M86.8537 64.8867V75.2038H84.5462V64.8867H80.979V62.8246H90.2949L90.6265 64.8867H86.8537Z" fill="var(--fill-0, #282828)"/>
<path id="Vector_10" d="M97.8538 65.3574L99.4849 70.1314H96.216L97.8472 65.3574H97.8538ZM96.7266 62.7715L92.2244 75.2038H94.4987L95.5928 72.0609H100.128L101.275 75.3232L103.569 74.8922L99.1733 62.7649H96.7266V62.7715ZM94.7971 59.6353L97.2438 61.8631H98.6163L97.3499 59.1512L94.7971 59.6353Z" fill="var(--fill-0, #282828)"/>
<path id="Vector_11" d="M13.6921 83.26H12.2002V91.7272H13.6589C16.1786 91.7272 17.6903 90.4011 17.6903 87.4969C17.6903 84.5927 16.0924 83.26 13.6921 83.26ZM13.712 93.6832H9.90605V81.3039H13.712C17.8826 81.3039 20.0375 83.8368 20.0375 87.477C20.0375 91.1172 17.7964 93.6832 13.712 93.6832Z" fill="var(--fill-0, #282828)"/>
<path id="Vector_12" d="M25.4083 81.3039H23.0942V93.6832H25.4083V81.3039Z" fill="var(--fill-0, #282828)"/>
<path id="Vector_13" d="M36.8593 83.2069H35.7652V87.2051H36.7731C38.2517 87.2051 39.1203 86.5752 39.1203 85.1629C39.1203 83.87 38.3379 83.2069 36.8593 83.2069ZM36.7863 89.128H35.7586V93.6832H33.4644V81.3039H36.972C39.717 81.3039 41.3681 82.6102 41.3681 85.1099C41.3681 87.782 39.5248 89.128 36.7797 89.128" fill="var(--fill-0, #282828)"/>
<path id="Vector_14" d="M47.5278 83.8368L49.159 88.6108H45.8901L47.5212 83.8368H47.5278ZM46.4006 81.2509L41.8985 93.6832H44.1728L45.2668 90.5403H49.8021L50.9492 93.8092L53.2434 93.3782L48.8473 81.2509H46.4006Z" fill="var(--fill-0, #282828)"/>
<path id="Vector_15" d="M59.2971 83.2069H58.0306V87.1388H59.191C60.6166 87.1388 61.5051 86.436 61.5051 85.1497C61.5051 83.8633 60.7426 83.2135 59.2971 83.2135M64.5618 93.3649L62.2145 93.8158L59.0849 88.9556H58.0439V93.6898H55.7497V81.3106H59.4695C62.1482 81.3106 63.7595 82.6168 63.7595 85.0237C63.7595 86.8206 62.8378 87.9478 61.3592 88.5047L64.5551 93.3649H64.5618Z" fill="var(--fill-0, #282828)"/>
<path id="Vector_16" d="M76.4968 81.3039L73.4732 90.653L70.4298 81.3039H67.5123L66.5907 93.6832H68.6594L69.2694 84.6458L72.3129 93.723H74.3286L77.3521 84.6458L77.9953 93.6832H80.2894L79.3678 81.3039H76.4968Z" fill="var(--fill-0, #282828)"/>
<path id="Vector_17" d="M88.0737 83.8368L89.7048 88.6108H86.436L88.0671 83.8368H88.0737ZM86.9399 81.2509L82.4377 93.6832H84.712L85.8061 90.5403H90.3414L91.4884 93.8092L93.7826 93.3782L89.3866 81.2509H86.9399Z" fill="var(--fill-0, #282828)"/>
<g id="Group_2">
<path id="Vector_18" d="M58.329 50.0077V49.9679C58.329 49.9679 58.3224 49.9281 58.3158 49.9149C58.3158 49.9149 58.3158 49.9016 58.3158 49.895L58.1898 47.6472C58.1898 47.6472 58.1898 47.6008 58.1765 47.5809C58.1235 47.4151 57.5267 46.0028 53.3893 46.8316C52.0366 47.1035 50.863 47.4218 49.8286 47.7003C48.6948 48.0053 47.7864 48.2506 47.0438 48.3368L47.1234 47.8793C47.1366 47.8063 47.1234 47.7334 47.077 47.6737C47.0372 47.6141 46.9709 47.5809 46.9046 47.5743C45.1475 47.4151 44.9419 47.7268 44.8955 47.8793C44.8822 47.9124 44.869 47.9456 44.869 47.9854C44.869 48.1777 44.8358 48.9866 44.8491 49.9546C42.1372 49.0396 39.6574 47.6008 37.5223 45.7509L37.5555 43.8612L37.7411 33.7628C40.2342 33.2191 40.0751 31.3493 39.969 30.0961C39.9624 30.0033 39.9491 29.9171 39.9359 29.8309C39.9359 29.8309 39.9359 29.811 39.9359 29.8044C39.6839 28.5379 38.5567 27.9478 37.8605 27.7754V27.4505L37.9533 22.5572C40.0022 23.0478 41.189 24.4402 41.5802 26.8007C41.9847 29.2474 41.4344 31.2896 41.0299 32.7749C40.884 33.3053 40.7647 33.7628 40.6984 34.1673C40.4265 35.8514 40.4331 39.6043 42.4024 41.7659C42.7339 42.1306 43.1053 42.4356 43.5097 42.6743C44.7894 43.4368 45.9365 44.1131 46.9576 44.5441H46.9642C46.9642 44.5441 46.9642 44.5441 46.9709 44.5441C48.1246 44.9287 49.9281 45.2271 52.0433 45.3796C52.5008 45.4127 52.9649 45.4392 53.4224 45.4525H53.429C53.9462 45.4724 54.4501 45.479 54.9275 45.479C56.247 45.479 57.4074 45.4061 58.1633 45.2735C58.3489 45.2403 58.5014 45.2072 58.6274 45.174C60.5967 44.617 61.9493 43.5827 63.0367 42.7472C63.0566 42.734 63.0765 42.7207 63.0898 42.7074C66.8824 39.7767 68.1887 36.057 68.6793 34.6513L68.7456 34.4657C68.792 34.3264 68.7257 34.1805 68.5931 34.1275C68.4605 34.0744 68.3146 34.1474 68.2682 34.2866L68.2019 34.4723C67.7378 35.7851 66.5443 39.1999 63.1494 41.9913C63.1362 41.2819 63.1097 39.9093 63.0831 38.265C64.1042 37.6483 66.8095 35.6326 67.3665 31.4487C67.3864 31.3029 67.2869 31.1703 67.1477 31.157C67.0084 31.1371 66.8824 31.2366 66.8625 31.3824C66.3851 35.0359 64.1639 36.9322 63.0765 37.6616C63.0566 36.5941 63.0367 35.4403 63.0168 34.2866C66.1663 32.9738 67.0681 29.4596 67.4527 27.9478C67.4792 27.855 67.4991 27.7688 67.519 27.6892L67.8704 27.8019C67.8704 27.8019 67.9234 27.8152 67.95 27.8152C68.003 27.8152 68.0561 27.7953 68.1025 27.7622L69.1368 26.9864C69.1236 28.5843 69.2893 31.767 72.9759 34.2071C72.3659 36.541 71.3979 38.7291 70.1447 40.7116C69.8198 38.9545 70.085 36.9123 70.2707 35.5199C70.3171 35.1552 70.3635 34.8237 70.39 34.5452C70.4033 34.3993 70.3038 34.2734 70.1646 34.2601C70.0253 34.2468 69.8993 34.3529 69.8861 34.4922C69.8596 34.764 69.8198 35.0889 69.7667 35.447C69.5612 37.0052 69.2495 39.359 69.7535 41.3084C66.9952 45.3729 62.9903 48.4628 58.3158 49.9944M57.9643 52.7527C57.9113 52.8721 57.7721 53.018 57.5599 53.0246C57.1819 52.9981 55.4712 52.9119 54.9806 53.6014C54.8745 53.3097 54.8148 52.9914 54.7949 52.766C55.3585 52.6002 55.8492 52.4544 56.2404 52.3549C57.4936 52.03 57.8583 52.335 57.9378 52.4345C57.9577 52.4544 57.9643 52.4809 57.9776 52.5008L57.9909 52.6931C57.9909 52.6931 57.9776 52.7328 57.971 52.7461M55.4315 54.2314C55.4315 54.2314 55.3983 54.2115 55.3851 54.1982C55.3055 54.0125 55.3519 53.933 55.3718 53.9065C55.458 53.7738 55.6834 53.6744 55.9752 53.6147C56.0282 53.8733 56.1409 54.0523 56.2736 54.1849C55.9884 54.2844 55.6569 54.3507 55.4381 54.2314M45.5055 48.0782C45.7442 48.045 46.1553 48.0384 46.5863 48.0649L46.5333 48.3633C46.1553 48.3633 45.8569 48.2904 45.6116 48.1445C45.5718 48.118 45.532 48.0981 45.5055 48.0782ZM45.6978 53.4489C45.353 52.6665 45.3199 50.0541 45.353 48.5821C45.353 48.5821 45.3663 48.5887 45.3729 48.5954C45.7707 48.8274 46.2548 48.9136 46.9046 48.8672C47.7268 48.8076 48.7147 48.5423 49.9613 48.2042C50.989 47.9257 52.156 47.6074 53.4887 47.3422C56.9167 46.6526 57.6129 47.5875 57.7057 47.7334L57.8251 49.9281C57.8251 49.9281 57.8251 49.9679 57.8317 49.9812C57.8317 49.9812 57.8317 49.9944 57.8317 50.0011L57.9312 51.8245C57.5864 51.672 57.0228 51.6189 56.1144 51.8576C55.6569 51.977 55.0668 52.1494 54.3905 52.3483C51.5592 53.1904 46.8383 54.5894 45.6978 53.4489ZM32.6754 39.8828C32.9605 38.6562 33.0799 37.3765 33.0268 36.0702C33.0268 36.0702 33.0268 36.0702 33.0268 36.0636C33.0268 36.0504 33.0268 36.0437 33.0268 36.0305C33.0268 36.0305 33.0268 36.0238 33.0268 36.0172C32.9539 34.4855 32.6688 33.292 32.5096 32.6555C32.4698 32.503 32.4433 32.3837 32.4301 32.3041C32.4035 32.1648 32.2709 32.072 32.1383 32.1052C32.0057 32.1317 31.9195 32.2643 31.946 32.4035C31.9659 32.4964 31.9924 32.6224 32.0322 32.7815C32.1648 33.3451 32.4102 34.333 32.503 35.6061C30.9912 34.532 30.4674 32.629 30.3017 31.1636C30.0828 29.2673 30.368 27.2848 30.7393 26.1642C31.4753 23.943 33.849 22.9616 34.5187 22.7296C34.9497 23.1871 35.3807 23.2932 35.679 23.2932C35.7188 23.2932 35.752 23.2932 35.7918 23.2932C36.415 23.2401 37.025 22.7428 37.4428 22.0068V22.2522L37.3897 24.8513C36.3554 24.984 35.3144 25.395 34.2999 26.078C34.2999 26.078 34.2932 26.078 34.2932 26.0846C34.2866 26.0846 34.28 26.0979 34.2734 26.0979C34.2734 26.0979 34.2667 26.1045 34.2601 26.1111C32.7483 27.1455 31.6675 28.5247 31.157 29.2607C31.0774 29.3734 31.104 29.5391 31.2167 29.6187C31.2631 29.6519 31.3095 29.6651 31.3625 29.6651C31.4421 29.6651 31.515 29.6253 31.5615 29.559C32.0256 28.8894 32.987 27.6561 34.3264 26.6814C34.7508 27.8881 35.9641 32.3571 35.752 36.2161C35.7254 36.7001 35.6989 37.1643 35.6724 37.6085C35.4669 40.9702 35.3342 43.0323 37.0449 44.0203L37.0184 45.3132C35.3144 43.7484 33.849 41.9184 32.682 39.8894M37.7876 30.8321L37.834 28.3191C38.3909 28.4849 39.1866 28.9358 39.4054 29.8441C39.0407 30.4276 38.4241 30.6531 37.7876 30.8321ZM37.3433 27.2251C36.5211 27.3776 35.8382 27.8616 35.3144 28.2661C35.1022 27.4107 34.8966 26.7477 34.7574 26.383C35.626 25.826 36.5012 25.4879 37.3765 25.3619L37.3433 27.2184V27.2251ZM41.2752 12.0278C41.2951 12.4588 41.315 13.102 41.3349 13.8181L41.3614 14.7132C40.7448 15.0912 40.221 15.4161 39.7833 15.6813C38.9612 16.1852 38.4241 16.5101 38.0461 16.7621C38.0727 15.4625 38.0859 14.5342 38.0992 14.1098L38.1191 14.0966C38.7291 13.6523 39.9425 12.7638 41.2819 12.0278M41.8653 14.4016L41.8455 13.7982C41.8189 12.9296 41.7924 12.1737 41.7725 11.7626C41.998 11.6499 42.2101 11.5438 42.4223 11.451C44.8491 10.1315 45.6912 10.7548 46.1885 11.5637C46.2415 11.9748 46.3211 12.6644 46.4139 13.586C45.3729 12.8235 43.9938 13.0821 41.8653 14.4016ZM46.7454 17.14C46.089 16.835 44.9817 17.0339 43.4567 17.7301C43.145 17.8694 42.6212 18.1412 42.0245 18.4661C41.9781 17.6638 41.9184 15.8935 41.8852 14.9983L42.1239 14.8525C44.6833 13.2678 45.7376 13.4998 46.4935 14.3618C46.5996 15.4028 46.699 16.4637 46.7587 17.1533C46.7587 17.1533 46.7454 17.1533 46.7388 17.1466M40.0486 16.1255C40.4331 15.8935 40.8774 15.6216 41.3879 15.3033C41.4542 17.2196 41.5007 18.2937 41.5338 18.7313C41.2752 18.8706 41.01 19.0231 40.7448 19.1689C39.4253 19.9182 38.497 20.4951 37.9666 20.8929L38.0329 17.392C38.4042 17.1267 38.9811 16.7687 40.0419 16.1189M42.3958 20.6409C42.3361 20.6608 41.7858 20.873 41.6465 21.3106C41.6465 21.3173 41.6465 21.3239 41.6465 21.3305C41.189 20.9062 41.1559 20.0574 41.1294 19.5535C42.1372 18.9833 43.1848 18.433 43.6622 18.2075C45.479 17.3721 46.2415 17.4782 46.5333 17.6174C46.6725 17.6837 46.7653 17.7832 46.8184 17.9224C46.7123 18.6584 46.3808 19.1159 42.3892 20.6409M44.8425 21.5162C44.6303 21.4034 44.312 21.357 43.8744 21.3836C43.2777 21.4167 42.6345 21.5692 42.5019 21.6024C42.3759 21.609 42.2499 21.6024 42.1372 21.5825C42.1173 21.5294 42.1306 21.4963 42.1372 21.483C42.177 21.3438 42.4223 21.1979 42.5748 21.1449C43.4169 20.82 44.1065 20.5481 44.6701 20.2961C44.7762 20.6277 44.8889 21.0918 44.8491 21.5294M43.4699 22.4842C43.649 22.2986 43.7551 22.2256 43.8346 22.166C43.9473 22.0864 44.0136 22.0201 44.0733 21.9007C44.4844 21.9007 44.6303 21.9737 44.6568 22.0068C44.6568 22.0068 44.6568 22.0532 44.6303 22.1328C44.4778 22.3317 44.2391 22.5174 44.007 22.703C43.7816 22.8821 43.5164 23.0876 43.3373 23.3329C43.2445 23.008 43.2644 22.6964 43.4766 22.4776M35.7785 16.3112C36.3819 16.8151 37.582 18.5523 37.4693 20.2033C37.0582 19.8187 36.4217 19.6132 35.8713 19.5535C35.016 19.5071 34.459 19.8121 34.0347 20.1967C33.9352 18.3003 35.321 16.7621 35.7719 16.3112M34.7972 22.2721C34.7972 22.2721 34.7839 22.2522 34.7706 22.2389C34.6181 22.0466 34.4789 21.7947 34.3463 21.5029C34.2535 21.2907 34.1805 21.0719 34.1275 20.8399C34.5121 20.4022 34.9961 20.0309 35.8315 20.0707C36.4482 20.1436 37.1643 20.4288 37.3433 20.8995C37.0582 21.9206 36.3951 22.6964 35.7453 22.7561C35.4072 22.7892 35.0823 22.6168 34.7972 22.2654M35.447 28.823L35.4934 28.7899C35.9708 28.4186 36.6007 27.9279 37.3367 27.7622L37.277 31.1703L37.2306 33.5374L37.0516 43.3904C35.878 42.4754 35.9907 40.5923 36.1763 37.6284C36.2028 37.1842 36.2294 36.7267 36.2559 36.236C36.3885 33.7297 35.9244 30.8653 35.447 28.8164M37.7411 33.2257L37.7743 31.3758C38.3644 31.21 39.0009 31.0244 39.4783 30.5536C39.5447 31.8333 39.3524 32.8345 37.7411 33.2191M51.6719 5.4901C61.0078 5.4901 69.0109 11.5107 72.2333 19.9845C71.1127 19.275 69.6673 18.9501 68.7523 18.9568C68.7722 18.8242 68.792 18.7048 68.8053 18.5921C68.8318 18.3865 68.8583 18.181 68.8782 18.0086C68.9976 17.4119 69.0042 16.8748 68.8981 16.3974C68.8981 16.3576 68.8981 16.3112 68.8981 16.2714C68.8385 15.2503 68.4075 14.3154 67.6914 13.6324C66.9753 12.9495 66.0536 12.6047 65.0988 12.671C64.144 12.7307 63.2754 13.1882 62.6455 13.964C62.0222 14.7331 61.7106 15.7144 61.7703 16.7355C61.83 17.697 62.2145 18.5656 62.8113 19.2087C61.8034 19.4209 61.0476 19.8121 60.4906 20.2829C60.6166 18.8175 60.1392 17.3787 59.6154 16.4902C59.6087 16.4703 59.5955 16.4504 59.5822 16.4372C59.4032 16.1454 59.2175 15.8935 59.0252 15.6879C58.7003 15.3497 58.4152 15.0779 58.0837 14.9453C57.9312 14.1364 57.666 13.6192 57.3742 13.2678C57.5201 12.9495 57.845 12.2334 57.9511 11.9217C57.9842 11.8289 57.9643 11.7295 57.9047 11.6565C57.845 11.5836 57.7455 11.5504 57.6527 11.577C57.0758 11.7228 56.4194 11.199 56.2802 11.0333C56.2072 10.9404 56.0813 10.9139 55.9818 10.9669C55.3055 11.2918 55.0071 11.3316 54.3043 11.199C54.2181 11.1858 54.1319 11.2123 54.0722 11.2786C54.0125 11.3449 53.9926 11.4377 54.0192 11.5305L54.4966 13.2081C54.1916 13.6987 53.9993 14.5408 54.4568 15.5487C53.681 15.3829 52.9583 14.9121 52.4146 14.5474C52.3483 14.5077 52.2886 14.4679 52.2289 14.4281L52.8124 12.4655C52.8389 12.3726 52.8124 12.2665 52.7461 12.2002C52.6732 12.1339 52.5737 12.114 52.4809 12.1472C51.5592 12.5119 51.1614 12.0345 51.1548 12.0278C51.0818 11.935 50.9492 11.9085 50.8431 11.9615C50.0077 12.3925 49.5899 12.1008 49.4109 11.9748L49.3711 11.9483C49.2783 11.8886 49.1656 11.8886 49.0794 11.9615C48.9932 12.0278 48.96 12.1406 48.9932 12.2466C49.0197 12.3262 49.0728 12.7108 49.1192 13.0224C49.1921 13.5131 49.2717 14.0634 49.338 14.3286C49.3711 14.448 49.4706 14.5276 49.5899 14.5209C50.6309 14.4878 51.4332 14.6801 51.725 14.7596C52.2289 16.3974 53.5418 17.7832 54.7154 17.8826C55.5442 17.9556 55.7431 18.2473 55.9685 18.6584C55.7033 18.8175 55.3983 18.9501 55.0602 19.0761C54.1783 19.3944 53.4688 19.7392 52.819 20.0906C53.4821 18.8772 53.2301 17.8826 53.1572 17.6572C53.1307 17.5644 53.0511 17.498 52.9583 17.4782C52.8654 17.4649 52.7726 17.498 52.7129 17.5776C52.0897 18.4263 50.9426 18.6783 49.9347 18.9104L49.8353 18.9302C49.696 18.9634 49.6098 19.1026 49.643 19.2419C49.6695 19.3811 49.8088 19.474 49.948 19.4408L50.0475 19.4209C50.9824 19.2154 52.0167 18.9833 52.7594 18.3003C52.7859 18.8308 52.6533 19.7193 51.7581 20.6873C51.2476 20.9725 50.81 21.2045 50.3392 21.4034C49.8485 21.609 49.4175 21.7416 49.0595 21.8013C48.6285 21.125 48.7081 20.2763 48.8009 19.8187C48.9733 18.9435 49.3844 18.2937 49.6098 18.1611C49.6894 18.1147 49.7425 18.0219 49.7358 17.9224C49.7358 17.8229 49.6761 17.7367 49.5966 17.697C49.2319 17.5113 48.9998 17.2461 48.9004 16.9013C48.7744 16.4637 48.9004 16.0062 49.0131 15.8073C49.2253 15.4359 49.7491 15.363 50.1602 15.4227C50.8498 15.5155 51.3736 16.6029 51.5062 17.1267C51.115 17.4251 50.6707 17.4914 50.127 17.3323C49.9878 17.2925 49.8485 17.3721 49.8154 17.5113C49.7756 17.6506 49.8552 17.7964 49.9878 17.8362C50.7503 18.055 51.3935 17.9224 51.9504 17.4251C52.0167 17.3654 52.0499 17.2792 52.0366 17.193C51.9769 16.7554 51.3802 15.058 50.2265 14.8989C49.4905 14.7994 48.8606 15.0381 48.5755 15.5354C48.3766 15.8802 48.2506 16.4769 48.4097 17.0472C48.5158 17.4185 48.7412 17.7301 49.0595 17.9688C48.7346 18.3534 48.4362 19.0231 48.3036 19.706C48.2572 19.9381 48.2307 20.1635 48.2241 20.3823C47.6406 20.8067 47.4748 21.4499 47.614 21.7748C47.6339 21.8411 47.6538 21.9206 47.6737 22.0002C47.8262 22.5969 48.0583 23.4854 49.159 23.7772C49.1855 24.9641 48.7412 25.9388 47.8461 26.6946C47.5809 26.7212 47.3024 26.7676 47.0173 26.8272C46.6924 26.4891 46.3078 26.1841 45.8768 25.9189C44.5043 25.0701 42.8135 24.7651 41.6532 25.1365C40.9901 23.4589 39.7568 22.4047 37.9533 22.0002V21.5493C38.1323 21.3637 38.8484 20.8399 40.6387 19.8055C40.6851 20.5415 40.8509 21.7018 41.872 22.0135C41.8919 22.0201 41.9184 22.0334 41.9383 22.0334C42.0842 22.0731 42.2499 22.093 42.4157 22.093C42.4621 22.093 42.5151 22.093 42.5616 22.093C42.5748 22.093 42.5881 22.093 42.608 22.0864C42.608 22.0864 42.8865 22.0135 43.2445 21.9604C43.2047 22.0002 43.1649 22.04 43.1185 22.0864C42.6013 22.6235 42.6875 23.5385 43.3241 24.3739C43.3771 24.4402 43.45 24.4734 43.523 24.4734C43.576 24.4734 43.6291 24.4535 43.6755 24.4204C43.7882 24.3342 43.8081 24.175 43.7285 24.0557C43.5362 23.7772 43.6954 23.5783 44.312 23.0942C44.5706 22.8953 44.8292 22.6831 45.0215 22.4378C45.0281 22.4312 45.0414 22.4179 45.048 22.4047C45.048 22.4047 45.0546 22.398 45.0613 22.3914C45.0613 22.3914 45.0878 22.3516 45.1011 22.3317C45.5718 21.5957 45.3199 20.621 45.1342 20.0508C46.9775 19.1955 47.2361 18.6982 47.3356 17.8959C47.3356 17.8959 47.3356 17.8959 47.3356 17.8893C47.3356 17.8826 47.3356 17.876 47.3356 17.8694C47.3356 17.8694 47.3356 17.8495 47.3356 17.8428C47.3356 17.8428 47.1632 15.9796 46.9908 14.2027C46.8979 13.281 46.772 12.0477 46.6858 11.4178C46.6858 11.3847 46.6659 11.3515 46.6526 11.3184C45.5387 9.42866 43.576 10.2111 42.2035 10.9603C41.9515 11.073 41.693 11.199 41.3946 11.3515C39.8894 12.1406 38.4904 13.1617 37.8141 13.6523L37.6947 13.7385C37.6284 13.7849 37.5886 13.8645 37.5886 13.9441C37.582 14.3021 37.5555 15.5022 37.5223 17.2328L37.5091 17.9158C37.0383 16.8416 36.3222 15.9863 35.8713 15.7211C35.7785 15.668 35.6658 15.6813 35.5862 15.7476C35.5597 15.7675 33.0401 17.9887 33.597 20.7934C33.597 20.7934 33.597 20.8001 33.597 20.8067C33.6567 21.1117 33.7495 21.4101 33.8755 21.6886C33.975 21.9074 34.0744 22.093 34.1739 22.2588C33.2788 22.6036 31.0045 23.6844 30.242 25.9586C29.5723 27.9677 28.896 34.0612 32.5163 36.2095C32.5494 37.2173 32.4698 38.2119 32.2908 39.1734C30.5669 35.931 29.5856 32.2113 29.5856 28.2528C29.5856 15.6879 39.4916 5.46358 51.6653 5.46358M69.4485 25.3022C69.223 24.8049 68.9843 24.2413 68.7191 23.5716C69.1302 23.2998 69.6209 22.955 69.9855 22.703L70.1248 22.6102C70.2972 22.9484 70.569 23.439 70.8674 23.8435C70.5889 24.2944 69.9259 24.9906 69.4485 25.3022ZM66.783 26.9068C66.8161 26.8007 66.8559 26.688 66.8891 26.5753C66.9421 26.3896 66.9952 26.1907 67.0416 25.9984C67.2869 25.1232 67.267 24.1551 67.267 24.1153C67.267 24.0093 67.1941 23.9098 67.1012 23.8766L65.1784 23.1605C65.1121 23.134 65.0458 23.1407 64.9795 23.1738C64.9198 23.207 64.8734 23.26 64.8469 23.3263C64.8402 23.3528 64.827 23.3794 64.8203 23.4059C64.7143 22.902 64.6347 22.4975 64.575 22.2057C65.616 22.4643 66.9885 22.9351 67.0018 22.9351C67.088 22.9616 67.1808 22.9417 67.2538 22.8821L67.8041 22.3781L69.3026 21.0056L69.5678 22.3649C69.17 22.6434 68.6594 22.9882 68.2749 23.2401C68.1688 23.3064 68.129 23.4457 68.1754 23.5584C68.5202 24.4402 68.8252 25.1563 69.1103 25.7664C69.1899 25.9321 69.2628 26.0846 69.3357 26.2239C69.3357 26.2239 69.3225 26.2239 69.3159 26.2305C69.3092 26.2305 69.3026 26.2371 69.296 26.2438C69.2893 26.2438 69.2761 26.2504 69.2694 26.257L67.9301 27.2649L66.7896 26.8869L66.783 26.9068ZM63.0235 33.7429C62.9969 32.3372 62.977 30.9581 62.9638 29.7845C62.9704 29.7845 62.9837 29.7977 62.9903 29.7977C63.2091 29.9038 63.4412 29.9569 63.6799 29.9569C64.0843 29.9569 64.5153 29.811 64.9795 29.5193C65.4635 29.2142 66.1 28.6042 66.5973 27.3975L67.0548 27.55C67.0349 27.6362 67.0084 27.729 66.9819 27.8351C66.6238 29.2408 65.795 32.4699 63.0235 33.7496M55.4248 38.4639C55.5243 38.928 55.6635 39.359 55.8293 39.7436C54.4634 37.6881 55.2259 35.5133 55.6768 34.8038C55.8492 34.9828 55.9884 35.1221 56.0547 35.195C55.4978 35.8713 55.0867 36.8924 55.4248 38.4639ZM57.2085 28.5512C57.2283 28.6971 57.2482 29.075 57.0228 29.3601C56.8769 29.5458 56.6449 29.6651 56.3266 29.7115C56.1741 29.1479 56.1144 28.4915 56.5321 28.16C56.9366 27.8417 57.2681 27.7091 57.5267 27.7555C57.7058 27.7887 57.8649 27.9213 58.0108 28.1534C58.0108 28.1534 58.0108 28.1666 58.0174 28.1733C57.9047 28.1931 57.8052 28.1998 57.7124 28.2064C57.5864 28.213 57.467 28.2197 57.3477 28.2727C57.2416 28.3191 57.1819 28.4318 57.1952 28.5512M66.0337 14.3618C64.5087 14.574 63.6268 15.5221 63.5473 17.0405C63.5075 17.7434 63.6931 18.5457 64.0843 19.4143C64.0843 19.4275 64.091 19.4342 64.0976 19.4474C64.1175 19.4872 64.1374 19.527 64.1573 19.5668C63.9385 19.4673 63.7263 19.3347 63.534 19.1888C63.5274 19.1822 63.5141 19.1756 63.5075 19.1689C62.8046 18.5987 62.3405 17.7169 62.2808 16.7156C62.2278 15.8271 62.493 14.9784 63.0367 14.3154C63.5738 13.659 64.3164 13.2611 65.132 13.2081C65.9409 13.155 66.7299 13.4468 67.3466 14.0303C67.6516 14.322 67.8969 14.6602 68.0693 15.0447C67.2803 14.4016 66.2393 14.3353 66.0337 14.3618ZM66.5708 22.2455C65.7155 21.2443 65.0723 20.2895 64.6479 19.4143L66.4183 18.181L68.2749 18.7446C68.0627 20.1901 67.7643 21.3703 67.4261 22.0135L67.0217 22.3848C66.9156 22.3516 66.7631 22.2986 66.5708 22.2389M68.3942 16.5035C68.487 16.9079 68.487 17.3787 68.3743 17.9357C68.3611 18.0285 68.3544 18.128 68.3412 18.2274L66.4448 17.6506C66.3719 17.6307 66.2923 17.6439 66.2326 17.6837L64.4291 18.9369C64.1507 18.2473 64.0247 17.624 64.0512 17.0737C64.1175 15.8006 64.8071 15.0646 66.0934 14.8856C66.1133 14.8856 68.0096 14.8856 68.3876 16.5035M63.9981 21.9074C64.0512 22.1991 64.2103 22.9882 64.4623 24.1817C64.2037 24.5795 63.8722 24.8116 63.3815 24.9309C63.2423 24.9641 63.1627 25.1033 63.1958 25.2492C63.2224 25.3685 63.3285 25.4481 63.4412 25.4481C63.4611 25.4481 63.481 25.4481 63.5009 25.4481C63.7727 25.3818 64.0048 25.2823 64.217 25.1497C64.4755 25.594 65.1055 26.4162 66.3122 26.7013C65.8414 28.1136 65.1916 28.77 64.7142 29.075C64.1374 29.4397 63.6268 29.5259 63.2025 29.327C62.4996 28.9954 61.9758 27.8616 61.6907 26.0581C61.273 23.3926 62.2013 21.5029 64.5286 20.2829C64.8402 20.8266 65.2314 21.3902 65.6823 21.9737C65.2115 21.8344 64.7076 21.6952 64.2965 21.609C64.2103 21.5891 64.1308 21.6156 64.0645 21.6753C64.0048 21.735 63.9783 21.8212 63.9915 21.9074M66.5443 25.8658C66.5178 25.9785 66.4912 26.0913 66.4581 26.1973C65.3375 25.9454 64.7938 25.163 64.6148 24.8248C64.7275 24.7055 64.8336 24.5729 64.9264 24.4137C64.9397 24.3938 64.953 24.3739 64.9662 24.354C65.0657 24.175 65.1585 23.9827 65.2447 23.744L66.7565 24.3076C66.7498 24.6193 66.7167 25.2691 66.5509 25.8658M49.9546 23.9098C49.9546 23.9098 49.9878 23.9098 50.0077 23.9098C50.0077 23.9231 50.0077 23.9363 50.0077 23.9496C50.0475 24.8314 50.0939 25.9189 51.778 27.6627C51.7184 27.782 51.6653 27.9014 51.6189 28.0207C50.8895 27.1654 49.8817 26.7212 48.6153 26.6946C49.3115 25.9255 49.6629 24.9906 49.6563 23.8965C49.7491 23.9032 49.8485 23.9098 49.9546 23.9098ZM52.0499 27.1919C50.5978 25.647 50.558 24.732 50.5182 23.9231C50.5182 23.9098 50.5182 23.8899 50.5182 23.8766C50.5713 23.87 50.6309 23.8634 50.6906 23.8568C51.347 23.7639 51.9769 23.7109 52.5803 23.6976C52.7594 24.5662 53.1506 25.4348 53.4755 25.9056C53.2301 26.0316 52.9981 26.1841 52.7859 26.3631C52.4875 26.6151 52.2488 26.9002 52.0565 27.1986M59.8739 20.9327C59.3501 21.609 59.0915 22.3516 58.9788 22.9616C56.3465 23.0213 55.5641 24.5861 55.332 25.4614C54.8347 25.4746 54.3706 25.5475 53.9529 25.6934C53.6943 25.3619 53.1837 24.3408 53.0378 23.3794C53.0378 23.3727 53.0378 23.3595 53.0378 23.3528C52.9914 23.0412 52.9848 22.7428 53.0312 22.471C53.1108 22.0002 53.3627 21.7151 53.7805 21.5891C54.2181 21.4565 54.8148 21.4432 55.4447 21.4233C56.7642 21.3836 58.2495 21.3305 59.1048 20.263C59.5225 19.7392 59.7347 19.0363 59.7612 18.128C60.0066 18.9767 60.1126 19.9712 59.8806 20.9327M56.9896 12.9097C56.9101 12.85 56.8305 12.7903 56.7576 12.7439C55.9818 12.2665 55.2193 12.6378 54.9143 12.8102L54.6292 11.8024C55.1397 11.8554 55.5044 11.7825 56.0481 11.5372C56.32 11.7825 56.8106 12.0941 57.3344 12.1406C57.2283 12.3925 57.0957 12.6909 56.9963 12.9031M57.5002 14.879C57.5002 14.879 57.5002 14.879 57.4936 14.879C57.4737 14.879 57.4538 14.879 57.4339 14.8856C57.3411 14.8989 57.2482 14.9188 57.1422 14.9519C55.763 14.7729 55.4182 13.7982 55.2657 13.2147C55.5508 13.0755 56.0282 12.9097 56.499 13.1948C56.625 13.2744 56.7576 13.3672 56.8902 13.5065L56.9035 13.5197C57.1554 13.7849 57.4007 14.196 57.5532 14.879H57.5002ZM55.0734 15.6415C54.5562 14.7663 54.669 14.0634 54.8612 13.659C55.0403 14.196 55.4182 14.9121 56.3067 15.2768C56.1874 15.3299 56.068 15.3829 55.9354 15.4426C55.6635 15.5686 55.3784 15.6349 55.0668 15.6415M51.7581 14.2557C51.4067 14.1629 50.7171 14.0236 49.8286 14.0236C49.8154 14.0236 49.8021 14.0236 49.7889 14.0236C49.7358 13.7452 49.6761 13.3274 49.6231 12.976C49.6098 12.8633 49.5899 12.7638 49.5767 12.671C49.8817 12.7705 50.3259 12.8036 50.9161 12.5384C51.1614 12.7373 51.599 12.9097 52.1958 12.8036L51.7648 14.2557H51.7581ZM54.7618 17.3853C53.933 17.3124 52.9715 16.3775 52.4411 15.2105C53.1108 15.6415 53.9661 16.1255 54.9077 16.1587C54.9143 16.1587 54.9275 16.1587 54.9408 16.1587C54.9408 16.1587 54.9474 16.1587 54.9541 16.1587C54.9806 16.1587 55.0005 16.1587 55.027 16.1587C55.4248 16.1587 55.8028 16.0791 56.1542 15.9133C56.625 15.6945 57.0029 15.5288 57.3013 15.4426C57.5334 16.7554 57.2482 17.7036 56.4062 18.3865C56.1608 17.9423 55.8359 17.4715 54.7684 17.3787M48.7081 22.3848C48.7678 22.3848 48.8341 22.3848 48.9004 22.3781C48.9136 22.3781 48.9203 22.3781 48.9335 22.3781C48.96 22.3781 48.9866 22.3781 49.0131 22.3649C49.4374 22.3118 49.948 22.166 50.5249 21.9206C51.0818 21.6819 51.5924 21.4034 52.03 21.1581L52.3217 20.9924C53.1638 20.515 54.0324 20.0243 55.2259 19.5999C57.2947 18.8573 58.1434 17.4914 57.7986 15.4161C58.0306 15.4757 58.2627 15.6614 58.6606 16.0725C58.8263 16.2449 58.9854 16.4571 59.138 16.709C59.37 18.2208 59.2308 19.275 58.707 19.9315C57.9975 20.82 56.6316 20.8597 55.4182 20.8995C54.7552 20.9194 54.1319 20.9393 53.628 21.0918C53.0179 21.2708 52.6334 21.7151 52.514 22.3848C52.4742 22.6301 52.4676 22.8953 52.4941 23.1672C51.8974 23.1871 51.2675 23.2401 50.6177 23.3329C50.4784 23.3528 50.3525 23.3661 50.2265 23.3727C49.9148 23.3926 49.6562 23.3794 49.4374 23.3396C49.4374 23.3396 49.4374 23.3396 49.4242 23.3396C48.7081 23.207 48.4362 22.7826 48.2837 22.3384C48.4031 22.3715 48.5489 22.3848 48.7081 22.3848ZM48.2572 21.0918C48.297 21.357 48.3766 21.609 48.476 21.8411C48.3036 21.8145 48.1511 21.7416 48.0715 21.6024C48.0583 21.5361 48.0848 21.3173 48.2572 21.0918ZM58.1765 44.7629C56.4857 43.9208 55.763 42.6677 55.0668 41.4543C54.4634 40.4 53.8468 39.3126 52.6135 38.5567C53.0644 38.3711 53.5683 38.0727 54.1252 37.6284C54.2048 37.5621 54.2446 37.456 54.2181 37.3499C54.1916 37.2439 54.1054 37.1709 54.0059 37.1577C52.0499 36.8991 51.2476 35.9376 51.1548 35.7321C51.1282 35.6061 51.0221 35.5133 50.8895 35.5265C50.7503 35.5332 50.6442 35.6592 50.6508 35.805C50.6641 36.0702 51.4133 37.1444 53.3296 37.5688C51.5261 38.7954 50.4917 38.192 49.8353 37.7279L49.7822 34.6182C49.7822 34.5187 49.7292 34.4325 49.643 34.3861C49.5568 34.3397 49.4573 34.3463 49.3844 34.406L49.1656 34.5585C48.8805 34.0877 48.6617 33.4976 48.9335 33.0069C49.2319 32.4765 50.0077 32.2577 50.4519 32.3041C51.0221 32.3638 51.1282 33.4247 51.2078 34.2004C51.2211 34.3065 51.2277 34.406 51.241 34.4988C51.0155 34.5518 50.6044 34.5784 50.2265 34.1938C50.127 34.0943 49.9679 34.0943 49.8684 34.1938C49.769 34.2933 49.769 34.4657 49.8684 34.5651C50.5116 35.2282 51.3073 35.0823 51.6322 34.9099C51.7316 34.8569 51.7847 34.7441 51.7714 34.6314C51.7515 34.4922 51.7316 34.3198 51.7117 34.1408C51.6123 33.186 51.4863 31.8864 50.505 31.7803C49.9281 31.7206 48.9269 31.9726 48.4959 32.7417C48.2638 33.1594 48.1312 33.849 48.7479 34.8502L48.2837 35.1818C48.2108 35.2348 48.171 35.321 48.171 35.4072C48.1843 35.7122 48.1909 36.4217 48.1909 37.2969C48.1843 37.2969 48.171 37.2903 48.1644 37.2903C46.2084 37.0317 45.4061 36.0702 45.3132 35.8647C45.2867 35.7387 45.1674 35.6525 45.048 35.6592C44.9088 35.6658 44.8027 35.7918 44.8093 35.9376C44.8292 36.2095 45.5785 37.277 47.4881 37.7014C45.6713 38.9346 44.6435 38.3114 43.9938 37.8539L43.9407 34.7441C43.9407 34.6447 43.8877 34.5585 43.8015 34.5121C43.7219 34.4657 43.6158 34.4723 43.5429 34.532L43.3307 34.6845C43.0456 34.2137 42.8268 33.6236 43.0986 33.1395C43.397 32.6091 44.1728 32.3903 44.617 32.4367C45.1873 32.4964 45.2933 33.5573 45.3729 34.333C45.3862 34.4391 45.3928 34.5386 45.4061 34.6314C45.1806 34.6845 44.7695 34.711 44.3916 34.3264C44.2921 34.227 44.133 34.227 44.0335 34.3264C43.9341 34.4259 43.9341 34.5916 44.0335 34.6977C44.6767 35.3608 45.4724 35.2149 45.7973 35.0425C45.8967 34.9895 45.9498 34.8767 45.9365 34.764C45.9166 34.6182 45.8967 34.4524 45.8768 34.2734C45.784 33.3186 45.6514 32.019 44.6701 31.9129C44.0932 31.8532 43.092 32.1052 42.661 32.8743C42.4289 33.292 42.2963 33.9816 42.913 34.9828L42.4488 35.3144C42.3759 35.3674 42.3361 35.4536 42.3427 35.5398C42.3759 36.3089 42.3427 39.1269 42.3295 40.8575C40.9238 38.802 40.9503 35.7056 41.1824 34.2535C41.2421 33.8755 41.3681 33.4247 41.5073 32.9141C41.925 31.3824 42.4952 29.2739 42.0643 26.7079C42.0046 26.3366 41.9184 25.9852 41.8123 25.6536C42.8268 25.342 44.3717 25.6404 45.5983 26.3963C46.3609 26.867 47.6737 27.9346 47.8527 29.7911C47.866 29.9237 47.9787 30.0298 48.1047 30.0298C48.1113 30.0298 48.1246 30.0298 48.1312 30.0298C48.2705 30.0165 48.3699 29.8839 48.3567 29.7447C48.2705 28.8562 47.9389 28.0274 47.3886 27.3179C49.2253 27.0063 50.5845 27.4373 51.42 28.6042C51.2874 29.1148 51.2542 29.5259 51.2476 29.6784C51.241 29.8243 51.347 29.9436 51.4863 29.9569H51.4995C51.6322 29.9569 51.7449 29.8508 51.7515 29.7049C51.7581 29.559 51.7913 29.1479 51.9372 28.6506C52.0167 28.3722 52.1295 28.0672 52.2952 27.7688C52.2952 27.7622 52.3085 27.7489 52.3085 27.7356C52.5008 27.3908 52.7527 27.0593 53.0909 26.7742C53.8998 26.0913 55.0204 25.8592 56.4327 26.078C56.5719 26.0979 56.6979 25.9984 56.7244 25.8592C56.7443 25.7133 56.6515 25.5807 56.5123 25.5608C56.2868 25.5277 56.068 25.5011 55.8558 25.4879C56.1078 24.6657 56.8371 23.5716 58.8993 23.4987C58.8661 23.8501 58.8794 24.1021 58.8794 24.2015C58.886 24.3408 58.9987 24.4469 59.1313 24.4469H59.1446C59.2838 24.4402 59.3899 24.3143 59.3833 24.1684C59.3568 23.7706 59.3568 22.3781 60.285 21.2311C60.2983 21.2178 60.3049 21.2112 60.3116 21.1913C60.8884 20.5017 61.8167 19.9049 63.2953 19.6729C63.481 19.8121 63.6865 19.9381 63.8987 20.0376C61.6377 21.3703 60.7425 23.3727 61.1802 26.1443C61.2862 26.814 61.4255 27.3975 61.5913 27.8948L60.9083 28.1069C60.1392 28.3456 59.2838 28.6175 58.7534 28.77C58.7202 28.6772 58.6871 28.5777 58.6606 28.4783C58.6407 28.4053 58.6141 28.3324 58.5942 28.2661C58.5942 28.2661 58.5942 28.2661 58.5942 28.2594C58.5412 28.1069 58.4882 27.9876 58.4285 27.8815C58.2097 27.5235 57.9312 27.3113 57.6063 27.2516C57.1952 27.1787 56.7443 27.3378 56.2139 27.7489C55.6503 28.1931 55.5376 29.0021 55.889 30.0829C55.9818 30.3812 56.1012 30.6531 56.2006 30.8586C56.121 30.7525 55.9818 30.7194 55.8691 30.7857C55.8691 30.7857 55.4779 31.0178 54.9143 31.3824C54.6557 31.5548 54.4037 31.7206 54.165 31.8864L54.5098 30.4343C54.543 30.295 54.4568 30.1492 54.3242 30.116C54.1916 30.0829 54.0523 30.169 54.0192 30.3083L53.5219 32.4234C53.5219 32.4234 53.5219 32.4234 53.5219 32.4301C53.5219 32.4367 53.5219 32.45 53.5219 32.4632C53.5219 32.4699 53.5219 32.4765 53.5219 32.4831C53.5219 32.4897 53.5219 32.503 53.5219 32.5096C53.5219 32.5163 53.5219 32.5229 53.5219 32.5362C53.5219 32.5428 53.5219 32.5561 53.5219 32.5627C53.5219 32.5693 53.5219 32.5759 53.5285 32.5892C53.5285 32.5958 53.5351 32.6025 53.5351 32.6091C53.5351 32.6157 53.5418 32.629 53.5484 32.6356C53.5484 32.6356 53.5484 32.6422 53.555 32.6489C53.5616 32.6555 53.5683 32.6621 53.5749 32.6754C53.5749 32.6754 54.5496 33.6766 55.2856 34.4325C54.7154 35.2679 53.7937 37.8141 55.4779 40.1878C55.5309 40.2608 55.6039 40.2939 55.6834 40.2939C55.7365 40.2939 55.7895 40.2807 55.8359 40.2409C55.9022 40.1945 55.9354 40.1215 55.9354 40.042C56.678 41.6001 57.7853 42.4886 58.15 42.7539V43.9208C58.15 44.0667 58.2627 44.1861 58.402 44.1861C58.5412 44.1861 58.6539 44.0667 58.6539 43.9208V42.608L58.6473 33.9153C59.7877 34.1673 61.2664 34.4922 61.3459 34.5121C61.4785 34.5518 61.6178 34.4657 61.6576 34.3264C61.6907 34.1872 61.6111 34.0413 61.4785 34.0081C61.3857 33.9816 58.939 33.4445 58.4484 33.3385C58.3754 33.3186 58.2959 33.3385 58.2362 33.3915C58.1765 33.4379 58.1434 33.5175 58.1434 33.597V42.0908C57.5201 41.5604 56.3133 40.3138 55.889 38.3445C55.3718 35.931 56.8438 35.0359 57.5599 34.6115C57.6262 34.5717 57.6925 34.532 57.7389 34.4988C57.8583 34.4192 57.8914 34.2601 57.8185 34.1408C57.7455 34.0214 57.5864 33.9816 57.467 34.0612C57.4206 34.0943 57.361 34.1275 57.3013 34.1606C57.0626 34.3065 56.7178 34.5121 56.3796 34.8237C56.3001 34.7441 56.1409 34.5717 55.8028 34.227C55.2591 33.6634 54.5098 32.8942 54.1451 32.5229C54.47 32.2975 54.8148 32.0654 55.1729 31.8267C55.4845 31.6211 55.7497 31.4554 55.9155 31.3559C56.4459 32.1052 56.8173 32.7152 56.983 32.9937C56.8239 33.1196 56.6913 33.2456 56.5653 33.3583C56.4592 33.4578 56.4526 33.6236 56.5454 33.7297C56.5984 33.7893 56.6648 33.8159 56.7377 33.8159C56.7974 33.8159 56.857 33.796 56.9101 33.7496C57.4405 33.2589 58.0969 32.6489 59.5689 33.1263C59.7015 33.1661 59.8474 33.0931 59.8872 32.9539C59.927 32.8146 59.854 32.6688 59.7214 32.6224C58.6738 32.2842 57.9511 32.4301 57.4206 32.7086C57.2681 32.4433 56.9432 31.9261 56.4924 31.2697C56.5255 31.283 56.552 31.2896 56.5852 31.2896C56.5918 31.2896 56.5984 31.2896 56.6051 31.2896C57.1223 31.2432 58.1633 30.8719 58.3953 29.7778C58.4285 29.6386 58.3423 29.4994 58.203 29.4662C58.0704 29.4331 57.9312 29.5259 57.898 29.6651C57.7323 30.4409 57.0294 30.673 56.7112 30.7393C56.6449 30.6199 56.5587 30.4343 56.4658 30.2022C56.8637 30.1226 57.1687 29.9502 57.3875 29.6784C57.6394 29.3601 57.6925 28.9822 57.6991 28.717C57.7057 28.717 57.719 28.717 57.7256 28.717C57.845 28.7103 57.9975 28.6971 58.1765 28.6573C58.2229 28.8164 58.276 28.9954 58.3622 29.1678C58.3622 29.1678 58.3622 29.1745 58.3622 29.1811C58.3622 29.1811 58.3622 29.1811 58.3622 29.1877C58.5478 29.5723 58.8263 29.8375 59.2175 30.0165C60.0463 30.3812 60.6829 31.0244 61.1072 31.9195C61.1536 32.0123 61.2398 32.0654 61.3393 32.0654C61.3791 32.0654 61.4122 32.0588 61.452 32.0389C61.578 31.9726 61.631 31.8201 61.5714 31.6874C61.094 30.673 60.3712 29.9502 59.4231 29.5325C59.244 29.4529 59.1048 29.3535 58.9921 29.2275C59.5292 29.0684 60.3248 28.8164 61.0409 28.591L61.7637 28.3655C61.9493 28.7965 62.1681 29.1347 62.4201 29.3866C62.44 30.7459 62.4599 32.4168 62.493 34.1209C62.5129 35.5 62.5394 36.8858 62.5593 38.1257C62.5991 40.2342 62.6256 41.9184 62.6389 42.3958C61.5515 43.2313 60.3182 44.1529 58.4815 44.6701C58.3821 44.6966 58.2693 44.7231 58.1434 44.7496M53.5683 44.9552C53.2832 44.5441 53.0975 44.0534 52.9052 43.5429C52.4543 42.3361 51.9504 40.9702 49.8817 40.7779L49.8419 38.3644C50.2265 38.6031 50.7171 38.8286 51.3603 38.8286C51.5327 38.8286 51.7184 38.8087 51.9106 38.7755C53.3296 39.4585 53.9661 40.5591 54.6292 41.7195C55.2723 42.8467 55.9354 44.0004 57.3212 44.8823C56.3332 44.9751 55.0005 45.0016 53.5749 44.9552M52.1361 44.8756C50.4784 44.0402 49.7955 42.7936 49.1391 41.5935C48.9932 41.3283 48.8473 41.0631 48.6948 40.8045C48.7147 38.7689 48.7147 36.3819 48.6948 35.5398L49.2849 35.1154L49.3314 37.8738L49.3844 41.01C49.3844 41.01 49.3844 41.0166 49.3844 41.0233C49.3844 41.0233 49.3844 41.0299 49.3844 41.0365V41.5139C49.391 41.6598 49.5104 41.7725 49.6496 41.7725C49.7889 41.7725 49.9016 41.6532 49.9016 41.5073V41.3084C51.6056 41.4874 51.9968 42.535 52.4411 43.7352C52.5936 44.1396 52.7461 44.5507 52.9583 44.9353C52.6864 44.922 52.4146 44.9088 52.1427 44.8889M48.1909 40.0486C47.8328 39.5712 47.382 39.1004 46.7454 38.7092C47.1831 38.5368 47.6671 38.2517 48.1975 37.8406C48.1975 38.5302 48.1975 39.2993 48.1909 40.0486ZM47.2361 44.0999C47.1831 43.9606 47.1234 43.8147 47.0703 43.6755C46.6261 42.4687 46.1155 41.1028 44.0468 40.9106L44.007 38.4904C44.3916 38.7291 44.8889 38.9612 45.5254 38.9612C45.6845 38.9612 45.8503 38.9479 46.0293 38.9148C47.1565 39.4518 47.74 40.2409 48.2108 41.01C48.2108 41.01 48.2108 41.0233 48.2174 41.0233C48.3832 41.2951 48.5291 41.567 48.6816 41.8521C49.2452 42.8798 49.822 43.9341 50.9691 44.7762C49.4308 44.6237 48.1312 44.385 47.2228 44.0999M42.8599 35.6724L43.45 35.2481L43.5495 41.1294C43.5495 41.1294 43.5495 41.1426 43.5495 41.1493C43.5495 41.1625 43.5495 41.1691 43.5495 41.1824V41.6399C43.5561 41.7858 43.6755 41.8985 43.8081 41.8985C43.9473 41.8985 44.0601 41.7792 44.0601 41.6333V41.4344C45.7442 41.6134 46.1421 42.6345 46.5797 43.8147C45.7243 43.4036 44.7828 42.8533 43.7484 42.2367C43.4169 42.0378 43.1053 41.7858 42.8268 41.4874C42.8467 39.6706 42.8798 36.7001 42.8533 35.6724M73.1218 33.6899C69.6872 31.336 69.6341 28.286 69.6606 26.8538C70.4165 28.1666 71.0067 28.4849 71.8023 28.4849C71.8819 28.4849 71.9548 28.4849 72.0344 28.4783C72.1736 28.4716 72.2797 28.3456 72.2731 28.1998C72.2665 28.0539 72.1405 27.9412 72.0012 27.9544C71.3448 27.9942 70.768 28.034 69.6739 25.7796C70.1977 25.4547 70.8674 24.7718 71.2255 24.248C71.4045 24.4137 71.5835 24.5264 71.7559 24.5463C71.7625 24.5463 71.7758 24.5463 71.7824 24.5463C71.9084 24.5463 72.0211 24.4469 72.0344 24.3076C72.0476 24.1618 71.9482 24.0358 71.8089 24.0225C71.7029 24.0093 71.557 23.8766 71.3912 23.6711C71.3846 23.6645 71.378 23.6512 71.3713 23.6446C71.0796 23.2733 70.7282 22.6765 70.4629 22.1195C70.4298 22.0532 70.3701 22.0002 70.2972 21.9803C70.2242 21.9604 70.1513 21.9803 70.0916 22.0201L70.032 22.0665L69.7203 20.4752C69.7004 20.3823 69.6408 20.3094 69.5546 20.2763C69.4684 20.2431 69.3755 20.2696 69.3026 20.3293L68.2815 21.2642C68.4539 20.6873 68.5865 20.0574 68.686 19.5005C69.6805 19.4607 71.5039 19.9182 72.5449 20.8664C72.5449 20.8664 72.5582 20.873 72.5648 20.8796C73.3406 23.207 73.765 25.7 73.765 28.2926C73.765 30.1558 73.5462 31.9659 73.1351 33.6965M74.2623 28.286C74.2623 15.4094 64.1507 4.97292 51.6786 4.97292C39.2065 4.97292 29.0949 15.4094 29.0949 28.286C29.0949 38.7092 35.7188 47.5279 44.8624 50.5116C44.8955 51.7714 44.995 53.1373 45.2801 53.7142C45.2933 53.7341 45.3066 53.754 45.3199 53.7738C46.5929 55.1596 50.9956 53.8932 54.3109 52.9052C54.3706 53.3826 54.5695 54.3573 55.2127 54.6889C55.3718 54.7684 55.5508 54.8016 55.7232 54.8016C56.3001 54.8016 56.8968 54.4634 56.983 54.4104C57.0758 54.3507 57.1289 54.238 57.1024 54.1253C57.0758 54.0125 56.983 53.933 56.8703 53.933C56.857 53.933 56.5653 53.9131 56.4658 53.5351C56.8305 53.502 57.2151 53.502 57.5334 53.5285C57.54 53.5285 57.5466 53.5285 57.5532 53.5285C57.9246 53.5219 58.2627 53.2964 58.4086 52.9583C58.4351 52.892 58.455 52.8323 58.4683 52.766C58.4683 52.766 58.4683 52.7527 58.4683 52.7461C58.4882 52.6268 58.4882 52.5074 58.455 52.3881L58.3555 50.5448C67.5654 47.6008 74.2556 38.749 74.2556 28.2727" fill="var(--fill-0, #282828)"/>
<path id="Vector_19" d="M47.7069 51.4333C47.561 51.4399 47.4218 51.4465 47.2759 51.4465C47.3488 51.2609 47.4217 51.0686 47.4947 50.8829C47.5676 51.0686 47.6406 51.2542 47.7135 51.4333M47.6803 50.3724C47.6803 50.3724 47.6472 50.3326 47.6207 50.3392C47.5345 50.3392 47.4483 50.3459 47.3621 50.3459C47.3356 50.3459 47.3157 50.3591 47.309 50.3856C47.0571 51.0222 46.8117 51.6455 46.5598 52.2488C46.5531 52.2687 46.5598 52.2886 46.5598 52.3085C46.573 52.3284 46.5929 52.3417 46.6128 52.3417C46.699 52.3483 46.7852 52.3616 46.878 52.3616C46.9046 52.3616 46.9245 52.3483 46.9311 52.3218C46.9974 52.1494 47.0637 51.977 47.13 51.8046C47.3687 51.8046 47.6008 51.8046 47.8395 51.7781C47.9124 51.9571 47.9787 52.1295 48.0517 52.3019C48.0583 52.3284 48.0848 52.3417 48.1113 52.335C48.1113 52.335 48.118 52.335 48.1246 52.335C48.2108 52.3085 48.2904 52.2754 48.3765 52.2488C48.3964 52.2488 48.4097 52.2289 48.4163 52.209C48.423 52.1892 48.423 52.1693 48.4163 52.156C48.171 51.5725 47.9257 50.9758 47.6803 50.3724Z" fill="var(--fill-0, #282828)"/>
<path id="Vector_20" d="M50.5381 50.7503C50.5381 51.1813 50.3127 51.473 49.8618 51.599C49.7822 51.6189 49.7093 51.6388 49.6297 51.6587V50.3591C49.7093 50.3392 49.7889 50.3193 49.8684 50.2928C50.2994 50.1734 50.5381 50.3259 50.5381 50.7437M49.8618 49.9414C49.6761 49.9944 49.4905 50.0408 49.3048 50.0873C49.2717 50.0939 49.2451 50.1337 49.2451 50.1668V52.0565C49.2451 52.0897 49.2717 52.1162 49.3048 52.1029C49.4839 52.0632 49.6695 52.0101 49.8485 51.9637C50.5182 51.778 50.9293 51.2476 50.9293 50.6243C50.9293 50.0011 50.5182 49.7557 49.8618 49.9414Z" fill="var(--fill-0, #282828)"/>
<path id="Vector_21" d="M52.9251 49.3181C53.1506 49.2518 53.3031 49.4043 53.3031 49.7093C53.1837 49.8287 53.0577 49.9082 52.9185 49.948C52.6997 50.0143 52.5936 49.948 52.5936 49.7358C52.5936 49.5237 52.7129 49.3778 52.9185 49.3115M52.9318 48.9733C52.5207 49.0993 52.2289 49.4839 52.2289 49.8751C52.2289 50.2663 52.4742 50.4387 52.8721 50.3193C52.9914 50.2795 53.1108 50.2265 53.2235 50.1469C53.1108 50.4055 52.8721 50.6243 52.5207 50.8166C52.4875 50.8365 52.4676 50.8697 52.4742 50.9028C52.4875 50.9758 52.5008 51.0421 52.5074 51.1084C52.5074 51.1216 52.5207 51.1349 52.5339 51.1415C52.5472 51.1415 52.5538 51.1415 52.5671 51.1415C52.5671 51.1415 52.5737 51.1415 52.5803 51.1415C53.2765 50.7768 53.6677 50.2398 53.6677 49.6231C53.6677 49.0993 53.3826 48.8474 52.9318 48.98" fill="var(--fill-0, #282828)"/>
<path id="Vector_22" d="M54.5695 50.2729C54.3441 50.3127 54.2048 50.1668 54.1916 49.8684C54.3043 49.7557 54.4369 49.6894 54.5695 49.6629C54.7949 49.6231 54.8944 49.7027 54.8944 49.9082C54.8944 50.1138 54.7684 50.2398 54.5695 50.2729ZM54.6225 49.3049C54.4899 49.3314 54.3706 49.3778 54.2512 49.4574C54.3573 49.1988 54.5828 48.9866 54.9474 48.8473C54.9806 48.8341 55.0005 48.8009 54.9939 48.7678C54.9806 48.6948 54.974 48.6219 54.9607 48.5556C54.9607 48.5357 54.9474 48.5224 54.9342 48.5158C54.9209 48.5092 54.901 48.5092 54.8878 48.5158C54.1916 48.7943 53.8269 49.3181 53.8269 49.9348C53.8269 50.4586 54.1054 50.7105 54.5629 50.6243C54.974 50.5514 55.2723 50.2398 55.2723 49.8552C55.2723 49.4706 55.0204 49.2452 54.6292 49.3115" fill="var(--fill-0, #282828)"/>
<path id="Vector_23" d="M56.6846 50.1801C56.6846 50.1801 56.6515 50.1204 56.625 50.1204C56.3863 50.0939 56.1476 50.0873 55.9155 50.0939C56.0547 49.948 56.2006 49.8088 56.3399 49.6762C56.5719 49.4507 56.6913 49.3049 56.6913 49.0529C56.6913 48.6948 56.4393 48.4296 56.0415 48.4296C55.763 48.4296 55.5641 48.5622 55.4447 48.6749C55.4248 48.6882 55.4182 48.7147 55.4248 48.7346C55.4381 48.8142 55.4514 48.8938 55.458 48.9733C55.458 48.9932 55.4779 49.0131 55.4978 49.0197C55.5177 49.0197 55.5442 49.0197 55.5575 49.0065C55.7166 48.8606 55.8691 48.7877 56.0282 48.7877C56.2802 48.7877 56.3067 48.9335 56.3067 49.0396C56.3067 49.1656 56.247 49.2584 56.0813 49.4308C55.8492 49.6695 55.6171 49.9149 55.3851 50.1735C55.3718 50.1867 55.3652 50.2066 55.3652 50.2199V50.4122C55.3652 50.4453 55.3917 50.4718 55.4248 50.4718C55.8293 50.4387 56.2404 50.4387 56.6515 50.4785C56.6714 50.4785 56.6846 50.4785 56.6979 50.4586C56.7112 50.4453 56.7178 50.4254 56.7112 50.4122C56.6979 50.3392 56.6913 50.2663 56.678 50.1867" fill="var(--fill-0, #282828)"/>
<path id="Vector_24" d="M51.0089 51.2476C50.9094 51.2808 50.8299 51.3935 50.8299 51.4929C50.8299 51.5924 50.9094 51.6587 51.0089 51.6255C51.1083 51.5924 51.1879 51.4797 51.1879 51.3802C51.1879 51.2808 51.1083 51.2144 51.0089 51.2476Z" fill="var(--fill-0, #282828)"/>
<path id="Vector_25" d="M48.6882 51.8642C48.5887 51.8841 48.5092 51.977 48.5092 52.0831C48.5092 52.1891 48.5887 52.2554 48.6882 52.2422C48.7876 52.2223 48.8672 52.1228 48.8672 52.0167C48.8672 51.9107 48.7876 51.8444 48.6882 51.8642Z" fill="var(--fill-0, #282828)"/>
<path id="Vector_26" d="M34.0148 47.3356L32.8809 47.8594L33.3915 46.6924L34.0148 47.3356ZM35.6061 46.6593C35.6061 46.6593 35.5729 46.6394 35.5531 46.6394C35.5464 46.6394 35.5332 46.6394 35.5199 46.646L34.5651 47.0902L33.6368 46.1288L34.0877 45.1077C34.101 45.0745 34.0877 45.0348 34.0612 45.0082L33.67 44.7497C33.67 44.7497 33.6435 44.7364 33.6302 44.7364C33.6236 44.7364 33.6169 44.7364 33.6103 44.7364C33.5904 44.7364 33.5705 44.7563 33.5639 44.7762L32.0985 48.2042C32.0985 48.2042 32.0985 48.2705 32.1118 48.2904L32.4433 48.6285C32.4433 48.6285 32.4765 48.6484 32.4964 48.6484C32.503 48.6484 32.5163 48.6484 32.5229 48.6418L35.9111 47.1168C35.9111 47.1168 35.9509 47.0836 35.9575 47.0571C35.9575 47.0306 35.9575 47.004 35.9376 46.9908L35.6061 46.646V46.6593Z" fill="var(--fill-0, #282828)"/>
<path id="Vector_27" d="M33.3252 44.1927C33.3252 44.1927 33.3252 44.1529 33.3119 44.133L32.2311 42.6875C32.2311 42.6875 32.198 42.661 32.1781 42.661C32.1781 42.661 32.1383 42.6677 32.1251 42.6875L31.8267 43.0124C31.8267 43.0124 31.8002 43.0854 31.8267 43.1119L32.5362 44.0601L30.2221 45.9034C30.2221 45.9034 30.1823 45.9763 30.2088 46.0095L30.4939 46.394C30.4939 46.394 30.5205 46.4206 30.5404 46.4206H30.547C30.5669 46.4206 30.5801 46.4206 30.5934 46.4073L33.3053 44.2457C33.3053 44.2457 33.3318 44.2126 33.3318 44.1927" fill="var(--fill-0, #282828)"/>
<path id="Vector_28" d="M31.8598 42.2831C31.8598 42.2831 31.8598 42.2433 31.8598 42.2234L31.6477 41.8322C31.6477 41.8322 31.6079 41.7924 31.5814 41.7924C31.5681 41.7924 31.5615 41.7924 31.5482 41.7991L29.3601 42.8467L31.0178 40.7448C31.0178 40.7448 31.0376 40.6851 31.0244 40.6586L30.852 40.3403C30.852 40.3403 30.8122 40.3005 30.7857 40.3005C30.7857 40.3005 30.7791 40.3005 30.7724 40.3005L28.1732 40.6652L30.1757 39.2794C30.1757 39.2794 30.2155 39.2131 30.1956 39.18L29.9768 38.7755C29.9768 38.7755 29.9502 38.7424 29.9303 38.7357C29.9303 38.7357 29.9171 38.7357 29.9105 38.7357C29.8972 38.7357 29.8839 38.7357 29.8707 38.749L27.0129 40.7183C27.0129 40.7183 26.9665 40.7846 26.9864 40.8177L27.2649 41.3349C27.2649 41.3349 27.3046 41.3747 27.3312 41.3747C27.3312 41.3747 27.3378 41.3747 27.3444 41.3747L30.1226 40.9437L28.3191 43.1716C28.3191 43.1716 28.2992 43.2313 28.3125 43.2578L28.591 43.775C28.591 43.775 28.6308 43.8147 28.6573 43.8147C28.6705 43.8147 28.6772 43.8147 28.6904 43.8147L31.8134 42.3295C31.8134 42.3295 31.8466 42.303 31.8532 42.2831" fill="var(--fill-0, #282828)"/>
<path id="Vector_29" d="M26.6548 37.6748L27.5964 36.8394L27.8948 37.6947L26.6548 37.6682V37.6748ZM29.7049 38.3379C29.7049 38.3379 29.7513 38.3246 29.7646 38.3048C29.7778 38.2849 29.7845 38.2583 29.7712 38.2318L29.6121 37.7743C29.6121 37.7743 29.5723 37.7213 29.5458 37.7213L28.4981 37.7014L28.0539 36.4283L28.8827 35.7056C28.8827 35.7056 28.9159 35.6393 28.896 35.6061L28.6506 35.2016C28.6506 35.2016 28.6175 35.1685 28.5976 35.1685C28.5976 35.1685 28.591 35.1685 28.5843 35.1685C28.5644 35.1685 28.5512 35.1751 28.5379 35.1884L25.8061 37.6483C25.8061 37.6483 25.773 37.7014 25.7862 37.7345L25.9454 38.1854C25.9454 38.1854 25.9852 38.2384 26.0117 38.2384L29.7049 38.3445" fill="var(--fill-0, #282828)"/>
<path id="Vector_30" d="M26.4891 29.6916C27.3643 29.6916 27.908 29.1413 27.9147 28.2594C27.9147 27.8152 27.7887 27.4439 27.5301 27.1853C27.2781 26.9267 26.9068 26.7875 26.4626 26.7808L24.3607 26.7609C24.3209 26.7609 24.2877 26.7941 24.2877 26.8339V27.3179C24.2877 27.3577 24.3143 27.3975 24.354 27.3975L26.4427 27.4174C26.8538 27.4174 27.3444 27.5699 27.3378 28.2462C27.3378 28.9092 26.8405 29.0485 26.4294 29.0485H26.4161L24.3474 29.0286C24.3076 29.0286 24.2745 29.0617 24.2745 29.1015V29.5856C24.2745 29.5856 24.2745 29.6253 24.2944 29.6386C24.3076 29.6519 24.3275 29.6651 24.3474 29.6651L26.4758 29.685H26.4957L26.4891 29.6916Z" fill="var(--fill-0, #282828)"/>
<path id="Vector_31" d="M24.4734 25.4481L27.855 26.0051C27.855 26.0051 27.8616 26.0051 27.8682 26.0051C27.8815 26.0051 27.9014 26.0051 27.9146 25.9918C27.9345 25.9785 27.9412 25.9653 27.9478 25.9387L28.0141 25.5011C28.0141 25.4613 27.9942 25.4216 27.9544 25.4149L25.5542 25.0237L28.2727 23.6446C28.2727 23.6446 28.3125 23.6114 28.3125 23.5849L28.3655 23.2268C28.3655 23.1871 28.3456 23.1473 28.3059 23.1407L24.9243 22.5837C24.9243 22.5837 24.9176 22.5837 24.911 22.5837C24.8977 22.5837 24.8779 22.5837 24.8646 22.5969C24.8513 22.6102 24.8381 22.6235 24.8381 22.65L24.7718 23.0876C24.7718 23.1274 24.7917 23.1672 24.8314 23.1738L27.1322 23.5517L24.5198 24.8845C24.5198 24.8845 24.48 24.9176 24.48 24.9442L24.4137 25.3685C24.4137 25.3685 24.4137 25.4083 24.427 25.4282C24.4402 25.4415 24.4535 25.4547 24.4734 25.4614" fill="var(--fill-0, #282828)"/>
<path id="Vector_32" d="M25.2293 21.3305L28.5313 22.2721C28.5313 22.2721 28.5446 22.2721 28.5512 22.2721C28.5644 22.2721 28.5777 22.2721 28.591 22.2654C28.6109 22.2522 28.6241 22.2389 28.6241 22.219L28.7501 21.7549C28.7634 21.7151 28.7368 21.6753 28.6971 21.662L25.395 20.7205C25.395 20.7205 25.3818 20.7205 25.3751 20.7205C25.342 20.7205 25.3088 20.7404 25.3022 20.7735L25.1762 21.2377C25.1762 21.2377 25.1762 21.2775 25.1829 21.2974C25.1895 21.3173 25.2094 21.3305 25.2293 21.3305Z" fill="var(--fill-0, #282828)"/>
<path id="Vector_33" d="M25.7067 19.8055L29.3336 19.7856C29.3336 19.7856 29.3933 19.7657 29.3999 19.7392L29.5524 19.3347C29.5524 19.3347 29.5524 19.2684 29.5325 19.2485L26.8007 16.6891C26.8007 16.6891 26.7676 16.6692 26.7477 16.6692C26.7477 16.6692 26.7344 16.6692 26.7278 16.6692C26.7013 16.6692 26.688 16.6891 26.6747 16.7156L26.4957 17.1864C26.4957 17.1864 26.4957 17.2527 26.5156 17.2726L28.6175 19.1888L25.773 19.1623C25.7332 19.1623 25.7067 19.1888 25.7 19.2286L25.6271 19.7127C25.6271 19.7127 25.6271 19.7591 25.647 19.7723C25.6603 19.7856 25.6802 19.7989 25.7067 19.7989" fill="var(--fill-0, #282828)"/>
<path id="Vector_34" d="M27.2317 15.7608L30.242 17.445C30.242 17.445 30.2685 17.4516 30.2751 17.4516C30.3017 17.4516 30.3282 17.4384 30.3414 17.4119L31.2432 15.6879C31.2631 15.6481 31.2432 15.6017 31.21 15.5818L30.8321 15.3696C30.8321 15.3696 30.8056 15.363 30.7989 15.363C30.7923 15.363 30.7857 15.363 30.7791 15.363C30.7592 15.363 30.7459 15.3829 30.7326 15.4028L30.0895 16.6361L29.2076 16.1454L29.7182 15.1774C29.7182 15.1774 29.7314 15.1309 29.7182 15.111C29.7115 15.0912 29.6916 15.0713 29.6717 15.0646L29.2607 14.9188C29.2607 14.9188 29.2408 14.9188 29.2341 14.9188C29.2076 14.9188 29.1811 14.932 29.1678 14.9585L28.6904 15.8669L27.9478 15.4558L28.5711 14.269C28.5711 14.269 28.5843 14.2292 28.5711 14.2093C28.5711 14.1894 28.5512 14.1761 28.5379 14.1629L28.16 13.9507C28.16 13.9507 28.1401 13.9441 28.1268 13.9441C28.1003 13.9441 28.0738 13.9573 28.0605 13.9839L27.1787 15.6614C27.1588 15.7012 27.1787 15.7476 27.2118 15.7675" fill="var(--fill-0, #282828)"/>
<path id="Vector_35" d="M30.1757 12.1604C30.2751 12.1604 30.3746 12.2002 30.474 12.2732C30.6067 12.3726 30.6796 12.4986 30.6862 12.6445C30.6929 12.7903 30.6332 12.9627 30.5138 13.1418L30.3282 13.4136L29.4861 12.8036L29.6983 12.492C29.8441 12.2732 30.0033 12.1671 30.1757 12.1671M31.5349 15.0646C31.5349 15.0646 31.5615 15.0779 31.5747 15.0779C31.5946 15.0779 31.6211 15.0646 31.6344 15.0447L31.8996 14.6535C31.8996 14.6535 31.9129 14.6138 31.9129 14.5939C31.9129 14.574 31.8996 14.5541 31.8797 14.5474L30.7592 13.7319L30.8984 13.5263H32.6754C32.6754 13.5263 32.7284 13.4998 32.7417 13.4733L32.9274 13.0158C32.9274 13.0158 32.934 12.9627 32.9274 12.9429C32.9141 12.923 32.8876 12.9097 32.8677 12.9097H31.21C31.3426 12.4323 31.1968 12.0212 30.8056 11.7361C30.6133 11.5968 30.4077 11.5239 30.2088 11.5239C29.8574 11.5239 29.5259 11.7361 29.254 12.1339L28.7169 12.923C28.7169 12.923 28.7037 12.9627 28.7037 12.9826C28.7037 13.0025 28.7169 13.0224 28.7368 13.0291L31.5416 15.0646H31.5349Z" fill="var(--fill-0, #282828)"/>
<path id="Vector_36" d="M31.3161 10.9006C31.5084 11.0797 31.6941 11.1592 31.9129 11.1592C32.1184 11.1592 32.3571 11.0863 32.7351 10.9205C33.0268 10.7879 33.1859 10.7415 33.3053 10.7415C33.4114 10.7415 33.4909 10.7813 33.5904 10.8741C33.6899 10.9736 33.7429 11.0863 33.7363 11.2123C33.7363 11.3383 33.67 11.4709 33.5639 11.5968C33.3119 11.8886 32.9671 12.0146 32.7815 12.061C32.755 12.0676 32.7351 12.0875 32.7284 12.114C32.7218 12.1406 32.7284 12.1671 32.7417 12.187L33.0533 12.5715C33.0533 12.5715 33.0865 12.5981 33.113 12.5981C33.1196 12.5981 33.1329 12.5981 33.1395 12.5981C33.4379 12.4853 33.7363 12.2732 33.975 11.9947C34.2004 11.7361 34.3198 11.451 34.3264 11.1659C34.3264 10.8741 34.2137 10.6023 33.9816 10.3901C33.7694 10.1912 33.5705 10.105 33.3384 10.105C33.1329 10.105 32.8876 10.1713 32.5229 10.337C32.2311 10.4697 32.0587 10.5227 31.9394 10.5227C31.8532 10.5227 31.7803 10.4895 31.7007 10.4166C31.515 10.2442 31.5349 10.0121 31.7405 9.77344C31.893 9.59442 32.1251 9.46844 32.3704 9.42202C32.3969 9.42202 32.4168 9.3955 32.4234 9.37561C32.4301 9.34909 32.4234 9.32257 32.4102 9.30267L32.1118 8.92473C32.1118 8.92473 32.0786 8.89821 32.0521 8.89821C32.0455 8.89821 32.0389 8.89821 32.0322 8.89821C31.7736 8.98441 31.5416 9.14354 31.336 9.38224C30.8918 9.89279 30.8785 10.5094 31.3161 10.9139" fill="var(--fill-0, #282828)"/>
<path id="Vector_37" d="M35.1817 10.5227C35.1817 10.5227 35.2149 10.5492 35.2348 10.5492C35.2348 10.5492 35.2746 10.5426 35.2878 10.5293L35.6326 10.1978C35.6326 10.1978 35.6658 10.1182 35.6326 10.0917L33.2987 7.5058C33.2987 7.5058 33.2655 7.47927 33.2456 7.47927C33.2456 7.47927 33.2058 7.4859 33.1926 7.49917L32.8544 7.83069C32.8544 7.83069 32.8213 7.91026 32.8544 7.93678L35.1884 10.5227H35.1817Z" fill="var(--fill-0, #282828)"/>
<path id="Vector_38" d="M35.6591 6.16642L36.488 5.51C36.488 5.51 36.5145 5.47684 36.5145 5.45032C36.5145 5.43043 36.5079 5.40391 36.4946 5.39065L36.1763 5.08564C36.1763 5.08564 36.1432 5.06575 36.1233 5.06575C36.11 5.06575 36.0901 5.06575 36.0769 5.07901L34.0015 6.71676C34.0015 6.71676 33.975 6.74991 33.975 6.7698C33.975 6.78969 33.975 6.80959 33.9882 6.82948L34.2468 7.1809C34.2468 7.1809 34.2866 7.20742 34.3065 7.20742C34.3198 7.20742 34.3397 7.20742 34.3529 7.19416L35.1619 6.55762L36.9388 8.95789C36.9388 8.95789 36.972 8.98441 36.9919 8.98441C36.9919 8.98441 36.9919 8.98441 36.9985 8.98441C37.0118 8.98441 37.0317 8.98441 37.0449 8.97115L37.4162 8.6794C37.4162 8.6794 37.456 8.60647 37.4295 8.57332L35.6525 6.17305L35.6591 6.16642Z" fill="var(--fill-0, #282828)"/>
<path id="Vector_39" d="M39.2065 5.50336L38.444 5.9675L38.2318 4.7077L39.2065 5.51V5.50336ZM38.0992 3.83246C38.0992 3.83246 38.066 3.8192 38.0528 3.8192C38.0395 3.8192 38.0263 3.8192 38.013 3.83246L37.6085 4.07779C37.6085 4.07779 37.5687 4.12421 37.5754 4.15736L38.1721 7.92352C38.1721 7.92352 38.192 7.96993 38.2119 7.98319C38.2185 7.98319 38.2318 7.98982 38.2451 7.98982C38.2583 7.98982 38.2716 7.98982 38.2848 7.97656L38.6893 7.73123C38.6893 7.73123 38.7291 7.68482 38.7225 7.65167L38.5434 6.58415L39.6773 5.89457L40.526 6.59741C40.526 6.59741 40.5591 6.6173 40.5724 6.6173C40.5923 6.6173 40.6122 6.61067 40.6254 6.59741L40.9636 6.27251C40.9636 6.27251 40.9901 6.23273 40.9901 6.21283C40.9901 6.19294 40.9768 6.16642 40.9636 6.15316L38.1124 3.83909L38.0992 3.83246Z" fill="var(--fill-0, #282828)"/>
<path id="Vector_40" d="M41.7261 3.62692C41.1492 3.61366 41.0299 3.54735 40.9503 3.3418C40.9039 3.23571 40.9039 3.12962 40.9503 3.0368C40.9967 2.93071 41.1028 2.83788 41.2553 2.77157C41.3813 2.7119 41.5272 2.68538 41.6731 2.68538C41.7725 2.68538 41.872 2.69864 41.9648 2.72516C41.9648 2.72516 41.9781 2.72516 41.9847 2.72516C42.0046 2.72516 42.0245 2.71853 42.0377 2.70527C42.0576 2.68538 42.0643 2.65885 42.0576 2.63233L41.9449 2.16156C41.9449 2.16156 41.9118 2.10852 41.8786 2.10189C41.8189 2.09526 41.7659 2.08863 41.7062 2.08863C41.4874 2.08863 41.2752 2.13504 41.0498 2.2345C40.4331 2.50635 40.1746 3.06332 40.4066 3.61366C40.6188 4.13084 40.9901 4.2303 41.6797 4.25019C42.2632 4.26345 42.3825 4.33639 42.482 4.57509C42.535 4.7077 42.535 4.83368 42.482 4.9464C42.4289 5.05912 42.3162 5.15195 42.1704 5.21825C41.998 5.29119 41.8123 5.33097 41.6001 5.33097C41.494 5.33097 41.3813 5.31771 41.2752 5.29782C41.2752 5.29782 41.2686 5.29782 41.262 5.29782C41.2421 5.29782 41.2222 5.30445 41.2089 5.32434C41.189 5.34423 41.1824 5.37075 41.189 5.39728L41.315 5.88131C41.315 5.88131 41.3482 5.93435 41.3813 5.94098C41.4277 5.94098 41.4808 5.94098 41.5272 5.94098C41.8057 5.94098 42.104 5.87468 42.3825 5.75533C42.6875 5.61608 42.9196 5.41054 43.039 5.15195C43.1649 4.88672 43.1649 4.59498 43.039 4.2966C42.8069 3.73964 42.4356 3.63355 41.7394 3.62029" fill="var(--fill-0, #282828)"/>
<path id="Vector_41" d="M49.6496 1.62449C49.1059 1.42557 49.0131 1.32611 48.9932 1.1073C48.9799 0.994584 49.0131 0.895126 49.0794 0.82219C49.159 0.735992 49.2849 0.682948 49.4507 0.669687C49.4772 0.669687 49.5104 0.669687 49.5369 0.669687C49.7424 0.669687 49.9613 0.735992 50.1469 0.855342C50.1602 0.861973 50.1734 0.868603 50.1867 0.868603C50.2 0.868603 50.2066 0.868603 50.2198 0.861973C50.2464 0.848712 50.2596 0.82882 50.2596 0.795667L50.2928 0.311636C50.2928 0.311636 50.2795 0.251961 50.253 0.2387C50.0541 0.145872 49.8353 0.0994584 49.5966 0.0994584C49.5369 0.0994584 49.4772 0.0994584 49.4175 0.106089C49.0927 0.132611 48.8274 0.251961 48.6418 0.450878C48.4495 0.649795 48.3633 0.915017 48.3898 1.21339C48.4362 1.77699 48.7611 1.98917 49.4109 2.22787C49.9613 2.42679 50.0541 2.53287 50.074 2.7981C50.0872 2.94397 50.0475 3.05669 49.9613 3.14952C49.8751 3.23571 49.7424 3.29539 49.5833 3.30865C49.5502 3.30865 49.5104 3.30865 49.4772 3.30865C49.1457 3.30865 48.854 3.17604 48.7081 3.09647C48.6948 3.09647 48.6816 3.08984 48.6749 3.08984C48.6617 3.08984 48.6484 3.08984 48.6351 3.09647C48.6153 3.10973 48.5954 3.13626 48.5954 3.16278L48.5688 3.66007C48.5688 3.66007 48.5887 3.71974 48.6153 3.73301C48.854 3.83246 49.1324 3.89214 49.4175 3.89214C49.4839 3.89214 49.5568 3.89214 49.6297 3.88551C49.9613 3.85236 50.2397 3.72638 50.432 3.52083C50.6309 3.30865 50.7171 3.03017 50.6906 2.7119C50.6376 2.10852 50.3193 1.88971 49.6562 1.65101" fill="var(--fill-0, #282828)"/>
<path id="Vector_42" d="M53.8932 0.0795667L51.2807 0C51.2807 0 51.241 0.00663056 51.2277 0.0198917C51.2144 0.0331528 51.2078 0.0530445 51.2078 0.0729362L51.1945 0.510553C51.1945 0.550337 51.2277 0.59012 51.2675 0.59012L52.282 0.623273L52.1891 3.64018C52.1891 3.67996 52.2223 3.71975 52.2621 3.71975L52.7262 3.73301C52.7262 3.73301 52.766 3.72638 52.7792 3.71311C52.7925 3.69985 52.7991 3.67996 52.8058 3.66007L52.8986 0.643165L53.9462 0.676317C53.9462 0.676317 53.986 0.669687 53.9993 0.649795C54.0125 0.629903 54.0192 0.610012 54.0192 0.59012L53.9661 0.145872C53.9661 0.106089 53.933 0.0795667 53.8932 0.0795667Z" fill="var(--fill-0, #282828)"/>
<path id="Vector_43" d="M57.719 0.669687L57.2615 0.59012C57.2615 0.59012 57.2549 0.59012 57.2482 0.59012C57.235 0.59012 57.2151 0.59012 57.2018 0.603381C57.1886 0.616642 57.1753 0.629903 57.1687 0.649795L56.8173 2.77157C56.7311 3.30202 56.4791 3.56724 56.068 3.56724C56.0083 3.56724 55.942 3.56724 55.8757 3.54735C55.2392 3.43463 55.1861 2.90419 55.2591 2.4732L55.6105 0.364681C55.6105 0.364681 55.6105 0.324897 55.5972 0.305006C55.584 0.291745 55.5707 0.278484 55.5508 0.271853L55.0933 0.192286C55.0933 0.192286 55.0867 0.192286 55.08 0.192286C55.0469 0.192286 55.0137 0.218808 55.0071 0.258592L54.6491 2.42679C54.4966 3.32854 54.9342 3.97834 55.7895 4.13084C55.8956 4.15073 56.0017 4.15736 56.1012 4.15736C56.804 4.15736 57.3013 3.68659 57.4339 2.89092L57.7919 0.749253C57.7986 0.70947 57.7721 0.669687 57.7323 0.663056" fill="var(--fill-0, #282828)"/>
<path id="Vector_44" d="M60.6829 3.50094C60.4972 4.09106 60.1458 4.38943 59.6485 4.38943C59.4827 4.38943 59.3037 4.35628 59.1181 4.28997L58.6871 4.1441L59.4496 1.7571L59.8938 1.9096C60.6365 2.16156 60.9282 2.73842 60.6829 3.50094ZM60.053 1.346L59.1114 1.02774C59.1114 1.02774 59.0982 1.02774 59.0915 1.02774C59.0783 1.02774 59.065 1.02774 59.0584 1.03437C59.0385 1.041 59.0252 1.06089 59.0186 1.08078L57.9511 4.44247C57.9378 4.48226 57.9577 4.52867 57.9975 4.54193L58.9191 4.85357C59.1777 4.93977 59.4297 4.98618 59.6684 4.98618C60.4309 4.98618 61.021 4.52204 61.2796 3.70648C61.631 2.61244 61.1669 1.73058 60.053 1.35263" fill="var(--fill-0, #282828)"/>
<path id="Vector_45" d="M63.3815 2.69864C63.3815 2.69864 63.3616 2.66549 63.3417 2.65885L62.9174 2.45994C62.9174 2.45994 62.8975 2.45994 62.8842 2.45994C62.8577 2.45994 62.8312 2.4732 62.8179 2.50635L61.4056 5.7288C61.3857 5.76859 61.4056 5.815 61.4454 5.82826L61.8697 6.02718C61.8697 6.02718 61.8896 6.03381 61.9029 6.03381C61.9095 6.03381 61.9228 6.03381 61.9294 6.03381C61.9493 6.02718 61.9626 6.01392 61.9692 5.99403L63.3815 2.77157C63.3815 2.77157 63.3881 2.73179 63.3815 2.7119" fill="var(--fill-0, #282828)"/>
<path id="Vector_46" d="M65.8216 6.15316C65.5431 6.63056 65.1784 6.89578 64.7938 6.89578C64.6281 6.89578 64.4557 6.84274 64.2899 6.74328C63.7462 6.41175 63.66 5.76859 64.0645 5.07238C64.3429 4.59498 64.7076 4.32976 65.0922 4.32976C65.2646 4.32976 65.4304 4.3828 65.5961 4.48226C66.1398 4.81379 66.226 5.45695 65.8216 6.15316ZM65.8945 3.97171C65.6226 3.80594 65.3375 3.71975 65.0458 3.71975C64.449 3.71975 63.8921 4.09106 63.5141 4.74748C62.9505 5.72881 63.1362 6.73665 63.9849 7.25383C64.2567 7.4196 64.5419 7.5058 64.8336 7.5058C65.4304 7.5058 65.9873 7.13448 66.3653 6.47806C66.9355 5.48347 66.7565 4.49552 65.8945 3.97171Z" fill="var(--fill-0, #282828)"/>
<path id="Vector_47" d="M68.7854 7.52569C68.686 7.65167 68.56 7.71797 68.4207 7.71797C68.2749 7.71797 68.1091 7.64504 67.9433 7.50579L67.6914 7.29362L68.3345 6.4648L68.6263 6.71013C68.7854 6.84274 68.8782 6.98198 68.9048 7.12122C68.9247 7.25383 68.8849 7.38644 68.7854 7.51906M69.2827 7.90363C69.4882 7.63841 69.5678 7.35329 69.5148 7.06155C69.4617 6.78306 69.2827 6.51121 68.9976 6.27251L68.2682 5.66913C68.2682 5.66913 68.2351 5.64924 68.2218 5.64924C68.2218 5.64924 68.2218 5.64924 68.2152 5.64924C68.1953 5.64924 68.1754 5.6625 68.1621 5.67576L66.0072 8.42744C66.0072 8.42744 65.9873 8.46723 65.9939 8.48712C65.9939 8.50701 66.0072 8.5269 66.0205 8.54016L66.3852 8.84517C66.3852 8.84517 66.4183 8.86506 66.4316 8.86506C66.4316 8.86506 66.4316 8.86506 66.4382 8.86506C66.4581 8.86506 66.478 8.8518 66.4912 8.83854L67.3532 7.73786L67.5389 7.897L67.4261 9.72703C67.4261 9.72703 67.4394 9.78671 67.4659 9.79997L67.8969 10.0188C67.8969 10.0188 67.9168 10.0254 67.9301 10.0254C67.9433 10.0254 67.9566 10.0254 67.9699 10.0121C67.9897 9.99889 68.003 9.97899 68.0096 9.95247L68.1157 8.24179C68.2483 8.2882 68.3809 8.31472 68.5069 8.31472C68.8053 8.31472 69.0772 8.17548 69.2893 7.90363" fill="var(--fill-0, #282828)"/>
<path id="Vector_48" d="M69.1302 11.5107C69.4286 11.8356 69.78 12.0146 70.1447 12.0146C70.5094 12.0146 70.8475 11.8488 71.1658 11.5438L72.6974 10.0519C72.6974 10.0519 72.7306 9.97236 72.6974 9.94584L72.3792 9.59442C72.3792 9.59442 72.346 9.5679 72.3261 9.5679C72.3261 9.5679 72.2863 9.57453 72.2731 9.58779L70.7547 11.0664C70.5359 11.2852 70.3104 11.3913 70.1049 11.3913C69.9126 11.3913 69.7269 11.2918 69.5479 11.1062C69.1037 10.6155 69.3755 10.1646 69.6805 9.86627L71.1857 8.40092C71.1857 8.40092 71.2056 8.36777 71.2122 8.34788C71.2122 8.32798 71.2056 8.30809 71.1923 8.29483L70.874 7.94341C70.874 7.94341 70.8409 7.91689 70.821 7.91689C70.8011 7.91689 70.7812 7.92352 70.7679 7.93678L69.2164 9.44192C68.5732 10.0652 68.5401 10.8609 69.1302 11.5107Z" fill="var(--fill-0, #282828)"/>
<path id="Vector_49" d="M70.6221 13.0291C70.6221 13.0291 70.6221 13.0755 70.6353 13.0887L70.874 13.4667C70.874 13.4667 70.9138 13.4998 70.9337 13.4998C70.947 13.4998 70.9602 13.4998 70.9669 13.4932L73.0688 12.2732L71.5702 14.501C71.5702 14.501 71.5504 14.5607 71.5702 14.5872L71.7625 14.8922C71.7625 14.8922 71.8023 14.9254 71.8222 14.9254H71.8355L74.4015 14.3552L72.5052 15.8935C72.5052 15.8935 72.4654 15.9664 72.4919 15.9929L72.7372 16.3775C72.7372 16.3775 72.7637 16.404 72.7903 16.4106C72.7903 16.4106 72.7969 16.4106 72.8035 16.4106C72.8168 16.4106 72.8367 16.4106 72.8499 16.3974L75.5552 14.2027C75.5552 14.2027 75.595 14.1297 75.5685 14.1032L75.2502 13.6125C75.2502 13.6125 75.2104 13.5794 75.1905 13.5794C75.1905 13.5794 75.1773 13.5794 75.1706 13.5794L72.4322 14.2226L74.07 11.8621C74.07 11.8621 74.0899 11.8024 74.07 11.7759L73.7517 11.2786C73.7517 11.2786 73.7119 11.2454 73.692 11.2454C73.6788 11.2454 73.6655 11.2454 73.6522 11.2521L70.6486 12.976C70.6486 12.976 70.6154 13.0025 70.6154 13.0224" fill="var(--fill-0, #282828)"/>
<path id="Vector_50" d="M76.8813 21.9074L77.9157 21.6554L77.9953 22.0002C78.0483 22.219 78.0417 22.3914 77.982 22.5174C77.9223 22.6434 77.8096 22.7229 77.6438 22.7627C77.5842 22.776 77.5311 22.7826 77.4781 22.7826C77.2195 22.7826 77.0405 22.5903 76.9543 22.219L76.8813 21.9074ZM74.8656 21.7681C74.8656 21.7681 74.8524 21.8079 74.859 21.8278L74.9651 22.2986C74.9717 22.3317 75.0049 22.3583 75.038 22.3583C75.038 22.3583 75.0513 22.3583 75.0579 22.3583L76.3376 22.0466L76.4039 22.3384C76.4835 22.6765 76.6095 22.9417 76.7885 23.134C76.9808 23.3329 77.2195 23.4324 77.4913 23.4324C77.5908 23.4324 77.6903 23.4191 77.7963 23.3926C78.4461 23.2335 78.7246 22.6765 78.5456 21.9007L78.3334 20.9857C78.3334 20.9857 78.3202 20.9459 78.3003 20.9393C78.287 20.9327 78.2737 20.9261 78.2605 20.9261C78.2605 20.9261 78.2472 20.9261 78.2406 20.9261L74.9054 21.7416C74.9054 21.7416 74.8723 21.7615 74.859 21.7748" fill="var(--fill-0, #282828)"/>
<path id="Vector_51" d="M78.2936 25.3155L77.193 25.9056L77.0935 25.0038L78.2936 25.3155ZM75.4557 23.943C75.4557 23.943 75.4226 23.9496 75.4093 23.9628C75.3894 23.9761 75.3828 24.0026 75.3828 24.0292L75.4359 24.5132C75.4359 24.5132 75.4624 24.5729 75.4889 24.5795L76.5034 24.8447L76.6492 26.1907L75.6812 26.7013C75.6812 26.7013 75.6348 26.7609 75.6414 26.7941L75.7939 27.245C75.7939 27.245 75.8204 27.2848 75.8403 27.2914C75.8469 27.2914 75.8602 27.2914 75.8668 27.2914C75.8801 27.2914 75.8934 27.2914 75.9 27.2848L79.1026 25.5343C79.1026 25.5343 79.1423 25.4879 79.1423 25.4614L79.0893 24.984C79.0893 24.984 79.0628 24.9243 79.0362 24.9176L75.469 23.943C75.469 23.943 75.4557 23.943 75.4491 23.943" fill="var(--fill-0, #282828)"/>
<path id="Vector_52" d="M78.7312 28.5777V28.9623C78.7114 29.3734 78.5456 29.5856 78.2141 29.5856H78.1942C77.7433 29.5723 77.6902 29.1413 77.6902 28.8827V28.5512L78.7246 28.5777H78.7312ZM79.2816 27.9743C79.2816 27.9743 79.2484 27.9544 79.2285 27.9478L75.8005 27.8682C75.7608 27.8682 75.7276 27.9014 75.7276 27.9412L75.7143 28.4252C75.7143 28.4252 75.721 28.465 75.7342 28.4783C75.7475 28.4915 75.7674 28.5048 75.7873 28.5048L77.1598 28.5379V28.7833L75.6812 29.8044C75.6547 29.8243 75.6414 29.8508 75.648 29.8839L75.7409 30.3746C75.7409 30.3746 75.7608 30.421 75.7873 30.4276C75.7939 30.4276 75.8072 30.4276 75.8138 30.4276C75.8271 30.4276 75.8403 30.4276 75.8536 30.4144L77.2261 29.4596C77.3786 29.9303 77.7168 30.1956 78.2008 30.2088C78.2141 30.2088 78.2207 30.2088 78.234 30.2088C78.8705 30.2088 79.2617 29.7513 79.275 28.9822L79.2948 28.0207C79.2948 28.0207 79.2882 27.981 79.275 27.9677" fill="var(--fill-0, #282828)"/>
<path id="Vector_53" d="M79.0827 31.7405L75.7608 30.8255C75.7608 30.8255 75.7475 30.8255 75.7409 30.8255C75.7276 30.8255 75.7144 30.8255 75.7011 30.8387C75.6812 30.852 75.6746 30.8719 75.6679 30.8918L75.5884 31.336C75.5817 31.3758 75.6083 31.4156 75.6414 31.4222L77.9754 32.0521L75.4027 32.5759C75.4027 32.5759 75.3497 32.6091 75.343 32.6356L75.2767 32.9937C75.2767 32.9937 75.2834 33.0533 75.3099 33.0732L77.5378 34.5054L75.1375 34.2535C75.1375 34.2535 75.1375 34.2535 75.1309 34.2535C75.0977 34.2535 75.0646 34.28 75.0579 34.3132L74.9784 34.7707C74.9784 34.7707 74.9784 34.8104 74.9916 34.8303C75.0049 34.8502 75.0248 34.8569 75.0447 34.8635L78.466 35.2282H78.4727C78.5058 35.2282 78.539 35.2016 78.5456 35.1619L78.6517 34.585C78.6517 34.585 78.6451 34.5187 78.6185 34.5054L76.2116 33.0069L78.9766 32.4765C78.9766 32.4765 79.0296 32.45 79.0363 32.4168L79.1424 31.8333C79.149 31.7935 79.1291 31.7538 79.0893 31.7471" fill="var(--fill-0, #282828)"/>
<path id="Vector_54" d="M78.0284 36.6935L74.7861 35.5531C74.7861 35.5531 74.7728 35.5531 74.7596 35.5531C74.7264 35.5531 74.6999 35.573 74.6866 35.6061L74.0766 37.456C74.0766 37.456 74.0766 37.4958 74.0766 37.5157C74.0832 37.5356 74.1031 37.5489 74.123 37.5555L74.5275 37.6947C74.5275 37.6947 74.5407 37.6947 74.554 37.6947C74.5872 37.6947 74.6137 37.6748 74.6269 37.6417L75.0646 36.3156L76.0127 36.6471L75.6679 37.6881C75.6679 37.6881 75.6679 37.7345 75.6746 37.7544C75.6878 37.7743 75.7011 37.7876 75.7276 37.7942L76.152 37.8671C76.152 37.8671 76.1586 37.8671 76.1652 37.8671C76.1984 37.8671 76.2249 37.8472 76.2382 37.8141L76.5631 36.8394L77.3587 37.1245L76.9344 38.3976C76.9344 38.3976 76.9344 38.4374 76.9344 38.4572C76.941 38.4771 76.9609 38.4904 76.9808 38.497L77.3853 38.6363C77.3853 38.6363 77.3985 38.6363 77.4118 38.6363C77.4449 38.6363 77.4715 38.6164 77.4847 38.5832L78.0815 36.7797C78.0947 36.7399 78.0748 36.6935 78.0351 36.6803" fill="var(--fill-0, #282828)"/>
<path id="Vector_55" d="M76.9874 39.6839L73.9175 38.1191C73.9175 38.1191 73.8976 38.1125 73.8843 38.1125C73.8578 38.1125 73.8313 38.1257 73.818 38.1522L73.6257 38.5501C73.6257 38.5501 73.6191 38.5899 73.6257 38.6098C73.6324 38.6296 73.6456 38.6429 73.6655 38.6562L75.847 39.7701L72.8566 40.2541C72.8566 40.2541 72.8102 40.274 72.8035 40.2939L72.6444 40.6188C72.6245 40.6586 72.6444 40.705 72.6776 40.7249L75.7475 42.2897C75.7475 42.2897 75.7674 42.2963 75.7807 42.2963C75.8072 42.2963 75.8337 42.2831 75.847 42.2566L76.0392 41.8587C76.0392 41.8587 76.0459 41.8189 76.0392 41.7991C76.0326 41.7792 76.0194 41.7659 75.9995 41.7526L73.9042 40.6851L76.7819 40.2144C76.7819 40.2144 76.8283 40.1945 76.8349 40.1746L77.0206 39.79C77.0405 39.7502 77.0206 39.7038 76.9874 39.6839Z" fill="var(--fill-0, #282828)"/>
<path id="Vector_56" d="M74.4214 42.8202C74.2424 42.6942 74.0832 42.6411 73.9108 42.6411C73.6456 42.6411 73.3605 42.787 73.0157 43.0058C72.7107 43.1981 72.5516 43.271 72.419 43.271C72.3394 43.271 72.2665 43.2445 72.167 43.1782C71.9349 43.0191 71.9084 42.7472 72.0941 42.4621C72.3062 42.1372 72.6311 41.9648 72.8035 41.8852C72.8301 41.8786 72.8433 41.8521 72.8499 41.8256C72.8499 41.7991 72.8499 41.7725 72.8234 41.7526L72.4654 41.4211C72.4654 41.4211 72.4322 41.4012 72.4123 41.4012C72.3991 41.4012 72.3858 41.4012 72.3792 41.4078C72.0941 41.567 71.8288 41.8189 71.6299 42.1239C71.2453 42.7141 71.3315 43.3572 71.8487 43.7153C72.041 43.8479 72.22 43.9142 72.3991 43.9142C72.6378 43.9142 72.8964 43.8081 73.2942 43.5561C73.5992 43.3639 73.7716 43.2843 73.8976 43.2843C73.9639 43.2843 74.0236 43.3042 74.0965 43.3572C74.302 43.4965 74.3153 43.7352 74.1429 44.0004C74.0169 44.1993 73.8047 44.3584 73.566 44.438C73.5395 44.4446 73.5263 44.4712 73.5196 44.4977C73.5196 44.5242 73.5196 44.5507 73.5395 44.5706L73.8843 44.9022C73.8843 44.9022 73.9175 44.922 73.9374 44.922C73.9506 44.922 73.9572 44.922 73.9705 44.9154C74.2158 44.7894 74.4214 44.5971 74.5938 44.3319C74.7728 44.0534 74.8524 43.7617 74.8258 43.4898C74.7927 43.2114 74.6468 42.9727 74.4081 42.8069" fill="var(--fill-0, #282828)"/>
<path id="Vector_57" d="M70.642 43.7484C70.642 43.7484 70.6088 43.7285 70.5956 43.7285C70.5757 43.7285 70.5558 43.7352 70.5359 43.7551L70.2441 44.1264C70.2441 44.1264 70.2243 44.1595 70.2243 44.1861C70.2243 44.2059 70.2375 44.2258 70.2508 44.2391L72.9163 46.467C72.9163 46.467 72.9428 46.4869 72.9627 46.4869C72.9627 46.4869 72.9627 46.4869 72.9693 46.4869C72.9892 46.4869 73.0091 46.4736 73.0223 46.4603L73.3141 46.0824C73.3406 46.0492 73.334 46.0028 73.3008 45.9763L70.6353 43.7484H70.642Z" fill="var(--fill-0, #282828)"/>
<path id="Vector_58" d="M70.9934 46.4139C70.7945 46.4139 70.5624 46.4736 70.1977 46.6261C69.9192 46.7388 69.7535 46.7852 69.6341 46.7852C69.5214 46.7852 69.4352 46.7455 69.3358 46.6394C69.1368 46.4404 69.1567 46.1686 69.3888 45.9233C69.654 45.6448 69.9988 45.5321 70.1845 45.4856C70.211 45.4856 70.2309 45.4591 70.2375 45.4392C70.2441 45.4127 70.2375 45.3862 70.2242 45.3663L69.9325 44.9751C69.9325 44.9751 69.8927 44.9486 69.8728 44.9486C69.8662 44.9486 69.8596 44.9486 69.8529 44.9486C69.5479 45.048 69.2429 45.2536 68.9976 45.5188C68.7655 45.7708 68.6329 46.0492 68.6197 46.3344C68.6064 46.6261 68.7125 46.898 68.9379 47.1234C69.1634 47.3488 69.3556 47.435 69.601 47.435C69.7999 47.435 70.0386 47.3754 70.39 47.2295C70.6751 47.1101 70.8409 47.0637 70.9602 47.0637C71.0597 47.0637 71.126 47.0969 71.2122 47.1764C71.3912 47.3555 71.3647 47.5875 71.1459 47.8196C70.9868 47.992 70.7547 48.1114 70.5027 48.1511C70.4762 48.1511 70.4563 48.171 70.4431 48.1976C70.4364 48.2241 70.4364 48.2506 70.4497 48.2705L70.7348 48.6617C70.7348 48.6617 70.768 48.6948 70.7945 48.6948C70.8011 48.6948 70.8077 48.6948 70.8144 48.6948C71.0796 48.6153 71.3117 48.4628 71.5305 48.2373C71.9946 47.74 72.0278 47.1234 71.6034 46.7057C71.4045 46.5068 71.2188 46.4206 70.9868 46.4206" fill="var(--fill-0, #282828)"/>
<path id="Vector_59" d="M25.9255 32.8677C25.9255 33.1528 26.1509 33.3849 26.4294 33.3849C26.7079 33.3849 26.9333 33.1528 26.9333 32.8677C26.9333 32.5826 26.7079 32.3505 26.4294 32.3505C26.1509 32.3505 25.9255 32.5826 25.9255 32.8677Z" fill="var(--fill-0, #282828)"/>
<path id="Vector_60" d="M45.7641 2.24776C45.6779 2.18808 45.5785 2.15493 45.479 2.15493C45.3132 2.15493 45.1607 2.24113 45.0679 2.37374C44.9088 2.60581 44.9685 2.93071 45.1939 3.09647C45.2801 3.15615 45.3795 3.1893 45.479 3.1893C45.6448 3.1893 45.7973 3.1031 45.8901 2.96386C46.0492 2.73179 45.9896 2.40689 45.7641 2.24113" fill="var(--fill-0, #282828)"/>
<path id="Vector_61" d="M75.5221 17.7765C75.4558 17.7765 75.3961 17.7898 75.3298 17.8163C75.0712 17.9224 74.9518 18.2274 75.0513 18.4926C75.1309 18.6915 75.3099 18.8175 75.5154 18.8175C75.5817 18.8175 75.6414 18.8043 75.7077 18.7777C75.9663 18.6717 76.0857 18.3667 75.9862 18.1014C75.9066 17.9025 75.7276 17.7765 75.5221 17.7765Z" fill="var(--fill-0, #282828)"/>
</g>
</g>
<defs>
<clipPath id="clip0_4106_1353">
<rect width="103.569" height="93.8092" fill="white"/>
</clipPath>
</defs>
</svg>
