<svg width="104" height="94" viewBox="0 0 104 94" fill="none" xmlns="http://www.w3.org/2000/svg">
<g clip-path="url(#clip0_1_437)">
<path d="M4.79389 75.4225C1.88971 75.4225 0 73.6455 0 70.4164V62.8311H2.29417V70.2971C2.29417 72.1801 3.12962 73.367 4.81379 73.367C6.49795 73.367 7.36655 72.2531 7.36655 70.3501V62.8311H9.68061V70.3634C9.68061 73.6455 7.69808 75.4225 4.80052 75.4225" fill="#282828"/>
<path d="M20.7337 75.204L15.0845 66.6837V75.204H12.9495V62.8247H15.1177L20.5083 70.9339V62.8247H22.6433V75.204H20.7337Z" fill="#282828"/>
<path d="M28.4518 62.8247H26.1377V75.204H28.4518V62.8247Z" fill="#282828"/>
<path d="M37.6947 75.257H35.4337L31.0177 63.1297L33.4511 62.6987L36.647 72.1937L39.7966 62.8247H42.1968L37.6947 75.257Z" fill="#282828"/>
<path d="M44.6967 75.204V62.8247H51.6654V64.8338H46.9709V67.7446H50.5846L50.9029 69.7868H46.9709V73.1949H51.8378V75.204H44.6967Z" fill="#282828"/>
<path d="M58.1102 64.7274H56.8438V68.6593H58.0041C59.4297 68.6593 60.3182 67.9565 60.3182 66.6701C60.3182 65.3838 59.5557 64.734 58.1102 64.734M63.3749 74.8854L61.0277 75.3363L57.898 70.4761H56.857V75.2103H54.5629V62.8311H58.2826C60.9614 62.8311 62.5726 64.1373 62.5726 66.5442C62.5726 68.341 61.6509 69.4682 60.1723 70.0252L63.3682 74.8854H63.3749Z" fill="#282828"/>
<path d="M69.0108 75.3496C67.5521 75.3496 66.2989 75.0115 65.238 74.4877L65.5828 72.3195C66.5907 72.9295 67.8438 73.4135 69.044 73.4135C70.1049 73.4135 70.8342 72.8963 70.8342 71.9084C70.8342 70.9934 70.4165 70.6154 68.6793 69.8463C66.352 68.8583 65.4104 68.0693 65.4104 66.153C65.4104 63.965 67.0415 62.6919 69.2893 62.6919C70.6419 62.6919 71.5835 62.977 72.4521 63.4478L72.1007 65.6027C71.2321 65.0126 70.2043 64.6346 69.2694 64.6346C68.1223 64.6346 67.6184 65.2115 67.6184 65.9608C67.6184 66.71 68.003 67.1277 69.6673 67.8438C72.1338 68.8848 73.0356 69.7667 73.0356 71.6829C73.0356 74.1031 71.3183 75.3629 69.0042 75.3629" fill="#282828"/>
<path d="M78.2738 62.8247H75.9597V75.204H78.2738V62.8247Z" fill="#282828"/>
<path d="M86.8537 64.8868V75.204H84.5462V64.8868H80.979V62.8247H90.2949L90.6265 64.8868H86.8537Z" fill="#282828"/>
<path d="M97.8538 65.3576L99.4849 70.1316H96.2161L97.8472 65.3576H97.8538ZM96.7266 62.7717L92.2245 75.204H94.4988L95.5928 72.0611H100.128L101.275 75.3233L103.569 74.8923L99.1733 62.765H96.7266V62.7717ZM94.7971 59.6354L97.2438 61.8633H98.6163L97.3499 59.1514L94.7971 59.6354Z" fill="#282828"/>
<path d="M13.6921 83.2597H12.2002V91.7269H13.6589C16.1785 91.7269 17.6903 90.4008 17.6903 87.4967C17.6903 84.5925 16.0923 83.2597 13.6921 83.2597ZM13.7119 93.683H9.90601V81.3037H13.7119C17.8826 81.3037 20.0375 83.8366 20.0375 87.4768C20.0375 91.1169 17.7964 93.683 13.7119 93.683Z" fill="#282828"/>
<path d="M25.4083 81.3037H23.0942V93.683H25.4083V81.3037Z" fill="#282828"/>
<path d="M36.8593 83.2067H35.7653V87.2049H36.7731C38.2517 87.2049 39.1203 86.575 39.1203 85.1627C39.1203 83.8697 38.3379 83.2067 36.8593 83.2067ZM36.7864 89.1278H35.7587V93.683H33.4645V81.3037H36.972C39.7171 81.3037 41.3681 82.6099 41.3681 85.1097C41.3681 87.7818 39.5248 89.1278 36.7798 89.1278" fill="#282828"/>
<path d="M47.5278 83.8369L49.1589 88.6109H45.89L47.5212 83.8369H47.5278ZM46.4006 81.251L41.8984 93.6833H44.1727L45.2668 90.5404H49.8021L50.9491 93.8093L53.2433 93.3783L48.8473 81.251H46.4006Z" fill="#282828"/>
<path d="M59.2971 83.2069H58.0307V87.1388H59.191C60.6166 87.1388 61.5051 86.436 61.5051 85.1496C61.5051 83.8633 60.7426 83.2135 59.2971 83.2135M64.5618 93.3649L62.2146 93.8158L59.0849 88.9556H58.0439V93.6898H55.7498V81.3105H59.4695C62.1482 81.3105 63.7595 82.6168 63.7595 85.0237C63.7595 86.8205 62.8378 87.9477 61.3592 88.5047L64.5551 93.3649H64.5618Z" fill="#282828"/>
<path d="M76.4968 81.3037L73.4732 90.6528L70.4298 81.3037H67.5123L66.5907 93.683H68.6594L69.2694 84.6455L72.3129 93.7228H74.3286L77.3521 84.6455L77.9953 93.683H80.2894L79.3678 81.3037H76.4968Z" fill="#282828"/>
<path d="M88.0737 83.8369L89.7048 88.6109H86.436L88.0671 83.8369H88.0737ZM86.9399 81.251L82.4377 93.6833H84.712L85.8061 90.5404H90.3414L91.4885 93.8093L93.7826 93.3783L89.3866 81.251H86.9399Z" fill="#282828"/>
<path d="M58.3291 50.0079V49.9681C58.3291 49.9681 58.3225 49.9283 58.3158 49.9151C58.3158 49.9151 58.3158 49.9018 58.3158 49.8952L58.1899 47.6474C58.1899 47.6474 58.1899 47.601 58.1766 47.5811C58.1236 47.4154 57.5268 46.003 53.3893 46.8319C52.0367 47.1037 50.8631 47.422 49.8287 47.7005C48.6949 48.0055 47.7865 48.2508 47.0439 48.337L47.1235 47.8795C47.1367 47.8066 47.1235 47.7336 47.077 47.674C47.0373 47.6143 46.971 47.5811 46.9046 47.5745C45.1476 47.4154 44.942 47.727 44.8956 47.8795C44.8823 47.9127 44.8691 47.9458 44.8691 47.9856C44.8691 48.1779 44.8359 48.9868 44.8492 49.9549C42.1373 49.0398 39.6574 47.601 37.5224 45.7511L37.5556 43.8614L37.7412 33.763C40.2343 33.2193 40.0752 31.3495 39.9691 30.0963C39.9625 30.0035 39.9492 29.9173 39.9359 29.8311C39.9359 29.8311 39.9359 29.8112 39.9359 29.8046C39.684 28.5382 38.5568 27.948 37.8606 27.7756V27.4507L37.9534 22.5574C40.0022 23.0481 41.1891 24.4405 41.5803 26.8009C41.9848 29.2476 41.4344 31.2898 41.03 32.7751C40.8841 33.3055 40.7648 33.763 40.6984 34.1675C40.4266 35.8517 40.4332 39.6046 42.4025 41.7661C42.734 42.1308 43.1053 42.4358 43.5098 42.6745C44.7895 43.437 45.9366 44.1133 46.9577 44.5443H46.9643C46.9643 44.5443 46.9643 44.5443 46.971 44.5443C48.1247 44.9289 49.9282 45.2273 52.0433 45.3798C52.5008 45.4129 52.965 45.4395 53.4225 45.4527H53.4291C53.9463 45.4726 54.4502 45.4792 54.9276 45.4792C56.2471 45.4792 57.4075 45.4063 58.1633 45.2737C58.349 45.2405 58.5015 45.2074 58.6275 45.1742C60.5968 44.6173 61.9494 43.5829 63.0368 42.7474C63.0567 42.7342 63.0766 42.7209 63.0898 42.7077C66.8825 39.777 68.1887 36.0572 68.6794 34.6515L68.7457 34.4659C68.7921 34.3266 68.7258 34.1808 68.5932 34.1277C68.4606 34.0747 68.3147 34.1476 68.2683 34.2868L68.202 34.4725C67.7379 35.7854 66.5444 39.2001 63.1495 41.9916C63.1363 41.2821 63.1097 39.9096 63.0832 38.2652C64.1043 37.6485 66.8096 35.6329 67.3666 31.449C67.3864 31.3031 67.287 31.1705 67.1477 31.1572C67.0085 31.1373 66.8825 31.2368 66.8626 31.3827C66.3852 35.0361 64.164 36.9324 63.0766 37.6618C63.0567 36.5943 63.0368 35.4406 63.0169 34.2868C66.1664 32.974 67.0682 29.4598 67.4528 27.948C67.4793 27.8552 67.4992 27.769 67.5191 27.6894L67.8705 27.8022C67.8705 27.8022 67.9235 27.8154 67.95 27.8154C68.0031 27.8154 68.0561 27.7955 68.1025 27.7624L69.1369 26.9866C69.1236 28.5846 69.2894 31.7672 72.976 34.2073C72.366 36.5412 71.3979 38.7293 70.1448 40.7119C69.8199 38.9548 70.0851 36.9126 70.2707 35.5201C70.3172 35.1555 70.3636 34.8239 70.3901 34.5454C70.4034 34.3996 70.3039 34.2736 70.1646 34.2603C70.0254 34.2471 69.8994 34.3532 69.8862 34.4924C69.8596 34.7643 69.8199 35.0891 69.7668 35.4472C69.5613 37.0054 69.2496 39.3592 69.7536 41.3086C66.9952 45.3731 62.9904 48.463 58.3158 49.9946M57.9644 52.753C57.9114 52.8723 57.7721 53.0182 57.56 53.0248C57.182 52.9983 55.4713 52.9121 54.9807 53.6017C54.8746 53.3099 54.8149 52.9917 54.795 52.7662C55.3586 52.6005 55.8493 52.4546 56.2405 52.3551C57.4937 52.0302 57.8583 52.3352 57.9379 52.4347C57.9578 52.4546 57.9644 52.4811 57.9777 52.501L57.9909 52.6933C57.9909 52.6933 57.9777 52.7331 57.9711 52.7463M55.4315 54.2316C55.4315 54.2316 55.3984 54.2117 55.3851 54.1984C55.3056 54.0128 55.352 53.9332 55.3719 53.9067C55.4581 53.7741 55.6835 53.6746 55.9753 53.6149C56.0283 53.8735 56.141 54.0526 56.2736 54.1852C55.9885 54.2846 55.657 54.3509 55.4382 54.2316M45.5056 48.0784C45.7443 48.0453 46.1554 48.0386 46.5864 48.0652L46.5333 48.3635C46.1554 48.3635 45.857 48.2906 45.6117 48.1447C45.5719 48.1182 45.5321 48.0983 45.5056 48.0784ZM45.6979 53.4492C45.3531 52.6668 45.3199 50.0543 45.3531 48.5823C45.3531 48.5823 45.3664 48.589 45.373 48.5956C45.7708 48.8277 46.2549 48.9139 46.9046 48.8675C47.7268 48.8078 48.7148 48.5426 49.9613 48.2044C50.9891 47.9259 52.1561 47.6076 53.4888 47.3424C56.9168 46.6528 57.613 47.5878 57.7058 47.7336L57.8252 49.9283C57.8252 49.9283 57.8252 49.9681 57.8318 49.9814C57.8318 49.9814 57.8318 49.9947 57.8318 50.0013L57.9313 51.8247C57.5865 51.6722 57.0229 51.6191 56.1145 51.8578C55.657 51.9772 55.0669 52.1496 54.3905 52.3485C51.5593 53.1906 46.8383 54.5896 45.6979 53.4492ZM32.6755 39.883C32.9606 38.6564 33.0799 37.3767 33.0269 36.0705C33.0269 36.0705 33.0269 36.0705 33.0269 36.0638C33.0269 36.0506 33.0269 36.0439 33.0269 36.0307C33.0269 36.0307 33.0269 36.0241 33.0269 36.0174C32.954 34.4858 32.6688 33.2923 32.5097 32.6557C32.4699 32.5032 32.4434 32.3839 32.4301 32.3043C32.4036 32.1651 32.271 32.0722 32.1384 32.1054C32.0058 32.1319 31.9196 32.2645 31.9461 32.4038C31.966 32.4966 31.9925 32.6226 32.0323 32.7817C32.1649 33.3453 32.4102 34.3333 32.5031 35.6063C30.9913 34.5322 30.4675 32.6292 30.3017 31.1639C30.0829 29.2675 30.368 27.285 30.7393 26.1644C31.4753 23.9432 33.8491 22.9619 34.5188 22.7298C34.9498 23.1873 35.3807 23.2934 35.6791 23.2934C35.7189 23.2934 35.7521 23.2934 35.7918 23.2934C36.4151 23.2403 37.0251 22.743 37.4428 22.0071V22.2524L37.3898 24.8516C36.3554 24.9842 35.3144 25.3953 34.3 26.0782C34.3 26.0782 34.2933 26.0782 34.2933 26.0848C34.2867 26.0848 34.2801 26.0981 34.2734 26.0981C34.2734 26.0981 34.2668 26.1047 34.2602 26.1114C32.7484 27.1457 31.6676 28.5249 31.1571 29.2609C31.0775 29.3736 31.104 29.5394 31.2167 29.6189C31.2632 29.6521 31.3096 29.6654 31.3626 29.6654C31.4422 29.6654 31.5151 29.6256 31.5615 29.5593C32.0257 28.8896 32.9871 27.6563 34.3265 26.6816C34.7508 27.8884 35.9642 32.3574 35.752 36.2163C35.7255 36.7004 35.699 37.1645 35.6725 37.6088C35.4669 40.9705 35.3343 43.0326 37.045 44.0205L37.0185 45.3135C35.3144 43.7487 33.8491 41.9186 32.6821 39.8897M37.7876 30.8323L37.834 28.3193C38.391 28.4851 39.1867 28.936 39.4055 29.8444C39.0408 30.4279 38.4242 30.6533 37.7876 30.8323ZM37.3434 27.2253C36.5212 27.3778 35.8382 27.8618 35.3144 28.2663C35.1023 27.411 34.8967 26.7479 34.7575 26.3832C35.6261 25.8263 36.5013 25.4881 37.3765 25.3621L37.3434 27.2187V27.2253ZM41.2753 12.0281C41.2952 12.459 41.3151 13.1022 41.335 13.8183L41.3615 14.7134C40.7449 15.0914 40.221 15.4163 39.7834 15.6815C38.9612 16.1854 38.4242 16.5103 38.0462 16.7623C38.0727 15.4627 38.086 14.5344 38.0993 14.1101L38.1192 14.0968C38.7292 13.6525 39.9426 12.7641 41.2819 12.0281M41.8654 14.4018L41.8455 13.7984C41.819 12.9298 41.7925 12.1739 41.7726 11.7628C41.998 11.6501 42.2102 11.544 42.4224 11.4512C44.8492 10.1317 45.6913 10.755 46.1886 11.5639C46.2416 11.975 46.3212 12.6646 46.414 13.5862C45.373 12.8237 43.9938 13.0823 41.8654 14.4018ZM46.7455 17.1402C46.0891 16.8352 44.9818 17.0341 43.4568 17.7303C43.1451 17.8696 42.6213 18.1414 42.0246 18.4663C41.9781 17.664 41.9185 15.8937 41.8853 14.9986L42.124 14.8527C44.6834 13.268 45.7377 13.5 46.4936 14.362C46.5996 15.403 46.6991 16.4639 46.7588 17.1535C46.7588 17.1535 46.7455 17.1535 46.7389 17.1469M40.0487 16.1257C40.4332 15.8937 40.8775 15.6218 41.388 15.3036C41.4543 17.2198 41.5007 18.2939 41.5339 18.7316C41.2753 18.8708 41.0101 19.0233 40.7449 19.1692C39.4254 19.9184 38.4971 20.4953 37.9667 20.8931L38.033 17.3922C38.4043 17.127 38.9811 16.7689 40.042 16.1191M42.3959 20.6412C42.3362 20.661 41.7859 20.8732 41.6466 21.3108C41.6466 21.3175 41.6466 21.3241 41.6466 21.3307C41.1891 20.9064 41.156 20.0577 41.1294 19.5537C42.1373 18.9835 43.1849 18.4332 43.6623 18.2077C45.4791 17.3723 46.2416 17.4784 46.5333 17.6176C46.6726 17.6839 46.7654 17.7834 46.8185 17.9226C46.7124 18.6586 46.3808 19.1161 42.3892 20.6412M44.8425 21.5164C44.6304 21.4037 44.3121 21.3573 43.8745 21.3838C43.2777 21.4169 42.6346 21.5694 42.502 21.6026C42.376 21.6092 42.25 21.6026 42.1373 21.5827C42.1174 21.5297 42.1306 21.4965 42.1373 21.4832C42.1771 21.344 42.4224 21.1981 42.5749 21.1451C43.417 20.8202 44.1066 20.5483 44.6702 20.2964C44.7762 20.6279 44.889 21.092 44.8492 21.5297M43.47 22.4845C43.649 22.2988 43.7551 22.2259 43.8347 22.1662C43.9474 22.0866 44.0137 22.0203 44.0734 21.901C44.4845 21.901 44.6304 21.9739 44.6569 22.0071C44.6569 22.0071 44.6569 22.0535 44.6304 22.133C44.4779 22.332 44.2392 22.5176 44.0071 22.7033C43.7817 22.8823 43.5164 23.0878 43.3374 23.3332C43.2446 23.0083 43.2645 22.6966 43.4767 22.4778M35.7786 16.3114C36.382 16.8153 37.5821 18.5525 37.4694 20.2035C37.0583 19.819 36.4217 19.6134 35.8714 19.5537C35.0161 19.5073 34.4591 19.8123 34.0347 20.1969C33.9353 18.3006 35.3211 16.7623 35.7719 16.3114M34.7972 22.2723C34.7972 22.2723 34.784 22.2524 34.7707 22.2391C34.6182 22.0468 34.479 21.7949 34.3464 21.5031C34.2535 21.291 34.1806 21.0721 34.1276 20.8401C34.5121 20.4025 34.9962 20.0311 35.8316 20.0709C36.4483 20.1439 37.1644 20.429 37.3434 20.8998C37.0583 21.9209 36.3952 22.6966 35.7454 22.7563C35.4073 22.7895 35.0824 22.6171 34.7972 22.2656M35.447 28.8233L35.4935 28.7901C35.9709 28.4188 36.6008 27.9281 37.3368 27.7624L37.2771 31.1705L37.2307 33.5376L37.0516 43.3906C35.878 42.4756 35.9908 40.5925 36.1764 37.6287C36.2029 37.1844 36.2295 36.7269 36.256 36.2362C36.3886 33.7299 35.9244 30.8655 35.447 28.8166M37.7412 33.226L37.7744 31.376C38.3645 31.2103 39.001 31.0246 39.4784 30.5538C39.5447 31.8335 39.3524 32.8348 37.7412 33.2193M51.672 5.49033C61.0078 5.49033 69.0109 11.5109 72.2334 19.9847C71.1128 19.2753 69.6674 18.9504 68.7523 18.957C68.7722 18.8244 68.7921 18.705 68.8054 18.5923C68.8319 18.3868 68.8584 18.1812 68.8783 18.0088C68.9977 17.4121 69.0043 16.875 68.8982 16.3976C68.8982 16.3578 68.8982 16.3114 68.8982 16.2716C68.8385 15.2505 68.4075 14.3156 67.6914 13.6327C66.9753 12.9497 66.0537 12.6049 65.0989 12.6712C64.1441 12.7309 63.2755 13.1884 62.6456 13.9642C62.0223 14.7333 61.7107 15.7147 61.7704 16.7358C61.83 17.6972 62.2146 18.5658 62.8114 19.209C61.8035 19.4211 61.0476 19.8123 60.4907 20.2831C60.6166 18.8178 60.1392 17.3789 59.6154 16.4904C59.6088 16.4705 59.5955 16.4506 59.5823 16.4374C59.4033 16.1456 59.2176 15.8937 59.0253 15.6881C58.7004 15.35 58.4153 15.0781 58.0838 14.9455C57.9313 14.1366 57.666 13.6194 57.3743 13.268C57.5202 12.9497 57.8451 12.2336 57.9512 11.922C57.9843 11.8291 57.9644 11.7297 57.9047 11.6567C57.8451 11.5838 57.7456 11.5507 57.6528 11.5772C57.0759 11.7231 56.4195 11.1992 56.2803 11.0335C56.2073 10.9406 56.0813 10.9141 55.9819 10.9672C55.3056 11.2921 55.0072 11.3319 54.3044 11.1992C54.2182 11.186 54.132 11.2125 54.0723 11.2788C54.0126 11.3451 53.9927 11.4379 54.0192 11.5308L54.4966 13.2083C54.1916 13.699 53.9993 14.541 54.4569 15.5489C53.6811 15.3831 52.9584 14.9124 52.4146 14.5477C52.3483 14.5079 52.2887 14.4681 52.229 14.4283L52.8125 12.4657C52.839 12.3728 52.8125 12.2668 52.7462 12.2005C52.6732 12.1341 52.5738 12.1143 52.481 12.1474C51.5593 12.5121 51.1615 12.0347 51.1548 12.0281C51.0819 11.9352 50.9493 11.9087 50.8432 11.9618C50.0078 12.3927 49.59 12.101 49.411 11.975L49.3712 11.9485C49.2784 11.8888 49.1657 11.8888 49.0795 11.9618C48.9933 12.0281 48.9601 12.1408 48.9933 12.2469C49.0198 12.3264 49.0728 12.711 49.1193 13.0226C49.1922 13.5133 49.2718 14.0636 49.3381 14.3289C49.3712 14.4482 49.4707 14.5278 49.59 14.5212C50.631 14.488 51.4333 14.6803 51.7251 14.7599C52.229 16.3976 53.5418 17.7834 54.7154 17.8828C55.5443 17.9558 55.7432 18.2475 55.9686 18.6586C55.7034 18.8178 55.3984 18.9504 55.0602 19.0763C54.1784 19.3946 53.4689 19.7394 52.8191 20.0908C53.4822 18.8774 53.2302 17.8828 53.1573 17.6574C53.1307 17.5646 53.0512 17.4983 52.9584 17.4784C52.8655 17.4651 52.7727 17.4983 52.713 17.5778C52.0897 18.4266 50.9427 18.6785 49.9348 18.9106L49.8354 18.9305C49.6961 18.9636 49.6099 19.1029 49.6431 19.2421C49.6696 19.3814 49.8088 19.4742 49.9481 19.441L50.0475 19.4211C50.9824 19.2156 52.0168 18.9835 52.7594 18.3006C52.786 18.831 52.6533 19.7195 51.7582 20.6876C51.2477 20.9727 50.81 21.2048 50.3393 21.4037C49.8486 21.6092 49.4176 21.7418 49.0596 21.8015C48.6286 21.1252 48.7082 20.2765 48.801 19.819C48.9734 18.9437 49.3845 18.2939 49.6099 18.1613C49.6895 18.1149 49.7425 18.0221 49.7359 17.9226C49.7359 17.8232 49.6762 17.737 49.5967 17.6972C49.232 17.5115 48.9999 17.2463 48.9004 16.9015C48.7745 16.4639 48.9004 16.0064 49.0132 15.8075C49.2253 15.4362 49.7492 15.3632 50.1603 15.4229C50.8498 15.5157 51.3736 16.6031 51.5063 17.127C51.1151 17.4253 50.6708 17.4916 50.1271 17.3325C49.9879 17.2927 49.8486 17.3723 49.8155 17.5115C49.7757 17.6508 49.8552 17.7966 49.9879 17.8364C50.7504 18.0552 51.3935 17.9226 51.9505 17.4253C52.0168 17.3657 52.05 17.2795 52.0367 17.1933C51.977 16.7557 51.3803 15.0582 50.2266 14.8991C49.4906 14.7996 48.8607 15.0383 48.5756 15.5356C48.3766 15.8804 48.2507 16.4772 48.4098 17.0474C48.5159 17.4187 48.7413 17.7303 49.0596 17.969C48.7347 18.3536 48.4363 19.0233 48.3037 19.7062C48.2573 19.9383 48.2308 20.1638 48.2241 20.3826C47.6406 20.8069 47.4749 21.4501 47.6141 21.775C47.634 21.8413 47.6539 21.9209 47.6738 22.0004C47.8263 22.5972 48.0584 23.4857 49.159 23.7774C49.1856 24.9643 48.7413 25.939 47.8462 26.6949C47.581 26.7214 47.3025 26.7678 47.0174 26.8275C46.6925 26.4893 46.3079 26.1843 45.8769 25.9191C44.5044 25.0704 42.8136 24.7654 41.6532 25.1367C40.9902 23.4591 39.7569 22.4049 37.9534 22.0004V21.5495C38.1324 21.3639 38.8485 20.8401 40.6388 19.8057C40.6852 20.5417 40.851 21.702 41.8721 22.0137C41.8919 22.0203 41.9185 22.0336 41.9384 22.0336C42.0842 22.0734 42.25 22.0933 42.4158 22.0933C42.4622 22.0933 42.5152 22.0933 42.5616 22.0933C42.5749 22.0933 42.5882 22.0933 42.608 22.0866C42.608 22.0866 42.8865 22.0137 43.2446 21.9606C43.2048 22.0004 43.165 22.0402 43.1186 22.0866C42.6014 22.6237 42.6876 23.5387 43.3241 24.3742C43.3772 24.4405 43.4501 24.4736 43.5231 24.4736C43.5761 24.4736 43.6292 24.4537 43.6756 24.4206C43.7883 24.3344 43.8082 24.1752 43.7286 24.0559C43.5363 23.7774 43.6955 23.5785 44.3121 23.0945C44.5707 22.8955 44.8293 22.6834 45.0216 22.438C45.0282 22.4314 45.0415 22.4181 45.0481 22.4049C45.0481 22.4049 45.0547 22.3983 45.0614 22.3916C45.0614 22.3916 45.0879 22.3518 45.1011 22.332C45.5719 21.596 45.3199 20.6213 45.1343 20.051C46.9776 19.1957 47.2362 18.6984 47.3356 17.8961C47.3356 17.8961 47.3356 17.8961 47.3356 17.8895C47.3356 17.8828 47.3356 17.8762 47.3356 17.8696C47.3356 17.8696 47.3356 17.8497 47.3356 17.8431C47.3356 17.8431 47.1632 15.9799 46.9908 14.2029C46.898 13.2812 46.772 12.048 46.6858 11.418C46.6858 11.3849 46.666 11.3517 46.6527 11.3186C45.5388 9.42888 43.5761 10.2113 42.2036 10.9605C41.9516 11.0733 41.693 11.1992 41.3947 11.3517C39.8895 12.1408 38.4905 13.1619 37.8142 13.6525L37.6948 13.7387C37.6285 13.7852 37.5887 13.8647 37.5887 13.9443C37.5821 14.3023 37.5556 15.5025 37.5224 17.2331L37.5091 17.916C37.0384 16.8418 36.3223 15.9865 35.8714 15.7213C35.7786 15.6682 35.6659 15.6815 35.5863 15.7478C35.5598 15.7677 33.0402 17.9889 33.5971 20.7937C33.5971 20.7937 33.5971 20.8003 33.5971 20.8069C33.6568 21.1119 33.7496 21.4103 33.8756 21.6888C33.9751 21.9076 34.0745 22.0933 34.174 22.259C33.2789 22.6038 31.0046 23.6846 30.2421 25.9589C29.5724 27.9679 28.8961 34.0614 32.5163 36.2097C32.5495 37.2176 32.4699 38.2121 32.2909 39.1736C30.567 35.9312 29.5856 32.2115 29.5856 28.253C29.5856 15.6881 39.4917 5.46381 51.6654 5.46381M69.4485 25.3024C69.2231 24.8051 68.9844 24.2416 68.7192 23.5719C69.1303 23.3 69.6209 22.9552 69.9856 22.7033L70.1249 22.6104C70.2973 22.9486 70.5691 23.4393 70.8675 23.8437C70.589 24.2946 69.9259 24.9908 69.4485 25.3024ZM66.7831 26.907C66.8162 26.8009 66.856 26.6882 66.8892 26.5755C66.9422 26.3899 66.9952 26.1909 67.0417 25.9986C67.287 25.1234 67.2671 24.1554 67.2671 24.1156C67.2671 24.0095 67.1942 23.91 67.1013 23.8769L65.1785 23.1608C65.1122 23.1342 65.0459 23.1409 64.9796 23.174C64.9199 23.2072 64.8735 23.2602 64.8469 23.3265C64.8403 23.3531 64.827 23.3796 64.8204 23.4061C64.7143 22.9022 64.6348 22.4977 64.5751 22.206C65.6161 22.4646 66.9886 22.9353 67.0019 22.9353C67.0881 22.9619 67.1809 22.942 67.2538 22.8823L67.8042 22.3784L69.3027 21.0058L69.5679 22.3651C69.1701 22.6436 68.6595 22.9884 68.2749 23.2403C68.1688 23.3066 68.1291 23.4459 68.1755 23.5586C68.5203 24.4405 68.8253 25.1566 69.1104 25.7666C69.19 25.9323 69.2629 26.0848 69.3358 26.2241C69.3358 26.2241 69.3226 26.2241 69.3159 26.2307C69.3093 26.2307 69.3027 26.2374 69.296 26.244C69.2894 26.244 69.2762 26.2506 69.2695 26.2572L67.9301 27.2651L66.7897 26.8871L66.7831 26.907ZM63.0235 33.7431C62.997 32.3375 62.9771 30.9583 62.9639 29.7847C62.9705 29.7847 62.9838 29.798 62.9904 29.798C63.2092 29.904 63.4413 29.9571 63.68 29.9571C64.0844 29.9571 64.5154 29.8112 64.9796 29.5195C65.4636 29.2145 66.1001 28.6045 66.5974 27.3977L67.0549 27.5502C67.035 27.6364 67.0085 27.7292 66.982 27.8353C66.6239 29.241 65.7951 32.4701 63.0235 33.7498M55.4249 38.4641C55.5244 38.9282 55.6636 39.3592 55.8294 39.7438C54.4635 37.6883 55.226 35.5135 55.6769 34.804C55.8493 34.9831 55.9885 35.1223 56.0548 35.1952C55.4979 35.8716 55.0868 36.8927 55.4249 38.4641ZM57.2085 28.5514C57.2284 28.6973 57.2483 29.0752 57.0229 29.3603C56.877 29.546 56.6449 29.6654 56.3267 29.7118C56.1742 29.1482 56.1145 28.4917 56.5322 28.1602C56.9367 27.8419 57.2682 27.7093 57.5268 27.7557C57.7058 27.7889 57.865 27.9215 58.0108 28.1536C58.0108 28.1536 58.0108 28.1668 58.0175 28.1735C57.9047 28.1934 57.8053 28.2 57.7125 28.2066C57.5865 28.2133 57.4671 28.2199 57.3478 28.2729C57.2417 28.3193 57.182 28.4321 57.1953 28.5514M66.0338 14.362C64.5088 14.5742 63.6269 15.5224 63.5473 17.0408C63.5076 17.7436 63.6932 18.5459 64.0844 19.4145C64.0844 19.4278 64.0911 19.4344 64.0977 19.4477C64.1176 19.4874 64.1375 19.5272 64.1574 19.567C63.9386 19.4675 63.7264 19.3349 63.5341 19.1891C63.5275 19.1824 63.5142 19.1758 63.5076 19.1692C62.8047 18.5989 62.3406 17.7171 62.2809 16.7159C62.2279 15.8274 62.4931 14.9787 63.0368 14.3156C63.5739 13.6592 64.3165 13.2613 65.1321 13.2083C65.941 13.1553 66.73 13.447 67.3467 14.0305C67.6517 14.3222 67.897 14.6604 68.0694 15.045C67.2804 14.4018 66.2394 14.3355 66.0338 14.362ZM66.5709 22.2458C65.7155 21.2445 65.0724 20.2897 64.648 19.4145L66.4184 18.1812L68.2749 18.7448C68.0628 20.1903 67.7644 21.3705 67.4262 22.0137L67.0218 22.385C66.9157 22.3518 66.7632 22.2988 66.5709 22.2391M68.3943 16.5037C68.4871 16.9082 68.4871 17.3789 68.3744 17.9359C68.3611 18.0287 68.3545 18.1282 68.3412 18.2276L66.4449 17.6508C66.372 17.6309 66.2924 17.6441 66.2327 17.6839L64.4292 18.9371C64.1507 18.2475 64.0247 17.6243 64.0513 17.0739C64.1176 15.8008 64.8072 15.0649 66.0935 14.8858C66.1134 14.8858 68.0097 14.8858 68.3877 16.5037M63.9982 21.9076C64.0513 22.1993 64.2104 22.9884 64.4624 24.1819C64.2038 24.5797 63.8722 24.8118 63.3816 24.9311C63.2423 24.9643 63.1628 25.1035 63.1959 25.2494C63.2225 25.3687 63.3285 25.4483 63.4413 25.4483C63.4612 25.4483 63.481 25.4483 63.5009 25.4483C63.7728 25.382 64.0049 25.2826 64.217 25.1499C64.4756 25.5942 65.1055 26.4164 66.3123 26.7015C65.8415 28.1138 65.1917 28.7702 64.7143 29.0752C64.1375 29.4399 63.6269 29.5261 63.2026 29.3272C62.4997 28.9957 61.9759 27.8618 61.6908 26.0583C61.2731 23.3928 62.2013 21.5031 64.5287 20.2831C64.8403 20.8268 65.2315 21.3904 65.6824 21.9739C65.2116 21.8347 64.7077 21.6954 64.2966 21.6092C64.2104 21.5893 64.1308 21.6159 64.0645 21.6755C64.0049 21.7352 63.9783 21.8214 63.9916 21.9076M66.5444 25.866C66.5178 25.9788 66.4913 26.0915 66.4582 26.1976C65.3376 25.9456 64.7939 25.1632 64.6149 24.825C64.7276 24.7057 64.8337 24.5731 64.9265 24.4139C64.9398 24.3941 64.953 24.3742 64.9663 24.3543C65.0658 24.1752 65.1586 23.983 65.2448 23.7443L66.7565 24.3079C66.7499 24.6195 66.7168 25.2693 66.551 25.866M49.9547 23.91C49.9547 23.91 49.9879 23.91 50.0077 23.91C50.0077 23.9233 50.0077 23.9365 50.0077 23.9498C50.0475 24.8317 50.0939 25.9191 51.7781 27.6629C51.7184 27.7823 51.6654 27.9016 51.619 28.021C50.8896 27.1656 49.8818 26.7214 48.6153 26.6949C49.3115 25.9257 49.663 24.9908 49.6563 23.8968C49.7492 23.9034 49.8486 23.91 49.9547 23.91ZM52.05 27.1922C50.5979 25.6472 50.5581 24.7322 50.5183 23.9233C50.5183 23.91 50.5183 23.8901 50.5183 23.8769C50.5714 23.8702 50.631 23.8636 50.6907 23.857C51.3471 23.7642 51.977 23.7111 52.5804 23.6978C52.7594 24.5665 53.1506 25.4351 53.4755 25.9058C53.2302 26.0318 52.9981 26.1843 52.786 26.3633C52.4876 26.6153 52.2489 26.9004 52.0566 27.1988M59.874 20.9329C59.3502 21.6092 59.0916 22.3518 58.9789 22.9619C56.3466 23.0215 55.5642 24.5863 55.3321 25.4616C54.8348 25.4748 54.3707 25.5478 53.9529 25.6936C53.6943 25.3621 53.1838 24.341 53.0379 23.3796C53.0379 23.3729 53.0379 23.3597 53.0379 23.3531C52.9915 23.0414 52.9849 22.743 53.0313 22.4712C53.1109 22.0004 53.3628 21.7153 53.7805 21.5893C54.2182 21.4567 54.8149 21.4435 55.4448 21.4236C56.7643 21.3838 58.2495 21.3307 59.1049 20.2632C59.5226 19.7394 59.7348 19.0366 59.7613 18.1282C60.0066 18.9769 60.1127 19.9715 59.8807 20.9329M56.9897 12.9099C56.9102 12.8502 56.8306 12.7906 56.7577 12.7442C55.9819 12.2668 55.2194 12.6381 54.9144 12.8105L54.6292 11.8026C55.1398 11.8557 55.5045 11.7827 56.0482 11.5374C56.32 11.7827 56.8107 12.0944 57.3345 12.1408C57.2284 12.3927 57.0958 12.6911 56.9964 12.9033M57.5003 14.8792C57.5003 14.8792 57.5003 14.8792 57.4937 14.8792C57.4738 14.8792 57.4539 14.8792 57.434 14.8858C57.3412 14.8991 57.2483 14.919 57.1422 14.9521C55.7631 14.7731 55.4183 13.7984 55.2658 13.2149C55.5509 13.0757 56.0283 12.9099 56.4991 13.195C56.625 13.2746 56.7577 13.3674 56.8903 13.5067L56.9035 13.5199C57.1555 13.7852 57.4008 14.1963 57.5533 14.8792H57.5003ZM55.0735 15.6417C54.5563 14.7665 54.669 14.0636 54.8613 13.6592C55.0403 14.1963 55.4183 14.9124 56.3068 15.277C56.1874 15.3301 56.0681 15.3831 55.9355 15.4428C55.6636 15.5688 55.3785 15.6351 55.0669 15.6417M51.7582 14.2559C51.4068 14.1631 50.7172 14.0239 49.8287 14.0239C49.8155 14.0239 49.8022 14.0239 49.7889 14.0239C49.7359 13.7454 49.6762 13.3277 49.6232 12.9762C49.6099 12.8635 49.59 12.7641 49.5768 12.6712C49.8818 12.7707 50.326 12.8038 50.9161 12.5386C51.1615 12.7375 51.5991 12.9099 52.1958 12.8038L51.7648 14.2559H51.7582ZM54.7619 17.3856C53.933 17.3126 52.9716 16.3777 52.4412 15.2107C53.1108 15.6417 53.9662 16.1257 54.9077 16.1589C54.9144 16.1589 54.9276 16.1589 54.9409 16.1589C54.9409 16.1589 54.9475 16.1589 54.9541 16.1589C54.9807 16.1589 55.0006 16.1589 55.0271 16.1589C55.4249 16.1589 55.8029 16.0793 56.1543 15.9136C56.625 15.6948 57.003 15.529 57.3014 15.4428C57.5334 16.7557 57.2483 17.7038 56.4062 18.3868C56.1609 17.9425 55.836 17.4718 54.7685 17.3789M48.7082 22.385C48.7678 22.385 48.8341 22.385 48.9004 22.3784C48.9137 22.3784 48.9203 22.3784 48.9336 22.3784C48.9601 22.3784 48.9866 22.3784 49.0132 22.3651C49.4375 22.3121 49.9481 22.1662 50.5249 21.9209C51.0819 21.6822 51.5925 21.4037 52.0301 21.1583L52.3218 20.9926C53.1639 20.5152 54.0325 20.0245 55.226 19.6002C57.2947 18.8575 58.1434 17.4916 57.7987 15.4163C58.0307 15.476 58.2628 15.6616 58.6606 16.0727C58.8264 16.2451 58.9855 16.4573 59.138 16.7092C59.3701 18.221 59.2309 19.2753 58.707 19.9317C57.9976 20.8202 56.6317 20.86 55.4183 20.8998C54.7552 20.9196 54.132 20.9395 53.628 21.092C53.018 21.2711 52.6334 21.7153 52.5141 22.385C52.4743 22.6303 52.4677 22.8955 52.4942 23.1674C51.8975 23.1873 51.2676 23.2403 50.6178 23.3332C50.4785 23.3531 50.3525 23.3663 50.2266 23.3729C49.9149 23.3928 49.6563 23.3796 49.4375 23.3398C49.4375 23.3398 49.4375 23.3398 49.4243 23.3398C48.7082 23.2072 48.4363 22.7828 48.2838 22.3386C48.4032 22.3717 48.549 22.385 48.7082 22.385ZM48.2573 21.092C48.2971 21.3573 48.3766 21.6092 48.4761 21.8413C48.3037 21.8148 48.1512 21.7418 48.0716 21.6026C48.0584 21.5363 48.0849 21.3175 48.2573 21.092ZM58.1766 44.7631C56.4858 43.9211 55.7631 42.6679 55.0669 41.4545C54.4635 40.4002 53.8468 39.3128 52.6136 38.5569C53.0644 38.3713 53.5684 38.0729 54.1253 37.6287C54.2049 37.5623 54.2447 37.4563 54.2182 37.3502C54.1916 37.2441 54.1054 37.1711 54.006 37.1579C52.05 36.8993 51.2477 35.9379 51.1548 35.7323C51.1283 35.6063 51.0222 35.5135 50.8896 35.5268C50.7504 35.5334 50.6443 35.6594 50.6509 35.8053C50.6642 36.0705 51.4134 37.1446 53.3297 37.569C51.5261 38.7956 50.4918 38.1923 49.8354 37.7281L49.7823 34.6184C49.7823 34.5189 49.7293 34.4327 49.6431 34.3863C49.5569 34.3399 49.4574 34.3465 49.3845 34.4062L49.1657 34.5587C48.8806 34.0879 48.6617 33.4978 48.9336 33.0072C49.232 32.4767 50.0077 32.2579 50.452 32.3043C51.0222 32.364 51.1283 33.4249 51.2079 34.2007C51.2211 34.3067 51.2278 34.4062 51.241 34.499C51.0156 34.5521 50.6045 34.5786 50.2266 34.194C50.1271 34.0946 49.968 34.0946 49.8685 34.194C49.7691 34.2935 49.7691 34.4659 49.8685 34.5653C50.5117 35.2284 51.3073 35.0825 51.6322 34.9101C51.7317 34.8571 51.7847 34.7444 51.7715 34.6316C51.7516 34.4924 51.7317 34.32 51.7118 34.141C51.6123 33.1862 51.4864 31.8866 50.505 31.7805C49.9282 31.7208 48.927 31.9728 48.496 32.7419C48.2639 33.1597 48.1313 33.8492 48.7479 34.8504L48.2838 35.182C48.2109 35.235 48.1711 35.3212 48.1711 35.4074C48.1843 35.7124 48.191 36.4219 48.191 37.2971C48.1843 37.2971 48.1711 37.2905 48.1645 37.2905C46.2084 37.0319 45.4061 36.0705 45.3133 35.8649C45.2868 35.7389 45.1674 35.6527 45.0481 35.6594C44.9089 35.666 44.8028 35.792 44.8094 35.9379C44.8293 36.2097 45.5785 37.2772 47.4881 37.7016C45.6714 38.9349 44.6436 38.3116 43.9938 37.8541L43.9408 34.7444C43.9408 34.6449 43.8877 34.5587 43.8015 34.5123C43.722 34.4659 43.6159 34.4725 43.543 34.5322L43.3308 34.6847C43.0457 34.2139 42.8269 33.6238 43.0987 33.1398C43.3971 32.6093 44.1729 32.3905 44.6171 32.4369C45.1873 32.4966 45.2934 33.5575 45.373 34.3333C45.3863 34.4394 45.3929 34.5388 45.4061 34.6316C45.1807 34.6847 44.7696 34.7112 44.3917 34.3266C44.2922 34.2272 44.1331 34.2272 44.0336 34.3266C43.9342 34.4261 43.9342 34.5919 44.0336 34.6979C44.6768 35.361 45.4724 35.2151 45.7973 35.0427C45.8968 34.9897 45.9498 34.877 45.9366 34.7643C45.9167 34.6184 45.8968 34.4526 45.8769 34.2736C45.7841 33.3188 45.6515 32.0192 44.6702 31.9131C44.0933 31.8534 43.0921 32.1054 42.6611 32.8745C42.429 33.2923 42.2964 33.9818 42.9131 34.9831L42.4489 35.3146C42.376 35.3676 42.3362 35.4538 42.3428 35.54C42.376 36.3092 42.3428 39.1272 42.3296 40.8577C40.9239 38.8023 40.9504 35.7058 41.1825 34.2537C41.2422 33.8758 41.3681 33.4249 41.5074 32.9143C41.9251 31.3827 42.4953 29.2741 42.0643 26.7081C42.0047 26.3368 41.9185 25.9854 41.8124 25.6539C42.8269 25.3422 44.3718 25.6406 45.5984 26.3965C46.3609 26.8673 47.6738 27.9348 47.8528 29.7913C47.8661 29.9239 47.9788 30.03 48.1048 30.03C48.1114 30.03 48.1247 30.03 48.1313 30.03C48.2705 30.0168 48.37 29.8842 48.3567 29.7449C48.2705 28.8564 47.939 28.0276 47.3887 27.3181C49.2253 27.0065 50.5846 27.4375 51.4201 28.6045C51.2875 29.115 51.2543 29.5261 51.2477 29.6786C51.241 29.8245 51.3471 29.9438 51.4864 29.9571H51.4996C51.6322 29.9571 51.745 29.851 51.7516 29.7051C51.7582 29.5593 51.7914 29.1482 51.9372 28.6509C52.0168 28.3724 52.1295 28.0674 52.2953 27.769C52.2953 27.7624 52.3086 27.7491 52.3086 27.7359C52.5008 27.3911 52.7528 27.0595 53.091 26.7744C53.8999 26.0915 55.0205 25.8594 56.4328 26.0782C56.572 26.0981 56.698 25.9987 56.7245 25.8594C56.7444 25.7135 56.6516 25.5809 56.5123 25.561C56.2869 25.5279 56.0681 25.5014 55.8559 25.4881C56.1079 24.6659 56.8372 23.5719 58.8993 23.4989C58.8662 23.8503 58.8794 24.1023 58.8794 24.2018C58.8861 24.341 58.9988 24.4471 59.1314 24.4471H59.1447C59.2839 24.4405 59.39 24.3145 59.3834 24.1686C59.3568 23.7708 59.3568 22.3784 60.2851 21.2313C60.2984 21.218 60.305 21.2114 60.3116 21.1915C60.8885 20.5019 61.8168 19.9052 63.2954 19.6731C63.481 19.8123 63.6866 19.9383 63.8988 20.0378C61.6378 21.3705 60.7426 23.3729 61.1802 26.1445C61.2863 26.8142 61.4256 27.3977 61.5913 27.895L60.9084 28.1072C60.1392 28.3459 59.2839 28.6177 58.7535 28.7702C58.7203 28.6774 58.6872 28.5779 58.6606 28.4785C58.6407 28.4055 58.6142 28.3326 58.5943 28.2663C58.5943 28.2663 58.5943 28.2663 58.5943 28.2597C58.5413 28.1072 58.4882 27.9878 58.4286 27.8817C58.2098 27.5237 57.9313 27.3115 57.6064 27.2518C57.1953 27.1789 56.7444 27.338 56.214 27.7491C55.6504 28.1934 55.5376 29.0023 55.8891 30.0831C55.9819 30.3815 56.1012 30.6533 56.2007 30.8589C56.1211 30.7528 55.9819 30.7196 55.8692 30.7859C55.8692 30.7859 55.478 31.018 54.9144 31.3827C54.6558 31.5551 54.4038 31.7208 54.1651 31.8866L54.5099 30.4345C54.5431 30.2953 54.4569 30.1494 54.3242 30.1162C54.1916 30.0831 54.0524 30.1693 54.0192 30.3085L53.5219 32.4237C53.5219 32.4237 53.5219 32.4237 53.5219 32.4303C53.5219 32.4369 53.5219 32.4502 53.5219 32.4634C53.5219 32.4701 53.5219 32.4767 53.5219 32.4833C53.5219 32.49 53.5219 32.5032 53.5219 32.5099C53.5219 32.5165 53.5219 32.5231 53.5219 32.5364C53.5219 32.543 53.5219 32.5563 53.5219 32.5629C53.5219 32.5695 53.5219 32.5762 53.5286 32.5894C53.5286 32.5961 53.5352 32.6027 53.5352 32.6093C53.5352 32.6159 53.5418 32.6292 53.5485 32.6358C53.5485 32.6358 53.5485 32.6425 53.5551 32.6491C53.5617 32.6557 53.5684 32.6624 53.575 32.6756C53.575 32.6756 54.5497 33.6768 55.2857 34.4327C54.7154 35.2682 53.7938 37.8143 55.478 40.188C55.531 40.261 55.6039 40.2941 55.6835 40.2941C55.7366 40.2941 55.7896 40.2809 55.836 40.2411C55.9023 40.1947 55.9355 40.1217 55.9355 40.0422C56.6781 41.6004 57.7854 42.4889 58.1501 42.7541V43.9211C58.1501 44.0669 58.2628 44.1863 58.402 44.1863C58.5413 44.1863 58.654 44.0669 58.654 43.9211V42.6082L58.6474 33.9155C59.7878 34.1675 61.2664 34.4924 61.346 34.5123C61.4786 34.5521 61.6179 34.4659 61.6576 34.3266C61.6908 34.1874 61.6112 34.0415 61.4786 34.0084C61.3858 33.9818 58.9391 33.4448 58.4485 33.3387C58.3755 33.3188 58.2959 33.3387 58.2363 33.3917C58.1766 33.4381 58.1434 33.5177 58.1434 33.5973V42.091C57.5202 41.5606 56.3134 40.314 55.8891 38.3448C55.3719 35.9312 56.8439 35.0361 57.56 34.6117C57.6263 34.572 57.6926 34.5322 57.739 34.499C57.8583 34.4195 57.8915 34.2603 57.8185 34.141C57.7456 34.0216 57.5865 33.9818 57.4671 34.0614C57.4207 34.0946 57.361 34.1277 57.3014 34.1609C57.0627 34.3067 56.7179 34.5123 56.3797 34.8239C56.3001 34.7444 56.141 34.572 55.8029 34.2272C55.2592 33.6636 54.5099 32.8944 54.1452 32.5231C54.4701 32.2977 54.8149 32.0656 55.173 31.8269C55.4846 31.6214 55.7498 31.4556 55.9156 31.3561C56.446 32.1054 56.8173 32.7154 56.9831 32.9939C56.824 33.1199 56.6914 33.2459 56.5654 33.3586C56.4593 33.458 56.4527 33.6238 56.5455 33.7299C56.5985 33.7896 56.6648 33.8161 56.7378 33.8161C56.7974 33.8161 56.8571 33.7962 56.9102 33.7498C57.4406 33.2591 58.097 32.6491 59.569 33.1265C59.7016 33.1663 59.8475 33.0934 59.8873 32.9541C59.9271 32.8149 59.8541 32.669 59.7215 32.6226C58.6739 32.2844 57.9512 32.4303 57.4207 32.7088C57.2682 32.4436 56.9433 31.9264 56.4924 31.2699C56.5256 31.2832 56.5521 31.2898 56.5853 31.2898C56.5919 31.2898 56.5985 31.2898 56.6052 31.2898C57.1223 31.2434 58.1633 30.8721 58.3954 29.7781C58.4286 29.6388 58.3424 29.4996 58.2031 29.4664C58.0705 29.4333 57.9313 29.5261 57.8981 29.6654C57.7324 30.4411 57.0295 30.6732 56.7112 30.7395C56.6449 30.6202 56.5587 30.4345 56.4659 30.2024C56.8638 30.1229 57.1688 29.9505 57.3876 29.6786C57.6395 29.3603 57.6926 28.9824 57.6992 28.7172C57.7058 28.7172 57.7191 28.7172 57.7257 28.7172C57.8451 28.7106 57.9976 28.6973 58.1766 28.6575C58.223 28.8166 58.2761 28.9957 58.3623 29.1681C58.3623 29.1681 58.3623 29.1747 58.3623 29.1813C58.3623 29.1813 58.3623 29.1813 58.3623 29.188C58.5479 29.5725 58.8264 29.8377 59.2176 30.0168C60.0464 30.3815 60.683 31.0246 61.1073 31.9197C61.1537 32.0126 61.2399 32.0656 61.3394 32.0656C61.3792 32.0656 61.4123 32.059 61.4521 32.0391C61.5781 31.9728 61.6311 31.8203 61.5714 31.6877C61.094 30.6732 60.3713 29.9505 59.4231 29.5327C59.2441 29.4532 59.1049 29.3537 58.9922 29.2277C59.5292 29.0686 60.3249 28.8166 61.041 28.5912L61.7637 28.3658C61.9494 28.7967 62.1682 29.1349 62.4202 29.3869C62.44 30.7461 62.4599 32.417 62.4931 34.1211C62.513 35.5002 62.5395 36.886 62.5594 38.1259C62.5992 40.2345 62.6257 41.9186 62.639 42.396C61.5516 43.2315 60.3183 44.1531 58.4816 44.6703C58.3821 44.6968 58.2694 44.7234 58.1434 44.7499M53.5684 44.9554C53.2832 44.5443 53.0976 44.0537 52.9053 43.5431C52.4544 42.3363 51.9505 40.9705 49.8818 40.7782L49.842 38.3646C50.2266 38.6033 50.7172 38.8288 51.3604 38.8288C51.5328 38.8288 51.7184 38.8089 51.9107 38.7757C53.3297 39.4587 53.9662 40.5594 54.6292 41.7197C55.2724 42.8469 55.9355 44.0006 57.3213 44.8825C56.3333 44.9753 55.0006 45.0018 53.575 44.9554M52.1362 44.8759C50.4785 44.0404 49.7956 42.7939 49.1391 41.5937C48.9933 41.3285 48.8474 41.0633 48.6949 40.8047C48.7148 38.7691 48.7148 36.3821 48.6949 35.54L49.285 35.1157L49.3314 37.874L49.3845 41.0102C49.3845 41.0102 49.3845 41.0169 49.3845 41.0235C49.3845 41.0235 49.3845 41.0301 49.3845 41.0368V41.5142C49.3911 41.66 49.5105 41.7728 49.6497 41.7728C49.7889 41.7728 49.9017 41.6534 49.9017 41.5075V41.3086C51.6057 41.4876 51.9969 42.5353 52.4412 43.7354C52.5937 44.1399 52.7462 44.551 52.9584 44.9355C52.6865 44.9223 52.4146 44.909 52.1428 44.8891M48.191 40.0488C47.8329 39.5714 47.382 39.1006 46.7455 38.7094C47.1831 38.537 47.6672 38.2519 48.1976 37.8408C48.1976 38.5304 48.1976 39.2996 48.191 40.0488ZM47.2362 44.1001C47.1831 43.9608 47.1235 43.815 47.0704 43.6757C46.6262 42.469 46.1156 41.1031 44.0469 40.9108L44.0071 38.4906C44.3917 38.7293 44.889 38.9614 45.5255 38.9614C45.6846 38.9614 45.8504 38.9481 46.0294 38.915C47.1566 39.4521 47.7401 40.2411 48.2109 41.0102C48.2109 41.0102 48.2109 41.0235 48.2175 41.0235C48.3833 41.2954 48.5291 41.5672 48.6816 41.8523C49.2452 42.8801 49.8221 43.9343 50.9692 44.7764C49.4309 44.6239 48.1313 44.3852 47.2229 44.1001M42.86 35.6726L43.4501 35.2483L43.5496 41.1296C43.5496 41.1296 43.5496 41.1429 43.5496 41.1495C43.5496 41.1627 43.5496 41.1694 43.5496 41.1826V41.6401C43.5562 41.786 43.6756 41.8987 43.8082 41.8987C43.9474 41.8987 44.0601 41.7794 44.0601 41.6335V41.4346C45.7443 41.6136 46.1421 42.6347 46.5798 43.815C45.7244 43.4039 44.7829 42.8535 43.7485 42.2369C43.417 42.038 43.1053 41.786 42.8269 41.4876C42.8467 39.6709 42.8799 36.7004 42.8534 35.6726M73.1219 33.6901C69.6872 31.3363 69.6342 28.2862 69.6607 26.854C70.4166 28.1668 71.0067 28.4851 71.8024 28.4851C71.882 28.4851 71.9549 28.4851 72.0345 28.4785C72.1737 28.4718 72.2798 28.3459 72.2732 28.2C72.2665 28.0541 72.1405 27.9414 72.0013 27.9547C71.3449 27.9944 70.768 28.0342 69.674 25.7798C70.1978 25.4549 70.8675 24.772 71.2255 24.2482C71.4046 24.4139 71.5836 24.5267 71.756 24.5466C71.7626 24.5466 71.7759 24.5466 71.7825 24.5466C71.9085 24.5466 72.0212 24.4471 72.0345 24.3079C72.0477 24.162 71.9483 24.036 71.809 24.0227C71.7029 24.0095 71.5571 23.8769 71.3913 23.6713C71.3847 23.6647 71.378 23.6514 71.3714 23.6448C71.0797 23.2735 70.7282 22.6767 70.463 22.1198C70.4299 22.0535 70.3702 22.0004 70.2973 21.9805C70.2243 21.9606 70.1514 21.9805 70.0917 22.0203L70.032 22.0667L69.7204 20.4754C69.7005 20.3826 69.6408 20.3096 69.5546 20.2765C69.4684 20.2433 69.3756 20.2698 69.3027 20.3295L68.2816 21.2644C68.454 20.6876 68.5866 20.0577 68.686 19.5007C69.6806 19.4609 71.504 19.9184 72.545 20.8666C72.545 20.8666 72.5583 20.8732 72.5649 20.8799C73.3407 23.2072 73.765 25.7003 73.765 28.2928C73.765 30.156 73.5462 31.9662 73.1351 33.6967M74.2623 28.2862C74.2623 15.4096 64.1507 4.97314 51.6787 4.97314C39.2066 4.97314 29.095 15.4096 29.095 28.2862C29.095 38.7094 35.7189 47.5281 44.8624 50.5118C44.8956 51.7716 44.995 53.1375 45.2802 53.7144C45.2934 53.7343 45.3067 53.7542 45.3199 53.7741C46.593 55.1599 50.9957 53.8934 54.311 52.9055C54.3707 53.3829 54.5696 54.3576 55.2127 54.6891C55.3719 54.7687 55.5509 54.8018 55.7233 54.8018C56.3002 54.8018 56.8969 54.4636 56.9831 54.4106C57.0759 54.3509 57.129 54.2382 57.1025 54.1255C57.0759 54.0128 56.9831 53.9332 56.8704 53.9332C56.8571 53.9332 56.5654 53.9133 56.4659 53.5354C56.8306 53.5022 57.2152 53.5022 57.5334 53.5287C57.5401 53.5287 57.5467 53.5287 57.5533 53.5287C57.9246 53.5221 58.2628 53.2967 58.4087 52.9585C58.4352 52.8922 58.4551 52.8325 58.4683 52.7662C58.4683 52.7662 58.4683 52.753 58.4683 52.7463C58.4882 52.627 58.4882 52.5076 58.4551 52.3883L58.3556 50.545C67.5655 47.601 74.2557 38.7492 74.2557 28.2729" fill="#282828"/>
<path d="M47.7069 51.4332C47.561 51.4398 47.4218 51.4464 47.2759 51.4464C47.3489 51.2608 47.4218 51.0685 47.4947 50.8828C47.5677 51.0685 47.6406 51.2541 47.7135 51.4332M47.6804 50.3723C47.6804 50.3723 47.6472 50.3325 47.6207 50.3391C47.5345 50.3391 47.4483 50.3458 47.3621 50.3458C47.3356 50.3458 47.3157 50.359 47.3091 50.3855C47.0571 51.0221 46.8118 51.6453 46.5598 52.2487C46.5532 52.2686 46.5598 52.2885 46.5598 52.3084C46.5731 52.3283 46.593 52.3416 46.6129 52.3416C46.6991 52.3482 46.7853 52.3614 46.8781 52.3614C46.9046 52.3614 46.9245 52.3482 46.9311 52.3217C46.9974 52.1493 47.0638 51.9769 47.1301 51.8045C47.3688 51.8045 47.6008 51.8045 47.8395 51.778C47.9125 51.957 47.9788 52.1294 48.0517 52.3018C48.0583 52.3283 48.0849 52.3416 48.1114 52.3349C48.1114 52.3349 48.118 52.3349 48.1246 52.3349C48.2108 52.3084 48.2904 52.2753 48.3766 52.2487C48.3965 52.2487 48.4098 52.2288 48.4164 52.2089C48.423 52.1891 48.423 52.1692 48.4164 52.1559C48.1711 51.5724 47.9257 50.9757 47.6804 50.3723Z" fill="#282828"/>
<path d="M50.5382 50.7503C50.5382 51.1813 50.3128 51.473 49.8619 51.599C49.7823 51.6189 49.7094 51.6388 49.6298 51.6587V50.3591C49.7094 50.3392 49.7889 50.3193 49.8685 50.2928C50.2995 50.1735 50.5382 50.326 50.5382 50.7437M49.8619 49.9414C49.6762 49.9944 49.4906 50.0408 49.3049 50.0873C49.2718 50.0939 49.2452 50.1337 49.2452 50.1668V52.0565C49.2452 52.0897 49.2718 52.1162 49.3049 52.1029C49.4839 52.0632 49.6696 52.0101 49.8486 51.9637C50.5183 51.778 50.9294 51.2476 50.9294 50.6243C50.9294 50.0011 50.5183 49.7557 49.8619 49.9414Z" fill="#282828"/>
<path d="M52.9252 49.3179C53.1507 49.2516 53.3032 49.4041 53.3032 49.7091C53.1838 49.8284 53.0578 49.908 52.9186 49.9478C52.6998 50.0141 52.5937 49.9478 52.5937 49.7356C52.5937 49.5234 52.713 49.3776 52.9186 49.3112M52.9318 48.9731C52.5208 49.0991 52.229 49.4836 52.229 49.8748C52.229 50.266 52.4743 50.4384 52.8722 50.3191C52.9915 50.2793 53.1109 50.2263 53.2236 50.1467C53.1109 50.4053 52.8722 50.6241 52.5208 50.8164C52.4876 50.8363 52.4677 50.8694 52.4743 50.9026C52.4876 50.9755 52.5009 51.0418 52.5075 51.1081C52.5075 51.1214 52.5208 51.1346 52.534 51.1413C52.5473 51.1413 52.5539 51.1413 52.5672 51.1413C52.5672 51.1413 52.5738 51.1413 52.5804 51.1413C53.2766 50.7766 53.6678 50.2395 53.6678 49.6229C53.6678 49.0991 53.3827 48.8471 52.9318 48.9797" fill="#282828"/>
<path d="M54.5695 50.2728C54.3441 50.3126 54.2048 50.1667 54.1916 49.8684C54.3043 49.7556 54.4369 49.6893 54.5695 49.6628C54.795 49.623 54.8944 49.7026 54.8944 49.9081C54.8944 50.1137 54.7684 50.2397 54.5695 50.2728ZM54.6226 49.3048C54.49 49.3313 54.3706 49.3777 54.2513 49.4573C54.3573 49.1987 54.5828 48.9865 54.9475 48.8472C54.9806 48.834 55.0005 48.8008 54.9939 48.7677C54.9806 48.6947 54.974 48.6218 54.9607 48.5555C54.9607 48.5356 54.9475 48.5223 54.9342 48.5157C54.9209 48.5091 54.9011 48.5091 54.8878 48.5157C54.1916 48.7942 53.8269 49.318 53.8269 49.9347C53.8269 50.4585 54.1054 50.7104 54.5629 50.6242C54.974 50.5513 55.2724 50.2397 55.2724 49.8551C55.2724 49.4705 55.0204 49.2451 54.6292 49.3114" fill="#282828"/>
<path d="M56.6847 50.1802C56.6847 50.1802 56.6516 50.1205 56.625 50.1205C56.3863 50.094 56.1476 50.0873 55.9156 50.094C56.0548 49.9481 56.2007 49.8088 56.3399 49.6762C56.572 49.4508 56.6913 49.3049 56.6913 49.053C56.6913 48.6949 56.4394 48.4297 56.0415 48.4297C55.7631 48.4297 55.5642 48.5623 55.4448 48.675C55.4249 48.6883 55.4183 48.7148 55.4249 48.7347C55.4382 48.8143 55.4514 48.8938 55.4581 48.9734C55.4581 48.9933 55.478 49.0132 55.4978 49.0198C55.5177 49.0198 55.5443 49.0198 55.5575 49.0065C55.7167 48.8607 55.8692 48.7877 56.0283 48.7877C56.2803 48.7877 56.3068 48.9336 56.3068 49.0397C56.3068 49.1657 56.2471 49.2585 56.0813 49.4309C55.8493 49.6696 55.6172 49.9149 55.3851 50.1735C55.3719 50.1868 55.3652 50.2067 55.3652 50.2199V50.4122C55.3652 50.4454 55.3918 50.4719 55.4249 50.4719C55.8294 50.4387 56.2405 50.4387 56.6516 50.4785C56.6715 50.4785 56.6847 50.4785 56.698 50.4586C56.7112 50.4454 56.7179 50.4255 56.7112 50.4122C56.698 50.3393 56.6913 50.2664 56.6781 50.1868" fill="#282828"/>
<path d="M51.009 51.2474C50.9095 51.2805 50.83 51.3933 50.83 51.4927C50.83 51.5922 50.9095 51.6585 51.009 51.6253C51.1084 51.5922 51.188 51.4795 51.188 51.38C51.188 51.2805 51.1084 51.2142 51.009 51.2474Z" fill="#282828"/>
<path d="M48.6883 51.8644C48.5888 51.8842 48.5093 51.9771 48.5093 52.0832C48.5093 52.1893 48.5888 52.2556 48.6883 52.2423C48.7878 52.2224 48.8673 52.1229 48.8673 52.0169C48.8673 51.9108 48.7878 51.8445 48.6883 51.8644Z" fill="#282828"/>
<path d="M34.0149 47.3355L32.881 47.8593L33.3916 46.6923L34.0149 47.3355ZM35.6062 46.6592C35.6062 46.6592 35.573 46.6393 35.5532 46.6393C35.5465 46.6393 35.5333 46.6393 35.52 46.6459L34.5652 47.0902L33.6369 46.1287L34.0878 45.1076C34.1011 45.0745 34.0878 45.0347 34.0613 45.0082L33.6701 44.7496C33.6701 44.7496 33.6436 44.7363 33.6303 44.7363C33.6237 44.7363 33.617 44.7363 33.6104 44.7363C33.5905 44.7363 33.5706 44.7562 33.564 44.7761L32.0986 48.2041C32.0986 48.2041 32.0986 48.2704 32.1119 48.2903L32.4434 48.6285C32.4434 48.6285 32.4766 48.6484 32.4965 48.6484C32.5031 48.6484 32.5164 48.6484 32.523 48.6417L35.9112 47.1167C35.9112 47.1167 35.951 47.0835 35.9576 47.057C35.9576 47.0305 35.9576 47.004 35.9377 46.9907L35.6062 46.6459V46.6592Z" fill="#282828"/>
<path d="M33.3253 44.1928C33.3253 44.1928 33.3253 44.153 33.312 44.1331L32.2313 42.6877C32.2313 42.6877 32.1981 42.6611 32.1782 42.6611C32.1782 42.6611 32.1384 42.6678 32.1252 42.6877L31.8268 43.0126C31.8268 43.0126 31.8003 43.0855 31.8268 43.112L32.5363 44.0602L30.2222 45.9035C30.2222 45.9035 30.1824 45.9764 30.2089 46.0096L30.4941 46.3941C30.4941 46.3941 30.5206 46.4207 30.5405 46.4207H30.5471C30.567 46.4207 30.5803 46.4207 30.5935 46.4074L33.3054 44.2458C33.3054 44.2458 33.3319 44.2127 33.3319 44.1928" fill="#282828"/>
<path d="M31.8599 42.2832C31.8599 42.2832 31.8599 42.2434 31.8599 42.2235L31.6477 41.8323C31.6477 41.8323 31.6079 41.7925 31.5814 41.7925C31.5681 41.7925 31.5615 41.7925 31.5482 41.7992L29.3601 42.8468L31.0178 40.7449C31.0178 40.7449 31.0377 40.6852 31.0244 40.6587L30.852 40.3404C30.852 40.3404 30.8122 40.3007 30.7857 40.3007C30.7857 40.3007 30.7791 40.3007 30.7724 40.3007L28.1733 40.6653L30.1757 39.2795C30.1757 39.2795 30.2155 39.2132 30.1956 39.1801L29.9768 38.7756C29.9768 38.7756 29.9503 38.7425 29.9304 38.7358C29.9304 38.7358 29.9171 38.7358 29.9105 38.7358C29.8972 38.7358 29.884 38.7358 29.8707 38.7491L27.0129 40.7184C27.0129 40.7184 26.9665 40.7847 26.9864 40.8178L27.2649 41.335C27.2649 41.335 27.3047 41.3748 27.3312 41.3748C27.3312 41.3748 27.3378 41.3748 27.3445 41.3748L30.1227 40.9438L28.3191 43.1717C28.3191 43.1717 28.2993 43.2314 28.3125 43.2579L28.591 43.7751C28.591 43.7751 28.6308 43.8149 28.6573 43.8149C28.6706 43.8149 28.6772 43.8149 28.6905 43.8149L31.8134 42.3296C31.8134 42.3296 31.8466 42.3031 31.8532 42.2832" fill="#282828"/>
<path d="M26.6549 37.6748L27.5965 36.8394L27.8949 37.6947L26.6549 37.6682V37.6748ZM29.705 38.3379C29.705 38.3379 29.7514 38.3246 29.7647 38.3047C29.7779 38.2848 29.7846 38.2583 29.7713 38.2318L29.6122 37.7743C29.6122 37.7743 29.5724 37.7212 29.5459 37.7212L28.4982 37.7013L28.054 36.4283L28.8828 35.7055C28.8828 35.7055 28.916 35.6392 28.8961 35.6061L28.6507 35.2016C28.6507 35.2016 28.6176 35.1685 28.5977 35.1685C28.5977 35.1685 28.5911 35.1685 28.5844 35.1685C28.5645 35.1685 28.5513 35.1751 28.538 35.1883L25.8062 37.6483C25.8062 37.6483 25.7731 37.7013 25.7863 37.7345L25.9455 38.1854C25.9455 38.1854 25.9853 38.2384 26.0118 38.2384L29.705 38.3445" fill="#282828"/>
<path d="M26.4891 29.6914C27.3644 29.6914 27.9081 29.1411 27.9147 28.2592C27.9147 27.815 27.7887 27.4437 27.5301 27.1851C27.2782 26.9265 26.9069 26.7873 26.4626 26.7806L24.3607 26.7607C24.321 26.7607 24.2878 26.7939 24.2878 26.8337V27.3177C24.2878 27.3575 24.3143 27.3973 24.3541 27.3973L26.4427 27.4172C26.8538 27.4172 27.3445 27.5697 27.3379 28.246C27.3379 28.909 26.8406 29.0483 26.4295 29.0483H26.4162L24.3475 29.0284C24.3077 29.0284 24.2745 29.0615 24.2745 29.1013V29.5854C24.2745 29.5854 24.2745 29.6251 24.2944 29.6384C24.3077 29.6517 24.3276 29.6649 24.3475 29.6649L26.4759 29.6848H26.4958L26.4891 29.6914Z" fill="#282828"/>
<path d="M24.4735 25.4479L27.8551 26.0049C27.8551 26.0049 27.8617 26.0049 27.8683 26.0049C27.8816 26.0049 27.9015 26.0049 27.9148 25.9916C27.9346 25.9783 27.9413 25.9651 27.9479 25.9386L28.0142 25.5009C28.0142 25.4612 27.9943 25.4214 27.9545 25.4147L25.5543 25.0235L28.2728 23.6444C28.2728 23.6444 28.3126 23.6112 28.3126 23.5847L28.3656 23.2267C28.3656 23.1869 28.3457 23.1471 28.306 23.1405L24.9244 22.5835C24.9244 22.5835 24.9177 22.5835 24.9111 22.5835C24.8978 22.5835 24.878 22.5835 24.8647 22.5968C24.8514 22.61 24.8382 22.6233 24.8382 22.6498L24.7719 23.0874C24.7719 23.1272 24.7918 23.167 24.8315 23.1736L27.1323 23.5516L24.5199 24.8843C24.5199 24.8843 24.4801 24.9175 24.4801 24.944L24.4138 25.3683C24.4138 25.3683 24.4138 25.4081 24.4271 25.428C24.4403 25.4413 24.4536 25.4545 24.4735 25.4612" fill="#282828"/>
<path d="M25.2293 21.3307L28.5313 22.2723C28.5313 22.2723 28.5446 22.2723 28.5512 22.2723C28.5645 22.2723 28.5777 22.2723 28.591 22.2656C28.6109 22.2524 28.6242 22.2391 28.6242 22.2192L28.7501 21.7551C28.7634 21.7153 28.7369 21.6755 28.6971 21.6622L25.3951 20.7207C25.3951 20.7207 25.3818 20.7207 25.3752 20.7207C25.342 20.7207 25.3089 20.7406 25.3022 20.7737L25.1763 21.2379C25.1763 21.2379 25.1763 21.2777 25.1829 21.2976C25.1895 21.3175 25.2094 21.3307 25.2293 21.3307Z" fill="#282828"/>
<path d="M25.7068 19.8057L29.3337 19.7858C29.3337 19.7858 29.3934 19.7659 29.4 19.7394L29.5525 19.3349C29.5525 19.3349 29.5525 19.2686 29.5326 19.2487L26.8008 16.6893C26.8008 16.6893 26.7677 16.6694 26.7478 16.6694C26.7478 16.6694 26.7345 16.6694 26.7279 16.6694C26.7013 16.6694 26.6881 16.6893 26.6748 16.7158L26.4958 17.1866C26.4958 17.1866 26.4958 17.2529 26.5157 17.2728L28.6176 19.189L25.7731 19.1625C25.7333 19.1625 25.7068 19.189 25.7001 19.2288L25.6272 19.7129C25.6272 19.7129 25.6272 19.7593 25.6471 19.7725C25.6603 19.7858 25.6802 19.7991 25.7068 19.7991" fill="#282828"/>
<path d="M27.2318 15.7606L30.242 17.4448C30.242 17.4448 30.2686 17.4514 30.2752 17.4514C30.3017 17.4514 30.3282 17.4382 30.3415 17.4116L31.2432 15.6877C31.2631 15.6479 31.2432 15.6015 31.2101 15.5816L30.8321 15.3694C30.8321 15.3694 30.8056 15.3628 30.799 15.3628C30.7924 15.3628 30.7857 15.3628 30.7791 15.3628C30.7592 15.3628 30.746 15.3827 30.7327 15.4026L30.0895 16.6359L29.2077 16.1452L29.7182 15.1771C29.7182 15.1771 29.7315 15.1307 29.7182 15.1108C29.7116 15.0909 29.6917 15.071 29.6718 15.0644L29.2607 14.9185C29.2607 14.9185 29.2408 14.9185 29.2342 14.9185C29.2077 14.9185 29.1811 14.9318 29.1679 14.9583L28.6905 15.8667L27.9479 15.4556L28.5711 14.2687C28.5711 14.2687 28.5844 14.229 28.5711 14.2091C28.5711 14.1892 28.5512 14.1759 28.538 14.1627L28.16 13.9505C28.16 13.9505 28.1401 13.9438 28.1269 13.9438C28.1004 13.9438 28.0738 13.9571 28.0606 13.9836L27.1787 15.6612C27.1588 15.7009 27.1787 15.7474 27.2119 15.7673" fill="#282828"/>
<path d="M30.1757 12.1605C30.2752 12.1605 30.3746 12.2002 30.4741 12.2732C30.6067 12.3726 30.6796 12.4986 30.6863 12.6445C30.6929 12.7904 30.6332 12.9628 30.5139 13.1418L30.3282 13.4136L29.4861 12.8036L29.6983 12.492C29.8442 12.2732 30.0033 12.1671 30.1757 12.1671M31.535 15.0646C31.535 15.0646 31.5615 15.0779 31.5748 15.0779C31.5947 15.0779 31.6212 15.0646 31.6344 15.0448L31.8997 14.6536C31.8997 14.6536 31.9129 14.6138 31.9129 14.5939C31.9129 14.574 31.8997 14.5541 31.8798 14.5475L30.7592 13.7319L30.8984 13.5264H32.6754C32.6754 13.5264 32.7285 13.4998 32.7417 13.4733L32.9274 13.0158C32.9274 13.0158 32.934 12.9628 32.9274 12.9429C32.9141 12.923 32.8876 12.9097 32.8677 12.9097H31.2101C31.3427 12.4323 31.1968 12.0212 30.8056 11.7361C30.6133 11.5969 30.4078 11.5239 30.2089 11.5239C29.8575 11.5239 29.5259 11.7361 29.2541 12.1339L28.717 12.923C28.717 12.923 28.7037 12.9628 28.7037 12.9826C28.7037 13.0025 28.717 13.0224 28.7369 13.0291L31.5416 15.0646H31.535Z" fill="#282828"/>
<path d="M31.3162 10.9009C31.5085 11.0799 31.6942 11.1595 31.913 11.1595C32.1185 11.1595 32.3572 11.0865 32.7352 10.9208C33.0269 10.7881 33.186 10.7417 33.3054 10.7417C33.4115 10.7417 33.4911 10.7815 33.5905 10.8743C33.69 10.9738 33.743 11.0865 33.7364 11.2125C33.7364 11.3385 33.6701 11.4711 33.564 11.5971C33.312 11.8888 32.9672 12.0148 32.7816 12.0612C32.7551 12.0678 32.7352 12.0877 32.7285 12.1143C32.7219 12.1408 32.7285 12.1673 32.7418 12.1872L33.0534 12.5718C33.0534 12.5718 33.0866 12.5983 33.1131 12.5983C33.1197 12.5983 33.133 12.5983 33.1396 12.5983C33.438 12.4856 33.7364 12.2734 33.9751 11.9949C34.2005 11.7363 34.3199 11.4512 34.3265 11.1661C34.3265 10.8743 34.2138 10.6025 33.9817 10.3903C33.7695 10.1914 33.5706 10.1052 33.3386 10.1052C33.133 10.1052 32.8877 10.1715 32.523 10.3373C32.2312 10.4699 32.0589 10.5229 31.9395 10.5229C31.8533 10.5229 31.7804 10.4898 31.7008 10.4168C31.5151 10.2444 31.535 10.0124 31.7406 9.77367C31.8931 9.59465 32.1252 9.46867 32.3705 9.42225C32.397 9.42225 32.4169 9.39573 32.4235 9.37584C32.4302 9.34932 32.4235 9.32279 32.4103 9.3029L32.1119 8.92496C32.1119 8.92496 32.0787 8.89844 32.0522 8.89844C32.0456 8.89844 32.039 8.89844 32.0323 8.89844C31.7737 8.98463 31.5417 9.14377 31.3361 9.38247C30.8919 9.89302 30.8786 10.5097 31.3162 10.9141" fill="#282828"/>
<path d="M35.1818 10.5229C35.1818 10.5229 35.2149 10.5494 35.2348 10.5494C35.2348 10.5494 35.2746 10.5428 35.2879 10.5296L35.6327 10.198C35.6327 10.198 35.6658 10.1185 35.6327 10.0919L33.2987 7.50601C33.2987 7.50601 33.2656 7.47949 33.2457 7.47949C33.2457 7.47949 33.2059 7.48612 33.1926 7.49938L32.8545 7.83091C32.8545 7.83091 32.8213 7.91048 32.8545 7.937L35.1884 10.5229H35.1818Z" fill="#282828"/>
<path d="M35.6593 6.16659L36.4881 5.51017C36.4881 5.51017 36.5146 5.47701 36.5146 5.45049C36.5146 5.4306 36.508 5.40408 36.4947 5.39082L36.1764 5.08581C36.1764 5.08581 36.1433 5.06592 36.1234 5.06592C36.1101 5.06592 36.0902 5.06592 36.077 5.07918L34.0016 6.71693C34.0016 6.71693 33.9751 6.75008 33.9751 6.76997C33.9751 6.78986 33.9751 6.80976 33.9884 6.82965L34.247 7.18107C34.247 7.18107 34.2867 7.20759 34.3066 7.20759C34.3199 7.20759 34.3398 7.20759 34.353 7.19433L35.162 6.55779L36.939 8.95806C36.939 8.95806 36.9721 8.98458 36.992 8.98458C36.992 8.98458 36.992 8.98458 36.9986 8.98458C37.0119 8.98458 37.0318 8.98458 37.045 8.97132L37.4164 8.67957C37.4164 8.67957 37.4561 8.60664 37.4296 8.57349L35.6526 6.17322L35.6593 6.16659Z" fill="#282828"/>
<path d="M39.2066 5.5035L38.4441 5.96764L38.2319 4.70783L39.2066 5.51013V5.5035ZM38.0993 3.8326C38.0993 3.8326 38.0661 3.81934 38.0529 3.81934C38.0396 3.81934 38.0263 3.81934 38.0131 3.8326L37.6086 4.07793C37.6086 4.07793 37.5688 4.12434 37.5755 4.15749L38.1722 7.92365C38.1722 7.92365 38.1921 7.97007 38.212 7.98333C38.2186 7.98333 38.2319 7.98996 38.2451 7.98996C38.2584 7.98996 38.2717 7.98996 38.2849 7.9767L38.6894 7.73137C38.6894 7.73137 38.7292 7.68495 38.7225 7.6518L38.5435 6.58428L39.6773 5.8947L40.5261 6.59754C40.5261 6.59754 40.5592 6.61743 40.5725 6.61743C40.5924 6.61743 40.6122 6.6108 40.6255 6.59754L40.9637 6.27264C40.9637 6.27264 40.9902 6.23286 40.9902 6.21297C40.9902 6.19308 40.9769 6.16655 40.9637 6.15329L38.1125 3.83923L38.0993 3.8326Z" fill="#282828"/>
<path d="M41.7262 3.62716C41.1493 3.6139 41.0299 3.54759 40.9504 3.34204C40.904 3.23595 40.904 3.12987 40.9504 3.03704C40.9968 2.93095 41.1029 2.83812 41.2554 2.77181C41.3814 2.71214 41.5272 2.68562 41.6731 2.68562C41.7726 2.68562 41.872 2.69888 41.9649 2.7254C41.9649 2.7254 41.9781 2.7254 41.9847 2.7254C42.0046 2.7254 42.0245 2.71877 42.0378 2.70551C42.0577 2.68562 42.0643 2.6591 42.0577 2.63257L41.945 2.1618C41.945 2.1618 41.9118 2.10876 41.8787 2.10213C41.819 2.0955 41.7659 2.08887 41.7063 2.08887C41.4875 2.08887 41.2753 2.13528 41.0498 2.23474C40.4332 2.50659 40.1746 3.06356 40.4067 3.6139C40.6189 4.13108 40.9902 4.23054 41.6797 4.25043C42.2632 4.26369 42.3826 4.33663 42.482 4.57533C42.5351 4.70794 42.5351 4.83392 42.482 4.94664C42.429 5.05936 42.3163 5.15219 42.1704 5.21849C41.998 5.29143 41.8124 5.33121 41.6002 5.33121C41.4941 5.33121 41.3814 5.31795 41.2753 5.29806C41.2753 5.29806 41.2686 5.29806 41.262 5.29806C41.2421 5.29806 41.2222 5.30469 41.209 5.32458C41.1891 5.34447 41.1825 5.37099 41.1891 5.39752L41.3151 5.88155C41.3151 5.88155 41.3482 5.93459 41.3814 5.94122C41.4278 5.94122 41.4808 5.94122 41.5272 5.94122C41.8057 5.94122 42.1041 5.87492 42.3826 5.75557C42.6876 5.61633 42.9197 5.41078 43.039 5.15219C43.165 4.88696 43.165 4.59522 43.039 4.29684C42.8069 3.73988 42.4356 3.63379 41.7394 3.62053" fill="#282828"/>
<path d="M49.6496 1.62464C49.1059 1.42572 49.0131 1.32626 48.9932 1.10745C48.9799 0.994735 49.0131 0.895277 49.0794 0.822341C49.159 0.736143 49.2849 0.683099 49.4507 0.669838C49.4772 0.669838 49.5104 0.669838 49.5369 0.669838C49.7425 0.669838 49.9613 0.736143 50.1469 0.855493C50.1602 0.862124 50.1734 0.868754 50.1867 0.868754C50.2 0.868754 50.2066 0.868754 50.2199 0.862124C50.2464 0.848863 50.2596 0.828971 50.2596 0.795818L50.2928 0.311787C50.2928 0.311787 50.2795 0.252112 50.253 0.238851C50.0541 0.146023 49.8353 0.0996094 49.5966 0.0996094C49.5369 0.0996094 49.4772 0.0996094 49.4176 0.10624C49.0927 0.132762 48.8274 0.252112 48.6418 0.451029C48.4495 0.649946 48.3633 0.915168 48.3898 1.21354C48.4362 1.77714 48.7611 1.98932 49.4109 2.22802C49.9613 2.42694 50.0541 2.53303 50.074 2.79825C50.0872 2.94412 50.0475 3.05684 49.9613 3.14967C49.8751 3.23586 49.7425 3.29554 49.5833 3.3088C49.5502 3.3088 49.5104 3.3088 49.4772 3.3088C49.1457 3.3088 48.854 3.17619 48.7081 3.09662C48.6948 3.09662 48.6816 3.08999 48.6749 3.08999C48.6617 3.08999 48.6484 3.08999 48.6352 3.09662C48.6153 3.10988 48.5954 3.13641 48.5954 3.16293L48.5688 3.66022C48.5688 3.66022 48.5887 3.7199 48.6153 3.73316C48.854 3.83262 49.1324 3.89229 49.4176 3.89229C49.4839 3.89229 49.5568 3.89229 49.6297 3.88566C49.9613 3.85251 50.2397 3.72653 50.432 3.52098C50.6309 3.3088 50.7171 3.03032 50.6906 2.71205C50.6376 2.10867 50.3193 1.88986 49.6563 1.65116" fill="#282828"/>
<path d="M53.8932 0.0795667L51.2808 0C51.2808 0 51.241 0.00663056 51.2277 0.0198917C51.2145 0.0331528 51.2078 0.0530445 51.2078 0.0729362L51.1946 0.510553C51.1946 0.550337 51.2277 0.59012 51.2675 0.59012L52.282 0.623273L52.1892 3.64018C52.1892 3.67996 52.2223 3.71975 52.2621 3.71975L52.7262 3.73301C52.7262 3.73301 52.766 3.72638 52.7793 3.71311C52.7925 3.69985 52.7992 3.67996 52.8058 3.66007L52.8986 0.643165L53.9463 0.676317C53.9463 0.676317 53.986 0.669687 53.9993 0.649795C54.0126 0.629903 54.0192 0.610012 54.0192 0.59012L53.9662 0.145872C53.9662 0.106089 53.933 0.0795667 53.8932 0.0795667Z" fill="#282828"/>
<path d="M57.719 0.669783L57.2615 0.590216C57.2615 0.590216 57.2549 0.590216 57.2483 0.590216C57.235 0.590216 57.2151 0.590216 57.2018 0.603478C57.1886 0.616739 57.1753 0.63 57.1687 0.649891L56.8173 2.77167C56.7311 3.30212 56.4791 3.56734 56.068 3.56734C56.0083 3.56734 55.942 3.56734 55.8757 3.54745C55.2392 3.43473 55.1862 2.90428 55.2591 2.4733L55.6105 0.364777C55.6105 0.364777 55.6105 0.324994 55.5973 0.305102C55.584 0.291841 55.5707 0.27858 55.5508 0.27195L55.0933 0.192383C55.0933 0.192383 55.0867 0.192383 55.0801 0.192383C55.0469 0.192383 55.0138 0.218905 55.0071 0.258688L54.6491 2.42688C54.4966 3.32864 54.9342 3.97843 55.7895 4.13094C55.8956 4.15083 56.0017 4.15746 56.1012 4.15746C56.804 4.15746 57.3013 3.68669 57.4339 2.89102L57.792 0.74935C57.7986 0.709567 57.7721 0.669783 57.7323 0.663153" fill="#282828"/>
<path d="M60.6829 3.50103C60.4972 4.09115 60.1458 4.38953 59.6485 4.38953C59.4828 4.38953 59.3037 4.35637 59.1181 4.29007L58.6871 4.1442L59.4496 1.75719L59.8939 1.9097C60.6365 2.16166 60.9282 2.73852 60.6829 3.50103ZM60.053 1.3461L59.1115 1.02783C59.1115 1.02783 59.0982 1.02783 59.0916 1.02783C59.0783 1.02783 59.065 1.02783 59.0584 1.03446C59.0385 1.04109 59.0253 1.06098 59.0186 1.08088L57.9511 4.44257C57.9379 4.48235 57.9577 4.52877 57.9975 4.54203L58.9192 4.85367C59.1778 4.93986 59.4297 4.98628 59.6684 4.98628C60.4309 4.98628 61.0211 4.52214 61.2797 3.70658C61.6311 2.61254 61.1669 1.73067 60.053 1.35273" fill="#282828"/>
<path d="M63.3815 2.69866C63.3815 2.69866 63.3616 2.66551 63.3418 2.65888L62.9174 2.45996C62.9174 2.45996 62.8975 2.45996 62.8842 2.45996C62.8577 2.45996 62.8312 2.47322 62.8179 2.50637L61.4056 5.72883C61.3857 5.76861 61.4056 5.81502 61.4454 5.82829L61.8698 6.0272C61.8698 6.0272 61.8897 6.03383 61.9029 6.03383C61.9096 6.03383 61.9228 6.03383 61.9294 6.03383C61.9493 6.0272 61.9626 6.01394 61.9692 5.99405L63.3815 2.7716C63.3815 2.7716 63.3882 2.73181 63.3815 2.71192" fill="#282828"/>
<path d="M65.8217 6.15314C65.5432 6.63054 65.1785 6.89577 64.7939 6.89577C64.6282 6.89577 64.4558 6.84272 64.29 6.74326C63.7463 6.41173 63.6601 5.76857 64.0646 5.07236C64.343 4.59496 64.7077 4.32974 65.0923 4.32974C65.2647 4.32974 65.4305 4.38278 65.5962 4.48224C66.1399 4.81377 66.2261 5.45693 65.8217 6.15314ZM65.8946 3.97169C65.6227 3.80592 65.3376 3.71973 65.0459 3.71973C64.4491 3.71973 63.8922 4.09104 63.5142 4.74746C62.9506 5.72879 63.1363 6.73663 63.985 7.25382C64.2569 7.41958 64.542 7.50578 64.8337 7.50578C65.4305 7.50578 65.9874 7.13447 66.3654 6.47804C66.9356 5.48346 66.7566 4.4955 65.8946 3.97169Z" fill="#282828"/>
<path d="M68.7855 7.52586C68.686 7.65184 68.5601 7.71815 68.4208 7.71815C68.2749 7.71815 68.1092 7.64521 67.9434 7.50597L67.6915 7.29379L68.3346 6.46497L68.6264 6.7103C68.7855 6.84291 68.8783 6.98216 68.9048 7.1214C68.9247 7.25401 68.885 7.38662 68.7855 7.51923M69.2828 7.9038C69.4883 7.63858 69.5679 7.35347 69.5149 7.06172C69.4618 6.78324 69.2828 6.51139 68.9977 6.27269L68.2683 5.66931C68.2683 5.66931 68.2352 5.64941 68.2219 5.64941C68.2219 5.64941 68.2219 5.64941 68.2153 5.64941C68.1954 5.64941 68.1755 5.66268 68.1622 5.67594L66.0073 8.42762C66.0073 8.42762 65.9874 8.4674 65.994 8.48729C65.994 8.50719 66.0073 8.52708 66.0206 8.54034L66.3852 8.84534C66.3852 8.84534 66.4184 8.86524 66.4316 8.86524C66.4316 8.86524 66.4316 8.86524 66.4383 8.86524C66.4582 8.86524 66.4781 8.85197 66.4913 8.83871L67.3533 7.73804L67.539 7.89717L67.4262 9.72721C67.4262 9.72721 67.4395 9.78688 67.466 9.80014L67.897 10.019C67.897 10.019 67.9169 10.0256 67.9302 10.0256C67.9434 10.0256 67.9567 10.0256 67.9699 10.0123C67.9898 9.99906 68.0031 9.97917 68.0097 9.95265L68.1158 8.24196C68.2484 8.28838 68.381 8.3149 68.507 8.3149C68.8054 8.3149 69.0772 8.17566 69.2894 7.9038" fill="#282828"/>
<path d="M69.1303 11.5108C69.4287 11.8357 69.7801 12.0147 70.1448 12.0147C70.5095 12.0147 70.8476 11.8489 71.1659 11.5439L72.6975 10.052C72.6975 10.052 72.7307 9.97247 72.6975 9.94594L72.3793 9.59452C72.3793 9.59452 72.3461 9.568 72.3262 9.568C72.3262 9.568 72.2865 9.57463 72.2732 9.58789L70.7548 11.0665C70.536 11.2853 70.3105 11.3914 70.105 11.3914C69.9127 11.3914 69.7271 11.2919 69.548 11.1063C69.1038 10.6156 69.3756 10.1648 69.6806 9.86638L71.1858 8.40102C71.1858 8.40102 71.2057 8.36787 71.2123 8.34798C71.2123 8.32809 71.2057 8.3082 71.1924 8.29493L70.8741 7.94351C70.8741 7.94351 70.841 7.91699 70.8211 7.91699C70.8012 7.91699 70.7813 7.92362 70.7681 7.93688L69.2165 9.44202C68.5733 10.0653 68.5402 10.861 69.1303 11.5108Z" fill="#282828"/>
<path d="M70.6221 13.0292C70.6221 13.0292 70.6221 13.0756 70.6354 13.0889L70.8741 13.4668C70.8741 13.4668 70.9139 13.5 70.9337 13.5C70.947 13.5 70.9603 13.5 70.9669 13.4934L73.0688 12.2733L71.5703 14.5012C71.5703 14.5012 71.5504 14.5609 71.5703 14.5874L71.7626 14.8924C71.7626 14.8924 71.8023 14.9256 71.8222 14.9256H71.8355L74.4015 14.3553L72.5052 15.8936C72.5052 15.8936 72.4654 15.9666 72.4919 15.9931L72.7373 16.3777C72.7373 16.3777 72.7638 16.4042 72.7903 16.4108C72.7903 16.4108 72.7969 16.4108 72.8036 16.4108C72.8168 16.4108 72.8367 16.4108 72.85 16.3976L75.5552 14.2028C75.5552 14.2028 75.595 14.1299 75.5685 14.1034L75.2502 13.6127C75.2502 13.6127 75.2105 13.5796 75.1906 13.5796C75.1906 13.5796 75.1773 13.5796 75.1707 13.5796L72.4322 14.2227L74.07 11.8622C74.07 11.8622 74.0899 11.8026 74.07 11.7761L73.7517 11.2788C73.7517 11.2788 73.7119 11.2456 73.6921 11.2456C73.6788 11.2456 73.6655 11.2456 73.6523 11.2522L70.6486 12.9762C70.6486 12.9762 70.6155 13.0027 70.6155 13.0226" fill="#282828"/>
<path d="M76.8814 21.9076L77.9157 21.6556L77.9953 22.0004C78.0483 22.2192 78.0417 22.3916 77.982 22.5176C77.9224 22.6436 77.8096 22.7232 77.6439 22.7629C77.5842 22.7762 77.5311 22.7828 77.4781 22.7828C77.2195 22.7828 77.0405 22.5905 76.9543 22.2192L76.8814 21.9076ZM74.8657 21.7684C74.8657 21.7684 74.8524 21.8081 74.859 21.828L74.9651 22.2988C74.9718 22.3319 75.0049 22.3585 75.0381 22.3585C75.0381 22.3585 75.0513 22.3585 75.0579 22.3585L76.3376 22.0468L76.404 22.3386C76.4835 22.6767 76.6095 22.942 76.7885 23.1342C76.9808 23.3332 77.2195 23.4326 77.4914 23.4326C77.5908 23.4326 77.6903 23.4194 77.7964 23.3928C78.4462 23.2337 78.7246 22.6767 78.5456 21.901L78.3334 20.9859C78.3334 20.9859 78.3202 20.9462 78.3003 20.9395C78.287 20.9329 78.2738 20.9263 78.2605 20.9263C78.2605 20.9263 78.2472 20.9263 78.2406 20.9263L74.9054 21.7418C74.9054 21.7418 74.8723 21.7617 74.859 21.775" fill="#282828"/>
<path d="M78.2936 25.3154L77.193 25.9055L77.0935 25.0038L78.2936 25.3154ZM75.4557 23.9429C75.4557 23.9429 75.4226 23.9495 75.4093 23.9628C75.3894 23.976 75.3828 24.0025 75.3828 24.0291L75.4359 24.5131C75.4359 24.5131 75.4624 24.5728 75.4889 24.5794L76.5034 24.8446L76.6492 26.1906L75.6812 26.7012C75.6812 26.7012 75.6348 26.7609 75.6414 26.794L75.7939 27.2449C75.7939 27.2449 75.8204 27.2847 75.8403 27.2913C75.8469 27.2913 75.8602 27.2913 75.8668 27.2913C75.8801 27.2913 75.8934 27.2913 75.9 27.2847L79.1026 25.5342C79.1026 25.5342 79.1423 25.4878 79.1423 25.4613L79.0893 24.9839C79.0893 24.9839 79.0628 24.9242 79.0362 24.9176L75.469 23.9429C75.469 23.9429 75.4557 23.9429 75.4491 23.9429" fill="#282828"/>
<path d="M78.7313 28.5776V28.9622C78.7114 29.3733 78.5456 29.5855 78.2141 29.5855H78.1942C77.7433 29.5722 77.6903 29.1412 77.6903 28.8826V28.5511L78.7246 28.5776H78.7313ZM79.2816 27.9743C79.2816 27.9743 79.2484 27.9544 79.2286 27.9477L75.8006 27.8682C75.7608 27.8682 75.7276 27.9013 75.7276 27.9411L75.7144 28.4251C75.7144 28.4251 75.721 28.4649 75.7343 28.4782C75.7475 28.4914 75.7674 28.5047 75.7873 28.5047L77.1598 28.5379V28.7832L75.6812 29.8043C75.6547 29.8242 75.6414 29.8507 75.6481 29.8839L75.7409 30.3745C75.7409 30.3745 75.7608 30.4209 75.7873 30.4276C75.7939 30.4276 75.8072 30.4276 75.8138 30.4276C75.8271 30.4276 75.8403 30.4276 75.8536 30.4143L77.2261 29.4595C77.3786 29.9303 77.7168 30.1955 78.2008 30.2088C78.2141 30.2088 78.2207 30.2088 78.234 30.2088C78.8705 30.2088 79.2617 29.7512 79.275 28.9821L79.2949 28.0207C79.2949 28.0207 79.2882 27.9809 79.275 27.9676" fill="#282828"/>
<path d="M79.0827 31.7407L75.7608 30.8257C75.7608 30.8257 75.7475 30.8257 75.7409 30.8257C75.7276 30.8257 75.7144 30.8257 75.7011 30.8389C75.6812 30.8522 75.6746 30.8721 75.668 30.892L75.5884 31.3362C75.5818 31.376 75.6083 31.4158 75.6414 31.4224L77.9754 32.0523L75.4027 32.5762C75.4027 32.5762 75.3497 32.6093 75.3431 32.6358L75.2768 32.9939C75.2768 32.9939 75.2834 33.0536 75.3099 33.0734L77.5378 34.5056L75.1375 34.2537C75.1375 34.2537 75.1375 34.2537 75.1309 34.2537C75.0977 34.2537 75.0646 34.2802 75.058 34.3134L74.9784 34.7709C74.9784 34.7709 74.9784 34.8106 74.9917 34.8305C75.0049 34.8504 75.0248 34.8571 75.0447 34.8637L78.4661 35.2284H78.4727C78.5058 35.2284 78.539 35.2019 78.5456 35.1621L78.6517 34.5852C78.6517 34.5852 78.6451 34.5189 78.6186 34.5056L76.2117 33.0071L78.9766 32.4767C78.9766 32.4767 79.0297 32.4502 79.0363 32.417L79.1424 31.8335C79.149 31.7937 79.1291 31.754 79.0893 31.7473" fill="#282828"/>
<path d="M78.0285 36.6937L74.7861 35.5532C74.7861 35.5532 74.7729 35.5532 74.7596 35.5532C74.7265 35.5532 74.6999 35.5731 74.6867 35.6063L74.0767 37.4562C74.0767 37.4562 74.0767 37.496 74.0767 37.5159C74.0833 37.5358 74.1032 37.549 74.1231 37.5557L74.5275 37.6949C74.5275 37.6949 74.5408 37.6949 74.5541 37.6949C74.5872 37.6949 74.6137 37.675 74.627 37.6418L75.0646 36.3157L76.0128 36.6473L75.668 37.6883C75.668 37.6883 75.668 37.7347 75.6746 37.7546C75.6879 37.7745 75.7011 37.7877 75.7277 37.7944L76.152 37.8673C76.152 37.8673 76.1587 37.8673 76.1653 37.8673C76.1984 37.8673 76.225 37.8474 76.2382 37.8142L76.5631 36.8396L77.3588 37.1247L76.9344 38.3977C76.9344 38.3977 76.9344 38.4375 76.9344 38.4574C76.9411 38.4773 76.961 38.4906 76.9808 38.4972L77.3853 38.6364C77.3853 38.6364 77.3986 38.6364 77.4118 38.6364C77.445 38.6364 77.4715 38.6165 77.4848 38.5834L78.0815 36.7799C78.0948 36.7401 78.0749 36.6937 78.0351 36.6804" fill="#282828"/>
<path d="M76.9874 39.6837L73.9175 38.1189C73.9175 38.1189 73.8976 38.1123 73.8843 38.1123C73.8578 38.1123 73.8313 38.1256 73.818 38.1521L73.6257 38.5499C73.6257 38.5499 73.6191 38.5897 73.6257 38.6096C73.6324 38.6295 73.6456 38.6427 73.6655 38.656L75.847 39.7699L72.8566 40.254C72.8566 40.254 72.8102 40.2739 72.8035 40.2938L72.6444 40.6187C72.6245 40.6584 72.6444 40.7049 72.6776 40.7247L75.7475 42.2896C75.7475 42.2896 75.7674 42.2962 75.7807 42.2962C75.8072 42.2962 75.8337 42.2829 75.847 42.2564L76.0393 41.8586C76.0393 41.8586 76.0459 41.8188 76.0393 41.7989C76.0326 41.779 76.0194 41.7657 75.9995 41.7525L73.9042 40.685L76.7819 40.2142C76.7819 40.2142 76.8283 40.1943 76.8349 40.1744L77.0206 39.7898C77.0405 39.7501 77.0206 39.7036 76.9874 39.6837Z" fill="#282828"/>
<path d="M74.4215 42.8203C74.2424 42.6943 74.0833 42.6413 73.9109 42.6413C73.6457 42.6413 73.3606 42.7872 73.0158 43.006C72.7108 43.1983 72.5517 43.2712 72.419 43.2712C72.3395 43.2712 72.2665 43.2447 72.1671 43.1784C71.935 43.0192 71.9085 42.7474 72.0941 42.4623C72.3063 42.1374 72.6312 41.965 72.8036 41.8854C72.8301 41.8788 72.8434 41.8522 72.85 41.8257C72.85 41.7992 72.85 41.7727 72.8235 41.7528L72.4655 41.4213C72.4655 41.4213 72.4323 41.4014 72.4124 41.4014C72.3991 41.4014 72.3859 41.4014 72.3793 41.408C72.0941 41.5671 71.8289 41.8191 71.63 42.1241C71.2454 42.7142 71.3316 43.3574 71.8488 43.7154C72.0411 43.848 72.2201 43.9144 72.3992 43.9144C72.6379 43.9144 72.8964 43.8083 73.2943 43.5563C73.5993 43.364 73.7717 43.2844 73.8977 43.2844C73.964 43.2844 74.0236 43.3043 74.0966 43.3574C74.3021 43.4966 74.3154 43.7353 74.143 44.0005C74.017 44.1995 73.8048 44.3586 73.5661 44.4382C73.5396 44.4448 73.5263 44.4713 73.5197 44.4978C73.5197 44.5244 73.5197 44.5509 73.5396 44.5708L73.8844 44.9023C73.8844 44.9023 73.9175 44.9222 73.9374 44.9222C73.9507 44.9222 73.9573 44.9222 73.9706 44.9156C74.2159 44.7896 74.4215 44.5973 74.5939 44.3321C74.7729 44.0536 74.8525 43.7618 74.8259 43.49C74.7928 43.2115 74.6469 42.9728 74.4082 42.807" fill="#282828"/>
<path d="M70.6421 43.7484C70.6421 43.7484 70.6089 43.7285 70.5957 43.7285C70.5758 43.7285 70.5559 43.7351 70.536 43.755L70.2443 44.1264C70.2443 44.1264 70.2244 44.1595 70.2244 44.186C70.2244 44.2059 70.2376 44.2258 70.2509 44.2391L72.9164 46.4669C72.9164 46.4669 72.9429 46.4868 72.9628 46.4868C72.9628 46.4868 72.9628 46.4868 72.9694 46.4868C72.9893 46.4868 73.0092 46.4736 73.0225 46.4603L73.3142 46.0824C73.3407 46.0492 73.3341 46.0028 73.3009 45.9763L70.6355 43.7484H70.6421Z" fill="#282828"/>
<path d="M70.9935 46.4141C70.7946 46.4141 70.5625 46.4738 70.1978 46.6263C69.9194 46.739 69.7536 46.7854 69.6342 46.7854C69.5215 46.7854 69.4353 46.7456 69.3359 46.6395C69.1369 46.4406 69.1568 46.1688 69.3889 45.9234C69.6541 45.6449 69.9989 45.5322 70.1846 45.4858C70.2111 45.4858 70.231 45.4593 70.2376 45.4394C70.2442 45.4129 70.2376 45.3863 70.2244 45.3665L69.9326 44.9753C69.9326 44.9753 69.8928 44.9487 69.8729 44.9487C69.8663 44.9487 69.8597 44.9487 69.853 44.9487C69.548 45.0482 69.243 45.2537 68.9977 45.519C68.7656 45.7709 68.633 46.0494 68.6198 46.3345C68.6065 46.6263 68.7126 46.8981 68.938 47.1236C69.1635 47.349 69.3558 47.4352 69.6011 47.4352C69.8 47.4352 70.0387 47.3755 70.3901 47.2296C70.6752 47.1103 70.841 47.0639 70.9603 47.0639C71.0598 47.0639 71.1261 47.097 71.2123 47.1766C71.3913 47.3556 71.3648 47.5877 71.146 47.8198C70.9869 47.9922 70.7548 48.1115 70.5028 48.1513C70.4763 48.1513 70.4564 48.1712 70.4432 48.1977C70.4365 48.2242 70.4365 48.2508 70.4498 48.2706L70.7349 48.6618C70.7349 48.6618 70.7681 48.695 70.7946 48.695C70.8012 48.695 70.8078 48.695 70.8145 48.695C71.0797 48.6154 71.3118 48.4629 71.5306 48.2375C71.9947 47.7402 72.0279 47.1236 71.6035 46.7058C71.4046 46.5069 71.2189 46.4207 70.9869 46.4207" fill="#282828"/>
<path d="M25.9255 32.8678C25.9255 33.1529 26.151 33.385 26.4295 33.385C26.7079 33.385 26.9334 33.1529 26.9334 32.8678C26.9334 32.5827 26.7079 32.3506 26.4295 32.3506C26.151 32.3506 25.9255 32.5827 25.9255 32.8678Z" fill="#282828"/>
<path d="M45.7641 2.24761C45.6779 2.18794 45.5785 2.15479 45.479 2.15479C45.3133 2.15479 45.1608 2.24098 45.0679 2.37359C44.9088 2.60566 44.9685 2.93056 45.1939 3.09632C45.2801 3.156 45.3796 3.18915 45.479 3.18915C45.6448 3.18915 45.7973 3.10296 45.8901 2.96371C46.0493 2.73164 45.9896 2.40675 45.7641 2.24098" fill="#282828"/>
<path d="M75.5222 17.7764C75.4558 17.7764 75.3962 17.7896 75.3299 17.8162C75.0713 17.9222 74.9519 18.2272 75.0514 18.4925C75.1309 18.6914 75.31 18.8174 75.5155 18.8174C75.5818 18.8174 75.6415 18.8041 75.7078 18.7776C75.9664 18.6715 76.0857 18.3665 75.9863 18.1013C75.9067 17.9023 75.7277 17.7764 75.5222 17.7764Z" fill="#282828"/>
</g>
<defs>
<clipPath id="clip0_1_437">
<rect width="103.569" height="93.8092" fill="white"/>
</clipPath>
</defs>
</svg>
