<svg preserveAspectRatio="none" width="100%" height="100%" overflow="visible" style="display: block;" viewBox="0 0 241 57" fill="none" xmlns="http://www.w3.org/2000/svg">
<g id="Verlingue">
<g id="Group">
<path id="Vector" d="M153.222 9.51753L134.241 28.761C132.778 30.3603 130.68 31.3654 128.353 31.3654C126.026 31.3654 123.918 30.3525 122.457 28.761L100.674 6.75343C98.668 4.81915 95.9326 3.6017 92.9624 3.6017L92.9528 0C96.8913 0 100.518 1.62456 103.145 4.16075L125.025 26.2638C125.845 27.1657 127.055 27.7617 128.353 27.7617C129.65 27.7617 130.852 27.1715 131.672 26.2677L150.413 7.26574L153.223 9.51753H153.222Z" fill="var(--fill-0, #282828)"/>
<path id="Vector_2" d="M150.411 7.26818L152.425 5.22676C150.752 4.20021 148.806 3.60415 146.721 3.60415C143.751 3.60415 141.006 4.81965 138.998 6.75588L117.215 28.7635C115.754 30.3549 113.644 31.3678 111.319 31.3678C108.993 31.3678 106.893 30.3627 105.43 28.7635L81.9131 4.91899C85.2914 1.9601 88.2809 0.00244419 92.9913 0.00244419L92.9605 3.60415C90.8738 3.60415 88.918 4.20021 87.2472 5.22676L108.002 26.2701C108.82 27.174 110.018 27.7642 111.319 27.7642C112.62 27.7642 113.829 27.1681 114.647 26.2662L136.524 4.1632C139.154 1.62701 142.781 0.00244419 146.717 0.00244419C151.427 0.00244419 154.377 1.9601 157.755 4.91899L153.218 9.51998L150.407 7.26818H150.411Z" fill="var(--fill-0, #282828)"/>
</g>
<path id="Vector_3" fill-rule="evenodd" clip-rule="evenodd" d="M58.775 52.7031V56.8424H44.6746C39.1461 56.8424 34.5666 52.3135 34.5666 46.6139C34.5666 40.9143 39.046 36.3328 44.6785 36.2783H58.7769V40.441H44.6765C43.1443 40.441 41.8103 41 40.79 41.9155C40.02 42.5856 39.4175 43.4466 39.0556 44.4264H57.1561V48.4781H38.9729C39.7178 50.502 41.1808 51.9025 43.0037 52.4499C43.5293 52.6135 44.0914 52.7031 44.6765 52.7031H58.7769H58.775ZM80.7408 50.1104H69.6299V56.8697L65.4681 56.8463V36.2529H83.2509C87.0258 36.2529 90.0884 39.3501 90.0884 43.17C90.0884 46.0938 88.2963 48.6125 85.7649 49.6273L90.7275 56.8444H85.5801L80.7446 50.1085L80.7408 50.1104ZM69.6299 40.4624V45.936H83.249C84.7351 45.936 85.942 44.6933 85.942 43.1875C85.942 41.6818 84.737 40.4624 83.249 40.4624H69.6299ZM114.099 56.8541H104.054C99.3591 56.8541 95.5515 53.0031 95.5515 48.2521L95.5438 36.2529H99.7922L99.7999 48.2755C99.7999 50.6539 101.706 52.5804 104.054 52.5804H114.099V56.8541ZM118.054 36.2529H122.303V56.8541H118.054V36.2529ZM133.102 41.7753V56.8541H128.855V36.2529H133.007L149.352 51.359V36.2568H153.599V56.8541H149.495L133.102 41.7753ZM169.114 56.8561C163.576 56.8561 158.987 52.3194 158.987 46.6081C158.987 40.8968 163.474 36.3075 169.118 36.2549H184.246V40.55H169.114C167.611 40.55 166.302 41.0994 165.301 41.9973C164.048 43.0862 163.249 44.6933 163.228 46.4892C163.228 49.2845 165.018 51.5986 167.472 52.3369C167.988 52.4986 168.539 52.5843 169.114 52.5843H179.998V48.5423H174.492V44.5881H184.246V56.858H169.114V56.8561ZM189.707 48.2521V36.2529H193.954V48.2755C193.954 50.6539 195.86 52.5804 198.208 52.5804H203.525C205.875 52.5804 207.779 50.6519 207.779 48.2755V36.2529H212.025V48.2521C212.025 53.0031 208.22 56.8541 203.523 56.8541H198.206C193.511 56.8541 189.705 53.0031 189.705 48.2521H189.707ZM241 52.7031V56.8424H226.9C221.371 56.8424 216.792 52.3135 216.792 46.6139C216.792 40.9143 221.271 36.3328 226.903 36.2783H241.002V40.441H226.902C225.369 40.441 224.035 41 223.015 41.9155C222.245 42.5856 221.643 43.4466 221.281 44.4264H239.381V48.4781H221.198C221.943 50.502 223.406 51.9025 225.229 52.4499C225.756 52.6135 226.316 52.7031 226.902 52.7031H241.002H241ZM15.3689 51.6142C15.6654 52.0876 16.187 52.4012 16.7799 52.4012C17.3728 52.4012 17.8945 52.0876 18.1909 51.6142L28.1161 36.2705H33.5522L21.9754 54.1874C20.8532 55.8782 18.9455 57.0002 16.7799 57.0002C14.6143 57.0002 12.6162 55.8256 11.5171 54.055L0 36.2588H5.4361L15.3689 51.6123V51.6142Z" fill="var(--fill-0, #282828)"/>
</g>
</svg>
