<?xml version="1.0" encoding="UTF-8"?>
<svg id="Livello_2" data-name="Livello 2" xmlns="http://www.w3.org/2000/svg" xmlns:xlink="http://www.w3.org/1999/xlink" viewBox="0 0 524.15 41.46">
  <defs>
    <style>
      .cls-1 {
        fill: none;
      }

      .cls-2 {
        clip-path: url(#clippath-1);
      }

      .cls-3 {
        fill: #fff;
      }

      .cls-4 {
        clip-path: url(#clippath);
      }
    </style>
    <clipPath id="clippath">
      <rect class="cls-1" width="524.15" height="41.46"/>
    </clipPath>
    <clipPath id="clippath-1">
      <rect class="cls-1" width="524.15" height="41.46"/>
    </clipPath>
  </defs>
  <g id="Livello_1-2" data-name="Livello 1">
    <g class="cls-4">
      <path class="cls-3" d="M62.9,37.9L59.48,1.01l-.02-.25h-4.99l-14.88,28.39c-2.91,5.64-4.51,8.75-8.01,8.75h-.64l-.65,2.81h13.19l.64-2.81h-1.04c-1.14,0-3.05-.3-3.05-2.31,0-.76.23-1.65,1.4-3.9l.99-1.88h8.76l.66,8.09h-2.52l-.64,2.81h16.62l.64-2.81h-3.04ZM51,27h-7.08l6.15-11.69.93,11.69Z"/>
      <path class="cls-3" d="M98.76,27.11l-.24.46c-3.52,6.95-8.57,10.33-15.44,10.33h-1.2L104.58.76h-29.17l-3.85,13.6h2.84l.23-.49c3.37-7.22,7.69-10.3,14.44-10.3h.21l-22.66,37.13h30.97l3.85-13.6h-2.68Z"/>
      <path class="cls-3" d="M130.94,27.11l-.24.46c-3.52,6.95-8.57,10.33-15.44,10.33h-1.2L136.77.76h-29.17l-3.85,13.6h2.84l.23-.49c3.37-7.22,7.69-10.3,14.44-10.3h.21l-22.66,37.13h30.97l3.85-13.6h-2.68Z"/>
      <path class="cls-3" d="M167.49,14.85l2.42-14.08h-28.72l-.65,2.81h3.06l-8.24,34.33h-2.88l-.65,2.81h30.49l3.79-13.7h-2.67l-.21.53c-3.63,9.01-10.45,10.36-14.19,10.36h-2.23l3.95-16.49h2.76c3.03,0,3.66,2.14,3.66,3.93,0,.75-.06,1.44-.18,2.11l-.18,1.06h2.71l3.82-15.72h-2.64l-.21.54c-1.75,4.4-3.93,5.26-7.11,5.26h-1.96l3.58-15.03h2.24c5.31,0,7.85,1.56,7.85,10.39v.89h2.39Z"/>
      <path class="cls-3" d="M172.54.76l-3.36,13.49h2.74l.19-.59c1.46-4.54,4.88-9.33,9.27-10l-8.09,34.24h-2.99l-.78,2.81h17.31l.77-2.81h-3l8.19-34.29c4.25.43,4.73,5.35,4.73,7.48,0,.8-.05,1.62-.14,2.26l-.14,1.01h2.62l3.25-13.6h-30.57Z"/>
      <path class="cls-3" d="M224.78,3.6c4.26.43,4.73,5.36,4.73,7.48,0,.8-.05,1.62-.14,2.26l-.13,1.02h2.62l3.25-13.6h-30.57l-3.36,13.5h2.74l.19-.6c1.46-4.54,4.88-9.33,9.27-10l-8.09,34.25h-2.99l-.77,2.81h17.3l.77-2.81h-3l8.19-34.3Z"/>
      <path class="cls-3" d="M249.98,1.01l-.02-.25h-4.99l-14.88,28.39c-2.91,5.64-4.51,8.75-8.01,8.75h-.64l-.65,2.81h13.19l.64-2.81h-1.04c-1.14,0-3.05-.3-3.05-2.31,0-.76.23-1.65,1.4-3.9l.99-1.88h8.76l.66,8.09h-2.52l-.64,2.81h16.62l.64-2.81h-3.04l-3.42-36.88ZM241.5,27h-7.08l6.15-11.69.93,11.69Z"/>
      <path class="cls-3" d="M20.36,25.68h.38c.51,0,.89.51.77,1.04l-1.23,5.18c-1.03,4.33-2.7,6.44-5.1,6.44-2.76,0-4.22-1.79-4.22-5.19,0-5.24,2.37-17,5.77-25.51,1.17-2.98,2.98-4.5,5.38-4.5,5.41,0,7.33,5.06,7.33,9.79,0,.93-.04,1.81-.14,2.78l-.09.98h2.58c.36,0,.67-.26.76-.63l3.52-14.26c.13-.53-.25-1.04-.77-1.04h-2.15l-.24.43c-.5.9-.98,1.36-2.22,1.36-.54,0-1.2-.31-2.04-.72C27.05,1.05,24.86,0,21.27,0,8.13,0,0,12.65,0,24.36,0,32.88,4.85,41.47,15.71,41.47c3.2,0,4.47-.88,7.43-2.45.41-.22.91-.04,1.09.42l.29.75c.12.31.41.52.73.52h2.74c.37,0,.68-.25.77-.63l1.2-4.83h0s2.23-9,2.23-9c.09-.37.4-.63.76-.63h.85c.37,0,.69-.27.77-.64l.26-1.14c.12-.53-.26-1.04-.77-1.04h-13.44c-.37,0-.69.27-.77.66l-.26,1.19c-.11.53.26,1.02.77,1.02"/>
      <path class="cls-3" d="M297.76.76h-17.03l-.64,2.81h3.05l-8.24,34.33h-2.88l-.64,2.81h19.23c13.66,0,22.49-9.58,22.49-24.42,0-10.59-4.87-15.52-15.33-15.52M299.53,24.85c-3.48,11.76-6.27,13.05-11.38,13.05h-1.81l8.2-34.33h3.46c2.93,0,4.41,1.72,4.41,5.13,0,3.93-1.16,10.42-2.88,16.15"/>
    </g>
    <polygon class="cls-3" points="319.87 .76 319.23 3.57 322.28 3.57 314.03 37.9 311.15 37.9 310.5 40.7 327.94 40.7 328.58 37.9 325.48 37.9 333.68 3.57 336.84 3.57 337.48 .76 319.87 .76"/>
    <g class="cls-2">
      <path class="cls-3" d="M370.78,23.41c6.68,0,13.87-4.03,13.87-12.87,0-6.76-3.25-9.78-10.52-9.78h-18.83l-.64,2.81h3.05l-8.24,34.33h-2.88l-.64,2.81h17.42l.65-2.81h-3.1l3.44-14.49h6.44ZM369.11,3.57h1.35c2.33,0,3.23.89,3.23,3.18,0,3.58-1.54,9.23-2.54,11.17-1.01,1.98-1.86,2.68-4.65,2.68h-1.49l4.09-17.03Z"/>
      <path class="cls-3" d="M404.41,37.9l-3.42-36.88-.02-.25h-4.99l-14.88,28.4c-2.9,5.63-4.5,8.74-8.01,8.74h-.64l-.64,2.81h13.18l.64-2.81h-1.04c-1.14,0-3.05-.3-3.05-2.31,0-.77.23-1.65,1.4-3.9l.99-1.88h8.76l.66,8.09h-2.52l-.64,2.81h16.62l.64-2.81h-3.04ZM392.5,27h-7.08l6.15-11.69.93,11.69Z"/>
      <path class="cls-3" d="M445.14,36.51l-1.51-2.46-.7.82c-.64.73-1.85,1.46-2.28,1.46-.22,0-.3-.04-.31-.04,0-.02,0-.07,0-.11,0-.59.35-1.98.69-3.32.5-1.94,1.05-4.16,1.05-5.73,0-3.14-1.49-5.55-4.22-6.87,5.42-1.42,8.75-5.47,8.75-10.75,0-3.99-1.63-8.75-9.39-8.75h-18.87l-.65,2.81h3.05l-8.24,34.33h-2.88l-.64,2.81h17.42l.65-2.81h-3.1l3.87-16.49h1.2c1.75,0,2.39.34,2.39,2.26,0,1.06-.56,3.52-1.06,5.69-.52,2.26-.97,4.22-.97,5.21,0,4.19,2.58,6.58,7.08,6.58,3.02,0,5.63-1.3,8.21-4.11l.47-.52ZM432.09,3.57h.55c2.23,0,3,.79,3,3.12,0,3.86-1.9,8.93-3.13,10.35-.95,1.1-1.89,1.47-4.04,1.55l3.62-15.01Z"/>
      <path class="cls-3" d="M483.64,37.9l8.24-34.33h2.89l1.03-2.81h-14.37l-11.19,22.94-.43-22.94h-13.71l-1.02,2.81h3.49l-5.81,24.26c-1.63,6.88-3.18,9.61-5.71,10.08l-.47.08-.87,2.71h11.7l1.03-2.81h-1.21c-1.98,0-2.94-.95-2.94-2.91,0-.69.09-1.95.87-5.15l4.46-18.88.68,29.74h4.74l14.5-29.72-6.9,26.92h-2.48l-1.03,2.81h17.03l1.03-2.81h-3.54Z"/>
      <path class="cls-3" d="M521.11,37.9l-3.42-36.88-.02-.25h-4.99l-14.88,28.4c-2.9,5.63-4.5,8.74-8.01,8.74h-.64l-.64,2.81h13.18l.64-2.81h-1.04c-1.14,0-3.05-.3-3.05-2.31,0-.77.23-1.65,1.4-3.9l.99-1.88h8.76l.66,8.09h-2.52l-.64,2.81h16.62l.64-2.81h-3.04ZM509.2,27h-7.08l6.15-11.69.93,11.69Z"/>
    </g>
  </g>
</svg>