<svg width="384" height="39" viewBox="0 0 384 39" fill="none" xmlns="http://www.w3.org/2000/svg">
<g clip-path="url(#clip0_125_252)">
<path d="M201.537 28.1413V0.295658L201.801 0H208.638V39H200.673L184.072 11.45L183.305 10.8587V39H176.348V0H184.072L201.033 27.8187L201.537 28.1413Z" fill="#E94D34"/>
<path d="M29.0033 0V5.53687L28.7394 5.83253H6.95696V17.4707H27.0842V23.0882H7.19685L6.95696 23.3839V39H0V0H29.0033Z" fill="#E94D34"/>
<path d="M384 0H376.875V39H384V0Z" fill="#E94D34"/>
<path d="M138.443 23.4914V17.2019L57.9586 17.2019V23.4914L138.443 23.4914Z" fill="#E94D34"/>
<path d="M326.33 23.4914V17.2019L245.845 17.2019V23.4914L326.33 23.4914Z" fill="#E94D34"/>
</g>
<defs>
<clipPath id="clip0_125_252">
<rect width="384" height="39" fill="white"/>
</clipPath>
</defs>
</svg>
