<svg width="34" height="34" viewBox="0 0 34 34" fill="none" xmlns="http://www.w3.org/2000/svg">
<path d="M25.8573 6.27661C24.7968 6.27661 23.9375 7.15247 23.9375 8.23331C23.9375 9.31415 24.7968 10.19 25.8573 10.19C26.9178 10.19 27.7771 9.31415 27.7771 8.23331C27.7771 7.15247 26.9178 6.27661 25.8573 6.27661Z" fill="white"/>
<path d="M17.3229 8.78491C12.8763 8.78491 9.25977 12.471 9.25977 17.0031C9.25977 21.5351 12.8763 25.2212 17.3229 25.2212C21.7695 25.2212 25.3861 21.5351 25.3861 17.0031C25.3861 12.471 21.7695 8.78491 17.3229 8.78491ZM17.3229 22.2694C14.4743 22.2694 12.1559 19.9064 12.1559 17.0031C12.1559 14.0997 14.4743 11.7405 17.3229 11.7405C20.1715 11.7405 22.4862 14.1034 22.4862 17.0031C22.4862 19.9027 20.1679 22.2694 17.3229 22.2694Z" fill="white"/>
<path d="M23.726 33.689H10.6531C5.23011 33.689 0.816406 29.1942 0.816406 23.6632V10.3428C0.816406 4.81556 5.22645 0.317017 10.6531 0.317017H23.726C29.1489 0.317017 33.5627 4.81183 33.5627 10.3428V23.667C33.5627 29.1942 29.1489 33.6927 23.726 33.6927V33.689ZM10.6531 3.45519C6.92684 3.45519 3.89905 6.54491 3.89905 10.339V23.6632C3.89905 27.4611 6.9305 30.5471 10.6531 30.5471H23.726C27.4522 30.5471 30.48 27.4574 30.48 23.6632V10.3428C30.48 6.54491 27.4486 3.45892 23.726 3.45892H10.6531V3.45519Z" fill="white"/>
</svg>
