<svg width="175" height="66" viewBox="0 0 175 66" fill="none" xmlns="http://www.w3.org/2000/svg">
<path d="M38.5446 0.973127V3.57979H27.432V8.39868H37.5671V11.0053H27.432V15.9443L27.5521 16.0643H38.5446V18.5852H23.9336V0.973127H38.5446Z" fill="#F7F7F7"/>
<path d="M152.603 18.5852H149.139L147.133 14.418H138.284L136.329 18.5852H132.796L140.685 1.00743L144.595 0.973127L144.818 1.05887L152.603 18.5852ZM139.416 11.7428H145.967L142.794 4.3172L142.605 4.36865L139.416 11.7599V11.7428Z" fill="#F7F7F7"/>
<path d="M61.8675 5.8778H58.3691C58.0776 2.96245 54.2876 2.73952 52.0925 3.44263C49.8975 4.14574 49.5202 6.13503 51.5095 7.31832C54.4934 9.10182 62.6564 8.84459 62.3134 13.9207C61.9704 19.0826 54.4077 19.5628 50.6349 18.4309C48.2511 17.7107 46.4676 16.0301 46.3647 13.4405H49.8289C50.0175 13.8864 50.0518 14.298 50.309 14.761C51.5952 17.0247 57.323 17.0761 58.4891 14.8811C59.278 13.4234 58.4034 12.4287 57.1172 11.8285C54.2876 10.508 47.1022 10.2508 46.742 6.20363C46.399 2.34509 50.2747 0.853117 53.4816 0.664477C57.1172 0.458688 61.7303 1.43619 61.8675 5.86065V5.8778Z" fill="#F7F7F7"/>
<path d="M108.599 0.973127L115.15 15.3098L121.443 0.973127H124.959L117.087 18.5852L112.972 18.5681L105.203 0.973127H108.599Z" fill="#F7F7F7"/>
<path d="M16.0966 3.57979H5.00115V8.9303H15.1363V11.4512H5.00115V18.5852H1.41699V1.09317L1.53704 0.973127H15.9937L16.0966 1.09317V3.57979Z" fill="#F7F7F7"/>
<path d="M86.0304 0.973127V3.57979H79.9253V18.5852H76.3411V3.57979H70.1675V0.973127H86.0304Z" fill="#F7F7F7"/>
<path d="M163.939 16.0643H174.606V18.5852H160.44V0.973127H163.836L163.939 1.09317V16.0643Z" fill="#F7F7F7"/>
<path d="M97.3661 0.973127H93.8677V18.5852H97.3661V0.973127Z" fill="#F7F7F7"/>
<path d="M5.44702 24.0386C8.01938 27.88 10.5574 31.7556 13.2156 35.5456C13.4385 35.8714 13.6957 36.283 13.9358 36.5917C14.0044 36.6774 13.9358 36.7975 14.1931 36.7289V24.0386H17.7429V41.685H13.9187L5.20693 29.0804L4.89825 28.8917V41.685H1.51988L1.34839 41.5135V24.0386H5.44702Z" fill="#F7F7F7"/>
<path d="M153.581 36.7118V24.0215H157.131V41.4964L156.959 41.6679H153.306C153.306 41.6679 153.083 41.5307 153.032 41.4793L144.715 29.2863L144.286 28.8747V41.4964L144.114 41.6679H140.908L140.736 41.4964V24.0215H144.663L153.203 36.4717L153.581 36.6947V36.7118Z" fill="#F7F7F7"/>
<path d="M50.8921 24.0386C53.533 24.2958 56.0025 25.7706 56.2597 28.6174C56.517 31.4641 54.9735 33.642 52.0582 34.1908L56.1568 41.685H52.6756L48.5769 34.5166H44.2039V41.685H40.8255L40.6541 41.5135V24.0386H50.8921ZM44.3583 26.5766L44.1868 26.7481V31.8242L44.3583 31.9957H49.2286C49.4344 31.9957 50.2404 31.8928 50.5148 31.8414C53.3444 31.3269 53.4987 27.6056 50.9607 26.8682C50.6177 26.7653 49.7774 26.5938 49.4687 26.5938H44.3754L44.3583 26.5766Z" fill="#F7F7F7"/>
<path d="M68.933 24.0386C71.2824 24.2443 73.7005 25.4448 74.2492 27.8971C74.9523 31.0011 73.3575 33.6249 70.2021 34.1908L74.2492 41.462L74.1292 41.685H70.8023L66.7036 34.5166H62.3306V41.5135L62.1591 41.685H58.9522L58.7808 41.5135V24.0386H68.9159H68.933ZM62.3478 26.5766V31.8071L62.5193 31.9786H67.2867C67.6811 31.9786 68.7101 31.8414 69.1217 31.7042C71.3853 30.9668 71.4539 27.6913 69.2932 26.9025C68.9502 26.7824 67.9555 26.5766 67.6297 26.5766H62.3649H62.3478Z" fill="#F7F7F7"/>
<path d="M138.558 32.8361C138.558 37.998 134.357 42.1823 129.178 42.1823C123.999 42.1823 119.797 37.998 119.797 32.8361C119.797 27.6742 123.999 23.4898 129.178 23.4898C134.357 23.4898 138.558 27.6742 138.558 32.8361ZM128.526 26.268C120.86 27.0225 121.975 41.4792 130.841 39.1641C136.912 37.5864 136.295 25.4963 128.526 26.268Z" fill="#F7F7F7"/>
<path d="M174.949 24.0386V26.5766H163.922L163.767 26.731V31.4298H173.885L174.057 31.5842V33.8993L173.885 34.0708H163.767V39.0269H174.949V41.5135L174.777 41.685H160.389L160.218 41.5135V24.0386H174.949Z" fill="#F7F7F7"/>
<path d="M91.2953 41.685L89.3746 37.5693L80.3542 37.5007L78.3477 41.7022H74.8665L82.7207 24.1072C82.8922 24.0043 86.2363 24.0043 86.665 24.0386C86.7851 24.0386 86.9051 24.0386 86.9909 24.1587L94.6222 41.7022H91.2953V41.685ZM81.5031 34.8425H88.0369L84.7786 27.3484L81.5031 34.8425Z" fill="#F7F7F7"/>
<path d="M38.9906 41.685H35.6122L33.6915 37.5521L24.6711 37.5007L22.5446 41.6679H19.1663L27.072 24.0215C28.2896 24.1415 29.7815 23.8671 30.9648 24.0215C31.0849 24.0215 31.2049 24.0215 31.2907 24.1415L38.9906 41.685ZM25.8201 34.8426H32.3539L29.1985 27.3484L25.8201 34.8426Z" fill="#F7F7F7"/>
<path d="M111.617 24.0386V26.6281C108.324 30.4009 104.843 34.0023 101.482 37.7065C101.225 37.998 100.813 38.4267 100.59 38.7011C100.504 38.804 100.384 38.8383 100.419 39.0269H111.72V41.6679H96.4916L96.3201 41.4964V38.9583L107.33 27.1083L107.604 26.5595H96.423V24.0215H111.583L111.617 24.0386Z" fill="#F7F7F7"/>
<path d="M117.602 24.0386H114.052V41.685H117.602V24.0386Z" fill="#F7F7F7"/>
<path d="M20.3325 60.6176V47.9444H23.8823V65.4193L23.7108 65.5737H19.938L11.4664 53.192L11.0377 52.7805V65.4193L10.8662 65.5737H7.48779V47.9444H11.4149L20.0238 60.429L20.3325 60.6176Z" fill="#F7F7F7"/>
<path d="M26.969 47.9444H36.4353C39.8308 47.9444 43.0891 51.3914 43.7408 54.564C45.027 60.8234 41.2713 65.265 34.9948 65.5908C32.9883 65.6937 29.267 65.8138 27.3463 65.5908C27.1919 65.5737 27.0547 65.5908 26.969 65.4193V47.9444ZM30.5189 50.6368V62.7612L30.6903 62.9327H35.2349C35.7493 62.9327 37.1555 62.4183 37.6529 62.1439C41.4428 60.0345 41.3914 53.1749 37.4985 51.2027C35.9894 50.4482 32.611 50.2767 30.9133 50.4653C30.7589 50.4825 30.6217 50.4653 30.536 50.6368H30.5189Z" fill="#F7F7F7"/>
<path d="M114.772 65.5738H111.394L107.295 58.4054H102.922V65.4023L102.751 65.5738H99.3726V47.9274H109.508C110.537 47.9274 112.543 48.7162 113.366 49.385C115.596 51.2028 115.476 55.3358 113.143 57.0678C112.406 57.6166 111.617 57.8052 110.777 58.1311L114.755 65.5738H114.772ZM102.922 55.8674H107.844C108.067 55.8674 108.839 55.7473 109.13 55.713C110.211 55.5244 111.205 54.8727 111.343 53.7237C111.497 52.3175 111.103 51.2028 109.679 50.757C109.353 50.6541 108.479 50.4826 108.187 50.4826H102.922V55.8845V55.8674Z" fill="#F7F7F7"/>
<path d="M175 47.9444V50.4653H163.819V55.3185H174.005V57.9766H163.819V62.9327H175V65.4193L174.828 65.5737H160.44L160.269 65.4193V47.9444H175Z" fill="#F7F7F7"/>
<path d="M138.85 65.5737L136.929 61.4579L127.908 61.3893L125.902 65.5909H122.575L122.455 65.3679L130.206 48.0645C130.292 47.9445 130.412 47.9616 130.532 47.9445C131.287 47.8587 133.448 47.8587 134.202 47.9445C134.322 47.9445 134.442 47.9445 134.528 48.0645L142.159 65.5909H138.832L138.85 65.5737ZM135.591 58.7484L132.333 51.2542L129.057 58.7484H135.591Z" fill="#F7F7F7"/>
<path d="M80.5599 52.7805H77.0101C76.9758 49.4193 70.6992 49.3335 69.2587 51.2885C68.1783 52.7633 69.4645 53.9466 70.7678 54.5297C73.8718 55.9188 81.3145 56.056 80.9887 60.892C80.6114 66.3797 71.5738 66.8084 67.8525 64.8192C66.2233 63.9617 64.9886 62.2811 65.0572 60.3947H68.4355C68.7957 61.235 68.9157 61.8867 69.6531 62.4869C71.3852 63.8931 76.5985 63.8759 77.3531 61.3379C77.9361 59.3657 75.8096 58.6969 74.352 58.2511C71.0765 57.2221 64.7485 56.7248 65.4173 51.8887C65.7946 49.162 69.1043 47.8073 71.5395 47.6186C75.3638 47.3271 80.3713 48.0816 80.5599 52.7976V52.7805Z" fill="#F7F7F7"/>
<path d="M49.6743 47.9445V59.1429C49.6743 63.8417 57.3914 65.0421 58.8319 60.2061C58.8834 60.0175 59.0892 59.2629 59.0892 59.1429V47.9445H62.639C62.5018 51.34 62.8277 54.8727 62.639 58.2511C62.3303 63.9789 58.2146 66.637 52.6411 65.7624C49.3142 65.2479 46.1416 62.607 46.1416 59.0057V47.9274H49.6915L49.6743 47.9445Z" fill="#F7F7F7"/>
<path d="M97.3832 47.9444V50.4653H91.3638L91.1923 50.6368V65.5737H87.814L87.6425 65.4193V50.4653H81.4517V47.9444H97.3832Z" fill="#F7F7F7"/>
<path d="M147.544 47.9444V62.9327H158.177V65.5737H143.994V47.9444H147.544Z" fill="#F7F7F7"/>
<path d="M121.083 47.9444H117.43V65.5908H121.083V47.9444Z" fill="#F7F7F7"/>
<path d="M4.28082 47.9444H0.730957V65.5908H4.28082V47.9444Z" fill="#F7F7F7"/>
</svg>
