<svg width="168" height="63" viewBox="0 0 168 63" fill="none" xmlns="http://www.w3.org/2000/svg">
<path d="M36.6116 0.764587V3.26189H25.9115V7.87861H35.6704V10.3759H25.9115V15.1076L26.0271 15.2227H36.6116V17.6378H22.543V0.764587H36.6116Z" fill="#E94D34"/>
<path d="M146.435 17.6378H143.1L141.168 13.6454H132.647L130.765 17.6378H127.363L134.959 0.797447L138.724 0.764587L138.938 0.846735L146.435 17.6378ZM133.737 11.0824H140.045L136.99 3.96836L136.808 4.01765L133.737 11.0988V11.0824Z" fill="#E94D34"/>
<path d="M59.0679 5.46345H55.6993C55.4186 2.67041 51.7694 2.45682 49.6558 3.13044C47.5422 3.80405 47.1789 5.70989 49.0944 6.84353C51.9675 8.55221 59.8274 8.30577 59.4972 13.1689C59.1669 18.1143 51.885 18.5743 48.2522 17.4899C45.957 16.7999 44.2397 15.1898 44.1406 12.7089H47.4761C47.6578 13.1361 47.6908 13.5304 47.9385 13.974C49.1769 16.1427 54.6921 16.192 55.8149 14.089C56.5745 12.6925 55.7324 11.7396 54.4939 11.1645C51.7694 9.89944 44.8507 9.653 44.5039 5.77561C44.1737 2.07894 47.9055 0.649566 50.9933 0.46884C54.4939 0.271685 58.9358 1.20817 59.0679 5.44701V5.46345Z" fill="#E94D34"/>
<path d="M104.064 0.764587L110.372 14.4998L116.432 0.764587H119.817L112.238 17.6378L108.275 17.6214L100.795 0.764587H104.064Z" fill="#E94D34"/>
<path d="M14.996 3.26189H4.31243V8.38793H14.0713V10.8031H4.31243V17.6378H0.861328V0.879595L0.976915 0.764587H14.8969L14.996 0.879595V3.26189Z" fill="#E94D34"/>
<path d="M82.3336 0.764587V3.26189H76.4551V17.6378H73.004V3.26189H67.0596V0.764587H82.3336Z" fill="#E94D34"/>
<path d="M157.35 15.2227H167.621V17.6378H153.981V0.764587H157.251L157.35 0.879595V15.2227Z" fill="#E94D34"/>
<path d="M93.2484 0.764587H89.8799V17.6378H93.2484V0.764587Z" fill="#E94D34"/>
<path d="M4.74237 22.8624C7.21923 26.5427 9.66307 30.2558 12.2225 33.8867C12.4372 34.1989 12.6848 34.5932 12.916 34.8889C12.9821 34.9711 12.916 35.0861 13.1637 35.0203V22.8624H16.5818V39.7685H12.8995L4.5112 27.6927L4.21397 27.512V39.7685H0.961023L0.795898 39.6042V22.8624H4.74237Z" fill="#E94D34"/>
<path d="M147.377 35.0039V22.846H150.795V39.5878L150.63 39.7521H147.112C147.112 39.7521 146.898 39.6207 146.848 39.5714L138.84 27.8899L138.427 27.4956V39.5878L138.262 39.7521H135.174L135.009 39.5878V22.846H138.79L147.013 34.7739L147.377 34.9875V35.0039Z" fill="#E94D34"/>
<path d="M48.5005 22.8624C51.0434 23.1089 53.4212 24.5218 53.6689 27.2491C53.9166 29.9765 52.4305 32.063 49.6233 32.5888L53.5698 39.7685H50.2178L46.2713 32.9009H42.0607V39.7685H38.8077L38.6426 39.6042V22.8624H48.5005ZM42.2093 25.294L42.0441 25.4583V30.3215L42.2093 30.4858H46.8988C47.0969 30.4858 47.873 30.3872 48.1372 30.3379C50.8618 29.845 51.0104 26.2798 48.5665 25.5733C48.2363 25.4747 47.4272 25.3104 47.13 25.3104H42.2258L42.2093 25.294Z" fill="#E94D34"/>
<path d="M65.8711 22.8624C68.1333 23.0596 70.4615 24.2097 70.9899 26.5591C71.6669 29.5329 70.1313 32.0466 67.093 32.5888L70.9899 39.5549L70.8743 39.7685H67.6709L63.7244 32.9009H59.5138V39.6042L59.3486 39.7685H56.2608L56.0957 39.6042V22.8624H65.8545H65.8711ZM59.5303 25.294V30.305L59.6954 30.4693H64.2859C64.6657 30.4693 65.6564 30.3379 66.0527 30.2065C68.2323 29.5 68.2984 26.3619 66.2178 25.6062C65.8876 25.4912 64.9299 25.294 64.6161 25.294H59.5468H59.5303Z" fill="#E94D34"/>
<path d="M132.912 31.2908C132.912 36.2361 128.867 40.245 123.88 40.245C118.893 40.245 114.848 36.2361 114.848 31.2908C114.848 26.3455 118.893 22.3367 123.88 22.3367C128.867 22.3367 132.912 26.3455 132.912 31.2908ZM123.252 24.9983C115.871 25.7212 116.945 39.5713 125.482 37.3533C131.327 35.8418 130.733 24.2589 123.252 24.9983Z" fill="#E94D34"/>
<path d="M167.951 22.8624V25.294H157.333L157.185 25.4419V29.9436H166.927L167.092 30.0915V32.3095L166.927 32.4738H157.185V37.2219H167.951V39.6042L167.786 39.7685H153.932L153.767 39.6042V22.8624H167.951Z" fill="#E94D34"/>
<path d="M87.4039 39.7685L85.5545 35.8254L76.8689 35.7597L74.937 39.7849H71.585L79.1477 22.9281C79.3128 22.8296 82.5327 22.8296 82.9455 22.8624C83.0611 22.8624 83.1767 22.8624 83.2592 22.9774L90.6073 39.7849H87.4039V39.7685ZM77.9753 33.2131H84.2665L81.1291 26.0333L77.9753 33.2131Z" fill="#E94D34"/>
<path d="M37.0405 39.7685H33.7876L31.9382 35.809L23.2526 35.7597L21.2051 39.7521H17.9521L25.5644 22.846C26.7368 22.961 28.1733 22.6981 29.3127 22.846C29.4283 22.846 29.5439 22.846 29.6264 22.961L37.0405 39.7685ZM24.359 33.2131H30.6502L27.6119 26.0333L24.359 33.2131Z" fill="#E94D34"/>
<path d="M106.971 22.8624V25.3433C103.801 28.9578 100.449 32.408 97.2124 35.9568C96.9647 36.2361 96.5685 36.6469 96.3538 36.9098C96.2712 37.0083 96.1556 37.0412 96.1887 37.2219H107.07V39.7521H92.4073L92.2422 39.5878V37.1562L102.843 25.8033L103.107 25.2776H92.3413V22.846H106.938L106.971 22.8624Z" fill="#E94D34"/>
<path d="M112.734 22.8624H109.315V39.7685H112.734V22.8624Z" fill="#E94D34"/>
<path d="M19.0748 57.9068V45.7653H22.4929V62.5071L22.3278 62.655H18.6951L10.5379 50.7928L10.1251 50.3985V62.5071L9.95998 62.655H6.70703V45.7653H10.4884L18.7776 57.7261L19.0748 57.9068Z" fill="#E94D34"/>
<path d="M25.4648 45.7653H34.5797C37.8492 45.7653 40.9865 49.0677 41.614 52.1072C42.8524 58.104 39.2362 62.3592 33.1927 62.6714C31.2607 62.77 27.6775 62.885 25.8281 62.6714C25.6795 62.655 25.5474 62.6714 25.4648 62.5071V45.7653ZM28.8829 48.3448V59.9605L29.048 60.1248H33.4238C33.9192 60.1248 35.2732 59.6319 35.7521 59.369C39.4013 57.3482 39.3518 50.7764 35.6035 48.8869C34.1504 48.164 30.8974 47.9997 29.2627 48.1805C29.1141 48.1969 28.982 48.1805 28.8994 48.3448H28.8829Z" fill="#E94D34"/>
<path d="M110.009 62.6549H106.756L102.809 55.7873H98.5987V62.4906L98.4336 62.6549H95.1807V45.7488H104.94C105.93 45.7488 107.862 46.5046 108.655 47.1454C110.801 48.8869 110.686 52.8464 108.44 54.5058C107.73 55.0316 106.971 55.2123 106.161 55.5245L109.992 62.6549H110.009ZM98.5987 53.3558H103.338C103.552 53.3558 104.296 53.2407 104.576 53.2079C105.617 53.0272 106.574 52.4028 106.706 51.3021C106.855 49.9548 106.475 48.8869 105.105 48.4597C104.791 48.3611 103.949 48.1969 103.668 48.1969H98.5987V53.3722V53.3558Z" fill="#E94D34"/>
<path d="M168.001 45.7653V48.1805H157.234V52.8301H167.043V55.3766H157.234V60.1248H168.001V62.5071L167.835 62.655H153.982L153.816 62.5071V45.7653H168.001Z" fill="#E94D34"/>
<path d="M133.192 62.6549L131.343 58.7118L122.657 58.6461L120.725 62.6714H117.522L117.406 62.4578L124.87 45.8803C124.952 45.7653 125.068 45.7817 125.184 45.7653C125.91 45.6831 127.991 45.6831 128.717 45.7653C128.833 45.7653 128.948 45.7653 129.031 45.8803L136.379 62.6714H133.176L133.192 62.6549ZM130.055 56.1159L126.917 48.9362L123.764 56.1159H130.055Z" fill="#E94D34"/>
<path d="M77.0666 50.3984H73.6485C73.6155 47.1782 67.5719 47.0961 66.1849 48.9691C65.1446 50.382 66.383 51.5157 67.638 52.0743C70.6267 53.4051 77.7931 53.5365 77.4794 58.1697C77.1161 63.4271 68.4141 63.8379 64.8309 61.932C63.2622 61.1106 62.0733 59.5005 62.1393 57.6932H65.3923C65.7391 58.4982 65.8546 59.1226 66.5647 59.6976C68.2324 61.0448 73.2522 61.0284 73.9788 58.5968C74.5402 56.7074 72.4926 56.0667 71.0891 55.6395C67.9352 54.6537 61.8421 54.1773 62.4861 49.5441C62.8494 46.9318 66.0363 45.6339 68.381 45.4531C72.0633 45.1738 76.8849 45.8967 77.0666 50.4149V50.3984Z" fill="#E94D34"/>
<path d="M47.3273 45.7653V56.4938C47.3273 60.9955 54.7579 62.1456 56.145 57.5124C56.1945 57.3317 56.3927 56.6088 56.3927 56.4938V45.7653H59.8107C59.6786 49.0183 59.9924 52.4028 59.8107 55.6395C59.5135 61.127 55.5505 63.6736 50.184 62.8356C46.9806 62.3428 43.9258 59.8126 43.9258 56.3624V45.7488H47.3439L47.3273 45.7653Z" fill="#E94D34"/>
<path d="M93.2649 45.7653V48.1805H87.469L87.3039 48.3448V62.655H84.0509L83.8858 62.5071V48.1805H77.9248V45.7653H93.2649Z" fill="#E94D34"/>
<path d="M141.565 45.7653V60.1248H151.802V62.655H138.146V45.7653H141.565Z" fill="#E94D34"/>
<path d="M116.086 45.7653H112.568V62.6714H116.086V45.7653Z" fill="#E94D34"/>
<path d="M3.61924 45.7653H0.201172V62.6714H3.61924V45.7653Z" fill="#E94D34"/>
</svg>
