<?xml version="1.0" encoding="UTF-8"?>
<svg width="42" height="32" id="Livello_1" xmlns="http://www.w3.org/2000/svg" version="1.1" viewBox="0 0 42 32">
  <defs>
    <style>
      .st0 {
        fill: #fff;
      }
    </style>
  </defs>
  <path class="st0" d="M38.2.3H1.8C1.1.3.6.9.6,1.6v26.9c0,.7.6,1.2,1.2,1.2h36.4c.7,0,1.2-.6,1.2-1.2V1.6c0-.7-.6-1.2-1.2-1.2ZM37,4.4v21.2l-11.2-10.6,11.2-10.6ZM16,16.7l1.8,1.7c1.2,1.1,3.1,1.1,4.3,0l1.8-1.7,11.1,10.5H4.9l11.1-10.5ZM19.5,16.6L4.9,2.8h30.2l-14.6,13.8c-.3.3-.7.3-1,0ZM14.2,15L3,25.6V4.4l11.2,10.6Z"/>
</svg>