<?xml version="1.0" encoding="UTF-8"?>
<svg id="Livello_2" data-name="Livello 2" xmlns="http://www.w3.org/2000/svg" viewBox="0 0 875.45 243.61">
  <defs>
    <style>
      .cls-1 {
        fill: #fff;
      }
    </style>
  </defs>
  <g id="Livello_1-2" data-name="Livello 1">
    <g>
      <polygon class="cls-1" points="204.7 170.04 213.1 170.04 213.46 240.71 205.05 240.71 204.7 170.04"/>
      <polygon class="cls-1" points="234.75 188.05 235.01 240.72 226.61 240.72 226.24 166.68 277.14 222.24 276.88 170.04 285.28 170.04 285.65 243.61 234.75 188.05"/>
      <path class="cls-1" d="M360.21,205.09v2.81c.11,19.4-12.88,34.29-31.75,34.29s-34.16-17.06-34.26-36.64c-.1-20.34,15.38-37.01,34.78-37.01,10.49,0,20.88,4.96,27.54,13.67l-5.87,5.9c-4.86-6.93-13.02-11.53-21.25-11.53-15.13,0-26.87,12.85-26.79,28.69.07,14.8,11.77,28.86,26.35,28.86,10.47,0,21.69-9.46,21.99-20.99h-17.45l-.04-8.07h26.76Z"/>
      <path class="cls-1" d="M411.98,240.71h-10.21l-20-29.91h-3.48l.15,29.91h-8.4l-.36-70.67h10.19c5.98,0,12.44.1,17.82,3.29,5.64,3.46,8.91,10.13,8.94,16.86.05,10.13-6.36,18.57-16.09,19.77l21.44,30.75ZM378.25,203.5h2.68c8.6,0,17.88-1.69,17.82-12.95-.06-11.04-10.08-12.63-18.38-12.63h-2.24l.13,25.58Z"/>
      <path class="cls-1" d="M432.87,214.93h23.96l-12.13-28.59-11.84,28.59ZM468.14,240.71l-7.8-17.71h-30.93l-7.6,17.71h-9.03l31.84-73.67,32.56,73.67h-9.03Z"/>
      <polygon class="cls-1" points="491.46 188.05 491.73 240.72 483.32 240.72 482.95 166.68 533.86 222.24 533.59 170.04 541.99 170.04 542.37 243.61 491.46 188.05"/>
      <path class="cls-1" d="M568.6,214.93h23.95l-12.11-28.59-11.84,28.59ZM603.87,240.71l-7.8-17.71h-30.93l-7.6,17.71h-9.03l31.84-73.67,32.56,73.67h-9.03Z"/>
      <path class="cls-1" d="M681.13,205.09v2.81c.11,19.4-12.88,34.29-31.75,34.29s-34.16-17.06-34.26-36.64c-.1-20.34,15.38-37.01,34.78-37.01,10.47,0,20.88,4.96,27.54,13.67l-5.87,5.9c-4.88-6.93-13.02-11.53-21.25-11.53-15.11,0-26.85,12.85-26.77,28.69.07,14.8,11.75,28.86,26.33,28.86,10.47,0,21.69-9.46,21.99-20.99h-17.43l-.04-8.07h26.74Z"/>
      <path class="cls-1" d="M752.22,205.09v2.81c.11,19.4-12.88,34.29-31.75,34.29s-34.16-17.06-34.26-36.64c-.1-20.34,15.38-37.01,34.8-37.01,10.47,0,20.86,4.96,27.52,13.67l-5.87,5.9c-4.86-6.93-13.02-11.53-21.25-11.53-15.13,0-26.85,12.85-26.77,28.69.07,14.8,11.75,28.86,26.33,28.86,10.47,0,21.69-9.46,21.99-20.99h-17.45l-.04-8.07h26.76Z"/>
      <polygon class="cls-1" points="761.42 170.04 769.82 170.04 770.18 240.71 761.78 240.71 761.42 170.04"/>
      <path class="cls-1" d="M243.19,88.46h23.36l-11.69-42.93h-.28l-11.39,42.93ZM281.42,138.75l-7.14-23.45h-38.68l-7.32,23.45h-29.81L239.34,3.79h30.65l41.35,134.95h-29.93Z"/>
      <polygon class="cls-1" points="401.71 138.75 349.86 56.07 349.59 56.07 350.01 138.75 321.95 138.75 321.27 3.79 349.32 3.79 401.17 86.31 401.45 86.31 401.03 3.79 429.11 3.79 429.79 138.75 401.71 138.75"/>
      <polygon class="cls-1" points="449.97 138.75 449.29 3.81 510.73 3.81 510.88 33.5 477.51 33.5 477.63 56.07 509.27 56.07 509.42 85.76 477.78 85.76 477.89 109.06 511.26 109.06 511.41 138.75 449.97 138.75"/>
      <path class="cls-1" d="M529.9,3.79h42.97c23.2,0,39.32,13.44,39.48,44.39.16,31.87-13.52,45.82-38.02,45.82h-15.9l.23,44.74h-28.08l-.68-134.95ZM558.29,65.73h4.72c10.17,0,20.21,0,20.12-16.47-.09-17-9.41-17.18-20.29-17.18h-4.72l.17,33.65Z"/>
      <path class="cls-1" d="M651.49,88.46h23.36l-11.69-42.93h-.28l-11.39,42.93ZM689.7,138.75l-7.12-23.45h-38.68l-7.34,23.45h-29.79L647.64,3.79h30.63l41.37,134.95h-29.95Z"/>
      <path class="cls-1" d="M820.04,138.75h-34.96l-26.75-51.9h-.3l.26,51.9h-28.08l-.68-134.94h41.97c21.35,0,37.59,12.69,37.73,41.52.09,18.61-8.13,34.73-23.42,38.11l34.22,55.31ZM757.92,64.3h2.72c9.17,0,19.49-2.14,19.41-16.82-.07-14.68-10.41-16.82-19.58-16.82h-2.72l.17,33.65Z"/>
      <polygon class="cls-1" points="828.79 3.82 856.85 3.82 857.53 138.75 829.48 138.75 828.79 3.82"/>
      <path class="cls-1" d="M804.48,216.2c-.58-1.18-1.74-2.09-3.08-2.09s-2.49,1-2.49,2.34c.01,2.11,2.77,3.01,5.59,4.29,2.82,1.28,5.52,3.01,5.54,6.79.02,4.56-3.74,7.93-8.18,7.93-3.46,0-6.99-1.99-8.29-5.37l3.93-1.79c.97,1.79,2.16,3.07,4.34,3.07,1.95,0,3.63-1.34,3.62-3.36,0-1.28-.62-1.89-1.71-2.62l-4.5-2.4c-2.66-1.44-4.62-2.75-4.63-6.02-.02-3.88,3.13-6.95,7.01-6.95,2.91,0,5.28,1.57,6.55,4.19l-3.71,1.99Z"/>
      <path class="cls-1" d="M821.78,232.49c0,1.63-1.32,2.97-2.94,2.97s-2.98-1.34-2.99-2.97c0-1.57,1.3-2.95,2.96-2.95s2.96,1.38,2.97,2.95"/>
      <path class="cls-1" d="M834.14,214.62h.16c1.11-2.81,3.46-4.6,6.51-4.6,1.34,0,2.66.45,3.8,1.18l-2.08,4.19c-.81-.71-1.76-.98-2.82-.98-4.96,0-5.54,4.6-5.53,8.48l.06,11.75h-4.6l-.12-23.89h4.6l.02,3.88Z"/>
      <path class="cls-1" d="M849.36,232.49c0,1.63-1.3,2.97-2.96,2.97s-2.96-1.34-2.97-2.97c0-1.57,1.3-2.95,2.94-2.95s2.98,1.38,2.99,2.95"/>
      <polygon class="cls-1" points="856.89 190.3 861.49 190.3 861.72 234.65 857.11 234.65 856.89 190.3"/>
      <path class="cls-1" d="M875.45,232.49c0,1.63-1.3,2.97-2.96,2.97s-2.96-1.34-2.97-2.97c0-1.57,1.3-2.95,2.94-2.95s2.98,1.38,2.99,2.95"/>
      <g>
        <polygon class="cls-1" points="3.11 117.5 7.64 99.4 16.91 100.54 16.57 117.32 22.44 118.6 29.92 103.92 39.18 107.3 36.07 125.58 41.75 128.93 52.99 114.88 61.72 120.84 53.39 138.79 58.94 143.41 74.35 135.66 79.15 142.98 83.28 137.45 77.15 131.76 63.83 135.6 58.97 127.86 67.29 118.89 62.45 111.65 50.64 113.15 47.26 104.02 56.79 96.01 54.28 89.95 41.01 88.98 40.08 80.52 55.11 75.03 54.84 68.13 40.32 65.51 41.4 56.8 56.5 55.1 56.84 48.94 43.84 42.24 45.95 35.43 60.57 34.92 62.83 30.04 50.61 21.46 54.01 14.26 67.91 16.3 72.13 10.5 62.03 0 .02 0 .61 117.41 3.11 117.5"/>
        <path class="cls-1" d="M162.98,139.67c8.56,0,16.74-1.59,24.28-4.46l-.17-33.64c-6.28,4.85-14.16,7.74-22.73,7.74-20.68,0-37.53-16.76-37.63-37.42-.1-20.68,16.57-37.44,37.25-37.44,8.57,0,16.47,2.89,22.81,7.74l-.18-35c-7.57-2.87-15.77-4.46-24.33-4.46-37.82,0-68.32,30.65-68.12,68.47.19,37.82,31,68.47,68.82,68.47Z"/>
        <polygon class="cls-1" points="185.72 170.68 183.85 185.14 173.98 186.32 169.48 172.92 163.25 173.14 159.03 187.68 148.84 187.46 145.2 172.59 138.25 171.15 130.3 182.72 122.51 179.87 123.18 166.88 116 164.09 106.08 174.79 96.74 168.89 102.44 155.72 95.09 148.9 82.5 157.77 74.02 149.92 67.53 157.32 72.09 163.66 87.23 161.65 90.7 170.6 76.04 178.79 77.71 186.56 93.21 189.14 92.45 197.34 74.95 203.66 73.65 211.25 87.76 220.28 84.24 228.66 68.41 225.97 63.92 232.21 71.42 240.46 187.8 240.46 187.44 170.03 185.72 170.68"/>
        <path class="cls-1" d="M31.53,189.92c-.08-15.19-12.46-27.51-27.65-27.51-1.03,0-2.05.06-3.05.17l.28,54.67c1,.11,2.02.17,3.05.17,15.19,0,27.44-12.32,27.37-27.51Z"/>
      </g>
    </g>
  </g>
</svg>