<?xml version="1.0" encoding="UTF-8"?>
<svg id="Livello_2" data-name="Livello 2" xmlns="http://www.w3.org/2000/svg" viewBox="0 0 928.99 194.51">
  <defs>
    <style>
      .cls-1 {
        fill: #fff;
      }
    </style>
  </defs>
  <g id="Livello_1-2" data-name="Livello 1">
    <g>
      <polygon class="cls-1" points="119.16 193.94 169.16 143.47 169.49 143.09 169.76 142.68 169.96 142.21 170.11 141.74 170.19 141.25 170.19 140.73 170.14 140.22 170 139.73 169.81 139.28 169.55 138.83 169.25 138.43 168.87 138.1 168.48 137.8 168.03 137.55 167.55 137.39 167.06 137.29 166.55 137.25 72.3 137.25 71.44 137.29 70.61 137.39 69.77 137.55 68.94 137.78 68.16 138.1 67.37 138.43 66.6 138.86 65.92 139.34 65.25 139.85 64.63 140.46 13.08 192.46 12.12 192.28 11.15 192.05 10.23 191.71 9.3 191.34 8.41 190.89 7.58 190.4 6.77 189.8 6 189.23 5.25 188.53 4.58 187.84 3.95 187.09 3.35 186.28 2.84 185.44 2.34 184.57 1.94 183.67 1.58 182.74 53.11 130.74 53.71 130.11 54.22 129.42 54.69 128.71 55.12 127.98 55.45 127.2 55.76 126.37 55.97 125.56 56.14 124.72 56.22 123.89 56.27 123.03 56.06 80.66 56.08 79.9 56.17 79.15 56.32 78.4 56.56 77.67 56.85 76.97 57.22 76.28 57.61 75.65 58.06 75.02 58.57 74.49 59.13 73.95 59.72 73.48 60.37 73.07 61.04 72.73 61.74 72.44 62.47 72.2 63.2 72.05 63.96 71.95 64.71 71.93 109.18 71.93 110.02 71.89 110.85 71.79 111.7 71.63 112.52 71.4 113.31 71.12 114.07 70.75 114.82 70.31 115.52 69.86 116.19 69.35 116.82 68.76 163.41 22.25 163.72 21.87 164.02 21.44 164.23 20.99 164.36 20.52 164.44 20.02 164.46 19.51 164.4 19.02 164.26 18.53 164.08 18.04 163.84 17.62 163.5 17.19 163.15 16.86 162.75 16.56 162.28 16.34 161.82 16.15 161.33 16.05 160.82 16.01 64.53 16.01 63.48 16.05 62.44 16.15 61.42 16.31 60.42 16.56 59.42 16.88 58.43 17.25 57.47 17.66 56.57 18.17 55.69 18.71 54.84 19.34 54.04 19.98 53.28 20.71 .07 74.45 0 60.48 .03 59.43 .13 58.39 .28 57.33 .51 56.33 .8 55.32 1.17 54.34 1.62 53.39 2.08 52.47 2.65 51.56 3.26 50.72 3.9 49.91 4.63 49.14 46.71 6.62 47.48 5.92 48.28 5.25 49.1 4.64 49.99 4.07 50.91 3.58 51.89 3.14 52.83 2.79 53.83 2.49 54.88 2.26 55.88 2.08 56.92 1.98 57.96 1.92 174.56 1.92 175.41 1.98 176.25 2.08 177.08 2.26 177.93 2.47 178.74 2.79 179.53 3.14 180.26 3.56 180.97 4.03 181.66 4.56 182.27 5.15 182.84 5.78 183.38 6.47 183.87 7.2 184.29 7.92 184.65 8.71 184.93 9.52 185.19 10.36 185.35 11.19 185.43 12.06 185.48 12.9 186.12 140.32 186.09 141.36 186.01 142.43 185.86 143.45 185.61 144.47 185.32 145.5 184.97 146.46 184.54 147.42 184.06 148.33 183.51 149.23 182.91 150.1 182.24 150.91 181.54 151.67 144.34 189.25 143.56 189.96 142.78 190.63 141.91 191.24 141.03 191.79 140.13 192.28 139.17 192.72 138.18 193.09 137.18 193.37 136.18 193.62 135.18 193.8 134.11 193.9 133.07 193.94 119.16 193.94"/>
      <path class="cls-1" d="M365.45,90.87h17.94l-9.2-44.47-8.75,44.47ZM393.14,131.29l-3.94-16.27h-29.32l-3.77,16.27h-32.41L357.5,1.94h32.94l35.11,129.35h-32.41Z"/>
      <path class="cls-1" d="M563.8,90.87h17.94l-9.2-44.51-8.75,44.51ZM591.49,131.29l-3.94-16.27h-29.32l-3.77,16.27h-32.41L555.85,1.94h32.94l35.11,129.35h-32.41Z"/>
      <path class="cls-1" d="M860.16,90.87h17.94l-9.2-44.47-8.75,44.47ZM887.85,131.29l-3.94-16.27h-29.32l-3.77,16.27h-32.41L852.21,1.94h32.94l35.11,129.35h-32.41Z"/>
      <polygon class="cls-1" points="228.24 194.04 228.12 169.68 244.75 169.68 244.77 174.15 233.69 174.15 233.72 180.09 241.61 180.09 241.63 184.32 233.74 184.32 233.79 194.04 228.24 194.04"/>
      <polygon class="cls-1" points="266.79 194.04 266.67 169.68 272.24 169.68 272.34 189.69 283.42 189.69 283.44 194.04 266.79 194.04"/>
      <polygon class="cls-1" points="348.81 169.69 354.32 169.69 354.44 194.05 348.93 194.05 348.81 169.69"/>
      <polygon class="cls-1" points="587.96 194.04 587.84 169.68 605.02 169.68 605.04 174.15 593.43 174.15 593.46 179.42 601.88 179.42 601.9 183.65 593.48 183.65 593.51 189.69 605.75 189.69 605.77 194.04 587.96 194.04"/>
      <polygon class="cls-1" points="742.31 194.04 742.19 169.68 759.36 169.68 759.38 174.15 747.78 174.15 747.8 179.42 756.18 179.42 756.21 183.65 747.82 183.65 747.85 189.69 760.07 189.69 760.1 194.04 742.31 194.04"/>
      <polygon class="cls-1" points="824.78 169.69 830.29 169.69 830.41 194.05 824.91 194.05 824.78 169.69"/>
      <path class="cls-1" d="M692.1,1.97c-16.76,0-56-.04-56-.04l.65,129.35h32.64l-.19-37.48s4.96.06,21.76.06c14.76,0,33.22-13.62,33.09-40.61l-.06-10.94c-.12-23.1-14.98-40.35-31.9-40.35M693.71,48.23c.03,6.57-5.11,11.88-11.51,11.88h-13.04l-.15-29.14h13.04c6.39,0,11.6,5.33,11.63,11.88l.03,5.37Z"/>
      <path class="cls-1" d="M792.35,1.97c-16.76,0-56-.04-56-.04l.65,129.35h32.64l-.19-37.48s4.96.06,21.76.06c14.76,0,33.22-13.62,33.09-40.61l-.06-10.94c-.12-23.1-14.98-40.35-31.9-40.35M793.98,48.23c.03,6.57-5.11,11.88-11.51,11.88h-13.04l-.15-29.14h13.04c6.39,0,11.6,5.33,11.63,11.88l.03,5.37Z"/>
      <path class="cls-1" d="M429.1,90.94h31.72c.03,5.08,3.49,14.01,12.56,14.01,4.55,0,11.22-2.38,11.88-8.48,2.24-20.54-52.62-20.92-54.02-55.56-1.19-29.47,15.57-40.91,41.6-40.91s40.9,17.57,41.01,40.18h-30.93c-.04-8.07-1.85-12.47-10.14-12.47-3.46,0-10.2,1.42-9.63,6.98,1.57,15.27,53.98,20.88,54.17,58.24.12,24.44-16.15,39.86-44.23,39.86s-43.89-18.89-44.01-41.87"/>
      <path class="cls-1" d="M229.16,35.12s-12.71,31.84.31,64.42c0,0,10.08,40,57.67,32.05,33.58-8.46,32.91-40.47,32.91-40.47h-30.95s-.5,13.08-13.04,13.08-19.52-12-19.65-38.19c-.13-26.21,8.47-36.73,19.8-36.73s12.65,10.82,12.65,10.82h30.95s.8-32.82-33.27-38.9c-34.07-6.1-50.53,14.36-57.34,33.92"/>
      <path class="cls-1" d="M304.88,184.74l-.08-15.03h5.55l.08,14.89c.02,3.52,1.42,5.49,4.73,5.49s4.61-1.93,4.6-5.49l-.08-14.89h5.45l.08,14.99c.03,5.98-3.08,9.74-10.08,9.74s-10.21-3.76-10.24-9.7"/>
      <path class="cls-1" d="M913.51,19.95h-1.83l.03,5.57h-2.11l-.07-14.78h4.39c3.38,0,5.26,1.65,5.28,4.49.01,2.44-1.28,4.03-3.54,4.56l4.18,5.75h-2.36l-3.94-5.57-.02-.02ZM911.68,18.31h2.26c2.07,0,3.14-1.06,3.13-3.05,0-1.97-1.1-2.91-3.14-2.91h-2.28l.03,5.94v.02Z"/>
      <path class="cls-1" d="M914.11,33.32c-8.26,0-14.99-6.75-15.03-15.01s6.63-15.03,14.88-15.03,14.99,6.75,15.03,15.03c.04,8.28-6.65,15.01-14.88,15.01M913.97,5.23c-7.18,0-12.98,5.86-12.94,13.08.04,7.22,5.91,13.06,13.07,13.06s12.98-5.86,12.94-13.06c-.04-7.2-5.91-13.08-13.07-13.08"/>
      <path class="cls-1" d="M378.36,169.71h7.71c7.71,0,13.49,3.17,13.54,12.02.04,8.87-5.82,12.32-13.42,12.32h-7.71l-.12-24.34ZM386.55,189.7c5.49,0,7.54-2.36,7.52-7.91-.03-5.19-2.14-7.61-7.65-7.61h-2.52l.08,15.5h2.58v.02Z"/>
      <path class="cls-1" d="M449.92,169.69h9.17c5.39,0,10.28,1.38,10.31,7.81.03,6.41-5.25,7.89-10.29,7.89h-3.6l.04,8.64h-5.51l-.12-24.34ZM459.27,181.24c3.44,0,4.74-1.28,4.72-3.62-.01-2.34-1.28-3.56-4.76-3.56h-3.8l.04,7.16h3.8v.02Z"/>
      <path class="cls-1" d="M490.4,181.86c-.04-8.56,5.74-12.63,11.82-12.63s11.87,4.07,11.91,12.63-5.72,12.63-11.78,12.63-11.9-4.07-11.95-12.63M508.62,181.86c-.03-5.1-2.5-8.19-6.38-8.19s-6.3,3.09-6.27,8.19,2.44,8.3,6.36,8.3,6.32-3.23,6.29-8.3"/>
      <path class="cls-1" d="M534.83,169.7h5.59l2.73,11.1c.46,1.77.88,3.25,1.25,5.31h.06c.31-1.99.71-3.54,1.15-5.27l2.5-11.12h5.1l2.77,11.18c.48,1.93.88,3.07,1.23,5.21h.06c.34-2.18.63-3.19,1.1-5.16l2.5-11.25h5.12l-6.45,24.34h-4.74l-4.08-16.94h-.06l-4.18,16.94h-4.78l-6.85-24.34Z"/>
      <path class="cls-1" d="M628,169.71h9.48c6.18,0,9.93,2.12,9.95,7.52.02,3.86-1.84,5.96-5.22,6.95l5.66,9.86h-5.84l-5.3-9.19h-3.21l.05,9.19h-5.45l-.12-24.34v.02ZM637.3,180.7c3.21,0,4.74-.89,4.72-3.34-.01-2.48-1.55-3.31-4.76-3.31h-3.8l.03,6.65h3.8Z"/>
      <path class="cls-1" d="M698.39,169.71h7.71c7.71,0,13.49,3.17,13.54,12.02.05,8.87-5.82,12.32-13.42,12.32h-7.71l-.12-24.34ZM706.6,189.7c5.49,0,7.54-2.36,7.52-7.91-.03-5.19-2.14-7.61-7.65-7.61h-2.52l.08,15.5h2.58v.02Z"/>
      <path class="cls-1" d="M781.07,188.5l4.16-2.4c1.41,2.68,3.94,4.13,6.83,4.13,2.56,0,4.38-.92,4.37-2.79,0-1.87-1.82-2.64-5.11-3.52-4.51-1.22-9.22-2.34-9.25-7.44-.02-4.53,3.64-7.26,9.05-7.26s8.26,2.42,10.06,5l-3.84,2.85c-1.35-2.09-3.78-3.46-6.23-3.46s-3.64.98-3.63,2.42c0,1.95,1.88,2.64,5.19,3.52,4.43,1.16,9.14,2.5,9.17,7.54.02,3.92-3.03,7.4-10.06,7.4-5.45,0-8.85-2.48-10.75-5.98"/>
      <path class="cls-1" d="M853.22,181.78c-.04-7.63,4.34-12.53,11.41-12.53,4.78,0,8.59,1.83,10.23,7.79l-5.09,1.34c-1.08-3.38-2.68-4.7-5.16-4.7-2.05,0-5.86,1.16-5.82,8.01s3.45,8.52,6.16,8.52,4.65-1.67,5.15-4.37h-4.39l-.02-3.97h9.68l.06,12.2h-4.47l-.02-3.34h-.08c-.54,1.44-2.74,3.8-6.55,3.8-7.61,0-11.07-5.39-11.1-12.73"/>
      <polygon class="cls-1" points="915.17 194.04 904.1 178.38 904.02 178.38 904.1 194.04 898.98 194.04 898.86 169.68 904.41 169.68 915.03 185.23 915.13 185.23 915.05 169.68 920.15 169.68 920.27 194.04 915.17 194.04"/>
    </g>
  </g>
</svg>