<?xml version="1.0" encoding="UTF-8"?>
<svg id="Livello_2" data-name="Livello 2" xmlns="http://www.w3.org/2000/svg" viewBox="0 0 727.34 470.88">
  <defs>
    <style>
      .cls-1 {
        fill: none;
      }

      .cls-2 {
        fill: #e84d33;
      }

      .cls-3 {
        fill: #fff;
      }

      .cls-4 {
        fill: #f5f5f4;
      }
    </style>
  </defs>
  <g id="Livello_1-2" data-name="Livello 1">
    <g>
      <path class="cls-1" d="M55.99,195.65l-.23-45.55c0-1.16-.13-1.85-.25-2.22-.33,0-1.28.2-1.57.24-.1.43.42.71.42,1.99l.75,147.96c0,.77.05,1.34.09,1.75l.47.02c.87,0,1.24-.12,1.3-.14.1-.31-.45-.45-.46-1.61l-.29-58.16,39.42-22.13-39.64-22.14Z"/>
      <polygon class="cls-1" points="434.22 275.69 438.18 271.51 453.78 210.54 445.63 197.2 459.28 189.04 463.48 172.6 433.66 164.44 434.22 275.69"/>
      <path class="cls-1" d="M390.5,103.53l-22.92-41.08-27.24,45.41c5.61-2.91,12.36-4.33,19.8-4.33h30.36Z"/>
      <polygon class="cls-1" points="220.78 302.68 221.47 308.5 234.45 308.5 231.35 284.51 220.78 302.68"/>
      <path class="cls-1" d="M378.93,298.06c0,.77.05,1.34.09,1.75l.47.02c.87,0,1.24-.12,1.3-.14.1-.31-.45-.45-.46-1.61l-.75-147.98c0-.18,0-.33-.01-.48l-1.49-.41c.06.23.11.52.11.89l.75,147.96Z"/>
      <polygon class="cls-1" points="309.42 308.5 324.7 308.5 324.02 173.81 309.42 308.5"/>
      <path class="cls-1" d="M369.13,344.34h-7.77c-4.8,0-9.31-.59-13.43-1.78l-12.98,40.79c.63-.09,1.25-.13,1.83-.13,3.36,0,6.16.96,11.15,3.15l.32.14c1.16.57,3.59,1.75,5.61,3.8,3.73-1.63,7.15-2.42,10.55-2.42,5.17,0,9.87,1.77,13.54,5.12l.38.35c.65.63,1.29,1.32,1.86,2.05,1.84-.92,3.69-1.74,5.48-2.42l-32.93-31.33,16.4-17.29Z"/>
      <polygon class="cls-1" points="485.52 299.81 508.31 299.81 492.05 273.2 485.52 299.81"/>
      <polygon class="cls-1" points="522.75 148.05 521.88 151.61 527.83 148.05 522.75 148.05"/>
      <polygon class="cls-1" points="272.32 199.5 276.23 160.79 267.26 155.45 272.32 199.5"/>
      <polygon class="cls-1" points="557.3 148.05 530.83 148.05 549.38 179.02 557.3 148.05"/>
      <polygon class="cls-3" points="221.47 308.5 222.36 316.04 235.42 316.04 234.45 308.5 221.47 308.5"/>
      <path class="cls-3" d="M324.7,308.5h-15.28l-.82,7.55h16.64c-.34-2.25-.53-4.64-.54-7.18v-.37Z"/>
      <polygon class="cls-3" points="215.59 162.44 214.62 154.88 203.62 157.83 204.52 165.4 215.59 162.44"/>
      <path class="cls-3" d="M258.71,398.25h-12.22l-4.33-.16-4.17-.45-4.57-.61-3.88-.69-4.45-1.51-3.9-1-4.2-2.15-4.28-1.73-3.16-1.91-3.95-2.75-3.57-2.64-3.22-2.81-3.22-2.97-2.97-3.15-17.65-29.38h-3.67l-.86-7.55-16.5-27.46-1.2,12.68,33.81,56.26,3.72,3.92,3.48,3.27,3.54,3.07,3.91,2.89,4.25,2.95,3.87,2.34,4.57,1.85,4.64,2.36,4.41,1.16,4.75,1.61,4.61.79,4.82.67,4.55.47,4.72.18h8.09c2.69-2.65,5.7-5.16,8.97-7.5l-4.73-.05Z"/>
      <polygon class="cls-3" points="229.75 272.14 219.29 290.12 220.78 302.68 231.35 284.51 229.75 272.14"/>
      <path class="cls-3" d="M340.88,339.69l-14.97,47c.28.25.52.49.74.7l.34.35.34.37c2.28-3.16,5.1-4.41,7.63-4.78l12.98-40.79c-2.51-.73-4.87-1.68-7.05-2.86Z"/>
      <polygon class="cls-3" points="434.32 286.61 438.18 271.51 434.22 275.69 434.28 286.65 434.32 286.61"/>
      <polygon class="cls-3" points="584.93 259.03 585.97 262.85 586.37 267.51 587.02 272.02 587.04 275.66 586.67 280.53 586.18 284.86 585.57 289.03 584.69 293.28 583.59 297.52 582.34 299.81 590.83 299.81 592.08 295.05 593.04 290.36 593.69 285.88 594.2 281.29 594.6 275.98 594.6 271.49 593.9 266.67 593.45 261.58 592.28 257.25 591.16 252.33 589.46 247.86 587.53 243.65 587.09 242.63 584.02 255.12 584.93 259.03"/>
      <path class="cls-3" d="M541.85,374.43v.18s-2.28,3.36-2.28,3.36l-2.13,2.93-2.54,2.87-2.5,2.81-2.86,2.34-3.14,2.42-3.04,1.97-2.02,1.18c1.74-.99,3.51-1.9,5.29-2.71l.43-.2c5.11-2.29,10.15-3.73,14.82-4.27l1.47-1.68,2.42-3.29s2.36-3.46,3.66-7.91l-.91,3.62,18.29-33.72h-8.64l-16.33,30.09Z"/>
      <path class="cls-3" d="M394.27,390.71l-30.85-29.35,16.15-17.03h-10.45l-16.4,17.29,32.93,31.33c2.25-.86,4.4-1.52,6.3-1.9.82-.17,1.58-.28,2.31-.35Z"/>
      <path class="cls-3" d="M454.23,458.2v-.74c-.15.11-.29.22-.44.33l.44.42Z"/>
      <path class="cls-3" d="M516.55,397.03l-1.18.46c.09.2.21.4.29.6,1.56-1.1,3.19-2.14,4.84-3.12l-.58.34-3.38,1.71Z"/>
      <polygon class="cls-3" points="508.31 299.81 517.17 299.81 494.59 262.85 492.05 273.2 508.31 299.81"/>
      <polygon class="cls-3" points="527.45 157.09 546.75 189.3 549.38 179.02 530.83 148.05 527.83 148.05 521.88 151.61 519.34 161.94 527.45 157.09"/>
      <polygon class="cls-3" points="453.78 210.54 456.39 200.32 456.07 199.79 456.61 199.46 459.28 189.04 445.63 197.2 453.78 210.54"/>
      <path class="cls-3" d="M481.86,402.69c.2-.32.38-.61.57-.91l-1,.02c.15.3.3.59.43.89Z"/>
      <polygon class="cls-3" points="433.66 164.44 463.48 172.6 465.35 165.3 433.62 156.6 433.66 164.44"/>
      <polygon class="cls-3" points="276.23 160.79 277.07 152.49 266.17 146 267.26 155.45 276.23 160.79"/>
      <path class="cls-3" d="M379.35,147.88c-.35,0-1.3.2-1.59.24-.07.31.17.54.31,1.1l1.49.41c-.03-.86-.13-1.42-.21-1.74Z"/>
      <path class="cls-3" d="M340.34,107.86l27.24-45.41,22.92,41.08h6.67c.68,0,1.34.03,2.01.05l-31.37-56.26-36.72,61.21-.85,7.86c2.67-3.64,6.1-6.46,10.1-8.54Z"/>
      <polygon class="cls-3" points="268.96 50.98 270.6 48.05 273.06 44.29 275.1 40.54 277.62 36.99 280.09 33.73 283 30.19 285.52 27.33 289.29 24.13 292.03 21.37 295.97 19.03 299.54 16.22 302.87 14.31 307.25 12.58 311.41 10.94 315.52 9.53 319.69 8.56 323.95 7.56 412.18 8.17 412.47 8.29 416.19 8.56 420.11 9.07 423.8 9.92 427.34 10.94 431.03 12.34 434.52 13.97 437.83 15.59 441.01 17.71 444.17 19.97 447.02 22.28 449.76 25.03 452.43 27.67 454.81 30.7 456.97 33.83 459.01 37.17 460.57 40.42 482.6 79.38 515.88 61.29 504 103.53 511.88 103.53 528.03 46.06 485.51 69.18 467.29 36.99 465.7 33.59 463.32 29.77 460.92 26.25 458.09 22.69 455.12 19.68 452.05 16.69 448.74 13.99 445.32 11.53 441.61 9.05 437.76 7.16 433.95 5.39 429.72 3.78 425.64 2.62 421.42 1.63 416.93 1.06 413.64 .63 323.06 0 317.95 1.22 313.39 2.26 308.77 3.86 304.43 5.53 299.52 7.48 295.26 9.94 291.62 12.77 287.3 15.37 284.11 18.57 280.18 21.94 277.22 25.28 274.13 29.04 271.49 32.5 268.68 36.5 266.53 40.39 264.09 44.13 262.5 47 227.92 103.53 236.82 103.53 268.96 50.98"/>
      <polygon class="cls-4" points="156.35 283.72 155.38 294 155.57 294.3 156.3 295.3 167.82 313.93 164.37 283.72 156.35 283.72"/>
      <polygon class="cls-4" points="227.45 254.28 216.97 173.08 205.77 175.97 217.07 271.35 227.45 254.28"/>
      <polygon class="cls-2" points="434.28 286.77 434.32 286.61 434.28 286.65 434.28 286.77"/>
      <polygon class="cls-2" points="456.07 199.79 456.39 200.32 456.61 199.46 456.07 199.79"/>
      <path class="cls-4" d="M428.37,331.11c-6.29,8.97-17.01,13.22-29.98,13.22h-4.56l-15.74,15.89,41.26,39.99c.56-1.24,1.24-2.75,2.04-4.57l.14-.3c.88-1.93,1.85-4.17,2.98-6.69l6.01-13.32c.72-1.85,1.69-4.43,2.95-8.05,2.02-5.77,6.35-9.19,11.58-9.19,2.79,0,5.97,1.1,11.29,3.92,5.68,2.89,8.57,7.04,8.6,12.32.02,3.46-.97,7.14-3.61,13.28h.73c3.72,0,7.9,1.5,11.14,4.03l.14.1c.45.37.89.76,1.34,1.15l13.65.07c1.91-2.53,4.25-4.94,7.54-5.82-2.44-2.99-3.1-5.9-3.11-8.13-.03-5.19,4.27-12.16,6.81-15.84l.21-.29c2.66-3.48,6.39-5.47,10.22-5.47,2.54,0,5.2,1.04,6.72,1.93l4.44,2.64c4.14,2.4,8.88,5.17,8.91,11.55,0,1.26-.2,2.37-.54,3.42l1.46-1.9,1.64-2.73,1.48-2.93.45-1.1,12.63-23.94h-118.74l-.07-13.22Z"/>
      <path class="cls-4" d="M431.54,125.39l-.11-21.86h61.77l5.71-19.6-19.05,11.25-27-50.62-1.14-3.15-1.67-2.79-1.75-2.75-1.82-2.81-2.37-2.34-2.16-2.42-2.65-2.14-2.73-2.01-2.98-1.63-2.8-1.36-3.21-1.4-3.04-1.02-3.37-.61-3.29-.63-3.15-.26h-3.33l-1.4.16-48.85.33-1.63-.1,4.19,3.25,2.88,2.4,2.55,2.26,2.16,3.8,2.32,3.27,1.87,3.27,2.1,3.42,1.49,3.48,33.86,63.35c8.81,3.24,15.43,9.56,18.56,19.26Z"/>
      <polygon class="cls-4" points="469.76 148.05 442.35 148.05 467.84 155.58 469.76 148.05"/>
      <polygon class="cls-3" points="217.4 308.5 221.47 308.5 220.78 302.68 217.4 308.5"/>
      <polygon class="cls-3" points="492.05 273.2 486.49 264.09 475.85 307.37 512.92 307.37 508.31 299.81 485.52 299.81 492.05 273.2"/>
      <path class="cls-3" d="M361.31,336.78c-4.05,0-7.77-.46-11.1-1.39l-2.28,7.17c4.12,1.19,8.63,1.78,13.43,1.78h7.77l7.17-7.56h-14.98Z"/>
      <polygon class="cls-3" points="160.03 164.21 160.01 164.21 159.42 169.66 160.56 169.36 160.03 164.21"/>
      <path class="cls-3" d="M331.41,139c-.1-19.5,11.29-27.92,28.76-27.92h34.54l-4.21-7.55h-30.36c-7.44,0-14.19,1.42-19.8,4.33l-20.53,34.22-11.85,109.43-6.17,56.99h7.64l14.59-134.69.68,134.69h7.57l-.29-56.99-.57-112.5Z"/>
      <polygon class="cls-3" points="156 201.37 154.16 218.43 162 204.86 156 201.37"/>
      <polygon class="cls-3" points="218.58 126.43 215.15 124.39 217.77 120.12 216.6 111.08 223.29 111.08 227.92 103.53 207.99 103.53 214.62 154.88 222 152.9 218.58 126.43"/>
      <path class="cls-3" d="M143.75,336.78h-34.94l10.06-85.27,7.91-67.19-6.95-4.05,7.67-2.06,7.9-67.13h55.09l5.77,48.72,7.38-1.98-6.43-54.3h-68.57l-20.64,175.29-.71-139.81c-.12-24.3-15.33-35.48-36.34-35.48h-34.63C15.4,103.53-.12,114.6,0,139l.86,169.86c.12,24.4,15.76,35.48,36.66,35.48h34.63c14.95,0,24.38-4.31,29.63-12.67l-1.49,12.67h50.35l2.1-22.33-6.57-10.93-2.42,25.71ZM72.1,336.8h-34.61c-17.47,0-28.95-8.4-29.04-27.92l-.29-57.37-.57-112.5c-.1-19.5,11.29-27.9,28.76-27.9h34.61c17.47,0,28.65,8.4,28.75,27.9l.37,72.64-36.52-20.4-.21-41.12c-.03-6.61-2.47-9.6-8.49-9.6s-8.11,2.99-8.08,9.6l.51,101.39.24,46.57c.03,6.61,2.15,9.31,8.17,9.31s8.43-2.7,8.39-9.31l-.24-46.57-.04-7.14,36.32-20.42.43,84.94c-2.95,12.61-1.37,27.92-28.47,27.92ZM56.51,298.08c0,1.16.56,1.3.46,1.61-.06.02-.43.14-1.3.14l-.47-.02c-.04-.41-.08-.98-.09-1.75l-.75-147.96c0-1.28-.52-1.55-.42-1.99.29-.04,1.24-.24,1.57-.24.12.37.24,1.06.25,2.22l.23,45.55,39.64,22.14-39.42,22.13.29,58.16Z"/>
      <polygon class="cls-3" points="273.35 264.67 272.08 263.99 272.79 270.14 273.35 264.67"/>
      <polygon class="cls-3" points="231.35 284.51 234.45 308.5 242.08 308.5 237.6 273.77 231.35 284.51"/>
      <polygon class="cls-3" points="661.65 164.21 652.74 246.75 670.19 246.75 661.65 164.21"/>
      <polygon class="cls-3" points="517.32 111.08 517.45 137.8 512.73 157.08 521.88 151.61 522.75 148.05 527.83 148.05 530.04 146.73 530.83 148.05 557.3 148.05 549.38 179.02 554.86 188.18 567.06 140.5 526.71 140.5 526.56 111.08 604.85 111.08 604.98 137.8 581.67 232.83 583.14 235.09 585.68 239.38 587.09 242.63 612.58 138.73 612.4 103.53 511.88 103.53 509.75 111.08 517.32 111.08"/>
      <path class="cls-3" d="M379.58,150.1l.75,147.98c0,1.16.56,1.3.46,1.61-.06.02-.43.14-1.3.14l-.47-.02c-.04-.41-.08-.98-.09-1.75l-.75-147.96c0-.38-.05-.66-.11-.89l-7.31-2c-.11.88-.17,1.84-.16,2.91l.51,101.39.24,46.57c.03,6.59,2.15,9.31,8.17,9.31s8.43-2.72,8.39-9.31l-.24-46.57-.5-99.8-7.61-2.08c0,.16.01.3.01.48Z"/>
      <polygon class="cls-3" points="433.66 164.44 426.07 162.35 426.52 251.5 426.68 283.64 434.22 275.69 433.66 164.44"/>
      <polygon class="cls-3" points="446.59 269.26 451.13 251.51 459.3 219.57 453.78 210.54 438.18 271.51 446.28 262.97 446.59 269.26"/>
      <path class="cls-3" d="M586.88,307.37h21.68l.15,29.42h-37.79l-4.1,7.55h85.44l5.71-60.62h8.01l6.94,60.62h54.42l-28.53-240.81h-68.57l-23.09,196.28h-16.33l-.14.53-3.81,7.03ZM620.47,251.51l16.53-140.42h55.09l16.65,140.42,10.07,85.27h-39.13l-6.94-60.64h-21.66l-5.71,60.64h-34.92l10.04-85.27Z"/>
      <polygon class="cls-3" points="459.28 189.04 468.51 183.52 470.79 174.61 463.48 172.6 459.28 189.04"/>
      <polygon class="cls-3" points="283.4 165.07 276.23 160.79 272.32 199.5 267.26 155.45 259.06 150.56 260.54 163.45 277.57 222.9 283.4 165.07"/>
      <polygon class="cls-3" points="147.36 298.39 146.17 311.08 152.74 322.01 153.93 309.33 147.36 298.39"/>
      <polygon class="cls-3" points="171.29 344.34 174.97 344.34 170.43 336.79 171.29 344.34"/>
      <polygon class="cls-3" points="160.56 169.36 159.42 169.66 158.55 177.72 161.35 176.97 160.56 169.36"/>
      <polygon class="cls-3" points="163.42 196.95 156.89 193.14 156 201.37 162 204.86 154.16 218.43 152.15 237.06 165.23 214.43 163.42 196.95"/>
      <polygon class="cls-3" points="273.35 264.67 274.17 256.54 271.03 254.85 272.08 263.99 273.35 264.67"/>
      <polygon class="cls-3" points="301.79 308.5 300.97 316.04 308.6 316.04 309.42 308.5 301.79 308.5"/>
      <polygon class="cls-3" points="242.08 308.5 234.45 308.5 235.42 316.04 243.06 316.04 242.08 308.5"/>
      <path class="cls-3" d="M332.27,308.88v-.38h-7.57v.37c.01,2.54.2,4.93.54,7.18h7.66c-.4-2.2-.62-4.58-.63-7.17Z"/>
      <polygon class="cls-3" points="217.4 308.5 220.78 302.68 219.29 290.12 212.96 301 214.74 316.04 222.36 316.04 221.47 308.5 217.4 308.5"/>
      <polygon class="cls-3" points="197.14 167.38 204.52 165.4 203.62 157.83 196.24 159.8 197.14 167.38"/>
      <polygon class="cls-3" points="277.57 222.9 260.54 163.45 265.81 209.35 275.52 243.25 277.57 222.9"/>
      <polygon class="cls-3" points="119.81 180.27 126.76 184.32 127.48 178.21 119.81 180.27"/>
      <polygon class="cls-3" points="231.35 284.51 237.6 273.77 236 261.4 229.75 272.14 231.35 284.51"/>
      <path class="cls-3" d="M343.22,332.35l-2.34,7.34c2.18,1.19,4.54,2.14,7.05,2.86l2.28-7.17c-2.57-.72-4.92-1.72-6.99-3.03Z"/>
      <polygon class="cls-3" points="222.97 160.46 222 152.9 214.62 154.88 215.59 162.44 222.97 160.46"/>
      <polygon class="cls-3" points="492.05 273.2 494.59 262.85 489.03 253.74 486.49 264.09 492.05 273.2"/>
      <polygon class="cls-3" points="439.6 281.05 440.23 294.08 446.59 269.26 446.28 262.97 438.18 271.51 434.32 286.61 439.6 281.05"/>
      <polygon class="cls-3" points="562.28 336.78 558.18 344.34 566.82 344.34 570.92 336.78 562.28 336.78"/>
      <polygon class="cls-3" points="376.3 336.78 369.13 344.34 379.57 344.34 386.75 336.78 376.3 336.78"/>
      <polygon class="cls-3" points="453.78 210.54 459.3 219.57 461.91 209.35 456.39 200.32 453.78 210.54"/>
      <polygon class="cls-3" points="508.31 299.81 512.92 307.37 521.01 307.37 521.05 317.03 523.41 317 523.38 311.26 523.61 310.35 517.17 299.81 508.31 299.81"/>
      <polygon class="cls-3" points="434.22 275.69 426.68 283.64 426.74 294.61 434.28 286.65 434.22 275.69"/>
      <polygon class="cls-3" points="530.04 146.73 527.83 148.05 530.83 148.05 530.04 146.73"/>
      <polygon class="cls-3" points="519.34 161.94 521.88 151.61 512.73 157.08 510.19 167.41 519.34 161.94"/>
      <polygon class="cls-3" points="578.24 307.37 586.88 307.37 590.69 300.34 590.83 299.81 582.34 299.81 578.24 307.37"/>
      <polygon class="cls-3" points="552.23 198.46 554.86 188.18 549.38 179.02 546.75 189.3 552.23 198.46"/>
      <polygon class="cls-3" points="583.14 235.09 581.67 232.83 579.12 243.24 580.58 246.63 582.47 250.73 583.88 254.5 584.02 255.12 587.09 242.63 585.68 239.38 583.14 235.09"/>
      <polygon class="cls-3" points="465.85 193.94 468.51 183.52 459.28 189.04 456.61 199.46 465.85 193.94"/>
      <polygon class="cls-3" points="433.62 156.6 426.03 154.52 426.07 162.35 433.66 164.44 433.62 156.6"/>
      <polygon class="cls-3" points="215.15 124.39 218.58 126.43 217.77 120.12 215.15 124.39"/>
      <polygon class="cls-3" points="266.17 146 257.98 141.12 259.06 150.56 267.26 155.45 266.17 146"/>
      <polygon class="cls-3" points="501.88 111.08 509.75 111.08 511.88 103.53 504 103.53 501.88 111.08"/>
      <path class="cls-3" d="M390.5,103.53l4.21,7.55h2.49c2.24,0,4.37.14,6.39.42l-4.41-7.92c-.67-.02-1.33-.05-2.01-.05h-6.67Z"/>
      <path class="cls-3" d="M319.81,142.08l20.53-34.22c-4,2.07-7.43,4.9-10.1,8.54l.85-7.86-9.34,15.56-1.95,17.98Z"/>
      <polygon class="cls-3" points="232.19 111.08 236.82 103.53 227.92 103.53 223.29 111.08 232.19 111.08"/>
      <path class="cls-3" d="M385.64,143.46l-8.19-2.24,1.21-.7c-5.04,0-7.32,2.12-7.9,6.69l7.31,2c-.15-.56-.38-.79-.31-1.1.3-.04,1.24-.24,1.59-.24.08.32.18.88.21,1.74l7.61,2.08v-1.59c-.02-2.89-.5-5.09-1.53-6.65Z"/>
      <polygon class="cls-3" points="463.48 172.6 470.79 174.61 472.66 167.3 465.35 165.3 463.48 172.6"/>
      <polygon class="cls-3" points="283.4 165.07 284.24 156.77 277.07 152.49 276.23 160.79 283.4 165.07"/>
      <polygon class="cls-3" points="274.68 251.51 275.52 243.25 265.81 209.35 270.65 251.51 271.03 254.85 274.17 256.54 274.68 251.51"/>
      <polygon class="cls-3" points="153.84 291.56 152.31 288.63 151.18 285.49 150.04 282.34 149.34 279.19 149.24 278.51 147.36 298.39 153.93 309.33 155.38 294 153.84 291.56"/>
      <polygon class="cls-3" points="161.35 176.97 158.55 177.72 156.89 193.14 163.42 196.95 161.35 176.97"/>
      <polygon class="cls-3" points="166.82 229.8 165.23 214.43 152.15 237.06 151.1 246.75 156.24 246.75 157.54 245.11 166.82 229.8"/>
      <polygon class="cls-3" points="210.69 281.83 212.96 301 219.29 290.12 217.07 271.35 210.69 281.83"/>
      <polygon class="cls-3" points="229.75 272.14 236 261.4 234.72 251.51 233.74 243.93 227.45 254.28 229.75 272.14"/>
      <polygon class="cls-3" points="298.73 336.78 245.74 336.78 243.06 316.04 235.42 316.04 239.07 344.34 305.54 344.34 308.6 316.04 300.97 316.04 298.73 336.78"/>
      <polygon class="cls-3" points="205.77 175.97 204.52 165.4 197.14 167.38 198.38 177.88 205.77 175.97"/>
      <path class="cls-3" d="M332.9,316.04h-7.66c1.71,11.4,7.41,19.18,15.64,23.65l2.34-7.34c-5.33-3.36-8.94-8.71-10.32-16.31Z"/>
      <polygon class="cls-3" points="222.36 316.04 214.74 316.04 217.19 336.78 182.93 336.78 182.77 338.22 181.97 336.82 181.95 336.78 178.06 336.78 177.18 329.06 167.82 313.93 170.43 336.79 174.97 344.34 225.72 344.34 222.36 316.04"/>
      <polygon class="cls-3" points="224.35 171.17 222.97 160.46 215.59 162.44 216.97 173.08 224.35 171.17"/>
      <polygon class="cls-3" points="233.74 243.93 224.35 171.17 216.97 173.08 227.45 254.28 233.74 243.93"/>
      <polygon class="cls-3" points="149.46 276.14 149.24 278.51 149.34 279.19 150.04 282.34 151.18 285.49 152.31 288.63 153.84 291.56 155.38 294 156.35 283.72 164.37 283.72 167.82 313.93 177.18 329.06 171.12 276.14 149.46 276.14"/>
      <polygon class="cls-3" points="166.82 229.8 157.54 245.11 156.24 246.75 168.57 246.75 166.82 229.8"/>
      <polygon class="cls-3" points="210.69 281.83 217.07 271.35 205.77 175.97 198.38 177.88 207.1 251.51 210.69 281.83"/>
      <polygon class="cls-3" points="181.97 336.82 182.77 338.22 182.93 336.78 181.95 336.78 181.97 336.82"/>
      <polygon class="cls-3" points="517.17 299.81 523.61 310.35 538.66 251.51 552.23 198.46 546.75 189.3 518.48 299.81 517.17 299.81"/>
      <polygon class="cls-3" points="563.4 307.37 578.24 307.37 582.34 299.81 573.06 299.81 584.02 255.12 583.88 254.5 582.47 250.73 580.58 246.63 579.12 243.24 577.09 251.51 563.4 307.37"/>
      <path class="cls-3" d="M401.41,336.68c-1,.06-2.02.09-3.06.09h-11.6l-7.17,7.56h14.25l7.58-7.65Z"/>
      <polygon class="cls-3" points="547.18 344.34 558.18 344.34 562.28 336.78 551.16 336.78 547.18 344.34"/>
      <polygon class="cls-3" points="489.03 253.74 494.59 262.85 519.34 161.94 510.19 167.41 489.58 251.51 489.03 253.74"/>
      <path class="cls-3" d="M440.23,294.08l-.63-13.03-5.28,5.57-.04.15v-.11s-7.54,7.95-7.54,7.95l.07,14.27c0,.75-.01,1.48-.04,2.21l3.82-3.86.29,21.51,5.05.02-.09-17.48,4.4-17.19Z"/>
      <polygon class="cls-3" points="521.12 329.1 523.47 329.11 523.41 317 521.05 317.03 521.12 329.1"/>
      <polygon class="cls-3" points="456.39 200.32 461.91 209.35 465.85 193.94 456.61 199.46 456.39 200.32"/>
      <path class="cls-3" d="M521.16,336.78h-85.2l-.04-8.03-5.05-.02-.29-21.51-3.82,3.86c-.68,16.81-10.31,24.69-25.36,25.6l-7.58,7.65h4.56c12.97,0,23.69-4.25,29.98-13.22l.07,13.22h118.74l3.99-7.55h-27.65l-.04-7.67h-2.35s.04,7.67.04,7.67Z"/>
      <path class="cls-3" d="M420.74,120.64l-7.76-14.52c-4.16-1.53-8.8-2.37-13.8-2.54l4.41,7.92c7.4,1.03,13.28,3.99,17.15,9.14Z"/>
      <polygon class="cls-3" points="490.99 111.08 501.88 111.08 504 103.53 493.2 103.53 490.99 111.08"/>
      <polygon class="cls-3" points="465.35 165.3 472.66 167.3 475.11 157.72 467.84 155.58 465.35 165.3"/>
      <path class="cls-3" d="M423.99,126.72l-.02-.03s0,.02.01.03h0Z"/>
      <path class="cls-3" d="M385.64,143.46c-1.33-2-3.58-2.95-6.96-2.95,0,0,0,0-.01,0l-1.21.7,8.19,2.24Z"/>
      <polygon class="cls-3" points="288.85 111.08 323.16 111.08 321.75 124.09 331.09 108.53 331.63 103.53 282.01 103.53 277.07 152.49 284.24 156.77 288.85 111.08"/>
      <polygon class="cls-3" points="433.62 156.6 433.58 148.05 442.35 148.05 425.97 143.22 426.03 154.52 433.62 156.6"/>
      <polygon class="cls-3" points="257.98 141.12 266.17 146 261.29 103.53 236.82 103.53 232.19 111.08 254.53 111.08 257.98 141.12"/>
      <path class="cls-3" d="M423.97,126.69l.02.03h0c1.26,3.47,1.94,7.54,1.97,12.27l.02,4.22,16.38,4.84h27.41l-1.92,7.52,7.27,2.15,4.4-17.22h-40.33l-.15-29.42h51.97l2.2-7.56h-61.77l.11,21.86c-3.13-9.71-9.75-16.03-18.56-19.26l7.76,14.52c1.32,1.76,2.4,3.77,3.24,6.05Z"/>
      <path class="cls-2" d="M420.74,120.64l3.24,6.05c-.83-2.28-1.92-4.3-3.24-6.05Z"/>
      <path class="cls-3" d="M428.21,438.3l-1.74,2.89-.23.35v.02c-.19.37-.29.69-.29,1,0,.41.36.69,1.22.69,2.09,0,4.48-.59,7.04-1.71.55-.25,1.1-.52,1.66-.82l-5.7-5.42-1.97,2.99Z"/>
      <path class="cls-3" d="M433.77,460c-1.59,0-3.35-.96-5.82-3.03l-3.71-3.01c-.34-.41-1.05-1.1-2.29-2.07-.36-.28-.51-.55-.87-.55l-.53.28c0,.14-.18.41-.53,1.1l-1.74,3.03c-1.58,2.6-2.27,3.29-3.86,3.29s-3.53-.96-7.75-3.58c-3.53-2.18-4.94-3.7-4.95-5.61,0-1.59.67-3.17,3.74-8.3.39-.65.84-1.36,1.31-2.15,3.94-6.55,7.24-12.13,9.97-16.88l-7.01-6.67c-.16,1.31-.42,2.78-.78,4.39-1.37,6.14-4.08,14.11-7.33,21.31v.02c-1.13,2.48-2.3,4.86-3.51,7.04l-4.7,8.64c-2.09,3.84-3.85,5.63-5.24,5.63-.71,0-1.4-.28-2.11-.69l-3.53-1.91-3.86-1.52c-2.31-.96-3.71-2.48-3.72-4.13,0-1.77.69-3.15,3.82-7.56,1.23-1.81,2.38-3.64,3.47-5.53h.02c3.59-6.16,6.61-12.75,9.38-20.95l.16-.35v-.02c.43-1.34.71-3.13.71-3.88,0-1.65-1.06-2.48-2.98-2.48-2.66,0-5.98,1.24-11.23,4.27-1.43.89-2.35,1.48-3,2.11l-.06.02h.06c-.88.83-1.31,1.71-1.91,3.36-.7,2.05-2.25,6.04-4.86,11.94l-2.55,5.98-2.14,5c-4.68,11.25-6.27,13.04-10.66,13.04-2.46,0-4.21-.69-6.86-2.48-3-2.07-4.43-4.11-4.44-5.77,0-1.24.34-2.34,3.84-7.97.39-.61.78-1.22,1.15-1.83h.02c3.32-5.35,5.54-9.96,7.87-15.88.87-2.3,1.53-4.07,2.02-5.45.97-2.73,1.28-3.97,1.27-4.98,0-1.51-1.08-2.62-2.65-2.62-4.37,0-9.7,3.19-13.62,7.59-1.58,1.81-2.93,3.8-3.91,5.86l-1.73,3.97-5.06,11.49-4.49,10.21c-3.13,6.98-4.01,8.09-6.47,8.09-.87,0-2.29-.55-3.53-1.22l-4.05-2.48c-3.71-2.07-5.11-3.56-5.12-5.49,0-1.46.79-3.52,3.75-9.11l.41-.77c4.91-9.58,8.16-16.02,10.36-20.54,1.4-2.87,2.36-5,3.04-6.63l4.86-11.53c.51-1.22.95-2.26,1.34-3.17.91-2.16,1.44-3.42,1.44-3.7,1.03-2.75,2.26-3.99,4.19-3.99,1.77,0,3.52.57,7.92,2.48,2.82,1.38,4.24,2.62,4.25,3.97,0,.33-.06.75-.21,1.24h-.02c-.1.33-.25.71-.47,1.1-.35.96-.52,1.93-.34,2.87.18,0,.71-.26,1.22-.67,1.94-1.32,3.69-2.4,5.32-3.31h.04c3.85-2.07,6.97-3.01,9.92-3.01,3.17,0,5.95,1.04,8.12,3.01v.02c1.68,1.53,3.01,3.66,3.87,6.3.18.55.54.96.71.96.35,0,.88-.28,1.41-.69,4.61-2.92,9.8-5.23,13.7-6.27l-6.59-6.27c-1.79.69-3.64,1.5-5.48,2.42-.57-.73-1.21-1.42-1.86-2.05l-.38-.35c-3.68-3.34-8.37-5.12-13.54-5.12-3.4,0-6.82.79-10.55,2.42-2.02-2.05-4.44-3.23-5.61-3.8l-.32-.14c-4.99-2.18-7.79-3.15-11.15-3.15-.58,0-1.2.04-1.83.13l-7.36,23.12-9.77-.09c-2.69,4.25-5.22,8.98-7.46,13.88h-.02c-3.31,7.2-5.97,14.7-7.57,21.31l-.06.02h.06c-1.04,4.41-1.63,8.42-1.61,11.71v.94c.02,3.44-1.21,4.54-5.42,4.54-7.56,0-13.9-2.75-13.92-6.18,0-.41.17-.83.17-1.24.17-.83.17-1.52.17-2.07,0-.53-.18-.81-.54-.81-.53,0-1.39.41-2.45,1.22-5.08,3.44-13.68,6.59-18.25,6.59-6.83,0-12.94-6.67-13.87-14.74-.06-.65-.11-1.32-.11-2.01-.03-6.59,2.06-13.16,6.02-19.3l.04-.02h-.04c3.33-5.17,7.97-10.03,13.74-14.35l-8.02-.08h-4.21c-3.23,3.17-6.01,6.54-8.28,10.06l-.18.31c-4.7,7.38-7.16,15.45-7.12,23.37,0,.92.07,1.89.17,2.85v.02c1.42,12.28,11.03,21.88,21.87,21.88,4.58,0,10.62-1.81,15.84-4.17,3.68,4.11,10.5,6.63,19,6.63,5.9,0,9.24-2.07,11.11-4.64.59.37,1.14.69,1.6.94l3.93,2.4.3.16c1.84,1.02,4.63,2.24,7.43,2.24,8.03,0,10.83-6.22,13.79-12.85l.31-.71c.78,2.81,2.83,6.18,7.56,9.44,2.98,1.99,6.41,3.84,11.39,3.84,7.36,0,11.2-3.84,14.26-9.54,1.14,3.48,4.01,6.38,8.13,8.11l3.55,1.4,3.02,1.63c2.03,1.14,4,1.71,6.05,1.71,6.95,0,10.82-7.12,12.29-9.8l.04-.1c.73.51,1.4.92,1.95,1.28,4.68,2.87,8.05,4.78,11.99,4.78s6.68-1.89,8.42-3.9c2.88,2.42,6.44,4.84,10.92,4.84,5.31,0,13.64-5.4,19.99-10.21l-5.92-5.63c-6.29,4.63-11.92,7.85-14.11,7.85Z"/>
      <path class="cls-3" d="M699.07,405.92c-1.06,0-2.99.55-4.4,1.36-5.95,3.21-11.06,7.69-15.03,12.95v.02l-.37.49-1.39,1.93c-.35.55-.53.83-.53,1.1,0,.39.69.67,1.93.67,3.17,0,9.32-1.63,12.46-3.29.53-.29,1.02-.59,1.51-.92,4.75-3.21,8.48-8.52,8.46-12.26,0-1.22-1.07-2.05-2.65-2.05Z"/>
      <path class="cls-3" d="M718.33,392.77l-.02.02-.26-.2c-4.62-3.56-10.77-5.53-17.32-5.53-5.75,0-12.27,1.57-18.89,4.53l-.41.2c-2.2,1-4.38,2.18-6.51,3.44-.42-.53-.83-1.02-1.25-1.48l-.3-.33c-1.4-1.48-2.85-2.56-4.46-3.33.7-1.71,1.07-3.31,1.06-4.9-.01-2.81-1.26-8.03-9.4-11.45l-4.6-2.12c-2.05-.94-3.92-1.44-5.54-1.44-2.79,0-8.04,1.16-11.98,8.91l-3.57,6.43-2.44,4.68h-.06c-2.58.08-5.09.24-7.45,1.38-.35.16-.67.33-1,.53-.55.33-1.02.71-1.45,1.1l-.28-.28-.22-.18c-3.81-3.33-8.51-5.16-13.21-5.16-3.38,0-7.43,1.22-10.71,2.46-1.84-2.18-4.42-3.09-5.53-3.48l-5.13-1.87c-1.64-.53-3.59-1.08-5.73-1.08-2.87,0-8.18,1.06-11.33,8.17-.02.02-1.46,3.42-2.43,5.75-1.21-1.75-2.69-3.36-4.43-4.76l-.26-.2c-4.62-3.58-10.77-5.53-17.34-5.53-1.3,0-2.65.09-4.03.25l-1.29,1.47-2.92,3.27-3.39,2.81-3.51,2.68-3.41,2.2-3.79,2.24-3.91,1.95-4.03,1.57-3.93,1.22-4.2,1.36-.8.1c-.4.68-.86,1.43-1.39,2.27-2.15,3.17-4.22,6.41-6.19,9.8-3.75,6.39-7.17,13.2-10.34,20.68l-.27.63-3.56,8.56c-1.38,3.42-2.25,5.63-2.6,6.73-.52,2.05-1.38,3.15-2.62,3.15-.89,0-1.75-.39-2.82-1.24-1.4-.94-2.29-1.63-3-1.77-.18-.14-1.22-.28-3.17-.69-3.15-.55-5.09-2.2-5.1-4.25,0-1.57,1.41-5.35,3.8-10.49,2.74-5.82,6.74-13.38,11.28-21.33,1.97-3.4,4.02-6.89,6.13-10.33.14-.22.26-.42.39-.64l-11.45.2c.39,1.5.61,3.03.62,4.56,0,1.91-.37,3.99-1.11,6.22-2.13,6.43-7.33,13.89-14.88,21.33h-.02c-1.7,1.67-3.51,3.33-5.44,4.98-.29.25-.59.49-.88.74l.14,10.17c1.35-1.03,2.6-2.02,3.7-2.92,1.13,4.82,5.4,8.54,11.34,9.62.75.16,1.36.26,1.87.35l.1.02.97.69c2.47,1.87,4.95,2.77,7.59,2.77,1.87,0,8.08-.65,10.28-8.87.41-1.2,1.71-4.41,2.31-5.92l.17-.39c4.49,9.13,14.11,15.19,25.66,15.19,5.63,0,14.29-1.99,23.21-5.31,2.26-.87,4.3-1.93,6.06-3.17,1.54,1.32,3.16,2.28,4.28,2.95,4.89,2.93,8.17,4.72,12.42,4.72,3.21,0,9.04-1.3,12.37-9.92l.08-.22c.31-.87.62-1.71.93-2.56.57,8.15,9.07,14.88,19,14.88,8.46,0,12.2-3.72,14.22-8.5,1.17,1.08,2.53,2.1,4.13,3.03,3.79,2.18,9.86,4.51,14.23,4.51,2.89,0,5.84-.9,8.35-2.6l.47-.33c1.57-1.24,4.47-3.5,4.45-7.81,0-1.36-.33-2.42-.53-3.05l-.1-.37c-.14-.47-.32-.94-.52-1.4-.04-.16-.12-.63-.13-1.63,0-.02.05-1.77,1.66-6.91l.1-.3c.54-1.67,1.14-3.44,1.84-5.23-.05.77-.11,1.51-.11,2.26v.69c.43,14.97,12.63,26.27,28.39,26.27,5.63,0,14.29-1.99,23.21-5.31,8.72-3.31,14.12-9.74,14.08-16.82-.02-3.56-1.59-6.71-4.08-8.87,6.38-3.29,11.34-7.3,14.81-11.96,3.58-4.8,5.44-10.27,5.41-15.82-.03-6.38-2.99-12.34-8.13-16.43ZM516.43,441.56l-.04.02h.04c.53,2.83,2.66,4.15,6.75,4.15,3.17,0,8.97-.83,12.31-1.79l4.2-1.36c1.22-.28,2.81-.57,3.52-.57,2.46,0,4.22,1.65,4.23,3.86.02,3.56-3.49,7.26-8.91,9.33-8.07,3.01-15.81,4.8-20.38,4.8-11.43,0-20.01-7.71-20.3-18.44h.04l-.04-.02v-.47c-.03-6.39,2.66-13.87,7.25-20.82h.02c3.28-4.98,7.51-9.66,12.41-13.5,4-3.21,8.43-5.86,12.85-7.83h.04l-.04-.02c5.46-2.44,10.92-3.82,15.58-3.82,4.98,0,9.27,1.44,12.4,3.84,3.26,2.54,5.23,6.14,5.25,10.29.02,3.92-1.32,7.61-3.84,11.04-3.24,4.35-8.48,8.18-15.39,11.2-6.14,2.75-12.63,4.41-16.15,4.41-2.46,0-3.86-.83-7.58-4.8-.53-.55-1.07-.96-1.22-.96-.35,0-.71.55-1.23,1.38-.7,1.36-1.05,2.73-1.4,4.11-.15,1.36-.49,3.42-.49,4.53,0,.53.04,1.02.13,1.46ZM609.14,441.57c-2.33,5.25-4.08,9.94-4.76,12.95-1.37,5.63-2.78,6.85-7.86,6.85-5.65,0-10.92-3.7-10.94-7.67-.01-2.12,1.31-5.98,4.13-12.14h.02c1.36-2.97,3.12-6.51,5.22-10.64l5.42-10.66.16-.31c2.79-5.49,3.49-7.14,3.48-8.79,0-1.1-.89-1.93-2.13-1.93-.89,0-1.93.14-3.16.69l-4.91,1.93c-4.3,1.61-7.59,4.56-9.5,8.42l-.12.22-4.69,9.9-5.14,11.2-1.65,3.62c-1.21,2.75-2.43,5.77-3.63,9.21-1.22,3.15-2.79,4.8-4.89,4.8-1.95,0-3.7-.83-8.3-3.58-3.69-2.18-5.11-3.7-5.12-5.63,0-1.69,1.1-4.39,3.44-8.42l.39-.63,6.28-10.98c1.62-2.91,3.39-6.26,5.17-9.7,3.16-6.16,6.27-12.59,8.41-17.33l1.67-3.99,1.61-3.84c1.05-2.34,2.26-3.44,4.04-3.44.87,0,1.93.28,3.15.69l4.95,1.79c1.93.69,2.29.96,2.29,1.93v.83s-.28,2.05-.28,2.05l-.06.41v.96c0,.69.19,1.1.54,1.1.33,0,.69-.14,1.22-.41,1.37-.75,2.75-1.44,4.12-2.07h.04c4.44-2.01,8.7-3.29,11.12-3.29,2.93,0,5.75,1.24,8.04,3.29,3.2,2.83,5.37,7.22,5.39,11.94v1.52c-.31,2.6-.81,4.68-2.27,7.87-.93,2.01-2.26,4.47-4.15,7.77-2.44,4.49-4.77,9.21-6.72,13.54v.02ZM647.86,413.2l-3.66,7-.02.04-.02.02h.02c-3.59,6.81-6.89,14.87-8.94,21.31-1.34,4.17-2.14,7.73-2.13,9.66,0,1.91.2,3.7.91,5.08.18.67.36,1.08.36,1.36,0,.41-.35.69-1.41,1.51-1.22.83-2.63,1.24-3.85,1.24-2.3,0-6.87-1.52-10.23-3.44-3.53-2.05-4.94-4.11-4.95-6.85-.01-2.16.61-4.82,2.04-8.58.56-1.48,1.28-3.15,2.12-5.02,1.56-3.15,3.82-7.97,7.13-14.42.33-.63.66-1.26.99-1.87,1.52-2.85,2.87-5.21,3.88-6.91.18-.41.35-.69.35-.83,0-.14-.36-.55-.89-1.1-1.76-1.38-2.66-3.84-2.67-6.45-.02-3.6.11-5.25,1.37-6.04h.02c.86-.49,2.22-.63,4.38-.69,3.88,0,5.09-.39,5.79-2.05l3.49-6.73,3.65-6.59c1.58-3.15,3.32-4.66,4.9-4.66.35,0,1.24.28,2.13.69l4.75,2.2c3,1.22,4.58,2.73,4.59,4.11,0,1.1-.85,3.01-2.78,6.18l-2.61,4.53-.17.69c0,.41.18.69.71.69l.71-.14c1.4-.28,3.34-.41,4.56-.41,2.32,0,3.58.49,5.21,2.18v.02c.46.47.95,1.06,1.5,1.77,1.42,1.65,2.3,3.31,2.3,3.99.01,2.18-2.79,3.84-6.85,3.84l-6.32.14c-6.49.14-8.61,1.1-10.35,4.53ZM714.59,420.25c-3.26,4.35-8.5,8.18-15.39,11.2-6.14,2.75-12.65,4.41-16.15,4.41-2.46,0-3.88-.83-7.6-4.8-.51-.55-1.05-.96-1.22-.96-.35,0-.71.55-1.23,1.38-.68,1.36-1.03,2.73-1.38,4.11-.17,1.36-.51,3.42-.51,4.53,0,.53.04,1.02.13,1.46l-.04.02h.04c.53,2.83,2.68,4.15,6.75,4.15,3.17,0,8.97-.83,12.31-1.79l4.2-1.36c1.24-.28,2.83-.57,3.52-.57,2.46,0,4.24,1.65,4.25,3.86.02,3.56-3.49,7.26-8.93,9.33-8.07,3.01-15.79,4.8-20.36,4.8-11.45,0-20.01-7.71-20.32-18.44h.06l-.06-.02v-.47c-.03-6.39,2.68-13.87,7.25-20.82h.02c3.28-4.98,7.53-9.66,12.43-13.5,3.98-3.21,8.41-5.86,12.83-7.83h.06l-.06-.02c5.46-2.44,10.92-3.82,15.58-3.82,4.98,0,9.27,1.44,12.4,3.84,3.28,2.54,5.24,6.14,5.27,10.29.02,3.92-1.32,7.61-3.84,11.04Z"/>
      <path class="cls-3" d="M456.59,420.45l.16-.24c1.83-3.07,3.16-5.96,3.15-7.44,0-1.65-1.77-2.75-4.4-2.75-.57,0-1.21.06-1.91.16l.2,14.41c.93-1.28,1.86-2.65,2.81-4.14Z"/>
      <path class="cls-3" d="M524.49,424.44c3.17,0,9.3-1.63,12.46-3.29.51-.29,1.02-.59,1.51-.92,4.75-3.21,8.46-8.52,8.44-12.26,0-1.22-1.05-2.05-2.65-2.05-1.04,0-2.97.55-4.38,1.36-5.95,3.21-11.08,7.69-15.05,12.95v.02s-.35.49-.35.49l-1.41,1.93c-.35.55-.53.83-.53,1.1,0,.39.71.67,1.95.67Z"/>
      <path class="cls-3" d="M275.58,420.24v.02h-.01c-5.82,6.39-9.85,13.78-9.83,19.14,0,1.24.72,1.91,1.94,1.91.71,0,2.28-.41,3.34-.96l5.62-2.32c5.26-2.34,8.42-5.08,9.97-8.52l2.08-4.66c.58-1.42,1.3-2.99,2.08-4.6v-.02c1.6-3.29,3.49-6.75,5.24-9.5l1.91-3.01c.17-.55.35-.83.53-.83v-.41c0-.13-.05-.23-.12-.29h-1.31c-2.04.38-5.52,1.9-9.27,4.13-4.39,2.5-8.63,6.04-12.17,9.94Z"/>
      <path class="cls-3" d="M275.55,420.24h.03s0,0,.01,0h-.04Z"/>
      <path class="cls-3" d="M258.68,405.79l8.02.08c2.36-1.77,4.9-3.45,7.63-5.03,1.1-.65,2.22-1.3,3.37-1.93.29-.16.58-.32.88-.48l-15.13-.15c-3.28,2.34-6.28,4.85-8.97,7.5h4.21Z"/>
      <path class="cls-3" d="M327.32,388.12l-.34-.37-.34-.35c-.22-.21-.46-.45-.74-.7l-3.05,9.57c.1.32.16.63.17.88v.41c0,.39-.09.85-.31,1.36l-.04.02h.04c-.29.71-.8,1.57-1.62,2.6-1.11,1.52-2.21,3.14-3.28,4.83l9.77.09,7.36-23.12c-2.53.37-5.35,1.62-7.63,4.78Z"/>
      <path class="cls-3" d="M297.92,406.06c-.25,0-.56.04-.9.11h1.31c-.09-.06-.22-.11-.41-.11Z"/>
      <path class="cls-3" d="M526.63,391.78c-1.79.81-3.56,1.72-5.29,2.71-.28.16-.56.32-.83.49-1.66.98-3.28,2.01-4.84,3.12-.08-.2-.2-.4-.29-.6l-2.24.88-3.65,1.12-1.78.57c.58.97.93,1.98.93,2.96v.83c-.25,1.2-.86,2.53-1.91,4.32l.8-.1,4.2-1.36,3.93-1.22,4.03-1.57,3.91-1.95,3.79-2.24,3.41-2.2,3.51-2.68,3.39-2.81,2.92-3.27,1.29-1.47c-4.67.54-9.71,1.98-14.82,4.27l-.43.2Z"/>
      <path class="cls-3" d="M431,434.05l-.83,1.26,5.7,5.42c1.23-.65,2.49-1.4,3.77-2.29.95-.65,1.85-1.3,2.73-1.97l-8.37-7.96c-1.39,2.63-2.34,4.52-3,5.55Z"/>
      <path class="cls-3" d="M447.87,452.15l5.92,5.63c.14-.11.28-.22.43-.33l-.14-10.17c-2.08,1.73-4.18,3.37-6.21,4.87Z"/>
      <path class="cls-3" d="M453.78,424.59l-.2-14.41c-1.67.25-3.74.8-6.34,1.77-.4.16-.8.32-1.2.5l.29,20.69c2.63-2.44,5.02-5.19,7.45-8.55Z"/>
      <path class="cls-3" d="M420.58,415.73l-26.3-25.02c-.73.07-1.49.18-2.31.35-1.9.38-4.05,1.04-6.3,1.9l6.59,6.27c.46-.12.91-.24,1.33-.32.88-.18,1.65-.28,2.32-.28.87,0,1.73.1,2.58.28h.04c6.36,1.32,11.33,7.38,11.37,14.42,0,.74-.06,1.59-.17,2.52l7.01,6.67c.45-.78.89-1.55,1.31-2.28.92-1.61,1.76-3.11,2.53-4.51Z"/>
      <path class="cls-3" d="M490.56,401.64l-8.13.14c-.19.3-.37.59-.57.91-.14-.3-.29-.59-.43-.89l-9.3.16c1.71,2.27,2.98,4.83,3.68,7.5l11.45-.2c1.92-3.12,3.48-5.61,4.76-7.56l-1.46-.06Z"/>
      <path class="cls-3" d="M300.14,393.43c1.22.96,1.94,1.65,2.29,2.34.53.67,1.07,1.1,1.25,1.1.16,0,.69-.41,1.04-1.1l2.62-3.44c1.92-2.46,3.15-3.42,4.55-3.42,1.24,0,4.59,1.1,6.7,2.32,1.07.57,1.76,1.24,2.47,1.93.68.74,1.47,2.04,1.8,3.11l3.05-9.57c-.83-.76-1.94-1.67-3.43-2.49-2.35-1.34-7.14-3.34-10.62-3.34-4.27,0-7.25,2.4-9.2,4.53-1.99-1.26-4.18-2.18-6.78-2.18-6.02,0-19.44,7.22-22.07,8.66l-.25.16c-1.16.63-2.28,1.28-3.26,1.87-2.39,1.38-4.67,2.86-6.84,4.4l15.13.15c7.31-3.96,15.13-7.2,17.33-7.2,1.06,0,2.29.67,4.24,2.18Z"/>
      <path class="cls-3" d="M440.39,416.2c-.47.96-1.11,2.3-2.01,4.03-.78,1.51-1.71,3.33-2.86,5.45-.56,1.02-1.06,1.96-1.52,2.82l8.37,7.96c1.39-1.06,2.7-2.16,3.96-3.32l-.29-20.69c-1.02.44-2.05.94-3.18,1.43-1.59.67-1.94.81-2.47,2.32Z"/>
      <path class="cls-3" d="M474.75,392.97s-.06-.05-.08-.07l-24.26-.12c-.66,1.46-1.17,3.04-1.82,4.5-.27.69-.49,1.24-.66,1.63v.02c-.17.43-.31.75-.39.94-.18.41-.17.69-.17.96l.18.41c.18,0,.53-.14.88-.41.33-.14,1.04-.55,2.28-1.1l1.71-.83,2.85-1.36c2.45-1.24,5.09-1.93,6.84-1.93,1.95,0,4.41.96,6.17,2.34.38.31.75.63,1.13.96,1.01.93,1.92,1.94,2.74,3.03l9.3-.16c-1.57-3.14-3.73-6.05-6.4-8.55l-.28-.28Z"/>
      <path class="cls-3" d="M523.02,387.32c.29-.57,1.21-2.28,1.79-3.01,2.22-2.78,3.9-4.89,4.7-7.36l-.67.87-2.11,2.46-2.59,2.36-2.47,2.03-2.53,1.91-3.04,1.55-2.75,1.53-3.14,1.18-3.28.96-3.2.89-3.26.37-3.26.24h-3.31l-3.39-.33h-2.21c-.32.42-.64.85-.94,1.27-1.24,1.74-2.77,4.06-4.94,7.53l8.13-.14,1.46.06c.7-1.08,1.33-2,1.89-2.78,2.21-3.09,3.38-4.05,4.48-4.11l2.99.69c2.09.45,4.1,1.79,5.49,3.42.31.37.58.76.82,1.15l1.78-.57,3.65-1.12,2.24-.88c-.41-.89-.9-1.77-1.49-2.6,5.68-1.12,8.23-5.86,9.15-7.57Z"/>
      <path class="cls-3" d="M425.47,406.15l-6.13-5.94c-1.07,2.37-1.71,3.74-1.97,4.26l-.1.16c-.19.41-.41.85-.62,1.28-2.54-7.42-8.72-13.22-16.54-14.85l-.32-.06c-1.3-.26-2.62-.37-3.92-.37-.52,0-1.05.03-1.6.08l26.3,25.02c1.66-3,2.97-5.53,3.96-7.61.19-.37.5-1.02.94-1.96Z"/>
      <path class="cls-3" d="M521.14,361.98l-4.44-2.64c-1.52-.89-4.18-1.93-6.72-1.93-3.84,0-7.57,1.99-10.22,5.47l-.21.29c-2.54,3.68-6.83,10.64-6.81,15.84.01,2.22.68,5.14,3.11,8.13-3.29.88-5.63,3.29-7.54,5.82h2.21s3.39.35,3.39.35h3.31l3.26-.24,3.26-.37,3.2-.89,3.28-.96,3.14-1.18,2.75-1.53,3.04-1.55,2.53-1.91,2.47-2.03,2.59-2.36,2.11-2.46.67-.87c.34-1.05.54-2.16.54-3.42-.03-6.38-4.77-9.15-8.91-11.55ZM518.53,379.29c-.88,1.1-1.74,2.6-2.61,4.25-1.38,2.62-2.62,3.58-4.55,3.58-1.77,0-3.7-.69-5.99-2.2-3-1.93-4.58-3.97-4.59-5.9-.01-2.05,2.25-6.73,5.39-11.25,1.04-1.38,2.45-2.34,3.84-2.34.71,0,1.95.41,2.64.83l4.42,2.62c4.22,2.46,4.93,3.15,4.94,4.66,0,1.24-.52,2.07-3.49,5.76Z"/>
      <path class="cls-3" d="M473.19,391.65c-3.24-2.54-7.42-4.03-11.14-4.03h-.73c2.64-6.14,3.63-9.82,3.61-13.28-.03-5.27-2.92-9.42-8.6-12.32-5.33-2.81-8.5-3.92-11.29-3.92-5.23,0-9.56,3.42-11.58,9.19-1.26,3.62-2.23,6.2-2.95,8.05l-6.01,13.32c-1.13,2.52-2.1,4.76-2.98,6.69l-.14.3c-.8,1.82-1.48,3.33-2.04,4.57l6.13,5.94c.74-1.59,1.82-4,3.27-7.25.91-2.01,1.95-4.33,3.11-7l6.09-13.44c.68-1.79,1.73-4.53,3.1-8.5.87-2.48,2.28-3.86,4.03-3.86,1.24,0,3.7.96,7.57,3.03,3,1.5,4.25,3.01,4.26,5.21.01,2.32-.86,5.35-3.47,11.25l-2.96,6.98c-.03.06-.05.12-.08.19l24.26.12c-.45-.39-.89-.78-1.34-1.15l-.14-.1Z"/>
      <path class="cls-2" d="M275.58,420.24s0,0-.01.01h.01s0-.01,0-.01Z"/>
    </g>
  </g>
</svg>