<?xml version="1.0" encoding="UTF-8"?>
<svg id="Livello_2" data-name="Livello 2" xmlns="http://www.w3.org/2000/svg" viewBox="0 0 616.59 228.43">
  <defs>
    <style>
      .cls-1 {
        fill: #fff;
      }

      .cls-2 {
        fill: none;
        stroke: #fff;
        stroke-miterlimit: 10;
        stroke-width: .29px;
      }
    </style>
  </defs>
  <g id="Livello_1-2" data-name="Livello 1">
    <g>
      <path class="cls-1" d="M8.5,221.04h600.66l-1.08-213.64H7.42l1.08,213.64ZM0,0h615.43l1.16,228.43H1.16L0,0Z"/>
      <polygon class="cls-2" points="31.02 199.92 202.43 199.92 201.56 28.51 30.15 28.51 31.02 199.92"/>
      <path class="cls-1" d="M169.92,53.93c.02,3.44.67,18.71,2.45,29.77-.76,2.3-5.91,3.07-7.25,1.34-5.24-17.75-17.51-27.29-36.03-27.29-21.19,0-43.8,18.14-43.61,56.11.19,37.99,22.23,58.42,45.16,58.42s33.7-16.61,38.77-29.59c1.53-1.52,6.11-.94,7.27,1.34-1.27,14.13-4.45,25.58-7.11,29.97-10.28,2.87-23.81,7.06-38.71,7.06-18.71,0-37.82-4.39-51.43-14.5-13.79-10.51-24.37-26.35-24.49-50.02-.12-23.3,9.74-39.71,22.84-50.59,13.5-11.25,32.95-16.98,52.8-16.98s33.61,4.58,39.34,4.96"/>
      <polygon class="cls-2" points="223.33 199.92 394.74 199.92 393.87 28.51 222.46 28.51 223.33 199.92"/>
      <path class="cls-1" d="M362.09,156.43c.04,8.03.45,11.83,4.08,12.59.75.77.59,4.01-.55,4.58-3.24.57-8.2,1.14-13.35,2.87-6.68,2.09-23.08,4.56-33.78,4.56-12.97,0-24.05-1.32-37.63-6.67-22.38-8.97-37.75-30.16-37.89-57.65-.12-23.87,10.46-44.86,33.31-57.65,12.93-7.06,28.38-10.11,44.61-10.11,21.17,0,31.7,4.58,37.8,4.58.6,5.73.86,19.09,2.83,30.73-.76,2.11-5.89,2.28-7.24.37-6.21-17.94-18.28-26.92-36.02-26.92-30.36,0-44.93,25.2-44.78,55.37.14,27.29,9.57,43.52,22.02,51.92,9.2,6.1,19.12,7.24,26.19,7.24,10.88,0,13.17-2.11,13.11-14.5l-.06-12.02c-.05-10.31-1.22-11.45-10.37-12.79l-8.41-1.14c-2.11-1.16-2.13-5.55-.03-6.69,13.56.37,22.91.57,32.27.57s18.49-.2,25-.57c1.52,1.14,1.54,5.53.03,6.69l-4.4.75c-5.72.96-6.85,2.87-6.8,13.18l.05,10.68Z"/>
      <polygon class="cls-2" points="413.92 199.92 585.34 199.92 584.47 28.51 413.06 28.51 413.92 199.92"/>
      <path class="cls-1" d="M513.04,150.68c.09,17.94,1.24,19.28,10.02,20.82l5.36.94c1.54,1.14,1.37,5.53-.16,6.69-10.31-.39-19.66-.57-28.63-.57s-18.69.18-29,.57c-1.54-1.16-1.56-5.55-.03-6.69l5.33-.94c8.77-1.53,9.92-2.87,9.83-20.82l-.36-70.24c-.09-17.94-1.26-19.28-10.04-20.82l-5.34-.94c-1.54-1.14-1.56-5.53-.03-6.69,10.31.39,19.86.57,29,.57s18.51-.18,28.82-.57c1.54,1.16,1.56,5.55.03,6.69l-5.35.94c-8.77,1.53-9.9,2.87-9.81,20.82l.36,70.24Z"/>
    </g>
  </g>
</svg>