<?xml version="1.0" encoding="UTF-8"?>
<svg id="Livello_2" data-name="Livello 2" xmlns="http://www.w3.org/2000/svg" viewBox="0 0 675.54 139.5">
  <defs>
    <style>
      .cls-1 {
        fill: #fff;
      }
    </style>
  </defs>
  <g id="Livello_1-2" data-name="Livello 1">
    <g>
      <path class="cls-1" d="M654.34,6.81c3.38,0,6.52.81,9.54,2.58,3.16,1.63,5.49,3.99,7.24,7.16,1.77,3.17,2.71,6.45,2.73,9.86.02,3.4-.77,6.69-2.51,9.74-1.72,3.17-4.03,5.51-7.16,7.26-3,1.77-6.24,2.58-9.63,2.58s-6.62-.81-9.65-2.58c-3.14-1.75-5.47-4.09-7.24-7.26-1.77-3.05-2.59-6.34-2.61-9.74-.02-3.4.89-6.69,2.63-9.86,1.73-3.17,4.04-5.53,7.16-7.16,3.02-1.77,6.15-2.58,9.51-2.58M654.36,10.66c-2.68,0-5.21.71-7.64,2.01-2.43,1.4-4.41,3.29-5.79,5.86-1.38,2.46-2.06,5.16-2.05,7.87.01,2.7.72,5.39,2.13,7.85,1.41,2.46,3.29,4.47,5.74,5.86,2.57,1.42,5.11,2.12,7.78,2.12s5.35-.71,7.78-2.12c2.43-1.4,4.39-3.4,5.77-5.86,1.38-2.46,1.94-5.04,1.93-7.85-.01-2.83-.72-5.41-2.13-7.87-1.41-2.58-3.39-4.47-5.83-5.86-2.45-1.3-5.01-2.01-7.68-2.01M645.78,36.83l-.11-20.76h4.19c3.84,0,6.04,0,6.51.12,1.4.12,2.44.35,3.25.83.81.33,1.4,1.04,1.98,1.99.48.83.72,1.87.72,2.93,0,1.53-.46,2.81-1.38,3.88-1.04,1.04-2.31,1.75-4.18,1.99.71.24,1.16.47,1.52.83.36.24.81.71,1.4,1.51.12.24.69,1.06,1.53,2.6l2.46,4.09h-5.23l-1.65-3.29c-1.17-2.34-2.22-3.74-2.91-4.33-.83-.59-1.76-.83-2.92-.83h-1.04l.04,8.44h-4.19ZM649.91,25.11h1.63c2.44,0,3.93-.12,4.52-.35.57-.12,1.04-.47,1.39-.94.35-.45.45-1.04.44-1.63s-.1-1.06-.46-1.53c-.36-.45-.83-.69-1.4-.92-.69-.24-2.09-.35-4.53-.35h-1.63l.03,5.75Z"/>
      <polygon class="cls-1" points="218.29 135.17 217.61 1.65 258.26 1.65 258.83 114.39 293.72 114.39 293.82 135.17 218.29 135.17"/>
      <polygon class="cls-1" points="131.16 135.17 130.49 1.65 206 1.65 206.11 22.4 171.24 22.4 171.47 66.89 206.33 66.89 206.44 87.65 171.57 87.65 171.71 114.39 206.57 114.39 206.68 135.17 131.16 135.17"/>
      <path class="cls-1" d="M391.87,22.41l-11.55,14.89c-12.47-10.19-20.28-14.89-34.92-14.89l.47,92c14.64,0,26.69-6.24,34.77-14.8l11.7,14.8c-57.83,50.45-113.26,2.93-113.53-50.47-.26-50.45,69.39-86,113.06-41.54"/>
      <path class="cls-1" d="M553.25,1.64c25.55-1.75,41.26,4.8,57.96,23.35l-10.73,13.83c-7.23-6.45-11.09-9.5-19.23-13.71-8.14-3.29-15.48-6.45-24.77-3.05-1.16.92-2.19,2.58-1.14,4.8l48.84,54.56c9.59,9.86,16.36,18.32,5.64,33.33-10.84,15.01-37.4,23.12-58.81,19.6-15.94-3.76-26.18-9.27-37.87-22.41l13.41-14.09c8.18,7.4,17.74,15.01,28.91,17.14,3.72.24,5.92.24,8.93.12,4.88-.94,3.45-6.69-2.02-10.92l-47.22-53.26c-7.26-10.92-7.29-18.44-1.4-27.59,9.56-11.37,23.47-19.24,39.5-21.7"/>
      <path class="cls-1" d="M636.12,124.02l3.6-.47c.12,1.3.7,2.22,1.65,2.93.93.71,2.21,1.06,3.82,1.06,1.75,0,2.91-.24,3.71-.94.82-.59,1.15-1.28,1.15-2.11s-.34-1.42-1.05-1.77c-.45-.35-1.73-.69-3.72-1.16-2.54-.59-4.41-1.06-5.46-1.53-1.05-.47-1.87-1.04-2.33-1.87-.59-.83-.81-1.65-.82-2.58,0-.94.21-1.65.56-2.48.47-.69,1.04-1.28,1.86-1.75.57-.47,1.26-.71,2.32-1.06.92-.24,1.97-.35,3.13-.35,1.63,0,3.13.24,4.41.71,1.28.35,2.21.94,2.8,1.77.59.69,1.05,1.75,1.29,2.93l-3.6.47c-.12-.94-.6-1.77-1.41-2.36-.81-.59-1.85-.81-3.25-.81-1.63,0-2.91.22-3.6.69-.71.59-1.04,1.18-1.03,1.77,0,.47.12.81.46,1.16.24.35.71.71,1.4.94.35.12,1.4.35,3.13.83,2.56.59,4.43,1.16,5.48,1.52.93.35,1.76.94,2.33,1.77.59.71.93,1.63.94,2.81,0,1.06-.32,2.11-1.15,3.05-.68,1.06-1.6,1.75-3,2.34-1.28.47-2.79.71-4.54.71-2.77,0-4.86-.47-6.26-1.53-1.52-1.04-2.45-2.58-2.82-4.68"/>
      <path class="cls-1" d="M658.1,129.89l-.1-19.48h3.25v2.93c.95-1.4,1.64-2.34,2.32-2.7.71-.47,1.51-.71,2.34-.71,1.26,0,2.44.35,3.72,1.06l-1.17,3.05c-.93-.47-1.85-.71-2.66-.71s-1.51.24-2.22.71c-.57.35-1.04.94-1.25,1.75-.47,1.18-.58,2.48-.57,3.88l.05,10.21h-3.72Z"/>
      <polygon class="cls-1" points="671.92 129.89 671.79 103.03 675.41 103.03 675.54 128.98 675.52 129.89 671.92 129.89"/>
      <path class="cls-1" d="M105.38,0H0l.71,139.5h105.38L105.38,0ZM69.78,12.19l.03,6.1h-19.28l.08,16.67h19.28l.03,6.1h-19.28l.05,10.57h19.28l.03,6.1-34.16-.12-.23-45.41h34.16ZM5.11,135.05l-.33-65.24h96.43l.33,65.24H5.11Z"/>
      <path class="cls-1" d="M93.83,80.49h-20.68l.11,21.13h20.68l-.11-21.13ZM79.15,95.62l-.05-9.03h8.81l.05,9.03h-8.81Z"/>
      <path class="cls-1" d="M53.71,74.39c-4.88,0-8.93,3.99-8.91,9.03.03,5.06,4.12,9.15,9,9.15s8.93-4.21,8.91-9.15c-.02-4.92-4.12-9.03-9-9.03ZM53.66,86.47c-1.51,0-2.92-1.28-2.93-3.05,0-1.51,1.38-2.93,2.9-2.93s2.92,1.42,2.93,2.93c0,1.77-1.38,3.05-2.9,3.05Z"/>
      <path class="cls-1" d="M73.23,95.63l-.02-3.05h-5l1.03-3.05h3.95l-.02-3.05-2.91-.12,1.49-4.47c.56-2.11.22-2.93-1.41-3.4-1.85-.71-2.8-.47-3.94,2.22-3.2,8.81-7.88,24.42-10.99,33.09-6.73-.94-12.05,5.98-9.91,11.96,2.23,5.65,7.81,7.63,13.03,5.06,3.24-2.12,7.28-8.34,1.56-14.56,2.06-5.98,5.02-14.42,7.1-20.64h6.04ZM53.86,125.9c-1.51,0-2.8-1.28-2.81-2.93,0-1.63,1.26-2.93,2.78-2.93,1.63,0,2.92,1.3,2.93,2.93,0,1.65-1.26,2.93-2.9,2.93Z"/>
      <path class="cls-1" d="M445.55,1.64c-35.79,0-65.03,30.04-64.85,66.76.19,36.73,29.63,66.76,65.52,66.76s65.01-29.91,64.83-66.76c-.19-36.83-29.61-66.76-65.5-66.76ZM446.02,117.33l-1.53-96.21c29.04,0,46.1,19.01,46.25,48.82.15,29.81-18.57,47.4-44.72,47.4Z"/>
    </g>
  </g>
</svg>