<?xml version="1.0" encoding="UTF-8"?>
<svg id="Livello_2" data-name="Livello 2" xmlns="http://www.w3.org/2000/svg" viewBox="0 0 544.5 301.11">
  <defs>
    <style>
      .cls-1 {
        fill: #fff;
      }
    </style>
  </defs>
  <g id="Livello_1-2" data-name="Livello 1">
    <g>
      <polygon class="cls-1" points="414.45 104.67 430.96 66.01 447.86 104.67 414.45 104.67"/>
      <polygon class="cls-1" points="215.46 104.67 231.97 66.01 248.87 104.67 215.46 104.67"/>
      <path class="cls-1" d="M462.42,137.75l-7.66-17.12h-47.04l-7.63,17.12h-18.38l39.9-90.8h18.51l40.81,90.8h-18.51ZM331.2,140.07c-18.38,0-32.55-5.71-39.33-22.31l14.11-7.38c4.02,9.98,14.48,14.4,25.4,14.4s20.68-3.78,20.63-13.64c-.04-8.56-8.93-12.06-20.9-13.34-18.39-2.22-35.37-7.14-35.48-27.51-.09-18.67,18.13-26.35,34.69-26.46,14.01,0,28.57,4.01,35.45,18.02l-13.46,7c-3.12-5.17-11.62-10.11-21.38-10.11-12.61,0-18.63,5.31-18.59,12.06.04,7.91,9.32,10.11,20.11,11.41,18.78,2.34,36.3,7.26,36.41,28.92.1,20.25-17.6,28.94-37.65,28.94v-.02ZM263.44,137.75l-7.68-17.12h-47.04l-7.63,17.12h-18.38l39.9-90.8h18.51l40.81,90.8h-18.5ZM167.17,137.75h-16.84l-.46-90.8h16.84l.46,90.8ZM127.96,63.55h-47.67l.13,24.77h45.12l.08,15.82h-45.12l.17,33.61h-16.98l-.46-90.67h64.65l.08,16.47ZM0,0l1.21,240c131.54-36.58,324.36-61.29,542.89-66.05l-.88-173.95H0Z"/>
      <polygon class="cls-1" points="324.04 281.22 325.92 272.15 330.96 272.15 327.88 281.22 324.04 281.22"/>
      <path class="cls-1" d="M540.42,300.39l-12.7-28.23h-5.76l-12.41,28.23h5.73l2.37-5.33h14.62l2.39,5.33h5.76ZM530.14,290.09h-10.39l5.13-12.02,5.26,12.02ZM487.49,279.57c-.01-2.11,1.85-3.76,5.77-3.76,3.05,0,5.69,1.53,6.67,3.15l4.18-2.16c-2.15-4.37-6.66-5.61-11.03-5.61-5.15.04-10.83,2.42-10.8,8.22.03,6.34,5.33,7.87,11.04,8.54,3.72.41,6.5,1.5,6.51,4.15.02,3.07-3.11,4.25-6.43,4.25s-6.64-1.38-7.89-4.49l-4.38,2.3c2.09,5.16,6.51,6.95,12.21,6.95,6.24,0,11.75-2.72,11.72-8.99-.03-6.75-5.49-8.28-11.32-8.99-3.37-.41-6.24-1.1-6.26-3.56M453.77,300.39h20.93l-.03-5.25h-15.7l-.03-6.36h15.15l-.03-4.98h-15.15l-.03-6.49h15.7l-.03-5.16h-20.93l.14,28.23ZM441.02,300.39h6.28v-.37s-8.53-9.64-8.53-9.64c5.31-1.08,7.04-5,7.02-8.87-.02-4.88-3.51-9.31-10.1-9.35-4.45,0-8.87-.04-13.32-.04l.14,28.27h5.27l-.05-9.44h5.08l8.19,9.44h.02ZM435.76,286.14h-8.05l-.05-9.03h8.05c3.31,0,4.79,2.26,4.8,4.53s-1.41,4.51-4.76,4.51M405.15,272.11c-4.39,0-8.79.04-13.18.04l.14,28.23h5.27l-.04-8.3h7.91c13.71,0,13.57-19.97-.1-19.97M405.23,287.2h-7.91l-.05-10.01h7.91c6.73,0,6.82,10.01.05,10.01M377.55,300.42h5.29l-.14-28.23h-6.04l-8.69,12.14-8.82-12.14h-6.08l.14,28.23h5.27l-.1-20.52,8.98,12.3h1.04l9.05-12.28.1,20.5ZM338.75,300.39h5.23l-.14-28.23h-5.23l.14,28.23ZM304.42,300.39h19.68l-.02-4.92h-14.38l-.12-23.32h-5.29l.14,28.23ZM279.92,300.39h6.28v-.37s-8.53-9.64-8.53-9.64c5.33-1.08,7.06-5,7.04-8.87-.02-4.88-3.53-9.31-10.12-9.35-4.43,0-8.87-.04-13.3-.04l.14,28.27h5.27l-.05-9.44h5.08l8.19,9.44ZM274.65,286.14h-8.03l-.05-9.03h8.03c3.33,0,4.81,2.26,4.82,4.53s-1.41,4.51-4.78,4.51M231.83,300.39h20.93l-.03-5.25h-15.7l-.03-6.36h15.13l-.03-4.98h-15.13l-.03-6.49h15.7l-.03-5.16h-20.93l.14,28.23ZM214.53,272.11c-4.41,0-8.79.04-13.18.04l.14,28.23h5.27l-.04-8.3h7.91c13.71,0,13.57-19.97-.1-19.97M214.61,287.2h-7.91l-.05-10.01h7.91c6.71,0,6.8,10.01.05,10.01M175.23,300.39h5.23l-.14-28.23h-5.23l.14,28.23ZM145.79,300.39h21.86l-.03-5.04h-14.5l14.4-20.7v-2.5h-21.5l.03,5h13.83l-14.1,20.17.02,3.07ZM133.16,300.39h5.23l-.14-28.23h-5.23l.14,28.23ZM114.78,300.5l11.5-28.35h-5.92l-8.37,21.98-8.53-21.98h-5.92l11.77,28.35h5.47ZM88.28,300.39h6.28v-.37s-8.53-9.64-8.53-9.64c5.31-1.08,7.06-5,7.04-8.87-.02-4.88-3.53-9.31-10.12-9.35-4.45,0-8.87-.04-13.32-.04l.14,28.27h5.27l-.05-9.44h5.08l8.21,9.44ZM82.99,286.14h-8.03l-.05-9.03h8.03c3.33,0,4.81,2.26,4.82,4.53s-1.41,4.51-4.78,4.51M40.17,300.39h20.95l-.03-5.25h-15.72l-.03-6.36h15.15l-.03-4.98h-15.15l-.03-6.49h15.72l-.03-5.16h-20.95l.14,28.23ZM14.59,279.57c-.01-2.11,1.87-3.76,5.79-3.76,3.03,0,5.67,1.53,6.65,3.15l4.18-2.16c-2.15-4.37-6.66-5.61-11.03-5.61-5.15.04-10.81,2.42-10.78,8.22.03,6.34,5.31,7.87,11.04,8.54,3.72.41,6.48,1.5,6.49,4.15.02,3.07-3.11,4.25-6.41,4.25s-6.66-1.38-7.91-4.49l-4.38,2.3c2.11,5.16,6.51,6.95,12.23,6.95,6.22,0,11.73-2.72,11.7-8.99-.03-6.75-5.47-8.28-11.32-8.99-3.37-.41-6.24-1.1-6.26-3.56"/>
      <path class="cls-1" d="M1.08,249.78c207.75-42.87,352.12-56.92,543.33-52.95l.09,28.73c-.69-.08-238.52-30.38-543.4,26.86v-2.64Z"/>
    </g>
  </g>
</svg>