<?xml version="1.0" encoding="UTF-8"?>
<svg id="Livello_2" data-name="Livello 2" xmlns="http://www.w3.org/2000/svg" viewBox="0 0 668.1 254.5">
  <defs>
    <style>
      .cls-1 {
        fill: #fff;
      }
    </style>
  </defs>
  <g id="Livello_1-2" data-name="Livello 1">
    <g>
      <path class="cls-1" d="M18.69,237.03h162.52l-1.11-219.52H17.58l1.11,219.52ZM0,0h197.52l1.29,254.5H1.29L0,0Z"/>
      <polygon class="cls-1" points="47.32 86.28 98.94 34.45 145.79 81.05 133.52 93.36 113.27 73.23 98.95 59.23 85.4 72.8 64.81 93.5 65 130.27 90.33 104.81 99.25 95.84 108.25 104.18 134.17 129.94 134.04 104.18 151.46 103.93 151.8 172.03 112.09 132.52 112.09 132.48 99.69 120.18 83.42 136.49 47.76 172.34 47.32 86.28"/>
      <polygon class="cls-1" points="134.7 219.96 134.56 193.69 101.72 161.05 99.8 159.14 94.65 164.28 94.71 164.26 65.31 193.79 65.44 219.96 48.01 219.96 47.84 186.57 87.65 146.57 87.67 146.61 99.69 134.53 108.45 143.22 151.96 186.47 152.13 219.96 134.7 219.96"/>
      <path class="cls-1" d="M305.31,107.23h23.59l.21,41.16c-11.16,7.77-28.89,13.42-43.53,13.42-31.93,0-56.09-22.96-56.25-53.4-.15-30.42,24.37-53.08,57.5-53.08,15.68,0,32.28,5.96,43.07,15.5l-15.43,19.09c-7.49-7-18.12-11.47-27.66-11.47-16.88,0-29.51,12.97-29.42,29.99.09,17,13,30.12,30.02,30.12,5.21,0,11.78-1.79,18.04-4.92l-.13-26.4Z"/>
      <path class="cls-1" d="M453.4,108.26c.15,30.6-23.91,53.56-56.32,53.56s-56.68-22.96-56.84-53.56c-.15-30.58,23.91-52.95,56.3-52.95s56.7,22.67,56.85,52.95M368.3,108.41c.09,17,13.43,30.12,28.96,30.12s28.15-13.12,28.06-30.12c-.09-17-12.68-29.83-28.37-29.83s-28.74,12.83-28.65,29.83"/>
      <path class="cls-1" d="M513.99,138.55c12.1,0,20.4-8.2,20.33-21.78l-.31-60.7h27.33l.31,60.7c.14,27.6-18.29,45.06-47.68,45.06s-48.61-17.45-48.75-45.06l-.31-60.7h27.31l.31,60.7c.07,13.44,9.08,21.78,21.46,21.78"/>
      <path class="cls-1" d="M668.1,92.75c.12,24.61-15.19,38.94-41.89,38.94h-18.67l.15,28.94h-27.31l-.53-104.58h45.98c26.7,0,42.15,13.44,42.27,36.7M642.14,93.65c-.05-10.29-6.49-15.8-17.55-15.8h-17.31l.16,32.05h17.31c11.06,0,17.44-5.65,17.39-16.25"/>
      <path class="cls-1" d="M250.92,188.26c-6.12,0-11.01,4.76-10.98,10.76.03,5.98,4.97,10.78,11.09,10.78,2.99,0,5.88-1.24,7.99-3.25l1.9,2.05c-2.64,2.52-6.28,4.09-10.03,4.09-7.81,0-14.04-6.02-14.08-13.67-.04-7.67,6.21-13.58,14.06-13.58,3.7,0,7.31,1.5,9.92,3.94l-1.84,2.24c-2.12-2.09-5.05-3.36-8.03-3.36Z"/>
      <path class="cls-1" d="M274.28,199.05c.03,5.98,5.07,10.82,11.13,10.82s10.95-4.84,10.92-10.82c-.03-6-5.01-10.76-11.03-10.76s-11.05,4.76-11.02,10.76M299.5,199.05c.04,7.61-6.21,13.65-14.1,13.65s-14.24-6.04-14.27-13.65c-.04-7.61,6.21-13.62,14.14-13.62s14.2,6,14.24,13.62"/>
      <polygon class="cls-1" points="332.48 212.57 316.11 190.62 316.22 212.57 313.11 212.57 312.98 185.52 316.18 185.52 332.55 207.52 332.44 185.52 335.51 185.52 335.64 212.57 332.48 212.57"/>
      <path class="cls-1" d="M359.51,188.41c-3.48,0-5.76,1.4-5.75,3.72.04,7.04,15.27,3.36,15.28,13.18.02,4.49-3.96,7.38-9.76,7.38-3.94,0-7.82-1.69-10.39-4.13l1.38-2.68c2.53,2.42,5.98,3.8,9.03,3.8,3.92,0,6.35-1.59,6.33-4.21,0-7.24-15.23-3.4-15.28-13.1-.02-4.27,3.7-6.97,9.33-6.97,3.13,0,6.34,1,8.59,2.52l-1.3,2.75c-2.43-1.59-5.3-2.26-7.47-2.26Z"/>
      <path class="cls-1" d="M394.1,209.88c5.15,0,8.23-3.09,8.2-8.44l-.08-15.92h3.09l.08,15.92c.04,7.08-4.19,11.25-11.28,11.25s-11.45-4.17-11.49-11.25l-.08-15.92h3.09l.08,15.92c.03,5.35,3.23,8.44,8.37,8.44h.02Z"/>
      <polygon class="cls-1" points="420.93 212.57 420.79 185.52 423.9 185.52 424.02 209.72 435.89 209.72 435.9 212.57 420.93 212.57"/>
      <path class="cls-1" d="M453.99,212.57l-.12-24.2h-8.81v-2.85s20.76,0,20.76,0v2.85s-8.84,0-8.84,0l.12,24.2h-3.11Z"/>
      <polygon class="cls-1" points="478.19 185.52 481.3 185.52 481.44 212.58 478.33 212.58 478.19 185.52"/>
      <path class="cls-1" d="M500.6,185.52h.02-.02ZM516.89,212.57l-16.36-21.96.11,21.96h-3.11l-.14-27.05h3.21l16.36,22-.11-22h3.07l.14,27.05h-3.17Z"/>
      <path class="cls-1" d="M555.01,199.36h2.75l.05,9.82c-2.66,2.14-6.42,3.52-10.06,3.52-7.85,0-14.14-6.02-14.18-13.65-.04-7.61,6.23-13.62,14.2-13.62,3.76,0,7.41,1.44,10.01,3.72l-1.78,2.24c-2.21-1.97-5.19-3.13-8.22-3.13-6.2,0-11.13,4.78-11.1,10.78.03,6,5.05,10.82,11.25,10.82,2.42,0,5.01-.85,7.11-2.28l-.04-8.22Z"/>
    </g>
  </g>
</svg>