<?xml version="1.0" encoding="UTF-8"?>
<svg id="Livello_2" data-name="Livello 2" xmlns="http://www.w3.org/2000/svg" viewBox="0 0 286.65 326.07">
  <defs>
    <style>
      .cls-1 {
        fill: #fff;
      }
    </style>
  </defs>
  <g id="Livello_1-2" data-name="Livello 1">
    <g>
      <path class="cls-1" d="M57.3,325.6h-29.08c-6.65,0-12.15-2.2-16.54-6.63-4.37-4.43-6.58-10-6.62-16.74-.03-6.71,2.1-12.1,6.39-16.21,4.29-4.11,9.81-6.16,16.54-6.16h25.85l.04,7.97h-25.85c-4.37,0-7.96,1.4-10.78,4.21-2.84,2.81-4.24,6.43-4.21,10.86.02,4.37,1.46,7.93,4.32,10.64,2.85,2.73,6.45,4.09,10.82,4.09h21.11l-.05-9.98h-21.7l-.04-7.3h29.67l.13,25.24Z"/>
      <path class="cls-1" d="M118.18,325.6h-11.79l-12.85-12.87h-17.22l-.04-7.89h21.43c2.95,0,5.43-.65,7.43-1.95,2.27-1.52,3.41-3.68,3.39-6.49-.03-5.73-3.66-8.58-10.9-8.58h-26.13l.19,37.78h-7.97l-.23-45.75h32.82c5.9,0,10.67,1.26,14.3,3.82,4.17,2.89,6.25,7.16,6.28,12.79.02,3.84-1.16,7.14-3.57,9.92-2.21,2.6-5.25,4.41-9.08,5.43l13.94,13.79Z"/>
      <path class="cls-1" d="M136.73,298.4h26.13l.04,7.97h-26.13l-.04-7.97ZM125.55,325.6l-.23-45.75h39.53l.04,7.97h-31.56l.15,29.81h31.56l.04,7.97h-39.53Z"/>
      <path class="cls-1" d="M219.57,321.64c.02,2.95-.98,4.43-2.99,4.43-1.48,0-3.13-.92-4.97-2.75l-29.49-29.47.16,31.76h-7.91l-.21-41.79c0-1.08.28-2.01.85-2.79.59-.77,1.41-1.16,2.47-1.16,1.48,0,2.99.77,4.58,2.34l29.48,29.4-.16-31.74h7.97l.21,41.79Z"/>
      <polygon class="cls-1" points="245.72 325.6 245.53 287.82 227.44 287.82 227.4 279.85 271.42 279.85 271.46 287.82 253.41 287.82 253.61 325.6 245.72 325.6"/>
      <polygon class="cls-1" points="278.1 279.85 286.07 279.85 286.3 325.6 278.33 325.6 278.1 279.85"/>
      <path class="cls-1" d="M285.34,0H0l.3,59.74c24.44-19.66,54.71-29.53,90.89-29.53h155.52l.24,47.95H91.43c-26.33,0-47.97,8.46-64.94,25.38C9.52,120.45,1.11,142.22,1.25,168.8c.13,26.33,8.76,47.67,25.9,64.06,17.14,16.37,38.87,24.57,65.19,24.57h126.91l-.3-60.03H88.42l-.22-43.92h178.48l.54,106.72h19.44L285.34,0Z"/>
    </g>
  </g>
</svg>