<?xml version="1.0" encoding="UTF-8"?>
<svg id="Livello_2" data-name="Livello 2" xmlns="http://www.w3.org/2000/svg" viewBox="0 0 925.55 229.46">
  <defs>
    <style>
      .cls-1 {
        fill: #fff;
      }
    </style>
  </defs>
  <g id="Livello_1-2" data-name="Livello 1">
    <g>
      <path class="cls-1" d="M54.27,76.27c-.05-9.84,7.92-17.77,17.72-17.77s17.85,7.99,17.9,17.77-7.92,17.77-17.72,17.77-17.85-7.99-17.9-17.77"/>
      <path class="cls-1" d="M69.91,27.14c-25.34,1.06-45.7,21.13-47.14,46.36H0C1.46,35.8,31.89,5.61,69.79,4.49l.11,22.65Z"/>
      <path class="cls-1" d="M75.57,125.12c25.33-1.52,45.08-22.12,46.16-47.34h22.76c-.81,37.7-30.9,68.2-68.75,69.99l-.11-22.65h-.06Z"/>
      <path class="cls-1" d="M48.22,148.17c-1.64-25.28-22.4-45.1-47.69-46.28l-.11-22.73c37.8,1,68.53,31.17,70.51,68.94h-22.71v.06Z"/>
      <path class="cls-1" d="M97.65,3.77c1.19,25.28,21.4,45.69,46.63,47.28l.11,22.71c-37.81-1.65-68.2-32.15-69.51-69.99h22.76Z"/>
      <path class="cls-1" d="M190.61,1.72h8.46l.11,21.15h-8.46l-.11-21.15ZM190.82,42.8h8.46l.53,105.5h-8.46l-.53-105.5Z"/>
      <path class="cls-1" d="M232.79,42.79h8.46l.11,22.59h.47c1.44-3.97,3.54-7.48,6.3-10.57,2.76-3.11,5.93-5.69,9.56-7.93,3.63-2.18,7.58-3.84,11.88-4.96s8.67-1.65,13.15-1.65c6.69,0,12.38.73,17.09,2.26,4.71,1.52,8.56,3.48,11.54,5.94,3,2.44,5.32,5.21,7.07,8.3,1.73,3.11,2.94,6.22,3.75,9.33.74,3.17,1.23,6.2,1.38,9.11.13,2.97.22,5.47.24,7.71l.33,65.3h-8.48l-.34-66.68c-.01-2.58-.23-5.88-.72-9.84-.47-3.97-1.75-7.79-3.95-11.43-2.2-3.62-5.46-6.73-9.85-9.31-4.38-2.58-10.47-3.9-18.22-3.9-6.55,0-12.37,1.12-17.38,3.31-5.03,2.18-9.38,5.21-12.94,9.11-3.54,3.9-6.23,8.52-8.06,13.93-1.82,5.41-2.74,11.35-2.7,17.77l.29,57.04h-8.46l-.53-105.44Z"/>
      <path class="cls-1" d="M342.54,49.52l-.03-6.81h20.52l-.11-21.72c-.02-3.7.61-6.87,1.94-9.56,1.3-2.72,3.14-4.82,5.46-6.47s4.94-2.91,7.99-3.7c3.03-.79,6.27-1.26,9.71-1.26,2.52,0,5.9.33,10.06,1.06l.03,6.81c-4.15-.67-7.54-1.06-10.06-1.06-4.76,0-8.73.98-11.89,2.97-3.18,1.99-4.73,5.94-4.7,11.82l.11,21.11h23.89l.03,6.81h-23.89l.5,98.71h-8.48l-.5-98.71h-20.58Z"/>
      <path class="cls-1" d="M418.63,95.54c.03,6.28,1.05,12.36,3,18.16,1.94,5.8,4.82,10.96,8.54,15.5,3.72,4.51,8.38,8.13,13.89,10.76,5.5,2.66,11.87,4.03,18.95,4.03s13.43-1.32,18.97-4.03c5.48-2.64,10.1-6.26,13.78-10.76,3.7-4.49,6.5-9.7,8.4-15.5,1.88-5.8,2.85-11.88,2.82-18.16-.03-6.28-1.07-12.36-3-18.16-1.96-5.8-4.82-10.96-8.56-15.5-3.72-4.51-8.38-8.13-13.89-10.76-5.5-2.66-11.87-4.03-19.01-4.03s-13.43,1.32-18.91,4.03c-5.48,2.64-10.1,6.26-13.78,10.76-3.68,4.49-6.5,9.7-8.38,15.5-1.9,5.8-2.85,11.88-2.82,18.16M410.15,95.54c-.04-7.54,1.05-14.6,3.34-21.27,2.29-6.59,5.62-12.47,10.04-17.55,4.4-5.1,9.93-9.05,16.41-12.02,6.54-2.97,14.01-4.43,22.49-4.43s16.02,1.46,22.51,4.43c6.57,2.97,12.08,6.93,16.55,12.02,4.45,5.08,7.93,10.9,10.2,17.55,2.3,6.67,3.51,13.73,3.55,21.27s-1.11,14.66-3.34,21.33c-2.27,6.73-5.62,12.53-10.02,17.57-4.42,5.02-9.95,8.97-16.43,11.88-6.54,2.97-14.01,4.41-22.47,4.41s-16.02-1.44-22.53-4.41c-6.57-2.97-12.08-6.95-16.53-11.88-4.47-5.04-7.94-10.84-10.22-17.57-2.36-6.67-3.51-13.79-3.55-21.33"/>
      <path class="cls-1" d="M593.39,42.13h19.18l-.16-31.82h25.42l.16,31.82h22.96l.09,17.43h-22.96l.29,56.65c.01,2.44.16,4.56.37,6.34.21,1.79.74,3.31,1.62,4.49.79,1.26,2.06,2.18,3.71,2.77,1.66.61,3.84.92,6.67.92,1.79,0,3.58,0,5.37-.12,1.79,0,3.58-.33,5.35-.73l.09,18.08c-2.83.28-5.55.53-8.26.81-2.64.26-5.43.39-8.26.39-6.69,0-12.12-.61-16.16-1.73-4.12-1.18-7.29-2.89-9.63-5.14-2.33-2.24-3.86-5.1-4.75-8.52-.8-3.44-1.36-7.34-1.52-11.69l-.32-62.59h-19.18l-.09-17.43v.06Z"/>
      <path class="cls-1" d="M767.13,85.84c-.35-3.7-1.16-7.26-2.63-10.7-1.41-3.42-3.42-6.39-5.87-8.91-2.47-2.5-5.45-4.55-8.98-6.14-3.51-1.57-7.41-2.38-11.72-2.38s-8.54.73-12.17,2.18c-3.63,1.46-6.73,3.42-9.36,5.94-2.56,2.52-4.67,5.49-6.17,8.91-1.58,3.44-2.42,7.12-2.54,11.1h59.44ZM707.91,101.29c.02,4.09.63,8.05,1.99,11.88,1.28,3.84,3.2,7.2,5.74,10.03,2.53,2.83,5.79,5.16,9.64,6.87,3.85,1.71,8.47,2.58,13.84,2.58,7.4,0,13.41-1.46,17.9-4.43,4.55-2.97,7.91-7.32,10.07-13.2h24.08c-1.29,5.75-3.58,10.9-6.81,15.39-3.22,4.49-7.16,8.32-11.79,11.41-4.61,3.11-9.77,5.43-15.45,7-5.76,1.59-11.69,2.38-17.91,2.38-9.07,0-17.09-1.38-24.12-4.09-7.02-2.72-12.94-6.61-17.79-11.49-4.87-4.96-8.53-10.82-11.01-17.63-2.49-6.87-3.79-14.4-3.83-22.59-.04-7.52,1.26-14.66,3.81-21.45,2.54-6.81,6.29-12.75,11.09-17.83,4.81-5.16,10.62-9.19,17.49-12.22,6.79-3.03,14.54-4.49,23.19-4.49s17.22,1.71,24.44,5.21c7.24,3.5,13.22,8.13,18.01,13.87,4.79,5.73,8.27,12.34,10.49,19.79,2.22,7.46,2.79,15.13,1.77,23.12h-84.78l-.06-.14Z"/>
      <path class="cls-1" d="M898.25,77.65c-1.1-6.61-3.95-11.55-8.67-14.86s-10.61-5.02-17.77-5.02c-3.25,0-6.75.53-10.44,1.52-3.69,1.06-7.13,2.97-10.22,5.75-3.11,2.77-5.73,6.73-7.75,11.69-2.1,5.02-3.05,11.55-3.01,19.62.02,4.35.58,8.78,1.72,13.12,1.14,4.37,2.95,8.26,5.41,11.69,2.48,3.44,5.66,6.22,9.51,8.32,3.85,2.12,8.56,3.17,14.04,3.17,7.42,0,13.57-2.11,18.36-6.34,4.82-4.23,7.76-10.17,8.98-17.89h25.42c-2.33,13.79-7.96,24.36-16.92,31.7-8.97,7.32-20.86,10.96-35.75,10.96-9.07,0-17.09-1.4-23.97-4.23-6.9-2.83-12.82-6.61-17.61-11.49-4.79-4.88-8.4-10.62-10.87-17.37-2.47-6.67-3.77-13.93-3.81-21.72-.04-7.79,1.1-15.39,3.45-22.37,2.35-7,5.9-13.01,10.63-18.16,4.74-5.16,10.62-9.19,17.69-12.08,7.05-2.97,15.32-4.43,24.85-4.43,6.69,0,13.05.79,19.08,2.38,6.03,1.57,11.41,3.95,16.11,7.06,4.72,3.17,8.58,7.12,11.57,11.88,3.01,4.74,4.83,10.43,5.46,17.04h-25.42l-.06.06Z"/>
      <path class="cls-1" d="M542.02,131.19c-.05-9.84,7.92-17.77,17.72-17.77s17.83,7.99,17.88,17.77c.05,9.78-7.9,17.83-17.7,17.83s-17.85-7.99-17.9-17.83"/>
      <path class="cls-1" d="M22.3,192.54c-1.26-1.06-2.92-1.59-5.04-1.59-1.77,0-3.3.33-4.48,1-1.2.65-2.18,1.51-2.9,2.64-.72,1.12-1.25,2.3-1.52,3.76-.33,1.4-.44,2.91-.43,4.37,0,1.38.13,2.77.47,4.09s.88,2.5,1.55,3.5c.65.98,1.58,1.85,2.73,2.44,1.12.59,2.44.92,4.04.92,2.44,0,4.36-.67,5.74-1.91,1.39-1.26,2.25-3.11,2.49-5.43h5.1c-.51,3.7-1.88,6.61-4.13,8.6-2.23,1.97-5.28,3.03-9.11,3.03-2.32,0-4.31-.39-6.09-1.12-1.79-.73-3.26-1.79-4.46-3.11-1.19-1.38-2.06-2.97-2.66-4.82-.6-1.91-.94-3.95-.96-6.2s.23-4.37.81-6.28c.6-1.91,1.44-3.64,2.63-5.08,1.19-1.46,2.62-2.58,4.41-3.44s3.83-1.26,6.21-1.26c1.73,0,3.33.2,4.84.61,1.52.39,2.78,1.04,3.98,1.91,1.13.85,2.06,1.91,2.85,3.23.81,1.32,1.21,2.85,1.42,4.62h-5.1c-.4-1.91-1.2-3.36-2.46-4.43l.06-.06Z"/>
      <path class="cls-1" d="M41.44,207.19c.46,1.4,1.13,2.58,2.01,3.58.85.98,1.86,1.65,2.98,2.16,1.12.53,2.38.73,3.64.73s2.52-.26,3.64-.73c1.12-.51,2.1-1.24,2.96-2.16.86-.92,1.52-2.12,1.97-3.58.47-1.38.71-3.03.7-4.82,0-1.77-.27-3.42-.75-4.82-.46-1.38-1.13-2.56-2.01-3.56-.87-.98-1.86-1.71-2.98-2.16-1.12-.53-2.38-.73-3.64-.73s-2.52.26-3.64.73c-1.12.45-2.12,1.24-2.96,2.16-.86,1-1.52,2.18-1.97,3.56-.47,1.4-.71,3.05-.7,4.82,0,1.79.27,3.44.75,4.82M36.35,196.17c.58-1.91,1.5-3.56,2.75-5.02,1.25-1.38,2.78-2.52,4.55-3.36,1.87-.79,3.91-1.2,6.29-1.2s4.51.41,6.28,1.2c1.79.79,3.33,1.91,4.6,3.36,1.25,1.38,2.18,3.11,2.8,5.02.6,1.91.94,3.95.96,6.2.01,2.26-.31,4.31-.89,6.16-.6,1.83-1.52,3.56-2.75,4.94-1.25,1.4-2.78,2.52-4.57,3.31-1.77.79-3.89,1.18-6.27,1.18s-4.43-.39-6.3-1.18c-1.85-.79-3.37-1.91-4.58-3.31-1.19-1.38-2.2-3.03-2.8-4.94-.6-1.93-.94-3.97-.96-6.16-.01-2.16.31-4.29.89-6.2"/>
      <path class="cls-1" d="M76.54,187.32l.02,4.76h.14c2.03-3.64,5.26-5.49,9.77-5.49,1.97,0,3.64.28,4.96.79,1.32.53,2.39,1.32,3.18,2.24.81.92,1.41,2.12,1.75,3.44s.47,2.83.47,4.43l.1,19.73h-4.96l-.1-20.32c0-1.85-.55-3.31-1.68-4.43-1.13-1.12-2.59-1.65-4.51-1.65-1.52,0-2.83.26-3.89.73-1.06.45-2.06,1.12-2.78,1.97-.72.87-1.23,1.85-1.64,2.97-.39,1.12-.52,2.38-.51,3.78l.09,16.96h-4.96l-.15-30.04h4.64l.06.14Z"/>
      <path class="cls-1" d="M109.62,210.63c.48.73,1.07,1.38,1.86,1.79.81.39,1.6.79,2.58.98.93.2,1.93.26,2.91.26.81,0,1.59,0,2.46-.2.86-.2,1.65-.31,2.38-.65.73-.33,1.31-.81,1.78-1.4.45-.59.72-1.38.72-2.3,0-1.26-.48-2.24-1.47-2.91-1.01-.65-2.19-1.18-3.65-1.57-1.46-.41-3.05-.81-4.77-1.12-1.73-.33-3.33-.81-4.79-1.4-1.46-.59-2.64-1.46-3.65-2.5-.99-1.06-1.47-2.58-1.48-4.56,0-1.52.32-2.77.98-3.9.64-1.12,1.5-1.99,2.62-2.64,1.06-.67,2.26-1.2,3.63-1.51,1.4-.33,2.65-.47,3.97-.47,1.73,0,3.31.14,4.7.47,1.4.31,2.72.79,3.84,1.51,1.13.73,2,1.65,2.67,2.91.66,1.18,1.06,2.7,1.2,4.54h-4.96c-.06-.98-.34-1.79-.74-2.44-.4-.67-1.01-1.12-1.66-1.51-.67-.39-1.4-.67-2.19-.87-.81-.2-1.6-.26-2.46-.26-.73,0-1.46,0-2.24.2-.73.12-1.45.33-2.04.59-.61.26-1.12.65-1.53,1.18-.39.53-.58,1.12-.58,1.93,0,.85.34,1.57.94,2.11s1.4,1.06,2.33,1.38c.93.41,1.99.67,3.17.92,1.2.28,2.32.53,3.53.81,1.24.26,2.44.59,3.64.98,1.18.39,2.25.92,3.12,1.51.85.59,1.66,1.46,2.2,2.44.54,1,.86,2.18.86,3.58,0,1.85-.38,3.29-1.1,4.55-.72,1.2-1.7,2.18-2.96,2.91-1.2.73-2.57,1.26-4.1,1.51-1.51.26-3.03.47-4.56.47-1.65,0-3.25-.22-4.76-.53-1.52-.33-2.84-.92-4.04-1.73-1.2-.79-2.13-1.85-2.79-3.09-.68-1.26-1.08-2.91-1.22-4.76h4.96c0,1.06.29,1.99.74,2.77h-.06Z"/>
      <path class="cls-1" d="M156.64,217.36l-.02-4.76h-.14c-1.05,1.85-2.36,3.25-4.01,4.09-1.65.87-3.57,1.34-5.76,1.34-1.97,0-3.64-.28-4.96-.81-1.32-.53-2.39-1.24-3.18-2.24-.81-.98-1.41-2.11-1.75-3.42-.32-1.32-.47-2.85-.47-4.43l-.1-19.75h4.96l.1,20.34c0,1.85.55,3.31,1.68,4.43,1.07,1.12,2.59,1.65,4.51,1.65,1.52,0,2.83-.28,3.89-.73,1.12-.47,2.06-1.12,2.78-1.99.72-.85,1.23-1.85,1.64-2.97.39-1.12.52-2.38.51-3.76l-.09-16.98h4.96l.15,30.04h-4.64l-.06-.06Z"/>
      <polygon class="cls-1" points="170.25 175.9 175.22 175.9 175.43 217.36 170.46 217.36 170.25 175.9"/>
      <path class="cls-1" d="M197.32,187.32l.02,4.35h-6.02l.09,18.63c0,.59,0,1.04.14,1.38.12.33.26.59.54.81.26.2.65.31,1.12.39.45.06,1.12.06,1.91.06h2.26l.02,4.37h-3.78c-1.26,0-2.38-.08-3.31-.28-.93-.2-1.66-.45-2.19-.92-.61-.45-1.01-1.12-1.27-1.99-.28-.85-.4-1.97-.41-3.36l-.1-19.09h-5.1l-.02-4.35h5.1l-.05-8.97h4.96l.05,8.97h6.02Z"/>
      <path class="cls-1" d="M204.46,175.83h4.98l.03,6.08h-4.98l-.03-6.08ZM204.52,187.34h4.98l.15,30.02h-4.98l-.15-30.02Z"/>
      <path class="cls-1" d="M223.26,187.32l.02,4.76h.14c2.03-3.64,5.26-5.49,9.77-5.49,1.97,0,3.64.28,4.96.79,1.32.53,2.39,1.32,3.18,2.24.81.92,1.41,2.12,1.75,3.44.32,1.32.47,2.83.47,4.43l.1,19.73h-4.96l-.1-20.32c0-1.85-.55-3.31-1.68-4.43-1.13-1.12-2.59-1.65-4.51-1.65-1.51,0-2.83.26-3.89.73-1.06.45-2.06,1.12-2.78,1.97-.72.87-1.23,1.85-1.64,2.97-.39,1.12-.52,2.38-.51,3.78l.09,16.96h-4.96l-.15-30.04h4.64l.06.14Z"/>
      <path class="cls-1" d="M268.84,212.34c1.14-.65,2.06-1.57,2.78-2.64.72-1.04,1.17-2.38,1.5-3.76.33-1.4.52-2.77.51-4.15,0-1.34-.15-2.66-.49-3.9-.32-1.26-.8-2.46-1.47-3.44-.65-.98-1.58-1.85-2.65-2.44s-2.39-.92-3.98-.92-2.97.33-4.09.92c-1.14.59-2.06,1.38-2.78,2.38-.72.98-1.25,2.16-1.56,3.5-.33,1.32-.46,2.7-.45,4.09,0,1.38.15,2.7.41,4.09.28,1.38.74,2.58,1.42,3.7.67,1.12,1.52,1.97,2.65,2.64,1.07.65,2.46.98,4.12.98s3.05-.33,4.17-.98l-.08-.08ZM275.2,225.82c-2.23,2.44-5.75,3.64-10.57,3.64-1.4,0-2.85-.14-4.31-.47-1.46-.33-2.78-.79-3.98-1.52-1.18-.73-2.19-1.59-2.93-2.72-.73-1.12-1.19-2.5-1.26-4.09h4.96c0,.87.34,1.65.88,2.24.51.61,1.19,1.12,1.92,1.53.73.39,1.6.65,2.46.85.85.2,1.71.28,2.58.28,1.65,0,2.97-.28,4.09-.87,1.12-.53,2.04-1.32,2.76-2.3.72-1,1.25-2.18,1.58-3.58.33-1.38.46-2.89.45-4.54v-1.99h-.15c-.86,1.85-2.11,3.25-3.82,4.09-1.73.87-3.57,1.32-5.48,1.32-2.26,0-4.25-.39-5.91-1.18-1.66-.79-3.04-1.91-4.17-3.31-1.15-1.38-2-2.97-2.54-4.82-.62-1.85-.88-3.76-.9-5.8,0-1.79.24-3.64.7-5.49s1.24-3.56,2.3-5.08c1.05-1.51,2.5-2.77,4.27-3.76,1.79-1,3.97-1.46,6.54-1.46,1.93,0,3.64.39,5.24,1.26,1.6.85,2.86,2.11,3.72,3.76l-.02-4.29h4.64l.14,27.47c.02,4.88-1.08,8.58-3.33,11.02l.14-.2Z"/>
      <path class="cls-1" d="M346.01,210.63c.48.73,1.07,1.38,1.86,1.79.81.39,1.6.79,2.58.98.93.2,1.93.26,2.91.26.81,0,1.59,0,2.46-.2.86-.2,1.65-.31,2.38-.65.73-.33,1.31-.81,1.78-1.4.45-.59.72-1.38.72-2.3,0-1.26-.48-2.24-1.47-2.91-1.01-.65-2.19-1.18-3.65-1.57-1.46-.41-3.05-.81-4.77-1.12-1.73-.33-3.33-.81-4.79-1.4-1.46-.59-2.64-1.46-3.65-2.5-.99-1.06-1.47-2.58-1.48-4.56,0-1.52.32-2.77.98-3.9.64-1.12,1.5-1.99,2.62-2.64,1.06-.67,2.26-1.2,3.63-1.51,1.4-.33,2.65-.47,3.97-.47,1.73,0,3.31.14,4.7.47,1.4.31,2.72.79,3.84,1.51,1.13.73,2,1.65,2.67,2.91.66,1.18,1.06,2.7,1.2,4.54h-4.96c-.06-.98-.34-1.79-.74-2.44-.4-.67-1.01-1.12-1.66-1.51-.67-.39-1.4-.67-2.19-.87-.81-.2-1.6-.26-2.46-.26-.73,0-1.46,0-2.24.2-.73.12-1.45.33-2.04.59-.61.26-1.12.65-1.53,1.18-.39.53-.58,1.12-.58,1.93,0,.85.34,1.57.94,2.11s1.4,1.06,2.33,1.38c.93.41,1.99.67,3.17.92,1.2.28,2.32.53,3.53.81,1.26.26,2.44.59,3.65.98,1.18.39,2.25.92,3.12,1.51.85.59,1.66,1.46,2.2,2.44.54,1,.86,2.18.86,3.58,0,1.85-.38,3.29-1.1,4.55-.72,1.2-1.7,2.18-2.96,2.91-1.2.73-2.57,1.26-4.1,1.51-1.51.26-3.03.47-4.56.47-1.65,0-3.25-.22-4.76-.53-1.52-.33-2.84-.92-4.04-1.73-1.2-.79-2.13-1.85-2.79-3.09-.68-1.26-1.08-2.91-1.22-4.76h4.96c0,1.06.29,1.99.74,2.77h-.06Z"/>
      <path class="cls-1" d="M392.84,196.17c-.46-1.06-1.05-1.91-1.78-2.7-.73-.81-1.66-1.4-2.67-1.79-.99-.39-2.19-.67-3.37-.67s-2.46.2-3.44.67c-1.06.45-1.92,1.06-2.65,1.85s-1.31,1.65-1.7,2.7c-.41,1.06-.66,2.12-.71,3.31h17.26c-.06-1.18-.33-2.24-.8-3.31l-.14-.06ZM394.14,215.45c-2.23,1.71-5.08,2.58-8.47,2.58-2.38,0-4.49-.39-6.28-1.2-1.79-.79-3.26-1.83-4.44-3.23-1.21-1.38-2.14-3.03-2.74-5.02-.62-1.91-.95-4.03-1.04-6.34-.01-2.32.31-4.37,1.03-6.28.72-1.91,1.63-3.56,2.89-4.96,1.25-1.38,2.76-2.5,4.49-3.23,1.71-.79,3.63-1.18,5.68-1.18,2.64,0,4.9.51,6.7,1.63,1.78,1.12,3.18,2.52,4.25,4.23,1.07,1.71,1.81,3.56,2.21,5.55.4,1.99.61,3.9.5,5.75h-22.51c0,1.32.15,2.58.47,3.76.34,1.2.96,2.24,1.69,3.17.73.92,1.78,1.65,2.98,2.18,1.18.53,2.64.79,4.23.79,2.12,0,3.83-.45,5.15-1.44,1.33-1,2.25-2.46,2.63-4.43h4.9c-.65,3.36-2.1,5.86-4.33,7.59v.06Z"/>
      <path class="cls-1" d="M423.41,192.54c-1.26-1.06-2.92-1.59-5.04-1.59-1.77,0-3.3.33-4.48,1-1.2.65-2.18,1.51-2.9,2.64-.72,1.12-1.25,2.3-1.52,3.76-.33,1.4-.44,2.91-.43,4.37,0,1.38.13,2.77.47,4.09.34,1.32.88,2.5,1.55,3.5.65.98,1.58,1.85,2.73,2.44,1.12.59,2.44.92,4.04.92,2.44,0,4.36-.67,5.74-1.91,1.39-1.26,2.25-3.11,2.49-5.43h5.1c-.51,3.7-1.88,6.61-4.13,8.6-2.23,1.97-5.28,3.03-9.11,3.03-2.32,0-4.31-.39-6.09-1.12-1.79-.73-3.26-1.79-4.46-3.11-1.19-1.38-2.06-2.97-2.66-4.82-.6-1.91-.94-3.95-.96-6.2-.01-2.24.23-4.37.81-6.28.6-1.91,1.44-3.64,2.63-5.08,1.19-1.46,2.62-2.58,4.41-3.44s3.83-1.26,6.23-1.26c1.71,0,3.31.2,4.82.61,1.52.39,2.78,1.04,3.98,1.91,1.13.85,2.06,1.91,2.85,3.23.81,1.32,1.21,2.85,1.42,4.62h-5.1c-.4-1.91-1.2-3.36-2.46-4.43l.06-.06Z"/>
      <path class="cls-1" d="M458.48,217.36l-.02-4.76h-.14c-1.05,1.85-2.36,3.25-4.01,4.09-1.65.87-3.57,1.34-5.74,1.34-1.99,0-3.66-.28-4.98-.81-1.32-.53-2.39-1.24-3.18-2.24-.81-.98-1.41-2.11-1.75-3.42s-.47-2.85-.47-4.43l-.1-19.75h4.96l.1,20.34c0,1.85.55,3.31,1.68,4.43,1.07,1.12,2.59,1.65,4.51,1.65,1.51,0,2.85-.28,3.89-.73,1.12-.47,2.04-1.12,2.78-1.99.72-.85,1.23-1.85,1.64-2.97.39-1.12.5-2.38.49-3.76l-.09-16.98h4.98l.15,30.04h-4.64l-.06-.06Z"/>
      <path class="cls-1" d="M476.39,187.32l.03,6.34h.14c1.17-2.44,2.62-4.23,4.4-5.41,1.73-1.18,3.97-1.71,6.6-1.65l.03,5.21c-1.97,0-3.62.28-5.01.79-1.39.53-2.51,1.34-3.37,2.38-.84,1.06-1.44,2.32-1.83,3.84-.39,1.52-.57,3.23-.56,5.16l.07,13.34h-4.96l-.15-30.04h4.62v.06Z"/>
      <path class="cls-1" d="M493.02,175.83h4.96l.03,6.08h-4.96l-.03-6.08ZM493,187.34h4.96l.15,30.02h-4.96l-.15-30.02Z"/>
      <path class="cls-1" d="M520,187.32l.02,4.35h-6.02l.09,18.63c0,.59,0,1.04.14,1.38.12.33.26.59.54.81.26.2.65.31,1.12.39.45.06,1.12.06,1.91.06h2.26l.02,4.37h-3.78c-1.26,0-2.38-.08-3.31-.28-.93-.2-1.65-.45-2.19-.92-.53-.45-1.01-1.12-1.27-1.99-.26-.85-.4-1.97-.41-3.36l-.1-19.09h-5.1l-.02-4.35h5.1l-.05-8.97h4.96l.05,8.97h6.02Z"/>
      <path class="cls-1" d="M538.9,221.32c-.58,1.46-1.11,2.72-1.69,3.7-.6.98-1.19,1.85-1.86,2.44-.65.59-1.45,1.12-2.24,1.4-.86.26-1.79.45-2.91.45-.59,0-1.2,0-1.73-.14-.51-.12-1.12-.2-1.71-.39l-.02-4.54c.39.2.93.31,1.46.45.53.14,1.06.2,1.46.2,1,0,1.85-.26,2.51-.73.65-.45,1.17-1.18,1.5-2.05l2.02-5.08-12.05-29.85h5.57l8.92,24.56h.14l8.34-24.56h5.23l-12.93,34v.14Z"/>
      <path class="cls-1" d="M615.74,207.19c.46,1.4,1.13,2.58,2.01,3.58.85.98,1.86,1.63,2.98,2.16s2.38.73,3.64.73,2.52-.26,3.64-.73c1.12-.45,2.1-1.24,2.96-2.16.86-.92,1.52-2.12,1.97-3.58.47-1.38.71-3.03.7-4.82,0-1.77-.27-3.42-.75-4.82-.46-1.38-1.13-2.56-2.01-3.56-.87-.98-1.86-1.71-2.98-2.16-1.12-.47-2.38-.73-3.64-.73s-2.52.26-3.64.73c-1.12.45-2.12,1.24-2.96,2.16-.86,1-1.52,2.18-1.97,3.56-.47,1.4-.71,3.05-.7,4.82,0,1.79.27,3.44.75,4.82M610.65,196.17c.58-1.91,1.5-3.56,2.75-5.02,1.25-1.4,2.76-2.52,4.55-3.36,1.79-.87,3.91-1.2,6.29-1.2s4.51.41,6.28,1.2c1.79.79,3.32,1.91,4.58,3.36,1.27,1.38,2.22,3.11,2.82,5.02.6,1.91.94,3.95.96,6.2.01,2.26-.31,4.31-.89,6.14-.58,1.85-1.52,3.58-2.77,4.96-1.25,1.4-2.76,2.52-4.55,3.31-1.77.79-3.89,1.18-6.27,1.18s-4.45-.39-6.3-1.18c-1.85-.79-3.37-1.91-4.58-3.31-1.27-1.38-2.2-3.03-2.8-4.96-.6-1.91-.94-3.95-.96-6.14-.01-2.16.31-4.29.89-6.2"/>
      <path class="cls-1" d="M666.61,217.36l-.02-4.76h-.14c-1.05,1.85-2.36,3.25-4.01,4.09-1.65.87-3.57,1.34-5.74,1.34-1.99,0-3.64-.28-4.98-.81-1.32-.53-2.39-1.24-3.18-2.24-.81-.98-1.41-2.11-1.75-3.42-.32-1.32-.53-2.85-.53-4.43l-.1-19.75h4.96l.1,20.34c0,1.85.55,3.31,1.68,4.43,1.07,1.12,2.59,1.65,4.51,1.65,1.52,0,2.83-.28,3.89-.73,1.12-.47,2.04-1.12,2.76-1.99.72-.85,1.31-1.85,1.64-2.97.41-1.12.52-2.38.51-3.76l-.09-16.98h4.96l.15,30.04h-4.62v-.06Z"/>
      <path class="cls-1" d="M692.86,187.32l.02,4.35h-6.02l.09,18.63c0,.59,0,1.04.14,1.38.12.33.26.59.54.81.26.2.65.31,1.12.39.45.06,1.12.06,1.91.06h2.26l.02,4.37h-3.78c-1.26,0-2.38-.08-3.31-.28-.93-.2-1.65-.45-2.19-.92-.53-.45-1.01-1.12-1.27-1.99-.26-.85-.4-1.97-.41-3.36l-.1-19.09h-5.1l-.02-4.35h5.1l-.05-8.97h4.96l.05,8.97h6.02Z"/>
      <path class="cls-1" d="M703.7,210.63c.48.73,1.07,1.38,1.86,1.79.73.45,1.6.79,2.58.98,1,.2,1.93.26,2.91.26.81,0,1.59,0,2.46-.2.86-.2,1.65-.33,2.38-.65.73-.33,1.31-.81,1.78-1.4.45-.59.72-1.38.72-2.3,0-1.26-.48-2.24-1.47-2.91-1.01-.65-2.19-1.18-3.65-1.57-1.46-.41-3.05-.81-4.77-1.12-1.73-.33-3.31-.81-4.79-1.4-1.44-.59-2.64-1.46-3.65-2.5-.99-1.06-1.45-2.58-1.46-4.56,0-1.52.3-2.77.96-3.9s1.5-1.99,2.64-2.64c1.12-.67,2.24-1.2,3.61-1.51,1.34-.33,2.65-.47,3.97-.47,1.73,0,3.31.14,4.7.47,1.4.31,2.72.79,3.84,1.51,1.13.73,2,1.65,2.67,2.89.66,1.2,1.06,2.72,1.2,4.56h-4.96c-.06-.98-.34-1.79-.74-2.44-.4-.67-1.01-1.12-1.66-1.51-.67-.39-1.4-.67-2.19-.87-.81-.2-1.6-.26-2.38-.26-.73,0-1.46,0-2.26.2-.79.2-1.45.31-2.04.59-.59.26-1.12.65-1.51,1.18-.39.53-.58,1.12-.58,1.93,0,.85.26,1.57.94,2.11.65.53,1.38,1.06,2.31,1.38.93.33,1.99.67,3.19.92,1.18.28,2.32.53,3.51.81,1.26.26,2.46.59,3.65.98,1.2.39,2.25.92,3.12,1.51.87.59,1.66,1.46,2.2,2.44.54,1,.88,2.18.88,3.58,0,1.85-.38,3.29-1.1,4.55-.72,1.2-1.72,2.18-2.98,2.91-1.26.73-2.57,1.26-4.08,1.51-1.53.26-3.05.45-4.56.45-1.65,0-3.25-.2-4.76-.51-1.54-.33-2.86-.92-4.06-1.73-1.18-.79-2.11-1.85-2.79-3.09-.66-1.26-1.08-2.91-1.2-4.76h4.96c0,1.06.27,1.99.74,2.77h-.14Z"/>
      <path class="cls-1" d="M734.79,207.19c.46,1.4,1.13,2.58,2.01,3.58.85.98,1.86,1.63,2.98,2.16s2.38.73,3.64.73,2.52-.26,3.64-.73c1.12-.45,2.1-1.24,2.96-2.16.86-.92,1.52-2.12,1.97-3.58.47-1.38.71-3.03.7-4.82,0-1.77-.27-3.42-.75-4.82-.46-1.38-1.13-2.56-2.01-3.56-.87-.98-1.86-1.71-2.98-2.16-1.12-.47-2.38-.73-3.64-.73s-2.52.26-3.64.73c-1.12.45-2.12,1.24-2.96,2.16-.86,1-1.52,2.18-1.97,3.56-.47,1.4-.71,3.05-.7,4.82,0,1.79.27,3.44.75,4.82M729.7,196.17c.58-1.91,1.5-3.56,2.75-5.02,1.25-1.4,2.78-2.52,4.55-3.36,1.79-.87,3.91-1.2,6.29-1.2s4.51.41,6.28,1.2c1.79.79,3.33,1.91,4.6,3.36,1.25,1.38,2.2,3.11,2.8,5.02.6,1.91.94,3.95.96,6.2.01,2.26-.31,4.31-.89,6.14-.58,1.85-1.52,3.58-2.75,4.96-1.25,1.4-2.78,2.52-4.57,3.31-1.77.79-3.89,1.18-6.27,1.18s-4.45-.39-6.3-1.18c-1.85-.79-3.37-1.91-4.58-3.31-1.27-1.38-2.2-3.03-2.8-4.96-.6-1.91-.94-3.95-.96-6.14-.01-2.16.31-4.29.89-6.2"/>
      <path class="cls-1" d="M785.59,217.36l-.02-4.76h-.14c-1.05,1.85-2.36,3.25-4.01,4.09-1.65.87-3.55,1.34-5.74,1.34-1.99,0-3.66-.28-4.98-.81-1.32-.53-2.39-1.24-3.18-2.24-.81-.98-1.41-2.11-1.75-3.42-.32-1.32-.53-2.85-.53-4.43l-.1-19.75h4.96l.1,20.34c0,1.85.55,3.31,1.68,4.43,1.07,1.12,2.59,1.65,4.51,1.65,1.52,0,2.83-.28,3.89-.73,1.12-.47,2.04-1.12,2.76-1.99.72-.85,1.31-1.85,1.64-2.97.41-1.12.52-2.38.51-3.76l-.09-16.98h4.98l.15,30.04h-4.64v-.06Z"/>
      <path class="cls-1" d="M803.51,187.32l.03,6.34h.14c1.17-2.44,2.62-4.23,4.4-5.41,1.71-1.18,3.97-1.71,6.6-1.65l.03,5.21c-1.99,0-3.64.28-5.01.79-1.39.53-2.51,1.34-3.37,2.38-.84,1.06-1.44,2.32-1.83,3.84-.39,1.52-.57,3.23-.56,5.16l.07,13.34h-4.96l-.15-30.04h4.62v.06Z"/>
      <path class="cls-1" d="M836.63,192.54c-1.26-1.06-2.92-1.59-5.04-1.59-1.79,0-3.3.33-4.48,1-1.2.65-2.18,1.51-2.84,2.64-.72,1.12-1.25,2.3-1.5,3.76-.33,1.4-.46,2.91-.45,4.37,0,1.38.15,2.77.49,4.09.32,1.32.86,2.5,1.53,3.5.67.98,1.6,1.85,2.73,2.44,1.12.59,2.44.92,4.04.92,2.44,0,4.36-.67,5.76-1.91,1.37-1.26,2.23-3.11,2.47-5.43h5.04c-.51,3.7-1.88,6.61-4.13,8.6-2.23,1.97-5.28,3.03-9.11,3.03-2.32,0-4.29-.39-6.09-1.12-1.79-.73-3.26-1.79-4.46-3.11-1.19-1.38-2.06-2.97-2.66-4.82-.6-1.91-.94-3.95-.96-6.2-.01-2.24.23-4.37.81-6.28.6-1.91,1.44-3.64,2.63-5.08,1.17-1.46,2.62-2.58,4.41-3.44s3.83-1.26,6.21-1.26c1.73,0,3.33.2,4.84.61,1.52.39,2.78,1.04,3.98,1.91,1.18.85,2.11,1.91,2.85,3.23.73,1.32,1.21,2.85,1.42,4.62h-5.1c-.4-1.91-1.2-3.36-2.46-4.43l.06-.06Z"/>
      <path class="cls-1" d="M851.55,175.83h4.98l.03,6.08h-4.98l-.03-6.08ZM851.61,187.34h4.98l.15,30.02h-4.98l-.15-30.02Z"/>
      <path class="cls-1" d="M870.35,187.32l.02,4.76h.14c2.03-3.64,5.26-5.49,9.77-5.49,1.97,0,3.64.28,4.96.79,1.32.53,2.39,1.32,3.18,2.24.81.92,1.41,2.12,1.75,3.44s.47,2.83.47,4.43l.1,19.73h-4.96l-.1-20.32c0-1.85-.55-3.31-1.68-4.43-1.07-1.06-2.59-1.65-4.51-1.65-1.51,0-2.83.26-3.89.73-1.06.45-2.06,1.12-2.78,1.97-.7.87-1.23,1.85-1.64,2.97-.39,1.12-.5,2.38-.49,3.78l.09,16.96h-4.98l-.15-30.04h4.64l.06.14Z"/>
      <path class="cls-1" d="M915.93,212.34c1.14-.65,2.06-1.57,2.78-2.64.72-1.12,1.17-2.38,1.5-3.76.33-1.4.52-2.77.51-4.15,0-1.34-.15-2.66-.49-3.9-.32-1.26-.8-2.46-1.47-3.44-.65-.98-1.58-1.85-2.65-2.44s-2.39-.92-3.98-.92-2.97.33-4.09.92c-1.14.59-2.06,1.38-2.78,2.38-.72.98-1.25,2.16-1.56,3.5-.33,1.32-.46,2.7-.45,4.09,0,1.38.15,2.7.41,4.09.28,1.38.74,2.58,1.42,3.7s1.52,1.97,2.65,2.64c1.12.65,2.46.98,4.12.98s3.05-.33,4.17-.98l-.08-.08ZM922.3,225.82c-2.23,2.44-5.75,3.64-10.57,3.64-1.4,0-2.85-.14-4.31-.47-1.46-.33-2.78-.79-3.98-1.52-1.18-.73-2.19-1.59-2.93-2.72-.79-1.12-1.19-2.5-1.28-4.09h4.98c0,.87.34,1.65.86,2.24.53.61,1.21,1.12,1.94,1.53.73.39,1.6.65,2.46.85.85.2,1.71.28,2.58.28,1.65,0,2.97-.28,4.09-.87,1.12-.59,2.04-1.32,2.76-2.3.72-1,1.25-2.18,1.58-3.58.33-1.38.52-2.89.51-4.54v-1.99h-.15c-.84,1.85-2.09,3.25-3.82,4.09-1.71.87-3.55,1.32-5.48,1.32-2.24,0-4.23-.39-5.89-1.18-1.66-.79-3.06-1.91-4.19-3.31-1.13-1.38-2-2.97-2.54-4.82-.54-1.85-.88-3.76-.89-5.8,0-1.79.26-3.64.7-5.49.46-1.85,1.24-3.56,2.3-5.08,1.05-1.51,2.5-2.77,4.29-3.76,1.77-1,3.97-1.46,6.54-1.46,1.91,0,3.64.39,5.22,1.26,1.6.85,2.86,2.11,3.74,3.76l-.02-4.29h4.62l.14,27.47c.02,4.88-1.08,8.58-3.31,11.02l.06-.2Z"/>
      <polygon class="cls-1" points="572.89 202.96 587.17 202.96 587.24 217.22 572.96 217.22 572.89 202.96"/>
      <polygon class="cls-1" points="302.88 202.96 317.16 202.96 317.24 217.22 302.95 217.22 302.88 202.96"/>
    </g>
  </g>
</svg>