<?xml version="1.0" encoding="UTF-8"?>
<svg id="Livello_2" data-name="Livello 2" xmlns="http://www.w3.org/2000/svg" viewBox="0 0 1020.75 188.2">
  <defs>
    <style>
      .cls-1 {
        fill: #fff;
      }
    </style>
  </defs>
  <g id="Livello_1-2" data-name="Livello 1">
    <g>
      <polygon class="cls-1" points="181.33 32.98 200.11 32.98 200.58 127.7 181.81 127.7 181.33 32.98"/>
      <path class="cls-1" d="M231.72,97.72c.59,4.09,1.75,7.14,3.41,9.19,3.09,3.68,8.37,5.55,15.81,5.55,4.47,0,8.06-.49,10.85-1.48,5.26-1.87,7.9-5.33,7.88-10.41-.02-2.97-1.34-5.23-3.97-6.87-2.62-1.57-6.74-2.99-12.34-4.19l-9.59-2.12c-9.42-2.12-15.94-4.41-19.53-6.89-6.12-4.13-9.2-10.59-9.25-19.4-.04-8.03,2.86-14.72,8.73-20.01,5.86-5.33,14.5-7.97,25.91-7.97,9.52,0,17.66,2.52,24.4,7.54,6.79,4.98,10.35,12.24,10.73,21.76h-18.16c-.36-5.39-2.74-9.23-7.18-11.49-2.96-1.52-6.62-2.24-10.99-2.24-4.88,0-8.75.98-11.65,2.91-2.9,1.95-4.34,4.68-4.33,8.17.02,3.21,1.46,5.59,4.33,7.16,1.84,1.06,5.8,2.3,11.82,3.7l15.6,3.72c6.84,1.63,12.02,3.8,15.52,6.49,5.41,4.23,8.14,10.33,8.18,18.32.04,7.97-3.09,14.99-9.42,20.42-6.27,5.39-15.17,8.11-26.7,8.11s-21.07-2.66-27.86-7.97c-6.78-5.35-10.2-12.69-10.24-22.04h18.06l-.02.04Z"/>
      <path class="cls-1" d="M371.61,117.27c-6.79,6.97-16.65,10.45-29.58,10.45s-22.82-3.48-29.7-10.45c-9.19-8.54-13.86-20.84-13.94-36.91-.08-16.09,4.44-28.71,13.57-36.93,6.81-6.97,16.67-10.45,29.6-10.45s22.82,3.48,29.68,10.45c9.17,8.22,13.8,20.52,13.88,36.93.08,16.07-4.42,28.37-13.51,36.91M359.72,103.67c4.4-5.47,6.56-13.22,6.51-23.32-.05-10.11-2.29-17.79-6.75-23.26-4.42-5.51-10.35-8.26-17.83-8.26s-13.44,2.72-17.88,8.19c-4.44,5.47-6.62,13.24-6.57,23.34.05,10.07,2.31,17.85,6.81,23.32,4.49,5.47,10.47,8.19,17.97,8.19s13.41-2.72,17.75-8.19"/>
      <path class="cls-1" d="M459.26,32.99h27.19l.48,94.72h-17.63l-.32-64.06c0-1.83,0-4.41.02-7.69.02-3.34.03-5.92.02-7.71l-16.72,79.49h-18.36l-17.4-79.49c0,1.79.04,4.37.1,7.71.06,3.29.09,5.86.1,7.69l.32,64.06h-17.61l-.48-94.72h27.51l16.81,74.47,15.95-74.47h.02Z"/>
      <polygon class="cls-1" points="505.01 127.71 504.53 32.99 570.86 32.99 570.94 49.75 523.09 49.75 523.2 69.88 567.13 69.88 567.21 86.33 523.28 86.33 523.4 110.67 573.5 110.67 573.58 127.71 505.01 127.71"/>
      <path class="cls-1" d="M596,44.16c7.34-7.44,16.69-11.18,28.04-11.18,15.23,0,26.37,5,33.47,14.99,3.9,5.61,6.04,11.23,6.34,16.88h-18.91c-1.24-4.35-2.83-7.61-4.77-9.82-3.46-3.94-8.57-5.9-15.32-5.9s-12.28,2.79-16.21,8.36c-3.93,5.53-5.89,13.36-5.84,23.51s2.18,17.77,6.37,22.84c4.24,5.04,9.6,7.56,16.05,7.56s11.68-2.16,15.12-6.51c1.92-2.32,3.49-5.82,4.75-10.49h18.71c-1.58,9.84-5.73,17.87-12.45,24.06-6.68,6.18-15.28,9.25-25.81,9.25-13.01,0-23.26-4.15-30.74-12.51-7.48-8.4-11.26-19.89-11.33-34.49-.08-15.8,4.09-27.98,12.51-36.54"/>
      <path class="cls-1" d="M143.67,31.07l.16,32.48-111.21.04C15.06,63.59.76,49.37.67,31.82c0-.24,0-.45.02-.69C.95,13.87,14.97,0,32.31,0s31.47,13.87,31.91,31.13h25.38l54.07-.06Z"/>
      <path class="cls-1" d="M.8,55.63s10.35,15.92,31.86,15.92h111.21l.08,15.88s-82.84-.14-111.21-.14c-19.1,0-31.83-10.01-31.83-10.01l-.11-21.62"/>
      <polygon class="cls-1" points="1.01 95.17 143.99 95.17 144.16 127.78 1.17 127.78 1.01 95.17"/>
      <path class="cls-1" d="M715.03,112.67c-8.23-9.07-12.38-20.09-12.44-32.96-.07-12.87,3.97-23.93,12.11-33.11,8.24-9.07,18.15-13.64,29.72-13.64,8.78,0,16.52,2.6,23.24,7.79,6.72,5.1,10.78,11.57,12.22,19.46h-5.98c-1.11-6.18-4.48-11.33-10.11-15.43-5.49-4.09-11.93-6.16-19.33-6.16-9.98,0-18.44,4.01-25.38,12-7.04,8.09-10.53,17.77-10.48,29.06.06,11.29,3.65,20.97,10.77,29.04,7.03,7.99,15.53,12,25.5,12,8.48,0,15.7-3.25,21.65-9.74,5.95-6.39,8.9-14.17,8.85-23.36v-2.24h-30.69l-.03-5.69h35.32l.22,44.33h-4.64l-.09-18.26c-2.17,6.18-6.06,11.14-11.75,14.82-5.57,3.8-11.86,5.69-18.84,5.69-11.57,0-21.53-4.55-29.86-13.64l.02.02Z"/>
      <path class="cls-1" d="M795.76,124.05l-.32-63.81h5.98l.07,14.38c1.69-4.6,4.15-8.34,7.42-11.23,3.37-2.79,6.96-4.19,10.76-4.19h3.44l.04,6.91c-.3,0-.65-.1-1.06-.3-.3-.22-.49-.3-.59-.3-4.68,0-8.9,1.99-12.68,6-3.78,3.99-6.21,9.03-7.26,15.11l.19,37.44h-5.98v-.02Z"/>
      <path class="cls-1" d="M880.72,86.45v-2.24c-.53-5.88-2.94-10.88-7.27-14.97-4.41-3.99-9.49-5.98-15.3-5.98s-10.81,2.05-15.08,6.14c-4.37,4.21-6.78,9.35-7.24,15.43v1.65h44.89v-.02ZM837.79,117.01c-5.21-6.3-7.85-14.58-7.9-24.87-.05-10.27,2.5-18.55,7.65-24.85,5.14-6.2,12.01-9.29,20.61-9.29s15.48,2.85,20.7,8.54c5.22,5.69,7.84,13.28,7.89,22.76v2.85s-50.87,0-50.87,0c.04,8.7,2.11,15.64,6.24,20.84,4.12,5.17,9.58,7.77,16.35,7.77,5.1,0,9.67-1.36,13.75-4.03,4.18-2.79,7.05-6.45,8.62-10.94h5.98c-.97,5.9-4.12,10.78-9.49,14.68-5.37,3.9-11.66,5.84-18.84,5.84-8.6,0-15.5-3.11-20.71-9.29v-.02Z"/>
      <path class="cls-1" d="M947.77,86.45v-2.24c-.53-5.88-2.94-10.88-7.25-14.97-4.43-3.99-9.51-5.98-15.32-5.98s-10.81,2.05-15.08,6.14c-4.37,4.21-6.78,9.35-7.24,15.43v1.65h44.89v-.02ZM904.84,117.01c-5.21-6.3-7.85-14.58-7.9-24.87-.05-10.27,2.5-18.55,7.65-24.85,5.14-6.2,12.01-9.29,20.61-9.29s15.48,2.85,20.7,8.54c5.22,5.69,7.84,13.28,7.89,22.76v2.85s-50.87,0-50.87,0c.04,8.7,2.11,15.64,6.24,20.84,4.12,5.17,9.58,7.77,16.35,7.77,5.1,0,9.67-1.36,13.75-4.03,4.18-2.79,7.05-6.45,8.62-10.94h5.98c-.97,5.9-4.12,10.78-9.49,14.68-5.37,3.9-11.66,5.84-18.84,5.84-8.6,0-15.5-3.11-20.71-9.29v-.02Z"/>
      <path class="cls-1" d="M968.04,124.05l-.32-63.81h5.98l.05,10.78c1.77-3.8,4.51-6.77,8.2-8.97,3.67-2.3,7.75-3.46,12.24-3.46,6.3,0,11.64,2.05,16.05,6.14,4.53,4.21,6.8,9.19,6.82,14.99l.22,44.33h-5.98l-.22-44.33c-.02-4.39-1.69-8.13-5-11.25-3.32-3.09-7.26-4.62-11.87-4.62-5,0-9.42,1.71-13.27,5.1-3.88,3.5-6.26,7.83-7.12,13.03l.21,42.09h-6Z"/>
      <path class="cls-1" d="M0,168.39c.03,6.14,1.61,11,4.72,14.54,3.13,3.52,7.39,5.27,12.82,5.27,4.39,0,7.98-1.3,10.76-3.9,2.78-2.62,4.51-6,5.16-10.13h-7.91c-.5,1.95-1.16,3.44-1.94,4.43-1.43,1.83-3.51,2.73-6.22,2.73s-4.87-1.06-6.61-3.19c-1.74-2.12-2.62-5.33-2.65-9.62-.02-4.27.77-7.58,2.41-9.9,1.62-2.34,3.86-3.5,6.71-3.5s4.88.83,6.31,2.48c.81.92,1.47,2.3,1.97,4.13h7.97c-.13-2.38-1.01-4.74-2.65-7.12-2.95-4.21-7.61-6.32-13.94-6.32-4.72,0-8.63,1.57-11.68,4.7C1.69,156.62-.03,161.74,0,168.41M56.81,181.45c-3.15,0-5.67-1.18-7.57-3.5-1.88-2.34-2.84-5.65-2.86-9.94-.02-4.31.91-7.59,2.76-9.94,1.86-2.32,4.37-3.48,7.54-3.48s5.67,1.18,7.53,3.5c1.86,2.34,2.8,5.65,2.82,9.92.02,4.25-.89,7.61-2.72,9.94-1.84,2.32-4.33,3.5-7.5,3.5M74.98,168.03c-.04-6.98-1.99-12.24-5.84-15.72-2.89-2.97-7.07-4.45-12.5-4.45s-9.61,1.48-12.45,4.45c-3.86,3.48-5.76,8.74-5.72,15.72.04,6.98,1.99,12.1,5.88,15.72,2.87,2.97,7.05,4.45,12.5,4.45s9.59-1.48,12.45-4.45c3.84-3.62,5.72-8.87,5.69-15.72M102.04,161.15c0,1.97-.47,3.42-1.49,4.35-1,.91-2.41,1.38-4.24,1.38h-7.18l-.06-11.23h7.18c1.83,0,3.23.43,4.26,1.26,1.03.85,1.53,2.26,1.54,4.25M109.95,161.09c-.02-4.11-1.18-7.18-3.41-9.13-2.25-1.97-5.29-2.95-9.05-2.95h-16.35l.19,38.13h7.89l-.07-13.71h7.93c4.15,0,7.33-.92,9.55-2.79,2.21-1.87,3.32-5.04,3.3-9.54M144.46,149.01h-27.94l.19,38.13h28.88l-.03-6.87h-21.09l-.05-9.8h18.51l-.03-6.61h-18.51l-.04-8.09h20.17l-.03-6.75-.02-.02ZM168.36,155.64c1.63,0,2.87.22,3.7.67,1.46.79,2.2,2.34,2.21,4.64.01,2.12-.75,3.58-2.24,4.31-.84.39-2.12.63-3.83.63h-8.58l-.05-10.25h8.79ZM169.98,149.01h-18.22l.19,38.13h7.77l-.08-14.95h7.79c2.22,0,3.72.41,4.53,1.22.83.81,1.23,2.42,1.28,4.88l.08,3.52c0,1.14.15,2.22.35,3.29.12.51.28,1.2.52,2.05h8.79v-.96c-.77-.47-1.27-1.2-1.47-2.18-.16-.63-.21-1.79-.21-3.52v-2.56c-.03-2.68-.41-4.66-1.14-5.96-.75-1.3-2-2.3-3.75-3.03,2.1-.73,3.59-1.97,4.51-3.7.9-1.75,1.34-3.54,1.33-5.33,0-1.52-.25-2.83-.73-4.01-.46-1.16-1.11-2.24-1.93-3.21-.97-1.16-2.17-2.05-3.57-2.66-1.42-.61-3.41-.92-6.03-.98M186.62,149.01l.03,6.75h11.45l.16,31.38h8.03l-.16-31.38h11.41l-.03-6.75h-30.89ZM222.28,172.44c.02,4.05.67,7.2,1.94,9.46,2.36,4.13,6.86,6.22,13.45,6.22s11.05-2.09,13.35-6.22c1.25-2.26,1.86-5.41,1.84-9.46l-.12-23.43h-8.09l.12,23.41c.01,2.62-.29,4.55-.9,5.75-.95,2.12-3.03,3.21-6.24,3.21s-5.34-1.08-6.31-3.21c-.62-1.2-.94-3.11-.95-5.75l-.12-23.41h-8.09l.12,23.43ZM277.15,155.64c1.63,0,2.87.22,3.7.67,1.46.79,2.2,2.34,2.21,4.64.01,2.12-.75,3.58-2.24,4.31-.84.39-2.12.63-3.83.63h-8.58l-.05-10.25h8.79ZM278.78,149.01h-18.22l.19,38.13h7.77l-.08-14.95h7.79c2.2,0,3.72.41,4.53,1.22.81.81,1.23,2.42,1.28,4.88l.08,3.52c0,1.14.13,2.22.35,3.29.1.51.28,1.2.52,2.05h8.79v-.96c-.77-.47-1.27-1.2-1.47-2.18-.16-.63-.23-1.79-.23-3.52v-2.56c-.03-2.68-.39-4.66-1.12-5.96-.75-1.3-2-2.3-3.75-3.03,2.1-.73,3.59-1.97,4.49-3.7.9-1.75,1.36-3.54,1.35-5.33,0-1.52-.25-2.83-.73-4.01-.46-1.16-1.11-2.24-1.93-3.21-.99-1.16-2.17-2.05-3.57-2.66-1.42-.61-3.41-.92-6.03-.98M326.79,149.01h-27.94l.19,38.13h28.88l-.03-6.87h-21.09l-.05-9.8h18.51l-.03-6.61h-18.51l-.04-8.09h20.17l-.03-6.75-.02-.02ZM376.79,149.01h-27.94l.19,38.13h28.88l-.03-6.87h-21.07l-.05-9.8h18.51l-.03-6.61h-18.51l-.04-8.09h20.15l-.03-6.75-.02-.02ZM405.89,149.01h-7.91l.19,38.13h7.91l-.19-38.13ZM431.89,178.99l-7.1-29.97h-11.59l.19,38.13h7.44l-.13-25.79c0-.75,0-1.79-.04-3.11,0-1.34-.05-2.38-.05-3.11l7.34,32.01h7.73l7.06-32.01c0,.73,0,1.77,0,3.11,0,1.32,0,2.36,0,3.11l.13,25.79h7.42l-.19-38.13h-11.45l-6.74,29.97h-.02ZM478.53,161.15c0,1.97-.49,3.42-1.49,4.35-1,.91-2.41,1.38-4.24,1.38h-7.18l-.06-11.23h7.18c1.83,0,3.23.43,4.26,1.26,1.01.85,1.53,2.26,1.54,4.25M486.44,161.09c-.02-4.11-1.18-7.18-3.41-9.13-2.25-1.97-5.29-2.95-9.05-2.95h-16.37l.19,38.13h7.91l-.07-13.71h7.93c4.15,0,7.33-.92,9.55-2.79,2.19-1.87,3.32-5.04,3.3-9.54M520.93,149.01h-27.92l.19,38.13h28.88l-.03-6.87h-21.09l-.05-9.8h18.51l-.03-6.61h-18.51l-.04-8.09h20.15l-.03-6.75-.02-.02ZM544.85,155.64c1.63,0,2.87.22,3.68.67,1.48.79,2.22,2.34,2.23,4.64.01,2.12-.75,3.58-2.24,4.31-.86.39-2.14.63-3.83.63h-8.58l-.05-10.25h8.8ZM546.47,149.01h-18.22l.19,38.13h7.77l-.08-14.95h7.77c2.22,0,3.74.41,4.55,1.22.81.81,1.23,2.42,1.28,4.88l.08,3.52c0,1.14.13,2.22.35,3.29.1.51.28,1.2.52,2.05h8.79v-.96c-.77-.47-1.27-1.2-1.47-2.18-.16-.63-.23-1.79-.23-3.52v-2.56c-.03-2.68-.39-4.66-1.13-5.96-.75-1.3-2-2.3-3.75-3.03,2.1-.73,3.59-1.97,4.49-3.7.92-1.75,1.36-3.54,1.35-5.33,0-1.52-.25-2.83-.73-4.01-.46-1.16-1.11-2.24-1.92-3.21-.99-1.16-2.17-2.05-3.57-2.66-1.42-.61-3.41-.92-6.03-.98M584.83,178.99l-7.1-29.97h-11.59l.19,38.13h7.42l-.13-25.79c0-.75,0-1.79-.02-3.11,0-1.34-.03-2.38-.04-3.11l7.32,32.01h7.73l7.06-32.01c0,.73,0,1.77,0,3.11,0,1.32,0,2.36,0,3.11l.13,25.79h7.44l-.19-38.13h-11.47l-6.74,29.97h-.02ZM638.57,149.01h-27.94l.19,38.13h28.88l-.03-6.87h-21.09l-.05-9.8h18.51l-.03-6.61h-18.51l-.04-8.09h20.17l-.03-6.75-.02-.02ZM661.05,157.72l4.9,15.01h-9.76l4.86-15.01ZM643.19,187.16h8.32l2.54-7.85h14.03l2.56,7.85h8.64l-13.67-38.13h-9.01l-13.42,38.13h.02ZM699.97,155.64c1.85,0,3.35.2,4.51.59,1.38.57,2.06,1.75,2.06,3.52,0,1.59-.5,2.72-1.54,3.34-1.02.63-2.36.94-4.03.94h-9.25l-.04-8.4h8.28ZM701.15,170.35c1.63,0,2.91.24,3.82.65,1.62.73,2.43,2.11,2.44,4.09.01,2.34-.81,3.92-2.47,4.76-.92.43-2.2.65-3.85.65h-9.25l-.05-10.15h9.39-.02ZM702.48,149.01h-18.42l.19,38.13h17.16c1.95,0,3.72-.18,5.39-.53,1.65-.35,3.08-.98,4.3-1.91,1.08-.81,1.98-1.81,2.7-2.99,1.11-1.81,1.67-3.82,1.66-6.08s-.51-4.05-1.5-5.59c-.99-1.55-2.47-2.66-4.42-3.36,1.28-.65,2.24-1.38,2.9-2.16,1.17-1.42,1.73-3.29,1.72-5.61-.01-2.34-.59-4.21-1.76-5.82-1.96-2.64-5.25-3.99-9.9-4.05M729.43,149.01h-7.91l.19,38.13h7.91l-.19-38.13ZM737.06,187.16h27l-.03-6.87h-19.03l-.16-31.26h-7.97l.19,38.13ZM776.48,149.01h-7.91l.19,38.13h7.91l-.19-38.13ZM781.43,187.16h29.41l-.03-6.73h-19.77l19.59-25.01-.03-6.39h-28.88l.03,6.75h18.99l-19.35,24.65.03,6.73h.02ZM813.76,187.16h29.41l-.03-6.73h-19.77l19.61-25.01-.03-6.39h-28.88l.03,6.75h18.99l-19.35,24.65.03,6.73ZM863.94,157.72l4.9,15.01h-9.76l4.86-15.01ZM846.09,187.16h8.32l2.54-7.85h14.03l2.56,7.85h8.64l-13.67-38.13h-9.03l-13.4,38.13h.02ZM884.34,187.16h29.41l-.03-6.73h-19.77l19.61-25.01-.03-6.39h-28.88l.03,6.75h18.99l-19.35,24.65.03,6.73ZM926.43,149.01h-7.91l.19,38.13h7.91l-.19-38.13ZM950.89,181.45c-3.15,0-5.67-1.18-7.57-3.5-1.88-2.34-2.84-5.65-2.86-9.94-.02-4.31.91-7.59,2.76-9.94,1.86-2.32,4.37-3.48,7.54-3.48s5.65,1.18,7.53,3.5c1.86,2.34,2.8,5.65,2.82,9.92.02,4.25-.89,7.61-2.72,9.94-1.84,2.32-4.33,3.5-7.5,3.5M969.06,168.03c-.04-6.98-1.99-12.24-5.84-15.72-2.87-2.97-7.05-4.45-12.5-4.45s-9.59,1.48-12.45,4.45c-3.86,3.48-5.74,8.74-5.7,15.72.04,6.98,1.97,12.1,5.86,15.72,2.89,2.97,7.07,4.45,12.5,4.45s9.61-1.48,12.45-4.45c3.84-3.62,5.72-8.87,5.69-15.72M975.12,187.16h7.42l-.14-27.05,15.66,27.05h7.95l-.19-38.13h-7.42l.13,26.58-15.26-26.58h-8.34l.19,38.13ZM1020.55,149.01h-7.91l.19,38.13h7.91l-.19-38.13Z"/>
    </g>
  </g>
</svg>