<?xml version="1.0" encoding="UTF-8"?>
<svg id="Livello_2" data-name="Livello 2" xmlns="http://www.w3.org/2000/svg" viewBox="0 0 866.44 242.5">
  <defs>
    <style>
      .cls-1 {
        fill: #fff;
      }
    </style>
  </defs>
  <g id="Livello_1-2" data-name="Livello 1">
    <path class="cls-1" d="M847.3,217.07c1.21,1.28,1.82,2.79,1.89,4.53h-13.48c.17-2.16.87-3.78,2.16-4.86,1.29-1.06,2.84-1.61,4.69-1.61,1.97,0,3.55.65,4.73,1.93M850.65,215.58c-1.98-2.52-4.68-3.76-8.11-3.76-3.21,0-5.86,1.08-7.95,3.25-2.09,2.16-3.12,5.04-3.1,8.6s1.04,6.34,3.01,8.58c2,2.22,4.76,3.34,8.28,3.34,2.68,0,4.92-.67,6.72-2.05,1.8-1.36,3-3.07,3.52-5.14h-4.01c-1.09,2.54-3.17,3.78-6.24,3.78-1.85,0-3.47-.63-4.89-1.91-1.4-1.28-2.14-3.07-2.21-5.39h17.63c.22-3.72-.68-6.81-2.64-9.33M828.99,212.08c-3.15.14-5.29,1.51-6.43,4.13l-.02-3.99h-3.78l.12,22.84h3.86l-.06-11.98c-.01-2.48.43-4.27,1.29-5.37.88-1.08,2.22-1.65,4.04-1.65.73,0,1.48.06,2.19.18l-.02-4.11c-.31-.02-.71-.04-1.16-.04M809.14,208.93h3.88l-.02-4.66h-3.88l.02,4.66ZM809.28,235.06h3.88l-.12-22.86h-3.88l.12,22.86ZM803.59,235.06l-.12-22.84h-3.88l.06,12.57c.01,2.44-.49,4.29-1.49,5.57-1,1.28-2.43,1.91-4.32,1.91s-3.21-.57-3.87-1.71c-.66-1.16-.98-2.77-.99-4.86l-.07-13.48h-3.86l.07,14.62c.03,5.86,2.48,8.79,7.36,8.79,3.25,0,5.62-1.28,7.18-3.84l.02,3.27h3.88ZM780.98,212.08c-3.15.14-5.3,1.51-6.45,4.13l-.02-3.99h-3.78l.12,22.84h3.88l-.06-11.98c-.01-2.48.41-4.27,1.29-5.37.88-1.08,2.22-1.65,4.03-1.65.75,0,1.48.06,2.18.18l-.02-4.11c-.31-.02-.69-.04-1.14-.04M754.8,212.21l.02,3.11h3.62l.07,14.01c.01,2.34.35,3.9,1.07,4.64.69.73,2.15,1.08,4.37,1.08h2.81l-.02-3.21h-1.97c-1.04,0-1.71-.2-1.99-.55-.28-.37-.42-1.18-.43-2.44l-.07-13.54h4.35l-.02-3.11h-4.35l-.03-5.75h-3.86l.03,5.75h-3.62ZM749.63,213.67c-1.62-1.26-3.63-1.89-6.11-1.89-2.62,0-4.78.57-6.52,1.71-1.75,1.16-2.6,2.72-2.59,4.64,0,1.95.61,3.36,1.81,4.31,1.22.92,2.78,1.61,4.73,2.05l3.41.67c1.44.31,2.58.77,3.41,1.32.81.57,1.25,1.4,1.25,2.46,0,1.08-.5,1.89-1.5,2.5-1.02.59-2.28.91-3.81.91-3.21,0-5.16-1.55-5.85-4.68h-4.09c.27,2.18,1.28,4.05,3,5.61,1.74,1.55,4.03,2.34,6.86,2.34s4.94-.63,6.68-1.89c1.76-1.26,2.64-2.99,2.63-5.21-.01-2.01-.73-3.52-2.15-4.56-1.4-1.04-3.31-1.79-5.74-2.24l-3.23-.63c-1.16-.26-2.05-.61-2.62-1.08-.59-.47-.89-1.14-.9-2.03,0-.94.48-1.69,1.43-2.14.98-.49,2.1-.73,3.38-.73,3.01,0,4.81,1.26,5.41,3.78h4.05c-.38-2.2-1.38-3.94-2.96-5.19M709.27,223.71c.02,3.86,1.12,6.81,3.33,8.85,2.19,2.05,4.76,3.05,7.71,3.05s5.52-1.02,7.7-3.05c2.17-2.05,3.24-5,3.22-8.85-.02-3.84-1.12-6.79-3.31-8.83-2.19-2.03-4.78-3.05-7.73-3.05s-5.5,1.02-7.68,3.05c-2.19,2.05-3.26,5-3.24,8.83M715.31,217.29c1.31-1.38,2.94-2.07,4.89-2.07s3.6.71,4.91,2.11c1.31,1.4,1.99,3.52,2,6.39.01,2.87-.64,4.88-1.96,6.34-1.31,1.44-2.92,2.14-4.85,2.14s-3.6-.69-4.91-2.09c-1.31-1.4-1.99-3.54-2-6.39-.01-2.85.64-5.06,1.93-6.43M688.66,215.15c-2,2.22-3,5.08-2.99,8.54.02,3.44,1,6.41,2.96,8.62,1.92,2.2,4.54,3.31,7.81,3.31,2.6,0,4.86-.77,6.72-2.34,1.88-1.55,3.05-3.42,3.45-5.65h-4.01c-.27,1.28-.95,2.36-2.07,3.25-1.1.89-2.43,1.34-3.99,1.34-1.85,0-3.41-.75-4.69-2.24-1.29-1.5-1.93-3.6-1.94-6.36-.01-2.75.63-4.8,1.88-6.24,1.27-1.46,2.82-2.16,4.67-2.16,1.52,0,2.8.43,3.88,1.3s1.76,1.97,2.06,3.33h3.92c-.33-2.11-1.36-3.97-3.06-5.61-1.74-1.61-3.93-2.42-6.54-2.42-3.36,0-6.03,1.12-8.03,3.34M673.1,212.08c-3.15.14-5.3,1.51-6.43,4.13l-.02-3.99h-3.8l.12,22.84h3.88l-.06-11.98c-.01-2.48.43-4.27,1.29-5.37.88-1.08,2.22-1.65,4.04-1.65.73,0,1.46.06,2.16.18l-.02-4.11c-.31-.02-.71-.04-1.16-.04M652.84,217.07c1.19,1.28,1.82,2.79,1.89,4.53h-13.5c.17-2.16.89-3.78,2.18-4.86,1.27-1.06,2.84-1.61,4.69-1.61,1.97,0,3.53.65,4.73,1.93M656.18,215.58c-1.98-2.52-4.66-3.76-8.11-3.76-3.21,0-5.86,1.08-7.93,3.25-2.09,2.16-3.14,5.04-3.12,8.6s1.04,6.34,3.03,8.58c2,2.22,4.76,3.34,8.28,3.34,2.68,0,4.92-.67,6.72-2.05,1.8-1.36,2.99-3.07,3.52-5.14h-3.99c-1.11,2.54-3.19,3.78-6.26,3.78-1.85,0-3.47-.63-4.87-1.91-1.42-1.28-2.16-3.07-2.23-5.39h17.63c.22-3.72-.66-6.81-2.64-9.33M623.32,215.15c2.01,0,3.6.75,4.81,2.26,1.17,1.52,1.77,3.62,1.78,6.32.01,2.7-.57,4.8-1.72,6.32-1.17,1.52-2.76,2.28-4.79,2.28-1.87,0-3.47-.73-4.75-2.18-1.31-1.44-1.97-3.58-1.98-6.41-.01-2.83.62-4.96,1.92-6.41,1.27-1.44,2.86-2.16,4.73-2.16M613.07,242.5h3.88l-.05-10.88c1.55,2.68,4.03,3.99,7.5,3.99,2.75,0,5.07-1.08,6.95-3.21,1.88-2.12,2.81-5.04,2.79-8.7-.02-3.64-.98-6.51-2.88-8.66-1.9-2.14-4.23-3.23-6.98-3.23-3.46,0-5.94,1.32-7.46,3.99l-.02-3.62h-3.88l.15,30.3ZM593.66,208.93h3.88l-.02-4.66h-3.88l.02,4.66ZM593.79,235.06h3.88l-.12-22.86h-3.88l.12,22.86ZM569.49,212.21l.12,22.84h3.88l-.06-12.4c-.01-2.44.51-4.29,1.57-5.57,1.06-1.28,2.55-1.91,4.44-1.91,2.01,0,3.35.57,4.04,1.73.66,1.14,1,2.75,1.01,4.86l.07,13.28h3.88l-.07-14.44c-.03-5.86-2.56-8.79-7.58-8.79-3.36,0-5.84,1.28-7.38,3.84l-.02-3.44h-3.88ZM543.38,223.71c.02,3.86,1.12,6.81,3.31,8.85,2.21,2.05,4.78,3.05,7.73,3.05s5.5-1.02,7.7-3.05c2.17-2.05,3.24-5,3.22-8.85-.02-3.84-1.12-6.79-3.31-8.83-2.21-2.03-4.78-3.05-7.73-3.05s-5.5,1.02-7.7,3.05c-2.17,2.05-3.24,5-3.22,8.83M549.43,217.29c1.29-1.38,2.92-2.07,4.89-2.07s3.6.71,4.91,2.11,1.99,3.52,2,6.39c.01,2.87-.64,4.88-1.97,6.34-1.29,1.44-2.92,2.14-4.85,2.14s-3.6-.69-4.91-2.09c-1.31-1.4-1.99-3.54-2-6.39-.01-2.85.64-5.06,1.93-6.43M535.22,208.93h3.88l-.02-4.66h-3.88l.02,4.66ZM535.35,235.06h3.88l-.12-22.86h-3.88l.12,22.86ZM531.34,235.06l-.02-3.34h-13.46l13.12-16.15-.02-3.34h-16.9l.02,3.34h12.4l-13.16,16.15.02,3.34h18ZM509.3,235.06l-.12-22.84h-3.88l.06,12.57c.01,2.44-.49,4.29-1.49,5.57-1,1.28-2.45,1.91-4.32,1.91s-3.23-.57-3.87-1.71c-.64-1.16-.98-2.77-.99-4.86l-.07-13.48h-3.88l.07,14.62c.03,5.86,2.5,8.79,7.38,8.79,3.23,0,5.62-1.28,7.18-3.84l.02,3.27h3.88ZM481.66,235.06h3.88l-.16-30.79h-3.88l.16,30.79ZM455.41,223.71c.02,3.86,1.14,6.81,3.33,8.85,2.19,2.05,4.78,3.05,7.73,3.05s5.5-1.02,7.68-3.05c2.17-2.05,3.26-5,3.24-8.85-.02-3.84-1.14-6.79-3.33-8.83-2.19-2.03-4.76-3.05-7.71-3.05s-5.52,1.02-7.7,3.05c-2.17,2.05-3.26,5-3.24,8.83M461.48,217.29c1.29-1.38,2.92-2.07,4.89-2.07s3.58.71,4.91,2.11c1.31,1.4,1.97,3.52,1.98,6.39.01,2.87-.62,4.88-1.94,6.34-1.31,1.44-2.94,2.14-4.87,2.14s-3.58-.69-4.91-2.09c-1.31-1.4-1.97-3.54-1.98-6.39-.01-2.85.62-5.06,1.92-6.43M449.16,213.67c-1.6-1.26-3.63-1.89-6.11-1.89s-4.78.57-6.52,1.71c-1.73,1.16-2.6,2.72-2.59,4.64,0,1.95.63,3.36,1.83,4.31,1.22.92,2.78,1.61,4.73,2.05l3.39.67c1.46.31,2.6.77,3.43,1.32.81.57,1.23,1.4,1.23,2.46,0,1.08-.5,1.89-1.5,2.5-1,.59-2.26.91-3.79.91-3.23,0-5.16-1.55-5.87-4.68h-4.07c.25,2.18,1.26,4.05,3,5.61,1.74,1.55,4.03,2.34,6.86,2.34s4.92-.63,6.68-1.89c1.74-1.26,2.62-2.99,2.61-5.21-.01-2.01-.73-3.52-2.13-4.56-1.4-1.04-3.33-1.79-5.74-2.24l-3.25-.63c-1.16-.26-2.05-.61-2.62-1.08-.59-.47-.89-1.14-.9-2.03,0-.94.48-1.69,1.45-2.14.96-.49,2.08-.73,3.36-.73,3.01,0,4.81,1.26,5.41,3.78h4.03c-.37-2.2-1.34-3.94-2.96-5.19M415.26,217.07c1.19,1.28,1.82,2.79,1.89,4.53h-13.52c.19-2.16.89-3.78,2.18-4.86,1.27-1.06,2.84-1.61,4.69-1.61,1.97,0,3.53.65,4.73,1.93M418.6,215.58c-1.98-2.52-4.68-3.76-8.11-3.76-3.21,0-5.86,1.08-7.95,3.25-2.07,2.16-3.12,5.04-3.1,8.6s1.02,6.34,3.01,8.58c2,2.22,4.76,3.34,8.28,3.34,2.68,0,4.92-.67,6.72-2.05,1.82-1.36,2.99-3.07,3.52-5.14h-3.99c-1.11,2.54-3.17,3.78-6.26,3.78-1.83,0-3.47-.63-4.87-1.91-1.42-1.28-2.16-3.07-2.23-5.39h17.63c.22-3.72-.66-6.81-2.64-9.33M395.38,235.06l-.12-22.84h-3.88l.06,12.57c.01,2.44-.49,4.29-1.49,5.57-1,1.28-2.43,1.91-4.32,1.91s-3.23-.57-3.86-1.71c-.66-1.16-.98-2.77-.99-4.86l-.07-13.48h-3.86l.07,14.62c.03,5.86,2.48,8.79,7.36,8.79,3.25,0,5.62-1.28,7.18-3.84l.02,3.27h3.88ZM361.28,212.21l.02,3.11h3.62l.07,14.01c.01,2.34.35,3.9,1.07,4.64.71.73,2.15,1.08,4.37,1.08h2.81l-.02-3.21h-1.97c-1.04,0-1.71-.2-1.97-.55-.28-.37-.42-1.18-.43-2.44l-.07-13.54h4.35l-.02-3.11h-4.35l-.03-5.75h-3.88l.03,5.75h-3.62ZM344.11,217.07c1.19,1.28,1.82,2.79,1.89,4.53h-13.5c.15-2.16.87-3.78,2.16-4.86,1.29-1.06,2.84-1.61,4.69-1.61,1.97,0,3.55.65,4.75,1.93M347.47,215.58c-1.98-2.52-4.68-3.76-8.11-3.76-3.21,0-5.86,1.08-7.95,3.25-2.07,2.16-3.12,5.04-3.1,8.6s1.04,6.34,3.03,8.58c2,2.22,4.76,3.34,8.28,3.34,2.68,0,4.92-.67,6.72-2.05,1.8-1.36,2.98-3.07,3.5-5.14h-3.99c-1.09,2.54-3.17,3.78-6.24,3.78-1.85,0-3.47-.63-4.89-1.91-1.4-1.28-2.14-3.07-2.21-5.39h17.63c.22-3.72-.66-6.81-2.64-9.33M306.7,204.27l.16,30.79h20.66l-.02-3.74h-16.31l-.14-27.05h-4.35Z"/>
    <path class="cls-1" d="M216.07,114.51c-8.37,1.64-16.02,3.94-22.94,6.88-6.93,2.95-12.14,6.82-15.64,11.61-3.5,4.79-5.24,10.48-5.24,17.05,0,9.86,3.67,17.74,11.01,23.63,7.34,5.89,16.42,8.83,27.26,8.83,17.28,0,29.69-5.34,37.24-16.03l.41,13.36h33.33c-1.65-6.98-2.47-17.67-2.47-32.05v-11.51l.41-24.04c.27-16.3-3.77-28.11-12.14-35.44-8.37-7.33-20.78-10.99-37.24-10.99s-28.56,3.8-38.37,11.4c-9.81,7.6-15.12,16.88-15.95,27.84h31.68c1.51-10.82,8.09-16.23,19.75-16.23,6.45,0,11.18,1.34,14.2,4.01,3.02,2.67,4.53,7.23,4.53,13.66v4.31c-11.52.82-21.47,2.05-29.83,3.7M222.86,159.5c-4.53,0-8.26-1.09-11.21-3.29-2.95-2.19-4.42-5.07-4.42-8.63,0-2.88.89-5.31,2.67-7.3,1.78-1.98,4.59-3.59,8.43-4.83,3.84-1.23,7.85-2.16,12.04-2.77,4.18-.62,9.64-1.27,16.36-1.95v2.67c0,17.4-7.96,26.09-23.87,26.09"/>
    <path class="cls-1" d="M284.61,69.31v24.04h17.49v55.48c0,12.47,2.57,20.75,7.71,24.86,5.15,4.11,14.78,6.16,28.91,6.16h21.6v-24.45h-9.67c-5.76,0-9.64-.82-11.62-2.47-1.99-1.64-2.99-5-2.99-10.07v-49.52h24.28v-24.04h-24.28v-30.2h-33.94v30.2h-17.49Z"/>
    <path class="cls-1" d="M428.47,156.22c-6.72,0-12.52-1.99-17.38-5.96-4.87-3.97-7.58-9.66-8.13-17.05h82.09c1.09-19.86-3.57-36.02-13.99-48.49-10.43-12.47-24.76-18.7-43-18.7-16.6,0-30.62,5.34-42.08,16.02-11.45,10.69-17.18,24.66-17.18,41.91s5.56,32.36,16.66,42.84c11.11,10.48,25.78,15.72,44.03,15.72,11.79,0,22.76-3.15,32.92-9.45,10.15-6.3,17.55-15.62,22.22-27.95h-31.27c-4.39,7.4-12.69,11.1-24.89,11.1M444.52,97.25c4.25,3.57,6.51,8.7,6.79,15.41h-47.94c.82-6.99,3.53-12.19,8.13-15.62,4.59-3.42,10.11-5.14,16.56-5.14s12.2,1.78,16.46,5.34"/>
    <path class="cls-1" d="M560.4,68.48h-2.47c-14.68.55-24.76,7.81-30.24,21.78v-20.96h-32.71v110.54h33.95v-55.47c0-8.35,2.02-14.31,6.07-17.88,4.04-3.56,10.32-5.34,18.82-5.34,3.57,0,6.65.21,9.26.62v-33.08c-.55-.14-1.44-.21-2.67-.21"/>
    <rect class="cls-1" x="576.44" y="30.88" width="33.95" height="148.96"/>
    <path class="cls-1" d="M623.67,179.84h34.15v-110.54h-34.15v110.54ZM623.67,58.01h33.95v-27.12h-33.95v27.12Z"/>
    <path class="cls-1" d="M667.58,69.31v24.04h17.49v55.48c0,12.47,2.57,20.75,7.71,24.86,5.15,4.11,14.78,6.16,28.91,6.16h21.6v-24.45h-9.67c-5.76,0-9.64-.82-11.62-2.47-1.99-1.64-2.99-5-2.99-10.07v-49.52h24.28v-24.04h-24.28v-30.2h-33.94v30.2h-17.49Z"/>
    <path class="cls-1" d="M809.71,156.22c-6.72,0-12.52-1.99-17.38-5.96-4.87-3.97-7.58-9.66-8.13-17.05h82.09c1.09-19.86-3.57-36.02-13.99-48.49-10.43-12.47-24.76-18.7-43-18.7-16.6,0-30.62,5.34-42.08,16.02-11.45,10.69-17.18,24.66-17.18,41.91s5.56,32.36,16.66,42.84c11.11,10.48,25.78,15.72,44.03,15.72,11.8,0,22.77-3.15,32.92-9.45,10.15-6.3,17.55-15.62,22.22-27.95h-31.27c-4.39,7.4-12.69,11.1-24.89,11.1M825.75,97.25c4.25,3.57,6.51,8.7,6.79,15.41h-47.94c.82-6.99,3.53-12.19,8.13-15.62,4.59-3.42,10.11-5.14,16.56-5.14s12.2,1.78,16.46,5.34"/>
    <polygon class="cls-1" points="0 25.86 0 205.31 138.28 205.31 138.28 179.48 26.5 179.48 26.5 25.86 0 25.86"/>
    <polygon class="cls-1" points="26.5 0 26.5 25.83 63.36 25.83 63.36 147 137.99 147 137.99 179.84 163.82 179.84 163.82 121.17 89.19 121.17 89.19 0 26.5 0"/>
  </g>
</svg>