<?xml version="1.0" encoding="UTF-8"?>
<svg id="Livello_2" data-name="Livello 2" xmlns="http://www.w3.org/2000/svg" viewBox="0 0 1046.24 125.8">
  <defs>
    <style>
      .cls-1 {
        fill: #0073b4;
      }

      .cls-2 {
        fill: #fff;
      }
    </style>
  </defs>
  <g id="Livello_1-2" data-name="Livello 1">
    <g>
      <polygon class="cls-2" points="12.55 125.8 1.4 113.99 1.38 111.2 110.96 111.26 110.84 88.02 113.2 88.02 124.97 101.34 125.1 125.8 12.55 125.8"/>
      <polygon class="cls-2" points="29.27 90.61 28.81 .52 31.59 .52 43.4 13.29 43.79 90.61 29.27 90.61"/>
      <polygon class="cls-2" points="274.76 125.8 261.58 111.3 291.43 111.2 228.82 2.97 230.58 .11 242.55 13.37 307.63 125.8 274.76 125.8"/>
      <polygon class="cls-2" points="192.56 67.72 215.9 24.45 227.81 46.63 217.1 67.72 192.56 67.72"/>
      <polygon class="cls-2" points="151.14 125.8 139.55 114.03 141.07 111.36 169.16 111.36 181.58 87.53 249.73 87.71 257.72 102.07 197.37 102.07 185.21 125.8 151.14 125.8"/>
      <polygon class="cls-2" points="345.73 89.89 345.27 .3 347.46 .3 359.78 13.37 360.17 89.89 345.73 89.89"/>
      <polygon class="cls-2" points="440.39 100.35 441.65 96.06 442.59 88.17 442.44 73.89 442.07 .48 444.06 .48 456.68 13.37 457.12 101.73 438.68 103.52 440.39 100.35"/>
      <path class="cls-2" d="M457.12,101.68s-.31,4.45-.7,6.08c-.36,2.07-1.43,5.94-3.87,8.85-4.32,6-10.5,9.19-23.76,9.19h-76.62s-19.91.18-24.17-16.27c-.18-.73,8.39,1.28,9.31,1.28s8.54.53,8.54.53h58.99l16.63-.08,6.53-1.1,4.73-1.63,3.88-2.81,1.72-2.28.83-.26,17.96-1.5Z"/>
      <polygon class="cls-2" points="491.41 125.8 480.98 113.35 480.97 111.06 504.35 111.06 504.43 111.71 504.42 111.06 503.87 36.55 519.24 57.62 519.59 125.8 491.41 125.8"/>
      <polygon class="cls-1" points="503.61 1.83 504.78 .65 506.89 1.37 556.64 64.73 554.56 67.27 503.61 1.83"/>
      <polygon class="cls-2" points="558.34 112.62 549.72 101.08 549.72 100.7 549.63 98.18 555.71 98.44 556.08 97.99 600.85 37.72 600.98 62.81 564.14 112.62 558.34 112.62"/>
      <polygon class="cls-2" points="609.21 125.8 599.15 113.35 599.14 111.44 624.95 111.44 625.13 111.06 624.57 .64 627.29 .64 639.81 13.37 640.37 125.8 609.21 125.8"/>
      <path class="cls-2" d="M836.59,89.08s.54,37.54,36.59,36.68c1.08-.02,76.42,0,76.42,0,0,0,23.42,1.1,23.29-24.89l-.15-29.42s-.1-19.46-18.73-19.91c-.37,0,1.68,1.67,1.37,1.73.65.91,1.73,4.01,3.05,8.36,2.28,7.63-.63,38.62-.63,38.62l-4.06,6.81s-13.87,4.64-14.32,4.82c-1.75.71-25.54.28-25.54.28l-42.46.83-6.53-.37s-21.72-.63-25.24-11.18c-1.22-3.66-2.15-12.53-2.15-12.53l-.9.18Z"/>
      <polygon class="cls-1" points="860.5 89.71 860.26 77.98 860.79 77 871.22 89.71 860.5 89.71"/>
      <path class="cls-2" d="M843.44,60.09s8.73,18.63,28.27,19.36c7.64.28,62.53,0,62.53,0l-.24-12.28s-72.55-1.34-73.63-.91c-3.63,1.46-16.93-6.18-16.93-6.18"/>
      <path class="cls-2" d="M933.77,22.19l.24,12.28-1.98,1.53h-55.49l.04,7.46h-11.96l-.11-20.82s69.26.45,69.26,0v-.45Z"/>
      <path class="cls-2" d="M931.57,36.27l6.31,6.55,11.29,3.27,19.77-5.1s1.33-8.54-.43-15.45c-2.79-10.9-15.53-16.72-15.53-16.72l3.49,10,.6,10.37-5.62,2.09-19.89,5Z"/>
      <polygon class="cls-2" points="794.79 125.8 781.63 111.3 811.48 111.2 748.87 2.97 750.63 .11 762.6 13.37 827.69 125.8 794.79 125.8"/>
      <polygon class="cls-2" points="712.61 67.72 735.93 24.45 747.84 46.63 737.13 67.72 712.61 67.72"/>
      <polygon class="cls-2" points="671.19 125.8 659.58 114.03 661.12 111.36 689.2 111.36 701.63 87.53 769.78 87.71 777.77 102.07 717.4 102.07 705.28 125.8 671.19 125.8"/>
      <path class="cls-2" d="M933.68,21.88l-.02-3.01h-73.78l.15,29.26h70.4c5.14,0,9.35.45,12.58,1.26,3.25.83,5.48,2.01,6.8,3.33,1.38,1.32,2.57,3.38,3.42,6.37.86,3.01,1.33,6.89,1.36,11.61l.08,14.87c.02,4.7-.41,8.58-1.24,11.57-.81,2.99-1.98,5.06-3.35,6.37-1.31,1.3-3.53,2.48-6.77,3.31-3.22.81-7.43,1.26-12.57,1.26h-66.78c-5.12,0-9.31-.45-12.56-1.26-3.23-.83-5.44-2.01-6.79-3.31-1.38-1.32-2.58-3.38-3.42-6.37s-1.31-6.87-1.34-11.57v-.53s16.15-3.34,16.15-3.34l.06,12.08h82.44l-.16-30.71h-70.44c-5.08,0-9.25-.45-12.46-1.26-3.21-.83-5.4-2.01-6.73-3.31-1.34-1.32-2.54-3.36-3.38-6.37-.84-2.99-1.31-6.87-1.34-11.59l-.06-11.96c-.02-4.72.41-8.6,1.22-11.59.81-3.01,1.98-5.08,3.31-6.37,1.31-1.32,3.49-2.48,6.69-3.31,3.2-.81,7.37-1.26,12.45-1.26h61.37c4.92,0,8.97.43,12.17,1.22,3.17.79,5.42,1.93,6.86,3.21,1.44,1.32,2.65,3.21,3.51,5.9.86,2.68,1.33,6.14,1.35,10.35v2.26h3.02l-.7-2.93-18.47,4.39-.06-11.57h-3.01l.02,3.01h-3.01l.08,16.15,28.18-6.67-.02-4.64c-.02-4.64-.54-8.68-1.64-12.16-1.1-3.46-2.83-6.39-5.24-8.56-2.45-2.16-5.63-3.64-9.47-4.58-3.84-.94-8.35-1.4-13.6-1.4h-61.37c-5.41,0-10.03.47-13.92,1.46-3.87.98-7.07,2.52-9.42,4.82-2.33,2.3-3.89,5.39-4.89,9.09-1,3.72-1.43,8.09-1.43,13.18l.06,11.96c.05,5.1.52,9.46,1.56,13.18,1.04,3.7,2.63,6.81,4.98,9.09,2.37,2.3,5.59,3.84,9.47,4.82,3.9.98,8.53,1.44,13.94,1.46h64.44l.09,18.69h-70.42l-.07-13.48-28.19,5.84.03,5.43c.03,5.08.52,9.46,1.56,13.16,1.06,3.72,2.67,6.81,5.04,9.09,2.39,2.32,5.61,3.84,9.53,4.82,3.9.98,8.57,1.46,14.02,1.46h66.78c5.47,0,10.13-.47,14.04-1.46,3.89-.98,7.11-2.5,9.48-4.82,2.35-2.28,3.95-5.37,4.95-9.09,1-3.7,1.45-8.09,1.45-13.16l-.08-14.87c-.05-5.1-.54-9.48-1.58-13.2-1.04-3.72-2.67-6.81-5.04-9.11-2.39-2.3-5.61-3.84-9.53-4.82-3.92-.98-8.59-1.46-14.06-1.46h-64.38l-.09-17.22h67.76l-.02-3.01h-3.01,3.01Z"/>
      <path class="cls-2" d="M754.26,64.95l-18.53-34.61-18.73,34.61h37.27ZM711.94,70.97h-5.1l28.91-53.3,28.54,53.3h-52.36ZM771.57,84.42l13.13,23.65h21.27l-59.07-102.04h-20.74l-57.25,102.04h18.08l12.47-23.65h72.11ZM781.17,114.09l-13.13-23.65h-64.95l-12.45,23.65h-26.88l-.02-3.01,2.62,1.5-2.62-1.5.02,3.01h-5.16L722.6.04h27.74l66.02,114.06h-35.2Z"/>
      <path class="cls-2" d="M483.23,111.09h3.01l-.53-105.05h15.84l52.78,67.25,50.88-67.25h15.62l.52,102.04h-17.22l-.32-63.75c0-1.16.06-2.72.21-4.64.17-1.95.37-4.13.62-6.57l-5.69-1.65c-1.32,2.75-2.49,5.02-3.47,6.75-.98,1.75-1.83,3.15-2.58,4.19l2.47,1.73-2.41-1.81-39.44,52.77h-2.01l-40.07-52.97-2.39,1.81,2.41-1.79c-1.47-1.97-2.7-3.82-3.69-5.51-1.01-1.69-1.81-3.33-2.44-4.86l-5.78,1.38c.21,2.22.38,4.23.48,6.04.11,1.77.16,3.5.16,5.14l.32,63.75h-17.29l.02,3.01h3.01-3.01l.02,3.01h23.32l-.35-69.77c0-1.75-.06-3.58-.18-5.47-.11-1.89-.28-3.97-.48-6.24l-3.01.26-2.79,1.12c.76,1.87,1.71,3.76,2.84,5.67,1.13,1.93,2.48,3.94,4.02,6.04l.02.02,41.89,55.39h8.03l41.28-55.23v-.02c.9-1.28,1.85-2.83,2.91-4.7,1.05-1.87,2.26-4.23,3.62-7.06l-2.72-1.32-2.99-.31c-.26,2.46-.47,4.7-.63,6.71-.15,2.03-.24,3.74-.23,5.16l.35,69.77h29.26L626.81.04h-24.63l-47.96,63.39L504.45.04h-24.79l.58,114.06h3.01l-.02-3.01Z"/>
      <path class="cls-2" d="M344.43,3.04h-3.01l.46,90.74h77.64l-.44-87.73h19.1l.4,79.51c.02,4.74-.41,8.66-1.22,11.65-.81,3.01-1.98,5.06-3.31,6.36-1.31,1.28-3.51,2.46-6.73,3.27-3.2.81-7.39,1.26-12.49,1.26h-68.24c-5.04,0-9.19-.45-12.38-1.26-3.21-.81-5.4-1.97-6.75-3.27-1.36-1.3-2.56-3.34-3.4-6.36-.84-2.99-1.31-6.91-1.34-11.65l-.4-79.51h22.12l-.02-3.01h-3.01,3.01l-.02-3.01h-28.14l.43,85.53c.03,5.14.52,9.52,1.56,13.24,1.04,3.72,2.67,6.81,5.04,9.09,2.39,2.28,5.59,3.8,9.45,4.78,3.88.96,8.49,1.42,13.86,1.42h68.23c5.45,0,10.07-.45,13.96-1.42,3.87-.98,7.07-2.5,9.44-4.78,2.33-2.28,3.91-5.37,4.91-9.09,1-3.72,1.45-8.11,1.43-13.24L444.17.03h-31.15l.44,87.73h-65.6L347.42.03h-3.01l.02,3.01Z"/>
      <path class="cls-2" d="M234.23,64.91l-18.53-34.61-18.75,34.61h37.29ZM191.89,70.93h-5.1l28.91-53.3,28.54,53.3h-52.36ZM251.54,84.39l13.11,23.65h21.27L226.84,6h-20.72l-57.25,102.04h18.08l12.45-23.65h72.13ZM261.11,114.06l-13.11-23.65h-64.95l-12.47,23.65h-26.86l-.02-3.01,2.62,1.5-2.62-1.5.02,3.01h-5.17L202.55,0h27.76l66.02,114.06h-35.22Z"/>
      <path class="cls-2" d="M106.72,108.07l-.07-14.28H25.6l-.44-87.75H6.05l.52,102.04h100.15ZM3.59,114.09l-.02-3.01h3.01-3.01l.02,3.01H.58L0,.04h31.15l.44,87.73h81.02l.13,26.33H3.59Z"/>
      <path class="cls-2" d="M1017.84,22.01h2.01c2.85,0,4.6-.12,5.29-.33.69-.22,1.24-.59,1.63-1.14.39-.53.58-1.16.58-1.85,0-.67-.2-1.26-.58-1.79-.4-.53-.95-.91-1.66-1.12-.73-.24-2.48-.33-5.29-.33h-2.01l.03,6.57ZM1012.93,35.9l-.12-24.34h4.94c4.62,0,7.22.02,7.79.06,1.63.14,2.91.47,3.82.96.91.51,1.66,1.3,2.27,2.34.62,1.04.94,2.2.94,3.48,0,1.75-.55,3.27-1.69,4.51-1.15,1.24-2.74,2.03-4.83,2.32.75.28,1.32.59,1.72.91.41.33.95.96,1.66,1.89.18.24.79,1.22,1.81,2.95l2.9,4.92h-6.16l-2.03-3.97c-1.37-2.66-2.52-4.33-3.41-5.02-.91-.69-2.03-1.02-3.41-1.02h-1.28l.05,10.01h-4.98ZM1023.18,5.17c-3.17,0-6.19.79-9.08,2.36-2.9,1.57-5.17,3.86-6.83,6.81-1.64,2.95-2.47,6.04-2.45,9.29.02,3.21.86,6.28,2.49,9.19,1.65,2.91,3.94,5.19,6.86,6.83,2.94,1.63,5.99,2.46,9.2,2.46s6.27-.83,9.18-2.46c2.9-1.63,5.17-3.92,6.79-6.83,1.62-2.91,2.43-5.98,2.41-9.19-.02-3.25-.86-6.34-2.55-9.29-1.69-2.95-4-5.23-6.9-6.81-2.92-1.57-5.95-2.36-9.12-2.36M1023.14.62c3.94,0,7.72.98,11.35,2.95,3.63,1.97,6.5,4.8,8.58,8.48,2.1,3.68,3.15,7.54,3.17,11.55.02,3.99-.96,7.81-2.99,11.45-2.01,3.62-4.83,6.45-8.44,8.48-3.63,2.03-7.44,3.05-11.44,3.05s-7.82-1.02-11.47-3.05c-3.63-2.03-6.48-4.86-8.52-8.48-2.04-3.64-3.09-7.46-3.11-11.45-.02-4.01,1-7.87,3.05-11.55,2.05-3.68,4.89-6.51,8.5-8.48s7.38-2.95,11.32-2.95"/>
    </g>
  </g>
</svg>