<?xml version="1.0" encoding="UTF-8"?>
<svg id="Livello_2" data-name="Livello 2" xmlns="http://www.w3.org/2000/svg" viewBox="0 0 562.93 335.44">
  <defs>
    <style>
      .cls-1 {
        fill: #fff;
      }
    </style>
  </defs>
  <g id="Livello_1-2" data-name="Livello 1">
    <g>
      <path class="cls-1" d="M14.26,150.16l.54,107.09h533.88l-.56-107.11-533.86.02ZM0,135.95h562.25l.68,135.17H.68l-.68-135.17Z"/>
      <path class="cls-1" d="M93.07,80.75L125.86,0h49.35l.02,3.34h-3.94c-3.6,0-6.47.61-8.59,1.91-1.51.83-2.68,2.24-3.58,4.25-.64,1.44-.96,5.21-.93,11.29l.41,80.87c.03,6.24.39,10.15,1.04,11.69.68,1.55,2.02,2.93,4.05,4.11,2.05,1.16,4.73,1.75,8.17,1.75h3.94l.02,3.36h-63.47l-.02-3.36h3.92c3.58,0,6.45-.61,8.61-1.89,1.49-.83,2.66-2.28,3.54-4.35.66-1.44,1-5.21.97-11.35l-.46-90.72-46.16,111.68h-2.14L32.51,11.71l.44,86.24c.03,6.02.21,9.68.51,11.08.8,3.03,2.51,5.47,5.11,7.34,2.63,1.89,6.72,2.83,12.29,2.83l.02,3.34H9.17l-.02-3.34h1.28c2.72.06,5.23-.37,7.57-1.32,2.36-.92,4.1-2.18,5.31-3.74,1.19-1.57,2.11-3.78,2.76-6.61.11-.67.18-3.76.15-9.25l-.39-77.48c-.03-6.2-.39-10.09-1.06-11.61-.64-1.53-2-2.89-4.05-4.07-2.05-1.18-4.77-1.77-8.21-1.77h-3.88l-.02-3.34h49.78l34.74,80.75h-.06Z"/>
      <path class="cls-1" d="M231.83,92.61l-13.18-30.18-13.31,30.18h26.48ZM233.94,97.43h-30.71l-3.79,8.6c-1.19,2.89-1.78,5.29-1.77,7.18.01,2.5,1.03,4.35,3.02,5.53,1.14.71,4.02,1.24,8.59,1.59v2.24s-29.13,0-29.13,0v-2.24c3.13-.49,5.71-1.81,7.72-3.99,2.04-2.16,4.49-6.67,7.43-13.48l30.99-70.34h1.22l31.98,72.31c3.05,6.95,5.57,11.31,7.48,13.1,1.5,1.38,3.55,2.18,6.25,2.4v2.24s-42.39,0-42.39,0v-2.24s1.72,0,1.72,0c3.4,0,5.8-.49,7.17-1.46.94-.69,1.41-1.71,1.4-3.03,0-.77-.15-1.59-.41-2.44-.08-.39-.74-2.05-1.97-4.94l-4.82-11.04h.02Z"/>
      <path class="cls-1" d="M358.46,91.59l-3.17,30.97h-77.97v-2.24s2.9,0,2.9,0c2.56,0,4.6-.45,6.13-1.4,1.12-.61,2-1.65,2.58-3.15.47-1.04.67-3.84.65-8.32l-.29-58.06c-.02-4.56-.25-7.4-.73-8.56-.5-1.16-1.47-2.14-2.91-2.99-1.44-.87-3.37-1.3-5.85-1.3h-2.91v-2.24s46.82,0,46.82,0v2.24s-3.79,0-3.79,0c-2.56,0-4.62.45-6.15,1.38-1.14.61-2.02,1.67-2.64,3.19-.49,1.04-.67,3.82-.65,8.28l.28,56.25c.02,4.53.29,7.4.81,8.64.52,1.22,1.55,2.16,3.04,2.77,1.1.41,3.7.59,7.83.59h7.3c4.64,0,8.54-.81,11.62-2.46,3.1-1.67,5.78-4.25,8.03-7.83,2.21-3.54,4.34-8.79,6.33-15.76h2.75-.02Z"/>
      <path class="cls-1" d="M397.91,39.24l.35,68.84c.02,3.64.21,5.88.57,6.69.32.83.91,1.44,1.74,1.87,1.16.65,2.84.96,5.02.96,7.2,0,12.66-2.46,16.45-7.42,5.1-6.65,7.63-17.04,7.56-31.11-.06-11.29-1.85-20.34-5.41-27.11-2.82-5.27-6.44-8.89-10.84-10.8-3.12-1.34-8.23-1.97-15.44-1.95v.02ZM364.87,122.57v-2.24s2.92,0,2.92,0c2.52,0,4.46-.41,5.82-1.22,1.39-.83,2.35-1.93,2.99-3.31.39-.94.57-3.7.55-8.32l-.29-58.06c-.02-4.56-.31-7.42-.77-8.56-.52-1.16-1.45-2.14-2.89-2.99-1.44-.87-3.41-1.3-5.83-1.3h-2.93v-2.24s39.24,0,39.24,0c10.47,0,18.9,1.42,25.29,4.29,7.83,3.5,13.76,8.83,17.81,15.96,4.07,7.08,6.12,15.15,6.16,24.14.03,6.22-.92,11.92-2.88,17.14-1.94,5.25-4.5,9.56-7.63,12.97-3.13,3.38-6.74,6.16-10.84,8.19-4.1,2.07-9.15,3.66-15.07,4.8-2.61.53-6.76.77-12.41.77h-39.25.02Z"/>
      <path class="cls-1" d="M552.5,34.32v2.24c-2.86.37-5.1,1.24-6.63,2.56-2.16,1.83-5.53,6.83-10.12,14.95l-18.88,32.07.11,21.35c.02,4.6.29,7.5.77,8.62.48,1.1,1.43,2.12,2.81,2.97,1.38.87,3.25,1.3,5.59,1.3h4.92v2.24s-49.24,0-49.24,0v-2.24s4.57,0,4.57,0c2.58,0,4.64-.47,6.15-1.4,1.12-.63,1.98-1.67,2.62-3.17.47-1.04.69-3.82.67-8.32l-.09-17.67-20.87-37.93c-4.13-7.5-7.05-11.9-8.72-13.24-1.68-1.34-3.93-2.01-6.74-2.05v-2.26s42.06,0,42.06,0v2.26s-1.88,0-1.88,0c-2.56,0-4.33.37-5.35,1.12-1.02.75-1.51,1.55-1.5,2.38,0,1.57,1.72,5.57,5.2,11.94l16.1,29.12,15.69-26.52c3.84-6.59,5.83-10.96,5.82-13.12,0-1.18-.56-2.16-1.69-2.97-1.5-1.1-4.2-1.77-8.12-1.99v-2.24s26.73,0,26.73,0h.02Z"/>
      <path class="cls-1" d="M129.52,167.2l.1,18.91h-1.87c-1.1-4.35-2.32-7.48-3.67-9.39-1.33-1.89-3.15-3.42-5.45-4.55-1.3-.61-3.57-.92-6.79-.92h-5.16l.27,53.81c.02,3.56.21,5.8.62,6.71.4.89,1.17,1.69,2.31,2.36,1.16.67,2.72,1.02,4.69,1.02h2.32v1.89s-36.31,0-36.31,0v-1.89s2.23,0,2.23,0c2.03,0,3.62-.37,4.85-1.1.86-.49,1.57-1.28,2.05-2.46.41-.85.56-3.03.54-6.51l-.27-53.81h-5.06c-4.68,0-8.1,1.02-10.2,2.99-2.96,2.79-4.81,6.75-5.57,11.88h-1.89l-.1-18.89h62.35l-.02-.06Z"/>
      <path class="cls-1" d="M146.7,213.33l10.35-23.98,10.61,23.98h-20.95ZM195.46,233.27c-1.7-1.36-3.41-4.72-5.8-10.13l-25.3-57.45h-1l-24.73,55.76c-2.33,5.41-4.34,8.78-5.69,10.47-1.68,1.69-3.7,2.72-6.4,3.05v2.03h23.33v-2.03c-3.73,0-6.11-.69-6.78-1.02-1.7-1-2.37-2.36-2.38-4.39,0-1.36.32-3.38,1.31-5.75l3.02-6.75h24.34l3.76,8.78c1.02,2.36,1.36,3.72,1.69,3.72v2.03c.02,1.02-.32,1.69-.98,2.36-1.02.69-3.04,1.36-5.74,1.36h-1.36v1.69h33.81v-1.69c-2.37-.33-4.07-1.02-5.1-2.03"/>
      <path class="cls-1" d="M267.66,212.5l-2.49,24.5h-61.58v-1.91s2.27,0,2.27,0c2.03,0,3.62-.37,4.87-1.08.9-.49,1.57-1.3,2.03-2.46.37-.85.54-3.03.52-6.51l-.23-45.86c-.02-3.56-.21-5.8-.58-6.73-.38-.89-1.13-1.65-2.29-2.32-1.14-.67-2.7-1.02-4.65-1.02h-2.28v-1.89s37.02,0,37.02,0v1.89s-3.02,0-3.02,0c-2.01,0-3.66.37-4.87,1.08-.88.47-1.57,1.3-2.09,2.48-.39.83-.54,3.01-.52,6.51l.22,44.45c.02,3.56.23,5.82.64,6.83.4.96,1.21,1.67,2.41,2.18.85.3,2.89.45,6.16.45h5.8c3.7,0,6.75-.63,9.18-1.95,2.45-1.32,4.57-3.36,6.32-6.18,1.78-2.81,3.47-6.97,5.03-12.45h2.12Z"/>
      <path class="cls-1" d="M309.81,235.1v1.91s-36.21,0-36.21,0v-1.91s2.29,0,2.29,0c2.01,0,3.66-.37,4.87-1.1.88-.47,1.57-1.28,2.03-2.46.37-.83.56-3.03.54-6.51l-.23-45.86c-.02-3.56-.23-5.8-.6-6.71-.38-.89-1.15-1.67-2.29-2.34-1.14-.67-2.72-1-4.65-1h-2.3v-1.91s36.21,0,36.21,0v1.91s-2.27,0-2.27,0c-2.01,0-3.62.37-4.82,1.06-.88.49-1.59,1.32-2.07,2.5-.37.83-.58,2.99-.56,6.49l.23,45.86c.02,3.56.25,5.82.62,6.73.42.89,1.19,1.69,2.31,2.36,1.14.67,2.66,1,4.61,1h2.28v-.02Z"/>
      <path class="cls-1" d="M333.21,213.33l10.35-23.98,10.61,23.98h-20.95ZM381.97,233.27c-1.7-1.36-3.74-4.72-6.13-10.13l-25.3-57.45h-1l-24.39,55.76c-2.33,5.41-4.34,8.78-6.03,10.47-1.35,1.69-3.37,2.72-6.06,3.05v2.03h22.97v-2.03c-3.37,0-5.76-.69-6.76-1.02-1.36-1-2.37-2.36-2.38-4.39,0-1.36.65-3.38,1.64-5.75l3.02-6.75h23.98l4.1,8.78c.7,2.36,1.38,3.72,1.38,3.72.34.67.34,1.36.34,2.03,0,1.02-.33,1.69-.99,2.36-1.35.69-3.04,1.36-5.74,1.36h-1.36v1.69h33.46v-1.69c-2.02-.33-3.71-1.02-4.74-2.03"/>
      <path class="cls-1" d="M413.65,167.2l34.49,43.29-.15-30.02c-.02-4.19-.65-7-1.83-8.46-1.64-1.99-4.38-2.93-8.22-2.87v-1.91s22.87,0,22.87,0v1.91c-2.92.37-4.9.85-5.91,1.44-.98.63-1.78,1.59-2.33,2.95-.56,1.38-.85,3.68-.83,6.97l.29,58.12h-1.73l-47.24-58.14.22,44.43c.02,4.03.94,6.73,2.76,8.15,1.84,1.4,3.93,2.12,6.27,2.12h1.65v1.89s-24.57,0-24.57,0v-1.89c3.81-.06,6.46-.85,7.97-2.38,1.49-1.55,2.24-4.15,2.22-7.89l-.25-49.25-1.5-1.85c-1.47-1.85-2.79-3.05-3.89-3.68-1.12-.55-2.76-.91-4.86-.96v-1.89s24.58,0,24.58,0l-.02-.06Z"/>
      <path class="cls-1" d="M484.59,213.33l10.35-23.98,10.61,23.98h-20.95ZM533.35,233.27c-1.7-1.36-3.74-4.72-6.13-10.13l-25.3-57.45h-1l-24.39,55.76c-2.33,5.41-4.34,8.78-6.03,10.47-1.35,1.69-3.37,2.72-6.06,3.05v2.03h22.97v-2.03c-3.37,0-5.76-.69-6.76-1.02-1.36-1-2.37-2.36-2.38-4.39,0-1.36.65-3.38,1.66-5.75l3-6.75h24.34l3.76,8.78c1.02,2.36,1.36,3.72,1.36,3.72.34.67.34,1.36.34,2.03,0,1.02-.33,1.69-.99,2.36-1,.69-3.04,1.36-5.74,1.36h-1.36v1.69h33.46v-1.69c-2.02-.33-3.71-1.02-4.74-2.03"/>
      <polygon class="cls-1" points="23.83 327.37 23.77 314.74 9.88 314.74 9.94 327.37 6.3 327.37 6.16 300.46 9.8 300.46 9.86 311.54 23.75 311.54 23.7 300.46 27.34 300.46 27.47 327.37 23.83 327.37"/>
      <path class="cls-1" d="M44.52,317.42c-.88.49-2.36.87-4.46,1.14-.75.1-1.3.16-1.67.22-1.2.18-2.06.55-2.55,1.06-.51.51-.78,1.26-.78,2.22s.3,1.71.92,2.24c.63.51,1.5.79,2.62.79,1.75,0,3.19-.45,4.3-1.34,1.12-.89,1.7-2.05,1.69-3.44v-2.91s-.07.02-.07.02ZM44.85,324.74c-1,1.1-2.08,1.91-3.23,2.4-1.14.57-2.36.81-3.64.81-2.01,0-3.52-.51-4.65-1.57-1.13-1.02-1.7-2.46-1.71-4.31s.53-3.19,1.61-4.17c1.1-1.02,2.75-1.67,5.01-1.97.55-.04,1.32-.16,2.28-.26,1.65-.16,2.65-.33,3.03-.51.41-.14.63-.35.78-.57.12-.24.17-.77.17-1.55,0-.98-.34-1.73-1.09-2.24-.75-.51-1.85-.75-3.31-.75s-2.65.3-3.4.91c-.78.63-1.17,1.5-1.17,2.72h-3.09v-.18c-.01-1.97.67-3.52,2.06-4.68,1.37-1.14,3.3-1.71,5.68-1.71,2.62,0,4.53.49,5.79,1.48,1.22.98,1.84,2.52,1.85,4.6l.05,9.84c0,.83.09,1.36.28,1.59.18.22.49.35.99.35h.33l.51-.08v2.52c-.38.1-.75.18-1.03.24-.3.02-.57.08-.85.08-1.08,0-1.91-.24-2.44-.73-.55-.47-.83-1.18-.84-2.14v-.1s.02,0,.02,0Z"/>
      <path class="cls-1" d="M52.89,300.44h3.31l.02,3.74h-3.31l-.02-3.74ZM52.93,307.78h3.31l.1,19.58h-3.31l-.1-19.58Z"/>
      <path class="cls-1" d="M61.31,327.36l-.1-19.58h3.17l.02,3.52c.5-1.32,1.21-2.3,2.09-2.97.86-.69,1.96-.96,3.26-.96h.53l.33.02.02,3.48h-.81c-1.75,0-3.07.47-3.99,1.42-.9.96-1.37,2.36-1.36,4.17l.06,10.88h-3.29l.06.02Z"/>
      <path class="cls-1" d="M92.62,310.66c1.27-.79,2.2-1.61,2.78-2.44.61-.83.9-1.71.89-2.66,0-.92-.3-1.73-.9-2.3-.59-.59-1.36-.91-2.29-.91-1.04,0-1.89.3-2.47.89-.59.55-.88,1.34-.87,2.36,0,.71.22,1.5.68,2.3.46.79,1.19,1.73,2.2,2.75h-.02ZM91.36,314.09c-1.65.94-2.84,1.87-3.53,2.81-.72.92-1.05,1.95-1.05,3.13,0,1.4.47,2.58,1.39,3.48.93.91,2.13,1.36,3.61,1.36,1.08,0,2.08-.24,3.1-.77.98-.51,1.94-1.28,2.8-2.32l-6.34-7.69ZM89.55,311.86c-1.05-1.1-1.8-2.16-2.28-3.13-.48-1-.72-1.99-.72-3.01,0-1.75.59-3.19,1.75-4.33,1.19-1.12,2.71-1.69,4.6-1.69s3.52.51,4.67,1.55c1.15,1.02,1.74,2.44,1.75,4.15,0,1.46-.38,2.73-1.18,3.88-.82,1.16-2.07,2.22-3.78,3.25l5.03,6.16c.29-.59.54-1.24.7-1.95.19-.75.29-1.59.34-2.52h3.15c0,1.3-.18,2.54-.51,3.74-.35,1.18-.85,2.28-1.52,3.34l5.07,6.06h-4.47l-2.65-3.25c-1.1,1.3-2.27,2.26-3.66,2.93-1.35.63-2.87.96-4.52.96-2.36,0-4.29-.73-5.78-2.2-1.5-1.48-2.24-3.33-2.25-5.59,0-1.73.48-3.23,1.45-4.53.98-1.32,2.56-2.58,4.82-3.84"/>
      <path class="cls-1" d="M118.58,318.51h3.52c.05,1.93.71,3.48,1.95,4.66,1.27,1.14,2.94,1.73,5.05,1.73s3.72-.43,4.89-1.32c1.16-.87,1.78-2.05,1.77-3.58-.01-2.07-2.26-3.62-6.77-4.7-.26-.06-.47-.12-.61-.14-3.64-.89-6.05-1.83-7.22-2.91-1.19-1.08-1.78-2.58-1.79-4.53-.01-2.4.84-4.35,2.59-5.78,1.72-1.46,4.04-2.2,6.93-2.2s5.3.79,6.98,2.3c1.72,1.53,2.58,3.64,2.63,6.3h-3.46c-.15-1.77-.74-3.17-1.87-4.13-1.09-.96-2.6-1.44-4.49-1.44-1.79,0-3.22.39-4.26,1.18-1.08.79-1.58,1.85-1.58,3.13.01,2.09,2.22,3.64,6.63,4.66.67.16,1.14.3,1.52.37l.37.08c2.9.69,4.79,1.44,5.76,2.24.69.61,1.29,1.38,1.66,2.22.38.89.56,1.85.57,2.91.01,2.6-.88,4.66-2.72,6.22-1.84,1.53-4.34,2.3-7.48,2.3s-5.77-.83-7.59-2.48c-1.82-1.63-2.81-4.03-2.97-7.1"/>
      <polygon class="cls-1" points="155.92 327.39 150.16 317.24 146.75 320.58 146.79 327.39 143.5 327.39 143.54 327.37 143.4 300.46 146.67 300.46 146.75 316.61 155.5 307.83 159.62 307.83 152.37 314.98 159.58 327.39 155.92 327.39"/>
      <path class="cls-1" d="M162.64,300.44h3.29l.02,3.74h-3.29l-.02-3.74ZM162.68,307.78h3.29l.1,19.58h-3.29l-.1-19.58Z"/>
      <path class="cls-1" d="M183.97,327.36l-.06-12.02c0-1.95-.31-3.27-.87-3.99-.59-.75-1.62-1.1-3.06-1.1-1.83,0-3.24.51-4.24,1.55-1,1.06-1.48,2.52-1.47,4.43l.06,11.14h-3.27l-.1-19.58h3.13v2.85c.76-1.14,1.66-1.99,2.68-2.52,1-.57,2.2-.85,3.56-.85,1.46,0,2.7.22,3.7.67.99.47,1.8,1.1,2.35,2.03.3.47.52,1.04.66,1.67.16.65.21,1.67.21,3.05l.06,12.67h-3.34Z"/>
      <path class="cls-1" d="M206.33,312.75h6.12c2.11,0,3.6-.35,4.42-1.02.84-.67,1.27-1.85,1.26-3.5s-.45-2.75-1.3-3.42c-.83-.69-2.21-1.04-4.18-1.04h-6.39l.05,9.01.02-.02ZM202.76,327.37l-.14-26.92h9.86c1.59,0,2.81.1,3.66.22.83.16,1.58.43,2.25.81,1.09.59,1.92,1.48,2.51,2.66.62,1.18.9,2.54.91,4.11,0,1.52-.26,2.81-.87,3.97-.58,1.14-1.41,2.03-2.52,2.73-.63.39-1.37.67-2.24.83-.88.16-2.3.24-4.29.24h-5.55l.06,11.35h-3.64Z"/>
      <path class="cls-1" d="M225.84,327.36l-.1-19.58h3.19l.02,3.52c.5-1.32,1.23-2.3,2.09-2.97.9-.69,2-.96,3.3-.96h.53l.31.02.02,3.48h-.79c-1.73,0-3.07.47-3.99,1.42-.9.96-1.35,2.36-1.34,4.17l.06,10.88h-3.31v.02Z"/>
      <path class="cls-1" d="M240.48,317.54c.01,2.44.53,4.29,1.58,5.57,1.03,1.28,2.51,1.93,4.46,1.93s3.36-.65,4.38-1.93c1.02-1.28,1.52-3.13,1.51-5.57-.01-2.44-.53-4.25-1.56-5.55-1.03-1.28-2.49-1.93-4.4-1.93s-3.42.65-4.44,1.91c-1.04,1.28-1.54,3.13-1.53,5.55v.02ZM237.16,317.54c-.02-3.27.78-5.84,2.38-7.65,1.64-1.83,3.9-2.73,6.85-2.73s5.28.91,6.92,2.73c1.62,1.81,2.46,4.37,2.48,7.65.02,3.29-.78,5.86-2.4,7.69-1.62,1.81-3.9,2.72-6.85,2.72s-5.26-.91-6.92-2.72c-1.66-1.83-2.46-4.41-2.48-7.69h.02Z"/>
      <path class="cls-1" d="M273.7,317.43c-.01-2.4-.49-4.25-1.46-5.49-.97-1.22-2.43-1.85-4.36-1.85s-3.26.67-4.24,2.05c-.98,1.34-1.48,3.23-1.47,5.73.01,2.22.53,3.99,1.58,5.27,1.03,1.28,2.45,1.93,4.26,1.93s3.24-.65,4.26-1.99c.98-1.3,1.46-3.19,1.45-5.63l-.02-.02ZM276.7,300.43l.14,26.92h-3.17v-2.48c-.83,1.02-1.75,1.81-2.85,2.3-1.02.51-2.2.79-3.46.79-2.6,0-4.69-.94-6.23-2.81-1.56-1.87-2.34-4.37-2.36-7.52-.02-3.17.74-5.78,2.28-7.67,1.53-1.89,3.61-2.83,6.18-2.83,1.34,0,2.54.24,3.6.75,1.07.51,1.93,1.26,2.73,2.28l-.05-9.74h3.17l.02.02Z"/>
      <path class="cls-1" d="M285.05,307.8l.06,12c0,1.93.33,3.27.93,4.01.59.71,1.6,1.12,3.04,1.12,1.87,0,3.3-.57,4.28-1.69.98-1.1,1.44-2.75,1.43-4.92l-.05-10.53h3.29l.1,19.58h-3.15v-2.93c-.7,1.14-1.58,1.99-2.64,2.58-1.08.57-2.34.87-3.79.87-1.36,0-2.54-.26-3.53-.71-1.01-.45-1.78-1.12-2.31-1.95-.3-.49-.52-1.04-.66-1.69-.14-.65-.22-1.65-.23-3.05l-.06-12.69h3.31Z"/>
      <path class="cls-1" d="M315.96,314.3c-.11-1.34-.6-2.38-1.45-3.11-.85-.73-2.05-1.1-3.55-1.1-1.75,0-3.11.65-4.08,1.93-.96,1.3-1.42,3.11-1.41,5.49.01,2.38.47,4.23,1.42,5.53.91,1.3,2.25,1.95,3.93,1.95,1.52,0,2.73-.39,3.65-1.2.88-.81,1.47-1.97,1.67-3.48h3.11c-.15,2.4-.96,4.29-2.49,5.65-1.51,1.36-3.53,2.01-6.09,2.01-2.7,0-4.75-.94-6.29-2.75-1.56-1.85-2.32-4.37-2.34-7.58-.02-3.23.76-5.86,2.36-7.71,1.58-1.85,3.74-2.79,6.52-2.79,2.44,0,4.41.65,5.89,1.93,1.46,1.3,2.28,3.05,2.39,5.25h-3.25Z"/>
      <path class="cls-1" d="M326.46,322.42c0,.89.15,1.48.38,1.77.26.3.71.43,1.36.43h.71c.28,0,.65-.06,1.08-.1v2.79c-.54.1-1.03.16-1.46.22-.41.02-.83.08-1.16.08-1.55,0-2.64-.3-3.23-.91-.65-.63-.93-1.67-.94-3.17l-.07-13.14h-2.93v-2.6s2.92,0,2.92,0l-.03-5.49h3.27l.03,5.49h3.48v2.6s-3.47,0-3.47,0l.06,12.02Z"/>
      <path class="cls-1" d="M331.72,320.99h3.15c.11,1.34.58,2.32,1.45,2.99.83.71,1.99,1.02,3.55,1.02,1.38,0,2.5-.3,3.32-.83.78-.53,1.19-1.32,1.19-2.28,0-.71-.22-1.26-.64-1.65-.4-.37-1.16-.69-2.35-.98l-3.64-.96c-2.05-.49-3.49-1.16-4.32-1.99-.81-.81-1.21-2.01-1.22-3.5,0-1.75.65-3.11,1.93-4.13,1.29-1.02,3.08-1.52,5.34-1.52s4.15.53,5.52,1.63c1.36,1.06,2.06,2.54,2.07,4.35v.08s-3.17,0-3.17,0c-.08-1.04-.52-1.83-1.27-2.4-.77-.57-1.81-.83-3.13-.83s-2.34.22-3.03.69c-.71.45-1.02,1.12-1.01,2.01,0,.65.22,1.12.66,1.5.4.37,1.22.67,2.37.94l3.17.73c2.25.53,3.78,1.22,4.63,2.09.83.83,1.29,2.01,1.3,3.56.01,2.03-.69,3.62-2.12,4.74-1.43,1.12-3.4,1.67-5.95,1.67s-4.43-.61-5.77-1.79c-1.32-1.18-2.02-2.91-2.07-5.15l.06.02Z"/>
      <polygon class="cls-1" points="362.09 327.37 361.96 300.46 381.04 300.46 381.06 303.84 365.57 303.84 365.61 311.87 379.94 311.87 379.95 315 365.63 315 365.68 324.03 381.47 324.03 381.49 327.37 362.09 327.37"/>
      <path class="cls-1" d="M398.48,327.36l-.06-12.02c0-1.95-.31-3.27-.89-3.99-.59-.75-1.64-1.1-3.07-1.1-1.81,0-3.22.51-4.22,1.55-1.02,1.06-1.5,2.52-1.49,4.43l.06,11.14h-3.29l-.1-19.58h3.15v2.85c.76-1.14,1.66-1.99,2.66-2.52,1.02-.57,2.2-.85,3.56-.85,1.48,0,2.74.22,3.7.67,1.03.47,1.8,1.1,2.33,2.03.32.47.54,1.04.68,1.67.1.65.22,1.67.23,3.05l.06,12.67h-3.31Z"/>
      <path class="cls-1" d="M414.82,310.1c-1.85,0-3.24.63-4.26,1.93-.98,1.3-1.46,3.13-1.45,5.53.01,2.42.55,4.19,1.54,5.49,1.03,1.32,2.45,1.97,4.26,1.97,1.97,0,3.44-.59,4.38-1.81.96-1.16,1.42-3.01,1.41-5.51-.01-2.48-.51-4.41-1.5-5.71-.99-1.26-2.43-1.89-4.38-1.89M420.65,324.96c-.76,1.02-1.64,1.77-2.68,2.28-1,.49-2.18.75-3.48.75-2.64,0-4.75-.96-6.35-2.89-1.6-1.91-2.42-4.45-2.44-7.61-.02-3.15.8-5.61,2.36-7.52,1.58-1.91,3.7-2.83,6.34-2.83,1.28,0,2.4.24,3.39.71.99.49,1.9,1.3,2.77,2.36v-2.46s3.18,0,3.18,0l.1,19.14c.02,3.03-.7,5.21-2.09,6.55-1.43,1.34-3.73,2.01-6.92,2.01-2.58,0-4.61-.49-6.05-1.52-1.48-1.02-2.2-2.42-2.21-4.21v-.14s3.19,0,3.19,0v.06c0,1.02.44,1.77,1.29,2.3.85.49,2.13.75,3.86.75,2.09,0,3.54-.39,4.44-1.18.9-.79,1.35-2.09,1.34-3.9v-2.72s-.03.06-.03.06Z"/>
      <path class="cls-1" d="M428.72,300.42h3.27l.02,3.76h-3.27l-.02-3.76ZM428.75,307.78h3.27l.1,19.58h-3.27l-.1-19.58Z"/>
      <path class="cls-1" d="M450.07,327.36l-.06-12.02c0-1.95-.31-3.27-.91-3.99-.57-.75-1.6-1.1-3.04-1.1-1.81,0-3.24.51-4.24,1.55-1.02,1.06-1.5,2.52-1.49,4.43l.06,11.14h-3.29l-.1-19.58h3.15v2.85c.72-1.14,1.66-1.99,2.66-2.52,1.02-.57,2.24-.85,3.56-.85,1.48,0,2.7.22,3.7.67,1.01.47,1.8,1.1,2.33,2.03.3.47.54,1.04.66,1.67.12.65.23,1.67.23,3.05l.06,12.67h-3.31.02Z"/>
      <path class="cls-1" d="M460.72,315.8h10.66c0-1.81-.49-3.23-1.4-4.23-.91-.98-2.21-1.48-3.86-1.48s-2.91.49-3.83,1.46c-.9.96-1.44,2.38-1.57,4.25M471.33,321.05h3.23c-.34,2.14-1.26,3.86-2.75,5.12-1.53,1.24-3.41,1.85-5.74,1.85-2.7,0-4.83-.91-6.41-2.75-1.58-1.83-2.36-4.31-2.38-7.48-.02-3.34.74-5.96,2.28-7.81,1.52-1.91,3.67-2.81,6.4-2.81s4.98.85,6.51,2.6c1.54,1.71,2.34,4.17,2.36,7.3v.92s-.05.55-.05.55h-14.05c.03,2.09.55,3.68,1.54,4.8.99,1.12,2.35,1.67,4.1,1.67,1.34,0,2.42-.31,3.3-1.04.84-.69,1.41-1.65,1.64-2.91h.02Z"/>
      <path class="cls-1" d="M481.05,315.8h10.68c0-1.81-.51-3.23-1.42-4.23-.93-.98-2.19-1.48-3.86-1.48s-2.89.49-3.79,1.46c-.94.96-1.46,2.38-1.61,4.25M491.7,321.05h3.23c-.34,2.14-1.26,3.86-2.77,5.12-1.49,1.24-3.43,1.85-5.72,1.85-2.7,0-4.83-.91-6.41-2.75-1.58-1.83-2.36-4.31-2.38-7.48-.02-3.34.74-5.96,2.3-7.81,1.52-1.91,3.67-2.81,6.38-2.81s4.94.85,6.51,2.6c1.54,1.71,2.3,4.17,2.32,7.3v.92s-.05.55-.05.55h-14.05c.07,2.09.59,3.68,1.58,4.8.99,1.12,2.35,1.67,4.1,1.67,1.34,0,2.42-.31,3.26-1.04.88-.69,1.43-1.65,1.68-2.91h.02Z"/>
      <path class="cls-1" d="M498.97,327.36l-.1-19.58h3.17l.02,3.52c.52-1.32,1.25-2.3,2.11-2.97.88-.69,1.96-.96,3.24-.96h.53l.33.02.02,3.48h-.79c-1.75,0-3.05.47-3.99,1.42-.92.96-1.37,2.36-1.36,4.17l.05,10.88h-3.27l.02.02Z"/>
      <path class="cls-1" d="M511.18,300.42h3.27l.02,3.76h-3.27l-.02-3.76ZM511.21,307.78h3.27l.1,19.58h-3.27l-.1-19.58Z"/>
      <path class="cls-1" d="M532.53,327.36l-.06-12.02c0-1.95-.31-3.27-.87-3.99-.59-.75-1.6-1.1-3.06-1.1-1.81,0-3.22.51-4.24,1.55-1,1.06-1.5,2.52-1.49,4.43l.06,11.14h-3.27l-.1-19.58h3.13v2.85c.78-1.14,1.64-1.99,2.68-2.52,1.02-.57,2.2-.85,3.56-.85,1.46,0,2.68.22,3.7.67,1.01.47,1.78,1.1,2.33,2.03.28.47.5,1.04.64,1.67.14.65.19,1.67.19,3.05l.06,12.67h-3.29.02Z"/>
      <path class="cls-1" d="M548.9,310.1c-1.85,0-3.24.63-4.26,1.93-.98,1.3-1.48,3.13-1.47,5.53.01,2.42.53,4.19,1.56,5.49,1.01,1.32,2.43,1.97,4.24,1.97,1.99,0,3.46-.59,4.4-1.79.96-1.18,1.4-3.03,1.39-5.53-.01-2.48-.49-4.41-1.47-5.71-1.01-1.26-2.49-1.89-4.4-1.89M554.72,324.96c-.76,1.02-1.66,1.77-2.68,2.28-1,.51-2.18.75-3.48.75-2.62,0-4.75-.96-6.35-2.89-1.6-1.91-2.42-4.45-2.44-7.61-.02-3.15.78-5.61,2.36-7.52,1.62-1.91,3.7-2.83,6.34-2.83,1.28,0,2.44.24,3.39.71.99.49,1.9,1.3,2.77,2.36v-2.46s3.17,0,3.17,0l.1,19.14c.02,3.03-.66,5.21-2.09,6.55-1.43,1.34-3.75,2.01-6.92,2.01-2.56,0-4.59-.49-6.05-1.52-1.48-1.02-2.2-2.42-2.21-4.21v-.14s3.17,0,3.17,0v.06c0,1.02.46,1.77,1.31,2.3.85.49,2.13.75,3.88.75,2.05,0,3.52-.39,4.42-1.18.9-.79,1.35-2.09,1.34-3.9v-2.72s-.03.06-.03.06Z"/>
      <path class="cls-1" d="M33.97,172.44c-.34-1.02-1.03-1.69-2.37-2.36-1.03-.69-2.7-1.02-4.75-1.02h-2.03v-2.03s36.15,0,36.15,0v2.03s-2.35,0-2.35,0c-2.03,0-3.38.33-4.74,1.02-1,.67-1.69,1.34-2.01,2.7-.33.69-.65,3.05-.64,6.43l.23,45.94c.02,3.38.36,5.75.7,6.77.34.67,1.03,1.67,2.39,2.36,1.01.33,2.37,1,4.39,1h2.36v1.69s-36.16,0-36.16,0v-2.03s2.02,0,2.02,0c2.05,0,3.72-.33,5.07-1,1-.35,1.35-1.36,2.01-2.38.33-1,.65-3.03.64-6.41l-.23-45.94c-.02-3.72-.36-5.75-.7-6.77"/>
    </g>
  </g>
</svg>