<?xml version="1.0" encoding="UTF-8"?>
<svg id="Livello_2" data-name="Livello 2" xmlns="http://www.w3.org/2000/svg" viewBox="0 0 644.7 419.96">
  <defs>
    <style>
      .cls-1 {
        fill: #fff;
      }
    </style>
  </defs>
  <g id="Livello_1-2" data-name="Livello 1">
    <g>
      <path class="cls-1" d="M139.82,310.41h37.62l-19.03-43.17-18.59,43.17ZM195.19,349.33l-12.22-26.74h-48.56l-11.95,26.74h-14.19l49.98-111.27,51.11,111.27h-14.19Z"/>
      <path class="cls-1" d="M558.85,301.28h46.43l-23.49-53.26-22.95,53.26ZM627.21,349.35l-15.08-33.02h-59.93l-14.75,33.02h-17.51l61.7-137.34,63.07,137.34h-17.49Z"/>
      <polygon class="cls-1" points="291.54 349.35 291 242.61 347.86 242.61 347.92 254.79 304.26 254.79 304.41 284.61 346.79 284.61 346.85 296.81 304.47 296.81 304.68 337.17 348.34 337.17 348.4 349.35 291.54 349.35"/>
      <polygon class="cls-1" points="358.28 349.35 411.44 254.79 365.36 254.79 365.29 242.61 432.84 242.61 379.68 337.17 433.32 337.17 433.38 349.35 358.28 349.35"/>
      <polygon class="cls-1" points="441.54 349.35 494.72 254.79 448.66 254.79 448.6 242.61 516.14 242.61 462.98 337.17 516.62 337.17 516.68 349.35 441.54 349.35"/>
      <polygon class="cls-1" points="206.71 188.84 211.02 188.84 211.2 223.63 206.89 223.63 206.71 188.84"/>
      <polygon class="cls-1" points="240.79 223.64 240.61 188.83 244.9 188.83 245.06 219.68 255.54 219.68 255.56 223.64 240.79 223.64"/>
      <polygon class="cls-1" points="401.43 223.64 401.26 188.83 419.79 188.83 419.81 192.81 405.59 192.81 405.64 202.57 419.47 202.57 419.49 206.54 405.66 206.54 405.72 219.68 419.95 219.68 419.97 223.64 401.43 223.64"/>
      <polygon class="cls-1" points="452.18 197.71 452.31 223.65 448 223.65 447.82 187.19 473.89 214.54 473.76 188.84 478.07 188.84 478.25 225.08 452.18 197.71"/>
      <path class="cls-1" d="M346.96,78.94l3.22-.43s.51.65-.05,1.91c-.6,1.5-2.24,1.1-2.45.98-1.28-.71-.72-2.44-.72-2.44M362.96,72.45c-1.54-4.09-5.25-3.05-6.9-2.46-1.43.51-2.99,1.06-4.36,1.69-1.33.65-3.32.79-4.56,1.48-1.98,1.1-3.53,3.05-4.56,4.88-.29.57-1.55,3.99-.9,4.33.47.28,1.92-1.99,2.69-1.53,1.07.61,1.43,2.01,2.75,2.26,1.22.24,2.89-.04,4.3-.89,1.53-.91,1.74-2.95,1.83-3.01.8-.77,2.76.3,3.21,1.51.46,1.18-2.25,2.7-4.04,3.34-2,.77-6.69.24-6.57.92,1.19,1.24,8.03-.26,9.73-1.06,1.59-.75,2.76-2.28,3.64-3.92.47-.83,1.34-.33,1.67-1.08.39-.85.52-1.5,1.45-1.87-.18-.67-.71-.18-1.3-.2-.63,0-1.24.16-1.95.1-.53-.08-.55-.41-1.24-.33-1.73.18-1.86,1.16-3.5-.22-1.15-.96-1.85.06-3.24.35-1.61.37-1.91-.33-.7-1.5,1.68-1.57,4.08-2.89,6.1-3.95,3.06-1.61,4.44-.69,6.17,1.61,2.16,2.87.23-.45.23-.45"/>
      <path class="cls-1" d="M323.98,100.18c.33-.49.47-.28.67-.16.18.1-.46,2.38.86,3.68,1.05,1.02,2.25,1.2,3.59.91,1.49-.33,2.42-1.02,3.99-.51,1.44.47,2.39,1.77,3.97,2.09-.29.24-1.12,1.08-1.29,1.14-.45.12-.67-.24-1.14-.12-.45.14-1.33.61-1.77.77-1.69.61-3.22,1.02-5.02.31-1.54-.61-2.75-2.07-3.44-3.5-.62-1.32-1.12-3.48-.44-4.62"/>
      <path class="cls-1" d="M338.26,106.21c1.5,1.4,2.38-1.02,3.62-1.06.54-1.2-.75-1.4-1.4-.85,0,0-1.04,1.5-2.21,1.91"/>
      <path class="cls-1" d="M315.91,115.05c2.52.45,6.24.45,9.76.67,2.16.14,4.09-1.06,6.49-1.38,1.49-.2,2.37,1.42,3.43,1.48,1.14.12,1.84-1.12,2.85-1.32,1.28-.28,3,1.18,4.43,1.3,1.5.1,2.63-.55,3.97-.45,1.28.1.83,1.24.6,1.3-1.02.2-1.47.87-2.33,2.05-.68.96-1.58,2.07-2.31,3.05-1.62,2.2-3.42,3.64-5.78,4.78-5.34,2.72-9.38,1.46-13.69-2.26-1.68-1.44-2.87-2.62-4.31-4.29-.63-.69-3.6-4.07-3.07-4.88l-.04-.04ZM320.74,117.66c.14,1.22,5.94,2.97,7.35,3.03,3.35.18,6.16-.18,7.67-.49.57-.14,3.26-.59,2.9-1.59-.3-.87-3.27-.47-3.88-.45-2.66.14-5.27-.24-7.87-.22-2.03.02-6.5-1.06-6.18-.28M341.49,119.14c-1.53,1-3.16,1.14-5.21,1.79-1.61.51-4.88-.06-4.99,1.51.28.79,2.09.69,3.33.91.95.16,1.65-.67,2.44-.61.65.04.67,1.16,1.5.89,2.22-.71,4.43-3.13,5.11-4.84-.28-.06-.87-.49-2.18.35"/>
      <path class="cls-1" d="M340.21,175.43l-4.43-.1s-15.47-20.82-41.67-23.3c-24.86-2.34-30.48,22.15-30.79,22.8-.31.65-4.49.18-4.49.18l6.8-12.75s-2-1.99-.99-4.86c1.36-3.76,4.33-7.83,4.33-7.83l-4.86.08s1.81-8.64,3.64-11.47c3.65-5.69,6.84-8.68,9.49-10.72,2.59-1.99,5.85-3.42,4.56-4.29-.51-.35-14.57,1.42-22.59-5.04-8.06-6.47-12.61-18.77-8.84-28.61,3.88-10.19,12.15-12.85,12.32-14.23.15-1.3-7.93-8.05.86-16.94,1.51-1.51-5.98-4.37-.76-18.14,6.49-17.06,21.33-27.19,24-27.21.43,0,.49.06.04,1.04-5.6,12.63-2.24,19.32-.83,22.29,1.93,4.13,7.94,12.83,18.5,12.93.41,0,.81.49.5.63-4.26,1.83-8.23,7.38-10.6,11.81-.47.87-2.08,5.1-2.37,6.55-.44,2.26.28,8.68.13,9.98-.51,4.19-1.28,7.06-1.25,9.68.02,3.38.66,17.69,8.81,30.04,9.85,15.03,24.28,23.67,26.88,24.26,5.44,1.22,13.85,2.99,20.35-6.95,11.77-18.1,17.28-29.18,18.56-38.11.53-3.78-.59-7.87-.83-8.44-1-2.28-2.78-5.35-2.78-5.35,0,0,2.5-3.36,2.66-6.93.14-3.56-1.31-16.88-1.48-19.77-.24-3.7-1.45-5.98-2.62-7.71-2.48-3.74-8.19-5.59-17.03-6.61-2.72-.33-4.81-1.14-4.81-1.14,0,0-9.99,4.78-16.65,5.98-14.41,2.56-18.81-.24-23.44-4.21-8.66-7.5-10.26-18.22-9.29-23.32,2.07-10.68,8.36-16.67,18.67-19.01,10.57-2.4,18.02,2.58,18.7,2.58,2.24,0,2.86-2.01,8.41-1.55,4.84.39,7.56,1.44,12.36,4.78,4.68,3.25,5.91,5.59,7.08,6.14,3.47,1.61,7.96,1.46,13.53,6.16,7.15,6.08,7.59,11.59,7.51,13.6-.05,2.2-1.15,3.07-.85,3.99.08.3.87.75,3.23,5.51,2.41,4.84,2.27,8.38,1.82,10.17-.6,2.46-.43,3.78-.43,3.78,1.31,1.61,9.78,8.66,7.77,19.81-2.03,11.16-8.33,17.47-11.11,20.92-4.24,5.19-8.47,5.98-9.39,6.24-.51.14-.05.91-1.45,4.9-2.07,5.98-9.08,18.06-11.48,22.45-2.38,4.35-4.39,6.89-6.61,12.06-2.2,5.16-6.17,16.8-5.06,17.85.95.87,7.37-5.45,17.2-7.08,13.51-2.26,22.39-.94,22.55.45.12.91-5.87,2.66-7.84,5.94l9.93,3.56s-7.85,4.72-10.36,6.55c-.39.28-9.45,5.9-9.45,5.9,0,0-6.41.39-6.41.1-.1-3.66,9.54-16.63,16.58-20.78,2.16-1.28-9.41-.87-15.72.96-6.76,1.99-13.46,4.39-17.58,9.52-.68.87,6,10.68,6,10.68l-2.79-.18s-4.14-6.3-9.93-14.21c-5.84-7.93-16-20.58-19.2-23.04-3.12-2.36-19.01-12.4-25.4-12.06-7.79.43-13.12,4.39-15.82,7.91-2.74,3.56-6.12,8.48-4.65,9.6,1.46,1.14,18.3-3.54,32.77,1.4,13.56,4.64,26.33,16.31,38.42,30.16M341.99,142.75c-1.1,1.12-4.12,1.73-5.43,3.94-1.87,3.13-5.04,6.47-4.21,7.87,1.15,2.01,6.2,8.95,6.08,8.79,0,0,1.53-1.55,1.2-3.64-.43-3.17,1.41-9.03,1.84-10.55.77-2.56,3.08-6.24,2.68-7-.4-.75-1.65.06-2.18.57M282.4,92.32c-4.23-.18-6.46,5.57-6.17,10.11.3,4.66,1.39,7.28,5.76,7.18,3.72-.08,6.04-4.05,5.49-11.18-.23-3.05-1.23-5.94-5.07-6.1M300.17,12.93c-2.33,1.69-6.9,5.51-5.17,15.58,1.84,10.66,14.01,15.5,19.08,14.42,2.22-.49,2.57-.61,2.39-1.42-.16-.83-8.59-2.34-13.33-9.09-5.07-7.22-2.34-15.58.2-17.98,4.31-4.05,1.67-3.52,1.67-3.52,0,0-2.6.43-4.87,2.03"/>
      <path class="cls-1" d="M300.84,78.31c.84-.69,2.26-.12,3.44-.3-.47-.24-.3-.55-.32-.89.55-.39,1.4.41,2.21.55.93.18,1.51-.1,2.5-.14,2.01-.12,3.6.49,5.44.98,3.27.87,7.56,1.75,9.72,4.64,2.15-1.99-3.1-5.55-4.62-6.37-3.1-1.71-6.02-2.81-9.46-3.17-3.09-.28-6.16-.71-9.03.77-1.41.75-2.39,1.89-3.29,3.17-.8,1.04-1.7,2.07-.89.02.56-1.5,2.95-4.05,4.54-4.47,2.46-.63,6.31-.63,8.89-.49,2.62.14,3.8-.08,6.89.26,2.24.26,4.92,1.02,6.92,2.28,2.19,1.38,3.74,3.56,4.48,6.06.58,1.97,2.18,6.45,1.16,6.85-.81-.12-.29-2.52-2.73-3.56-1.7-.73-2.99.35-4.31-.85-1.6-1.44-4.09-4.17-5.24-1.51-.54,1.28-1.21,1.53-2.51,1.99-1.28.45-2.65.39-4.01.16-1-.16-2.33-1.14-2.67.37-.12.41.71,1.22,1.64,1.53,3.35,1.16,6.85-.31,7.01.41-1.64,2.09-8.22.28-10.04-1.08-1.62-1.22-1.92-2.89-3.62-3.27-2.23-.51-3.53-.87-4.7-2.62.68-.89,2.1-.1,2.63-1.34M309.78,82.54c1.12.49,1.99.16,2.65-.63.45-.49.17-1.95.17-1.95l-3.76.24s-.21,1.87.92,2.36"/>
      <path class="cls-1" d="M610.76,239.95c8.26,0,14.76-6.53,14.72-14.72-.04-8.19-6.61-14.74-14.87-14.74s-14.76,6.53-14.72,14.74c.04,8.2,6.61,14.72,14.87,14.72M610.75,237.67c-6.75,0-12.56-5.49-12.6-12.45-.03-6.95,5.72-12.45,12.47-12.45s12.54,5.51,12.58,12.45c.03,6.97-5.7,12.45-12.45,12.45M612.84,225.76c2.87-.08,5.09-1.26,5.07-4.43-.02-3.48-2.85-4.27-5.77-4.27h-7l.08,16.13h2.24l-.04-7.46h2.72l4.88,7.46h2.72l-4.9-7.46v.02ZM607.43,223.48l-.02-4.15h4.31c1.73,0,3.9.3,3.91,1.97.01,2.56-3.49,2.18-5.5,2.18h-2.72.02Z"/>
      <path class="cls-1" d="M74.28,383.14c-1.44-1.44-3.66-3.17-5.98-4.25-2.41-1.1-5.22-1.79-7.92-1.79-10.57,0-18.35,8.5-18.3,19.09.06,12.45,10.19,18.69,18.57,18.69,3.09,0,6.09-.89,8.49-2.14,2.59-1.3,4.45-3.03,5.25-3.84l.03,6.32c-5.06,3.66-10.35,4.47-13.77,4.47-13.6,0-23.74-10.29-23.81-23.55-.07-13.26,10.11-23.85,23.84-23.85,2.74,0,8.03.35,13.54,4.55l.03,6.32h.02Z"/>
      <path class="cls-1" d="M85.8,404.7c.04,7,4.99,10.59,10.07,10.59s10-3.66,9.96-10.59-4.87-10.64-10.07-10.64-10,3.72-9.96,10.64M80.72,404.7c-.04-8.66,6.32-15.05,15.03-15.05s15.12,6.39,15.17,15.05-6.38,14.97-15.02,14.97-15.14-6.32-15.19-14.97"/>
      <path class="cls-1" d="M130.15,396.93c-.7-1.65-2.16-2.89-3.99-2.89s-3.44,1.04-3.43,3.25c.01,2.07,1.39,2.68,4.62,4.03,4.12,1.73,6.06,3.03,7.16,4.41,1.23,1.52,1.51,3.03,1.52,4.6.03,5.98-4.26,9.35-9.75,9.35-1.16,0-7.56-.14-9.99-7.28l4.26-1.79c.56,1.52,2.23,4.68,5.77,4.68,3.25,0,4.67-2.4,4.66-4.54-.01-2.68-1.95-3.58-4.63-4.74-3.45-1.51-5.64-2.6-6.95-4.19-1.11-1.38-1.31-2.73-1.32-4.19-.03-5.02,3.46-7.97,8.26-7.97,1.5,0,5.55.28,7.84,5.16l-4.02,2.14-.02-.02Z"/>
      <path class="cls-1" d="M142.55,390.35h4.94l.02,3.03c1.58-2.34,4.03-3.72,7.04-3.72,5.16,0,7.24,3.64,7.8,4.6,2.71-4.33,6.63-4.6,8.56-4.6,8.42,0,9.3,7.06,9.32,11.12l.09,18.06h-4.96l-.09-17.29c-.02-3.25-.45-7.5-5.11-7.5-5.71,0-6.29,5.49-6.27,8.93l.08,15.86h-4.96l-.09-16.9c-.01-1.99.04-7.91-5.18-7.91-5.63,0-6.21,5.84-6.19,9.29l.08,15.52h-4.96l-.14-28.51.02.02Z"/>
      <path class="cls-1" d="M210,401.47c-.83-4.47-4.23-7.42-8.4-7.42s-7.6,3.17-8.32,7.42h16.74-.02ZM214.93,411.58c-.8,1.57-2.05,3.31-3.48,4.6-2.61,2.32-5.83,3.5-9.47,3.5-6.85,0-14.07-4.31-14.12-14.89-.04-8.52,5.12-15.13,13.72-15.13,5.55,0,9.06,2.75,10.81,5.21,1.8,2.54,2.85,6.95,2.73,10.72h-22.17c.11,5.92,4.16,9.68,9.12,9.68,2.32,0,4.17-.69,5.81-2.07,1.29-1.1,2.31-2.54,2.93-3.92l4.12,2.26v.02Z"/>
      <polygon class="cls-1" points="222.84 418.87 222.72 394.88 219.71 394.88 219.69 390.34 222.7 390.34 222.65 380.03 227.61 380.03 227.66 390.34 232.6 390.34 232.62 394.88 227.68 394.88 227.8 418.87 222.84 418.87"/>
      <path class="cls-1" d="M242.36,418.86h-4.94l-.14-28.51h4.94l.14,28.51ZM239.66,376.06c1.93,0,3.51,1.57,3.52,3.5,0,1.93-1.56,3.52-3.48,3.52s-3.51-1.59-3.52-3.52c0-1.93,1.56-3.5,3.48-3.5"/>
      <path class="cls-1" d="M273.88,398.31c-2.61-3.31-6.42-4.25-8.93-4.25-5.29,0-10.07,3.72-10.04,10.64.04,6.93,4.99,10.59,10.07,10.59,2.95,0,6.58-1.3,9.19-4.47l.03,5.9c-3.08,2.26-6.38,2.95-9.06,2.95-8.85,0-15.26-6.32-15.3-14.89-.04-8.6,6.38-15.13,15.15-15.13,4.53,0,7.49,1.79,8.87,2.75l.03,5.9Z"/>
      <path class="cls-1" d="M286.69,418.86h-4.94l-.14-28.51h4.94l.14,28.51ZM284.01,376.06c1.93,0,3.51,1.57,3.52,3.5,0,1.93-1.56,3.52-3.48,3.52s-3.51-1.59-3.52-3.52c0-1.93,1.56-3.5,3.48-3.5"/>
      <path class="cls-1" d="M315.25,404.56c.03,6.12,3.48,10.72,9.38,10.72s9.46-5.02,9.43-10.64c-.04-7.36-5.13-10.59-9.54-10.59-4.88,0-9.31,3.58-9.27,10.51M333.58,368.77h4.94l.25,50.07h-4.94l-.02-3.97c-1.64,2.14-4.72,4.82-9.72,4.82-7.2,0-13.9-5.1-13.95-15.13-.05-10.01,6.52-14.89,13.8-14.89,5.49,0,8.46,3.01,9.76,4.74l-.13-25.64Z"/>
      <path class="cls-1" d="M351.35,404.55c.03,6.12,3.48,10.72,9.38,10.72s9.46-5.02,9.43-10.64c-.04-7.36-5.13-10.59-9.54-10.59-4.88,0-9.31,3.58-9.27,10.51M369.8,390.35h4.94l.14,28.51h-4.94l-.02-3.97c-1.64,2.14-4.72,4.82-9.72,4.82-7.2,0-13.9-5.1-13.95-15.13-.05-10.01,6.52-14.89,13.8-14.89,5.49,0,8.46,3.01,9.76,4.74l-.02-4.05v-.02Z"/>
      <polygon class="cls-1" points="383.96 368.78 388.91 368.78 389.17 418.85 384.21 418.85 383.96 368.78"/>
      <polygon class="cls-1" points="428.08 418.85 427.87 377.85 427.89 377.85 420.18 377.85 422.83 373.03 432.92 373.03 433.16 418.85 428.08 418.85"/>
      <path class="cls-1" d="M475.95,385.04c-.03-5.02-3.68-8.11-7.87-8.11s-7.82,3.09-7.79,8.11c.02,4.54,3.4,7.91,7.87,7.91s7.81-3.36,7.79-7.91M477.16,406.08c-.03-5.15-3.74-8.72-8.96-8.72s-8.91,3.58-8.89,8.72c.03,5.14,3.7,8.93,8.98,8.93s8.89-3.72,8.87-8.93M482.23,406.21c.04,7.14-4.59,13.46-13.94,13.46s-14.04-6.32-14.08-13.46c-.03-4.96,2.22-9.15,6.87-11.2-3.65-2.12-5.58-5.76-5.6-10.01-.03-6.53,4.32-12.71,12.55-12.71s12.66,6.2,12.7,12.71c.02,4.25-1.89,7.89-5.52,10.01,4.69,2.07,6.96,6.26,6.98,11.2h.04Z"/>
      <path class="cls-1" d="M496.42,387.89c.03,6.12,4.6,10.59,10.84,10.59s10.62-4.6,10.59-10.59c-.03-5.98-4.38-10.94-10.76-10.94s-10.7,4.74-10.67,10.94M499.87,417.14l10.43-14.64c-1.3.43-2.61.63-4.05.63-8.78,0-14.85-6.59-14.89-15.11-.05-9.15,6.51-15.72,15.62-15.72,10.78,0,15.9,8.36,15.94,15.58,0,1.71-.32,5.76-3.72,10.51l-15.45,21.56-3.85-2.81h-.02Z"/>
      <path class="cls-1" d="M553.92,385.04c-.03-5.02-3.68-8.11-7.87-8.11s-7.82,3.09-7.79,8.11c.02,4.54,3.4,7.91,7.87,7.91s7.81-3.36,7.79-7.91M555.13,406.08c-.03-5.15-3.74-8.72-8.96-8.72s-8.89,3.58-8.87,8.72c.03,5.14,3.68,8.93,8.96,8.93s8.89-3.72,8.87-8.93M560.21,406.21c.04,7.14-4.6,13.46-13.94,13.46s-14.02-6.32-14.06-13.46c-.03-4.96,2.22-9.15,6.87-11.2-3.65-2.12-5.58-5.76-5.6-10.01-.03-6.53,4.32-12.71,12.55-12.71s12.64,6.2,12.68,12.71c.02,4.25-1.89,7.89-5.5,10.01,4.67,2.07,6.96,6.26,6.98,11.2h.02Z"/>
      <path class="cls-1" d="M248.4,302.9c15.28-1.83,25.33-14.58,25.25-29.87-.05-10.19-5.16-20.25-14.04-25.46-8.45-4.84-18.56-4.96-27.96-4.96h-16.02l.54,106.72h13.2l-.23-45.16h5.47l31.39,45.16h16.04l-33.64-46.43ZM228.91,254.5h3.5c13.06,0,28.82,2.42,28.9,19.11.08,16.7-14.52,19.54-28,19.54h-4.21l-.2-38.64Z"/>
      <path class="cls-1" d="M165.46,209.06h2.48c6.55,0,12.09-2.83,12.05-10.17-.03-6.36-3.36-10.05-13.98-10.05h-4.96l.18,34.81h4.31l-.07-14.58ZM165.38,192.71h1.14c4.25,0,9.39.63,9.42,6.08.03,5.45-4.71,6.37-9.12,6.37h-1.38l-.06-12.45Z"/>
      <path class="cls-1" d="M100.8,219.47c-9.79-6.18-21.26-8.99-32.53-8.99C30.28,210.48-.2,241.21,0,280.6c.2,39.39,30.81,68.75,67.58,68.75,11.27,0,23.93-3.36,33.83-9.39l-.1-19.6c-9.54,8.81-21.65,13.75-34.32,13.75-28.75,0-50.75-24.91-50.9-54.05-.15-29.16,21.8-54.42,50.7-54.42,12.14,0,24.81,4.6,34.11,13.08l-.1-19.28v.02Z"/>
      <path class="cls-1" d="M297.03,188.13c-9.9,0-18.04,8.15-17.99,18.12.05,9.98,8.18,18.14,18.17,18.14s18.04-7.81,17.99-18.14c-.05-10.35-8.3-18.12-18.17-18.12M297.2,220.32c-7.48,0-13.8-6.14-13.84-14.09-.04-7.97,5.6-14.09,13.7-14.09s13.81,6.41,13.84,14.09c.04,7.65-6.24,14.09-13.7,14.09"/>
      <path class="cls-1" d="M360.27,206.11l.02,3.95h8.91c-.13,5.69-5.89,10.35-11.26,10.35-7.44,0-13.43-6.95-13.47-14.23-.04-7.81,5.97-14.13,13.7-14.13,4.21,0,8.39,2.24,10.89,5.67l3.02-2.91c-3.41-4.29-8.73-6.73-14.1-6.73-9.96,0-17.86,8.2-17.81,18.24.05,10.01,7.86,18.02,17.52,18.02s16.31-7.32,16.27-16.88v-1.38h-13.7l.02.02Z"/>
    </g>
  </g>
</svg>