<?xml version="1.0" encoding="UTF-8"?>
<svg id="Livello_2" data-name="Livello 2" xmlns="http://www.w3.org/2000/svg" viewBox="0 0 861.54 223.75">
  <defs>
    <style>
      .cls-1 {
        fill: #fff;
      }
    </style>
  </defs>
  <g id="Livello_1-2" data-name="Livello 1">
    <g>
      <path class="cls-1" d="M550.96,223.75c3.46-1.38,4.77-3.03,6.09-6.43l8.9-33.88c-1.51.24-5.28-.59-6.16.57l-4.54,19.89-5.04-20.21-5.88-.26c-.02.47-.01.94.05,1.42.92,7.22,7.96,21.07,7.65,27.43-.16,3.78-2.07,7.67-6.35,5.63l.03,5.84h5.25Z"/>
      <path class="cls-1" d="M848.3,223.75c2.46-.14,4.07-1.12,4.85-2.93,3.7-11.71,6.51-23.59,8.4-35.63v-.57s-3.58.33-3.58.33l-4.5,21.27c-.98-.16-1.05-1.14-1.35-1.87-2.21-5.76-2.84-13.22-4.88-19.16-.73-.98-2.66-.49-3.8-.57l7.67,27.21c-.9,4.19-1.15,10.07-6.92,8.42l.61,3.5h3.5Z"/>
      <path class="cls-1" d="M639.36,123.67c-3.29,6.49-19.72,6.47-26.08,6-20.18-1.5-36.63-14.58-43.69-33.29l-1.54-.89c-5.05.43-10.13.51-15.23.26l-1.33,1.22c13.05,32.31,49.79,41.63,81.59,37.3,9.01-1.22,17.69-4.05,26.65-5.45,1.78-1.1-1.98-3.33-2.62-4.45-2.32-3.99-1.78-17.06-1.63-22.15l-.83-1.16c-1.52-.31-11.31-.24-13.1,0-.35.04-.55.71-.66,1.16.34,4.64.4,17.65-1.52,21.45"/>
      <path class="cls-1" d="M357.39,67.18l-1.61-.1c-8.19,6.06-20.76,6.77-30.32,4.47-.4-1.32-1.03-1.99-1.94-2.03l-.83-1.18c-1.54-.31-11.31-.22-13.1,0-.37.06-.55.73-.66,1.18.1,11.67.28,23.37.18,35.04.14.47.38.92.83,1.18.57.31,11.69.12,13.1,0,.35-.04.55-.73.66-1.18-.21-6.04-.83-16.21-.05-21.84.72-5.25,7.47-4.31,11.83-3.8,5.85.69,7.59,3.01,10.8,7.34,3.9,5.25,7.57,11.61,11.3,17.14l15.05.06c.75-.22,1.37-.63,1.88-1.24-5.93-8.3-11.13-17.31-16.46-26.03-.73-3.38,1.72-2.68,4.43-4.23,2.12-1.22,3.18-2.32,4.86-3.62-1.31-2.16-7.76-2.5-9.94-1.16"/>
      <path class="cls-1" d="M311.85,14.02c-2.79.12-15.56-.08-16.93,1.16-.86.79-1.03,3.42-.16,3.99,1.86,1.22,8.85-.14,11.62,2.87,3.07,3.34,2.29,13.2,2.39,17.69.18.45.4.96.83,1.16.61.26,11.73.14,13.1,0,.35-.04.55-.71.66-1.16l1.18-.85c-.52-5.82-.31-11.55.62-17.2,13.25-5.19,32.06.81,36.42,15.88l1.5.98,1.58.89c4.64-.39,9.3-.49,13.99-.26l1.37-1.2c-4-29.12-47.56-24.89-68.18-23.96"/>
      <path class="cls-1" d="M518.54,101c-2.74-.22-7.81-.43-9.67,1.22l-1.78,1.4c-12.36,30.93-54.73,33.39-72.71,6.02l-1.99-.98c-2.68-1.53-8.7-1.61-11.99-1.24-2.87-.12-4.52.69-4.95,2.4,26.16,37.11,86.31,33.43,107.45-7-.58-1.46-2.04-2.07-4.36-1.81"/>
      <path class="cls-1" d="M710.2,111.58c-1.69-.31-11.26-.26-13.1,0-.35.06-.55.71-.66,1.16-.11,2.12-.44,5.57-.81,7.63-.55,3.25-2.19,5.82-5.42,6.83-2.38.75-10.15.81-11.13,1.4-.33.22-.64,1.87-.56,2.42.57,3.46,3.29,1.63,5.44,1.57,25.12-.75,52.61-.73,77.74,0,2.26.06,4.51,1.14,6.71.33,1.04-.71,6-16.59,6.59-19.01.66-2.58,3.08-9.03-2.24-7.52-1.18.33-5.03,8.2-6.32,10.03-3.32,4.74-6.2,8.24-12.07,9.48-7.33,1.55-28.64,1.63-35.66-.63-5.87-1.87-7.14-6.93-7.68-12.55l-.83-1.16Z"/>
      <path class="cls-1" d="M829.39,64.85c-8.01-.91-16.41-.83-24.5-.41-1.32.31-1.9.83-1.19,2.16,10.54,9.94,32.74,18.55,37.82,31.56,1.38,3.5,1.25,6.43,2.12,9.92.9-.45,1.33-.81,1.19-1.75h11.12l.53-1.16c1.98-21.49-11.45-29.95-27.08-40.32"/>
      <path class="cls-1" d="M709.92,56.67c-3.44-.3-9.66-.3-13.1,0-.35.04-.55.71-.66,1.16.1,8.76.15,17.55.13,26.29l.85,1.18c.85.26,11.63.16,13.08,0,.37-.04.55-.71.66-1.18.03-2.22-.95-9.07,1.54-9.8,8.31.53,18.61-1.18,26.7-.08,3.47.47,5.72,2.11,6.97,5.33,1.44,3.74.79,11.71,6.32,9.56l.41-35.69c.07-1.69-3.71-1.75-4.57-.71-1.86,2.2-.26,10.55-4.56,13.2-2.24,1.36-8.63,1.71-11.56,1.87-3.21.16-18.45.39-20.33-.61-1.6-.87-1.02-7.38-1.07-9.37l-.83-1.16Z"/>
      <path class="cls-1" d="M697.34,32.42c4.05-.41,8.12-.49,12.24-.24l1.06-1.22c.04-3.36-1.33-10.33,2.24-11.43,3.08-.92,17.86-.47,21.96-.28,9.8.47,18.09.79,22.62,10.72,1.85,4.05,1.11,9.33,6.95,7.99-.11-3.21-1.49-23.22-3-24.28-22.47.14-45.07.91-67.54.35-2.36-.06-11.72-1.85-12.45.35-.23.71-.22,2.56.19,3.17.93,1.32,10.48-.77,13.06,6.24.64,1.69,1.23,5.9,1.38,7.75l1.3.87Z"/>
      <path class="cls-1" d="M828.54,128.82c-15.03,3.82-28.03-3.11-35.03-16.47-1.03-1.97-3.09-8.64-3.94-9.56-.73-.77-3.42-.28-3.74.1-1.25,1.44,2.9,24.4,5.15,26.25,1.07.87,6.61,2.81,8.24,3.31,23.86,7.3,54.55,1.87,57.24-27.29h-12.85c-.09.94.13,2.01.01,2.93-1.4,10.23-3.92,17.89-15.08,20.74"/>
      <path class="cls-1" d="M567.06,30.46c2.31.71,9,1.12,10.96-.08,16.48-17.45,58.19-21.31,70.59,2.73.89,1.73,2.78,8.3,3.21,8.79.97,1.16,4.21.87,4.92-.69l-2.85-26.03c-5.94.37-11.62-1.87-17.43-2.75-24.91-3.8-51.2-.57-70.14,16.78l.73,1.24Z"/>
      <path class="cls-1" d="M210.83,29.79c.71.24,11.73.14,13.1,0,.35-.04.55-.71.66-1.16.07-1.97-.1-7.24,1.25-8.64,1.74-1.79,13.02-1.08,15.78-.57,5.77,1.06,13.42,4.94,16.85,9.78l1.48.91c4.33-.41,8.65-.49,13-.28l1.29-1.2c-7.55-10.9-22.84-14.52-35.41-15.23-14.11-.77-29.08.28-43.14,1.3-4.79,5.94,3.11,4.6,6.8,5.31,5.14.96,6.96,3.5,7.5,8.62l.83,1.16Z"/>
      <path class="cls-1" d="M564.1,58.95c-4.6.26-9.17.18-13.73-.26l-1.41.89c-2.88,13.14-2.59,24.73,2.53,37.4,5.94-.35,12.32.73,18.1-.59-3.97-10.55-5.58-25.13-4.26-36.22l-1.23-1.22Z"/>
      <path class="cls-1" d="M360.17,102.2c-1.08.06-2.18-.14-2.59,1.2,12.25,18.18,21.18,33.49,46.59,30.95,1.42-.14,5.74-.69,4.1-2.93-.24-.33-6.17-1.53-7.72-2.2-8.5-3.66-20.54-19.26-26.03-26.98-4.74.24-9.6-.31-14.34-.04"/>
      <path class="cls-1" d="M309.1,104.57c-.05,6.28,1.91,19.2-4.81,22.23-3.77,1.71-13.75-.12-9.99,5.86l43.33.51c1.73.24,2.05-3.88,1.28-4.55-2-1.73-10.78.79-13.47-5.55-1.65-3.9-1.58-13.81-1.75-18.51h-14.6Z"/>
      <path class="cls-1" d="M803.85,29.79c-2.36-.31-8.8-.43-10.26,1.16-4.99,13.58.11,26.23,10.1,35.65.6-.98,1.59-1.1,2.61-1.2,7.55-.59,15.65.96,23.1-.57-11.98-7.93-28.75-16.31-24.71-33.88l-.83-1.16Z"/>
      <path class="cls-1" d="M439.9,210.89h6.43l-.1-18.99c-.01-2.36,4.03-5.37,6.12-3.23l1.48,3.82.09,18.4h5.82l-.1-18.99c0-.18,1.46-2.7,1.72-2.95,1.96-2.01,5.86-.26,5.87,1.79l.1,20.15h5.84l-.11-21.9c0-.61-1.24-3.44-1.75-4.11-2.46-3.21-8.45-2.6-10.82.31-.57.71-.78,2.24-.87,2.32-1.14,1.1-1.29-1.52-1.72-2.05-3.42-4.15-9.27-3.58-11.13,1.46-1.22-.04-.21-2.03-.84-2.95-.65-.92-5.79-.92-6.18.33l.13,26.58Z"/>
      <path class="cls-1" d="M421.99,53.69l-14.07-1.04c-.39.12-.71.47-.94,1.1-3.33,10.66-3.59,21.23-1.59,32.13,4.92.08,10.51-.04,16.78-.37l1.31-.79.9-1.69c-1.3-8.74-1.64-17.67-.67-26.46l-.95-1.65-.77-1.22Z"/>
      <path class="cls-1" d="M804.68,30.96c4.31-18.75,32.88-18.93,41.93-3.09,1.11,1.93,3.31,9.17,3.75,9.44,1.07.69,4.45.04,4.44-1.83,0-1.67-.32-4.76-.49-6.57-.42-4.58-1.58-9.25-2.69-13.73-18.92-7.08-49.87-6.49-58.04,15.78h11.1Z"/>
      <path class="cls-1" d="M424.95,26.88c.06.59.2,1.22.68,1.53.36.24,7.38.55,8.4.57.49.02.98-.18,1.43-.35l2.12-.43c13.91-12.65,35.43-13.77,51.2-3.72l2.16.06c3.29,1.06,12.07,1,15.33.04.35-.1.41-.75.43-1.2-24.14-18.14-59.25-16.19-81.75,3.5"/>
      <path class="cls-1" d="M522.99,44.46c-5.04-.28-10.06-.18-15.07.28l-1.07,1.42-.4,2.2c2.61,7.34,3.93,15.07,4.5,22.8l1.29,1.87c.12.51.42.87.85,1.16.69.47,14.82.14,16.74,0,.31-.02.47-.71.51-1.16.08-10.59-1.7-17.92-5.98-27.47l-1.36-1.1Z"/>
      <path class="cls-1" d="M512.23,73.03c-1.04.53-1.12.98,0,1.16.54,2.7.6,5.49.04,8.19-1.36,2.85-2.07,6.16-2.11,9.88-1.08,3.48-1.5,6.81-1.29,10,4.59.31,9.6-.71,14.01.57,5.34-10.19,7.37-17.9,7.44-29.79h-18.1Z"/>
      <path class="cls-1" d="M223.89,53.16c-1.4-.12-12.59-.41-13.1,0-.37.31-.63.65-.66,1.16.11,10.9.17,21.82.17,32.72.08.31.2.59.4.79.57.55,11.87.53,13.54.37.35-.02.55-.71.66-1.16-.15-10.88-.15-21.82-.17-32.72l-.83-1.16Z"/>
      <path class="cls-1" d="M278.77,51.41c-2.52-.39-12.38-.35-14.97,0-.33.04-.47.71-.53,1.16-1.36,11.61-7.12,19.46-18.26,23.39-2.44.87-9.5,1.08-8.42,4.31.5,1.52,6.32.98,7.76.85,17.09-1.46,32.77-10.62,35.27-28.55l-.85-1.16Z"/>
      <path class="cls-1" d="M566.33,29.21c-10.09,9.25-14.42,16.92-17.38,30.38,5.2,1.3,11,.26,16.37.59,1.19-10.19,5.57-22.25,12.7-29.81l-11.69-1.16Z"/>
      <path class="cls-1" d="M407.4,84.71c-1.12.04-2.34-.59-2.02,1.16,1.78,9.62,4.45,16.02,10.06,23.96,4.91-2.46,11.53-.61,16.93-1.18l.29-1.83c-3.57-6.53-6.11-13.65-7.74-20.92l-1.42-1.2c-5.35.14-10.74-.18-16.09,0"/>
      <path class="cls-1" d="M659.69,89.84c3.38-1.63,8.9.41,6.27-5.47l-44.74-.3c-1.81.04-1.63,3.64-.25,4.45,1.46.85,10.06,1,12.88,1.71,3.01.75,5.62,2.03,6.3,5.41.3,1.5.63,4.92.74,6.59h14.62c.12-4.39-.62-10.05,4.19-12.4"/>
      <path class="cls-1" d="M363.09,38.56l-.86,1.44c1.74,8.68.84,18.48-4.87,25.5l.03,1.69,9.94,1.16c7.7-5.92,12.12-11.22,12.74-21.6.56-1.91.55-3.95-.03-5.84-.06-.96.11-2.03-.01-2.93-5.61.3-11.45-.65-16.94.59"/>
      <path class="cls-1" d="M224.78,115.09c-2.03-.31-11.61-.31-13.67,0-.37.06-.55.71-.66,1.16-.27,4.62-.82,9.09-5.79,10.8-3.75,1.3-12.22-.06-8.16,5.88l44.09.26c2.03.28,2.58-4.13,2.04-4.66-.69-.65-11.18.02-14.77-3.48-2.33-2.26-1.96-5.98-2.23-8.79l-.85-1.16Z"/>
      <path class="cls-1" d="M308.77,39.73c.25,9.92.06,19.87.15,29.79h14.6l1.02-1.3c-.5-9.05-.49-18.12,0-27.21l-1.17-1.28h-14.6Z"/>
      <path class="cls-1" d="M210.29,87.04c0,9.46.71,19.89.15,29.2h15.19c-.95-9.68-.59-19.46-.74-29.2h-14.6Z"/>
      <path class="cls-1" d="M696.29,84.12c-.01,9.33.65,19.42.14,28.63h14.6c-.79-8.56-.22-19.81-.14-28.63h-14.6Z"/>
      <path class="cls-1" d="M258.48,29.21c4.6,6.49,5.69,15.7,4.78,23.37h16.37c1.25-8.95-.16-16.41-5.37-23.96-5.23.28-10.69-.63-15.78.59"/>
      <path class="cls-1" d="M696.03,31.55c.67,8.28.03,17.83.13,26.29h14.6c-.2-8.91-.25-17.96-.14-26.88-4.72.35-10.04-.75-14.6.59"/>
      <path class="cls-1" d="M506.72,23.37l-15.77,1.16.11,1.55c6.19,5.29,10.84,12.28,14.3,19.58l1.48.49c5.58-1.34,11.78-.22,17.53-.59-4.7-10.47-8.4-15.25-17.64-22.19"/>
      <path class="cls-1" d="M424.95,26.88c-8.5,7.44-14.52,15.86-17.97,26.88l15.77,1.16,1.41-1.26c1.73-8.48,5.48-16.61,11.16-23.14l.15-1.89c-2.67-2.68-7.42.04-10.52-1.75"/>
      <path class="cls-1" d="M209.99,28.63c.79,7.75.05,17.67.13,25.7h14.6c0-8.46-.42-17.28-.13-25.7h-14.6Z"/>
      <path class="cls-1" d="M206.82,210.89h6.43l-.08-15.48,9.23-22.49c-1.24.24-6.48-.35-6.96.06-.67.59-4.55,14.78-5.23,16.88-.83-.06-.93-.85-1.19-1.44-1.39-2.97-3.71-13.34-5.01-14.93-1.03-1.22-5.06-.3-6.73-.57-.13.65.1,1.16.28,1.77,1.84,6.18,8.21,16.25,9.18,21.9.71,4.13-.46,9.96.07,14.3"/>
      <path class="cls-1" d="M274.45,183.44l.11,21.33c0,.61,1.56,4.27,2.09,4.94,3.15,3.9,9.77,2.03,11.66-2.32.79.57-.04,3.17.29,3.52.24.22,4.86-.18,5.84-.02l-.14-27.45h-5.82l.09,17.24c0,.28-1.43,4.19-1.71,4.55-2.33,3.03-6.45.59-6.47-2.79l-.1-18.99h-5.84Z"/>
      <polygon class="cls-1" points="369.22 210.9 369.02 172.92 385.96 172.92 385.99 178.77 375.49 178.77 375.54 189.27 384.89 189.27 384.91 194.53 375.57 194.53 375.65 210.9 369.22 210.9"/>
      <path class="cls-1" d="M683.5,210.89h3.5l-.09-18.4c0-.3,1.69-3.95,2.06-4.35,2.37-2.64,7.25-1.24,7.27,1.42l.11,21.33h3.5l-.08-16.65c-.01-2.75,2.99-8.58,6.41-7.63,1.26.33,3.5,2.93,3.5,4.13l.1,20.15h3.5l-.1-20.74c0-.65-1.24-3.36-1.77-4.09-3.61-5-10.46-2.12-11.67,3.21l-2.09-4.05c-3.46-3.36-9.83-1.48-10.17,3.48-1.3-.26-.15-2.54-.86-3.54-.59-.85-2.3-.51-3.25-.55l.13,26.29Z"/>
      <path class="cls-1" d="M619.98,211.92c2.48-.16,8.8-2.75,7.92-5.86-1.04-3.58-2.99.06-4.15.91-5.21,3.9-10.09-.06-12.03-5.25-2.81-7.63-2.7-29.04,10.28-25.58,1.83.47,2.76,1.75,3.79,3.21,5.82-5.16-4.72-7.69-9.24-6.87-14.57,2.72-13.73,40.47,3.43,39.45"/>
      <polygon class="cls-1" points="520.3 170.58 526.15 170.58 526.35 210.9 520.51 210.9 520.3 170.58"/>
      <path class="cls-1" d="M825.36,192.49c0-.47-.83-4.11-1.05-4.82-2.3-6.81-11.16-4.56-12.7,1.61l-.3-4.68h-3.52l.72,26.29h3.5l-.1-18.99c0-.24,2.01-3.76,2.34-4.07,1.78-1.55,5.03-1.69,6.34.63.28.49,1.26,4.21,1.26,4.62l.09,17.81h3.5l-.09-18.4Z"/>
      <path class="cls-1" d="M315.48,210.89h5.84l-.08-15.48c0-.73,1.65-4.58,2.3-5.27,1.55-1.59,3.91-1.3,4.07-1.46.29-.3-.18-4.8,0-5.82-3.11-.31-5.75,2.14-5.82,5.25-1.36-.26-.18-4.25-.59-4.68-.22-.22-4.86.18-5.84.02l.14,27.45Z"/>
      <path class="cls-1" d="M493.51,184.31l.13,26.58h6.43l-.14-27.47c-1.18.1-6.44-.45-6.43.89"/>
      <path class="cls-1" d="M497.23,179.34c4.98-.47,3.19-8.13-1.02-7.5-4.01.61-4.41,8.01,1.02,7.5"/>
      <path class="cls-1" d="M380.04,40.9c.11,1.81.14,4.03.03,5.84,1-1.3.94-4.66-.03-5.84"/>
      <path class="cls-1" d="M88.92,0l18.38,3.56c27.11,7.77,47.96,26.15,40.94,56.61-.25.37-.72.91-.98.77-5.31-3.07-11.33-7.22-16.4-10.76-2.35-1.08-3.97-2.62-4.9-4.6-.27-2.87-1.61-7.18-2.69-9.92C113.49,10.64,81.01,2.89,56.82,4.09c-.14-.85,1.02-.81,1.63-1,4.13-1.34,11.57-2.75,15.88-3.09h14.6Z"/>
      <path class="cls-1" d="M28.93,150.14C14.16,166.98,1.86,186.54.03,209.71c-.11,1.36.09,2.75.02,4.09,6.36-22.37,19.68-41.55,35.91-57.83.36-2.09-5.13-6.75-7.03-5.84"/>
      <path class="cls-1" d="M125.96,45.57c1.37,13.79-5.09,25.18-13.85,35.04l.48,1.83c5.27,3.48,10.38,6.97,15.36,10.45,10.79-9.4,17.04-18.65,20.28-32.72l-22.27-14.6Z"/>
      <path class="cls-1" d="M126.47,90.56c-4.07-3.58-10.05-6.47-14.35-9.94-8.06,9.09-18.18,16.23-27.92,23.37l.03,1.44c3.67,2.48,7.34,4.98,11.02,7.48l1.85-.16c11.26-6.41,20.84-11.14,30.85-19.85-.03-1.14-.7-1.67-1.47-2.34"/>
      <path class="cls-1" d="M115.21,115.09l.4,1.73c3.61,2.52,7.19,4.86,10.74,7.02,9.46-4.96,17.48-10.51,24.44-18.69.7-1.14.68-1.16.3-2.11-.28-.65-8.85-6.1-10.85-6.06-6.54,6.32-17.19,13.3-25.03,18.1"/>
      <path class="cls-1" d="M84.19,103.99c-8.59,6.3-17.23,12.04-25.6,18.69-1.06,1.18,7.06,7.52,7.61,7.42l1.18-.41c9.35-6.18,19.93-11.35,29.7-16.94l-12.89-8.76Z"/>
      <path class="cls-1" d="M58.58,122.68c-11.43,9.07-19.99,16.45-29.65,27.45l7.03,5.84c8.87-8.87,20.97-19.38,31.41-26.29l-8.79-7Z"/>
      <path class="cls-1" d="M160.79,60.76c-2.5,10.59-7.45,20.4-14.18,28.9-1.62,2.03-4.58,5.57-6.38,7.32,2.98,2.2,6.08,4.27,9.1,6.43.71.51,1.75.41,1.46,1.73,10.05-11.84,15.42-29.3,9.99-44.39"/>
      <path class="cls-1" d="M124.79,121.6c-2.83-2.28-6.65-4.25-9.58-6.51-8.85,5.41-18.01,10.19-26.8,15.76-.21.55-.41,1.18-.15,1.69.18.35,5.63,4.35,6.34,4.84.43.3.95.39,1.44.49,9.93-5.02,20.48-8.87,30.31-14.03.01-1.26-.76-1.59-1.57-2.24"/>
      <path class="cls-1" d="M65.15,149.55c-.58,1.83,3.88,5.33,5.27,4.09,7.54-6.2,16.92-11.39,25.64-15.78-.92-3.56-5.82-4.01-7.63-7-9.98,6.34-15,9.98-23.28,18.69"/>
      <path class="cls-1" d="M65.15,149.55c-2.23,2.34-4.25,4.09-6.36,6.75-8.99,11.22-16.23,24.77-19.7,38.82l7.29-12.81c5.91-9.44,15.47-21.62,24.04-28.67l-5.27-4.09Z"/>
      <path class="cls-1" d="M69.06,34.58c-20.17,11.22-14.56,35.2,10.28,33.76l1.08-.81c-1.18-11.67-2.36-23.32-3.56-34.98l-1.2-.43c-2.69.79-4.03,1.02-6.6,2.46"/>
      <path class="cls-1" d="M75.65,32.13l3.69,36.22c5.76-.33,10.4-2.05,15.16-5.25l1-1.63-3.17-27.15c-.05-1.34-.13-2.22-1.49-2.77-6.78-1.69-8.7-1.3-15.19.59"/>
      <path class="cls-1" d="M90.84,31.55l3.66,31.54c13.77-9.29,14.11-27.07-3.66-31.54"/>
      <path class="cls-1" d="M744.41,183.43c-2.52,0-5.58,2.01-5.54,4.68l-.59-3.5h-3.5l.2,39.13h3.5l-.08-16.35c1.02.22.91,1.73,1.74,2.64,1.6,1.73,4.91,1.87,7.07,1.18,8.19-2.56,8.1-27.76-2.8-27.78ZM741.91,208.25c-5.17-2.36-5.52-20.76,1.48-21.8,8.28-1.22,8.28,26.25-1.48,21.8Z"/>
      <path class="cls-1" d="M512.23,74.19c.09,2.64.15,5.55.04,8.19.95-1.97.95-6.1-.04-8.19"/>
      <path class="cls-1" d="M242.74,182.99c-10.3,1.93-10.76,24.04-1.27,28.02,17.53,7.34,20.19-31.54,1.27-28.02ZM245.56,206.68c-6.04.55-6.42-17.02-1.63-18.46,7.62-2.26,7.17,17.94,1.63,18.46Z"/>
      <path class="cls-1" d="M419.35,189.57c0-.41-1.87-4.19-2.35-4.68-2.67-2.83-9.16-2.58-12.26-.55-3.73,2.46-1.87,3.33.31,6.1,3.81-4.33,10.04-3.01,9.07,3.52-7.58-.87-14.29,3.38-12.53,11.71,1.49,7.1,10.21,8.15,12.9,1.71.16,4.78.63,3.44,4.98,3.52l-.11-21.33ZM410.95,206.82c-5.31.89-6-7.54-.48-8.64,1.22-.24,2.44-.16,3.66-.14.39,2.5-.1,8.24-3.18,8.78Z"/>
      <path class="cls-1" d="M652.25,183.56c-10.67,1.77-11.08,30.18,3.47,27.88,10.83-1.71,9.86-30.1-3.47-27.88ZM652.09,208.11c-5.36-2.28-5.58-21.03,1.35-21.64,8.4-.73,8.35,25.79-1.35,21.64Z"/>
      <path class="cls-1" d="M779.97,183.46c-2.72-.26-10.16,2.1-6.62,5.55.75.53,4.19-4.31,8.14-1.73,2.05,1.34,2.11,5,2.42,7.26-7.34-.35-13.86,2.26-12.75,10.74.74,5.67,7.11,8.85,11.1,4.19.94-1.08.78-2.28,1.7-2.68l.02,4.09h3.52c-2.61-7.12,3.72-26.39-7.52-27.43ZM777.38,208.43c-2.46-.55-2.83-2.62-2.84-4.84-.03-5.9,4.39-6.47,9.37-6.14-.08,4.09-.67,12.32-6.54,10.98Z"/>
    </g>
  </g>
</svg>