<?xml version="1.0" encoding="UTF-8"?>
<svg id="Livello_2" data-name="Livello 2" xmlns="http://www.w3.org/2000/svg" viewBox="0 0 1053.37 292.91">
  <defs>
    <style>
      .cls-1 {
        fill: #fff;
      }
    </style>
  </defs>
  <g id="Livello_1-2" data-name="Livello 1">
    <g>
      <path class="cls-1" d="M427.84,138.17c-1.27-1.81-2.93-3.15-4.96-3.94-2.05-.87-4.26-1.26-6.6-1.26-1.34,0-2.68.18-3.93.47-1.24.31-2.42.79-3.44,1.5-1.02.71-1.88,1.57-2.43,2.68-.53,1.1-.91,2.36-.91,3.86.01,2.18.79,3.92,2.37,5.1,1.58,1.18,3.47,2.2,5.74,3.07,2.29.87,4.81,1.73,7.55,2.52,2.76.79,5.26,1.87,7.55,3.36,2.29,1.42,4.25,3.31,5.75,5.67,1.51,2.36,2.39,5.49,2.41,9.42.02,3.52-.6,6.59-1.92,9.27-1.32,2.68-3.05,4.78-5.22,6.59-2.19,1.81-4.77,3.07-7.67,3.94-2.91.87-5.95,1.34-9.18,1.34-4.07,0-7.99-.71-11.78-2.05-3.76-1.34-7.06-3.7-9.75-6.91l8.83-8.58c1.41,2.2,3.31,3.86,5.67,5.12,2.35,1.18,4.79,1.81,7.37,1.81,1.34,0,2.75-.16,4.09-.55,1.34-.39,2.57-.94,3.67-1.65,1.1-.71,2.04-1.73,2.66-2.83.7-1.18,1.01-2.42,1-3.92-.01-2.44-.81-4.25-2.39-5.59-1.58-1.34-3.48-2.44-5.82-3.29-2.29-.87-4.79-1.73-7.55-2.6-2.74-.79-5.26-1.89-7.55-3.31-2.27-1.42-4.25-3.23-5.75-5.57-1.59-2.36-2.37-5.43-2.39-9.35-.02-3.38.68-6.37,2.06-8.89,1.4-2.5,3.2-4.54,5.46-6.2,2.27-1.65,4.86-2.91,7.75-3.7,2.91-.79,5.88-1.16,8.95-1.16,3.44,0,6.83.53,10.12,1.55,3.21,1.02,6.21,2.83,8.82,5.19l-8.51,9.03-.08-.16Z"/>
      <path class="cls-1" d="M448.86,124.03h.08-.08ZM449.27,189.94l-.33-65.91h43.54l.05,10.61h-31.85l.08,16.19h30.2l.05,10.59h-30.2l.09,17.92h33.59l.05,10.61h-45.27Z"/>
      <path class="cls-1" d="M526.69,151.99c1.63,0,3.36,0,5.02-.24,1.65-.16,3.2-.55,4.62-1.1,1.41-.55,2.51-1.48,3.37-2.66.84-1.18,1.3-2.91,1.29-5.12,0-1.89-.41-3.46-1.2-4.62-.77-1.18-1.88-2.05-3.14-2.68-1.26-.63-2.76-.94-4.31-1.18-1.57-.16-3.15-.31-4.65-.31h-10.11l.09,17.83h9.11l-.08.08ZM505.67,124.03h22.82c3.15,0,6.2.31,9.19.87,2.97.63,5.58,1.57,7.87,2.99,2.27,1.4,4.17,3.36,5.52,5.73,1.33,2.44,2.05,5.51,2.07,9.19.02,4.8-1.27,8.79-3.85,12.02-2.58,3.23-6.41,5.17-11.26,5.88l17.64,29.16h-14.13l-15.35-27.9h-8.56l.14,27.9h-11.69l-.33-65.91-.08.08Z"/>
      <path class="cls-1" d="M580.17,164.79h20.46l-10.25-26.78-10.21,26.78ZM610.9,189.94l-6.2-15.09h-28.55l-5.91,15.09h-13.1l28.31-65.91h10.19l28.65,65.91h-13.4Z"/>
      <path class="cls-1" d="M676.61,139.51c-2.45-2.6-4.8-4.33-7.01-5.17-2.29-.87-4.55-1.34-6.83-1.34-3.36,0-6.51.63-9.24,1.79-2.75,1.18-5.08,2.91-7.12,5.04-2.04,2.12-3.52,4.64-4.59,7.46-1.09,2.83-1.62,5.9-1.61,9.19.02,3.54.59,6.85,1.7,9.74,1.12,2.99,2.61,5.59,4.66,7.71,1.98,2.18,4.33,3.84,7.17,5.1,2.74,1.26,5.89,1.89,9.26,1.89,2.68,0,5.25-.63,7.76-1.89,2.51-1.26,4.84-3.31,6.95-6.12l9.68,6.91c-2.95,4.09-6.56,7.06-10.86,8.95-4.22,1.89-8.84,2.83-13.64,2.83-5.1,0-9.72-.79-13.96-2.44-4.26-1.65-7.95-3.99-11.03-6.98-3.06-2.99-5.52-6.59-7.26-10.84-1.75-4.25-2.64-8.87-2.67-14.07-.03-5.17.81-10.05,2.52-14.36,1.69-4.33,4.11-8.03,7.15-11,3.05-3.07,6.72-5.43,10.96-7,4.22-1.63,8.92-2.42,13.94-2.42,4.47,0,8.64.79,12.41,2.34,3.86,1.57,7.4,4.25,10.72,8.03l-9.08,6.67Z"/>
      <path class="cls-1" d="M703.92,156.55c.02,3.54.59,6.83,1.7,9.74,1.12,2.99,2.61,5.59,4.66,7.69,1.98,2.2,4.33,3.86,7.17,5.12,2.74,1.26,5.89,1.89,9.26,1.89s6.51-.63,9.26-1.89c2.81-1.26,5.16-2.99,7.12-5.12,1.94-2.18,3.5-4.7,4.58-7.69s1.62-6.2,1.6-9.74c-.02-3.31-.58-6.36-1.7-9.19-1.12-2.83-2.62-5.35-4.66-7.46-2.06-2.12-4.43-3.86-7.17-5.04-2.84-1.18-5.89-1.81-9.28-1.81s-6.51.63-9.24,1.81c-2.75,1.18-5.08,2.91-7.12,5.04-2.04,2.11-3.5,4.62-4.59,7.46-1.09,2.83-1.62,5.88-1.61,9.19M691.69,157.26c-.03-5.27.81-10.05,2.52-14.38,1.69-4.31,4.11-8.01,7.15-11,3.05-3.05,6.72-5.41,10.96-6.98,4.22-1.65,8.92-2.44,13.94-2.44s9.9.71,14.14,2.28c4.24,1.57,7.95,3.94,11.09,6.91,3.08,3.07,5.52,6.69,7.28,11,1.75,4.25,2.64,9.05,2.67,14.3.03,5.25-.82,9.82-2.53,14.07-1.71,4.23-4.11,7.85-7.17,10.92-3.11,3.05-6.8,5.41-11.02,7.14-4.22,1.73-9,2.6-14.11,2.68-5.1,0-9.72-.79-13.96-2.44-4.26-1.65-7.95-4.01-11.03-6.98-3.06-2.99-5.52-6.61-7.26-10.84-1.75-4.25-2.64-8.89-2.67-14.07v-.16Z"/>
      <path class="cls-1" d="M811,170.54c-1.35-1.81-3.08-2.75-5.27-2.75-.87,0-1.73.24-2.59.71-.86.47-1.25,1.18-1.25,2.2,0,.79.32,1.42,1.03,1.81.71.39,1.58.71,2.68.94,1.1.24,2.29.55,3.45.79,1.26.31,2.44.71,3.47,1.24,1.1.55,1.95,1.34,2.67,2.36.71,1.02,1.04,2.36,1.04,4.17,0,1.57-.3,2.99-1,4.07-.7,1.1-1.54,1.97-2.64,2.68-1.1.63-2.35,1.18-3.69,1.42-1.4.31-2.73.47-4.15.47-2.05,0-4-.31-5.73-.87-1.73-.63-3.29-1.65-4.72-3.23l4.45-4.15c.87.94,1.82,1.73,2.77,2.36.93.63,2.19.92,3.61.92.47,0,1.02,0,1.49-.14.47-.16,1.02-.31,1.41-.55.37-.24.76-.55,1.08-.94.31-.39.39-.87.39-1.34,0-.94-.32-1.65-1.11-2.05-.69-.47-1.56-.79-2.66-1.1-1.1-.31-2.29-.55-3.47-.79-1.16-.24-2.42-.63-3.45-1.18-1.1-.55-1.97-1.26-2.69-2.28-.69-.92-1.09-2.26-1.1-3.99,0-1.5.3-2.75.91-3.86.62-1.1,1.41-1.97,2.43-2.66,1.02-.71,2.12-1.26,3.44-1.57,1.34-.31,2.59-.47,3.93-.47,1.81,0,3.52.31,5.34.94,1.81.63,3.14,1.63,4.25,3.13l-4.45,4.01.16-.31Z"/>
      <path class="cls-1" d="M821.51,186.01c0-1.18.46-2.2,1.32-3.07.86-.87,1.94-1.26,3.12-1.26s2.28.39,3.15,1.26c.87.79,1.35,1.81,1.35,2.99,0,1.18-.46,2.2-1.32,3.07-.86.87-1.96,1.26-3.14,1.26-.63,0-1.18-.08-1.71-.31-.55-.24-1.03-.55-1.42-.87-.4-.39-.71-.79-.95-1.34-.24-.55-.4-1.1-.4-1.65v-.08Z"/>
      <path class="cls-1" d="M837.95,163.15h6.67l.02,4.25h.08c.7-1.57,1.8-2.75,3.19-3.62,1.41-.87,2.98-1.26,4.72-1.26.39,0,.77,0,1.16.08.39,0,.79.16,1.18.31l.03,6.43c-.55-.16-1.1-.24-1.65-.39-.53-.08-1.08-.16-1.56-.16-1.57,0-2.83.31-3.77.87-.92.55-1.63,1.26-2.17,1.97-.47.71-.86,1.5-1.01,2.2-.15.79-.23,1.34-.23,1.65l.07,14.36h-6.67l-.14-26.78.08.08Z"/>
      <path class="cls-1" d="M854.62,186.01c0-1.18.46-2.2,1.32-3.07.86-.87,1.94-1.26,3.12-1.26s2.28.39,3.15,1.26c.85.79,1.35,1.81,1.35,2.99,0,1.18-.48,2.2-1.32,3.07-.86.87-1.96,1.26-3.14,1.26-.63,0-1.18-.08-1.71-.31-.55-.24-1.03-.55-1.42-.87-.4-.39-.71-.79-.95-1.34-.24-.55-.4-1.1-.4-1.65v-.08Z"/>
      <polygon class="cls-1" points="871.05 147.76 877.71 147.76 877.92 189.95 871.27 189.95 871.05 147.76"/>
      <path class="cls-1" d="M885.6,186.01c0-1.18.46-2.2,1.32-3.07.86-.87,1.96-1.26,3.14-1.26s2.26.39,3.13,1.26c.87.79,1.35,1.81,1.35,2.99,0,1.18-.46,2.2-1.32,3.07-.86.87-1.96,1.26-3.12,1.26-.65,0-1.18-.08-1.73-.31-.55-.24-1.03-.55-1.42-.87-.4-.39-.71-.79-.95-1.34-.24-.55-.4-1.1-.4-1.65v-.08Z"/>
      <path class="cls-1" d="M400.06,260.95h4.86c1.5,0,3.07,0,4.72-.16,1.63-.08,3.13-.39,4.46-.87,1.34-.47,2.49-1.26,3.35-2.28.86-1.02,1.33-2.5,1.32-4.39,0-1.65-.33-2.99-.96-4.01-.63-1.02-1.48-1.81-2.59-2.28-1.1-.55-2.29-.87-3.63-1.1-1.34-.14-2.66-.22-4-.22h-7.69l.08,15.23.08.08ZM394.54,240.6h11.77c2.2,0,4.39.16,6.59.39,2.2.24,4.16.87,5.89,1.73,1.74.87,3.16,2.12,4.25,3.76,1.11,1.65,1.67,3.94,1.69,6.85.02,3.36-.99,6.12-3.01,8.24-2.04,2.12-4.86,3.38-8.46,4.01l13.21,21.21h-6.67l-12.58-20.76h-7.06l.11,20.76h-5.49l-.23-46.12v-.08Z"/>
      <path class="cls-1" d="M456.36,268.8c-.09-2.6-.97-4.7-2.55-6.28-1.58-1.57-3.85-2.36-6.68-2.36s-5.09.79-6.82,2.36c-1.7,1.57-2.72,3.6-3.1,6.28h19.14ZM460.81,281.21c-1.8,2.36-3.82,4.01-5.94,4.94-2.2.94-4.7,1.42-7.53,1.42-2.34,0-4.55-.39-6.44-1.26-1.87-.85-3.53-1.95-4.88-3.44-1.35-1.42-2.38-3.15-3.08-5.12-.72-1.97-1.12-3.99-1.13-6.28-.01-2.36.37-4.49,1.15-6.51.76-1.97,1.85-3.7,3.26-5.12,1.41-1.42,3.04-2.52,4.92-3.31s4.01-1.18,6.27-1.18c2.12,0,4.07.39,5.89,1.1,1.81.71,3.31,1.73,4.56,3.15,1.27,1.34,2.3,3.07,3.02,5.04.72,1.95,1.04,4.23,1.06,6.75v1.65s-24.55,0-24.55,0c.09,1.34.41,2.6.96,3.76.56,1.18,1.25,2.2,2.12,3.15.87.87,1.9,1.57,3.08,2.12,1.18.55,2.42.79,3.84.79,2.2,0,4.09-.39,5.56-1.18,1.49-.79,2.9-1.97,4.07-3.46l3.85,2.99h-.08Z"/>
      <path class="cls-1" d="M483.99,272.1c-3.31,0-5.8.47-7.77,1.34-1.96.87-2.82,2.42-2.81,4.47,0,1.89.65,3.31,1.91,4.09s2.92,1.18,4.79,1.18c1.5,0,2.75-.24,3.85-.71,1.08-.47,2.02-1.18,2.73-1.97.7-.87,1.33-1.81,1.72-2.91.39-1.1.62-2.26.61-3.52v-1.97h-5.11.08ZM469.25,260.16c1.57-1.65,3.35-2.83,5.55-3.54,2.12-.79,4.3-1.16,6.51-1.16,4.54,0,7.78,1.08,9.74,3.21,1.98,2.12,3.02,5.35,3.04,9.74l.07,13.12c0,.87,0,1.81.17,2.68.08.94.17,1.81.33,2.58h-4.86c-.16-.71-.24-1.48-.33-2.26v-2.28h-.17c-1.02,1.57-2.35,2.83-3.99,3.84-1.63,1.02-3.67,1.5-6.03,1.5-1.55,0-3.05-.24-4.39-.63-1.34-.39-2.58-.92-3.61-1.71-1.03-.79-1.82-1.73-2.45-2.83-.64-1.1-.96-2.44-.96-3.94-.01-2.52.61-4.47,1.94-5.88,1.33-1.42,2.9-2.52,4.84-3.23,1.96-.71,3.99-1.1,6.27-1.34,2.28-.16,4.31-.24,6.12-.24h1.97v-.94c-.02-2.18-.65-3.92-2-5.02-1.34-1.1-3.14-1.73-5.58-1.73-1.65,0-3.28.24-4.86.79-1.57.55-2.98,1.42-4.22,2.52l-3.24-3.31.16.08Z"/>
      <polygon class="cls-1" points="503.73 237.46 508.83 237.46 509.08 286.71 503.98 286.71 503.73 237.46"/>
      <polygon class="cls-1" points="538.2 286.78 537.95 240.66 537.95 240.61 566.91 240.61 566.93 245.7 543.48 245.7 543.55 260.16 565.43 260.16 565.46 265.28 543.58 265.28 543.66 281.69 568.3 281.69 568.32 286.78 538.2 286.78"/>
      <path class="cls-1" d="M576.43,278.7c1.03,1.26,2.14,2.28,3.3,2.99,1.18.71,2.68,1.1,4.57,1.1.79,0,1.57-.08,2.34-.24.79-.16,1.49-.47,2.2-.87s1.18-.87,1.57-1.5c.39-.63.54-1.34.54-2.12,0-.79-.16-1.5-.56-2.05s-.87-.94-1.5-1.34c-.63-.39-1.34-.63-2.13-.87-.79-.24-1.56-.39-2.42-.63-1.42-.31-2.84-.61-4.1-1-1.32-.39-2.42-.87-3.45-1.5-.95-.63-1.74-1.42-2.37-2.44-.56-1.02-.86-2.28-.87-3.86,0-1.5.28-2.73.9-3.92.62-1.1,1.49-2.05,2.58-2.83,1.1-.71,2.28-1.34,3.59-1.65,1.34-.39,2.75-.63,4.17-.63,2.18,0,4.15.47,6.05,1.34,1.79.87,3.3,2.28,4.33,4.25l-4.22,2.81c-.64-1.1-1.51-1.95-2.61-2.66-1.1-.63-2.37-1.02-3.84-1.02-.71,0-1.42.08-2.12.24-.71.16-1.34.39-1.96.79-.55.31-1,.79-1.39,1.34-.39.53-.55,1.16-.54,1.87,0,.63.24,1.18.64,1.65.38.47.93.87,1.72,1.18.71.31,1.58.63,2.44.94.95.24,1.89.47,2.9.63,1.34.24,2.6.63,3.86,1.02,1.18.39,2.27.94,3.22,1.65.95.71,1.66,1.57,2.14,2.58.48,1.02.8,2.36.81,3.86,0,1.73-.3,3.23-1,4.41-.7,1.16-1.64,2.18-2.74,2.97-1.16.79-2.41,1.34-3.91,1.65-1.41.31-2.89.55-4.46.55-2.6,0-4.86-.39-6.75-1.18-1.89-.79-3.63-2.28-5.12-4.47l3.98-3.15.24.08Z"/>
      <path class="cls-1" d="M620.11,260.55h-8.95l.08,15.23v2.75c.02.87.26,1.57.58,2.2.32.63.79,1.1,1.35,1.5.63.39,1.5.55,2.6.55.71,0,1.49-.08,2.26-.24.79-.16,1.49-.39,2.2-.79l.26,4.62c-.86.39-1.81.63-2.91.87-1.08.24-2.03.24-3.05.24-1.81,0-3.29-.24-4.39-.71-1.1-.47-1.97-1.16-2.53-2.03-.63-.87-1.03-1.97-1.2-3.23-.16-1.26-.33-2.68-.34-4.25l-.08-16.72h-6.67l-.02-4.33h6.67l-.04-8.64h5.1l.04,8.64h8.95l.02,4.33h.08Z"/>
      <path class="cls-1" d="M640.73,272.1c-3.31,0-5.8.47-7.77,1.34-1.96.87-2.82,2.42-2.81,4.47,0,1.89.65,3.31,1.91,4.09s2.92,1.18,4.79,1.18c1.5,0,2.75-.24,3.85-.71,1.08-.47,2.02-1.18,2.72-1.97.7-.87,1.33-1.81,1.72-2.91.39-1.1.62-2.28.61-3.52v-1.97h-5.11.08ZM625.92,260.16c1.57-1.65,3.35-2.83,5.55-3.54,2.12-.79,4.3-1.18,6.51-1.18,4.55,0,7.78,1.1,9.74,3.23,1.98,2.12,3.02,5.35,3.04,9.74l.07,13.12c0,.87,0,1.81.17,2.68.08.94.17,1.79.33,2.58h-4.86c-.16-.71-.24-1.48-.33-2.26v-2.28h-.17c-1.02,1.57-2.35,2.83-3.99,3.84-1.63,1.02-3.67,1.5-6.03,1.5-1.55,0-3.05-.24-4.39-.63-1.34-.39-2.58-.94-3.61-1.73-1.03-.77-1.82-1.71-2.45-2.81-.64-1.1-.96-2.44-.96-3.94-.01-2.52.61-4.47,1.94-5.88,1.33-1.42,2.88-2.52,4.84-3.23,1.96-.71,3.99-1.1,6.27-1.34,2.28-.16,4.31-.24,6.12-.24h1.97v-.94c-.02-2.18-.65-3.92-2-5.02-1.34-1.1-3.14-1.73-5.58-1.73-1.65,0-3.28.24-4.86.79-1.57.55-2.98,1.42-4.24,2.52l-3.22-3.31.16.08Z"/>
      <path class="cls-1" d="M676.75,260.55h-8.95l.08,15.23v2.75c.02.87.26,1.57.58,2.2.32.63.79,1.1,1.35,1.5.63.39,1.5.55,2.6.55.71,0,1.49-.08,2.26-.24.79-.16,1.49-.39,2.2-.79l.26,4.62c-.86.39-1.81.63-2.91.87-1.08.24-2.03.24-3.05.24-1.81,0-3.29-.24-4.39-.71-1.1-.47-1.97-1.16-2.53-2.03-.63-.87-1.03-1.97-1.2-3.23-.16-1.26-.33-2.68-.34-4.25l-.08-16.72h-6.67l-.02-4.33h6.67l-.04-8.64h5.1l.04,8.64h8.95l.02,4.33h.08Z"/>
      <path class="cls-1" d="M705.91,268.8c-.09-2.6-.97-4.7-2.55-6.28-1.58-1.57-3.85-2.36-6.68-2.36s-5.09.79-6.82,2.36c-1.7,1.57-2.72,3.6-3.1,6.28h19.14ZM710.28,281.21c-1.8,2.36-3.82,4.01-5.94,4.94-2.2.94-4.7,1.42-7.53,1.42-2.34,0-4.55-.39-6.44-1.26-1.87-.85-3.53-1.95-4.88-3.44-1.35-1.42-2.38-3.15-3.08-5.12-.72-1.97-1.12-3.99-1.13-6.28-.01-2.36.37-4.49,1.13-6.51.78-1.97,1.87-3.7,3.28-5.12,1.41-1.42,3.04-2.52,4.92-3.31s4.01-1.18,6.27-1.18c2.12,0,4.07.39,5.89,1.1,1.81.71,3.31,1.73,4.56,3.15,1.27,1.34,2.3,3.07,3.02,5.04.72,1.95,1.04,4.23,1.06,6.75v1.65s-24.55,0-24.55,0c.09,1.34.41,2.6.96,3.76.56,1.18,1.25,2.2,2.12,3.15.87.87,1.9,1.57,3.08,2.12,1.18.55,2.42.79,3.84.79,2.2,0,4.09-.39,5.56-1.18,1.49-.79,2.9-1.97,4.07-3.46l3.85,2.99h-.08Z"/>
      <polygon class="cls-1" points="738.08 240.59 743.57 240.59 743.81 286.71 738.32 286.71 738.08 240.59"/>
      <path class="cls-1" d="M754.2,263.46c0-1.42-.01-2.68-.18-3.94-.08-1.16-.17-2.34-.17-3.29h4.78v2.5s.03,2.52.03,2.52h.16c.31-.71.86-1.5,1.48-2.12.63-.71,1.41-1.32,2.27-1.87.86-.55,1.86-.94,2.89-1.34,1.1-.31,2.28-.47,3.54-.47,1.95,0,3.68.31,5.18.94,1.5.63,2.66,1.5,3.61,2.5.95,1.1,1.67,2.44,2.14,3.94.48,1.57.72,3.23.73,5.04l.1,18.85h-5.1l-.09-18.32c-.01-2.58-.57-4.55-1.68-6.04-1.11-1.5-2.92-2.2-5.26-2.2-1.65,0-3.07.31-4.25.87-1.16.55-2.18,1.34-2.88,2.44-.7,1.1-1.33,2.28-1.71,3.7-.39,1.4-.54,2.97-.53,4.78l.08,14.86h-5.1l-.12-23.26.08-.08Z"/>
      <polygon class="cls-1" points="804.37 286.71 798.8 286.71 786.25 256.24 792.13 256.24 801.76 280.1 801.91 280.1 810.8 256.24 816.29 256.24 804.45 286.71 804.37 286.71"/>
      <path class="cls-1" d="M844.61,268.8c-.09-2.6-.97-4.7-2.55-6.28-1.58-1.57-3.85-2.36-6.68-2.36s-5.09.79-6.82,2.36c-1.7,1.57-2.72,3.6-3.1,6.28h19.14ZM849.06,281.21c-1.8,2.36-3.82,4.01-5.94,4.94-2.2.94-4.7,1.42-7.53,1.42-2.34,0-4.55-.39-6.44-1.26-1.87-.85-3.53-1.95-4.88-3.44-1.35-1.42-2.38-3.15-3.08-5.12-.72-1.97-1.12-3.99-1.13-6.28-.01-2.36.37-4.49,1.15-6.51.76-1.97,1.85-3.7,3.26-5.12,1.41-1.42,3.04-2.52,4.92-3.31s3.99-1.18,6.27-1.18c2.12,0,4.07.39,5.89,1.1,1.81.71,3.31,1.73,4.56,3.15,1.27,1.34,2.3,3.07,3.02,5.04.72,1.95,1.04,4.23,1.06,6.75v1.65s-24.55,0-24.55,0c.09,1.34.41,2.6.96,3.76.56,1.18,1.25,2.2,2.12,3.15.87.87,1.9,1.57,3.08,2.12,1.18.55,2.42.79,3.84.79,2.2,0,4.09-.39,5.56-1.18,1.49-.79,2.9-1.97,4.07-3.46l3.85,2.99h-.08Z"/>
      <path class="cls-1" d="M858.62,278.7c1.03,1.26,2.14,2.28,3.3,2.99,1.18.71,2.68,1.1,4.57,1.1.79,0,1.55-.08,2.34-.24.79-.16,1.49-.47,2.2-.87s1.18-.87,1.57-1.5c.39-.63.54-1.34.54-2.12,0-.79-.16-1.5-.56-2.05s-.87-.94-1.5-1.34c-.63-.39-1.34-.63-2.13-.87-.79-.24-1.56-.39-2.42-.63-1.42-.31-2.84-.61-4.1-1-1.32-.39-2.42-.87-3.45-1.5-.95-.63-1.74-1.42-2.37-2.44-.56-1.02-.88-2.28-.89-3.86,0-1.5.3-2.73.92-3.92.62-1.1,1.49-2.05,2.58-2.83,1.1-.71,2.26-1.34,3.61-1.65,1.32-.39,2.73-.63,4.15-.63,2.18,0,4.15.47,6.05,1.34,1.79.87,3.3,2.28,4.33,4.25l-4.22,2.81c-.64-1.08-1.51-1.95-2.61-2.66-1.1-.63-2.37-1.02-3.84-1.02-.71,0-1.42.08-2.12.24-.71.16-1.34.39-1.96.79-.55.31-1,.79-1.39,1.34-.39.53-.55,1.16-.54,1.87,0,.63.24,1.18.64,1.65.4.47.93.87,1.72,1.18.71.31,1.58.63,2.44.94.95.24,1.89.47,2.92.63,1.32.24,2.58.63,3.84,1.02,1.18.39,2.27.94,3.22,1.65.95.71,1.66,1.57,2.14,2.58.48,1.02.8,2.36.81,3.86,0,1.73-.3,3.23-1,4.41s-1.64,2.18-2.74,2.97c-1.16.79-2.41,1.34-3.91,1.65-1.41.31-2.91.55-4.46.55-2.6,0-4.86-.39-6.75-1.18-1.89-.79-3.63-2.28-5.12-4.47l3.98-3.15.24.08Z"/>
      <path class="cls-1" d="M902.31,260.55h-8.95l.08,15.25v2.73c.02.87.28,1.57.58,2.2.32.63.79,1.1,1.35,1.5.63.39,1.5.55,2.6.55.69,0,1.49-.08,2.26-.24.79-.16,1.49-.39,2.2-.79l.26,4.62c-.86.39-1.81.63-2.91.87-1.08.24-2.03.24-3.05.24-1.81,0-3.31-.24-4.39-.71-1.1-.47-1.97-1.16-2.53-2.03-.63-.87-1.03-1.97-1.2-3.23-.16-1.26-.33-2.68-.34-4.25l-.08-16.72h-6.67l-.02-4.33h6.67l-.04-8.64h5.1l.04,8.64h8.95l.02,4.33h.08Z"/>
      <path class="cls-1" d="M908.52,263.46c0-1.42-.01-2.68-.18-3.94-.08-1.16-.17-2.34-.17-3.29h4.78v2.5s.03,2.52.03,2.52h.18c.29-.71.84-1.5,1.46-2.12.63-.71,1.41-1.32,2.27-1.87.86-.55,1.88-.94,2.89-1.34,1.1-.31,2.28-.47,3.54-.47,1.63,0,3.05.24,4.15.63s2.03.94,2.76,1.5c.71.63,1.32,1.24,1.72,1.87.4.63.79,1.26,1.03,1.81,1.09-1.81,2.42-3.23,3.91-4.23,1.47-1.02,3.36-1.57,5.7-1.57,2.2,0,4.02.31,5.51.87,1.48.55,2.66,1.42,3.61,2.5.95,1.1,1.59,2.44,1.99,4.01.38,1.57.65,3.38.66,5.35l.09,18.53h-5.1l-.09-18.22c0-1.02-.09-2.05-.33-3.07-.26-1.02-.64-1.89-1.19-2.68-.55-.79-1.35-1.42-2.29-1.89-.95-.47-2.21-.71-3.62-.71-1.08,0-2.1.24-3.05.63-.92.39-1.8,1.02-2.51,1.81-.68.79-1.23,1.73-1.7,2.83-.47,1.1-.62,2.36-.61,3.68l.09,17.61h-5.1l-.09-17.29c-.02-3.36-.5-5.8-1.37-7.22-.95-1.42-2.45-2.12-4.48-2.12-1.65,0-3.07.31-4.23.87-1.18.55-2.2,1.34-2.9,2.44-.7,1.1-1.33,2.28-1.71,3.7-.39,1.42-.54,2.97-.53,4.78l.08,14.86h-5.1l-.12-23.26Z"/>
      <path class="cls-1" d="M986.84,268.8c-.09-2.6-.97-4.7-2.55-6.28-1.58-1.57-3.85-2.36-6.68-2.36s-5.09.79-6.82,2.36c-1.7,1.57-2.72,3.6-3.1,6.28h19.14ZM991.29,281.21c-1.8,2.36-3.82,4.01-5.94,4.94-2.2.94-4.7,1.42-7.53,1.42-2.34,0-4.55-.39-6.44-1.26-1.87-.85-3.53-1.95-4.88-3.44-1.35-1.42-2.38-3.15-3.08-5.12-.72-1.97-1.12-3.99-1.13-6.28-.01-2.36.37-4.49,1.15-6.51.78-1.97,1.85-3.7,3.26-5.12,1.41-1.42,3.06-2.52,4.92-3.31,1.88-.79,4.01-1.18,6.27-1.18,2.12,0,4.09.39,5.89,1.1,1.81.71,3.31,1.73,4.56,3.15,1.27,1.34,2.3,3.07,3.02,5.04.72,1.95,1.04,4.23,1.06,6.75v1.65s-24.55,0-24.55,0c.09,1.34.41,2.6.96,3.76.56,1.18,1.27,2.2,2.12,3.15.87.87,1.9,1.57,3.08,2.12,1.18.55,2.42.79,3.84.79,2.2,0,4.07-.39,5.58-1.18,1.47-.79,2.88-1.97,4.06-3.46l3.85,2.99h-.08Z"/>
      <path class="cls-1" d="M1000.15,263.46c0-1.42-.01-2.68-.18-3.94-.08-1.16-.17-2.34-.17-3.29h4.8v2.5s.03,2.52.03,2.52h.16c.29-.71.84-1.5,1.46-2.12.63-.71,1.41-1.32,2.27-1.87.86-.55,1.88-.94,2.89-1.34,1.1-.31,2.28-.47,3.54-.47,1.97,0,3.68.31,5.18.94,1.5.63,2.68,1.5,3.61,2.52.95,1.08,1.67,2.42,2.14,3.92.48,1.57.72,3.23.73,5.04l.1,18.85h-5.1l-.09-18.3c-.01-2.6-.57-4.56-1.68-6.06-1.11-1.5-2.92-2.2-5.26-2.2-1.65,0-3.07.31-4.23.87-1.18.55-2.2,1.34-2.9,2.44-.7,1.1-1.33,2.28-1.71,3.7-.39,1.42-.54,2.97-.53,4.78l.08,14.86h-5.1l-.12-23.26.08-.08Z"/>
      <path class="cls-1" d="M1053.01,260.55h-8.93l.08,15.25v2.73c.02.87.26,1.57.56,2.2.34.63.79,1.1,1.35,1.5.63.39,1.5.55,2.6.55.71,0,1.49-.08,2.28-.24.77-.16,1.47-.39,2.18-.79l.26,4.62c-.86.39-1.81.63-2.91.87-1.08.24-2.03.24-3.05.24-1.81,0-3.29-.24-4.39-.71-1.1-.47-1.97-1.16-2.53-2.03-.63-.87-1.03-1.97-1.2-3.23-.16-1.26-.33-2.68-.34-4.25l-.08-16.72h-6.67l-.02-4.33h6.67l-.04-8.64h5.12l.04,8.64h8.93l.02,4.33h.08Z"/>
      <path class="cls-1" d="M180.12,268.49s-.63.39-.94.63c.39-.16.71-.31,1.1-.55v-.16h-.08l-.08.08Z"/>
      <path class="cls-1" d="M.98,262.44c1.33-.87,2.75-1.81,5.08-3.31-2.19-.87-3.92-1.65-5.74-2.34l.03,6.12s.39-.31.63-.47"/>
      <path class="cls-1" d="M.31,268.88v.71s.32-.16.55-.31c-.24-.16-.39-.24-.55-.39"/>
      <polygon class="cls-1" points="66.14 179.49 66.32 179.33 66.32 179.49 66.14 179.49"/>
      <path class="cls-1" d="M164.02,47.92v-.1s.16.1.16.1h-.16ZM164.02,47.92v.08s0-.08,0-.08Z"/>
      <path class="cls-1" d="M4.98,246.8c-1.73-.55-3.37-1.1-4.79-1.57l.02,3.94c1.65-.39,3.28-.79,4.78-1.18v-1.1s0-.08,0-.08Z"/>
      <path class="cls-1" d="M268.34,121.12s-.71.31-1.02.47c.39-.08.79-.24,1.1-.31.39-.94.78-1.97,1.17-2.91h-.08c-.39.94-.78,1.81-1.17,2.75"/>
      <path class="cls-1" d="M286.58,112.56s-.08-.16-.16-.16c0,0-.08,0-.16.08.08,0,.24,0,.32.08"/>
      <path class="cls-1" d="M74.15,256.47h.08v-.31s0,.16-.08.24v.08Z"/>
      <path class="cls-1" d="M352.49,178.32s.08,0,.18.08v-.26h-.1l-.08.18Z"/>
      <path class="cls-1" d="M74.23,255.37v-.55h-.16v.08c0,.16,0,.31.08.39l.08.08Z"/>
      <path class="cls-1" d="M355.81,120.89l-.08-.1h.31v.1s-.24,0-.24,0ZM356.05,120.89v.16s0-.16,0-.16Z"/>
      <path class="cls-1" d="M333.77,213.66c-3.78-.87-7.86-1.97-11.29,1.1,3.05.47,6.2,1.02,10.44,1.73-7.9,5.73-14.94,10.76-22.82,16.41-1.78-10.21-.81-19.95-.46-29.61.32,1.42.57,2.91.95,4.94h33.9c.08.39.16.87.32,1.26-3.21,2.44-5.93,5.43-11.11,4.25l.08-.08ZM318.58,204.47s-.78.63-1.1,1.02c-1.48,0-2.97-.16-5.57-.24,1.25-1.73,2.19-2.91,3.05-4.17,1.19,1.18,2.43,2.28,3.62,3.46v-.08ZM339.91,202.19h-.24l.15-.47v.47h.08ZM343.37,190.01c.16.39.24.87.4,1.26-1.02.63-2.04,1.81-3.04,1.81-10.37,0-20.8-.24-31.15-.47-.24,0-.48-1.34-.88-2.6h34.75-.08ZM309.48,187.25c.44-1.63.83-3.05,1.37-4.94,1.58,1.1,2.61,1.81,3.79,2.6.23-1.02.38-2.05.61-3.15.24.31.4.47.48.71.71,4.17-.84,6.04-6.17,4.88l-.08-.1ZM321.88,187.88c-3.21-.89-4.03-2.79-2.47-5.73.88,1.97,1.43,3.31,2.47,5.73M331.42,184.75h-.39l-.02-4.49h.39l.02,4.49ZM343.67,185.86h-.39l-.02-3.38h.39l.02,3.38ZM311.77,161.81c2.3,3.23,3.81,5.49,4.97,7.14,1.72-2.58,3.59-5.41,5.99-9.19.18,3.86.35,6.45.44,9.11,6.22,4.17,14.43-2.05,21.29,3.15-4.53,2.83-30.19,3.23-36.95.94,1.24-3.31,2.47-6.59,4.17-11.23l.08.08ZM327.41,164.88v2.58s-.54,0-.85.08c-.16-.85-.32-1.71-.49-2.58h1.34v-.08ZM338.55,165.28v.47s-.31,0-.31,0c0,0,.23-.31.31-.47M307.57,152.54c7.68-2.2,32.56-1.57,35.93,1.02-1.41,2.12-5.09,1.97-5.39,3.76.16.39.32.79.24,1.42,0-.63-.08-1.02-.24-1.42-.64-1.71-2.76-2.03-5.5-1.95-7.22.24-14.52.24-21.74.31-2.18,0-4.23,0-3.38-3.23l.08.08ZM320.5,149.95c-2.15-1.77-2.36-3.74-.58-5.88.25,2.18.33,3.68.58,5.88M329.97,146.96h-.39l-.02-4.49h.39l.02,4.49ZM338.7,148.14s-.55,0-.87-.08c0-.94.07-1.89.14-2.89h.39c.08,1,.17,1.95.25,2.97h.08ZM308.73,133.14c10.66-.16,21.41-.08,32.07,0,.63,0,1.34.71,1.97,1.02,0,.71-.07,1.34-.15,2.03-4.62.24-9.24.55-13.89.63-4.54.08-9.17,0-14.26,0,.02,3.38.27,6.14-.03,8.81-.15,1.4-1.09,2.73-1.87,3.92-.16.24-2.44-.63-2.44-.87,0-1.42-.02-3.52.92-4.15,2.75-1.89,2.81-4.09,1.77-7.16-1.97-.47-4.08-.87-7.39-1.63,1.57-1.34,2.43-2.6,3.29-2.6M306.71,122.46c2.05.98,3.03,4.03,2.96,9.11-4.34-1.34-4.73-2.44-2.96-9.11M306.45,117.9v.47c-.15,0-.31.16-.47.16s-.24-.24-.32-.39c.24-.08.47-.16.71-.24h.08ZM307.5,108s.32.63.56,1.1c-.47.16-.86.47-1.26.47-.16,0-.55-.71-.48-.79.31-.31.78-.55,1.18-.79M311.26,108s.32.63.56.94c-.23.24-.39.55-.63.79-.4-.31-.71-.63-1.11-.94.39-.24.78-.55,1.26-.79h-.08ZM313.13,120.49c2.84,4.56,2.7,7.69.13,10.76-1.67-3.23-2.08-6.36-.13-10.76M317.58,131.57c-.33-3.07-.58-6.04-1-10.37,4.82,3.46,5.15,5.88,1,10.37M320.11,118.21h-8.09c1.4-2.44,1.8-2.44,8.09,0M313.86,108.55h2.52v.87s-2.51,0-2.51,0v-.87ZM319.43,108.08s.4.55.56.87c-.31.24-.55.47-.86.63-.24-.39-.48-.79-.71-1.18.31-.16.71-.47,1.02-.39v.08ZM321.74,117.35c.47-.24,1.02-.47,2.28-1.1.73,5.19,1.39,10.05,2.04,14.93-.71.16-1.41.31-2.12.47-.4-1.81-.96-3.62-1.21-5.51-.41-2.89-.66-5.88-.99-8.79h-.06.06ZM323.03,107.92s.4.87.56,1.26c-.31.16-.63.24-1.18.47-.08-.47-.32-.94-.24-1.42,0-.16.86-.39.86-.39v.08ZM326.18,108c.47,0,.95.31,1.42.55-.31.47-.47.79-.7,1.1-.39-.24-.87-.47-1.26-.87,0,0,.39-.87.55-.87v.08ZM328.32,116.72c.39,0,.79.63,1.42,1.1-.55.47-1.1,1.18-1.33,1.1-.47-.16-1.01-.71-1.01-1.18,0-.31.6-1.02,1-1.02h-.08ZM328.48,131.33l-.05-8.95c3.55,2.12,3.88,5.17.05,8.95M329.93,107.92c.47,0,.87.39,1.34.55-.31.47-.47.79-.62,1.1-.39-.24-.87-.55-1.26-.87,0,0,.39-.87.55-.79M334.1,121.67c.61,0,1.16.16,1.79.24l.05,9.19c-2.83-3.07-4.26-6.12-1.84-9.42M333.52,117.82s.61.24.93.39c-.23.24-.37.55-.61.79-.24-.24-.47-.47-.63-.79,0,0,.23-.39.31-.39M336.29,108.24v1.02c-1.02.16-2.12.24-3.12.39v-1.42s3.12,0,3.12,0ZM344.73,116.56s.16.31.24.47c-1.42.24-2.91.39-4.86.71.26,4.8.58,9.27.84,13.75-.53,0-1.16.08-1.71.16-.42-4.88-.84-9.74-1.26-15.09h6.75ZM295.84,112.01s-.32-.63-.56-.94c.47-.16.94-.39,1.34-.55,0,.31.3.79.16,1.02-.16.24-.63.31-1.02.47h.08ZM292.3,113.19c-.24-.39-.48-.87-.64-1.26.39-.16.79-.39,1.02-.31.24.08.32.63.48.94-.31.24-.63.39-.86.63M283.85,115.85s-.4-.77-.32-.92c.16-.31.63-.39.94-.63.08.39.38.79.32,1.08-.1.24-.63.31-1.02.47h.08ZM279.93,117.5s-.55-.79-.56-.87c.39-.39.86-.71,1.33-1.02.16.31.4.63.64,1.1-.47.24-.94.55-1.49.71l.08.08ZM276.25,118.76s-.4-.55-.56-.87c.47-.31.94-.63,1.41-.79,0,0,.4.55.71.94-.55.24-1.02.55-1.49.71h-.08ZM262.78,123.48s-.32-.55-.48-.87c.47-.24.86-.55,1.41-.71,0,0,.32.55.63.94-.47.24-.94.47-1.49.63h-.08ZM259.65,107.13c2.61,1.99,2.86,4.35.72,7.08-.31-3.07-.48-5.12-.72-7.08M249.83,247.99c-.24-.55-.48-1.1-.7-1.65h-1.02c.17,2.36.26,4.78.43,7.14.51,6.98-2.39,9.27-10.18,7.14l-.25-48.7c3.7.63,7.31,1.26,11.54,1.97l.17,34.02v.08ZM220.59,204.08s-.32-.39-.24-.47c.23-.24.47-.31.71-.47.16.31.32.63.48.94h-.94ZM219.66,268.18s-.24-.39-.32-.55h.47c.08,0,.16.24.24.31-.16.08-.31.16-.39.24M213.91,202.66c0-.39-.16-.79-.24-1.26.79-.08,1.65-.24,2.44-.24,0,0,.16.71.24,1.02-.86.16-1.65.31-2.52.47h.08ZM200.98,268.02s-.16-.16-.24-.24h13.18v.24s-12.87,0-12.87,0h-.08ZM189.38,269.1h-.47v-.39s.47,0,.47,0v.39ZM179.19,269.1s.63-.37.94-.61h.08c-.08-.94-.25-1.89-.41-3.46,3.29.31,6.2.55,9.09.87v1.1c-2.81.55-5.79,1.02-8.68,1.57v.14c-.39.18-.71.33-1.1.55l.08-.16ZM175.77,169.51c-1.2-4.62-1.99-7.93-2.87-11.23-.86.71-1.72,1.34-2.98,2.36-.02-3.78.59-7.14,4.13-7.54,3.68-.39,5.35,2.99,6.68,5.96,2.23,4.96-1.91,6.53-5.04,10.45h.08ZM175.11,268.49c-1.88.94-3.61,1.16-4.97-2.75,2.29,1.26,3.63,2.05,4.97,2.75h.14-.14ZM172.3,148.06s.47.31.71.55c-.23.31-.39.55-.63.87-.16-.31-.32-.55-.4-.87,0-.16.16-.31.31-.47v-.08ZM161.54,268.57s-.71-.71-.79-1.18c0-.24.39-.94.47-.94.47.08.87.39,1.5.71-.55.55-.86.94-1.25,1.34l.08.08ZM159.77,261.49c.16.31.16.47.16.39l-.16-.39ZM157.37,269.26s-.08-.3-.16-.45h.47s0,.22.08.3c-.16,0-.31.1-.47.16h.08ZM153.68,268.57l.23-.39.16.47h-.39v-.08ZM148.98,269.1c-5.33.63-10.74,1.34-15.17-3.92,5.1.87,10.3,1.81,15.4,2.68,0,.39-.15.85-.23,1.24M78.65,231.17c-.16-1.26-.25-2.44-.41-3.68.47-.08,1.02-.16,1.49-.24.32,1.16.56,2.34.88,3.52-.63.16-1.26.31-1.97.47v-.08ZM88.38,261.1l-.23.47-.24-.47h.47ZM162.59,29.61s.16.24.32.39c-.16.24-.31.47-.47.63-.08-.16-.32-.31-.24-.39.08-.24.31-.47.47-.71l-.08.08ZM356.65,115.08l-.16.39s-.24-.1-.32-.16c.16-.08.31-.16.47-.24M362.45,192.45c-.52-9.03-.95-17.51-1.47-25.99-2.19-1.5-4.17-2.83-6.06-4.17-1.08,4.33.91,7.77,2.74,12.02.54-1.57.85-2.52,1.32-3.7.78,2.68,1.74,4.8,1.9,6.98.17,1.81-.61,3.7-.92,5.51l-7.23-4.72c.78,2.6,1.35,5.35,2.54,7.79.8,1.63,2.22,2.81-.14,4.15,1.58,1.73,3.08,2.2,4.17-.24.86,2.68,1.82,5.51,3.1,9.35-3.84-1.4-6.45-2.34-9.82-3.52.48,2.26.81,3.84,1.19,5.49,0,0,.08-.08.16-.16v.31c.63.63,1.27,1.34,1.9,1.97l-1.33.71c-.16-.87-.4-1.73-.56-2.68,0,0-.16-.16-.16-.24-1.62,1.65-3.27,3.31-5.7,5.75-1.23-29.4-2.39-57.04-3.47-83.82,2.64-2.28,4.53-3.86,6.41-5.51.79.63,1.58,1.18,2.43,1.81,0,0,.08.08.16.16h1.02v-.08s.16,0,.16,0v.08c.4.39.71.71,1.11,1.1h.24v.24s-.16-.08-.16-.08l-.08-.08c-.31,0-.71.08-1.02.16,1.19,1.57,2.38,3.15,3.57,4.72,0,0,.08.08.16.14h1.08v-.06s.08,0,.08,0c0,0,0,.06-.08.06v1.1s.16.16.16.16c.56.94,1.03,1.89,1.67,2.99,2.51-2.12,3.27-3.78,1.15-6.43-1.82-2.28-3.1-5.12-4.13-7.87-1.26-3.36-1.98-6.98-3.35-11.77-1.4,3.13-2.1,4.94-2.86,6.67-2.52-.39-4.65-.71-7.15-1.1l-.03-6.51c-.95-.39-1.89-.87-3.55-1.65,2.28-1.34,3.77-2.2,5.08-3.07-1.26-4.39-2.46-8.32-3.58-12.26-.84,5.59-6.62,10.53-1.25,17.37-2.34,1.02-4.45,2.66-6.58,2.73-9.48.31-18.99.16-29.1.16-1.84-6.83-3.59-13.34-5.6-20.97-1.31,5.75-2.31,10.13-3.31,14.62,2.13.63,3.63,1.1,6.05,1.81-2.57,1.42-5.09,1.89-5.4,3.07-1.16,3.99-4.6,4.07-7.41,5.33-1.33.63-2.67,1.42-4,2.12,0,0,.08.16.16.16.87.24,1.73.47,2.6.63-.31.39-.63.79-.86,1.18-.55-.63-1.19-1.26-1.74-1.89-.08,0-.24,0-.32-.08,0,0,.08,0,.16-.08-4.3,1.57-8.68,3.15-13,4.7v.16c.08.87.17,1.81.25,2.68-.47,0-.94,0-1.4-.08.37-.87.76-1.73,1.15-2.6v-.16s.08,0,.08,0c-1.24.47-2.49.87-3.75,1.34-.39.94-.78,1.97-1.17,2.91-.39.08-.79.24-1.1.31.31-.16.71-.31,1.02-.47.39-.94.78-1.81,1.17-2.75h.08c-1.5-.08-3.07-.08-5.33-.08.37-5.1.74-9.66,1.03-14.21h1.16c-1.81-4.25-3.64-8.58-5.55-12.89-2.48,3.92-3.96,7.61-5.04,11.47-.39,1.42-.37,3.84.5,4.62,3.32,3.15,2.23,5.59-.27,8.24-.47.47-.47,1.42-.62,2.2-.77,3.31-1.54,6.53-2.29,9.82-.39,0-.87-.16-1.26-.24-.48-1.02-.96-2.11-1.75-3.99-.92,4.86-1.76,8.95-2.37,13.03-.67,4.17-4.58,8.26.38,12.65,1.19,1.1.65,4.25.74,6.45.38,13.34.77,26.78,1.07,40.14.1,4.94.05,9.98.08,15.39-2.5-.39-4.15-.39-5.57-1.02-3.14-1.34-6.22-4.07-9.27-4.07-5.8,0-9.67-2.68-13.45-6.53-1.11-1.1-3.23-1.57-4.95-1.57-2.83,0-5.64.55-8.4,1.02-6.11,1.1-12.15,2.36-18.89,3.62-.17-3.23-.34-5.65-.36-8.01-.06-11.94-.12-23.96-.34-35.91,0-1.81.14-4.07-.89-5.17-2.99-3.38-1.53-6.77-.84-10.29.77-3.7,1.3-7.46,1.99-11.23l-1.1-.16c-.54,1.18-1.17,2.28-2.08,4.23-.26-5.17-.52-9.35-.78-13.5h-1.1c-.57,11.39-1.14,22.86-1.72,34.26h-1.65l-.18-34.81h-1.79l.07,13.91c.1,4.47.99,9.03-1.04,13.18-.25-2.68.21-5.17.2-7.77-.02-3.7-2.15-4.25-5.27-3.31-.23,2.12-.53,4.25-.76,6.3h-1.1l-.13-26.17h-1.42l.14,28.43c.01,2.05.26,4.33-.52,5.98-1.77,3.62-1.13,7.06-.34,10.61,1.21,5.41.05,10.61-1.24,15.86-.77,2.99-.2,6.3.05,9.42.17,1.97,1.18,3.94,1.19,5.9.09,13.44-.02,26.86.22,40.37.03,6.43,1.07,12.89.94,19.32-.06,3.94,2.25,9.03-3.39,11.31.71,1.1,1.43,2.2,2.06,3.23l-1.18.69c-2.61-2.34-4.57-5.1-4.51-9.11-.09-13.34-.16-26.78-.22-40.14l-.31-60.88c-.1-19.09-.04-38.09-.13-57.18-.08-16.43-.17-32.92-.17-49.33,0-1.73-.97-4.25,2.02-4.64-.72-1.65-1.36-3.38-2.07-5.25,3.15.24,5.33.39,7.93.55-1.54-9.21-3.08-17.69-4.44-26.17-.49-2.99-1.69-6.43-.6-8.95,1.46-3.38-.34-4.8-1.93-8.01-1.17,2.81-2.18,4.54-2.54,6.51-2.62,11.86-5.15,23.73-7.67,35.59-.92,4.39-2.08,8.64-5.67,11.63l.32.14h-.24c-5.63,2.44-3.17-5.02-7.09-5.65-1,5.43-2.78,10.68-2.75,16.02-.08,31.5.32,62.92.48,94.42,0,1.73-.3,3.46-.44,5.59-2.11-1.1-3.61-1.89-6.51-3.31l.54,106.76c-6.15-5.27-11.75,3.68-16.66-2.44-3.18,5.25-4.99,5.33-27.92.63h11.92c.69-4.25,1.3-8.09,1.98-12.65-4.32,1.5-7.92,2.75-11.53,4.09l-.07-13.04h1.42c.25,2.75.42,5.65.68,9.27,2.64-6.43-3.6-15.31,6.82-17.59-.41-2.68-.66-5.35-1.38-7.85-.56-1.89-1.2-4.01-2.53-5.43-3.09-3.23-6.77-4.86-11.57-3.94-4.07.79-6.56,2.05-8.11,6.53-2.09,6.28-2.64,6.2,3.72,7.85,2.21.55,4.55.71,6.83,1.02,0,.55-.15,1.1-.23,1.57h-11.61c-1.46,7.3-1.11,14.52.72,18.77h.16v.47c0,.16.08.31.16.47,0,0,0,.16-.16.24v.31s-.08,0-.08,0c.96,3.68.28,8.48,6.08,8.72-1.31,5.33-3.2,6.04-10.72,4.55.61-3.36,1.36-6.67,1.58-9.98.15-2.26.77-3.36,3.05-3.29v-.08s0-.16.08-.24v-.71c0-.16,0-.31-.08-.39-2.91.31-5.72.55-8.63.87-3.34-10.61-1.57-17.98,4.77-20.97-.04-7.3-.31-14.38.05-21.45.05-1.97,2.09-3.78,3.18-5.65-4.79-1.97-5.27-4.25-3.5-11.08,1.52-5.98,3.22-12.57-3.55-17.14-1.71,5.04-3.39,10.05-5.25,15.33-2.05-1.65-3.24-2.68-4.49-3.78-.47.24-.86.39-1.33.63.5,4.72.99,9.35,1.49,14.07.39,0,.79,0,1.16-.08.22-2.68.52-5.43.75-8.09.31,0,.63.14.87.22,1.2,3.7,2.32,7.4,3.68,11.63-.31.71-1.41,1.97-1.4,3.23.13,9.5.57,19.01.85,28.51.18,5.27,1.24,10.84-.16,15.72-1.16,4.31-1.77,8.09-.96,12.55-1.34-1.24-2.77-2.58-4.17-3.92-4.07,5.17-4.93,5.57-12.68,5.65-6.43,0-7.62-1.24-6.63-7.46.15-1.02.46-1.97.61-2.91-1.19-1.34-3-2.5-3.17-3.92-.41-3.62-.9-7.63.26-10.84,1.48-4.01-.43-6.53-2.38-8.56-1.5-1.57-4.73-2.05-7.07-1.89-2.52.16-4.08,2.2-4.07,5.1.02,4.25-.27,8.48-.25,12.73.01,2.83-.45,5.27-3.65,6.12-2.75.79-3.21,2.75-2.57,5.27.32,1.57.57,3.15.81,4.23,1.34.18,2.6.39,3.86.55h.08v.31c0,.16.16.39.16.55,0,.08-.08.16-.16.24v.16s-.08,0-.08,0l-20.16,1.65.1,20.74h367.3l-.49-97.47c-.56-.87-1.03-1.73-1.57-2.6-.47-.08-1.97-.47-3.23-.79l.08.39Z"/>
      <path class="cls-1" d="M353.87,201.25s-.08.08-.16.16c0,0,.16.16.16.24v-.31s0-.08,0-.08Z"/>
      <polygon class="cls-1" points="273.19 117.03 273.27 117.03 273.27 117.21 273.19 117.21 273.19 117.03"/>
      <path class="cls-1" d="M1.82,210.36c1.63-3.62,3.25-7.22,5.04-11.08-2.21-2.12-4.49-4.17-6.86-5.96l.09,17.2c.71,0,1.26-.16,1.73-.16"/>
      <path class="cls-1" d="M172.73,66.14h.26-.26ZM172.99,66.14h.24v.16s-.24-.16-.24-.16Z"/>
      <path class="cls-1" d="M180.37,116.02s.08,0,.16.08c0-.08.08-.16.16-.31l-.31.16v.08Z"/>
      <path class="cls-1" d="M177.62,69.99s.08-.24.16-.39l-.08-.08v.47s-.08,0-.08,0Z"/>
      <polygon class="cls-1" points="164.25 48.08 164.25 47.92 164.41 48.08 164.25 48.08"/>
      <path class="cls-1" d="M187.25,63.7v-.08s.16.08.16.08h-.16ZM187.25,63.7v.1s0-.1,0-.1Z"/>
      <path class="cls-1" d="M182.84,107.93s-.16-.47-.24-.71h.47c0,.16.16.31.16.47,0,.08-.24.16-.31.31l-.08-.08ZM176.9,112.95c-.32-1.34-.64-2.73-.97-4.07.47-.16.94-.24,1.49-.39.4,1.34.8,2.66,1.2,3.99-.55.16-1.1.31-1.73.47M177.83,78.16l.07,14.44c-2.86-4.54-2.86-5.96-.07-14.44M173.76,110.21c-1.95-1.26-1.96-2.64-.02-4.09l.02,4.09ZM171.04,54.51c3.16,2.52,6.61,4.49,9.76,6.98,1.26,1.02,2.77,2.75,2.78,4.25.05,10.53-.13,21.13-.23,31.66-3.23-3.54-2.93-7.38-2.5-11.39.45-4.17.74-8.4.72-12.57-.01-2.2-.57-4.62-3.86-3.92l.08.08c0,.16-.08.24-.16.37,0,.55-.15,1.1-.23,1.65-.16,0-.24-.08-.39-.16.23-.47.39-1.02.62-1.5v-.45c-1.35-1.42-1.6-4.56-4.72-3.38l.24.16h-.47s.16-.16.24-.16h-.08c-1.03-1.18-1.98-2.2-3.17-3.54-3.02,6.37-2.27,13.28,1.74,16.35.3-3.07.6-5.82,1.05-9.98.04,7.77,3.12,14.21-.21,20.74-.95-1.73-1.28-3.54-1.52-5.35-.25-2.91-1.75-3.31-4.56-2.12.27,6.53-.88,13.12,2.07,19.56,1.09,2.44,2.37,5.43-1.86,6.69,0,0,.32,1.73.56,2.66,4.47,1.65,8.95,3.38,13.44,5.04,0,0-.08,0-.16-.08l.31-.16c.45-.87.84-1.73,1.31-2.6l1.19,1.18c-.86.47-1.65,1.02-2.49,1.5,0,.08-.08.16-.16.31,1.48,1.1,2.9,2.12,5.19,3.78l-.02-4.17c-.16-15.54-.39-31.19-.39-46.73,0-1.89-1.36-4.64,2-5.27-.62-1.57-2.13-4.09-1.66-4.54,4.29-4.01-.35-6.85.03-10.21h-1.5c-.46,2.89-.92,5.8-1.45,9.35-5.89-2.28-10.3-5.9-14.79-9.58-.87-.71-2.36-.55-3.62-.71,2.21,2.11,4.25,4.47,6.62,6.36l.24-.08Z"/>
      <polygon class="cls-1" points="84.89 208.78 84.98 208.78 85.04 208.88 84.89 208.78"/>
      <path class="cls-1" d="M93.27,190.49l-.16-.16-1.27-2.44s-.79-.79-1.11-1.1c-3.21-.87-6.6-2.5-9.73-2.26-2.12.16-4.06,3.05-6.57,5.1,2.53,1.42,4.08,2.28,5.58,3.07-.77,3.99-.37,4.55,2.22,3.92.89,4.09,1.83,8.19,2.72,12.18,2.44.55,4.89,1.18,7.54,1.81.77-3.54,1.46-6.75,2.07-9.98,1.87.47,3.13.71,4.31,1.02.71-.39,1.41-.87,2.04-1.26v-.24c-6.99-.24-3.65-4.78-5.37-7.22,0,.31-.15.63-.15.94,0-.39,0-.79.07-1.18,0,0,0,.16.08.16v-.08c-.4-.79-.79-1.5-1.27-2.28v-.16h-1.1v.16h.08Z"/>
      <path class="cls-1" d="M91.93,187.97l.16.08-.16-.08Z"/>
      <path class="cls-1" d="M95.41,193.86s.15-.63.15-.94c0,0,0-.16-.08-.16,0,.39,0,.79-.07,1.18v-.08Z"/>
      <path class="cls-1" d="M123.33,239.26c-1.42.24-3.59,2.44-3.66,3.78-.36,6.98-.09,13.97-.05,21.76,3.6-.24,6.51-.47,9.09-.71.36-6.53.8-12.34.93-18.08,0-1.5-.33-3.52-1.28-4.47-1.27-1.26-3.46-2.52-5.03-2.28"/>
      <path class="cls-1" d="M123.85,171.55c1.03,2.2.03,5.88,4.34,6.43,2.09-6.2,1.53-8.17-3.35-11.71-1.42-1-4.18-1.08-4.58-2.18-2.13-5.67-9.43-4.88-11.9-10.13-.78-1.73-3.14-2.83-5.51-4.8-.22,2.75-.29,4.72-.37,5.35,6.08,8.79,14.89,11.23,21.36,16.96v.08Z"/>
      <path class="cls-1" d="M92.09,188.05s-.08-.08-.16-.16c0,0,.08.08.16.16"/>
      <path class="cls-1" d="M74.06,160.95c8.1,2.75,11.73,8.01,11.93,16.41.02,3.23,3.18,6.37,4.91,9.52.4.37.79.77,1.11,1.08h1.18v-2.42c-.41-.39-.72-.71-1.12-1.1l-.16-.16c-.16-.31-.24-.55-.32-.87,0-.08.16-.24.31-.31-.33-3.78-.75-7.54-.84-11.31-.28-8.95-9.09-15.01-16.92-10.84h-.08Z"/>
      <polygon class="cls-1" points="90.58 186.72 90.66 186.72 90.76 186.72 90.76 186.87 90.58 186.72"/>
      <path class="cls-1" d="M91.92,187.97l.16.16s-.08-.08-.16-.16"/>
      <path class="cls-1" d="M26.81,142.72c1.04,3.62,1.68,5.73,2.16,7.61.93-2.05,2.01-4.15,2.78-6.36,1.01-2.83-.81-4.88-3.62-4.41-2.2.39-4.4.71-6.59,1.1-.93,2.75-1.86,5.67-2.95,8.79,1.03.71,2.53,1.65,3.87,2.52,1.3-2.75,2.55-5.33,4.42-9.11l-.08-.16Z"/>
      <path class="cls-1" d="M20.93,187.5c-.54,2.83-.68,5.73-.83,7.46v2.91c.18,1.89-.36,4.49,2.64,4.56,2.89,0,2.49-2.44,2.71-4.41.3-2.12,1.16-4.25,1.07-6.36,0-1.81-.41-4.01-1.6-5.35-1.33-1.57-3.53-1.42-4.07,1.1l.08.08Z"/>
      <path class="cls-1" d="M38.82,142.02c.81,3.78,1.29,6.2,1.77,8.56l1.71-.16c-.63-4.07,4.13-8.01-1.7-13.58-1.07,6.12-4.8,0-7.68,3.36.49,2.6,1.21,5.98,1.94,9.74,1.38-2.73,2.4-4.86,3.95-8.01v.08Z"/>
      <path class="cls-1" d="M101.01,200.38c.33,3.38.74,6.67,1.07,9.98h.55c.3-2.36.68-4.8.99-7.14.45,0,.85.08,1.32.16l4.77,9.03h.69c-.24-4.25-.57-8.48-.83-12.49-3.39-.39-5.65-.63-8.8-.94,0,.47.08.87.16,1.26h.39c-.08,0-.24.16-.31.24v-.08Z"/>
      <path class="cls-1" d="M101.34,200.15h-.39v.24c.08,0,.24-.16.31-.24h.08Z"/>
      <path class="cls-1" d="M37.4,188.29c.36,9.68,2.12,15.13,5.26,16.33,1.55-5.73.58-10.76-1.73-15.47-.3-.63-2.19-.55-3.61-.87h.08Z"/>
      <path class="cls-1" d="M21.64,158.28c-.46,2.75-1,5.41-1.38,8.09-.61,3.78.74,5.75,4.35,5.12.83-2.83,1.53-5.27,2.22-7.71,1.16-4.07-.42-5.73-5.2-5.57v.08Z"/>
      <path class="cls-1" d="M79.14,143.12c1.72-2.68,2.87-4.49,4.04-6.2-.56-1.89-1.2-3.86-1.82-6.14-3.14,1.5-5.42,2.68-7.67,3.78,1.82,2.75,3.55,5.57,5.53,8.56h-.08Z"/>
      <path class="cls-1" d="M37.27,162.36c.73,7.5,2.1,11.57,4.13,12.26,2.31-9.11,1.12-12.65-4.13-12.26"/>
      <path class="cls-1" d="M113.69,179.1c.64,2.83,1.21,5.35,1.77,7.61,1.02-1.18,1.94-2.26,3.03-3.44,1.11,1.42,1.98,2.5,3.17,3.99,1.81-3.82-.84-6.53-7.97-8.17"/>
      <path class="cls-1" d="M29.32,187.5c.97,5.1,1.78,9.5,2.59,13.83,1.54-3.62,2.62-7.24,2.76-10.84.06-3.46-2.15-4.41-5.35-2.99"/>
      <path class="cls-1" d="M125.97,202.82c-3.01,8.09-2.46,11.31,2.58,12.18,1.2-8.32.79-10.21-2.58-12.18"/>
      <path class="cls-1" d="M126.1,181.14c-2.11,3.31-2.09,6.67-1.05,9.9.24.79,2.29,1.02,4.71,1.97-1.11-4.88,1.14-8.95-3.66-11.79v-.08Z"/>
      <polygon class="cls-1" points="66.3 179.4 66.4 179.32 66.48 179.32 66.3 179.5 66.3 179.4"/>
      <path class="cls-1" d="M66.42,171.08c-.17-2.83-1.44-4.49-4.25-3.62l.04,8.66c.02,2.97,1.5,3.84,4.09,3.29-.01-2.75.21-5.57.12-8.32"/>
      <path class="cls-1" d="M106.93,176.42c-1.85,6.98-1.05,10.29,2.74,11.94-.33-3.94,1.91-8.09-2.74-11.94"/>
      <path class="cls-1" d="M48.24,190.88c.65,4.72,1.3,8.95,1.88,13.12,1.69-3.46,2.46-6.69,2.76-10.05.14-2.6-1.04-4.17-4.64-3.07"/>
      <path class="cls-1" d="M28.71,160.08c1.6,4.33,2.95,7.77,4.13,10.92.54-2.05,1.47-4.33,1.7-6.67.15-1.34-.65-3.23-1.6-4.17-.79-.71-2.58-.16-4.15-.16l-.08.08Z"/>
      <path class="cls-1" d="M356.02,146.58l.04,8.01s.47,0,.71.08c.31-1.18.7-2.44,1.39-4.78.33,3.76.58,6.12.75,8.56,2.46-8.09,2.3-8.64-2.89-11.86"/>
      <path class="cls-1" d="M114.42,199.6c.26,4.88.52,8.48.69,12.18.39,0,.79.08,1.18.16.23-1.34.46-2.75.84-4.64.48,1.34.72,2.12.94,2.91.45-3.54,1.62-7.3-3.65-10.61"/>
      <path class="cls-1" d="M51.15,174.54c.62-1.89,1.63-3.86,1.86-5.96.15-1.34-.65-3.07-1.59-4.09-.4-.47-2.12.16-3.23.31,1.2,3.86,2.08,6.91,2.96,9.74"/>
      <path class="cls-1" d="M66.58,138.8c1.17-2.75.61-4.49-3.41-4.94.28,3.92.59,7.38.84,11.06.93-2.18,1.79-4.15,2.64-6.12h-.08Z"/>
      <path class="cls-1" d="M57.18,173.52h1.18c.3-2.2.84-4.41.83-6.59,0-.47-2.29-.87-4.42-1.65,1.04,3.68,1.76,5.96,2.4,8.24"/>
      <path class="cls-1" d="M50.03,140.92c1.17-2.91.21-4.56-3.7-4.01.33,3.38.58,6.53.81,9.13.86-1.5,2.19-3.23,2.89-5.12"/>
      <path class="cls-1" d="M119.85,201.71c.18,3.86.35,7.3.53,10.76,1.54-6.28,1.37-9.88-.53-10.76"/>
      <path class="cls-1" d="M98.23,146.58l.03,6.75c3.98-2.26,4.06-2.97-.03-6.75"/>
      <path class="cls-1" d="M83.28,136.84s0,.08-.08.16l.08-.08v-.08Z"/>
      <path class="cls-1" d="M85.23,134.63c-.7.79-1.33,1.5-1.96,2.2.24,1.73.57,3.44.98,6.2,3.68-3.38,4.2-5.73,1.06-8.4h-.08Z"/>
      <path class="cls-1" d="M83.2,136.84v.16s-.08,0-.08,0c0,0,0-.08.08-.16"/>
      <path class="cls-1" d="M93.81,141.55l.04,8.72c3.59-2.99,3.73-5.17-.04-8.72"/>
      <path class="cls-1" d="M52.75,134.95c-.3,2.83-.53,4.72-.9,7.85,5.55-2.66,5.15-4.7.9-7.85"/>
      <path class="cls-1" d="M90.34,138.32c-3.59,2.75-2.34,5.1-1.46,7.85,4.32-1.97,2.5-4.47,1.46-7.85"/>
      <path class="cls-1" d="M58,134.71l.03,6.91c4.53-3.76,4.52-4.31-.03-6.91"/>
      <path class="cls-1" d="M102.18,184.67c.45-3.7,4.44-6.2.35-8.48-.71.08-1.34.16-2.04.31.48,2.28.97,4.62,1.69,8.24v-.08Z"/>
      <path class="cls-1" d="M351.69,142.88c.4,2.05.81,4.01,1.37,6.91,1.41-1.63,2.09-2.5,2.8-3.29-1.03-1.42-2.12-2.83-3.15-4.25-.39.24-.71.47-1.1.71l.08-.08Z"/>
      <path class="cls-1" d="M95.23,175.4c.32,1.57.57,3.07.89,4.64.39.08.79.24,1.18.31.62-.94,1.78-2.05,1.62-2.83-.16-1.02-1.49-1.89-2.28-2.83-.47.24-.94.55-1.41.79v-.08Z"/>
      <polygon class="cls-1" points="174.8 131.02 174.72 119.32 175.29 119.32 175.35 131.02 174.8 131.02"/>
      <path class="cls-1" d="M41.15,261.18c.17,2.44.26,4.88.43,7.38l1.57-.16c-.41-2.44-.73-4.86-1.14-7.3-.31,0-.63.08-.94.16l.08-.08Z"/>
      <polygon class="cls-1" points="93.94 242.8 94.17 242.8 94.22 251.51 93.98 251.51 93.94 242.8"/>
      <path class="cls-1" d="M73.46,134.48c-1.1-.47-2.29-1.02-4.24-1.89.33,2.28.49,3.62.9,6.53,1.62-2.36,2.48-3.54,3.26-4.72l.08.08Z"/>
      <path class="cls-1" d="M73.53,134.4h.16s0-.08-.08-.16l-.08.16Z"/>
      <path class="cls-1" d="M13.41,190.8c0-.94-.09-1.89-.17-2.83-.47,0-1.02.08-1.49.16.24.94.48,1.89.64,2.83.31,0,.63-.08,1.02-.16"/>
      <path class="cls-1" d="M19.01,242.56s-.55-.16-.79-.24l.02,4.49h.47c.07-1.42.22-2.83.29-4.25"/>
      <path class="cls-1" d="M360.44,134.63c.31-.47.62-.94.94-1.42-1.02-.31-1.97-.71-3-1.02.63.79,1.35,1.57,1.98,2.36l.08.08Z"/>
      <path class="cls-1" d="M358.15,132.21s.18,0,.26.08c0,0-.08-.16-.18-.26h-.08v.18Z"/>
      <path class="cls-1" d="M18.82,235.73v-2.91h-.64c0,.94.17,1.97.17,2.91h.47Z"/>
      <path class="cls-1" d="M352.51,165.74c1.17-1.73,1.72-2.6,2.34-3.54-.63-.55-1.34-1.1-2.61-2.18.09,2.11.17,3.36.34,5.65l-.08.08Z"/>
      <path class="cls-1" d="M352.07,125.99l2.37.87c-.4-.79-.79-1.57-1.27-2.28-.39.47-.7.94-1.09,1.5v-.08Z"/>
      <path class="cls-1" d="M354.43,126.86s0,.08.08.16h.08l-.16-.16Z"/>
      <path class="cls-1" d="M81.14,209.89c1.1-.31,2.2-.63,3.36-1.02-1.16,0-2.26.16-3.44.24,0,.24.08.55.16.79h-.08Z"/>
      <path class="cls-1" d="M74.09,196.61c.55-.39.86-.63,1.18-.87l-.87-.87c-.08.47-.15,1.02-.31,1.73"/>
      <path class="cls-1" d="M95.8,209.18h.39s.15-.79.23-1.26h-.31c-.15.47-.23.87-.39,1.34l.08-.08Z"/>
      <path class="cls-1" d="M12.71,268.96s-.79-.08-1.18-.08c0,0-.08.24-.16.39.39,0,.79.08,1.1.08,0,0,.08-.24.16-.39h.08Z"/>
      <path class="cls-1" d="M97.22,211.62v.47c.32.08.71.24,1.03.31v-.71h-1.03v-.08Z"/>
      <path class="cls-1" d="M96.86,186.71h.08c-.79-.47-1.58-.94-2.29-1.34v.16c.63.39,1.42.79,2.21,1.18"/>
      <path class="cls-1" d="M188.5,63.94s-.71-.16-1.02-.31v.16s.71.08,1.02.16"/>
      <path class="cls-1" d="M93.26,188.21v-.31h-.16s.08.24.16.31"/>
      <path class="cls-1" d="M94.29,190.41c-.32-.71-.72-1.42-1.03-2.12v2.12h1.11-.08Z"/>
      <polygon class="cls-1" points="93.12 190.33 93.27 190.33 93.27 190.49 93.12 190.33"/>
      <polygon class="cls-1" points="94.37 190.4 94.53 190.4 94.37 190.56 94.37 190.4"/>
      <polygon class="cls-1" points="166.68 170.69 167.07 170.77 166.84 171.1 166.68 170.69"/>
      <path class="cls-1" d="M1.61,262.68s-.32-.16-.63-.24c0,0-.08,0-.16.08.31,0,.71.16.79.16"/>
      <path class="cls-1" d="M.83,262.52s.08,0,.16-.08h-.08l-.08.08Z"/>
      <path class="cls-1" d="M357.27,129.45h-.08c.32.94.64,1.81,1.04,2.75h.08c-.32-.94-.64-1.89-.96-2.75h-.08Z"/>
      <path class="cls-1" d="M20.64,270.84v-.87c0-.08,0-.24-.08-.31v1.34s0-.08.08-.16"/>
      <path class="cls-1" d="M20.64,269.98v-.31h-.08c0,.08,0,.24.08.31"/>
      <path class="cls-1" d="M20.65,270.93v-.16s0,.08-.08.16h.08Z"/>
      <polygon class="cls-1" points="20.57 270.92 20.64 270.92 20.57 271.02 20.57 270.92"/>
      <path class="cls-1" d="M356.08,128.19h-.08c.4.47.79.94,1.19,1.34h.08c-.4-.47-.79-.94-1.19-1.34"/>
      <polygon class="cls-1" points="122.07 159.69 122.33 159.79 122.23 159.85 122.07 159.69"/>
      <path class="cls-1" d="M123.48,161.1c-.4-.47-.87-.87-1.27-1.26h-.08c.47.47.87.87,1.34,1.26"/>
      <path class="cls-1" d="M354.66,126.86h-.08c.47.55.95.94,1.42,1.42h.08c-.47-.55-.95-.94-1.42-1.42"/>
      <path class="cls-1" d="M358.43,125.84s.71.71,1.11,1.1v-1.1h-1.11Z"/>
      <path class="cls-1" d="M359.44,125.85v-.1s0,.1,0,.1ZM359.44,125.85h.08-.08Z"/>
      <path class="cls-1" d="M358.19,125.85h.26s-.08-.08-.18-.18v.18s-.08,0-.08,0Z"/>
      <path class="cls-1" d="M359.45,127.19h.18s-.1-.18-.18-.26v.26Z"/>
      <polygon class="cls-1" points="355.59 138.96 355.85 139.11 355.77 139.21 355.59 138.96"/>
      <polygon class="cls-1" points="99.11 136.76 99.11 136.66 99.21 137 99.11 136.76"/>
      <path class="cls-1" d="M357.01,140.53c-.4-.47-.79-.94-1.19-1.34h-.08c.4.55.79.94,1.27,1.34"/>
      <polygon class="cls-1" points="357.01 140.52 357.09 140.52 357.33 140.67 357.01 140.52"/>
      <polygon class="cls-1" points="357.01 140.53 357.01 140.43 357.11 140.53 357.01 140.53"/>
      <path class="cls-1" d="M99.13,136.76s-.16-.24-.16-.31c0,0,0,.16.08.24l.08.08Z"/>
      <polygon class="cls-1" points="354.91 190.33 355.17 190.33 355.07 190.43 354.91 190.33"/>
      <polygon class="cls-1" points="355.14 190.33 355.24 190.33 355.06 190.41 355.14 190.33"/>
      <path class="cls-1" d="M166.77,111.23s.18,0,.26-.08c-.08,0-.18,0-.26.08"/>
      <path class="cls-1" d="M353.53,119.79s.71.71,1.03,1.02v-1.02h-1.03Z"/>
      <path class="cls-1" d="M354.55,120.81v.26h.18s-.1-.18-.18-.26"/>
      <polygon class="cls-1" points="354.55 119.71 354.55 119.63 354.63 119.71 354.55 119.71"/>
      <path class="cls-1" d="M353.29,119.8h.26s-.08-.08-.18-.18v.18s-.08,0-.08,0Z"/>
      <path class="cls-1" d="M93.01,184.28s-.71-.71-1.03-1.02v1.02h1.03Z"/>
      <path class="cls-1" d="M91.9,183.09l.08-.08v.18s-.08-.1-.08-.1ZM91.98,183.19v.1s0-.1,0-.1Z"/>
      <polygon class="cls-1" points="91.99 184.36 91.91 184.26 92.09 184.44 91.99 184.36"/>
      <polygon class="cls-1" points="91.92 184.27 92 184.27 92 184.37 91.92 184.27"/>
      <path class="cls-1" d="M91.99,183.02h-.16v.08s.08,0,.08-.08h.08Z"/>
      <path class="cls-1" d="M93.24,184.44v-.16h-.16s.08.16.16.16"/>
      <path class="cls-1" d="M94.68,185.38h-.26s.08,0,.18.08v-.16s.08.08.08.08Z"/>
      <path class="cls-1" d="M94.42,185.38l-1.19-.94v1.02s.79-.08,1.18-.16v.08Z"/>
      <path class="cls-1" d="M93.25,185.62v-.16h-.16s.08.08.16.16"/>
      <path class="cls-1" d="M93.09,185.54l.16.16s-.08-.08-.16-.16"/>
      <polygon class="cls-1" points="241.44 245.47 242.54 245.47 242.57 251.93 241.47 251.93 241.44 245.47"/>
      <path class="cls-1" d="M241.6,232.19c.55,0,1.1-.16,1.73-.24-.17-1.81-.33-3.62-.5-5.41-.55,0-1.1.08-1.65.16.17,1.79.25,3.68.42,5.49"/>
      <path class="cls-1" d="M242.72,220.02l-.49-3.31c-.39,0-.79.16-1.18.16.16,1.1.33,2.2.49,3.31.39,0,.79-.16,1.18-.16"/>
      <path class="cls-1" d="M247.16,228.66l.02,3.46h.79c0-1.34-.17-2.44-.17-3.46h-.63Z"/>
      <path class="cls-1" d="M247.83,220.41c0-.87-.09-1.81-.17-2.68h-.87c0,.87.17,1.81.25,2.68h.79Z"/>
      <polygon class="cls-1" points="322.26 214.77 322.34 214.84 322.08 215.02 322.26 214.77"/>
      <polygon class="cls-1" points="313.85 169.75 314.1 169.36 314.26 169.75 313.85 169.75"/>
      <path class="cls-1" d="M175.82,161.1h.08s-.48-.55-.79-.71c.24.24.4.47.63.71h.08Z"/>
    </g>
  </g>
</svg>