<?xml version="1.0" encoding="UTF-8"?>
<svg id="Livello_2" data-name="Livello 2" xmlns="http://www.w3.org/2000/svg" viewBox="0 0 886.64 175.95">
  <defs>
    <style>
      .cls-1 {
        fill: #fff;
      }
    </style>
  </defs>
  <g id="Livello_1-2" data-name="Livello 1">
    <g>
      <path class="cls-1" d="M557.6,39.06c2.05,1.69,4.73,2.54,8.02,2.54,2.87,0,5.19-.63,6.98-1.87,1.76-1.24,2.64-2.95,2.63-5.16,0-1.57-.49-2.83-1.46-3.76-.99-.92-2.29-1.63-3.97-2.12-1.67-.49-4.02-1-7.03-1.55-3.07-.53-5.69-1.24-7.88-2.12-2.19-.87-3.97-2.2-5.35-4.01-1.39-1.79-2.09-4.17-2.1-7.08-.01-2.72.68-5.12,2.09-7.24,1.43-2.11,3.38-3.76,5.92-4.92,2.55-1.18,5.46-1.75,8.75-1.75s6.4.63,9.06,1.89c2.66,1.26,4.76,2.99,6.3,5.19,1.55,2.2,2.38,4.72,2.54,7.56h-7.63c-.29-2.42-1.34-4.39-3.2-5.86-1.86-1.5-4.2-2.22-7.04-2.22s-4.94.59-6.58,1.79c-1.63,1.18-2.45,2.85-2.43,5.02,0,1.53.51,2.75,1.47,3.66.97.89,2.27,1.57,3.89,2.01,1.62.45,3.94.96,6.97,1.5,3.05.53,5.69,1.26,7.9,2.16,2.21.91,4.03,2.22,5.43,3.97,1.41,1.75,2.11,4.07,2.12,6.97.01,2.79-.72,5.29-2.19,7.5-1.48,2.2-3.54,3.92-6.19,5.16-2.65,1.24-5.66,1.87-9.04,1.87-3.74,0-7.03-.69-9.87-2.03-2.84-1.36-5.07-3.25-6.68-5.65-1.61-2.4-2.45-5.15-2.5-8.26l7.63.14c.23,2.77,1.38,5.02,3.44,6.71"/>
      <path class="cls-1" d="M597.62,29.42h15.05l-7.66-20.58-7.39,20.58ZM619.4,47.74l-4.53-11.69h-19.36l-4.35,11.69h-8.03L600.59.46h9.27l17.85,47.28h-8.3Z"/>
      <polygon class="cls-1" points="631.28 47.74 631.04 .46 638.81 .46 639.02 40.85 659.32 40.85 659.36 47.74 631.28 47.74"/>
      <polygon class="cls-1" points="668.56 47.74 651.71 .46 659.94 .46 673.17 38.41 686.14 .46 694.17 .46 677.86 47.74 668.56 47.74"/>
      <path class="cls-1" d="M702.15,29.42h15.05l-7.66-20.58-7.39,20.58ZM723.93,47.74l-4.53-11.69h-19.36l-4.35,11.69h-8.03L705.12.46h9.25l17.87,47.28h-8.3Z"/>
      <polygon class="cls-1" points="740.95 47.74 740.74 7.35 726.14 7.35 726.11 .46 763.06 .46 763.09 7.35 748.49 7.35 748.7 47.74 740.95 47.74"/>
      <path class="cls-1" d="M777.73,39.13c2.27,1.46,4.89,2.18,7.8,2.18s5.53-.73,7.8-2.18c2.25-1.48,4.02-3.52,5.26-6.16,1.25-2.62,1.86-5.59,1.84-8.87s-.66-6.24-1.93-8.87-3.05-4.68-5.32-6.14c-2.29-1.48-4.89-2.2-7.82-2.2s-5.53.73-7.78,2.2c-2.27,1.46-4.02,3.5-5.26,6.14-1.27,2.64-1.88,5.59-1.86,8.87s.66,6.26,1.95,8.87c1.27,2.64,3.03,4.68,5.32,6.16M797.48,45.03c-3.47,2.07-7.44,3.11-11.91,3.11s-8.43-1.04-11.92-3.11c-3.51-2.07-6.24-4.94-8.19-8.58-1.95-3.64-2.95-7.75-2.97-12.36-.02-4.58.94-8.72,2.85-12.36,1.91-3.64,4.61-6.49,8.1-8.58,3.47-2.07,7.44-3.11,11.89-3.11s8.45,1.04,11.94,3.11c3.49,2.09,6.22,4.94,8.19,8.58,1.95,3.64,2.93,7.77,2.95,12.36.02,4.6-.92,8.72-2.83,12.36-1.93,3.64-4.63,6.51-8.1,8.58"/>
      <path class="cls-1" d="M831.98,23.83c2.79,0,4.99-.75,6.64-2.26,1.63-1.52,2.44-3.52,2.43-6.04-.01-2.52-.85-4.55-2.49-6.04-1.66-1.52-3.87-2.26-6.66-2.26h-10.27l.08,16.61h10.27ZM841.12,2.32c2.49,1.24,4.42,2.99,5.79,5.27,1.39,2.26,2.09,4.92,2.11,7.93.02,3.15-.8,5.92-2.46,8.3-1.66,2.38-3.88,4.07-6.66,5.06l10.09,18.85h-8.64l-9.06-17.16h-10.55l.09,17.16h-7.75l-.24-47.26h18.63c3.29,0,6.16.61,8.65,1.85"/>
      <polygon class="cls-1" points="854.99 47.74 854.75 .46 885.62 .46 885.65 7.35 862.55 7.35 862.62 20.45 881.67 20.45 881.7 27.14 862.65 27.14 862.72 40.85 886.61 40.85 886.64 47.74 854.99 47.74"/>
      <path class="cls-1" d="M566.67,87.73c2.79,0,4.99-.75,6.64-2.26,1.63-1.52,2.44-3.52,2.43-6.04-.01-2.52-.85-4.55-2.49-6.04-1.66-1.52-3.87-2.26-6.66-2.26h-10.27l.08,16.61h10.27ZM575.81,66.23c2.49,1.24,4.42,2.99,5.79,5.27,1.39,2.26,2.09,4.92,2.11,7.93.02,3.15-.8,5.92-2.46,8.3-1.66,2.38-3.88,4.07-6.66,5.06l10.09,18.85h-8.64l-9.06-17.16h-10.55l.09,17.16h-7.75l-.24-47.26h18.63c3.29,0,6.16.61,8.65,1.85"/>
      <path class="cls-1" d="M602.3,103.03c2.27,1.46,4.89,2.18,7.8,2.18s5.53-.73,7.8-2.18c2.25-1.48,4.02-3.52,5.26-6.16,1.25-2.62,1.86-5.59,1.84-8.87s-.66-6.24-1.93-8.87c-1.27-2.64-3.05-4.68-5.32-6.14-2.29-1.48-4.89-2.2-7.82-2.2s-5.53.73-7.78,2.2c-2.27,1.46-4.02,3.5-5.26,6.14-1.27,2.64-1.88,5.59-1.86,8.87s.66,6.26,1.95,8.87c1.27,2.64,3.03,4.68,5.32,6.16M622.04,108.93c-3.47,2.07-7.44,3.11-11.91,3.11s-8.43-1.04-11.92-3.11c-3.51-2.07-6.24-4.94-8.19-8.58-1.95-3.64-2.95-7.75-2.97-12.36-.02-4.58.94-8.72,2.85-12.36,1.91-3.64,4.61-6.49,8.1-8.58,3.47-2.07,7.44-3.11,11.89-3.11s8.45,1.04,11.94,3.11c3.49,2.09,6.22,4.94,8.19,8.58,1.95,3.64,2.93,7.77,2.95,12.36.02,4.6-.92,8.72-2.83,12.36-1.93,3.64-4.63,6.51-8.1,8.58"/>
      <path class="cls-1" d="M656.63,105.09c3.05,0,5.41-.63,7.03-1.87,1.65-1.24,2.46-2.95,2.45-5.16-.01-2.3-.87-4.07-2.53-5.33-1.68-1.26-4.02-1.89-7.03-1.89h-10.27l.07,14.25h10.27ZM656.06,84.43c2.66,0,4.7-.61,6.17-1.83,1.45-1.22,2.17-2.89,2.16-5-.01-2.12-.75-3.78-2.21-4.96-1.48-1.2-3.53-1.79-6.19-1.79h-9.8l.07,13.58h9.8ZM667.82,67.61c2.86,2.16,4.32,5.17,4.33,9.05.01,2.83-.72,5.16-2.23,6.98-1.51,1.83-3.66,3.05-6.49,3.68,7.07,1.22,10.63,4.94,10.66,11.14.02,4.11-1.5,7.32-4.52,9.66-3.04,2.34-7.36,3.52-12.99,3.52h-17.96l-.24-47.28h17.35c5.19,0,9.21,1.08,12.08,3.25"/>
      <path class="cls-1" d="M687.08,91.78c.02,4.45.92,7.79,2.69,10.03,1.76,2.22,4.5,3.34,8.18,3.34s6.49-1.12,8.25-3.34c1.78-2.24,2.65-5.59,2.63-10.03l-.14-27.41h7.77l.14,26.99c.03,6.77-1.53,11.88-4.68,15.41-3.17,3.5-7.8,5.27-13.92,5.27s-10.69-1.77-13.86-5.27c-3.19-3.52-4.79-8.64-4.82-15.41l-.14-26.99h7.77l.14,27.41Z"/>
      <path class="cls-1" d="M733.02,102.96c2.05,1.69,4.73,2.54,8.02,2.54,2.87,0,5.19-.63,6.98-1.87,1.76-1.24,2.64-2.95,2.63-5.16,0-1.57-.49-2.83-1.46-3.76-.99-.92-2.29-1.63-3.97-2.12-1.67-.49-4.02-1-7.03-1.55-3.07-.53-5.69-1.24-7.88-2.12-2.19-.87-3.97-2.2-5.35-4.01-1.39-1.79-2.09-4.17-2.1-7.08-.01-2.72.68-5.12,2.09-7.24,1.43-2.11,3.38-3.76,5.92-4.92,2.55-1.18,5.46-1.75,8.75-1.75s6.4.63,9.06,1.89c2.66,1.26,4.76,2.99,6.3,5.19,1.55,2.2,2.38,4.72,2.54,7.56h-7.63c-.29-2.42-1.34-4.39-3.2-5.86-1.86-1.5-4.2-2.22-7.04-2.22s-4.94.59-6.58,1.79c-1.63,1.18-2.45,2.85-2.43,5.02,0,1.53.51,2.75,1.47,3.66.97.89,2.27,1.57,3.89,2.01,1.62.45,3.94.96,6.97,1.5,3.05.53,5.69,1.26,7.9,2.16,2.21.91,4.03,2.22,5.43,3.97,1.41,1.75,2.11,4.07,2.12,6.97.01,2.79-.72,5.29-2.19,7.5-1.48,2.2-3.54,3.92-6.19,5.16-2.65,1.24-5.66,1.87-9.04,1.87-3.74,0-7.03-.69-9.87-2.03-2.84-1.36-5.07-3.25-6.68-5.65-1.61-2.4-2.45-5.16-2.5-8.26l7.63.14c.23,2.77,1.38,5.02,3.44,6.71"/>
      <path class="cls-1" d="M772.75,66.97c3.43-2.01,7.44-3.01,12.05-3.01,3.54,0,6.75.69,9.63,2.03,2.86,1.36,5.19,3.29,7.01,5.78,1.8,2.5,2.98,5.39,3.49,8.68h-7.77c-.78-3.03-2.27-5.39-4.48-7.1s-4.95-2.56-8.2-2.56c-2.91,0-5.49.73-7.68,2.18-2.2,1.48-3.88,3.5-5.03,6.08-1.17,2.6-1.72,5.57-1.71,8.95.02,3.33.6,6.3,1.8,8.91,1.17,2.62,2.88,4.64,5.09,6.12,2.21,1.46,4.79,2.18,7.7,2.18,3.25,0,5.96-.85,8.13-2.56,2.18-1.71,3.64-4.07,4.39-7.1h7.75c-.47,3.34-1.6,6.24-3.36,8.72-1.76,2.48-4.07,4.39-6.9,5.75-2.83,1.34-6.03,2.03-9.63,2.03-4.6,0-8.62-1-12.08-2.97-3.45-1.99-6.12-4.78-8.01-8.4-1.89-3.64-2.83-7.85-2.86-12.67-.02-4.76.88-8.97,2.73-12.59s4.49-6.43,7.93-8.44"/>
      <polygon class="cls-1" points="840.12 111.63 840.01 91.11 818.07 91.11 818.18 111.63 810.43 111.63 810.19 64.29 817.94 64.29 818.04 84.22 839.98 84.22 839.88 64.29 847.65 64.29 847.89 111.63 840.12 111.63"/>
      <polygon class="cls-1" points="855.01 64.38 862.76 64.38 863 111.64 855.25 111.64 855.01 64.38"/>
      <path class="cls-1" d="M566.92,151.63c2.79,0,4.99-.75,6.64-2.26,1.63-1.52,2.44-3.52,2.43-6.04-.01-2.58-.83-4.58-2.45-6.08-1.64-1.48-3.85-2.22-6.64-2.22h-10.25l.08,16.61h10.19ZM576.06,130.13c2.49,1.24,4.4,2.99,5.77,5.27,1.35,2.26,2.05,4.92,2.07,7.93s-.66,5.67-1.99,7.93c-1.35,2.28-3.25,4.03-5.72,5.27s-5.32,1.85-8.57,1.85h-10.86l.09,17.16h-7.77l-.24-47.26h18.63c3.25,0,6.1.61,8.59,1.85"/>
      <path class="cls-1" d="M596.11,155.69c.02,4.45.92,7.79,2.69,10.03,1.76,2.22,4.48,3.34,8.18,3.34s6.49-1.12,8.25-3.34c1.78-2.24,2.65-5.59,2.63-10.03l-.14-27.41h7.77l.14,26.99c.03,6.77-1.53,11.88-4.68,15.41-3.17,3.5-7.8,5.27-13.92,5.27s-10.69-1.77-13.86-5.27c-3.19-3.52-4.79-8.64-4.82-15.41l-.14-26.99h7.77l.14,27.41Z"/>
      <polygon class="cls-1" points="675.21 175.54 675.03 140.75 661.04 175.54 654.49 175.54 640.13 140.75 640.3 175.54 632.81 175.54 632.57 128.28 642.64 128.28 657.94 165.49 672.61 128.28 682.48 128.28 682.72 175.54 675.21 175.54"/>
      <path class="cls-1" d="M707.91,151.63c2.79,0,4.99-.75,6.64-2.26,1.63-1.52,2.44-3.52,2.43-6.04-.01-2.58-.83-4.58-2.45-6.08-1.64-1.48-3.85-2.22-6.64-2.22h-10.25l.08,16.61h10.19ZM717.05,130.13c2.49,1.24,4.4,2.99,5.77,5.27,1.35,2.26,2.05,4.92,2.07,7.93.02,3.01-.66,5.67-1.99,7.93-1.35,2.28-3.25,4.03-5.72,5.27s-5.32,1.85-8.57,1.85h-10.86l.09,17.16h-7.77l-.24-47.26h18.63c3.25,0,6.1.61,8.59,1.85"/>
      <path class="cls-1" d="M738.95,166.86c2.05,1.69,4.73,2.54,8.02,2.54,2.87,0,5.21-.63,6.98-1.87,1.76-1.24,2.64-2.95,2.63-5.16,0-1.57-.49-2.83-1.46-3.76-.99-.92-2.29-1.63-3.97-2.12-1.67-.49-4.02-1-7.03-1.55-3.07-.53-5.69-1.24-7.88-2.12-2.19-.87-3.97-2.2-5.35-4.01-1.39-1.81-2.09-4.17-2.1-7.08-.01-2.72.68-5.12,2.11-7.24,1.41-2.11,3.37-3.76,5.92-4.92,2.53-1.18,5.44-1.75,8.73-1.75s6.4.63,9.06,1.89c2.66,1.26,4.76,2.99,6.3,5.19,1.55,2.2,2.38,4.72,2.54,7.56h-7.63c-.29-2.42-1.34-4.39-3.2-5.86-1.86-1.5-4.2-2.22-7.04-2.22s-4.94.59-6.58,1.77c-1.63,1.2-2.45,2.87-2.43,5.04,0,1.53.51,2.75,1.47,3.66.97.89,2.27,1.57,3.89,2.01,1.64.45,3.94.96,6.97,1.5,3.05.53,5.69,1.26,7.9,2.16,2.21.91,4.03,2.22,5.43,3.97,1.41,1.75,2.11,4.07,2.12,6.97.01,2.79-.72,5.29-2.19,7.5-1.48,2.2-3.54,3.92-6.19,5.16-2.65,1.24-5.66,1.87-9.04,1.87-3.74,0-7.03-.69-9.87-2.03-2.84-1.36-5.07-3.25-6.68-5.65-1.61-2.4-2.45-5.16-2.5-8.26l7.63.14c.23,2.77,1.38,5.02,3.44,6.71"/>
      <path class="cls-1" d="M516.9,175.54l-35.74-64.63c-.14-.24-.24-.47-.34-.73-1.1-2.87.34-6.08,3.21-7.16,17.81-6.77,30.47-23.98,30.37-44.19l-.06-11.1c-.13-26.11-21.39-47.26-47.48-47.26H47C20.91.46-.13,21.62,0,47.73l.06,11.1c.13,26.09,21.39,47.24,47.48,47.24h162.68c6.14,0,11.14,4.98,11.17,11.12l.06,11.12c.03,6.14-4.92,11.12-11.06,11.12H.46l.18,36.12h209.92c26.09,0,47.13-21.15,47-47.24l-.06-11.12c-.13-26.09-21.39-47.24-47.48-47.24H47.35c-6.14,0-11.14-4.98-11.17-11.12l-.06-11.1c-.03-6.16,4.92-11.14,11.06-11.14h419.86c6.14,0,11.14,4.98,11.17,11.14l.06,11.1c.03,6.14-4.92,11.12-11.06,11.12h-162.74c-26.07.04-47.09,21.17-46.96,47.24l.06,11.12.24,47.24h36.12l-.24-47.24-.06-11.12c-.03-6.14,4.92-11.12,11.06-11.12h133.38v-.04s38.58,69.47,38.58,69.47v.04h40.24Z"/>
    </g>
  </g>
</svg>