<?xml version="1.0" encoding="UTF-8"?>
<svg id="Livello_2" data-name="Livello 2" xmlns="http://www.w3.org/2000/svg" viewBox="0 0 793.85 257.02">
  <defs>
    <style>
      .cls-1 {
        fill: #fff;
      }
    </style>
  </defs>
  <g id="Livello_1-2" data-name="Livello 1">
    <g>
      <path class="cls-1" d="M669.12,164.06c15.26,5.59,38.5,6.91,51.47-4.43,20.37-17.85,21.03-74.87-6.4-86.65-12.97-5.57-33.99-1.81-45.08,6.81v84.27ZM665.81,0c1.41,1.59,2.14,2.97,2.41,5.14,2.12,18.53-1.43,40.69.24,59.62,7.52-2.28,14.11-7.02,21.93-8.74,51.98-11.37,70.74,36.2,62.77,79.55-9.8,53.4-59.71,48.48-102.62,43.62l.2-179.19h15.07Z"/>
      <path class="cls-1" d="M317.83,1.16l.32,63.61c18.19-6.55,33.16-13.81,53.06-8.42,13.32,3.6,27.03,17.89,27.1,32.11l.47,91.94h-16.82c-1.28,0-1.69-2.81-1.83-3.99-3.22-26.35,2.79-59.13-.35-85.63-3.6-30.18-43.85-22.88-61.54-10.41l.51,100.03h-17.39l-.91-179.24h17.39Z"/>
      <path class="cls-1" d="M600.28,115.64c-20.82-.33-59.63,4.55-60.03,31.93-.45,30.71,47.65,17.89,60.2,3.34l-.18-35.28ZM621.7,166.22c3.34,3.11,11.92.08,14.85,1.99,1.2.81,2.67,6.45,2.38,7.93-.52,2.66-16.34,6.43-19.31,6.45-10.59.04-16.91-8.58-17.96-18.38-1.6-1.36-11.32,7.04-13.95,8.58-14.85,8.74-33.32,13.3-49.75,5.86-17.16-7.75-20.89-30.62-12.81-46.04,9.49-18.08,37.14-25.4,56.08-27.23,15.61-1.51,20.85,5.86,18.89-14.58-2.37-24.87-25.25-25.52-44.56-17.79-3.73,1.5-16.51,10.25-17.54,10.25-2.77.02-10.8-11.18-9.8-12.59,21.61-17.71,73.67-26.37,86.76,5.21,6.37,15.35,1.42,54.93,2.81,73.92.25,3.56,1.65,14.3,3.9,16.41"/>
      <path class="cls-1" d="M158.28,105.23c-1.71-23.83-9.62-37.86-35.6-35.89-18.74,1.42-28.63,18.51-28.19,35.89h63.79ZM93.39,117.96c.98,18.16,9.19,46.65,30.94,48.62,19.02,1.71,29.76-4.96,41.87-18.48,3.77,3.03,14.46,8.05,10.99,13.28-5.68,8.56-22.36,17.67-32.38,19.68-50.42,10.07-73.54-28.69-70.01-74.06,3.03-39.04,33.94-62,72.28-49.23,15.47,5.17,29.65,23.61,29.74,39.94l.09,18.51c0,.12-1.62,1.73-1.74,1.73h-81.77Z"/>
      <path class="cls-1" d="M35.97,1.16l.17,34.12c0,.12,1.62,1.73,1.74,1.73h28.43c-.03,5.88.32,13.52-2.82,18.5h-25.52c-1.26,0-1.64,2.83-1.77,3.99-1.85,16.43-1.23,78.96,2.93,93.66,4.77,16.9,18.17,10.47,31.27,8.76-1.42,3.52,1.71,14.78,1.19,16.63-.29.96-.96,1.36-1.88,1.65-2.65.89-16.51,2.58-19.54,2.58-9.17-.02-21.03-4.19-25.94-12.36-1.15-1.93-4.87-13.1-4.88-14.87l-.51-100.03H2.02c-2.64,0-2.73-18.5-.09-18.5h16.82l-.18-35.85h17.39Z"/>
      <path class="cls-1" d="M289.47,158.59c3.51,5.98-18.34,19.09-23.45,20.72-59.95,19.11-95.2-44.51-71.74-94.17,14.09-29.81,56.77-41.16,83.16-20.86,11.79,9.05,5.3,9.23-2.86,17.75-11.48-10.27-21.84-16.04-37.9-13.52-46.61,7.28-37.8,115.24,21.47,98.38,9.49-2.7,18.16-15.03,19.38-15.33.88-.2,11.58,6.43,11.94,7.02"/>
      <path class="cls-1" d="M513.34,158.6c4.07,6.83-19.83,19.46-25.51,20.97-56.63,15.05-88.91-37.97-72.16-87.67,11.53-34.22,56.73-49.86,85.65-27.62,2.65,2.03,8.16,6.08,6.03,9.19-10.45,15.25-12.8,2.6-22.5-1.97-11.5-5.43-26.84-4.76-37.11,2.72-29.35,21.35-19.65,94.11,21.18,94.72,6.08.1,15.98-2.3,21.12-5.59,3.2-2.07,9.96-10.62,12.38-10.68.92-.02,10.61,5.41,10.93,5.94"/>
      <path class="cls-1" d="M689.09,246.32h-5.8c-1.01-4.45,2.9-18.1-4.14-17.41-5.82.57-1.34,16-2.82,17.41-.16.16-4.47.16-4.62,0-1.96-1.85,4.26-20.74-6.3-17.18-4.07,1.36-.63,16.04-1.82,17.18-.18.16-4.64.24-4.64,0l-.11-20.82c3.57,1.06,8.22-1.14,11.07-1.02,2.13.1,3.59,1.95,5.7,2.05,2.77.12,13.38-3.66,13.41,3.03l.08,16.76Z"/>
      <path class="cls-1" d="M526.77,236.95c5.76,3.54,7.83-7.93,3.85-9.13-5.2-1.55-6.3,7.61-3.85,9.13M522.06,246.32c-4.84-3.86-.29-6.08-.14-8.6.16-2.81-2.87-7.3.36-10.76,1.23-1.34,6.44-2.83,8.41-2.73,1.14.04,4.27,4.6,8.67,2.44-.84,7.99-4.79,14.7-13.86,14.46,25.48,4.82,14.93,19.4-5.56,13.14-.98-2.5.04-3.76.97-5.63h3.48c-1.6,6.51,11.52,6.63,10.45.57-.3-1.73-8.94-1.36-10.46-1.73-.12-.04-2.23-1.08-2.33-1.16"/>
      <path class="cls-1" d="M361.43,227.92c-3.28,1.08-3.13,11.18,3.29,9.05,3.28-1.08,3.15-11.2-3.29-9.05M357.35,247.48c.85-2.89-3-2.6-3.48-4.13-.66-2.16,2.09-3.64,2.04-5.49-.05-1.93-2.1-3.48-1.63-6.63,1.46-9.96,13.71-5.51,20.37-5.71,1.27,5.33-2.6,2.68-3.37,3.52-1.15,1.26,2.74,9.39-5.51,11.25-2.44.55-5.29-.33-7.3.81,3.7,3.17,14.03,1.2,15.15,6.97.93,4.88-.79,7.12-5.79,6.34l1.13-5.76c-3.62-.57-6.68-1.38-10.45-1.16-.37.02-.81-.08-1.16,0"/>
      <path class="cls-1" d="M429.2,233.59c1.23-5.51-7.04-6.91-8.1-1.69-.69,3.36,6.48,1.08,8.1,1.69M435.02,237.07c-1.33,1.34-17.8-3.19-11.69,4.13,4.18,5.02,10.73-3.4,11.69,1.08,1.37,6.36-21.3,9.8-19.7-7.97,1.32-14.52,22.4-12.93,19.69,2.75"/>
      <path class="cls-1" d="M453.56,233.59c1.23-5.51-7.04-6.91-8.1-1.69-.69,3.36,6.48,1.08,8.1,1.69M459.38,237.07c-1.33,1.34-17.8-3.19-11.69,4.13,4.18,5.02,10.73-3.4,11.69,1.08.97,4.45-11.82,8.2-16.77,1.69-13.15-17.33,18.34-30.63,16.77-6.91"/>
      <path class="cls-1" d="M707.59,235.92c-4.14-2.34-10.78,4.27-8.07,6.93,2.25,2.22,11.07-1.06,8.07-6.93M712.52,242.63c.5.85,3.76.81,3.26,3.11-2.94,2.93-6.49.49-9.82.53-3.58.04-5.3,2.62-9.4.12-3.24-1.97-3.75-6.71-1.82-9.72,1.37-2.11,15.66-3.62,11.67-7.69-1.21-1.2-7.98,1.48-9.68,1.02-6.48-1.69,2.88-5.65,6.74-5.67,14.17-.08,6.25,13.52,9.04,18.3"/>
      <path class="cls-1" d="M639.87,229.09c-4.2,1.46-4.56,16.51,4.36,13.6,4.89-1.61,4.83-16.76-4.36-13.6M639.98,224.56c17.32-2.99,17.7,25.52.11,22.67-11.76-1.91-11.58-20.68-.11-22.67"/>
      <path class="cls-1" d="M316.69,233.59c3.56-3.44-9.13-8.54-6.37.02,1.38-.28,5.98.35,6.37-.02M322.51,237.07c-1.33,1.34-17.8-3.19-11.69,4.13,4.32,5.17,9.98-3.38,11.69,1.08,1,2.56-.05,2.3-1.44,3.19-8.28,5.27-18.12-.04-17.9-9.96.36-15.35,22.4-14.66,19.33,1.55"/>
      <path class="cls-1" d="M773.66,226.08c.81-2.95,4.68-.47,6.37-.57,2.01-.12,3.89-1.22,5.74-1.12,10.63.51,8.61,22.23,5.96,23.08-8.76,2.77,1.44-22.29-10.34-18.34-3.71,1.26-1.11,13.64-1.82,17.2h-5.8c.94-5.45-1.4-15.52-.1-20.25"/>
      <path class="cls-1" d="M581.97,226.95c2.99,3.17.59,11.27,1.51,15.09.38,1.55,4.37,1.26,3.52,4.27-3.75,2.18-6.67-.02-9.86,0-2.03,0-3.99,1.26-5.86,1.24-8.91-.12-8.62-15.31,1.75-12.79-.26,3.05-3.3,4.54-2.28,8.09,5.35.59,9.48.24,8.13-6.36-.26-1.3-3.13-.22-3.52-.59-.56-2.44,4.25-4.45,1.15-6.39-1.32-.83-13.88,1.71-10.48-2.83,1.82-2.44,12.95-2.87,15.94.28"/>
      <path class="cls-1" d="M610.21,246.32c-6.27-2.68-12.02,3.95-17.36-.61-3.4-2.91-3.59-20.44-.72-21.35,7.45-2.36,1.91,15.68,5.21,17.98,9.4,6.55,6.62-13.58,8.67-16.88,1.42-2.28,4.09-.18,4.1.61l.1,20.25Z"/>
      <path class="cls-1" d="M760.76,229.14c-8.59-5.29-12.75,12.04-4.45,14.4,7.84,2.2,6.37-13.22,4.45-14.4M754.78,224.57c16.69-3.7,18.07,24.87,1.12,22.88-12.52-1.5-11.85-20.5-1.12-22.88"/>
      <path class="cls-1" d="M499.92,226.66c3.83-.49,9.59-3.09,12.83.51,3.66,4.05,1.88,13.97,2.36,19.14h-5.82c-1.09-5.29,3.08-17.41-4.14-17.45-9.19-.04,1.21,17.37-8.02,17.47-2.75.04-1.58-.73-1.77-2.85-.31-3.46-.72-13.97-.09-16.82,1.51-.14,3.15.2,4.64,0"/>
      <path class="cls-1" d="M726.07,219.71c.4.41-.59,3.56.18,4.47.93,1.1,3.87-.69,4.5,3.07.59,3.4-3.85.94-4.63,1.71-.49.49-.33,12.4,1.17,13.38.77.51,10.1.71,2.09,4.27-12.31,5.49-7.89-11.57-8.98-17-.26-1.4-3.15-.28-3.56-.63-1.74-1.61,2.99-3.38,3.54-4.27.82-1.34.8-4.51,1.2-4.84.37-.31,4.35-.31,4.5-.16"/>
      <path class="cls-1" d="M622.84,219.71c.4.41-.59,3.58.18,4.47.75.85,3.97-.57,4.5,3.07.47,3.19-3.5.69-4.49,3.6-.47,1.4-.41,8.72.07,10.11,1,2.87,5.26,1.51,5.66,1.89,3.24,3.11-7.49,8.38-10.72.87-2.05-4.78.03-9.78-.98-13.97-.2-.92-2.17-.85-2.31-1.38-.96-3.34,1.74-2.58,2.32-3.64.78-1.44.94-4.6,1.25-4.86.37-.31,4.35-.31,4.5-.16"/>
      <path class="cls-1" d="M465.12,226.08c1.06-3.86,4.8.49,6.38.55,2.11.1,4.41-2.81,6.93-2.3,3.48,7.48-5.43,4.74-6.99,6.87-1.86,2.58.97,12.3-.97,15.15-1.62,2.38-5.25.55-5.26-.61-.02-4.49-.99-16.41-.1-19.66"/>
      <path class="cls-1" d="M390.89,226.66c.83-3.84,4.15-1.02,6.37-1.16,5.76-.33,11.87-2.52,13.31,6.43.55,3.48,1.84,16.84-3.82,15.48-3.88-.94-.31-14.17-2.96-17.77-1.27-1.71-5.31-.12-7.09-.67-.34-.12-2.7-3.86-5.82-2.32"/>
      <path class="cls-1" d="M334.05,225.5c3.64-.59,13.9-1.81,13.93,4.05l.08,16.76c0,.24-4.47.16-4.62,0-1.74-1.65,4.7-23.1-9.37-16.19l-.02-4.62Z"/>
      <path class="cls-1" d="M735.39,226.08c.77-2.73,5.8-1.73,5.8,0l.1,19.66c.01,2.18-5.79,2.18-5.8,0-.02-4.41-.99-16.53-.1-19.66"/>
      <path class="cls-1" d="M383.92,225.5l.11,20.82h-5.8l-.1-19.09c0-1.51,4.28-2.11,5.8-1.73"/>
      <path class="cls-1" d="M488.32,225.5l.11,20.82c-10.1,1.77-2.85-14.46-4.75-20.82h4.64Z"/>
      <path class="cls-1" d="M396.7,228.97c-2.11,2.77-.45,16.74-1.07,17.35-.18.16-4.47.16-4.62,0-.73-.69-.47-18.04-.12-19.68,3.12-1.53,5.48,2.22,5.82,2.32"/>
      <path class="cls-1" d="M334.05,225.5l.02,4.62c.01,2.4.67,15.64.08,16.19-.18.16-4.47.16-4.64,0-.63-.59-.39-15.43-.09-17.35.04-.18,1.01-3.34,1.14-3.46.25-.24,2.56.16,3.48,0"/>
      <path class="cls-1" d="M357.35,247.48c.35-.08.79.02,1.16,0-.89,6.53,2.96,6.12,8.14,5.78-2.72,10.13-22.76-3.13-9.3-5.78"/>
      <polygon class="cls-1" points="735.34 216.25 741.14 216.25 741.16 220.87 735.36 220.87 735.34 216.25"/>
      <path class="cls-1" d="M488.29,220.87c-.67.71-6.49-.02-5.8-2.87,1.5-6.14,8.73-.2,5.8,2.87"/>
      <path class="cls-1" d="M383.89,220.87c-.67.71-6.49-.02-5.8-2.87,1.5-6.14,8.73-.2,5.8,2.87"/>
      <path class="cls-1" d="M499.92,226.66c-1.49.2-3.13-.14-4.64,0,.69-3.09,3.74-2.99,4.64,0"/>
      <path class="cls-1" d="M329.42,228.97c-2.52-.65-.66-2.97,1.14-3.46-.14.12-1.12,3.29-1.14,3.46"/>
      <path class="cls-1" d="M524.38,247.48v1.16s-3.48,0-3.48,0c.39-.77.78-1.53,1.15-2.32.1.08,2.21,1.12,2.33,1.16"/>
    </g>
  </g>
</svg>