<?xml version="1.0" encoding="UTF-8"?>
<svg id="Livello_2" data-name="Livello 2" xmlns="http://www.w3.org/2000/svg" viewBox="0 0 865.36 345.11">
  <defs>
    <style>
      .cls-1 {
        fill: none;
        stroke: #fff;
        stroke-miterlimit: 10;
        stroke-width: .11px;
      }

      .cls-2 {
        fill: #fff;
      }
    </style>
  </defs>
  <g id="Livello_1-2" data-name="Livello 1">
    <g>
      <path class="cls-2" d="M37.96,315.29c0,.92.17,1.79.31,2.58,1.16,4.35,4.96,7.34,9.44,7.34,6.63,0,10.46-5.41,10.42-13.34-.03-6.91-3.7-12.83-10.34-12.83-4.27,0-8.25,3.07-9.44,7.77-.21.79-.42,1.71-.42,2.58l.03,5.9ZM31.72,306.1c-.02-4.43-.18-7.99-.33-11.27h5.63l.31,5.92h.16c2.54-4.21,6.6-6.69,12.22-6.69,8.34,0,14.65,7.04,14.71,17.53.06,12.4-7.46,18.53-15.61,18.53-4.55,0-8.55-1.99-10.63-5.41h-.16l.09,18.75h-6.2l-.19-37.36Z"/>
      <path class="cls-2" d="M89.99,311.74c-6.85-.14-14.61,1.06-14.58,7.77.02,4.07,2.75,5.98,5.95,5.98,4.49,0,7.32-2.85,8.31-5.76.21-.65.35-1.36.34-2.01l-.03-5.98ZM91,329.35l-.51-4.35h-.22c-1.91,2.72-5.6,5.14-10.52,5.14-7,0-10.59-4.92-10.62-9.92-.04-8.34,7.35-12.91,20.69-12.83v-.71c-.02-2.85-.83-7.99-7.89-7.99-3.21,0-6.55,1-8.96,2.56l-1.46-4.13c2.84-1.85,6.97-3.07,11.32-3.07,10.55,0,13.16,7.2,13.2,14.13l.07,12.91c.02,2.99.17,5.9.61,8.26h-5.71Z"/>
      <path class="cls-2" d="M105.64,305.6c-.02-4.05-.12-7.56-.35-10.76h5.51l.23,6.77h.3c1.55-4.62,5.31-7.56,9.5-7.56.73,0,1.22.08,1.79.22l.03,5.92c-.65-.16-1.28-.22-2.15-.22-4.41,0-7.54,3.34-8.36,8.05-.13.87-.29,1.85-.28,2.93l.09,18.4h-6.2l-.12-23.75Z"/>
      <path class="cls-2" d="M137.61,284.93l.05,9.92h8.97l.02,4.76h-8.97l.09,18.61c.02,4.29,1.25,6.71,4.74,6.71,1.63,0,2.85-.22,3.64-.43l.3,4.7c-1.2.51-3.12.87-5.54.87-2.93,0-5.28-.92-6.78-2.64-1.8-1.87-2.46-4.92-2.49-8.99l-.1-18.83h-5.33l-.02-4.76h5.33l-.04-8.28,6.13-1.63Z"/>
      <path class="cls-2" d="M174.73,308.75c.06-3.99-1.68-10.19-8.75-10.19-6.36,0-9.1,5.84-9.57,10.19h18.32ZM156.36,313.23c.18,8.48,5.63,11.98,11.91,11.98,4.49,0,7.2-.79,9.53-1.79l1.09,4.51c-2.2.98-5.97,2.12-11.46,2.12-10.62,0-17-6.98-17.05-17.39s6.02-18.61,16.08-18.61c11.27,0,14.31,9.92,14.35,16.25,0,1.3-.13,2.28-.2,2.93h-24.24Z"/>
      <path class="cls-2" d="M226.19,308.89c0-.79-.07-1.85-.29-2.64-.94-3.99-4.39-7.28-9.11-7.28-6.47,0-10.3,5.71-10.26,13.34.04,6.98,3.49,12.75,10.26,12.75,4.21,0,8.05-2.77,9.17-7.48.21-.87.27-1.71.26-2.72l-.03-5.98ZM232.32,278.73l.21,41.71c.02,3.05.11,6.55.32,8.91h-5.63l-.31-6h-.16c-1.89,3.86-6.08,6.79-11.71,6.79-8.34,0-14.81-7.06-14.87-17.55-.12-11.47,6.97-18.53,15.39-18.53,5.27,0,8.85,2.5,10.44,5.27h.14l-.1-20.6h6.28Z"/>
      <path class="cls-2" d="M264.27,308.75c.04-3.99-1.7-10.19-8.75-10.19-6.36,0-9.1,5.84-9.57,10.19h18.32ZM245.89,313.23c.18,8.48,5.63,11.98,11.89,11.98,4.51,0,7.2-.79,9.55-1.79l1.09,4.51c-2.2.98-5.97,2.12-11.46,2.12-10.62,0-17.02-6.98-17.07-17.39-.05-10.41,6.04-18.61,16.1-18.61,11.27,0,14.31,9.92,14.35,16.25,0,1.3-.13,2.28-.2,2.93h-24.24Z"/>
      <polygon class="cls-2" points="277.44 278.73 283.71 278.73 283.97 329.33 277.69 329.33 277.44 278.73"/>
      <path class="cls-2" d="M345.41,327.21c-2.77,1-8.25,2.64-14.74,2.64-7.28,0-13.27-1.85-18-6.36-4.15-3.97-6.76-10.41-6.8-17.89,0-14.32,9.79-24.81,25.91-24.81,5.57,0,9.92,1.22,11.99,2.2l-1.47,5.08c-2.58-1.14-5.8-2.07-10.64-2.07-11.71,0-19.28,7.26-19.22,19.32.06,12.18,7.44,19.38,18.63,19.38,4.05,0,6.84-.57,8.26-1.28l-.07-14.32h-9.76l-.03-5h15.82l.12,23.1Z"/>
      <path class="cls-2" d="M354.06,305.6c-.02-4.05-.12-7.56-.33-10.76h5.47l.25,6.77h.3c1.55-4.62,5.31-7.56,9.52-7.56.71,0,1.2.08,1.77.22l.03,5.92c-.65-.16-1.28-.22-2.15-.22-4.41,0-7.54,3.34-8.36,8.05-.15.87-.29,1.85-.28,2.93l.09,18.4h-6.2l-.12-23.75Z"/>
      <path class="cls-2" d="M405.82,319.94c.02,3.56.11,6.71.34,9.4h-5.57l-.38-5.63h-.16c-1.62,2.77-5.24,6.41-11.36,6.41-5.43,0-11.92-2.99-11.98-15.11l-.1-20.17h6.26l.1,19.1c.03,6.55,2.06,10.98,7.77,10.98,4.21,0,7.11-2.93,8.23-5.71.35-.92.56-2.07.55-3.21l-.11-21.17h6.28l.13,25.09Z"/>
      <path class="cls-2" d="M421.9,315.29c0,.92.15,1.79.31,2.58,1.16,4.35,4.96,7.34,9.44,7.34,6.63,0,10.46-5.41,10.42-13.34-.03-6.91-3.7-12.83-10.34-12.83-4.27,0-8.25,3.07-9.44,7.77-.21.79-.42,1.71-.42,2.58l.03,5.9ZM415.65,306.1c-.02-4.43-.18-7.99-.35-11.27h5.65l.31,5.92h.14c2.56-4.21,6.62-6.69,12.24-6.69,8.34,0,14.65,7.04,14.71,17.53.06,12.4-7.48,18.53-15.61,18.53-4.55,0-8.55-1.99-10.65-5.41h-.14l.09,18.75h-6.2l-.19-37.36Z"/>
      <path class="cls-2" d="M461.96,315.29c0,.92.17,1.79.31,2.58,1.16,4.35,4.96,7.34,9.44,7.34,6.63,0,10.46-5.41,10.42-13.34-.03-6.91-3.7-12.83-10.34-12.83-4.27,0-8.25,3.07-9.44,7.77-.21.79-.42,1.71-.42,2.58l.03,5.9ZM455.71,306.1c-.02-4.43-.18-7.99-.35-11.27h5.65l.31,5.92h.16c2.54-4.21,6.58-6.69,12.22-6.69,8.34,0,14.65,7.04,14.71,17.53.06,12.4-7.48,18.53-15.61,18.53-4.56,0-8.55-1.99-10.63-5.41h-.16l.09,18.75h-6.2l-.19-37.36Z"/>
      <path class="cls-2" d="M499.67,312.16c.04,7.56,4.42,13.26,10.53,13.26s10.46-5.63,10.42-13.4c-.03-5.84-3-13.26-10.42-13.26s-10.57,6.85-10.54,13.4M527.03,311.81c.06,12.77-8.74,18.32-17.08,18.32-9.35,0-16.58-6.85-16.64-17.75-.06-11.55,7.46-18.32,17.03-18.32s16.64,7.2,16.7,17.75"/>
      <path class="cls-2" d="M548.46,321.79c2.78,1.71,6.86,3.15,11.13,3.15,6.36,0,10.04-3.36,10.01-8.2-.02-4.49-2.59-7.06-9.1-9.56-7.86-2.77-12.73-6.85-12.76-13.62-.04-7.48,6.13-13.04,15.48-13.04,4.92,0,8.49,1.14,10.64,2.36l-1.69,5.06c-1.58-.87-4.79-2.28-9.14-2.28-6.55,0-9.03,3.92-9.01,7.2.02,4.49,2.95,6.69,9.59,9.27,8.16,3.13,12.31,7.06,12.35,14.11.04,7.42-5.42,13.83-16.77,13.83-4.62,0-9.69-1.34-12.27-3.05l1.55-5.21Z"/>
      <path class="cls-2" d="M585.32,294.84l7.66,20.38c.8,2.28,1.66,5,2.24,7.06h.16c.62-2.07,1.33-4.7,2.17-7.2l6.74-20.25h6.63l-9.28,24.59c-4.45,11.84-7.48,17.9-11.74,21.6-3.06,2.72-6.12,3.78-7.67,4.07l-1.6-5.29c1.57-.49,3.63-1.5,5.47-3.05,1.7-1.36,3.84-3.78,5.24-7,.29-.63.49-1.14.48-1.5,0-.35-.14-.85-.42-1.63l-12.93-31.8h6.85Z"/>
      <path class="cls-2" d="M616.16,304.18c-.02-3.56-.11-6.49-.34-9.35h5.57l.38,5.71h.14c1.7-3.29,5.67-6.49,11.38-6.49,4.78,0,12.21,2.85,12.27,14.7l.1,20.6h-6.28l-.1-19.89c-.03-5.55-2.12-10.19-8.04-10.19-4.13,0-7.32,2.93-8.37,6.41-.29.79-.42,1.85-.42,2.93l.1,20.74h-6.28l-.13-25.17Z"/>
      <path class="cls-2" d="M677.14,308.75c.06-3.99-1.68-10.19-8.75-10.19-6.36,0-9.1,5.84-9.57,10.19h18.32ZM658.77,313.23c.18,8.48,5.63,11.98,11.91,11.98,4.49,0,7.18-.79,9.53-1.79l1.09,4.51c-2.2.98-5.97,2.12-11.46,2.12-10.62,0-17-6.98-17.05-17.39-.05-10.41,6.02-18.61,16.08-18.61,11.27,0,14.31,9.92,14.35,16.25,0,1.3-.13,2.28-.2,2.93h-24.24Z"/>
      <path class="cls-2" d="M690.45,305.6c-.02-4.05-.12-7.56-.35-10.76h5.51l.23,6.77h.3c1.55-4.62,5.31-7.56,9.5-7.56.73,0,1.22.08,1.79.22l.03,5.92c-.65-.16-1.28-.22-2.15-.22-4.41,0-7.54,3.34-8.36,8.05-.13.87-.29,1.85-.28,2.93l.09,18.4h-6.2l-.12-23.75Z"/>
      <path class="cls-2" d="M735.94,308.45c0-1.06-.07-1.99-.37-2.85-1.16-3.64-4.24-6.63-8.81-6.63-5.98,0-10.23,5.06-10.19,13.04.03,6.77,3.49,12.42,10.25,12.42,3.84,0,7.33-2.42,8.66-6.41.35-1.08.48-2.28.47-3.36l-.03-6.2ZM742.37,294.84c-.13,2.5-.27,5.27-.25,9.48l.1,20.03c.04,7.91-1.49,12.77-4.84,15.76-3.33,3.13-8.16,4.13-12.51,4.13s-8.7-1-11.51-2.85l1.55-4.78c2.29,1.44,5.86,2.72,10.15,2.72,6.41,0,11.1-3.34,11.06-12.04l-.02-3.86h-.14c-1.91,3.21-5.62,5.76-10.95,5.76-8.56,0-14.73-7.26-14.78-16.82-.06-11.69,7.54-18.32,15.45-18.32,5.98,0,9.28,3.15,10.79,5.98h.14l.27-5.19h5.49Z"/>
      <path class="cls-2" d="M773.94,308.75c.04-3.99-1.68-10.19-8.75-10.19-6.36,0-9.1,5.84-9.57,10.19h18.32ZM755.57,313.23c.18,8.48,5.63,11.98,11.91,11.98,4.49,0,7.18-.79,9.53-1.79l1.09,4.51c-2.2.98-5.97,2.12-11.46,2.12-10.62,0-17-6.98-17.05-17.39-.05-10.41,6.02-18.61,16.08-18.61,11.27,0,14.31,9.92,14.35,16.25,0,1.3-.13,2.28-.2,2.93h-24.24Z"/>
      <path class="cls-2" d="M794.7,284.93l.05,9.92h8.99l.02,4.76h-8.99l.09,18.61c.02,4.29,1.25,6.71,4.74,6.71,1.65,0,2.85-.22,3.64-.43l.3,4.7c-1.2.51-3.12.87-5.54.87-2.93,0-5.28-.92-6.78-2.64-1.8-1.87-2.46-4.92-2.49-8.99l-.1-18.83h-5.33l-.02-4.76h5.33l-.04-8.28,6.13-1.63Z"/>
      <path class="cls-2" d="M810.3,294.84h6.28l.17,34.51h-6.28l-.17-34.51ZM817.23,285.14c.09,2.14-1.48,3.86-3.97,3.86-2.2,0-3.79-1.71-3.8-3.86-.01-2.2,1.61-3.92,3.9-3.92s3.87,1.71,3.88,3.92"/>
      <path class="cls-2" d="M851.24,328.06c-1.63.87-5.26,2.01-9.91,2.01-10.41,0-17.21-7.06-17.27-17.61-.05-10.62,7.19-18.34,18.44-18.34,3.72,0,6.99.92,8.71,1.79l-1.39,4.84c-1.5-.85-3.86-1.63-7.29-1.63-7.91,0-12.15,5.84-12.11,13.04.04,7.99,5.18,12.91,12.03,12.91,3.56,0,5.92-.92,7.7-1.71l1.09,4.7Z"/>
      <line class="cls-1" x1="18.35" y1="233.44" x2="865.36" y2="233.44"/>
      <path class="cls-2" d="M179.19,0l.13,24.83c.16,30.87-11.79,60.52-33.31,82.56l-12.37,12.67c-.06.06-.12.14-.18.2-16.09,16.61-25.03,38.86-24.91,62.04L25.86,98.4C9.52,81.81.3,59.52.18,36.3L0,0l82.69,83.9c16.34,16.59,25.56,38.88,25.68,62.1l-.13-24.83c-.16-30.87,11.79-60.52,33.31-82.56L179.19,0Z"/>
      <polygon class="cls-2" points="301.53 144.59 251.68 53.18 270.26 53.18 313.71 133.24 356.24 53.18 374.67 53.18 325.75 144.59 301.53 144.59"/>
      <polygon class="cls-2" points="401.56 144.59 401.1 53.18 491.1 53.18 491.16 66.46 418.44 66.46 418.58 92.63 488.72 92.63 488.78 105.01 418.64 105.01 418.77 131.18 491.49 131.18 491.56 144.59 401.56 144.59"/>
      <path class="cls-2" d="M589.19,100.75c7.12,0,12.47-1.34,16.04-3.99,3.55-2.68,5.32-6.93,5.29-12.77-.03-5.84-1.84-10.09-5.42-12.77-3.59-2.66-8.95-3.99-16.08-3.99h-49.9l.17,33.53h49.9ZM521.78,53.18h71.82c11.33,0,19.95,2.72,25.82,8.13,5.87,5.41,8.84,12.97,8.89,22.69.04,7.48-1.9,13.79-5.77,18.95-3.89,5.16-9.58,8.64-17.05,10.45l22.61,31.21h-19.87l-20.77-29.91h-48.09l.15,29.91h-17.28l-.46-91.41Z"/>
      <polygon class="cls-2" points="658.26 144.59 657.8 53.18 747.79 53.18 747.86 66.46 675.14 66.46 675.27 92.63 745.39 92.63 745.46 105.01 675.33 105.01 675.47 131.18 748.19 131.18 748.25 144.59 658.26 144.59"/>
      <polygon class="cls-2" points="778.92 144.59 778.46 53.18 795.73 53.18 796.12 129.9 864.83 129.9 864.9 144.59 778.92 144.59"/>
    </g>
  </g>
</svg>